<svg xmlns="http://www.w3.org/2000/svg" width="480.988" height="410.586" viewBox="0 0 480.988 410.586">
  <g id="Group_23606" data-name="Group 23606" transform="translate(-633.812 -936.194)">
    <g id="Group_23580" data-name="Group 23580" transform="translate(633.812 936.194)">
      <g id="Group_23563" data-name="Group 23563" transform="translate(0 10.9)" style="mix-blend-mode: multiply;isolation: isolate">
        <path id="Path_67815" data-name="Path 67815" d="M805.819,1059.135l-.029-.247c-.585-3.579-1.221-7.391-1.482-11.34-.345-5.1-.643-10.432-.643-16.006v-.1c0-1.228.632-2.507.665-3.815H701.015c.058,1.3.763,2.707.763,3.917v14.635c0,21.95-4.636,40.227-24.014,51.985h-7.329V1106H840.228v-7.834h-8.161C816.124,1090.321,808.737,1076.619,805.819,1059.135Z" transform="translate(-537.365 -706.311)" fill="#e6e7e8"/>
        <rect id="Rectangle_4746" data-name="Rectangle 4746" width="169.793" height="13.236" transform="translate(133.069 386.45)" fill="#e6e7e8"/>
        <rect id="Rectangle_4747" data-name="Rectangle 4747" width="435.109" height="326.443" rx="4.798" transform="translate(0.001 0.001)" fill="#e6e7e8"/>
        <path id="Path_67816" data-name="Path 67816" d="M1051.486,939.194H651.249a17.439,17.439,0,0,0-17.437,17.437v277.047h435.111V956.631A17.439,17.439,0,0,0,1051.486,939.194Z" transform="translate(-633.812 -939.194)" fill="#e6e7e8"/>
        <path id="Path_67817" data-name="Path 67817" d="M1039.293,943.867H639.052a.457.457,0,0,0-.454.458V1204.4h401.153V944.325A.454.454,0,0,0,1039.293,943.867Z" transform="translate(-621.208 -926.887)" fill="#e6e7e8"/>
        <path id="Path_67818" data-name="Path 67818" d="M780.948,1028.7H679.061v.04c0,4.825.091,9.8.054,14.349l103.98,13.146h0c-.614-3.92-1.246-7.59-1.5-11.529C781.242,1039.615,780.872,1034.277,780.948,1028.7Z" transform="translate(-514.649 -703.472)" fill="#e6e7e8" opacity="0.2"/>
        <path id="Path_67819" data-name="Path 67819" d="M763.1,971.036c0-2.7-1.864-4.909-4.131-4.909H686.383c-2.271,0-4.131,2.206-4.131,4.909v57.409c0,2.7,1.86,4.909,4.131,4.909h72.583c2.267,0,4.131-2.206,4.131-4.909Z" transform="translate(-506.245 -868.266)" fill="#e6e7e8"/>
        <rect id="Rectangle_4748" data-name="Rectangle 4748" width="60.632" height="67.224" transform="translate(186.113 97.863)" fill="#e6e7e8"/>
        <path id="Path_67820" data-name="Path 67820" d="M708.888,980.361a8.993,8.993,0,1,1-8.993-8.993A8.992,8.992,0,0,1,708.888,980.361Z" transform="translate(-483.466 -854.464)" fill="#e6e7e8"/>
        <rect id="Rectangle_4749" data-name="Rectangle 4749" width="7.507" height="12.901" transform="translate(212.673 133.146)" fill="#e6e7e8"/>
        <path id="Path_67821" data-name="Path 67821" d="M745.666,996.251H734.4V985a19.058,19.058,0,0,0-38.115,0v11.249H685.034V985a30.316,30.316,0,0,1,60.632,0Z" transform="translate(-498.919 -898.391)" fill="#e6e7e8"/>
        <path id="Path_67822" data-name="Path 67822" d="M763.1,970.036c0-2.7-1.864-4.909-4.131-4.909H686.383c-2.271,0-4.131,2.205-4.131,4.909v57.409c0,2.7,1.86,4.909,4.131,4.909h72.583c2.267,0,4.131-2.206,4.131-4.909Z" transform="translate(-506.245 -870.899)" fill="#e6e7e8"/>
        <rect id="Rectangle_4750" data-name="Rectangle 4750" width="60.632" height="67.224" transform="translate(186.113 94.229)" fill="#e6e7e8"/>
        <path id="Path_67823" data-name="Path 67823" d="M708.888,979.361a8.993,8.993,0,1,1-8.993-8.993A8.992,8.992,0,0,1,708.888,979.361Z" transform="translate(-483.466 -857.097)" fill="#e6e7e8"/>
        <rect id="Rectangle_4751" data-name="Rectangle 4751" width="7.507" height="12.901" transform="translate(212.673 129.512)" fill="#e6e7e8"/>
        <path id="Path_67824" data-name="Path 67824" d="M745.666,995.252H734.4V984a19.058,19.058,0,0,0-38.115,0v11.25H685.034V984a30.316,30.316,0,0,1,60.632,0Z" transform="translate(-498.919 -901.024)" fill="#e6e7e8"/>
        <path id="Path_67825" data-name="Path 67825" d="M922.01,939.194H651.249a17.439,17.439,0,0,0-17.437,17.437v277.047h68.953Z" transform="translate(-633.812 -939.194)" fill="#e6e7e8" opacity="0.1"/>
        <rect id="Rectangle_4752" data-name="Rectangle 4752" width="224.001" height="55.925" rx="1.676" transform="translate(104.429 191.467)" fill="#e6e7e8"/>
        <path id="Path_67826" data-name="Path 67826" d="M666.085,1045.258V1001.51a6.087,6.087,0,0,1,6.09-6.086H884a6.016,6.016,0,0,1,2.147.407,6.079,6.079,0,0,0-5.679-3.942H668.639a6.09,6.09,0,0,0-6.086,6.09v43.747a6.074,6.074,0,0,0,3.939,5.679A6.093,6.093,0,0,1,666.085,1045.258Z" transform="translate(-558.123 -800.422)" fill="#e6e7e8"/>
        <path id="Path_67827" data-name="Path 67827" d="M707.357,1003.388l-2.229-3.333-6.368,4.239.161-6.971h-4.259l.14,6.951-6.287-4.28-2.169,3.354,7.111,4.239-7.131,4.2,2.189,3.334,6.307-4.219-.16,6.95h4.279l-.222-7.131,6.428,4.38,2.229-3.314-7.21-4.219Z" transform="translate(-495.515 -786.113)" fill="#e6e7e8"/>
        <path id="Path_67828" data-name="Path 67828" d="M699.049,1003.388l-2.23-3.333-6.367,4.239.16-6.971h-4.259l.141,6.951-6.288-4.28-2.169,3.354,7.11,4.239-7.13,4.2,2.189,3.334,6.308-4.219-.161,6.95h4.279l-.221-7.131,6.428,4.38,2.23-3.314-7.211-4.219Z" transform="translate(-517.395 -786.113)" fill="#e6e7e8"/>
        <path id="Path_67829" data-name="Path 67829" d="M690.742,1003.388l-2.23-3.333-6.367,4.239.159-6.971h-4.258l.141,6.951-6.286-4.28-2.169,3.354,7.11,4.239-7.132,4.2,2.191,3.334,6.307-4.219-.161,6.95h4.278l-.219-7.131,6.426,4.38,2.231-3.314-7.212-4.219Z" transform="translate(-539.274 -786.113)" fill="#e6e7e8"/>
        <path id="Path_67830" data-name="Path 67830" d="M732.281,1003.388l-2.229-3.333-6.368,4.239.161-6.971h-4.259l.14,6.951-6.287-4.28-2.169,3.354,7.111,4.239-7.131,4.2,2.189,3.334,6.307-4.219-.16,6.95h4.279l-.222-7.131,6.428,4.38,2.229-3.314-7.21-4.219Z" transform="translate(-429.878 -786.113)" fill="#e6e7e8"/>
        <path id="Path_67831" data-name="Path 67831" d="M723.973,1003.388l-2.23-3.333-6.366,4.239.16-6.971h-4.259l.142,6.951-6.288-4.28-2.169,3.354,7.11,4.239-7.13,4.2,2.189,3.334,6.308-4.219-.161,6.95h4.279l-.221-7.131,6.428,4.38,2.23-3.314-7.211-4.219Z" transform="translate(-451.757 -786.113)" fill="#e6e7e8"/>
        <path id="Path_67832" data-name="Path 67832" d="M715.666,1003.388l-2.23-3.333-6.367,4.239.159-6.971h-4.258l.141,6.951-6.287-4.28-2.169,3.354,7.11,4.239-7.132,4.2,2.191,3.334,6.307-4.219-.161,6.95h4.278l-.219-7.131,6.426,4.38,2.231-3.314-7.212-4.219Z" transform="translate(-473.637 -786.113)" fill="#e6e7e8"/>
        <rect id="Rectangle_4753" data-name="Rectangle 4753" width="224.001" height="55.925" rx="1.676" transform="translate(104.429 187.834)" fill="#e6e7e8"/>
        <path id="Path_67833" data-name="Path 67833" d="M666.085,1044.258V1000.51a6.087,6.087,0,0,1,6.09-6.086H884a6.016,6.016,0,0,1,2.147.407,6.079,6.079,0,0,0-5.679-3.942H668.639a6.09,6.09,0,0,0-6.086,6.09v43.747a6.074,6.074,0,0,0,3.939,5.679A6.091,6.091,0,0,1,666.085,1044.258Z" transform="translate(-558.123 -803.055)" fill="#e6e7e8"/>
        <path id="Path_67834" data-name="Path 67834" d="M707.357,1002.388l-2.229-3.333-6.368,4.239.161-6.971h-4.259l.14,6.951-6.287-4.28-2.169,3.354,7.111,4.239-7.131,4.2,2.189,3.334,6.307-4.219-.16,6.95h4.279l-.222-7.131,6.428,4.38,2.229-3.314-7.21-4.219Z" transform="translate(-495.515 -788.746)" fill="#e6e7e8"/>
        <path id="Path_67835" data-name="Path 67835" d="M699.049,1002.388l-2.23-3.333-6.367,4.239.16-6.971h-4.259l.141,6.951-6.288-4.28-2.169,3.354,7.11,4.239-7.13,4.2,2.189,3.334,6.308-4.219-.161,6.95h4.279l-.221-7.131,6.428,4.38,2.23-3.314-7.211-4.219Z" transform="translate(-517.395 -788.746)" fill="#e6e7e8"/>
        <path id="Path_67836" data-name="Path 67836" d="M690.742,1002.388l-2.23-3.333-6.367,4.239.159-6.971h-4.258l.141,6.951-6.286-4.28-2.169,3.354,7.11,4.239-7.132,4.2,2.191,3.334,6.307-4.219-.161,6.95h4.278l-.219-7.131,6.426,4.38,2.231-3.314-7.212-4.219Z" transform="translate(-539.274 -788.746)" fill="#e6e7e8"/>
        <path id="Path_67837" data-name="Path 67837" d="M732.281,1002.388l-2.229-3.333-6.368,4.239.161-6.971h-4.259l.14,6.951-6.287-4.28-2.169,3.354,7.111,4.239-7.131,4.2,2.189,3.334,6.307-4.219-.16,6.95h4.279l-.222-7.131,6.428,4.38,2.229-3.314-7.21-4.219Z" transform="translate(-429.878 -788.746)" fill="#e6e7e8"/>
        <path id="Path_67838" data-name="Path 67838" d="M723.973,1002.388l-2.23-3.333-6.366,4.239.16-6.971h-4.259l.142,6.951-6.288-4.28-2.169,3.354,7.11,4.239-7.13,4.2,2.189,3.334,6.308-4.219-.161,6.95h4.279l-.221-7.131,6.428,4.38,2.23-3.314-7.211-4.219Z" transform="translate(-451.757 -788.746)" fill="#e6e7e8"/>
        <path id="Path_67839" data-name="Path 67839" d="M715.666,1002.388l-2.23-3.333-6.367,4.239.159-6.971h-4.258l.141,6.951-6.287-4.28-2.169,3.354,7.11,4.239-7.132,4.2,2.191,3.334,6.307-4.219-.161,6.95h4.278l-.219-7.131,6.426,4.38,2.231-3.314-7.212-4.219Z" transform="translate(-473.637 -788.746)" fill="#e6e7e8"/>
      </g>
      <g id="Group_23579" data-name="Group 23579">
        <g id="Group_23578" data-name="Group 23578">
          <path id="Path_67840" data-name="Path 67840" d="M805.819,1056.135l-.029-.247c-.585-3.579-1.221-7.391-1.482-11.34-.345-5.1-.643-10.432-.643-16.006v-.1c0-1.228.632-2.507.665-3.815H701.015c.058,1.3.763,2.707.763,3.917v14.636c0,21.95-4.636,40.227-24.014,51.984h-7.329V1103H840.228v-7.834h-8.161C816.124,1087.321,808.737,1073.619,805.819,1056.135Z" transform="translate(-537.365 -703.311)" fill="#0c001f"/>
          <path id="Path_77989" data-name="Path 77989" d="M0,0H169.793V13.236H0Z" transform="translate(133.069 386.45)" fill="#14475f"/>
          <path id="Path_77988" data-name="Path 77988" d="M4.8,0H430.31a4.8,4.8,0,0,1,4.8,4.8V321.645a4.8,4.8,0,0,1-4.8,4.8H4.8a4.8,4.8,0,0,1-4.8-4.8V4.8A4.8,4.8,0,0,1,4.8,0Z" transform="translate(0.001 0.001)" fill="#0c001f"/>
          <path id="Path_67841" data-name="Path 67841" d="M1051.486,936.194H651.249a17.439,17.439,0,0,0-17.437,17.437v277.047h435.111V953.631A17.439,17.439,0,0,0,1051.486,936.194Z" transform="translate(-633.812 -936.194)" fill="#14475f"/>
          <path id="Path_67842" data-name="Path 67842" d="M1039.293,940.867H639.052a.457.457,0,0,0-.454.458V1201.4h401.153V941.324A.454.454,0,0,0,1039.293,940.867Z" transform="translate(-621.208 -923.887)" fill="#0fc2bf"/>
          <path id="Path_67843" data-name="Path 67843" d="M780.948,1025.7H679.061v.04c0,4.825.091,9.8.054,14.349l103.98,13.146h0c-.614-3.92-1.246-7.59-1.5-11.529C781.242,1036.615,780.872,1031.277,780.948,1025.7Z" transform="translate(-514.649 -700.472)" fill="#14475f" opacity="0.2"/>
          <g id="Group_23572" data-name="Group 23572" transform="translate(176.007 52.664)">
            <g id="Group_23564" data-name="Group 23564" transform="translate(0 3.633)" style="mix-blend-mode: multiply;isolation: isolate">
              <path id="Path_67844" data-name="Path 67844" d="M763.1,968.036c0-2.7-1.864-4.909-4.131-4.909H686.383c-2.271,0-4.131,2.206-4.131,4.909v57.409c0,2.7,1.86,4.909,4.131,4.909h72.583c2.267,0,4.131-2.206,4.131-4.909Z" transform="translate(-682.252 -921.563)" fill="#e6e7e8"/>
              <rect id="Rectangle_4756" data-name="Rectangle 4756" width="60.632" height="67.224" transform="translate(10.107 41.565)" fill="#e6e7e8"/>
              <path id="Path_67845" data-name="Path 67845" d="M708.888,977.361a8.993,8.993,0,1,1-8.993-8.993A8.992,8.992,0,0,1,708.888,977.361Z" transform="translate(-659.472 -907.761)" fill="#e6e7e8"/>
              <rect id="Rectangle_4757" data-name="Rectangle 4757" width="7.507" height="12.901" transform="translate(36.666 76.848)" fill="#e6e7e8"/>
              <path id="Path_67846" data-name="Path 67846" d="M745.666,993.251H734.4V982a19.058,19.058,0,0,0-38.115,0v11.249H685.034V982a30.316,30.316,0,0,1,60.632,0Z" transform="translate(-674.926 -951.688)" fill="#e6e7e8"/>
            </g>
            <g id="Group_23571" data-name="Group 23571">
              <g id="Group_23570" data-name="Group 23570">
                <g id="Group_23565" data-name="Group 23565" transform="translate(0 41.564)">
                  <path id="Path_67847" data-name="Path 67847" d="M763.1,967.036c0-2.7-1.864-4.909-4.131-4.909H686.383c-2.271,0-4.131,2.206-4.131,4.909v57.409c0,2.7,1.86,4.909,4.131,4.909h72.583c2.267,0,4.131-2.206,4.131-4.909Z" transform="translate(-682.252 -962.127)" fill="#fdb700"/>
                </g>
                <g id="Group_23566" data-name="Group 23566" transform="translate(10.107 41.565)">
                  <rect id="Rectangle_4758" data-name="Rectangle 4758" width="60.632" height="67.224" fill="#fc0"/>
                </g>
                <g id="Group_23569" data-name="Group 23569" transform="translate(31.43 60.607)">
                  <g id="Group_23568" data-name="Group 23568">
                    <g id="Group_23567" data-name="Group 23567">
                      <path id="Path_67848" data-name="Path 67848" d="M708.888,976.361a8.993,8.993,0,1,1-8.993-8.993A8.992,8.992,0,0,1,708.888,976.361Z" transform="translate(-690.902 -967.368)" fill="#4f280b"/>
                    </g>
                    <rect id="Rectangle_4759" data-name="Rectangle 4759" width="7.507" height="12.901" transform="translate(5.236 16.242)" fill="#4f280b"/>
                  </g>
                </g>
                <path id="Path_67849" data-name="Path 67849" d="M745.666,992.251H734.4V981a19.058,19.058,0,0,0-38.115,0v11.249H685.034V981a30.316,30.316,0,0,1,60.632,0Z" transform="translate(-674.926 -950.688)" fill="#404041"/>
              </g>
            </g>
          </g>
          <path id="Path_67850" data-name="Path 67850" d="M922.01,936.194H651.249a17.439,17.439,0,0,0-17.437,17.437v277.047h68.953Z" transform="translate(-633.812 -936.194)" fill="#fff" opacity="0.1"/>
          <g id="Group_23577" data-name="Group 23577" transform="translate(104.429 187.834)">
            <g id="Group_23573" data-name="Group 23573" transform="translate(0 3.633)" style="mix-blend-mode: multiply;isolation: isolate">
              <rect id="Rectangle_4760" data-name="Rectangle 4760" width="224.001" height="55.925" rx="1.676" transform="translate(0 0)" fill="#e6e7e8"/>
              <path id="Path_67851" data-name="Path 67851" d="M666.085,1042.258V998.51a6.087,6.087,0,0,1,6.09-6.086H884a6.016,6.016,0,0,1,2.147.407,6.079,6.079,0,0,0-5.679-3.943H668.639a6.09,6.09,0,0,0-6.086,6.09v43.747a6.074,6.074,0,0,0,3.939,5.679A6.093,6.093,0,0,1,666.085,1042.258Z" transform="translate(-662.552 -988.889)" fill="#e6e7e8"/>
              <path id="Path_67852" data-name="Path 67852" d="M707.357,1000.388l-2.229-3.333-6.368,4.239.161-6.971h-4.259l.14,6.951-6.287-4.28-2.169,3.354,7.111,4.239-7.131,4.2,2.189,3.334,6.307-4.219-.16,6.95h4.279l-.222-7.131,6.428,4.38,2.229-3.314-7.21-4.219Z" transform="translate(-599.944 -974.58)" fill="#e6e7e8"/>
              <path id="Path_67853" data-name="Path 67853" d="M699.049,1000.388l-2.23-3.333-6.367,4.239.16-6.971h-4.259l.141,6.951-6.288-4.28-2.169,3.354,7.11,4.239-7.13,4.2,2.189,3.334,6.308-4.219-.161,6.95h4.279l-.221-7.131,6.428,4.38,2.23-3.314-7.211-4.219Z" transform="translate(-621.824 -974.58)" fill="#e6e7e8"/>
              <path id="Path_67854" data-name="Path 67854" d="M690.742,1000.388l-2.23-3.333-6.367,4.239.159-6.971h-4.258l.141,6.951-6.286-4.28-2.169,3.354,7.11,4.239-7.132,4.2,2.191,3.334,6.307-4.219-.161,6.95h4.278l-.219-7.131,6.426,4.38,2.231-3.314-7.212-4.219Z" transform="translate(-643.703 -974.58)" fill="#e6e7e8"/>
              <path id="Path_67855" data-name="Path 67855" d="M732.281,1000.388l-2.229-3.333-6.368,4.239.161-6.971h-4.259l.14,6.951-6.287-4.28-2.169,3.354,7.111,4.239-7.131,4.2,2.189,3.334,6.307-4.219-.16,6.95h4.279l-.222-7.131,6.428,4.38,2.229-3.314-7.21-4.219Z" transform="translate(-534.307 -974.58)" fill="#e6e7e8"/>
              <path id="Path_67856" data-name="Path 67856" d="M723.973,1000.388l-2.23-3.333-6.366,4.239.16-6.971h-4.259l.142,6.951-6.288-4.28-2.169,3.354,7.11,4.239-7.13,4.2,2.189,3.334,6.308-4.219-.161,6.95h4.279l-.221-7.131,6.428,4.38,2.23-3.314-7.211-4.219Z" transform="translate(-556.186 -974.58)" fill="#e6e7e8"/>
              <path id="Path_67857" data-name="Path 67857" d="M715.666,1000.388l-2.23-3.333-6.367,4.239.159-6.971h-4.258l.141,6.951-6.287-4.28-2.169,3.354,7.11,4.239-7.132,4.2,2.191,3.334,6.307-4.219-.161,6.95h4.278l-.219-7.131,6.426,4.38,2.231-3.314-7.212-4.219Z" transform="translate(-578.066 -974.58)" fill="#e6e7e8"/>
            </g>
            <g id="Group_23576" data-name="Group 23576">
              <g id="Group_23575" data-name="Group 23575">
                <rect id="Rectangle_4761" data-name="Rectangle 4761" width="224.001" height="55.925" rx="1.676" transform="translate(0 0)" fill="#fff"/>
                <path id="Path_67858" data-name="Path 67858" d="M666.085,1041.258V997.51a6.087,6.087,0,0,1,6.09-6.086H884a6.016,6.016,0,0,1,2.147.407,6.079,6.079,0,0,0-5.679-3.942H668.639a6.09,6.09,0,0,0-6.086,6.09v43.747a6.074,6.074,0,0,0,3.939,5.679A6.093,6.093,0,0,1,666.085,1041.258Z" transform="translate(-662.552 -987.889)" fill="#f1f1f2"/>
                <g id="Group_23574" data-name="Group 23574" transform="translate(26.007 19.742)">
                  <path id="Path_67859" data-name="Path 67859" d="M707.357,999.388l-2.229-3.333-6.368,4.239.161-6.971h-4.259l.14,6.951-6.287-4.28-2.169,3.354,7.111,4.239-7.131,4.2,2.189,3.334,6.307-4.219-.16,6.95h4.279l-.222-7.131,6.428,4.38,2.229-3.314-7.21-4.219Z" transform="translate(-625.951 -993.322)" fill="#14475f"/>
                  <path id="Path_67860" data-name="Path 67860" d="M699.049,999.388l-2.23-3.333-6.367,4.239.16-6.971h-4.259l.141,6.951-6.288-4.28-2.169,3.354,7.11,4.239-7.13,4.2,2.189,3.334,6.308-4.219-.161,6.95h4.279l-.221-7.131,6.428,4.38,2.23-3.314-7.211-4.219Z" transform="translate(-647.831 -993.322)" fill="#14475f"/>
                  <path id="Path_67861" data-name="Path 67861" d="M690.742,999.388l-2.23-3.333-6.367,4.239.159-6.971h-4.258l.141,6.951-6.286-4.28-2.169,3.354,7.11,4.239-7.132,4.2,2.191,3.334,6.307-4.219-.161,6.95h4.278l-.219-7.131,6.426,4.38,2.231-3.314-7.212-4.219Z" transform="translate(-669.71 -993.322)" fill="#14475f"/>
                  <path id="Path_67862" data-name="Path 67862" d="M732.281,999.388l-2.229-3.333-6.368,4.239.161-6.971h-4.259l.14,6.951-6.287-4.28-2.169,3.354,7.111,4.239-7.131,4.2,2.189,3.334,6.307-4.219-.16,6.95h4.279l-.222-7.131,6.428,4.38,2.229-3.314-7.21-4.219Z" transform="translate(-560.314 -993.322)" fill="#14475f"/>
                  <path id="Path_67863" data-name="Path 67863" d="M723.973,999.388l-2.23-3.333-6.366,4.239.16-6.971h-4.259l.142,6.951-6.288-4.28-2.169,3.354,7.11,4.239-7.13,4.2,2.189,3.334,6.308-4.219-.161,6.95h4.279l-.221-7.131,6.428,4.38,2.23-3.314-7.211-4.219Z" transform="translate(-582.193 -993.322)" fill="#14475f"/>
                  <path id="Path_67864" data-name="Path 67864" d="M715.666,999.388l-2.23-3.333-6.367,4.239.159-6.971h-4.258l.141,6.951-6.287-4.28-2.169,3.354,7.11,4.239-7.132,4.2,2.191,3.334,6.307-4.219-.161,6.95h4.278l-.219-7.131,6.426,4.38,2.231-3.314-7.212-4.219Z" transform="translate(-604.073 -993.322)" fill="#14475f"/>
                </g>
              </g>
            </g>
          </g>
        </g>
      </g>
    </g>
    <g id="Group_23605" data-name="Group 23605" transform="translate(1023.043 1168.553)">
      <g id="Group_23581" data-name="Group 23581" transform="translate(0 10.9)" style="mix-blend-mode: multiply;isolation: isolate">
        <path id="Path_67865" data-name="Path 67865" d="M831.729,1007.95a8.03,8.03,0,0,0-2.878-3.031v0a8.483,8.483,0,0,0-.956-.5h0c-.981-.432-6.449-.672-7.59-.672H748.936a7.811,7.811,0,0,0-4.157,1.174.38.38,0,0,0-.091.051,8.036,8.036,0,0,0-2.791,2.987,1.161,1.161,0,0,0-.087.167,7.917,7.917,0,0,0-.876,3.63v149.119a8.049,8.049,0,0,0,.1,1.261c.022.138.047.272.076.41l.051.222c.055.229.12.458.193.676.025.073.051.146.08.214a2.322,2.322,0,0,0,.083.222c.04.109.087.214.135.316s.1.2.156.309a5.017,5.017,0,0,0,.258.476,8.413,8.413,0,0,0,.963,1.3c.123.134.247.262.378.381.1.094.2.186.305.272a7.246,7.246,0,0,0,.625.49l.011.015q.169.114.338.218a8.278,8.278,0,0,0,1.046.559,7.982,7.982,0,0,0,3.2.665h75.751a7.878,7.878,0,0,0,4.164-1.17,8.04,8.04,0,0,0,2.881-3.041,7.942,7.942,0,0,0,.956-3.794V1011.754a7.966,7.966,0,0,0-.956-3.8Z" transform="translate(-740.935 -1001.555)" fill="#e6e7e8"/>
        <path id="Path_67866" data-name="Path 67866" d="M831.729,1007.467a8.031,8.031,0,0,0-2.878-3.03v0a8.445,8.445,0,0,0-.956-.5h0c-.981-.432-6.449-.672-7.59-.672H748.936a7.811,7.811,0,0,0-4.157,1.174.551.551,0,0,0-.091.051,8.038,8.038,0,0,0-2.791,2.987,1.164,1.164,0,0,0-.087.167,7.916,7.916,0,0,0-.876,3.63V1160.39a8.127,8.127,0,0,0,.1,1.264c.022.135.047.269.076.407l.051.221c.055.229.12.458.193.676.025.073.051.146.08.214a2,2,0,0,0,.083.222c.04.109.087.214.135.316s.1.207.156.309a4.958,4.958,0,0,0,.258.476,8.4,8.4,0,0,0,.963,1.3c.123.134.247.262.378.381.1.094.2.186.305.273.2.178.411.337.625.494l.011.011c.113.076.225.149.338.222a8.651,8.651,0,0,0,1.046.556,7.983,7.983,0,0,0,3.2.665h75.751a7.894,7.894,0,0,0,4.164-1.17,8.039,8.039,0,0,0,2.881-3.041,7.942,7.942,0,0,0,.956-3.793V1011.271a7.966,7.966,0,0,0-.956-3.8Z" transform="translate(-740.935 -1002.827)" fill="#e6e7e8"/>
        <path id="Path_67867" data-name="Path 67867" d="M831.729,1007.343a8.027,8.027,0,0,0-2.878-3.03v0a8.522,8.522,0,0,0-.956-.5h0c-.981-.432-6.449-.669-7.59-.669H748.936a7.774,7.774,0,0,0-4.157,1.17.541.541,0,0,0-.091.054,7.985,7.985,0,0,0-2.791,2.987.989.989,0,0,0-.087.167,7.891,7.891,0,0,0-.876,3.626v149.119a8.127,8.127,0,0,0,.1,1.265c.022.134.047.272.076.407l.051.225c.055.225.12.454.193.676.025.069.051.142.08.214a2.259,2.259,0,0,0,.083.218c.04.109.087.214.135.316s.1.207.156.312c.076.156.163.32.258.472a8.419,8.419,0,0,0,.963,1.3c.123.131.247.258.378.381.1.091.2.182.305.273.2.174.411.337.625.49l.011.011c.113.076.225.149.338.222a8.164,8.164,0,0,0,1.046.556,7.985,7.985,0,0,0,3.2.668h75.751a8,8,0,0,0,8-8.008V1011.147a7.942,7.942,0,0,0-.956-3.793Z" transform="translate(-740.935 -1003.143)" fill="#e6e7e8"/>
        <rect id="Rectangle_4762" data-name="Rectangle 4762" width="85.679" height="131.71" transform="translate(2.689 14.111)" fill="#e6e7e8"/>
        <rect id="Rectangle_4763" data-name="Rectangle 4763" width="4.799" height="131.721" transform="translate(86.956 14.08)" fill="#e6e7e8" opacity="0.28"/>
        <rect id="Rectangle_4764" data-name="Rectangle 4764" width="2.88" height="131.72" transform="translate(87.915 14.08)" fill="#e6e7e8" opacity="0.28"/>
        <path id="Path_67868" data-name="Path 67868" d="M764.867,1061.947a7.44,7.44,0,0,0,.959-.5,8.017,8.017,0,0,0,1.439-1.134l.051-.051a7.707,7.707,0,0,0,.545-.6l.076-.1c.069-.083.142-.163.207-.251a8.078,8.078,0,0,0,1.381-3.2,8.029,8.029,0,0,0,.142-1.49v-11.351h-4.8Z" transform="translate(-677.91 -897.477)" fill="#e6e7e8" opacity="0.14"/>
        <path id="Path_67869" data-name="Path 67869" d="M768.707,1006.869l0-.011a8,8,0,0,0-2.878-3.03l0,0a8.236,8.236,0,0,0-.956-.5v13.411h4.8v-6.075a7.862,7.862,0,0,0-.418-2.543A7.631,7.631,0,0,0,768.707,1006.869Z" transform="translate(-677.91 -1002.658)" fill="#e6e7e8" opacity="0.14"/>
        <path id="Path_67870" data-name="Path 67870" d="M765.131,1003.468v12.91h2.878V1006.5A7.986,7.986,0,0,0,765.131,1003.468Z" transform="translate(-677.215 -1002.298)" fill="#e6e7e8" opacity="0.14"/>
        <path id="Path_67871" data-name="Path 67871" d="M765.131,1061.449a7.969,7.969,0,0,0,2.878-3.038v-15.145h-2.878Z" transform="translate(-677.215 -897.477)" fill="#e6e7e8" opacity="0.14"/>
        <rect id="Rectangle_4765" data-name="Rectangle 4765" width="4.799" height="131.71" transform="translate(0.002 14.08)" fill="#e6e7e8" opacity="0.28"/>
        <rect id="Rectangle_4766" data-name="Rectangle 4766" width="2.88" height="131.709" transform="translate(0.962 14.08)" fill="#e6e7e8" opacity="0.28"/>
        <path id="Path_67872" data-name="Path 67872" d="M740.936,1054.6a8.126,8.126,0,0,0,.1,1.265c.022.134.043.272.076.407.018.076.029.149.051.225.055.225.12.454.2.676.026.069.047.142.076.214s.054.149.083.218a2.477,2.477,0,0,0,.138.316c.047.105.094.207.149.312.026.055.055.113.087.171l0,.007,0,.011c.051.091.105.189.164.276l0,.007c.069.116.142.232.215.342s.153.225.232.334.163.214.251.32.174.207.269.309c.062.065.12.131.182.193a1.9,1.9,0,0,0,.2.189c.094.091.2.182.3.273s.2.174.309.258.215.156.32.232l.011.011c.113.076.221.149.338.222a.542.542,0,0,0,.087.062,6.828,6.828,0,0,0,.959.5v-18.68h-4.8Z" transform="translate(-740.932 -897.477)" fill="#e6e7e8" opacity="0.14"/>
        <path id="Path_67873" data-name="Path 67873" d="M744.686,1003.885a8.014,8.014,0,0,0-2.791,2.987,1.036,1.036,0,0,0-.091.167,7.322,7.322,0,0,0-.454,1.083,7.861,7.861,0,0,0-.414,2.543v6.075h4.8v-13.415a8.279,8.279,0,0,0-.959.505A.5.5,0,0,0,744.686,1003.885Z" transform="translate(-740.932 -1002.661)" fill="#e6e7e8" opacity="0.14"/>
        <path id="Path_67874" data-name="Path 67874" d="M741.2,1006.5v9.872h2.878v-12.91a.565.565,0,0,0-.087.054A7.972,7.972,0,0,0,741.2,1006.5Z" transform="translate(-740.237 -1002.295)" fill="#e6e7e8" opacity="0.14"/>
        <path id="Path_67875" data-name="Path 67875" d="M741.2,1058.411a8,8,0,0,0,2.881,3.038v-18.182H741.2Z" transform="translate(-740.237 -897.477)" fill="#e6e7e8" opacity="0.14"/>
        <path id="Path_67876" data-name="Path 67876" d="M761.094,1044.474h-5.719a3.728,3.728,0,0,0-3.721,3.721v3.088a3.728,3.728,0,0,0,3.721,3.72h5.719a3.725,3.725,0,0,0,3.721-3.72v-3.088A3.725,3.725,0,0,0,761.094,1044.474Zm2.406,6.809a2.409,2.409,0,0,1-2.406,2.406h-5.719a2.4,2.4,0,0,1-2.4-2.406v-3.088a2.4,2.4,0,0,1,2.4-2.405h5.719a2.408,2.408,0,0,1,2.406,2.405Z" transform="translate(-712.706 -894.298)" fill="#e6e7e8" opacity="0.25"/>
        <rect id="Rectangle_4767" data-name="Rectangle 4767" width="21.442" height="2.88" rx="0.264" transform="translate(34.998 5.6)" fill="#e6e7e8" opacity="0.25"/>
        <path id="Path_67877" data-name="Path 67877" d="M762.47,1005.152a1.21,1.21,0,1,1-1.21,1.21,1.21,1.21,0,0,1,1.21-1.21m0-.919a2.129,2.129,0,1,0,2.129,2.129,2.127,2.127,0,0,0-2.129-2.129Z" transform="translate(-689.819 -1000.273)" fill="#e6e7e8"/>
        <path id="Path_67878" data-name="Path 67878" d="M789.9,1022.933a2.4,2.4,0,0,0-2.158-2.565H749.809a2.4,2.4,0,0,0-2.158,2.565v30a2.4,2.4,0,0,0,2.158,2.565h37.934a2.4,2.4,0,0,0,2.158-2.565Z" transform="translate(-723.248 -957.781)" fill="#e6e7e8"/>
        <rect id="Rectangle_4768" data-name="Rectangle 4768" width="31.688" height="35.133" transform="translate(29.684 62.586)" fill="#e6e7e8"/>
        <path id="Path_67879" data-name="Path 67879" d="M761.574,1027.808a4.7,4.7,0,1,1-4.7-4.7A4.7,4.7,0,0,1,761.574,1027.808Z" transform="translate(-711.345 -950.57)" fill="#e6e7e8"/>
        <rect id="Rectangle_4769" data-name="Rectangle 4769" width="3.923" height="6.743" transform="translate(43.564 81.026)" fill="#e6e7e8"/>
        <path id="Path_67880" data-name="Path 67880" d="M780.793,1036.114h-5.886v-5.882a9.959,9.959,0,0,0-19.919,0v5.882H749.1v-5.882a15.844,15.844,0,0,1,31.688,0Z" transform="translate(-719.419 -973.527)" fill="#e6e7e8"/>
        <path id="Path_67881" data-name="Path 67881" d="M789.9,1021.933a2.4,2.4,0,0,0-2.158-2.565H749.809a2.4,2.4,0,0,0-2.158,2.565v30a2.4,2.4,0,0,0,2.158,2.565h37.934a2.4,2.4,0,0,0,2.158-2.565Z" transform="translate(-723.248 -960.414)" fill="#e6e7e8"/>
        <rect id="Rectangle_4770" data-name="Rectangle 4770" width="31.688" height="35.133" transform="translate(29.684 58.953)" fill="#e6e7e8"/>
        <path id="Path_67882" data-name="Path 67882" d="M761.574,1026.808a4.7,4.7,0,1,1-4.7-4.7A4.7,4.7,0,0,1,761.574,1026.808Z" transform="translate(-711.345 -953.204)" fill="#e6e7e8"/>
        <rect id="Rectangle_4771" data-name="Rectangle 4771" width="3.923" height="6.743" transform="translate(43.564 77.393)" fill="#e6e7e8"/>
        <path id="Path_67883" data-name="Path 67883" d="M780.793,1035.114h-5.886v-5.883a9.959,9.959,0,0,0-19.919,0v5.883H749.1v-5.883a15.844,15.844,0,0,1,31.688,0Z" transform="translate(-719.419 -976.16)" fill="#e6e7e8"/>
        <rect id="Rectangle_4772" data-name="Rectangle 4772" width="58.409" height="14.583" rx="0.437" transform="translate(16.324 113.677)" fill="#e6e7e8"/>
        <path id="Path_67884" data-name="Path 67884" d="M746.347,1048.345v-11.409a1.59,1.59,0,0,1,1.588-1.588h55.233a1.5,1.5,0,0,1,.56.109,1.58,1.58,0,0,0-1.479-1.029H747.012a1.584,1.584,0,0,0-1.584,1.588v11.406a1.584,1.584,0,0,0,1.025,1.482A1.593,1.593,0,0,1,746.347,1048.345Z" transform="translate(-729.103 -920.751)" fill="#e6e7e8"/>
        <path id="Path_67885" data-name="Path 67885" d="M757.11,1037.427l-.582-.869-1.66,1.105.042-1.818H753.8l.036,1.812-1.639-1.116-.566.875,1.854,1.105-1.859,1.095.571.869,1.644-1.1-.042,1.812h1.116l-.058-1.859,1.676,1.142.581-.864-1.88-1.1Z" transform="translate(-712.779 -917.021)" fill="#e6e7e8"/>
        <path id="Path_67886" data-name="Path 67886" d="M754.944,1037.427l-.582-.869-1.66,1.105.042-1.818h-1.111l.037,1.812-1.639-1.116-.566.875,1.854,1.105-1.859,1.095.571.869,1.645-1.1-.042,1.812h1.116l-.058-1.859,1.676,1.142.582-.864-1.88-1.1Z" transform="translate(-718.484 -917.021)" fill="#e6e7e8"/>
        <path id="Path_67887" data-name="Path 67887" d="M752.778,1037.427l-.582-.869-1.66,1.105.042-1.818h-1.11l.037,1.812-1.639-1.116-.566.875,1.854,1.105-1.86,1.095.571.869,1.645-1.1-.042,1.812h1.115l-.057-1.859,1.676,1.142.582-.864-1.881-1.1Z" transform="translate(-724.189 -917.021)" fill="#e6e7e8"/>
        <path id="Path_67888" data-name="Path 67888" d="M763.609,1037.427l-.581-.869-1.66,1.105.042-1.818H760.3l.037,1.812-1.639-1.116-.566.875,1.854,1.105-1.859,1.095.571.869,1.644-1.1-.042,1.812h1.116l-.058-1.859,1.676,1.142.581-.864-1.88-1.1Z" transform="translate(-695.663 -917.021)" fill="#e6e7e8"/>
        <path id="Path_67889" data-name="Path 67889" d="M761.443,1037.427l-.582-.869-1.66,1.105.042-1.818h-1.111l.037,1.812-1.639-1.116-.566.875,1.854,1.105-1.859,1.095.571.869,1.645-1.1-.042,1.812h1.116l-.058-1.859,1.676,1.142.582-.864-1.88-1.1Z" transform="translate(-701.369 -917.021)" fill="#e6e7e8"/>
        <path id="Path_67890" data-name="Path 67890" d="M759.277,1037.427l-.582-.869-1.66,1.105.042-1.818h-1.11l.037,1.812-1.639-1.116-.566.875,1.854,1.105-1.86,1.095.572.869,1.644-1.1-.042,1.812h1.115l-.057-1.859,1.676,1.142.582-.864-1.881-1.1Z" transform="translate(-707.074 -917.021)" fill="#e6e7e8"/>
        <rect id="Rectangle_4773" data-name="Rectangle 4773" width="58.409" height="14.583" rx="0.437" transform="translate(16.324 110.043)" fill="#e6e7e8"/>
        <path id="Path_67891" data-name="Path 67891" d="M746.347,1047.345v-11.409a1.59,1.59,0,0,1,1.588-1.588h55.233a1.5,1.5,0,0,1,.56.109,1.58,1.58,0,0,0-1.479-1.029H747.012a1.584,1.584,0,0,0-1.584,1.588v11.406a1.585,1.585,0,0,0,1.025,1.482A1.593,1.593,0,0,1,746.347,1047.345Z" transform="translate(-729.103 -923.385)" fill="#e6e7e8"/>
        <path id="Path_67892" data-name="Path 67892" d="M757.11,1036.427l-.582-.869-1.66,1.105.042-1.818H753.8l.036,1.812-1.639-1.116-.566.875,1.854,1.105-1.859,1.095.571.869,1.644-1.1-.042,1.812h1.116l-.058-1.859,1.676,1.142.581-.864-1.88-1.1Z" transform="translate(-712.779 -919.655)" fill="#e6e7e8"/>
        <path id="Path_67893" data-name="Path 67893" d="M754.944,1036.427l-.582-.869-1.66,1.105.042-1.818h-1.111l.037,1.812-1.639-1.116-.566.875,1.854,1.105-1.859,1.095.571.869,1.645-1.1-.042,1.812h1.116l-.058-1.859,1.676,1.142.582-.864-1.88-1.1Z" transform="translate(-718.484 -919.655)" fill="#e6e7e8"/>
        <path id="Path_67894" data-name="Path 67894" d="M752.778,1036.427l-.582-.869-1.66,1.105.042-1.818h-1.11l.037,1.812-1.639-1.116-.566.875,1.854,1.105-1.86,1.095.571.869,1.645-1.1-.042,1.812h1.115l-.057-1.859,1.676,1.142.582-.864-1.881-1.1Z" transform="translate(-724.189 -919.655)" fill="#e6e7e8"/>
        <path id="Path_67895" data-name="Path 67895" d="M763.609,1036.427l-.581-.869-1.66,1.105.042-1.818H760.3l.037,1.812-1.639-1.116-.566.875,1.854,1.105-1.859,1.095.571.869,1.644-1.1-.042,1.812h1.116l-.058-1.859,1.676,1.142.581-.864-1.88-1.1Z" transform="translate(-695.663 -919.655)" fill="#e6e7e8"/>
        <path id="Path_67896" data-name="Path 67896" d="M761.443,1036.427l-.582-.869-1.66,1.105.042-1.818h-1.111l.037,1.812-1.639-1.116-.566.875,1.854,1.105-1.859,1.095.571.869,1.645-1.1-.042,1.812h1.116l-.058-1.859,1.676,1.142.582-.864-1.88-1.1Z" transform="translate(-701.369 -919.655)" fill="#e6e7e8"/>
        <path id="Path_67897" data-name="Path 67897" d="M759.277,1036.427l-.582-.869-1.66,1.105.042-1.818h-1.11l.037,1.812-1.639-1.116-.566.875,1.854,1.105-1.86,1.095.572.869,1.644-1.1-.042,1.812h1.115l-.057-1.859,1.676,1.142.582-.864-1.881-1.1Z" transform="translate(-707.074 -919.655)" fill="#e6e7e8"/>
      </g>
      <g id="Group_23604" data-name="Group 23604">
        <g id="Group_23603" data-name="Group 23603">
          <path id="Path_67898" data-name="Path 67898" d="M831.729,1004.95a8.028,8.028,0,0,0-2.878-3.031v0a8.522,8.522,0,0,0-.956-.5h0c-.981-.432-6.449-.672-7.59-.672H748.936a7.8,7.8,0,0,0-4.157,1.174.364.364,0,0,0-.091.051,8.036,8.036,0,0,0-2.791,2.987,1.136,1.136,0,0,0-.087.167,7.916,7.916,0,0,0-.876,3.63v149.119a8.047,8.047,0,0,0,.1,1.261c.022.138.047.272.076.41l.051.222c.055.229.12.458.193.676.025.073.051.146.08.214a2.3,2.3,0,0,0,.083.222c.04.109.087.214.135.316s.1.2.156.309a4.991,4.991,0,0,0,.258.476,8.411,8.411,0,0,0,.963,1.3c.123.135.247.262.378.382.1.094.2.185.305.272a7.2,7.2,0,0,0,.625.491l.011.015q.169.114.338.218a8.246,8.246,0,0,0,1.046.559,7.982,7.982,0,0,0,3.2.665h75.751a7.878,7.878,0,0,0,4.164-1.17,8.04,8.04,0,0,0,2.881-3.041,7.941,7.941,0,0,0,.956-3.793V1008.754a7.965,7.965,0,0,0-.956-3.8Z" transform="translate(-740.935 -998.555)" fill="#0d2038"/>
          <path id="Path_67899" data-name="Path 67899" d="M831.729,1004.467a8.029,8.029,0,0,0-2.878-3.03v0a8.483,8.483,0,0,0-.956-.5h0c-.981-.432-6.449-.672-7.59-.672H748.936a7.811,7.811,0,0,0-4.157,1.174.534.534,0,0,0-.091.051,8.036,8.036,0,0,0-2.791,2.987,1.139,1.139,0,0,0-.087.167,7.915,7.915,0,0,0-.876,3.63V1157.39a8.127,8.127,0,0,0,.1,1.265c.022.134.047.269.076.407l.051.221c.055.229.12.458.193.676.025.073.051.146.08.214a2.006,2.006,0,0,0,.083.222c.04.109.087.214.135.316s.1.207.156.309a4.988,4.988,0,0,0,.258.476,8.388,8.388,0,0,0,.963,1.3c.123.135.247.262.378.382.1.094.2.185.305.273.2.178.411.338.625.494l.011.011c.113.076.225.149.338.222a8.65,8.65,0,0,0,1.046.556,7.983,7.983,0,0,0,3.2.666h75.751a7.894,7.894,0,0,0,4.164-1.17,8.043,8.043,0,0,0,2.881-3.041,7.943,7.943,0,0,0,.956-3.793V1008.271a7.966,7.966,0,0,0-.956-3.8Z" transform="translate(-740.935 -999.827)" fill="#11313f"/>
          <path id="Path_67900" data-name="Path 67900" d="M831.729,1004.343a8.028,8.028,0,0,0-2.878-3.031v0a8.522,8.522,0,0,0-.956-.5h0c-.981-.433-6.449-.669-7.59-.669H748.936a7.772,7.772,0,0,0-4.157,1.17.559.559,0,0,0-.091.054,7.983,7.983,0,0,0-2.791,2.987.989.989,0,0,0-.087.167,7.889,7.889,0,0,0-.876,3.626v149.119a8.124,8.124,0,0,0,.1,1.264c.022.135.047.272.076.407l.051.225c.055.225.12.454.193.676.025.069.051.142.08.214a2.231,2.231,0,0,0,.083.218c.04.109.087.214.135.316s.1.207.156.312c.076.156.163.32.258.472a8.442,8.442,0,0,0,.963,1.3c.123.131.247.258.378.381.1.091.2.182.305.273.2.174.411.338.625.49l.011.011c.113.076.225.149.338.222a8.194,8.194,0,0,0,1.046.556,7.985,7.985,0,0,0,3.2.668h75.751a7.916,7.916,0,0,0,4.164-1.174,7.993,7.993,0,0,0,3.837-6.835V1008.147a7.941,7.941,0,0,0-.956-3.793Z" transform="translate(-740.935 -1000.143)" fill="#14475f"/>
          <rect id="Rectangle_4774" data-name="Rectangle 4774" width="85.679" height="131.71" transform="translate(2.689 14.111)" fill="#0fc2bf"/>
          <g id="Group_23584" data-name="Group 23584" transform="translate(86.956 0.669)">
            <g id="Group_23582" data-name="Group 23582" transform="translate(0 13.412)">
              <rect id="Rectangle_4775" data-name="Rectangle 4775" width="4.799" height="131.721" fill="#f8fdff" opacity="0.28"/>
              <rect id="Rectangle_4776" data-name="Rectangle 4776" width="2.88" height="131.72" transform="translate(0.959)" fill="#f8fdff" opacity="0.28"/>
            </g>
            <g id="Group_23583" data-name="Group 23583" transform="translate(0.001)">
              <path id="Path_67901" data-name="Path 67901" d="M764.867,1058.947a7.472,7.472,0,0,0,.959-.5,8.027,8.027,0,0,0,1.439-1.134l.051-.051a7.751,7.751,0,0,0,.545-.6l.076-.1c.069-.083.142-.163.207-.25a8.078,8.078,0,0,0,1.381-3.2,8.034,8.034,0,0,0,.142-1.49v-11.351h-4.8Z" transform="translate(-764.867 -895.145)" fill="#f8fdff" opacity="0.14"/>
              <path id="Path_67902" data-name="Path 67902" d="M768.707,1003.869l0-.011a8,8,0,0,0-2.878-3.031l0,0a8.236,8.236,0,0,0-.956-.5v13.411h4.8v-6.075a7.861,7.861,0,0,0-.418-2.543A7.631,7.631,0,0,0,768.707,1003.869Z" transform="translate(-764.867 -1000.327)" fill="#f8fdff" opacity="0.14"/>
              <path id="Path_67903" data-name="Path 67903" d="M765.131,1000.468v12.91h2.878V1003.5A7.987,7.987,0,0,0,765.131,1000.468Z" transform="translate(-764.172 -999.966)" fill="#f8fdff" opacity="0.14"/>
              <path id="Path_67904" data-name="Path 67904" d="M765.131,1058.449a7.967,7.967,0,0,0,2.878-3.037v-15.145h-2.878Z" transform="translate(-764.172 -895.145)" fill="#f8fdff" opacity="0.14"/>
            </g>
          </g>
          <g id="Group_23587" data-name="Group 23587" transform="translate(0.002 0.665)">
            <g id="Group_23585" data-name="Group 23585" transform="translate(0 13.416)">
              <rect id="Rectangle_4777" data-name="Rectangle 4777" width="4.799" height="131.71" fill="#f8fdff" opacity="0.28"/>
              <rect id="Rectangle_4778" data-name="Rectangle 4778" width="2.88" height="131.709" transform="translate(0.96)" fill="#f8fdff" opacity="0.28"/>
            </g>
            <g id="Group_23586" data-name="Group 23586" transform="translate(0.002)">
              <path id="Path_67905" data-name="Path 67905" d="M740.936,1051.6a8.123,8.123,0,0,0,.1,1.264c.022.135.043.272.076.407.018.076.029.149.051.225.055.225.12.454.2.676.026.069.047.142.076.214s.054.149.083.218a2.48,2.48,0,0,0,.138.316c.047.1.094.207.149.312.026.054.055.113.087.171l0,.008,0,.011c.051.091.105.189.164.276l0,.007c.069.116.142.232.215.341s.153.225.232.334.163.214.251.32.174.207.269.309c.062.065.12.131.182.192a1.881,1.881,0,0,0,.2.189c.094.091.2.182.3.273s.2.174.309.258.215.156.32.232l.011.011c.113.076.221.149.338.222a.527.527,0,0,0,.087.062,6.829,6.829,0,0,0,.959.5v-18.68h-4.8Z" transform="translate(-740.936 -895.141)" fill="#f8fdff" opacity="0.14"/>
              <path id="Path_67906" data-name="Path 67906" d="M744.686,1000.885a8.012,8.012,0,0,0-2.791,2.987,1.036,1.036,0,0,0-.091.167,7.311,7.311,0,0,0-.454,1.083,7.859,7.859,0,0,0-.414,2.543v6.075h4.8v-13.415a8.355,8.355,0,0,0-.959.505A.52.52,0,0,0,744.686,1000.885Z" transform="translate(-740.936 -1000.326)" fill="#f8fdff" opacity="0.14"/>
              <path id="Path_67907" data-name="Path 67907" d="M741.2,1003.5v9.872h2.878v-12.91a.587.587,0,0,0-.087.054A7.97,7.97,0,0,0,741.2,1003.5Z" transform="translate(-740.241 -999.96)" fill="#f8fdff" opacity="0.14"/>
              <path id="Path_67908" data-name="Path 67908" d="M741.2,1055.412a8,8,0,0,0,2.881,3.037v-18.182H741.2Z" transform="translate(-740.241 -895.141)" fill="#f8fdff" opacity="0.14"/>
            </g>
          </g>
          <path id="Path_67909" data-name="Path 67909" d="M761.094,1041.474h-5.719a3.728,3.728,0,0,0-3.721,3.721v3.088a3.728,3.728,0,0,0,3.721,3.72h5.719a3.725,3.725,0,0,0,3.721-3.72v-3.088A3.726,3.726,0,0,0,761.094,1041.474Zm2.406,6.809a2.408,2.408,0,0,1-2.406,2.405h-5.719a2.4,2.4,0,0,1-2.4-2.405v-3.088a2.4,2.4,0,0,1,2.4-2.405h5.719a2.408,2.408,0,0,1,2.406,2.405Z" transform="translate(-712.706 -891.298)" fill="#f8fdff" opacity="0.25"/>
          <rect id="Rectangle_4779" data-name="Rectangle 4779" width="21.442" height="2.88" rx="0.264" transform="translate(34.998 5.6)" fill="#f8fdff" opacity="0.25"/>
          <g id="Group_23588" data-name="Group 23588" transform="translate(70.526 3.96)" opacity="0.25">
            <path id="Path_67910" data-name="Path 67910" d="M762.47,1002.152a1.21,1.21,0,1,1-1.21,1.21,1.21,1.21,0,0,1,1.21-1.21m0-.919a2.129,2.129,0,1,0,2.129,2.129,2.127,2.127,0,0,0-2.129-2.129Z" transform="translate(-760.345 -1001.233)" fill="#f8fdff"/>
          </g>
          <g id="Group_23597" data-name="Group 23597" transform="translate(24.403 37.229)">
            <g id="Group_23589" data-name="Group 23589" transform="translate(0 3.633)" style="mix-blend-mode: multiply;isolation: isolate">
              <path id="Path_67911" data-name="Path 67911" d="M789.9,1019.933a2.4,2.4,0,0,0-2.158-2.565H749.809a2.4,2.4,0,0,0-2.158,2.565v30a2.4,2.4,0,0,0,2.158,2.565h37.934a2.4,2.4,0,0,0,2.158-2.565Z" transform="translate(-747.651 -995.643)" fill="#e6e7e8"/>
              <rect id="Rectangle_4780" data-name="Rectangle 4780" width="31.688" height="35.133" transform="translate(5.281 21.724)" fill="#e6e7e8"/>
              <path id="Path_67912" data-name="Path 67912" d="M761.574,1024.808a4.7,4.7,0,1,1-4.7-4.7A4.7,4.7,0,0,1,761.574,1024.808Z" transform="translate(-735.747 -988.433)" fill="#e6e7e8"/>
              <rect id="Rectangle_4781" data-name="Rectangle 4781" width="3.923" height="6.743" transform="translate(19.162 40.164)" fill="#e6e7e8"/>
              <path id="Path_67913" data-name="Path 67913" d="M780.793,1033.114h-5.886v-5.883a9.959,9.959,0,0,0-19.919,0v5.883H749.1v-5.883a15.844,15.844,0,0,1,31.688,0Z" transform="translate(-743.822 -1011.389)" fill="#e6e7e8"/>
            </g>
            <g id="Group_23596" data-name="Group 23596">
              <g id="Group_23595" data-name="Group 23595">
                <g id="Group_23590" data-name="Group 23590" transform="translate(0 21.725)">
                  <path id="Path_67914" data-name="Path 67914" d="M789.9,1018.933a2.4,2.4,0,0,0-2.158-2.565H749.809a2.4,2.4,0,0,0-2.158,2.565v30a2.4,2.4,0,0,0,2.158,2.565h37.934a2.4,2.4,0,0,0,2.158-2.565Z" transform="translate(-747.651 -1016.368)" fill="#fdb700"/>
                </g>
                <g id="Group_23591" data-name="Group 23591" transform="translate(5.281 21.724)">
                  <rect id="Rectangle_4782" data-name="Rectangle 4782" width="31.688" height="35.133" fill="#fc0"/>
                </g>
                <g id="Group_23594" data-name="Group 23594" transform="translate(16.423 31.673)">
                  <g id="Group_23593" data-name="Group 23593">
                    <g id="Group_23592" data-name="Group 23592">
                      <path id="Path_67915" data-name="Path 67915" d="M761.574,1023.808a4.7,4.7,0,1,1-4.7-4.7A4.7,4.7,0,0,1,761.574,1023.808Z" transform="translate(-752.171 -1019.106)" fill="#4f280b"/>
                    </g>
                    <rect id="Rectangle_4783" data-name="Rectangle 4783" width="3.923" height="6.743" transform="translate(2.738 8.491)" fill="#4f280b"/>
                  </g>
                </g>
                <path id="Path_67916" data-name="Path 67916" d="M780.793,1032.114h-5.886v-5.883a9.959,9.959,0,0,0-19.919,0v5.883H749.1v-5.883a15.844,15.844,0,0,1,31.688,0Z" transform="translate(-743.822 -1010.389)" fill="#404041"/>
              </g>
            </g>
          </g>
          <g id="Group_23602" data-name="Group 23602" transform="translate(16.324 110.043)">
            <g id="Group_23598" data-name="Group 23598" transform="translate(0 3.633)" style="mix-blend-mode: multiply;isolation: isolate">
              <rect id="Rectangle_4784" data-name="Rectangle 4784" width="58.409" height="14.583" rx="0.437" fill="#e6e7e8"/>
              <path id="Path_67917" data-name="Path 67917" d="M746.347,1045.345v-11.409a1.59,1.59,0,0,1,1.588-1.588h55.233a1.5,1.5,0,0,1,.56.109,1.58,1.58,0,0,0-1.479-1.029H747.012a1.584,1.584,0,0,0-1.584,1.588v11.406a1.584,1.584,0,0,0,1.025,1.482A1.593,1.593,0,0,1,746.347,1045.345Z" transform="translate(-745.426 -1031.428)" fill="#e6e7e8"/>
              <path id="Path_67918" data-name="Path 67918" d="M757.11,1034.427l-.582-.869-1.66,1.105.042-1.818H753.8l.036,1.813-1.639-1.116-.566.875,1.854,1.105-1.859,1.094.571.869,1.644-1.1-.042,1.812h1.116l-.058-1.859,1.676,1.142.581-.864-1.88-1.1Z" transform="translate(-729.102 -1027.698)" fill="#e6e7e8"/>
              <path id="Path_67919" data-name="Path 67919" d="M754.944,1034.427l-.582-.869-1.66,1.105.042-1.818h-1.111l.037,1.813-1.639-1.116-.566.875,1.854,1.105-1.859,1.094.571.869,1.645-1.1-.042,1.812h1.116l-.058-1.859,1.676,1.142.582-.864-1.88-1.1Z" transform="translate(-734.807 -1027.698)" fill="#e6e7e8"/>
              <path id="Path_67920" data-name="Path 67920" d="M752.778,1034.427l-.582-.869-1.66,1.105.042-1.818h-1.11l.037,1.813-1.639-1.116-.566.875,1.854,1.105-1.86,1.094.571.869,1.645-1.1-.042,1.812h1.115l-.057-1.859,1.676,1.142.582-.864-1.881-1.1Z" transform="translate(-740.513 -1027.698)" fill="#e6e7e8"/>
              <path id="Path_67921" data-name="Path 67921" d="M763.609,1034.427l-.581-.869-1.66,1.105.042-1.818H760.3l.037,1.813-1.639-1.116-.566.875,1.854,1.105-1.859,1.094.571.869,1.644-1.1-.042,1.812h1.116l-.058-1.859,1.676,1.142.581-.864-1.88-1.1Z" transform="translate(-711.987 -1027.698)" fill="#e6e7e8"/>
              <path id="Path_67922" data-name="Path 67922" d="M761.443,1034.427l-.582-.869-1.66,1.105.042-1.818h-1.111l.037,1.813-1.639-1.116-.566.875,1.854,1.105-1.859,1.094.571.869,1.645-1.1-.042,1.812h1.116l-.058-1.859,1.676,1.142.582-.864-1.88-1.1Z" transform="translate(-717.692 -1027.698)" fill="#e6e7e8"/>
              <path id="Path_67923" data-name="Path 67923" d="M759.277,1034.427l-.582-.869-1.66,1.105.042-1.818h-1.11l.037,1.813-1.639-1.116-.566.875,1.854,1.105-1.86,1.094.572.869,1.644-1.1-.042,1.812h1.115l-.057-1.859,1.676,1.142.582-.864-1.881-1.1Z" transform="translate(-723.398 -1027.698)" fill="#e6e7e8"/>
            </g>
            <g id="Group_23601" data-name="Group 23601">
              <g id="Group_23600" data-name="Group 23600">
                <rect id="Rectangle_4785" data-name="Rectangle 4785" width="58.409" height="14.583" rx="0.437" fill="#fff"/>
                <path id="Path_67924" data-name="Path 67924" d="M746.347,1044.345v-11.409a1.59,1.59,0,0,1,1.588-1.588h55.233a1.5,1.5,0,0,1,.56.109,1.58,1.58,0,0,0-1.479-1.029H747.012a1.584,1.584,0,0,0-1.584,1.588v11.406a1.584,1.584,0,0,0,1.025,1.482A1.593,1.593,0,0,1,746.347,1044.345Z" transform="translate(-745.426 -1030.428)" fill="#f1f1f2"/>
                <g id="Group_23599" data-name="Group 23599" transform="translate(6.781 5.148)">
                  <path id="Path_67925" data-name="Path 67925" d="M757.11,1033.427l-.582-.869-1.66,1.105.042-1.818H753.8l.036,1.813-1.639-1.116-.566.875,1.854,1.105-1.859,1.094.571.869,1.644-1.1-.042,1.812h1.116l-.058-1.859,1.676,1.142.581-.864-1.88-1.1Z" transform="translate(-735.884 -1031.845)" fill="#14475f"/>
                  <path id="Path_67926" data-name="Path 67926" d="M754.944,1033.427l-.582-.869-1.66,1.105.042-1.818h-1.111l.037,1.813-1.639-1.116-.566.875,1.854,1.105-1.859,1.094.571.869,1.645-1.1-.042,1.812h1.116l-.058-1.859,1.676,1.142.582-.864-1.88-1.1Z" transform="translate(-741.589 -1031.845)" fill="#14475f"/>
                  <path id="Path_67927" data-name="Path 67927" d="M752.778,1033.427l-.582-.869-1.66,1.105.042-1.818h-1.11l.037,1.813-1.639-1.116-.566.875,1.854,1.105-1.86,1.094.571.869,1.645-1.1-.042,1.812h1.115l-.057-1.859,1.676,1.142.582-.864-1.881-1.1Z" transform="translate(-747.294 -1031.845)" fill="#14475f"/>
                  <path id="Path_67928" data-name="Path 67928" d="M763.609,1033.427l-.581-.869-1.66,1.105.042-1.818H760.3l.037,1.813-1.639-1.116-.566.875,1.854,1.105-1.859,1.094.571.869,1.644-1.1-.042,1.812h1.116l-.058-1.859,1.676,1.142.581-.864-1.88-1.1Z" transform="translate(-718.768 -1031.845)" fill="#14475f"/>
                  <path id="Path_67929" data-name="Path 67929" d="M761.443,1033.427l-.582-.869-1.66,1.105.042-1.818h-1.111l.037,1.813-1.639-1.116-.566.875,1.854,1.105-1.859,1.094.571.869,1.645-1.1-.042,1.812h1.116l-.058-1.859,1.676,1.142.582-.864-1.88-1.1Z" transform="translate(-724.474 -1031.845)" fill="#14475f"/>
                  <path id="Path_67930" data-name="Path 67930" d="M759.277,1033.427l-.582-.869-1.66,1.105.042-1.818h-1.11l.037,1.813-1.639-1.116-.566.875,1.854,1.105-1.86,1.094.572.869,1.644-1.1-.042,1.812h1.115l-.057-1.859,1.676,1.142.582-.864-1.881-1.1Z" transform="translate(-730.179 -1031.845)" fill="#14475f"/>
                </g>
              </g>
            </g>
          </g>
        </g>
      </g>
    </g>
  </g>
</svg>
