<svg xmlns="http://www.w3.org/2000/svg" width="447.695" height="415.691" viewBox="0 0 447.695 415.691">
  <g id="Group_23612" data-name="Group 23612" transform="translate(-298.046 -1503.519)">
    <path id="Path_67931" data-name="Path 67931" d="M424.138,1543.331l-3.526,16.292s-42.552-10.695-61.107-26.023c-3.45-2.849-2.838-4.878-2.838-4.878s15.588-3.485,37.367,1.231S424.138,1543.331,424.138,1543.331Z" transform="translate(162.794 66.592)" fill="#242225"/>
    <path id="Path_67932" data-name="Path 67932" d="M377.083,1533.071l-3.526,16.292s43.164,7.86,66.393,1.583c4.323-1.167,4.6-3.269,4.6-3.269s-12.75-9.618-34.529-14.334S377.083,1533.071,377.083,1533.071Z" transform="translate(209.845 76.853)" fill="#242225"/>
    <path id="Path_67933" data-name="Path 67933" d="M435.137,1622.173l-.019-.2c-.472-2.876-.986-5.94-1.194-9.115-.276-4.1-.518-8.385-.518-12.859v-.083c0-.986.51-2.015.537-3.065H350.918c.045,1.043.612,2.172.612,3.148v11.76c0,17.641-3.726,32.326-19.3,41.773h-5.888v6.3H462.788v-6.3h-6.557C443.42,1647.236,437.484,1636.223,435.137,1622.173Z" transform="translate(78.637 259.377)" fill="#0fc2bf"/>
    <path id="Path_76444" data-name="Path 76444" d="M0,0H136.446V10.637H0Z" transform="translate(404.98 1908.573)" fill="#14475f"/>
    <rect id="Rectangle_4787" data-name="Rectangle 4787" width="349.655" height="262.331" rx="3.707" transform="translate(298.046 1598.021)"/>
    <path id="Path_67934" data-name="Path 67934" d="M633.69,1528.527H312.055a14.008,14.008,0,0,0-14.009,14.009v222.636H647.7V1542.536A14.009,14.009,0,0,0,633.69,1528.527Z" transform="translate(0 69.496)" fill="#231f20"/>
    <path id="Path_67935" data-name="Path 67935" d="M623.661,1532.136H302.022a.373.373,0,0,0-.366.37V1741.5H624.024V1532.506A.364.364,0,0,0,623.661,1532.136Z" transform="translate(10.032 79.525)" fill="#008f8d"/>
    <path id="Path_67936" data-name="Path 67936" d="M414.884,1597.687H333.008v.03c0,3.877.076,7.876.042,11.53l83.561,10.566h0c-.5-3.152-1-6.1-1.209-9.267C415.122,1606.454,414.823,1602.161,414.884,1597.687Z" transform="translate(97.16 261.692)" opacity="0.2"/>
    <text id="E-LEARNING" transform="translate(470.717 1741.272)" fill="#0caba7" font-size="44" font-family="Roboto-Bold, Roboto" font-weight="700"><tspan x="-126.5" y="0">E-LEARNING</tspan></text>
    <g id="Group_23607" data-name="Group 23607" transform="translate(311.69 1611.663)">
      <rect id="Rectangle_4788" data-name="Rectangle 4788" width="322.368" height="12.381" fill="#0fc2bf"/>
      <path id="Path_67937" data-name="Path 67937" d="M306.325,1532.89a3.344,3.344,0,1,0,3.341,3.34A3.346,3.346,0,0,0,306.325,1532.89Z" transform="translate(-297.987 -1530.042)" fill="#fff"/>
      <path id="Path_67938" data-name="Path 67938" d="M308.776,1532.89a3.344,3.344,0,1,0,3.341,3.34A3.345,3.345,0,0,0,308.776,1532.89Z" transform="translate(-291.175 -1530.042)" fill="#fff"/>
      <path id="Path_67939" data-name="Path 67939" d="M311.224,1532.89a3.344,3.344,0,1,0,3.348,3.34A3.345,3.345,0,0,0,311.224,1532.89Z" transform="translate(-284.364 -1530.042)" fill="#fff"/>
    </g>
    <path id="Path_67940" data-name="Path 67940" d="M529.642,1528.526H312.055a14.013,14.013,0,0,0-14.009,14.012v222.636h55.412Z" transform="translate(0 69.493)" fill="#0fc2bf" opacity="0.2"/>
    <path id="Path_67941" data-name="Path 67941" d="M493.817,1503.52l134.412,72.115.144,4.709-155.338,18.163L340.28,1513.379l1.291-5.206Z" transform="translate(117.368 0)" fill="#191919"/>
    <path id="Path_67942" data-name="Path 67942" d="M493.817,1503.52l134.412,72.115.144,4.709-136.307-70.879-151.786,3.915,1.291-5.206Z" transform="translate(117.368 0)" fill="#404041"/>
    <g id="Group_23611" data-name="Group 23611" transform="translate(677.556 1543.656)">
      <path id="Path_67943" data-name="Path 67943" d="M403.716,1603.346H400.7c.072-88.3.072-88.289.072-88.837,0-.963,3.019.094,3.019,1.636C403.788,1517.121,403.716,1603.346,403.716,1603.346Z" transform="translate(-392.289 -1514.141)" fill="#fc0"/>
      <circle id="Ellipse_710" data-name="Ellipse 710" cx="6.085" cy="6.085" r="6.085" transform="translate(3.725 81.503)" fill="#fc0"/>
      <path id="Path_67944" data-name="Path 67944" d="M418.316,1563.721a28.038,28.038,0,0,1-19.844-.015l6.545-25.21,6.795,0Z" transform="translate(-398.472 -1446.456)" fill="#fc0"/>
      <path id="Path_67945" data-name="Path 67945" d="M405.605,1606.575a6.044,6.044,0,0,0-2.01-10.695c.019-20.939.068-78.943.068-79.745,0-1.395-2.441-2.377-2.921-1.844.831.291,1.761.986,1.761,1.844,0,.8-.049,58.806-.068,79.745a6.044,6.044,0,0,1,2.01,10.695l6.4,24.82a25.123,25.123,0,0,1-9.327,1.784c.193,0,.37.023.567.023a25.186,25.186,0,0,0,9.924-1.807Z" transform="translate(-392.164 -1514.13)" fill="#ffd93b"/>
      <rect id="Rectangle_4789" data-name="Rectangle 4789" width="9.784" height="1.778" rx="0.211" transform="translate(5.157 92.003)" fill="#740"/>
      <g id="Group_23610" data-name="Group 23610" transform="translate(12.985 92.006)">
        <g id="Group_23609" data-name="Group 23609">
          <g id="Group_23608" data-name="Group 23608">
            <path id="Path_67946" data-name="Path 67946" d="M401.908,1538.487a.8.8,0,0,1,.8.8v.185a.8.8,0,0,1-.8.794l1.16,0a.8.8,0,0,0,.8-.8v-.185a.8.8,0,0,0-.8-.8" transform="translate(-401.908 -1538.487)" fill="#874e0a"/>
          </g>
        </g>
      </g>
      <line id="Line_1026" data-name="Line 1026" y1="13.992" x2="2.8" transform="translate(5.097 99.45)" fill="none" stroke="#fa0" stroke-miterlimit="10" stroke-width="0.193"/>
      <line id="Line_1027" data-name="Line 1027" y1="9.045" x2="0.223" transform="translate(9.587 106.446)" fill="none" stroke="#fa0" stroke-miterlimit="10" stroke-width="0.193"/>
      <line id="Line_1028" data-name="Line 1028" x1="1.845" y1="12.053" transform="translate(12.367 102.933)" fill="none" stroke="#fa0" stroke-miterlimit="10" stroke-width="0.193"/>
    </g>
    <path id="Path_67947" data-name="Path 67947" d="M356.849,1531.747c27.9.053,54.78,8.348,65.048,19.25,22.549-6.292,54.342,4,62.391,11.042V1530.5l-124.734-3.137Z" transform="translate(163.414 66.273)" opacity="0.2"/>
    <path id="Path_67948" data-name="Path 67948" d="M438.864,1516.956,424.1,1585.133c-22.712-16.692-67.467-14.609-67.467-14.609a99.89,99.89,0,0,1,3.027-13.99c3.133-10.233,7.868-24.023,14.2-34.744,5.854-9.916,20.981-9.387,25.769-9.327A203.254,203.254,0,0,1,438.864,1516.956Z" transform="translate(162.825 24.79)" fill="#353535"/>
    <path id="Path_67949" data-name="Path 67949" d="M363.957,1570.46s7.407-23.324,18.9-36.161c10.589-11.821,25.909-15.331,54.24-9.2l1.765-8.144a203.254,203.254,0,0,0-39.234-4.493c-4.788-.064-19.915-.589-25.769,9.327-6.33,10.721-11.065,24.511-14.2,34.744a99.89,99.89,0,0,0-3.027,13.99s2.785-.129,7.32-.065Z" transform="translate(162.825 24.789)" fill="#2d2d2d"/>
    <path id="Path_67950" data-name="Path 67950" d="M389.252,1513.635l-14.761,68.177c27.579-5.8,67.47,14.606,67.47,14.606a99.9,99.9,0,0,0,3.027-13.99c1.383-10.615,2.774-25.126,1.447-37.5-1.228-11.454-15.222-17.229-19.605-19.152A203.431,203.431,0,0,0,389.252,1513.635Z" transform="translate(212.441 28.112)" fill="#444"/>
    <path id="Path_67951" data-name="Path 67951" d="M425.765,1593.331s4.127-22.4-1.028-38.837c-4.75-15.146-18.472-26.578-46.807-32.715l1.765-8.144a203.431,203.431,0,0,1,37.578,12.139c4.384,1.923,18.377,7.7,19.605,19.152,1.326,12.376-.064,26.888-1.447,37.5a99.9,99.9,0,0,1-3.027,13.99s-2.486-1.27-6.64-3.087Z" transform="translate(221.998 28.112)" fill="#3d3d3d"/>
  </g>
</svg>
