<svg xmlns="http://www.w3.org/2000/svg" xmlns:xlink="http://www.w3.org/1999/xlink" width="319.79" height="389.183" viewBox="0 0 319.79 389.183">
  <defs>
    <clipPath id="clip-path">
      <rect id="SVGID" width="140.984" height="159.211" fill="none"/>
    </clipPath>
    <clipPath id="clip-path-2">
      <rect id="SVGID-2" data-name="SVGID" width="140.984" height="159.211" fill="#14475f"/>
    </clipPath>
  </defs>
  <g id="Group_23625" data-name="Group 23625" transform="translate(-654.348 -1503.519)">
    <g id="Group_23616" data-name="Group 23616" transform="translate(654.348 1503.519)">
      <g id="Group_23615" data-name="Group 23615">
        <g id="Group_23613" data-name="Group 23613">
          <path id="Path_67952" data-name="Path 67952" d="M699.577,1503.52h-.035v389.166l.035.014,37.517-16.084,1.956-.834,54.3-23.273c24.886-34.7,41.823-72.99,52.281-112l.025-.1c17.428-64.881,17.046-131.824,5.993-187.859C779.486,1565.142,746.533,1545.9,699.577,1503.52Z" transform="translate(-539.647 -1503.517)" fill="#14475f"/>
          <path id="Path_67953" data-name="Path 67953" d="M662.132,1552.542c-17.7,89.749-8.013,207.492,58.3,299.965l93.783,40.185.028,0V1503.526l-.028-.007C767.25,1545.9,734.29,1565.148,662.132,1552.542Z" transform="translate(-654.348 -1503.519)" fill="#14475f"/>
        </g>
        <g id="Group_23614" data-name="Group 23614" transform="translate(25.167 33.36)">
          <path id="Path_67954" data-name="Path 67954" d="M663.093,1559.359c8.484,49.186,25.824,93.251,51.659,131.095l77.274,33.109.018-.007.028.007.007,0v-164.2Z" transform="translate(-657.32 -1395.156)" fill="#f1f1f2"/>
          <path id="Path_67955" data-name="Path 67955" d="M796.221,1512.948l-.035.028c-29.907,24.848-63.168,44.636-112.481,44.636-6.039,0-12.263-.276-18.759-.835a401.771,401.771,0,0,0,1.638,116.751q.159.87.308,1.737c.106.63.234,1.252.343,1.886H796.221Z" transform="translate(-661.461 -1512.948)" fill="#fff"/>
          <path id="Path_67956" data-name="Path 67956" d="M699.55,1723.559l77.26-33.105c25.842-37.843,43.175-81.906,51.662-131.095H699.55Z" transform="translate(-564.791 -1395.156)" fill="#fff"/>
          <path id="Path_67957" data-name="Path 67957" d="M830.758,1556.842c-6.489.559-12.712.835-18.752.835-46.218,0-77.331-15.575-112.456-44.665v164.2H828.472c.11-.629.233-1.249.34-1.882.1-.58.209-1.161.311-1.745A401.876,401.876,0,0,0,830.758,1556.842Z" transform="translate(-564.791 -1512.786)" fill="#f1f1f2"/>
        </g>
      </g>
    </g>
    <g id="Group_23624" data-name="Group 23624" transform="translate(743.749 1621.702)">
      <g id="Group_23619" data-name="Group 23619" transform="translate(0 8.573)" style="mix-blend-mode: multiply;isolation: isolate">
        <g id="Group_23618" data-name="Group 23618">
          <g id="Group_23617" data-name="Group 23617" clip-path="url(#clip-path)">
            <path id="Path_67958" data-name="Path 67958" d="M732.509,1563.443H698.672a22.248,22.248,0,0,1,.4,4.95c-.2,5.378-2.427,10.391-5.845,15.352h44.71c-3.432-5.76-5.5-10.331-5.739-15.437A22.646,22.646,0,0,1,732.509,1563.443Z" transform="translate(-645.065 -1478.187)" fill="#e6e7e8"/>
            <path id="Path_67959" data-name="Path 67959" d="M732.935,1568.924l-33.4,82.182h70.52l-4.341-53.028C765.712,1585.411,753.141,1574.695,732.935,1568.924Z" transform="translate(-629.068 -1464.276)" fill="#e6e7e8"/>
            <path id="Path_67960" data-name="Path 67960" d="M711.447,1571.06h-.007c-3.665,2.873-8.417,5.99-11.909,6.025v80.77l.265-.626,28.665-69.154,5.01-12.072c-4.228-1.221-16.462-9.8-16.462-9.8A73.8,73.8,0,0,1,711.447,1571.06Z" transform="translate(-629.073 -1471.184)" fill="#e6e7e8"/>
            <path id="Path_67961" data-name="Path 67961" d="M699.533,1577.074v80.788L733.466,1576c-4.239-1.21-16.462-9.8-16.462-9.8S706.053,1577.014,699.533,1577.074Z" transform="translate(-629.068 -1471.184)" fill="#e6e7e8"/>
            <path id="Path_67962" data-name="Path 67962" d="M683.958,1598.077l-4.341,53.028h70.524l-33.41-82.182C696.529,1574.695,683.958,1585.411,683.958,1598.077Z" transform="translate(-679.615 -1464.276)" fill="#e6e7e8"/>
            <path id="Path_67963" data-name="Path 67963" d="M689.959,1576l33.933,81.859v-80.788c-6.528-.06-17.474-10.872-17.474-10.872S694.191,1574.792,689.959,1576Z" transform="translate(-653.367 -1471.184)" fill="#e6e7e8"/>
            <path id="Path_67964" data-name="Path 67964" d="M711.439,1567.575l-11.908,4.3v81.775l.1.094h.163l28.666-69.154-17.014-17.014Z" transform="translate(-629.073 -1467.7)" fill="#e6e7e8" opacity="0.1"/>
            <path id="Path_67965" data-name="Path 67965" d="M699.533,1575.365v81.768l11.96-33.891-9.523-39.613L717,1566.2Z" transform="translate(-629.067 -1471.183)" fill="#e6e7e8"/>
            <path id="Path_67966" data-name="Path 67966" d="M709.583,1583.628l-9.524,39.613,11.969,33.891v-81.768l-17.417-9.162Z" transform="translate(-641.561 -1471.183)" fill="#e6e7e8"/>
            <path id="Path_67967" data-name="Path 67967" d="M695.172,1568.393c4.769,4.359,10.441,8.916,16.515,8.916,6.117,0,11.806-4.624,16.611-9a22.646,22.646,0,0,1,.308-4.865H694.768A22.248,22.248,0,0,1,695.172,1568.393Z" transform="translate(-641.161 -1478.187)" fill="#e6e7e8" opacity="0.07"/>
            <path id="Path_67968" data-name="Path 67968" d="M723.973,1547.052a132.109,132.109,0,0,1-23.277-2.066c-6.1,7.954-9.91,19.3-9.91,31.9,0,24.059,13.883,43.553,31.007,43.553s31-19.494,31-43.553c0-12.27-3.619-23.354-9.44-31.272A131.386,131.386,0,0,1,723.973,1547.052Z" transform="translate(-651.268 -1525.031)" fill="#e6e7e8"/>
            <path id="Path_67969" data-name="Path 67969" d="M763.888,1548.932c-2.636.3-5.2-.258-5.983,2.625-.265-5.834-17.991-9.736-30.912-4.571-9.507,3.8-16.781-9.457-28.014-6.255-10.374,2.951-17.237,19.937-5.654,33.151,3.449,3.931.9,3.011,6.719,21.713l4.737-19.208c10.027.686,21.38-1.6,28.52-2.505,5.36-.679,21.274-1.631,23.036-9.963l5.017,31.676C764.2,1570.107,775.8,1550.064,763.888,1548.932Z" transform="translate(-660.148 -1537.111)" fill="#e6e7e8"/>
            <path id="Path_67970" data-name="Path 67970" d="M700.061,1546c-2.491-1.27-2.852-4.143-7.256-2.54-1.065.824-3.078,4.932-2.59,9.032.311,2.632,1.4,3,1.755,3.118a9.538,9.538,0,0,1,2.371,1.16l4.076.28c11.12.767,19.268-4.3,33.693-10.5l-20.337,2.526A25.032,25.032,0,0,1,700.061,1546Z" transform="translate(-652.908 -1530.104)" fill="#e6e7e8"/>
          </g>
        </g>
      </g>
      <g id="Group_23623" data-name="Group 23623">
        <g id="Group_23622" data-name="Group 23622">
          <g id="Group_23621" data-name="Group 23621" clip-path="url(#clip-path-2)">
            <g id="Group_23620" data-name="Group 23620" transform="translate(0.002 3.117)">
              <path id="Path_67971" data-name="Path 67971" d="M732.509,1561.02H698.672a22.229,22.229,0,0,1,.4,4.95c-.2,5.378-2.427,10.391-5.845,15.348h44.71c-3.432-5.756-5.5-10.327-5.739-15.433A22.646,22.646,0,0,1,732.509,1561.02Z" transform="translate(-645.067 -1478.88)" fill="#efc64c"/>
              <path id="Path_67972" data-name="Path 67972" d="M732.935,1566.5l-33.4,82.185h70.52l-4.341-53.028C765.712,1582.988,753.141,1572.274,732.935,1566.5Z" transform="translate(-629.07 -1464.971)" fill="#102947"/>
              <path id="Path_67973" data-name="Path 67973" d="M711.447,1568.633h-.007c-3.665,2.876-8.417,5.993-11.909,6.025v80.77l.265-.626,28.665-69.154,5.01-12.068c-4.228-1.22-16.462-9.8-16.462-9.8A73.221,73.221,0,0,1,711.447,1568.633Z" transform="translate(-629.075 -1471.877)" fill="#fff"/>
              <path id="Path_67974" data-name="Path 67974" d="M699.533,1574.652v80.787l33.933-81.86c-4.239-1.209-16.462-9.8-16.462-9.8S706.053,1574.588,699.533,1574.652Z" transform="translate(-629.07 -1471.877)" fill="#fff"/>
              <path id="Path_67975" data-name="Path 67975" d="M683.958,1595.657l-4.341,53.028h70.524l-33.41-82.185C696.529,1572.274,683.958,1582.988,683.958,1595.657Z" transform="translate(-679.617 -1464.971)" fill="#102947"/>
              <path id="Path_67976" data-name="Path 67976" d="M689.959,1573.579l33.933,81.86v-80.787c-6.528-.064-17.474-10.873-17.474-10.873S694.191,1572.37,689.959,1573.579Z" transform="translate(-653.369 -1471.877)" fill="#fff"/>
              <path id="Path_67977" data-name="Path 67977" d="M711.439,1565.151l-11.908,4.3v81.775l.1.094h.163l28.666-69.154-17.014-17.015Z" transform="translate(-629.075 -1468.394)" fill="#231f20" opacity="0.1"/>
              <path id="Path_67978" data-name="Path 67978" d="M699.533,1572.941v81.768l11.96-33.891-9.523-39.613L717,1563.779Z" transform="translate(-629.068 -1471.877)" fill="#008f8d"/>
              <path id="Path_67979" data-name="Path 67979" d="M709.583,1581.205l-9.524,39.613,11.969,33.891v-81.768l-17.417-9.162Z" transform="translate(-641.563 -1471.877)" fill="#14475f"/>
              <path id="Path_67980" data-name="Path 67980" d="M695.172,1565.97c4.769,4.359,10.441,8.916,16.515,8.916,6.117,0,11.806-4.628,16.611-9a22.646,22.646,0,0,1,.308-4.865H694.768A22.229,22.229,0,0,1,695.172,1565.97Z" transform="translate(-641.163 -1478.88)" opacity="0.07"/>
              <path id="Path_67981" data-name="Path 67981" d="M723.973,1544.632a131.832,131.832,0,0,1-23.277-2.069c-6.1,7.957-9.91,19.3-9.91,31.9,0,24.055,13.883,43.549,31.007,43.549s31-19.494,31-43.549c0-12.27-3.619-23.354-9.44-31.273A131.386,131.386,0,0,1,723.973,1544.632Z" transform="translate(-651.27 -1525.727)" fill="#efc64c"/>
              <path id="Path_67982" data-name="Path 67982" d="M763.888,1546.509c-2.636.3-5.2-.258-5.983,2.625-.265-5.838-17.991-9.74-30.912-4.571-9.507,3.8-16.781-9.457-28.014-6.255-10.374,2.951-17.237,19.937-5.654,33.151,3.449,3.931.9,3.011,6.719,21.713l4.737-19.208c10.027.686,21.38-1.6,28.52-2.5,5.36-.68,21.274-1.631,23.036-9.963l5.017,31.676C764.2,1567.684,775.8,1547.641,763.888,1546.509Z" transform="translate(-660.15 -1537.804)" fill="#14475f"/>
              <path id="Path_67983" data-name="Path 67983" d="M700.061,1543.579c-2.491-1.27-2.852-4.146-7.256-2.541-1.065.825-3.078,4.932-2.59,9.033.311,2.632,1.4,2.993,1.755,3.117a9.556,9.556,0,0,1,2.371,1.161l4.076.279c11.12.768,19.268-4.3,33.693-10.5l-20.337,2.53A25.038,25.038,0,0,1,700.061,1543.579Z" transform="translate(-652.91 -1530.798)" fill="#14475f"/>
            </g>
          </g>
        </g>
      </g>
    </g>
  </g>
</svg>
