<svg xmlns="http://www.w3.org/2000/svg" xmlns:xlink="http://www.w3.org/1999/xlink" width="631.648" height="353.426" viewBox="0 0 631.648 353.426">
  <defs>
    <filter id="Rectangle_4800" x="22.546" y="273.394" width="80.684" height="21.382" filterUnits="userSpaceOnUse">
      <feOffset dy="1.238" input="SourceAlpha"/>
      <feGaussianBlur result="blur"/>
      <feFlood flood-color="#e6e7e8"/>
      <feComposite operator="in" in2="blur"/>
      <feComposite in="SourceGraphic"/>
    </filter>
    <filter id="Rectangle_4805" x="509.632" y="307.56" width="83.697" height="25.037" filterUnits="userSpaceOnUse">
      <feOffset dy="0.5" input="SourceAlpha"/>
      <feGaussianBlur result="blur-2"/>
      <feFlood flood-color="#e6e7e8"/>
      <feComposite operator="in" in2="blur-2"/>
      <feComposite in="SourceGraphic"/>
    </filter>
  </defs>
  <g id="Group_23656" data-name="Group 23656" transform="translate(-965.531 -1503.519)">
    <g id="Group_23628" data-name="Group 23628" transform="translate(1183.27 1503.519)">
      <path id="Path_67984" data-name="Path 67984" d="M1058.72,1598.588a25.221,25.221,0,0,1-16.485-6.115,23.7,23.7,0,0,1-2.737-2.766,25.253,25.253,0,0,1,19.222-41.624h.036c0-.4-.036-.824-.036-1.23a43.33,43.33,0,0,1,84.8-12.55,25.191,25.191,0,0,1,27.747,4.167,3.124,3.124,0,0,0,.279.259l1.157,1.18a3.406,3.406,0,0,1,.266.259,25.225,25.225,0,0,1,4.852,26.081c.279-.013.561-.035.84-.035a16.187,16.187,0,1,1,0,32.375Z" transform="translate(-1033.473 -1503.519)" fill="#fff"/>
      <g id="Group_23627" data-name="Group 23627" transform="translate(0 49.11)">
        <g id="Group_23626" data-name="Group 23626">
          <path id="Path_67985" data-name="Path 67985" d="M1184.943,1558.524H1065a25.207,25.207,0,0,1-16.482-6.118,23.732,23.732,0,0,1-2.737-2.763,25.214,25.214,0,0,1-1.477-30.8,25.231,25.231,0,0,0-4.8,37.079,23.7,23.7,0,0,0,2.737,2.766,25.206,25.206,0,0,0,16.485,6.115h119.945a16.174,16.174,0,0,0,14.149-8.323A16.125,16.125,0,0,1,1184.943,1558.524Z" transform="translate(-1033.473 -1518.843)" fill="#d0d2d3"/>
        </g>
      </g>
      <path id="Path_67986" data-name="Path 67986" d="M1047.533,1558.134h16.616v-24.949" transform="translate(-1002.474 -1438.114)" fill="none" stroke="#d0d2d3" stroke-miterlimit="10" stroke-width="1.501"/>
      <line id="Line_1029" data-name="Line 1029" y2="50.639" transform="translate(80.045 95.071)" fill="none" stroke="#d0d2d3" stroke-miterlimit="10" stroke-width="1.501"/>
      <path id="Path_67987" data-name="Path 67987" d="M1081.953,1566.655h-17.771v-33.47" transform="translate(-965.767 -1438.114)" fill="none" stroke="#d0d2d3" stroke-miterlimit="10" stroke-width="1.501"/>
      <circle id="Ellipse_711" data-name="Ellipse 711" cx="10.016" cy="10.016" r="10.016" transform="translate(25.163 110.004)" fill="none" stroke="#d0d2d3" stroke-miterlimit="10" stroke-width="1.501"/>
      <circle id="Ellipse_712" data-name="Ellipse 712" cx="10.016" cy="10.016" r="10.016" transform="translate(70.028 145.709)" fill="none" stroke="#d0d2d3" stroke-miterlimit="10" stroke-width="1.501"/>
      <circle id="Ellipse_713" data-name="Ellipse 713" cx="10.016" cy="10.016" r="10.016" transform="translate(116.186 118.525)" fill="none" stroke="#d0d2d3" stroke-miterlimit="10" stroke-width="1.501"/>
    </g>
    <g id="Group_23646" data-name="Group 23646" transform="translate(965.531 1624.903)">
      <path id="Path_67988" data-name="Path 67988" d="M1090.946,1548.147a11.084,11.084,0,0,0-3.974-4.189v-.006a12.258,12.258,0,0,0-1.32-.686h-.007c-1.352-.6-8.909-.926-10.483-.926H976.581a10.958,10.958,0,0,0-4.423.923,11.194,11.194,0,0,0-1.32.695.847.847,0,0,0-.128.074,11.072,11.072,0,0,0-3.852,4.125,1.777,1.777,0,0,0-.122.23,10.979,10.979,0,0,0-1.2,5.012v205.99a11.239,11.239,0,0,0,.138,1.743c.029.189.067.378.1.564l.074.311a9.354,9.354,0,0,0,.266.933c.035.1.067.2.109.294s.074.208.115.3a4.511,4.511,0,0,0,.189.436c.064.144.132.285.211.429.109.218.231.442.356.657a11.726,11.726,0,0,0,1.333,1.8c.17.183.34.359.522.529.138.125.272.253.42.375.276.24.567.464.865.679l.01.016c.16.1.317.208.468.3a11.372,11.372,0,0,0,1.449.77,11.013,11.013,0,0,0,4.423.92h104.642a10.935,10.935,0,0,0,4.429-.927,10.742,10.742,0,0,0,1.32-.689,11.072,11.072,0,0,0,5.3-9.441v-206a10.989,10.989,0,0,0-1.324-5.243Z" transform="translate(-965.53 -1539.312)" fill="#0d2038"/>
      <path id="Path_67989" data-name="Path 67989" d="M1090.946,1547.387a11.057,11.057,0,0,0-3.974-4.186v-.006a11.675,11.675,0,0,0-1.32-.686h-.007c-1.352-.6-8.909-.926-10.483-.926H976.581a11.013,11.013,0,0,0-4.423.92,11.288,11.288,0,0,0-1.32.7.833.833,0,0,0-.128.071,11.085,11.085,0,0,0-3.852,4.128,1.579,1.579,0,0,0-.122.23,10.967,10.967,0,0,0-1.2,5.012V1758.63a11.278,11.278,0,0,0,.138,1.747c.029.189.067.375.1.564l.074.308a8.86,8.86,0,0,0,.266.933c.035.1.067.2.109.3s.074.2.115.3c.054.15.122.295.189.436s.132.286.211.43c.109.218.231.442.356.654a11.594,11.594,0,0,0,1.333,1.8c.17.183.34.356.522.525.138.128.272.256.42.378.276.241.567.465.865.677l.01.019c.16.1.317.205.468.3a11.688,11.688,0,0,0,1.449.769,11.005,11.005,0,0,0,4.423.92h104.642a10.942,10.942,0,0,0,4.429-.926,11.332,11.332,0,0,0,1.32-.692,11.063,11.063,0,0,0,5.3-9.441V1552.643a10.991,10.991,0,0,0-1.324-5.243Z" transform="translate(-965.53 -1540.978)" fill="#11313f"/>
      <path id="Path_67990" data-name="Path 67990" d="M1090.946,1547.2a11.053,11.053,0,0,0-3.974-4.186v-.006a11.215,11.215,0,0,0-1.32-.686h-.007c-1.352-.6-8.909-.926-10.483-.926H976.581a11.013,11.013,0,0,0-4.423.919,10.8,10.8,0,0,0-1.32.7.874.874,0,0,0-.128.07,11.085,11.085,0,0,0-3.852,4.128,1.585,1.585,0,0,0-.122.231,10.966,10.966,0,0,0-1.2,5.012V1758.44a11.279,11.279,0,0,0,.138,1.747c.029.186.067.375.1.564l.074.308a9.1,9.1,0,0,0,.266.933c.035.1.067.2.109.3s.074.205.115.3c.054.15.122.295.189.436s.132.282.211.43c.109.218.231.442.356.654a11.59,11.59,0,0,0,1.333,1.8c.17.18.34.356.522.525.138.128.272.257.42.375a10.291,10.291,0,0,0,.865.679l.01.02.468.3a11.45,11.45,0,0,0,1.449.772,11.005,11.005,0,0,0,4.423.92h104.642a10.935,10.935,0,0,0,4.429-.926,11.185,11.185,0,0,0,1.32-.692,11.061,11.061,0,0,0,5.3-9.441V1552.454a10.992,10.992,0,0,0-1.324-5.243Z" transform="translate(-965.53 -1541.395)" fill="#14475f"/>
      <rect id="Rectangle_4790" data-name="Rectangle 4790" width="118.355" height="181.94" transform="translate(3.712 19.493)" fill="#14475f"/>
      <g id="Group_23631" data-name="Group 23631" transform="translate(120.115 0.926)">
        <g id="Group_23629" data-name="Group 23629" transform="translate(0.001 18.525)">
          <rect id="Rectangle_4791" data-name="Rectangle 4791" width="6.63" height="181.956" fill="#f8fdff" opacity="0.28"/>
          <rect id="Rectangle_4792" data-name="Rectangle 4792" width="3.978" height="181.955" transform="translate(1.325)" fill="#f8fdff" opacity="0.28"/>
        </g>
        <g id="Group_23630" data-name="Group 23630">
          <path id="Path_67991" data-name="Path 67991" d="M1003.011,1630.041a10.37,10.37,0,0,0,1.327-.689,11.038,11.038,0,0,0,1.987-1.564l.071-.07c.266-.266.516-.545.756-.836l.106-.131c.093-.115.192-.228.282-.349a10.8,10.8,0,0,0,.782-1.244,11.12,11.12,0,0,0,1.32-5.24v-15.681h-6.631Z" transform="translate(-1003.011 -1403.771)" fill="#f8fdff" opacity="0.14"/>
          <path id="Path_67992" data-name="Path 67992" d="M1008.321,1546.574l-.007-.013a11.059,11.059,0,0,0-3.977-4.186l-.007-.006a10.7,10.7,0,0,0-1.32-.686v18.524h6.631v-8.391a10.9,10.9,0,0,0-.577-3.515A11.014,11.014,0,0,0,1008.321,1546.574Z" transform="translate(-1003.011 -1541.684)" fill="#f8fdff" opacity="0.14"/>
          <path id="Path_67993" data-name="Path 67993" d="M1003.43,1541.9l-.006-.007v17.844h3.98v-13.649A11.085,11.085,0,0,0,1003.43,1541.9Z" transform="translate(-1002.1 -1541.214)" fill="#f8fdff" opacity="0.14"/>
          <path id="Path_67994" data-name="Path 67994" d="M1003.425,1629.355a11.082,11.082,0,0,0,3.977-4.195v-20.924h-3.977Z" transform="translate(-1002.098 -1403.771)" fill="#f8fdff" opacity="0.14"/>
        </g>
      </g>
      <g id="Group_23634" data-name="Group 23634" transform="translate(0 0.92)">
        <g id="Group_23632" data-name="Group 23632" transform="translate(0 18.531)">
          <rect id="Rectangle_4793" data-name="Rectangle 4793" width="6.63" height="181.94" fill="#f8fdff" opacity="0.28"/>
          <rect id="Rectangle_4794" data-name="Rectangle 4794" width="3.978" height="181.939" transform="translate(1.327)" fill="#f8fdff" opacity="0.28"/>
        </g>
        <g id="Group_23633" data-name="Group 23633" transform="translate(0.001)">
          <path id="Path_67995" data-name="Path 67995" d="M965.531,1619.891a11.279,11.279,0,0,0,.138,1.747c.032.186.061.375.1.564.026.1.045.205.074.308.073.314.163.631.266.933.038.1.067.2.109.3s.074.205.115.3a3.486,3.486,0,0,0,.189.436c.067.145.135.282.205.43.038.077.08.157.122.237l.006.01.007.013c.067.128.144.26.224.381l.006.013c.1.157.192.32.295.474s.211.308.323.458.224.3.343.442.244.286.372.426c.083.09.17.18.253.266a2.841,2.841,0,0,0,.266.259c.135.128.272.257.414.375s.285.244.429.358.3.218.442.321l.013.02c.157.1.308.2.464.3a1.15,1.15,0,0,0,.122.086,10.01,10.01,0,0,0,1.327.689v-25.805h-6.627Z" transform="translate(-965.531 -1403.765)" fill="#f8fdff" opacity="0.14"/>
          <path id="Path_67996" data-name="Path 67996" d="M970.71,1542.451a11.136,11.136,0,0,0-3.852,4.128,1.913,1.913,0,0,0-.128.231,10.624,10.624,0,0,0-.625,1.5,10.9,10.9,0,0,0-.574,3.515v8.391h6.627v-18.53a11.391,11.391,0,0,0-1.327.7A1.01,1.01,0,0,0,970.71,1542.451Z" transform="translate(-965.531 -1541.682)" fill="#f8fdff" opacity="0.14"/>
          <path id="Path_67997" data-name="Path 67997" d="M965.944,1546.1v13.637h3.98V1541.9c-.045.022-.083.048-.125.073A11.109,11.109,0,0,0,965.944,1546.1Z" transform="translate(-964.62 -1541.203)" fill="#f8fdff" opacity="0.14"/>
          <path id="Path_67998" data-name="Path 67998" d="M965.945,1625.16a11.084,11.084,0,0,0,3.977,4.195v-25.119h-3.977Z" transform="translate(-964.618 -1403.765)" fill="#f8fdff" opacity="0.14"/>
        </g>
      </g>
      <path id="Path_67999" data-name="Path 67999" d="M995.358,1606.127h-7.9a5.146,5.146,0,0,0-5.14,5.14v4.263a5.146,5.146,0,0,0,5.14,5.141h7.9a5.144,5.144,0,0,0,5.14-5.141v-4.263A5.144,5.144,0,0,0,995.358,1606.127Zm3.323,9.4a3.326,3.326,0,0,1-3.323,3.323h-7.9a3.324,3.324,0,0,1-3.32-3.323v-4.263a3.324,3.324,0,0,1,3.32-3.323h7.9a3.327,3.327,0,0,1,3.323,3.323Z" transform="translate(-928.519 -1398.676)" fill="#f8fdff" opacity="0.25"/>
      <rect id="Rectangle_4795" data-name="Rectangle 4795" width="29.619" height="3.978" rx="0.414" transform="translate(48.343 7.736)" fill="#f8fdff" opacity="0.25"/>
      <g id="Path_68000" data-name="Path 68000" transform="translate(-898.51 -1537.629)" fill="none" stroke-miterlimit="10" opacity="0.25">
        <path d="M998.868,1543.1a2.939,2.939,0,1,0,2.939,2.939A2.936,2.936,0,0,0,998.868,1543.1Z" stroke="none"/>
        <path d="M 998.86767578125 1543.498291015625 C 997.46533203125 1543.498291015625 996.324462890625 1544.639282226562 996.324462890625 1546.041748046875 C 996.324462890625 1547.443969726562 997.46533203125 1548.584716796875 998.86767578125 1548.584716796875 C 1000.27001953125 1548.584716796875 1001.410888671875 1547.443969726562 1001.410888671875 1546.041748046875 C 1001.410888671875 1544.639282226562 1000.27001953125 1543.498291015625 998.86767578125 1543.498291015625 M 998.86767578125 1543.102783203125 C 1000.4892578125 1543.102783203125 1001.806396484375 1544.416259765625 1001.806396484375 1546.041748046875 C 1001.806396484375 1547.662841796875 1000.4892578125 1548.980224609375 998.86767578125 1548.980224609375 C 997.242919921875 1548.980224609375 995.928955078125 1547.662841796875 995.928955078125 1546.041748046875 C 995.928955078125 1544.416259765625 997.242919921875 1543.102783203125 998.86767578125 1543.102783203125 Z" stroke="none" fill="#f8fdff"/>
      </g>
      <g id="Group_23643" data-name="Group 23643" transform="translate(33.705 51.427)">
        <g id="Group_23635" data-name="Group 23635" transform="translate(0 3.968)" style="mix-blend-mode: multiply;isolation: isolate">
          <path id="Path_68001" data-name="Path 68001" d="M1034.413,1571.585a3.306,3.306,0,0,0-2.984-3.542h-52.4a3.306,3.306,0,0,0-2.984,3.542v41.447a3.309,3.309,0,0,0,2.984,3.544h52.4a3.309,3.309,0,0,0,2.984-3.544Z" transform="translate(-976.048 -1538.035)" fill="#e6e7e8"/>
          <rect id="Rectangle_4796" data-name="Rectangle 4796" width="43.773" height="48.532" transform="translate(7.297 30.008)" fill="#e6e7e8"/>
          <path id="Path_68002" data-name="Path 68002" d="M996.114,1578.826a6.493,6.493,0,1,1-6.493-6.493A6.493,6.493,0,0,1,996.114,1578.826Z" transform="translate(-960.438 -1528.578)" fill="#e6e7e8"/>
          <rect id="Rectangle_4797" data-name="Rectangle 4797" width="5.42" height="9.314" transform="translate(26.471 55.481)" fill="#e6e7e8"/>
          <path id="Path_68003" data-name="Path 68003" d="M1022.1,1588.689h-8.134v-8.124a13.756,13.756,0,1,0-27.513,0v8.124h-8.127v-8.124a21.887,21.887,0,0,1,43.774,0Z" transform="translate(-971.027 -1558.68)" fill="#e6e7e8"/>
        </g>
        <g id="Group_23642" data-name="Group 23642">
          <g id="Group_23641" data-name="Group 23641">
            <g id="Group_23636" data-name="Group 23636" transform="translate(0 30.009)">
              <path id="Path_68004" data-name="Path 68004" d="M1034.413,1570.35a3.307,3.307,0,0,0-2.984-3.544h-52.4a3.307,3.307,0,0,0-2.984,3.544v41.444a3.309,3.309,0,0,0,2.984,3.544h52.4a3.309,3.309,0,0,0,2.984-3.544Z" transform="translate(-976.048 -1566.806)" fill="#fdb700"/>
            </g>
            <g id="Group_23637" data-name="Group 23637" transform="translate(7.297 30.009)">
              <rect id="Rectangle_4798" data-name="Rectangle 4798" width="43.773" height="48.532" fill="#fc0"/>
            </g>
            <g id="Group_23640" data-name="Group 23640" transform="translate(22.69 43.755)">
              <g id="Group_23639" data-name="Group 23639">
                <g id="Group_23638" data-name="Group 23638">
                  <path id="Path_68005" data-name="Path 68005" d="M996.114,1577.588a6.493,6.493,0,1,1-6.493-6.493A6.493,6.493,0,0,1,996.114,1577.588Z" transform="translate(-983.128 -1571.095)" fill="#4f280b"/>
                </g>
                <rect id="Rectangle_4799" data-name="Rectangle 4799" width="5.42" height="9.314" transform="translate(3.781 11.727)" fill="#4f280b"/>
              </g>
            </g>
            <path id="Path_68006" data-name="Path 68006" d="M1022.1,1587.451h-8.134v-8.124a13.756,13.756,0,1,0-27.513,0v8.124h-8.127v-8.124a21.887,21.887,0,0,1,43.774,0Z" transform="translate(-971.027 -1557.442)" fill="#404041"/>
          </g>
        </g>
      </g>
      <g id="Group_23645" data-name="Group 23645" transform="translate(22.546 152.011)">
        <g transform="matrix(1, 0, 0, 1, -22.55, -273.39)" filter="url(#Rectangle_4800)">
          <rect id="Rectangle_4800-2" data-name="Rectangle 4800" width="80.684" height="20.144" rx="0.684" transform="translate(22.55 273.39)" fill="#fff"/>
        </g>
        <path id="Path_68007" data-name="Path 68007" d="M973.838,1608.05v-15.758a2.191,2.191,0,0,1,2.192-2.192h76.3a2.13,2.13,0,0,1,.772.147,2.181,2.181,0,0,0-2.045-1.42h-76.3a2.191,2.191,0,0,0-2.192,2.192v15.758a2.193,2.193,0,0,0,1.42,2.048A2.242,2.242,0,0,1,973.838,1608.05Z" transform="translate(-972.566 -1588.827)" fill="#f1f1f2"/>
        <g id="Group_23644" data-name="Group 23644" transform="translate(9.368 7.111)">
          <path id="Path_68008" data-name="Path 68008" d="M989.85,1593.231l-.8-1.2-2.293,1.527.058-2.511h-1.534l.051,2.5-2.264-1.542-.781,1.208,2.561,1.527-2.568,1.513.789,1.2,2.272-1.519-.058,2.5h1.541l-.08-2.568,2.315,1.577.8-1.193-2.6-1.52Z" transform="translate(-960.528 -1591.046)" fill="#14475f"/>
          <path id="Path_68009" data-name="Path 68009" d="M986.457,1593.231l-.8-1.2-2.293,1.527.058-2.511h-1.534l.051,2.5-2.265-1.542-.781,1.208,2.561,1.527-2.568,1.513.789,1.2,2.272-1.519-.058,2.5h1.541l-.08-2.568,2.315,1.577.8-1.193-2.6-1.52Z" transform="translate(-968.008 -1591.046)" fill="#14475f"/>
          <path id="Path_68010" data-name="Path 68010" d="M983.064,1593.231l-.8-1.2-2.293,1.527.057-2.511h-1.534l.051,2.5-2.264-1.542-.781,1.208,2.561,1.527-2.569,1.513.789,1.2,2.272-1.519-.058,2.5h1.541l-.079-2.568,2.314,1.577.8-1.193-2.6-1.52Z" transform="translate(-975.489 -1591.046)" fill="#14475f"/>
          <path id="Path_68011" data-name="Path 68011" d="M1000.028,1593.231l-.8-1.2-2.294,1.527.058-2.511h-1.534l.051,2.5-2.264-1.542-.781,1.208,2.561,1.527-2.569,1.513.789,1.2,2.272-1.519-.058,2.5H997l-.08-2.568,2.315,1.577.8-1.193-2.6-1.52Z" transform="translate(-938.087 -1591.046)" fill="#14475f"/>
          <path id="Path_68012" data-name="Path 68012" d="M996.635,1593.231l-.8-1.2-2.293,1.527.058-2.511h-1.534l.051,2.5-2.265-1.542-.781,1.208,2.561,1.527-2.568,1.513.788,1.2,2.272-1.519-.058,2.5H993.6l-.08-2.568,2.315,1.577.8-1.193-2.6-1.52Z" transform="translate(-945.567 -1591.046)" fill="#14475f"/>
          <path id="Path_68013" data-name="Path 68013" d="M993.243,1593.231l-.8-1.2-2.293,1.527.057-2.511H988.67l.051,2.5-2.265-1.542-.781,1.208,2.561,1.527-2.569,1.513.789,1.2,2.272-1.519-.058,2.5h1.541l-.079-2.568,2.314,1.577.8-1.193-2.6-1.52Z" transform="translate(-953.048 -1591.046)" fill="#14475f"/>
        </g>
      </g>
    </g>
    <g id="Group_23650" data-name="Group 23650" transform="translate(1153.382 1715.489)">
      <g id="Group_23647" data-name="Group 23647" opacity="0.3">
        <path id="Path_68014" data-name="Path 68014" d="M1024.147,1575.368a10.342,10.342,0,0,1,0,14.629" transform="translate(-1024.147 -1557.078)" fill="none" stroke="#fff" stroke-linecap="round" stroke-linejoin="round" stroke-width="1.376"/>
        <path id="Path_68015" data-name="Path 68015" d="M1027.055,1572.46a23.525,23.525,0,0,1,0,33.266" transform="translate(-1017.735 -1563.49)" fill="none" stroke="#fff" stroke-linecap="round" stroke-linejoin="round" stroke-width="1.376"/>
        <path id="Path_68016" data-name="Path 68016" d="M1029.854,1569.661a36.209,36.209,0,0,1,0,51.206" transform="translate(-1011.564 -1569.661)" fill="none" stroke="#fff" stroke-linecap="round" stroke-linejoin="round" stroke-width="1.376"/>
      </g>
      <g id="Group_23648" data-name="Group 23648" transform="translate(193.638)" opacity="0.3">
        <path id="Path_68017" data-name="Path 68017" d="M1095.67,1590a10.342,10.342,0,0,1,0-14.629" transform="translate(-1066.776 -1557.078)" fill="none" stroke="#fff" stroke-linecap="round" stroke-linejoin="round" stroke-width="1.376"/>
        <path id="Path_68018" data-name="Path 68018" d="M1095.416,1605.725a23.525,23.525,0,0,1,0-33.266" transform="translate(-1075.841 -1563.49)" fill="none" stroke="#fff" stroke-linecap="round" stroke-linejoin="round" stroke-width="1.376"/>
        <path id="Path_68019" data-name="Path 68019" d="M1095.174,1620.867a36.208,36.208,0,0,1,0-51.206" transform="translate(-1084.569 -1569.661)" fill="none" stroke="#fff" stroke-linecap="round" stroke-linejoin="round" stroke-width="1.376"/>
      </g>
      <g id="Group_23649" data-name="Group 23649" transform="translate(76.639 17.953)">
        <circle id="Ellipse_714" data-name="Ellipse 714" cx="4.621" cy="4.621" r="4.621" transform="translate(0 3.03)" fill="#bbbdbf"/>
        <circle id="Ellipse_715" data-name="Ellipse 715" cx="6.476" cy="6.476" r="6.476" transform="translate(26.636 1.175)" fill="#e6e7e8"/>
        <circle id="Ellipse_716" data-name="Ellipse 716" cx="7.651" cy="7.651" r="7.651" transform="translate(53.953)" fill="#fff"/>
      </g>
    </g>
    <g id="Group_23655" data-name="Group 23655" transform="translate(1435.962 1624.903)">
      <g id="Path_68020" data-name="Path 68020" transform="translate(-1112.322 -1541.395)" fill="#a6a8ab" stroke-miterlimit="10">
        <path d="M 1221.838134765625 1772.986450195312 L 1122.785400390625 1772.986450195312 C 1121.261840820312 1772.986450195312 1119.791625976562 1772.680297851562 1118.41552734375 1772.076416015625 C 1117.908081054688 1771.850219726562 1117.427734375 1771.595336914062 1116.985717773438 1771.31787109375 L 1116.981811523438 1771.3154296875 L 1116.97802734375 1771.312866210938 C 1116.930419921875 1771.28173828125 1116.881713867188 1771.25 1116.83251953125 1771.218017578125 C 1116.734130859375 1771.154052734375 1116.633544921875 1771.088745117188 1116.534423828125 1771.022094726562 L 1116.473754882812 1770.981323242188 L 1116.45703125 1770.959594726562 C 1116.160522460938 1770.745727539062 1115.8994140625 1770.540649414062 1115.66015625 1770.333740234375 C 1115.563842773438 1770.252685546875 1115.4755859375 1770.171020507812 1115.39013671875 1770.092163085938 C 1115.34619140625 1770.051513671875 1115.30224609375 1770.010864257812 1115.25732421875 1769.970581054688 L 1115.254638671875 1769.968139648438 L 1115.251953125 1769.965698242188 C 1115.051879882812 1769.780029296875 1114.870361328125 1769.588134765625 1114.734497070312 1769.44189453125 L 1114.732299804688 1769.439453125 L 1114.730224609375 1769.437133789062 C 1114.23486328125 1768.887939453125 1113.792724609375 1768.290649414062 1113.415893554688 1767.661987304688 C 1113.279907226562 1767.440795898438 1113.155517578125 1767.2021484375 1113.062377929688 1767.018798828125 C 1112.983764648438 1766.870849609375 1112.917724609375 1766.735717773438 1112.855346679688 1766.594848632812 C 1112.793701171875 1766.468505859375 1112.723510742188 1766.318237304688 1112.664184570312 1766.154052734375 C 1112.624389648438 1766.057983398438 1112.589233398438 1765.961547851562 1112.555053710938 1765.8681640625 L 1112.555053710938 1765.868041992188 C 1112.529296875 1765.804809570312 1112.508544921875 1765.744995117188 1112.488403320312 1765.68701171875 C 1112.476440429688 1765.652221679688 1112.464477539062 1765.61767578125 1112.451538085938 1765.58349609375 L 1112.4482421875 1765.575073242188 L 1112.445434570312 1765.56640625 C 1112.340942382812 1765.253173828125 1112.252075195312 1764.942626953125 1112.181274414062 1764.643432617188 L 1112.113403320312 1764.3486328125 L 1112.11181640625 1764.341796875 L 1112.110473632812 1764.3349609375 L 1112.1025390625 1764.294799804688 C 1112.06982421875 1764.129638671875 1112.0361328125 1763.958740234375 1112.008422851562 1763.787963867188 C 1111.9169921875 1763.195556640625 1111.870971679688 1762.615966796875 1111.870971679688 1762.06201171875 L 1111.870971679688 1551.86181640625 C 1111.870971679688 1550.127563476562 1112.269653320312 1548.46630859375 1113.055786132812 1546.924072265625 C 1113.0888671875 1546.850830078125 1113.123291015625 1546.789916992188 1113.15380859375 1546.735717773438 C 1113.163330078125 1546.718872070312 1113.1728515625 1546.7021484375 1113.18212890625 1546.685180664062 C 1114.066772460938 1545.034790039062 1115.382202148438 1543.625732421875 1116.984497070312 1542.613037109375 L 1116.996826171875 1542.605346679688 L 1117.009643554688 1542.598388671875 C 1117.015258789062 1542.595092773438 1117.02099609375 1542.59130859375 1117.02685546875 1542.587646484375 C 1117.05419921875 1542.570434570312 1117.092041015625 1542.546630859375 1117.140869140625 1542.5244140625 C 1117.550415039062 1542.274047851562 1117.966674804688 1542.055053710938 1118.412353515625 1541.855224609375 C 1119.789672851562 1541.250244140625 1121.259887695312 1540.944213867188 1122.785400390625 1540.944213867188 L 1216.1015625 1540.944213867188 C 1217.181884765625 1540.944213867188 1224.46240234375 1541.208862304688 1226.111083984375 1541.822143554688 L 1226.124877929688 1541.822143554688 L 1226.211547851562 1541.8603515625 C 1226.648803710938 1542.052734375 1227.086791992188 1542.279052734375 1227.513549804688 1542.533081054688 L 1227.733764648438 1542.664184570312 L 1227.733764648438 1542.677124023438 C 1229.2890625 1543.67578125 1230.568115234375 1545.053100585938 1231.4423828125 1546.673706054688 L 1231.47021484375 1546.725219726562 L 1231.473388671875 1546.73876953125 C 1232.310424804688 1548.305541992188 1232.752563476562 1550.075561523438 1232.752563476562 1551.86181640625 L 1232.752563476562 1762.06884765625 C 1232.752563476562 1763.87451171875 1232.300537109375 1765.664184570312 1231.4453125 1767.244384765625 C 1230.539306640625 1768.936157226562 1229.181030273438 1770.369506835938 1227.518432617188 1771.387817382812 C 1227.112915039062 1771.635986328125 1226.674072265625 1771.866088867188 1226.2138671875 1772.071655273438 C 1224.838500976562 1772.678955078125 1223.366943359375 1772.986450195312 1221.838134765625 1772.986450195312 Z" stroke="none"/>
        <path d="M 1122.785400390625 1541.39501953125 C 1121.294921875 1541.39501953125 1119.8818359375 1541.7021484375 1118.5966796875 1542.2666015625 C 1118.160888671875 1542.4619140625 1117.74755859375 1542.68017578125 1117.346923828125 1542.9267578125 C 1117.302001953125 1542.94287109375 1117.2666015625 1542.9716796875 1117.225341796875 1542.994140625 C 1115.699462890625 1543.95849609375 1114.43359375 1545.3046875 1113.577880859375 1546.90087890625 C 1113.53955078125 1546.97119140625 1113.497802734375 1547.03857421875 1113.462646484375 1547.11865234375 C 1112.7353515625 1548.54150390625 1112.32177734375 1550.15380859375 1112.32177734375 1551.86181640625 L 1112.32177734375 1762.06201171875 C 1112.32177734375 1762.6201171875 1112.369873046875 1763.17431640625 1112.453369140625 1763.7158203125 C 1112.48193359375 1763.89208984375 1112.517333984375 1764.068359375 1112.552734375 1764.24755859375 L 1112.619873046875 1764.53955078125 C 1112.6904296875 1764.83740234375 1112.77685546875 1765.13525390625 1112.873046875 1765.423828125 C 1112.908203125 1765.5166015625 1112.937255859375 1765.61279296875 1112.9755859375 1765.70556640625 C 1113.0107421875 1765.8017578125 1113.0458984375 1765.8984375 1113.084716796875 1765.9912109375 C 1113.135986328125 1766.13525390625 1113.19970703125 1766.27294921875 1113.263916015625 1766.404296875 C 1113.324951171875 1766.54248046875 1113.38916015625 1766.67333984375 1113.462646484375 1766.8115234375 C 1113.568603515625 1767.02001953125 1113.680419921875 1767.2314453125 1113.802490234375 1767.43017578125 C 1114.16748046875 1768.0390625 1114.587646484375 1768.60595703125 1115.06494140625 1769.13525390625 C 1115.225341796875 1769.30810546875 1115.385498046875 1769.474609375 1115.55859375 1769.63525390625 C 1115.690185546875 1769.75341796875 1115.81494140625 1769.875 1115.95263671875 1769.99072265625 C 1116.215576171875 1770.21826171875 1116.4912109375 1770.43017578125 1116.7734375 1770.6318359375 L 1116.785888671875 1770.64794921875 C 1116.933349609375 1770.7470703125 1117.083984375 1770.84326171875 1117.225341796875 1770.93603515625 C 1117.6640625 1771.21142578125 1118.122314453125 1771.4521484375 1118.5966796875 1771.66357421875 C 1119.8818359375 1772.2275390625 1121.294921875 1772.53564453125 1122.785400390625 1772.53564453125 L 1221.838134765625 1772.53564453125 C 1223.328369140625 1772.53564453125 1224.744873046875 1772.2275390625 1226.030029296875 1771.66015625 C 1226.45947265625 1771.46826171875 1226.87939453125 1771.25048828125 1227.282958984375 1771.00341796875 C 1228.863037109375 1770.03564453125 1230.173583984375 1768.6640625 1231.048828125 1767.02978515625 C 1231.846923828125 1765.55517578125 1232.3017578125 1763.86328125 1232.3017578125 1762.06884765625 L 1232.3017578125 1551.86181640625 C 1232.3017578125 1550.06689453125 1231.846923828125 1548.375 1231.048828125 1546.90087890625 L 1231.045654296875 1546.8876953125 C 1230.16748046875 1545.259765625 1228.85986328125 1543.88818359375 1227.282958984375 1542.9267578125 L 1227.282958984375 1542.92041015625 C 1226.87939453125 1542.68017578125 1226.45947265625 1542.4619140625 1226.030029296875 1542.27294921875 L 1226.023681640625 1542.27294921875 C 1224.744873046875 1541.7021484375 1217.592041015625 1541.39501953125 1216.1015625 1541.39501953125 L 1122.785400390625 1541.39501953125 M 1122.785400390625 1540.493408203125 L 1216.1015625 1540.493408203125 C 1216.765625 1540.493408203125 1224.185546875 1540.706176757812 1226.186157226562 1541.371337890625 L 1226.219604492188 1541.371337890625 L 1226.39306640625 1541.44775390625 C 1226.847045898438 1541.6474609375 1227.301513671875 1541.88232421875 1227.744140625 1542.145751953125 L 1228.1845703125 1542.407836914062 L 1228.1845703125 1542.43408203125 C 1229.710571289062 1543.46142578125 1230.9677734375 1544.844360351562 1231.839111328125 1546.459594726562 L 1231.89453125 1546.562377929688 L 1231.898193359375 1546.577392578125 C 1232.752319335938 1548.196655273438 1233.203369140625 1550.021118164062 1233.203369140625 1551.86181640625 L 1233.203369140625 1762.06884765625 C 1233.203369140625 1763.94921875 1232.732543945312 1765.813110351562 1231.841674804688 1767.458862304688 C 1230.898803710938 1769.219360351562 1229.484619140625 1770.712158203125 1227.753784179688 1771.772216796875 C 1227.331909179688 1772.030517578125 1226.875732421875 1772.269653320312 1226.397827148438 1772.483276367188 C 1224.962890625 1773.116821289062 1223.429931640625 1773.437255859375 1221.838134765625 1773.437255859375 L 1122.785400390625 1773.437255859375 C 1121.19921875 1773.437255859375 1119.66796875 1773.118286132812 1118.234375 1772.489135742188 L 1118.229614257812 1772.487060546875 C 1117.705078125 1772.253295898438 1117.205932617188 1771.98828125 1116.745971679688 1771.699584960938 L 1116.730712890625 1771.689819335938 C 1116.683349609375 1771.65869140625 1116.635009765625 1771.627319335938 1116.586059570312 1771.595458984375 C 1116.486083984375 1771.530517578125 1116.383911132812 1771.463989257812 1116.283081054688 1771.396240234375 L 1116.161987304688 1771.31494140625 L 1116.14013671875 1771.28662109375 C 1115.85498046875 1771.078979492188 1115.600830078125 1770.87841796875 1115.366455078125 1770.675659179688 C 1115.263549804688 1770.5888671875 1115.17236328125 1770.504638671875 1115.084106445312 1770.423095703125 C 1115.041748046875 1770.383911132812 1114.999389648438 1770.3447265625 1114.956176757812 1770.306030273438 L 1114.9453125 1770.296142578125 C 1114.73388671875 1770.099853515625 1114.545043945312 1769.900390625 1114.404052734375 1769.748413085938 L 1114.395385742188 1769.739013671875 C 1113.882446289062 1769.170166015625 1113.424072265625 1768.551391601562 1113.032958984375 1767.89990234375 C 1112.887939453125 1767.663452148438 1112.75927734375 1767.417236328125 1112.662719726562 1767.227416992188 C 1112.580932617188 1767.073364257812 1112.511840820312 1766.932006835938 1112.4462890625 1766.784423828125 C 1112.38134765625 1766.651245117188 1112.307983398438 1766.493286132812 1112.24365234375 1766.316650390625 C 1112.203125 1766.218139648438 1112.168212890625 1766.122924804688 1112.134521484375 1766.03076171875 C 1112.105712890625 1765.959350585938 1112.082885742188 1765.893432617188 1112.062622070312 1765.834838867188 C 1112.051879882812 1765.80419921875 1112.04150390625 1765.773559570312 1112.030029296875 1765.743408203125 L 1112.017700195312 1765.708862304688 C 1111.909057617188 1765.3828125 1111.816528320312 1765.059326171875 1111.742553710938 1764.747436523438 L 1111.7412109375 1764.741577148438 L 1111.660034179688 1764.380981445312 C 1111.626708984375 1764.21240234375 1111.59228515625 1764.0380859375 1111.5634765625 1763.859985351562 L 1111.562377929688 1763.853149414062 C 1111.468017578125 1763.241577148438 1111.420166015625 1762.639038085938 1111.420166015625 1762.06201171875 L 1111.420166015625 1551.86181640625 C 1111.420166015625 1550.084350585938 1111.845336914062 1548.309814453125 1112.649780273438 1546.728149414062 C 1112.689819335938 1546.640747070312 1112.730712890625 1546.568237304688 1112.761352539062 1546.513916015625 C 1112.768920898438 1546.500610351562 1112.776489257812 1546.4873046875 1112.783813476562 1546.473876953125 C 1113.706787109375 1544.752685546875 1115.075927734375 1543.286010742188 1116.74365234375 1542.232055664062 L 1116.786865234375 1542.2060546875 C 1116.817016601562 1542.187133789062 1116.864013671875 1542.157470703125 1116.92626953125 1542.127197265625 C 1117.345703125 1541.871948242188 1117.772094726562 1541.648193359375 1118.227905273438 1541.44384765625 L 1118.234130859375 1541.441162109375 C 1119.665893554688 1540.812255859375 1121.197143554688 1540.493408203125 1122.785400390625 1540.493408203125 Z" stroke="none" fill="#000"/>
      </g>
      <path id="Rectangle_4801" data-name="Rectangle 4801" d="M1.155,0H92.72a1.155,1.155,0,0,1,1.155,1.155V43.093a0,0,0,0,1,0,0H0a0,0,0,0,1,0,0V1.155A1.155,1.155,0,0,1,1.155,0Z" transform="translate(13.052 13.65)" fill="#f1f1f2"/>
      <rect id="Rectangle_4802" data-name="Rectangle 4802" width="119.978" height="109.383" transform="translate(0.001 56.743)"/>
      <rect id="Rectangle_4803" data-name="Rectangle 4803" width="93.875" height="109.383" transform="translate(13.052 56.743)" fill="#fff" opacity="0.2"/>
      <g id="Group_23653" data-name="Group 23653" transform="translate(39.2 178.975)">
        <circle id="Ellipse_717" data-name="Ellipse 717" cx="19.47" cy="19.47" r="19.47" transform="translate(1.319)" fill="#d0d2d3"/>
        <circle id="Ellipse_718" data-name="Ellipse 718" cx="16.754" cy="16.754" r="16.754" transform="translate(4.036 2.717)" fill="#404041"/>
        <g id="Group_23652" data-name="Group 23652" transform="translate(0 7.201)">
          <rect id="Rectangle_4804" data-name="Rectangle 4804" width="122.016" height="24.537" rx="0.899" fill="#808184"/>
          <g transform="matrix(1, 0, 0, 1, -509.63, -307.56)" filter="url(#Rectangle_4805)">
            <rect id="Rectangle_4805-2" data-name="Rectangle 4805" width="83.697" height="24.537" rx="0.899" transform="translate(509.63 307.56)" fill="#808184"/>
          </g>
          <rect id="Rectangle_4806" data-name="Rectangle 4806" width="122.016" height="18.985" transform="translate(0 2.776)" fill="#e6e7e8"/>
          <rect id="Rectangle_4807" data-name="Rectangle 4807" width="2.018" height="18.985" transform="translate(0 2.776)" fill="#fff"/>
          <rect id="Rectangle_4808" data-name="Rectangle 4808" width="2.018" height="18.985" transform="translate(2.018 2.776)" fill="#f1f1f2"/>
          <circle id="Ellipse_719" data-name="Ellipse 719" cx="3.102" cy="3.102" r="3.102" transform="translate(17.688 9.168)" fill="#404041"/>
          <g id="Group_23651" data-name="Group 23651" transform="translate(38.586 5.873)">
            <path id="Path_68021" data-name="Path 68021" d="M1137.911,1601.321a1.317,1.317,0,1,0,1.317,1.317A1.317,1.317,0,0,0,1137.911,1601.321Z" transform="translate(-1136.594 -1601.321)" fill="#bbbdbf"/>
            <path id="Path_68022" data-name="Path 68022" d="M1137.911,1604.491a1.317,1.317,0,1,0,1.317,1.317A1.317,1.317,0,0,0,1137.911,1604.491Z" transform="translate(-1136.594 -1594.332)" fill="#bbbdbf"/>
            <path id="Path_68023" data-name="Path 68023" d="M1137.911,1602.906a1.317,1.317,0,1,0,1.317,1.317A1.317,1.317,0,0,0,1137.911,1602.906Z" transform="translate(-1136.594 -1597.826)" fill="#bbbdbf"/>
            <path id="Path_68024" data-name="Path 68024" d="M1139.384,1601.321a1.317,1.317,0,1,0,1.317,1.317A1.317,1.317,0,0,0,1139.384,1601.321Z" transform="translate(-1133.346 -1601.321)" fill="#bbbdbf"/>
            <circle id="Ellipse_720" data-name="Ellipse 720" cx="1.317" cy="1.317" r="1.317" transform="translate(4.72 10.158)" fill="#bbbdbf"/>
            <path id="Path_68025" data-name="Path 68025" d="M1139.384,1602.906a1.317,1.317,0,1,0,1.317,1.317A1.317,1.317,0,0,0,1139.384,1602.906Z" transform="translate(-1133.346 -1597.826)" fill="#bbbdbf"/>
            <path id="Path_68026" data-name="Path 68026" d="M1140.854,1601.321a1.317,1.317,0,1,0,1.317,1.317A1.316,1.316,0,0,0,1140.854,1601.321Z" transform="translate(-1130.098 -1601.321)" fill="#bbbdbf"/>
            <path id="Path_68027" data-name="Path 68027" d="M1140.854,1604.491a1.317,1.317,0,1,0,1.317,1.317A1.316,1.316,0,0,0,1140.854,1604.491Z" transform="translate(-1130.098 -1594.332)" fill="#bbbdbf"/>
            <path id="Path_68028" data-name="Path 68028" d="M1140.854,1602.906a1.317,1.317,0,1,0,1.317,1.317A1.316,1.316,0,0,0,1140.854,1602.906Z" transform="translate(-1130.098 -1597.826)" fill="#bbbdbf"/>
            <path id="Path_68029" data-name="Path 68029" d="M1142.329,1601.321a1.317,1.317,0,1,0,1.317,1.317A1.317,1.317,0,0,0,1142.329,1601.321Z" transform="translate(-1126.853 -1601.321)" fill="#bbbdbf"/>
            <circle id="Ellipse_721" data-name="Ellipse 721" cx="1.317" cy="1.317" r="1.317" transform="translate(14.159 10.158)" fill="#bbbdbf"/>
            <path id="Path_68030" data-name="Path 68030" d="M1142.329,1602.906a1.317,1.317,0,1,0,1.317,1.317A1.317,1.317,0,0,0,1142.329,1602.906Z" transform="translate(-1126.853 -1597.826)" fill="#bbbdbf"/>
            <path id="Path_68031" data-name="Path 68031" d="M1143.8,1601.321a1.317,1.317,0,1,0,1.317,1.317A1.317,1.317,0,0,0,1143.8,1601.321Z" transform="translate(-1123.606 -1601.321)" fill="#bbbdbf"/>
            <path id="Path_68032" data-name="Path 68032" d="M1143.8,1604.491a1.317,1.317,0,1,0,1.317,1.317A1.317,1.317,0,0,0,1143.8,1604.491Z" transform="translate(-1123.606 -1594.332)" fill="#bbbdbf"/>
            <path id="Path_68033" data-name="Path 68033" d="M1143.8,1602.906a1.317,1.317,0,1,0,1.317,1.317A1.317,1.317,0,0,0,1143.8,1602.906Z" transform="translate(-1123.606 -1597.826)" fill="#bbbdbf"/>
            <path id="Path_68034" data-name="Path 68034" d="M1145.272,1601.321a1.317,1.317,0,1,0,1.317,1.317A1.316,1.316,0,0,0,1145.272,1601.321Z" transform="translate(-1120.358 -1601.321)" fill="#bbbdbf"/>
            <circle id="Ellipse_722" data-name="Ellipse 722" cx="1.317" cy="1.317" r="1.317" transform="translate(23.598 10.158)" fill="#bbbdbf"/>
            <path id="Path_68035" data-name="Path 68035" d="M1145.272,1602.906a1.317,1.317,0,1,0,1.317,1.317A1.317,1.317,0,0,0,1145.272,1602.906Z" transform="translate(-1120.358 -1597.826)" fill="#bbbdbf"/>
            <path id="Path_68036" data-name="Path 68036" d="M1146.747,1601.321a1.317,1.317,0,1,0,1.317,1.317A1.317,1.317,0,0,0,1146.747,1601.321Z" transform="translate(-1117.112 -1601.321)" fill="#bbbdbf"/>
            <circle id="Ellipse_723" data-name="Ellipse 723" cx="1.317" cy="1.317" r="1.317" transform="translate(28.318 10.158)" fill="#bbbdbf"/>
            <path id="Path_68037" data-name="Path 68037" d="M1146.747,1602.906a1.317,1.317,0,1,0,1.317,1.317A1.317,1.317,0,0,0,1146.747,1602.906Z" transform="translate(-1117.112 -1597.826)" fill="#bbbdbf"/>
            <path id="Path_68038" data-name="Path 68038" d="M1148.22,1601.321a1.317,1.317,0,1,0,1.317,1.317A1.317,1.317,0,0,0,1148.22,1601.321Z" transform="translate(-1113.865 -1601.321)" fill="#bbbdbf"/>
            <circle id="Ellipse_724" data-name="Ellipse 724" cx="1.317" cy="1.317" r="1.317" transform="translate(33.038 10.158)" fill="#bbbdbf"/>
            <path id="Path_68039" data-name="Path 68039" d="M1148.22,1602.906a1.317,1.317,0,1,0,1.317,1.317A1.318,1.318,0,0,0,1148.22,1602.906Z" transform="translate(-1113.865 -1597.826)" fill="#bbbdbf"/>
            <path id="Path_68040" data-name="Path 68040" d="M1149.693,1601.321a1.317,1.317,0,1,0,1.314,1.317A1.317,1.317,0,0,0,1149.693,1601.321Z" transform="translate(-1110.617 -1601.321)" fill="#bbbdbf"/>
            <circle id="Ellipse_725" data-name="Ellipse 725" cx="1.317" cy="1.317" r="1.317" transform="translate(37.757 10.158)" fill="#bbbdbf"/>
            <path id="Path_68041" data-name="Path 68041" d="M1149.693,1602.906a1.317,1.317,0,1,0,1.314,1.317A1.318,1.318,0,0,0,1149.693,1602.906Z" transform="translate(-1110.617 -1597.826)" fill="#bbbdbf"/>
            <path id="Path_68042" data-name="Path 68042" d="M1151.165,1601.321a1.317,1.317,0,1,0,1.317,1.317A1.317,1.317,0,0,0,1151.165,1601.321Z" transform="translate(-1107.372 -1601.321)" fill="#bbbdbf"/>
            <path id="Path_68043" data-name="Path 68043" d="M1151.165,1604.491a1.317,1.317,0,1,0,1.317,1.317A1.317,1.317,0,0,0,1151.165,1604.491Z" transform="translate(-1107.372 -1594.332)" fill="#bbbdbf"/>
            <path id="Path_68044" data-name="Path 68044" d="M1151.165,1602.906a1.317,1.317,0,1,0,1.317,1.317A1.317,1.317,0,0,0,1151.165,1602.906Z" transform="translate(-1107.372 -1597.826)" fill="#bbbdbf"/>
            <path id="Path_68045" data-name="Path 68045" d="M1152.638,1601.321a1.317,1.317,0,1,0,1.317,1.317A1.317,1.317,0,0,0,1152.638,1601.321Z" transform="translate(-1104.124 -1601.321)" fill="#bbbdbf"/>
            <circle id="Ellipse_726" data-name="Ellipse 726" cx="1.317" cy="1.317" r="1.317" transform="translate(47.196 10.158)" fill="#bbbdbf"/>
            <path id="Path_68046" data-name="Path 68046" d="M1152.638,1602.906a1.317,1.317,0,1,0,1.317,1.317A1.317,1.317,0,0,0,1152.638,1602.906Z" transform="translate(-1104.124 -1597.826)" fill="#bbbdbf"/>
            <path id="Path_68047" data-name="Path 68047" d="M1154.111,1601.321a1.317,1.317,0,1,0,1.314,1.317A1.317,1.317,0,0,0,1154.111,1601.321Z" transform="translate(-1100.877 -1601.321)" fill="#bbbdbf"/>
            <path id="Path_68048" data-name="Path 68048" d="M1154.111,1604.491a1.317,1.317,0,1,0,1.314,1.317A1.317,1.317,0,0,0,1154.111,1604.491Z" transform="translate(-1100.877 -1594.332)" fill="#bbbdbf"/>
            <path id="Path_68049" data-name="Path 68049" d="M1154.111,1602.906a1.317,1.317,0,1,0,1.314,1.317A1.317,1.317,0,0,0,1154.111,1602.906Z" transform="translate(-1100.877 -1597.826)" fill="#bbbdbf"/>
            <path id="Path_68050" data-name="Path 68050" d="M1155.583,1601.321a1.317,1.317,0,1,0,1.317,1.317A1.317,1.317,0,0,0,1155.583,1601.321Z" transform="translate(-1097.631 -1601.321)" fill="#bbbdbf"/>
            <circle id="Ellipse_727" data-name="Ellipse 727" cx="1.317" cy="1.317" r="1.317" transform="translate(56.636 10.158)" fill="#bbbdbf"/>
            <path id="Path_68051" data-name="Path 68051" d="M1155.583,1602.906a1.317,1.317,0,1,0,1.317,1.317A1.317,1.317,0,0,0,1155.583,1602.906Z" transform="translate(-1097.631 -1597.826)" fill="#bbbdbf"/>
            <path id="Path_68052" data-name="Path 68052" d="M1157.056,1601.321a1.317,1.317,0,1,0,1.317,1.317A1.317,1.317,0,0,0,1157.056,1601.321Z" transform="translate(-1094.384 -1601.321)" fill="#bbbdbf"/>
            <path id="Path_68053" data-name="Path 68053" d="M1157.056,1604.491a1.317,1.317,0,1,0,1.317,1.317A1.317,1.317,0,0,0,1157.056,1604.491Z" transform="translate(-1094.384 -1594.332)" fill="#bbbdbf"/>
            <path id="Path_68054" data-name="Path 68054" d="M1157.056,1602.906a1.317,1.317,0,1,0,1.317,1.317A1.317,1.317,0,0,0,1157.056,1602.906Z" transform="translate(-1094.384 -1597.826)" fill="#bbbdbf"/>
            <path id="Path_68055" data-name="Path 68055" d="M1158.529,1601.321a1.317,1.317,0,1,0,1.314,1.317A1.317,1.317,0,0,0,1158.529,1601.321Z" transform="translate(-1091.136 -1601.321)" fill="#bbbdbf"/>
            <circle id="Ellipse_728" data-name="Ellipse 728" cx="1.317" cy="1.317" r="1.317" transform="translate(66.075 10.158)" fill="#bbbdbf"/>
            <path id="Path_68056" data-name="Path 68056" d="M1158.529,1602.906a1.317,1.317,0,1,0,1.314,1.317A1.317,1.317,0,0,0,1158.529,1602.906Z" transform="translate(-1091.136 -1597.826)" fill="#bbbdbf"/>
            <path id="Path_68057" data-name="Path 68057" d="M1160,1603.955a1.317,1.317,0,1,0-1.317-1.317A1.317,1.317,0,0,0,1160,1603.955Z" transform="translate(-1087.891 -1601.321)" fill="#bbbdbf"/>
            <circle id="Ellipse_729" data-name="Ellipse 729" cx="1.317" cy="1.317" r="1.317" transform="translate(70.794 10.158)" fill="#bbbdbf"/>
            <path id="Path_68058" data-name="Path 68058" d="M1160,1602.906a1.317,1.317,0,1,0,1.317,1.317A1.318,1.318,0,0,0,1160,1602.906Z" transform="translate(-1087.891 -1597.826)" fill="#bbbdbf"/>
          </g>
        </g>
      </g>
      <text id="_1_2_3_4_5_6_7_8_9_0_Enter_" data-name="1    2    3
4    5    6
7    8    9
0     Enter  " transform="translate(57.741 87.438)" fill="#929497" font-size="18" font-family="Roboto-Bold, Roboto" font-weight="700"><tspan x="-33.42" y="0" xml:space="preserve">1    2    3</tspan><tspan x="-33.42" y="21" xml:space="preserve">4    5    6</tspan><tspan x="-33.42" y="42" xml:space="preserve">7    8    9</tspan><tspan x="-32.12" y="63" xml:space="preserve">0     </tspan><tspan y="63" xml:space="preserve" font-size="11">Enter  </tspan></text>
      <g id="Group_23654" data-name="Group 23654" transform="translate(45.142 27.604)">
        <path id="Path_68059" data-name="Path 68059" d="M1129.717,1556.445a6,6,0,0,1,8.483,0" transform="translate(-1119.112 -1539.692)" fill="none" stroke="#6d6e70" stroke-linecap="round" stroke-linejoin="round" stroke-width="1.123"/>
        <path id="Path_68060" data-name="Path 68060" d="M1128.031,1556.3a13.639,13.639,0,0,1,19.29,0" transform="translate(-1122.829 -1544.948)" fill="none" stroke="#6d6e70" stroke-linecap="round" stroke-linejoin="round" stroke-width="1.123"/>
        <path id="Path_68061" data-name="Path 68061" d="M1126.408,1556.157a21,21,0,0,1,29.692,0" transform="translate(-1126.408 -1550.008)" fill="none" stroke="#6d6e70" stroke-linecap="round" stroke-linejoin="round" stroke-width="1.123"/>
      </g>
    </g>
  </g>
</svg>
