<svg xmlns="http://www.w3.org/2000/svg" width="153.55" height="153.631" viewBox="0 0 153.55 153.631">
  <g id="Group_3291" data-name="Group 3291" transform="translate(-5369.109 30.502)">
    <path id="Path_17146" data-name="Path 17146" d="M5870.488,362.2a108.214,108.214,0,0,1-4.935-15.364,58.52,58.52,0,0,1-1.729-15.792c.229-5.537,1.4-10.84,4.628-15.438a51.127,51.127,0,0,1,5.343-6.22c7.564-7.74,15.225-15.385,22.792-23.123a7.52,7.52,0,0,1,10.006-.644,5.456,5.456,0,0,1,1.567,6.007,20.464,20.464,0,0,1-3.812,5.707q-6.981,7.026-14,14.013a2.025,2.025,0,0,0-.2,2.912,1.964,1.964,0,0,0,2.965-.169c6.374-6.451,12.794-12.858,19.095-19.381a29.163,29.163,0,0,0,5.864-9.531,78.876,78.876,0,0,0,4.789-16.348,5.737,5.737,0,0,1,2.351-3.8c1.721-1.281,3.534-2.181,5.782-1.695a6.357,6.357,0,0,1,4.805,5.339,8.875,8.875,0,0,1-.143,3.554c-2.12,7.813-4.332,15.6-6.535,23.393a6.625,6.625,0,0,1-.752,1.711,58.2,58.2,0,0,1-8.123,10.3q-9.2,9.167-18.374,18.357a18.13,18.13,0,0,0-5.491,13.7,1.327,1.327,0,0,1-.511,1.19q-12.522,10.519-25.022,21.065C5870.768,362.015,5870.675,362.071,5870.488,362.2Z" transform="translate(-413.254 -245.362)" fill="#14475f"/>
    <path id="Path_17147" data-name="Path 17147" d="M5434.583,362.564c-4.274-3.612-8.454-7.153-12.643-10.684q-6.317-5.323-12.655-10.62a1.416,1.416,0,0,1-.558-1.246,18.6,18.6,0,0,0-5.567-13.772c-6.632-6.622-13.3-13.208-19.873-19.886a44.374,44.374,0,0,1-6.937-9.346,9.389,9.389,0,0,1-.677-2.1q-3.166-11.258-6.316-22.519c-.95-3.41.939-7.484,4.015-8.488a6.027,6.027,0,0,1,2.806-.192,7.249,7.249,0,0,1,5.837,5.9,80.155,80.155,0,0,0,5.918,18.734,25.792,25.792,0,0,0,5.409,7.587q9.346,9.255,18.663,18.54a1.955,1.955,0,0,0,2.784.3,1.8,1.8,0,0,0,.147-2.9q-5.517-5.528-11.043-11.046-1.656-1.657-3.313-3.314a16.579,16.579,0,0,1-3.583-5.459,5.309,5.309,0,0,1,3.089-6.994,7.5,7.5,0,0,1,5.67-.28,6.24,6.24,0,0,1,2.151,1.306c8.825,8.923,17.657,17.839,26.392,26.849,4.121,4.25,6.037,9.574,6.732,15.372.89,7.417-.231,14.654-2.229,21.759-1.139,4.048-2.64,7.994-3.981,11.984C5434.769,362.194,5434.688,362.334,5434.583,362.564Z" transform="translate(0 -245.716)" fill="#14475f"/>
    <path id="Path_17148" data-name="Path 17148" d="M5938.017,708.308l2.805,3.208-22.537,22.535-4.757-4.79Z" transform="translate(-454.809 -611.204)" fill="#14475f"/>
    <path id="Path_17149" data-name="Path 17149" d="M5617.72,767.671l-4.768,4.763L5590.3,749.78l3.1-3.045Z" transform="translate(-184.786 -649.306)" fill="#14475f"/>
    <path id="Path_17150" data-name="Path 17150" d="M5634.764-14.264a1.9,1.9,0,0,1,1.291-2.031c10.565-4.655,21.1-9.368,31.679-14a3.228,3.228,0,0,1,2.326.018c10.371,4.55,20.707,9.178,31.065,13.756a2.7,2.7,0,0,1,1.83,2.812c-.056,7.5.058,15.012-.062,22.515-.31,19.39-14.36,38.091-32.456,43.247a5.8,5.8,0,0,1-3.21-.02c-17.03-5.6-27.136-17.666-31.168-34.734C5634.61,11.166,5634.805-10.094,5634.764-14.264Zm28.946,44.228c.323-.285.54-.457.734-.652q12.15-12.147,24.3-24.3a8.556,8.556,0,0,0,.678-.735,4.282,4.282,0,0,0-.288-5.761,4.168,4.168,0,0,0-5.742-.192c-.469.389-.885.843-1.317,1.275-6.092,6.092-12.182,12.186-18.573,18.58a12.808,12.808,0,0,0-1.127-1.557c-2.576-2.613-5.147-5.233-7.789-7.779a4.212,4.212,0,0,0-6-.044,4.1,4.1,0,0,0-.167,5.861C5653.425,19.784,5658.539,24.808,5663.71,29.965Z" transform="translate(-221.929)" fill="#14475f"/>
  </g>
</svg>
