<svg id="Group_3384" data-name="Group 3384" xmlns="http://www.w3.org/2000/svg" xmlns:xlink="http://www.w3.org/1999/xlink" width="638.776" height="683.202" viewBox="0 0 638.776 683.202">
  <defs>
    <linearGradient id="linear-gradient" x1="0.633" y1="1.003" x2="0.337" y2="0.006" gradientUnits="objectBoundingBox">
      <stop offset="0.11" stop-color="#fff"/>
      <stop offset="1" stop-color="#f2f2f2"/>
    </linearGradient>
    <radialGradient id="radial-gradient" cx="0.5" cy="1.939" r="0.875" gradientTransform="translate(0.211 241.788) scale(0.578 0.52)" gradientUnits="objectBoundingBox">
      <stop offset="0.09" stop-color="#3c5185"/>
      <stop offset="0.16" stop-color="#506291"/>
      <stop offset="0.38" stop-color="#8d9ab8"/>
      <stop offset="0.58" stop-color="#bec5d7"/>
      <stop offset="0.76" stop-color="#e2e5ed"/>
      <stop offset="0.91" stop-color="#f7f8fa"/>
      <stop offset="1" stop-color="#fff"/>
    </radialGradient>
    <linearGradient id="linear-gradient-2" y1="0.5" x2="1" y2="0.5" gradientUnits="objectBoundingBox">
      <stop offset="0" stop-color="#d3daed"/>
      <stop offset="1" stop-color="#a5cbef"/>
    </linearGradient>
    <linearGradient id="linear-gradient-3" y1="0.5" x2="1" y2="0.5" gradientUnits="objectBoundingBox">
      <stop offset="0" stop-color="#69bc46"/>
      <stop offset="1" stop-color="#016c38"/>
    </linearGradient>
    <linearGradient id="linear-gradient-4" x1="-0.002" y1="0.498" x2="1" y2="0.498" xlink:href="#linear-gradient-3"/>
    <radialGradient id="radial-gradient-2" cx="0.5" cy="502.327" r="0.875" gradientTransform="translate(0.211) scale(0.578 1)" xlink:href="#radial-gradient"/>
    <linearGradient id="linear-gradient-5" x1="-0.001" y1="0.5" x2="0.999" y2="0.5" xlink:href="#linear-gradient-2"/>
    <linearGradient id="linear-gradient-6" y1="0.501" x2="1" y2="0.501" gradientUnits="objectBoundingBox">
      <stop offset="0" stop-color="#7ea7df"/>
      <stop offset="1" stop-color="#a5cbef"/>
    </linearGradient>
    <linearGradient id="linear-gradient-7" x1="-0.005" y1="0.499" x2="0.999" y2="0.499" xlink:href="#linear-gradient-3"/>
    <radialGradient id="radial-gradient-3" cx="0.5" cy="502.387" r="0.874" gradientTransform="translate(0.211) scale(0.577 1)" xlink:href="#radial-gradient"/>
    <linearGradient id="linear-gradient-8" x1="0" y1="0.5" x2="1" y2="0.5" xlink:href="#linear-gradient-2"/>
    <linearGradient id="linear-gradient-9" x1="0.001" y1="0.499" x2="1" y2="0.499" xlink:href="#linear-gradient-3"/>
    <linearGradient id="linear-gradient-10" x1="0.007" y1="0.506" x2="1" y2="0.506" xlink:href="#linear-gradient-3"/>
    <linearGradient id="linear-gradient-11" x1="0" y1="0.5" x2="1" y2="0.5" xlink:href="#linear-gradient-3"/>
    <linearGradient id="linear-gradient-12" x1="0" y1="0.5" x2="1" y2="0.5" xlink:href="#linear-gradient-3"/>
    <linearGradient id="linear-gradient-13" x1="-2.298" y1="0.5" x2="-1.298" y2="0.5" xlink:href="#linear-gradient-3"/>
    <linearGradient id="linear-gradient-14" x1="-5.514" y1="0.5" x2="-4.514" y2="0.5" gradientUnits="objectBoundingBox">
      <stop offset="0" stop-color="#8c9687"/>
      <stop offset="1" stop-color="#016c38"/>
    </linearGradient>
    <linearGradient id="linear-gradient-15" x1="0" y1="0.5" x2="1" y2="0.5" xlink:href="#linear-gradient-3"/>
    <radialGradient id="radial-gradient-4" cx="0.5" cy="1.986" r="0.875" gradientTransform="translate(0.211 252.528) scale(0.578 0.52)" gradientUnits="objectBoundingBox">
      <stop offset="0.09" stop-color="#48486a"/>
      <stop offset="0.12" stop-color="#505070"/>
      <stop offset="0.35" stop-color="#8d8da3"/>
      <stop offset="0.56" stop-color="#bebeca"/>
      <stop offset="0.75" stop-color="#e2e2e7"/>
      <stop offset="0.9" stop-color="#f7f7f9"/>
      <stop offset="1" stop-color="#fff"/>
    </radialGradient>
    <linearGradient id="linear-gradient-20" y1="0.501" x2="1" y2="0.501" gradientUnits="objectBoundingBox">
      <stop offset="0" stop-color="#ffc107"/>
      <stop offset="0.92" stop-color="#ff9800"/>
    </linearGradient>
    <linearGradient id="linear-gradient-21" x1="0" y1="0.5" x2="1" y2="0.5" xlink:href="#linear-gradient-20"/>
    <linearGradient id="linear-gradient-22" y1="0.5" x2="1" y2="0.5" gradientUnits="objectBoundingBox">
      <stop offset="0" stop-color="#016c38"/>
      <stop offset="1" stop-color="#69bc46"/>
    </linearGradient>
    <linearGradient id="linear-gradient-23" y1="0.502" x2="1.001" y2="0.502" gradientUnits="objectBoundingBox">
      <stop offset="0.15" stop-color="#ff9800"/>
      <stop offset="1" stop-color="#ffc107"/>
    </linearGradient>
    <linearGradient id="linear-gradient-24" x1="-0.003" y1="0.5" x2="1.004" y2="0.5" gradientUnits="objectBoundingBox">
      <stop offset="0" stop-color="#ffc107"/>
      <stop offset="0.85" stop-color="#ff9800"/>
    </linearGradient>
    <linearGradient id="linear-gradient-25" x1="0" y1="0.5" x2="1.001" y2="0.5" xlink:href="#linear-gradient-23"/>
    <linearGradient id="linear-gradient-26" x1="0.002" y1="0.5" x2="1" y2="0.5" xlink:href="#linear-gradient-23"/>
    <linearGradient id="linear-gradient-27" x1="0.002" y1="0.5" x2="1" y2="0.5" gradientUnits="objectBoundingBox">
      <stop offset="0" stop-color="#ff9800"/>
      <stop offset="0.71" stop-color="#ffc107"/>
    </linearGradient>
    <linearGradient id="linear-gradient-28" x1="0.592" y1="1.588" x2="0.465" y2="0.087" xlink:href="#linear-gradient-23"/>
    <linearGradient id="linear-gradient-29" x1="0" y1="0.502" x2="0.998" y2="0.502" xlink:href="#linear-gradient-23"/>
    <linearGradient id="linear-gradient-30" x1="0" y1="0.495" x2="1" y2="0.495" xlink:href="#linear-gradient-23"/>
    <linearGradient id="linear-gradient-31" x1="55.05" y1="0.499" x2="56.04" y2="0.499" gradientUnits="objectBoundingBox">
      <stop offset="0" stop-color="#a8d9fb"/>
      <stop offset="1" stop-color="#fff"/>
    </linearGradient>
    <linearGradient id="linear-gradient-32" x1="19.095" y1="0.5" x2="20.093" y2="0.5" xlink:href="#linear-gradient-31"/>
    <linearGradient id="linear-gradient-33" x1="26.385" y1="0.499" x2="27.392" y2="0.499" xlink:href="#linear-gradient-23"/>
    <linearGradient id="linear-gradient-34" x1="-7.295" y1="0.5" x2="-6.298" y2="0.5" gradientUnits="objectBoundingBox">
      <stop offset="0" stop-color="#7ea7df"/>
      <stop offset="1" stop-color="#4a65a3"/>
    </linearGradient>
    <linearGradient id="linear-gradient-35" x1="-4.079" y1="0.5" x2="-3.079" y2="0.5" gradientUnits="objectBoundingBox">
      <stop offset="0" stop-color="#4a65a3"/>
      <stop offset="0.24" stop-color="#4d69a7"/>
      <stop offset="0.49" stop-color="#5776b3"/>
      <stop offset="0.75" stop-color="#688bc6"/>
      <stop offset="1" stop-color="#7ea7df"/>
    </linearGradient>
    <linearGradient id="linear-gradient-36" x1="-7.99" y1="0.5" x2="-7.002" y2="0.5" gradientUnits="objectBoundingBox">
      <stop offset="0" stop-color="#e3edf7"/>
      <stop offset="0.17" stop-color="#dde9f6"/>
      <stop offset="0.39" stop-color="#cddef2"/>
      <stop offset="0.64" stop-color="#b2cbeb"/>
      <stop offset="0.9" stop-color="#8db2e3"/>
      <stop offset="1" stop-color="#7ea7df"/>
    </linearGradient>
    <linearGradient id="linear-gradient-37" x1="-10.124" y1="0.497" x2="-9.125" y2="0.497" xlink:href="#linear-gradient-23"/>
    <radialGradient id="radial-gradient-5" cx="0.5" cy="0.961" r="0.657" gradientTransform="translate(0.116 117.619) scale(0.769 0.69)" gradientUnits="objectBoundingBox">
      <stop offset="0" stop-color="#3c5185"/>
      <stop offset="0.18" stop-color="#6f7ea5"/>
      <stop offset="0.38" stop-color="#a2acc5"/>
      <stop offset="0.57" stop-color="#cad0de"/>
      <stop offset="0.74" stop-color="#e7eaf0"/>
      <stop offset="0.89" stop-color="#f9f9fb"/>
      <stop offset="1" stop-color="#fff"/>
    </radialGradient>
    <linearGradient id="linear-gradient-38" x1="0.003" y1="0.5" x2="0.997" y2="0.5" gradientUnits="objectBoundingBox">
      <stop offset="0" stop-color="#69bc46"/>
      <stop offset="1"/>
    </linearGradient>
    <linearGradient id="linear-gradient-39" x1="0.003" y1="0.499" x2="1" y2="0.499" xlink:href="#linear-gradient-38"/>
    <linearGradient id="linear-gradient-40" x1="-0.001" y1="0.5" x2="1" y2="0.5" xlink:href="#linear-gradient-3"/>
    <linearGradient id="linear-gradient-41" x1="0.001" y1="0.497" x2="1.007" y2="0.497" xlink:href="#linear-gradient-23"/>
    <linearGradient id="linear-gradient-42" x1="0.005" y1="0.498" x2="1.003" y2="0.498" xlink:href="#linear-gradient-23"/>
    <linearGradient id="linear-gradient-43" x1="0" y1="0.499" x2="0.995" y2="0.499" xlink:href="#linear-gradient-23"/>
    <linearGradient id="linear-gradient-44" x1="-0.001" y1="0.501" x2="0.997" y2="0.501" xlink:href="#linear-gradient-23"/>
    <linearGradient id="linear-gradient-45" x1="-0.004" y1="0.504" x2="0.996" y2="0.504" xlink:href="#linear-gradient-23"/>
  </defs>
  <path id="Path_13296" data-name="Path 13296" d="M638.776,356.615c0,163.1-161.068,278.054-324.211,278.054S0,519.72,0,356.615,97.655,17.07,260.76,17.07,638.776,193.587,638.776,356.615Z" transform="translate(0 48.532)" fill="url(#linear-gradient)"/>
  <path id="Path_13297" data-name="Path 13297" d="M206.235,73.3c-21.483-12.413-56.61-12.413-78.055,0s-21.483,32.667,0,45.042,56.572,12.413,78.055,0S227.718,85.673,206.235,73.3Z" transform="translate(318.668 181.926)" fill="#fff" opacity="0"/>
  <path id="Path_13298" data-name="Path 13298" d="M205.023,73.26c-21.138-12.183-55.688-12.183-76.864,0s-21.138,32.167,0,44.35,55.688,12.221,76.864,0S226.16,85.443,205.023,73.26Z" transform="translate(319.265 182.311)" fill="#fbfbfd" opacity="0.02"/>
  <path id="Path_13299" data-name="Path 13299" d="M203.722,73.243c-20.792-11.991-54.8-11.991-75.6,0s-20.792,31.668,0,43.659,54.8,11.991,75.6,0S224.513,85.272,203.722,73.243Z" transform="translate(319.951 182.673)" fill="#f7f8fb" opacity="0.04"/>
  <ellipse id="Ellipse_30" data-name="Ellipse 30" cx="52.575" cy="30.361" rx="52.575" ry="30.361" transform="translate(433.281 247.384)" fill="#f2f4fa" opacity="0.06"/>
  <path id="Path_13300" data-name="Path 13300" d="M201.081,73.177c-20.1-11.53-53.036-11.53-73.021,0s-20.1,30.745,0,42.275,53.036,11.53,73.021,0S221.181,84.784,201.081,73.177Z" transform="translate(321.362 183.469)" fill="#eef0f8" opacity="0.08"/>
  <ellipse id="Ellipse_31" data-name="Ellipse 31" cx="50.807" cy="29.362" rx="50.807" ry="29.362" transform="translate(435.049 248.383)" fill="#eaecf6" opacity="0.1"/>
  <path id="Path_13301" data-name="Path 13301" d="M198.594,73.205c-19.408-11.184-51.191-11.184-70.638,0s-19.216,29.593,0,40.815,51.23,11.222,70.638,0S218.04,84.274,198.594,73.205Z" transform="translate(322.581 184.287)" fill="#e6e9f4" opacity="0.12"/>
  <path id="Path_13302" data-name="Path 13302" d="M197.194,73.18c-19.216-11.03-50.307-11.03-69.177,0s-19.216,29.054,0,40.046,50.307,11.03,69.177,0S216.294,84.172,197.194,73.18Z" transform="translate(323.366 184.542)" fill="#e1e5f2" opacity="0.14"/>
  <ellipse id="Ellipse_32" data-name="Ellipse 32" cx="48.194" cy="27.825" rx="48.194" ry="27.825" transform="translate(437.662 249.921)" fill="#dde1f0" opacity="0.16"/>
  <path id="Path_13303" data-name="Path 13303" d="M194.844,73.125c-18.409-10.607-48.5-10.607-66.91,0s-18.409,28.017,0,38.662,48.5,10.607,66.91,0S213.253,83.733,194.844,73.125Z" transform="translate(324.485 185.289)" fill="#d9deef" opacity="0.18"/>
  <path id="Path_13304" data-name="Path 13304" d="M193.612,73.14c-18.063-10.453-47.617-10.453-65.68,0s-18.063,27.479,0,37.894,47.617,10.453,65.68,0S211.56,83.555,193.612,73.14Z" transform="translate(325.218 185.658)" fill="#d5daed" opacity="0.2"/>
  <path id="Path_13305" data-name="Path 13305" d="M192.321,73.1c-17.717-10.223-46.733-10.223-64.45,0s-17.717,26.9,0,37.2,46.733,10.223,64.45,0S210.038,83.325,192.321,73.1Z" transform="translate(325.779 186.042)" fill="#d1d6eb" opacity="0.22"/>
  <path id="Path_13306" data-name="Path 13306" d="M191.059,73.086c-17.371-10.031-45.849-10.031-63.22,0s-17.371,26.48,0,36.51,45.849,10.031,63.22,0S208.43,83.116,191.059,73.086Z" transform="translate(326.426 186.405)" fill="#ccd3e9" opacity="0.24"/>
  <path id="Path_13307" data-name="Path 13307" d="M189.808,73.079c-17.064-9.839-44.927-9.839-61.991,0s-17.025,25.942,0,35.78,44.927,9.839,61.991,0S206.833,82.917,189.808,73.079Z" transform="translate(327.062 186.796)" fill="#c8cfe7" opacity="0.25"/>
  <path id="Path_13308" data-name="Path 13308" d="M188.546,73.062c-16.718-9.646-44.043-9.646-60.761,0s-16.679,25.4,0,35.05,44.043,9.646,60.761,0S205.225,82.709,188.546,73.062Z" transform="translate(327.709 187.158)" fill="#c4cbe5" opacity="0.27"/>
  <path id="Path_13309" data-name="Path 13309" d="M187.274,73.045a66.026,66.026,0,0,0-59.531,0c-16.334,9.454-16.334,24.9,0,34.358a66.026,66.026,0,0,0,59.531,0C203.607,97.949,203.607,82.5,187.274,73.045Z" transform="translate(328.367 187.521)" fill="#c0c7e4" opacity="0.29"/>
  <path id="Path_13310" data-name="Path 13310" d="M185.973,73.008a64.8,64.8,0,0,0-58.263,0c-15.988,9.262-15.988,24.4,0,33.666a64.8,64.8,0,0,0,58.263,0C202,97.412,202,82.27,185.973,73.008Z" transform="translate(329.014 187.904)" fill="#bcc4e2" opacity="0.31"/>
  <ellipse id="Ellipse_33" data-name="Ellipse 33" cx="40.315" cy="23.29" rx="40.315" ry="23.29" transform="translate(445.54 254.456)" fill="#b7c0e0" opacity="0.33"/>
  <path id="Path_13311" data-name="Path 13311" d="M183.464,72.984a61.952,61.952,0,0,0-55.765,0c-15.373,8.878-15.373,23.367,0,32.206a61.722,61.722,0,0,0,55.765,0C198.8,96.351,198.8,81.862,183.464,72.984Z" transform="translate(330.293 188.659)" fill="#b3bcde" opacity="0.35"/>
  <path id="Path_13312" data-name="Path 13312" d="M182.2,72.968a60.569,60.569,0,0,0-54.535,0c-15.027,8.686-15.027,22.829,0,31.514a60.569,60.569,0,0,0,54.535,0C197.191,95.8,197.191,81.653,182.2,72.968Z" transform="translate(330.94 189.021)" fill="#afb9dc" opacity="0.37"/>
  <ellipse id="Ellipse_34" data-name="Ellipse 34" cx="37.702" cy="21.752" rx="37.702" ry="21.752" transform="translate(448.154 255.993)" fill="#abb5db" opacity="0.39"/>
  <path id="Path_13313" data-name="Path 13313" d="M179.679,72.958a57.648,57.648,0,0,0-52.075,0c-14.335,8.263-14.335,21.791,0,30.054a57.648,57.648,0,0,0,52.075,0C194.014,94.634,194.014,81.221,179.679,72.958Z" transform="translate(332.233 189.761)" fill="#a6b1d9" opacity="0.41"/>
  <path id="Path_13314" data-name="Path 13314" d="M178.377,72.928a56.418,56.418,0,0,0-50.845,0c-13.989,8.071-13.989,21.291,0,29.362a56.418,56.418,0,0,0,50.845,0C192.52,94.257,192.52,81,178.377,72.928Z" transform="translate(332.766 190.137)" fill="#a2add7" opacity="0.43"/>
  <ellipse id="Ellipse_35" data-name="Ellipse 35" cx="35.088" cy="20.254" rx="35.088" ry="20.254" transform="translate(450.767 257.492)" fill="#9eaad5" opacity="0.45"/>
  <path id="Path_13315" data-name="Path 13315" d="M175.894,72.891a53.8,53.8,0,0,0-48.386,0c-13.3,7.686-13.3,20.254,0,27.9a53.8,53.8,0,0,0,48.386,0C189.191,93.144,189.191,80.577,175.894,72.891Z" transform="translate(334.174 190.904)" fill="#9aa6d3" opacity="0.47"/>
  <path id="Path_13316" data-name="Path 13316" d="M174.632,72.888a52.267,52.267,0,0,0-47.156,0c-12.951,7.686-12.951,19.716,0,27.21a52.267,52.267,0,0,0,47.156,0C187.584,92.6,187.584,80.382,174.632,72.888Z" transform="translate(334.821 191.253)" fill="#96a2d1" opacity="0.49"/>
  <path id="Path_13317" data-name="Path 13317" d="M173.332,72.85a51.038,51.038,0,0,0-45.888,0c-12.606,7.3-12.606,19.216,0,26.518a51.038,51.038,0,0,0,45.888,0C185.976,92.066,185.976,80.152,173.332,72.85Z" transform="translate(335.468 191.636)" fill="#919fd0" opacity="0.51"/>
  <path id="Path_13318" data-name="Path 13318" d="M172.063,72.864a49.346,49.346,0,0,0-44.619,0c-12.3,7.071-12.3,18.678,0,25.749a49.346,49.346,0,0,0,44.619,0C184.361,91.542,184.361,79.935,172.063,72.864Z" transform="translate(336.121 192.007)" fill="#8d9bce" opacity="0.53"/>
  <path id="Path_13319" data-name="Path 13319" d="M170.8,72.817a48.194,48.194,0,0,0-43.39,0c-11.952,6.879-11.952,18.178,0,25.058a47.963,47.963,0,0,0,43.39,0C182.754,91.033,182.754,79.735,170.8,72.817Z" transform="translate(336.768 192.361)" fill="#8997cc" opacity="0.55"/>
  <path id="Path_13320" data-name="Path 13320" d="M169.582,72.832a46.81,46.81,0,0,0-42.275,0c-11.53,6.726-11.53,17.679,0,24.366a46.81,46.81,0,0,0,42.275,0C181.189,90.51,181.189,79.557,169.582,72.832Z" transform="translate(337.372 192.731)" fill="#8594ca" opacity="0.57"/>
  <path id="Path_13321" data-name="Path 13321" d="M168.278,72.824a45.2,45.2,0,0,0-40.93,0c-11.261,6.495-11.261,17.1,0,23.636a45.426,45.426,0,0,0,40.93,0C179.538,89.926,179.538,79.319,168.278,72.824Z" transform="translate(338.062 193.123)" fill="#8190c8" opacity="0.59"/>
  <path id="Path_13322" data-name="Path 13322" d="M167.016,72.787a44.043,44.043,0,0,0-39.7,0c-10.915,6.3-10.915,16.6,0,23.059a44.043,44.043,0,0,0,39.7,0C177.931,89.389,177.931,79.09,167.016,72.787Z" transform="translate(338.709 193.506)" fill="#7c8cc6" opacity="0.61"/>
  <path id="Path_13323" data-name="Path 13323" d="M165.726,72.763a42.659,42.659,0,0,0-38.432,0c-10.569,6.111-10.569,16.1,0,22.214a42.659,42.659,0,0,0,38.432,0C176.295,88.866,176.295,78.989,165.726,72.763Z" transform="translate(339.384 193.875)" fill="#7888c5" opacity="0.63"/>
  <path id="Path_13324" data-name="Path 13324" d="M164.493,72.733a41.506,41.506,0,0,0-37.24,0c-10.223,5.919-10.223,15.6,0,21.522a41.506,41.506,0,0,0,37.24,0C174.715,88.337,174.715,78.613,164.493,72.733Z" transform="translate(340.002 194.251)" fill="#7485c3" opacity="0.65"/>
  <path id="Path_13325" data-name="Path 13325" d="M163.231,72.747a39.892,39.892,0,0,0-36.011,0c-9.877,5.688-9.877,15.065,0,20.753a39.892,39.892,0,0,0,36.011,0C173.108,87.812,173.108,78.435,163.231,72.747Z" transform="translate(340.649 194.622)" fill="#7081c1" opacity="0.67"/>
  <path id="Path_13326" data-name="Path 13326" d="M161.877,72.674a38.739,38.739,0,0,0-34.589,0c-9.531,5.534-9.531,14.566,0,20.061a38.432,38.432,0,0,0,34.589,0C171.216,87.24,171.216,78.209,161.877,72.674Z" transform="translate(341.58 195.04)" fill="#6b7dbf" opacity="0.69"/>
  <path id="Path_13327" data-name="Path 13327" d="M160.669,72.693a37.279,37.279,0,0,0-33.513,0c-9.185,5.342-9.185,14.028,0,19.216a37.279,37.279,0,0,0,33.513,0C169.893,86.721,169.893,78.035,160.669,72.693Z" transform="translate(341.943 195.368)" fill="#677abd" opacity="0.71"/>
  <path id="Path_13328" data-name="Path 13328" d="M159.4,72.707a35.588,35.588,0,0,0-32.244,0c-8.878,5.111-8.878,13.49,0,18.6a35.588,35.588,0,0,0,32.244,0C168.278,86.2,168.278,77.818,159.4,72.707Z" transform="translate(342.597 195.738)" fill="#6376bc" opacity="0.73"/>
  <ellipse id="Ellipse_36" data-name="Ellipse 36" cx="21.945" cy="12.683" rx="21.945" ry="12.683" transform="translate(463.911 265.063)" fill="#5f72ba" opacity="0.75"/>
  <path id="Path_13329" data-name="Path 13329" d="M156.877,72.623a33.051,33.051,0,0,0-29.785,0c-8.186,4.727-8.186,12.49,0,17.218a33.051,33.051,0,0,0,29.785,0C165.063,85.228,165.063,77.465,156.877,72.623Z" transform="translate(343.89 196.399)" fill="#5b6eb8" opacity="0.76"/>
  <ellipse id="Ellipse_37" data-name="Ellipse 37" cx="20.177" cy="11.645" rx="20.177" ry="11.645" transform="translate(465.679 266.1)" fill="#566bb6" opacity="0.78"/>
  <path id="Path_13330" data-name="Path 13330" d="M154.48,72.63a30.284,30.284,0,0,0-27.325,0c-7.686,4.343-7.686,11.53,0,15.757a30.284,30.284,0,0,0,27.325,0C161.9,84.044,161.9,76.972,154.48,72.63Z" transform="translate(345.134 197.237)" fill="#5267b4" opacity="0.8"/>
  <path id="Path_13331" data-name="Path 13331" d="M153.113,72.613a28.9,28.9,0,0,0-26.1,0c-7.187,4.151-7.187,10.915,0,15.065a28.9,28.9,0,0,0,26.1,0C160.261,83.528,160.261,76.764,153.113,72.613Z" transform="translate(345.81 197.6)" fill="#4e63b2" opacity="0.82"/>
  <ellipse id="Ellipse_38" data-name="Ellipse 38" cx="17.563" cy="10.146" rx="17.563" ry="10.146" transform="translate(468.292 267.599)" fill="#4a60b1" opacity="0.84"/>
  <path id="Path_13332" data-name="Path 13332" d="M150.589,72.59a26.134,26.134,0,0,0-23.636,0c-6.495,3.843-6.495,9.877,0,13.6a26.134,26.134,0,0,0,23.636,0C157.084,82.467,157.084,76.318,150.589,72.59Z" transform="translate(347.103 198.353)" fill="#465caf" opacity="0.86"/>
  <path id="Path_13333" data-name="Path 13333" d="M149.328,72.553a24.981,24.981,0,0,0-22.406,0c-6.149,3.536-6.149,9.377,0,12.913a24.75,24.75,0,0,0,22.406,0C155.477,81.815,155.477,76.088,149.328,72.553Z" transform="translate(347.75 198.736)" fill="#4158ad" opacity="0.88"/>
  <path id="Path_13334" data-name="Path 13334" d="M148.027,72.536a23.52,23.52,0,0,0-21.138,0c-5.8,3.382-5.8,8.878,0,12.221a23.52,23.52,0,0,0,21.138,0C153.869,81.452,153.869,75.918,148.027,72.536Z" transform="translate(348.397 199.099)" fill="#3d55ab" opacity="0.9"/>
  <path id="Path_13335" data-name="Path 13335" d="M146.749,72.549a21.829,21.829,0,0,0-19.869,0c-5.5,3.151-5.5,8.3,0,11.53a22.06,22.06,0,0,0,19.869,0C152.283,80.851,152.283,75.7,146.749,72.549Z" transform="translate(349.023 199.47)" fill="#3951a9" opacity="0.92"/>
  <path id="Path_13336" data-name="Path 13336" d="M145.5,72.512a20.676,20.676,0,0,0-18.639,0c-5.15,2.959-5.15,7.686,0,10.761a20.676,20.676,0,0,0,18.639,0C150.647,80.314,150.647,75.471,145.5,72.512Z" transform="translate(349.698 199.853)" fill="#354da7" opacity="0.94"/>
  <path id="Path_13337" data-name="Path 13337" d="M144.26,72.542a19.216,19.216,0,0,0-17.41,0,5.3,5.3,0,0,0,0,10.069,19.216,19.216,0,0,0,17.41,0,5.3,5.3,0,0,0,0-10.069Z" transform="translate(350.32 200.322)" fill="#3049a6" opacity="0.96"/>
  <path id="Path_13338" data-name="Path 13338" d="M142.994,72.489a17.909,17.909,0,0,0-16.18,0,4.919,4.919,0,0,0,0,9.339,17.909,17.909,0,0,0,16.18,0,4.919,4.919,0,0,0,0-9.339Z" transform="translate(350.97 200.607)" fill="#2c46a4" opacity="0.98"/>
  <path id="Path_13339" data-name="Path 13339" d="M141.729,72.472a16.526,16.526,0,0,0-14.95,0,4.535,4.535,0,0,0,0,8.609,16.526,16.526,0,0,0,14.95,0,4.535,4.535,0,0,0,0-8.609Z" transform="translate(351.621 200.969)" fill="#2842a2"/>
  <path id="Path_13340" data-name="Path 13340" d="M187.5,77.772h-3.574a24.864,24.864,0,0,0-6.5-5.265,54.227,54.227,0,0,0-48.885,0,24.442,24.442,0,0,0-6.533,5.265h-3.5v7.686h0c-.653,5.573,2.652,11.261,9.992,15.373a54.227,54.227,0,0,0,48.885,0c7.3-4.189,10.607-9.877,9.954-15.373h0Z" transform="translate(336.716 189.597)" fill="#ffc107"/>
  <path id="Path_13341" data-name="Path 13341" d="M125.41,67.4a30.056,30.056,0,0,0-3.42,1.307v31.745c1.076.461,2.229.884,3.42,1.307Z" transform="translate(346.84 191.629)" fill="#ffad33"/>
  <path id="Path_13342" data-name="Path 13342" d="M120.21,70.447V94.391a26.9,26.9,0,0,0,3.267,2.191h0V68.18h0A26.906,26.906,0,0,0,120.21,70.447Z" transform="translate(341.779 193.847)" fill="#ffad33"/>
  <path id="Path_13343" data-name="Path 13343" d="M127.18,66.94a15.089,15.089,0,0,0-3.42.73V104.1l3.42.769Z" transform="translate(351.873 190.321)" fill="#ffad33"/>
  <path id="Path_13344" data-name="Path 13344" d="M134.41,68.61v25.1a26.521,26.521,0,0,0,3.42-3V71.492a26.523,26.523,0,0,0-3.421-2.882Z" transform="translate(382.153 195.069)" fill="#ffad33"/>
  <path id="Path_13345" data-name="Path 13345" d="M136.265,82.809a11.53,11.53,0,0,0,.73-5.573h0V69.55h-.846Z" transform="translate(387.1 197.742)" fill="#ffad33"/>
  <path id="Path_13346" data-name="Path 13346" d="M134.28,68c-1.114-.346-2.267-.653-3.42-.922v36.856l3.42-.961Z" transform="translate(372.059 190.719)" fill="#ffad33"/>
  <path id="Path_13347" data-name="Path 13347" d="M121.857,87.095V69.57h-3.382v7.686h0A13.259,13.259,0,0,0,121.857,87.095Z" transform="translate(336.75 197.799)" fill="#ffad33"/>
  <path id="Path_13348" data-name="Path 13348" d="M136.05,69.264a31.092,31.092,0,0,0-3.42-1.614v32.436a30.749,30.749,0,0,0,3.42-1.576Z" transform="translate(377.092 192.34)" fill="#ffad33"/>
  <path id="Path_13349" data-name="Path 13349" d="M128.922,66.72l-3.382.307V106a33.518,33.518,0,0,0,3.382.307Z" transform="translate(356.933 189.696)" fill="#ffad33"/>
  <path id="Path_13350" data-name="Path 13350" d="M130.73,106.288V66.742a33.85,33.85,0,0,0-3.42,0v39.777Z" transform="translate(361.966 189.636)" fill="#ffad33"/>
  <path id="Path_13351" data-name="Path 13351" d="M132.5,67.27l-3.382-.5v39.316a20.432,20.432,0,0,0,3.382-.461Z" transform="translate(367.112 189.838)" fill="#ffad33"/>
  <ellipse id="Ellipse_39" data-name="Ellipse 39" cx="34.589" cy="19.946" rx="34.589" ry="19.946" transform="translate(455.11 246.385)" fill="#ffcd39"/>
  <path id="Path_13352" data-name="Path 13352" d="M172.411,69.71a48.77,48.77,0,0,0-44,0c-12.106,6.956-12.106,18.409,0,25.4a48.77,48.77,0,0,0,44,0C184.518,88.119,184.518,76.667,172.411,69.71Z" transform="translate(339.27 183.285)" fill="#ffad33"/>
  <path id="Path_13353" data-name="Path 13353" d="M166.757,69.523a43.466,43.466,0,0,0-38.432,0c-10.607,6.034-10.607,15.872,0,21.906a43.735,43.735,0,0,0,38.432,0C177.364,85.4,177.364,75.557,166.757,69.523Z" transform="translate(342.234 184.933)" fill="#ffcd39"/>
  <path id="Path_13354" data-name="Path 13354" d="M138.3,82.774h-9.608c-2.229,0-3.843-1.038-3.843-2.344V79.238h5.419v.231h7.917c1.5,0,2.729-.73,2.729-1.614s-.807-1.038-1.768-1.038h-6.956c-4.151,0-7.686-1.96-7.686-4.381v-.576c0-2.729,3.843-4.919,8.493-4.919H142.6c2.191,0,3.843,1.038,3.843,2.306v1.384h-5.419v-.384h-7.879c-1.537,0-2.767.73-2.767,1.614v.576c0,.576.807,1.038,1.806,1.038h7.071c4.112,0,7.494,1.96,7.494,4.381S142.947,82.774,138.3,82.774Z" transform="translate(353.977 190.321)" fill="#ff9800"/>
  <rect id="Rectangle_177" data-name="Rectangle 177" width="5.688" height="19.523" transform="translate(486.816 255.647)" fill="#ff9800"/>
  <path id="Path_13355" data-name="Path 13355" d="M187.5,74.04h-3.574a24.213,24.213,0,0,0-6.5-5.3,54.227,54.227,0,0,0-48.885,0,23.828,23.828,0,0,0-6.533,5.3h-3.5V81.5h0c-.653,5.573,2.652,11.261,9.992,15.373a54.227,54.227,0,0,0,48.885,0c7.3-4.228,10.607-9.915,9.954-15.373h0Z" transform="translate(336.716 178.878)" fill="#ffc107"/>
  <path id="Path_13356" data-name="Path 13356" d="M125.41,63.63c-1.191.384-2.344.846-3.42,1.307V96.72a30.054,30.054,0,0,0,3.42,1.307Z" transform="translate(346.84 180.91)" fill="#ffad33"/>
  <path id="Path_13357" data-name="Path 13357" d="M120.21,66.677V90.544a26.9,26.9,0,0,0,3.267,2.191h0V64.41h0a26.91,26.91,0,0,0-3.267,2.267Z" transform="translate(341.779 183.128)" fill="#ffad33"/>
  <path id="Path_13358" data-name="Path 13358" d="M127.18,63.17c-1.153.231-2.306.461-3.42.769v36.395c1.115.307,2.267.538,3.42.769Z" transform="translate(351.873 179.602)" fill="#ffad33"/>
  <path id="Path_13359" data-name="Path 13359" d="M134.41,64.85V89.908a26.521,26.521,0,0,0,3.42-3V67.694A23.674,23.674,0,0,0,134.41,64.85Z" transform="translate(382.153 184.379)" fill="#ffad33"/>
  <path id="Path_13360" data-name="Path 13360" d="M136.265,78.838a11.53,11.53,0,0,0,.73-5.573h0V65.81h-.846Z" transform="translate(387.1 187.108)" fill="#ffad33"/>
  <path id="Path_13361" data-name="Path 13361" d="M134.28,64.271c-1.114-.346-2.267-.692-3.42-.961v36.856c1.153-.269,2.306-.615,3.42-.961Z" transform="translate(372.059 180)" fill="#ffad33"/>
  <path id="Path_13362" data-name="Path 13362" d="M121.868,83.335V65.81h-3.382v7.456h0a13.336,13.336,0,0,0,3.382,10.069Z" transform="translate(336.739 187.108)" fill="#ffad33"/>
  <path id="Path_13363" data-name="Path 13363" d="M136.05,65.494c-1.076-.576-2.229-1.115-3.42-1.614V96.355c1.191-.5,2.344-1.038,3.42-1.614Z" transform="translate(377.092 181.621)" fill="#ffad33"/>
  <path id="Path_13364" data-name="Path 13364" d="M128.922,63a11.26,11.26,0,0,0-3.382.346v38.778l3.382.307Z" transform="translate(356.933 179.119)" fill="#ffad33"/>
  <path id="Path_13365" data-name="Path 13365" d="M130.73,102.64V62.94h-3.42v39.777C128.463,102.717,129.577,102.717,130.73,102.64Z" transform="translate(361.966 178.949)" fill="#ffad33"/>
  <path id="Path_13366" data-name="Path 13366" d="M132.5,63.471c-1.115-.192-2.268-.346-3.382-.461v39.162a20.434,20.434,0,0,0,3.382-.461Z" transform="translate(367.112 179.148)" fill="#ffad33"/>
  <ellipse id="Ellipse_40" data-name="Ellipse 40" cx="34.589" cy="19.946" rx="34.589" ry="19.946" transform="translate(455.11 231.896)" fill="#ffcd39"/>
  <path id="Path_13367" data-name="Path 13367" d="M172.411,65.94a48.77,48.77,0,0,0-44,0c-12.106,6.995-12.106,18.409,0,25.4a48.77,48.77,0,0,0,44,0C184.518,84.349,184.518,72.935,172.411,65.94Z" transform="translate(339.27 172.566)" fill="#ffad33"/>
  <path id="Path_13368" data-name="Path 13368" d="M166.757,65.73a43.735,43.735,0,0,0-38.432,0c-10.607,6.034-10.607,15.872,0,21.906a43.466,43.466,0,0,0,38.432,0C177.364,81.6,177.364,71.726,166.757,65.73Z" transform="translate(342.234 174.236)" fill="#ffcd39"/>
  <path id="Path_13369" data-name="Path 13369" d="M138.3,79h-9.608c-2.229,0-3.843-1.038-3.843-2.306V75.507h5.419V75.7h7.917c1.5,0,2.729-.73,2.729-1.614s-.807-1.038-1.768-1.038h-6.956c-4.151,0-7.686-1.96-7.686-4.343v-.615c0-2.69,3.843-4.919,8.493-4.919H142.6c2.191,0,3.843,1.038,3.843,2.344v1.345h-5.419v-.5h-7.879c-1.537,0-2.767.73-2.767,1.614v.615c0,.576.807,1.038,1.806,1.038h7.071c4.112,0,7.494,1.96,7.494,4.343S142.947,79,138.3,79Z" transform="translate(353.977 179.602)" fill="#ff9800"/>
  <rect id="Rectangle_178" data-name="Rectangle 178" width="5.688" height="19.523" transform="translate(486.816 241.158)" fill="#ff9800"/>
  <path id="Path_13370" data-name="Path 13370" d="M187.5,70.2h-3.574a24.865,24.865,0,0,0-6.5-5.265,54.227,54.227,0,0,0-48.885,0,24.442,24.442,0,0,0-6.533,5.265h-3.5v7.686h0c-.653,5.534,2.652,11.222,9.992,15.373a54.227,54.227,0,0,0,48.885,0c7.3-4.227,10.607-9.915,9.954-15.373h0Z" transform="translate(336.716 168.074)" fill="#ffc107"/>
  <path id="Path_13371" data-name="Path 13371" d="M125.41,59.86c-1.191.423-2.344.846-3.42,1.345V92.95c1.076.5,2.229.922,3.42,1.345Z" transform="translate(346.84 170.191)" fill="#ffad33"/>
  <path id="Path_13372" data-name="Path 13372" d="M120.21,63.031V86.859a26.9,26.9,0,0,0,3.267,2.191h0V60.61h0a26.9,26.9,0,0,0-3.267,2.421Z" transform="translate(341.779 172.324)" fill="#ffad33"/>
  <path id="Path_13373" data-name="Path 13373" d="M127.18,59.41c-1.153.192-2.306.461-3.42.73V96.574c1.115.269,2.267.538,3.42.73Z" transform="translate(351.873 168.912)" fill="#ffad33"/>
  <path id="Path_13374" data-name="Path 13374" d="M134.41,61.08V86.138a23.676,23.676,0,0,0,3.42-2.959V63.962A26.322,26.322,0,0,0,134.41,61.08Z" transform="translate(382.153 173.66)" fill="#ffad33"/>
  <path id="Path_13375" data-name="Path 13375" d="M136.265,75.221a11.529,11.529,0,0,0,.73-5.573h0V62h-.846Z" transform="translate(387.1 176.276)" fill="#ffad33"/>
  <path id="Path_13376" data-name="Path 13376" d="M134.28,60.472c-1.114-.346-2.267-.653-3.42-.922V96.368c1.153-.269,2.306-.576,3.42-.922Z" transform="translate(372.059 169.31)" fill="#ffad33"/>
  <path id="Path_13377" data-name="Path 13377" d="M121.866,79.679V62h-3.382v7.686h0A13.259,13.259,0,0,0,121.866,79.679Z" transform="translate(336.742 176.276)" fill="#ffad33"/>
  <path id="Path_13378" data-name="Path 13378" d="M136.05,61.7a30.739,30.739,0,0,0-3.42-1.576V92.557a30.75,30.75,0,0,0,3.42-1.576Z" transform="translate(377.092 170.931)" fill="#ffad33"/>
  <path id="Path_13379" data-name="Path 13379" d="M128.922,59.19a12.611,12.611,0,0,0-3.382.307v38.97c1.115,0,2.267.231,3.382.307Z" transform="translate(356.933 168.286)" fill="#ffad33"/>
  <path id="Path_13380" data-name="Path 13380" d="M130.73,98.909V59.17h-3.42V98.947C128.463,98.985,129.577,98.947,130.73,98.909Z" transform="translate(361.966 168.23)" fill="#ffad33"/>
  <path id="Path_13381" data-name="Path 13381" d="M132.5,59.7a34.02,34.02,0,0,1-3.382-.461v39.2a20.435,20.435,0,0,0,3.382-.461Z" transform="translate(367.112 168.429)" fill="#ffad33"/>
  <ellipse id="Ellipse_41" data-name="Ellipse 41" cx="34.589" cy="19.946" rx="34.589" ry="19.946" transform="translate(455.11 217.408)" fill="#ffcd39"/>
  <path id="Path_13382" data-name="Path 13382" d="M172.411,62.17a48.77,48.77,0,0,0-44,0c-12.106,6.995-12.106,18.447,0,25.442a48.77,48.77,0,0,0,44,0C184.518,80.618,184.518,69.165,172.411,62.17Z" transform="translate(339.27 161.847)" fill="#ffad33"/>
  <path id="Path_13383" data-name="Path 13383" d="M166.757,61.993a43.466,43.466,0,0,0-38.432,0c-10.607,6-10.607,15.872,0,21.906a43.735,43.735,0,0,0,38.432,0C177.364,77.865,177.364,67.988,166.757,61.993Z" transform="translate(342.234 163.524)" fill="#ffcd39"/>
  <path id="Path_13384" data-name="Path 13384" d="M138.3,75.386h-9.608c-2.229,0-3.843-1.038-3.843-2.344V71.85h13.336c1.5,0,2.729-.692,2.729-1.576s-.807-1.038-1.768-1.038h-6.956c-4.151,0-7.686-1.96-7.686-4.381v-.576c0-2.729,3.843-4.919,8.493-4.919H142.6c2.191,0,3.843,1.038,3.843,2.306v1.345h-5.419v-.346h-7.879c-1.537,0-2.767.73-2.767,1.614v.576c0,.576.807,1.038,1.806,1.038h7.071c4.112,0,7.494,1.96,7.494,4.381S142.947,75.386,138.3,75.386Z" transform="translate(353.977 168.77)" fill="#ff9800"/>
  <rect id="Rectangle_179" data-name="Rectangle 179" width="5.688" height="19.523" transform="translate(486.816 226.708)" fill="#ff9800"/>
  <path id="Path_13385" data-name="Path 13385" d="M220.733,88.248c-21.483-12.414-56.61-12.414-78.094,0s-21.445,32.667,0,45.081,56.61,12.375,78.094,0S242.178,100.623,220.733,88.248Z" transform="translate(359.781 224.432)" fill="#fff" opacity="0"/>
  <path id="Path_13386" data-name="Path 13386" d="M219.472,88.21c-21.1-12.183-55.688-12.183-76.864,0s-21.1,32.167,0,44.35,55.726,12.221,76.864,0S240.609,100.431,219.472,88.21Z" transform="translate(360.388 224.816)" fill="#fbfbfd" opacity="0.02"/>
  <path id="Path_13387" data-name="Path 13387" d="M218.171,88.193c-20.792-11.991-54.8-11.991-75.6,0s-20.753,31.668,0,43.659,54.8,11.991,75.6,0S238.963,100.222,218.171,88.193Z" transform="translate(361.074 225.179)" fill="#f7f8fb" opacity="0.04"/>
  <ellipse id="Ellipse_42" data-name="Ellipse 42" cx="52.575" cy="30.361" rx="52.575" ry="30.361" transform="translate(488.892 304.84)" fill="#f2f4fa" opacity="0.06"/>
  <path id="Path_13388" data-name="Path 13388" d="M215.562,88.127c-20.1-11.53-53-11.53-73.021,0s-20.138,30.746,0,42.275,53,11.53,73.021,0S235.662,99.734,215.562,88.127Z" transform="translate(362.453 225.975)" fill="#eef0f8" opacity="0.08"/>
  <path id="Path_13389" data-name="Path 13389" d="M214.379,88.217c-19.754-11.53-52.114-11.53-71.868,0s-19.792,30.092,0,41.506,52.114,11.53,71.868,0S234.133,99.631,214.379,88.217Z" transform="translate(363.022 226.231)" fill="#eaecf6" opacity="0.1"/>
  <path id="Path_13390" data-name="Path 13390" d="M213.117,88.147c-19.523-11.222-51.23-11.222-70.638,0s-19.447,29.554,0,40.776,51.191,11.222,70.638,0S232.525,99.33,213.117,88.147Z" transform="translate(363.668 226.686)" fill="#e6e9f4" opacity="0.12"/>
  <path id="Path_13391" data-name="Path 13391" d="M211.9,88.12c-19.216-11.03-50.307-11.03-69.408,0s-19.216,29.054,0,40.084,50.307,10.992,69.408,0S230.96,99.188,211.9,88.12Z" transform="translate(364.272 227.019)" fill="#e1e5f2" opacity="0.14"/>
  <path id="Path_13392" data-name="Path 13392" d="M210.6,88.092c-18.755-10.8-49.423-10.8-68.178,0s-18.755,28.555,0,39.354,49.423,10.838,68.178,0S229.321,98.93,210.6,88.092Z" transform="translate(364.951 227.432)" fill="#dde1f0" opacity="0.16"/>
  <ellipse id="Ellipse_43" data-name="Ellipse 43" cx="47.31" cy="27.325" rx="47.31" ry="27.325" transform="translate(494.157 307.876)" fill="#d9deef" opacity="0.18"/>
  <ellipse id="Ellipse_44" data-name="Ellipse 44" cx="46.464" cy="26.825" rx="46.464" ry="26.825" transform="translate(495.002 308.376)" fill="#d5daed" opacity="0.2"/>
  <ellipse id="Ellipse_45" data-name="Ellipse 45" cx="45.58" cy="26.326" rx="45.58" ry="26.326" transform="translate(495.886 308.875)" fill="#d1d6eb" opacity="0.22"/>
  <ellipse id="Ellipse_46" data-name="Ellipse 46" cx="44.696" cy="25.826" rx="44.696" ry="25.826" transform="translate(496.77 309.375)" fill="#ccd3e9" opacity="0.24"/>
  <path id="Path_13393" data-name="Path 13393" d="M204.289,88.029c-17.025-9.839-44.927-9.839-61.952,0s-17.064,25.942,0,35.78,44.927,9.839,61.952,0S221.161,97.867,204.289,88.029Z" transform="translate(368.345 229.301)" fill="#c8cfe7" opacity="0.25"/>
  <path id="Path_13394" data-name="Path 13394" d="M202.978,88.012c-16.718-9.646-44.043-9.646-60.722,0s-16.718,25.442,0,35.05,44,9.646,60.722,0S219.7,97.659,202.978,88.012Z" transform="translate(368.85 229.664)" fill="#c4cbe5" opacity="0.27"/>
  <path id="Path_13395" data-name="Path 13395" d="M201.727,87.995a65.949,65.949,0,0,0-59.493,0c-16.372,9.454-16.372,24.9,0,34.358a65.949,65.949,0,0,0,59.493,0C218.1,112.9,218.1,97.449,201.727,87.995Z" transform="translate(369.486 230.027)" fill="#c0c7e4" opacity="0.29"/>
  <path id="Path_13396" data-name="Path 13396" d="M200.465,87.988a64.565,64.565,0,0,0-58.263,0c-16.026,9.224-16.026,24.366,0,33.628a64.566,64.566,0,0,0,58.263,0C216.491,112.354,216.491,97.212,200.465,87.988Z" transform="translate(370.133 230.418)" fill="#bcc4e2" opacity="0.31"/>
  <ellipse id="Ellipse_47" data-name="Ellipse 47" cx="40.315" cy="23.29" rx="40.315" ry="23.29" transform="translate(501.151 311.912)" fill="#b7c0e0" opacity="0.33"/>
  <ellipse id="Ellipse_48" data-name="Ellipse 48" cx="39.431" cy="22.79" rx="39.431" ry="22.79" transform="translate(502.035 312.411)" fill="#b3bcde" opacity="0.35"/>
  <path id="Path_13397" data-name="Path 13397" d="M196.69,87.918a60.645,60.645,0,0,0-54.573,0c-14.988,8.686-14.988,22.867,0,31.514a60.645,60.645,0,0,0,54.573,0C211.64,110.785,211.64,96.6,196.69,87.918Z" transform="translate(372.102 231.526)" fill="#afb9dc" opacity="0.37"/>
  <path id="Path_13398" data-name="Path 13398" d="M195.379,87.911a59.185,59.185,0,0,0-53.3,0c-14.643,8.455-14.643,22.29,0,30.745a59.185,59.185,0,0,0,53.3,0C210.06,110.125,210.06,96.366,195.379,87.911Z" transform="translate(372.72 231.918)" fill="#abb5db" opacity="0.39"/>
  <path id="Path_13399" data-name="Path 13399" d="M194.118,87.908a57.648,57.648,0,0,0-52.075,0c-14.3,8.263-14.3,21.791,0,30.054a57.648,57.648,0,0,0,52.075,0C208.453,109.776,208.453,96.171,194.118,87.908Z" transform="translate(373.367 232.266)" fill="#a6b1d9" opacity="0.41"/>
  <ellipse id="Ellipse_49" data-name="Ellipse 49" cx="35.934" cy="20.753" rx="35.934" ry="20.753" transform="translate(505.533 314.448)" fill="#a2add7" opacity="0.43"/>
  <path id="Path_13400" data-name="Path 13400" d="M191.587,87.871a54.958,54.958,0,0,0-49.577,0c-13.643,7.686-13.643,20.753,0,28.632a54.958,54.958,0,0,0,49.577,0C205.23,108.624,205.23,95.749,191.587,87.871Z" transform="translate(374.668 233.034)" fill="#9eaad5" opacity="0.45"/>
  <path id="Path_13401" data-name="Path 13401" d="M190.325,87.854a53.574,53.574,0,0,0-48.347,0c-13.3,7.686-13.3,20.254,0,27.94a53.8,53.8,0,0,0,48.347,0C203.623,108.108,203.623,95.54,190.325,87.854Z" transform="translate(375.315 233.396)" fill="#9aa6d3" opacity="0.47"/>
  <ellipse id="Ellipse_50" data-name="Ellipse 50" cx="33.32" cy="19.254" rx="33.32" ry="19.254" transform="translate(508.146 315.947)" fill="#96a2d1" opacity="0.49"/>
  <path id="Path_13402" data-name="Path 13402" d="M187.8,87.831a50.807,50.807,0,0,0-45.888,0c-12.606,7.264-12.606,19.216,0,26.48a51.037,51.037,0,0,0,45.888,0C200.408,107.008,200.408,95.094,187.8,87.831Z" transform="translate(376.608 234.149)" fill="#919fd0" opacity="0.51"/>
  <path id="Path_13403" data-name="Path 13403" d="M186.561,87.814a49.423,49.423,0,0,0-44.658,0c-12.3,7.071-12.3,18.678,0,25.788a49.654,49.654,0,0,0,44.658,0C198.821,106.492,198.821,94.886,186.561,87.814Z" transform="translate(377.234 234.512)" fill="#8d9bce" opacity="0.53"/>
  <path id="Path_13404" data-name="Path 13404" d="M185.3,87.817a48.27,48.27,0,0,0-43.428,0c-11.952,6.918-11.952,18.178,0,25.058a48.04,48.04,0,0,0,43.428,0C197.214,105.842,197.214,94.581,185.3,87.817Z" transform="translate(377.881 235.009)" fill="#8997cc" opacity="0.55"/>
  <path id="Path_13405" data-name="Path 13405" d="M184.052,87.775a46.887,46.887,0,0,0-42.275,0c-11.53,6.726-11.53,17.679,0,24.366a46.887,46.887,0,0,0,42.275,0C195.62,105.454,195.62,94.5,184.052,87.775Z" transform="translate(378.513 235.243)" fill="#8594ca" opacity="0.57"/>
  <path id="Path_13406" data-name="Path 13406" d="M182.738,87.754a45.427,45.427,0,0,0-40.93,0c-11.26,6.495-11.26,17.141,0,23.636a45.426,45.426,0,0,0,40.93,0C194,104.894,194,94.248,182.738,87.754Z" transform="translate(379.174 235.649)" fill="#8190c8" opacity="0.59"/>
  <path id="Path_13407" data-name="Path 13407" d="M181.476,87.737a44.043,44.043,0,0,0-39.7,0c-10.915,6.3-10.915,16.6,0,23.059a44.043,44.043,0,0,0,39.7,0C192.391,104.339,192.391,94.04,181.476,87.737Z" transform="translate(379.821 236.011)" fill="#7c8cc6" opacity="0.61"/>
  <path id="Path_13408" data-name="Path 13408" d="M180.186,87.713a42.659,42.659,0,0,0-38.432,0c-10.569,6.111-10.569,16.1,0,22.214a42.659,42.659,0,0,0,38.432,0C190.755,103.816,190.755,93.824,180.186,87.713Z" transform="translate(380.496 236.381)" fill="#7888c5" opacity="0.63"/>
  <path id="Path_13409" data-name="Path 13409" d="M178.946,87.713a41.2,41.2,0,0,0-37.2,0c-10.261,5.88-10.261,15.373,0,21.483a41.2,41.2,0,0,0,37.2,0C189.207,103.278,189.207,93.747,178.946,87.713Z" transform="translate(381.122 236.765)" fill="#7485c3" opacity="0.65"/>
  <ellipse id="Ellipse_51" data-name="Ellipse 51" cx="25.442" cy="14.681" rx="25.442" ry="14.681" transform="translate(516.025 320.52)" fill="#7081c1" opacity="0.67"/>
  <path id="Path_13410" data-name="Path 13410" d="M176.308,87.631a38.663,38.663,0,0,0-34.589,0c-9.57,5.534-9.57,14.566,0,20.061a38.432,38.432,0,0,0,34.589,0C185.878,102.2,185.878,93.165,176.308,87.631Z" transform="translate(382.529 237.539)" fill="#6b7dbf" opacity="0.69"/>
  <path id="Path_13411" data-name="Path 13411" d="M175.16,87.674a37.048,37.048,0,0,0-33.513,0c-9.224,5.3-9.224,14.028,0,19.216a37.279,37.279,0,0,0,33.513,0C184.384,101.7,184.384,92.977,175.16,87.674Z" transform="translate(383.062 237.881)" fill="#677abd" opacity="0.71"/>
  <path id="Path_13412" data-name="Path 13412" d="M173.9,87.636a35.9,35.9,0,0,0-32.283,0c-8.878,5.111-8.878,13.49,0,18.639a35.9,35.9,0,0,0,32.283,0C182.776,101.126,182.776,92.748,173.9,87.636Z" transform="translate(383.709 238.264)" fill="#6376bc" opacity="0.73"/>
  <path id="Path_13413" data-name="Path 13413" d="M172.637,87.613a34.589,34.589,0,0,0-31.053,0c-8.532,4.919-8.532,12.99,0,17.909a34.281,34.281,0,0,0,31.053,0C181.169,100.6,181.169,92.532,172.637,87.613Z" transform="translate(384.356 238.634)" fill="#5f72ba" opacity="0.75"/>
  <ellipse id="Ellipse_52" data-name="Ellipse 52" cx="21.061" cy="12.183" rx="21.061" ry="12.183" transform="translate(520.406 323.018)" fill="#5b6eb8" opacity="0.76"/>
  <path id="Path_13414" data-name="Path 13414" d="M169.99,87.6a31.668,31.668,0,0,0-28.555,0c-7.686,4.535-7.686,11.952,0,16.487a31.668,31.668,0,0,0,28.555,0C177.868,99.549,177.868,92.131,169.99,87.6Z" transform="translate(385.735 239.381)" fill="#566bb6" opacity="0.78"/>
  <path id="Path_13415" data-name="Path 13415" d="M168.92,87.58a30.284,30.284,0,0,0-27.325,0c-7.686,4.343-7.686,11.53,0,15.757a30.284,30.284,0,0,0,27.325,0C176.452,99.032,176.452,91.922,168.92,87.58Z" transform="translate(386.19 239.743)" fill="#5267b4" opacity="0.8"/>
  <ellipse id="Ellipse_53" data-name="Ellipse 53" cx="18.447" cy="10.646" rx="18.447" ry="10.646" transform="translate(523.019 324.555)" fill="#4e63b2" opacity="0.82"/>
  <path id="Path_13416" data-name="Path 13416" d="M166.283,87.556a27.44,27.44,0,0,0-24.827,0c-6.841,3.843-6.841,10.377,0,14.335a27.44,27.44,0,0,0,24.827,0C173.124,97.933,173.124,91.476,166.283,87.556Z" transform="translate(387.597 240.497)" fill="#4a60b1" opacity="0.84"/>
  <path id="Path_13417" data-name="Path 13417" d="M165.061,87.539a26.057,26.057,0,0,0-23.6,0c-6.495,3.843-6.495,9.877,0,13.643a26.288,26.288,0,0,0,23.6,0C171.4,97.34,171.4,91.267,165.061,87.539Z" transform="translate(388.358 240.859)" fill="#465caf" opacity="0.86"/>
  <path id="Path_13418" data-name="Path 13418" d="M163.759,87.5a24.9,24.9,0,0,0-22.367,0c-6.149,3.574-6.149,9.377,0,12.913a24.673,24.673,0,0,0,22.367,0C169.908,96.957,169.908,91.076,163.759,87.5Z" transform="translate(388.891 241.242)" fill="#4158ad" opacity="0.88"/>
  <path id="Path_13419" data-name="Path 13419" d="M162.5,87.486a23.52,23.52,0,0,0-21.138,0c-5.8,3.382-5.8,8.878,0,12.221a23.52,23.52,0,0,0,21.138,0C168.3,96.363,168.3,90.868,162.5,87.486Z" transform="translate(389.538 241.605)" fill="#3d55ab" opacity="0.9"/>
  <path id="Path_13420" data-name="Path 13420" d="M161.236,87.479a22.137,22.137,0,0,0-19.908,0c-5.457,3.151-5.457,8.3,0,11.53a22.137,22.137,0,0,0,19.908,0C166.693,95.78,166.693,90.63,161.236,87.479Z" transform="translate(390.185 241.996)" fill="#3951a9" opacity="0.92"/>
  <ellipse id="Ellipse_54" data-name="Ellipse 54" cx="13.182" cy="7.61" rx="13.182" ry="7.61" transform="translate(528.284 327.591)" fill="#354da7" opacity="0.94"/>
  <path id="Path_13421" data-name="Path 13421" d="M158.7,87.46a19.216,19.216,0,0,0-17.448,0,5.342,5.342,0,0,0,0,10.069,19.216,19.216,0,0,0,17.448,0,5.342,5.342,0,0,0,0-10.069Z" transform="translate(391.492 242.707)" fill="#3049a6" opacity="0.96"/>
  <path id="Path_13422" data-name="Path 13422" d="M157.405,87.429a17.909,17.909,0,0,0-16.18,0,4.958,4.958,0,0,0,0,9.339,17.909,17.909,0,0,0,16.18,0,4.919,4.919,0,0,0,0-9.339Z" transform="translate(392.17 243.083)" fill="#2c46a4" opacity="0.98"/>
  <path id="Path_13423" data-name="Path 13423" d="M156.17,87.422a16.526,16.526,0,0,0-14.95,0,4.573,4.573,0,0,0,0,8.647,16.756,16.756,0,0,0,14.95,0,4.573,4.573,0,0,0,0-8.647Z" transform="translate(392.752 243.474)" fill="#2842a2"/>
  <path id="Path_13424" data-name="Path 13424" d="M201.959,92.76h-3.574a25.018,25.018,0,0,0-6.533-5.3,54.227,54.227,0,0,0-48.885,0,25.02,25.02,0,0,0-6.533,5.3h-3.459v7.456h0c-.615,5.573,2.69,11.261,9.992,15.373a54.228,54.228,0,0,0,48.885,0c7.34-4.228,10.607-9.915,9.992-15.373h0Z" transform="translate(377.863 232.103)" fill="#ffc107"/>
  <path id="Path_13425" data-name="Path 13425" d="M139.87,82.35a33.084,33.084,0,0,0-3.42,1.307v31.937c1.115.461,2.229.922,3.42,1.307Z" transform="translate(387.953 234.135)" fill="#ffad33"/>
  <path id="Path_13426" data-name="Path 13426" d="M134.68,85.4v23.828a26.439,26.439,0,0,0,3.228,2.229h0V83.13h0A26.283,26.283,0,0,0,134.68,85.4Z" transform="translate(382.92 236.352)" fill="#ffad33"/>
  <path id="Path_13427" data-name="Path 13427" d="M141.612,81.89a33.175,33.175,0,0,0-3.382.769v36.395c1.115.307,2.229.538,3.382.769Z" transform="translate(393.013 232.827)" fill="#ffad33"/>
  <path id="Path_13428" data-name="Path 13428" d="M148.87,83.56v25.1a22.176,22.176,0,0,0,3.42-3V86.442A24.137,24.137,0,0,0,148.87,83.56Z" transform="translate(423.265 237.575)" fill="#ffad33"/>
  <path id="Path_13429" data-name="Path 13429" d="M150.735,97.558a12.643,12.643,0,0,0,.73-5.573h0V84.53h-.846Z" transform="translate(428.241 240.333)" fill="#ffad33"/>
  <path id="Path_13430" data-name="Path 13430" d="M148.74,82.991a31.951,31.951,0,0,0-3.42-.961v36.856c1.191-.269,2.306-.615,3.42-.961Z" transform="translate(413.172 233.225)" fill="#ffad33"/>
  <path id="Path_13431" data-name="Path 13431" d="M136.3,102.017V84.53H132.96v7.456h0a13.182,13.182,0,0,0,3.344,10.031Z" transform="translate(377.876 240.333)" fill="#ffad33"/>
  <path id="Path_13432" data-name="Path 13432" d="M150.53,84.194c-1.115-.576-2.229-1.115-3.42-1.614v32.475c1.191-.5,2.306-1.038,3.42-1.614Z" transform="translate(418.261 234.788)" fill="#ffad33"/>
  <path id="Path_13433" data-name="Path 13433" d="M143.42,81.67l-3.42.307v38.97c1.153,0,2.267.269,3.42.346Z" transform="translate(398.046 232.201)" fill="#ffad33"/>
  <path id="Path_13434" data-name="Path 13434" d="M145.162,121.4V81.66H141.78V121.4Z" transform="translate(403.107 232.173)" fill="#ffad33"/>
  <path id="Path_13435" data-name="Path 13435" d="M146.97,82.191c-1.114,0-2.267-.346-3.42-.461v39.162a20.336,20.336,0,0,0,3.42-.461Z" transform="translate(408.139 232.372)" fill="#ffad33"/>
  <path id="Path_13436" data-name="Path 13436" d="M191.869,84.886a54.227,54.227,0,0,0-48.885,0c-13.451,7.686-13.451,20.446,0,28.209a54.227,54.227,0,0,0,48.885,0C205.32,105.332,205.32,92.65,191.869,84.886Z" transform="translate(377.845 224.796)" fill="#ffcd39"/>
  <path id="Path_13437" data-name="Path 13437" d="M186.91,84.661a48.847,48.847,0,0,0-44.043,0c-12.106,6.995-12.106,18.409,0,25.4a48.847,48.847,0,0,0,44.043,0C199.016,103.07,199.016,91.655,186.91,84.661Z" transform="translate(380.383 225.79)" fill="#ffad33"/>
  <path id="Path_13438" data-name="Path 13438" d="M181.249,84.473a43.466,43.466,0,0,0-38.432,0c-10.646,6.034-10.646,15.872,0,21.906a43.466,43.466,0,0,0,38.432,0C191.856,100.345,191.856,90.507,181.249,84.473Z" transform="translate(383.354 227.438)" fill="#ffcd39"/>
  <path id="Path_13439" data-name="Path 13439" d="M152.643,97.714h-9.608c-2.191,0-3.843-1.038-3.843-2.344V94.178h5.688v.231H152.8c1.537,0,2.767-.73,2.767-1.614s-.807-1.038-1.806-1.038h-7.071c-4.151,0-7.686-1.96-7.686-4.381V86.8c0-2.729,3.843-4.919,8.455-4.919h9.608c2.191,0,3.843,1.038,3.843,2.306v1.384h-5.688v-.384H147.3c-1.537,0-2.767.73-2.767,1.614v.576c0,.576.807,1.076,1.806,1.076h7.071c4.151,0,7.494,1.96,7.494,4.343S157.294,97.714,152.643,97.714Z" transform="translate(395.203 232.798)" fill="#ff9800"/>
  <rect id="Rectangle_180" data-name="Rectangle 180" width="5.688" height="19.523" transform="translate(542.427 313.103)" fill="#ff9800"/>
  <path id="Path_13440" data-name="Path 13440" d="M101.22,167.615c20.369-11.76,53.8-11.76,74.1,0s20.369,31.015,0,42.775-53.8,11.76-74.1,0S80.851,179.375,101.22,167.615Z" transform="translate(244.436 451.482)" fill="url(#radial-gradient)" style="mix-blend-mode: multiply;isolation: isolate"/>
  <path id="Path_13441" data-name="Path 13441" d="M164.564,172.266h-4.227a26.173,26.173,0,0,0-6.726-5.3,58.609,58.609,0,0,0-53.036,0,26.9,26.9,0,0,0-6.726,5.3H89.66v9.915h0c0,5.573,3.613,11.145,10.915,15.373a58.839,58.839,0,0,0,53.036,0c7.341-4.227,10.953-9.8,10.915-15.373h0Z" transform="translate(254.92 456.67)" fill="url(#linear-gradient-2)"/>
  <ellipse id="Ellipse_55" data-name="Ellipse 55" cx="37.509" cy="21.637" rx="37.509" ry="21.637" transform="translate(344.503 607.298)" fill="#f6f8fb"/>
  <path id="Path_13442" data-name="Path 13442" d="M123.226,196.669a45.7,45.7,0,0,1-22.6-5.419c-6.188-3.574-9.608-8.378-9.608-13.566s3.42-9.992,9.608-13.566a49.961,49.961,0,0,1,45.2,0l-.884,1.576a48.04,48.04,0,0,0-43.428,0,12.606,12.606,0,0,0,0,23.981,44.043,44.043,0,0,0,21.714,5.188h0v1.806Z" transform="translate(258.787 451.252)" fill="url(#linear-gradient-3)"/>
  <path id="Path_13443" data-name="Path 13443" d="M102.921,163.625l3.843-3.075,5.611,3.42-1.96,1.653L97.5,171.7l-1.922-1.153,12.529-5.957-2-1.191-1.5,1.23Zm9.031,6.687a6.377,6.377,0,0,0,1.537-.807,2.536,2.536,0,0,0,.73-.961.577.577,0,0,0-.269-.73c-.5-.307-1.5,0-3,.423v-1.845a12.835,12.835,0,0,1,3.151-.884,3.612,3.612,0,0,1,2.306.5,1.652,1.652,0,0,1,.807,1.883,4.573,4.573,0,0,1-1.845,2.613,8.458,8.458,0,0,1-2.037,1.23,23.058,23.058,0,0,1-3.267,1.076l-3.613.922,3.075,1.883-2.344,1.922-5.5-3.344,1.922-1.614,5.842-1.5a22.057,22.057,0,0,0,2.5-.769Zm15.719,3.036-17.333,6.226-1.922-1.191,17.333-6.226Zm-9.416,7.879a5.266,5.266,0,0,1-2.114,1.076,2.536,2.536,0,0,1-1.883,0,1.153,1.153,0,0,1-.5-1.307,3.574,3.574,0,0,1,1.23-1.653,5.266,5.266,0,0,1,2.114-1.076,2.536,2.536,0,0,1,1.883,0,1.038,1.038,0,0,1,.5,1.268,3.458,3.458,0,0,1-1.23,1.691Zm-2.575-.73v.384a.807.807,0,0,0,.538,0,2,2,0,0,0,.73-.423,1.345,1.345,0,0,0,.5-.576.346.346,0,0,0,0-.423.73.73,0,0,0-.576,0,2.539,2.539,0,0,0-.769.423A1.883,1.883,0,0,0,115.68,180.5Zm5.035-7.686a5.342,5.342,0,0,1-2.114,1.115,2.536,2.536,0,0,1-1.883-.192,1,1,0,0,1-.461-1.268,3.075,3.075,0,0,1,1.191-1.653,5.419,5.419,0,0,1,2.152-1.076,2.267,2.267,0,0,1,1.845,0,1.038,1.038,0,0,1,.5,1.268,3.151,3.151,0,0,1-1.23,1.883Zm-2.575-.692v.384a.73.73,0,0,0,.576,0,2.688,2.688,0,0,0,.73-.384,1.96,1.96,0,0,0,.461-.615v-.384a.73.73,0,0,0-.576,0,2.538,2.538,0,0,0-.769.423,1.537,1.537,0,0,0-.423.653Z" transform="translate(271.752 456.472)" fill="url(#linear-gradient-4)"/>
  <path id="Path_13444" data-name="Path 13444" d="M60.518,144.065c20.407-11.76,53.8-11.76,74.1,0s20.369,31.014,0,42.775-53.8,11.76-74.1,0S40.265,155.825,60.518,144.065Z" transform="translate(128.835 384.525)" fill="url(#radial-gradient-2)" style="mix-blend-mode: multiply;isolation: isolate"/>
  <path id="Path_13445" data-name="Path 13445" d="M123.865,148.723h-4.189a27.364,27.364,0,0,0-6.764-5.342,58.763,58.763,0,0,0-53,0,27.363,27.363,0,0,0-6.764,5.342H49v9.915h0c0,5.573,3.613,11.145,10.953,15.373a58.762,58.762,0,0,0,53,0c7.34-4.228,10.991-9.8,10.953-15.373h0Z" transform="translate(139.316 389.706)" fill="url(#linear-gradient-5)"/>
  <path id="Path_13446" data-name="Path 13446" d="M60.028,140.812a58.532,58.532,0,0,1,53,0c14.6,8.417,14.6,22.175,0,30.745a58.763,58.763,0,0,1-53,0C45.271,162.987,45.271,149.228,60.028,140.812Z" transform="translate(139.202 382.321)" fill="#f6f8fb"/>
  <path id="Path_13447" data-name="Path 13447" d="M59.958,167.719c-6.188-3.574-9.608-8.378-9.608-13.566a16.449,16.449,0,0,1,9.608-13.6,46.118,46.118,0,0,1,22.6-5.38v1.806a44.311,44.311,0,0,0-21.676,5.265,12.644,12.644,0,0,0,0,24.02Z" transform="translate(143.154 384.276)" fill="url(#linear-gradient-6)"/>
  <path id="Path_13448" data-name="Path 13448" d="M64.79,142a5.459,5.459,0,0,0,1.5-.807,2.383,2.383,0,0,0,.73-1,.538.538,0,0,0-.269-.692q-.769-.461-3,.461v-1.883A12.837,12.837,0,0,1,66.9,137.2a3.843,3.843,0,0,1,2.306.461,1.653,1.653,0,0,1,.807,1.883,4.535,4.535,0,0,1-1.845,2.652,8.993,8.993,0,0,1-2.037,1.23,23.047,23.047,0,0,1-3.267,1.076l-3.574.961,3.075,1.845-2.344,1.96-5.534-3.344,1.96-1.729,5.8-1.5A17.853,17.853,0,0,0,64.79,142Zm13.067,1.345-2.267,1.883-3.113-1.883L70.555,145a2.268,2.268,0,0,1,.922.346,1.768,1.768,0,0,1,.922,2,4.535,4.535,0,0,1-1.922,2.767,8.378,8.378,0,0,1-3.843,1.883,4.3,4.3,0,0,1-3.19-.346,2.306,2.306,0,0,1-.922-3.036l2.844-1.038v.461a3.843,3.843,0,0,0,0,.884,1.115,1.115,0,0,0,.538.807,1.691,1.691,0,0,0,1.191,0,3.229,3.229,0,0,0,1.537-.769,1.922,1.922,0,0,0,.845-1.23.922.922,0,0,0-.538-.922,3.5,3.5,0,0,0-2-.307l.423-1.422,5.765-4.727ZM87.2,149,69.9,155.3l-1.922-1.191,17.294-6.072Zm-9.377,7.917A5.266,5.266,0,0,1,75.7,157.99a2.382,2.382,0,0,1-1.883,0,1,1,0,0,1-.461-1.268,3.075,3.075,0,0,1,1.191-1.653,5.342,5.342,0,0,1,2.114-1.115,2.536,2.536,0,0,1,1.883,0,1.076,1.076,0,0,1,.5,1.268,3.229,3.229,0,0,1-1.268,1.691Zm-2.575-.73v.384a.692.692,0,0,0,.576,0,2.959,2.959,0,0,0,.73-.423,1.537,1.537,0,0,0,.461-.576.346.346,0,0,0,0-.423.73.73,0,0,0-.576,0,2.73,2.73,0,0,0-.769.461,1.806,1.806,0,0,0-.461.576Zm5.035-7.686a5.5,5.5,0,0,1-2.152,1.115,2.614,2.614,0,0,1-1.845,0,1.038,1.038,0,0,1-.5-1.307,3.458,3.458,0,0,1,1.191-1.652,5.188,5.188,0,0,1,2.152-1.076,2.422,2.422,0,0,1,1.845,0,1.115,1.115,0,0,1,.5,1.307,3.459,3.459,0,0,1-1.23,1.691Zm-2.613-.692a.346.346,0,0,0,0,.384.73.73,0,0,0,.576,0,2.075,2.075,0,0,0,.73-.423,1.537,1.537,0,0,0,.461-.576c0-.192,0-.307,0-.384a.73.73,0,0,0-.576,0,2,2,0,0,0-.73.423,1.345,1.345,0,0,0-.5.807Z" transform="translate(154.925 390.008)" fill="url(#linear-gradient-7)"/>
  <ellipse id="Ellipse_56" data-name="Ellipse 56" cx="52.383" cy="30.246" rx="52.383" ry="30.246" transform="translate(252.19 564.985)" fill="url(#radial-gradient-3)" style="mix-blend-mode: multiply;isolation: isolate"/>
  <path id="Path_13449" data-name="Path 13449" d="M144.224,160.465h-4.189a27.748,27.748,0,0,0-6.61-5.3,58.839,58.839,0,0,0-53.036,0,27.977,27.977,0,0,0-6.764,5.3h-4.3v9.915h0c0,5.573,3.613,11.145,10.953,15.373a58.609,58.609,0,0,0,53.036,0c7.3-4.227,10.953-9.8,10.915-15.373h0Z" transform="translate(197.09 423.198)" fill="url(#linear-gradient-8)"/>
  <path id="Path_13450" data-name="Path 13450" d="M80.273,152.561a58.839,58.839,0,0,1,53.036,0c14.566,8.417,14.566,22.214,0,30.746a58.839,58.839,0,0,1-53.036,0C65.669,174.775,65.669,160.978,80.273,152.561Z" transform="translate(197.09 415.806)" fill="#fafbfd"/>
  <path id="Path_13451" data-name="Path 13451" d="M80.284,179.491a14.412,14.412,0,0,1,0-27.171,50.23,50.23,0,0,1,45.234,0l-.884,1.576a48.347,48.347,0,0,0-43.428,0,12.644,12.644,0,0,0,0,24.02Z" transform="translate(200.961 417.776)" fill="url(#linear-gradient-9)"/>
  <path id="Path_13452" data-name="Path 13452" d="M90.821,151.772l-2.229,1.883-3.113-1.806L83.558,153.5a3.841,3.841,0,0,1,.922.346,1.883,1.883,0,0,1,1,2,5,5,0,0,1-1.922,2.805,8.224,8.224,0,0,1-3.843,1.922,4.266,4.266,0,0,1-3.228-.269,2.344,2.344,0,0,1-.961-3.036l2.806-1.076v.461a3.844,3.844,0,0,0,0,.884,1.153,1.153,0,0,0,.577.807,1.538,1.538,0,0,0,1.191,0,3.113,3.113,0,0,0,1.5-.769,2.075,2.075,0,0,0,.845-1.268.961.961,0,0,0-.576-.922,3.844,3.844,0,0,0-2-.269l.423-1.422,5.611-4.8Zm-2.152,4.035,3.843-3.151,5.726,3.305-1.922,1.691-12.8,6.341L81.6,162.879l12.375-6.226-2-1.153-1.5,1.268Zm18.14,5.035-17.294,6.764-1.922-1.115,17.294-6.61Zm-9.224,8.109a5.609,5.609,0,0,1-2.114,1.115,2.536,2.536,0,0,1-1.883,0,1.038,1.038,0,0,1-.5-1.268,3.19,3.19,0,0,1,1.153-1.691,5.341,5.341,0,0,1,2.114-1.114,2.575,2.575,0,0,1,1.883,0,1.038,1.038,0,0,1,.5,1.268,3.42,3.42,0,0,1-1.153,1.845Zm-2.613-.653a.269.269,0,0,0,0,.384.653.653,0,0,0,.538,0,2,2,0,0,0,.73-.423,1.23,1.23,0,0,0,.461-.615c0-.192,0-.307,0-.384a.73.73,0,0,0-.576,0,1.691,1.691,0,0,0-.73.461,1.537,1.537,0,0,0-.423.807Zm4.881-7.686a5.457,5.457,0,0,1-2.114,1.153,2.575,2.575,0,0,1-1.883,0,1.153,1.153,0,0,1-.5-1.307,3.612,3.612,0,0,1,1.153-1.652,5,5,0,0,1,2.114-1.153,2.536,2.536,0,0,1,1.883,0,1.076,1.076,0,0,1,.538,1.268,3.382,3.382,0,0,1-1.191,1.921Zm-2.652-.538v.384a.73.73,0,0,0,.576,0,2.961,2.961,0,0,0,.73-.423,1.537,1.537,0,0,0,.461-.576v-.423a.538.538,0,0,0-.538,0,1.922,1.922,0,0,0-.769.423,1.115,1.115,0,0,0-.461.615Z" transform="translate(214.097 423.32)" fill="url(#linear-gradient-10)"/>
  <path id="Path_13453" data-name="Path 13453" d="M173.295,117.47,357.922,224.042l-92.313,53.305L81.02,170.775Z" transform="translate(230.355 333.987)" fill="#3c5185" opacity="0"/>
  <path id="Path_13454" data-name="Path 13454" d="M173.295,117.47l39.969,23.29-92.313,53.3L81.02,170.775Z" transform="translate(230.355 333.987)" fill="url(#linear-gradient-11)"/>
  <path id="Path_13455" data-name="Path 13455" d="M173.295,117.47l36.049,21.061L117.069,191.8,81.02,170.775Z" transform="translate(230.355 333.987)" fill="#3c5185" opacity="0.93"/>
  <path id="Path_13456" data-name="Path 13456" d="M173.295,117.47l32.167,18.793-92.313,53.3L81.02,170.775Z" transform="translate(230.355 333.987)" fill="#3c5185" opacity="0.95"/>
  <path id="Path_13457" data-name="Path 13457" d="M173.295,117.47l28.247,16.564L109.229,187.3,81.02,170.775Z" transform="translate(230.355 333.987)" fill="#3c5185" opacity="0.98"/>
  <path id="Path_13458" data-name="Path 13458" d="M173.295,117.47l24.327,14.3-92.313,53.305-24.289-14.3Z" transform="translate(230.355 333.987)" fill="#0d3454"/>
  <path id="Path_13459" data-name="Path 13459" d="M130.281,92.62,314.254,200.229,221.672,253,37.66,145.387Z" transform="translate(107.074 263.334)" fill="#3c5185" opacity="0"/>
  <path id="Path_13460" data-name="Path 13460" d="M130.281,92.62,310.372,197.962l-92.621,52.767L37.66,145.387Z" transform="translate(107.074 263.334)" fill="#3c5185" opacity="0.02"/>
  <path id="Path_13461" data-name="Path 13461" d="M130.281,92.62l176.21,103.074L213.87,248.461,37.66,145.387Z" transform="translate(107.074 263.334)" fill="#3c5185" opacity="0.05"/>
  <path id="Path_13462" data-name="Path 13462" d="M130.281,92.62l172.29,100.807-92.582,52.767L37.66,145.387Z" transform="translate(107.074 263.334)" fill="#3c5185" opacity="0.07"/>
  <path id="Path_13463" data-name="Path 13463" d="M130.281,92.62l168.408,98.539-92.621,52.767L37.66,145.387Z" transform="translate(107.074 263.334)" fill="#3c5185" opacity="0.1"/>
  <path id="Path_13464" data-name="Path 13464" d="M130.281,92.62l90.469,53.074-92.621,52.767L37.66,145.387Z" transform="translate(107.074 263.334)" fill="url(#linear-gradient-12)"/>
  <path id="Path_13465" data-name="Path 13465" d="M130.281,92.62l86.587,50.807-92.621,52.767L37.66,145.387Z" transform="translate(107.074 263.334)" fill="#3c5185" opacity="0.61"/>
  <path id="Path_13466" data-name="Path 13466" d="M130.281,92.62l82.667,48.539-92.582,52.729-82.705-48.5Z" transform="translate(107.074 263.334)" fill="#3c5185" opacity="0.63"/>
  <path id="Path_13467" data-name="Path 13467" d="M130.281,92.62l78.785,46.234L116.445,191.62,37.66,145.387Z" transform="translate(107.074 263.334)" fill="#3c5185" opacity="0.66"/>
  <path id="Path_13468" data-name="Path 13468" d="M130.281,92.62l74.9,43.966-92.621,52.767-74.9-43.966Z" transform="translate(107.074 263.334)" fill="#3c5185" opacity="0.68"/>
  <path id="Path_13469" data-name="Path 13469" d="M130.281,92.62l70.984,41.7-92.582,52.767-71.022-41.7Z" transform="translate(107.074 263.334)" fill="#3c5185" opacity="0.71"/>
  <path id="Path_13470" data-name="Path 13470" d="M130.281,92.62l67.1,39.431-92.621,52.767-67.1-39.431Z" transform="translate(107.074 263.334)" fill="#3c5185" opacity="0.73"/>
  <path id="Path_13471" data-name="Path 13471" d="M130.281,92.62l63.182,37.164L100.88,182.551,37.66,145.387Z" transform="translate(107.074 263.334)" fill="#3c5185" opacity="0.76"/>
  <path id="Path_13472" data-name="Path 13472" d="M130.281,92.62l59.3,34.9L96.96,180.283l-59.3-34.9Z" transform="translate(107.074 263.334)" fill="#3c5185" opacity="0.78"/>
  <path id="Path_13473" data-name="Path 13473" d="M130.281,92.62,185.7,125.249,93.079,177.977,37.66,145.387Z" transform="translate(107.074 263.334)" fill="#3c5185" opacity="0.8"/>
  <path id="Path_13474" data-name="Path 13474" d="M130.281,92.62l51.5,30.323L89.2,175.71,37.66,145.387Z" transform="translate(107.074 263.334)" fill="#3c5185" opacity="0.83"/>
  <path id="Path_13475" data-name="Path 13475" d="M130.281,92.62,177.9,120.675,85.277,173.442,37.66,145.387Z" transform="translate(107.074 263.334)" fill="#3c5185" opacity="0.85"/>
  <path id="Path_13476" data-name="Path 13476" d="M130.281,92.62l43.7,25.788L81.4,171.175,37.66,145.387Z" transform="translate(107.074 263.334)" fill="#3c5185" opacity="0.88"/>
  <path id="Path_13477" data-name="Path 13477" d="M130.281,92.62,170.1,116.14,77.475,168.907,37.66,145.387Z" transform="translate(107.074 263.334)" fill="#3c5185" opacity="0.9"/>
  <path id="Path_13478" data-name="Path 13478" d="M130.281,92.62l35.934,21.253L73.594,166.64,37.66,145.387Z" transform="translate(107.074 263.334)" fill="#3c5185" opacity="0.93"/>
  <path id="Path_13479" data-name="Path 13479" d="M130.281,92.62l32.014,18.985L69.712,164.372,37.66,145.387Z" transform="translate(107.074 263.334)" fill="#3c5185" opacity="0.95"/>
  <path id="Path_13480" data-name="Path 13480" d="M130.281,92.62l28.132,16.718L65.792,162.066,37.66,145.387Z" transform="translate(107.074 263.334)" fill="#3c5185" opacity="0.98"/>
  <path id="Path_13481" data-name="Path 13481" d="M130.281,92.62l24.212,14.412L61.911,159.8,37.66,145.387Z" transform="translate(107.074 263.334)" fill="#0d3454"/>
  <path id="Path_13482" data-name="Path 13482" d="M223.755,79.951,128.675,25.07,35.9,79.951l92.736,54.919Z" transform="translate(102.071 71.277)" fill="url(#linear-gradient-13)"/>
  <path id="Path_13483" data-name="Path 13483" d="M155.149,39.35v256.3L60.03,347.612V94.269Z" transform="translate(170.676 111.878)" fill="url(#linear-gradient-14)"/>
  <path id="Path_13596" data-name="Path 13596" d="M186.039,72.65l6.905,251.5L90.92,380.414V127.569Z" transform="translate(139.921 79.347)" fill="url(#linear-gradient-15)"/>
  <path id="Path_13485" data-name="Path 13485" d="M254.673,113.279,159.555,58.36,66.78,113.279,159.555,168.2Z" transform="translate(189.868 165.927)" fill="url(#linear-gradient-12)"/>
  <path id="Path_13486" data-name="Path 13486" d="M186.039,72.65V268.537L90.92,320.5V127.569Z" transform="translate(258.502 206.556)" fill="url(#linear-gradient-15)"/>
  <path id="Path_13487" data-name="Path 13487" d="M66.78,72.65V265.578L159.555,320.5V127.569Z" transform="translate(189.868 206.556)" fill="url(#linear-gradient-15)"/>
  <path id="Path_13597" data-name="Path 13597" d="M66.016,72.65l-5.51,257.741,98.31,50.864-.025-253.687Z" transform="translate(72.051 78.597)" fill="url(#linear-gradient-15)"/>
  <path id="Path_13488" data-name="Path 13488" d="M285.963,152.089,190.845,97.17,98.07,152.089l92.775,54.919Z" transform="translate(278.831 276.271)" fill="#f2f6fc"/>
  <path id="Path_13489" data-name="Path 13489" d="M217.329,111.46V227.294l-95.119,51.96V166.379Z" transform="translate(347.466 316.9)" fill="#d8e5f5"/>
  <path id="Path_13490" data-name="Path 13490" d="M98.07,111.46V224.334l92.775,54.919V166.379Z" transform="translate(278.831 316.9)" fill="#e8eff9"/>
  <path id="Path_13491" data-name="Path 13491" d="M93.475,74.914c19.216-11.145,50.845-11.145,70.138,0s19.216,29.362,0,40.507-50.845,11.107-70.138,0S74.182,86.059,93.475,74.914Z" transform="translate(224.626 189.227)" opacity="0.44" fill="url(#radial-gradient-4)" style="mix-blend-mode: multiply;isolation: isolate"/>
  <path id="Path_13492" data-name="Path 13492" d="M97.77,35.768l-.077,28.9-8.263-4.65V30.81Z" transform="translate(254.266 87.597)" fill="url(#linear-gradient-20)"/>
  <path id="Path_13493" data-name="Path 13493" d="M181.994,70.57l-5.8,1.038a37.241,37.241,0,0,0-9.3-7.34c-20.177-11.53-53.19-11.53-73.328,0a38.2,38.2,0,0,0-9.339,7.34l-5.8-1.038v6.3h0c0,7.686,5,15.373,15.142,21.291,20.138,11.53,53.151,11.53,73.328,0,10.108-5.88,15.373-13.6,15.1-21.291h0Z" transform="translate(222.963 158.137)" fill="#e5e9f4"/>
  <path id="Path_13494" data-name="Path 13494" d="M93.544,60.257c20.138-11.53,53.151-11.53,73.328,0s20.177,30.745,0,42.275-53.19,11.53-73.328,0S73.368,71.9,93.544,60.257Z" transform="translate(222.98 146.735)" fill="#fafbfd"/>
  <path id="Path_13495" data-name="Path 13495" d="M93.32,60.207c17.41-10.069,45.888-10.069,63.3,0s17.41,26.48,0,36.549-45.888,10.031-63.3,0S75.91,70.238,93.32,60.207Z" transform="translate(228.201 149.706)" fill="#a5cbef"/>
  <path id="Path_13496" data-name="Path 13496" d="M93.124,60.035a60.069,60.069,0,0,1,53.036,0c14.6,8.263,14.6,21.752,0,29.977a59.838,59.838,0,0,1-53.036,0C78.482,81.787,78.482,68.3,93.124,60.035Z" transform="translate(233.546 153.145)" fill="#fafbfd"/>
  <ellipse id="Ellipse_57" data-name="Ellipse 57" cx="30.592" cy="17.294" rx="30.592" ry="17.294" transform="translate(322.52 210.874)" fill="#a5cbef"/>
  <path id="Path_13497" data-name="Path 13497" d="M92.575,59.753a40.738,40.738,0,0,1,33.244,0c9.147,4.727,9.147,12.49,0,17.217a40.738,40.738,0,0,1-33.244,0C83.428,72.243,83.428,64.48,92.575,59.753Z" transform="translate(243.704 159.807)" fill="#fafbfd"/>
  <path id="Path_13498" data-name="Path 13498" d="M92.293,59.6a24.981,24.981,0,0,1,20.33,0c5.573,2.921,5.573,7.686,0,10.53a24.98,24.98,0,0,1-20.33,0C86.682,67.286,86.682,62.52,92.293,59.6Z" transform="translate(250.442 163.304)" fill="#a5cbef"/>
  <path id="Path_13499" data-name="Path 13499" d="M93.643,143.062a2.344,2.344,0,0,1-2.383-2.344V32.763a2.383,2.383,0,0,1,2.383-2.383,2.344,2.344,0,0,1,2.344,2.383V140.718A2.344,2.344,0,0,1,93.643,143.062Z" transform="translate(259.469 86.375)" fill="#0d3454"/>
  <path id="Path_13500" data-name="Path 13500" d="M91.88,37.489l.077,28.9,12.759-7.071V30.11Z" transform="translate(261.232 85.607)" fill="url(#linear-gradient-21)"/>
  <path id="Path_13502" data-name="Path 13502" d="M119.135,40.572h-1.5a21.253,21.253,0,0,0-8.493-8.148,53.574,53.574,0,0,0-48.347,0,21.1,21.1,0,0,0-8.455,8.148h-1.5v5.15h0c-.269,5.227,3,10.53,9.915,14.527a53.8,53.8,0,0,0,48.386,0c6.918-3.843,10.223-9.3,9.915-14.527h0Z" transform="translate(144.508 75.798)" fill="url(#linear-gradient-22)"/>
  <path id="Path_13503" data-name="Path 13503" d="M109.124,58.728c13.3-7.686,13.3-20.177,0-27.825a53.8,53.8,0,0,0-48.347,0c-13.259,7.686-13.259,20.177,0,27.825A53.8,53.8,0,0,0,109.124,58.728Z" transform="translate(144.526 71.554)" fill="#016c38"/>
  <path id="Path_13504" data-name="Path 13504" d="M56.29,24.18V42.7h0a6.687,6.687,0,0,0,3.843,5.073,20.83,20.83,0,0,0,18.6,0A6.649,6.649,0,0,0,82.577,42.7h0V24.18Z" transform="translate(160.043 68.747)" fill="url(#linear-gradient-23)"/>
  <path id="Path_13505" data-name="Path 13505" d="M79.326,30.281a21.406,21.406,0,0,1-19.216,0,8.3,8.3,0,0,1-3.536-3.613v-1.5H56.19v5.8h0A6.8,6.8,0,0,0,60.033,36.2a21.407,21.407,0,0,0,19.216,0,6.764,6.764,0,0,0,3.843-5.227h0V25.554l-.384.231v.884a8.224,8.224,0,0,1-3.382,3.613Z" transform="translate(159.759 71.561)" fill="#ffe188"/>
  <path id="Path_13506" data-name="Path 13506" d="M79.269,30.825a21.407,21.407,0,0,1-19.216,0A6.879,6.879,0,0,1,56.21,25.56h0v5.957h0a6.918,6.918,0,0,0,3.843,5.227,21.407,21.407,0,0,0,19.216,0,6.879,6.879,0,0,0,3.843-5.227h0V25.56h0a6.879,6.879,0,0,1-3.843,5.265Z" transform="translate(159.815 72.67)" fill="url(#linear-gradient-24)"/>
  <path id="Path_13507" data-name="Path 13507" d="M47.37,9.781,61.321,1.9a11.952,11.952,0,0,1,12.3.269l8.686,5.5-13.067,7.34L60.36,9.32a9.108,9.108,0,0,0-5.919-1.653Z" transform="translate(134.682 0.94)" fill="url(#linear-gradient-25)"/>
  <path id="Path_13508" data-name="Path 13508" d="M55.133,38.673,69.2,30.718A26.326,26.326,0,0,1,58.746,2.24a16.833,16.833,0,0,0-7.033,2.114,12.3,12.3,0,0,0-5.342,11.184Z" transform="translate(131.722 6.367)" fill="url(#linear-gradient-26)"/>
  <path id="Path_13509" data-name="Path 13509" d="M56.891,44.8l-10.3-27.325a6.649,6.649,0,0,1-.461-2.46A12.99,12.99,0,0,1,65.653,3.794L73.34,9.021l-.807,1.345L64.846,7.6c-3.536-2.037-6-3.42-9.57-1.384a11.145,11.145,0,0,0-6.264,9.454,5.265,5.265,0,0,0,.346,1.883l9.07,26.633Z" transform="translate(131.156 5.774)" fill="#ffda6a"/>
  <path id="Path_13510" data-name="Path 13510" d="M125.171,75.141c12.836-16.3,17.986-56.687,0-67.025s-47.348-10.3-65.334,0-12.068,50.269,0,67.025C68.868,87.708,80.59,97.623,92.389,97.623S117.139,85.325,125.171,75.141Z" transform="translate(137.78 1.068)" fill="url(#linear-gradient-27)"/>
  <path id="Path_13511" data-name="Path 13511" d="M119.4,40.391c16.065-9.224,16.065-24.289,0-33.474a64.566,64.566,0,0,0-58.147,0C45.3,16.1,45.3,31.167,61.249,40.391a64.566,64.566,0,0,0,58.147,0Z" transform="translate(140.133 0)" fill="#ffda6a"/>
  <path id="Path_13512" data-name="Path 13512" d="M117.405,38.7c15.373-8.762,15.373-23.059,0-31.9a63.182,63.182,0,0,0-56.226,0c-15.373,8.762-15.373,23.059,0,31.9A63.413,63.413,0,0,0,117.405,38.7Z" transform="translate(141.164 0.575)" fill="url(#linear-gradient-28)"/>
  <path id="Path_13513" data-name="Path 13513" d="M63.36,57.268a81.552,81.552,0,0,0,17.525-2.46c3.267-.845,11.222-4.727,13.259-10.607,2.267-6.687,4.266-16.218.384-23.29A19.216,19.216,0,0,0,80.347,11.38l-1.076,5.8a8.724,8.724,0,0,1,8.148.538,14.8,14.8,0,0,1,6.188,10.223,22.367,22.367,0,0,1-5.035,19.869s-14.6,7.686-23.559,6.995Z" transform="translate(180.144 32.354)" fill="#ffda6a"/>
  <path id="Path_13514" data-name="Path 13514" d="M67.78,17.066,78.157,9.38S108.9,33.131,74.967,57.3a41.466,41.466,0,0,0,4.8-5.842C84.344,43.2,89.686,25.521,67.78,17.066Z" transform="translate(192.711 26.667)" fill="url(#linear-gradient-29)"/>
  <path id="Path_13515" data-name="Path 13515" d="M63.79,28.082l10.838-6.457s9.8,2.421,13.028-.845C87.656,20.7,82.429,28.082,63.79,28.082Z" transform="translate(181.367 59.079)" fill="url(#linear-gradient-30)"/>
  <path id="Path_13516" data-name="Path 13516" d="M31.24,344.555h-.269a1.96,1.96,0,0,1-1.653-2.152L68.289,44.249a1.938,1.938,0,0,1,3.843.5L33.124,342.9A1.922,1.922,0,0,1,31.24,344.555Z" transform="translate(83.325 121.006)" fill="#0d3454"/>
  <path id="Path_13517" data-name="Path 13517" d="M46.075,361.508h-.231a1.883,1.883,0,0,1-1.653-2.114L81.932,49.556a1.845,1.845,0,0,1,2.114-1.691A1.96,1.96,0,0,1,85.7,50.017L48,359.74A1.96,1.96,0,0,1,46.075,361.508Z" transform="translate(125.6 136.03)" fill="#0d3454"/>
  <path id="Path_13518" data-name="Path 13518" d="M94.832,83.345,39.26,50.255l.615-4.035,56,33.32Z" transform="translate(111.623 131.41)" fill="#0d3454"/>
  <path id="Path_13519" data-name="Path 13519" d="M93.382,95.235,37.81,62.184l.653-4.074L94.42,91.43Z" transform="translate(107.501 165.216)" fill="#0d3454"/>
  <path id="Path_13520" data-name="Path 13520" d="M91.9,107.135,36.37,74.045l.615-4.035,55.957,33.32Z" transform="translate(103.407 199.05)" fill="#0d3454"/>
  <path id="Path_13521" data-name="Path 13521" d="M90.454,119.025,34.92,85.935l.615-4.035,56,33.32Z" transform="translate(99.284 232.855)" fill="#0d3454"/>
  <path id="Path_13522" data-name="Path 13522" d="M89,130.915,33.47,97.864l.615-4.074,56,33.32Z" transform="translate(95.161 266.661)" fill="#0d3454"/>
  <path id="Path_13523" data-name="Path 13523" d="M87.592,142.815,32.02,109.725l.653-4.035L88.63,139.01Z" transform="translate(91.039 300.494)" fill="#0d3454"/>
  <path id="Path_13524" data-name="Path 13524" d="M86.142,154.705,30.57,121.654l.653-4.074L87.18,150.9Z" transform="translate(86.916 334.3)" fill="#0d3454"/>
  <path id="Path_13525" data-name="Path 13525" d="M42.966,110.78l18.447-9.493a2.5,2.5,0,0,0,0-4.42h-.307a13.413,13.413,0,0,0-10.261-.653l-13.8,3.19a3.42,3.42,0,0,0-2.767,3.344v3.075a3.574,3.574,0,0,0,1.768,3.036l3.19,1.845A3.843,3.843,0,0,0,42.966,110.78Z" transform="translate(97.464 271.5)" fill="#0d3454"/>
  <path id="Path_13526" data-name="Path 13526" d="M41.936,168.255c-3.843,0-7.686.461-7.686-3.42l.538-84.55a7.033,7.033,0,0,1,7.033-6.995,8.3,8.3,0,0,1,7.686,7.917l-.538,79.977a7.033,7.033,0,0,1-7.033,7.071Z" transform="translate(97.379 208.376)" fill="url(#linear-gradient-31)"/>
  <path id="Path_13527" data-name="Path 13527" d="M34.42,76.78v5.15A20.6,20.6,0,0,0,43.605,99.07l5.15,3.42.231-19.946Z" transform="translate(97.862 218.298)" fill="#3c5185" opacity="0.3"/>
  <path id="Path_13528" data-name="Path 13528" d="M49.689,101.858l18.447-9.57a2.5,2.5,0,0,0,0-4.42h-.269a13.49,13.49,0,0,0-10.3-.653L43.809,90.6A3.382,3.382,0,0,0,41.08,93.98v3.036a3.42,3.42,0,0,0,1.768,3.036L46,101.9A3.843,3.843,0,0,0,49.689,101.858Z" transform="translate(116.798 245.91)" fill="#0d3454"/>
  <path id="Path_13529" data-name="Path 13529" d="M66.655,143.716h-.423c-3.843-.231-6.226-2.383-6.264-3.613l4.151-24.673-11.3-7.071a20.753,20.753,0,0,1-15.373-5.611,10.108,10.108,0,0,1-3.036-7.379V77.575a7.264,7.264,0,0,1,6.341-7.3,7.033,7.033,0,0,1,7.686,6.995V87.3a7.148,7.148,0,0,0,2.229,5.342,6.61,6.61,0,0,0,5,1.729l6.726-2,14.527,12.644a8.224,8.224,0,0,1,1.46,5.227l-4.727,26.9a7.033,7.033,0,0,1-6.995,6.572Z" transform="translate(97.833 199.71)" fill="url(#linear-gradient-32)"/>
  <path id="Path_13530" data-name="Path 13530" d="M50.589,90.12,35.87,64.794a4.424,4.424,0,1,1,7.686-4.381L55.086,80.32l23.059-4.65a4.447,4.447,0,1,1,1.729,8.724Z" transform="translate(100.332 165.411)" fill="#f2b1b5"/>
  <path id="Path_13531" data-name="Path 13531" d="M68.048,76.785l-1.729,55c-8.493,4.881-27.248,2.229-32.129-6.226V66.178a9.224,9.224,0,0,1,13.835-7.994l13.989,8.109a12.106,12.106,0,0,1,6.034,10.492Z" transform="translate(97.209 161.913)" fill="#fff"/>
  <path id="Path_13532" data-name="Path 13532" d="M44.245,92.617a4.42,4.42,0,0,1-4.112-2.882,4.343,4.343,0,0,1,2.613-5.611L64.5,76.053a4.8,4.8,0,0,0,2.344-1.922L78.988,54.915A4.488,4.488,0,0,1,86.52,59.8L74.222,78.82a13.259,13.259,0,0,1-6.687,5.3L45.821,92.194A4.381,4.381,0,0,1,44.245,92.617Z" transform="translate(113.325 150.31)" fill="#f2b1b5"/>
  <path id="Path_13533" data-name="Path 13533" d="M39.947,65.327s-.231,1.268,1.576,2.383c.5.346,1.115,1.46,1.729,1.576l8.186,4.266.269-9.493a11.532,11.532,0,0,0,0-1.191L45.4,61.6a4.266,4.266,0,0,0-5.457,3.728Z" transform="translate(113.55 174.64)" fill="#48486a" opacity="0.3"/>
  <path id="Path_13534" data-name="Path 13534" d="M44.872,74.591a5.265,5.265,0,0,1-1.845-10.184l12.337-4.573a5.265,5.265,0,1,1,3.651,9.877l-12.3,4.573A5.151,5.151,0,0,1,44.872,74.591Z" transform="translate(112.699 169.181)" fill="#fff"/>
  <path id="Path_13535" data-name="Path 13535" d="M36.278,51.34H58.915V64.023a13.72,13.72,0,0,1-13.72,13.72H43.427a7.187,7.187,0,0,1-7.187-7.187V51.34Z" transform="translate(103.037 145.967)" fill="#f2b1b5"/>
  <path id="Path_13536" data-name="Path 13536" d="M38,55.18h7.34a1.076,1.076,0,0,1,1.076,1.076v13.6a4.381,4.381,0,0,1-4.381,4.381H41.3A4.381,4.381,0,0,1,37,69.861v-13.6A1.076,1.076,0,0,1,38,55.18Z" transform="translate(105.198 156.885)" fill="#f2b1b5"/>
  <path id="Path_13537" data-name="Path 13537" d="M56.146,66.959c.5,2.537-2.844,5.073-5.457,5.073A4.65,4.65,0,0,1,46,67.343c0-2.575.653-5.073,3.267-5.073A8.724,8.724,0,0,1,56.146,66.959Z" transform="translate(130.787 177.044)" fill="#f2b1b5"/>
  <path id="Path_13538" data-name="Path 13538" d="M50.449,55.217c3.843-3.843,8.686-3.075,9.723-.73a4.65,4.65,0,0,1-2.344,6.149c-2.344,1.076-2.267-1.614-3.344-3.843S48.643,57.061,50.449,55.217Z" transform="translate(142.286 149.354)" fill="#f2b1b5"/>
  <path id="Path_13539" data-name="Path 13539" d="M49.8,64.734a2.344,2.344,0,1,1-2.344-2.344A2.344,2.344,0,0,1,49.8,64.734Z" transform="translate(128.256 177.385)" fill="#f2b1b5"/>
  <rect id="Rectangle_181" data-name="Rectangle 181" width="8.647" height="3.267" rx="0.39" transform="translate(189.984 200.284) rotate(52.43)" fill="#f2b1b5"/>
  <path id="Path_13540" data-name="Path 13540" d="M64.895,50.391c0,.653-.845.922-1.46,1a35.741,35.741,0,0,1-12.913-1,32.091,32.091,0,0,0-5.688-1,8.224,8.224,0,0,0-5.419,1.614,4.8,4.8,0,0,0-1.691,5.15c-1.845.653-2.383,3-2.421,4.958A25.212,25.212,0,0,0,36.378,68.8a10.723,10.723,0,0,1,1.076,4.189,7.456,7.456,0,0,0,.346,4.65c.269.5.961,1.537,1.614,1.653s1.537-.922,2.267-1.307l2.229-1a6.841,6.841,0,0,0,3.843-3.536c.423-1.307,0-2.729.5-4.074s1.038-1.691,1.883-1.422.846.807,1.076,1.384l.922,2.229a2.268,2.268,0,0,0,.384.653,1.076,1.076,0,0,0,1.576-.346,2.306,2.306,0,0,0,0-1.768A14.95,14.95,0,0,1,53.75,68.3a4.535,4.535,0,0,1,3.382-3.843c1.729-.576,3.613-.653,5.3-1.307A7.686,7.686,0,0,0,64.7,50.468Z" transform="translate(100.362 140.383)" fill="url(#linear-gradient-33)"/>
  <path id="Path_13541" data-name="Path 13541" d="M52.07,49.64a.961.961,0,0,1-.384.615,7.686,7.686,0,0,1-2.844,12.068c-1.691.653-3.574.73-5.3,1.307a4.458,4.458,0,0,0-3.344,3.843,7.686,7.686,0,0,0,.346,1.806,2.344,2.344,0,0,1-.231,1.768,1.345,1.345,0,0,1-.5.423,1.191,1.191,0,0,0,1.46-.423,2.306,2.306,0,0,0,0-1.768,14.944,14.944,0,0,1-.346-1.806,4.535,4.535,0,0,1,3.382-3.843c1.729-.576,3.613-.653,5.3-1.307A7.686,7.686,0,0,0,51.878,49.64Z" transform="translate(113.187 141.134)" fill="#ffda6a"/>
  <path id="Path_13542" data-name="Path 13542" d="M4.621,133.6v6.3a4.343,4.343,0,0,0,2.152,3.843l.884.615a12.221,12.221,0,0,0,11.991,0l11.145-6.034a1.883,1.883,0,0,0,0-3.305h0c-2.114-1.23-4.612-3.075-6.918-2.767a22.483,22.483,0,0,1-3.19.346l-5.15.692Z" transform="translate(13.135 375.928)" fill="#4a65a3"/>
  <path id="Path_13543" data-name="Path 13543" d="M30.793,134.266l-11.145,5.88a12.221,12.221,0,0,1-11.991,0l-.884-.615a4.42,4.42,0,0,1-2.152-3.843v1.46a4.343,4.343,0,0,0,2.152,3.843l.884.615a12.221,12.221,0,0,0,11.991,0l11.145-6.034a1.883,1.883,0,0,0,.846-2.383,1.845,1.845,0,0,1-.846,1.076Z" transform="translate(13.135 378.682)" fill="#0d3454"/>
  <path id="Path_13544" data-name="Path 13544" d="M10.626,136.086l1.307-.653L10.4,132.32H8.82Z" transform="translate(25.077 376.209)" fill="#fff"/>
  <path id="Path_13545" data-name="Path 13545" d="M10.06,136.541l1.268-.653L9.6,132.39l-1.5.192Z" transform="translate(23.03 376.408)" fill="#fff"/>
  <path id="Path_13546" data-name="Path 13546" d="M9.321,136.758v6.3a4.343,4.343,0,0,0,2.152,3.843l.884.615a12.221,12.221,0,0,0,11.991.192l11.145-6.034a1.883,1.883,0,0,0,0-3.305h0c-2.114-1.23-4.612-3.075-6.918-2.767a22.481,22.481,0,0,1-3.19.346l-5.15.692Z" transform="translate(26.498 385.452)" fill="#4a65a3"/>
  <path id="Path_13547" data-name="Path 13547" d="M35.493,137.3l-11.145,6.034a12.144,12.144,0,0,1-11.991,0l-.884-.615a4.42,4.42,0,0,1-2.152-3.843v1.46a4.343,4.343,0,0,0,2.152,3.843l.884.615a12.221,12.221,0,0,0,11.991.192l11.145-6.034a1.883,1.883,0,0,0,.846-2.383,1.653,1.653,0,0,1-.846.73Z" transform="translate(26.498 388.292)" fill="#0d3454"/>
  <path id="Path_13548" data-name="Path 13548" d="M17.273,147.6a3.305,3.305,0,0,1-2.383-.961l-6.418-6.188a23.059,23.059,0,0,1,1.537-34.4l7.11-5.726a3.42,3.42,0,0,1,4.8.5,3.459,3.459,0,0,1-.5,4.842l-7.11,5.726a16.1,16.1,0,0,0-1.076,24.135l6.418,6.188a3.42,3.42,0,0,1-2.383,5.88Z" transform="translate(4.287 283.1)" fill="#0d3454"/>
  <path id="Path_13549" data-name="Path 13549" d="M10.435,201.8a5.5,5.5,0,0,1-5.38-6l1.883-37.932L4.44,116.6a6,6,0,0,1,6-6c3.305,0,9.762,2.69,9.762,6L16.354,195.8a6,6,0,0,1-5.919,6Z" transform="translate(12.624 314.454)" fill="url(#linear-gradient-34)"/>
  <path id="Path_13550" data-name="Path 13550" d="M6.9,129.061c0-4.842,2.652-27.479,6.841-25.058L35.69,116.648c2.075,1.23-2.959-.461-2.959,1.96v24.981A5.919,5.919,0,0,1,35.69,148.7v79.208a6,6,0,0,1-11.991,0l.769-40.546L21.432,161.69,7.674,154a6.726,6.726,0,0,1-3.344-5.842Z" transform="translate(12.311 295.186)" fill="url(#linear-gradient-35)"/>
  <path id="Path_13551" data-name="Path 13551" d="M12.6,116.425a3.42,3.42,0,0,1-2.383,5.88,3.305,3.305,0,0,1-2.383-.961L3.99,117.694a5.346,5.346,0,0,1,.231-2.191c.231-2.344.269-4.689.346-7.033a17.256,17.256,0,0,0,1.576,1.768Z" transform="translate(11.344 308.399)" fill="#231f20"/>
  <path id="Path_13552" data-name="Path 13552" d="M4.78,111.455l1.191,18.486c-.384,3.843-.269,7.686-.653,11.8A175.135,175.135,0,0,0,4.28,160.725a22.1,22.1,0,0,0,9.377,7.187c.461.269.961-11.8,1.46-11.53S16.04,169.1,16.5,169.334c6.61,2.959,14.45,4.842,19.792,2.267l-.615-22.56,1.076-14.066c.692-9.646,2.537-22.521-6.956-28.44l-1.23-.73-9.992-5.534a7.686,7.686,0,0,0-7.686,0h0A12.068,12.068,0,0,0,4.78,111.455Z" transform="translate(12.169 282.162)" fill="#0d3454"/>
  <path id="Path_13553" data-name="Path 13553" d="M11,116.45a3.42,3.42,0,0,1-3.459-3.42V99.578a3.459,3.459,0,1,1,6.879,0v13.451A3.42,3.42,0,0,1,11,116.45Z" transform="translate(21.395 272.248)" fill="#f2b1b5"/>
  <path id="Path_13554" data-name="Path 13554" d="M7.62,116.93h0V94.14H24.453v5.919A16.872,16.872,0,0,1,7.62,116.93Z" transform="translate(21.665 267.656)" fill="#f2b1b5"/>
  <path id="Path_13555" data-name="Path 13555" d="M33.295,95.179a3.536,3.536,0,0,0-4.766-1.922,2.152,2.152,0,0,1-2.421,0c-1.191-.692-1.46-1.153-3.075-.961a18.136,18.136,0,0,1-2.075.653c-1.307,0-2.152-1.038-3.843-.615a4.112,4.112,0,0,1-2.537.269,4.765,4.765,0,0,0-2.421.231c-1.537.615-1.422,1.768-2.306,2.806s-1.806.307-2.69,1.115A2.536,2.536,0,0,0,6.584,99.6c.231.423.576.922.384,1.345s-.461.5-.73.73c-.884.884,0,2.383.5,3.42a1.076,1.076,0,0,1,.269.653c0,.346-.269.576-.461.846a3.113,3.113,0,0,0,.692,3.958c.538.461,1.268.807,1.384,1.5a3.075,3.075,0,0,1-.231,1.153,3.459,3.459,0,0,0,1.729,3.843c1.537.769,0,3.574,2.5,3.843s3.613-2.152,3.843-3.843c0,.231,1.191-.423,1.307-.538a4.112,4.112,0,0,0,.576-1.537,11.53,11.53,0,0,0,.615-3.036c0-.384,0-4.766.346-4.8a6.688,6.688,0,0,0,2.46-.346c1.806-.692,1.038-1.922,1.768-3.19.307-.615,1.115-.769,1.5-1.384a3.843,3.843,0,0,0,0-2.383,9.109,9.109,0,0,0,5.265,0c1.307-.538,3.113-1.46,3.151-3.036a4.689,4.689,0,0,0-.154-1.614Z" transform="translate(16.667 262.236)" fill="#0d3454"/>
  <path id="Path_13556" data-name="Path 13556" d="M17.622,96.519c0,1.576-1.845,2.5-3.151,3.036a5.688,5.688,0,0,1-2.921.346,4.765,4.765,0,0,0,1.5-.346c1.268-.538,3.113-1.46,3.113-3.036a3.843,3.843,0,0,0-.423-1.922,4.035,4.035,0,0,0-2.575-2.191,3.843,3.843,0,0,1,3.958,2.344A4.689,4.689,0,0,1,17.622,96.519Z" transform="translate(32.839 262.664)" fill="#ef9ea3" opacity="0.2"/>
  <path id="Path_13557" data-name="Path 13557" d="M14.1,98.518a2.5,2.5,0,1,1-2.5-2.5A2.5,2.5,0,0,1,14.1,98.518Z" transform="translate(25.873 273.001)" fill="#f2b1b5"/>
  <path id="Path_13558" data-name="Path 13558" d="M15.336,139.386l1.307-.653-1.576-3.113H13.53Z" transform="translate(38.468 385.591)" fill="#fff"/>
  <path id="Path_13559" data-name="Path 13559" d="M14.722,139.841l1.307-.653-1.729-3.5-1.5.192Z" transform="translate(36.393 385.79)" fill="#fff"/>
  <path id="Path_13560" data-name="Path 13560" d="M14.751,140.956h0l16.18-5.88a16.718,16.718,0,0,0,10.684-12.49l4.919-25.826a3.42,3.42,0,1,0-6.687-1.23L35,121.356a9.8,9.8,0,0,1-6.264,7.34l-16.18,5.88a3.42,3.42,0,0,0-2.037,4.381,3.382,3.382,0,0,0,4.227,2Z" transform="translate(29.331 262.577)" fill="#f2b1b5"/>
  <path id="Path_13561" data-name="Path 13561" d="M14.982,138.066h0l16.18-5.842a17.064,17.064,0,0,0,10.876-12.8l3.843-20.638a3.843,3.843,0,1,0-7.417-1.422L34.62,118a9.531,9.531,0,0,1-6.072,7.071l-16.18,5.88a3.843,3.843,0,0,0,2.5,7.187Z" transform="translate(29.253 265.928)" fill="#0d3454"/>
  <path id="Path_13562" data-name="Path 13562" d="M18.372,100.8h0a.692.692,0,0,0,.807-.5l1.691-8.263a.692.692,0,0,0-.538-.807h0a.653.653,0,0,0-.769.538l-1.537,8.224A.653.653,0,0,0,18.372,100.8Z" transform="translate(51.151 259.345)" fill="#f2b1b5"/>
  <path id="Path_13563" data-name="Path 13563" d="M50.779,191.262A4.266,4.266,0,0,0,52.7,190.8a4.035,4.035,0,0,0,1.614-5.5l-13.3-24.4a5.957,5.957,0,0,1,1.883-7.686L60.31,141.3a4.051,4.051,0,1,0-4.573-6.687l-17.41,11.914a14.028,14.028,0,0,0-4.42,18.409L47.2,189.3A3.843,3.843,0,0,0,50.779,191.262Z" transform="translate(91.419 380.718)" fill="#ef9ea3"/>
  <path id="Path_13564" data-name="Path 13564" d="M50.374,134.159h0a1.153,1.153,0,0,0,1.46-.653l3.113-8.071a1.076,1.076,0,0,0-.653-1.422h0a1.115,1.115,0,0,0-1.46.615L49.721,132.7a1.153,1.153,0,0,0,.653,1.46Z" transform="translate(141.17 352.349)" fill="#f2b1b5"/>
  <path id="Path_13565" data-name="Path 13565" d="M41.077,186.1l4.074-2.383,4.266-2.46,9.608-5.573a3.267,3.267,0,0,0-.538-5.88h0a7.11,7.11,0,0,0-5.611.269l-7.417,3.613L36.5,176.991a1.806,1.806,0,0,0-1.191,1.806v2.383a5.265,5.265,0,0,0,5.227,4.919Z" transform="translate(100.39 481.5)" fill="#48486a"/>
  <path id="Path_13566" data-name="Path 13566" d="M39.3,173.466l5.842-1.422,4.381-2.114a3.267,3.267,0,0,1,0,5.649l-6.495,3.843H42.72a4.573,4.573,0,0,1-5.534-.692c-1.115-1.114-2.037-2.229-1.691-2.69l2.537-.807a1.806,1.806,0,0,1,1.268-1.768Z" transform="translate(100.708 483.141)" fill="#f2b1b5"/>
  <path id="Path_13567" data-name="Path 13567" d="M42.1,249.023c2.806,0,3.843-2.268,3.843-5.035V150.753a5.073,5.073,0,0,0-5.073-5.073c-2.767,0-6,18.178-6,20.984l1,33.051.961,44.158a5.073,5.073,0,0,0,5.265,5.15Z" transform="translate(99.142 414.193)" fill="#f2b1b5"/>
  <path id="Path_13568" data-name="Path 13568" d="M45.52,188.6l4.074-2.383,4.266-2.46,9.685-5.573a3.267,3.267,0,0,0-.538-5.88h0a7.11,7.11,0,0,0-5.611.269l-7.417,3.613-8.955,3.305a1.806,1.806,0,0,0-1.191,1.806v2.383a5.265,5.265,0,0,0,5.227,4.919Z" transform="translate(113.242 488.607)" fill="#48486a"/>
  <path id="Path_13569" data-name="Path 13569" d="M43.8,175.966l5.842-1.422,4.381-2.114a3.267,3.267,0,0,1,0,5.65l-6.495,3.843H47.22a4.573,4.573,0,0,1-5.534-.692c-1.114-1.115-2.037-2.229-1.691-2.69l2.537-.807A1.806,1.806,0,0,1,43.8,175.966Z" transform="translate(113.502 490.249)" fill="#f2b1b5"/>
  <path id="Path_13570" data-name="Path 13570" d="M48.9,251.438c2.806,0,3.843-2.267,3.843-5.035v-93.12a5.073,5.073,0,0,0-4.8-5.073c-2.767,0-9.377,3.843-9.377,6.61l4.381,47.425L43.9,246.4a5.073,5.073,0,0,0,5,5.035Z" transform="translate(109.633 421.387)" fill="#f2b1b5"/>
  <path id="Path_13571" data-name="Path 13571" d="M42,169.744h.653l4.074-.692a54.151,54.151,0,0,0,40.353-30.745l3.382-7.379a4.074,4.074,0,0,0-7.379-3.382L79.7,134.925a46.118,46.118,0,0,1-34.243,26.134l-4.112.692A4.035,4.035,0,0,0,42,169.745Z" transform="translate(108.273 356.77)" fill="#f2b1b5"/>
  <path id="Path_13572" data-name="Path 13572" d="M37.962,189.591h0l-2.421-51.768a7.686,7.686,0,0,1,11.53-6.841h0a7.071,7.071,0,0,1,2.306,2.229,82.9,82.9,0,0,0,11.107,13.3c1.191-.307,2.383-.692,3.536-1.076a5.073,5.073,0,1,1,3.382,9.531l-1.422.423a20.022,20.022,0,0,1,.884,5.957l-3,23.059L67.4,206.924l1.23,39.239a13.99,13.99,0,0,1-8.455,2c-.307,0-3.843-.192-4.535-.346-8.647-1.5-16.756-2.075-20.023-8.532l-1.268-16.41a97.5,97.5,0,0,1,3.613-33.282Z" transform="translate(97.087 369.475)" fill="url(#linear-gradient-36)"/>
  <path id="Path_13573" data-name="Path 13573" d="M39.921,144.733h0a3,3,0,0,0,3-3V127.9H37v13.835A3,3,0,0,0,39.921,144.733Z" transform="translate(105.198 363.642)" fill="#f2b1b5"/>
  <path id="Path_13574" data-name="Path 13574" d="M39.052,146.3l6,.769a6.995,6.995,0,0,0,7.994-7.456v-.73L49.966,124.74l-14.8,3.228Z" transform="translate(99.995 354.658)" fill="#f2b1b5"/>
  <path id="Path_13575" data-name="Path 13575" d="M34.264,165.048a8.264,8.264,0,0,0,1.268-3.151c.231-2.421-1.729-4.458-2.191-6.8-.692-3.5,1.729-6.687,1.576-10.146a30.745,30.745,0,0,1,0-10.915,15.374,15.374,0,0,1,.615-1.729,14.758,14.758,0,0,1,11.991-8.263,21.216,21.216,0,0,1,6.61,0,10.685,10.685,0,0,1,3.843.961,3.459,3.459,0,0,1,1.268,1.076,3.843,3.843,0,0,1,.576,2.46c-.192,1.96-2.652,2.652-2.882,4.458a20.865,20.865,0,0,0,.615,2.921,7.686,7.686,0,0,1-.615,3.574c-.961,2.114-2.959,3.843-2.882,6.226a19.94,19.94,0,0,0,.692,3c.538,3.613-3.267,6.38-2.267,10.069.615,2.344,3.305,4.074,3.036,6.495a25.943,25.943,0,0,1-.846,2.806c-.346,2,1.115,4.189.231,6-3,6.264-13.49,5.188-18.37,2.46a8.109,8.109,0,0,1-3.075-2.729A8.993,8.993,0,0,1,34.264,165.048Z" transform="translate(92.908 351.935)" fill="url(#linear-gradient-37)"/>
  <path id="Path_13576" data-name="Path 13576" d="M49.429,155.371a49.306,49.306,0,0,1-14.719-2.229c.5-2.229,1.038-4.458,1.653-6.649V145.11a41.776,41.776,0,0,0,26.441,0l1.268,8.148A48.154,48.154,0,0,1,49.429,155.371Z" transform="translate(98.687 412.573)" fill="#48486a"/>
  <path id="Path_13577" data-name="Path 13577" d="M124.671,112.507a62.375,62.375,0,0,1,71.944,0c19.754,15.373,19.754,40.084,0,55.3a62.529,62.529,0,0,1-71.944,0C104.917,152.591,104.917,127.649,124.671,112.507Z" transform="translate(312.338 287.414)" opacity="0.6" fill="url(#radial-gradient-5)" style="mix-blend-mode: multiply;isolation: isolate"/>
  <path id="Path_13578" data-name="Path 13578" d="M203.858,113.5c0-1.153-1.653-2.114-3.651-2.114H192.52c-1.307,0-3.42,1.384-3.843.961a1.37,1.37,0,0,1,.538-2l5.5-3.151c1.422-.807-7.686-.423-9.031-1.23V99.127a5.688,5.688,0,0,0-5.111,0l-5.534,3.19a4.8,4.8,0,0,1-3.305.346l-2.383-.538c-1.153-.269-1.883-.922-1.883-1.614v-4.5c0-1.153-1.614-2.114-3.613-2.114H151.206c-2,0-3.843.961-3.843,2.114v4.458c0,.73-.807,1.345-2,1.614l-2.267.538a4.881,4.881,0,0,1-3.42-.308l-5.5-3.151a5.765,5.765,0,0,0-5.15,0l-.653,7.456c-1.422.807-9.646,0-8.224.653l5.534,3.19c.845.5,1.115,1.23.615,1.883s-2.5-.884-3.843-.884h-7.686c-2,0-3.613.961-3.613,2.114v10.607c0,1.153,1.653,2.075,3.843,2.075h4.535v8.762a.923.923,0,0,0,0,.461h0a1.883,1.883,0,0,0,1.038,1.268l8.955,5.111a5.419,5.419,0,0,0,3.19.538h0a4.881,4.881,0,0,0,1.883-.538l5.534-3.19a4.766,4.766,0,0,1,3.305-.346l2.344.538c1.153.269,1.922.884,1.922,1.614v4.5c0,1.153,1.653,2.075,3.843,2.075h12.606c2.037,0,3.843-.922,3.843-2.075V140.4c0-.769.846-1.384,2.037-1.653l2.152-.5a4.881,4.881,0,0,1,3.42.307l5.5,3.151a4.881,4.881,0,0,0,1.883.538h0a5.342,5.342,0,0,0,3.151-.538l8.916-5.15a1.922,1.922,0,0,0,1-1.191h0v-9.262h4.5c2,0,3.613-.922,3.613-2.075Zm-28.593,8.839c-2.075,6.418-13.643,10.069-24.058,7.686-7.686-1.768-12.721-6.687-11.145-11.53,2.114-6.457,13.682-10.069,24.058-7.686C172.036,112.616,176.84,117.536,175.264,122.34Z" transform="translate(316.049 266.973)" fill="url(#linear-gradient-38)"/>
  <path id="Path_13579" data-name="Path 13579" d="M189.922,104.692V99h-8.148l-1.845-1.038a5.688,5.688,0,0,0-5.111,0L173.012,99h-11.3V94.854c0-1.153-1.614-2.114-3.613-2.114H145.456c-2,0-3.843.961-3.843,2.114V99h-11.53l-1.729-1a5.765,5.765,0,0,0-5.15,0l-1.729,1H113.25v5.573a1.691,1.691,0,0,0,1.076,1.537l5.534,3.19h63.259l5.5-3.151a1.844,1.844,0,0,0,1.038-1.345Z" transform="translate(321.991 263.676)" fill="url(#linear-gradient-39)"/>
  <path id="Path_13580" data-name="Path 13580" d="M190.017,123.573h9.915c2,0,3.613-.922,3.613-2.075v-7.264c0-1.153-1.653-2.114-3.651-2.114h-7.686a3.343,3.343,0,0,1-2.844-1.153,14.271,14.271,0,0,0-.884-1.23c-.538-.692-.346-1.46.538-2l5.5-3.151c1.422-.807,1.422-2.114,0-2.959l-8.955-5.111a5.688,5.688,0,0,0-5.111,0l-5.534,3.151a4.612,4.612,0,0,1-3.305.384l-2.383-.538c-1.153-.269-1.883-.922-1.883-1.614V93.4c0-1.153-1.614-2.114-3.613-2.114H151.085c-2,0-3.843.961-3.843,2.114v4.458c0,.73-.807,1.345-2,1.614l-2.267.538a4.881,4.881,0,0,1-3.42-.307l-5.5-3.151a5.765,5.765,0,0,0-5.15,0l-8.762,5.15c-1.422.807-1.384,2.152,0,2.959l5.534,3.19c.846.5,1.115,1.23.615,1.883l-.922,1.384a3.536,3.536,0,0,1-2.806,1.076h-7.686c-2,0-3.613.961-3.613,2.114v7.264c0,1.153,1.653,2.075,3.843,2.075H122.8a3.421,3.421,0,0,1,2.844,1.153,9.345,9.345,0,0,0,.922,1.23c.5.692.346,1.46-.577,2l-5.457,3.151a1.576,1.576,0,0,0,0,2.959l8.955,5.111a5.688,5.688,0,0,0,5.111,0l5.534-3.19a4.573,4.573,0,0,1,3.305-.346l2.344.538c1.153.269,1.922.884,1.922,1.614v4.5c0,1.153,1.653,2.075,3.843,2.075h12.606c2.037,0,3.843-.922,3.843-2.075v-4.5c0-.73.846-1.345,2.037-1.614l2.152-.5a4.689,4.689,0,0,1,3.42.308l5.5,3.151a5.765,5.765,0,0,0,5.15,0l8.916-5.15a1.576,1.576,0,0,0,0-2.959l-5.534-3.151c-.884-.5-1.115-1.268-.653-1.922A13.846,13.846,0,0,0,190.017,123.573Zm-50.269-7.686c2.114-6.418,13.682-10.031,24.058-7.686,7.917,1.729,12.721,6.649,11.145,11.53-2.075,6.418-13.643,10.031-24.058,7.686-7.879-1.691-12.721-6.495-11.145-11.414Z" transform="translate(316.361 259.553)" fill="url(#linear-gradient-40)"/>
  <path id="Path_13581" data-name="Path 13581" d="M52.215,27.1l-1.883,4.189L45.1,28.407s-.384,0-.307.307l3.459,6.533L47.18,40.82a.384.384,0,0,0,.384.423l4.343-.423,4.65,5.649a.231.231,0,0,0,.384,0l-.653-6.149L60.555,37.9v-.346L55.02,34.325l-2.5-7.225Z" transform="translate(127.339 77.049)" fill="url(#linear-gradient-41)"/>
  <path id="Path_13582" data-name="Path 13582" d="M45.775,29.564l3.843,2.114.615-1.384L45.045,27.45s-.384,0-.307.307Z" transform="translate(127.168 78.044)" fill="#ffc107"/>
  <path id="Path_13583" data-name="Path 13583" d="M55.742,37.361l-5.534-3.228L47.71,27.1H47.4l-.922,2.037,2,5.842,5.534,3.19v.346l-4.266,2.421.384,3.843,1.537,1.845a.231.231,0,0,0,.384,0L51.4,40.474l4.266-2.421Z" transform="translate(132.151 77.049)" fill="#ffc107"/>
  <path id="Path_13584" data-name="Path 13584" d="M44.192,17.4,41.348,23.55l-7.686-4.189a.313.313,0,0,0-.461.423l5.035,9.608L36.66,37.539a.577.577,0,0,0,.576.653l6.38-.615,6.8,8.3a.346.346,0,0,0,.576-.269l-.961-9.07,6.3-3.574a.269.269,0,0,0,0-.5l-8.148-4.727-3.843-10.3a.231.231,0,0,0-.154-.038Z" transform="translate(94.163 49.469)" fill="url(#linear-gradient-42)"/>
  <path id="Path_13585" data-name="Path 13585" d="M34.623,21.021l5.8,3.151.922-2.037-7.686-4.151a.313.313,0,0,0-.461.423Z" transform="translate(94.163 50.845)" fill="#ffc107"/>
  <path id="Path_13586" data-name="Path 13586" d="M49.387,32.607,41.239,27.88,37.4,17.581a.231.231,0,1,0-.461,0l-1.345,3,3,8.57,8.186,4.727a.307.307,0,0,1,0,.5l-6.3,3.536.576,5.419,2.229,2.729a.346.346,0,0,0,.576-.269l-.961-9.07,6.3-3.574a.286.286,0,1,0,.192-.538Z" transform="translate(101.189 49.328)" fill="#ffc107"/>
  <path id="Path_13587" data-name="Path 13587" d="M50.661,3.992,46.971,12.37l-10.223-5.8a.461.461,0,0,0-.615.615L42.9,20.056,40.822,30.971a.692.692,0,0,0,.692.884l8.57-.846,9.108,11.068a.423.423,0,0,0,.769-.346L58.808,29.511l8.455-4.727a.384.384,0,0,0,0-.653L56.156,17.789l-4.842-13.8a.346.346,0,0,0-.653,0Z" transform="translate(102.606 10.688)" fill="url(#linear-gradient-43)"/>
  <path id="Path_13588" data-name="Path 13588" d="M37.978,8.6l7.686,4.228,1.23-2.729L36.748,4.523a.461.461,0,0,0-.615.615Z" transform="translate(102.606 12.731)" fill="#ffc107"/>
  <path id="Path_13589" data-name="Path 13589" d="M57.665,24.13,46.712,17.789,41.87,3.992a.346.346,0,0,0-.653,0L39.41,7.835l4.074,11.53,10.915,6.3a.384.384,0,0,1,0,.692l-8.417,4.727.769,7.187,3,3.843a.423.423,0,0,0,.769-.346l-1.153-12.26,8.455-4.727a.384.384,0,0,0-.154-.653Z" transform="translate(112.05 10.688)" fill="#ffc107"/>
  <path id="Path_13590" data-name="Path 13590" d="M80.211,26.69l-1.806,3.843-5.035-2.652a.231.231,0,0,0-.269.307l3.5,6.38-1.038,5.3a.384.384,0,0,0,.346.461l4.189-.423,4.189,5.419h.384l-.384-5.919L88.4,37.105v-.346l-5.342-3.075-2.613-6.956Z" transform="translate(207.797 75.883)" fill="url(#linear-gradient-44)"/>
  <path id="Path_13591" data-name="Path 13591" d="M73.985,29.08l3.843,2.075.615-1.345L73.371,27a.231.231,0,0,0-.269.307Z" transform="translate(207.797 76.76)" fill="#ffc107"/>
  <path id="Path_13592" data-name="Path 13592" d="M83.568,36.539l-5.342-3.075L75.881,26.7h-.307l-.884,1.96,1.96,5.611,5.38,3.113v.307L77.88,40.036l.384,3.536,1.46,1.768h.384l-.384-5.957,4.112-2.306Z" transform="translate(212.358 75.911)" fill="#ffc107"/>
  <path id="Path_13593" data-name="Path 13593" d="M93.077,15.789l-3.843,8.647L78.512,18.479a.5.5,0,0,0-.653.653l7.11,13.49-2.229,11.53a.807.807,0,0,0,.769.922L92.5,44.19l9.608,11.53a.461.461,0,0,0,.807-.346l-1.345-12.721,8.916-4.958a.423.423,0,0,0,0-.73l-11.53-6.649L93.885,15.789a.4.4,0,1,0-.807,0Z" transform="translate(221.257 43.741)" fill="url(#linear-gradient-45)"/>
  <path id="Path_13594" data-name="Path 13594" d="M79.7,20.523l8.109,4.458L89.119,22.1l-10.607-5.88a.5.5,0,0,0-.653.653Z" transform="translate(221.257 46.001)" fill="#ffc107"/>
  <path id="Path_13595" data-name="Path 13595" d="M100.392,36.838l-11.53-6.649L83.9,15.662a.346.346,0,0,0-.653,0L81.33,19.851,85.6,31.918l11.53,6.649a.384.384,0,0,1,0,.692l-8.916,5,.846,7.686,3.151,3.843a.461.461,0,0,0,.807-.346L91.591,42.526l8.916-4.958a.423.423,0,0,0-.115-.73Z" transform="translate(231.236 43.868)" fill="#ffc107"/>
</svg>
