<svg xmlns="http://www.w3.org/2000/svg" xmlns:xlink="http://www.w3.org/1999/xlink" width="703.927" height="407.533" viewBox="0 0 703.927 407.533">
  <defs>
    <clipPath id="clip-path">
      <rect id="Rectangle_176" data-name="Rectangle 176" width="641.337" height="361.508" fill="#fff"/>
    </clipPath>
    <clipPath id="clip-path-2">
      <rect id="Rectangle_175" data-name="Rectangle 175" width="703.926" height="399.668" fill="none"/>
    </clipPath>
    <clipPath id="clip-path-4">
      <rect id="Rectangle_167" data-name="Rectangle 167" width="99.798" height="59.221" fill="none"/>
    </clipPath>
    <clipPath id="clip-path-5">
      <rect id="Rectangle_168" data-name="Rectangle 168" width="84.053" height="72.793" fill="none"/>
    </clipPath>
    <clipPath id="clip-path-7">
      <rect id="Rectangle_170" data-name="Rectangle 170" width="84.056" height="72.793" fill="none"/>
    </clipPath>
    <clipPath id="clip-path-8">
      <rect id="Rectangle_171" data-name="Rectangle 171" width="84.056" height="72.792" fill="none"/>
    </clipPath>
  </defs>
  <g id="Group_3382" data-name="Group 3382" transform="translate(0 7.425)">
    <g id="Group_3383" data-name="Group 3383" transform="translate(31.295 -7.425)" opacity="0.9" clip-path="url(#clip-path)">
      <path id="Path_13295" data-name="Path 13295" d="M569.5,217.63c-1.888,0-3.758.1-5.594.241,0-.584.017-1.152.017-1.736a110.986,110.986,0,0,0-95.947-110.018c.017-.327.051-.653.051-1a23.039,23.039,0,0,0-31.936-21.244A154.126,154.126,0,0,0,298.926,0C228.274,0,168.743,47.61,150.518,112.528A59.924,59.924,0,0,0,79.85,197.71a81.912,81.912,0,0,0,1.956,163.8H569.5a71.939,71.939,0,0,0,0-143.878" transform="translate(0 -0.003)" fill="#fff"/>
    </g>
    <g id="Group_3381" data-name="Group 3381" transform="translate(0 0.441)" clip-path="url(#clip-path-2)">
      <g id="Group_3380" data-name="Group 3380">
        <g id="Group_3379" data-name="Group 3379" clip-path="url(#clip-path-2)">
          <path id="Path_13185" data-name="Path 13185" d="M261.069,64.973c1.905-.26,3.815-.5,5.712-.812.2-.031.459-.46.469-.71.044-1.464.021-2.924.022-4.385V58h10.343v4.528l17.3-2.634,1.017,6.636-5.343.852v3.108h2.7v5.81h-7.241V70.547H288.6V67.67L277.718,69.33V89.187h5.1v7.4H262.1V89.21h5.1V70.953l-5.059.747-1.076-5.98Zm9,2.928v2.886H273.6Zm4.815,4.893h-3.544l3.544,2.886Zm-.007,12.454h-3.588l3.588,2.918ZM270.062,74.14v2.917h3.562Zm3.59-9.563-3.578-2.922v2.927Zm1.21,4.847v-2.91H271.31Zm-.009,12.485V79.033h-3.52ZM270.079,80.4v2.869h3.493Zm-.008,6.247V89.13H273.1Zm4.8-25.935h-3.026l3.024,2.464Z" transform="translate(11.033 2.451)" fill="#f88847"/>
          <path id="Path_13186" data-name="Path 13186" d="M289.883,91.823H301.63V77.7h6.2V95.758H283.863V84.5h6.018Z" transform="translate(11.996 3.284)" fill="#f88847"/>
          <rect id="Rectangle_157" data-name="Rectangle 157" width="9.688" height="9.885" transform="translate(302.915 84.243)" fill="#f88847"/>
          <path id="Path_13187" data-name="Path 13187" d="M467.938,263.281H435.02l-16.646-28.834,16.456-28.5,1.136.656-16.079,27.849,15.891,27.522h32.159Z" transform="translate(17.681 8.703)" fill="#f88847"/>
          <path id="Path_13188" data-name="Path 13188" d="M515.024,290.33H481.731L465.087,261.5l16.647-28.834h33.29L531.671,261.5Zm-32.536-1.311h31.778L530.157,261.5l-15.891-27.523H482.49L466.6,261.5Z" transform="translate(19.655 9.833)" fill="#f88847"/>
          <rect id="Rectangle_158" data-name="Rectangle 158" width="1.312" height="32.538" transform="translate(533.737 299.833) rotate(-29.988)" fill="#f88847"/>
          <path id="Path_13189" data-name="Path 13189" d="M560,317.038l-1.136-.656,16.08-27.85-16.285-28.178,1.135-.657,16.664,28.834Z" transform="translate(23.609 10.975)" fill="#f88847"/>
          <rect id="Rectangle_159" data-name="Rectangle 159" width="32.924" height="1.311" transform="translate(582.27 271.332) rotate(-59.99)" fill="#f88847"/>
          <rect id="Rectangle_160" data-name="Rectangle 160" width="35.01" height="1.311" transform="translate(599.308 298.852)" fill="#f88847"/>
          <path id="Path_13190" data-name="Path 13190" d="M415.154,172.528l15.914,27.564-15.914,27.565H383.327l-15.914-27.565,15.914-27.564Zm.819-1.421H382.507l-16.735,28.984,16.735,28.985h33.469l16.733-28.985-16.733-28.984Z" transform="translate(15.458 7.231)" fill="#f88847"/>
          <path id="Path_13191" data-name="Path 13191" d="M484.064,233.3a2.131,2.131,0,1,1-2.131-2.131h0a2.132,2.132,0,0,1,2.129,2.131" transform="translate(20.277 9.77)" fill="#f88847"/>
          <path id="Path_13192" data-name="Path 13192" d="M577.224,233.3a2.131,2.131,0,1,1-2.13-2.131,2.131,2.131,0,0,1,2.13,2.131" transform="translate(24.214 9.77)" fill="#f88847"/>
          <path id="Path_13193" data-name="Path 13193" d="M530.463,315.224a2.13,2.13,0,1,1-2.13-2.131,2.129,2.129,0,0,1,2.13,2.131" transform="translate(22.238 13.232)" fill="#f88847"/>
          <path id="Path_13194" data-name="Path 13194" d="M483.637,287.448a2.13,2.13,0,1,1-2.131-2.131,2.13,2.13,0,0,1,2.131,2.131Z" transform="translate(20.259 12.058)" fill="#f88847"/>
          <path id="Path_13195" data-name="Path 13195" d="M608.771,287.448a2.13,2.13,0,1,1-2.131-2.131,2.13,2.13,0,0,1,2.131,2.131" transform="translate(25.547 12.058)" fill="#f88847"/>
          <path id="Path_13196" data-name="Path 13196" d="M577.224,287.448a2.131,2.131,0,1,1-2.13-2.131,2.131,2.131,0,0,1,2.13,2.131" transform="translate(24.214 12.058)" fill="#f88847"/>
          <path id="Path_13197" data-name="Path 13197" d="M421.362,233.3a2.131,2.131,0,1,1-2.131-2.131,2.131,2.131,0,0,1,2.131,2.131" transform="translate(17.627 9.77)" fill="#f88847"/>
          <path id="Path_13198" data-name="Path 13198" d="M437.307,206.425a2.131,2.131,0,1,1-2.131-2.131,2.131,2.131,0,0,1,2.131,2.131Z" transform="translate(18.301 8.634)" fill="#f88847"/>
          <path id="Path_13199" data-name="Path 13199" d="M200.094,147l-2.536-1.464.446-.771,2.534,1.463Zm-3.968-2.291-2.536-1.463.445-.772,2.536,1.463Zm-3.969-2.291-2.535-1.463.446-.771,2.534,1.464Zm-3.968-2.292-2.536-1.463.445-.772,2.536,1.463Zm-3.969-2.291-2.535-1.463.446-.771,2.534,1.463Zm-3.968-2.29-2.535-1.463.445-.772,2.535,1.463Zm-3.969-2.292-2.534-1.463.445-.772,2.535,1.463Zm-3.967-2.291-2.536-1.463.445-.772,2.536,1.464Zm-3.968-2.291-2.536-1.463.445-.772,2.536,1.463Zm-3.969-2.291-2.535-1.463.445-.771,2.535,1.463Zm-3.968-2.291-2.535-1.463.445-.771,2.536,1.463Zm-3.968-2.292-2.535-1.463.445-.771,2.536,1.463Zm-3.968-2.291-2.535-1.463.445-.772,2.536,1.464Zm-3.965-2.291-2.536-1.463.446-.772,2.535,1.464Z" transform="translate(6.169 4.859)" fill="#f88847"/>
          <path id="Path_13200" data-name="Path 13200" d="M205.9,215.971l-.447-.771,2.533-1.469.447.77Zm3.964-2.3-.447-.77,2.532-1.471.447.77Zm3.963-2.3-.446-.77,2.532-1.471.446.771Zm3.964-2.3-.446-.77,2.532-1.469.447.77Zm3.963-2.3-.446-.772,2.532-1.467.447.77Zm3.964-2.3-.446-.77,2.532-1.47.447.77Zm3.964-2.3-.447-.77,2.533-1.47.446.771Zm3.963-2.3-.448-.769,2.533-1.469.446.771Zm3.964-2.3-.447-.77,2.532-1.469.447.77Zm3.963-2.3-.446-.77,2.532-1.47.447.77Zm3.963-2.3-.446-.769,2.533-1.473.447.771Zm3.964-2.3-.447-.772,2.533-1.469.447.77Zm3.964-2.3-.447-.77,2.533-1.47.446.77Zm3.963-2.3-.447-.77,2.533-1.469.446.77Z" transform="translate(8.683 7.769)" fill="#f88847"/>
          <path id="Path_13201" data-name="Path 13201" d="M64.245,148.581l-.341-.816,2.681-1.119.342.816Zm4.2-1.752-.341-.816,2.682-1.119.342.816Zm4.2-1.752-.342-.817,2.682-1.118.34.815Zm4.2-1.752-.342-.817,2.682-1.119.341.816Zm4.2-1.752-.342-.817,2.682-1.119.34.816Zm4.2-1.751-.34-.817,2.681-1.119.341.815Zm4.2-1.752-.341-.82,2.681-1.118.341.815Zm4.2-1.754-.34-.815,2.681-1.12.342.817Zm4.2-1.752-.341-.816,2.682-1.119.341.816Zm4.2-1.752-.34-.815,2.681-1.12.341.817Zm4.2-1.752-.341-.815,2.681-1.12.342.816Zm4.2-1.752-.34-.816,2.681-1.12.341.817Zm4.2-1.752-.342-.816,2.682-1.12.341.817Zm4.2-1.752-.342-.817,2.681-1.119.342.816Zm4.2-1.752-.341-.817,2.682-1.118.341.815Zm4.2-1.753-.341-.816,2.682-1.119.34.816Zm4.2-1.753-.341-.815,2.682-1.119.341.816Zm4.2-1.752-.342-.815,2.682-1.12.34.817Zm4.2-1.752-.341-.815,2.681-1.12.342.817Zm126.62-2.955-2.561-1.532.469-.779,2.557,1.531Zm-117.287-1.546-.448-.79,2.6-1.474.448.791Zm113.283-.854-2.557-1.53.469-.779,2.557,1.53Zm-109.218-1.453-.448-.792,2.6-1.473.447.79Zm105.216-.941-2.558-1.531.469-.779,2.557,1.531Zm-101.149-1.364-.449-.792,2.6-1.474.448.79ZM254.4,106.9l-2.557-1.532.469-.778,2.557,1.531Zm-93.082-1.277-.448-.79,2.6-1.474.448.79ZM250.4,104.5l-2.557-1.531.468-.779,2.556,1.531Zm-85.015-1.189-.449-.789,2.6-1.476.449.792ZM246.4,102.1l-2.557-1.53.469-.779,2.557,1.531Zm-76.947-1.1-.449-.79,2.6-1.474.45.791Zm72.944-1.3-2.557-1.531.468-.779,2.557,1.531ZM173.519,98.7l-.449-.79,2.6-1.475.449.792Zm64.876-1.386-2.556-1.531.468-.778,2.558,1.53Zm-60.81-.921-.449-.791,2.6-1.474.448.79Zm56.808-1.475-2.556-1.531.468-.779,2.558,1.531Zm-52.746-.832-.447-.792,2.6-1.475.448.79Zm48.741-1.564-2.557-1.53.468-.779,2.557,1.53Zm-44.675-.744-.448-.79,2.6-1.474.448.79Zm40.674-1.652-2.557-1.53.468-.779,2.558,1.53ZM189.78,89.47l-.449-.79,2.6-1.476.448.792Zm32.607-1.742L219.83,86.2l.469-.779,2.556,1.53Zm-28.539-.567-.449-.79L196,84.9l.448.79Zm24.537-1.83-2.556-1.53.468-.779,2.557,1.531Zm-20.471-.476-.449-.791,2.6-1.474.449.79Zm16.47-1.919-2.556-1.53.468-.779,2.552,1.531Zm-12.4-.389-.448-.791,2.6-1.474.448.79Z" transform="translate(2.701 3.393)" fill="#f88847"/>
          <path id="Path_13202" data-name="Path 13202" d="M320.588,77.689v1.974h.739l.721.732.612-.6Zm3.195,3.238-.612.6,1.984,2.013.613-.606Zm-2.335.332h-.86v2.827h.86V81.261Zm5.442,2.816-.613.6,1.986,2.014.612-.606-1.986-2.012Zm-5.442,1.608h-.86v2.827h.86ZM330,87.226l-.612.607,1.984,2.013.613-.6L330,87.229Zm-8.548,2.882h-.86v2.827h.86Zm11.657.267-.613.6,1.984,2.013.613-.606L333.1,90.374Zm3.106,3.15-.612.6,1.986,2.012.612-.6Zm-14.763,1.007h-.86V97.36h.86V94.531Zm17.871,2.143-.613.6,1.986,2.012.612-.6Zm-17.871,2.283h-.86v2.827h.86Zm20.978.866-.613.606,1.986,2.012.612-.6Zm3.106,3.15-.612.6,1.986,2.013.613-.6-1.986-2.013Zm-24.084.411h-.86v2.826h.86Zm27.193,2.74-.614.6,1.986,2.013.613-.6Zm-27.193,1.683h-.86v2.827h.86Zm30.3,1.466-.612.6,1.986,2.013.612-.6Zm-30.3,2.957h-.86v2.827h.86Zm33.405.192-.613.6,1.984,2.011.614-.6Zm3.1,3.149-.612.6,1.987,2.013.612-.6Zm-36.511,1.084h-.86v2.827h.86Zm39.619,2.066-.612.6,1.983,2.013.614-.6Zm-39.619,2.358h-.86V123.9h.86Zm42.727.791-.614.6,1.986,2.013.613-.6-1.986-2.013Zm3.107,3.15-.612.6,1.984,2.013.612-.6Zm-45.834.484h-.86v2.827h.86V125.5Zm48.941,2.665-.609.606,1.983,2.015.612-.6-1.984-2.013Zm-48.941,1.756h-.86v2.827h.86v-2.827Zm52.048,1.39-.613.606,1.986,2.012.612-.6Zm-52.048,3.034h-.86v2.826h.86Zm55.155.117-.612.606,1.984,2.014.612-.6-1.984-2.013Zm3.107,3.15-.61.608,1.984,2.013.613-.6-1.986-2.013Zm-58.261,1.158h-.86V141.6h.86Zm61.368,1.99-.612.606,1.986,2.012.612-.6ZM321.448,143.2h-.86v2.827h.86Zm64.476.716-.612.6,1.984,2.013.612-.6-1.984-2.013Zm3.107,3.15-.613.6.647.656.612-.6-.647-.657Z" transform="translate(13.548 3.283)" fill="#f88847"/>
          <path id="Path_13203" data-name="Path 13203" d="M121.646,79.577h-2.927v-.89h2.927Zm-4.582,0h-2.927v-.89h2.927Zm-4.582,0h-2.927v-.89h2.927Zm-4.582,0h-2.927v-.89H107.9Zm-4.582,0h-2.927v-.89h2.927Zm-4.582,0H95.81v-.89h2.927Zm-4.583,0H91.228v-.89h2.927Zm-4.581,0H86.647v-.89h2.927Zm-4.582,0H82.065v-.89h2.927Z" transform="translate(3.468 3.325)" fill="#f88847"/>
          <path id="Path_13204" data-name="Path 13204" d="M144.814,180.922l-.449-.8,2.641-1.475.448.8Zm4.133-2.309-.449-.8,2.64-1.475.449.8Zm4.133-2.31-.449-.8,2.64-1.475.448.8Zm4.133-2.309-.448-.8,2.64-1.476.448.8Zm4.134-2.309-.45-.806,2.64-1.474.45.8Zm4.132-2.31-.449-.8,2.64-1.476.45.8Zm4.133-2.309-.448-.8,2.64-1.475.449.8Zm4.133-2.31-.448-.8,2.64-1.475.449.8Zm4.134-2.31-.449-.8,2.64-1.476.449.8Zm4.133-2.309-.449-.8,2.64-1.476.449.8Zm4.133-2.309-.449-.8,2.641-1.474.448.8Zm4.133-2.309-.449-.8,2.641-1.475.448.8Zm4.133-2.311-.449-.8,2.64-1.476.45.8Zm4.133-2.309-.448-.8,2.639-1.475.449.8Z" transform="translate(6.101 6.281)" fill="#f88847"/>
          <path id="Path_13205" data-name="Path 13205" d="M184.678,116.716H142.883L121.8,80.2l20.9-36.2,1.1.637L123.274,80.2l20.346,35.243h41.06Z" transform="translate(5.147 1.86)" fill="#f88847"/>
          <rect id="Rectangle_161" data-name="Rectangle 161" width="41.405" height="1.271" transform="translate(189.286 261.137) rotate(-60.049)" fill="#f88847"/>
          <path id="Path_13206" data-name="Path 13206" d="M244.521,151.151H202.358l-21.081-36.514,21.081-36.514h42.164L265.6,114.638Zm-41.429-1.273h40.693l20.346-35.242L243.786,79.393H203.093l-20.346,35.243Z" transform="translate(7.661 3.302)" fill="#f88847"/>
          <path id="Path_13207" data-name="Path 13207" d="M244.514,219.983H202.351l-20.9-36.2,1.1-.636,20.532,35.559h40.692l20.347-35.242L243.6,147.911l1.1-.638,20.9,36.2Z" transform="translate(7.668 6.224)" fill="#f88847"/>
          <path id="Path_13208" data-name="Path 13208" d="M185.045,185.574H142.883L121.8,149.061l21.082-36.515h41.795v1.274h-41.06l-20.347,35.242L143.618,184.3H184.31l20.53-35.559,1.1.637Z" transform="translate(5.147 4.756)" fill="#f88847"/>
          <path id="Path_13209" data-name="Path 13209" d="M303.371,185.256l-1.1-.637L322.8,149.06l-20.346-35.242H261.4v-1.273h41.8L324.27,149.06Z" transform="translate(11.047 4.756)" fill="#f88847"/>
          <rect id="Rectangle_162" data-name="Rectangle 162" width="41.427" height="1.272" transform="translate(313.319 117.621) rotate(-60.003)" fill="#f88847"/>
          <rect id="Rectangle_163" data-name="Rectangle 163" width="70.792" height="1.273" transform="translate(334.582 153.18)" fill="#f88847"/>
          <rect id="Rectangle_164" data-name="Rectangle 164" width="63.521" height="1.273" transform="translate(64.164 153.18)" fill="#f88847"/>
          <path id="Path_13210" data-name="Path 13210" d="M184.278,182.085a2.068,2.068,0,1,1-2.069-2.068h0a2.068,2.068,0,0,1,2.068,2.068" transform="translate(7.613 7.608)" fill="#f88847"/>
          <path id="Path_13211" data-name="Path 13211" d="M144.533,182.085a2.068,2.068,0,1,1-2.069-2.068,2.068,2.068,0,0,1,2.069,2.068" transform="translate(5.933 7.608)" fill="#f88847"/>
          <path id="Path_13212" data-name="Path 13212" d="M184.278,250.932a2.068,2.068,0,1,1-2.068-2.069,2.068,2.068,0,0,1,2.068,2.069Z" transform="translate(7.613 10.517)" fill="#f88847"/>
          <path id="Path_13213" data-name="Path 13213" d="M204.155,147.663a2.069,2.069,0,1,1-2.069-2.069,2.069,2.069,0,0,1,2.069,2.069" transform="translate(8.453 6.153)" fill="#f88847"/>
          <path id="Path_13214" data-name="Path 13214" d="M204.155,216.506a2.069,2.069,0,1,1-2.071-2.067h0a2.068,2.068,0,0,1,2.069,2.067" transform="translate(8.453 9.062)" fill="#f88847"/>
          <path id="Path_13215" data-name="Path 13215" d="M244.079,147.663a2.069,2.069,0,1,1-2.069-2.069,2.069,2.069,0,0,1,2.069,2.069" transform="translate(10.14 6.153)" fill="#f88847"/>
          <path id="Path_13216" data-name="Path 13216" d="M244.079,78.818a2.069,2.069,0,1,1-2.069-2.069,2.069,2.069,0,0,1,2.069,2.069" transform="translate(10.14 3.243)" fill="#f88847"/>
          <path id="Path_13217" data-name="Path 13217" d="M204.008,78.818a2.068,2.068,0,1,1-2.069-2.069,2.068,2.068,0,0,1,2.069,2.069" transform="translate(8.447 3.243)" fill="#f88847"/>
          <path id="Path_13218" data-name="Path 13218" d="M323.169,147.663a2.068,2.068,0,1,1-2.069-2.069,2.068,2.068,0,0,1,2.069,2.069" transform="translate(13.483 6.153)" fill="#f88847"/>
          <path id="Path_13219" data-name="Path 13219" d="M391.091,147.663a2.068,2.068,0,1,1-2.068-2.069,2.068,2.068,0,0,1,2.068,2.069" transform="translate(16.353 6.153)" fill="#f88847"/>
          <path id="Path_13220" data-name="Path 13220" d="M124.659,147.663a2.068,2.068,0,1,1-2.068-2.069,2.068,2.068,0,0,1,2.068,2.069" transform="translate(5.093 6.153)" fill="#f88847"/>
          <path id="Path_13221" data-name="Path 13221" d="M63.714,147.663a2.068,2.068,0,1,1-2.068-2.069,2.068,2.068,0,0,1,2.068,2.069" transform="translate(2.518 6.153)" fill="#f88847"/>
          <path id="Path_13222" data-name="Path 13222" d="M184.278,113.24a2.068,2.068,0,1,1-2.068-2.068,2.069,2.069,0,0,1,2.068,2.068" transform="translate(7.613 4.698)" fill="#f88847"/>
          <path id="Path_13223" data-name="Path 13223" d="M144.533,113.24a2.068,2.068,0,1,1-2.069-2.068,2.069,2.069,0,0,1,2.069,2.068" transform="translate(5.933 4.698)" fill="#f88847"/>
          <path id="Path_13224" data-name="Path 13224" d="M303.233,113.24a2.069,2.069,0,1,1-2.07-2.068,2.069,2.069,0,0,1,2.07,2.068" transform="translate(12.64 4.698)" fill="#f88847"/>
          <path id="Path_13225" data-name="Path 13225" d="M323.169,78.818a2.068,2.068,0,1,1-2.069-2.069,2.068,2.068,0,0,1,2.069,2.069" transform="translate(13.483 3.243)" fill="#f88847"/>
          <path id="Path_13226" data-name="Path 13226" d="M263.486,113.24a2.068,2.068,0,1,1-2.069-2.068,2.069,2.069,0,0,1,2.069,2.068" transform="translate(10.96 4.698)" fill="#f88847"/>
          <path id="Path_13227" data-name="Path 13227" d="M244.079,216.506a2.069,2.069,0,1,1-2.071-2.067h0a2.068,2.068,0,0,1,2.069,2.067" transform="translate(10.14 9.062)" fill="#f88847"/>
          <path id="Path_13228" data-name="Path 13228" d="M263.486,182.085a2.068,2.068,0,1,1-2.069-2.068,2.068,2.068,0,0,1,2.069,2.068" transform="translate(10.96 7.608)" fill="#f88847"/>
          <path id="Path_13229" data-name="Path 13229" d="M303.233,182.085a2.069,2.069,0,1,1-2.07-2.068,2.068,2.068,0,0,1,2.07,2.068" transform="translate(12.64 7.608)" fill="#f88847"/>
          <path id="Path_13230" data-name="Path 13230" d="M124.659,78.818a2.068,2.068,0,1,1-2.068-2.069,2.068,2.068,0,0,1,2.068,2.069" transform="translate(5.093 3.243)" fill="#f88847"/>
          <path id="Path_13231" data-name="Path 13231" d="M144.533,44.958a2.068,2.068,0,1,1-2.069-2.069,2.068,2.068,0,0,1,2.069,2.069" transform="translate(5.933 1.813)" fill="#f88847"/>
          <path id="Path_13232" data-name="Path 13232" d="M422.476,234.211l-.424.715,2.353,1.391.423-.715-2.351-1.39Zm3.68,2.177-.423.715,2.351,1.392.424-.715-2.35-1.392Zm3.68,2.179-.423.714,2.352,1.392.423-.716Zm3.682,2.177-.424.716,2.352,1.391.423-.715-2.35-1.392Zm3.68,2.177-.423.715,2.351,1.392.424-.715-2.351-1.392Zm3.681,2.179-.425.715,2.352,1.391.423-.716-2.35-1.391Zm3.68,2.178-.423.714,2.351,1.392.424-.715Zm3.68,2.177-.423.715,2.351,1.392.425-.716Zm3.681,2.177-.423.715,2.352,1.392.423-.715Zm3.68,2.179-.423.715,2.352,1.392.423-.717-2.352-1.391Zm3.68,2.176-.423.716,2.352,1.391.423-.715Zm3.682,2.179-.424.715,2.352,1.392.423-.716-2.35-1.392Z" transform="translate(17.836 9.898)" fill="#f88847"/>
          <path id="Path_13233" data-name="Path 13233" d="M484.521,288.239l-.435-.754,2.477-1.431.436.755ZM488.4,286l-.435-.755,2.477-1.431.436.753Zm3.878-2.241-.436-.754,2.477-1.432.436.754Zm3.878-2.241-.436-.754,2.476-1.43.436.753Zm3.877-2.239-.436-.755,2.477-1.432.436.755Zm3.877-2.241-.436-.755,2.477-1.431.436.755Zm3.877-2.241-.436-.754,2.477-1.431.436.755Zm3.878-2.239-.436-.755,2.476-1.432.436.755Zm3.878-2.242-.436-.754,2.476-1.431.436.755Zm3.875-2.239-.434-.754,2.477-1.431.436.753Zm3.878-2.241-.436-.754,2.477-1.432.436.755Zm3.878-2.241-.437-.754,2.477-1.43.436.754Zm3.877-2.239-.436-.755,2.477-1.43.436.754Zm3.877-2.241-.436-.754,2.476-1.432.437.754Zm3.878-2.241-.436-.754,2.477-1.43.436.754Zm3.877-2.239-.435-.755,2.475-1.432.437.755Zm3.876-2.241-.434-.755,2.477-1.43.436.754Zm3.878-2.24L550,249.4l2.478-1.431.436.754Zm3.878-2.24-.436-.755,2.477-1.432.436.755Zm3.877-2.241-.436-.755,2.477-1.43.436.754Zm3.878-2.24-.436-.754,2.477-1.431.436.754Zm3.877-2.24-.436-.755,2.476-1.432.438.755Zm3.877-2.242-.436-.753,2.476-1.431.437.754Zm3.878-2.239-.436-.754,2.476-1.431.436.754Z" transform="translate(20.458 9.912)" fill="#f88847"/>
          <path id="Path_13234" data-name="Path 13234" d="M180.931,65.37l-3.279-3.278a5.336,5.336,0,0,0-4.246-1.484,6.677,6.677,0,0,0-4.134,1.969l-6.293,6.293a2.459,2.459,0,0,0-.351.452,5.638,5.638,0,0,0-2.089-.217,6.68,6.68,0,0,0-4.133,1.969l-10.04,10.041a6.7,6.7,0,0,0-1.967,4.055,5.271,5.271,0,0,0,1.482,4.323l3.279,3.278a5.234,5.234,0,0,0,3.741,1.509,5.649,5.649,0,0,0,.582-.028,6.694,6.694,0,0,0,4.056-1.966l5.74-5.74a2.389,2.389,0,0,0,.624-1.094,5.514,5.514,0,0,0,1.873.327,6.636,6.636,0,0,0,4.633-1.991l10.04-10.039a6.71,6.71,0,0,0,1.966-4.058,5.271,5.271,0,0,0-1.484-4.323M162.152,77.585a.624.624,0,0,1-.093-.448,1.908,1.908,0,0,1,.577-1.116,2.382,2.382,0,0,0,.338-.426l1.681,1.682a.623.623,0,0,1,.093.448,1.9,1.9,0,0,1-.577,1.115,2.427,2.427,0,0,0-.338.427Zm5.913-3.717-1.635-1.636,6.25-6.25a1.925,1.925,0,0,1,1.1-.577.592.592,0,0,1,.468.094l3.282,3.278a.626.626,0,0,1,.093.449,1.9,1.9,0,0,1-.578,1.113l-7.477,7.476a5.207,5.207,0,0,0-1.5-3.946Zm-8.192,9.272-5.737,5.737a1.91,1.91,0,0,1-1.113.578.585.585,0,0,1-.45-.093l-3.287-3.278a.626.626,0,0,1-.093-.449,1.9,1.9,0,0,1,.577-1.112l7.476-7.477a5.208,5.208,0,0,0,1.5,3.951l1.713,1.716a2.377,2.377,0,0,0-.589.427Z" transform="translate(6.101 2.56)" fill="#f88847"/>
          <path id="Path_13235" data-name="Path 13235" d="M380.4,207.962a.985.985,0,0,1-.91-.6,20.778,20.778,0,0,1-1.639-8.128.986.986,0,0,1,1.972-.007v.007a18.793,18.793,0,0,0,1.485,7.359.986.986,0,0,1-.906,1.371Z" transform="translate(15.968 8.378)" fill="#f88847"/>
          <path id="Path_13236" data-name="Path 13236" d="M414.933,210.113a.973.973,0,0,1-.419-.094.987.987,0,0,1-.472-1.312,18.734,18.734,0,0,0,1.644-5.661.986.986,0,0,1,1.956.245,20.766,20.766,0,0,1-1.815,6.255.985.985,0,0,1-.894.567" transform="translate(17.494 8.545)" fill="#f88847"/>
          <path id="Path_13237" data-name="Path 13237" d="M417.507,200.961a.985.985,0,0,1-.984-.985,18.888,18.888,0,0,0-11.55-17.427.985.985,0,0,1,.768-1.815,20.856,20.856,0,0,1,12.754,19.241.986.986,0,0,1-.988.985" transform="translate(17.089 7.635)" fill="#f88847"/>
          <path id="Path_13238" data-name="Path 13238" d="M379.89,194.487a.984.984,0,0,1-.932-1.309,20.9,20.9,0,0,1,19.729-14.018.986.986,0,1,1,.048,1.971.375.375,0,0,1-.048,0,18.928,18.928,0,0,0-17.865,12.694.986.986,0,0,1-.932.663" transform="translate(16.013 7.571)" fill="#f88847"/>
          <path id="Path_13239" data-name="Path 13239" d="M382.769,202.714a.984.984,0,0,1-.977-.866,16.913,16.913,0,0,1,8.286-16.674.985.985,0,0,1,.99,1.7,15,15,0,0,0-7.43,12.914,15.384,15.384,0,0,0,.11,1.82.986.986,0,0,1-.858,1.1h0a1.168,1.168,0,0,1-.121,0" transform="translate(16.13 7.82)" fill="#f88847"/>
          <path id="Path_13240" data-name="Path 13240" d="M407.8,188.307a.981.981,0,0,1-.606-.21,14.785,14.785,0,0,0-9.174-3.151,15.116,15.116,0,0,0-2.16.155.986.986,0,0,1-.284-1.952,17.1,17.1,0,0,1,2.443-.175,16.731,16.731,0,0,1,10.387,3.571.986.986,0,0,1-.607,1.764Z" transform="translate(16.682 7.733)" fill="#f88847"/>
          <path id="Path_13241" data-name="Path 13241" d="M407.966,217.492a.986.986,0,0,1-.761-1.61c5.122-6.248,7.581-17.088,2.831-24.412a.986.986,0,1,1,1.654-1.074,20.133,20.133,0,0,1,2.621,13.815,26.9,26.9,0,0,1-5.582,12.922.983.983,0,0,1-.763.359" transform="translate(17.2 8.027)" fill="#f88847"/>
          <path id="Path_13242" data-name="Path 13242" d="M398.936,206.2a.986.986,0,0,1-.984-.948,24.842,24.842,0,0,0-.8-5.467.985.985,0,1,1,1.9-.511,26.72,26.72,0,0,1,.87,5.9.985.985,0,0,1-.946,1.021.251.251,0,0,1-.04,0" transform="translate(16.782 8.391)" fill="#f88847"/>
          <path id="Path_13243" data-name="Path 13243" d="M396.7,219.731a1.009,1.009,0,0,1-.367-.072.985.985,0,0,1-.547-1.281,34.151,34.151,0,0,0,2.362-10.138.987.987,0,0,1,1.968.139,36.228,36.228,0,0,1-2.5,10.731.99.99,0,0,1-.916.621" transform="translate(16.724 8.763)" fill="#f88847"/>
          <path id="Path_13244" data-name="Path 13244" d="M382.985,212.365a.989.989,0,0,1-.947-1.259,15.238,15.238,0,0,0,.442-6.019.986.986,0,0,1,1.956-.243,17.26,17.26,0,0,1-.5,6.8.99.99,0,0,1-.948.716" transform="translate(16.144 8.62)" fill="#f88847"/>
          <path id="Path_13245" data-name="Path 13245" d="M409.7,200.62a.987.987,0,0,1-.987-.985A11.079,11.079,0,0,0,403.9,190.5a.985.985,0,0,1,1.115-1.625,13.047,13.047,0,0,1,5.673,10.763A.985.985,0,0,1,409.7,200.62Z" transform="translate(17.052 7.975)" fill="#f88847"/>
          <path id="Path_13246" data-name="Path 13246" d="M386.355,200.707a.984.984,0,0,1-.984-.985,13.042,13.042,0,0,1,14.38-12.974.985.985,0,0,1-.2,1.959c-.376-.036-.761-.058-1.138-.058a11.084,11.084,0,0,0-11.071,11.072.987.987,0,0,1-.986.986Z" transform="translate(16.286 7.889)" fill="#f88847"/>
          <path id="Path_13247" data-name="Path 13247" d="M386.06,215.65a.956.956,0,0,1-.346-.064.986.986,0,0,1-.577-1.268,19.171,19.171,0,0,0,.684-11.14.986.986,0,0,1,1.909-.49l.007.031a21.142,21.142,0,0,1-.754,12.29.986.986,0,0,1-.923.64" transform="translate(16.274 8.535)" fill="#f88847"/>
          <path id="Path_13248" data-name="Path 13248" d="M400.437,220a.985.985,0,0,1-.559-1.8,21.058,21.058,0,0,0,8.982-14.742.985.985,0,0,1,1.953.264,23,23,0,0,1-9.818,16.1.991.991,0,0,1-.559.173" transform="translate(16.881 8.562)" fill="#f88847"/>
          <path id="Path_13249" data-name="Path 13249" d="M391.121,196.847a.986.986,0,0,1-.872-1.444,8.981,8.981,0,0,1,14.011-2.489.986.986,0,1,1-1.328,1.458A7.011,7.011,0,0,0,392,196.317a.987.987,0,0,1-.875.531" transform="translate(16.488 8.054)" fill="#f88847"/>
          <path id="Path_13250" data-name="Path 13250" d="M391.507,209.7a.986.986,0,0,1-.986-.984,31.536,31.536,0,0,0-1.136-8.328.986.986,0,1,1,1.9-.526,33.446,33.446,0,0,1,1.207,8.849.984.984,0,0,1-.982.988Z" transform="translate(16.454 8.416)" fill="#f88847"/>
          <path id="Path_13251" data-name="Path 13251" d="M389.66,217.6a.985.985,0,0,1-.9-1.394,17.82,17.82,0,0,0,1.353-4.461.986.986,0,1,1,1.946.318,19.738,19.738,0,0,1-1.5,4.958.983.983,0,0,1-.9.578" transform="translate(16.426 8.914)" fill="#f88847"/>
          <path id="Path_13252" data-name="Path 13252" d="M406.44,205.409q-.031,0-.063,0a.983.983,0,0,1-.92-1.043v0a17.108,17.108,0,0,0-.93-6.775.986.986,0,1,1,1.862-.651,19.132,19.132,0,0,1,1.036,7.552.989.989,0,0,1-.985.919" transform="translate(17.093 8.295)" fill="#f88847"/>
          <path id="Path_13253" data-name="Path 13253" d="M392.993,218.8a.967.967,0,0,1-.4-.087.985.985,0,0,1-.5-1.3l0,0a24.948,24.948,0,0,0,1.17-3.211.986.986,0,0,1,1.895.546,26.943,26.943,0,0,1-1.267,3.468.988.988,0,0,1-.9.586" transform="translate(16.567 9.022)" fill="#f88847"/>
          <path id="Path_13254" data-name="Path 13254" d="M394.788,212.8a1.026,1.026,0,0,1-.149-.011.984.984,0,0,1-.827-1.12h0a22.2,22.2,0,0,0-.055-6.933.986.986,0,1,1,1.945-.322,24.112,24.112,0,0,1,.058,7.551.983.983,0,0,1-.972.837" transform="translate(16.64 8.604)" fill="#f88847"/>
          <path id="Path_13255" data-name="Path 13255" d="M403.476,206.75a.986.986,0,0,1-.986-.986c0-3.305-.919-9.556-4.4-9.556A3.2,3.2,0,0,0,394.9,199.4c0,.058,0,.118.005.176a.985.985,0,1,1-1.965.149c0-.012,0-.025,0-.039-.007-.095-.009-.192-.009-.288a5.171,5.171,0,0,1,5.165-5.165c4.7,0,6.367,6.211,6.367,11.528A.987.987,0,0,1,403.476,206.75Z" transform="translate(16.606 8.209)" fill="#f88847"/>
          <path id="Path_13256" data-name="Path 13256" d="M401.283,215.062a.985.985,0,0,1-.9-1.387,20.706,20.706,0,0,0,1.548-5.258.986.986,0,0,1,1.956.247c0,.018-.005.036-.008.055a22.618,22.618,0,0,1-1.7,5.758.985.985,0,0,1-.9.585" transform="translate(16.917 8.771)" fill="#f88847"/>
          <path id="Path_13257" data-name="Path 13257" d="M286.127,309.056A45.949,45.949,0,1,1,332.3,263.333h0a46,46,0,0,1-46.172,45.722m.425-86.944a41,41,0,1,0,40.8,41.2h0a41.044,41.044,0,0,0-40.794-41.2Z" transform="translate(10.16 9.177)" fill="#f88847"/>
          <path id="Path_13258" data-name="Path 13258" d="M286.471,319.115a55.68,55.68,0,0,1-55.343-55.888l4.266.021a51.35,51.35,0,1,0,51.6-51.1l.02-4.266a55.615,55.615,0,1,1-.545,111.229Z" transform="translate(9.768 8.785)" fill="#f88847"/>
          <path id="Path_13259" data-name="Path 13259" d="M328.813,309.948l-3-3.031a61.347,61.347,0,0,0,.425-86.656l3.031-3a65.617,65.617,0,0,1-.453,92.689" transform="translate(13.769 9.182)" fill="#f88847"/>
          <rect id="Rectangle_165" data-name="Rectangle 165" width="0.426" height="23.093" transform="translate(360.148 267.133) rotate(-89.722)" fill="#f88847"/>
          <path id="Path_13260" data-name="Path 13260" d="M381.247,274.076l-46.49-.227v-.426l46.49.227Z" transform="translate(14.147 11.555)" fill="#f88847"/>
          <rect id="Rectangle_166" data-name="Rectangle 166" width="0.427" height="78.891" transform="translate(329.208 301.685) rotate(-89.722)" fill="#f88847"/>
          <path id="Path_13261" data-name="Path 13261" d="M365.283,256.5a2.531,2.531,0,1,1,0,.008V256.5" transform="translate(15.437 10.734)" fill="#f88847"/>
          <path id="Path_13262" data-name="Path 13262" d="M376.947,273.618a2.531,2.531,0,1,1,0,.007v-.007" transform="translate(15.93 11.458)" fill="#f88847"/>
          <path id="Path_13263" data-name="Path 13263" d="M389.132,289.7a2.521,2.521,0,1,1,2.509,2.535,2.521,2.521,0,0,1-2.509-2.535Z" transform="translate(16.445 12.137)" fill="#f88847"/>
          <path id="Path_13264" data-name="Path 13264" d="M303.975,252.257h-3.161v-4.051a15.263,15.263,0,0,0-30.516,0v4.051h-2.868a3.012,3.012,0,0,0-3.009,3.009v29.366a3.012,3.012,0,0,0,3.009,3.009h36.544a3.012,3.012,0,0,0,3.009-3.009V255.266a3.013,3.013,0,0,0-3.007-3.009m-15.264,22.16a3.009,3.009,0,0,1-6.018,0V265.48a3.009,3.009,0,0,1,6.018,0Zm6.089-22.16H276.315v-4.051a9.249,9.249,0,0,1,18.481,0Z" transform="translate(11.175 9.861)" fill="#f88847"/>
          <path id="Path_13265" data-name="Path 13265" d="M608.6,236.341H575.3l-16.646-28.833L575.3,178.674H608.6l16.648,28.834Zm-32.537-1.311h31.776l15.889-27.522-15.889-27.521H576.057l-15.889,27.522Z" transform="translate(23.61 7.551)" fill="#f88847"/>
          <path id="Path_13266" data-name="Path 13266" d="M177.2,190.349l15.422,26.713L177.2,243.774H146.349l-15.423-26.712,15.423-26.713Zm.819-1.421H145.529l-16.243,28.134L145.529,245.2h32.487l16.243-28.135-16.243-28.135Z" transform="translate(5.464 7.984)" fill="#f88847"/>
          <path id="Path_13267" data-name="Path 13267" d="M163.8,218.275h-1.15c-.123,0-.176-.128-.191-.167a9.406,9.406,0,0,0-.457-1.09.189.189,0,0,1,.008-.209l.836-.835a1.661,1.661,0,0,0,0-2.342l-1.805-1.8a1.678,1.678,0,0,0-2.342,0l-.845.845c-.069.07-.175.025-.208.009a9.763,9.763,0,0,0-1.09-.453c-.038-.011-.157-.061-.157-.175v-1.177a1.66,1.66,0,0,0-1.657-1.658h-2.551a1.66,1.66,0,0,0-1.657,1.658v1.177c0,.114-.117.164-.158.175a9.557,9.557,0,0,0-1.089.453.189.189,0,0,1-.209-.009l-.844-.845a1.678,1.678,0,0,0-2.342,0l-1.805,1.806a1.661,1.661,0,0,0,0,2.341l.835.835a.186.186,0,0,1,.01.208,9.626,9.626,0,0,0-.459,1.091c-.014.04-.068.167-.191.167h-1.151a1.659,1.659,0,0,0-1.657,1.657v2.551a1.659,1.659,0,0,0,1.657,1.657h1.13a.172.172,0,0,1,.17.107,9.468,9.468,0,0,0,.5,1.217.144.144,0,0,1-.038.164l-.814.814a1.663,1.663,0,0,0,0,2.342l1.805,1.8a1.674,1.674,0,0,0,2.341,0l.8-.8a.143.143,0,0,1,.165-.038,9.711,9.711,0,0,0,1.217.509.186.186,0,0,1,.117.183v1.1a1.66,1.66,0,0,0,1.657,1.657h2.551a1.66,1.66,0,0,0,1.657-1.657v-1.1a.185.185,0,0,1,.117-.183,9.411,9.411,0,0,0,1.217-.509.143.143,0,0,1,.165.038l.8.8a1.671,1.671,0,0,0,2.341,0l1.8-1.8a1.659,1.659,0,0,0,0-2.342l-.813-.813a.147.147,0,0,1-.039-.164,9.548,9.548,0,0,0,.5-1.218.173.173,0,0,1,.17-.107h1.13a1.659,1.659,0,0,0,1.657-1.656v-2.553a1.659,1.659,0,0,0-1.651-1.659m-5.7,2.933a4.637,4.637,0,1,1-4.636-4.636,4.636,4.636,0,0,1,4.636,4.636Zm20.555-12.424h-.79c-.083,0-.122-.088-.13-.114a6.717,6.717,0,0,0-.314-.748.135.135,0,0,1,.005-.146l.573-.572a1.136,1.136,0,0,0,0-1.607l0,0-1.239-1.24a1.15,1.15,0,0,0-1.607,0l-.581.581c-.048.048-.123.017-.144.006a6.506,6.506,0,0,0-.748-.312c-.025-.007-.108-.043-.108-.121V203.7a1.139,1.139,0,0,0-1.137-1.138h-1.754a1.139,1.139,0,0,0-1.137,1.138v.809c0,.078-.083.114-.109.122a6.508,6.508,0,0,0-.748.311c-.022.01-.1.042-.144-.006l-.579-.581a1.154,1.154,0,0,0-1.61,0l-1.239,1.24a1.139,1.139,0,0,0,0,1.608l.573.573a.131.131,0,0,1,.007.145,6.13,6.13,0,0,0-.316.749c-.008.027-.046.114-.13.114h-.79a1.14,1.14,0,0,0-1.137,1.139v1.753a1.14,1.14,0,0,0,1.137,1.139h.776a.116.116,0,0,1,.118.073,6.577,6.577,0,0,0,.346.837.1.1,0,0,1-.026.112l-.559.559a1.14,1.14,0,0,0,0,1.609l1.24,1.24a1.154,1.154,0,0,0,1.608,0l.552-.552a.1.1,0,0,1,.112-.025,6.765,6.765,0,0,0,.837.351.127.127,0,0,1,.081.125v.757a1.139,1.139,0,0,0,1.137,1.138h1.754a1.139,1.139,0,0,0,1.137-1.138v-.757a.126.126,0,0,1,.08-.125,6.608,6.608,0,0,0,.837-.351.1.1,0,0,1,.113.025l.551.55a1.153,1.153,0,0,0,1.609,0l1.239-1.24a1.136,1.136,0,0,0,0-1.607v0l-.558-.559a.1.1,0,0,1-.026-.112,6.579,6.579,0,0,0,.346-.837.115.115,0,0,1,.117-.073h.777a1.141,1.141,0,0,0,1.137-1.139v-1.753a1.14,1.14,0,0,0-1.138-1.141Zm-3.915,2.016a3.185,3.185,0,1,1-3.185-3.186A3.184,3.184,0,0,1,174.747,210.8Z" transform="translate(5.979 8.561)" fill="#f88847"/>
          <g id="Group_3363" data-name="Group 3363" transform="translate(500.078 184.672)" opacity="0.5" style="isolation: isolate">
            <g id="Group_3362" data-name="Group 3362">
              <g id="Group_3361" data-name="Group 3361" clip-path="url(#clip-path-4)">
                <path id="Path_13268" data-name="Path 13268" d="M578.842,178.383l-.757,1.311-15.891,27.522h-31.75l-12.47-21.588-3.142-5.445-.3-.512-.538-.933H483.984a2.133,2.133,0,1,0-.051,1.312h29.283l15.9,27.544-15.877,27.5H481.462l-.092-.163v1.474H514L530.1,208.528h32.857L579.6,179.695Z" transform="translate(-479.801 -177.184)" fill="#f88847"/>
              </g>
            </g>
          </g>
          <g id="Group_3366" data-name="Group 3366" transform="translate(251.171 45.947)" opacity="0.2">
            <g id="Group_3365" data-name="Group 3365">
              <g id="Group_3364" data-name="Group 3364" clip-path="url(#clip-path-5)">
                <path id="Path_13269" data-name="Path 13269" d="M304.027,116.877H262l-21.013-36.4L262,44.084h42.027l21.013,36.4Zm-41.294-1.268h40.562L323.577,80.48,303.3,45.355H262.733L242.452,80.48Z" transform="translate(-240.987 -44.084)" fill="#f88847"/>
              </g>
            </g>
          </g>
          <g id="Group_3369" data-name="Group 3369" transform="translate(126.993 261.144)" opacity="0.2">
            <g id="Group_3368" data-name="Group 3368">
              <g id="Group_3367" data-name="Group 3367" clip-path="url(#clip-path-5)">
                <path id="Path_13270" data-name="Path 13270" d="M184.885,323.348H142.857l-21.013-36.4,21.013-36.4h42.028l21.012,36.4Zm-41.3-1.268h40.562l20.281-35.128-20.281-35.125H143.589l-20.28,35.125Z" transform="translate(-121.844 -250.555)" fill="#f88847"/>
              </g>
            </g>
          </g>
          <g id="Group_3372" data-name="Group 3372" transform="translate(375.302 46.226)" opacity="0.2">
            <g id="Group_3371" data-name="Group 3371">
              <g id="Group_3370" data-name="Group 3370" clip-path="url(#clip-path-7)">
                <path id="Path_13271" data-name="Path 13271" d="M423.124,117.145H381.1l-21.016-36.4,21.016-36.4h42.026l21.014,36.4Zm-41.294-1.268h40.563l20.28-35.125-20.28-35.128H381.831L361.547,80.749Z" transform="translate(-360.084 -44.352)" fill="#f88847"/>
              </g>
            </g>
          </g>
          <g id="Group_3375" data-name="Group 3375" transform="translate(375.302 270.838)" opacity="0.2">
            <g id="Group_3374" data-name="Group 3374">
              <g id="Group_3373" data-name="Group 3373" clip-path="url(#clip-path-8)">
                <path id="Path_13272" data-name="Path 13272" d="M423.124,332.648H381.1l-21.016-36.4,21.016-36.4h42.026l21.014,36.4Zm-41.294-1.268h40.563l20.28-35.125-20.28-35.125H381.831l-20.281,35.125Z" transform="translate(-360.084 -259.856)" fill="#f88847"/>
              </g>
            </g>
          </g>
          <g id="Group_3378" data-name="Group 3378" transform="translate(463.974 313.425)" opacity="0.2">
            <g id="Group_3377" data-name="Group 3377">
              <g id="Group_3376" data-name="Group 3376" clip-path="url(#clip-path-5)">
                <path id="Path_13273" data-name="Path 13273" d="M508.2,373.51H466.174l-21.013-36.4,21.013-36.4H508.2l21.014,36.4Zm-41.294-1.268h40.563l20.28-35.128-20.28-35.13H466.906l-20.28,35.128Z" transform="translate(-445.161 -300.716)" fill="#f88847"/>
              </g>
            </g>
          </g>
          <path id="Path_13274" data-name="Path 13274" d="M184.768,287.236c-.56.79-1.112,1.567-1.661,2.342-.86,1.214-1.724,2.426-2.575,3.647a.748.748,0,0,0-.128.4c-.008,2.077-.005,4.157-.005,6.235v.309c-.108.006-.205.017-.3.017-1.427,0-2.854,0-4.282,0a.39.39,0,0,0-.361.189q-1.627,2.312-3.267,4.611a1.511,1.511,0,0,1-.315.337q-1.935,1.451-3.88,2.891a.662.662,0,0,1-.936-.028.671.671,0,0,1-.159-.288.745.745,0,0,1,.011-.386q.73-2.376,1.479-4.745a1.228,1.228,0,0,1,.175-.323c.477-.681.959-1.356,1.437-2.032.043-.058.081-.125.139-.212h-5.319v5.467H144.766V279.178h9v-11.34h26.614v17.809l.053.023c.047-.064.1-.125.141-.188.423-.594.835-1.2,1.269-1.78a2.3,2.3,0,0,1,2.585-.836,2.2,2.2,0,0,1,1.3,2.82,1.939,1.939,0,0,1-.078.186c-.034.078-.072.153-.118.241l.188.142a1.616,1.616,0,0,1,.475,2.237,1.265,1.265,0,0,1-.081.115q-1.412,2.006-2.837,4c-.425.6-.848,1.2-1.28,1.8a.648.648,0,0,1-.74.254.615.615,0,0,1-.458-.581,1.129,1.129,0,0,1,.2-.551q1.749-2.494,3.519-4.976l.429-.608c.265-.365.241-.469-.175-.714m-38.65-6.707v23.8h17.336v-23.8Zm22.692,25.407c.078-.055.128-.089.176-.125.646-.48,1.294-.961,1.938-1.447a1.206,1.206,0,0,0,.255-.265q2.955-4.16,5.9-8.326c.4-.562.794-1.123,1.2-1.7l-1.432-1.013c-.05.064-.083.105-.117.149q-3.516,4.961-7.03,9.921a.886.886,0,0,0-.122.248q-.378,1.2-.748,2.393c-.011.04-.015.087-.028.162Zm8.811-13.969,1.428,1.012c.041-.047.069-.074.09-.1q2.58-3.64,5.158-7.282a1.343,1.343,0,0,0,.184-.371.818.818,0,0,0-.455-1.065.806.806,0,0,0-.266-.058,1.083,1.083,0,0,0-.944.538q-1.789,2.534-3.586,5.062ZM169.543,281l6.908-8.9-1.129-.879-6.911,8.905Zm4.8,2.513h-9.517v1.4h9.517Zm-9.521,5.056h9.518v-1.391h-9.518Zm10.327-7.772a2.178,2.178,0,1,0-2.185-2.17v0a2.186,2.186,0,0,0,2.185,2.166m-3.242-7.195a2.174,2.174,0,1,0-2.174,2.174h.008a2.166,2.166,0,0,0,2.166-2.167v-.006Zm-7.043-1.077H159.82v1.4h5.043Zm0,3.669h-5.047v1.39h5.047Zm3.25,14.642H164.83v1.4h3.284Z" transform="translate(6.118 11.319)" fill="#f88847"/>
          <rect id="Rectangle_173" data-name="Rectangle 173" width="12.869" height="5.698" transform="translate(154.466 294.815)" fill="#f88847"/>
          <path id="Path_13275" data-name="Path 13275" d="M149.972,296.941h-1a.672.672,0,0,1-.119-1.339.719.719,0,0,1,.125,0q1,0,2,0a.673.673,0,1,1,.142,1.338.7.7,0,0,1-.148,0c-.332,0-.666,0-1,0" transform="translate(6.265 12.492)" fill="#f88847"/>
          <path id="Path_13276" data-name="Path 13276" d="M158.919,296.939c-.342,0-.683,0-1.022,0a.67.67,0,1,1-.105-1.336.594.594,0,0,1,.105,0q1.008-.009,2.02,0a.672.672,0,1,1,.125,1.337.823.823,0,0,1-.125,0c-.332,0-.666,0-1,0" transform="translate(6.642 12.492)" fill="#f88847"/>
          <path id="Path_13277" data-name="Path 13277" d="M154.438,296.94c-.333,0-.666,0-1,0a.671.671,0,0,1-.128-1.336.787.787,0,0,1,.11,0q1.021-.009,2.044,0a.671.671,0,0,1,.106,1.338.8.8,0,0,1-.113,0c-.34,0-.681,0-1.021,0" transform="translate(6.453 12.492)" fill="#f88847"/>
          <path id="Path_13278" data-name="Path 13278" d="M149.991,292.512c.341,0,.682,0,1.022,0a.673.673,0,0,1,.708.635v.014a.663.663,0,0,1-.644.683h-.029q-1.068.022-2.136,0a.658.658,0,0,1-.672-.643c0-.012,0-.025,0-.039a.672.672,0,0,1,.691-.65h.014c.349,0,.7,0,1.045,0" transform="translate(6.265 12.362)" fill="#f88847"/>
          <path id="Path_13279" data-name="Path 13279" d="M154.451,292.512c.34,0,.682,0,1.021,0a.667.667,0,0,1,.1,1.331.6.6,0,0,1-.074,0q-1.057.019-2.113,0a.662.662,0,0,1-.68-.644v-.031a.672.672,0,0,1,.688-.656h.011c.175,0,.355,0,.534,0Z" transform="translate(6.454 12.362)" fill="#f88847"/>
          <path id="Path_13280" data-name="Path 13280" d="M158.939,292.512c.334,0,.666,0,1,0a.672.672,0,0,1,.715.627c0,.011,0,.023,0,.034a.666.666,0,0,1-.661.67h-.026q-1.057.019-2.114,0a.662.662,0,0,1-.681-.643.311.311,0,0,1,0-.031.673.673,0,0,1,.687-.658h.01c.176,0,.356,0,.535,0Z" transform="translate(6.642 12.362)" fill="#f88847"/>
          <path id="Path_13281" data-name="Path 13281" d="M149.987,300.028c-.348,0-.7,0-1.045,0a.668.668,0,0,1-.7-.633v-.018a.654.654,0,0,1,.635-.672h.043q1.068-.016,2.136,0a.658.658,0,0,1,.669.646v.013a.667.667,0,0,1-.669.663h-.023c-.346.007-.694,0-1.042,0" transform="translate(6.265 12.623)" fill="#f88847"/>
          <path id="Path_13282" data-name="Path 13282" d="M154.438,300.028c-.348,0-.7.005-1.045,0a.667.667,0,0,1-.685-.644.656.656,0,0,1,.631-.68h.041q1.068-.016,2.135,0a.661.661,0,1,1-.008,1.322c-.356.007-.716,0-1.067,0" transform="translate(6.454 12.623)" fill="#f88847"/>
          <path id="Path_13283" data-name="Path 13283" d="M158.919,300.028c-.351,0-.7,0-1.043,0a.669.669,0,0,1-.7-.635v-.016a.659.659,0,0,1,.644-.672h.034q1.068-.016,2.136,0a.657.657,0,0,1,.668.645v.015a.669.669,0,0,1-.674.663h-.016c-.176.006-.355,0-.535,0Z" transform="translate(6.642 12.623)" fill="#f88847"/>
          <path id="Path_13284" data-name="Path 13284" d="M174.689,278.211a.746.746,0,1,1-.749-.742h.01a.744.744,0,0,1,.739.742" transform="translate(7.32 11.726)" fill="#f88847"/>
          <path id="Path_13285" data-name="Path 13285" d="M168.006,273.4a.752.752,0,0,1,.738-.746.768.768,0,0,1,.758.757.757.757,0,0,1-.768.74.738.738,0,0,1-.727-.747v0" transform="translate(7.1 11.523)" fill="#f88847"/>
          <path id="Path_13286" data-name="Path 13286" d="M200.583,123.949c.187-.883.31-1.784.571-2.644a17.724,17.724,0,0,1,4.93-7.572,33.608,33.608,0,0,1,7.217-5.2l.628-.346c-.257-.344-.5-.675-.746-1-.337-.429-.725-.822-1.018-1.279-.514-.8-.272-1.5.662-1.7a11.771,11.771,0,0,1,2.648-.241,19,19,0,0,1,7.558,1.674,1.416,1.416,0,0,0,.662.108,31.9,31.9,0,0,1,8.67.426,20.145,20.145,0,0,1,12.124,6.937.593.593,0,0,1,.072.758,17.333,17.333,0,0,1-5.662,6.275,25.769,25.769,0,0,1-10.624,4.141,3.284,3.284,0,0,0-1.3.509,25.381,25.381,0,0,1-5.363,2.819,4.726,4.726,0,0,1-1.549.287,1.073,1.073,0,0,1-1.075-1.605c.2-.52.452-1.021.709-1.592-.455-.069-.879-.114-1.288-.2-1.5-.307-2.994-.712-4.508-.926a17.713,17.713,0,0,0-7.474.452A5.762,5.762,0,0,0,204,125.362a5.084,5.084,0,0,1,.093-.888,3.68,3.68,0,0,1,1.42-1.955,24.884,24.884,0,0,1,2.108-1.33c.254-.153.445-.318.41-.638a.548.548,0,0,0-.591-.5.557.557,0,0,0-.215.064,8.388,8.388,0,0,0-3.8,3.071,3.031,3.031,0,0,0,.968,4.449,8.063,8.063,0,0,0,4.211,1.216,12.779,12.779,0,0,0,5.71-1.07,3.217,3.217,0,0,1,.689-.235.606.606,0,0,1,.754.405.614.614,0,0,1,.019.265,1.762,1.762,0,0,1-.141.579,7.911,7.911,0,0,1-2.35,3.142c-.522.427-1.064.833-1.6,1.243a4.2,4.2,0,0,0-1.7,3.337,2.416,2.416,0,0,1-.052.512.6.6,0,0,1-.657.528.588.588,0,0,1-.221-.069.921.921,0,0,1-.156-.071,17.193,17.193,0,0,1-7.292-7.638,11.428,11.428,0,0,1-.948-3.519,2.726,2.726,0,0,0-.076-.331Zm23.255-12.083c0-.761,0-1.523,0-2.284,0-.468-.286-.754-.683-.649-.342.09-.4.356-.419.666a32.16,32.16,0,0,0,.2,6.025,13.549,13.549,0,0,0,1.1,4.235,4.492,4.492,0,0,0,2.5,2.314.54.54,0,0,0,.742-.182.567.567,0,0,0,.03-.055.5.5,0,0,0-.168-.687.535.535,0,0,0-.125-.054,4.1,4.1,0,0,1-2.459-3.058,22.952,22.952,0,0,1-.714-6.27m9.946,2a1.4,1.4,0,1,0-.015,0h.015Z" transform="translate(8.477 4.394)" fill="#f88847"/>
          <path id="Path_13287" data-name="Path 13287" d="M582.31,205.692l8.32-4.516v4.783l8.811-4.787v4.783l8.8-4.777v20.171c0,.652,0,.653-.662.653H583.57c0-.962-.009-1.873.016-2.781,0-.091.212-.205.344-.256a3.757,3.757,0,0,0,2.623-3.181,3.83,3.83,0,1,0-7.623-.3,3.741,3.741,0,0,0,2.627,3.454c.339.106.4.268.392.57-.015.807-.005,1.613-.005,2.459h-7.609c.058-1.092.117-2.166.179-3.236q.206-3.5.416-7,.3-5.025.6-10.053.242-4.105.479-8.212c.068-1.167.139-2.335.192-3.5.014-.293.1-.427.42-.424q2.181.019,4.362,0c.284,0,.389.092.4.385q.313,5.609.644,11.22c.088,1.482.185,2.961.283,4.549m11.214,13.336v-7.112H590.66v7.114Zm8.806,0V211.9h-2.861v7.128Z" transform="translate(24.272 8.01)" fill="#f88847"/>
          <path id="Path_13288" data-name="Path 13288" d="M588.562,191.378a12.3,12.3,0,0,1,4.172-1.991c.286.6.594,1.177.839,1.78a1.668,1.668,0,0,0,1.728,1.1c.477,0,.959-.007,1.433-.053a1.394,1.394,0,0,0,1.17-.865c.268-.57.527-1.143.815-1.7.055-.106.26-.234.351-.208a12.023,12.023,0,0,1,3.909,1.925c-.322.649-.622,1.284-.945,1.905a1.565,1.565,0,0,0,.218,1.873c.258.312.5.638.756.951a1.58,1.58,0,0,0,1.76.576c.662-.178,1.332-.325,2.1-.51l.878,2.932-5.314,2.9c0-.32-.005-.578,0-.838a6.6,6.6,0,0,0-5.52-6.746,6.718,6.718,0,0,0-7.552,4.8.958.958,0,0,1-.406.526c-.788.462-1.594.892-2.406,1.311a.9.9,0,0,1-.539.062c-.747-.141-1.489-.311-2.257-.474a11.321,11.321,0,0,1,1.032-4.438c.67.157,1.327.288,1.971.468a1.6,1.6,0,0,0,1.862-.622c.3-.391.618-.772.887-1.185a1.411,1.411,0,0,0,.044-1.5c-.332-.649-.651-1.307-.986-1.977" transform="translate(24.67 8.004)" fill="#f88847"/>
          <path id="Path_13289" data-name="Path 13289" d="M508.453,329.1a2.083,2.083,0,0,1-2.267,1.526c.053.246.093.45.142.65a26.612,26.612,0,0,1,.917,6.464,5.491,5.491,0,0,1-.582,2.792.973.973,0,0,0-.068.459c-.005,1.581,0,3.162-.005,4.742a2.4,2.4,0,0,1-2.649,2.642c-.6,0-1.207,0-1.81,0a2.407,2.407,0,0,1-2.539-2.269,2.471,2.471,0,0,1,0-.277c0-.327,0-.652,0-1h-26.43v.989a2.414,2.414,0,0,1-2.26,2.561,2.445,2.445,0,0,1-.316,0q-.947.008-1.9,0a2.38,2.38,0,0,1-2.526-2.225,2.275,2.275,0,0,1,0-.279c-.016-1.595.005-3.19-.013-4.784a3.939,3.939,0,0,0-.179-.774,13.014,13.014,0,0,1-.441-2.091,24.039,24.039,0,0,1,.89-6.937l.15-.622c-.217-.025-.41-.044-.6-.071a1.9,1.9,0,0,1-1.667-1.846,1.83,1.83,0,0,1,1.632-1.9,27.464,27.464,0,0,1,2.885-.04.575.575,0,0,0,.625-.416c1-2.174,2.031-4.337,3.055-6.5a4.7,4.7,0,0,1,4.077-2.683,97.321,97.321,0,0,1,13.044-.372c2.18.058,4.361.206,6.536.379a4.636,4.636,0,0,1,4.128,2.735c1.008,2.156,2.037,4.3,3.031,6.465a.541.541,0,0,0,.6.391c.717-.023,1.438.024,2.155-.015a2.128,2.128,0,0,1,2.383,1.537Zm-7.9-2.323a34.81,34.81,0,0,0-2.709-6.2,1.615,1.615,0,0,0-1.093-.776,9.932,9.932,0,0,0-1.7-.269c-3.227-.12-6.457-.292-9.685-.286-2.8.007-5.592.228-8.387.367a2.518,2.518,0,0,0-2.431,1.6c-.48,1.151-1.047,2.264-1.541,3.407-.3.691-.534,1.409-.813,2.155Zm-14.138,5.992h-4.658c-.9,0-1.81-.01-2.714.008a.814.814,0,0,0-.879.743.849.849,0,0,0,.015.236.83.83,0,0,0,.908.685q7.281.008,14.564,0a1.152,1.152,0,0,0,.419-.072.819.819,0,0,0-.164-1.574,2.354,2.354,0,0,0-.428-.023q-3.532,0-7.064,0Zm-.018,3.32h-7.11a2.808,2.808,0,0,0-.387.008.82.82,0,0,0-.731.823.792.792,0,0,0,.722.819,3.417,3.417,0,0,0,.473.02h12.926c.5,0,1.007.014,1.507-.015a.8.8,0,0,0,.8-.8c0-.015,0-.028,0-.043a.824.824,0,0,0-.83-.817c-.114-.006-.229,0-.344,0Zm-14.026,1.649a2.158,2.158,0,0,0,2.174-2.143v-.013a2.172,2.172,0,1,0-2.185,2.156h.01Zm28.73,0a2.162,2.162,0,1,0-2.181-2.142v.006a2.161,2.161,0,0,0,2.179,2.137Z" transform="translate(19.622 13.387)" fill="#f88847"/>
          <path id="Path_13290" data-name="Path 13290" d="M292.978,145.882c-2.3,1.119-4.6,2.253-6.915,3.347a1.97,1.97,0,0,0-1.141,1.14,1.447,1.447,0,0,1-1.3,1.01.779.779,0,0,1-.479-.041c-.712-.546-1.282-.058-1.877.227-1.112.532-2.217,1.075-3.413,1.656.846.6.8,1.463.845,2.287a.8.8,0,0,0,.517.8,1.6,1.6,0,0,1,1.15,1.589c0,.143.072.283.08.427a1.5,1.5,0,0,0,1.183,1.529.964.964,0,0,1,.545.41,6.54,6.54,0,0,0,2.854,2.682c1.006.526,1.238,1.536,1.77,2.443H253.269c.486-.711.71-1.486,1.431-1.947,1.01-.644,2-1.317,2.99-2a1.119,1.119,0,0,0,.378-.484c.436-1.094.824-2.209,1.284-3.291a1.753,1.753,0,0,1,.666-.622,1.881,1.881,0,0,1,.661-.244.813.813,0,0,0,.7-.72c.219-1.206,1.288-1.75,2.017-2.559.079-.089.269-.093.41-.106.96-.091,1.923-.15,2.878-.273a2.044,2.044,0,0,0,.7-.4.2.2,0,0,0,.059-.09A7.44,7.44,0,0,1,271.632,149a.732.732,0,0,1,.542.01c1.208.592,2.406,1.2,3.6,1.822a1.747,1.747,0,0,1,.445.39c.267.293.518.6.794.927,1.61-.782,3.2-1.547,4.776-2.323a.591.591,0,0,0,.227-.279c2.167-4.584,4.317-9.174,6.5-13.749A2,2,0,0,1,289.3,135q2.972-1.723,5.983-3.379a4.232,4.232,0,0,1,2.938-.2c2.116.426,4.208.979,6.3,1.522a1.442,1.442,0,0,1,1.163,1.676l-.009.049c-.083,1.015-.195,2.028-.293,3.044-.021.214-.04.427-.068.73l2.5-1.2.579,1.183c-.937.453-1.847.9-2.764,1.334a.841.841,0,0,0-.558.644,1.405,1.405,0,0,1-1.648,1.111,1.509,1.509,0,0,1-.251-.074,1.241,1.241,0,0,0-1.25.113c-.143.074-.293.129-.492.214-.087-.479-.167-.918-.247-1.357.668-.163,1.108-.5,1-1.276a1.24,1.24,0,0,1,.033-.27c.111-1.112.219-2.228.331-3.375l-2.722-.711c.259.853.523,1.587.7,2.342.256,1.092.449,2.2.67,3.3l-8.294,4.039a8.614,8.614,0,0,0-2.676-5.245l-4.023,8.476,6.5-3.137.255,1.342Z" transform="translate(10.703 5.547)" fill="#f88847"/>
          <path id="Path_13291" data-name="Path 13291" d="M291.6,145.467q4.071-1.967,8.144-3.931c.028-.015.069,0,.168,0,.069,1,.181,2.005.2,3.012a23.14,23.14,0,0,0,1.621,7.586,27.557,27.557,0,0,0,5.241,8.744,2.377,2.377,0,1,1-3.2,3.51,2.717,2.717,0,0,1-.206-.218,32.765,32.765,0,0,1-6.79-11.891c-.316-.982-.566-1.984-.845-2.978a9.054,9.054,0,0,0-4.107,2.735,7.294,7.294,0,0,0-1.433,5.607,29.006,29.006,0,0,0,.94,4.132,2.4,2.4,0,0,1-1.838,3.266,2.2,2.2,0,0,1-2.414-1.21c-1.756-4.578-2.354-9.158.28-13.649a11.052,11.052,0,0,1,3.827-3.817c.391-.241.548-.488.437-.916Z" transform="translate(12.068 5.981)" fill="#f88847"/>
          <path id="Path_13292" data-name="Path 13292" d="M287.819,122.658a4.256,4.256,0,0,1,3.407,2.089c.147.235.235.454.607.4.141-.019.44.258.454.42a.758.758,0,0,1-.3.609,15.1,15.1,0,0,1-1.535.7q-3.15,1.366-6.3,2.729a1.032,1.032,0,0,1-.46.149c-.2-.025-.468-.1-.545-.244a.675.675,0,0,1,.033-.628c.244-.227.188-.419.117-.669a4.415,4.415,0,0,1,4.525-5.56" transform="translate(11.963 5.184)" fill="#f88847"/>
          <path id="Path_13293" data-name="Path 13293" d="M291.884,126.483a4.167,4.167,0,0,1-.033,4.494,4.012,4.012,0,0,1-4.137,1.957,4.174,4.174,0,0,1-3.577-3.088Z" transform="translate(12.008 5.345)" fill="#f88847"/>
          <path id="Path_13294" data-name="Path 13294" d="M299.305,140.285c-.22-1.1-.414-2.208-.67-3.3-.175-.755-.441-1.487-.7-2.341l2.722.71-.331,3.376a1.168,1.168,0,0,0-.034.27c.106.773-.334,1.112-1,1.275Z" transform="translate(12.591 5.69)" fill="#f88847"/>
        </g>
      </g>
    </g>
  </g>
</svg>
