<?xml version="1.0" standalone="no"?>
<!DOCTYPE svg PUBLIC "-//W3C//DTD SVG 20010904//EN"
 "http://www.w3.org/TR/2001/REC-SVG-20010904/DTD/svg10.dtd">
<svg version="1.0" xmlns="http://www.w3.org/2000/svg"
 width="700.000000pt" height="700.000000pt" viewBox="0 0 700.000000 700.000000"
 preserveAspectRatio="xMidYMid meet">
<metadata>
Created by potrace 1.14, written by Peter Selinger 2001-2017
</metadata>
<g transform="translate(0.000000,700.000000) scale(0.100000,-0.100000)"
fill="#000000" stroke="none">
<path d="M4028 6956 c-31 -22 -82 -59 -114 -81 -31 -22 -86 -61 -123 -88 -36
-26 -75 -54 -86 -62 -256 -181 -642 -456 -650 -462 -5 -5 -48 -35 -95 -68 -82
-57 -659 -468 -1170 -832 -135 -96 -387 -275 -560 -399 -173 -123 -324 -230
-335 -238 -11 -8 -141 -101 -290 -207 -148 -105 -346 -246 -438 -311 l-168
-120 24 -32 c24 -32 269 -375 321 -450 37 -53 648 -911 735 -1033 66 -91 211
-296 664 -933 131 -184 245 -344 253 -355 19 -26 434 -610 544 -766 47 -66 93
-130 102 -142 9 -12 73 -102 143 -200 l126 -177 57 41 c31 22 191 136 355 252
348 247 585 416 762 543 50 36 101 73 115 82 23 16 429 305 475 338 44 32 294
210 350 249 128 90 601 427 625 445 14 10 44 32 66 47 23 15 106 74 185 131
79 57 198 141 264 188 66 47 129 92 140 100 11 8 172 123 358 255 l338 241
-24 31 c-13 18 -129 181 -258 362 -388 546 -518 729 -531 747 -7 9 -85 119
-173 243 -88 125 -192 270 -230 323 -39 53 -92 129 -118 167 -26 39 -60 85
-75 103 l-28 33 -84 -68 c-47 -38 -96 -78 -110 -90 -14 -12 -119 -98 -235
-193 -115 -94 -219 -179 -230 -188 -11 -9 -45 -37 -75 -61 -100 -82 -95 -73
-68 -117 84 -137 157 -365 175 -544 38 -380 -65 -748 -290 -1040 -328 -425
-833 -624 -1382 -546 -164 23 -391 111 -547 211 -220 143 -402 346 -513 575
-200 410 -199 884 2 1284 220 438 649 740 1125 792 144 16 312 9 443 -18 33
-6 68 -11 77 -11 9 1 167 122 350 269 183 147 350 282 371 298 21 17 49 40 62
51 13 11 89 72 169 135 80 63 146 119 146 123 0 6 -299 433 -394 562 -8 11
-53 74 -100 140 -216 304 -361 507 -366 510 -3 1 -31 -16 -62 -39z"/>
</g>
</svg>
