<svg xmlns="http://www.w3.org/2000/svg" width="819.185" height="818.657" viewBox="-213.182 -203.714 819.185 818.657"><g data-name="Group 3564" clip-path="url(&quot;#a&quot;)"><g data-name="Group 3484"><g data-name="Group 3483" transform="translate(0 4.236)" clip-path="url(&quot;#b&quot;)"><path d="M-213.182 158.415 241.82-207.95l364.183 452.292L151 610.707l-364.182-452.292z" fill="#fff" fill-rule="evenodd" data-name="Rectangle 220"/></g></g><g data-name="Group 3519"><g data-name="Group 3518" clip-path="url(&quot;#c&quot;)"><path d="M264.9 380.386a2.508 2.508 0 0 1-1.682-.992c-5.902-7.954-48.814-70.196 8.297-127.091 54.215-54.011 78.79-65.1 82.059-96.834.382-3.707 5.392-4.596 7.04-1.255 12.32 24.968 31.513 83.232-32.004 121.474-70.065 42.185-64.324 88.428-60.935 101.57.448 1.736-.998 3.37-2.776 3.128" fill="#68ba45" fill-rule="evenodd" data-name="Path 13673"/><path d="M273.588 381.568a3.625 3.625 0 0 1-3.103-3.037c-1.672-10.822-5.78-51.266 24.016-61.992 32.8-11.806 59.281 18.742 83.392-5.168 1.268-1.258 3.402-.162 3.099 1.599-2.148 12.49-11.705 41.42-54.233 47.24-45.518 6.23-50.64 11.452-49.721 17.93.283 1.996-1.451 3.7-3.45 3.428Z" fill="#68ba45" fill-rule="evenodd" data-name="Path 13674"/><g data-name="Group 3487"><g data-name="Group 3486"><g data-name="Group 3485" transform="translate(249.584 186.826)" clip-path="url(&quot;#d&quot;)"><path d="M102.404.997c-.556 2.354-1.295 4.563-2.177 6.756a68.268 68.268 0 0 1-2.952 6.417c-2.154 4.194-4.738 8.161-7.566 11.941-5.697 7.541-12.59 14.165-20.187 19.782-3.789 2.793-7.84 5.36-11.843 7.678a107.669 107.669 0 0 0-11.243 7.532c-7.191 5.478-13.711 11.836-19.469 18.806-11.471 13.952-19.612 30.788-22.292 48.715-1.368 8.942-1.384 18.098-.152 27.115 1.217 9.029 3.79 17.87 7.184 26.394a.885.885 0 0 1-.49 1.154.894.894 0 0 1-1.136-.443c-3.968-8.424-6.932-17.38-8.574-26.627a94.35 94.35 0 0 1-1.477-14.02c-.113-4.708.085-9.436.679-14.121 1.14-9.379 3.786-18.568 7.596-27.216 3.822-8.654 8.871-16.737 14.768-24.11 5.896-7.383 12.735-13.988 20.214-19.76a112.897 112.897 0 0 1 11.754-7.935c4.003-2.297 7.804-4.631 11.485-7.288 7.348-5.249 14.138-11.307 19.98-18.222 2.956-3.426 5.634-7.094 8.08-10.918 2.399-3.832 4.64-7.874 6.254-12.053l.02-.055a.81.81 0 0 1 1.544.478" fill="#fff" fill-rule="evenodd" data-name="Path 13675"/></g></g></g><g data-name="Group 3490"><g data-name="Group 3489"><g data-name="Group 3488" transform="translate(271.657 318.895)" clip-path="url(&quot;#e&quot;)"><path d="M.043 55.334c.139-.392.095-.756.082-1.13l-.034-1.116-.026-2.23c.003-1.486.035-2.972.1-4.457.132-2.97.385-5.936.782-8.887.81-5.893 2.145-11.769 4.524-17.303 2.352-5.496 5.915-10.749 11.084-14.18a24.444 24.444 0 0 1 8.492-3.493c3.009-.635 6.1-.729 9.124-.463C46.02 3.45 57.634 5.721 69.278 7.565c5.8.866 11.682 1.637 17.377.859a25.851 25.851 0 0 0 4.164-.952c1.34-.467 2.657-1.015 3.888-1.736 2.476-1.414 4.653-3.347 6.6-5.492l.005-.007a.723.723 0 0 1 1.08.96c-1.972 2.27-4.225 4.368-6.858 5.948-1.307.803-2.718 1.43-4.156 1.964a27.582 27.582 0 0 1-4.45 1.119c-6.065.889-12.077.133-17.944-.672-5.883-.837-11.694-1.927-17.523-2.87-5.813-.947-11.692-1.861-17.48-2.54-2.858-.277-5.747-.21-8.532.352a22.479 22.479 0 0 0-7.844 3.144c-4.81 3.064-8.301 7.939-10.671 13.216C4.536 26.16 3.11 31.902 2.207 37.696a98.643 98.643 0 0 0-.933 8.764c-.091 1.468-.15 2.937-.18 4.408l-.015 2.205.015 1.101c.009.365-.008.74.172 1.086a.67.67 0 1 1-1.228.087l.005-.013Z" fill="#fff" fill-rule="evenodd" data-name="Path 13676"/></g></g></g><path d="M209.789 4.469c-17.852-.14-35.86 2.69-51.791 9.3-37.086 15.388-68.56 56.103-56.243 97.692 4 13.51 1.899 28.415 15.358 34.286 7.282 3.177 27.113 5.068 34.653 2.565 20.04-6.655 33.214-24.865 22.314-45.06-3.49-6.466-8.007-12.374-11.022-19.077-3.014-6.702-4.388-14.657-1.314-21.333 6.032-13.105 26.069-17.27 39.063-16.878 15.338.464 29.235 8.05 37.489 21.064 10.286 16.219 12.892 35.946 11.387 54.773-1.611 20.145-10.105 35.53-22.835 50.983-10.96 13.305-23.029 26.077-30.313 41.7-6.687 14.343-8.872 30.236-9.174 45.927-.058 3.041-15.184 31.702-15.118 40.458.009 1.237 17.154 5.335 18.39 5.349l31.468.351a2.509 2.509 0 0 0 2.541-2.474c.479-42.6 13.582-83.214 46.752-111.824 12.07-10.411 25.067-18.888 34.452-32.028 13.377-18.728 19.975-37.16 18.071-60.274-1.74-21.11-8.69-42.231-22.45-58.61-14.79-17.604-36.436-28.597-58.933-33.341a166.026 166.026 0 0 0-32.745-3.55" fill="#016a37" fill-rule="evenodd" data-name="Path 13677"/><path d="M242.71 354.325c0 19.589-10.859 36.92-30.448 36.92-4.23 0-18.624.039-22.386-1.32-13.656-4.934-13.705-15.426-13.705-30.783 0-19.59 6.613-38.855 26.203-38.855 19.589 0 40.337 14.448 40.337 34.038" fill="#016a37" fill-rule="evenodd" data-name="Path 13678"/><path d="M192.826.005c-17.852-.141-35.859 2.69-51.79 9.3-37.086 15.388-68.56 56.103-56.244 97.692 4.001 13.51 13.252 30.516 26.712 36.388 7.282 3.176 15.76 2.965 23.3.462 20.04-6.654 33.213-24.864 22.314-45.059-3.49-6.467-8.008-12.375-11.022-19.077-3.014-6.702-4.388-14.657-1.315-21.334 6.032-13.104 26.07-17.27 39.064-16.877 15.338.464 29.234 8.05 37.488 21.064 10.287 16.219 12.892 35.946 11.387 54.773-1.61 20.145-10.105 35.53-22.835 50.983-10.96 13.305-23.028 26.077-30.312 41.7-6.688 14.343-8.873 30.236-9.175 45.927-.058 3.041.966 34.8 1.03 43.557a2.266 2.266 0 0 0 2.243 2.25l31.468.351a2.509 2.509 0 0 0 2.54-2.474c.479-42.6 13.582-83.214 46.752-111.825 12.07-10.41 25.068-18.887 34.453-32.028 13.376-18.727 19.975-37.16 18.07-60.273-1.739-21.11-8.69-42.231-22.45-58.61-14.79-17.604-36.436-28.597-58.933-33.342A166.027 166.027 0 0 0 192.826.005" fill="#08984a" fill-rule="evenodd" data-name="Path 13679"/><path d="M230.146 354.678c0 19.59-15.88 35.47-35.47 35.47-19.589 0-35.469-15.88-35.469-35.47 0-19.589 15.88-35.469 35.47-35.469 19.589 0 35.47 15.88 35.47 35.47" fill="#08994b" fill-rule="evenodd" data-name="Path 13680"/><g data-name="Group 3493"><g data-name="Group 3492"><g data-name="Group 3491" transform="translate(94.702 10.842)" clip-path="url(&quot;#f&quot;)"><path d="M1.83 92.082a.454.454 0 0 1-.443-.357c-2.486-11.224-2.85-28.8 9.526-48.793C22.993 23.418 39.94 10.359 61.28 4.122c22.812-6.668 49.896-5.24 80.501 4.243a.454.454 0 1 1-.269.87C82.714-8.986 36.61 3.152 11.687 43.41-.529 63.145-.174 80.47 2.276 91.528a.456.456 0 0 1-.445.554" fill="#fff" fill-rule="evenodd" data-name="Path 13681"/></g></g></g><g data-name="Group 3496"><g data-name="Group 3495"><g data-name="Group 3494" transform="translate(98.555 110.278)" clip-path="url(&quot;#g&quot;)"><path d="M5.439 10.704a.453.453 0 0 1-.368-.187c-.108-.148-2.664-3.68-5.041-9.9A.455.455 0 0 1 .88.293C3.21 6.39 5.78 9.945 5.806 9.98a.457.457 0 0 1-.367.724" fill="#fff" fill-rule="evenodd" data-name="Path 13682"/></g></g></g><g data-name="Group 3499"><g data-name="Group 3498"><g data-name="Group 3497" transform="translate(194.222 327.951)" clip-path="url(&quot;#h&quot;)"><path d="M12.324 3.738a.459.459 0 0 1-.207-.05A25.538 25.538 0 0 0 .455.912a.456.456 0 0 1 0-.91c4.25 0 8.31.967 12.075 2.876a.455.455 0 0 1-.206.861" fill="#fff" fill-rule="evenodd" data-name="Path 13683"/></g></g></g><g data-name="Group 3502"><g data-name="Group 3501"><g data-name="Group 3500" transform="translate(167.95 331.066)" clip-path="url(&quot;#i&quot;)"><path d="M12.038 45.852a.451.451 0 0 1-.254-.078A26.716 26.716 0 0 1 0 23.612C0 13.753 5.4 4.727 14.091.055a.455.455 0 0 1 .432.802A25.803 25.803 0 0 0 .91 23.612 25.81 25.81 0 0 0 12.293 45.02a.455.455 0 0 1-.255.832" fill="#fff" fill-rule="evenodd" data-name="Path 13684"/></g></g></g><g data-name="Group 3505"><g data-name="Group 3504"><g data-name="Group 3503" transform="translate(6.626 55.262)" clip-path="url(&quot;#j&quot;)"><path d="M70.06 11.096a1.073 1.073 0 0 1-1.509.159 41.165 41.165 0 0 0-2.794-2.07 1.073 1.073 0 0 1-.298-1.474l.011-.017c.334-.49 1-.62 1.491-.287a43.258 43.258 0 0 1 2.94 2.18 1.073 1.073 0 0 1 .16 1.51m-9.187-4.753a41.453 41.453 0 0 0-3.18-1.405 1.073 1.073 0 1 1 .784-1.999c1.129.443 2.254.94 3.346 1.48a1.074 1.074 0 1 1-.95 1.924M52.308 3.25a40.32 40.32 0 0 0-3.413-.66 1.074 1.074 0 0 1 .317-2.124c1.202.18 2.411.414 3.593.695a1.073 1.073 0 0 1-.497 2.089m-9.044-1.102a40.81 40.81 0 0 0-3.476.12 1.074 1.074 0 0 1-.165-2.141 42.915 42.915 0 0 1 3.66-.125 1.073 1.073 0 1 1-.019 2.146M34.2 3.09a41.178 41.178 0 0 0-3.363.886 1.073 1.073 0 1 1-.634-2.05 43.526 43.526 0 0 1 3.539-.933A1.073 1.073 0 1 1 34.2 3.09m-8.63 2.923a41.333 41.333 0 0 0-3.082 1.608 1.073 1.073 0 0 1-1.073-1.86 43.252 43.252 0 0 1 3.245-1.692 1.073 1.073 0 1 1 .91 1.944M1.38 37.691a1.073 1.073 0 0 1-.902-1.222c.182-1.2.418-2.41.703-3.594a1.072 1.072 0 1 1 2.087.503A40.563 40.563 0 0 0 2.6 36.79a1.074 1.074 0 0 1-1.221.9m16.43-26.918c-.91.71-1.8 1.467-2.646 2.253a1.073 1.073 0 1 1-1.46-1.573 42.935 42.935 0 0 1 2.785-2.373 1.074 1.074 0 0 1 1.32 1.693M3.575 28.597a1.074 1.074 0 0 1-.605-1.393c.445-1.13.946-2.254 1.486-3.344a1.073 1.073 0 1 1 1.923.954 41.033 41.033 0 0 0-1.412 3.179 1.075 1.075 0 0 1-1.392.605m7.731-11.452a40.945 40.945 0 0 0-2.076 2.789 1.073 1.073 0 0 1-1.787-1.188l.012-.02a43.055 43.055 0 0 1 2.185-2.935 1.074 1.074 0 0 1 1.666 1.354" fill="#68ba45" fill-rule="evenodd" data-name="Path 13685"/><path d="M1.994 44.738c.116-.177.18-.39.173-.617a42.264 42.264 0 0 1-.02-1.673 1.073 1.073 0 1 0-2.145-.02c-.006.586 0 1.178.019 1.76a1.073 1.073 0 0 0 1.973.55" fill="#68ba45" fill-rule="evenodd" data-name="Path 13686"/></g></g></g><g data-name="Group 3508"><g data-name="Group 3507"><g data-name="Group 3506" transform="translate(19.115 93.858)" clip-path="url(&quot;#k&quot;)"><path d="M3.225 35.852a1.074 1.074 0 0 0-.182-1.38c-.41-.37-.82-.756-1.217-1.147a1.074 1.074 0 0 0-1.505 1.531c.419.411.85.818 1.282 1.209a1.074 1.074 0 0 0 1.622-.213" fill="#68ba45" fill-rule="evenodd" data-name="Path 13687"/><path d="M65.123 29.423a1.073 1.073 0 1 1-1.74-1.256 41.795 41.795 0 0 0 1.885-2.856 1.074 1.074 0 0 1 1.839 1.108 43.522 43.522 0 0 1-1.984 3.004m3.247-7.646a1.072 1.072 0 0 1-.56-1.41c.45-1.045.86-2.12 1.22-3.197a1.073 1.073 0 1 1 2.037.681 43.007 43.007 0 0 1-1.286 3.365 1.072 1.072 0 0 1-1.41.56m-6.989 12.145a42.625 42.625 0 0 1-2.595 2.496 1.073 1.073 0 1 1-1.422-1.608 40.136 40.136 0 0 0 2.465-2.371 1.073 1.073 0 1 1 1.552 1.483m9.904-20.876a1.072 1.072 0 0 1-.857-1.252 40.74 40.74 0 0 0 .489-3.387 1.072 1.072 0 1 1 2.135.217c-.12 1.19-.293 2.39-.514 3.566a1.073 1.073 0 0 1-1.253.857M54.152 39.977c-.994.66-2.03 1.288-3.08 1.864a1.074 1.074 0 0 1-1.033-1.88 40.996 40.996 0 0 0 2.925-1.772 1.073 1.073 0 0 1 1.188 1.788m-8.384 4.326a43.362 43.362 0 0 1-3.412 1.147 1.074 1.074 0 1 1-.6-2.06A41.456 41.456 0 0 0 45 42.299a1.074 1.074 0 0 1 .77 2.005m-9.128 2.395a43.343 43.343 0 0 1-3.58.378 1.074 1.074 0 0 1-.137-2.143 41.044 41.044 0 0 0 3.403-.358 1.072 1.072 0 1 1 .314 2.123m-9.432.348a42.837 42.837 0 0 1-3.58-.418 1.073 1.073 0 0 1 .34-2.119c1.12.179 2.263.312 3.398.395a1.074 1.074 0 0 1-.158 2.142m-9.284-1.735a42.749 42.749 0 0 1-3.396-1.195 1.073 1.073 0 1 1 .797-1.993 40.69 40.69 0 0 0 3.226 1.134 1.073 1.073 0 1 1-.627 2.054M9.26 41.585a43.918 43.918 0 0 1-3.057-1.902 1.062 1.062 0 0 1-.282-1.492 1.073 1.073 0 0 1 1.49-.282 41.518 41.518 0 0 0 2.906 1.809c.517.29.697.946.406 1.462l-.035.057a1.073 1.073 0 0 1-1.428.348" fill="#68ba45" fill-rule="evenodd" data-name="Path 13688"/><path d="M73.069 3.371c.116-.18.18-.394.172-.623a43.054 43.054 0 0 0-.1-1.757 1.074 1.074 0 0 0-2.14.166c.043.556.075 1.118.095 1.669a1.073 1.073 0 0 0 1.973.545" fill="#68ba45" fill-rule="evenodd" data-name="Path 13689"/></g></g></g><path d="M78.72 84.685a.502.502 0 0 0-.467-.35l-6.104-.133a26.59 26.59 0 0 0-5.567-6.577l.87-6.04a.502.502 0 0 0-.266-.518l-6.512-3.351a.501.501 0 0 0-.577.083l-4.409 4.22a26.615 26.615 0 0 0-8.588-.709l-3.656-4.89a.502.502 0 0 0-.556-.176l-6.974 2.235a.502.502 0 0 0-.349.466l-.133 6.105a26.578 26.578 0 0 0-6.578 5.567l-6.04-.871a.501.501 0 0 0-.517.267l-3.352 6.512a.504.504 0 0 0 .084.577l4.22 4.408a26.572 26.572 0 0 0-.709 8.588l-4.89 3.657a.5.5 0 0 0-.176.555l2.234 6.974a.502.502 0 0 0 .467.349l6.104.134a26.603 26.603 0 0 0 5.567 6.578l-.871 6.04c-.03.21.077.419.267.517l6.512 3.35c.191.099.422.065.577-.083l4.409-4.218c2.847.712 5.745.935 8.588.707l3.656 4.89c.129.172.351.243.556.178l6.974-2.235a.502.502 0 0 0 .348-.467l.135-6.104a26.592 26.592 0 0 0 6.577-5.568l6.04.871c.211.03.419-.077.517-.267l3.352-6.512a.503.503 0 0 0-.084-.576l-4.22-4.409c.713-2.847.937-5.745.71-8.588l4.889-3.657a.502.502 0 0 0 .177-.555l-2.235-6.974Z" fill="#68ba45" fill-rule="evenodd" data-name="Path 13690"/><path d="M54.737 102.853c-2.685 3.045-7.346 3.339-10.39.654a7.316 7.316 0 0 1-2.48-5.06 7.317 7.317 0 0 1 1.825-5.33c2.685-3.045 7.346-3.339 10.391-.654 2.77 2.442 3.263 6.52 1.308 9.53a7.364 7.364 0 0 1-.654.86M43.58 98.34a5.61 5.61 0 0 0 1.9 3.88 5.652 5.652 0 0 0 7.967-.501 5.649 5.649 0 0 0-.501-7.967 5.65 5.65 0 0 0-8.473 1.168 5.602 5.602 0 0 0-.893 3.42" fill="#bdd0fb" fill-rule="evenodd" data-name="Path 13691"/><path d="M64.224 107.912a18.376 18.376 0 0 0 2.226-4.847l.012-.038.03-.107.058-.21a.43.43 0 1 0-.83-.223 17.334 17.334 0 0 1-1.326 3.423c-2.795 5.433-8.096 8.753-13.772 9.278a17.138 17.138 0 0 1-9.45-1.837c-.53-.272-1.042-.57-1.535-.89a17.115 17.115 0 0 1-6.996-9.18 17.129 17.129 0 0 1 1.09-13.152c4.353-8.457 14.769-11.792 23.222-7.441a17.192 17.192 0 0 1 6.754 6.225.43.43 0 0 0 .73-.453 18.053 18.053 0 0 0-7.091-6.536c-8.875-4.568-19.813-1.06-24.38 7.812a17.98 17.98 0 0 0-1.142 13.807 17.961 17.961 0 0 0 7.343 9.637 18.43 18.43 0 0 0 1.611.935 17.986 17.986 0 0 0 13.808 1.143 17.964 17.964 0 0 0 9.638-7.346" fill="#bdd0fb" fill-rule="evenodd" data-name="Path 13692"/><g data-name="Group 3511"><g data-name="Group 3510"><g data-name="Group 3509" transform="translate(72.216 40.238)" clip-path="url(&quot;#l&quot;)"><path d="M48.216 10.728a.662.662 0 0 0-.053-.793A27.83 27.83 0 0 0 47.02 8.68a.663.663 0 1 0-.952.922c.373.386.739.788 1.089 1.195a.663.663 0 0 0 1.059-.07" fill="#68ba45" fill-rule="evenodd" data-name="Path 13693"/><path d="M44.514 7.233a.662.662 0 0 1-.932.1 27.755 27.755 0 0 0-2.748-1.946.663.663 0 0 1-.214-.913c.195-.286.602-.406.914-.213a28.947 28.947 0 0 1 2.88 2.04.664.664 0 0 1 .1.932M37.87 3.79a27.595 27.595 0 0 0-3.136-1.224.662.662 0 1 1 .406-1.263c1.114.358 2.221.79 3.287 1.283a.663.663 0 1 1-.557 1.204m-6.4-2.05a27.118 27.118 0 0 0-3.34-.415A.663.663 0 0 1 28.21 0c1.172.072 2.352.22 3.504.436a.663.663 0 1 1-.245 1.303m-6.708-.414c-1.118.069-2.242.208-3.34.414a.663.663 0 0 1-.244-1.303A28.796 28.796 0 0 1 24.68.002a.664.664 0 0 1 .082 1.324M18.156 2.56a27.653 27.653 0 0 0-3.14 1.213.663.663 0 1 1-.552-1.205 28.952 28.952 0 0 1 3.291-1.272.663.663 0 1 1 .401 1.264M12.05 5.362a27.202 27.202 0 0 0-2.745 1.942.663.663 0 0 1-.831-1.034 28.614 28.614 0 0 1 2.88-2.036.663.663 0 0 1 .696 1.128M6.818 9.57A27.299 27.299 0 0 0 4.63 12.13a.663.663 0 0 1-1.059-.8 28.767 28.767 0 0 1 2.294-2.681.663.663 0 0 1 .953.922M.404 18.303a.663.663 0 0 1-.351-.869 28.816 28.816 0 0 1 1.573-3.16.656.656 0 0 1 .906-.241.663.663 0 0 1 .242.905 27.562 27.562 0 0 0-1.501 3.013.663.663 0 0 1-.869.352" fill="#68ba45" fill-rule="evenodd" data-name="Path 13694"/></g></g></g><g data-name="Group 3514"><g data-name="Group 3513"><g data-name="Group 3512" transform="translate(94.877 66.012)" clip-path="url(&quot;#m&quot;)"><path d="M27.556 18.746c-.642.961-1.348 1.89-2.099 2.764a.663.663 0 0 1-1.006-.865 27.308 27.308 0 0 0 2.003-2.636.664.664 0 0 1 1.107.73l-.005.007m.862-2.706a.662.662 0 0 1-.292-.89 27.79 27.79 0 0 0 1.318-3.04.664.664 0 0 1 1.247.454 29.108 29.108 0 0 1-1.382 3.185.662.662 0 0 1-.891.29M23.036 24a28.636 28.636 0 0 1-2.707 2.175.662.662 0 1 1-.766-1.081 27.536 27.536 0 0 0 2.58-2.075.664.664 0 0 1 .893.982M30.88 9.73a.663.663 0 0 1-.497-.795c.248-1.073.43-2.172.545-3.266a.664.664 0 0 1 1.319.137c-.12 1.148-.312 2.301-.572 3.427a.663.663 0 0 1-.795.497m-13.5 18.273a28.916 28.916 0 0 1-3.15 1.46.662.662 0 1 1-.483-1.235 27.445 27.445 0 0 0 3.003-1.392.662.662 0 1 1 .63 1.167m-6.451 2.53a29.147 29.147 0 0 1-3.408.665.662.662 0 0 1-.174-1.314 27.83 27.83 0 0 0 3.25-.635.664.664 0 0 1 .332 1.285m-6.871.913a28.725 28.725 0 0 1-3.47-.173.664.664 0 0 1 .147-1.318c1.092.122 2.205.177 3.307.164a.662.662 0 1 1 .016 1.327" fill="#68ba45" fill-rule="evenodd" data-name="Path 13695"/><path d="M32.292 2.678a.654.654 0 0 0 .106-.373 28.89 28.89 0 0 0-.08-1.693.664.664 0 0 0-1.323.103c.041.53.068 1.074.078 1.615a.663.663 0 0 0 1.22.348" fill="#68ba45" fill-rule="evenodd" data-name="Path 13696"/></g></g></g><path d="M118.192 59.818a.337.337 0 0 0-.313-.233l-4.084-.09a17.81 17.81 0 0 0-3.726-4.4l.582-4.042a.335.335 0 0 0-.178-.347l-4.358-2.242a.335.335 0 0 0-.386.055l-2.949 2.824a17.81 17.81 0 0 0-5.747-.474l-2.447-3.272a.334.334 0 0 0-.37-.118l-4.668 1.495a.336.336 0 0 0-.233.313l-.09 4.084a17.808 17.808 0 0 0-4.401 3.726l-4.041-.584a.335.335 0 0 0-.347.179l-2.244 4.358a.337.337 0 0 0 .057.386l2.823 2.95a17.822 17.822 0 0 0-.474 5.746l-3.272 2.448a.334.334 0 0 0-.118.37l1.496 4.668c.043.136.169.23.31.233l4.087.09a17.789 17.789 0 0 0 3.725 4.401l-.583 4.041c-.021.142.05.281.178.346l4.358 2.244a.337.337 0 0 0 .386-.057l2.95-2.822a17.81 17.81 0 0 0 5.746.473l2.448 3.272a.334.334 0 0 0 .37.119l4.667-1.496a.335.335 0 0 0 .234-.312l.09-4.084a17.784 17.784 0 0 0 4.401-3.726l4.041.582c.143.02.281-.05.347-.178l2.242-4.358a.333.333 0 0 0-.056-.385l-2.822-2.95c.476-1.905.626-3.846.473-5.748l3.272-2.446a.336.336 0 0 0 .119-.372l-1.495-4.667Z" fill="#68ba45" fill-rule="evenodd" data-name="Path 13697"/><path d="M102.209 72.034a4.976 4.976 0 0 1-3.448 1.689 4.983 4.983 0 0 1-3.63-1.243 5.022 5.022 0 0 1-.446-7.079 5.021 5.021 0 0 1 7.078-.445 4.985 4.985 0 0 1 1.689 3.447 4.98 4.98 0 0 1-1.243 3.631m-6.201-.549c.739.652 1.687.977 2.671.915a3.664 3.664 0 0 0 2.535-1.242c.651-.74.977-1.688.915-2.672a3.664 3.664 0 0 0-1.243-2.535 3.693 3.693 0 0 0-5.534.76 3.694 3.694 0 0 0 .656 4.774" fill="#bdd0fb" fill-rule="evenodd" data-name="Path 13698"/><path d="M108.812 75.555a12.584 12.584 0 0 0 1.598-3.577.664.664 0 0 0-1.28-.345c-.206.764-.495 1.51-.86 2.216a11.057 11.057 0 0 1-3.72 4.177c-.827.552-1.734.995-2.702 1.315l-.024.007-.072.024c-2.84.91-5.863.66-8.514-.705a11.076 11.076 0 0 1-5.522-6.52c-.91-2.839-.66-5.862.704-8.513a11.102 11.102 0 0 1 6.52-5.522c2.839-.91 5.862-.66 8.514.704a11.128 11.128 0 0 1 4.373 4.029.663.663 0 1 0 1.125-.7 12.463 12.463 0 0 0-4.89-4.507 12.405 12.405 0 0 0-9.528-.789 12.396 12.396 0 0 0-7.293 6.178 12.401 12.401 0 0 0-.788 9.525 12.39 12.39 0 0 0 5.066 6.649c.357.232.727.447 1.111.645 5.743 2.955 12.736 1.012 16.182-4.291" fill="#bdd0fb" fill-rule="evenodd" data-name="Path 13699"/><path d="m254.7 120.56-19.279 19.722 23.126-6.178-3.846-13.544Z" fill="#68ba45" fill-rule="evenodd" data-name="Path 13700"/><path d="M369.417 128.723 259.87 134.04a4.93 4.93 0 0 1-5.17-4.924V84.047a9.067 9.067 0 0 1 8.787-9.062l98.73-3.056c7.353 0 13.313 5.961 13.313 13.313v37.064c0 3.427-2.69 6.25-6.113 6.417" fill="#68ba45" fill-rule="evenodd" data-name="Path 13701"/><g data-name="Group 3517"><g data-name="Group 3516"><g data-name="Group 3515" transform="translate(256.383 73.15)" clip-path="url(&quot;#n&quot;)"><path d="M6.763 59.08A6.708 6.708 0 0 1 2.1 57.21 6.717 6.717 0 0 1 0 52.306v-40.62c0-4.786 3.837-8.652 8.737-8.8L104.332.001c7.245 0 13.133 5.748 13.133 12.815v35.02c0 3.37-2.699 6.137-6.145 6.3L7.094 59.074c-.11.005-.221.008-.33.008M104.337.476 8.752 3.362C4.111 3.502.476 7.159.476 11.688v40.619c0 1.74.692 3.358 1.95 4.558a6.232 6.232 0 0 0 4.646 1.733l104.225-4.936c3.193-.15 5.693-2.71 5.693-5.826v-35.02c0-6.805-5.675-12.34-12.652-12.34" fill="#fff" fill-rule="evenodd" data-name="Path 13702"/></g></g></g></g></g><g data-name="Group 3521"><g data-name="Group 3520" transform="translate(271.297 81.84)" clip-path="url(&quot;#o&quot;)"><path d="M0 0h90.789v6.489H0V0z" fill-rule="evenodd" fill="url(&quot;#p&quot;)" transform="translate(-.028)" data-name="Rectangle 233"/></g></g><g data-name="Group 3523"><g data-name="Group 3522" transform="translate(263.458 104.016)" clip-path="url(&quot;#q&quot;)"><path d="M0 0h90.793v6.586H0V0z" fill-rule="evenodd" fill="url(&quot;#r&quot;)" transform="translate(-.029)" data-name="Rectangle 234"/></g></g><g data-name="Group 3525"><g data-name="Group 3524" transform="translate(263.459 113.293)" clip-path="url(&quot;#s&quot;)"><path d="M0 0h101.204v7.048H0V0z" fill-rule="evenodd" fill="url(&quot;#t&quot;)" transform="translate(-.03)" data-name="Rectangle 235"/></g></g><g data-name="Group 3527"><g data-name="Group 3526" transform="translate(263.848 94.916)" clip-path="url(&quot;#u&quot;)"><path d="M0 0h49.558v5.098H0V0z" fill-rule="evenodd" fill="url(&quot;#v&quot;)" transform="translate(-.036)" data-name="Rectangle 236"/></g></g><g data-name="Group 3529"><g data-name="Group 3528" transform="translate(319.118 93.266)" clip-path="url(&quot;#w&quot;)"><path d="M0 0h46.849v5H0V0z" fill-rule="evenodd" fill="url(&quot;#x&quot;)" transform="translate(-.035)" data-name="Rectangle 237"/></g></g><g data-name="Group 3531"><g data-name="Group 3530" transform="translate(87.005 377.3)" clip-path="url(&quot;#y&quot;)"><path d="M0 0h31.938v32.909H0V0z" fill-rule="evenodd" fill="url(&quot;#z&quot;)" transform="rotate(-47.406 5.359 12.57)" data-name="Rectangle 238"/></g></g><g data-name="Group 3533"><g data-name="Group 3532" transform="translate(87.625 373.35)" clip-path="url(&quot;#A&quot;)"><path d="M0 0h7.745v9H0V0z" fill-rule="evenodd" fill="url(&quot;#B&quot;)" data-name="Rectangle 239"/></g></g><g data-name="Group 3535"><g data-name="Group 3534" clip-path="url(&quot;#C&quot;)"><path d="M88.17 259.342c-.313 1.597-1.681 79.682 6.665 114.674.136.57-.153 1.16-.696 1.382-1.281.523-3.79 1.28-6.798 1.381a2.045 2.045 0 0 1-2.03-1.468c-2.386-8.119-13.818-48.796-15.31-87.654-1.666-43.42 0-1.478 0-1.478l.978-26.84 17.191.003Z" fill="#08984a" fill-rule="evenodd" data-name="Path 13710"/></g></g><g data-name="Group 3537"><g data-name="Group 3536" transform="translate(58.103 379.966)" clip-path="url(&quot;#D&quot;)"><path d="M0 0h17.834v17.85H0V0z" fill-rule="evenodd" fill="url(&quot;#E&quot;)" transform="rotate(-47.406 4.492 10.705)" data-name="Rectangle 241"/></g></g><g data-name="Group 3539"><g data-name="Group 3538" transform="translate(59.713 371.742)" clip-path="url(&quot;#F&quot;)"><path d="M0 0h6.687v10.852H0V0z" fill-rule="evenodd" fill="url(&quot;#G&quot;)" data-name="Rectangle 242"/></g></g><g data-name="Group 3541"><g data-name="Group 3540" clip-path="url(&quot;#H&quot;)"><path d="M55.134 261.738c-6.827 41.198 1.48 101.825 4.283 113.69a1.849 1.849 0 0 0 1.494 1.406c1.25.207 3.31.377 5.339-.213a1.696 1.696 0 0 0 1.219-1.562c.376-9.593-.3-68.487 6.06-91.762a5.29 5.29 0 0 1 2.04-2.916l12.345-8.777.947-14.187-33.727 4.32Z" fill="#016a37" fill-rule="evenodd" data-name="Path 13713"/><path d="M98.632 183.675c-20.457-.338-43.03 5.372-43.03 5.372-6.098 35.581-1.067 76.623-1.067 76.623 15.839 4.153 33.704-2.54 33.704-2.54 2.633-14.872 14.914-56.727 14.914-56.727 9.996-1.24 18.23-4.125 25.011-7.937-5.172-5.996-7.61-13.625-8.67-18.135-7.233 2.248-14.552 3.449-20.862 3.344" fill="#0d3455" fill-rule="evenodd" data-name="Path 13714"/></g></g><g data-name="Group 3543"><g data-name="Group 3542" transform="translate(119.495 151.993)" clip-path="url(&quot;#I&quot;)"><path d="M0 0h56.935v52.697H0V0z" fill-rule="evenodd" fill="url(&quot;#J&quot;)" transform="rotate(-70.71 21.932 30.913)" data-name="Rectangle 244"/></g></g><g data-name="Group 3545"><g data-name="Group 3544" transform="translate(154.508 132.308)" clip-path="url(&quot;#K&quot;)"><path d="M0 0h26.975v21.371H0V0z" fill-rule="evenodd" fill="url(&quot;#L&quot;)" transform="rotate(-70.71 10.888 15.967)" data-name="Rectangle 245"/></g></g><g data-name="Group 3547"><g data-name="Group 3546" transform="translate(157.012 141.718)" clip-path="url(&quot;#M&quot;)"><path d="M0 0h11.184v9.498H0V0z" fill-rule="evenodd" fill="url(&quot;#N&quot;)" transform="rotate(-63.631 4.293 6.92)" data-name="Rectangle 246"/></g></g><g data-name="Group 3549"><g data-name="Group 3548" clip-path="url(&quot;#O&quot;)"><path d="m63.448 208.856-7.846-19.809S36.493 202.03 33.35 218.492c3.61.266 10.18 1.205 16.61 4.452 1.414-7.773 13.487-14.088 13.487-14.088" fill="#0d3455" fill-rule="evenodd" data-name="Path 13718"/></g></g><g data-name="Group 3551"><g data-name="Group 3550" transform="translate(32.915 218.492)" clip-path="url(&quot;#P&quot;)"><path d="M0 0h50.584v38.771H0V0z" fill-rule="evenodd" fill="url(&quot;#Q&quot;)" transform="translate(-.512)" data-name="Rectangle 248"/></g></g><g data-name="Group 3553"><g data-name="Group 3552" clip-path="url(&quot;#R&quot;)"><path d="m77.57 242.834 11.709-40.89a1.191 1.191 0 0 1 1.008-.858c2.121-.247 8.269-.942 15.366-1.542 8.549-.723 18.477-1.31 24.41-.81.843.07 1.353.961.978 1.72-3.374 6.827-17.25 34.59-24.2 43.685-.23.302-.587.478-.966.474l-27.166-.253a1.197 1.197 0 0 1-1.14-1.526" fill="#68ba45" fill-rule="evenodd" data-name="Path 13720"/><path d="m106.868 195.998 8.49-1.414a.609.609 0 0 1 .677.792l-.84 2.546a.608.608 0 0 1-.497.413l-8.17 1.091a.61.61 0 0 1-.673-.742l.52-2.224a.608.608 0 0 1 .493-.462" fill="#bdd0fb" fill-rule="evenodd" data-name="Path 13721"/><path d="m100.51 203.185.7-3.642a.841.841 0 0 1 .742-.68l17.146-1.74a.843.843 0 0 1 .904 1.035l-1.09 4.54a.842.842 0 0 1-.777.644l-16.755.843a.843.843 0 0 1-.87-1" fill="#bdd0fb" fill-rule="evenodd" data-name="Path 13722"/></g></g><g data-name="Group 3555"><g data-name="Group 3554" transform="translate(79.269 219.014)" clip-path="url(&quot;#S&quot;)"><path d="M0 0h16.101v14.331H0V0z" fill-rule="evenodd" fill="url(&quot;#T&quot;)" transform="translate(-.502)" data-name="Rectangle 250"/></g></g><g data-name="Group 3557"><g data-name="Group 3556" transform="translate(71.364 167.068)" clip-path="url(&quot;#U&quot;)"><path d="M0 0h19.866v23.457H0V0z" fill-rule="evenodd" fill="url(&quot;#V&quot;)" transform="translate(-.07)" data-name="Rectangle 251"/></g></g><g data-name="Group 3559"><g data-name="Group 3558" transform="translate(75.389 149.635)" clip-path="url(&quot;#W&quot;)"><path d="M0 0h33.177v33.013H0V0z" fill-rule="evenodd" fill="url(&quot;#X&quot;)" transform="rotate(-58.62 10.384 18.496)" data-name="Rectangle 252"/></g></g><g data-name="Group 3561"><g data-name="Group 3560" transform="translate(65.556 139.852)" clip-path="url(&quot;#Y&quot;)"><path d="M0 0h43.522v43.534H0V0z" fill-rule="evenodd" fill="url(&quot;#Z&quot;)" transform="rotate(-51.697 11.075 24.717)" data-name="Rectangle 253"/></g></g><g data-name="Group 3563"><g data-name="Group 3562" transform="translate(76.47 161.128)" clip-path="url(&quot;#aa&quot;)"><path d="M0 0h8.5v9.157H0V0z" fill-rule="evenodd" fill="url(&quot;#ab&quot;)" transform="rotate(-58.62 2.145 4.447)" data-name="Rectangle 254"/></g></g></g><defs><clipPath id="b"><path d="M167.254 7.21C83.628 18.14 42.484 86.304 34.694 98.586-7.89 165.727-16.438 267.44 38.46 332c36.286 42.672 86.477 52.867 112.442 58.14 17.584 3.572 100.319 18.196 170.24-31.974 5.948-4.267 13.477-9.67 21.434-18.046 60.296-63.479 66.68-215.259-22.997-290.392-35.716-29.922-82.796-44.154-126.85-44.152-8.641 0-17.176.548-25.476 1.633" data-name="Path 13672" transform="translate(0 -5.576)"/></clipPath><clipPath id="d"><path d="M0 0h102.427v183.351H0V0z" data-name="Rectangle 221"/></clipPath><clipPath id="e"><path d="M0 0h102.569v56.24H0V0z" data-name="Rectangle 222"/></clipPath><clipPath id="f"><path d="M0 0h142.102v92.082H0V0z" data-name="Rectangle 223"/></clipPath><clipPath id="g"><path d="M0 0h5.894v10.704H0V0z" data-name="Rectangle 224"/></clipPath><clipPath id="h"><path d="M0 0h12.779v3.738H0V0z" data-name="Rectangle 225"/></clipPath><clipPath id="i"><path d="M0 0h14.762v45.852H0V0z" data-name="Rectangle 226"/></clipPath><clipPath id="j"><path d="M0 0h70.3v45.228H0V0z" data-name="Rectangle 227"/></clipPath><clipPath id="k"><path d="M0 0h73.242v47.08H0V0z" data-name="Rectangle 228"/></clipPath><clipPath id="l"><path d="M0 0h48.323v18.356H0V0z" data-name="Rectangle 229"/></clipPath><clipPath id="m"><path d="M0 0h32.398v31.448H0V0z" data-name="Rectangle 230"/></clipPath><clipPath id="n"><path d="M0 0h117.465v59.08H0V0z" data-name="Rectangle 231"/></clipPath><clipPath id="c"><path d="M0 0h387.492v393.54H0V0z" data-name="Rectangle 232"/></clipPath><clipPath id="o"><path d="m446.263 107.743-87.596 3.278c-.86.032-1.537.602-1.508 1.27l.032.77c.029.661.738 1.168 1.589 1.138L446.379 111c.86-.031 1.54-.601 1.51-1.27l-.036-.85c-.027-.641-.696-1.139-1.514-1.139-.025 0-.05 0-.076.002" data-name="Path 13703" transform="translate(-357.158 -107.741)"/></clipPath><clipPath id="q"><path d="m435.943 136.937-87.596 3.261c-.86.032-1.537.622-1.507 1.314l.034.797c.03.685.739 1.212 1.59 1.181l87.6-3.179c.862-.031 1.539-.62 1.509-1.313l-.037-.88c-.03-.666-.701-1.183-1.52-1.183-.025 0-.049 0-.073.002" data-name="Path 13704" transform="translate(-346.839 -136.935)"/></clipPath><clipPath id="s"><path d="m446.177 149.15-97.65 3.687c-.96.036-1.717.634-1.686 1.333l.034.805c.03.692.819 1.22 1.768 1.186l97.654-3.604c.96-.035 1.718-.634 1.687-1.333l-.037-.889c-.03-.67-.77-1.187-1.68-1.187-.03 0-.06 0-.09.002" data-name="Path 13705" transform="translate(-346.84 -149.148)"/></clipPath><clipPath id="u"><path d="m395.879 124.956-47.743 1.39c-.47.014-.82.658-.78 1.435l.042.895c.04.768.444 1.377.908 1.365l47.747-1.299c.47-.013.821-.657.782-1.435l-.048-.986c-.038-.76-.435-1.366-.893-1.366h-.015" data-name="Path 13706" transform="translate(-347.352 -124.955)"/></clipPath><clipPath id="w"><path d="m465.978 122.783-45.126 1.294c-.444.013-.773.655-.735 1.431l.045.895c.038.769.422 1.38.861 1.368l45.131-1.201c.444-.013.774-.655.735-1.432l-.049-.988c-.038-.762-.416-1.367-.848-1.367h-.014" data-name="Path 13707" transform="translate(-420.114 -122.783)"/></clipPath><clipPath id="y"><path d="M114.555 506.88c-.173 1.978 1.352 3.695 3.335 3.778 6.74.28 21.153.826 26.326.596a1.135 1.135 0 0 0 .998-1.554 2.539 2.539 0 0 0-1.3-1.368l-23.809-10.944-4.204-.679s-.903 5.111-1.346 10.172" data-name="Path 13708" transform="translate(-114.541 -496.709)"/></clipPath><clipPath id="A"><path d="m115.357 492.456.725 6.114s4.171 1.941 7.02-.245l-1.727-6.814-6.018.945Z" data-name="Path 13709" transform="translate(-115.357 -491.511)"/></clipPath><clipPath id="C"><path d="M0 0h387.492v393.54H0V0z" data-name="Rectangle 240"/></clipPath><clipPath id="D"><path d="M76.535 509.657a2.127 2.127 0 0 0 1.873 2.548c2.224.218 5.65.5 8.394.481 1.265-.009 2.251-1.11 2.1-2.366-.305-2.503-1.252-6.61-4.177-9.81l-5.36-.291s-1.438 2.581-2.83 9.438" data-name="Path 13711" transform="translate(-76.492 -500.219)"/></clipPath><clipPath id="F"><path d="M78.611 489.752 80.306 499s1.677 1.246 4.992.342l-.808-9.948-5.879.36Z" data-name="Path 13712" transform="translate(-78.611 -489.393)"/></clipPath><clipPath id="H"><path d="M0 0h387.492v393.54H0V0z" data-name="Rectangle 243"/></clipPath><clipPath id="I"><path d="M192.325 200.367c-3.01 12.717-18.795 23.028-35.012 28.067 1.059 4.51 3.497 12.14 8.67 18.135 26.913-15.133 30.896-44.923 30.896-44.923-1.032-1.247-2.207-1.55-3.104-1.55-.848 0-1.45.271-1.45.271" data-name="Path 13715" transform="translate(-157.313 -200.096)"/></clipPath><clipPath id="K"><path d="M203.75 186.994c-.783 1.068.013 6.68.064 7.992 1.434 2.734 3.869 1.716 3.658 1.047 0 0 2.397-.018 4.077-2.405.888-1.263 1.828-2.875 2.517-4.116.686-1.236.903-2.686.547-4.045-.468-1.793-1.47-3.044-2.29-4.527l3.922-4.085s1.127-1.325-.24-2.673c0 0-8.085 7.127-12.255 12.812" data-name="Path 13716" transform="translate(-203.407 -174.182)"/></clipPath><clipPath id="M"><path d="m207.827 189.599-1.123 3.017 3.187 3.535s1.071-5.985 1.867-7.28c.797-1.296.384-1.923-.357-2.302l-3.574 3.03Z" data-name="Path 13717" transform="translate(-206.704 -186.569)"/></clipPath><clipPath id="O"><path d="M0 0h387.492v393.54H0V0z" data-name="Rectangle 247"/></clipPath><clipPath id="P"><path d="M46.238 303.217c12.68 23.195 47.166-1.282 47.166-1.282l-2.84-5.29s-21.453 12.125-28.693 1.772c-1.503-2.15-1.862-4.287-1.491-6.323-6.432-3.248-13.002-4.187-16.612-4.453-.948 4.963-.447 10.24 2.47 15.576" data-name="Path 13719" transform="translate(-43.332 -287.641)"/></clipPath><clipPath id="R"><path d="M0 0h387.492v393.54H0V0z" data-name="Rectangle 249"/></clipPath><clipPath id="S"><path d="M104.513 293.184c-.658 2.38.973 9.087.973 9.087 2.743.39 4.388-.78 5.58-1.95 1.281-1.256 2.04-2.512 3.08-1.835 2.007 1.307 3.179-.731 3.179-.731l-1.864-2.055c2.728 1.326 3.015-1.156 3.015-1.156l-2.003-1.55c3.23 1 3.483-2.1 3.483-2.1s-5.013-1.79-9.261-2.469a7.295 7.295 0 0 0-1.148-.096c-3.341 0-4.44 2.706-5.034 4.855" data-name="Path 13723" transform="translate(-104.356 -288.329)"/></clipPath><clipPath id="U"><path d="m100.496 219.942-6.509 18.824a.678.678 0 0 0 .31.817c1.773.98 8.166 3.816 15.87-1.067a3.198 3.198 0 0 0 1.47-2.282l2.108-16.292h-13.249Z" data-name="Path 13724" transform="translate(-93.95 -219.942)"/></clipPath><clipPath id="W"><path d="m99.248 201.985 5.406 14.529c7.736 4.414 16.594 4.803 17.51-.632.916-5.434-6.23-18.89-6.23-18.89l-16.686 4.993Z" data-name="Path 13725" transform="translate(-99.248 -196.992)"/></clipPath><clipPath id="Y"><path d="M108.084 186.962a.555.555 0 0 1-.88.006c-.956-1.245-3.471-3.83-6.963-2.262-3.268 1.466-3.636 3.86-3.591 5.067a.552.552 0 0 1-.654.565c-1.652-.315-5.617-.586-7.467 3.481-1.524 3.35-.534 5.246.369 6.174.292.301.164.795-.237.918-1.086.332-2.488 1.253-2.348 3.797.194 3.517 4.127 3.207 5.246 3.047a.556.556 0 0 1 .493.174c.96 1.062 5.284 5.573 9.965 6.117a.56.56 0 0 0 .587-.74l-2.026-5.889a.555.555 0 0 1 .302-.69l1.005-.444a.555.555 0 0 0 .241-.812c-.572-.875-1.646-2.66-1.988-4.223 0 0-1.286-.823 3.27-1.913 4.555-1.09 11.349-2.783 12.777-6.66 1.015-2.758-.656-8.562-3.9-8.562-1.202 0-2.622.8-4.201 2.85" data-name="Path 13726" transform="translate(-86.303 -184.113)"/></clipPath><clipPath id="aa"><path d="M100.69 213.3c-.37 2.94 4.584 4.26 7.038 3.163l-1.576-2.612s-2.52-1.728-4.143-1.729c-.683 0-1.208.307-1.318 1.178" data-name="Path 13727" transform="translate(-100.671 -212.122)"/></clipPath><clipPath id="a"><path d="M0 0h387.492v393.54H0V0z" data-name="Rectangle 255"/></clipPath><linearGradient x1="-2.988" y1="48.039" x2="-2.98" y2="48.039" id="p"><stop stop-color="#dae3fe" offset="0"/><stop stop-color="#e9effd" offset="1"/></linearGradient><linearGradient x1="-2.901" y1="43.958" x2="-2.893" y2="43.958" id="r"><stop stop-color="#dae3fe" offset="0"/><stop stop-color="#e9effd" offset="1"/></linearGradient><linearGradient x1="-2.603" y1="39.765" x2="-2.595" y2="39.765" id="t"><stop stop-color="#dae3fe" offset="0"/><stop stop-color="#e9effd" offset="1"/></linearGradient><linearGradient x1="-5.323" y1="58.572" x2="-5.308" y2="58.572" id="v"><stop stop-color="#dae3fe" offset="0"/><stop stop-color="#e9effd" offset="1"/></linearGradient><linearGradient x1="-6.811" y1="60.059" x2="-6.795" y2="60.059" id="x"><stop stop-color="#dae3fe" offset="0"/><stop stop-color="#e9effd" offset="1"/></linearGradient><linearGradient x1="-2.706" y1=".769" x2="-2.683" y2=".769" id="z"><stop stop-color="#09005d" offset="0"/><stop stop-color="#1a0f91" offset="1"/></linearGradient><linearGradient x1="-11.314" y1="2.237" x2="-11.216" y2="2.237" id="B"><stop stop-color="#febbba" offset="0"/><stop stop-color="#ff928e" offset="1"/></linearGradient><linearGradient x1="-3.104" y1=".91" x2="-3.062" y2=".91" id="E"><stop stop-color="#09005d" offset="0"/><stop stop-color="#1a0f91" offset="1"/></linearGradient><linearGradient x1="-8.93" y1="2.006" x2="-8.816" y2="2.006" id="G"><stop stop-color="#febbba" offset="0"/><stop stop-color="#ff928e" offset="1"/></linearGradient><linearGradient x1="-1.946" y1="4.642" x2="-1.933" y2="4.642" id="J"><stop stop-color="#febbba" offset="0"/><stop stop-color="#ff928e" offset="1"/></linearGradient><linearGradient x1="-5.479" y1="12.172" x2="-5.45" y2="12.172" id="L"><stop stop-color="#febbba" offset="0"/><stop stop-color="#ff928e" offset="1"/></linearGradient><linearGradient x1="-13.8" y1="26.508" x2="-13.733" y2="26.508" id="N"><stop stop-color="#febbba" offset="0"/><stop stop-color="#ff928e" offset="1"/></linearGradient><linearGradient x1="-.641" y1="4.512" x2="-.626" y2="4.512" id="Q"><stop stop-color="#febbba" offset="0"/><stop stop-color="#ff928e" offset="1"/></linearGradient><linearGradient x1="-4.892" y1="12.177" x2="-4.845" y2="12.177" id="T"><stop stop-color="#febbba" offset="0"/><stop stop-color="#ff928e" offset="1"/></linearGradient><linearGradient x1="-3.589" y1="9.653" x2="-3.551" y2="9.653" id="V"><stop stop-color="#febbba" offset="0"/><stop stop-color="#ff928e" offset="1"/></linearGradient><linearGradient x1="-2.131" y1="7.521" x2="-2.109" y2="7.521" id="X"><stop stop-color="#febbba" offset="0"/><stop stop-color="#ff928e" offset="1"/></linearGradient><linearGradient x1="-1.36" y1="5.993" x2="-1.342" y2="5.993" id="Z"><stop stop-color="#09005d" offset="0"/><stop stop-color="#1a0f91" offset="1"/></linearGradient><linearGradient x1="-8.891" y1="25.585" x2="-8.802" y2="25.585" id="ab"><stop stop-color="#febbba" offset="0"/><stop stop-color="#ff928e" offset="1"/></linearGradient></defs></svg>