<svg xmlns="http://www.w3.org/2000/svg" width="161.968" height="161.032" viewBox="0 0 161.968 161.032">
  <g id="Group_3365" data-name="Group 3365" transform="translate(-1506 -2089)">
    <ellipse id="Ellipse_15" data-name="Ellipse 15" cx="80.984" cy="80.516" rx="80.984" ry="80.516" transform="translate(1506 2089)" fill="#f5f5f5"/>
    <g id="Group_55" data-name="Group 55" transform="translate(1535 2132)">
      <path id="Path_216" data-name="Path 216" d="M1033.311,547.612a4.923,4.923,0,0,1-5.357,3.6c.126.58.219,1.062.337,1.537a62.815,62.815,0,0,1,2.166,15.273,12.965,12.965,0,0,1-1.373,6.6,2.3,2.3,0,0,0-.16,1.085c-.01,3.735,0,7.47-.01,11.205-.013,4-2.255,6.227-6.261,6.244-1.426,0-2.852.009-4.279,0a5.689,5.689,0,0,1-6-6.018c-.009-.772,0-1.541,0-2.364H949.927c0,.8.006,1.571,0,2.339a5.705,5.705,0,0,1-6.08,6.048q-2.239.016-4.481,0a5.625,5.625,0,0,1-5.974-5.918c-.034-3.769.013-7.538-.028-11.305a9.3,9.3,0,0,0-.424-1.829,30.773,30.773,0,0,1-1.04-4.94c-.292-5.575.791-11,2.1-16.392.111-.458.22-.919.354-1.471-.512-.06-.968-.1-1.424-.169a4.482,4.482,0,0,1-3.937-4.36,4.322,4.322,0,0,1,3.857-4.5,64.825,64.825,0,0,1,6.816-.094,1.358,1.358,0,0,0,1.477-.983c2.366-5.138,4.8-10.245,7.218-15.362,1.923-4.065,5.345-5.873,9.634-6.338a230.275,230.275,0,0,1,30.82-.88c5.153.134,10.3.488,15.443.9,4.383.352,7.815,2.311,9.755,6.462,2.381,5.095,4.814,10.167,7.163,15.275a1.279,1.279,0,0,0,1.411.925c1.7-.055,3.4.055,5.091-.034,2.786-.147,4.718.928,5.63,3.633Zm-18.677-5.492a82.3,82.3,0,0,0-6.4-14.644,3.821,3.821,0,0,0-2.584-1.835,23.243,23.243,0,0,0-4.01-.633c-7.626-.286-15.256-.7-22.883-.676-6.607.017-13.213.539-19.818.868-2.631.13-4.654,1.172-5.743,3.776-1.134,2.718-2.475,5.349-3.643,8.052-.708,1.631-1.26,3.328-1.919,5.093Zm-33.408,14.16h-11c-2.136,0-4.276-.023-6.413.019a1.923,1.923,0,0,0-2.04,2.313,1.962,1.962,0,0,0,2.145,1.618q17.2.016,34.41,0a2.73,2.73,0,0,0,.989-.171,1.943,1.943,0,0,0-.386-3.72,5.72,5.72,0,0,0-1.013-.053Q989.572,556.28,981.225,556.28Zm-.041,7.843h-16.8a6.877,6.877,0,0,0-.915.021,1.934,1.934,0,0,0-1.725,1.944,1.874,1.874,0,0,0,1.706,1.938,8.49,8.49,0,0,0,1.117.047q15.272.006,30.543,0c1.188,0,2.377.03,3.562-.034a1.882,1.882,0,0,0,1.878-1.987,1.949,1.949,0,0,0-1.961-1.929c-.269-.015-.541,0-.812,0Zm-33.142,3.9a5.1,5.1,0,0,0,5.138-5.093,5.131,5.131,0,0,0-10.263-.011A5.1,5.1,0,0,0,948.043,568.02Zm67.885,0a5.108,5.108,0,1,0-5.155-5.046A5.105,5.105,0,0,0,1015.927,568.02Z" transform="translate(-928.994 -518.482)" fill="#a0a0a0"/>
    </g>
  </g>
</svg>
