<svg xmlns="http://www.w3.org/2000/svg" width="161.968" height="161.032" viewBox="0 0 161.968 161.032">
  <g id="Group_3364" data-name="Group 3364" transform="translate(-879.814 -2089.294)">
    <ellipse id="Ellipse_13" data-name="Ellipse 13" cx="80.984" cy="80.516" rx="80.984" ry="80.516" transform="translate(879.814 2089.294)" fill="#f5f5f5"/>
    <path id="Path_200" data-name="Path 200" d="M685.393,522.825c-1.755,2.477-3.485,4.915-5.213,7.356-2.7,3.811-5.411,7.616-8.089,11.445a2.366,2.366,0,0,0-.4,1.263c-.025,6.521-.017,13.044-.017,19.568v.966c-.34.02-.643.051-.946.051-4.476,0-8.956.011-13.435-.011a1.224,1.224,0,0,0-1.133.592q-5.1,7.254-10.252,14.471a4.8,4.8,0,0,1-.988,1.056q-6.073,4.553-12.175,9.071a2.079,2.079,0,0,1-3.437-.991,2.317,2.317,0,0,1,.034-1.212q2.293-7.453,4.641-14.89a3.832,3.832,0,0,1,.555-1.016c1.495-2.132,3.007-4.253,4.51-6.376.133-.19.255-.391.436-.663H622.788v17.152H559.87V497.544h28.246V461.959h83.52v55.885l.167.074c.147-.2.3-.391.442-.589,1.328-1.863,2.619-3.752,3.984-5.586a7.2,7.2,0,0,1,8.112-2.622,6.888,6.888,0,0,1,3.828,9.434c-.108.243-.226.479-.359.756.209.159.4.3.589.445a5.074,5.074,0,0,1,1.237,7.378q-4.43,6.294-8.9,12.563c-1.336,1.886-2.664,3.78-4.018,5.651a2.032,2.032,0,0,1-2.322.8,1.926,1.926,0,0,1-1.436-1.821,3.489,3.489,0,0,1,.615-1.73c3.658-5.218,7.353-10.411,11.039-15.612q.675-.952,1.351-1.905C686.78,523.921,686.707,523.595,685.393,522.825ZM564.1,501.776v74.7h54.4v-74.7ZM635.315,581.5c.246-.172.4-.277.555-.391,2.03-1.509,4.063-3.015,6.082-4.539a3.844,3.844,0,0,0,.8-.83q9.271-13.056,18.526-26.128c1.249-1.761,2.492-3.522,3.774-5.337l-4.493-3.182c-.156.2-.263.331-.36.47Q649.165,557.128,638.14,572.7a2.768,2.768,0,0,0-.382.779q-1.189,3.75-2.35,7.509C635.368,581.114,635.36,581.256,635.315,581.5Zm27.651-43.838,4.482,3.177c.127-.147.212-.232.28-.328q8.095-11.42,16.184-22.852a4.187,4.187,0,0,0,.581-1.164,2.579,2.579,0,0,0-2.265-3.528,3.4,3.4,0,0,0-2.962,1.688q-5.615,7.954-11.255,15.887C666.341,532.9,664.67,535.255,662.966,537.661Zm-25.349-34.4L659.3,475.32l-3.539-2.752-21.688,27.943Zm15.069,7.885H622.82v4.391h29.865Zm-29.877,15.867h29.868v-4.36H622.808Zm32.408-24.378a6.834,6.834,0,1,0-6.858-6.8A6.862,6.862,0,0,0,655.216,502.637ZM645.04,480.06a6.824,6.824,0,1,0-6.8,6.821A6.792,6.792,0,0,0,645.04,480.06Zm-22.107-3.383H607.106v4.406h15.828Zm0,15.878v-4.363H607.1v4.363Zm10.2,41.584H622.825v4.386h10.306Z" transform="translate(335.511 1644.236)" fill="#a0a0a0"/>
    <path id="Path_201" data-name="Path 201" d="M563.84,497.194V479.311h40.384v17.883Z" transform="translate(342.782 1676.014)" fill="#a0a0a0"/>
    <path id="Path_202" data-name="Path 202" d="M569.316,498.236c-1.045,0-2.092.008-3.134,0a2.109,2.109,0,1,1,.02-4.2q3.134-.017,6.269,0a2.112,2.112,0,1,1-.02,4.2C571.406,498.242,570.361,498.236,569.316,498.236Z" transform="translate(342.86 1702.963)" fill="#a0a0a0"/>
    <path id="Path_203" data-name="Path 203" d="M579.678,498.234c-1.07,0-2.138.014-3.208,0a2.1,2.1,0,1,1,.008-4.193q3.168-.026,6.339,0a2.108,2.108,0,1,1-.006,4.2C581.768,498.246,580.723,498.234,579.678,498.234Z" transform="translate(361.758 1702.962)" fill="#a0a0a0"/>
    <path id="Path_204" data-name="Path 204" d="M574.478,498.236c-1.045,0-2.089.011-3.134,0a2.105,2.105,0,1,1-.054-4.2q3.2-.03,6.413,0a2.105,2.105,0,1,1-.02,4.2C576.616,498.247,575.546,498.236,574.478,498.236Z" transform="translate(352.308 1702.96)" fill="#a0a0a0"/>
    <path id="Path_205" data-name="Path 205" d="M569.377,490.464c1.07,0,2.137-.014,3.208,0a2.109,2.109,0,0,1,2.223,2.033,2.083,2.083,0,0,1-2.112,2.143q-3.351.068-6.7,0a2.064,2.064,0,0,1-2.11-2.138,2.108,2.108,0,0,1,2.214-2.038C567.191,490.449,568.284,490.464,569.377,490.464Z" transform="translate(342.861 1696.429)" fill="#a0a0a0"/>
    <path id="Path_206" data-name="Path 206" d="M574.516,490.463c1.068,0,2.138-.011,3.205,0a2.094,2.094,0,1,1,.085,4.182q-3.317.055-6.631,0a2.078,2.078,0,0,1-2.132-2.121,2.109,2.109,0,0,1,2.194-2.058c.558-.014,1.116,0,1.676,0Z" transform="translate(352.31 1696.429)" fill="#a0a0a0"/>
    <path id="Path_207" data-name="Path 207" d="M579.743,490.463c1.045,0,2.089-.011,3.134,0a2.111,2.111,0,0,1,2.248,2.078,2.086,2.086,0,0,1-2.155,2.1q-3.317.059-6.631,0a2.078,2.078,0,0,1-2.138-2.115,2.11,2.11,0,0,1,2.188-2.064c.558-.014,1.119,0,1.676,0Z" transform="translate(361.758 1696.429)" fill="#a0a0a0"/>
    <path id="Path_208" data-name="Path 208" d="M569.363,501.782c-1.093,0-2.186.014-3.279,0a2.1,2.1,0,0,1-2.2-2.041,2.051,2.051,0,0,1,2.126-2.109q3.347-.051,6.7,0a2.063,2.063,0,0,1,2.1,2.067,2.089,2.089,0,0,1-2.169,2.078C571.549,501.8,570.456,501.782,569.363,501.782Z" transform="translate(342.862 1709.514)" fill="#a0a0a0"/>
    <path id="Path_209" data-name="Path 209" d="M574.471,501.782c-1.093,0-2.186.017-3.279,0a2.09,2.09,0,0,1-2.149-2.019,2.056,2.056,0,0,1,2.106-2.132q3.351-.051,6.7,0a2.075,2.075,0,1,1-.028,4.148C576.705,501.8,575.587,501.782,574.471,501.782Z" transform="translate(352.31 1709.514)" fill="#a0a0a0"/>
    <path id="Path_210" data-name="Path 210" d="M579.681,501.784c-1.093,0-2.186.011-3.276-.005a2.1,2.1,0,0,1-2.2-2.041,2.065,2.065,0,0,1,2.129-2.109q3.347-.051,6.7,0a2.062,2.062,0,0,1,2.1,2.07,2.1,2.1,0,0,1-2.169,2.078c-.557.017-1.115.005-1.676.005Z" transform="translate(361.758 1709.514)" fill="#a0a0a0"/>
    <path id="Path_211" data-name="Path 211" d="M597.394,475.409a2.34,2.34,0,1,1-2.324-2.327A2.334,2.334,0,0,1,597.394,475.409Z" transform="translate(395.66 1664.606)" fill="#a0a0a0"/>
    <path id="Path_212" data-name="Path 212" d="M586.716,469.862a2.36,2.36,0,0,1,2.316-2.341,2.408,2.408,0,0,1,2.375,2.373,2.373,2.373,0,0,1-2.41,2.322A2.313,2.313,0,0,1,586.716,469.862Z" transform="translate(384.676 1654.42)" fill="#a0a0a0"/>
  </g>
</svg>
