<svg xmlns="http://www.w3.org/2000/svg" width="161.968" height="161.032" viewBox="0 0 161.968 161.032">
  <g id="Group_3367" data-name="Group 3367" transform="translate(-879.814 -2508)">
    <ellipse id="Ellipse_16" data-name="Ellipse 16" cx="80.984" cy="80.516" rx="80.984" ry="80.516" transform="translate(879.814 2508)" fill="#f5f5f5"/>
    <path id="Path_7901" data-name="Path 7901" d="M624.348,328.156c.519-2.451.862-4.954,1.586-7.345,2.516-8.322,7.535-15.061,13.692-21.029a93.3,93.3,0,0,1,20.044-14.449c.521-.288,1.042-.574,1.744-.962-.714-.955-1.373-1.877-2.072-2.764-.935-1.193-2.015-2.285-2.827-3.553-1.428-2.23-.754-4.177,1.839-4.724a32.77,32.77,0,0,1,7.355-.669,52.769,52.769,0,0,1,20.995,4.648,3.931,3.931,0,0,0,1.839.3,88.557,88.557,0,0,1,24.079,1.185c13.361,2.684,24.9,8.545,33.669,19.265a1.649,1.649,0,0,1,.2,2.105,48.146,48.146,0,0,1-15.722,17.428c-8.9,6.21-18.884,9.7-29.507,11.5a9.091,9.091,0,0,0-3.614,1.413,70.549,70.549,0,0,1-14.9,7.828,13.045,13.045,0,0,1-4.3.8c-2.727.008-3.964-1.932-2.985-4.458.559-1.443,1.256-2.837,1.967-4.42-1.265-.19-2.433-.316-3.581-.551-4.177-.855-8.314-1.977-12.527-2.571a49.2,49.2,0,0,0-20.756,1.255,16,16,0,0,0-6.733,3.689,14.312,14.312,0,0,1,.258-2.466,10.219,10.219,0,0,1,3.944-5.43,69.033,69.033,0,0,1,5.849-3.694c.709-.426,1.238-.882,1.145-1.772A1.521,1.521,0,0,0,642.8,317.5c-4.215,1.97-8.036,4.468-10.555,8.527-2.9,4.686-1.89,9.315,2.689,12.364a22.4,22.4,0,0,0,11.695,3.38,35.518,35.518,0,0,0,15.857-2.974,8.837,8.837,0,0,1,1.912-.652,1.679,1.679,0,0,1,2.145,1.862,4.875,4.875,0,0,1-.388,1.609,21.972,21.972,0,0,1-6.531,8.728c-1.451,1.188-2.954,2.313-4.443,3.453a11.675,11.675,0,0,0-4.713,9.269,6.717,6.717,0,0,1-.143,1.421,1.657,1.657,0,0,1-2.446,1.278,2.423,2.423,0,0,1-.434-.2c-8.7-5.212-16.005-11.753-20.25-21.21a31.742,31.742,0,0,1-2.634-9.775,7.392,7.392,0,0,0-.213-.92ZM688.937,294.6c0-2.115-.01-4.23.005-6.345.007-1.306-.792-2.095-1.9-1.8-.95.251-1.11.99-1.163,1.852a89.336,89.336,0,0,0,.549,16.734,37.689,37.689,0,0,0,3.052,11.76,12.479,12.479,0,0,0,6.939,6.428,1.5,1.5,0,0,0,2.145-.662,1.386,1.386,0,0,0-.812-2.057c-3.944-1.506-5.769-4.666-6.836-8.492A63.77,63.77,0,0,1,688.937,294.6Zm27.625,5.556a3.865,3.865,0,1,0-3.9-3.834A3.849,3.849,0,0,0,716.562,300.153Z" transform="translate(279.436 2274.148)" fill="#a0a0a0"/>
  </g>
</svg>
