<svg xmlns="http://www.w3.org/2000/svg" width="161.968" height="161.032" viewBox="0 0 161.968 161.032">
  <g id="Group_3366" data-name="Group 3366" transform="translate(-270.814 -2508)">
    <ellipse id="Ellipse_17" data-name="Ellipse 17" cx="80.984" cy="80.516" rx="80.984" ry="80.516" transform="translate(270.814 2508)" fill="#f5f5f5"/>
    <path id="Path_7896" data-name="Path 7896" d="M-1261.347,549.238c-5.459,2.653-10.9,5.341-16.39,7.931a4.674,4.674,0,0,0-2.705,2.7,3.427,3.427,0,0,1-3.088,2.391,1.847,1.847,0,0,1-1.136-.1c-1.686-1.293-3.039-.136-4.448.538-2.634,1.26-5.254,2.547-8.089,3.926,2.005,1.424,1.892,3.468,2,5.419a1.883,1.883,0,0,0,1.225,1.906,3.8,3.8,0,0,1,2.725,3.768c0,.339.171.673.189,1.013a3.562,3.562,0,0,0,2.8,3.622,2.285,2.285,0,0,1,1.292.977,15.493,15.493,0,0,0,6.765,6.356c2.385,1.25,2.936,3.643,4.195,5.791h-79.451c1.15-1.685,1.682-3.523,3.391-4.613,2.395-1.527,4.748-3.122,7.088-4.732a2.646,2.646,0,0,0,.9-1.146c1.031-2.594,1.952-5.234,3.043-7.8a4.135,4.135,0,0,1,1.579-1.474,4.445,4.445,0,0,1,1.567-.579,1.928,1.928,0,0,0,1.659-1.707c.518-2.857,3.055-4.147,4.778-6.065.188-.209.637-.221.972-.253,2.274-.214,4.557-.354,6.821-.647.581-.075,1.1-.611,1.648-.945a.487.487,0,0,0,.14-.214c2.012-4.379,5.679-6.878,9.932-8.683a1.739,1.739,0,0,1,1.287.025c2.862,1.4,5.7,2.851,8.53,4.32a4.086,4.086,0,0,1,1.055.923c.633.7,1.228,1.426,1.883,2.2,3.819-1.852,7.576-3.666,11.319-5.506a1.408,1.408,0,0,0,.539-.66c5.129-10.865,10.232-21.742,15.4-32.587a4.743,4.743,0,0,1,1.862-1.878q7.045-4.08,14.179-8.007c2.206-1.212,4.693-.941,6.964-.483,5.014,1.01,9.972,2.32,14.924,3.614,2.081.544,2.912,1.917,2.734,4.089-.2,2.406-.462,4.806-.7,7.209-.049.506-.094,1.012-.16,1.728l5.925-2.833,1.373,2.8c-2.219,1.075-4.376,2.137-6.55,3.163a1.99,1.99,0,0,0-1.322,1.533,3.332,3.332,0,0,1-4.5,2.458,2.944,2.944,0,0,0-2.964.267c-.337.175-.7.305-1.163.507-.207-1.136-.4-2.177-.585-3.218,1.583-.384,2.625-1.187,2.373-3.022a2.884,2.884,0,0,1,.08-.639c.261-2.642.519-5.284.785-8l-6.452-1.683c.612,2.02,1.237,3.76,1.656,5.548.607,2.588,1.065,5.211,1.587,7.82l-19.656,9.569a20.407,20.407,0,0,0-6.341-12.43l-9.535,20.086,15.416-7.436.6,3.181Z" transform="translate(1638.565 2035.975)" fill="#a0a0a0"/>
    <path id="Path_7897" data-name="Path 7897" d="M-1033.477,621.76q9.65-4.661,19.3-9.318c.068-.033.165,0,.4,0,.164,2.37.431,4.752.476,7.139a54.769,54.769,0,0,0,3.84,17.979,65.259,65.259,0,0,0,12.42,20.721c2.365,2.682,2.489,5.712.367,8.035a5.634,5.634,0,0,1-8.453-.232,77.635,77.635,0,0,1-16.1-28.18c-.747-2.327-1.34-4.7-2-7.057-3.708,1.456-7.208,3.215-9.732,6.48a17.29,17.29,0,0,0-3.395,13.292,68.645,68.645,0,0,0,2.228,9.791c1.078,3.778-.686,7.105-4.356,7.742-2.249.391-4.888-.7-5.72-2.869-4.16-10.848-5.582-21.706.664-32.349a26.189,26.189,0,0,1,9.068-9.045c.929-.571,1.3-1.156,1.037-2.172Z" transform="translate(1410.652 1963.498)" fill="#a0a0a0"/>
    <path id="Path_7898" data-name="Path 7898" d="M-1060.17,432.62a10.084,10.084,0,0,1,8.075,4.951c.348.549.554,1.077,1.438.958.333-.045,1.042.612,1.078,1a1.794,1.794,0,0,1-.718,1.442,36.213,36.213,0,0,1-3.638,1.66q-7.466,3.239-14.937,6.466a2.4,2.4,0,0,1-1.088.353c-.465-.059-1.115-.241-1.291-.578a1.6,1.6,0,0,1,.077-1.491c.577-.537.444-.993.281-1.585C-1072.747,439.074-1067.741,432.536-1060.17,432.62Z" transform="translate(1428.147 2096.688)" fill="#a0a0a0"/>
    <path id="Path_7899" data-name="Path 7899" d="M-1042.969,469.068c2,3.682,2.074,7.238-.079,10.652a9.508,9.508,0,0,1-9.805,4.639c-4.271-.557-7.052-3.1-8.477-7.317Z" transform="translate(1420.691 2069.689)" fill="#a0a0a0"/>
    <path id="Path_7900" data-name="Path 7900" d="M-926.623,560.205c-.522-2.608-.98-5.232-1.587-7.82-.419-1.788-1.045-3.527-1.657-5.548l6.452,1.683c-.266,2.716-.525,5.358-.785,8a2.893,2.893,0,0,0-.08.639c.252,1.834-.79,2.637-2.373,3.022Z" transform="translate(1323.311 2012.082)" fill="#a0a0a0"/>
  </g>
</svg>
