<svg xmlns="http://www.w3.org/2000/svg" width="161.968" height="161.032" viewBox="0 0 161.968 161.032">
  <g id="Group_3368" data-name="Group 3368" transform="translate(-1505.814 -2508)">
    <ellipse id="Ellipse_18" data-name="Ellipse 18" cx="80.984" cy="80.516" rx="80.984" ry="80.516" transform="translate(1505.814 2508)" fill="#f5f5f5"/>
    <g id="Group_54" data-name="Group 54" transform="translate(1535 2542.435)">
      <path id="Path_214" data-name="Path 214" d="M1080.638,421.214l25.6-13.9v14.716l27.111-14.73v14.716l27.067-14.694v62.059c0,2.01-.005,2.013-2.037,2.013h-73.866c0-2.959-.03-5.76.048-8.556.008-.277.649-.63,1.058-.788,4.553-1.735,7.448-4.866,8.073-9.788a11.784,11.784,0,1,0-23.455-.933,11.512,11.512,0,0,0,8.082,10.621c1.041.327,1.221.825,1.2,1.754-.045,2.482-.014,4.964-.014,7.568H1056.1c.186-3.362.361-6.657.552-9.955q.633-10.768,1.28-21.54.916-15.461,1.835-30.928.745-12.634,1.477-25.268c.208-3.592.425-7.182.589-10.774.042-.9.3-1.313,1.294-1.3q6.708.058,13.42,0c.872-.006,1.2.28,1.246,1.183q.958,17.26,1.979,34.521C1080.038,411.77,1080.335,416.32,1080.638,421.214Zm34.5,41.03V440.355h-8.812v21.889Zm27.095.006V440.316h-8.8V462.25Z" transform="translate(-1056.1 -371.022)" fill="#a0a0a0"/>
      <path id="Path_215" data-name="Path 215" d="M1081.772,377.454a37.838,37.838,0,0,1,12.837-6.121c.877,1.843,1.827,3.62,2.582,5.477a5.134,5.134,0,0,0,5.316,3.376c1.471-.011,2.951-.022,4.411-.164a4.291,4.291,0,0,0,3.6-2.662c.822-1.752,1.616-3.517,2.507-5.233.17-.327.8-.724,1.083-.641a36.986,36.986,0,0,1,12.026,5.924c-.988,2-1.913,3.948-2.91,5.86a4.816,4.816,0,0,0,.672,5.763c.794.958,1.53,1.963,2.324,2.923a4.871,4.871,0,0,0,5.416,1.777c2.037-.55,4.1-1,6.46-1.571l2.7,9.022-16.354,8.925c0-.985-.014-1.782,0-2.579a20.292,20.292,0,0,0-16.984-20.754,20.673,20.673,0,0,0-23.235,14.758,2.965,2.965,0,0,1-1.246,1.616c-2.424,1.418-4.9,2.743-7.4,4.031a2.75,2.75,0,0,1-1.66.192c-2.3-.433-4.58-.955-6.94-1.46a34.8,34.8,0,0,1,3.173-13.653c2.06.483,4.084.886,6.063,1.444a4.932,4.932,0,0,0,5.73-1.916c.924-1.2,1.9-2.376,2.726-3.648a4.342,4.342,0,0,0,.136-4.6C1083.782,381.541,1082.8,379.517,1081.772,377.454Z" transform="translate(-1036.775 -371.333)" fill="#a0a0a0"/>
    </g>
  </g>
</svg>
