<svg xmlns="http://www.w3.org/2000/svg" width="161.968" height="161.032" viewBox="0 0 161.968 161.032">
  <g id="Group_3363" data-name="Group 3363" transform="translate(-253.516 -2089.294)">
    <ellipse id="Ellipse_14" data-name="Ellipse 14" cx="80.984" cy="80.516" rx="80.984" ry="80.516" transform="translate(253.516 2089.294)" fill="#f5f5f5"/>
    <g id="Group_3362" data-name="Group 3362">
      <path id="Path_108" data-name="Path 108" d="M694.22,238.144c5.078-.695,10.165-1.339,15.221-2.164.522-.084,1.221-1.226,1.241-1.895.118-3.892.058-7.79.06-11.684V219.55H738.3v12.064l46.086-7.023,2.712,17.683-14.238,2.27v8.282h7.191v15.481H760.766V252.995h6.823V245.33l-29,4.421v52.911h13.6v19.719H696.978V302.721h13.588V254.079l-13.483,1.991-2.864-15.935Zm23.975,7.8v7.691h9.427Zm12.831,13.04h-9.443l9.443,7.689Zm-.019,33.185h-9.564l9.564,7.778Zm-12.824-29.6v7.773h9.492Zm9.564-25.48-9.54-7.787v7.787Zm3.227,12.915v-7.761h-9.461Zm-.027,33.267v-7.662h-9.379Zm-12.716-4.02V286.9h9.3Zm-.021,16.644v6.619h8.061Zm12.8-69.108h-8.063l8.063,6.561Z" transform="translate(-423.307 1886.646)" fill="#a0a0a0"/>
      <path id="Path_109" data-name="Path 109" d="M736.591,279.947H767.9V242.312h16.519v48.12H720.553v-30h16.038Z" transform="translate(-386.33 1918.607)" fill="#a0a0a0"/>
      <path id="Path_110" data-name="Path 110" d="M754.188,272.265H728.372v-26.34h25.816Z" transform="translate(-375.351 1923.681)" fill="#a0a0a0"/>
    </g>
  </g>
</svg>
