<svg width="131" height="141" viewBox="0 0 131 141" fill="none" xmlns="http://www.w3.org/2000/svg">
<path d="M100.527 140.889C109.778 140.889 117.277 140.67 117.277 140.4C117.277 140.13 109.778 139.911 100.527 139.911C91.2762 139.911 83.777 140.13 83.777 140.4C83.777 140.67 91.2762 140.889 100.527 140.889Z" fill="#14475f"/>
<path d="M38.567 131.685C59.867 131.685 77.134 131.466 77.134 131.196C77.134 130.926 59.867 130.707 38.567 130.707C17.267 130.707 0 130.926 0 131.196C0 131.466 17.267 131.685 38.567 131.685Z" fill="#14475f"/>
<path d="M51.67 100.059H17.591V106.507H51.67V100.059Z" fill="#14475f"/>
<path d="M87.897 29.1912H51.679V35.6392H87.897V29.1912Z" fill="#14475f"/>
<path d="M87.897 16.2952H41.063V22.7432H87.897V16.2952Z" fill="#14475f"/>
<path d="M51.67 87.1631H17.591V93.6111H51.67V87.1631Z" fill="#14475f"/>
<path d="M87.897 48.5352H17.591V54.9832H87.897V48.5352Z" fill="#14475f"/>
<path d="M61.979 74.2671H17.591V80.7151H61.979V74.2671Z" fill="#14475f"/>
<path d="M87.897 61.4299H17.591V67.8779H87.897V61.4299Z" fill="#14475f"/>
<path d="M7.173 125.177V17.0771L7.183 17.0671L19.951 16.957V4.30103L19.961 4.29004H98.315V64.6411C99.7186 64.2652 101.195 64.2545 102.604 64.6101V-0.000976562H18.185L2.88499 15.2991V129.464H78.445C77.345 128.083 76.305 126.657 75.337 125.177H7.173Z" fill="#14475f"/>
<path d="M130.167 83.0142C130.11 82.2344 129.768 81.5029 129.206 80.9597C128.643 80.4165 127.9 80.0998 127.119 80.0701C113.277 79.5301 102.7 70.6831 102.602 70.6001C102.026 70.105 101.291 69.8322 100.532 69.8311C99.7718 69.83 99.0367 70.1005 98.459 70.594C98.354 70.684 87.796 79.5291 73.936 80.0701C73.1545 80.0996 72.4113 80.4163 71.8489 80.9597C71.2865 81.5031 70.9443 82.2351 70.888 83.0151C69.045 108.267 79.294 128.897 99.008 139.615C99.474 139.869 99.9963 140.002 100.527 140.002C101.058 140.002 101.58 139.869 102.046 139.615C121.76 128.897 132.009 108.267 130.167 83.0142ZM114.167 118.654C114.166 119.515 113.824 120.341 113.215 120.95C112.606 121.559 111.78 121.902 110.919 121.903H90.133C89.2717 121.902 88.4461 121.559 87.8371 120.95C87.2282 120.341 86.8858 119.515 86.885 118.654V101.764C86.8863 101.016 87.1456 100.29 87.6192 99.7107C88.0928 99.1311 88.7518 98.7325 89.485 98.582V93.969C89.4711 92.5099 89.7465 91.0625 90.2953 89.7105C90.844 88.3584 91.6553 87.1287 92.6821 86.092C93.709 85.0554 94.9311 84.2323 96.2779 83.6707C97.6246 83.1091 99.0693 82.8201 100.528 82.8201C101.988 82.8201 103.432 83.1091 104.779 83.6707C106.126 84.2323 107.348 85.0554 108.375 86.092C109.402 87.1287 110.213 88.3584 110.762 89.7105C111.31 91.0625 111.586 92.5099 111.572 93.969V98.582C112.305 98.7323 112.964 99.1308 113.438 99.7105C113.912 100.29 114.171 101.016 114.172 101.764L114.167 118.654Z" fill="#14475f"/>
<path d="M105.079 108.261C105.081 107.458 104.87 106.669 104.467 105.974C104.065 105.278 103.486 104.702 102.789 104.303C102.092 103.905 101.301 103.698 100.498 103.703C99.6948 103.709 98.9076 103.928 98.2162 104.337C97.5248 104.745 96.954 105.33 96.5619 106.031C96.1698 106.732 95.9703 107.524 95.9836 108.327C95.997 109.13 96.2228 109.915 96.6381 110.603C97.0534 111.29 97.6434 111.856 98.348 112.241L97.309 115.878C97.2813 115.975 97.2764 116.077 97.2947 116.175C97.313 116.274 97.354 116.368 97.4145 116.448C97.475 116.528 97.5533 116.593 97.6433 116.638C97.7333 116.683 97.8325 116.706 97.933 116.706H103.133C103.234 116.706 103.333 116.683 103.423 116.638C103.513 116.593 103.591 116.528 103.651 116.448C103.712 116.368 103.753 116.274 103.771 116.175C103.79 116.077 103.785 115.975 103.757 115.878L102.718 112.241C103.434 111.853 104.032 111.278 104.448 110.577C104.864 109.876 105.082 109.076 105.079 108.261V108.261Z" fill="#14475f"/>
<path d="M100.527 88.1221C98.9769 88.1239 97.4909 88.7405 96.3949 89.8367C95.299 90.9328 94.6826 92.4189 94.681 93.969V98.5161H106.379V93.969C106.377 92.418 105.76 90.9312 104.663 89.835C103.565 88.7387 102.078 88.1226 100.527 88.1221Z" fill="#14475f"/>
</svg>
