<svg width="152" height="141" viewBox="0 0 152 141" fill="none" xmlns="http://www.w3.org/2000/svg">
<path d="M128.678 140.489C133.444 140.489 137.307 140.27 137.307 140C137.307 139.73 133.444 139.511 128.678 139.511C123.912 139.511 120.049 139.73 120.049 140C120.049 140.27 123.912 140.489 128.678 140.489Z" fill="#14475f"/>
<path d="M66.998 139.69C87.5419 139.69 104.196 139.471 104.196 139.201C104.196 138.931 87.5419 138.712 66.998 138.712C46.4541 138.712 29.8 138.931 29.8 139.201C29.8 139.471 46.4541 139.69 66.998 139.69Z" fill="#14475f"/>
<path d="M151.24 105.214C150.999 104.822 150.662 104.499 150.26 104.275C149.859 104.051 149.406 103.934 148.946 103.935H143.179V87.1282C143.175 85.8481 142.665 84.6216 141.76 83.7166C140.855 82.8115 139.628 82.3015 138.348 82.2981H119.006C117.726 82.3018 116.5 82.8118 115.595 83.7168C114.69 84.6218 114.18 85.8483 114.176 87.1282V103.935H108.411C107.951 103.934 107.499 104.051 107.097 104.275C106.696 104.498 106.358 104.821 106.116 105.212C105.874 105.603 105.737 106.049 105.716 106.508C105.696 106.967 105.793 107.424 105.999 107.835L126.267 138.508C126.492 138.955 126.837 139.33 127.262 139.593C127.688 139.855 128.178 139.994 128.679 139.994C129.179 139.994 129.669 139.855 130.095 139.593C130.52 139.33 130.865 138.955 131.09 138.508L151.358 107.835C151.564 107.425 151.661 106.968 151.64 106.509C151.619 106.05 151.482 105.605 151.24 105.214V105.214Z" fill="#14475f"/>
<path d="M69.92 0.000244227C58.8828 -0.000306681 48.0036 2.62401 38.1805 7.65674C28.3575 12.6895 19.8722 19.9863 13.425 28.9448C6.97778 37.9033 2.75359 48.2666 1.10106 59.1794C-0.551474 70.0923 0.415034 81.2416 3.92082 91.7073C7.42661 102.173 13.3712 111.655 21.2638 119.37C29.1564 127.086 38.7708 132.814 49.3133 136.081C59.8559 139.348 71.0244 140.061 81.8969 138.161C92.7694 136.262 103.034 131.803 111.844 125.154L108.251 119.716C96.687 128.633 82.3902 133.266 67.7944 132.827C53.1985 132.389 39.2057 126.905 28.198 117.311C17.1902 107.716 9.84782 94.6027 7.42064 80.2034C4.99345 65.8041 7.63149 51.0085 14.8857 38.3354C22.14 25.6624 33.562 15.8949 47.2076 10.6958C60.8531 5.49674 75.8787 5.18759 89.7267 9.82056C103.575 14.4535 115.389 23.7425 123.159 36.1062C130.929 48.4699 134.173 63.1441 132.341 77.6311H138.348C138.582 77.6311 138.811 77.6493 139.04 77.6663C140.193 67.9101 139.264 58.0203 136.316 48.6492C133.367 39.2781 128.466 30.6386 121.934 23.3C115.403 15.9615 107.391 10.0908 98.4249 6.07495C89.4591 2.05911 79.744 -0.010671 69.92 0.00219735V0.000244227Z" fill="#14475f"/>
<path d="M69.87 10.3744C60.3999 10.3638 51.0643 12.6149 42.6399 16.9405C34.2154 21.2662 26.9459 27.5411 21.436 35.2432C15.9261 42.9454 12.3353 51.8523 10.9623 61.2223C9.58933 70.5923 10.4739 80.1547 13.5424 89.1139C16.6109 98.073 21.7746 106.17 28.6039 112.731C35.4331 119.291 43.7304 124.126 52.8053 126.833C61.8803 129.54 71.4705 130.04 80.7779 128.293C90.0854 126.545 98.8409 122.6 106.316 116.786L102.103 110.41L101.948 110.175L101.822 109.923C101.26 108.801 100.994 107.554 101.05 106.3C101.107 105.046 101.484 103.827 102.145 102.76C102.802 101.689 103.723 100.805 104.82 100.194C105.917 99.5819 107.154 99.2628 108.41 99.2672H109.51V87.1283C109.513 84.6095 110.514 82.1947 112.295 80.4137C114.076 78.6326 116.491 77.6309 119.01 77.6283H128.819C129.944 69.2323 129.26 60.6926 126.811 52.5831C124.363 44.4736 120.208 36.982 114.624 30.6114C109.041 24.2408 102.159 19.1387 94.4405 15.648C86.7221 12.1573 78.346 10.3587 69.875 10.3731L69.87 10.3744ZM76.39 107.898V112.374C76.3897 112.87 76.1928 113.344 75.8425 113.694C75.4922 114.045 75.0173 114.241 74.522 114.241H66.305C65.8098 114.241 65.335 114.045 64.9848 113.694C64.6347 113.344 64.438 112.87 64.438 112.374V107.89C57.0747 106.264 50.6252 101.855 46.438 95.5833C46.1954 95.2163 46.0902 94.7753 46.1409 94.3382C46.1916 93.9012 46.3949 93.496 46.715 93.1942L53.546 86.7603C53.7414 86.5763 53.9742 86.4364 54.2285 86.3504C54.4828 86.2645 54.7526 86.2345 55.0196 86.2623C55.2866 86.2901 55.5445 86.3751 55.7756 86.5116C56.0067 86.6481 56.2057 86.8329 56.359 87.0533C60.112 92.4403 65.497 95.6532 70.765 95.6532C76.427 95.6532 80.382 92.3913 80.382 87.7193C80.382 81.2503 74.257 78.4753 67.165 75.2623C58.186 71.1953 48.009 66.5843 48.009 53.1693C48.109 43.7693 54.789 36.1251 64.443 34.0811V29.3092C64.443 28.814 64.6397 28.3392 64.9898 27.9891C65.34 27.639 65.8148 27.4422 66.31 27.4422H74.527C75.0223 27.4422 75.4972 27.639 75.8475 27.9891C76.1978 28.3392 76.3947 28.8139 76.395 29.3092V34.2472C82.353 35.8285 87.6512 39.2693 91.519 44.0692C91.8075 44.4238 91.9558 44.872 91.9359 45.3287C91.916 45.7854 91.7293 46.219 91.411 46.5472L85.273 52.8831C85.0962 53.0695 84.8821 53.2164 84.6446 53.3143C84.4072 53.4122 84.1517 53.4589 83.895 53.4513C83.6387 53.4458 83.3862 53.3879 83.1532 53.2811C82.9201 53.1743 82.7114 53.0208 82.54 52.8302C80.764 50.8442 76.002 46.2303 70.171 46.2303C64.971 46.2303 61.347 49.1303 61.347 53.2723C61.312 58.5073 66.054 60.9473 73.794 64.4933C82.707 68.5783 93.799 73.6603 93.62 87.8433C93.508 97.8623 86.654 105.748 76.39 107.898Z" fill="#14475f"/>
</svg>
