<svg width="123" height="141" viewBox="0 0 123 141" fill="none" xmlns="http://www.w3.org/2000/svg">
<path d="M61.451 140.09C70.7018 140.09 78.201 139.871 78.201 139.601C78.201 139.331 70.7018 139.112 61.451 139.112C52.2002 139.112 44.701 139.331 44.701 139.601C44.701 139.871 52.2002 140.09 61.451 140.09Z" fill="#14475f"/>
<path d="M121.927 32.219C121.637 28.2185 119.882 24.4653 116.998 21.6777C114.114 18.8902 110.303 17.2637 106.295 17.1099C87.634 16.3829 72.64 4.38906 71.995 3.86206C69.0499 1.36933 65.3168 0.000915848 61.4584 4.59595e-07C57.6001 -0.000914929 53.8662 1.3656 50.92 3.85693C50.408 4.27593 35.393 16.3779 16.612 17.1099C12.6019 17.2635 8.7895 18.8912 5.90478 21.6809C3.02005 24.4706 1.26583 28.2264 0.978019 32.229C-0.698981 55.202 3.03599 76.0839 12.078 94.2859C21.1713 112.549 35.6979 127.547 53.661 137.219C56.0551 138.521 58.7372 139.202 61.4624 139.2C64.1876 139.198 66.8688 138.513 69.261 137.208C87.2153 127.537 101.735 112.543 110.824 94.2869C119.869 76.0839 123.604 55.202 121.927 32.219ZM65.905 131.065C64.5398 131.809 63.0098 132.199 61.455 132.199C59.9002 132.199 58.3702 131.809 57.005 131.065C22.638 112.382 4.76098 76.539 7.95898 32.73C8.12261 30.4451 9.12378 28.3011 10.7706 26.7087C12.4173 25.1164 14.5939 24.1878 16.883 24.1011C38.462 23.2591 55.25 9.35696 55.4 9.23096C57.0851 7.79025 59.2287 6.99768 61.4457 6.99585C63.6626 6.99402 65.8076 7.78303 67.495 9.22095C67.662 9.36095 84.501 23.2621 106.025 24.1011C108.313 24.1892 110.488 25.1175 112.134 26.7083C113.78 28.2991 114.782 30.4406 114.949 32.7239C118.141 76.5429 100.265 112.387 65.905 131.065Z" fill="#14475f"/>
<path d="M105.866 28.1021C82.746 27.2021 65.079 12.4229 64.916 12.2859C63.9541 11.4582 62.7276 11.0023 61.4586 11.0003C60.1895 10.9982 58.9616 11.4503 57.997 12.2749C57.821 12.4249 40.186 27.1991 17.036 28.1021C15.7306 28.1516 14.4893 28.6808 13.5499 29.5886C12.6106 30.4965 12.0391 31.719 11.945 33.022C8.86703 75.198 25.986 109.655 58.913 127.555C59.6916 127.979 60.564 128.201 61.4505 128.201C62.337 128.201 63.2094 127.979 63.988 127.555C96.915 109.655 114.034 75.2001 110.956 33.0191C110.861 31.7169 110.289 30.4953 109.35 29.5881C108.411 28.681 107.171 28.152 105.866 28.1021V28.1021ZM95.295 46.1841C69.877 67.4411 60.403 89.8901 56.969 93.1941C54.307 95.7541 50.048 95.425 48.295 92.25C45.5696 87.6848 42.1802 83.5505 38.238 79.9829C34.397 76.8379 37.1521 72.6019 41.3451 72.8679C45.8021 73.1509 50.3191 78.0899 53.1211 82.3789C68.4411 60.5729 91.107 45.279 92.929 44.125C95.241 42.663 96.732 44.7951 95.295 46.1841V46.1841Z" fill="#14475f"/>
</svg>
