<svg id="Group_3218" data-name="Group 3218" xmlns="http://www.w3.org/2000/svg" width="106.526" height="122.899" viewBox="0 0 106.526 122.899">
  <g id="Group_3283" data-name="Group 3283" transform="translate(0 23.785)">
    <g id="Group_3257" data-name="Group 3257">
      <g id="Group_3256" data-name="Group 3256">
        <path id="Path_17068" data-name="Path 17068" d="M61.9,184.238v52.631a1.972,1.972,0,0,0,1.972,1.971h49.288a1.971,1.971,0,0,0,1.971-1.971V184.238Z" transform="translate(-59.596 -163.537)" fill="#1e262f"/>
        <path id="Path_17069" data-name="Path 17069" d="M91.839,194c.282,1.391.539,2.8.892,4.172a44.692,44.692,0,0,0,3.48,9.075q1.295,2.562,2.821,5a28.412,28.412,0,0,0,2.97,4.144,24.732,24.732,0,0,0,7.574,5.457,36.131,36.131,0,0,0,16.905,3.655,38.539,38.539,0,0,0,6.171-.761V190.593H91.472A12.589,12.589,0,0,0,91.839,194Z" transform="translate(-79.631 -167.844)" fill="#fff" opacity="0.5" style="mix-blend-mode: soft-light;isolation: isolate"/>
        <path id="Path_17070" data-name="Path 17070" d="M86.32,232.287a34.166,34.166,0,0,1-9.835-6.469c-3.094-3.023-5.367-6.89-7.426-10.662A61.459,61.459,0,0,1,63.5,201.824c-.567-2.1-.992-4.249-1.4-6.385-.071-.368-.141-.74-.205-1.116V243.7a1.972,1.972,0,0,0,1.972,1.971h49.288a1.971,1.971,0,0,0,1.971-1.971v-8.042A47.573,47.573,0,0,1,86.32,232.287Z" transform="translate(-59.596 -170.372)" fill="#96999c" style="mix-blend-mode: multiply;isolation: isolate"/>
        <path id="Path_17071" data-name="Path 17071" d="M110.405,140.683l2.342-18.6a2.127,2.127,0,0,0-2.149-2.105H56.906a2.127,2.127,0,0,0-2.149,2.105l2.347,18.6Z" transform="translate(-54.757 -119.982)" fill="#1e262f"/>
        <path id="Path_17072" data-name="Path 17072" d="M116.845,133.4a70.758,70.758,0,0,0-15.068.524,27.238,27.238,0,0,0-10.568,3.149,24.085,24.085,0,0,0-7.722,6.854,27.716,27.716,0,0,0-3.154,5.7h47.409l1.451-11.527C125.277,135.987,121.3,133.87,116.845,133.4Z" transform="translate(-72.093 -128.924)" fill="#fff" opacity="0.5" style="mix-blend-mode: soft-light;isolation: isolate"/>
        <path id="Path_17073" data-name="Path 17073" d="M69.961,129.474a25.715,25.715,0,0,1,9.27-4.655,59.712,59.712,0,0,1,11.416-1.481c4.025-.264,8.266-.4,12.2.632A41.968,41.968,0,0,1,112,128.008l.745-5.921a2.127,2.127,0,0,0-2.149-2.105H56.906a2.127,2.127,0,0,0-2.149,2.105l2.347,18.6h4.749A26.626,26.626,0,0,1,69.961,129.474Z" transform="translate(-54.757 -119.982)" fill="#96999c" style="mix-blend-mode: multiply;isolation: isolate"/>
        <path id="Path_17074" data-name="Path 17074" d="M117.117,141.8a1.972,1.972,0,0,1-1.972,1.971H74.866a1.971,1.971,0,0,1-1.971-1.971l-1.318-11.172a1.971,1.971,0,0,1,1.972-1.971h43.209a1.971,1.971,0,0,1,1.971,1.971Z" transform="translate(-66.158 -125.86)" fill="#c7c9cb"/>
        <path id="Path_17075" data-name="Path 17075" d="M119.732,143.8a1.489,1.489,0,0,1-1.489,1.489H80.128a1.491,1.491,0,0,1-1.49-1.489l-.995-9.372a1.489,1.489,0,0,1,1.49-1.489h40.328a1.49,1.49,0,0,1,1.49,1.489Z" transform="translate(-70.27 -128.767)" fill="#fff"/>
        <g id="Group_3219" data-name="Group 3219" transform="translate(7.373 21.194)">
          <rect id="Rectangle_421" data-name="Rectangle 421" width="17.741" height="5.586" fill="#1a1818"/>
          <g id="Group_3218-2" data-name="Group 3218" transform="translate(4.121)">
            <rect id="Rectangle_422" data-name="Rectangle 422" width="0.329" height="5.586" fill="#313133"/>
            <rect id="Rectangle_423" data-name="Rectangle 423" width="0.328" height="5.586" transform="translate(4.586)" fill="#313133"/>
            <rect id="Rectangle_424" data-name="Rectangle 424" width="0.329" height="5.586" transform="translate(9.17)" fill="#313133"/>
          </g>
        </g>
        <g id="Group_3224" data-name="Group 3224" transform="translate(7.373 31.339)">
          <g id="Group_3220" data-name="Group 3220">
            <path id="Rectangle_425" data-name="Rectangle 425" d="M1.4,0H7.189A1.405,1.405,0,0,1,8.595,1.405V4.923a1.4,1.4,0,0,1-1.4,1.4H1.4A1.4,1.4,0,0,1,0,4.922V1.4A1.4,1.4,0,0,1,1.4,0Z" transform="translate(0.821 0.739)" fill="#818386" style="mix-blend-mode: multiply;isolation: isolate"/>
            <path id="Rectangle_426" data-name="Rectangle 426" d="M1.4,0H7.19a1.4,1.4,0,0,1,1.4,1.4V4.921a1.4,1.4,0,0,1-1.4,1.4H1.4A1.4,1.4,0,0,1,0,4.921V1.4A1.4,1.4,0,0,1,1.4,0Z" fill="#aeb0b3"/>
          </g>
          <g id="Group_3221" data-name="Group 3221" transform="translate(12.238)">
            <path id="Rectangle_427" data-name="Rectangle 427" d="M1.4,0H7.19a1.4,1.4,0,0,1,1.4,1.4V4.923a1.4,1.4,0,0,1-1.4,1.4H1.4A1.4,1.4,0,0,1,0,4.923V1.4A1.4,1.4,0,0,1,1.4,0Z" transform="translate(0.821 0.739)" fill="#818386" style="mix-blend-mode: multiply;isolation: isolate"/>
            <path id="Rectangle_428" data-name="Rectangle 428" d="M1.4,0H7.191A1.4,1.4,0,0,1,8.6,1.4V4.921a1.4,1.4,0,0,1-1.4,1.4H1.407A1.407,1.407,0,0,1,0,4.918V1.4A1.4,1.4,0,0,1,1.4,0Z" fill="#aeb0b3"/>
          </g>
          <g id="Group_3222" data-name="Group 3222" transform="translate(23.41)">
            <rect id="Rectangle_429" data-name="Rectangle 429" width="8.595" height="6.325" rx="1.402" transform="translate(0.821 0.739)" fill="#818386" style="mix-blend-mode: multiply;isolation: isolate"/>
            <path id="Rectangle_430" data-name="Rectangle 430" d="M1.4,0H7.191a1.4,1.4,0,0,1,1.4,1.4V4.921a1.4,1.4,0,0,1-1.4,1.4H1.4A1.4,1.4,0,0,1,0,4.922V1.4A1.4,1.4,0,0,1,1.4,0Z" fill="#aeb0b3"/>
          </g>
          <g id="Group_3223" data-name="Group 3223" transform="translate(34.634)">
            <path id="Rectangle_431" data-name="Rectangle 431" d="M1.4,0h5.79a1.4,1.4,0,0,1,1.4,1.4v3.52a1.4,1.4,0,0,1-1.4,1.4H1.4A1.4,1.4,0,0,1,0,4.921V1.4A1.4,1.4,0,0,1,1.4,0Z" transform="translate(0.821 0.739)" fill="#818386" style="mix-blend-mode: multiply;isolation: isolate"/>
            <path id="Rectangle_432" data-name="Rectangle 432" d="M1.4,0h5.79A1.4,1.4,0,0,1,8.6,1.4V4.921a1.4,1.4,0,0,1-1.4,1.4H1.4A1.4,1.4,0,0,1,0,4.921V1.4A1.4,1.4,0,0,1,1.4,0Z" fill="#e4393d"/>
          </g>
        </g>
        <g id="Group_3229" data-name="Group 3229" transform="translate(7.373 41.139)">
          <g id="Group_3225" data-name="Group 3225">
            <path id="Rectangle_433" data-name="Rectangle 433" d="M1.4,0H7.189A1.405,1.405,0,0,1,8.595,1.405V4.92a1.4,1.4,0,0,1-1.4,1.4H1.4A1.4,1.4,0,0,1,0,4.921V1.4A1.4,1.4,0,0,1,1.4,0Z" transform="translate(0.821 0.739)" fill="#818386" style="mix-blend-mode: multiply;isolation: isolate"/>
            <rect id="Rectangle_434" data-name="Rectangle 434" width="8.595" height="6.325" rx="1.404" fill="#aeb0b3"/>
          </g>
          <g id="Group_3226" data-name="Group 3226" transform="translate(12.238)">
            <path id="Rectangle_435" data-name="Rectangle 435" d="M1.4,0H7.19a1.4,1.4,0,0,1,1.4,1.4V4.92a1.4,1.4,0,0,1-1.4,1.4H1.4A1.4,1.4,0,0,1,0,4.92V1.4A1.4,1.4,0,0,1,1.4,0Z" transform="translate(0.821 0.739)" fill="#818386" style="mix-blend-mode: multiply;isolation: isolate"/>
            <path id="Rectangle_436" data-name="Rectangle 436" d="M1.4,0H7.191A1.4,1.4,0,0,1,8.6,1.4V4.921a1.4,1.4,0,0,1-1.4,1.4H1.407A1.407,1.407,0,0,1,0,4.918V1.4A1.4,1.4,0,0,1,1.4,0Z" fill="#aeb0b3"/>
          </g>
          <g id="Group_3227" data-name="Group 3227" transform="translate(23.41)">
            <path id="Rectangle_437" data-name="Rectangle 437" d="M1.4,0h5.79a1.4,1.4,0,0,1,1.4,1.4v3.52a1.4,1.4,0,0,1-1.4,1.4H1.4A1.4,1.4,0,0,1,0,4.92V1.4A1.4,1.4,0,0,1,1.4,0Z" transform="translate(0.821 0.739)" fill="#818386" style="mix-blend-mode: multiply;isolation: isolate"/>
            <path id="Rectangle_438" data-name="Rectangle 438" d="M1.4,0H7.191a1.4,1.4,0,0,1,1.4,1.4V4.921a1.4,1.4,0,0,1-1.4,1.4H1.4A1.4,1.4,0,0,1,0,4.922V1.4A1.4,1.4,0,0,1,1.4,0Z" fill="#aeb0b3"/>
          </g>
          <g id="Group_3228" data-name="Group 3228" transform="translate(34.634)">
            <path id="Rectangle_439" data-name="Rectangle 439" d="M1.4,0H7.192a1.4,1.4,0,0,1,1.4,1.4V4.92a1.4,1.4,0,0,1-1.4,1.4H1.4A1.4,1.4,0,0,1,0,4.92V1.4A1.4,1.4,0,0,1,1.4,0Z" transform="translate(0.821 0.739)" fill="#818386" style="mix-blend-mode: multiply;isolation: isolate"/>
            <path id="Rectangle_440" data-name="Rectangle 440" d="M1.4,0H7.189A1.406,1.406,0,0,1,8.6,1.406V4.919A1.406,1.406,0,0,1,7.189,6.325H1.4A1.4,1.4,0,0,1,0,4.921V1.4A1.4,1.4,0,0,1,1.4,0Z" fill="#4e5e6f"/>
          </g>
        </g>
        <g id="Group_3234" data-name="Group 3234" transform="translate(7.373 50.939)">
          <g id="Group_3230" data-name="Group 3230" transform="translate(0 0)">
            <path id="Rectangle_441" data-name="Rectangle 441" d="M1.406,0H7.189A1.405,1.405,0,0,1,8.595,1.405V4.923a1.4,1.4,0,0,1-1.4,1.4H1.4A1.4,1.4,0,0,1,0,4.922V1.406A1.406,1.406,0,0,1,1.406,0Z" transform="translate(0.821 0.74)" fill="#818386" style="mix-blend-mode: multiply;isolation: isolate"/>
            <path id="Rectangle_442" data-name="Rectangle 442" d="M1.4,0H7.19a1.4,1.4,0,0,1,1.4,1.4V4.919A1.406,1.406,0,0,1,7.188,6.325H1.4A1.4,1.4,0,0,1,0,4.921V1.4A1.4,1.4,0,0,1,1.4,0Z" fill="#aeb0b3"/>
          </g>
          <g id="Group_3231" data-name="Group 3231" transform="translate(12.238 0)">
            <path id="Rectangle_443" data-name="Rectangle 443" d="M1.406,0H7.188A1.406,1.406,0,0,1,8.595,1.406V4.923a1.4,1.4,0,0,1-1.4,1.4H1.4A1.4,1.4,0,0,1,0,4.921V1.406A1.406,1.406,0,0,1,1.406,0Z" transform="translate(0.821 0.74)" fill="#818386" style="mix-blend-mode: multiply;isolation: isolate"/>
            <path id="Rectangle_444" data-name="Rectangle 444" d="M1.4,0H7.191A1.4,1.4,0,0,1,8.6,1.4V4.919A1.406,1.406,0,0,1,7.189,6.325H1.407A1.407,1.407,0,0,1,0,4.918V1.4A1.4,1.4,0,0,1,1.4,0Z" fill="#aeb0b3"/>
          </g>
          <g id="Group_3232" data-name="Group 3232" transform="translate(23.41 0)">
            <path id="Rectangle_445" data-name="Rectangle 445" d="M1.406,0H7.192a1.4,1.4,0,0,1,1.4,1.4V4.923a1.4,1.4,0,0,1-1.4,1.4H1.4A1.4,1.4,0,0,1,0,4.921V1.406A1.406,1.406,0,0,1,1.406,0Z" transform="translate(0.821 0.74)" fill="#818386" style="mix-blend-mode: multiply;isolation: isolate"/>
            <path id="Rectangle_446" data-name="Rectangle 446" d="M1.4,0H7.191a1.4,1.4,0,0,1,1.4,1.4V4.919A1.406,1.406,0,0,1,7.188,6.325H1.4A1.4,1.4,0,0,1,0,4.922V1.4A1.4,1.4,0,0,1,1.4,0Z" fill="#aeb0b3"/>
          </g>
          <g id="Group_3233" data-name="Group 3233" transform="translate(34.634)">
            <path id="Rectangle_447" data-name="Rectangle 447" d="M1.406,0H7.192a1.4,1.4,0,0,1,1.4,1.4V4.923a1.4,1.4,0,0,1-1.4,1.4H1.4A1.4,1.4,0,0,1,0,4.923V1.406A1.406,1.406,0,0,1,1.406,0Z" transform="translate(0.822 0.74)" fill="#818386" style="mix-blend-mode: multiply;isolation: isolate"/>
            <path id="Path_17076" data-name="Path 17076" d="M193.741,283.968a.451.451,0,0,1-.452.452H185.6a.452.452,0,0,1-.453-.452v-5.42a.453.453,0,0,1,.453-.453h7.689a.453.453,0,0,1,.452.453Z" transform="translate(-185.146 -278.095)" fill="#4e5e6f"/>
          </g>
        </g>
        <g id="Group_3239" data-name="Group 3239" transform="translate(7.373 60.739)">
          <g id="Group_3235" data-name="Group 3235" transform="translate(0 0)">
            <path id="Rectangle_448" data-name="Rectangle 448" d="M1.4,0H7.189A1.405,1.405,0,0,1,8.595,1.405V4.923a1.4,1.4,0,0,1-1.4,1.4H1.4A1.4,1.4,0,0,1,0,4.922V1.4A1.4,1.4,0,0,1,1.4,0Z" transform="translate(0.821 0.74)" fill="#818386" style="mix-blend-mode: multiply;isolation: isolate"/>
            <path id="Rectangle_449" data-name="Rectangle 449" d="M1.406,0H7.19a1.4,1.4,0,0,1,1.4,1.4V4.923a1.4,1.4,0,0,1-1.4,1.4H1.4A1.4,1.4,0,0,1,0,4.921V1.406A1.406,1.406,0,0,1,1.406,0Z" fill="#aeb0b3"/>
          </g>
          <g id="Group_3236" data-name="Group 3236" transform="translate(12.238)">
            <path id="Rectangle_450" data-name="Rectangle 450" d="M1.4,0H7.19a1.4,1.4,0,0,1,1.4,1.4V4.923a1.4,1.4,0,0,1-1.4,1.4H1.4A1.4,1.4,0,0,1,0,4.921V1.4A1.4,1.4,0,0,1,1.4,0Z" transform="translate(0.821 0.74)" fill="#818386" style="mix-blend-mode: multiply;isolation: isolate"/>
            <path id="Path_17077" data-name="Path 17077" d="M124.225,314.388a.453.453,0,0,1-.454.453h-7.689a.453.453,0,0,1-.452-.453v-5.421a.453.453,0,0,1,.452-.452h7.689a.454.454,0,0,1,.454.452Z" transform="translate(-115.63 -308.515)" fill="#aeb0b3"/>
          </g>
          <g id="Group_3237" data-name="Group 3237" transform="translate(23.41 0)">
            <path id="Rectangle_451" data-name="Rectangle 451" d="M1.4,0H7.192a1.4,1.4,0,0,1,1.4,1.4V4.923a1.4,1.4,0,0,1-1.4,1.4H1.4A1.4,1.4,0,0,1,0,4.921V1.4A1.4,1.4,0,0,1,1.4,0Z" transform="translate(0.821 0.74)" fill="#818386" style="mix-blend-mode: multiply;isolation: isolate"/>
            <path id="Rectangle_452" data-name="Rectangle 452" d="M1.406,0H7.191a1.4,1.4,0,0,1,1.4,1.4v3.52a1.4,1.4,0,0,1-1.4,1.4H1.4A1.4,1.4,0,0,1,0,4.922V1.406A1.406,1.406,0,0,1,1.406,0Z" fill="#4e5e6f"/>
          </g>
          <g id="Group_3238" data-name="Group 3238" transform="translate(34.634 0)">
            <path id="Rectangle_453" data-name="Rectangle 453" d="M1.4,0H7.192a1.4,1.4,0,0,1,1.4,1.4V4.923a1.4,1.4,0,0,1-1.4,1.4H1.4A1.4,1.4,0,0,1,0,4.923V1.4A1.4,1.4,0,0,1,1.4,0Z" transform="translate(0.821 0.74)" fill="#818386" style="mix-blend-mode: multiply;isolation: isolate"/>
            <path id="Rectangle_454" data-name="Rectangle 454" d="M1.406,0H7.189A1.406,1.406,0,0,1,8.6,1.406V4.923a1.4,1.4,0,0,1-1.4,1.4H1.4A1.4,1.4,0,0,1,0,4.921V1.406A1.406,1.406,0,0,1,1.406,0Z" fill="#4e5e6f"/>
          </g>
        </g>
        <g id="Group_3240" data-name="Group 3240" transform="translate(10.562 32.606)">
          <path id="Path_17078" data-name="Path 17078" d="M89.506,221.189v.9l-.657,3.225H87.825l.732-3.381H87.54v-.741Z" transform="translate(-87.54 -221.189)" fill="#1a1818"/>
        </g>
        <g id="Group_3241" data-name="Group 3241" transform="translate(22.733 32.322)">
          <path id="Path_17079" data-name="Path 17079" d="M127.3,222.171a.743.743,0,0,1,.349.274,1.883,1.883,0,0,1,.122.867,2.081,2.081,0,0,1-.1.736.789.789,0,0,1-.377.389,1.586,1.586,0,0,1-.751.151,1.525,1.525,0,0,1-.726-.145.868.868,0,0,1-.383-.384,1.975,1.975,0,0,1-.116-.8,3.233,3.233,0,0,1,.057-.649.655.655,0,0,1,.36-.441.6.6,0,0,1-.286-.291,1.175,1.175,0,0,1-.1-.508,1.018,1.018,0,0,1,.3-.8,1.284,1.284,0,0,1,.884-.266,1.248,1.248,0,0,1,.939.282,1.149,1.149,0,0,1,.26.807,1.007,1.007,0,0,1-.085.481A.882.882,0,0,1,127.3,222.171Zm-.558.829a.675.675,0,0,0-.048-.314.167.167,0,0,0-.153-.078.157.157,0,0,0-.146.075.726.726,0,0,0-.044.317v.535a.744.744,0,0,0,.05.344.174.174,0,0,0,.157.077.148.148,0,0,0,.148-.078.98.98,0,0,0,.038-.35Zm-.02-1.714a.671.671,0,0,0-.037-.276.146.146,0,0,0-.141-.067.138.138,0,0,0-.137.073.683.683,0,0,0-.036.271v.313a.568.568,0,0,0,.041.257.145.145,0,0,0,.138.072.14.14,0,0,0,.138-.07.747.747,0,0,0,.036-.289Z" transform="translate(-125.319 -220.309)" fill="#1a1818"/>
        </g>
        <g id="Group_3242" data-name="Group 3242" transform="translate(33.92 32.322)">
          <path id="Path_17080" data-name="Path 17080" d="M160.045,223.416h1.029q0,.288.008.363a.192.192,0,0,0,.062.126.21.21,0,0,0,.149.051.181.181,0,0,0,.13-.049.186.186,0,0,0,.057-.125c0-.051.007-.153.007-.308v-.657a.524.524,0,0,1-.229.248.789.789,0,0,1-.38.083.842.842,0,0,1-.5-.153.661.661,0,0,1-.275-.367,2.26,2.26,0,0,1-.059-.578v-.329a4.4,4.4,0,0,1,.034-.644.839.839,0,0,1,.177-.391.923.923,0,0,1,.395-.279,1.594,1.594,0,0,1,.586-.1,1.711,1.711,0,0,1,.677.115.921.921,0,0,1,.41.33.97.97,0,0,1,.168.452q.023.237.023.917v.573q0,.736-.021.984a.937.937,0,0,1-.177.47.955.955,0,0,1-.424.332,1.6,1.6,0,0,1-.619.111,1.573,1.573,0,0,1-.712-.14.845.845,0,0,1-.4-.4A1.494,1.494,0,0,1,160.045,223.416Zm1.029-1.286q0,.26.067.321a.206.206,0,0,0,.139.061.172.172,0,0,0,.157-.078.627.627,0,0,0,.05-.3v-.746a.855.855,0,0,0-.047-.356.165.165,0,0,0-.157-.084.209.209,0,0,0-.138.065q-.071.065-.071.35Z" transform="translate(-160.045 -220.309)" fill="#1a1818"/>
        </g>
        <g id="Group_3243" data-name="Group 3243" transform="translate(10.562 42.364)">
          <path id="Path_17081" data-name="Path 17081" d="M89.791,251.479v2.694h.293v.7h-.293v.726H88.762v-.726H87.54v-.7l.889-2.694Zm-1.029,2.694v-1.754l-.455,1.754Z" transform="translate(-87.54 -251.479)" fill="#1a1818"/>
        </g>
        <g id="Group_3244" data-name="Group 3244" transform="translate(10.562 52.157)">
          <path id="Path_17082" data-name="Path 17082" d="M89.279,281.875V286H88.25v-2.21a3.855,3.855,0,0,0-.023-.575.215.215,0,0,0-.126-.147,1.306,1.306,0,0,0-.46-.05h-.1v-.48a1.872,1.872,0,0,0,1.133-.66Z" transform="translate(-87.54 -281.875)" fill="#1a1818"/>
        </g>
        <g id="Group_3245" data-name="Group 3245" transform="translate(10.715 61.771)">
          <path id="Path_17083" data-name="Path 17083" d="M90.442,313.192v1.375a3.26,3.26,0,0,1-.051.682.945.945,0,0,1-.212.4.914.914,0,0,1-.387.267,1.485,1.485,0,0,1-.507.082,1.888,1.888,0,0,1-.613-.085.842.842,0,0,1-.39-.266,1.133,1.133,0,0,1-.207-.381,2.372,2.372,0,0,1-.061-.635v-1.438a2.778,2.778,0,0,1,.1-.851.839.839,0,0,1,.39-.453,1.373,1.373,0,0,1,.707-.171,1.477,1.477,0,0,1,.606.119,1.019,1.019,0,0,1,.4.289.956.956,0,0,1,.179.385A3.492,3.492,0,0,1,90.442,313.192Zm-1.029-.347a1.552,1.552,0,0,0-.032-.411.141.141,0,0,0-.149-.083.147.147,0,0,0-.151.088,1.345,1.345,0,0,0-.037.406v2.012a1.5,1.5,0,0,0,.034.433.147.147,0,0,0,.149.074.145.145,0,0,0,.15-.087,1.3,1.3,0,0,0,.036-.389Z" transform="translate(-88.015 -311.717)" fill="#1a1818"/>
        </g>
        <g id="Group_3246" data-name="Group 3246" transform="translate(21.364 61.771)">
          <path id="Path_17084" data-name="Path 17084" d="M123.5,313.192v1.375a3.234,3.234,0,0,1-.051.682.941.941,0,0,1-.211.4.914.914,0,0,1-.387.267,1.487,1.487,0,0,1-.507.082,1.89,1.89,0,0,1-.614-.085.843.843,0,0,1-.389-.266,1.138,1.138,0,0,1-.206-.381,2.369,2.369,0,0,1-.061-.635v-1.438a2.775,2.775,0,0,1,.1-.851.838.838,0,0,1,.39-.453,1.372,1.372,0,0,1,.707-.171,1.476,1.476,0,0,1,.606.119,1.015,1.015,0,0,1,.4.289.957.957,0,0,1,.179.385A3.49,3.49,0,0,1,123.5,313.192Zm-1.029-.347a1.557,1.557,0,0,0-.032-.411.141.141,0,0,0-.149-.083.147.147,0,0,0-.151.088,1.345,1.345,0,0,0-.037.406v2.012a1.5,1.5,0,0,0,.034.433.18.18,0,0,0,.3-.013,1.3,1.3,0,0,0,.035-.389Z" transform="translate(-121.071 -311.717)" fill="#1a1818"/>
          <path id="Path_17085" data-name="Path 17085" d="M132.177,313.192v1.375a3.238,3.238,0,0,1-.051.682.941.941,0,0,1-.211.4.916.916,0,0,1-.387.267,1.488,1.488,0,0,1-.507.082,1.89,1.89,0,0,1-.613-.085.842.842,0,0,1-.389-.266,1.133,1.133,0,0,1-.207-.381,2.385,2.385,0,0,1-.061-.635v-1.438a2.776,2.776,0,0,1,.1-.851.838.838,0,0,1,.39-.453,1.372,1.372,0,0,1,.706-.171,1.477,1.477,0,0,1,.606.119,1.015,1.015,0,0,1,.4.289.957.957,0,0,1,.179.385A3.522,3.522,0,0,1,132.177,313.192Zm-1.029-.347a1.536,1.536,0,0,0-.032-.411.141.141,0,0,0-.149-.083.147.147,0,0,0-.151.088,1.33,1.33,0,0,0-.037.406v2.012a1.492,1.492,0,0,0,.034.433.18.18,0,0,0,.3-.013,1.3,1.3,0,0,0,.035-.389Z" transform="translate(-126.954 -311.717)" fill="#1a1818"/>
        </g>
        <g id="Group_3247" data-name="Group 3247" transform="translate(33.974 61.771)">
          <path id="Path_17086" data-name="Path 17086" d="M162.211,311.717,160.991,316h-.779l1.227-4.281Z" transform="translate(-160.212 -311.717)" fill="#fff"/>
        </g>
        <g id="Group_3248" data-name="Group 3248" transform="translate(44.102 62.924)">
          <path id="Path_17087" data-name="Path 17087" d="M191.649,315.3h4.4v.824h-4.4Zm0,1.29h4.4v.824h-4.4Z" transform="translate(-191.649 -315.297)" fill="#fff"/>
        </g>
        <g id="Group_3249" data-name="Group 3249" transform="translate(44.984 52.076)">
          <path id="Path_17088" data-name="Path 17088" d="M197.153,281.625l-.51,2.008.617,2.195h-1.244c-.123-.555-.217-1.032-.281-1.432q-.128.751-.278,1.432h-1.07l.552-2.195-.552-2.008h1.07q.259,1.289.278,1.464.186-1.076.281-1.464Z" transform="translate(-194.388 -281.625)" fill="#fff"/>
        </g>
        <g id="Group_3250" data-name="Group 3250" transform="translate(44.35 32.434)">
          <path id="Path_17089" data-name="Path 17089" d="M192.419,222.205h1.543v-1.547h1.049v1.547h1.551v1.049h-1.551v1.539h-1.049v-1.539h-1.543Z" transform="translate(-192.419 -220.658)" fill="#fff"/>
        </g>
        <g id="Group_3251" data-name="Group 3251" transform="translate(44.431 43.784)">
          <path id="Path_17090" data-name="Path 17090" d="M196.417,255.886V257h-3.748v-1.11Z" transform="translate(-192.669 -255.886)" fill="#fff"/>
        </g>
        <g id="Group_3252" data-name="Group 3252" transform="translate(22.702 52.078)">
          <path id="Path_17091" data-name="Path 17091" d="M127.489,285.129v.7h-2.264v-.589q1.006-1.645,1.2-2.035a1.541,1.541,0,0,0,.189-.61.445.445,0,0,0-.057-.251.2.2,0,0,0-.175-.083.192.192,0,0,0-.175.091.775.775,0,0,0-.057.364v.392h-.922v-.15a3.3,3.3,0,0,1,.035-.546.961.961,0,0,1,.176-.393.884.884,0,0,1,.364-.293,1.323,1.323,0,0,1,.537-.1,1.285,1.285,0,0,1,.928.3,1.027,1.027,0,0,1,.314.77,1.831,1.831,0,0,1-.177.749,15.432,15.432,0,0,1-1.043,1.675Z" transform="translate(-125.225 -281.631)" fill="#1a1818"/>
        </g>
        <g id="Group_3253" data-name="Group 3253" transform="translate(34.095 52.075)">
          <path id="Path_17092" data-name="Path 17092" d="M162.551,283.49a.64.64,0,0,1,.349.258,1.905,1.905,0,0,1,.114.842,2.065,2.065,0,0,1-.112.763.8.8,0,0,1-.387.413,1.54,1.54,0,0,1-.7.141,1.516,1.516,0,0,1-.768-.164.8.8,0,0,1-.367-.4,2.688,2.688,0,0,1-.088-.826v-.326h1.028v.67a1.07,1.07,0,0,0,.032.34.137.137,0,0,0,.141.073.154.154,0,0,0,.158-.092,1.714,1.714,0,0,0,.038-.479v-.285a.839.839,0,0,0-.053-.347.266.266,0,0,0-.158-.144,1.639,1.639,0,0,0-.4-.039v-.6a2.1,2.1,0,0,0,.453-.028.2.2,0,0,0,.125-.122.84.84,0,0,0,.038-.3v-.229a.6.6,0,0,0-.045-.285.154.154,0,0,0-.139-.069.151.151,0,0,0-.146.073.763.763,0,0,0-.04.309v.339h-1.028v-.352a.963.963,0,0,1,.27-.8,1.414,1.414,0,0,1,.858-.207,1.338,1.338,0,0,1,1,.287,1.144,1.144,0,0,1,.262.8,1,1,0,0,1-.094.5A.843.843,0,0,1,162.551,283.49Z" transform="translate(-160.588 -281.622)" fill="#1a1818"/>
        </g>
        <g id="Group_3254" data-name="Group 3254" transform="translate(22.733 42.364)">
          <path id="Path_17093" data-name="Path 17093" d="M127.58,251.479v.66H126.3v.7a.771.771,0,0,1,.616-.283.828.828,0,0,1,.643.238,1.4,1.4,0,0,1,.218.915v.588a3.521,3.521,0,0,1-.042.643.9.9,0,0,1-.179.38.861.861,0,0,1-.383.267,1.7,1.7,0,0,1-.6.093,1.661,1.661,0,0,1-.7-.139.838.838,0,0,1-.43-.414,2.132,2.132,0,0,1-.128-.851v-.224h1.029v.257a3.938,3.938,0,0,0,.028.568.178.178,0,0,0,.193.168.166.166,0,0,0,.124-.048.168.168,0,0,0,.051-.1q0-.056.009-.486v-.817a.7.7,0,0,0-.049-.316.17.17,0,0,0-.16-.084.172.172,0,0,0-.12.044.192.192,0,0,0-.062.093,1.093,1.093,0,0,0-.014.23H125.33l.043-2.078Z" transform="translate(-125.319 -251.479)" fill="#1a1818"/>
        </g>
        <g id="Group_3255" data-name="Group 3255" transform="translate(33.92 42.282)">
          <path id="Path_17094" data-name="Path 17094" d="M162.515,252.4h-1.029c0-.192,0-.313-.007-.363a.187.187,0,0,0-.061-.126.211.211,0,0,0-.149-.051.182.182,0,0,0-.13.048.191.191,0,0,0-.058.125q-.008.076-.008.308V253a.534.534,0,0,1,.232-.248.784.784,0,0,1,.377-.082.843.843,0,0,1,.5.152.663.663,0,0,1,.275.367,2.271,2.271,0,0,1,.059.578v.328a4.518,4.518,0,0,1-.033.644.819.819,0,0,1-.177.391.935.935,0,0,1-.395.279,1.576,1.576,0,0,1-.584.1,1.732,1.732,0,0,1-.68-.114.912.912,0,0,1-.408-.33.984.984,0,0,1-.168-.452q-.025-.237-.024-.919v-.57q0-.736.022-.984a.952.952,0,0,1,.177-.47.942.942,0,0,1,.424-.332,1.615,1.615,0,0,1,.62-.111,1.575,1.575,0,0,1,.711.14.836.836,0,0,1,.4.394A1.51,1.51,0,0,1,162.515,252.4Zm-1.029,1.286a.646.646,0,0,0-.049-.3.169.169,0,0,0-.158-.082.172.172,0,0,0-.157.078.626.626,0,0,0-.05.3v.746a.859.859,0,0,0,.047.357.165.165,0,0,0,.157.084.209.209,0,0,0,.138-.065c.047-.043.072-.16.072-.35Z" transform="translate(-160.045 -251.226)" fill="#1a1818"/>
        </g>
      </g>
      <text id="COST" transform="translate(19.96 12.178)" fill="#1a1818" font-size="8" font-family="SegoeUI, Segoe UI"><tspan x="0" y="0">COST</tspan></text>
    </g>
    <g id="Group_3265" data-name="Group 3265" transform="translate(31.605 15.135)">
      <path id="Path_17095" data-name="Path 17095" d="M314.141,180.966l2.588-1.9,1.347,1.9Z" transform="translate(-262.181 -175.166)" fill="#96999c" style="mix-blend-mode: multiply;isolation: isolate"/>
      <path id="Path_17096" data-name="Path 17096" d="M162.167,296.871h71.4v33.737h-63.2V311.159L161.4,298.5l1.267-.93Z" transform="translate(-158.645 -255.018)" fill="#96999c" style="mix-blend-mode: multiply;isolation: isolate"/>
      <g id="Group_3264" data-name="Group 3264">
        <rect id="Rectangle_455" data-name="Rectangle 455" width="63.198" height="33.901" transform="translate(8.974 37.789)" fill="#88a156"/>
        <rect id="Rectangle_456" data-name="Rectangle 456" width="63.198" height="33.901" transform="translate(8.974 37.789)" fill="#6f9851"/>
        <path id="Path_17097" data-name="Path 17097" d="M196.355,322.466a2.684,2.684,0,0,0-2.694-2.975c-.038,0-.072,0-.108.006V299.587l.24.024a2.749,2.749,0,0,0,1.409-.388l.564-.444a2.877,2.877,0,0,0,.818-2.008,2.968,2.968,0,0,0-.032-.4h49.132a2.668,2.668,0,0,0,2.7,2.841c.032,0,.061,0,.092,0v19.885a2.844,2.844,0,0,0-2.751,2.839,2.8,2.8,0,0,0,.053.538Z" transform="translate(-180.442 -254.677)" fill="#ddcc8b"/>
        <path id="Path_17098" data-name="Path 17098" d="M236.121,308.27a13.749,13.749,0,1,0,13.747-13.991A13.871,13.871,0,0,0,236.121,308.27Z" transform="translate(-209.296 -253.262)" fill="#6f9851"/>
        <g id="Group_3258" data-name="Group 3258" transform="translate(27.849 42.059)">
          <path id="Path_17099" data-name="Path 17099" d="M252.022,323.411a12.952,12.952,0,1,0-12.723-12.95A12.852,12.852,0,0,0,252.022,323.411Zm0-25.092a12.145,12.145,0,1,1-11.93,12.142A12.051,12.051,0,0,1,252.022,298.318Z" transform="translate(-239.299 -297.511)" fill="#efd29f"/>
        </g>
        <g id="Group_3259" data-name="Group 3259" transform="translate(34.05 45.154)" style="mix-blend-mode: multiply;isolation: isolate">
          <path id="Path_17100" data-name="Path 17100" d="M259.023,313.4H263.1v-.688a4.586,4.586,0,0,1,.141-1.44.586.586,0,0,1,.607-.339.622.622,0,0,1,.561.292,1.663,1.663,0,0,1,.187.879,1.93,1.93,0,0,1-.384,1.367,14.893,14.893,0,0,1-2.2,1.522,16.331,16.331,0,0,0-2.121,1.466,3.945,3.945,0,0,0-.955,1.439,6.038,6.038,0,0,0-.389,2.317A5.3,5.3,0,0,0,259.6,323.7a4.787,4.787,0,0,0,3.151,1.563v1.563h1.88v-1.614a4.847,4.847,0,0,0,2.858-1.279q1.223-1.116,1.223-3.892v-.812h-4.081v1.017a9.742,9.742,0,0,1-.126,2.082.568.568,0,0,1-.611.406.707.707,0,0,1-.617-.283,1.442,1.442,0,0,1-.2-.838,7.314,7.314,0,0,1,.192-2,2.925,2.925,0,0,1,1.313-1.311,28.259,28.259,0,0,0,2.54-1.753,4.621,4.621,0,0,0,1.161-1.578,5.243,5.243,0,0,0,.49-2.3,3.993,3.993,0,0,0-1.035-2.919,5.039,5.039,0,0,0-3.106-1.306v-1.326h-1.88v1.326a4.437,4.437,0,0,0-2.828,1.291,4.153,4.153,0,0,0-.938,2.883Q258.983,312.877,259.023,313.4Z" transform="translate(-258.548 -307.119)" fill="#aeb0b3"/>
        </g>
        <g id="Group_3260" data-name="Group 3260" transform="translate(35.371 44.769)">
          <path id="Path_17101" data-name="Path 17101" d="M263.125,312.207h4.081v-.688a4.6,4.6,0,0,1,.141-1.44.585.585,0,0,1,.606-.339.623.623,0,0,1,.561.292,1.659,1.659,0,0,1,.187.88,1.927,1.927,0,0,1-.383,1.367,14.917,14.917,0,0,1-2.2,1.522,16.445,16.445,0,0,0-2.122,1.466,3.959,3.959,0,0,0-.954,1.439,6.037,6.037,0,0,0-.389,2.32,5.294,5.294,0,0,0,1.05,3.484,4.788,4.788,0,0,0,3.152,1.563v1.563h1.88v-1.615a4.854,4.854,0,0,0,2.858-1.28q1.222-1.116,1.222-3.892v-.812h-4.081v1.018a9.745,9.745,0,0,1-.127,2.082.567.567,0,0,1-.611.407.707.707,0,0,1-.617-.283,1.437,1.437,0,0,1-.2-.838,7.313,7.313,0,0,1,.192-2,2.931,2.931,0,0,1,1.313-1.311,28.277,28.277,0,0,0,2.54-1.752,4.623,4.623,0,0,0,1.161-1.578,5.229,5.229,0,0,0,.49-2.3,4,4,0,0,0-1.035-2.92,5.036,5.036,0,0,0-3.106-1.305v-1.327h-1.88v1.327a4.424,4.424,0,0,0-2.828,1.29,4.156,4.156,0,0,0-.939,2.883Q263.085,311.682,263.125,312.207Z" transform="translate(-262.65 -305.925)" fill="#efd29f"/>
        </g>
        <path id="Path_17102" data-name="Path 17102" d="M273.4,294.285c8.556.028,15.482,6.28,15.482,13.989s-6.926,13.962-15.482,13.99Z" transform="translate(-234.569 -253.266)" fill="#aeb0b3" style="mix-blend-mode: multiply;isolation: isolate"/>
        <path id="Path_17103" data-name="Path 17103" d="M181.243,306.151a50.915,50.915,0,0,0,18.938,2.053c7.3-.569,14.7-2.034,21.192-5.627a42.458,42.458,0,0,0,15.906-16.1c.415-.729.813-1.466,1.191-2.215h5.439v33.9h-63.2V305.981C180.888,306.037,181.065,306.1,181.243,306.151Z" transform="translate(-171.738 -246.468)" fill="#aeb0b3" style="mix-blend-mode: multiply;isolation: isolate"/>
        <path id="Path_17104" data-name="Path 17104" d="M204.115,173.031l19.485,27.5-51.258,37.626-19.485-27.5Z" transform="translate(-152.857 -171.076)" fill="#818386" style="mix-blend-mode: multiply;isolation: isolate"/>
        <path id="Path_17105" data-name="Path 17105" d="M174.021,232.084l51.257-37.626-19.484-27.5-51.258,37.626Z" transform="translate(-153.996 -166.962)" fill="#88a156"/>
        <path id="Path_17106" data-name="Path 17106" d="M174.021,232.084l51.257-37.626-19.484-27.5-51.258,37.626Z" transform="translate(-153.996 -166.962)" fill="#6f9851"/>
        <path id="Path_17107" data-name="Path 17107" d="M193.083,240.127a2.63,2.63,0,0,0-3.9-.809c-.03.021-.056.046-.084.068l-11.442-16.147.208-.123a2.825,2.825,0,0,0,.919-1.153c.068-.232.135-.465.2-.7a2.892,2.892,0,0,0-.492-2.116,2.686,2.686,0,0,0-.258-.308l39.85-29.251a2.613,2.613,0,0,0,3.822.7c.026-.019.048-.039.072-.058l11.43,16.128a2.9,2.9,0,0,0-.6,3.94,2.854,2.854,0,0,0,.353.405Z" transform="translate(-169.67 -182.301)" fill="#ddcc8b"/>
        <path id="Path_17108" data-name="Path 17108" d="M224.734,247.453a13.592,13.592,0,0,0,19.19,3.163,14.152,14.152,0,0,0,3.108-19.533,13.593,13.593,0,0,0-19.191-3.162A14.153,14.153,0,0,0,224.734,247.453Z" transform="translate(-199.816 -206.49)" fill="#6f9851"/>
        <g id="Group_3261" data-name="Group 3261" transform="translate(23.348 19.835)">
          <path id="Path_17109" data-name="Path 17109" d="M245.49,251.975a13.113,13.113,0,0,0,2.877-18.077A12.6,12.6,0,0,0,230.6,230.97a13.113,13.113,0,0,0-2.877,18.078A12.594,12.594,0,0,0,245.49,251.975Zm-14.422-20.351a11.81,11.81,0,0,1,16.655,2.745,12.3,12.3,0,0,1-2.7,16.951,11.811,11.811,0,0,1-16.656-2.746A12.3,12.3,0,0,1,231.068,231.625Z" transform="translate(-225.328 -228.528)" fill="#efd29f"/>
        </g>
        <g id="Group_3262" data-name="Group 3262" transform="translate(27.709 25.05)" style="mix-blend-mode: multiply;isolation: isolate">
          <path id="Path_17110" data-name="Path 17110" d="M240.266,253.148l3.309-2.429-.4-.558a4.544,4.544,0,0,1-.713-1.252.6.6,0,0,1,.3-.636.612.612,0,0,1,.623-.1,1.605,1.605,0,0,1,.657.6,1.933,1.933,0,0,1,.475,1.337,15.466,15.466,0,0,1-.912,2.545,16.973,16.973,0,0,0-.878,2.451,4.016,4.016,0,0,0,.053,1.736,6,6,0,0,0,1.017,2.111,5.151,5.151,0,0,0,2.855,2.2,4.748,4.748,0,0,0,3.455-.609l.9,1.267,1.524-1.119-.928-1.309a5.006,5.006,0,0,0,1.583-2.74q.349-1.632-1.245-3.883l-.467-.659-3.31,2.429.586.825a9.635,9.635,0,0,1,1.093,1.764.582.582,0,0,1-.263.693.7.7,0,0,1-.662.138,1.4,1.4,0,0,1-.645-.56,7.184,7.184,0,0,1-.994-1.736,3.005,3.005,0,0,1,.312-1.844,28.887,28.887,0,0,0,1.053-2.935,4.709,4.709,0,0,0,.035-1.971,5.2,5.2,0,0,0-.927-2.16A3.887,3.887,0,0,0,245.235,245a5.014,5.014,0,0,0-3.27.791l-.762-1.076-1.525,1.119.763,1.075a4.561,4.561,0,0,0-1.553,2.73,4.158,4.158,0,0,0,.9,2.9Q239.932,252.747,240.266,253.148Z" transform="translate(-238.867 -244.716)" fill="#aeb0b3"/>
        </g>
        <g id="Group_3263" data-name="Group 3263" transform="translate(28.56 23.951)">
          <path id="Path_17111" data-name="Path 17111" d="M242.908,249.737l3.309-2.429-.4-.559a4.517,4.517,0,0,1-.713-1.251.6.6,0,0,1,.3-.636.616.616,0,0,1,.623-.1,1.609,1.609,0,0,1,.657.6,1.928,1.928,0,0,1,.475,1.338,15.457,15.457,0,0,1-.911,2.545,16.742,16.742,0,0,0-.879,2.451,4.022,4.022,0,0,0,.053,1.735,5.993,5.993,0,0,0,1.017,2.112,5.15,5.15,0,0,0,2.855,2.2,4.748,4.748,0,0,0,3.455-.609l.9,1.267,1.524-1.118-.928-1.311a5,5,0,0,0,1.583-2.74q.35-1.631-1.245-3.883l-.467-.659-3.31,2.429.586.826a9.628,9.628,0,0,1,1.094,1.764.581.581,0,0,1-.263.693.7.7,0,0,1-.662.138,1.4,1.4,0,0,1-.645-.56,7.212,7.212,0,0,1-.994-1.736,3,3,0,0,1,.313-1.845,29.576,29.576,0,0,0,1.053-2.934,4.707,4.707,0,0,0,.035-1.971,5.2,5.2,0,0,0-.926-2.159,3.887,3.887,0,0,0-2.518-1.753,5.01,5.01,0,0,0-3.269.79l-.763-1.075-1.524,1.119.762,1.076a4.567,4.567,0,0,0-1.552,2.73,4.159,4.159,0,0,0,.9,2.9C242.523,249.266,242.685,249.469,242.908,249.737Z" transform="translate(-241.509 -241.304)" fill="#efd29f"/>
        </g>
        <path id="Path_17112" data-name="Path 17112" d="M239.98,227.894a13.592,13.592,0,0,1,19.148,3.192,14.152,14.152,0,0,1-3.067,19.5Z" transform="translate(-211.912 -206.492)" fill="#aeb0b3" style="mix-blend-mode: multiply;isolation: isolate"/>
        <path id="Path_17113" data-name="Path 17113" d="M193.819,222.027a51.56,51.56,0,0,0,16.54-9.608c5.591-4.806,10.757-10.4,13.954-17.182a43.493,43.493,0,0,0,3.644-22.532q-.122-1.255-.306-2.5l4.412-3.239,19.484,27.5-51.257,37.626-7-9.878C193.466,222.147,193.643,222.089,193.819,222.027Z" transform="translate(-180.263 -166.962)" fill="#aeb0b3" style="mix-blend-mode: multiply;isolation: isolate"/>
      </g>
    </g>
    <path id="Path_17114" data-name="Path 17114" d="M192.348,373.8c0,5.709-16.077,10.337-35.91,10.337s-35.91-4.628-35.91-10.337,16.078-10.336,35.91-10.336S192.348,368.09,192.348,373.8Z" transform="translate(-99.339 -285.021)" fill="#96999c" style="mix-blend-mode: multiply;isolation: isolate"/>
    <g id="Group_3282" data-name="Group 3282" transform="translate(27.081 46.99)">
      <g id="Group_3269" data-name="Group 3269" transform="translate(0 24.937)">
        <path id="Path_17115" data-name="Path 17115" d="M138.848,372.883c0,4.664,13.583,8.445,30.337,8.445s30.337-3.781,30.337-8.445V368.3H138.816Z" transform="translate(-138.816 -360.227)" fill="#754a10"/>
        <path id="Path_17116" data-name="Path 17116" d="M200.825,352.371c0,4.493-13.082,8.135-29.218,8.135s-29.218-3.641-29.218-8.135,13.081-8.135,29.218-8.135S200.825,347.878,200.825,352.371Z" transform="translate(-141.238 -343.915)" fill="#fe9d2b"/>
        <g id="Group_3266" data-name="Group 3266">
          <path id="Path_17117" data-name="Path 17117" d="M169.185,360.152c-16.745,0-30.369-3.794-30.369-8.456s13.624-8.456,30.369-8.456,30.369,3.794,30.369,8.456S185.931,360.152,169.185,360.152Zm0-16.27c-15.477,0-28.068,3.4-28.068,7.572s12.592,7.572,28.068,7.572,28.068-3.4,28.068-7.572S184.662,343.882,169.185,343.882Z" transform="translate(-138.816 -343.241)" fill="#d18324"/>
        </g>
        <path id="Path_17118" data-name="Path 17118" d="M209.334,356.886c0,3.308-9.631,5.989-21.509,5.989s-21.51-2.681-21.51-5.989,9.63-5.99,21.51-5.99S209.334,353.578,209.334,356.886Z" transform="translate(-157.456 -348.43)" fill="#d68625"/>
        <path id="Path_17119" data-name="Path 17119" d="M224.617,353.711c-2.6.726-4.258,1.679-4.256,2.771,0,1.617,2.824,3.324,8.586,3.91a37.848,37.848,0,0,0,13.021-.679,1.9,1.9,0,0,0,.751-1.38c0-2.564-7.461-4.641-16.665-4.641C225.569,353.693,225.091,353.7,224.617,353.711Z" transform="translate(-194.09 -350.326)" fill="#fe0" style="mix-blend-mode: soft-light;isolation: isolate"/>
        <path id="Path_17120" data-name="Path 17120" d="M188.752,360.685c-7.511-1.092-11.733-3.444-11.246-5.78.246-1.178,1.608-2.245,3.843-3.148-8.715.765-15.035,3.033-15.035,5.712,0,3.308,9.63,5.989,21.51,5.989,7.465,0,14.038-1.06,17.9-2.667A64.416,64.416,0,0,1,188.752,360.685Z" transform="translate(-157.456 -349.013)" fill="#e0e1e3" style="mix-blend-mode: multiply;isolation: isolate"/>
        <g id="Group_3267" data-name="Group 3267" transform="translate(23.751 3.552)" style="mix-blend-mode: multiply;isolation: isolate">
          <path id="Path_17121" data-name="Path 17121" d="M229.562,357.267h-7.127v-.329a.773.773,0,0,0-.247-.687,2.222,2.222,0,0,0-1.058-.162,2.612,2.612,0,0,0-.979.14.451.451,0,0,0-.326.42c0,.311.222.529.67.653s1.717.367,3.845.727q2.717.457,3.706.7a5.392,5.392,0,0,1,1.667.688,1.3,1.3,0,0,1,.679,1.108q0,1.062-1.835,1.666a21.434,21.434,0,0,1-5.5.746v.746h-3.282v-.771a23.456,23.456,0,0,1-4.993-.611q-2.133-.533-2.134-1.859v-.388h7.127v.486q0,.8.221.994a1.835,1.835,0,0,0,1.066.194,3.2,3.2,0,0,0,1.077-.135c.236-.089.353-.223.353-.4a1.2,1.2,0,0,0-.335-.956,6.71,6.71,0,0,0-2.293-.625q-3.265-.569-4.437-.838a7.446,7.446,0,0,1-2.028-.754q-.856-.487-.856-1.1,0-.889,1.809-1.395a24.635,24.635,0,0,1,5.424-.624v-.632h3.282v.632a20.773,20.773,0,0,1,4.939.617q1.64.5,1.64,1.377A1.547,1.547,0,0,1,229.562,357.267Z" transform="translate(-212.538 -354.267)" fill="#aeb0b3"/>
        </g>
        <g id="Group_3268" data-name="Group 3268" transform="translate(21.443 3.367)">
          <path id="Path_17122" data-name="Path 17122" d="M222.4,356.694h-7.127v-.329c0-.351-.082-.58-.248-.687a2.211,2.211,0,0,0-1.058-.163,2.591,2.591,0,0,0-.978.14.452.452,0,0,0-.327.42c0,.311.224.529.671.652s1.717.368,3.846.727q2.717.457,3.7.7a5.374,5.374,0,0,1,1.668.687,1.3,1.3,0,0,1,.678,1.107q0,1.062-1.834,1.665a21.445,21.445,0,0,1-5.5.747v.746h-3.282v-.771a23.407,23.407,0,0,1-4.992-.612q-2.135-.532-2.135-1.859v-.388h7.127v.487q0,.8.22.995a1.848,1.848,0,0,0,1.068.194,3.213,3.213,0,0,0,1.076-.135c.236-.091.352-.224.352-.4a1.2,1.2,0,0,0-.334-.955,6.7,6.7,0,0,0-2.294-.627q-3.265-.569-4.437-.837a7.422,7.422,0,0,1-2.028-.753q-.857-.486-.856-1.1,0-.89,1.808-1.4a24.615,24.615,0,0,1,5.425-.624v-.634h3.282v.634a20.751,20.751,0,0,1,4.939.617q1.641.5,1.641,1.378A1.589,1.589,0,0,1,222.4,356.694Z" transform="translate(-205.374 -353.693)" fill="#fe0"/>
        </g>
      </g>
      <g id="Group_3273" data-name="Group 3273" transform="translate(0 16.863)">
        <path id="Path_17123" data-name="Path 17123" d="M138.848,347.824c0,4.665,13.583,8.446,30.337,8.446s30.337-3.782,30.337-8.446v-4.583H138.816Z" transform="translate(-138.816 -335.167)" fill="#754a10"/>
        <path id="Path_17124" data-name="Path 17124" d="M200.825,327.312c0,4.492-13.082,8.135-29.218,8.135s-29.218-3.643-29.218-8.135,13.081-8.135,29.218-8.135S200.825,322.818,200.825,327.312Z" transform="translate(-141.238 -318.856)" fill="#fe9d2b"/>
        <g id="Group_3270" data-name="Group 3270">
          <path id="Path_17125" data-name="Path 17125" d="M169.185,335.092c-16.745,0-30.369-3.793-30.369-8.455s13.624-8.456,30.369-8.456,30.369,3.793,30.369,8.456S185.931,335.092,169.185,335.092Zm0-16.27c-15.477,0-28.068,3.4-28.068,7.572s12.592,7.572,28.068,7.572,28.068-3.4,28.068-7.572S184.662,318.822,169.185,318.822Z" transform="translate(-138.816 -318.181)" fill="#d18324"/>
        </g>
        <path id="Path_17126" data-name="Path 17126" d="M209.334,331.827c0,3.307-9.631,5.988-21.509,5.988s-21.51-2.681-21.51-5.988,9.63-5.99,21.51-5.99S209.334,328.519,209.334,331.827Z" transform="translate(-157.456 -323.37)" fill="#d68625"/>
        <path id="Path_17127" data-name="Path 17127" d="M224.617,328.652c-2.6.726-4.258,1.678-4.256,2.77,0,1.618,2.824,3.325,8.586,3.911a37.818,37.818,0,0,0,13.021-.679,1.9,1.9,0,0,0,.751-1.38c0-2.564-7.461-4.641-16.665-4.641Q225.328,328.634,224.617,328.652Z" transform="translate(-194.09 -325.266)" fill="#fe0" style="mix-blend-mode: soft-light;isolation: isolate"/>
        <path id="Path_17128" data-name="Path 17128" d="M188.752,335.625c-7.511-1.092-11.733-3.444-11.246-5.78.246-1.178,1.608-2.245,3.843-3.147-8.715.765-15.035,3.032-15.035,5.712,0,3.307,9.63,5.988,21.51,5.988,7.465,0,14.038-1.059,17.9-2.667A64.414,64.414,0,0,1,188.752,335.625Z" transform="translate(-157.456 -323.954)" fill="#e0e1e3" style="mix-blend-mode: multiply;isolation: isolate"/>
        <g id="Group_3271" data-name="Group 3271" transform="translate(23.751 3.551)" style="mix-blend-mode: multiply;isolation: isolate">
          <path id="Path_17129" data-name="Path 17129" d="M229.562,332.206h-7.127v-.33a.774.774,0,0,0-.247-.687,2.222,2.222,0,0,0-1.058-.162,2.6,2.6,0,0,0-.979.14.45.45,0,0,0-.326.42c0,.312.222.529.67.653s1.717.368,3.845.727q2.717.456,3.706.7a5.405,5.405,0,0,1,1.667.687,1.3,1.3,0,0,1,.679,1.108q0,1.061-1.835,1.665a21.43,21.43,0,0,1-5.5.746v.747h-3.282v-.771a23.517,23.517,0,0,1-4.993-.611q-2.133-.534-2.134-1.86v-.389h7.127v.486q0,.8.221,1a1.841,1.841,0,0,0,1.066.194,3.2,3.2,0,0,0,1.077-.135q.353-.135.353-.4a1.2,1.2,0,0,0-.335-.955,6.718,6.718,0,0,0-2.293-.626q-3.265-.569-4.437-.837a7.446,7.446,0,0,1-2.028-.754q-.856-.487-.856-1.1,0-.89,1.809-1.4a24.64,24.64,0,0,1,5.424-.624V329.2h3.282v.634a20.8,20.8,0,0,1,4.939.617q1.64.5,1.64,1.378A1.546,1.546,0,0,1,229.562,332.206Z" transform="translate(-212.538 -329.204)" fill="#aeb0b3"/>
        </g>
        <g id="Group_3272" data-name="Group 3272" transform="translate(21.443 3.368)">
          <path id="Path_17130" data-name="Path 17130" d="M222.4,331.635h-7.127v-.33a.771.771,0,0,0-.248-.687,2.211,2.211,0,0,0-1.058-.163,2.6,2.6,0,0,0-.978.14.453.453,0,0,0-.327.421c0,.31.224.529.671.653s1.717.367,3.846.727q2.717.457,3.7.7a5.381,5.381,0,0,1,1.668.688,1.3,1.3,0,0,1,.678,1.108q0,1.06-1.834,1.665a21.453,21.453,0,0,1-5.5.746v.746h-3.282v-.771a23.454,23.454,0,0,1-4.992-.611q-2.135-.533-2.135-1.86v-.388h7.127v.486c0,.535.073.866.22,1a1.855,1.855,0,0,0,1.068.193,3.213,3.213,0,0,0,1.076-.135c.236-.09.352-.223.352-.4a1.2,1.2,0,0,0-.334-.955,6.716,6.716,0,0,0-2.294-.627q-3.265-.568-4.437-.838a7.422,7.422,0,0,1-2.028-.753q-.857-.486-.856-1.1,0-.889,1.808-1.4a24.66,24.66,0,0,1,5.425-.623v-.634h3.282v.634a20.746,20.746,0,0,1,4.939.617q1.641.5,1.641,1.377A1.585,1.585,0,0,1,222.4,331.635Z" transform="translate(-205.374 -328.634)" fill="#fe0"/>
        </g>
      </g>
      <g id="Group_3277" data-name="Group 3277" transform="translate(0 8.073)">
        <path id="Path_17131" data-name="Path 17131" d="M138.848,320.537c0,4.665,13.583,8.446,30.337,8.446s30.337-3.781,30.337-8.446v-4.583H138.816Z" transform="translate(-138.816 -307.881)" fill="#754a10"/>
        <ellipse id="Ellipse_87" data-name="Ellipse 87" cx="29.218" cy="8.135" rx="29.218" ry="8.135" transform="translate(1.151 0.32)" fill="#fe9d2b"/>
        <g id="Group_3274" data-name="Group 3274">
          <path id="Path_17132" data-name="Path 17132" d="M169.185,307.807c-16.745,0-30.369-3.793-30.369-8.456s13.624-8.456,30.369-8.456,30.369,3.793,30.369,8.456S185.931,307.807,169.185,307.807Zm0-16.27c-15.477,0-28.068,3.4-28.068,7.572s12.592,7.572,28.068,7.572,28.068-3.4,28.068-7.572S184.662,291.537,169.185,291.537Z" transform="translate(-138.816 -290.896)" fill="#d18324"/>
        </g>
        <path id="Path_17133" data-name="Path 17133" d="M209.334,304.541c0,3.307-9.631,5.988-21.509,5.988s-21.51-2.681-21.51-5.988,9.63-5.989,21.51-5.989S209.334,301.233,209.334,304.541Z" transform="translate(-157.456 -296.085)" fill="#d68625"/>
        <path id="Path_17134" data-name="Path 17134" d="M224.617,301.366c-2.6.726-4.258,1.678-4.256,2.77,0,1.618,2.824,3.325,8.586,3.911a37.831,37.831,0,0,0,13.021-.68,1.9,1.9,0,0,0,.751-1.38c0-2.563-7.461-4.64-16.665-4.64C225.569,301.347,225.091,301.354,224.617,301.366Z" transform="translate(-194.09 -297.98)" fill="#fe0" style="mix-blend-mode: soft-light;isolation: isolate"/>
        <path id="Path_17135" data-name="Path 17135" d="M188.752,308.338c-7.511-1.091-11.733-3.443-11.246-5.78.246-1.177,1.608-2.244,3.843-3.147-8.715.764-15.035,3.033-15.035,5.712,0,3.307,9.63,5.988,21.51,5.988,7.465,0,14.038-1.058,17.9-2.666A64.4,64.4,0,0,1,188.752,308.338Z" transform="translate(-157.456 -296.668)" fill="#e0e1e3" style="mix-blend-mode: multiply;isolation: isolate"/>
        <g id="Group_3275" data-name="Group 3275" transform="translate(23.751 3.551)" style="mix-blend-mode: multiply;isolation: isolate">
          <path id="Path_17136" data-name="Path 17136" d="M229.562,304.921h-7.127v-.331a.774.774,0,0,0-.247-.687,2.231,2.231,0,0,0-1.058-.162,2.612,2.612,0,0,0-.979.14.45.45,0,0,0-.326.42c0,.311.222.529.67.654s1.717.367,3.845.727q2.717.457,3.706.7a5.384,5.384,0,0,1,1.667.687,1.3,1.3,0,0,1,.679,1.108q0,1.061-1.835,1.665a21.4,21.4,0,0,1-5.5.747v.747h-3.282v-.772a23.477,23.477,0,0,1-4.993-.611q-2.133-.533-2.134-1.859V307.7h7.127v.487q0,.8.221.995a1.841,1.841,0,0,0,1.066.194,3.194,3.194,0,0,0,1.077-.135q.353-.135.353-.4a1.2,1.2,0,0,0-.335-.955,6.722,6.722,0,0,0-2.293-.627q-3.265-.569-4.437-.837a7.458,7.458,0,0,1-2.028-.754q-.856-.488-.856-1.1,0-.889,1.809-1.4a24.622,24.622,0,0,1,5.424-.623v-.634h3.282v.634a20.8,20.8,0,0,1,4.939.616q1.64.5,1.64,1.378A1.555,1.555,0,0,1,229.562,304.921Z" transform="translate(-212.538 -301.919)" fill="#aeb0b3"/>
        </g>
        <g id="Group_3276" data-name="Group 3276" transform="translate(21.443 3.367)">
          <path id="Path_17137" data-name="Path 17137" d="M222.4,304.348h-7.127v-.33a.772.772,0,0,0-.248-.687,2.211,2.211,0,0,0-1.058-.163,2.587,2.587,0,0,0-.978.141.451.451,0,0,0-.327.42c0,.311.224.529.671.653s1.717.367,3.846.727q2.717.457,3.7.7a5.4,5.4,0,0,1,1.668.688,1.3,1.3,0,0,1,.678,1.108q0,1.061-1.834,1.665a21.417,21.417,0,0,1-5.5.747v.746h-3.282v-.771a23.408,23.408,0,0,1-4.992-.611q-2.135-.533-2.135-1.859v-.388h7.127v.486q0,.8.22.995a1.845,1.845,0,0,0,1.068.194,3.193,3.193,0,0,0,1.076-.135c.236-.09.352-.223.352-.4a1.2,1.2,0,0,0-.334-.956,6.73,6.73,0,0,0-2.294-.626q-3.265-.569-4.437-.837a7.465,7.465,0,0,1-2.028-.755q-.857-.486-.856-1.1,0-.889,1.808-1.395a24.611,24.611,0,0,1,5.425-.624v-.634h3.282v.634a20.765,20.765,0,0,1,4.939.617q1.641.5,1.641,1.377A1.586,1.586,0,0,1,222.4,304.348Z" transform="translate(-205.374 -301.347)" fill="#fe0"/>
        </g>
      </g>
      <g id="Group_3281" data-name="Group 3281">
        <path id="Path_17138" data-name="Path 17138" d="M138.848,295.479c0,4.665,13.583,8.446,30.337,8.446s30.337-3.782,30.337-8.446V290.9H138.816Z" transform="translate(-138.816 -282.823)" fill="#754a10"/>
        <path id="Path_17139" data-name="Path 17139" d="M200.825,274.963c0,4.493-13.082,8.135-29.218,8.135s-29.218-3.642-29.218-8.135,13.081-8.136,29.218-8.136S200.825,270.47,200.825,274.963Z" transform="translate(-141.238 -266.508)" fill="#fe9d2b"/>
        <g id="Group_3278" data-name="Group 3278">
          <path id="Path_17140" data-name="Path 17140" d="M169.185,282.748c-16.745,0-30.369-3.794-30.369-8.456s13.624-8.455,30.369-8.455,30.369,3.793,30.369,8.455S185.931,282.748,169.185,282.748Zm0-16.27c-15.477,0-28.068,3.4-28.068,7.572s12.592,7.571,28.068,7.571,28.068-3.4,28.068-7.571S184.662,266.477,169.185,266.477Z" transform="translate(-138.816 -265.837)" fill="#d18324"/>
        </g>
        <ellipse id="Ellipse_88" data-name="Ellipse 88" cx="21.51" cy="5.989" rx="21.51" ry="5.989" transform="translate(8.859 2.466)" fill="#d68625"/>
        <path id="Path_17141" data-name="Path 17141" d="M224.617,276.306c-2.6.726-4.258,1.678-4.256,2.771,0,1.617,2.824,3.325,8.586,3.911a37.849,37.849,0,0,0,13.021-.679,1.9,1.9,0,0,0,.751-1.38c0-2.563-7.461-4.641-16.665-4.641C225.569,276.288,225.091,276.3,224.617,276.306Z" transform="translate(-194.09 -272.921)" fill="#fe0" style="mix-blend-mode: soft-light;isolation: isolate"/>
        <path id="Path_17142" data-name="Path 17142" d="M188.752,283.279c-7.511-1.092-11.733-3.444-11.246-5.78.246-1.178,1.608-2.245,3.843-3.148-8.715.765-15.035,3.033-15.035,5.712,0,3.308,9.63,5.989,21.51,5.989,7.465,0,14.038-1.059,17.9-2.667A64.387,64.387,0,0,1,188.752,283.279Z" transform="translate(-157.456 -271.608)" fill="#e0e1e3" style="mix-blend-mode: multiply;isolation: isolate"/>
        <g id="Group_3279" data-name="Group 3279" transform="translate(23.751 3.552)" style="mix-blend-mode: multiply;isolation: isolate">
          <path id="Path_17143" data-name="Path 17143" d="M229.562,279.862h-7.127v-.33a.774.774,0,0,0-.247-.687,2.221,2.221,0,0,0-1.058-.162,2.61,2.61,0,0,0-.979.14.45.45,0,0,0-.326.42c0,.312.222.529.67.654s1.717.366,3.845.726q2.717.457,3.706.7a5.406,5.406,0,0,1,1.667.687,1.3,1.3,0,0,1,.679,1.108q0,1.061-1.835,1.665a21.4,21.4,0,0,1-5.5.746v.747h-3.282v-.771a23.475,23.475,0,0,1-4.993-.612q-2.133-.532-2.134-1.859v-.388h7.127v.486q0,.8.221.995a1.831,1.831,0,0,0,1.066.195,3.211,3.211,0,0,0,1.077-.135c.236-.091.353-.224.353-.4a1.2,1.2,0,0,0-.335-.956,6.738,6.738,0,0,0-2.293-.625q-3.265-.57-4.437-.839a7.4,7.4,0,0,1-2.028-.753q-.856-.487-.856-1.1,0-.889,1.809-1.395a24.652,24.652,0,0,1,5.424-.624v-.632h3.282v.632a20.809,20.809,0,0,1,4.939.617q1.64.5,1.64,1.378A1.54,1.54,0,0,1,229.562,279.862Z" transform="translate(-212.538 -276.861)" fill="#aeb0b3"/>
        </g>
        <g id="Group_3280" data-name="Group 3280" transform="translate(21.443 3.367)">
          <path id="Path_17144" data-name="Path 17144" d="M222.4,279.29h-7.127v-.33a.771.771,0,0,0-.248-.687,2.218,2.218,0,0,0-1.058-.162,2.606,2.606,0,0,0-.978.139.453.453,0,0,0-.327.42q0,.467.671.653.652.186,3.846.727,2.717.457,3.7.7a5.4,5.4,0,0,1,1.668.687,1.3,1.3,0,0,1,.678,1.107q0,1.062-1.834,1.666a21.422,21.422,0,0,1-5.5.746v.747h-3.282v-.772a23.367,23.367,0,0,1-4.992-.611q-2.135-.533-2.135-1.859v-.388h7.127v.486q0,.8.22.995a1.841,1.841,0,0,0,1.068.194,3.192,3.192,0,0,0,1.076-.136c.236-.09.352-.224.352-.4a1.2,1.2,0,0,0-.334-.956,6.72,6.72,0,0,0-2.294-.627q-3.265-.569-4.437-.837a7.444,7.444,0,0,1-2.028-.754q-.857-.485-.856-1.1,0-.889,1.808-1.395a24.613,24.613,0,0,1,5.425-.624v-.634h3.282v.634a20.79,20.79,0,0,1,4.939.616q1.641.5,1.641,1.378A1.59,1.59,0,0,1,222.4,279.29Z" transform="translate(-205.374 -276.288)" fill="#fe0"/>
        </g>
      </g>
    </g>
  </g>
  <path id="Path_17145" data-name="Path 17145" d="M228.421,82.042,213.6,67.22c-.057.053-.177.156-.288.268q-2.423,2.421-4.844,4.842a2.21,2.21,0,0,1-3.418,0q-6.9-7-13.795-14.017A2.146,2.146,0,0,1,191,57.9l-.262-.038a1.985,1.985,0,0,1-.251.458q-2.929,3.046-5.874,6.077a2.2,2.2,0,0,1-2.968.375,2.774,2.774,0,0,1-.362-.313q-7.238-7.235-14.473-14.473a2.168,2.168,0,0,1-.529-2.493,2.21,2.21,0,0,1,2.1-1.335,2.345,2.345,0,0,1,1.588.748q6.24,6.251,12.49,12.492c.486.486.383.486.874-.019q2.863-2.943,5.717-5.895a2.242,2.242,0,0,1,3.631-.011q6.874,6.976,13.736,13.963c.282.288.432.3.723.008,1.6-1.63,3.219-3.239,4.836-4.851a2.194,2.194,0,0,1,3.409,0q7.806,7.8,15.608,15.6c.118.118.243.23.448.422.012-.26.025-.411.025-.562q0-3.265,0-6.529a2.212,2.212,0,1,1,4.421.013q0,6.269,0,12.537a2.239,2.239,0,0,1-2.373,2.389q-6.289,0-12.578,0a2.21,2.21,0,1,1-.086-4.419c2.363-.008,4.727,0,7.09,0Z" transform="translate(-130.221 -46.153)" fill="#21a35d"/>
</svg>
