<svg width="142" height="141" viewBox="0 0 142 141" fill="none" xmlns="http://www.w3.org/2000/svg">
<path d="M132.7 140.491C137.443 140.491 141.288 140.273 141.288 140.004C141.288 139.735 137.443 139.517 132.7 139.517C127.957 139.517 124.112 139.735 124.112 140.004C124.112 140.273 127.957 140.491 132.7 140.491Z" fill="#231F20"/>
<path d="M59.3689 139.694C73.1109 139.694 84.2509 139.585 84.2509 139.451C84.2509 139.317 73.1109 139.208 59.3689 139.208C45.627 139.208 34.4869 139.317 34.4869 139.451C34.4869 139.585 45.627 139.694 59.3689 139.694Z" fill="#231F20"/>
<path d="M137.397 123.439L114.446 100.487C110.681 105.457 106.283 109.913 101.362 113.742L124.228 136.608C125.977 138.34 128.341 139.309 130.803 139.303C133.265 139.297 135.624 138.317 137.365 136.576C139.106 134.835 140.086 132.476 140.092 130.014C140.098 127.552 139.129 125.188 137.397 123.439V123.439Z" fill="#14475f"/>
<path d="M57.8999 0.000976563C46.462 0.000976562 35.281 3.39276 25.7707 9.74731C16.2605 16.1019 8.84813 25.1339 4.47104 35.7012C0.0939493 46.2684 -1.05127 57.8961 1.18015 69.1143C3.41157 80.3324 8.91942 90.637 17.0072 98.7249C25.095 106.813 35.3995 112.32 46.6176 114.552C57.8358 116.783 69.4637 115.638 80.0309 111.261C90.5981 106.884 99.6301 99.4714 105.985 89.9612C112.339 80.4509 115.731 69.2699 115.731 57.832C115.713 42.4999 109.614 27.8009 98.7724 16.9595C87.931 6.11801 73.2321 0.0192372 57.8999 0.000976563V0.000976563ZM57.8999 97.0391C50.1453 97.0391 42.5648 94.7394 36.117 90.4312C29.6693 86.1229 24.6439 79.9996 21.6764 72.8352C18.7088 65.6708 17.9324 57.7873 19.4453 50.1816C20.9583 42.576 24.6926 35.5897 30.1761 30.1064C35.6595 24.6231 42.6458 20.889 50.2514 19.3762C57.8571 17.8635 65.7406 18.6402 72.9049 21.6079C80.0692 24.5756 86.1925 29.6012 90.5006 36.0491C94.8088 42.4969 97.1081 50.0774 97.1079 57.832C97.0963 68.227 92.9617 78.1927 85.6112 85.543C78.2608 92.8932 68.2949 97.0277 57.8999 97.0391V97.0391Z" fill="#14475f"/>
<path d="M74.3399 31.855C70.8411 29.5007 66.8907 27.9002 62.7399 27.1551C62.0106 27.0234 61.2588 27.1868 60.6499 27.6094C60.0411 28.032 59.6251 28.6791 59.4935 29.4085C59.3618 30.1378 59.5252 30.8897 59.9478 31.4986C60.3704 32.1074 61.0176 32.5234 61.7469 32.6551C65.1385 33.2636 68.3663 34.5714 71.225 36.4952C71.8406 36.8959 72.5893 37.0381 73.309 36.8909C74.0287 36.7437 74.6615 36.3188 75.0704 35.7085C75.4793 35.0982 75.6313 34.3515 75.4937 33.6299C75.3561 32.9083 74.9398 32.27 74.3349 31.8531L74.3399 31.855Z" fill="#14475f"/>
<path d="M49.597 27.6302C42.991 29.3243 37.1371 33.1696 32.959 38.5597C28.7809 43.9497 26.5165 50.5773 26.523 57.3971C26.5368 58.1288 26.8372 58.8259 27.3596 59.3385C27.8819 59.8511 28.5846 60.1383 29.3165 60.1383C30.0483 60.1383 30.751 59.8511 31.2733 59.3385C31.7957 58.8259 32.0962 58.1288 32.11 57.3971C32.1035 51.8175 33.9553 46.3949 37.3732 41.9847C40.791 37.5745 45.5803 34.428 50.985 33.0421C51.3459 32.9562 51.6861 32.7994 51.9857 32.5807C52.2854 32.3619 52.5384 32.0855 52.7301 31.7679C52.9218 31.4503 53.0484 31.0976 53.1024 30.7306C53.1563 30.3635 53.1366 29.9893 53.0444 29.63C52.9523 29.2706 52.7895 28.9331 52.5655 28.6373C52.3415 28.3415 52.0609 28.0935 51.74 27.9073C51.4191 27.7212 51.0643 27.6006 50.6964 27.5531C50.3284 27.5055 49.9547 27.5318 49.597 27.6302Z" fill="#14475f"/>
</svg>
