<svg xmlns="http://www.w3.org/2000/svg" xmlns:xlink="http://www.w3.org/1999/xlink" width="422.42" height="377.932" viewBox="0 0 422.42 377.932">
  <defs>
    <linearGradient id="linear-gradient" x1="-0.564" y1="0.5" x2="1.601" y2="0.5" gradientUnits="objectBoundingBox">
      <stop offset="0" stop-color="#0e3553"/>
      <stop offset="1" stop-color="#9fb4c1"/>
    </linearGradient>
    <filter id="Path_68168" x="258.092" y="220.308" width="154.628" height="157.624" filterUnits="userSpaceOnUse">
      <feOffset dy="3" input="SourceAlpha"/>
      <feGaussianBlur result="blur"/>
      <feFlood flood-opacity="0.102"/>
      <feComposite operator="in" in2="blur"/>
      <feComposite in="SourceGraphic"/>
    </filter>
  </defs>
  <g id="Group_23859" data-name="Group 23859" transform="translate(-277.647 -1129.805)">
    <g id="Group_23854" data-name="Group 23854" transform="translate(278.656 1130.814)">
      <g id="Group_23830" data-name="Group 23830" transform="translate(0 10.198)" opacity="0.1" style="mix-blend-mode: multiply;isolation: isolate">
        <path id="Path_68118" data-name="Path 68118" d="M383.57,1150.95H351.5v55.314" transform="translate(-103.885 -1092.699)" fill="none" stroke="#000" stroke-miterlimit="10" stroke-width="2.018"/>
        <line id="Line_1060" data-name="Line 1060" y1="101.443" transform="translate(210.823 12.123)" fill="none" stroke="#000" stroke-miterlimit="10" stroke-width="2.018"/>
        <path id="Path_68119" data-name="Path 68119" d="M319.959,1147.916h33.634v65.628" transform="translate(-179.559 -1099.979)" fill="none" stroke="#000" stroke-miterlimit="10" stroke-width="2.018"/>
        <circle id="Ellipse_732" data-name="Ellipse 732" cx="12.123" cy="12.123" r="12.123" transform="translate(267.561 46.128)" stroke="#000" stroke-miterlimit="10" stroke-width="2.018"/>
        <circle id="Ellipse_733" data-name="Ellipse 733" cx="12.123" cy="12.123" r="12.123" transform="translate(198.702)" stroke="#000" stroke-miterlimit="10" stroke-width="2.018"/>
        <circle id="Ellipse_734" data-name="Ellipse 734" cx="12.123" cy="12.123" r="12.123" transform="translate(128.277 35.814)" stroke="#000" stroke-miterlimit="10" stroke-width="2.018"/>
        <path id="Path_68120" data-name="Path 68120" d="M295.792,1234.467V1202.4h55.314" transform="translate(-237.541 -969.267)" fill="none" stroke="#000" stroke-miterlimit="10" stroke-width="2.018"/>
        <line id="Line_1061" data-name="Line 1061" x1="101.443" transform="translate(12.123 196.339)" fill="none" stroke="#000" stroke-miterlimit="10" stroke-width="2.018"/>
        <path id="Path_68121" data-name="Path 68121" d="M291.9,1170.856v33.634h68.539" transform="translate(-246.876 -1044.94)" fill="none" stroke="#000" stroke-miterlimit="10" stroke-width="2.018"/>
        <circle id="Ellipse_735" data-name="Ellipse 735" cx="12.123" cy="12.123" r="12.123" transform="translate(46.128 253.077)" stroke="#000" stroke-miterlimit="10" stroke-width="2.018"/>
        <circle id="Ellipse_736" data-name="Ellipse 736" cx="12.123" cy="12.123" r="12.123" transform="translate(0 184.218)" stroke="#000" stroke-miterlimit="10" stroke-width="2.018"/>
        <circle id="Ellipse_737" data-name="Ellipse 737" cx="12.123" cy="12.123" r="12.123" transform="translate(32.903 113.792)" stroke="#000" stroke-miterlimit="10" stroke-width="2.018"/>
        <path id="Path_68122" data-name="Path 68122" d="M371.975,1200.444h42.75l27.9-27.9" transform="translate(-54.754 -1040.895)" fill="none" stroke="#000" stroke-miterlimit="10" stroke-width="2.018"/>
        <circle id="Ellipse_738" data-name="Ellipse 738" cx="12.123" cy="12.123" r="12.123" transform="translate(375.751 119.524)" stroke="#000" stroke-miterlimit="10" stroke-width="2.018"/>
        <line id="Line_1062" data-name="Line 1062" x2="91.057" transform="translate(317.222 196.34)" fill="none" stroke="#000" stroke-miterlimit="10" stroke-width="2.018"/>
        <circle id="Ellipse_739" data-name="Ellipse 739" cx="12.123" cy="12.123" r="12.123" transform="translate(396.156 184.216)" stroke="#000" stroke-miterlimit="10" stroke-width="2.018"/>
        <rect id="Rectangle_4837" data-name="Rectangle 4837" width="14.011" height="104.81" transform="translate(208.377 228.638)"/>
        <path id="Path_68123" data-name="Path 68123" d="M478.776,1231.907H320.882a2.963,2.963,0,0,0-2.961,2.961v11.052H481.734v-11.052A2.96,2.96,0,0,0,478.776,1231.907Z" transform="translate(-184.448 -898.459)"/>
        <rect id="Rectangle_4838" data-name="Rectangle 4838" width="163.805" height="5.372" transform="translate(133.48 335.903)"/>
        <rect id="Rectangle_4839" data-name="Rectangle 4839" width="163.805" height="1.648" transform="translate(133.48 337.767)" opacity="0.2"/>
        <path id="Path_68124" data-name="Path 68124" d="M388.6,1232.085c-.034-.072-.061-.139-.092-.208a5.162,5.162,0,0,0-.51-.887,2.764,2.764,0,0,0-2.193-1.346H337.248a2.746,2.746,0,0,0-2.2,1.346,4.93,4.93,0,0,0-.5.887,1.637,1.637,0,0,0-.1.208,8.261,8.261,0,0,0-.418,1.438c-.024.112-.037.228-.058.336a9,9,0,0,0-.092,1.305v16.528a2.394,2.394,0,0,0,2.08,2.61h51.116a2.4,2.4,0,0,0,2.084-2.61v-16.528a9.551,9.551,0,0,0-.092-1.305A8.365,8.365,0,0,0,388.6,1232.085Z" transform="translate(-146.143 -903.889)"/>
        <path id="Path_68125" data-name="Path 68125" d="M388.6,1230.509c-.034-.072-.061-.139-.092-.208H334.552a1.622,1.622,0,0,0-.1.208,8.258,8.258,0,0,0-.418,1.438c-.024.112-.037.228-.058.336a9,9,0,0,0-.092,1.305v6.524h55.28v-6.524a9.551,9.551,0,0,0-.092-1.305A8.363,8.363,0,0,0,388.6,1230.509Z" transform="translate(-146.143 -902.312)" opacity="0.2"/>
        <path id="Path_68126" data-name="Path 68126" d="M333.978,1230.884a9,9,0,0,0-.092,1.305v2.295h55.28v-2.295a9.553,9.553,0,0,0-.092-1.305Z" transform="translate(-146.143 -900.913)" opacity="0.2"/>
        <rect id="Rectangle_4840" data-name="Rectangle 4840" width="230.686" height="190.542" transform="translate(100.037 98.216)"/>
        <path id="Path_68127" data-name="Path 68127" d="M333.977,1233.133a8.984,8.984,0,0,0-.092,1.3v2.295h55.28v-2.295a9.545,9.545,0,0,0-.092-1.3Z" transform="translate(-146.145 -895.518)" opacity="0.2"/>
        <rect id="Rectangle_4841" data-name="Rectangle 4841" width="253.481" height="60.384" rx="2.091" transform="translate(88.639 88.417)"/>
        <rect id="Rectangle_4842" data-name="Rectangle 4842" width="7.797" height="31.335" transform="translate(238.854 105.537)"/>
        <rect id="Rectangle_4843" data-name="Rectangle 4843" width="7.797" height="31.335" transform="translate(226.114 105.537)"/>
        <rect id="Rectangle_4844" data-name="Rectangle 4844" width="7.797" height="31.335" transform="translate(213.375 105.537)"/>
        <rect id="Rectangle_4845" data-name="Rectangle 4845" width="7.797" height="31.335" transform="translate(200.635 105.537)"/>
        <rect id="Rectangle_4846" data-name="Rectangle 4846" width="7.799" height="31.335" transform="translate(251.593 105.537)"/>
        <rect id="Rectangle_4847" data-name="Rectangle 4847" width="7.799" height="31.335" transform="translate(264.333 105.537)"/>
        <rect id="Rectangle_4848" data-name="Rectangle 4848" width="7.798" height="31.335" transform="translate(277.073 105.537)"/>
        <rect id="Rectangle_4849" data-name="Rectangle 4849" width="7.797" height="31.335" transform="translate(289.813 105.537)"/>
        <rect id="Rectangle_4850" data-name="Rectangle 4850" width="7.794" height="31.335" transform="translate(315.295 105.537)"/>
        <rect id="Rectangle_4851" data-name="Rectangle 4851" width="7.794" height="31.335" transform="translate(302.555 105.537)"/>
        <path id="Path_68128" data-name="Path 68128" d="M314.352,1171.2a1.779,1.779,0,0,1,1.778-1.778H558.212v-2.492a7.107,7.107,0,0,0-7.108-7.108H311.84a7.107,7.107,0,0,0-7.108,7.108V1213.1a7.107,7.107,0,0,0,7.108,7.1h2.512Z" transform="translate(-216.092 -1071.407)"/>
        <path id="Path_68129" data-name="Path 68129" d="M551.1,1164.972a1.96,1.96,0,0,1,1.961,1.962V1213.1a1.965,1.965,0,0,1-1.961,1.964H311.84a1.965,1.965,0,0,1-1.961-1.964v-46.166a1.96,1.96,0,0,1,1.961-1.962H551.1m0-5.147H311.84a7.107,7.107,0,0,0-7.108,7.108V1213.1a7.107,7.107,0,0,0,7.108,7.108H551.1a7.107,7.107,0,0,0,7.108-7.108v-46.166a7.107,7.107,0,0,0-7.108-7.108Z" transform="translate(-216.092 -1071.407)"/>
        <path id="Path_68130" data-name="Path 68130" d="M324.785,1167.087a6.957,6.957,0,1,0,6.958,6.955A6.955,6.955,0,0,0,324.785,1167.087Z" transform="translate(-184.666 -1053.982)"/>
        <path id="Path_68131" data-name="Path 68131" d="M318.7,1167.087a6.957,6.957,0,1,0,6.958,6.955A6.958,6.958,0,0,0,318.7,1167.087Z" transform="translate(-199.268 -1053.982)"/>
        <path id="Path_68132" data-name="Path 68132" d="M330.655,1167.087a6.957,6.957,0,1,0,6.955,6.955A6.956,6.956,0,0,0,330.655,1167.087Z" transform="translate(-170.589 -1053.982)"/>
        <rect id="Rectangle_4852" data-name="Rectangle 4852" width="253.481" height="60.384" rx="2.091" transform="translate(88.639 164.935)"/>
        <rect id="Rectangle_4853" data-name="Rectangle 4853" width="7.797" height="31.335" transform="translate(238.854 182.054)"/>
        <rect id="Rectangle_4854" data-name="Rectangle 4854" width="7.797" height="31.335" transform="translate(226.114 182.054)"/>
        <rect id="Rectangle_4855" data-name="Rectangle 4855" width="7.797" height="31.335" transform="translate(213.375 182.054)"/>
        <rect id="Rectangle_4856" data-name="Rectangle 4856" width="7.797" height="31.335" transform="translate(200.635 182.054)"/>
        <rect id="Rectangle_4857" data-name="Rectangle 4857" width="7.799" height="31.335" transform="translate(251.593 182.054)"/>
        <rect id="Rectangle_4858" data-name="Rectangle 4858" width="7.799" height="31.335" transform="translate(264.333 182.054)"/>
        <rect id="Rectangle_4859" data-name="Rectangle 4859" width="7.798" height="31.335" transform="translate(277.073 182.054)"/>
        <rect id="Rectangle_4860" data-name="Rectangle 4860" width="7.797" height="31.335" transform="translate(289.813 182.054)"/>
        <rect id="Rectangle_4861" data-name="Rectangle 4861" width="7.794" height="31.335" transform="translate(315.295 182.054)"/>
        <rect id="Rectangle_4862" data-name="Rectangle 4862" width="7.794" height="31.335" transform="translate(302.555 182.054)"/>
        <path id="Path_68133" data-name="Path 68133" d="M314.352,1193.709a1.776,1.776,0,0,1,1.778-1.775H558.212v-2.492a7.107,7.107,0,0,0-7.108-7.108H311.84a7.107,7.107,0,0,0-7.108,7.108v46.166a7.107,7.107,0,0,0,7.108,7.108h2.512Z" transform="translate(-216.092 -1017.398)"/>
        <path id="Path_68134" data-name="Path 68134" d="M551.1,1187.478a1.962,1.962,0,0,1,1.961,1.961v46.169a1.962,1.962,0,0,1-1.961,1.962H311.84a1.962,1.962,0,0,1-1.961-1.962V1189.44a1.962,1.962,0,0,1,1.961-1.961H551.1m0-5.143H311.84a7.1,7.1,0,0,0-7.108,7.1v46.169a7.107,7.107,0,0,0,7.108,7.108H551.1a7.107,7.107,0,0,0,7.108-7.108V1189.44a7.1,7.1,0,0,0-7.108-7.1Z" transform="translate(-216.092 -1017.398)"/>
        <path id="Path_68135" data-name="Path 68135" d="M324.785,1189.6a6.957,6.957,0,1,0,6.958,6.951A6.954,6.954,0,0,0,324.785,1189.6Z" transform="translate(-184.666 -999.974)"/>
        <path id="Path_68136" data-name="Path 68136" d="M318.7,1189.6a6.957,6.957,0,1,0,6.958,6.951A6.957,6.957,0,0,0,318.7,1189.6Z" transform="translate(-199.268 -999.974)"/>
        <path id="Path_68137" data-name="Path 68137" d="M330.655,1189.6a6.957,6.957,0,1,0,6.955,6.951A6.955,6.955,0,0,0,330.655,1189.6Z" transform="translate(-170.589 -999.974)"/>
        <rect id="Rectangle_4863" data-name="Rectangle 4863" width="253.481" height="60.384" rx="2.091" transform="translate(88.639 241.452)"/>
        <rect id="Rectangle_4864" data-name="Rectangle 4864" width="7.797" height="31.335" transform="translate(238.854 258.572)"/>
        <rect id="Rectangle_4865" data-name="Rectangle 4865" width="7.797" height="31.335" transform="translate(226.114 258.572)"/>
        <rect id="Rectangle_4866" data-name="Rectangle 4866" width="7.797" height="31.335" transform="translate(213.375 258.572)"/>
        <rect id="Rectangle_4867" data-name="Rectangle 4867" width="7.797" height="31.335" transform="translate(200.635 258.572)"/>
        <rect id="Rectangle_4868" data-name="Rectangle 4868" width="7.799" height="31.335" transform="translate(251.593 258.572)"/>
        <rect id="Rectangle_4869" data-name="Rectangle 4869" width="7.799" height="31.335" transform="translate(264.333 258.572)"/>
        <rect id="Rectangle_4870" data-name="Rectangle 4870" width="7.798" height="31.335" transform="translate(277.073 258.572)"/>
        <rect id="Rectangle_4871" data-name="Rectangle 4871" width="7.797" height="31.335" transform="translate(289.813 258.572)"/>
        <rect id="Rectangle_4872" data-name="Rectangle 4872" width="7.794" height="31.335" transform="translate(315.295 258.572)"/>
        <rect id="Rectangle_4873" data-name="Rectangle 4873" width="7.794" height="31.335" transform="translate(302.555 258.572)"/>
        <path id="Path_68138" data-name="Path 68138" d="M314.352,1216.221a1.779,1.779,0,0,1,1.778-1.778H558.212v-2.491a7.107,7.107,0,0,0-7.108-7.108H311.84a7.107,7.107,0,0,0-7.108,7.108v46.169a7.107,7.107,0,0,0,7.108,7.108h2.512Z" transform="translate(-216.092 -963.392)"/>
        <path id="Path_68139" data-name="Path 68139" d="M551.1,1209.99a1.962,1.962,0,0,1,1.961,1.962v46.166a1.963,1.963,0,0,1-1.961,1.965H311.84a1.963,1.963,0,0,1-1.961-1.965v-46.166a1.962,1.962,0,0,1,1.961-1.962H551.1m0-5.147H311.84a7.107,7.107,0,0,0-7.108,7.108v46.166a7.11,7.11,0,0,0,7.108,7.111H551.1a7.11,7.11,0,0,0,7.108-7.111v-46.166a7.107,7.107,0,0,0-7.108-7.108Z" transform="translate(-216.092 -963.392)"/>
        <path id="Path_68140" data-name="Path 68140" d="M324.785,1212.106a6.958,6.958,0,1,0,6.958,6.955A6.955,6.955,0,0,0,324.785,1212.106Z" transform="translate(-184.666 -945.968)"/>
        <path id="Path_68141" data-name="Path 68141" d="M318.7,1212.106a6.958,6.958,0,1,0,6.958,6.955A6.958,6.958,0,0,0,318.7,1212.106Z" transform="translate(-199.268 -945.968)"/>
        <path id="Path_68142" data-name="Path 68142" d="M330.655,1212.106a6.958,6.958,0,1,0,6.955,6.955A6.955,6.955,0,0,0,330.655,1212.106Z" transform="translate(-170.589 -945.968)"/>
      </g>
      <g id="Group_23853" data-name="Group 23853">
        <g id="Group_23852" data-name="Group 23852">
          <g id="Group_23831" data-name="Group 23831" transform="translate(128.277)">
            <path id="Path_68143" data-name="Path 68143" d="M383.57,1147.95H351.5v55.314" transform="translate(-232.162 -1089.699)" fill="none" stroke="#4c6780" stroke-miterlimit="10" stroke-width="2.018"/>
            <line id="Line_1063" data-name="Line 1063" y1="101.443" transform="translate(82.546 12.123)" fill="none" stroke="#4c6780" stroke-miterlimit="10" stroke-width="2.018"/>
            <path id="Path_68144" data-name="Path 68144" d="M319.959,1144.916h33.634v65.628" transform="translate(-307.836 -1096.979)" fill="none" stroke="#4c6780" stroke-miterlimit="10" stroke-width="2.018"/>
            <circle id="Ellipse_740" data-name="Ellipse 740" cx="12.123" cy="12.123" r="12.123" transform="translate(139.284 46.128)" fill="#fff" stroke="#4c6780" stroke-miterlimit="10" stroke-width="2.018"/>
            <circle id="Ellipse_741" data-name="Ellipse 741" cx="12.123" cy="12.123" r="12.123" transform="translate(70.425)" fill="#fff" stroke="#4c6780" stroke-miterlimit="10" stroke-width="2.018"/>
            <circle id="Ellipse_742" data-name="Ellipse 742" cx="12.123" cy="12.123" r="12.123" transform="translate(0 35.814)" fill="#fff" stroke="#4c6780" stroke-miterlimit="10" stroke-width="2.018"/>
          </g>
          <g id="Group_23832" data-name="Group 23832" transform="translate(0 113.792)">
            <path id="Path_68145" data-name="Path 68145" d="M295.792,1231.466V1199.4h55.314" transform="translate(-237.541 -1080.059)" fill="none" stroke="#4c6780" stroke-miterlimit="10" stroke-width="2.018"/>
            <line id="Line_1064" data-name="Line 1064" x1="101.443" transform="translate(12.123 82.546)" fill="none" stroke="#4c6780" stroke-miterlimit="10" stroke-width="2.018"/>
            <path id="Path_68146" data-name="Path 68146" d="M291.9,1167.855v33.634h68.539" transform="translate(-246.876 -1155.732)" fill="none" stroke="#4c6780" stroke-miterlimit="10" stroke-width="2.018"/>
            <circle id="Ellipse_743" data-name="Ellipse 743" cx="12.123" cy="12.123" r="12.123" transform="translate(46.128 139.284)" fill="#fff" stroke="#4c6780" stroke-miterlimit="10" stroke-width="2.018"/>
            <circle id="Ellipse_744" data-name="Ellipse 744" cx="12.123" cy="12.123" r="12.123" transform="translate(0 70.425)" fill="#fff" stroke="#4c6780" stroke-miterlimit="10" stroke-width="2.018"/>
            <circle id="Ellipse_745" data-name="Ellipse 745" cx="12.123" cy="12.123" r="12.123" transform="translate(32.903)" fill="#fff" stroke="#4c6780" stroke-miterlimit="10" stroke-width="2.018"/>
          </g>
          <g id="Group_23833" data-name="Group 23833" transform="translate(317.222 119.524)">
            <path id="Path_68147" data-name="Path 68147" d="M371.975,1197.444h42.75l27.9-27.9" transform="translate(-371.975 -1157.419)" fill="none" stroke="#4c6780" stroke-miterlimit="10" stroke-width="2.018"/>
            <circle id="Ellipse_746" data-name="Ellipse 746" cx="12.123" cy="12.123" r="12.123" transform="translate(58.529)" fill="#fff" stroke="#4c6780" stroke-miterlimit="10" stroke-width="2.018"/>
            <line id="Line_1065" data-name="Line 1065" x2="91.057" transform="translate(0 76.816)" fill="none" stroke="#4c6780" stroke-miterlimit="10" stroke-width="2.018"/>
            <circle id="Ellipse_747" data-name="Ellipse 747" cx="12.123" cy="12.123" r="12.123" transform="translate(78.934 64.692)" fill="#fff" stroke="#4c6780" stroke-miterlimit="10" stroke-width="2.018"/>
          </g>
          <g id="Group_23851" data-name="Group 23851" transform="translate(88.639 88.417)">
            <g id="Group_23837" data-name="Group 23837" transform="translate(44.834 140.221)">
              <g id="Group_23834" data-name="Group 23834" transform="translate(74.903)">
                <rect id="Rectangle_4874" data-name="Rectangle 4874" width="14.011" height="104.81" fill="#293846"/>
              </g>
              <g id="Group_23835" data-name="Group 23835" transform="translate(0 104.809)">
                <path id="Path_68148" data-name="Path 68148" d="M478.776,1228.907H320.882a2.963,2.963,0,0,0-2.961,2.961v11.052H481.734v-11.052A2.96,2.96,0,0,0,478.776,1228.907Z" transform="translate(-317.921 -1228.907)" fill="#293846"/>
              </g>
              <rect id="Rectangle_4875" data-name="Rectangle 4875" width="163.805" height="5.372" transform="translate(0.007 107.265)" fill="#384d5f"/>
              <rect id="Rectangle_4876" data-name="Rectangle 4876" width="163.805" height="1.648" transform="translate(0.007 109.128)" fill="#fff" opacity="0.2"/>
              <g id="Group_23836" data-name="Group 23836" transform="translate(54.27 97.117)">
                <path id="Path_68149" data-name="Path 68149" d="M388.6,1229.085c-.034-.072-.061-.139-.092-.208a5.158,5.158,0,0,0-.51-.887,2.763,2.763,0,0,0-2.193-1.346H337.248a2.745,2.745,0,0,0-2.2,1.346,4.926,4.926,0,0,0-.5.887,1.629,1.629,0,0,0-.1.208,8.261,8.261,0,0,0-.418,1.438c-.024.112-.037.228-.058.337a8.989,8.989,0,0,0-.092,1.3v16.528a2.394,2.394,0,0,0,2.08,2.61h51.116a2.4,2.4,0,0,0,2.084-2.61v-16.528a9.539,9.539,0,0,0-.092-1.3A8.367,8.367,0,0,0,388.6,1229.085Z" transform="translate(-333.886 -1226.644)" fill="#293846"/>
              </g>
              <path id="Path_68150" data-name="Path 68150" d="M388.6,1227.508c-.034-.072-.061-.139-.092-.208H334.552a1.637,1.637,0,0,0-.1.208,8.261,8.261,0,0,0-.418,1.438c-.024.112-.037.228-.058.337a8.993,8.993,0,0,0-.092,1.3v6.524h55.28v-6.524a9.544,9.544,0,0,0-.092-1.3A8.368,8.368,0,0,0,388.6,1227.508Z" transform="translate(-279.616 -1127.951)" fill="#384d5f" opacity="0.2"/>
              <path id="Path_68151" data-name="Path 68151" d="M333.978,1227.884a9,9,0,0,0-.092,1.3v2.295h55.28v-2.295a9.545,9.545,0,0,0-.092-1.3Z" transform="translate(-279.616 -1126.552)" fill="#fff" opacity="0.2"/>
            </g>
            <g id="Group_23838" data-name="Group 23838" transform="translate(11.398 9.798)">
              <rect id="Rectangle_4877" data-name="Rectangle 4877" width="230.686" height="190.542" fill="#293846"/>
            </g>
            <path id="Path_68152" data-name="Path 68152" d="M333.977,1230.133a8.988,8.988,0,0,0-.092,1.3v2.295h55.28v-2.295a9.544,9.544,0,0,0-.092-1.3Z" transform="translate(-234.784 -980.935)" fill="#384d5f" opacity="0.2"/>
            <g id="Group_23842" data-name="Group 23842">
              <rect id="Rectangle_4878" data-name="Rectangle 4878" width="253.481" height="60.384" rx="2.091" fill="#364d5c"/>
              <g id="Group_23840" data-name="Group 23840" transform="translate(111.996 17.119)">
                <g id="Group_23839" data-name="Group 23839">
                  <rect id="Rectangle_4879" data-name="Rectangle 4879" width="7.797" height="31.335" transform="translate(38.219)" fill="#1b252e"/>
                  <rect id="Rectangle_4880" data-name="Rectangle 4880" width="7.797" height="31.335" transform="translate(25.48)" fill="#1b252e"/>
                  <rect id="Rectangle_4881" data-name="Rectangle 4881" width="7.797" height="31.335" transform="translate(12.74)" fill="#1b252e"/>
                  <rect id="Rectangle_4882" data-name="Rectangle 4882" width="7.797" height="31.335" fill="#1b252e"/>
                  <rect id="Rectangle_4883" data-name="Rectangle 4883" width="7.799" height="31.335" transform="translate(50.958)" fill="#1b252e"/>
                  <rect id="Rectangle_4884" data-name="Rectangle 4884" width="7.799" height="31.335" transform="translate(63.698)" fill="#1b252e"/>
                  <rect id="Rectangle_4885" data-name="Rectangle 4885" width="7.798" height="31.335" transform="translate(76.438)" fill="#1b252e"/>
                  <rect id="Rectangle_4886" data-name="Rectangle 4886" width="7.797" height="31.335" transform="translate(89.179)" fill="#1b252e"/>
                  <rect id="Rectangle_4887" data-name="Rectangle 4887" width="7.794" height="31.335" transform="translate(114.66)" fill="#1b252e"/>
                  <rect id="Rectangle_4888" data-name="Rectangle 4888" width="7.794" height="31.335" transform="translate(101.92)" fill="#1b252e"/>
                </g>
              </g>
              <path id="Path_68153" data-name="Path 68153" d="M314.352,1168.2a1.779,1.779,0,0,1,1.778-1.777H558.212v-2.492a7.107,7.107,0,0,0-7.108-7.108H311.84a7.107,7.107,0,0,0-7.108,7.108v46.17a7.107,7.107,0,0,0,7.108,7.1h2.512Z" transform="translate(-304.731 -1156.824)" fill="#304556"/>
              <path id="Path_68154" data-name="Path 68154" d="M551.1,1161.971a1.96,1.96,0,0,1,1.961,1.962V1210.1a1.965,1.965,0,0,1-1.961,1.965H311.84a1.965,1.965,0,0,1-1.961-1.965v-46.166a1.96,1.96,0,0,1,1.961-1.962H551.1m0-5.146H311.84a7.107,7.107,0,0,0-7.108,7.108V1210.1a7.107,7.107,0,0,0,7.108,7.108H551.1a7.107,7.107,0,0,0,7.108-7.108v-46.166a7.107,7.107,0,0,0-7.108-7.108Z" transform="translate(-304.731 -1156.824)" fill="url(#linear-gradient)"/>
              <g id="Group_23841" data-name="Group 23841" transform="translate(23.837 24.687)">
                <path id="Path_68155" data-name="Path 68155" d="M324.785,1164.087a6.957,6.957,0,1,0,6.958,6.955A6.955,6.955,0,0,0,324.785,1164.087Z" transform="translate(-297.142 -1164.087)" fill="#ddceab"/>
                <path id="Path_68156" data-name="Path 68156" d="M318.7,1164.087a6.957,6.957,0,1,0,6.958,6.955A6.958,6.958,0,0,0,318.7,1164.087Z" transform="translate(-311.744 -1164.087)" fill="#f18d4f"/>
                <path id="Path_68157" data-name="Path 68157" d="M330.655,1164.087a6.957,6.957,0,1,0,6.955,6.955A6.956,6.956,0,0,0,330.655,1164.087Z" transform="translate(-283.065 -1164.087)" fill="#d07a44"/>
              </g>
            </g>
            <g id="Group_23846" data-name="Group 23846" transform="translate(0 76.517)">
              <rect id="Rectangle_4889" data-name="Rectangle 4889" width="253.481" height="60.384" rx="2.091" fill="#364d5c"/>
              <g id="Group_23844" data-name="Group 23844" transform="translate(111.996 17.119)">
                <g id="Group_23843" data-name="Group 23843">
                  <rect id="Rectangle_4890" data-name="Rectangle 4890" width="7.797" height="31.335" transform="translate(38.219)" fill="#1b252e"/>
                  <rect id="Rectangle_4891" data-name="Rectangle 4891" width="7.797" height="31.335" transform="translate(25.48)" fill="#1b252e"/>
                  <rect id="Rectangle_4892" data-name="Rectangle 4892" width="7.797" height="31.335" transform="translate(12.74)" fill="#1b252e"/>
                  <rect id="Rectangle_4893" data-name="Rectangle 4893" width="7.797" height="31.335" fill="#1b252e"/>
                  <rect id="Rectangle_4894" data-name="Rectangle 4894" width="7.799" height="31.335" transform="translate(50.958)" fill="#1b252e"/>
                  <rect id="Rectangle_4895" data-name="Rectangle 4895" width="7.799" height="31.335" transform="translate(63.698)" fill="#1b252e"/>
                  <rect id="Rectangle_4896" data-name="Rectangle 4896" width="7.798" height="31.335" transform="translate(76.438)" fill="#1b252e"/>
                  <rect id="Rectangle_4897" data-name="Rectangle 4897" width="7.797" height="31.335" transform="translate(89.179)" fill="#1b252e"/>
                  <rect id="Rectangle_4898" data-name="Rectangle 4898" width="7.794" height="31.335" transform="translate(114.66)" fill="#1b252e"/>
                  <rect id="Rectangle_4899" data-name="Rectangle 4899" width="7.794" height="31.335" transform="translate(101.92)" fill="#1b252e"/>
                </g>
              </g>
              <path id="Path_68158" data-name="Path 68158" d="M314.352,1190.709a1.776,1.776,0,0,1,1.778-1.775H558.212v-2.492a7.107,7.107,0,0,0-7.108-7.108H311.84a7.107,7.107,0,0,0-7.108,7.108v46.166a7.107,7.107,0,0,0,7.108,7.108h2.512Z" transform="translate(-304.731 -1179.333)" fill="#304556"/>
              <path id="Path_68159" data-name="Path 68159" d="M551.1,1184.478a1.962,1.962,0,0,1,1.961,1.961v46.17a1.962,1.962,0,0,1-1.961,1.961H311.84a1.962,1.962,0,0,1-1.961-1.961v-46.17a1.962,1.962,0,0,1,1.961-1.961H551.1m0-5.143H311.84a7.1,7.1,0,0,0-7.108,7.1v46.17a7.107,7.107,0,0,0,7.108,7.108H551.1a7.107,7.107,0,0,0,7.108-7.108v-46.17a7.1,7.1,0,0,0-7.108-7.1Z" transform="translate(-304.731 -1179.333)" fill="url(#linear-gradient)"/>
              <g id="Group_23845" data-name="Group 23845" transform="translate(23.837 24.688)">
                <path id="Path_68160" data-name="Path 68160" d="M324.785,1186.6a6.957,6.957,0,1,0,6.958,6.952A6.954,6.954,0,0,0,324.785,1186.6Z" transform="translate(-297.142 -1186.597)" fill="#ddceab"/>
                <path id="Path_68161" data-name="Path 68161" d="M318.7,1186.6a6.957,6.957,0,1,0,6.958,6.952A6.957,6.957,0,0,0,318.7,1186.6Z" transform="translate(-311.744 -1186.597)" fill="#f18d4f"/>
                <path id="Path_68162" data-name="Path 68162" d="M330.655,1186.6a6.957,6.957,0,1,0,6.955,6.952A6.955,6.955,0,0,0,330.655,1186.6Z" transform="translate(-283.065 -1186.597)" fill="#d07a44"/>
              </g>
            </g>
            <g id="Group_23850" data-name="Group 23850" transform="translate(0 153.035)">
              <rect id="Rectangle_4900" data-name="Rectangle 4900" width="253.481" height="60.384" rx="2.091" fill="#364d5c"/>
              <g id="Group_23848" data-name="Group 23848" transform="translate(111.996 17.119)">
                <g id="Group_23847" data-name="Group 23847">
                  <rect id="Rectangle_4901" data-name="Rectangle 4901" width="7.797" height="31.335" transform="translate(38.219)" fill="#1b252e"/>
                  <rect id="Rectangle_4902" data-name="Rectangle 4902" width="7.797" height="31.335" transform="translate(25.48)" fill="#1b252e"/>
                  <rect id="Rectangle_4903" data-name="Rectangle 4903" width="7.797" height="31.335" transform="translate(12.74)" fill="#1b252e"/>
                  <rect id="Rectangle_4904" data-name="Rectangle 4904" width="7.797" height="31.335" fill="#1b252e"/>
                  <rect id="Rectangle_4905" data-name="Rectangle 4905" width="7.799" height="31.335" transform="translate(50.958)" fill="#1b252e"/>
                  <rect id="Rectangle_4906" data-name="Rectangle 4906" width="7.799" height="31.335" transform="translate(63.698)" fill="#1b252e"/>
                  <rect id="Rectangle_4907" data-name="Rectangle 4907" width="7.798" height="31.335" transform="translate(76.438)" fill="#1b252e"/>
                  <rect id="Rectangle_4908" data-name="Rectangle 4908" width="7.797" height="31.335" transform="translate(89.179)" fill="#1b252e"/>
                  <rect id="Rectangle_4909" data-name="Rectangle 4909" width="7.794" height="31.335" transform="translate(114.66)" fill="#1b252e"/>
                  <rect id="Rectangle_4910" data-name="Rectangle 4910" width="7.794" height="31.335" transform="translate(101.92)" fill="#1b252e"/>
                </g>
              </g>
              <path id="Path_68163" data-name="Path 68163" d="M314.352,1213.222a1.779,1.779,0,0,1,1.778-1.778H558.212v-2.492a7.107,7.107,0,0,0-7.108-7.108H311.84a7.108,7.108,0,0,0-7.108,7.108v46.169a7.107,7.107,0,0,0,7.108,7.108h2.512Z" transform="translate(-304.731 -1201.844)" fill="#304556"/>
              <path id="Path_68164" data-name="Path 68164" d="M551.1,1206.991a1.962,1.962,0,0,1,1.961,1.961v46.166a1.963,1.963,0,0,1-1.961,1.965H311.84a1.963,1.963,0,0,1-1.961-1.965v-46.166a1.962,1.962,0,0,1,1.961-1.961H551.1m0-5.147H311.84a7.108,7.108,0,0,0-7.108,7.108v46.166a7.11,7.11,0,0,0,7.108,7.111H551.1a7.11,7.11,0,0,0,7.108-7.111v-46.166a7.107,7.107,0,0,0-7.108-7.108Z" transform="translate(-304.731 -1201.844)" fill="url(#linear-gradient)"/>
              <g id="Group_23849" data-name="Group 23849" transform="translate(23.837 24.686)">
                <path id="Path_68165" data-name="Path 68165" d="M324.785,1209.106a6.958,6.958,0,1,0,6.958,6.955A6.955,6.955,0,0,0,324.785,1209.106Z" transform="translate(-297.142 -1209.106)" fill="#ddceab"/>
                <path id="Path_68166" data-name="Path 68166" d="M318.7,1209.106a6.958,6.958,0,1,0,6.958,6.955A6.958,6.958,0,0,0,318.7,1209.106Z" transform="translate(-311.744 -1209.106)" fill="#f18d4f"/>
                <path id="Path_68167" data-name="Path 68167" d="M330.655,1209.106a6.958,6.958,0,1,0,6.955,6.955A6.956,6.956,0,0,0,330.655,1209.106Z" transform="translate(-283.065 -1209.106)" fill="#d07a44"/>
              </g>
            </g>
          </g>
        </g>
      </g>
    </g>
    <g id="Group_23858" data-name="Group 23858" transform="translate(535.739 1350.113)">
      <g transform="matrix(1, 0, 0, 1, -258.09, -220.31)" filter="url(#Path_68168)">
        <g id="Path_68168-2" data-name="Path 68168" transform="translate(-96.19 -975.02)" fill="#fff" stroke-miterlimit="10">
          <path d="M 431.5980834960938 1348.238403320312 C 421.3921203613281 1348.238403320312 411.4920349121094 1346.23974609375 402.1727905273438 1342.297973632812 C 397.6935424804688 1340.4033203125 393.3731384277344 1338.058227539062 389.33154296875 1335.327880859375 C 385.327880859375 1332.623046875 381.5629272460938 1329.516723632812 378.1412658691406 1326.09521484375 C 374.7195739746094 1322.673583984375 371.6131286621094 1318.908813476562 368.908203125 1314.905151367188 C 366.1776123046875 1310.863647460938 363.8323669433594 1306.543212890625 361.9376525878906 1302.063842773438 C 357.9955139160156 1292.744384765625 355.9966735839844 1282.843872070312 355.9966735839844 1272.63720703125 C 355.9966735839844 1262.4306640625 357.9955139160156 1252.530395507812 361.9376220703125 1243.21142578125 C 363.8323669433594 1238.732299804688 366.1775817871094 1234.412109375 368.908203125 1230.370727539062 C 371.6130981445312 1226.367431640625 374.7195434570312 1222.602783203125 378.1412353515625 1219.181396484375 C 381.5628662109375 1215.760131835938 385.3278198242188 1212.654052734375 389.3314819335938 1209.949462890625 C 393.3730773925781 1207.21923828125 397.6934814453125 1204.874267578125 402.1727600097656 1202.979858398438 C 411.491943359375 1199.038330078125 421.3920593261719 1197.039916992188 431.5980834960938 1197.039916992188 C 441.8048400878906 1197.039916992188 451.7053833007812 1199.038330078125 461.0246887207031 1202.979858398438 C 465.5039978027344 1204.874267578125 469.8244323730469 1207.21923828125 473.865966796875 1209.949340820312 C 477.8695678710938 1212.653930664062 481.6344299316406 1215.760131835938 485.0559692382812 1219.181396484375 C 488.4775390625 1222.602661132812 491.5838317871094 1226.367309570312 494.2886047363281 1230.370727539062 C 497.01904296875 1234.411987304688 499.3641357421875 1238.732177734375 501.2587585449219 1243.211303710938 C 505.2005615234375 1252.5302734375 507.1992492675781 1262.430541992188 507.1992492675781 1272.63720703125 C 507.1992492675781 1282.843994140625 505.2005615234375 1292.744506835938 501.2587280273438 1302.06396484375 C 499.3641357421875 1306.543212890625 497.0190124511719 1310.863647460938 494.28857421875 1314.9052734375 C 491.5838012695312 1318.908813476562 488.4774780273438 1322.673706054688 485.055908203125 1326.09521484375 C 481.6343688964844 1329.516723632812 477.8695068359375 1332.623046875 473.8659057617188 1335.327880859375 C 469.8243713378906 1338.058227539062 465.5039367675781 1340.4033203125 461.024658203125 1342.297973632812 C 451.7052917480469 1346.23974609375 441.8047485351562 1348.238403320312 431.5980834960938 1348.238403320312 Z" stroke="none"/>
          <path d="M 431.5980834960938 1198.752563476562 C 421.6224975585938 1198.752563476562 411.9468383789062 1200.70556640625 402.8399047851562 1204.557250976562 C 398.4624938964844 1206.40869140625 394.2401428222656 1208.700317382812 390.2902221679688 1211.36865234375 C 386.3768920898438 1214.01220703125 382.6968078613281 1217.04833984375 379.3522338867188 1220.392578125 C 376.0076293945312 1223.73681640625 372.9712219238281 1227.416625976562 370.3273315429688 1231.32958984375 C 367.6586608886719 1235.279296875 365.3666687011719 1239.50146484375 363.5150451660156 1243.878662109375 C 359.6627197265625 1252.985473632812 357.7094116210938 1262.661254882812 357.7094116210938 1272.63720703125 C 357.7094116210938 1282.613403320312 359.6627197265625 1292.289428710938 363.5150451660156 1301.396606445312 C 365.36669921875 1305.774047851562 367.6587219238281 1309.996459960938 370.327392578125 1313.946411132812 C 372.9712829589844 1317.859619140625 376.0077209472656 1321.53955078125 379.3523254394531 1324.884033203125 C 382.6968994140625 1328.228515625 386.3769836425781 1331.264892578125 390.2903137207031 1333.90869140625 C 394.2402648925781 1336.5771484375 398.4625854492188 1338.869018554688 402.8399963378906 1340.720581054688 C 411.9469604492188 1344.572509765625 421.62255859375 1346.525634765625 431.5980834960938 1346.525634765625 C 441.5742797851562 1346.525634765625 451.2503356933594 1344.572509765625 460.357421875 1340.720581054688 C 464.73486328125 1338.869018554688 468.9572143554688 1336.5771484375 472.9071044921875 1333.90869140625 C 476.8203735351562 1331.264892578125 480.5003356933594 1328.228637695312 483.8448181152344 1324.884155273438 C 487.1893310546875 1321.539672851562 490.2255859375 1317.859619140625 492.869384765625 1313.946411132812 C 495.5379028320312 1309.996459960938 497.8297729492188 1305.774169921875 499.6813354492188 1301.396728515625 C 503.5333557128906 1292.28955078125 505.4865112304688 1282.613525390625 505.4865112304688 1272.63720703125 C 505.4865112304688 1262.6611328125 503.5333862304688 1252.985229492188 499.6813354492188 1243.878540039062 C 497.8298034667969 1239.501342773438 495.5379638671875 1235.279174804688 492.8694458007812 1231.329467773438 C 490.2256774902344 1227.41650390625 487.1893920898438 1223.736694335938 483.8449096679688 1220.392456054688 C 480.5004577636719 1217.048217773438 476.8204956054688 1214.01220703125 472.9072265625 1211.36865234375 C 468.9573059082031 1208.700317382812 464.7349853515625 1206.40869140625 460.3575134277344 1204.557250976562 C 451.2504577636719 1200.70556640625 441.5743713378906 1198.752563476562 431.5980834960938 1198.752563476562 M 431.5980834960938 1195.3271484375 C 474.2966918945312 1195.3271484375 508.9119873046875 1229.938720703125 508.9119873046875 1272.63720703125 C 508.9119873046875 1315.336181640625 474.2966918945312 1349.951171875 431.5980834960938 1349.951171875 C 388.9025573730469 1349.951171875 354.283935546875 1315.336181640625 354.283935546875 1272.63720703125 C 354.283935546875 1229.938720703125 388.9025573730469 1195.3271484375 431.5980834960938 1195.3271484375 Z" stroke="none" fill="#14475f"/>
        </g>
      </g>
      <g id="Group_23857" data-name="Group 23857" transform="translate(47.223 31.304)">
        <rect id="Rectangle_4911" data-name="Rectangle 4911" width="60.185" height="42.127" rx="0.905" transform="translate(0 28.88)" fill="#fdb700"/>
        <rect id="Rectangle_4912" data-name="Rectangle 4912" width="42.127" height="42.127" transform="translate(9.029 28.88)" fill="#fc0"/>
        <g id="Group_23855" data-name="Group 23855" transform="translate(24.455 40.812)">
          <path id="Path_68169" data-name="Path 68169" d="M386.642,1222.178a5.636,5.636,0,1,1-5.636-5.636A5.637,5.637,0,0,1,386.642,1222.178Z" transform="translate(-375.37 -1216.542)" fill="#4f280b"/>
          <rect id="Rectangle_4913" data-name="Rectangle 4913" width="4.704" height="8.085" transform="translate(3.283 10.178)" fill="#4f280b"/>
        </g>
        <path id="Path_68170" data-name="Path 68170" d="M412.96,1233.416h-7.825V1225.6a13.24,13.24,0,0,0-26.481,0v7.818h-7.822V1225.6a21.064,21.064,0,0,1,42.128,0Z" transform="translate(-361.803 -1204.536)" fill="#14475f"/>
        <g id="Group_23856" data-name="Group 23856" transform="translate(0 71.007)">
          <rect id="Rectangle_4914" data-name="Rectangle 4914" width="4.704" height="8.823" transform="translate(27.738)" fill="#14475f"/>
          <rect id="Rectangle_4915" data-name="Rectangle 4915" width="25.071" height="4.704" transform="translate(0 11.491)" fill="#14475f"/>
          <rect id="Rectangle_4916" data-name="Rectangle 4916" width="25.075" height="4.704" transform="translate(35.11 11.491)" fill="#14475f"/>
          <path id="Path_68171" data-name="Path 68171" d="M382.088,1241.723a7.168,7.168,0,1,1,7.166-7.166A7.174,7.174,0,0,1,382.088,1241.723Zm0-9.627a2.461,2.461,0,1,0,2.461,2.461A2.466,2.466,0,0,0,382.088,1232.1Z" transform="translate(-351.997 -1220.714)" fill="#14475f"/>
        </g>
      </g>
    </g>
  </g>
</svg>
