<svg xmlns="http://www.w3.org/2000/svg" width="333.244" height="343.24" viewBox="0 0 333.244 343.24">
  <g id="Group_23829" data-name="Group 23829" transform="translate(-1008.333 -1135.814)">
    <g id="Group_23821" data-name="Group 23821" transform="translate(1008.333 1145.812)" opacity="0.1" style="mix-blend-mode: multiply;isolation: isolate">
      <circle id="Ellipse_730" data-name="Ellipse 730" cx="112.454" cy="112.454" r="112.454" transform="translate(54.161 54.167)"/>
      <path id="Path_68092" data-name="Path 68092" d="M1084.948,1138.814H1059.71l-7.381,36.782h40Z" transform="translate(-905.715 -1138.814)"/>
      <path id="Path_68093" data-name="Path 68093" d="M1051.948,1143.609l-21.894,12.634,11.988,35.6,34.67-20.078Z" transform="translate(-957.669 -1127.631)"/>
      <path id="Path_68094" data-name="Path 68094" d="M1025.761,1160.53l-12.619,21.862,28.156,24.78,20.031-34.654Z" transform="translate(-997.116 -1088.163)"/>
      <path id="Path_68095" data-name="Path 68095" d="M1008.333,1190.18l.016,25.253,36.784,7.383v-40Z" transform="translate(-1008.333 -1036.186)"/>
      <path id="Path_68096" data-name="Path 68096" d="M1013.142,1227.865l12.619,21.863,35.568-11.988L1041.3,1203.1Z" transform="translate(-997.116 -988.869)"/>
      <path id="Path_68097" data-name="Path 68097" d="M1030.054,1255.129l21.894,12.6,24.764-28.124-34.67-20.064Z" transform="translate(-957.669 -950.516)"/>
      <path id="Path_68098" data-name="Path 68098" d="M1059.71,1264.559h25.237l7.383-36.783h-40Z" transform="translate(-905.715 -931.317)"/>
      <path id="Path_68099" data-name="Path 68099" d="M1097.4,1267.732l21.878-12.6-12-35.584-34.655,20.064Z" transform="translate(-858.398 -950.516)"/>
      <path id="Path_68100" data-name="Path 68100" d="M1124.61,1249.729l12.636-21.863-28.156-24.764-20.016,34.639Z" transform="translate(-820.011 -988.869)"/>
      <path id="Path_68101" data-name="Path 68101" d="M1134.079,1215.434V1190.18l-36.784-7.365v40Z" transform="translate(-800.835 -1036.186)"/>
      <path id="Path_68102" data-name="Path 68102" d="M1137.245,1182.369l-12.636-21.829-35.536,11.956,20.016,34.654Z" transform="translate(-820.011 -1088.141)"/>
      <path id="Path_68103" data-name="Path 68103" d="M1119.274,1156.208l-21.925-12.585-24.733,28.107,34.655,20.078Z" transform="translate(-858.398 -1127.597)"/>
      <path id="Path_68104" data-name="Path 68104" d="M1150.273,1149.4a131.338,131.338,0,1,0,131.391,131.348A131.339,131.339,0,0,0,1150.273,1149.4Zm0,231.317a99.971,99.971,0,1,1,99.986-99.969A99.975,99.975,0,0,1,1150.273,1380.719Z" transform="translate(-983.658 -1114.119)"/>
      <rect id="Rectangle_4817" data-name="Rectangle 4817" width="17.015" height="37.848" transform="translate(104.838 141.217)"/>
      <rect id="Rectangle_4818" data-name="Rectangle 4818" width="17.015" height="37.848" transform="translate(211.376 141.217)"/>
      <rect id="Rectangle_4819" data-name="Rectangle 4819" width="17.015" height="54.654" transform="translate(131.473 124.411)"/>
      <rect id="Rectangle_4820" data-name="Rectangle 4820" width="17.015" height="45.722" transform="translate(184.742 133.343)"/>
      <rect id="Rectangle_4821" data-name="Rectangle 4821" width="17.015" height="64.258" transform="translate(158.108 114.807)"/>
      <rect id="Rectangle_4822" data-name="Rectangle 4822" width="17.015" height="18.094" transform="translate(104.838 186.401)"/>
      <rect id="Rectangle_4823" data-name="Rectangle 4823" width="17.015" height="18.094" transform="translate(211.376 186.401)"/>
      <rect id="Rectangle_4824" data-name="Rectangle 4824" width="17.015" height="26.129" transform="translate(131.473 186.401)"/>
      <rect id="Rectangle_4825" data-name="Rectangle 4825" width="17.015" height="21.859" transform="translate(184.742 186.401)"/>
      <rect id="Rectangle_4826" data-name="Rectangle 4826" width="17.015" height="30.721" transform="translate(158.108 186.401)"/>
    </g>
    <g id="Group_23828" data-name="Group 23828" transform="translate(1008.333 1135.814)">
      <g id="Group_23827" data-name="Group 23827">
        <g id="Group_23823" data-name="Group 23823">
          <circle id="Ellipse_731" data-name="Ellipse 731" cx="112.454" cy="112.454" r="112.454" transform="translate(54.161 54.167)" fill="#fff"/>
          <g id="Group_23822" data-name="Group 23822">
            <path id="Path_68105" data-name="Path 68105" d="M1084.948,1135.814H1059.71l-7.381,36.782h40Z" transform="translate(-905.715 -1135.814)" fill="#14475f"/>
            <path id="Path_68106" data-name="Path 68106" d="M1051.948,1140.609l-21.894,12.634,11.988,35.6,34.67-20.078Z" transform="translate(-957.669 -1124.631)" fill="#14475f"/>
            <path id="Path_68107" data-name="Path 68107" d="M1025.761,1157.53l-12.619,21.862,28.156,24.78,20.031-34.654Z" transform="translate(-997.116 -1085.163)" fill="#14475f"/>
            <path id="Path_68108" data-name="Path 68108" d="M1008.333,1187.18l.016,25.253,36.784,7.383v-40Z" transform="translate(-1008.333 -1033.186)" fill="#14475f"/>
            <path id="Path_68109" data-name="Path 68109" d="M1013.142,1224.865l12.619,21.863,35.568-11.988L1041.3,1200.1Z" transform="translate(-997.116 -985.869)" fill="#14475f"/>
            <path id="Path_68110" data-name="Path 68110" d="M1030.054,1252.129l21.894,12.6,24.764-28.124-34.67-20.064Z" transform="translate(-957.669 -947.516)" fill="#14475f"/>
            <path id="Path_68111" data-name="Path 68111" d="M1059.71,1261.559h25.237l7.383-36.783h-40Z" transform="translate(-905.715 -928.317)" fill="#14475f"/>
            <path id="Path_68112" data-name="Path 68112" d="M1097.4,1264.733l21.878-12.6-12-35.584-34.655,20.064Z" transform="translate(-858.398 -947.516)" fill="#14475f"/>
            <path id="Path_68113" data-name="Path 68113" d="M1124.61,1246.729l12.636-21.863-28.156-24.764-20.016,34.639Z" transform="translate(-820.011 -985.869)" fill="#14475f"/>
            <path id="Path_68114" data-name="Path 68114" d="M1134.079,1212.434V1187.18l-36.784-7.365v40Z" transform="translate(-800.835 -1033.186)" fill="#14475f"/>
            <path id="Path_68115" data-name="Path 68115" d="M1137.245,1179.369l-12.636-21.829-35.536,11.956,20.016,34.654Z" transform="translate(-820.011 -1085.141)" fill="#14475f"/>
            <path id="Path_68116" data-name="Path 68116" d="M1119.274,1153.208l-21.925-12.585-24.733,28.107,34.655,20.078Z" transform="translate(-858.398 -1124.597)" fill="#14475f"/>
          </g>
          <path id="Path_68117" data-name="Path 68117" d="M1150.273,1146.4a131.338,131.338,0,1,0,131.391,131.348A131.339,131.339,0,0,0,1150.273,1146.4Zm0,231.317a99.971,99.971,0,1,1,99.986-99.969A99.975,99.975,0,0,1,1150.273,1377.719Z" transform="translate(-983.658 -1111.119)" fill="#14475f"/>
        </g>
        <g id="Group_23826" data-name="Group 23826" transform="translate(104.838 114.807)">
          <g id="Group_23824" data-name="Group 23824">
            <rect id="Rectangle_4827" data-name="Rectangle 4827" width="17.015" height="37.848" transform="translate(0 26.41)" fill="#0fc2bf"/>
            <rect id="Rectangle_4828" data-name="Rectangle 4828" width="17.015" height="37.848" transform="translate(106.538 26.41)" fill="#0fc2bf"/>
            <rect id="Rectangle_4829" data-name="Rectangle 4829" width="17.015" height="54.654" transform="translate(26.635 9.604)" fill="#14475f"/>
            <rect id="Rectangle_4830" data-name="Rectangle 4830" width="17.015" height="45.722" transform="translate(79.903 18.537)" fill="#14475f"/>
            <rect id="Rectangle_4831" data-name="Rectangle 4831" width="17.015" height="64.258" transform="translate(53.269)" fill="#0fc2bf"/>
          </g>
          <g id="Group_23825" data-name="Group 23825" transform="translate(0 71.595)">
            <rect id="Rectangle_4832" data-name="Rectangle 4832" width="17.015" height="18.094" fill="#f1f1f2"/>
            <rect id="Rectangle_4833" data-name="Rectangle 4833" width="17.015" height="18.094" transform="translate(106.538)" fill="#f1f1f2"/>
            <rect id="Rectangle_4834" data-name="Rectangle 4834" width="17.015" height="26.129" transform="translate(26.635)" fill="#f1f1f2"/>
            <rect id="Rectangle_4835" data-name="Rectangle 4835" width="17.015" height="21.859" transform="translate(79.903)" fill="#f1f1f2"/>
            <rect id="Rectangle_4836" data-name="Rectangle 4836" width="17.015" height="30.721" transform="translate(53.269)" fill="#f1f1f2"/>
          </g>
        </g>
      </g>
    </g>
  </g>
</svg>
