<svg xmlns="http://www.w3.org/2000/svg" width="324.062" height="332.699" viewBox="0 0 324.062 332.699">
  <g id="Group_23879" data-name="Group 23879" transform="translate(-509.899 -1803.656)">
    <g id="Group_23874" data-name="Group 23874" transform="translate(571.343 1906.577)">
      <g id="Group_23868" data-name="Group 23868">
        <g id="Group_23860" data-name="Group 23860" transform="translate(0.27)">
          <rect id="Rectangle_4917" data-name="Rectangle 4917" width="129.691" height="96.81" fill="#fff"/>
          <rect id="Rectangle_4918" data-name="Rectangle 4918" width="7.644" height="71.178" transform="translate(109.6 13.632)" fill="#e6e7e8"/>
          <path id="Path_68172" data-name="Path 68172" d="M579.446,1917.716h-1.909v-68.649H571.8v-2.528h7.644Z" transform="translate(-462.202 -1832.907)" fill="#929497" opacity="0.2"/>
          <rect id="Rectangle_4919" data-name="Rectangle 4919" width="7.648" height="71.178" transform="translate(95.719 13.632)" fill="#e6e7e8"/>
          <rect id="Rectangle_4920" data-name="Rectangle 4920" width="7.648" height="71.178" transform="translate(81.844 13.632)" fill="#e6e7e8"/>
          <rect id="Rectangle_4921" data-name="Rectangle 4921" width="7.644" height="71.178" transform="translate(67.967 13.632)" fill="#e6e7e8"/>
          <rect id="Rectangle_4922" data-name="Rectangle 4922" width="7.648" height="71.178" transform="translate(54.088 13.632)" fill="#e6e7e8"/>
          <rect id="Rectangle_4923" data-name="Rectangle 4923" width="7.644" height="71.178" transform="translate(40.211 13.632)" fill="#e6e7e8"/>
          <rect id="Rectangle_4924" data-name="Rectangle 4924" width="7.649" height="71.178" transform="translate(26.331 13.632)" fill="#e6e7e8"/>
          <rect id="Rectangle_4925" data-name="Rectangle 4925" width="7.648" height="71.178" transform="translate(12.455 13.632)" fill="#e6e7e8"/>
          <path id="Path_68173" data-name="Path 68173" d="M574.629,1917.716h-1.909v-68.649h-5.739v-2.528h7.648Z" transform="translate(-471.261 -1832.907)" fill="#929497" opacity="0.2"/>
          <path id="Path_68174" data-name="Path 68174" d="M569.809,1917.716H567.9v-68.649h-5.734v-2.528h7.648Z" transform="translate(-480.317 -1832.907)" fill="#929497" opacity="0.2"/>
          <path id="Path_68175" data-name="Path 68175" d="M564.986,1917.716h-1.91v-68.649h-5.734v-2.528h7.644Z" transform="translate(-489.374 -1832.907)" fill="#929497" opacity="0.2"/>
          <path id="Path_68176" data-name="Path 68176" d="M560.169,1917.716h-1.915v-68.649h-5.733v-2.528h7.648Z" transform="translate(-498.433 -1832.907)" fill="#929497" opacity="0.2"/>
          <path id="Path_68177" data-name="Path 68177" d="M555.345,1917.716h-1.911v-68.649H547.7v-2.528h7.644Z" transform="translate(-507.49 -1832.907)" fill="#929497" opacity="0.2"/>
          <path id="Path_68178" data-name="Path 68178" d="M550.529,1917.716h-1.914v-68.649H542.88v-2.528h7.649Z" transform="translate(-516.549 -1832.907)" fill="#929497" opacity="0.2"/>
          <path id="Path_68179" data-name="Path 68179" d="M545.709,1917.716h-1.915v-68.649h-5.734v-2.528h7.648Z" transform="translate(-525.606 -1832.907)" fill="#929497" opacity="0.2"/>
        </g>
        <rect id="Rectangle_4926" data-name="Rectangle 4926" width="132.721" height="10.636" transform="translate(0 94.184)" fill="#6d6e70"/>
        <rect id="Rectangle_4927" data-name="Rectangle 4927" width="44.688" height="19" transform="translate(132.721 85.814)" fill="#020508"/>
        <g id="Group_23867" data-name="Group 23867" transform="translate(132.72 10.538)">
          <path id="Path_68180" data-name="Path 68180" d="M581.342,1854.7l46.613-.167a12.7,12.7,0,0,1,11.344,6.9,12.423,12.423,0,0,1,1,2.6l6.251,23.856v27.125h-26.3a20.042,20.042,0,0,0-35.284,0h-5.226v-58.7A1.6,1.6,0,0,1,581.342,1854.7Z" transform="translate(-579.738 -1828.424)" fill="#bbbdbf"/>
          <path id="Path_68181" data-name="Path 68181" d="M600.742,1857.705h1.627c.035.118.072.239.1.354l6.248,23.845h-4.379a.479.479,0,0,1-.472-.4l-3.99-22.774a.879.879,0,0,1,.864-1.028Z" transform="translate(-541.915 -1822.462)" fill="#e6e7e8"/>
          <path id="Path_68182" data-name="Path 68182" d="M590.13,1857.861h23.857a.486.486,0,0,1,.484.426L617.237,1880a.638.638,0,0,1-.156.51.652.652,0,0,1-.487.218c-23.252-.005-20.128-.224-26.462-.224a1.051,1.051,0,0,1-1.051-1.051v-20.54A1.049,1.049,0,0,1,590.13,1857.861Z" transform="translate(-562.179 -1822.169)" fill="#e6e7e8"/>
          <rect id="Rectangle_4928" data-name="Rectangle 4928" width="15.245" height="18.717" transform="translate(4.259 35.696)" fill="#e6e7e8"/>
          <rect id="Rectangle_4929" data-name="Rectangle 4929" width="3.25" height="20.753" transform="matrix(0.826, -0.563, 0.563, 0.826, 35.593, 38.307)" fill="#fff" opacity="0.5"/>
          <rect id="Rectangle_4930" data-name="Rectangle 4930" width="3.252" height="20.755" transform="matrix(0.826, -0.564, 0.564, 0.826, 30.303, 39.472)" fill="#fff" opacity="0.5"/>
          <rect id="Rectangle_4931" data-name="Rectangle 4931" width="2.232" height="14.234" transform="translate(8.765 39.403) rotate(-34.275)" fill="#fff" opacity="0.5"/>
          <rect id="Rectangle_4932" data-name="Rectangle 4932" width="2.229" height="14.231" transform="matrix(0.826, -0.564, 0.564, 0.826, 5.137, 40.204)" fill="#fff" opacity="0.5"/>
          <rect id="Rectangle_4933" data-name="Rectangle 4933" width="4.485" height="11.81" transform="translate(44.689 39.877)" fill="#6d6e70"/>
          <rect id="Rectangle_4934" data-name="Rectangle 4934" width="0.451" height="24.774" transform="translate(48.535 35.696)" fill="#6d6e70"/>
          <path id="Path_68183" data-name="Path 68183" d="M613.139,1870.122a16.888,16.888,0,0,1,12.976,12.254h11.764v-6.945a2.76,2.76,0,0,1,2.758-2.767h5.945a1.605,1.605,0,0,1,1.609,1.6v24.139a1.61,1.61,0,0,1-1.609,1.606H624.094a1.61,1.61,0,0,1-1.609-1.606v-.167c.017-.158.034-.323.046-.489a17.668,17.668,0,0,0,.1-1.923,20.025,20.025,0,0,0-20.027-20.021,19.8,19.8,0,0,0-6.614,1.12,20.047,20.047,0,0,0-13.172,15.767h-3.084v-22.9h30.041A17.034,17.034,0,0,1,613.139,1870.122Z" transform="translate(-579.738 -1799.756)" fill="#6d6e70"/>
          <rect id="Rectangle_4935" data-name="Rectangle 4935" width="1.722" height="5.975" transform="translate(30.526 59.533)" fill="#6d6e70"/>
          <g id="Group_23861" data-name="Group 23861" transform="translate(0.944)">
            <path id="Path_68184" data-name="Path 68184" d="M628.269,1871.538h-4.353c-10.333-8.341-21.928-11.37-43.835-10.953.3-6.256,2.062-11.237,4.992-15.121C606.336,1847.859,617.265,1854.173,628.269,1871.538Z" transform="translate(-580.037 -1845.464)" fill="#fff"/>
            <path id="Path_68185" data-name="Path 68185" d="M623.944,1861.693H580.918a49.293,49.293,0,0,1-.809-10.953C602.017,1850.323,613.611,1853.352,623.944,1861.693Z" transform="translate(-580.066 -1835.619)" fill="#f1f1f2"/>
            <path id="Path_68186" data-name="Path 68186" d="M623.944,1861.693c-10.843-7.584-22.506-9.91-43.87-8.229-.017-.936-.009-1.846.035-2.724C602.016,1850.323,613.611,1853.352,623.944,1861.693Z" transform="translate(-580.065 -1835.619)" fill="#d0d2d3"/>
          </g>
          <g id="Group_23866" data-name="Group 23866" transform="translate(5.053 78.94)">
            <g id="Group_23863" data-name="Group 23863">
              <g id="Group_23862" data-name="Group 23862">
                <path id="Path_68187" data-name="Path 68187" d="M597.225,1873.712a14.9,14.9,0,1,1-14.9,14.9A14.921,14.921,0,0,1,597.225,1873.712Z" transform="translate(-579.933 -1871.322)" fill="#d0d2d3"/>
                <path id="Path_68188" data-name="Path 68188" d="M581.493,1890.171a17.291,17.291,0,1,0,17.292-17.29A17.292,17.292,0,0,0,581.493,1890.171Zm4.776,0a12.514,12.514,0,1,1,12.516,12.516A12.528,12.528,0,0,1,586.269,1890.171Z" transform="translate(-581.493 -1872.882)" fill="#404041"/>
              </g>
            </g>
            <g id="Group_23865" data-name="Group 23865" transform="translate(12.743 12.74)">
              <g id="Group_23864" data-name="Group 23864">
                <path id="Path_68189" data-name="Path 68189" d="M590.058,1877.525a3.923,3.923,0,1,1-3.921,3.921A3.928,3.928,0,0,1,590.058,1877.525Z" transform="translate(-585.509 -1876.897)" fill="#fff"/>
                <path id="Path_68190" data-name="Path 68190" d="M585.919,1881.856a4.55,4.55,0,1,0,4.549-4.549A4.548,4.548,0,0,0,585.919,1881.856Zm1.258,0a3.291,3.291,0,1,1,3.291,3.294A3.3,3.3,0,0,1,587.177,1881.856Z" transform="translate(-585.919 -1877.307)" fill="#404041"/>
              </g>
            </g>
          </g>
          <rect id="Rectangle_4936" data-name="Rectangle 4936" width="8.219" height="1.795" transform="translate(46.93 86.024)"/>
          <rect id="Rectangle_4937" data-name="Rectangle 4937" width="8.219" height="1.793" transform="translate(46.93 89.981)"/>
          <rect id="Rectangle_4938" data-name="Rectangle 4938" width="8.219" height="1.795" transform="translate(46.93 94.277)"/>
          <rect id="Rectangle_4939" data-name="Rectangle 4939" width="7.476" height="2.463" transform="translate(60.978 77.766)" fill="#e6e7e8"/>
          <rect id="Rectangle_4940" data-name="Rectangle 4940" width="7.476" height="7.589" transform="translate(60.978 80.229)" fill="#fff"/>
        </g>
        <rect id="Rectangle_4941" data-name="Rectangle 4941" width="3.082" height="1.342" transform="translate(132.721 103.472)" fill="#6d6e70"/>
      </g>
      <g id="Group_23873" data-name="Group 23873" transform="translate(23.416 89.478)">
        <g id="Group_23870" data-name="Group 23870">
          <g id="Group_23869" data-name="Group 23869">
            <path id="Path_68191" data-name="Path 68191" d="M557.506,1873.712a14.9,14.9,0,1,1-14.9,14.9A14.917,14.917,0,0,1,557.506,1873.712Z" transform="translate(-540.214 -1871.322)" fill="#d0d2d3"/>
            <path id="Path_68192" data-name="Path 68192" d="M541.774,1890.171a17.292,17.292,0,1,0,17.292-17.29A17.292,17.292,0,0,0,541.774,1890.171Zm4.782,0a12.513,12.513,0,1,1,12.51,12.516A12.527,12.527,0,0,1,546.556,1890.171Z" transform="translate(-541.774 -1872.882)" fill="#404041"/>
          </g>
        </g>
        <g id="Group_23872" data-name="Group 23872" transform="translate(12.743 12.74)">
          <g id="Group_23871" data-name="Group 23871">
            <path id="Path_68193" data-name="Path 68193" d="M550.339,1877.525a3.923,3.923,0,1,1-3.921,3.921A3.927,3.927,0,0,1,550.339,1877.525Z" transform="translate(-545.79 -1876.897)" fill="#fff"/>
            <path id="Path_68194" data-name="Path 68194" d="M546.2,1881.856a4.552,4.552,0,1,0,4.549-4.549A4.548,4.548,0,0,0,546.2,1881.856Zm1.258,0a3.294,3.294,0,1,1,3.291,3.294A3.294,3.294,0,0,1,547.458,1881.856Z" transform="translate(-546.2 -1877.307)" fill="#404041"/>
          </g>
        </g>
      </g>
    </g>
    <g id="Group_23878" data-name="Group 23878" transform="translate(513.577 1807.334)">
      <g id="Group_23875" data-name="Group 23875" transform="translate(0 8.637)" opacity="0.2" style="mix-blend-mode: multiply;isolation: isolate">
        <circle id="Ellipse_748" data-name="Ellipse 748" cx="158.352" cy="158.352" r="158.352" fill="none" stroke="#000" stroke-linecap="round" stroke-linejoin="round" stroke-width="7.357"/>
        <line id="Line_1066" data-name="Line 1066" y1="223.944" x2="223.944" transform="translate(46.38 46.38)" fill="none" stroke="#000" stroke-linecap="round" stroke-linejoin="round" stroke-width="7.357"/>
      </g>
      <g id="Group_23877" data-name="Group 23877">
        <g id="Group_23876" data-name="Group 23876">
          <circle id="Ellipse_749" data-name="Ellipse 749" cx="158.352" cy="158.352" r="158.352" fill="none" stroke="#e23c39" stroke-linecap="round" stroke-linejoin="round" stroke-width="7.357"/>
          <line id="Line_1067" data-name="Line 1067" y1="223.944" x2="223.944" transform="translate(46.38 46.38)" fill="none" stroke="#e23c39" stroke-linecap="round" stroke-linejoin="round" stroke-width="7.357"/>
        </g>
      </g>
    </g>
  </g>
</svg>
