<svg xmlns="http://www.w3.org/2000/svg" width="465.014" height="409.552" viewBox="0 0 465.014 409.552">
  <g id="Group_23898" data-name="Group 23898" transform="translate(-763.404 -1810.034)">
    <g id="Group_23893" data-name="Group 23893" transform="translate(763.404 1810.034)">
      <g id="Group_23880" data-name="Group 23880" transform="translate(0 10.873)" opacity="0.1" style="mix-blend-mode: multiply;isolation: isolate">
        <path id="Path_68195" data-name="Path 68195" d="M935.067,1932.9l-.026-.247c-.583-3.57-1.221-7.372-1.482-11.312-.341-5.089-.638-10.409-.638-15.965v-.1c0-1.225.631-2.5.664-3.806H830.53c.058,1.294.761,2.7.761,3.907v14.6c0,21.9-4.625,40.129-23.957,51.857h-7.307v7.814H969.389v-7.814h-8.137C945.345,1964,937.981,1950.336,935.067,1932.9Z" transform="translate(-667.292 -1580.96)"/>
        <rect id="Rectangle_4942" data-name="Rectangle 4942" width="169.365" height="13.203" transform="translate(132.733 385.475)"/>
        <path id="Path_68196" data-name="Path 68196" d="M910.283,1902.543H808.653v.04c0,4.813.09,9.775.051,14.313l103.722,13.113h0c-.612-3.911-1.243-7.571-1.5-11.5C910.577,1913.423,910.2,1908.1,910.283,1902.543Z" transform="translate(-644.654 -1578.131)" opacity="0.2"/>
        <rect id="Rectangle_4943" data-name="Rectangle 4943" width="434.013" height="325.622" rx="4.798"/>
        <path id="Path_68197" data-name="Path 68197" d="M763.689,2104.993V1829.676a16.377,16.377,0,0,1,16.357-16.357h399.233a16.377,16.377,0,0,1,16.357,16.357v275.317Z" transform="translate(-762.656 -1812.286)"/>
        <path id="Path_68198" data-name="Path 68198" d="M1180.027,1815.1a15.336,15.336,0,0,1,15.32,15.32v274.284H765.474V1830.423a15.336,15.336,0,0,1,15.32-15.32h399.233m0-2.069H780.794a17.389,17.389,0,0,0-17.39,17.39v276.354h434.013V1830.423a17.389,17.389,0,0,0-17.39-17.39Z" transform="translate(-763.404 -1813.034)"/>
        <path id="Path_68199" data-name="Path 68199" d="M1167.766,1817.706H768.533a.459.459,0,0,0-.457.457v259.417h400.143V1818.163A.451.451,0,0,0,1167.766,1817.706Z" transform="translate(-751.143 -1800.773)"/>
        <rect id="Rectangle_4944" data-name="Rectangle 4944" width="21.61" height="77.005" transform="translate(74.611 139.867)"/>
        <rect id="Rectangle_4945" data-name="Rectangle 4945" width="21.61" height="48.311" transform="translate(41.611 168.561)"/>
        <rect id="Rectangle_4946" data-name="Rectangle 4946" width="21.61" height="33.57" transform="translate(107.611 183.301)"/>
        <rect id="Rectangle_4947" data-name="Rectangle 4947" width="21.61" height="56.588" transform="translate(140.611 160.284)"/>
        <rect id="Rectangle_4948" data-name="Rectangle 4948" width="21.61" height="91.352" transform="translate(173.611 125.519)"/>
        <rect id="Rectangle_4949" data-name="Rectangle 4949" width="21.61" height="111.217" transform="translate(206.611 105.654)"/>
        <rect id="Rectangle_4950" data-name="Rectangle 4950" width="21.61" height="37.601" transform="translate(371.611 179.27)"/>
        <rect id="Rectangle_4951" data-name="Rectangle 4951" width="21.609" height="77.005" transform="translate(239.611 139.867)"/>
        <rect id="Rectangle_4952" data-name="Rectangle 4952" width="21.609" height="73.287" transform="translate(338.612 143.584)"/>
        <rect id="Rectangle_4953" data-name="Rectangle 4953" width="21.609" height="91.352" transform="translate(305.611 125.519)"/>
        <rect id="Rectangle_4954" data-name="Rectangle 4954" width="21.609" height="56.588" transform="translate(272.611 160.284)"/>
        <rect id="Rectangle_4955" data-name="Rectangle 4955" width="21.61" height="77.005" transform="translate(74.611 133.785)"/>
        <rect id="Rectangle_4956" data-name="Rectangle 4956" width="21.61" height="48.311" transform="translate(41.611 162.48)"/>
        <rect id="Rectangle_4957" data-name="Rectangle 4957" width="21.61" height="33.57" transform="translate(107.611 177.22)"/>
        <rect id="Rectangle_4958" data-name="Rectangle 4958" width="21.61" height="56.588" transform="translate(140.611 154.202)"/>
        <rect id="Rectangle_4959" data-name="Rectangle 4959" width="21.61" height="91.352" transform="translate(173.611 119.438)"/>
        <rect id="Rectangle_4960" data-name="Rectangle 4960" width="21.61" height="111.217" transform="translate(206.611 99.573)"/>
        <rect id="Rectangle_4961" data-name="Rectangle 4961" width="21.61" height="37.601" transform="translate(371.611 173.189)"/>
        <rect id="Rectangle_4962" data-name="Rectangle 4962" width="21.609" height="77.005" transform="translate(239.611 133.785)"/>
        <rect id="Rectangle_4963" data-name="Rectangle 4963" width="21.609" height="73.287" transform="translate(338.612 137.503)"/>
        <rect id="Rectangle_4964" data-name="Rectangle 4964" width="21.609" height="91.352" transform="translate(305.611 119.438)"/>
        <rect id="Rectangle_4965" data-name="Rectangle 4965" width="21.609" height="56.588" transform="translate(272.611 154.202)"/>
        <line id="Line_1068" data-name="Line 1068" x2="160.094" transform="translate(41.611 234.779)" fill="none" stroke="#000" stroke-miterlimit="10" stroke-width="1.671"/>
        <line id="Line_1069" data-name="Line 1069" x2="160.094" transform="translate(41.611 249.583)" fill="none" stroke="#000" stroke-miterlimit="10" stroke-width="1.671"/>
        <line id="Line_1070" data-name="Line 1070" x2="33.942" transform="translate(59.632 43.088)" fill="none" stroke="#000" stroke-miterlimit="10" stroke-width="2.228"/>
        <line id="Line_1071" data-name="Line 1071" x2="160.094" transform="translate(233.127 234.779)" fill="none" stroke="#000" stroke-miterlimit="10" stroke-width="1.671"/>
        <line id="Line_1072" data-name="Line 1072" x2="160.094" transform="translate(233.127 249.583)" fill="none" stroke="#000" stroke-miterlimit="10" stroke-width="1.671"/>
        <path id="Path_68200" data-name="Path 68200" d="M777.866,1910.7l33-42.945,33,42.945,99-77.647,66,54.629,33-34.764,66,53.75" transform="translate(-725.45 -1760.509)" fill="none" stroke="#000" stroke-miterlimit="10" stroke-width="1.114"/>
        <circle id="Ellipse_750" data-name="Ellipse 750" cx="6.573" cy="6.573" r="6.573" transform="translate(78.842 100.669)" stroke="#000" stroke-linecap="round" stroke-linejoin="round" stroke-width="1.114"/>
        <circle id="Ellipse_751" data-name="Ellipse 751" cx="6.573" cy="6.573" r="6.573" transform="translate(210.842 65.966)" stroke="#000" stroke-linecap="round" stroke-linejoin="round" stroke-width="1.114"/>
        <circle id="Ellipse_752" data-name="Ellipse 752" cx="6.573" cy="6.573" r="6.573" transform="translate(111.842 143.614)" stroke="#000" stroke-linecap="round" stroke-linejoin="round" stroke-width="1.114"/>
        <circle id="Ellipse_753" data-name="Ellipse 753" cx="6.573" cy="6.573" r="6.573" transform="translate(276.843 120.596)" stroke="#000" stroke-linecap="round" stroke-linejoin="round" stroke-width="1.114"/>
        <circle id="Ellipse_754" data-name="Ellipse 754" cx="6.573" cy="6.573" r="6.573" transform="translate(309.843 85.832)" stroke="#000" stroke-linecap="round" stroke-linejoin="round" stroke-width="1.114"/>
        <circle id="Ellipse_755" data-name="Ellipse 755" cx="6.573" cy="6.573" r="6.573" transform="translate(375.843 139.582)" stroke="#000" stroke-linecap="round" stroke-linejoin="round" stroke-width="1.114"/>
        <circle id="Ellipse_756" data-name="Ellipse 756" cx="4.332" cy="4.332" r="4.332" transform="translate(41.611 38.756)"/>
        <line id="Line_1073" data-name="Line 1073" x2="33.942" transform="translate(124.454 43.088)" fill="none" stroke="#000" stroke-miterlimit="10" stroke-width="2.228"/>
        <circle id="Ellipse_757" data-name="Ellipse 757" cx="4.332" cy="4.332" r="4.332" transform="translate(106.432 38.756)"/>
        <line id="Line_1074" data-name="Line 1074" x2="33.942" transform="translate(189.051 43.088)" fill="none" stroke="#000" stroke-miterlimit="10" stroke-width="2.228"/>
        <circle id="Ellipse_758" data-name="Ellipse 758" cx="4.332" cy="4.332" r="4.332" transform="translate(171.03 38.756)"/>
        <path id="Path_68201" data-name="Path 68201" d="M1050.877,1813.034H780.794a17.389,17.389,0,0,0-17.39,17.39v276.354h68.779Z" transform="translate(-763.404 -1813.034)" opacity="0.2"/>
      </g>
      <g id="Group_23892" data-name="Group 23892">
        <g id="Group_23891" data-name="Group 23891">
          <path id="Path_68202" data-name="Path 68202" d="M935.067,1929.9l-.026-.246c-.583-3.57-1.221-7.372-1.482-11.312-.341-5.089-.638-10.409-.638-15.965v-.1c0-1.225.631-2.5.664-3.806H830.53c.058,1.294.761,2.7.761,3.907v14.6c0,21.9-4.625,40.129-23.957,51.857h-7.307v7.814H969.389v-7.814h-8.137C945.345,1961,937.981,1947.335,935.067,1929.9Z" transform="translate(-667.292 -1577.96)" fill="#d0d2d3"/>
          <g id="Group_23881" data-name="Group 23881" transform="translate(132.733 385.475)">
            <rect id="Rectangle_4966" data-name="Rectangle 4966" width="169.365" height="13.203" fill="#f2f2f0"/>
          </g>
          <path id="Path_68203" data-name="Path 68203" d="M910.283,1899.543H808.653v.04c0,4.813.09,9.775.051,14.313l103.722,13.113h0c-.612-3.911-1.243-7.571-1.5-11.5C910.577,1910.423,910.2,1905.1,910.283,1899.543Z" transform="translate(-644.654 -1575.131)" opacity="0.2"/>
          <g id="Group_23882" data-name="Group 23882">
            <rect id="Rectangle_4967" data-name="Rectangle 4967" width="434.013" height="325.622" rx="4.798" fill="#f2f2f0"/>
          </g>
          <g id="Group_23884" data-name="Group 23884" transform="translate(0)">
            <path id="Path_68204" data-name="Path 68204" d="M763.689,2101.993V1826.676a16.377,16.377,0,0,1,16.357-16.357h399.233a16.377,16.377,0,0,1,16.357,16.357v275.317Z" transform="translate(-762.656 -1809.286)" fill="#303030"/>
            <g id="Group_23883" data-name="Group 23883">
              <path id="Path_68205" data-name="Path 68205" d="M1180.027,1812.1a15.336,15.336,0,0,1,15.32,15.32v274.284H765.474V1827.423a15.336,15.336,0,0,1,15.32-15.32h399.233m0-2.069H780.794a17.389,17.389,0,0,0-17.39,17.39v276.354h434.013V1827.423a17.389,17.389,0,0,0-17.39-17.39Z" transform="translate(-763.404 -1810.034)" fill="#58595b"/>
            </g>
          </g>
          <path id="Path_68206" data-name="Path 68206" d="M1167.766,1814.706H768.533a.459.459,0,0,0-.457.457v259.417h400.143V1815.163A.451.451,0,0,0,1167.766,1814.706Z" transform="translate(-751.143 -1797.773)" fill="#fff"/>
          <g id="Group_23890" data-name="Group 23890" transform="translate(41.611 38.756)">
            <g id="Group_23888" data-name="Group 23888" transform="translate(0 60.817)">
              <g id="Group_23885" data-name="Group 23885" transform="translate(0 6.082)" style="mix-blend-mode: multiply;isolation: isolate">
                <rect id="Rectangle_4968" data-name="Rectangle 4968" width="21.61" height="77.005" transform="translate(33 34.212)" fill="#e6e7e8"/>
                <rect id="Rectangle_4969" data-name="Rectangle 4969" width="21.61" height="48.311" transform="translate(0 62.906)" fill="#e6e7e8"/>
                <rect id="Rectangle_4970" data-name="Rectangle 4970" width="21.61" height="33.57" transform="translate(66 77.647)" fill="#e6e7e8"/>
                <rect id="Rectangle_4971" data-name="Rectangle 4971" width="21.61" height="56.588" transform="translate(99 54.629)" fill="#e6e7e8"/>
                <rect id="Rectangle_4972" data-name="Rectangle 4972" width="21.61" height="91.352" transform="translate(132 19.865)" fill="#e6e7e8"/>
                <rect id="Rectangle_4973" data-name="Rectangle 4973" width="21.61" height="111.217" transform="translate(165)" fill="#e6e7e8"/>
                <rect id="Rectangle_4974" data-name="Rectangle 4974" width="21.61" height="37.601" transform="translate(330.001 73.616)" fill="#e6e7e8"/>
                <rect id="Rectangle_4975" data-name="Rectangle 4975" width="21.609" height="77.005" transform="translate(198.001 34.212)" fill="#e6e7e8"/>
                <rect id="Rectangle_4976" data-name="Rectangle 4976" width="21.609" height="73.287" transform="translate(297.001 37.93)" fill="#e6e7e8"/>
                <rect id="Rectangle_4977" data-name="Rectangle 4977" width="21.609" height="91.352" transform="translate(264.001 19.865)" fill="#e6e7e8"/>
                <rect id="Rectangle_4978" data-name="Rectangle 4978" width="21.609" height="56.588" transform="translate(231.001 54.629)" fill="#e6e7e8"/>
              </g>
              <g id="Group_23887" data-name="Group 23887">
                <g id="Group_23886" data-name="Group 23886">
                  <rect id="Rectangle_4979" data-name="Rectangle 4979" width="21.61" height="77.005" transform="translate(33 34.212)" fill="#14475f"/>
                  <rect id="Rectangle_4980" data-name="Rectangle 4980" width="21.61" height="48.311" transform="translate(0 62.907)" fill="#0fc2bf"/>
                  <rect id="Rectangle_4981" data-name="Rectangle 4981" width="21.61" height="33.57" transform="translate(66 77.648)" fill="#0caba7"/>
                  <rect id="Rectangle_4982" data-name="Rectangle 4982" width="21.61" height="56.588" transform="translate(99 54.629)" fill="#0fc2bf"/>
                  <rect id="Rectangle_4983" data-name="Rectangle 4983" width="21.61" height="91.352" transform="translate(132 19.865)" fill="#14475f"/>
                  <rect id="Rectangle_4984" data-name="Rectangle 4984" width="21.61" height="111.217" transform="translate(165)" fill="#0fc2bf"/>
                  <rect id="Rectangle_4985" data-name="Rectangle 4985" width="21.61" height="37.601" transform="translate(330.001 73.616)" fill="#0caba7"/>
                  <path id="Path_76447" data-name="Path 76447" d="M0,0H21.609V77H0Z" transform="translate(198.001 34.212)" fill="#14475f"/>
                  <path id="Path_77987" data-name="Path 77987" d="M0,0H21.609V73.287H0Z" transform="translate(297.001 37.93)" fill="#0fc2bf"/>
                  <rect id="Rectangle_4988" data-name="Rectangle 4988" width="21.609" height="91.352" transform="translate(264.001 19.865)" fill="#14475f"/>
                  <rect id="Rectangle_4989" data-name="Rectangle 4989" width="21.609" height="56.588" transform="translate(231.001 54.629)" fill="#0fc2bf"/>
                </g>
              </g>
            </g>
            <line id="Line_1075" data-name="Line 1075" x2="160.094" transform="translate(0 196.023)" fill="none" stroke="#e6e7e8" stroke-miterlimit="10" stroke-width="1.671"/>
            <line id="Line_1076" data-name="Line 1076" x2="160.094" transform="translate(0 210.827)" fill="none" stroke="#e6e7e8" stroke-miterlimit="10" stroke-width="1.671"/>
            <line id="Line_1077" data-name="Line 1077" x2="33.942" transform="translate(18.021 4.332)" fill="none" stroke="#e6e7e8" stroke-miterlimit="10" stroke-width="2.228"/>
            <line id="Line_1078" data-name="Line 1078" x2="160.094" transform="translate(191.517 196.023)" fill="none" stroke="#e6e7e8" stroke-miterlimit="10" stroke-width="1.671"/>
            <line id="Line_1079" data-name="Line 1079" x2="160.094" transform="translate(191.517 210.827)" fill="none" stroke="#e6e7e8" stroke-miterlimit="10" stroke-width="1.671"/>
            <g id="Group_23889" data-name="Group 23889" transform="translate(10.805 27.211)">
              <path id="Path_68207" data-name="Path 68207" d="M777.866,1907.7l33-42.945,33,42.945,99-77.647,66,54.629,33-34.764,66,53.75" transform="translate(-777.866 -1823.475)" fill="none" stroke="#ff4949" stroke-miterlimit="10" stroke-width="1.114"/>
              <circle id="Ellipse_759" data-name="Ellipse 759" cx="6.573" cy="6.573" r="6.573" transform="translate(26.427 34.703)" fill="#fff" stroke="#ff4949" stroke-linecap="round" stroke-linejoin="round" stroke-width="1.114"/>
              <circle id="Ellipse_760" data-name="Ellipse 760" cx="6.573" cy="6.573" r="6.573" transform="translate(158.427)" fill="#fff" stroke="#ff4949" stroke-linecap="round" stroke-linejoin="round" stroke-width="1.114"/>
              <circle id="Ellipse_761" data-name="Ellipse 761" cx="6.573" cy="6.573" r="6.573" transform="translate(59.427 77.648)" fill="#fff" stroke="#ff4949" stroke-linecap="round" stroke-linejoin="round" stroke-width="1.114"/>
              <circle id="Ellipse_762" data-name="Ellipse 762" cx="6.573" cy="6.573" r="6.573" transform="translate(224.427 54.629)" fill="#fff" stroke="#ff4949" stroke-linecap="round" stroke-linejoin="round" stroke-width="1.114"/>
              <circle id="Ellipse_763" data-name="Ellipse 763" cx="6.573" cy="6.573" r="6.573" transform="translate(257.427 19.865)" fill="#fff" stroke="#ff4949" stroke-linecap="round" stroke-linejoin="round" stroke-width="1.114"/>
              <circle id="Ellipse_764" data-name="Ellipse 764" cx="6.573" cy="6.573" r="6.573" transform="translate(323.427 73.616)" fill="#fff" stroke="#ff4949" stroke-linecap="round" stroke-linejoin="round" stroke-width="1.114"/>
            </g>
            <circle id="Ellipse_765" data-name="Ellipse 765" cx="4.332" cy="4.332" r="4.332" fill="#0fc2bf"/>
            <line id="Line_1080" data-name="Line 1080" x2="33.942" transform="translate(82.843 4.332)" fill="none" stroke="#e6e7e8" stroke-miterlimit="10" stroke-width="2.228"/>
            <circle id="Ellipse_766" data-name="Ellipse 766" cx="4.332" cy="4.332" r="4.332" transform="translate(64.822)" fill="#24984e"/>
            <line id="Line_1081" data-name="Line 1081" x2="33.942" transform="translate(147.44 4.332)" fill="none" stroke="#e6e7e8" stroke-miterlimit="10" stroke-width="2.228"/>
            <circle id="Ellipse_767" data-name="Ellipse 767" cx="4.332" cy="4.332" r="4.332" transform="translate(129.42)" fill="#0caba7"/>
          </g>
          <path id="Path_68208" data-name="Path 68208" d="M1050.877,1810.034H780.794a17.389,17.389,0,0,0-17.39,17.39v276.354h68.779Z" transform="translate(-763.404 -1810.034)" fill="#fff" opacity="0.2"/>
        </g>
      </g>
    </g>
    <g id="Group_23897" data-name="Group 23897" transform="translate(959.703 1855.228)">
      <g id="Group_23894" data-name="Group 23894" transform="translate(0 10.873)" opacity="0.1" style="mix-blend-mode: multiply;isolation: isolate">
        <rect id="Rectangle_4990" data-name="Rectangle 4990" width="16.719" height="19.952" transform="translate(141.243 153.051) rotate(-45)"/>
        <path id="Path_68209" data-name="Path 68209" d="M946.976,1950.768a69.588,69.588,0,1,1,.014-98.437A69.583,69.583,0,0,1,946.976,1950.768Z" transform="translate(-810.795 -1814.568)" opacity="0.15"/>
        <path id="Path_68210" data-name="Path 68210" d="M971.88,1852.631a86.982,86.982,0,1,0,0,123.018A86.984,86.984,0,0,0,971.88,1852.631Zm-12.308,110.728a69.588,69.588,0,1,1,.014-98.434A69.583,69.583,0,0,1,959.572,1963.358Z" transform="translate(-823.391 -1827.159)"/>
        <path id="Path_68211" data-name="Path 68211" d="M889.486,1869.982l54.42,54.419a16.453,16.453,0,0,1-23.268,23.269l-54.42-54.419Z" transform="translate(-710.999 -1714.776)"/>
        <path id="Path_68212" data-name="Path 68212" d="M891.755,1872.279l-23.247,23.247-1.435-1.435a5.867,5.867,0,0,1-.014-8.3l14.972-14.976a5.825,5.825,0,0,1,4.143-1.707,5.891,5.891,0,0,1,4.146,1.732Z" transform="translate(-713.282 -1717.059)"/>
      </g>
      <g id="Group_23896" data-name="Group 23896" transform="translate(31 25)">
        <g id="Group_23895" data-name="Group 23895">
          <rect id="Rectangle_4991" data-name="Rectangle 4991" width="16.719" height="19.952" transform="translate(141.243 153.051) rotate(-45)" fill="#0c001f"/>
          <path id="Path_68213" data-name="Path 68213" d="M946.976,1947.768a69.588,69.588,0,1,1,.014-98.437A69.583,69.583,0,0,1,946.976,1947.768Z" transform="translate(-810.795 -1811.568)" fill="#97faff" opacity="0.15"/>
          <path id="Path_68214" data-name="Path 68214" d="M971.88,1849.631a86.982,86.982,0,1,0,0,123.018A86.984,86.984,0,0,0,971.88,1849.631Zm-12.308,110.728a69.588,69.588,0,1,1,.014-98.434A69.583,69.583,0,0,1,959.572,1960.358Z" transform="translate(-823.391 -1824.159)" fill="#14475f"/>
          <path id="Path_68215" data-name="Path 68215" d="M889.486,1866.982l54.42,54.419a16.453,16.453,0,0,1-23.268,23.269l-54.42-54.419Z" transform="translate(-710.999 -1711.777)" fill="#14475f"/>
          <path id="Path_68216" data-name="Path 68216" d="M891.755,1869.279l-23.247,23.247-1.435-1.435a5.867,5.867,0,0,1-.014-8.3l14.972-14.976a5.825,5.825,0,0,1,4.143-1.707,5.891,5.891,0,0,1,4.146,1.732Z" transform="translate(-713.282 -1714.059)" fill="#0c001f"/>
        </g>
      </g>
    </g>
  </g>
</svg>
