<svg xmlns="http://www.w3.org/2000/svg" xmlns:xlink="http://www.w3.org/1999/xlink" width="406.286" height="310.273" viewBox="0 0 406.286 310.273">
  <defs>
    <clipPath id="clip-path">
      <rect id="SVGID" width="66.12" height="80.186" fill="none"/>
    </clipPath>
  </defs>
  <g id="Group_23973" data-name="Group 23973" transform="translate(-1016.275 -1820.034)">
    <g id="Group_23903" data-name="Group 23903" transform="translate(1016.275 1829.071)" opacity="0.1" style="mix-blend-mode: multiply;isolation: isolate">
      <path id="Path_68217" data-name="Path 68217" d="M1026.488,2060.941V1855.085a11.735,11.735,0,0,1,3.359-8.3,11.253,11.253,0,0,1,8.1-3.425h321.838a11.2,11.2,0,0,1,8.1,3.422,11.743,11.743,0,0,1,3.377,8.305v205.856Z" transform="translate(-995.723 -1782.135)"/>
      <path id="Path_68218" data-name="Path 68218" d="M1360.288,1844.611a10.477,10.477,0,0,1,7.567,3.2,11.012,11.012,0,0,1,3.157,7.775v205.1H1027.744v-205.1a10.99,10.99,0,0,1,3.145-7.778,10.52,10.52,0,0,1,7.561-3.2h321.838m0-1.5H1038.45a12.009,12.009,0,0,0-8.636,3.651,12.522,12.522,0,0,0-3.576,8.829V2062.2h346.277V1855.588a12.538,12.538,0,0,0-3.591-8.829,11.984,11.984,0,0,0-8.636-3.651Z" transform="translate(-996.226 -1782.638)"/>
      <path id="Path_68219" data-name="Path 68219" d="M1422.561,1920.317a20.374,20.374,0,0,1-20.357,20.358H1036.651a20.375,20.375,0,0,1-20.376-20.358v-6.049h406.286Z" transform="translate(-1016.275 -1639.438)"/>
      <path id="Path_68220" data-name="Path 68220" d="M1156.286,1916.169a7.554,7.554,0,0,1-7.57,7.558h-71.878a7.585,7.585,0,0,1-7.57-7.558v-1.9h87.018Z" transform="translate(-909.634 -1639.438)"/>
      <rect id="Rectangle_4992" data-name="Rectangle 4992" width="316.223" height="184.327" transform="translate(45.031 75.486)"/>
      <path id="Path_68221" data-name="Path 68221" d="M1318,2011.836a8.331,8.331,0,0,1-8.305,8.305h-264.3a8.331,8.331,0,0,1-8.308-8.305V1833.48H1318Z" transform="translate(-974.4 -1802.013)"/>
      <path id="Path_68222" data-name="Path 68222" d="M1318,1848.464H1037.084v-14.125a8.31,8.31,0,0,1,8.308-8.305h264.3a8.31,8.31,0,0,1,8.305,8.305Z" transform="translate(-974.4 -1816.997)"/>
      <path id="Path_68223" data-name="Path 68223" d="M1047.5,1831.873a2.909,2.909,0,1,1-2.907-2.91A2.907,2.907,0,0,1,1047.5,1831.873Z" transform="translate(-965.155 -1811.103)"/>
      <path id="Path_68224" data-name="Path 68224" d="M1050.4,1831.873a2.911,2.911,0,1,1-2.907-2.91A2.911,2.911,0,0,1,1050.4,1831.873Z" transform="translate(-959.323 -1811.103)"/>
      <path id="Path_68225" data-name="Path 68225" d="M1053.3,1831.873a2.911,2.911,0,1,1-2.91-2.91A2.911,2.911,0,0,1,1053.3,1831.873Z" transform="translate(-953.49 -1811.103)"/>
      <g id="Group_23900" data-name="Group 23900" transform="translate(84.868 53.651)">
        <g id="Group_23899" data-name="Group 23899" clip-path="url(#clip-path)">
          <rect id="Rectangle_4993" data-name="Rectangle 4993" width="66.12" height="93.941"/>
          <path id="Path_68226" data-name="Path 68226" d="M1071.412,1856.517h-16.978a11.134,11.134,0,0,1,.2,2.485,14.548,14.548,0,0,1-2.931,7.7h22.43c-1.72-2.889-2.76-5.181-2.88-7.742A11.628,11.628,0,0,1,1071.412,1856.517Z" transform="translate(-1029.845 -1809.305)"/>
          <path id="Path_68227" data-name="Path 68227" d="M1072.177,1859.747l-16.758,41.233h35.38l-2.177-26.605C1088.622,1868.019,1082.314,1862.642,1072.177,1859.747Z" transform="translate(-1022.371 -1802.806)"/>
          <path id="Path_68228" data-name="Path 68228" d="M1061.4,1860.58h0c-1.837,1.443-4.223,3.006-5.977,3.025v40.522l.136-.313,14.381-34.7,2.515-6.055c-2.124-.615-8.263-4.919-8.263-4.919A36.6,36.6,0,0,1,1061.4,1860.58Z" transform="translate(-1022.375 -1806.033)"/>
          <path id="Path_68229" data-name="Path 68229" d="M1055.419,1863.6v40.532l17.026-41.068c-2.127-.609-8.263-4.919-8.263-4.919S1058.691,1863.568,1055.419,1863.6Z" transform="translate(-1022.371 -1806.033)"/>
          <path id="Path_68230" data-name="Path 68230" d="M1045.863,1874.375l-2.181,26.605h35.386l-16.764-41.233C1052.168,1862.642,1045.863,1868.019,1045.863,1874.375Z" transform="translate(-1045.99 -1802.806)"/>
          <path id="Path_68231" data-name="Path 68231" d="M1049.777,1863.063l17.026,41.068V1863.6c-3.278-.03-8.769-5.456-8.769-5.456S1051.9,1862.454,1049.777,1863.063Z" transform="translate(-1033.725 -1806.033)"/>
          <path id="Path_68232" data-name="Path 68232" d="M1061.392,1858.952l-5.974,2.157v41.028l.051.047h.082l14.382-34.7-8.536-8.537Z" transform="translate(-1022.374 -1804.405)" opacity="0.1"/>
          <path id="Path_68233" data-name="Path 68233" d="M1055.419,1862.74v41.024l6-17-4.778-19.875,7.542-8.743Z" transform="translate(-1022.371 -1806.032)"/>
          <path id="Path_68234" data-name="Path 68234" d="M1060.03,1866.887l-4.778,19.875,6.005,17V1862.74l-8.739-4.6Z" transform="translate(-1028.209 -1806.032)"/>
          <path id="Path_68235" data-name="Path 68235" d="M1052.813,1859c2.4,2.187,5.239,4.473,8.287,4.473,3.07,0,5.922-2.322,8.332-4.516a11.628,11.628,0,0,1,.157-2.443h-16.978A11.134,11.134,0,0,1,1052.813,1859Z" transform="translate(-1028.022 -1809.305)" opacity="0.07"/>
          <path id="Path_68236" data-name="Path 68236" d="M1066.916,1846.68a66.232,66.232,0,0,1-11.679-1.04,26.5,26.5,0,0,0-4.973,16c0,12.071,6.968,21.852,15.559,21.852s15.553-9.781,15.553-21.852a26.715,26.715,0,0,0-4.736-15.691A65.671,65.671,0,0,1,1066.916,1846.68Z" transform="translate(-1032.745 -1831.191)"/>
          <path id="Path_68237" data-name="Path 68237" d="M1086.635,1847.205c-1.323.148-2.612-.129-3,1.316-.132-2.928-9.025-4.886-15.508-2.3-4.771,1.907-8.42-4.745-14.056-3.136-5.2,1.479-8.648,10-2.838,16.631,1.732,1.973.455,1.512,3.371,10.9l2.376-9.64c5.034.347,10.727-.8,14.309-1.256,2.69-.34,10.676-.816,11.559-5l2.518,15.893C1086.792,1857.827,1092.612,1847.771,1086.635,1847.205Z" transform="translate(-1036.893 -1836.834)"/>
          <path id="Path_68238" data-name="Path 68238" d="M1054.112,1845.934c-1.087-.554-1.244-1.811-3.169-1.112a5.326,5.326,0,0,0-1.133,3.949c.136,1.148.609,1.308.768,1.359a4.173,4.173,0,0,1,1.033.509l1.781.121c4.859.337,8.419-1.879,14.721-4.588l-8.884,1.106A10.964,10.964,0,0,1,1054.112,1845.934Z" transform="translate(-1033.724 -1833.255)"/>
        </g>
      </g>
      <rect id="Rectangle_4994" data-name="Rectangle 4994" width="54.424" height="7.019" transform="translate(84.868 188.926)"/>
      <rect id="Rectangle_4995" data-name="Rectangle 4995" width="66.12" height="7.019" transform="translate(84.868 145.706)"/>
      <rect id="Rectangle_4996" data-name="Rectangle 4996" width="66.12" height="7.019" transform="translate(84.868 159.743)"/>
      <rect id="Rectangle_4997" data-name="Rectangle 4997" width="66.12" height="7.019" transform="translate(84.868 174.889)"/>
      <rect id="Rectangle_4998" data-name="Rectangle 4998" width="146.869" height="7.019" transform="translate(174.545 106.561)"/>
      <rect id="Rectangle_4999" data-name="Rectangle 4999" width="146.869" height="7.019" transform="translate(174.545 119.8)"/>
      <rect id="Rectangle_5000" data-name="Rectangle 5000" width="146.869" height="7.019" transform="translate(174.545 133.837)"/>
      <rect id="Rectangle_5001" data-name="Rectangle 5001" width="56.933" height="7.019" transform="translate(264.489 75.291)"/>
      <rect id="Rectangle_5002" data-name="Rectangle 5002" width="56.927" height="7.019" transform="translate(264.488 88.522)"/>
      <rect id="Rectangle_5003" data-name="Rectangle 5003" width="56.927" height="7.019" transform="translate(264.488 62.053)"/>
      <rect id="Rectangle_5004" data-name="Rectangle 5004" width="7.018" height="7.019" transform="translate(250.452 62.053)"/>
      <rect id="Rectangle_5005" data-name="Rectangle 5005" width="7.019" height="7.019" transform="translate(250.452 75.291)"/>
      <rect id="Rectangle_5006" data-name="Rectangle 5006" width="7.018" height="7.019" transform="translate(250.452 88.522)"/>
      <path id="Path_68239" data-name="Path 68239" d="M1078.258,1871.905l3.2-1.939V1847.02l-3.2,1.938Z" transform="translate(-891.543 -1774.767)"/>
      <path id="Path_68240" data-name="Path 68240" d="M1074.218,1848.934h12.17l3.2-1.9h-12.019Z" transform="translate(-899.673 -1774.743)"/>
      <rect id="Rectangle_5007" data-name="Rectangle 5007" width="12.17" height="22.948" transform="translate(174.545 74.19)"/>
      <path id="Path_68241" data-name="Path 68241" d="M1085.273,1877.042l3.2-2.386v-30.19l-3.2,2.386Z" transform="translate(-877.427 -1779.904)"/>
      <path id="Path_68242" data-name="Path 68242" d="M1081.233,1846.853H1093.4l3.2-2.386h-12.019Z" transform="translate(-885.557 -1779.904)"/>
      <rect id="Rectangle_5008" data-name="Rectangle 5008" width="12.169" height="30.19" transform="translate(195.676 66.949)"/>
      <path id="Path_68243" data-name="Path 68243" d="M1092.287,1884.332l3.2-3.021v-40.467l-3.2,3.021Z" transform="translate(-863.311 -1787.194)"/>
      <path id="Path_68244" data-name="Path 68244" d="M1088.248,1843.865h12.169l3.2-3.021H1091.6Z" transform="translate(-871.44 -1787.194)"/>
      <rect id="Rectangle_5009" data-name="Rectangle 5009" width="12.169" height="40.467" transform="translate(216.807 56.671)"/>
      <path id="Path_68245" data-name="Path 68245" d="M1099.648,1882.924a13.875,13.875,0,0,1-12.878,9.63c-.112,0-.22.015-.331.015a13.768,13.768,0,0,1-6.209-1.479l-2.567,5.3a19.632,19.632,0,0,0,8.775,2.076c.114,0,.226-.015.34-.018a19.812,19.812,0,0,0,18.568-13.986Z" transform="translate(-892.74 -1702.514)"/>
      <path id="Path_68246" data-name="Path 68246" d="M1093.781,1880.855c.1,0,.193.012.289.015l-.009-5.9c-.094,0-.187-.012-.28-.012a19.751,19.751,0,0,0-8.775,37.458l2.567-5.3a13.866,13.866,0,0,1,6.209-26.262Z" transform="translate(-900.083 -1718.541)"/>
      <path id="Path_68247" data-name="Path 68247" d="M1080.669,1874.964l.009,5.9a13.864,13.864,0,0,1,13.583,13.857l-.006.093a13.749,13.749,0,0,1-.656,4.13l5.7,1.54a19.769,19.769,0,0,0,.852-5.669l.006-.093A19.759,19.759,0,0,0,1080.669,1874.964Z" transform="translate(-886.691 -1718.532)"/>
      <path id="Path_68248" data-name="Path 68248" d="M1122.277,1887.112a13.785,13.785,0,0,1-6.208-1.479l-2.563,5.3a19.656,19.656,0,0,0,8.772,2.073c.114,0,.226-.015.341-.019l-.009-5.892C1122.5,1887.1,1122.388,1887.112,1122.277,1887.112Z" transform="translate(-820.613 -1697.062)"/>
      <path id="Path_68249" data-name="Path 68249" d="M1115.9,1884.128l-4.9,3.274a19.857,19.857,0,0,0,7.555,6.561l2.563-5.3A13.913,13.913,0,0,1,1115.9,1884.128Z" transform="translate(-825.66 -1700.091)"/>
      <path id="Path_68250" data-name="Path 68250" d="M1130.056,1881.327a10.528,10.528,0,0,1-.656,4.47,14.453,14.453,0,0,1-3.266,5.6,13.89,13.89,0,0,1-9.606,4.28l.009,5.935a19.657,19.657,0,0,0,13.914-6.061,20.989,20.989,0,0,0,4.645-8.227,18.2,18.2,0,0,0,.853-6Z" transform="translate(-814.532 -1705.728)" opacity="0.4"/>
      <path id="Path_68251" data-name="Path 68251" d="M1129.9,1874.977c-.1,0-.187-.015-.28-.015a19.755,19.755,0,0,0-16.327,30.886l4.9-3.274a13.865,13.865,0,0,1,11.423-21.716c.1,0,.19.012.289.015Z" transform="translate(-827.954 -1718.536)"/>
      <path id="Path_68252" data-name="Path 68252" d="M1130.093,1894.713l0,.093h5.892l.006-.093a19.75,19.75,0,0,0-19.478-19.746l.009,5.9A13.855,13.855,0,0,1,1130.093,1894.713Z" transform="translate(-814.566 -1718.526)"/>
      <path id="Path_68253" data-name="Path 68253" d="M1112.133,1881.559a8.719,8.719,0,0,1-.654,4.118,13.867,13.867,0,0,1-12.872,9.618l.009,5.9a19.814,19.814,0,0,0,18.559-13.975,16.019,16.019,0,0,0,.853-5.657Z" transform="translate(-850.593 -1705.261)"/>
      <path id="Path_68254" data-name="Path 68254" d="M1112.03,1908.571c-.112,0-.22.015-.335.015a13.77,13.77,0,0,1-6.205-1.479,13.86,13.86,0,0,1,6.205-26.25c.1,0,.193.012.289.015l-.009-5.9c-.094,0-.184-.015-.28-.015a19.76,19.76,0,0,0,0,39.52c.118,0,.229-.015.344-.019Z" transform="translate(-864.016 -1718.536)"/>
      <path id="Path_68255" data-name="Path 68255" d="M1112.175,1894.713l-.006.093h5.9l.006-.093a19.75,19.75,0,0,0-19.481-19.746l.009,5.9A13.857,13.857,0,0,1,1112.175,1894.713Z" transform="translate(-850.63 -1718.526)"/>
      <path id="Path_68256" data-name="Path 68256" d="M1318,2008.836a8.331,8.331,0,0,1-8.305,8.305h-264.3a8.331,8.331,0,0,1-8.308-8.305V1830.48H1318Z" transform="translate(-974.4 -1808.05)"/>
      <path id="Path_68257" data-name="Path 68257" d="M1318,1845.464H1037.084v-14.125a8.31,8.31,0,0,1,8.308-8.305h264.3a8.31,8.31,0,0,1,8.305,8.305Z" transform="translate(-974.4 -1823.034)"/>
      <path id="Path_68258" data-name="Path 68258" d="M1047.5,1828.873a2.909,2.909,0,1,1-2.907-2.91A2.907,2.907,0,0,1,1047.5,1828.873Z" transform="translate(-965.155 -1817.14)"/>
      <path id="Path_68259" data-name="Path 68259" d="M1050.4,1828.873a2.911,2.911,0,1,1-2.907-2.91A2.911,2.911,0,0,1,1050.4,1828.873Z" transform="translate(-959.323 -1817.14)"/>
      <path id="Path_68260" data-name="Path 68260" d="M1053.3,1828.873a2.911,2.911,0,1,1-2.91-2.91A2.911,2.911,0,0,1,1053.3,1828.873Z" transform="translate(-953.49 -1817.14)"/>
      <g id="Group_23902" data-name="Group 23902" transform="translate(84.868 44.614)">
        <g id="Group_23901" data-name="Group 23901" clip-path="url(#clip-path)">
          <rect id="Rectangle_5010" data-name="Rectangle 5010" width="66.12" height="93.941"/>
          <path id="Path_68261" data-name="Path 68261" d="M1071.412,1853.517h-16.978a11.137,11.137,0,0,1,.2,2.485,14.548,14.548,0,0,1-2.931,7.7h22.43c-1.72-2.889-2.76-5.181-2.88-7.742A11.628,11.628,0,0,1,1071.412,1853.517Z" transform="translate(-1029.845 -1806.305)"/>
          <path id="Path_68262" data-name="Path 68262" d="M1072.177,1856.747l-16.758,41.233h35.38l-2.177-26.605C1088.622,1865.019,1082.314,1859.642,1072.177,1856.747Z" transform="translate(-1022.371 -1799.806)"/>
          <path id="Path_68263" data-name="Path 68263" d="M1061.4,1857.581h0c-1.837,1.443-4.223,3.006-5.977,3.024v40.522l.136-.313,14.381-34.7,2.515-6.055c-2.124-.615-8.263-4.919-8.263-4.919A36.662,36.662,0,0,1,1061.4,1857.581Z" transform="translate(-1022.375 -1803.033)"/>
          <path id="Path_68264" data-name="Path 68264" d="M1055.419,1860.6v40.532l17.026-41.068c-2.127-.608-8.263-4.919-8.263-4.919S1058.691,1860.568,1055.419,1860.6Z" transform="translate(-1022.371 -1803.033)"/>
          <path id="Path_68265" data-name="Path 68265" d="M1045.863,1871.375l-2.181,26.605h35.386l-16.764-41.233C1052.168,1859.642,1045.863,1865.019,1045.863,1871.375Z" transform="translate(-1045.99 -1799.806)"/>
          <path id="Path_68266" data-name="Path 68266" d="M1049.777,1860.063l17.026,41.068V1860.6c-3.278-.03-8.769-5.456-8.769-5.456S1051.9,1859.454,1049.777,1860.063Z" transform="translate(-1033.725 -1803.033)"/>
          <path id="Path_68267" data-name="Path 68267" d="M1061.392,1855.952l-5.974,2.157v41.028l.051.047h.082l14.382-34.7-8.536-8.537Z" transform="translate(-1022.374 -1801.405)" opacity="0.1"/>
          <path id="Path_68268" data-name="Path 68268" d="M1055.419,1859.74v41.024l6-17-4.778-19.875,7.542-8.743Z" transform="translate(-1022.371 -1803.032)"/>
          <path id="Path_68269" data-name="Path 68269" d="M1060.03,1863.887l-4.778,19.875,6.005,17V1859.74l-8.739-4.6Z" transform="translate(-1028.209 -1803.032)"/>
          <path id="Path_68270" data-name="Path 68270" d="M1052.813,1856c2.4,2.187,5.239,4.473,8.287,4.473,3.07,0,5.922-2.322,8.332-4.516a11.628,11.628,0,0,1,.157-2.443h-16.978A11.137,11.137,0,0,1,1052.813,1856Z" transform="translate(-1028.022 -1806.305)" opacity="0.07"/>
          <path id="Path_68271" data-name="Path 68271" d="M1066.916,1843.68a66.232,66.232,0,0,1-11.679-1.04,26.5,26.5,0,0,0-4.973,16c0,12.071,6.968,21.852,15.559,21.852s15.553-9.781,15.553-21.852a26.715,26.715,0,0,0-4.736-15.691A65.671,65.671,0,0,1,1066.916,1843.68Z" transform="translate(-1032.745 -1828.191)"/>
          <path id="Path_68272" data-name="Path 68272" d="M1086.635,1844.205c-1.323.148-2.612-.129-3,1.316-.132-2.928-9.025-4.886-15.508-2.3-4.771,1.907-8.42-4.745-14.056-3.136-5.2,1.479-8.648,10-2.838,16.631,1.732,1.973.455,1.512,3.371,10.9l2.376-9.64c5.034.347,10.727-.8,14.309-1.256,2.69-.34,10.676-.816,11.559-5l2.518,15.893C1086.792,1854.827,1092.612,1844.771,1086.635,1844.205Z" transform="translate(-1036.893 -1833.834)"/>
          <path id="Path_68273" data-name="Path 68273" d="M1054.112,1842.934c-1.087-.554-1.244-1.811-3.169-1.112a5.326,5.326,0,0,0-1.133,3.949c.136,1.148.609,1.308.768,1.359a4.173,4.173,0,0,1,1.033.509l1.781.121c4.859.337,8.419-1.879,14.721-4.588l-8.884,1.106A10.964,10.964,0,0,1,1054.112,1842.934Z" transform="translate(-1033.724 -1830.255)"/>
        </g>
      </g>
      <rect id="Rectangle_5011" data-name="Rectangle 5011" width="54.424" height="7.019" transform="translate(84.868 179.889)"/>
      <rect id="Rectangle_5012" data-name="Rectangle 5012" width="66.12" height="7.019" transform="translate(84.868 136.669)"/>
      <rect id="Rectangle_5013" data-name="Rectangle 5013" width="66.12" height="7.019" transform="translate(84.868 150.706)"/>
      <rect id="Rectangle_5014" data-name="Rectangle 5014" width="66.12" height="7.019" transform="translate(84.868 165.852)"/>
      <rect id="Rectangle_5015" data-name="Rectangle 5015" width="146.869" height="7.019" transform="translate(174.545 97.524)"/>
      <rect id="Rectangle_5016" data-name="Rectangle 5016" width="146.869" height="7.019" transform="translate(174.545 110.763)"/>
      <rect id="Rectangle_5017" data-name="Rectangle 5017" width="146.869" height="7.019" transform="translate(174.545 124.8)"/>
      <rect id="Rectangle_5018" data-name="Rectangle 5018" width="56.933" height="7.019" transform="translate(264.489 66.254)"/>
      <rect id="Rectangle_5019" data-name="Rectangle 5019" width="56.927" height="7.019" transform="translate(264.488 79.485)"/>
      <rect id="Rectangle_5020" data-name="Rectangle 5020" width="56.927" height="7.019" transform="translate(264.488 53.016)"/>
      <rect id="Rectangle_5021" data-name="Rectangle 5021" width="7.018" height="7.019" transform="translate(250.452 53.016)"/>
      <rect id="Rectangle_5022" data-name="Rectangle 5022" width="7.019" height="7.019" transform="translate(250.452 66.254)"/>
      <rect id="Rectangle_5023" data-name="Rectangle 5023" width="7.018" height="7.019" transform="translate(250.452 79.485)"/>
      <path id="Path_68274" data-name="Path 68274" d="M1078.258,1868.905l3.2-1.939V1844.02l-3.2,1.938Z" transform="translate(-891.543 -1780.804)"/>
      <path id="Path_68275" data-name="Path 68275" d="M1074.218,1845.934h12.17l3.2-1.9h-12.019Z" transform="translate(-899.673 -1780.78)"/>
      <rect id="Rectangle_5024" data-name="Rectangle 5024" width="12.17" height="22.948" transform="translate(174.545 65.153)"/>
      <path id="Path_68276" data-name="Path 68276" d="M1085.273,1874.042l3.2-2.386v-30.189l-3.2,2.385Z" transform="translate(-877.427 -1785.941)"/>
      <path id="Path_68277" data-name="Path 68277" d="M1081.233,1843.853H1093.4l3.2-2.385h-12.019Z" transform="translate(-885.557 -1785.941)"/>
      <rect id="Rectangle_5025" data-name="Rectangle 5025" width="12.169" height="30.19" transform="translate(195.676 57.912)"/>
      <path id="Path_68278" data-name="Path 68278" d="M1092.287,1881.332l3.2-3.021v-40.467l-3.2,3.021Z" transform="translate(-863.311 -1793.231)"/>
      <path id="Path_68279" data-name="Path 68279" d="M1088.248,1840.865h12.169l3.2-3.021H1091.6Z" transform="translate(-871.44 -1793.231)"/>
      <rect id="Rectangle_5026" data-name="Rectangle 5026" width="12.169" height="40.467" transform="translate(216.807 47.634)"/>
      <path id="Path_68280" data-name="Path 68280" d="M1099.648,1879.924a13.875,13.875,0,0,1-12.878,9.63c-.112,0-.22.015-.331.015a13.768,13.768,0,0,1-6.209-1.479l-2.567,5.3a19.625,19.625,0,0,0,8.775,2.076c.114,0,.226-.015.34-.018a19.812,19.812,0,0,0,18.568-13.986Z" transform="translate(-892.74 -1708.551)"/>
      <path id="Path_68281" data-name="Path 68281" d="M1093.781,1877.855c.1,0,.193.012.289.015l-.009-5.9c-.094,0-.187-.012-.28-.012a19.751,19.751,0,0,0-8.775,37.458l2.567-5.3a13.866,13.866,0,0,1,6.209-26.262Z" transform="translate(-900.083 -1724.578)"/>
      <path id="Path_68282" data-name="Path 68282" d="M1080.669,1871.964l.009,5.9a13.864,13.864,0,0,1,13.583,13.857l-.006.093a13.749,13.749,0,0,1-.656,4.13l5.7,1.54a19.769,19.769,0,0,0,.852-5.669l.006-.093A19.759,19.759,0,0,0,1080.669,1871.964Z" transform="translate(-886.691 -1724.569)"/>
      <path id="Path_68283" data-name="Path 68283" d="M1122.277,1884.112a13.778,13.778,0,0,1-6.208-1.479l-2.563,5.3a19.656,19.656,0,0,0,8.772,2.073c.114,0,.226-.015.341-.019l-.009-5.892C1122.5,1884.1,1122.388,1884.112,1122.277,1884.112Z" transform="translate(-820.613 -1703.099)"/>
      <path id="Path_68284" data-name="Path 68284" d="M1115.9,1881.128l-4.9,3.274a19.857,19.857,0,0,0,7.555,6.561l2.563-5.3A13.916,13.916,0,0,1,1115.9,1881.128Z" transform="translate(-825.66 -1706.128)"/>
      <path id="Path_68285" data-name="Path 68285" d="M1130.056,1878.327a10.528,10.528,0,0,1-.656,4.47,14.453,14.453,0,0,1-3.266,5.6,13.89,13.89,0,0,1-9.606,4.28l.009,5.935a19.657,19.657,0,0,0,13.914-6.061,20.989,20.989,0,0,0,4.645-8.227,18.2,18.2,0,0,0,.853-6Z" transform="translate(-814.532 -1711.765)" opacity="0.4"/>
      <path id="Path_68286" data-name="Path 68286" d="M1129.9,1871.977c-.1,0-.187-.015-.28-.015a19.755,19.755,0,0,0-16.327,30.886l4.9-3.274a13.865,13.865,0,0,1,11.423-21.717c.1,0,.19.012.289.015Z" transform="translate(-827.954 -1724.573)"/>
      <path id="Path_68287" data-name="Path 68287" d="M1130.093,1891.713l0,.093h5.892l.006-.093a19.75,19.75,0,0,0-19.478-19.746l.009,5.9A13.855,13.855,0,0,1,1130.093,1891.713Z" transform="translate(-814.566 -1724.563)"/>
      <path id="Path_68288" data-name="Path 68288" d="M1112.133,1878.559a8.719,8.719,0,0,1-.654,4.118,13.867,13.867,0,0,1-12.872,9.618l.009,5.9a19.814,19.814,0,0,0,18.559-13.975,16.019,16.019,0,0,0,.853-5.657Z" transform="translate(-850.593 -1711.298)"/>
      <path id="Path_68289" data-name="Path 68289" d="M1112.03,1905.571c-.112,0-.22.015-.335.015a13.764,13.764,0,0,1-6.205-1.479,13.86,13.86,0,0,1,6.205-26.25c.1,0,.193.012.289.015l-.009-5.9c-.094,0-.184-.015-.28-.015a19.76,19.76,0,0,0,0,39.52c.118,0,.229-.015.344-.019Z" transform="translate(-864.016 -1724.573)"/>
      <path id="Path_68290" data-name="Path 68290" d="M1112.175,1891.713l-.006.093h5.9l.006-.093a19.75,19.75,0,0,0-19.481-19.746l.009,5.9A13.857,13.857,0,0,1,1112.175,1891.713Z" transform="translate(-850.63 -1724.563)"/>
    </g>
    <g id="Group_23972" data-name="Group 23972" transform="translate(1016.275 1820.034)">
      <g id="Group_23957" data-name="Group 23957">
        <g id="Group_23956" data-name="Group 23956">
          <g id="Group_23919" data-name="Group 23919" transform="translate(30.012 60.47)">
            <path id="Path_68291" data-name="Path 68291" d="M1026.488,2057.941V1852.085a11.735,11.735,0,0,1,3.359-8.3,11.253,11.253,0,0,1,8.1-3.425h321.838a11.2,11.2,0,0,1,8.1,3.422,11.743,11.743,0,0,1,3.377,8.305v205.856Z" transform="translate(-1025.735 -1839.605)" fill="#303030"/>
            <g id="Group_23918" data-name="Group 23918">
              <path id="Path_68292" data-name="Path 68292" d="M1360.288,1841.611a10.477,10.477,0,0,1,7.567,3.2,11.012,11.012,0,0,1,3.157,7.775v205.1H1027.744v-205.1a10.99,10.99,0,0,1,3.145-7.778,10.52,10.52,0,0,1,7.561-3.2h321.838m0-1.5H1038.45a12.009,12.009,0,0,0-8.636,3.651,12.522,12.522,0,0,0-3.576,8.829V2059.2h346.277V1852.588a12.538,12.538,0,0,0-3.591-8.829,11.984,11.984,0,0,0-8.636-3.651Z" transform="translate(-1026.238 -1840.108)" fill="#58595b"/>
            </g>
          </g>
          <g id="Group_23920" data-name="Group 23920" transform="translate(0 274.83)">
            <path id="Path_68293" data-name="Path 68293" d="M1422.561,1917.317a20.374,20.374,0,0,1-20.357,20.358H1036.651a20.375,20.375,0,0,1-20.376-20.358v-6.049h406.286Z" transform="translate(-1016.275 -1911.268)" fill="#f2f2f0"/>
          </g>
          <g id="Group_23921" data-name="Group 23921" transform="translate(159.634 274.83)">
            <path id="Path_68294" data-name="Path 68294" d="M1156.286,1913.169a7.554,7.554,0,0,1-7.57,7.558h-71.878a7.585,7.585,0,0,1-7.57-7.558v-1.9h87.018Z" transform="translate(-1069.268 -1911.268)" fill="#e1e1e1"/>
          </g>
          <path id="Path_76448" data-name="Path 76448" d="M0,0H316.223V184.327H0Z" transform="translate(45.031 75.486)" fill="#0caba7"/>
          <g id="Group_23955" data-name="Group 23955" transform="translate(62.684)">
            <g id="Group_23924" data-name="Group 23924" transform="translate(0 9.037)" opacity="0.1" style="mix-blend-mode: multiply;isolation: isolate">
              <path id="Path_68295" data-name="Path 68295" d="M1318,2008.836a8.331,8.331,0,0,1-8.305,8.305h-264.3a8.331,8.331,0,0,1-8.308-8.305V1830.48H1318Z" transform="translate(-1037.084 -1808.05)"/>
              <path id="Path_68296" data-name="Path 68296" d="M1318,1845.464H1037.084v-14.125a8.31,8.31,0,0,1,8.308-8.305h264.3a8.31,8.31,0,0,1,8.305,8.305Z" transform="translate(-1037.084 -1823.034)"/>
              <path id="Path_68297" data-name="Path 68297" d="M1047.5,1828.873a2.909,2.909,0,1,1-2.907-2.91A2.907,2.907,0,0,1,1047.5,1828.873Z" transform="translate(-1027.839 -1817.14)"/>
              <path id="Path_68298" data-name="Path 68298" d="M1050.4,1828.873a2.911,2.911,0,1,1-2.907-2.91A2.911,2.911,0,0,1,1050.4,1828.873Z" transform="translate(-1022.007 -1817.14)"/>
              <path id="Path_68299" data-name="Path 68299" d="M1053.3,1828.873a2.911,2.911,0,1,1-2.91-2.91A2.911,2.911,0,0,1,1053.3,1828.873Z" transform="translate(-1016.174 -1817.14)"/>
              <g id="Group_23923" data-name="Group 23923" transform="translate(22.184 44.614)">
                <g id="Group_23922" data-name="Group 23922" clip-path="url(#clip-path)">
                  <rect id="Rectangle_5028" data-name="Rectangle 5028" width="66.12" height="93.941"/>
                  <path id="Path_68300" data-name="Path 68300" d="M1071.412,1853.517h-16.978a11.137,11.137,0,0,1,.2,2.485,14.548,14.548,0,0,1-2.931,7.7h22.43c-1.72-2.889-2.76-5.181-2.88-7.742A11.628,11.628,0,0,1,1071.412,1853.517Z" transform="translate(-1029.845 -1806.305)"/>
                  <path id="Path_68301" data-name="Path 68301" d="M1072.177,1856.747l-16.758,41.233h35.38l-2.177-26.605C1088.622,1865.019,1082.314,1859.642,1072.177,1856.747Z" transform="translate(-1022.371 -1799.806)"/>
                  <path id="Path_68302" data-name="Path 68302" d="M1061.4,1857.581h0c-1.837,1.443-4.223,3.006-5.977,3.024v40.522l.136-.313,14.381-34.7,2.515-6.055c-2.124-.615-8.263-4.919-8.263-4.919A36.662,36.662,0,0,1,1061.4,1857.581Z" transform="translate(-1022.375 -1803.033)"/>
                  <path id="Path_68303" data-name="Path 68303" d="M1055.419,1860.6v40.532l17.026-41.068c-2.127-.608-8.263-4.919-8.263-4.919S1058.691,1860.568,1055.419,1860.6Z" transform="translate(-1022.371 -1803.033)"/>
                  <path id="Path_68304" data-name="Path 68304" d="M1045.863,1871.375l-2.181,26.605h35.386l-16.764-41.233C1052.168,1859.642,1045.863,1865.019,1045.863,1871.375Z" transform="translate(-1045.99 -1799.806)"/>
                  <path id="Path_68305" data-name="Path 68305" d="M1049.777,1860.063l17.026,41.068V1860.6c-3.278-.03-8.769-5.456-8.769-5.456S1051.9,1859.454,1049.777,1860.063Z" transform="translate(-1033.725 -1803.033)"/>
                  <path id="Path_68306" data-name="Path 68306" d="M1061.392,1855.952l-5.974,2.157v41.028l.051.047h.082l14.382-34.7-8.536-8.537Z" transform="translate(-1022.374 -1801.405)" opacity="0.1"/>
                  <path id="Path_68307" data-name="Path 68307" d="M1055.419,1859.74v41.024l6-17-4.778-19.875,7.542-8.743Z" transform="translate(-1022.371 -1803.032)"/>
                  <path id="Path_68308" data-name="Path 68308" d="M1060.03,1863.887l-4.778,19.875,6.005,17V1859.74l-8.739-4.6Z" transform="translate(-1028.209 -1803.032)"/>
                  <path id="Path_68309" data-name="Path 68309" d="M1052.813,1856c2.4,2.187,5.239,4.473,8.287,4.473,3.07,0,5.922-2.322,8.332-4.516a11.628,11.628,0,0,1,.157-2.443h-16.978A11.137,11.137,0,0,1,1052.813,1856Z" transform="translate(-1028.022 -1806.305)" opacity="0.07"/>
                  <path id="Path_68310" data-name="Path 68310" d="M1066.916,1843.68a66.232,66.232,0,0,1-11.679-1.04,26.5,26.5,0,0,0-4.973,16c0,12.071,6.968,21.852,15.559,21.852s15.553-9.781,15.553-21.852a26.715,26.715,0,0,0-4.736-15.691A65.671,65.671,0,0,1,1066.916,1843.68Z" transform="translate(-1032.745 -1828.191)"/>
                  <path id="Path_68311" data-name="Path 68311" d="M1086.635,1844.205c-1.323.148-2.612-.129-3,1.316-.132-2.928-9.025-4.886-15.508-2.3-4.771,1.907-8.42-4.745-14.056-3.136-5.2,1.479-8.648,10-2.838,16.631,1.732,1.973.455,1.512,3.371,10.9l2.376-9.64c5.034.347,10.727-.8,14.309-1.256,2.69-.34,10.676-.816,11.559-5l2.518,15.893C1086.792,1854.827,1092.612,1844.771,1086.635,1844.205Z" transform="translate(-1036.893 -1833.834)"/>
                  <path id="Path_68312" data-name="Path 68312" d="M1054.112,1842.934c-1.087-.554-1.244-1.811-3.169-1.112a5.326,5.326,0,0,0-1.133,3.949c.136,1.148.609,1.308.768,1.359a4.173,4.173,0,0,1,1.033.509l1.781.121c4.859.337,8.419-1.879,14.721-4.588l-8.884,1.106A10.964,10.964,0,0,1,1054.112,1842.934Z" transform="translate(-1033.724 -1830.255)"/>
                </g>
              </g>
              <rect id="Rectangle_5029" data-name="Rectangle 5029" width="54.424" height="7.019" transform="translate(22.184 179.889)"/>
              <rect id="Rectangle_5030" data-name="Rectangle 5030" width="66.12" height="7.019" transform="translate(22.184 136.669)"/>
              <rect id="Rectangle_5031" data-name="Rectangle 5031" width="66.12" height="7.019" transform="translate(22.184 150.706)"/>
              <rect id="Rectangle_5032" data-name="Rectangle 5032" width="66.12" height="7.019" transform="translate(22.184 165.852)"/>
              <rect id="Rectangle_5033" data-name="Rectangle 5033" width="146.869" height="7.019" transform="translate(111.861 97.524)"/>
              <rect id="Rectangle_5034" data-name="Rectangle 5034" width="146.869" height="7.019" transform="translate(111.861 110.763)"/>
              <rect id="Rectangle_5035" data-name="Rectangle 5035" width="146.869" height="7.019" transform="translate(111.861 124.8)"/>
              <rect id="Rectangle_5036" data-name="Rectangle 5036" width="56.933" height="7.019" transform="translate(201.805 66.254)"/>
              <rect id="Rectangle_5037" data-name="Rectangle 5037" width="56.927" height="7.019" transform="translate(201.804 79.485)"/>
              <rect id="Rectangle_5038" data-name="Rectangle 5038" width="56.927" height="7.019" transform="translate(201.804 53.016)"/>
              <rect id="Rectangle_5039" data-name="Rectangle 5039" width="7.018" height="7.019" transform="translate(187.768 53.016)"/>
              <rect id="Rectangle_5040" data-name="Rectangle 5040" width="7.019" height="7.019" transform="translate(187.768 66.254)"/>
              <rect id="Rectangle_5041" data-name="Rectangle 5041" width="7.018" height="7.019" transform="translate(187.768 79.485)"/>
              <path id="Path_68313" data-name="Path 68313" d="M1078.258,1868.905l3.2-1.939V1844.02l-3.2,1.938Z" transform="translate(-954.227 -1780.804)"/>
              <path id="Path_68314" data-name="Path 68314" d="M1074.218,1845.934h12.17l3.2-1.9h-12.019Z" transform="translate(-962.357 -1780.78)"/>
              <rect id="Rectangle_5042" data-name="Rectangle 5042" width="12.17" height="22.948" transform="translate(111.861 65.153)"/>
              <path id="Path_68315" data-name="Path 68315" d="M1085.273,1874.042l3.2-2.386v-30.189l-3.2,2.385Z" transform="translate(-940.112 -1785.941)"/>
              <path id="Path_68316" data-name="Path 68316" d="M1081.233,1843.853H1093.4l3.2-2.385h-12.019Z" transform="translate(-948.241 -1785.941)"/>
              <rect id="Rectangle_5043" data-name="Rectangle 5043" width="12.169" height="30.19" transform="translate(132.992 57.912)"/>
              <path id="Path_68317" data-name="Path 68317" d="M1092.287,1881.332l3.2-3.021v-40.467l-3.2,3.021Z" transform="translate(-925.995 -1793.231)"/>
              <path id="Path_68318" data-name="Path 68318" d="M1088.248,1840.865h12.169l3.2-3.021H1091.6Z" transform="translate(-934.125 -1793.231)"/>
              <rect id="Rectangle_5044" data-name="Rectangle 5044" width="12.169" height="40.467" transform="translate(154.123 47.634)"/>
              <path id="Path_68319" data-name="Path 68319" d="M1099.648,1879.924a13.875,13.875,0,0,1-12.878,9.63c-.112,0-.22.015-.331.015a13.768,13.768,0,0,1-6.209-1.479l-2.567,5.3a19.625,19.625,0,0,0,8.775,2.076c.114,0,.226-.015.34-.018a19.812,19.812,0,0,0,18.568-13.986Z" transform="translate(-955.424 -1708.551)"/>
              <path id="Path_68320" data-name="Path 68320" d="M1093.781,1877.855c.1,0,.193.012.289.015l-.009-5.9c-.094,0-.187-.012-.28-.012a19.751,19.751,0,0,0-8.775,37.458l2.567-5.3a13.866,13.866,0,0,1,6.209-26.262Z" transform="translate(-962.767 -1724.578)"/>
              <path id="Path_68321" data-name="Path 68321" d="M1080.669,1871.964l.009,5.9a13.864,13.864,0,0,1,13.583,13.857l-.006.093a13.749,13.749,0,0,1-.656,4.13l5.7,1.54a19.769,19.769,0,0,0,.852-5.669l.006-.093A19.759,19.759,0,0,0,1080.669,1871.964Z" transform="translate(-949.375 -1724.569)"/>
              <path id="Path_68322" data-name="Path 68322" d="M1122.277,1884.112a13.778,13.778,0,0,1-6.208-1.479l-2.563,5.3a19.656,19.656,0,0,0,8.772,2.073c.114,0,.226-.015.341-.019l-.009-5.892C1122.5,1884.1,1122.388,1884.112,1122.277,1884.112Z" transform="translate(-883.297 -1703.099)"/>
              <path id="Path_68323" data-name="Path 68323" d="M1115.9,1881.128l-4.9,3.274a19.857,19.857,0,0,0,7.555,6.561l2.563-5.3A13.916,13.916,0,0,1,1115.9,1881.128Z" transform="translate(-888.344 -1706.128)"/>
              <path id="Path_68324" data-name="Path 68324" d="M1130.056,1878.327a10.528,10.528,0,0,1-.656,4.47,14.453,14.453,0,0,1-3.266,5.6,13.89,13.89,0,0,1-9.606,4.28l.009,5.935a19.657,19.657,0,0,0,13.914-6.061,20.989,20.989,0,0,0,4.645-8.227,18.2,18.2,0,0,0,.853-6Z" transform="translate(-877.216 -1711.765)" opacity="0.4"/>
              <path id="Path_68325" data-name="Path 68325" d="M1129.9,1871.977c-.1,0-.187-.015-.28-.015a19.755,19.755,0,0,0-16.327,30.886l4.9-3.274a13.865,13.865,0,0,1,11.423-21.717c.1,0,.19.012.289.015Z" transform="translate(-890.638 -1724.573)"/>
              <path id="Path_68326" data-name="Path 68326" d="M1130.093,1891.713l0,.093h5.892l.006-.093a19.75,19.75,0,0,0-19.478-19.746l.009,5.9A13.855,13.855,0,0,1,1130.093,1891.713Z" transform="translate(-877.25 -1724.563)"/>
              <path id="Path_68327" data-name="Path 68327" d="M1112.133,1878.559a8.719,8.719,0,0,1-.654,4.118,13.867,13.867,0,0,1-12.872,9.618l.009,5.9a19.814,19.814,0,0,0,18.559-13.975,16.019,16.019,0,0,0,.853-5.657Z" transform="translate(-913.277 -1711.298)"/>
              <path id="Path_68328" data-name="Path 68328" d="M1112.03,1905.571c-.112,0-.22.015-.335.015a13.764,13.764,0,0,1-6.205-1.479,13.86,13.86,0,0,1,6.205-26.25c.1,0,.193.012.289.015l-.009-5.9c-.094,0-.184-.015-.28-.015a19.76,19.76,0,0,0,0,39.52c.118,0,.229-.015.344-.019Z" transform="translate(-926.7 -1724.573)"/>
              <path id="Path_68329" data-name="Path 68329" d="M1112.175,1891.713l-.006.093h5.9l.006-.093a19.75,19.75,0,0,0-19.481-19.746l.009,5.9A13.857,13.857,0,0,1,1112.175,1891.713Z" transform="translate(-913.314 -1724.563)"/>
            </g>
            <g id="Group_23954" data-name="Group 23954">
              <g id="Group_23950" data-name="Group 23950">
                <g id="Group_23930" data-name="Group 23930">
                  <g id="Group_23928" data-name="Group 23928">
                    <path id="Path_68330" data-name="Path 68330" d="M1318,2005.836a8.331,8.331,0,0,1-8.305,8.3h-264.3a8.331,8.331,0,0,1-8.308-8.3V1827.48H1318Z" transform="translate(-1037.084 -1805.05)" fill="#fff"/>
                    <path id="Path_68331" data-name="Path 68331" d="M1318,1842.464H1037.084v-14.125a8.31,8.31,0,0,1,8.308-8.305h264.3a8.31,8.31,0,0,1,8.305,8.305Z" transform="translate(-1037.084 -1820.034)" fill="#14475f"/>
                  </g>
                  <g id="Group_23929" data-name="Group 23929" transform="translate(13.839 8.823)">
                    <path id="Path_68332" data-name="Path 68332" d="M1047.5,1825.873a2.909,2.909,0,1,1-2.907-2.91A2.907,2.907,0,0,1,1047.5,1825.873Z" transform="translate(-1041.678 -1822.963)" fill="#fff"/>
                    <path id="Path_68333" data-name="Path 68333" d="M1050.4,1825.873a2.911,2.911,0,1,1-2.907-2.91A2.911,2.911,0,0,1,1050.4,1825.873Z" transform="translate(-1035.846 -1822.963)" fill="#fff"/>
                    <path id="Path_68334" data-name="Path 68334" d="M1053.3,1825.873a2.911,2.911,0,1,1-2.91-2.91A2.911,2.911,0,0,1,1053.3,1825.873Z" transform="translate(-1030.012 -1822.963)" fill="#fff"/>
                  </g>
                </g>
                <g id="Group_23949" data-name="Group 23949" transform="translate(22.184 44.614)">
                  <g id="Group_23934" data-name="Group 23934">
                    <g id="Group_23933" data-name="Group 23933">
                      <g id="Group_23932" data-name="Group 23932" clip-path="url(#clip-path)">
                        <rect id="Rectangle_5045" data-name="Rectangle 5045" width="66.12" height="93.941" fill="#f1f1f2"/>
                        <g id="Group_23931" data-name="Group 23931" transform="translate(-2.308 6.003)">
                          <path id="Path_68335" data-name="Path 68335" d="M1071.412,1850.517h-16.978a11.137,11.137,0,0,1,.2,2.485,14.548,14.548,0,0,1-2.931,7.7h22.43c-1.72-2.889-2.76-5.181-2.88-7.742A11.628,11.628,0,0,1,1071.412,1850.517Z" transform="translate(-1027.537 -1809.308)" fill="#efc64c"/>
                          <path id="Path_68336" data-name="Path 68336" d="M1072.177,1853.747l-16.758,41.233h35.38l-2.177-26.605C1088.622,1862.019,1082.314,1856.642,1072.177,1853.747Z" transform="translate(-1020.063 -1802.808)" fill="#102947"/>
                          <path id="Path_68337" data-name="Path 68337" d="M1061.4,1854.581h0c-1.837,1.443-4.223,3.006-5.977,3.024v40.522l.136-.313,14.381-34.7,2.515-6.055c-2.124-.614-8.263-4.919-8.263-4.919A36.662,36.662,0,0,1,1061.4,1854.581Z" transform="translate(-1020.067 -1806.036)" fill="#fff"/>
                          <path id="Path_68338" data-name="Path 68338" d="M1055.419,1857.6v40.532l17.026-41.068c-2.127-.608-8.263-4.919-8.263-4.919S1058.691,1857.568,1055.419,1857.6Z" transform="translate(-1020.063 -1806.036)" fill="#fff"/>
                          <path id="Path_68339" data-name="Path 68339" d="M1045.863,1868.375l-2.181,26.605h35.386l-16.764-41.233C1052.168,1856.642,1045.863,1862.019,1045.863,1868.375Z" transform="translate(-1043.682 -1802.808)" fill="#102947"/>
                          <path id="Path_68340" data-name="Path 68340" d="M1049.777,1857.063l17.026,41.068V1857.6c-3.278-.03-8.769-5.456-8.769-5.456S1051.9,1856.454,1049.777,1857.063Z" transform="translate(-1031.417 -1806.036)" fill="#fff"/>
                          <path id="Path_68341" data-name="Path 68341" d="M1061.392,1852.952l-5.974,2.157v41.028l.051.047h.082l14.382-34.7-8.536-8.537Z" transform="translate(-1020.066 -1804.408)" fill="#231f20" opacity="0.1"/>
                          <path id="Path_68342" data-name="Path 68342" d="M1055.419,1856.74v41.024l6-17-4.778-19.875,7.542-8.743Z" transform="translate(-1020.063 -1806.035)" fill="#c44500"/>
                          <path id="Path_68343" data-name="Path 68343" d="M1060.03,1860.887l-4.778,19.875,6.005,17V1856.74l-8.739-4.6Z" transform="translate(-1025.901 -1806.035)" fill="#e85100"/>
                          <path id="Path_68344" data-name="Path 68344" d="M1052.813,1853c2.4,2.187,5.239,4.473,8.287,4.473,3.07,0,5.922-2.322,8.332-4.516a11.628,11.628,0,0,1,.157-2.443h-16.978A11.137,11.137,0,0,1,1052.813,1853Z" transform="translate(-1025.714 -1809.308)" opacity="0.07"/>
                          <path id="Path_68345" data-name="Path 68345" d="M1066.916,1840.68a66.232,66.232,0,0,1-11.679-1.039,26.494,26.494,0,0,0-4.973,16c0,12.071,6.968,21.852,15.559,21.852s15.553-9.781,15.553-21.852a26.715,26.715,0,0,0-4.736-15.691A65.671,65.671,0,0,1,1066.916,1840.68Z" transform="translate(-1030.437 -1831.194)" fill="#efc64c"/>
                          <path id="Path_68346" data-name="Path 68346" d="M1086.635,1841.205c-1.323.148-2.612-.129-3,1.316-.132-2.928-9.025-4.886-15.508-2.295-4.771,1.906-8.42-4.745-14.056-3.136-5.2,1.479-8.648,10-2.838,16.631,1.732,1.973.455,1.512,3.371,10.9l2.376-9.639c5.034.346,10.727-.8,14.309-1.256,2.69-.34,10.676-.816,11.559-5l2.518,15.893C1086.792,1851.827,1092.612,1841.771,1086.635,1841.205Z" transform="translate(-1034.585 -1836.837)" fill="#752900"/>
                          <path id="Path_68347" data-name="Path 68347" d="M1054.112,1839.934c-1.087-.554-1.244-1.811-3.169-1.112a5.326,5.326,0,0,0-1.133,3.949c.136,1.148.609,1.308.768,1.359a4.173,4.173,0,0,1,1.033.509l1.781.121c4.859.337,8.419-1.879,14.721-4.588l-8.884,1.106A10.964,10.964,0,0,1,1054.112,1839.934Z" transform="translate(-1031.416 -1833.258)" fill="#943400"/>
                        </g>
                      </g>
                    </g>
                    <rect id="Rectangle_5046" data-name="Rectangle 5046" width="54.424" height="7.019" transform="translate(0 135.275)" fill="#e6e7e8"/>
                    <rect id="Rectangle_5047" data-name="Rectangle 5047" width="66.12" height="7.019" transform="translate(0 92.055)" fill="#e6e7e8"/>
                    <rect id="Rectangle_5048" data-name="Rectangle 5048" width="66.12" height="7.019" transform="translate(0 106.092)" fill="#e6e7e8"/>
                    <rect id="Rectangle_5049" data-name="Rectangle 5049" width="66.12" height="7.019" transform="translate(0 121.238)" fill="#e6e7e8"/>
                  </g>
                  <g id="Group_23948" data-name="Group 23948" transform="translate(89.063)">
                    <g id="Group_23941" data-name="Group 23941" transform="translate(0.614)">
                      <g id="Group_23935" data-name="Group 23935" transform="translate(0 52.911)">
                        <rect id="Rectangle_5050" data-name="Rectangle 5050" width="146.869" height="7.019" fill="#e6e7e8"/>
                        <rect id="Rectangle_5051" data-name="Rectangle 5051" width="146.869" height="7.019" transform="translate(0 13.239)" fill="#e6e7e8"/>
                        <rect id="Rectangle_5052" data-name="Rectangle 5052" width="146.869" height="7.019" transform="translate(0 27.276)" fill="#e6e7e8"/>
                      </g>
                      <g id="Group_23936" data-name="Group 23936" transform="translate(75.907 8.402)">
                        <rect id="Rectangle_5053" data-name="Rectangle 5053" width="56.933" height="7.019" transform="translate(14.037 13.239)" fill="#e6e7e8"/>
                        <rect id="Rectangle_5054" data-name="Rectangle 5054" width="56.927" height="7.019" transform="translate(14.036 26.469)" fill="#e6e7e8"/>
                        <rect id="Rectangle_5055" data-name="Rectangle 5055" width="56.927" height="7.019" transform="translate(14.036)" fill="#e6e7e8"/>
                        <rect id="Rectangle_5056" data-name="Rectangle 5056" width="7.018" height="7.019" fill="#0caba7"/>
                        <rect id="Rectangle_5057" data-name="Rectangle 5057" width="7.019" height="7.019" transform="translate(0 13.239)" fill="#0fc2bf"/>
                        <rect id="Rectangle_5058" data-name="Rectangle 5058" width="7.018" height="7.019" transform="translate(0 26.469)" fill="#14475f"/>
                      </g>
                      <g id="Group_23940" data-name="Group 23940">
                        <g id="Group_23937" data-name="Group 23937" transform="translate(0 18.602)">
                          <path id="Path_68348" data-name="Path 68348" d="M1078.258,1865.905l3.2-1.939V1841.02l-3.2,1.938Z" transform="translate(-1066.088 -1841.02)" fill="#24a04d"/>
                          <path id="Path_68349" data-name="Path 68349" d="M1074.218,1842.934h12.17l3.2-1.9h-12.019Z" transform="translate(-1074.218 -1840.996)" fill="#1ea84c"/>
                          <rect id="Rectangle_5059" data-name="Rectangle 5059" width="12.17" height="22.948" transform="translate(0 1.938)" fill="#14475f"/>
                        </g>
                        <g id="Group_23938" data-name="Group 23938" transform="translate(21.131 10.912)">
                          <path id="Path_68350" data-name="Path 68350" d="M1085.273,1871.042l3.2-2.386v-30.189l-3.2,2.385Z" transform="translate(-1073.103 -1838.467)" fill="#569933"/>
                          <path id="Path_68351" data-name="Path 68351" d="M1081.233,1840.853H1093.4l3.2-2.385h-12.019Z" transform="translate(-1081.233 -1838.467)" fill="#84d359"/>
                          <rect id="Rectangle_5060" data-name="Rectangle 5060" width="12.169" height="30.19" transform="translate(0 2.385)" fill="#0fc2bf"/>
                        </g>
                        <g id="Group_23939" data-name="Group 23939" transform="translate(42.262)">
                          <path id="Path_68352" data-name="Path 68352" d="M1092.287,1878.332l3.2-3.021v-40.467l-3.2,3.021Z" transform="translate(-1080.118 -1834.844)" fill="#95b735"/>
                          <path id="Path_68353" data-name="Path 68353" d="M1088.248,1837.865h12.169l3.2-3.021H1091.6Z" transform="translate(-1088.248 -1834.844)" fill="#b8d860"/>
                          <rect id="Rectangle_5061" data-name="Rectangle 5061" width="12.169" height="40.467" transform="translate(0 3.02)" fill="#0caba7"/>
                        </g>
                      </g>
                    </g>
                    <g id="Group_23943" data-name="Group 23943" transform="translate(0 102.769)">
                      <g id="Group_23942" data-name="Group 23942">
                        <path id="Path_68354" data-name="Path 68354" d="M1099.648,1876.924a13.876,13.876,0,0,1-12.878,9.631c-.112,0-.22.015-.331.015a13.768,13.768,0,0,1-6.209-1.479l-2.567,5.3a19.632,19.632,0,0,0,8.775,2.075c.114,0,.226-.015.34-.018a19.812,19.812,0,0,0,18.568-13.986Z" transform="translate(-1066.671 -1852.934)" fill="#0fc2bf"/>
                        <path id="Path_68355" data-name="Path 68355" d="M1093.781,1874.855c.1,0,.193.012.289.015l-.009-5.9c-.094,0-.187-.012-.28-.012a19.752,19.752,0,0,0-8.775,37.459l2.567-5.3a13.866,13.866,0,0,1,6.209-26.262Z" transform="translate(-1074.014 -1868.96)" fill="#14475f"/>
                        <path id="Path_68356" data-name="Path 68356" d="M1080.669,1868.964l.009,5.9a13.864,13.864,0,0,1,13.583,13.857l-.006.093a13.749,13.749,0,0,1-.656,4.13l5.7,1.54a19.769,19.769,0,0,0,.852-5.669l.006-.093A19.759,19.759,0,0,0,1080.669,1868.964Z" transform="translate(-1060.622 -1868.952)" fill="#0caba7"/>
                      </g>
                    </g>
                    <g id="Group_23945" data-name="Group 23945" transform="translate(107.972 102.775)">
                      <g id="Group_23944" data-name="Group 23944">
                        <path id="Path_68357" data-name="Path 68357" d="M1122.277,1881.112a13.778,13.778,0,0,1-6.208-1.479l-2.563,5.3a19.656,19.656,0,0,0,8.772,2.073c.114,0,.226-.015.341-.019l-.009-5.892C1122.5,1881.1,1122.388,1881.112,1122.277,1881.112Z" transform="translate(-1102.516 -1847.488)" fill="#14475f"/>
                        <path id="Path_68358" data-name="Path 68358" d="M1115.9,1878.128l-4.9,3.274a19.857,19.857,0,0,0,7.555,6.561l2.563-5.3A13.911,13.911,0,0,1,1115.9,1878.128Z" transform="translate(-1107.563 -1850.517)" fill="#008f8d"/>
                        <path id="Path_68359" data-name="Path 68359" d="M1130.056,1875.327a10.528,10.528,0,0,1-.656,4.47,14.453,14.453,0,0,1-3.266,5.6,13.89,13.89,0,0,1-9.606,4.28l.009,5.935a19.657,19.657,0,0,0,13.914-6.061,20.989,20.989,0,0,0,4.645-8.227,18.2,18.2,0,0,0,.853-6Z" transform="translate(-1096.435 -1856.153)" fill="#0fc2bf" opacity="0.4"/>
                        <path id="Path_68360" data-name="Path 68360" d="M1129.9,1868.977c-.1,0-.187-.015-.28-.015a19.755,19.755,0,0,0-16.327,30.886l4.9-3.274a13.865,13.865,0,0,1,11.423-21.717c.1,0,.19.012.289.015Z" transform="translate(-1109.857 -1868.962)" fill="#14475f"/>
                        <path id="Path_68361" data-name="Path 68361" d="M1130.093,1888.713l0,.093h5.892l.006-.093a19.75,19.75,0,0,0-19.478-19.746l.009,5.9A13.855,13.855,0,0,1,1130.093,1888.713Z" transform="translate(-1096.469 -1868.952)" fill="#0caba7"/>
                      </g>
                    </g>
                    <g id="Group_23947" data-name="Group 23947" transform="translate(53.991 102.775)">
                      <g id="Group_23946" data-name="Group 23946">
                        <path id="Path_68362" data-name="Path 68362" d="M1112.133,1875.559a8.719,8.719,0,0,1-.654,4.118,13.867,13.867,0,0,1-12.872,9.618l.009,5.9a19.814,19.814,0,0,0,18.559-13.975,16.019,16.019,0,0,0,.853-5.657Z" transform="translate(-1078.515 -1855.687)" fill="#14475f"/>
                        <path id="Path_68363" data-name="Path 68363" d="M1112.03,1902.571c-.112,0-.22.015-.335.015a13.764,13.764,0,0,1-6.205-1.479,13.86,13.86,0,0,1,6.205-26.25c.1,0,.193.012.289.015l-.009-5.9c-.094,0-.184-.015-.28-.015a19.76,19.76,0,0,0,0,39.52c.118,0,.229-.015.344-.019Z" transform="translate(-1091.937 -1868.962)" fill="#0caba7"/>
                        <path id="Path_68364" data-name="Path 68364" d="M1112.175,1888.713l-.006.093h5.9l.006-.093a19.75,19.75,0,0,0-19.481-19.746l.009,5.9A13.857,13.857,0,0,1,1112.175,1888.713Z" transform="translate(-1078.551 -1868.952)" fill="#0fc2bf"/>
                      </g>
                    </g>
                  </g>
                </g>
              </g>
            </g>
          </g>
        </g>
      </g>
    </g>
  </g>
</svg>
