<svg id="Group_3482" data-name="Group 3482" xmlns="http://www.w3.org/2000/svg" xmlns:xlink="http://www.w3.org/1999/xlink" width="413.215" height="412.316" viewBox="0 0 413.215 412.316">
  <defs>
    <clipPath id="clip-path">
      <rect id="Rectangle_218" data-name="Rectangle 218" width="413.215" height="412.316" fill="none"/>
    </clipPath>
    <clipPath id="clip-path-2">
      <path id="Path_13599" data-name="Path 13599" d="M48.115,97.038C-8.023,183.644,6.86,306.536,76.453,368.6c36.151,32.239,76.983,39.073,91.876,41.367,91.53,14.1,197.077-38.167,236.7-131.463,25.823-60.8,22.848-136.22-11.768-190.352a189.347,189.347,0,0,0-38.514-43.7C304.257,2.819,246.805.446,231.814.061,230.149.018,228.488,0,226.819,0,158.738,0,88,35.513,48.115,97.038" transform="translate(-13.752 0.003)" fill="#fff"/>
    </clipPath>
    <clipPath id="clip-path-3">
      <rect id="Rectangle_188" data-name="Rectangle 188" width="413.214" height="412.316" fill="none"/>
    </clipPath>
    <clipPath id="clip-path-4">
      <rect id="Rectangle_184" data-name="Rectangle 184" width="52.62" height="196.189" fill="none"/>
    </clipPath>
    <clipPath id="clip-path-5">
      <rect id="Rectangle_185" data-name="Rectangle 185" width="26.226" height="116.376" fill="none"/>
    </clipPath>
    <clipPath id="clip-path-6">
      <rect id="Rectangle_186" data-name="Rectangle 186" width="33.585" height="48.509" fill="none"/>
    </clipPath>
    <clipPath id="clip-path-7">
      <rect id="Rectangle_187" data-name="Rectangle 187" width="47.196" height="24.915" fill="none"/>
    </clipPath>
    <clipPath id="clip-path-8">
      <path id="Path_13623" data-name="Path 13623" d="M538.513,635.133s-2.307-6.071-5-5.516a18.423,18.423,0,0,0-5.641,2.626l-4.328,5.854s12.149,4.786,16.422,2.043a93.5,93.5,0,0,0,28.081-.427,61.421,61.421,0,0,1-4.415-13.307c-7.937,4.493-16.487,7.849-25.119,8.727" transform="translate(-523.543 -626.406)" fill="none"/>
    </clipPath>
    <linearGradient id="linear-gradient" x1="-3.49" y1="7.277" x2="-3.484" y2="7.277" gradientUnits="objectBoundingBox">
      <stop offset="0" stop-color="#febbba"/>
      <stop offset="1" stop-color="#ff928e"/>
    </linearGradient>
    <clipPath id="clip-path-10">
      <path id="Path_13626" data-name="Path 13626" d="M788.508,461.137l5.863,14.086a2.807,2.807,0,0,0,2.121,1.687c3.38.58,11.556,1.485,16.925-2.045a1.365,1.365,0,0,0,.365-1.919L802.95,457.394Z" transform="translate(-788.508 -457.394)" fill="none"/>
    </clipPath>
    <linearGradient id="linear-gradient-2" x1="-8.023" y1="9.62" x2="-8.012" y2="9.62" xlink:href="#linear-gradient"/>
    <clipPath id="clip-path-11">
      <path id="Path_13627" data-name="Path 13627" d="M785.336,399.959c-.246.232-10.392,20.155-10.392,20.155l11.5,5.551,12.421-17.455s-6.992-9.017-11.561-9.018a2.769,2.769,0,0,0-1.968.766" transform="translate(-774.944 -399.193)" fill="none"/>
    </clipPath>
    <linearGradient id="linear-gradient-3" x1="-7.167" y1="8.862" x2="-7.158" y2="8.862" xlink:href="#linear-gradient"/>
    <clipPath id="clip-path-13">
      <path id="Path_13629" data-name="Path 13629" d="M827.228,459.423s2.485,4.577,6.839.643c3.5-3.163,1.277-5.976-1.547-6.213-.057,0-.113-.007-.169-.007-2.753,0-5.123,5.577-5.123,5.577" transform="translate(-827.228 -453.846)" fill="none"/>
    </clipPath>
    <linearGradient id="linear-gradient-4" x1="-19.535" y1="19.894" x2="-19.511" y2="19.894" xlink:href="#linear-gradient"/>
    <clipPath id="clip-path-15">
      <path id="Path_13632" data-name="Path 13632" d="M898.619,1223.21l1.557,8.677a2.408,2.408,0,0,0,1.619,1.851,7.914,7.914,0,0,0,3.615.3,2.036,2.036,0,0,0,1.738-1.914l.45-8.913Z" transform="translate(-898.619 -1223.21)" fill="none"/>
    </clipPath>
    <linearGradient id="linear-gradient-5" x1="-31.936" y1="2" x2="-31.901" y2="2" xlink:href="#linear-gradient"/>
    <clipPath id="clip-path-17">
      <path id="Path_13635" data-name="Path 13635" d="M1072.011,1199.127l3.236,9.223a1.987,1.987,0,0,0,1.621,1.325,8.442,8.442,0,0,0,4.564-1.105,2.379,2.379,0,0,0,1.238-2.7l-2.2-8.766Z" transform="translate(-1072.011 -1197.107)" fill="none"/>
    </clipPath>
    <linearGradient id="linear-gradient-6" x1="-31.3" y1="2.374" x2="-31.271" y2="2.374" xlink:href="#linear-gradient"/>
    <clipPath id="clip-path-19">
      <rect id="Rectangle_199" data-name="Rectangle 199" width="10.49" height="7.973" fill="none"/>
    </clipPath>
    <clipPath id="clip-path-20">
      <path id="Path_13649" data-name="Path 13649" d="M919.728,686.534a74.218,74.218,0,0,1,1.962,21.642,2.572,2.572,0,0,1-2.378,2.3c-1.418.1-3.348.229-5.073.329-1.9.109-4-1.089-5.408-2.091a.846.846,0,0,0-1.247,1.07,10.335,10.335,0,0,0,3.084,3.324c.717.545,3.1,1.513,2.934,2.586a1.91,1.91,0,0,1-.476.9,10.817,10.817,0,0,1-5.305,3.045,1.466,1.466,0,0,0-.685.349c-.049,1.279,3.885,2.7,4.9,3.036a11.289,11.289,0,0,0,4.732.55c3.958-.417,7.614-3.149,9.746-6.443,5.7-8.806,8.646-19.441,9.723-27.574a14.293,14.293,0,0,0-10.373-3.894,22.667,22.667,0,0,0-6.134.87" transform="translate(-907.135 -685.664)" fill="none"/>
    </clipPath>
    <linearGradient id="linear-gradient-7" x1="-5.936" y1="4.517" x2="-5.93" y2="4.517" xlink:href="#linear-gradient"/>
    <clipPath id="clip-path-22">
      <path id="Path_13654" data-name="Path 13654" d="M260.394,1214.825l1.962,9.445a1.544,1.544,0,0,0,1.32,1.271,13.082,13.082,0,0,0,3.039-.049,1.941,1.941,0,0,0,1.538-2.281l-1.364-8.386Z" transform="translate(-260.394 -1214.825)" fill="none"/>
    </clipPath>
    <linearGradient id="linear-gradient-8" x1="-6.96" y1="2.586" x2="-6.933" y2="2.586" xlink:href="#linear-gradient"/>
    <clipPath id="clip-path-24">
      <path id="Path_13657" data-name="Path 13657" d="M363.365,1208.072c.094.442,1.341,7.162,1.823,9.767a1.3,1.3,0,0,0,1.171,1.105,13.706,13.706,0,0,0,4.1-.322,1.772,1.772,0,0,0,1.228-1.859l-.67-10.63Z" transform="translate(-363.365 -1206.134)" fill="none"/>
    </clipPath>
    <linearGradient id="linear-gradient-9" x1="-8.543" y1="2.824" x2="-8.519" y2="2.824" xlink:href="#linear-gradient"/>
    <clipPath id="clip-path-26">
      <path id="Path_13660" data-name="Path 13660" d="M314.073,460.692s2.4,4.728,13.86,8.566l9.892-20.339-10.368-8.161c-.01.938-13.384,19.933-13.384,19.933" transform="translate(-314.073 -440.759)" fill="none"/>
    </clipPath>
    <linearGradient id="linear-gradient-10" x1="-2.704" y1="7.526" x2="-2.695" y2="7.526" xlink:href="#linear-gradient"/>
    <clipPath id="clip-path-27">
      <path id="Path_13661" data-name="Path 13661" d="M329.358,413.657c-1.064,3.606,3.68,12.413,3.68,12.413,3.027,5.715,8.616,9.021,15.25,7.865s5.4-4.879,5.078-10.616-5.078-16.669-5.078-16.669-17.866,3.4-18.93,7.007" transform="translate(-329.202 -406.65)" fill="none"/>
    </clipPath>
    <linearGradient id="linear-gradient-11" x1="-2.59" y1="7.471" x2="-2.581" y2="7.471" xlink:href="#linear-gradient"/>
    <clipPath id="clip-path-29">
      <path id="Path_13663" data-name="Path 13663" d="M331.269,441.429c-3.131,1.958,1.625,7.824,4.141,8.085l.8-3.06s-1.4-5.371-3.852-5.371a2.051,2.051,0,0,0-1.094.346" transform="translate(-330.237 -441.083)" fill="none"/>
    </clipPath>
    <linearGradient id="linear-gradient-12" x1="-8.897" y1="23.719" x2="-8.869" y2="23.719" xlink:href="#linear-gradient"/>
    <clipPath id="clip-path-31">
      <path id="Path_13665" data-name="Path 13665" d="M420.262,554.544c-2.678,4.364-5.948,10.232-7.433,15.013,36.041,7.946,44.528-25.187,44.528-25.187l-3.816-2.124c-13.5,14.571-24.42,15.429-33.278,12.3" transform="translate(-412.829 -542.246)" fill="none"/>
    </clipPath>
    <linearGradient id="linear-gradient-13" x1="-2.271" y1="4.812" x2="-2.266" y2="4.812" xlink:href="#linear-gradient"/>
    <clipPath id="clip-path-32">
      <path id="Path_13666" data-name="Path 13666" d="M560.643,532.6c-1.793,1.524-4.354.524-7.231,0a4.944,4.944,0,0,0-4.432,1.145l8.718,3.457,5.368-4.081s-.334-1.086-1.209-1.086a1.941,1.941,0,0,0-1.214.565" transform="translate(-548.98 -532.039)" fill="none"/>
    </clipPath>
    <linearGradient id="linear-gradient-14" x1="-13.025" y1="17.954" x2="-13.001" y2="17.954" xlink:href="#linear-gradient"/>
    <clipPath id="clip-path-33">
      <path id="Path_13667" data-name="Path 13667" d="M538.919,538.015c3.667,3.462,17.249,4.822,17.249,4.822l9.284-5.224c-.961-1.978-6.54,1.241-6.54,1.241l2.17-2.7c-1.232-.617-3.634,1.13-5.512,1.86s-9.166-3.233-12.376-3.844a3.155,3.155,0,0,0-.591-.057c-2.751,0-3.684,3.9-3.684,3.9" transform="translate(-538.919 -534.114)" fill="none"/>
    </clipPath>
    <linearGradient id="linear-gradient-15" x1="-6.202" y1="12.601" x2="-6.19" y2="12.601" xlink:href="#linear-gradient"/>
    <clipPath id="clip-path-34">
      <path id="Path_13668" data-name="Path 13668" d="M339.533,610.975s25.373,21.25,52.771,11.978a6.523,6.523,0,0,1,5.144.387l7.876,4.16a7.032,7.032,0,0,0,9.319-2.609,14.808,14.808,0,0,0,2.214-5.925l-15.413-6.239,1.137-1.89s-7.525-.637-9.495,4.756c0,0-14.334,5.962-38.506-20.626,0,0-10.969,9.327-15.048,16.008" transform="translate(-339.533 -594.967)" fill="none"/>
    </clipPath>
    <linearGradient id="linear-gradient-16" x1="-2.416" y1="2.964" x2="-2.409" y2="2.964" xlink:href="#linear-gradient"/>
    <clipPath id="clip-path-35">
      <path id="Path_13669" data-name="Path 13669" d="M285.266,582.853a.435.435,0,0,0-.23.569c.05.117,5.076,11.768,15.759,18.986a.429.429,0,0,0,.243.075.434.434,0,0,0,.243-.794c-10.464-7.071-15.4-18.491-15.445-18.606a.434.434,0,0,0-.57-.23" transform="translate(-285.001 -582.818)" fill="none"/>
    </clipPath>
    <linearGradient id="linear-gradient-17" x1="-3.384" y1="9.287" x2="-3.372" y2="9.287" gradientUnits="objectBoundingBox">
      <stop offset="0" stop-color="#e1473d"/>
      <stop offset="1" stop-color="#e9605a"/>
    </linearGradient>
    <clipPath id="clip-path-36">
      <path id="Path_13670" data-name="Path 13670" d="M297.789,519.89a.434.434,0,0,0,.429.755c.048-.027,4.905-2.729,9.945-1.321,3.043.852,5.556,3.02,7.467,6.442,6.216,11.131,9.48,16.212,9.513,16.262a.434.434,0,0,0,.366.2.427.427,0,0,0,.235-.069.434.434,0,0,0,.13-.6c-.032-.05-3.284-5.113-9.485-16.216-2.03-3.635-4.722-5.942-8-6.856a12.329,12.329,0,0,0-3.331-.446,16.056,16.056,0,0,0-7.269,1.85" transform="translate(-297.569 -518.04)" fill="none"/>
    </clipPath>
    <linearGradient id="linear-gradient-18" x1="-2.538" y1="6.825" x2="-2.529" y2="6.825" xlink:href="#linear-gradient-17"/>
  </defs>
  <g id="Group_3474" data-name="Group 3474" clip-path="url(#clip-path)">
    <g id="Group_3400" data-name="Group 3400" transform="translate(4.388 -0.001)">
      <g id="Group_3399" data-name="Group 3399" opacity="0.821" clip-path="url(#clip-path-2)">
        <rect id="Rectangle_183" data-name="Rectangle 183" width="608.145" height="609.538" transform="matrix(0.659, -0.753, 0.753, 0.659, -231.933, 240.18)" fill="#fff"/>
      </g>
    </g>
    <g id="Group_3414" data-name="Group 3414" transform="translate(0 -0.001)">
      <g id="Group_3413" data-name="Group 3413" clip-path="url(#clip-path-3)">
        <path id="Path_13600" data-name="Path 13600" d="M51,33.145c-.382-1.626,1.905-2.707,3.306-1.571,14.225,11.535,48.4,46.077,39.885,106.441-10.687,75.735,7.584,103.371,30.326,120.228,0,0-31.232-7.928-50.883-35.969C25.392,153.424,57.8,62.06,51,33.145" transform="translate(-31.715 -21.177)" fill="#a3cd4c"/>
        <g id="Group_3403" data-name="Group 3403" transform="translate(30.105 35.097)" style="mix-blend-mode: soft-light;isolation: isolate">
          <g id="Group_3402" data-name="Group 3402">
            <g id="Group_3401" data-name="Group 3401" clip-path="url(#clip-path-4)">
              <path id="Path_13601" data-name="Path 13601" d="M94.346,110.509c1.779,8.431,3.366,16.888,4.591,25.384q1.916,12.732,2.925,25.537c.632,8.533,1.078,17.075,1.1,25.621.07,8.545-.286,17.084-.677,25.655-.336,8.569-.73,17.2-.1,25.89a76.747,76.747,0,0,0,6.065,25.625c.906,2.044,1.858,4.082,2.94,6.051,1.04,1.987,2.182,3.935,3.364,5.865a92.569,92.569,0,0,0,8.069,11.1,101.788,101.788,0,0,0,21.246,18.594,2.127,2.127,0,0,0,2.69-.306,1.507,1.507,0,0,0-.309-2.292l-.006,0c-1.9-1.335-3.781-2.686-5.585-4.106-.915-.7-1.793-1.429-2.686-2.145-.861-.745-1.755-1.461-2.588-2.228a92.335,92.335,0,0,1-23.183-31.8,74.891,74.891,0,0,1-4.022-12.077,82.447,82.447,0,0,1-1.941-12.508c-.684-8.436-.375-16.981-.11-25.551s.436-17.188.21-25.8q-.149-6.456-.567-12.9c-.125-2.149-.3-4.3-.466-6.442q-.289-3.218-.625-6.431-1.385-12.851-3.685-25.6c-1.584-8.487-3.427-16.935-5.645-25.307a.522.522,0,0,0-.617-.334.451.451,0,0,0-.392.513" transform="translate(-94.338 -109.983)" fill="#fff"/>
            </g>
          </g>
        </g>
        <path id="Path_13602" data-name="Path 13602" d="M143.674,254.24a3.581,3.581,0,0,1-5.861-1c-5.789-12.781-18.89-50.4,2.746-93.735,18.271-36.6,24.7-58.176,26.941-68.175a2.245,2.245,0,0,1,4.246-.413c9.649,21.872,35.128,96.266-28.072,163.321" transform="translate(-87.538 -60.991)" fill="#08984b"/>
        <g id="Group_3406" data-name="Group 3406" transform="translate(51.8 75.539)" style="mix-blend-mode: soft-light;isolation: isolate">
          <g id="Group_3405" data-name="Group 3405">
            <g id="Group_3404" data-name="Group 3404" clip-path="url(#clip-path-5)">
              <path id="Path_13603" data-name="Path 13603" d="M163.491,353.072a.994.994,0,0,1-1.169-.992c.01-.622,1.219-62.746,24.325-114.778a.993.993,0,0,1,1.815.806c-22.938,51.653-24.145,113.385-24.155,114a.993.993,0,0,1-.817.962" transform="translate(-162.322 -236.711)" fill="#fff"/>
            </g>
          </g>
        </g>
        <path id="Path_13604" data-name="Path 13604" d="M667.832,205.53c-5.532-9.716-9.788-22.782-1.095-32.562,15.7-17.664,47.1-21.589,54.955,5.888,3.247,11.366.954,20.2-2.853,26.654a8.972,8.972,0,0,0,7.759,13.508h50.047v66.776a7.434,7.434,0,0,1-11.728,6.043c-33.574-23.3-51.081,4.184-51.118,16.554-.041,13.738,5.929,46.122,27.518,45.14a53.231,53.231,0,0,0,24.118-7.236,7.433,7.433,0,0,1,11.21,6.384v62.239H724.852a7.724,7.724,0,0,0-6.472,11.951c3.843,5.928,7.061,14.524,7.236,26.757.447,31.14-47.1,25.515-58.879,15.7-8.411-7.01-8.758-29.485-2.209-43.385a7.845,7.845,0,0,0-7.237-11.025H606.876V346.81a6.384,6.384,0,0,0-9.662-5.482c-8.677,5.156-22.078,11.621-35.479,12.2-22.571.982-25.514-24.533-26.5-44.159-.867-17.334,32.181-45.394,58.268-28.288,4.274,2.8,13.047,6.9,13.047,1.793v-63.86h53.5a8.992,8.992,0,0,0,7.777-13.488" transform="translate(-364.424 -108.243)" fill="#08984b"/>
        <path id="Path_13605" data-name="Path 13605" d="M693.449,475.986a65.278,65.278,0,0,1-8.156-.525c-8.984-1.134-17.15-3.991-21.312-7.459-9.077-7.564-8.945-30.83-2.471-44.57a6.485,6.485,0,0,0-.434-6.346,6.968,6.968,0,0,0-5.905-3.263H604.757a.993.993,0,0,1-.993-.993V344.721a5.391,5.391,0,0,0-8.162-4.629c-8.928,5.306-22.411,11.753-35.943,12.341-10.406.462-17.916-4.579-22.3-14.957-3.72-8.8-4.731-20.179-5.229-30.145-.474-9.473,8.32-21.582,20.91-28.794,13.387-7.667,27.563-7.8,38.894-.373,3.935,2.581,9.251,4.787,10.978,3.856.145-.079.531-.287.531-1.233v-63.86a.993.993,0,0,1,.993-.993h53.5a7.889,7.889,0,0,0,6.892-3.955,7.992,7.992,0,0,0,.022-8.049c-7.9-13.88-8.24-25.539-.975-33.713,9.6-10.8,24.85-16.388,37.08-13.6,9.583,2.185,16.534,9.243,19.571,19.875,2.864,10.026,1.871,19.255-2.953,27.432a7.979,7.979,0,0,0,6.9,12.01h50.047a.993.993,0,0,1,.993.993V283.7a8.244,8.244,0,0,1-4.485,7.424,8.493,8.493,0,0,1-8.8-.565c-16.66-11.564-28.3-9.746-35.127-6.187-9.816,5.117-14.415,16.11-14.432,21.928-.032,10.633,3.385,29.774,12.929,38.921a17.815,17.815,0,0,0,13.552,5.225,51.807,51.807,0,0,0,23.667-7.105,8.441,8.441,0,0,1,8.523-.013,8.292,8.292,0,0,1,4.176,7.258v62.239a.993.993,0,0,1-.993.993H722.732a6.731,6.731,0,0,0-5.638,10.419c4.753,7.332,7.242,16.511,7.4,27.283.138,9.612-4.246,16.82-12.676,20.842-5,2.388-11.348,3.62-18.365,3.62m-87.7-64.149h49.422a8.943,8.943,0,0,1,7.582,4.185,8.545,8.545,0,0,1,.554,8.257c-6.672,14.16-5.672,35.85,1.946,42.2,7.807,6.506,31.389,10.929,45.706,4.1,7.788-3.716,11.673-10.116,11.545-19.022-.149-10.392-2.53-19.217-7.076-26.23a8.717,8.717,0,0,1,7.3-13.484h50.8V350.59a6.326,6.326,0,0,0-3.184-5.539,6.475,6.475,0,0,0-6.538.015,53.78,53.78,0,0,1-24.568,7.368,19.723,19.723,0,0,1-15.015-5.775c-9.995-9.58-13.574-29.385-13.54-40.36.019-6.489,4.841-18.127,15.5-23.683,7.314-3.813,19.7-5.813,37.177,6.316a6.43,6.43,0,0,0,6.749.437,6.289,6.289,0,0,0,3.42-5.665V217.921H724.479a9.965,9.965,0,0,1-8.615-15.006c4.536-7.689,5.462-16.4,2.754-25.876-3.627-12.694-11.846-17.058-18.1-18.485-11.56-2.639-26.017,2.7-35.155,12.984-4.635,5.214-8.187,14.9,1.216,31.411a9.958,9.958,0,0,1-.032,10.03,9.856,9.856,0,0,1-8.608,4.942H605.427v62.867a3.11,3.11,0,0,1-1.573,2.98c-3.792,2.048-12.636-3.7-13.011-3.943-10.684-7.008-24.1-6.849-36.818.435-11.784,6.75-20.345,18.345-19.914,26.972.49,9.793,1.476,20.953,5.076,29.471,4.085,9.668,10.747,14.164,20.386,13.746,13.12-.57,26.283-6.875,35.015-12.065a7.377,7.377,0,0,1,11.162,6.336Z" transform="translate(-362.304 -106.154)" fill="#fcfcfc"/>
        <path id="Path_13606" data-name="Path 13606" d="M53.686,351.476c-5.888,3.951-13.658,7.794-22.417,8.67-19.394,1.94-27.152-19.394-28.122-37.818s15.515-35.879,30.061-33.939c6.851.913,14.347,5.268,20.361,9.62a7.331,7.331,0,0,0,11.639-5.937V225.9h66.949a7.635,7.635,0,0,0,6.946-10.831c-5.253-11.417-11.153-28.765-2.924-36.253,12.788-11.637,47.334-11.637,53.152,5.818,3.258,9.774-1.168,21.532-5.694,29.988a7.638,7.638,0,0,0,6.736,11.251h57.14v61.286c0,6.538-7.394,10.6-12.725,6.817-24.717-17.542-51.711.962-54.184,21.568-2.909,24.242,12.606,44.606,29.091,42.667,8.371-.985,17.992-5.72,25.435-10.144a8.179,8.179,0,0,1,12.383,7.012v67.692H181.7a10.258,10.258,0,0,1-9.3-14.641c3.89-8.087,19.831-18.015,18.874-25.677-1.94-15.515-36.485-19.354-55.091-16.465-14.2,2.2-7.142,24.42.929,42.222a10.274,10.274,0,0,1-9.326,14.561H65.208V357.5a7.351,7.351,0,0,0-11.522-6.027" transform="translate(-2.115 -116.227)" fill="#08984b"/>
        <path id="Path_13607" data-name="Path 13607" d="M245.4,421.619H179.584a11.253,11.253,0,0,1-9.575-5.3,11.1,11.1,0,0,1-.623-10.769c1.672-3.476,5.441-7.245,9.086-10.89,5.015-5.016,10.2-10.2,9.7-14.233-.373-2.985-2.12-5.673-5.192-7.99-7-5.28-27.841-10.865-48.762-7.617a7.586,7.586,0,0,0-5.958,3.905c-3.238,5.991-.6,18.76,7.639,36.926a11.267,11.267,0,0,1-10.23,15.964H63.093a.993.993,0,0,1-.993-.993V355.362a6.2,6.2,0,0,0-3.323-5.562,6.381,6.381,0,0,0-6.653.359c-7.606,5.1-15.3,8.077-22.871,8.833a20.854,20.854,0,0,1-16.268-4.934C9.468,351.042,1.17,341.707.04,320.238c-.52-9.873,3.976-20.453,11.731-27.611,5.991-5.53,13.083-8.213,19.453-7.365,5.912.788,12.914,4.085,20.812,9.8A6.338,6.338,0,0,0,62.1,289.93V223.754a.993.993,0,0,1,.993-.993h66.949a6.642,6.642,0,0,0,6.044-9.424c-5.9-12.815-11.148-29.706-2.69-37.4,8.1-7.376,24.909-10.425,38.253-6.94,8.558,2.234,14.421,6.915,16.509,13.178,3.4,10.191-1.258,22.358-5.761,30.771a6.645,6.645,0,0,0,5.861,9.79H245.4a.993.993,0,0,1,.993.993v61.286a9.249,9.249,0,0,1-5.042,8.235,8.767,8.767,0,0,1-9.251-.609c-10.474-7.434-22.248-8.866-33.153-4.034-10.575,4.685-18.217,14.464-19.472,24.911-1.587,13.222,2.481,26.5,10.616,34.655,5.154,5.165,11.32,7.621,17.374,6.908,8.447-.994,18.281-5.993,25.043-10.011a9.173,9.173,0,0,1,13.884,7.866v67.692a.993.993,0,0,1-.993.993m-98.6-59.639c13.02,0,28.735,2.358,37.378,8.876,3.517,2.653,5.525,5.792,5.967,9.329.625,4.995-4.911,10.531-10.264,15.883-3.527,3.528-7.175,7.176-8.7,10.347a9.116,9.116,0,0,0,.514,8.851,9.276,9.276,0,0,0,7.894,4.367H244.4v-66.7a7.187,7.187,0,0,0-10.884-6.158c-6.927,4.116-17.031,9.241-25.826,10.276-6.661.785-13.419-1.871-19.011-7.478-8.555-8.575-12.84-22.482-11.182-36.294,1.335-11.129,9.436-21.527,20.638-26.49,11.572-5.126,24.04-3.624,35.106,4.23a6.815,6.815,0,0,0,7.191.464,7.271,7.271,0,0,0,3.967-6.471V224.72H188.257a8.631,8.631,0,0,1-7.612-12.712c4.319-8.069,8.8-19.686,5.628-29.205-1.868-5.606-7.24-9.827-15.126-11.885-12.762-3.33-28.756-.481-36.415,6.488-3.42,3.112-7.558,11.811,3.158,35.1a8.628,8.628,0,0,1-7.848,12.239H64.086V289.93a8.323,8.323,0,0,1-13.214,6.741c-7.521-5.442-14.406-8.707-19.911-9.441-5.782-.773-12.288,1.728-17.843,6.855-7.333,6.769-11.584,16.75-11.1,26.048.756,14.363,5.337,26.482,12.254,32.418a18.937,18.937,0,0,0,14.777,4.464c7.242-.724,14.631-3.586,21.963-8.506a8.446,8.446,0,0,1,8.694-.462,8.16,8.16,0,0,1,4.375,7.314v64.272h61.581a9.213,9.213,0,0,0,7.777-4.233,9.308,9.308,0,0,0,.644-8.924c-8.624-19.021-11.173-32.038-7.577-38.69a9.569,9.569,0,0,1,7.4-4.923,86.43,86.43,0,0,1,12.885-.882" transform="translate(0 -114.085)" fill="#fcfcfc"/>
        <path id="Path_13608" data-name="Path 13608" d="M974.2,74.646a1.241,1.241,0,0,1-1.416-.866c-.4-1.343-.747-2.723-1.032-4.1a1.24,1.24,0,0,1,.963-1.466l.024,0a1.241,1.241,0,0,1,1.443.968c.271,1.31.6,2.622.98,3.9a1.241,1.241,0,0,1-.836,1.543,1.2,1.2,0,0,1-.127.031M972.29,64.008a1.289,1.289,0,0,1-.146.018,1.24,1.24,0,0,1-1.321-1.154c-.094-1.4-.13-2.826-.1-4.227a1.24,1.24,0,1,1,2.48.044c-.024,1.331.01,2.682.1,4.016a1.241,1.241,0,0,1-1.009,1.3m.482-10.793a1.241,1.241,0,0,1-1.453-1.414c.22-1.387.5-2.782.842-4.145a1.241,1.241,0,1,1,2.408.6c-.322,1.295-.59,2.619-.8,3.937a1.241,1.241,0,0,1-1,1.025M975.656,42.8a1.241,1.241,0,0,1-1.378-1.683c.525-1.3,1.113-2.6,1.747-3.853a1.24,1.24,0,1,1,2.214,1.12c-.6,1.19-1.161,2.422-1.659,3.661a1.24,1.24,0,0,1-.924.756m5.134-9.512a1.24,1.24,0,0,1-1.247-1.927c.8-1.152,1.659-2.286,2.556-3.369a1.24,1.24,0,1,1,1.911,1.582c-.853,1.03-1.67,2.108-2.429,3.2a1.236,1.236,0,0,1-.791.512m7.11-8.138a1.241,1.241,0,0,1-1.067-2.134c1.036-.948,2.125-1.864,3.238-2.72a1.241,1.241,0,0,1,1.514,1.966c-1.057.814-2.093,1.684-3.077,2.585a1.232,1.232,0,0,1-.608.3m44.14-11.257a1.236,1.236,0,0,1-.524-.015c-1.294-.319-2.619-.586-3.939-.793a1.241,1.241,0,0,1,.384-2.451c1.39.218,2.786.5,4.149.834a1.241,1.241,0,0,1-.069,2.425m-35.409,4.9a1.241,1.241,0,0,1-.841-2.3c1.221-.694,2.487-1.343,3.762-1.93a1.241,1.241,0,1,1,1.036,2.254c-1.212.557-2.414,1.173-3.573,1.832a1.249,1.249,0,0,1-.385.142m24.692-6.288a1.251,1.251,0,0,1-.249.021c-1.334-.021-2.686.015-4.019.107a1.241,1.241,0,0,1-.171-2.475c1.4-.1,2.825-.135,4.229-.113a1.241,1.241,0,0,1,.21,2.46m-14.76,2.042a1.241,1.241,0,0,1-.583-2.408c1.344-.4,2.723-.752,4.1-1.039l.026-.005a1.24,1.24,0,0,1,.481,2.434c-1.307.273-2.617.606-3.894.988a1.271,1.271,0,0,1-.13.031" transform="translate(-660.94 -6.834)" fill="#a4cd4c"/>
        <path id="Path_13609" data-name="Path 13609" d="M1181.677,24.108a1.234,1.234,0,0,1-.736-.088c-.583-.263-1.182-.517-1.779-.758a1.24,1.24,0,1,1,.926-2.3c.628.252,1.257.52,1.871.8a1.241,1.241,0,0,1-.282,2.351" transform="translate(-802.342 -14.209)" fill="#a4cd4c"/>
        <path id="Path_13610" data-name="Path 13610" d="M1264.57,108.785a1.241,1.241,0,0,1-1.395-.8c-.215-.6-.447-1.21-.689-1.806a1.24,1.24,0,1,1,2.3-.932c.254.628.5,1.268.725,1.9a1.241,1.241,0,0,1-.75,1.586,1.228,1.228,0,0,1-.192.052" transform="translate(-859.544 -71.131)" fill="#a4cd4c"/>
        <path id="Path_13611" data-name="Path 13611" d="M1103.012,190.069q-.842.157-1.695.287a1.241,1.241,0,0,1-.374-2.453c1.313-.2,2.614-.453,3.883-.755a1.241,1.241,0,1,1,.575,2.413c-.785.187-1.589.358-2.389.507m-8.222.829a1.231,1.231,0,0,1-.21.021c-1.384.022-2.784-.015-4.162-.11a1.24,1.24,0,1,1,.17-2.475c1.308.09,2.638.124,3.954.1a1.24,1.24,0,0,1,.249,2.459m16.842-3.286a1.241,1.241,0,0,1-.676-2.376c1.221-.475,2.439-1.009,3.619-1.587a1.241,1.241,0,1,1,1.092,2.228c-1.243.609-2.526,1.171-3.812,1.672a1.237,1.237,0,0,1-.222.064M1084.2,189.89a1.247,1.247,0,0,1-.481-.006c-1.354-.283-2.712-.627-4.036-1.023a1.24,1.24,0,0,1,.711-2.377c1.257.376,2.547.7,3.832.971a1.241,1.241,0,0,1-.026,2.435m36.849-7.2a1.241,1.241,0,0,1-.922-2.249c1.087-.731,2.157-1.52,3.182-2.344a1.24,1.24,0,0,1,1.554,1.934c-1.079.867-2.206,1.7-3.35,2.468a1.241,1.241,0,0,1-.464.191m8.109-6.873a1.24,1.24,0,0,1-1.13-2.072c.9-.954,1.776-1.958,2.6-2.983a1.24,1.24,0,1,1,1.938,1.549c-.862,1.079-1.781,2.135-2.731,3.139a1.233,1.233,0,0,1-.672.367m6.418-8.478a1.241,1.241,0,0,1-1.293-1.855c.674-1.129,1.308-2.3,1.884-3.477a1.241,1.241,0,1,1,2.229,1.09c-.606,1.24-1.273,2.471-1.983,3.659a1.238,1.238,0,0,1-.838.583m4.416-9.675a1.241,1.241,0,0,1-1.405-1.607c.411-1.248.773-2.528,1.076-3.8a1.24,1.24,0,1,1,2.414.573c-.319,1.344-.7,2.693-1.133,4.007a1.241,1.241,0,0,1-.952.832m2.186-10.412a1.255,1.255,0,0,1-.347.015,1.24,1.24,0,0,1-1.116-1.353c.125-1.305.2-2.633.211-3.947a1.241,1.241,0,0,1,2.481.028c-.016,1.383-.09,2.781-.222,4.155a1.242,1.242,0,0,1-1.006,1.1m-.156-10.631-.076.012a1.24,1.24,0,0,1-1.384-1.078c-.12-.96-.27-1.927-.448-2.876q-.1-.515-.2-1.026a1.24,1.24,0,0,1,.959-1.469,1.226,1.226,0,0,1,1.469.959q.113.538.214,1.079c.187,1,.345,2.016.47,3.025a1.24,1.24,0,0,1-1,1.373" transform="translate(-734.535 -88.616)" fill="#a4cd4c"/>
        <path id="Path_13612" data-name="Path 13612" d="M1057.024,299.845a1.235,1.235,0,0,1-.742-.091c-.611-.279-1.228-.575-1.833-.882a1.241,1.241,0,0,1,1.122-2.213c.575.291,1.161.573,1.741.838a1.24,1.24,0,0,1-.288,2.348" transform="translate(-717.493 -201.897)" fill="#a4cd4c"/>
        <path id="Path_13613" data-name="Path 13613" d="M1025.339,115.466a.579.579,0,0,0,.67.055l6.063-3.611a30.748,30.748,0,0,0,9.487,3.03l2.849,6.451a.58.58,0,0,0,.579.344l8.435-.709a.58.58,0,0,0,.513-.435l1.732-6.836a30.75,30.75,0,0,0,8.848-4.572l6.581,2.548a.58.58,0,0,0,.653-.166l5.462-6.466a.581.581,0,0,0,.056-.671l-3.612-6.063a30.731,30.731,0,0,0,3.031-9.487l6.451-2.849a.58.58,0,0,0,.343-.579l-.709-8.435a.579.579,0,0,0-.435-.513L1075.5,74.77a30.735,30.735,0,0,0-4.572-8.848l2.548-6.581a.58.58,0,0,0-.167-.652l-6.466-5.463a.579.579,0,0,0-.671-.055l-6.063,3.611a30.746,30.746,0,0,0-9.487-3.03l-2.849-6.451a.58.58,0,0,0-.579-.343l-8.435.709a.58.58,0,0,0-.514.435l-1.732,6.836a30.74,30.74,0,0,0-8.848,4.572l-6.581-2.548a.58.58,0,0,0-.652.166l-5.463,6.466a.58.58,0,0,0-.056.671l3.611,6.063a30.731,30.731,0,0,0-3.03,9.487l-6.451,2.849a.579.579,0,0,0-.344.579l.709,8.435a.58.58,0,0,0,.435.513l6.836,1.732a30.741,30.741,0,0,0,4.572,8.848l-2.548,6.581a.58.58,0,0,0,.167.652Z" transform="translate(-686.807 -31.97)" fill="#69bc46"/>
        <path id="Path_13614" data-name="Path 13614" d="M1109.273,154.327a8.513,8.513,0,1,1,1.208-.319,8.521,8.521,0,0,1-1.208.319m-2.744-14.781a6.607,6.607,0,0,0-.936.247,6.5,6.5,0,1,0,.936-.247" transform="translate(-748.431 -93.586)" fill="#fff"/>
        <path id="Path_13615" data-name="Path 13615" d="M1085.442,139.583a21.474,21.474,0,0,1-2.13.288q-.34.028-.68.046a21.094,21.094,0,0,1-3.349-.093l-.045,0-.129-.015-.25-.031a.5.5,0,1,1,.127-.984,19.949,19.949,0,0,0,20.226-10.529,19.807,19.807,0,0,0,2.206-10.906,20.223,20.223,0,0,0-.275-2.032,19.929,19.929,0,1,0-35.77,15.332.5.5,0,1,1-.805.58,20.861,20.861,0,0,1-3.57-8.35,20.925,20.925,0,0,1,18.809-24.706,20.926,20.926,0,0,1,22.312,16.961,21.324,21.324,0,0,1,.288,2.133,20.925,20.925,0,0,1-16.964,22.312" transform="translate(-722.169 -66.795)" fill="#fff"/>
        <g id="Group_3409" data-name="Group 3409" transform="translate(273.243 59.229)" opacity="0.3">
          <g id="Group_3408" data-name="Group 3408">
            <g id="Group_3407" data-name="Group 3407" clip-path="url(#clip-path-6)">
              <path id="Path_13616" data-name="Path 13616" d="M866.389,330.631a.765.765,0,0,1-.823-.406c-.295-.58-.576-1.177-.836-1.773a.766.766,0,1,1,1.405-.611c.248.569.516,1.138.8,1.691a.765.765,0,0,1-.543,1.1" transform="translate(-861.979 -282.134)" fill="#91b3fa"/>
              <path id="Path_13617" data-name="Path 13617" d="M858.478,228.622a.766.766,0,0,1-.875-.537,33.222,33.222,0,0,1-.787-3.277c-.043-.232-.084-.465-.123-.7a.794.794,0,0,1,.631-.882.767.767,0,0,1,.881.631q.055.336.117.668a31.839,31.839,0,0,0,.75,3.126.766.766,0,0,1-.518.952c-.026.007-.051.013-.077.018m-1.3-7.849a.831.831,0,0,1-.109.013.767.767,0,0,1-.8-.734,33.363,33.363,0,0,1,.079-4.077.766.766,0,0,1,1.528.124,31.736,31.736,0,0,0-.076,3.889.767.767,0,0,1-.624.785m.646-7.929a.766.766,0,0,1-.89-.91,32.962,32.962,0,0,1,1.08-3.936.766.766,0,0,1,1.45.5,31.372,31.372,0,0,0-1.029,3.753.768.768,0,0,1-.61.6m2.576-7.528a.766.766,0,0,1-.829-1.089,33.21,33.21,0,0,1,2.01-3.551.766.766,0,0,1,1.284.836,31.529,31.529,0,0,0-1.916,3.386.766.766,0,0,1-.549.418m4.336-6.671a.766.766,0,0,1-.728-1.246,33.575,33.575,0,0,1,2.81-2.954.766.766,0,1,1,1.044,1.122,31.845,31.845,0,0,0-2.681,2.819.763.763,0,0,1-.445.26m5.823-5.415a.766.766,0,0,1-.59-1.374,32.988,32.988,0,0,1,3.446-2.179.766.766,0,1,1,.737,1.343,31.382,31.382,0,0,0-3.284,2.078.763.763,0,0,1-.308.132m6.968-3.826a.766.766,0,0,1-.423-1.465,33.22,33.22,0,0,1,3.876-1.268.767.767,0,0,1,.386,1.484,31.538,31.538,0,0,0-3.7,1.209.763.763,0,0,1-.142.041m11.675-2.282a.784.784,0,0,1-.135.013,31.832,31.832,0,0,0-3.377.213c-.17.019-.337.04-.5.062a.766.766,0,0,1-.2-1.519c.178-.023.355-.046.534-.066a33.413,33.413,0,0,1,3.537-.222.766.766,0,0,1,.149,1.519" transform="translate(-856.245 -185.602)" fill="#91b3fa"/>
            </g>
          </g>
        </g>
        <g id="Group_3412" data-name="Group 3412" transform="translate(290.979 100.5)" opacity="0.3">
          <g id="Group_3411" data-name="Group 3411">
            <g id="Group_3410" data-name="Group 3410" clip-path="url(#clip-path-7)">
              <path id="Path_13618" data-name="Path 13618" d="M945.335,339.194a.766.766,0,0,1-.291-1.5,31.71,31.71,0,0,0,3.7-.977.766.766,0,0,1,.481,1.455,33.379,33.379,0,0,1-3.878,1.024l-.01,0m-3.883.538c-.027,0-.054.008-.082.01a33.523,33.523,0,0,1-4.012.072.766.766,0,0,1,.065-1.531,32.073,32.073,0,0,0,3.828-.068.766.766,0,0,1,.2,1.517m11.311-2.993a.766.766,0,0,1-.468-1.445,31.788,31.788,0,0,0,3.354-1.844.766.766,0,0,1,.818,1.3,33.262,33.262,0,0,1-3.516,1.932.775.775,0,0,1-.187.061M933.632,339.4a.766.766,0,0,1-.266,0,32.848,32.848,0,0,1-3.912-.9.766.766,0,1,1,.434-1.47,31.513,31.513,0,0,0,3.73.858.766.766,0,0,1,.015,1.509m25.746-6.834a.766.766,0,0,1-.626-1.347,31.5,31.5,0,0,0,2.812-2.595.766.766,0,0,1,1.106,1.062,33.358,33.358,0,0,1-2.948,2.72.764.764,0,0,1-.343.159m5.419-5.642a.766.766,0,0,1-.754-1.213,32.066,32.066,0,0,0,2.111-3.193.766.766,0,0,1,1.327.766,33.556,33.556,0,0,1-2.212,3.347.764.764,0,0,1-.472.293m3.912-6.778a.767.767,0,0,1-.845-1.054,31.307,31.307,0,0,0,1.283-3.606.766.766,0,0,1,1.472.425,33.146,33.146,0,0,1-1.345,3.782.767.767,0,0,1-.565.453" transform="translate(-923.453 -314.928)" fill="#91b3fa"/>
              <path id="Path_13619" data-name="Path 13619" d="M914.462,379.635a.761.761,0,0,1-.445-.051c-.6-.261-1.2-.542-1.773-.833a.766.766,0,1,1,.693-1.367c.548.278,1.117.545,1.691.8a.766.766,0,0,1-.166,1.456" transform="translate(-911.824 -357.397)" fill="#91b3fa"/>
            </g>
          </g>
        </g>
        <path id="Path_13620" data-name="Path 13620" d="M892.6,255.943a.388.388,0,0,0,.449.037l4.057-2.416a20.575,20.575,0,0,0,6.349,2.028l1.906,4.316a.388.388,0,0,0,.387.23l5.644-.475a.388.388,0,0,0,.344-.291l1.159-4.574a20.571,20.571,0,0,0,5.921-3.059l4.4,1.705a.388.388,0,0,0,.436-.111l3.656-4.327a.388.388,0,0,0,.037-.449L924.93,244.5a20.571,20.571,0,0,0,2.028-6.348l4.317-1.907a.388.388,0,0,0,.23-.387l-.474-5.644a.388.388,0,0,0-.291-.344l-4.574-1.159a20.57,20.57,0,0,0-3.059-5.921l1.705-4.4a.388.388,0,0,0-.111-.437l-4.327-3.655a.388.388,0,0,0-.449-.037l-4.057,2.416a20.565,20.565,0,0,0-6.348-2.028l-1.907-4.317a.388.388,0,0,0-.387-.23l-5.644.475a.388.388,0,0,0-.344.291l-1.159,4.575a20.569,20.569,0,0,0-5.921,3.059l-4.4-1.705a.387.387,0,0,0-.436.111l-3.656,4.327a.387.387,0,0,0-.037.449l2.416,4.057a20.563,20.563,0,0,0-2.028,6.348l-4.317,1.907a.388.388,0,0,0-.23.387l.475,5.644a.388.388,0,0,0,.291.344l4.574,1.159a20.583,20.583,0,0,0,3.059,5.921l-1.705,4.4a.388.388,0,0,0,.111.437Z" transform="translate(-600.175 -143.052)" fill="#016b37"/>
        <path id="Path_13621" data-name="Path 13621" d="M948.556,281.84a5.81,5.81,0,1,1,.831-.219,5.923,5.923,0,0,1-.831.219m-1.834-9.891a4.344,4.344,0,0,0-.605.16,4.263,4.263,0,1,0,.605-.16" transform="translate(-641.192 -184.072)" fill="#bdd0fb"/>
        <path id="Path_13622" data-name="Path 13622" d="M931.955,271.583q-.715.134-1.455.2a14.513,14.513,0,0,1-2.94-.051l-.131-.017a.766.766,0,0,1-.655-.618.767.767,0,0,1,.851-.9,12.929,12.929,0,0,0,2.746.06h0l.15-.014a12.774,12.774,0,0,0,5.952-2.118,12.967,12.967,0,0,0,2.6-2.308l.019-.022.057-.067a12.819,12.819,0,0,0,3-9.407,13.124,13.124,0,0,0-.177-1.315,12.9,12.9,0,0,0-25.534,3.477,12.887,12.887,0,0,0,2.376,6.447.766.766,0,1,1-1.244.895,14.4,14.4,0,0,1-2.463-5.761,14.566,14.566,0,0,1-.2-1.453,14.434,14.434,0,0,1,28.566-3.891,14.71,14.71,0,0,1,.2,1.471,14.454,14.454,0,0,1-11.719,15.4" transform="translate(-622.91 -165.428)" fill="#bdd0fb"/>
      </g>
    </g>
    <g id="Group_3416" data-name="Group 3416" transform="translate(167.072 199.897)">
      <g id="Group_3415" data-name="Group 3415" clip-path="url(#clip-path-8)">
        <rect id="Rectangle_189" data-name="Rectangle 189" width="47.446" height="30.145" transform="matrix(0.945, -0.328, 0.328, 0.945, -5.099, 1.768)" fill="url(#linear-gradient)"/>
      </g>
    </g>
    <g id="Group_3418" data-name="Group 3418" transform="translate(0 -0.001)">
      <g id="Group_3417" data-name="Group 3417" clip-path="url(#clip-path-3)">
        <path id="Path_13624" data-name="Path 13624" d="M689.785,515.749s-17.768,22.379-40.617,35.313a61.445,61.445,0,0,0,4.414,13.307c11.853-1.945,25.571-6.587,37.2-16.9Z" transform="translate(-442.007 -351.164)" fill="#0d3455"/>
        <path id="Path_13625" data-name="Path 13625" d="M793.869,607.474c-3.475-16.5-6.949-26.06-18.584-57.344-3.661-9.845-6.986-19.806-5.379-30.186l1.8-11.658s22.611-7.651,47.674-.322c0,0,34.195,14.855,10.969,88.218-10.469,11.713-22.721,15.051-36.484,11.293" transform="translate(-523.932 -343.7)" fill="#0d3455"/>
      </g>
    </g>
    <g id="Group_3420" data-name="Group 3420" transform="translate(251.627 145.962)">
      <g id="Group_3419" data-name="Group 3419" clip-path="url(#clip-path-10)">
        <rect id="Rectangle_191" data-name="Rectangle 191" width="31.033" height="28.053" transform="translate(-6.3 2.1) rotate(-18.435)" fill="url(#linear-gradient-2)"/>
      </g>
    </g>
    <g id="Group_3422" data-name="Group 3422" transform="translate(247.298 127.389)">
      <g id="Group_3421" data-name="Group 3421" clip-path="url(#clip-path-11)">
        <rect id="Rectangle_192" data-name="Rectangle 192" width="33.815" height="32.492" transform="translate(-9.68 22.264) rotate(-66.501)" fill="url(#linear-gradient-3)"/>
      </g>
    </g>
    <g id="Group_3424" data-name="Group 3424" transform="translate(0 -0.001)">
      <g id="Group_3423" data-name="Group 3423" clip-path="url(#clip-path-3)">
        <path id="Path_13628" data-name="Path 13628" d="M786.824,392.719l-5.735,9.56a1.784,1.784,0,0,1-.315.391c-.683.636-3.019,2.484-4.824-.033-1.539-2.145-2.983-4.095-4.531-4.9a1.833,1.833,0,0,0-2.474.814,68.528,68.528,0,0,0-3.925,9.311,1.826,1.826,0,0,0,1.063,2.239,50.882,50.882,0,0,0,11.014,3.213,1.835,1.835,0,0,0,1.734-.737c1.757-2.407,6.709-9.133,8.4-10.817,1.57-1.564,4.468-.975,5.774-.6a1.845,1.845,0,0,0,1.465-.192c1.325-.8,3.637-2.785,1.522-6.15a1.836,1.836,0,0,1,.568-2.494c1.479-.973,3.084-2.8,1.555-5.757a5.72,5.72,0,0,0-6.2-3.033,1.905,1.905,0,0,1-2-1.111,1.212,1.212,0,0,0-.946-.745,1.78,1.78,0,0,1-1.441-2.091,4.7,4.7,0,0,0-2.623-5.383c-4.961-2.728-9.308,1.717-10.413,5.469s4.442,6.4,7.932,6.847c2.563.325,3.969,3.123,4.534,4.585a1.837,1.837,0,0,1-.138,1.611" transform="translate(-520.831 -254.216)" fill="#0d3455"/>
      </g>
    </g>
    <g id="Group_3426" data-name="Group 3426" transform="translate(263.983 144.83)">
      <g id="Group_3425" data-name="Group 3425" clip-path="url(#clip-path-13)">
        <rect id="Rectangle_194" data-name="Rectangle 194" width="13.434" height="13.53" transform="translate(-3.713 8.54) rotate(-66.501)" fill="url(#linear-gradient-4)"/>
      </g>
    </g>
    <g id="Group_3428" data-name="Group 3428" transform="translate(0 -0.001)">
      <g id="Group_3427" data-name="Group 3427" clip-path="url(#clip-path-3)">
        <path id="Path_13630" data-name="Path 13630" d="M836.988,1282.387c5.461.472,14.939,1.239,22.411,1.568,4.491.2,7.077-.242,8.566-.838,0,.168-.007.327-.014.474a1.545,1.545,0,0,1-1.468,1.46,262.484,262.484,0,0,1-29.344.03,1.1,1.1,0,0,1-.9-1.653,8.97,8.97,0,0,1,.746-1.039" transform="translate(-569.278 -873.154)" fill="#08984b"/>
        <path id="Path_13631" data-name="Path 13631" d="M861.319,1260.427c-7.472-.329-16.95-1.1-22.411-1.568,5.369-6.587,22.411-11.027,22.411-11.027h4.813a20.181,20.181,0,0,1,3.753,11.756c-1.489.6-4.075,1.036-8.566.838" transform="translate(-571.198 -849.626)" fill="#0d3455"/>
      </g>
    </g>
    <g id="Group_3430" data-name="Group 3430" transform="translate(286.765 390.347)">
      <g id="Group_3429" data-name="Group 3429" clip-path="url(#clip-path-15)">
        <rect id="Rectangle_196" data-name="Rectangle 196" width="8.979" height="10.982" transform="translate(0 0)" fill="url(#linear-gradient-5)"/>
      </g>
    </g>
    <g id="Group_3432" data-name="Group 3432" transform="translate(0 -0.001)">
      <g id="Group_3431" data-name="Group 3431" clip-path="url(#clip-path-3)">
        <path id="Path_13633" data-name="Path 13633" d="M1105.079,1280.954a4.322,4.322,0,0,0,3.889-2.876l.009.036a3.078,3.078,0,0,1-2.074,3.509,13.552,13.552,0,0,1-5.743.9,5.709,5.709,0,0,1-4.306-1.986l-.013-.018c1.784.883,4.289.987,8.238.436" transform="translate(-746.82 -870.22)" fill="#08984b"/>
        <path id="Path_13634" data-name="Path 13634" d="M1081.531,1223.028h3.969c6.046-.124,9.843,12.628,11.085,17.567a4.323,4.323,0,0,1-3.889,2.875c-3.949.551-6.454.447-8.238-.436-3.266-4.3-4.886-10.593-5.664-14.267a5.009,5.009,0,0,1,2.736-5.739" transform="translate(-734.438 -832.737)" fill="#0d3455"/>
      </g>
    </g>
    <g id="Group_3434" data-name="Group 3434" transform="translate(342.097 382.018)">
      <g id="Group_3433" data-name="Group 3433" clip-path="url(#clip-path-17)">
        <rect id="Rectangle_198" data-name="Rectangle 198" width="10.929" height="12.76" fill="url(#linear-gradient-6)"/>
      </g>
    </g>
    <g id="Group_3439" data-name="Group 3439" transform="translate(0 -0.001)">
      <g id="Group_3438" data-name="Group 3438" clip-path="url(#clip-path-3)">
        <path id="Path_13636" data-name="Path 13636" d="M927.276,924.285c-2.742,2.432-11.661,2.754-11.661,2.754-32.129-77.112-45.524-98.341-45.524-98.341,4.639,29.106,1,103.816,1,103.816-5.3,2.339-12.137,0-12.137,0-.431-47.65-7.14-98.851-15.792-131.613,21.715-.488,33.517-5.222,37.287-8.2,18.1,29.182,46.827,131.589,46.827,131.589" transform="translate(-574.094 -539.732)" fill="#0d3455"/>
        <path id="Path_13637" data-name="Path 13637" d="M826.019,865.38l4,24.852a8.186,8.186,0,0,0,9.089,6.806l59.8-7.295a5.906,5.906,0,0,0,5.2-5.733c.128-6.422-.124-17.85-2.819-28.262Z" transform="translate(-562.422 -582.663)" fill="#68ba45"/>
        <path id="Path_13638" data-name="Path 13638" d="M844.269,895.478a.171.171,0,0,1-.021-.34l1.354-.165a.166.166,0,0,1,.19.148.17.17,0,0,1-.148.19l-1.354.165-.021,0m-3.163-.079a.175.175,0,0,1-.038,0,7.984,7.984,0,0,1-1.325-.426.171.171,0,0,1,.133-.314,7.594,7.594,0,0,0,1.268.408.171.171,0,0,1-.038.337m7.676-.472a.171.171,0,0,1-.02-.34l1.354-.165a.172.172,0,0,1,.189.149.17.17,0,0,1-.148.19l-1.355.165-.02,0m4.514-.55a.171.171,0,0,1-.021-.34l1.354-.165a.168.168,0,0,1,.19.148.17.17,0,0,1-.148.19l-1.354.165-.021,0m4.513-.551a.171.171,0,0,1-.021-.34l1.354-.165a.166.166,0,0,1,.19.148.171.171,0,0,1-.148.19l-1.354.165-.021,0m4.513-.55a.171.171,0,0,1-.021-.34l1.354-.165a.17.17,0,0,1,.042.338l-1.354.165-.021,0m-25.117-.084a.17.17,0,0,1-.123-.052,7.963,7.963,0,0,1-.872-1.084.17.17,0,1,1,.283-.19,7.609,7.609,0,0,0,.835,1.038.171.171,0,0,1,0,.242.173.173,0,0,1-.118.047m29.63-.467a.171.171,0,0,1-.021-.34l1.354-.165a.168.168,0,0,1,.19.148.17.17,0,0,1-.148.19l-1.354.165-.021,0m4.513-.551a.171.171,0,0,1-.02-.34l1.354-.165a.17.17,0,1,1,.041.338l-1.354.165h-.021m4.514-.55a.171.171,0,0,1-.021-.34l1.354-.165a.17.17,0,1,1,.041.338l-1.354.165-.021,0m4.513-.551a.171.171,0,0,1-.021-.34l1.354-.165a.168.168,0,0,1,.19.148.17.17,0,0,1-.148.19l-1.354.165h-.021m4.513-.55a.171.171,0,0,1-.021-.34l1.354-.165a.167.167,0,0,1,.19.148.17.17,0,0,1-.148.19l-1.354.165-.021,0m4.513-.551a.171.171,0,0,1-.021-.34l1.354-.165a.171.171,0,1,1,.042.339l-1.354.165H889.4m4.514-.551a.171.171,0,0,1-.02-.34l1.354-.165a.168.168,0,0,1,.19.149.17.17,0,0,1-.149.19l-1.354.165-.02,0m-58.745-.222a.171.171,0,0,1-.168-.141l-.219-1.348a.171.171,0,1,1,.337-.055L835.34,889a.17.17,0,0,1-.138.2.152.152,0,0,1-.03,0m63.258-.328a.171.171,0,0,1-.021-.34l1.354-.165a.167.167,0,0,1,.19.148.171.171,0,0,1-.148.19l-1.354.165h-.021m4.4-.98a.171.171,0,0,1-.085-.319,5.46,5.46,0,0,0,1.058-.788.171.171,0,0,1,.235.247,5.8,5.8,0,0,1-1.125.837.167.167,0,0,1-.084.023m-68.383-3.18a.171.171,0,0,1-.168-.144l-.217-1.347a.17.17,0,0,1,.141-.2.167.167,0,0,1,.2.141l.217,1.347a.171.171,0,0,1-.141.2l-.027,0m71.053-.346a.178.178,0,0,1-.041-.005.17.17,0,0,1-.125-.206,5.4,5.4,0,0,0,.156-1.191l0-.122a.171.171,0,0,1,.17-.169h0a.171.171,0,0,1,.169.173l0,.125a5.77,5.77,0,0,1-.166,1.265.17.17,0,0,1-.165.13m-71.775-4.143a.17.17,0,0,1-.168-.144l-.216-1.347a.17.17,0,1,1,.336-.054l.216,1.347a.17.17,0,0,1-.141.2l-.027,0m71.958-.391a.171.171,0,0,1-.171-.169q0-.661-.016-1.362a.171.171,0,0,1,.168-.174.165.165,0,0,1,.174.168q.012.7.016,1.366a.171.171,0,0,1-.169.172Zm-72.68-4.1a.17.17,0,0,1-.168-.143l-.216-1.347a.17.17,0,0,1,.141-.2.167.167,0,0,1,.2.141l.216,1.347a.171.171,0,0,1-.141.2l-.027,0m72.571-.448a.171.171,0,0,1-.17-.163q-.028-.671-.065-1.361a.17.17,0,0,1,.161-.179.161.161,0,0,1,.179.161c.025.461.046.917.065,1.364a.17.17,0,0,1-.163.177h-.007m-73.292-4.041a.17.17,0,0,1-.168-.144l-.217-1.347a.17.17,0,0,1,.336-.054l.217,1.347a.17.17,0,0,1-.141.2l-.027,0m73.015-.5a.171.171,0,0,1-.17-.157q-.053-.673-.117-1.358a.17.17,0,0,1,.154-.185.166.166,0,0,1,.185.154q.063.686.118,1.361a.171.171,0,0,1-.157.184H905.3m-73.737-3.99a.171.171,0,0,1-.168-.144l-.245-1.521.7-.09a.166.166,0,0,1,.191.148.171.171,0,0,1-.147.191l-.353.045.189,1.173a.17.17,0,0,1-.141.2l-.027,0m73.275-.534a.171.171,0,0,1-.169-.149q-.084-.673-.178-1.35a.17.17,0,0,1,.146-.192.168.168,0,0,1,.192.146q.095.68.179,1.355a.171.171,0,0,1-.148.19h-.021m-69.807-1.285a.17.17,0,0,1-.022-.34l1.352-.173a.164.164,0,0,1,.191.148.171.171,0,0,1-.147.191l-1.353.173h-.022m4.51-.577a.171.171,0,0,1-.022-.34l1.353-.173a.165.165,0,0,1,.191.148.171.171,0,0,1-.147.191l-1.353.173-.022,0m4.51-.578a.171.171,0,0,1-.022-.34l1.353-.173a.166.166,0,0,1,.191.147.17.17,0,0,1-.147.191l-1.353.173h-.022m4.51-.577a.171.171,0,0,1-.022-.34l1.353-.173a.164.164,0,0,1,.191.147.171.171,0,0,1-.147.191l-1.353.173-.022,0m4.51-.578a.171.171,0,0,1-.022-.34l1.353-.173a.165.165,0,0,1,.191.147.171.171,0,0,1-.147.191l-1.353.173h-.022m4.51-.577a.171.171,0,0,1-.022-.34l1.353-.173a.166.166,0,0,1,.191.147.171.171,0,0,1-.147.191l-1.353.173-.022,0m46.582-.327a.17.17,0,0,1-.168-.141q-.119-.669-.249-1.338a.17.17,0,1,1,.334-.065q.132.672.25,1.344a.17.17,0,0,1-.138.2.147.147,0,0,1-.03,0m-42.072-.251a.171.171,0,0,1-.022-.34l1.353-.173a.163.163,0,0,1,.191.148.17.17,0,0,1-.147.191l-1.353.173h-.022m4.51-.577a.17.17,0,0,1-.022-.339l1.353-.173a.164.164,0,0,1,.191.148.171.171,0,0,1-.147.191l-1.353.173H866.6m4.51-.577a.171.171,0,0,1-.022-.34l1.353-.173a.165.165,0,0,1,.191.148.17.17,0,0,1-.147.191l-1.353.173h-.022m4.51-.577a.171.171,0,0,1-.022-.34l1.353-.173a.167.167,0,0,1,.191.148.17.17,0,0,1-.147.191l-1.353.173h-.022m4.51-.577a.171.171,0,0,1-.022-.34l1.353-.173a.167.167,0,0,1,.191.147.171.171,0,0,1-.147.191l-1.353.173h-.022m4.51-.577a.171.171,0,0,1-.022-.34l1.353-.173a.162.162,0,0,1,.191.147.17.17,0,0,1-.147.191l-1.353.173h-.022m4.51-.577a.171.171,0,0,1-.022-.34l1.353-.173a.162.162,0,0,1,.191.147.171.171,0,0,1-.147.191l-1.353.173-.022,0m4.51-.577a.171.171,0,0,1-.022-.34l1.353-.173a.164.164,0,0,1,.191.147.171.171,0,0,1-.147.191l-1.353.173h-.022m9.577-.161a.171.171,0,0,1-.166-.13q-.107-.443-.22-.883l-.149.019a.167.167,0,0,1-.191-.147.171.171,0,0,1,.147-.191l.448-.057.037.146q.134.516.259,1.034a.171.171,0,0,1-.125.206.155.155,0,0,1-.041.005m-5.066-.416a.171.171,0,0,1-.022-.34l1.353-.173a.165.165,0,0,1,.191.148.171.171,0,0,1-.148.191l-1.353.173-.022,0" transform="translate(-565.915 -582.754)" fill="#fff"/>
        <path id="Path_13639" data-name="Path 13639" d="M873.494,813.845l-.066-1.948a1.491,1.491,0,0,1,1.012-1.008c1.824-.534,6.374-1.646,8.81-.269l.618,2.194Z" transform="translate(-594.702 -551.485)" fill="#68ba45"/>
        <path id="Path_13640" data-name="Path 13640" d="M884.521,798.494a2.694,2.694,0,0,1-1.289.163,1.173,1.173,0,0,1-1.032-1.014l-.771-6.026,3.067-.392.771,6.022a1.178,1.178,0,0,1-.746,1.247" transform="translate(-600.15 -538.731)" fill="#68ba45"/>
        <path id="Path_13641" data-name="Path 13641" d="M966.579,801.933l-.066-1.948a1.492,1.492,0,0,1,1.012-1.008c1.824-.534,6.374-1.646,8.81-.269l.619,2.194Z" transform="translate(-658.082 -543.374)" fill="#68ba45"/>
        <path id="Path_13642" data-name="Path 13642" d="M977.434,785.227a2.689,2.689,0,0,1-1.288.163,1.173,1.173,0,0,1-1.032-1.014l-.852-6.661,3.067-.392.852,6.657a1.178,1.178,0,0,1-.746,1.247" transform="translate(-663.357 -529.265)" fill="#68ba45"/>
        <path id="Path_13643" data-name="Path 13643" d="M876.828,767.818l32.843-5.312a1.6,1.6,0,0,0,1.352-1.5,13.56,13.56,0,0,0-.432-4.194,3.836,3.836,0,0,0-4.1-2.748c-6.172.641-21.835,2.65-30.031,7.169a3.039,3.039,0,0,0-1.553,2.325,7.366,7.366,0,0,0,.349,3.359,1.431,1.431,0,0,0,1.572.9" transform="translate(-595.671 -513.414)" fill="#68ba45"/>
        <g id="Group_3437" data-name="Group 3437" transform="translate(279.722 245.1)" opacity="0.58">
          <g id="Group_3436" data-name="Group 3436">
            <g id="Group_3435" data-name="Group 3435" clip-path="url(#clip-path-19)">
              <path id="Path_13644" data-name="Path 13644" d="M877.175,776.026a.456.456,0,0,1-.443-.352,8.164,8.164,0,0,1-.125-2.622,3.078,3.078,0,0,1,1.811-2.383,36.821,36.821,0,0,1,8.1-2.61.455.455,0,1,1,.14.9,36.8,36.8,0,0,0-7.873,2.544,2.164,2.164,0,0,0-1.274,1.674,7.271,7.271,0,0,0,.11,2.293.455.455,0,0,1-.34.546.482.482,0,0,1-.1.011" transform="translate(-876.55 -768.053)" fill="#fff"/>
            </g>
          </g>
        </g>
        <path id="Path_13645" data-name="Path 13645" d="M820.081,808.9c10.638-1.5,56.672-7.883,70.268-7.98a2.748,2.748,0,0,1,2.613,1.812,90.762,90.762,0,0,1,4.77,19.842,2.407,2.407,0,0,1-1.663,2.526l-29.824,9.693-10.857,1.389-33.395-2.306a2.567,2.567,0,0,1-2.356-2.1c-.742-4.117-2.317-13.8-2-20.2a2.841,2.841,0,0,1,2.442-2.675" transform="translate(-556.687 -545.33)" fill="#68ba45"/>
        <path id="Path_13646" data-name="Path 13646" d="M860.61,838.984H860.6l-1.361-.094a.171.171,0,0,1-.158-.182.182.182,0,0,1,.182-.159l1.361.094a.171.171,0,0,1-.012.341m1.243-.159a.171.171,0,0,1-.022-.34l1.353-.173a.162.162,0,0,1,.191.147.171.171,0,0,1-.147.191l-1.353.173-.022,0m-5.779-.154h-.012l-1.361-.094a.17.17,0,0,1-.159-.182.181.181,0,0,1,.182-.159l1.361.094a.171.171,0,0,1-.011.341m-4.536-.314h-.012l-1.361-.093a.171.171,0,0,1-.158-.182.187.187,0,0,1,.182-.158l1.361.094a.171.171,0,0,1-.011.341m14.826-.109a.171.171,0,0,1-.022-.34l1.353-.173a.164.164,0,0,1,.191.147.171.171,0,0,1-.147.191l-1.353.173-.022,0m-19.361-.2h-.012l-1.361-.094a.171.171,0,0,1-.159-.182.186.186,0,0,1,.182-.159l1.361.094a.171.171,0,0,1-.011.341m-4.536-.313h-.011l-1.361-.094a.171.171,0,0,1-.159-.182.184.184,0,0,1,.182-.159l1.361.094a.171.171,0,0,1-.012.341m28.407-.061a.171.171,0,0,1-.021-.34l.088-.011,1.181-.387a.173.173,0,0,1,.215.109.171.171,0,0,1-.11.215l-1.332.412h-.021m-32.943-.252h-.012l-1.361-.094a.171.171,0,0,1-.159-.182.183.183,0,0,1,.182-.159l1.361.094a.171.171,0,0,1-.012.341m-4.536-.314h-.012l-1.361-.093a.171.171,0,0,1-.158-.182.18.18,0,0,1,.182-.158l1.361.094a.171.171,0,0,1-.012.341m-4.536-.313h-.012l-1.452-.1-.024-.13a.188.188,0,0,1,.133-.218.173.173,0,0,1,.136.023l1.232.085a.17.17,0,0,1-.012.341m46.343-.51a.17.17,0,0,1-.053-.333l1.3-.421a.174.174,0,0,1,.215.109.171.171,0,0,1-.109.215l-1.3.422a.19.19,0,0,1-.053.008m4.324-1.405a.171.171,0,0,1-.053-.333l1.3-.421a.171.171,0,1,1,.106.325l-1.3.422a.187.187,0,0,1-.053.008M827,833.519a.17.17,0,0,1-.168-.144c-.069-.431-.14-.882-.211-1.35a.171.171,0,0,1,.143-.194.173.173,0,0,1,.195.143c.071.467.14.917.209,1.348a.17.17,0,0,1-.142.195l-.026,0m56.852-.049a.17.17,0,0,1-.053-.333l1.3-.422a.17.17,0,1,1,.106.324l-1.3.422a.168.168,0,0,1-.053.009m4.324-1.405a.17.17,0,0,1-.053-.333l1.3-.422a.17.17,0,1,1,.106.324l-1.3.422a.167.167,0,0,1-.053.009m4.324-1.405a.171.171,0,0,1-.053-.333l1.3-.422a.17.17,0,1,1,.106.324l-1.3.422a.169.169,0,0,1-.053.009m4.324-1.405a.17.17,0,0,1-.053-.333l1.3-.422a.17.17,0,1,1,.106.324l-1.3.422a.169.169,0,0,1-.053.009m-70.48-.237a.171.171,0,0,1-.169-.148c-.058-.446-.115-.9-.17-1.356a.17.17,0,1,1,.338-.041c.055.456.112.907.17,1.352a.171.171,0,0,1-.147.192h-.022m73.932-1.727a.171.171,0,0,1-.169-.15q-.084-.675-.182-1.348a.171.171,0,0,1,.144-.193.166.166,0,0,1,.193.144q.1.676.183,1.356a.171.171,0,0,1-.148.19h-.021m-74.435-2.8a.171.171,0,0,1-.169-.156c-.041-.455-.078-.911-.113-1.363a.171.171,0,0,1,.158-.183.174.174,0,0,1,.183.158c.034.45.071.9.111,1.358a.17.17,0,0,1-.154.185h-.015m73.719-1.695a.17.17,0,0,1-.167-.138q-.132-.674-.271-1.335a.171.171,0,0,1,.334-.071q.14.663.271,1.341a.17.17,0,0,1-.135.2.139.139,0,0,1-.033,0m-73.992-2.845a.171.171,0,0,1-.171-.167q-.013-.553-.013-1.089v-.281a.171.171,0,0,1,.171-.17h0a.171.171,0,0,1,.169.172v.279q0,.53.014,1.081a.171.171,0,0,1-.167.175Zm73.005-1.595a.17.17,0,0,1-.165-.129q-.168-.672-.34-1.319a.17.17,0,0,1,.121-.208.172.172,0,0,1,.208.121c.114.432.229.874.341,1.324a.171.171,0,0,1-.124.207.188.188,0,0,1-.041.005m-71.322-1.571a.171.171,0,0,1-.024-.339l1.352-.189a.17.17,0,0,1,.046.338l-1.351.189-.024,0m4.506-.626a.171.171,0,0,1-.023-.34l1.351-.186a.168.168,0,0,1,.192.146.17.17,0,0,1-.146.192l-1.351.186-.023,0m4.508-.617a.171.171,0,0,1-.023-.34l1.352-.183a.171.171,0,0,1,.046.338l-1.353.183-.023,0m4.507-.608a.171.171,0,0,1-.023-.34l1.352-.181a.167.167,0,0,1,.192.146.172.172,0,0,1-.146.192l-1.352.181-.023,0m4.509-.6a.171.171,0,0,1-.022-.34l1.353-.178a.171.171,0,0,1,.045.338l-1.353.178h-.022m52.088-.365a.171.171,0,0,1-.163-.122c-.136-.454-.27-.889-.4-1.3a.17.17,0,0,1,.111-.214.168.168,0,0,1,.214.111q.2.623.4,1.307a.17.17,0,0,1-.114.212.166.166,0,0,1-.049.007m-47.577-.225a.171.171,0,0,1-.022-.34l1.353-.175a.171.171,0,1,1,.044.338l-1.354.175h-.022m4.51-.578a.171.171,0,0,1-.021-.34l1.354-.171a.167.167,0,0,1,.191.148.171.171,0,0,1-.148.19l-1.353.171-.021,0m4.511-.567a.171.171,0,0,1-.021-.34l1.353-.167a.165.165,0,0,1,.19.148.17.17,0,0,1-.148.19l-1.354.167h-.021m4.513-.553a.171.171,0,0,1-.02-.34l1.354-.163a.165.165,0,0,1,.19.149.17.17,0,0,1-.149.19l-1.354.163-.02,0m4.516-.537a.171.171,0,0,1-.02-.34l1.355-.158a.166.166,0,0,1,.189.149.17.17,0,0,1-.149.189l-1.355.158h-.02m4.517-.517a.171.171,0,0,1-.019-.34l1.356-.151a.171.171,0,1,1,.037.339l-1.355.151h-.019m4.52-.494a.171.171,0,0,1-.018-.341l1.357-.142a.171.171,0,1,1,.036.339l-1.357.143h-.018m4.524-.462a.171.171,0,0,1-.017-.341l1.359-.131a.167.167,0,0,1,.186.154.17.17,0,0,1-.154.186l-1.358.131H881.4m14.56-.394a.171.171,0,0,1-.161-.114l-.174-.488q-.3,0-.619.009h0a.171.171,0,0,1,0-.341c.233,0,.456-.008.669-.009a.268.268,0,0,1,.257.167l.2.549a.171.171,0,0,1-.1.218.174.174,0,0,1-.057.01m-10.032-.025a.17.17,0,0,1-.015-.34q.7-.06,1.36-.115a.171.171,0,0,1,.027.341q-.661.054-1.359.113h-.014m4.533-.35a.171.171,0,0,1-.011-.341q.71-.047,1.363-.084a.161.161,0,0,1,.18.161.171.171,0,0,1-.161.18q-.652.037-1.36.084h-.011" transform="translate(-561.988 -550.63)" fill="#fff"/>
        <path id="Path_13647" data-name="Path 13647" d="M937.563,891.506l-9.512,1.217a2.477,2.477,0,0,1-2.72-1.846l-2.27-9.012a2.474,2.474,0,0,1,2.093-3.053l11.427-1.462a2.475,2.475,0,0,1,2.793,2.353l.355,9.257a2.478,2.478,0,0,1-2.166,2.547" transform="translate(-628.445 -597.357)" fill="#68ba45"/>
        <path id="Path_13648" data-name="Path 13648" d="M940.652,893.927l-7.239.926a1.886,1.886,0,0,1-2.071-1.405l-1.728-6.859a1.883,1.883,0,0,1,1.593-2.324l8.7-1.113a1.883,1.883,0,0,1,2.126,1.791l.27,7.046a1.886,1.886,0,0,1-1.649,1.939" transform="translate(-632.92 -601.311)" fill="#68ba45"/>
      </g>
    </g>
    <g id="Group_3441" data-name="Group 3441" transform="translate(289.482 218.807)">
      <g id="Group_3440" data-name="Group 3440" clip-path="url(#clip-path-20)">
        <rect id="Rectangle_201" data-name="Rectangle 201" width="47.233" height="43.43" transform="translate(-15.635 29.974) rotate(-62.526)" fill="url(#linear-gradient-7)"/>
      </g>
    </g>
    <g id="Group_3443" data-name="Group 3443" transform="translate(0 -0.001)">
      <g id="Group_3442" data-name="Group 3442" clip-path="url(#clip-path-3)">
        <path id="Path_13650" data-name="Path 13650" d="M923.583,579.942c4.228-31.94-20.386-56.5-20.386-56.5l-14.645,17.072c11.118,13.859,16.4,26.558,18.818,36.532,3.2-.932,10.911-2.406,16.212,2.894" transform="translate(-605 -356.402)" fill="#0d3455"/>
        <path id="Path_13651" data-name="Path 13651" d="M904.343,609.115a.907.907,0,0,1-.881-.693c-2.976-12.3-9.249-24.468-18.643-36.178a.907.907,0,1,1,1.414-1.135c9.563,11.92,15.953,24.33,18.992,36.886a.907.907,0,0,1-.668,1.095.884.884,0,0,1-.214.026" transform="translate(-602.322 -388.626)" fill="#0d3455"/>
        <path id="Path_13652" data-name="Path 13652" d="M280.293,1250.935a1.8,1.8,0,0,0-.048-.472c-2.355-9.338-14.045-15.154-14.045-15.154l-4.632.363c-2.663,8.23-2.321,13.278-1.893,15.526.012.063.031.123.048.184a109.879,109.879,0,0,0,20.571-.447" transform="translate(-176.608 -841.1)" fill="#0d3455"/>
        <path id="Path_13653" data-name="Path 13653" d="M260.448,1284.722a2.008,2.008,0,0,0,1.47,1.484c5.436,1.143,14.075.224,17.7-.251a1.686,1.686,0,0,0,1.4-1.68,109.89,109.89,0,0,1-20.571.447" transform="translate(-177.335 -874.44)" fill="#08984b"/>
      </g>
    </g>
    <g id="Group_3445" data-name="Group 3445" transform="translate(83.096 387.672)">
      <g id="Group_3444" data-name="Group 3444" clip-path="url(#clip-path-22)">
        <rect id="Rectangle_203" data-name="Rectangle 203" width="11.678" height="9.219" transform="matrix(0.114, -0.993, 0.993, 0.114, -1.225, 10.693)" fill="url(#linear-gradient-8)"/>
      </g>
    </g>
    <g id="Group_3447" data-name="Group 3447" transform="translate(0 -0.001)">
      <g id="Group_3446" data-name="Group 3446" clip-path="url(#clip-path-3)">
        <path id="Path_13655" data-name="Path 13655" d="M368.293,1282.517c-5.116-.143-7.762-.746-9.13-1.3,0,.509,0,1.026.016,1.563a1.011,1.011,0,0,0,.964,1.027l28.09-.182a1.283,1.283,0,0,0,1.032-1.868c-3.683.3-13.064.986-20.972.764" transform="translate(-244.547 -872.354)" fill="#08984b"/>
        <path id="Path_13656" data-name="Path 13656" d="M389.268,1253.541a1.313,1.313,0,0,0-.111-.212c-2.481-3.466-8.8-10.369-21.284-13.362l-5.99-.189s-2.667,4.635-2.717,13.222c1.368.559,4.014,1.161,9.13,1.3,7.909.221,17.289-.46,20.972-.764" transform="translate(-244.55 -844.142)" fill="#0d3455"/>
      </g>
    </g>
    <g id="Group_3449" data-name="Group 3449" transform="translate(115.956 384.898)">
      <g id="Group_3448" data-name="Group 3448" clip-path="url(#clip-path-24)">
        <rect id="Rectangle_205" data-name="Rectangle 205" width="13.287" height="9.027" transform="translate(-0.657 12.841) rotate(-87.07)" fill="url(#linear-gradient-9)"/>
      </g>
    </g>
    <g id="Group_3451" data-name="Group 3451" transform="translate(0 -0.001)">
      <g id="Group_3450" data-name="Group 3450" clip-path="url(#clip-path-3)">
        <path id="Path_13658" data-name="Path 13658" d="M267.941,803.308s8.239,56.616,14.185,123.987A2.567,2.567,0,0,1,280,929.9a31.157,31.157,0,0,1-6.7.775,2.482,2.482,0,0,1-2.365-2.072c-2.025-11.879-16.48-75.63-20.273-89.661,0,0-4.358,59.6-2.965,90.522a1.466,1.466,0,0,1-1.293,1.524,24.617,24.617,0,0,1-5.376-.015,1.961,1.961,0,0,1-1.747-1.665c-1.443-10.053-9.747-69.894-9.394-113,.02-2.431,2.852-22.4,2.852-22.4Z" transform="translate(-156.524 -540.555)" fill="#0d3455"/>
        <path id="Path_13659" data-name="Path 13659" d="M229.649,606.1a2.331,2.331,0,0,1-1.53-1.963c-1.1-10.63-6.4-76.539,27.091-103.651,0,0,1.921-5.025,17.708,7.327s7.335,25.3,3.555,43.158c-4.574,21.61-12.6,39.274-9.048,52.573a1.844,1.844,0,0,1-1.129,2.21,52.291,52.291,0,0,1-36.647.346" transform="translate(-154.664 -340.081)" fill="#a4cd4c"/>
      </g>
    </g>
    <g id="Group_3453" data-name="Group 3453" transform="translate(100.226 140.654)">
      <g id="Group_3452" data-name="Group 3452" clip-path="url(#clip-path-26)">
        <rect id="Rectangle_207" data-name="Rectangle 207" width="34.987" height="36.638" transform="translate(-12.526 7.456) rotate(-30.763)" fill="url(#linear-gradient-10)"/>
      </g>
    </g>
    <g id="Group_3455" data-name="Group 3455" transform="translate(105.054 129.769)">
      <g id="Group_3454" data-name="Group 3454" clip-path="url(#clip-path-27)">
        <rect id="Rectangle_208" data-name="Rectangle 208" width="38.015" height="38.493" transform="matrix(0.827, -0.563, 0.563, 0.827, -14.137, 9.003)" fill="url(#linear-gradient-11)"/>
      </g>
    </g>
    <g id="Group_3457" data-name="Group 3457" transform="translate(0 -0.001)">
      <g id="Group_3456" data-name="Group 3456" clip-path="url(#clip-path-3)">
        <path id="Path_13662" data-name="Path 13662" d="M317.088,396.5l.378-.167a.91.91,0,0,0,.445-1.251c-.935-1.807-2.759-5.95-.4-6.916,3.036-1.245,15.063-3.7,17.658-7.965,2.494-4.1.284-9.4-3.036-10.9a.458.458,0,0,0-.6.195l-.277.524a.451.451,0,0,1-.832-.085.449.449,0,0,0-.812-.116c-.8,1.277-2.951,3.347-8.71,4.409-8.184,1.511-13.6,4.823-13.73,10.478a.451.451,0,0,1-.7.372c-.6-.368-1.571-.541-2.864.546-2.248,1.89-1.328,6.792,3.6,10.825a.447.447,0,0,1-.021.722c-.893.581-2.225,1.965,1.226,3.81a11.62,11.62,0,0,0,7.26,1.582.449.449,0,0,0,.364-.542l-1.095-4.97a.451.451,0,0,1,.44-.548Z" transform="translate(-205.932 -251.421)" fill="#0d3455"/>
      </g>
    </g>
    <g id="Group_3459" data-name="Group 3459" transform="translate(105.384 140.757)">
      <g id="Group_3458" data-name="Group 3458" clip-path="url(#clip-path-29)">
        <rect id="Rectangle_210" data-name="Rectangle 210" width="11.421" height="11.514" transform="matrix(0.827, -0.563, 0.563, 0.827, -6.02, 2.669)" fill="url(#linear-gradient-12)"/>
      </g>
    </g>
    <g id="Group_3461" data-name="Group 3461" transform="translate(0 -0.001)">
      <g id="Group_3460" data-name="Group 3460" clip-path="url(#clip-path-3)">
        <path id="Path_13664" data-name="Path 13664" d="M386.48,543.565l.922,24.764a68.141,68.141,0,0,0,7.487,2.126c1.485-4.782,4.755-10.65,7.433-15.013-9.839-3.478-15.842-11.877-15.842-11.877" transform="translate(-263.148 -370.103)" fill="#a4cd4c"/>
      </g>
    </g>
    <g id="Group_3463" data-name="Group 3463" transform="translate(131.741 173.04)">
      <g id="Group_3462" data-name="Group 3462" clip-path="url(#clip-path-31)">
        <rect id="Rectangle_212" data-name="Rectangle 212" width="55.57" height="51.398" transform="matrix(0.895, -0.445, 0.445, 0.895, -14.059, 6.994)" fill="url(#linear-gradient-13)"/>
      </g>
    </g>
    <g id="Group_3465" data-name="Group 3465" transform="translate(175.189 169.783)">
      <g id="Group_3464" data-name="Group 3464" clip-path="url(#clip-path-32)">
        <rect id="Rectangle_213" data-name="Rectangle 213" width="13.474" height="13.748" transform="translate(-2.581 2.696) rotate(-46.245)" fill="url(#linear-gradient-14)"/>
      </g>
    </g>
    <g id="Group_3467" data-name="Group 3467" transform="translate(171.978 170.445)">
      <g id="Group_3466" data-name="Group 3466" clip-path="url(#clip-path-33)">
        <rect id="Rectangle_214" data-name="Rectangle 214" width="27.641" height="19.627" transform="matrix(0.895, -0.445, 0.445, 0.895, -3.478, 1.73)" fill="url(#linear-gradient-15)"/>
      </g>
    </g>
    <g id="Group_3469" data-name="Group 3469" transform="translate(108.351 189.864)">
      <g id="Group_3468" data-name="Group 3468" clip-path="url(#clip-path-34)">
        <rect id="Rectangle_215" data-name="Rectangle 215" width="50.422" height="82.721" transform="matrix(0.178, -0.984, 0.984, 0.178, -6.524, 36.078)" fill="url(#linear-gradient-16)"/>
      </g>
    </g>
    <g id="Group_3471" data-name="Group 3471" transform="translate(90.949 185.987)">
      <g id="Group_3470" data-name="Group 3470" clip-path="url(#clip-path-35)">
        <rect id="Rectangle_216" data-name="Rectangle 216" width="25.534" height="24.639" transform="matrix(0.546, -0.838, 0.838, 0.546, -9.058, 13.794)" fill="url(#linear-gradient-17)"/>
      </g>
    </g>
    <g id="Group_3473" data-name="Group 3473" transform="translate(94.959 165.316)">
      <g id="Group_3472" data-name="Group 3472" clip-path="url(#clip-path-36)">
        <rect id="Rectangle_217" data-name="Rectangle 217" width="35.932" height="37.15" transform="matrix(0.546, -0.838, 0.838, 0.546, -11.187, 16.929)" fill="url(#linear-gradient-18)"/>
      </g>
    </g>
  </g>
</svg>
