<svg width="500" height="373" viewBox="0 0 500 373" fill="none" xmlns="http://www.w3.org/2000/svg">
<g clip-path="url(#clip0_1_328)">
<path d="M500 327.45H0V327.7H500V327.45Z" fill="#EBEBEB"/>
<path d="M238.4 282.85H45.3C42.15 282.85 39.59 280.29 39.59 277.14V5.71C39.59 2.56 42.15 0 45.3 0H238.4C241.55 0 244.11 2.56 244.11 5.71V277.14C244.11 280.29 241.55 282.85 238.4 282.85V282.85ZM45.3 0.25C42.29 0.25 39.84 2.7 39.84 5.71V277.14C39.84 280.15 42.29 282.6 45.3 282.6H238.4C241.41 282.6 243.86 280.15 243.86 277.14V5.71C243.86 2.7 241.41 0.25 238.4 0.25H45.3Z" fill="#EBEBEB"/>
<path d="M454.7 282.85H261.6C258.45 282.85 255.89 280.29 255.89 277.14V5.71C255.89 2.56 258.45 0 261.6 0H454.7C457.85 0 460.41 2.56 460.41 5.71V277.14C460.41 280.29 457.85 282.85 454.7 282.85V282.85ZM261.6 0.25C258.59 0.25 256.14 2.7 256.14 5.71V277.14C256.14 280.15 258.59 282.6 261.6 282.6H454.7C457.71 282.6 460.16 280.15 460.16 277.14V5.71C460.16 2.7 457.71 0.25 454.7 0.25H261.6Z" fill="#EBEBEB"/>
<path d="M500 327.45H0V327.7H500V327.45Z" fill="#EBEBEB"/>
<path d="M449.9 343.54H416.78V343.79H449.9V343.54Z" fill="#EBEBEB"/>
<path d="M331.22 346.26H322.53V346.51H331.22V346.26Z" fill="#EBEBEB"/>
<path d="M415.78 334.26H396.59V334.51H415.78V334.26Z" fill="#EBEBEB"/>
<path d="M95.65 335.94H52.46V336.19H95.65V335.94Z" fill="#EBEBEB"/>
<path d="M225.15 340.16H131.47V340.41H225.15V340.16Z" fill="#EBEBEB"/>
<path d="M154.37 103.72C166.67 103.75 201.14 108.76 201.14 90.24C201.14 74.51 184.29 75.66 184.29 75.66C184.29 75.66 184.78 62.03 169.77 60.21C154.37 58.35 152.05 73.08 152.05 73.08C152.05 73.08 125.32 63.7 129.39 87.24C129.39 87.24 114.57 84.62 114.57 95.22C114.57 107.06 142.46 103.68 154.37 103.72Z" fill="#F0F0F0"/>
<path d="M138.88 243.76C163.84 243.83 233.81 255.29 233.81 212.88C233.81 176.84 199.61 179.49 199.61 179.49C199.61 179.49 200.6 148.27 170.13 144.11C138.88 139.85 134.16 173.59 134.16 173.59C134.16 173.59 79.92 152.11 88.17 206.02C88.17 206.02 58.1 200.03 58.1 224.3C58.1 251.42 114.7 243.69 138.88 243.76V243.76Z" fill="#F5F5F5"/>
<path d="M232.09 247.51C218.28 247.55 179.57 253.89 179.57 230.43C179.57 210.49 198.49 211.96 198.49 211.96C198.49 211.96 197.94 194.69 214.8 192.39C232.09 190.03 234.7 208.7 234.7 208.7C234.7 208.7 264.71 196.81 260.14 226.64C260.14 226.64 276.78 223.32 276.78 236.75C276.78 251.75 245.47 247.47 232.09 247.51V247.51Z" fill="#F0F0F0"/>
<path d="M309.15 149.21C322.92 149.24 361.53 154.52 361.53 134.98C361.53 118.38 342.66 119.6 342.66 119.6C342.66 119.6 343.21 105.21 326.39 103.3C309.15 101.34 306.54 116.88 306.54 116.88C306.54 116.88 276.61 106.98 281.16 131.82C281.16 131.82 264.57 129.06 264.57 140.24C264.57 152.74 295.8 149.17 309.14 149.2L309.15 149.21Z" fill="#F0F0F0"/>
<path d="M268.09 327.33L288.21 196.87L348.05 121.32L368.45 35.28C368.45 35.28 417.9 83.07 419.28 84.32C420.65 85.57 431.54 214.56 433.05 216.53C434.56 218.5 448.77 240.99 448.77 240.99L455.38 326.93L268.09 327.32V327.33Z" fill="#FAFAFA"/>
<path d="M268.09 327.33L296.77 214.6L337.4 175.87L345.01 224.9L355.25 169.13L366.87 188.14L364.34 122.58L366.36 101.61L373.18 115.53L368.45 35.28L402.93 36.08L410.11 73.96L419.28 84.33L433.05 216.54L448.77 241L455.38 326.94L268.09 327.33Z" fill="#EBEBEB"/>
<path d="M369.35 35.72L389.83 101.99L402.03 111.69C402.03 111.69 408.47 138.62 408.39 136.9C408.31 135.18 407.65 105 407.65 105L410.81 80.38L402.84 36.52L369.35 35.72Z" fill="#F5F5F5"/>
<path d="M433.05 216.54L437.83 238.81L448.77 241L433.05 216.54Z" fill="#F5F5F5"/>
<path d="M356.06 282.49C377.93 282.56 439.26 292.6 439.26 255.42C439.26 223.83 409.29 226.16 409.29 226.16C409.29 226.16 410.16 198.79 383.45 195.15C356.06 191.42 351.93 220.99 351.93 220.99C351.93 220.99 304.39 202.16 311.62 249.41C311.62 249.41 285.26 244.16 285.26 265.43C285.26 289.2 334.87 282.42 356.06 282.48V282.49Z" fill="#F5F5F5"/>
<path d="M110.89 335.94H104.56V336.19H110.89V335.94Z" fill="#EBEBEB"/>
<path d="M252.14 372.06C359.222 372.06 446.03 366.992 446.03 360.74C446.03 354.488 359.222 349.42 252.14 349.42C145.058 349.42 58.25 354.488 58.25 360.74C58.25 366.992 145.058 372.06 252.14 372.06Z" fill="#F5F5F5"/>
<path d="M403.35 40.13C403.35 49.79 395.52 57.62 385.86 57.62C385.47 57.62 385.08 57.62 384.69 57.58C375.59 56.98 368.38 49.4 368.38 40.13C368.38 30.86 375.59 23.28 384.69 22.68C385.08 22.65 385.47 22.64 385.86 22.64C395.52 22.64 403.35 30.47 403.35 40.13V40.13Z" fill="#14475F"/>
<path opacity="0.2" d="M401.01 40.13C401.01 49.4 393.8 56.98 384.69 57.58C375.59 56.98 368.38 49.4 368.38 40.13C368.38 30.86 375.59 23.28 384.69 22.68C393.8 23.28 401.01 30.86 401.01 40.13V40.13Z" fill="white"/>
<path opacity="0.4" d="M396.739 45.1423C399.503 38.4683 396.334 30.8169 389.66 28.0525C382.986 25.288 375.335 28.4573 372.57 35.1313C369.806 41.8053 372.975 49.4567 379.649 52.2212C386.323 54.9856 393.974 51.8163 396.739 45.1423Z" fill="white"/>
<g opacity="0.7">
<path d="M390.67 42.91C391.18 45.8 389.19 47.74 385.61 48.04L385.55 50.43H383.38L383.44 48.04C381.34 47.84 379.4 47.19 378.14 46.37L379.12 43.67C380.42 44.52 381.97 45.06 383.5 45.21L383.6 41.53C381.47 40.92 379.11 40.12 378.65 37.48C378.14 34.59 380.17 32.63 383.82 32.37L383.88 29.98H386.06L386 32.4C387.57 32.55 389.06 32.99 390.22 33.64L389.37 36.34C388.32 35.71 387.13 35.34 385.93 35.21L385.84 39.04C387.94 39.63 390.23 40.41 390.67 42.91V42.91ZM383.67 38.43L383.75 35.3C382.55 35.54 381.97 36.21 382.1 37.04C382.22 37.71 382.83 38.11 383.67 38.43ZM387.25 43.48C387.14 42.85 386.57 42.46 385.76 42.17L385.69 45.15C386.82 44.91 387.39 44.3 387.25 43.48V43.48Z" fill="white"/>
</g>
<path d="M298.86 200.76H239.69V360.79H298.86V200.76Z" fill="#14475F"/>
<path opacity="0.2" d="M256.4 200.6H239.68V360.82H256.4V200.6Z" fill="black"/>
<path d="M239.62 264.76H180.45V360.79H239.62V264.76Z" fill="#14475F"/>
<path opacity="0.2" d="M198.23 264.76H180.45V360.69H198.23V264.76Z" fill="black"/>
<path d="M180.4 285.15H121.23V360.79H180.4V285.15Z" fill="#14475F"/>
<path opacity="0.2" d="M138.83 285.15H121.23V360.69H138.83V285.15Z" fill="black"/>
<path d="M121.21 305.54H62.04V360.79H121.21V305.54Z" fill="#14475F"/>
<path opacity="0.2" d="M78.77 305.49H62.05V360.69H78.77V305.49Z" fill="black"/>
<path d="M222.92 77.13C220.11 80.53 217.22 83.86 214.32 87.18L212.13 89.66L210.17 91.85C209.36 92.8 208.83 94 208.64 95.3L207.98 101.76C207.76 103.95 207.55 106.14 207.29 108.33C206.81 112.71 206.3 117.08 205.72 121.45C205.51 122.98 204.1 124.06 202.57 123.85C201.22 123.67 200.22 122.55 200.15 121.24C199.9 116.84 199.73 112.44 199.58 108.05C199.49 105.85 199.45 103.66 199.39 101.46L199.24 94.76C199.28 91.68 200.3 88.58 202.06 85.97L204.24 83.04L206.21 80.42C208.86 76.94 211.52 73.47 214.26 70.06C216.2 67.65 219.72 67.27 222.12 69.21C224.53 71.15 224.91 74.67 222.97 77.07C222.97 77.08 222.93 77.12 222.92 77.13V77.13Z" fill="#14475F"/>
<path d="M199.45 121.74L195.8 127.94L204.21 128.79L205.69 122.49C205.87 121.74 205.39 120.99 204.63 120.86C203.24 120.62 201.05 120.52 199.45 121.73V121.74Z" fill="#914F4E"/>
<path d="M195.79 127.94L196.17 130.14C196.36 131.22 197.3 132.02 198.4 132.01H201.14C201.97 132.01 202.74 131.54 203.13 130.8L204.19 128.79L195.78 127.94H195.79Z" fill="#914F4E"/>
<path d="M198.85 117.09L206.95 117.36L206.43 122.2L199.59 121.67L198.85 117.09Z" fill="#14475F"/>
<path opacity="0.3" d="M198.85 117.09L206.95 117.36L206.43 122.2L199.59 121.67L198.85 117.09Z" fill="white"/>
<path d="M207.02 167.88L205.69 169.88L204.67 167.81L207.09 136.41C207.48 131.42 205.79 127.32 199.58 127.17C193.77 127.03 190.25 131 189.84 135.98L187.3 167.32L185.91 169.31L184.96 167.25L187.52 135.92C187.99 130.13 190.56 125.48 199.7 125.7C208.85 125.92 209.87 130.67 209.42 136.47L207.01 167.88H207.02Z" fill="#263238"/>
<path d="M181.28 146.71H179.67C176.33 146.69 173.49 149.16 173.06 152.48L170.1 175.11L180.52 175.48L181.28 146.71V146.71Z" fill="#263238"/>
<path opacity="0.2" d="M181.28 146.71H179.67C176.33 146.69 173.49 149.16 173.06 152.48L170.1 175.11L180.52 175.48L181.28 146.71V146.71Z" fill="white"/>
<path d="M210.7 168.15L208.35 168.08L208.58 136.68C208.62 131.69 206.65 127.59 200.43 127.44C194.61 127.3 191.36 131.27 191.31 136.25L190.96 167.59L188.62 167.52L188.99 136.19C189.06 130.4 191.3 125.75 200.45 125.97C209.62 126.19 210.97 130.94 210.93 136.74L210.72 168.15H210.7Z" fill="#263238"/>
<path d="M221.74 176.69L175.43 175.32L175.88 151.98C175.92 148.99 178.34 146.63 181.28 146.71L214.99 147.59C218.8 147.69 221.87 150.9 221.86 154.76L221.74 176.69V176.69Z" fill="#263238"/>
<path opacity="0.4" d="M216.61 176.54L180.53 175.47C177.72 175.39 175.47 172.99 175.52 170.11L175.89 151.97C175.93 148.98 178.35 146.62 181.29 146.7L215 147.58C218.81 147.68 221.88 150.89 221.87 154.75L221.77 171.45C221.76 174.34 219.45 176.61 216.62 176.53L216.61 176.54Z" fill="white"/>
<g opacity="0.3">
<path d="M210.7 168.15L209.51 170.15L208.35 168.08L208.58 136.68C208.62 131.69 206.65 127.59 200.43 127.44C194.61 127.3 191.36 131.27 191.31 136.25L190.96 167.59L189.71 169.58L188.62 167.52L188.99 136.19C189.06 130.4 191.3 125.75 200.45 125.97C209.62 126.19 210.97 130.94 210.93 136.74L210.72 168.15H210.7Z" fill="white"/>
</g>
<path d="M191.74 155.48L187.88 155.38L187.9 153.92L191.76 154.03L191.74 155.48Z" fill="#263238"/>
<path d="M191.64 164.9L187.77 164.79L187.79 163.34L191.66 163.44L191.64 164.9Z" fill="#263238"/>
<path d="M211.58 156.02L207.7 155.91L207.71 154.46L211.59 154.56L211.58 156.02Z" fill="#263238"/>
<path d="M211.51 165.46L207.63 165.35L207.64 163.89L211.52 163.99L211.51 165.46Z" fill="#263238"/>
<path d="M204.19 156.65L195.91 156.42L195.94 153.31L204.22 153.53L204.19 156.65Z" fill="white"/>
<path d="M239.94 42.04C240.26 41.98 240.6 42.31 240.7 42.79C240.8 43.27 240.64 43.72 240.32 43.79C240 43.85 239.66 43.52 239.56 43.04C239.43 42.54 239.62 42.11 239.94 42.04Z" fill="#263238"/>
<path d="M240 42.44C240.33 42.29 240.62 41.95 240.76 41.61C240.48 41.87 240.1 42.02 239.72 42.01C239.87 42.09 240 42.27 240.01 42.44H240Z" fill="#263238"/>
<path d="M240.64 47.34C241.48 47.37 242.29 47.04 242.86 46.42C241.64 45.36 240.56 44.13 239.67 42.78L240.64 47.35V47.34Z" fill="#783736"/>
<path d="M237.26 41.25C237.72 40.67 238.44 40.35 239.18 40.39C239.18 40.39 239.24 40.4 239.28 40.4C239.44 40.4 239.57 40.26 239.57 40.1C239.57 39.94 239.43 39.81 239.27 39.81C238.34 39.73 237.44 40.11 236.84 40.83C236.79 40.88 236.77 40.95 236.77 41.02C236.77 41.18 236.9 41.31 237.07 41.31C237.14 41.31 237.22 41.29 237.27 41.25H237.26Z" fill="#263238"/>
<path d="M234.22 70.15C225.9 70.24 224.63 65.71 224.63 65.71C227.1 63.28 227.22 58.84 226.7 54.89C227.34 55.78 228.13 56.57 229.17 57.26C231.16 58.57 235.48 56.47 235.48 56.47C235.49 56.47 235.48 57.21 235.54 58.27C235.67 60.86 236.24 65.42 238.6 66.12C238.6 66.12 243.4 70.06 234.23 70.16L234.22 70.15Z" fill="#914F4E"/>
<path d="M235.59 57.14C235.5 57.52 235.41 57.9 235.36 58.31C235.33 58.33 235.29 58.35 235.26 58.35C233.31 58.83 231.16 58.57 229.17 57.26C228.12 56.57 227.33 55.79 226.69 54.89C226.56 53.89 226.38 52.9 226.2 52.01L235.26 56.96L235.6 57.14H235.59Z" fill="#914F4E"/>
<path d="M241.55 50.35C241.49 53.43 239.81 56.02 237.45 57.43H237.44C237.44 57.43 237.42 57.44 237.41 57.44C236.78 57.84 236.09 58.12 235.36 58.31C235.33 58.33 235.29 58.35 235.26 58.35C233.31 58.83 231.16 58.57 229.17 57.26C228.12 56.57 227.33 55.79 226.69 54.89C225.06 52.65 224.38 49.67 223.21 45.47C222.85 44.24 222.78 42.93 223.01 41.67C223.83 37.15 228.15 34.16 232.66 34.98C238.98 36.1 241.68 44.73 241.55 50.35V50.35Z" fill="#914F4E"/>
<path opacity="0.2" d="M237 57.59C236.42 57.96 236.13 58.1 235.52 58.26C235.46 57.2 235.48 56.46 235.46 56.46C235.52 55.53 235.58 54.6 235.58 54.6C235.58 54.63 236.55 57.59 236.99 57.59H237Z" fill="black"/>
<path d="M239.37 39C238.69 40.08 236.56 40.99 236.63 40.74C237 39.85 236.93 38.13 235.82 38.53C236.13 39.21 237.04 44.35 236.63 44.97C236.4 45.31 236.19 49.42 234.44 53.04C233.05 55.93 233.05 56.83 233.05 56.83L227.37 57.93C225.24 57.66 223.26 54.95 223.09 54.65C222.35 53.37 220.08 51.7 218.9 50.81C218.39 50.43 217.99 49.86 217.77 49.26C217.38 48.17 218.18 44.24 218.35 42.4C218.6 39.74 219.99 37.29 223.85 35.71C226.23 34.73 228.24 32.59 230.67 31.75C233.1 30.9 235.99 30.94 238.05 32.49C239.06 33.25 241.07 36.33 239.38 39.02L239.37 39Z" fill="#263238"/>
<path d="M236.4 42.74C238.15 43.25 239.06 45.83 239.14 47.47C239.23 49.28 238.02 50.42 236.44 49.21C235.25 48.28 234.4 46.98 234.03 45.52C233.6 43.75 234.66 42.23 236.41 42.74H236.4Z" fill="#914F4E"/>
<path d="M238.51 48.77C238.51 49.19 238.17 49.53 237.75 49.53C237.33 49.53 236.99 49.19 236.99 48.77C236.99 48.35 237.33 48.01 237.75 48.01C238.17 48.01 238.51 48.35 238.51 48.77Z" fill="#14475F"/>
<path opacity="0.3" d="M238.51 48.77C238.51 49.19 238.17 49.53 237.75 49.53C237.33 49.53 236.99 49.19 236.99 48.77C236.99 48.35 237.33 48.01 237.75 48.01C238.17 48.01 238.51 48.35 238.51 48.77Z" fill="white"/>
<path d="M222.24 68.71C222.24 68.71 223.53 64.72 225.48 63.46C227.43 62.2 235.99 63.51 237.33 64.03C238.67 64.55 240.02 67.65 240.02 67.65L222.23 68.71H222.24Z" fill="#14475F"/>
<path opacity="0.3" d="M222.24 68.71C222.24 68.71 223.53 64.72 225.48 63.46C227.43 62.2 235.99 63.51 237.33 64.03C238.67 64.55 240.02 67.65 240.02 67.65L222.23 68.71H222.24Z" fill="white"/>
<path d="M241.78 67.01C240.45 66.79 240.08 66.59 238.56 66.47C233.97 66.25 229.37 66.3 224.78 66.62C223.11 66.74 221.49 67.06 219.89 67.45C216.6 68.24 214.39 71.3 214.63 74.65C215.31 84.01 218.08 89.5 218.49 95.67C219.3 107.95 217.34 116.56 217.01 119.42L223.31 120.38C234.55 120.11 242.02 117.7 248.21 115.06C248.21 115.06 246.59 100.21 248.16 94.87C252.44 80.26 249.66 77.94 248.82 73.76C248.12 70.28 245.32 67.6 241.79 67.02L241.78 67.01Z" fill="#14475F"/>
<path opacity="0.1" d="M248.15 94.85C247.64 96.59 247.47 99.34 247.47 102.25C247.47 108.29 248.21 115.04 248.21 115.04C242.03 117.68 234.56 120.09 223.31 120.36L217.01 119.4C217.35 116.54 219.3 107.93 218.5 95.65C218.09 89.49 215.32 84 214.64 74.63C214.39 71.29 216.61 68.22 219.9 67.44C221.5 67.05 223.11 66.74 224.79 66.61C229.37 66.3 233.97 66.24 238.57 66.45C240.09 66.57 240.46 66.77 241.79 67C245.32 67.58 248.12 70.25 248.82 73.74C249.12 75.24 249.68 76.5 250.06 78.18C250.53 80.22 250.75 82.87 249.97 87.3C249.61 89.38 249.03 91.85 248.16 94.84L248.15 94.85Z" fill="white"/>
<path d="M243.59 66.55C245.89 66.87 248.16 67.33 250.45 67.72C252.73 68.16 255.01 68.61 257.28 69.1L256.46 69.03C257.47 69.07 258.37 69.15 258.93 69.19C259.2 69.21 259.39 69.2 259.32 69.25C259.31 69.27 259.17 69.32 259.02 69.42C258.83 69.52 258.59 69.69 258.34 69.95C257.82 70.47 257.61 71.18 257.62 71.39C257.62 71.62 257.69 71.56 257.7 71.39C257.74 71.03 257.66 70.34 257.51 69.63L257.61 69.92C256.46 66.59 255.36 63.24 254.36 59.85C253.39 56.45 252.45 53.04 251.79 49.52C251.54 48.17 252.42 46.87 253.78 46.61C254.81 46.42 255.82 46.89 256.35 47.73C258.25 50.76 259.89 53.9 261.48 57.06C263.05 60.23 264.52 63.43 265.93 66.66L266.03 66.96C266.42 67.98 266.79 69.05 267.02 70.5C267.12 71.22 267.2 72.09 267.03 73.21C266.88 74.3 266.28 75.87 265.09 77.03C264.51 77.61 263.89 78.02 263.29 78.33C262.72 78.61 262.16 78.82 261.71 78.94C260.76 79.2 260.04 79.28 259.41 79.35C258.16 79.47 257.24 79.47 256.44 79.52H256.31L255.61 79.45C253.3 79.21 250.99 78.93 248.69 78.64C246.39 78.3 244.09 78.02 241.8 77.62C238.76 77.08 236.73 74.17 237.28 71.13C237.81 68.16 240.6 66.16 243.56 66.57L243.59 66.55Z" fill="#14475F"/>
<g opacity="0.1">
<path d="M243.59 66.55C245.89 66.87 248.16 67.33 250.45 67.72C252.73 68.16 255.01 68.61 257.28 69.1L256.46 69.03C257.47 69.07 258.37 69.15 258.93 69.19C259.2 69.21 259.39 69.2 259.32 69.25C259.31 69.27 259.17 69.32 259.02 69.42C258.83 69.52 258.59 69.69 258.34 69.95C257.82 70.47 257.61 71.18 257.62 71.39C257.62 71.62 257.69 71.56 257.7 71.39C257.74 71.03 257.66 70.34 257.51 69.63L257.61 69.92C256.46 66.59 255.36 63.24 254.36 59.85C253.39 56.45 252.45 53.04 251.79 49.52C251.54 48.17 252.42 46.87 253.78 46.61C254.81 46.42 255.82 46.89 256.35 47.73C258.25 50.76 259.89 53.9 261.48 57.06C263.05 60.23 264.52 63.43 265.93 66.66L266.03 66.96C266.42 67.98 266.79 69.05 267.02 70.5C267.12 71.22 267.2 72.09 267.03 73.21C266.88 74.3 266.28 75.87 265.09 77.03C264.51 77.61 263.89 78.02 263.29 78.33C262.72 78.61 262.16 78.82 261.71 78.94C260.76 79.2 260.04 79.28 259.41 79.35C258.16 79.47 257.24 79.47 256.44 79.52H256.31L255.61 79.45C253.3 79.21 250.99 78.93 248.69 78.64C246.39 78.3 244.09 78.02 241.8 77.62C238.76 77.08 236.73 74.17 237.28 71.13C237.81 68.16 240.6 66.16 243.56 66.57L243.59 66.55Z" fill="white"/>
</g>
<path d="M284.94 45.03L314.92 44.11L314.46 34.71L284.54 36.68L284.94 45.03Z" fill="#14475F"/>
<path d="M262.28 45.39L286.53 44.61L286.16 36.9L261.96 38.47L262.28 45.39Z" fill="#14475F"/>
<path d="M283.33 44.8L284.91 44.97L284.52 36.74L282.95 37.06L283.33 44.8Z" fill="#263238"/>
<path opacity="0.2" d="M283.33 44.8L284.91 44.97L284.52 36.74L282.95 37.06L283.33 44.8Z" fill="black"/>
<path d="M284.92 45.03L286.54 44.98L286.14 36.58L284.52 36.69L284.92 45.03Z" fill="#263238"/>
<path d="M258.52 44.25L260.92 45.36L260.61 38.62L258.32 39.96L258.52 44.25Z" fill="#263238"/>
<path d="M246.2 44.16L253.33 43.79L253.18 40.63L246.05 41.06L246.2 44.16Z" fill="#263238"/>
<path opacity="0.2" d="M246.2 44.16L253.33 43.79L253.18 40.63L246.05 41.06L246.2 44.16Z" fill="black"/>
<path d="M252.35 44.43L260.28 44.13L260.08 39.71L252.15 40.17L252.35 44.43Z" fill="#263238"/>
<path opacity="0.2" d="M258.52 44.25L260.92 45.36L260.61 38.62L258.32 39.96L258.52 44.25Z" fill="black"/>
<path d="M260.97 45.43L262.28 45.39L261.96 38.47L260.64 38.55L260.97 45.43Z" fill="#263238"/>
<path d="M313.9 44.14L318.61 43.97L318.14 34.54L313.44 34.78L313.9 44.14Z" fill="#263238"/>
<path d="M315.99 44.8L321.99 44.63L322.14 44.22C323.42 40.66 323.17 36.73 321.44 33.37L315.45 33.78L315.58 34.09C317 37.49 317.15 41.29 315.99 44.79V44.8Z" fill="#14475F"/>
<g opacity="0.4">
<path d="M309.6 35.76L312.03 35.61L312.08 36.64L309.61 36.78C309.55 36.44 309.57 36.1 309.6 35.75V35.76Z" fill="white"/>
<path d="M308.13 35.87C308.1 36.21 308.09 36.56 308.14 36.89L287.09 38.08L287.04 37.14L308.13 35.86V35.87Z" fill="white"/>
</g>
<g opacity="0.4">
<path d="M262.47 39.01L262.51 39.85L282.29 38.68L282.24 37.76L262.47 39.01Z" fill="white"/>
</g>
<g opacity="0.4">
<path d="M315.98 34.11L316.04 35.16L320.73 34.85L320.68 33.78L315.98 34.11Z" fill="white"/>
</g>
<path opacity="0.3" d="M321.38 43.25C321.35 43.61 321.33 43.97 321.38 44.32L316.52 44.49L316.46 43.44L321.37 43.25H321.38Z" fill="black"/>
<path opacity="0.3" d="M312.69 42.67C312.66 43.02 312.65 43.36 312.7 43.71L286.96 44.63L286.91 43.7L312.69 42.68V42.67Z" fill="black"/>
<path opacity="0.3" d="M282.05 43.57C282.03 43.88 282.02 44.18 282.06 44.49L262.93 45.16L262.89 44.32L282.05 43.57Z" fill="black"/>
<path d="M244.6 41.18L244.66 44.2C244.67 44.71 245.14 45.12 245.7 45.11L248.15 45.07L248.05 40.12L245.6 40.21C245.04 40.23 244.59 40.66 244.6 41.18Z" fill="#14475F"/>
<path d="M257.27 49.56L258.2 43.93C258.24 43.7 258.25 43.46 258.23 43.22L257.96 40.24C257.92 39.85 257.64 39.48 257.22 39.35L252.72 39.3C252.13 39.11 251.47 39.4 251.28 39.93L250.47 43.62C250.41 43.9 250.42 44.18 250.49 44.46L251.82 49.54C251.95 49.96 252.34 50.29 252.82 50.39L255.76 50.42C256.45 50.55 257.12 50.18 257.26 49.59L257.27 49.56Z" fill="#914F4E"/>
<path d="M259.91 51.93L252.26 54.62L250.99 49.92L257.55 47.92L259.91 51.93Z" fill="#14475F"/>
<path opacity="0.3" d="M259.91 51.93L252.26 54.62L250.99 49.92L257.55 47.92L259.91 51.93Z" fill="white"/>
<path opacity="0.2" d="M249.96 87.31L244.1 76.25L250.05 78.18C250.52 80.22 250.74 82.87 249.96 87.3V87.31Z" fill="black"/>
<path d="M280.17 179.12L278.96 194.14L285.79 194.27L287.67 178.8L280.17 179.12Z" fill="#914F4E"/>
<path d="M286.87 192.22L279.07 192.38C278.78 192.38 278.52 192.61 278.46 192.92L277.12 199.76C277 200.37 277.35 200.96 277.92 201.09C277.99 201.11 278.07 201.11 278.14 201.11C280.95 201 283.45 200.78 286.95 200.72C291.08 200.64 290.04 201.19 294.89 201.17C297.82 201.15 298.32 197.57 297.07 197.42C291.38 196.77 290.78 194.94 288.56 192.8C288.08 192.39 287.47 192.19 286.86 192.23L286.87 192.22Z" fill="#263238"/>
<path d="M205.51 243.49L202.74 257.29L210.1 259.53L213.64 245.44L205.51 243.49Z" fill="#914F4E"/>
<path d="M244.84 115.65C244.84 115.65 234.38 176.71 228.69 194.68C224.64 207.48 213.79 249.34 213.79 249.34L203.94 247.16C203.94 247.16 202.84 218.66 208.31 203.96C210.18 198.94 212.62 194.41 213.28 191.3C216.1 178.01 210.29 153.9 212.86 135.91C214.25 126.16 217.23 119.21 217.23 119.21L244.84 115.65V115.65Z" fill="#263238"/>
<path d="M228.69 194.69C224.64 207.49 213.79 249.35 213.79 249.35L203.94 247.17C203.94 247.17 202.84 218.67 208.31 203.97C210.18 198.95 212.62 194.42 213.28 191.31C216.1 178.02 210.29 153.91 212.86 135.92C214.25 126.17 217.23 119.22 217.23 119.22" fill="#263238"/>
<path opacity="0.2" d="M232.01 134.53L237.28 155.21L241.13 135.43L232.01 134.53Z" fill="black"/>
<path d="M288.15 186.33L278.53 186.64C278.53 186.64 279.24 174.05 279.24 155.69C279.24 152.86 279.68 150.07 280.3 147.57C281.67 141.96 283.89 137.78 283.89 137.78C283.89 137.78 282.86 137.84 281.1 137.92C275.66 138.2 241.94 139.94 241.28 139.89C240.78 139.84 237.72 140.25 232.22 137.57C222.01 132.59 221.91 118.62 221.91 118.62L248.2 115.05C248.2 115.05 248.63 115.13 254.96 115.24C274.15 115.57 297.73 116.31 301.87 122.9C307.69 132.17 288.15 186.33 288.15 186.33V186.33Z" fill="#263238"/>
<path d="M210.46 255.96L202.39 256.07C202.09 256.07 201.84 256.3 201.79 256.61L200.79 263.51C200.7 264.12 201.1 264.72 201.69 264.86C201.77 264.88 201.84 264.89 201.92 264.89C204.82 264.8 207.4 264.6 211.02 264.55C215.29 264.49 214.24 265.04 219.27 265.05C222.3 265.05 222.62 261.44 221.32 261.28C215.4 260.58 214.66 258.74 212.25 256.56C211.73 256.14 211.09 255.93 210.46 255.97V255.96Z" fill="#263238"/>
<path opacity="0.2" d="M280.3 147.57C281.67 141.96 283.89 137.78 283.89 137.78C283.89 137.78 282.86 137.84 281.1 137.92C281.02 137.89 280.94 137.87 280.84 137.87L287.85 137.28L280.3 147.57V147.57Z" fill="black"/>
<path d="M96.54 72.81C103.317 72.81 108.81 67.3166 108.81 60.54C108.81 53.7635 103.317 48.27 96.54 48.27C89.7635 48.27 84.27 53.7635 84.27 60.54C84.27 67.3166 89.7635 72.81 96.54 72.81Z" fill="#14475F"/>
<path opacity="0.6" d="M96.54 72.81C103.317 72.81 108.81 67.3166 108.81 60.54C108.81 53.7635 103.317 48.27 96.54 48.27C89.7635 48.27 84.27 53.7635 84.27 60.54C84.27 67.3166 89.7635 72.81 96.54 72.81Z" fill="white"/>
<path d="M96.56 43.6C95.55 43.6 94.74 42.78 94.74 41.78V33.73C94.74 32.72 95.56 31.91 96.56 31.91C97.56 31.91 98.38 32.73 98.38 33.73V41.78C98.38 42.79 97.56 43.6 96.56 43.6Z" fill="#14475F"/>
<path d="M96.56 89C95.55 89 94.74 88.18 94.74 87.18V79.13C94.74 78.12 95.56 77.31 96.56 77.31C97.56 77.31 98.38 78.13 98.38 79.13V87.18C98.38 88.19 97.56 89 96.56 89Z" fill="#14475F"/>
<path d="M83.36 49.07C82.89 49.07 82.43 48.89 82.07 48.54L78.59 45.06C77.88 44.35 77.88 43.19 78.59 42.48C79.3 41.77 80.46 41.77 81.17 42.48L84.65 45.96C85.36 46.67 85.36 47.83 84.65 48.54C84.29 48.9 83.83 49.07 83.36 49.07V49.07Z" fill="#14475F"/>
<path d="M113.01 78.72C112.54 78.72 112.08 78.54 111.72 78.19L108.47 74.94C107.76 74.23 107.76 73.07 108.47 72.36C109.18 71.65 110.34 71.65 111.05 72.36L114.3 75.61C115.01 76.32 115.01 77.48 114.3 78.19C113.94 78.55 113.48 78.72 113.01 78.72V78.72Z" fill="#14475F"/>
<path d="M77.89 62.27H69.84C68.83 62.27 68.02 61.45 68.02 60.45C68.02 59.45 68.84 58.63 69.84 58.63H77.89C78.9 58.63 79.71 59.45 79.71 60.45C79.71 61.45 78.89 62.27 77.89 62.27Z" fill="#14475F"/>
<path d="M123.29 62.27H115.23C114.22 62.27 113.41 61.45 113.41 60.45C113.41 59.45 114.23 58.63 115.23 58.63H123.29C124.3 58.63 125.11 59.45 125.11 60.45C125.11 61.45 124.29 62.27 123.29 62.27Z" fill="#14475F"/>
<path d="M80.29 78.54C79.82 78.54 79.36 78.36 79 78.01C78.29 77.3 78.29 76.14 79 75.43L82.07 72.36C82.78 71.65 83.94 71.65 84.65 72.36C85.36 73.07 85.36 74.23 84.65 74.94L81.58 78.01C81.22 78.37 80.76 78.54 80.29 78.54V78.54Z" fill="#14475F"/>
<path d="M109.77 49.07C109.3 49.07 108.84 48.89 108.48 48.54C107.77 47.83 107.77 46.67 108.48 45.96L111.77 42.67C112.48 41.96 113.64 41.96 114.35 42.67C115.06 43.38 115.06 44.54 114.35 45.25L111.06 48.54C110.7 48.9 110.24 49.07 109.77 49.07V49.07Z" fill="#14475F"/>
<g opacity="0.6">
<path d="M96.56 43.6C95.55 43.6 94.74 42.78 94.74 41.78V33.73C94.74 32.72 95.56 31.91 96.56 31.91C97.56 31.91 98.38 32.73 98.38 33.73V41.78C98.38 42.79 97.56 43.6 96.56 43.6Z" fill="white"/>
<path d="M96.56 89C95.55 89 94.74 88.18 94.74 87.18V79.13C94.74 78.12 95.56 77.31 96.56 77.31C97.56 77.31 98.38 78.13 98.38 79.13V87.18C98.38 88.19 97.56 89 96.56 89Z" fill="white"/>
<path d="M83.36 49.07C82.89 49.07 82.43 48.89 82.07 48.54L78.59 45.06C77.88 44.35 77.88 43.19 78.59 42.48C79.3 41.77 80.46 41.77 81.17 42.48L84.65 45.96C85.36 46.67 85.36 47.83 84.65 48.54C84.29 48.9 83.83 49.07 83.36 49.07V49.07Z" fill="white"/>
<path d="M113.01 78.72C112.54 78.72 112.08 78.54 111.72 78.19L108.47 74.94C107.76 74.23 107.76 73.07 108.47 72.36C109.18 71.65 110.34 71.65 111.05 72.36L114.3 75.61C115.01 76.32 115.01 77.48 114.3 78.19C113.94 78.55 113.48 78.72 113.01 78.72V78.72Z" fill="white"/>
<path d="M77.89 62.27H69.84C68.83 62.27 68.02 61.45 68.02 60.45C68.02 59.45 68.84 58.63 69.84 58.63H77.89C78.9 58.63 79.71 59.45 79.71 60.45C79.71 61.45 78.89 62.27 77.89 62.27Z" fill="white"/>
<path d="M123.29 62.27H115.23C114.22 62.27 113.41 61.45 113.41 60.45C113.41 59.45 114.23 58.63 115.23 58.63H123.29C124.3 58.63 125.11 59.45 125.11 60.45C125.11 61.45 124.29 62.27 123.29 62.27Z" fill="white"/>
<path d="M80.29 78.54C79.82 78.54 79.36 78.36 79 78.01C78.29 77.3 78.29 76.14 79 75.43L82.07 72.36C82.78 71.65 83.94 71.65 84.65 72.36C85.36 73.07 85.36 74.23 84.65 74.94L81.58 78.01C81.22 78.37 80.76 78.54 80.29 78.54V78.54Z" fill="white"/>
<path d="M109.77 49.07C109.3 49.07 108.84 48.89 108.48 48.54C107.77 47.83 107.77 46.67 108.48 45.96L111.77 42.67C112.48 41.96 113.64 41.96 114.35 42.67C115.06 43.38 115.06 44.54 114.35 45.25L111.06 48.54C110.7 48.9 110.24 49.07 109.77 49.07V49.07Z" fill="white"/>
</g>
</g>
<defs>
<clipPath id="clip0_1_328">
<rect width="500" height="372.06" fill="white"/>
</clipPath>
</defs>
</svg>
