<svg width="1334" height="1067" viewBox="0 0 1334 1067" fill="none" xmlns="http://www.w3.org/2000/svg">
<g clip-path="url(#clip0_14_2)">
<path d="M0 1066.67H1333.33V0.00012207H0V1066.67Z" fill="white"/>
<path d="M1067.51 1016.53C1060.63 1016.53 1053.71 1016.27 1046.71 1015.63C1019.97 1013.19 992.866 1011.97 966.26 1008.48C905.199 1000.49 844.111 1000.01 782.605 1000.01C758.192 1000.01 733.777 999.789 709.369 999.789C673.812 999.789 638.271 1000.26 602.784 1002.59C547.425 1006.21 491.973 1006.79 436.513 1006.79C428.159 1006.79 419.803 1006.78 411.449 1006.76C410.901 1006.76 410.359 1006.76 409.811 1006.76C379.117 1006.76 348.543 1008.61 317.895 1009.91C287.108 1011.23 257.169 1013.38 226.561 1013.38C223.795 1013.38 221.021 1013.37 218.243 1013.33C187.652 1012.92 141.075 1004.2 119.252 981.971C106.295 968.764 108.052 936.992 121.028 924.259C126.697 918.697 135.835 914.34 143.3 911.691C164.565 904.139 186.204 904.121 208.425 903.965C208.7 903.963 208.972 903.961 209.245 903.961C224.577 903.961 240.52 906.987 255.212 911.188C268.581 915.011 282.243 916.351 295.84 918.731C306.968 920.677 318.873 921.609 330.648 921.609C338.308 921.609 345.916 921.215 353.212 920.448C372.955 918.372 392.839 917.408 412.64 915.771C437.228 913.74 461.292 909.336 485.793 906.975C498.06 905.795 510.043 902.863 522.281 901.531C554.74 897.999 587.256 897.235 619.773 897.14C622.436 897.132 625.097 897.128 627.76 897.128C643.215 897.128 658.668 897.241 674.114 897.243C686.7 897.243 699.279 897.205 711.859 897.205C754.896 897.205 797.897 897.637 840.817 901.457C854.119 902.64 867.333 901.924 880.449 904.741C893.619 907.569 906.912 910.148 920.404 910.652C931.944 911.084 943.52 911.225 955.108 911.225C975.727 911.225 996.383 910.776 1016.93 910.703C1018.99 910.696 1021.86 910.684 1025.42 910.684C1071.42 910.684 1231.63 912.753 1220.13 954.589C1215.72 970.668 1190.04 991.592 1175.64 998.328C1157.44 1006.84 1137.55 1011.87 1117.52 1013.57C1100.64 1015 1084.18 1016.53 1067.51 1016.53Z" fill="#DFEEF4"/>
<path d="M1065.01 705.264L1065.27 713.325L1051.04 718.505L1042.84 712.292L1042.84 702.908L1050.75 702.465L1051 700.401L1053.59 698.733L1065.01 705.264" fill="#914F4E"/>
<path d="M773.972 768.955L777.029 839.865L768.068 960.44L754.656 961.392L738.361 851.883L715.821 759.217L773.972 768.955" fill="#14475F"/>
<path d="M755.373 970.395H775.507L776.34 963.747L769.123 958.76L754.62 959.791L755.373 970.395" fill="#292949"/>
<path d="M679.037 747.864L676.095 801.465L684.827 960.841L698.255 961.512L718.38 856.981L736.131 742.352L679.037 747.864Z" fill="#14475F"/>
<path d="M697.708 970.912L678.109 971.733L676.113 966.083L683.737 959.186L698.257 959.91L697.708 970.912" fill="#292949"/>
<path d="M757.114 585.959L715.212 581.469C715.212 581.469 691.901 583.96 676.084 639.32C667.284 670.12 664.605 718.644 663.961 755.639C664.95 760.917 670.698 784.032 695.01 780.112C736.758 773.377 758.98 766.644 777.161 770.011C792.648 773.377 791.338 752.055 789.637 735.783L783.465 685.435L757.114 585.959" fill="#D67086"/>
<path d="M749.023 533.8C738.461 531.472 727.589 529.387 717.017 531.479C714.701 531.937 712.216 532.744 710.96 534.743C710.473 535.517 710.216 536.411 709.977 537.293C707.309 547.211 703.925 561.913 710.455 571.051C711.699 572.793 713.372 574.177 715.169 575.3C717.571 576.801 720.231 577.821 722.981 578.364C722.413 580.831 721.62 583.245 720.616 585.568C723.033 589.213 734.312 589.649 736.399 586.155C736.515 583.131 736.632 580.107 736.749 577.083C738.121 576.528 739.448 575.853 740.693 575.032C745.513 571.859 748.691 567.04 750.533 561.651C752.543 555.781 755.369 550.203 757.204 544.221C757.873 542.041 758.401 539.555 757.253 537.584C756.033 535.487 753.4 534.773 751.031 534.247C750.361 534.097 749.693 533.948 749.023 533.8" fill="#914F4E"/>
<path d="M753.65 561.336C758.724 556.125 764.663 548.839 765.122 542.223C765.5 536.751 764.743 529.288 761.678 524.561C758.808 520.139 751.472 517.709 747.11 515.147C742.998 512.732 738.886 510.316 734.772 507.9C733.918 507.397 733.038 506.887 732.062 506.717C730.906 506.516 729.727 506.812 728.591 507.105C718.871 509.617 709.152 512.129 699.432 514.641C697.566 515.124 695.438 515.829 694.751 517.631C694.332 518.727 694.579 519.951 694.828 521.097C695.932 526.143 698.051 531.3 698.575 536.413C699.382 540.448 699.227 544.06 702.176 547.009C704.952 549.788 708.644 551.304 710.866 554.704C712.47 557.159 713.086 560.115 714.342 562.764C720.034 574.764 743.079 571.567 751.054 563.909C751.867 563.128 752.746 562.264 753.65 561.336" fill="#14475F"/>
<path d="M748.227 589.543L777.029 558.425L770.244 474.092L782.9 468.533L809.528 553.396L800.116 579.504L761.497 631.415L748.227 589.543" fill="#D67086"/>
<path d="M780.192 469.723C780.192 469.723 780.192 462.127 780.192 462.005C780.192 459.188 773.099 452.609 771.297 450.248C770.267 448.899 765.544 456.247 765.487 457.461C765.389 459.533 768.376 463.972 769.197 466.124L766.677 469.723L770.244 474.092L780.192 469.723Z" fill="#914F4E"/>
<path d="M696.699 596.02L664.099 568.907L659.876 484.405L646.605 480.537L631.223 568.139L643.944 592.804L688.977 639.259L696.699 596.02" fill="#D67086"/>
<path d="M649.447 481.365C649.447 481.365 648.46 473.832 648.444 473.712C648.079 470.917 654.255 463.473 655.738 460.899C656.583 459.428 662.219 466.1 662.434 467.297C662.8 469.34 660.414 474.128 659.88 476.368L662.847 479.611L659.876 484.405L649.447 481.365" fill="#914F4E"/>
<path d="M184.859 543.432C179.589 540.853 174.629 537.647 170.115 533.903C168.648 532.685 167.083 530.968 167.599 529.132C168.191 527.028 170.965 526.577 173.144 526.769C177.249 527.129 181.28 528.331 184.913 530.276C185.812 529.992 184.655 528.548 185.056 527.695C185.239 527.304 185.719 527.155 186.149 527.131C192.04 526.805 194.337 534.825 196.353 538.685C192.229 540.849 187.961 540.931 184.3 544.212L184.859 543.432Z" fill="#914F4E"/>
<path d="M437.641 638.873C437.641 638.873 445.158 639.973 445.278 639.991C448.066 640.4 460.246 634.257 462.844 632.816C464.328 631.992 453.098 626.333 451.905 626.101C449.868 625.704 445.044 628.017 442.796 628.517L439.6 625.501L434.76 628.399L437.641 638.873Z" fill="#914F4E"/>
<path d="M250.539 953.397L249.478 961.657L264.936 972.041L274.258 964.843L267.06 955.521L251.602 945.136L250.539 953.397" fill="#292949"/>
<path d="M250.016 950.624L261.939 845.275L247.595 727.337L250.82 702.251L314.888 699.816L317.2 740.649L306.444 845.437L265.98 956.008L250.016 950.624" fill="#292949"/>
<path d="M325.089 585.543L353.886 602.467L376.728 634.481L437.585 625.66L439.489 642.423L370.369 665.46L334.946 652.203L325.089 585.543" fill="#BABCBE"/>
<path d="M361.899 711.623L362.067 817.932L340.668 954.788L325.266 954.636L316.8 828.076L296.984 701.403L361.899 711.623" fill="#292949"/>
<path d="M325.289 961.131L341.862 969.625L350.273 961.38L342.028 952.969L325.373 952.803L325.289 961.131" fill="#292949"/>
<path d="M240.964 747.779C241.111 743.172 241.367 739.327 241.404 737.955C241.734 725.596 242.835 713.265 244.383 700.995C245.768 689.999 247.519 662.701 249.4 651.773C250.954 642.751 256.368 620.229 260.28 611.86C270.008 591.047 267.003 589.124 309.736 582.944C328.466 580.236 332.891 591.908 348.203 605.329C349.714 606.653 349.63 614.535 349.98 616.623C350.598 620.299 351.259 623.968 352.016 627.62C352.612 630.491 353.27 633.353 354.007 636.195H354.006C354.006 636.195 366.86 694.691 375.36 707.113C383.86 719.536 401.422 736.905 372.046 747.511C366.839 749.193 361.602 750.795 356.183 751.651C356.183 751.651 332.158 748.98 319.803 749.073C308.423 749.157 296.998 750.309 285.811 752.239C278.33 753.488 270.696 755.305 264.004 758.801C257.62 762.136 253.012 767.041 246.535 770.495C245.92 770.821 245.248 771.16 244.551 771.064C240.83 770.548 240.655 757.475 240.964 747.779" fill="#BABCBE"/>
<path d="M305.953 587.877C304.124 589.516 299.153 591.363 293.204 590.938C292.005 590.852 290.967 590.083 290.628 588.989C289.679 585.916 288.948 582.781 288.444 579.616C284.031 579.448 278.785 578.798 276.811 575.048C276.189 573.867 276.005 572.529 275.829 571.219C275.101 565.805 274.371 560.391 273.643 554.979C273.392 553.107 273.144 551.175 273.67 549.356C274.592 546.161 277.682 543.98 280.794 542.48C288.732 538.652 298.43 537.711 306.62 541.027C308.8 541.91 310.905 543.122 312.322 544.925C314.509 547.703 314.745 551.402 314.896 554.867C315.035 558.066 315.175 561.265 315.314 564.464C315.473 568.144 315.367 572.41 312.325 574.695C310.71 575.908 308.479 576.341 307.143 577.829C304.785 580.452 306.519 584.472 305.953 587.877" fill="#914F4E"/>
<path d="M336.303 522.489C336.692 520.955 337.157 519.447 337.747 517.985C339.024 514.819 340.889 511.868 341.679 508.548C342.468 505.227 341.879 501.235 339.099 499.253C337.304 497.976 334.968 497.779 332.765 497.805C325.507 497.892 318.281 499.967 312.084 503.745C306.179 507.343 301.277 511.805 294.089 511.377C287.336 510.977 283.244 513.243 277.607 517.448C271.505 521.997 262.485 525.4 257.344 530.757C255.196 532.995 253.821 535.881 252.976 538.864C250.044 549.199 253.665 561.093 261.859 568.041C263.696 569.6 265.727 570.917 267.809 572.131C272.119 574.643 277.316 577.784 282.163 577.717C281.045 573.707 273.568 562.277 275.621 558.079C278.88 551.416 290.395 549.852 296.801 549.277C303.788 548.651 311.063 551.5 317.872 550.493C322.771 549.771 328.039 545.639 331.276 541.997C335.268 537.501 334.879 528.091 336.303 522.489" fill="#292949"/>
<path d="M272.36 592.101L238.74 600.736L198.254 537.804L181.167 542.417L209.651 633.011L275.195 640.901L272.36 592.101" fill="#BABCBE"/>
<path d="M1090.52 941.227C1091.99 939.6 1093.72 938.712 1095.66 939.019C1097.53 939.312 1099.22 940.581 1099.99 942.277C1100.52 943.433 1100.63 944.724 1100.73 945.986C1101.27 952.516 1101.22 968.02 1092.53 970.251C1088.87 971.19 1085.85 968.591 1084.87 965.309C1083.4 960.363 1085.58 946.664 1090.52 941.227Z" fill="#292949"/>
<path d="M1087.42 842.716L1087.88 882.545C1087.35 900.237 1090.11 918.028 1089.58 935.72C1089.46 939.788 1088.4 944.08 1089.42 948.112C1090.43 952.056 1093.63 952.753 1096.92 950.756C1101.33 948.081 1100.62 941.831 1101.35 937.272C1103.37 924.744 1105.73 912.273 1107.84 899.76C1108.87 893.627 1106.75 885.028 1107.21 878.82L1113.64 845.44L1087.42 842.716Z" fill="#914F4E"/>
<path d="M1132.93 778.361L1115.59 855.364L1111.91 928.084L1084.42 927.467L1076.95 724.06L1130.24 725.028L1132.93 778.361Z" fill="#292949"/>
<path d="M1051.2 939.779C1052.74 938.239 1054.5 937.452 1056.43 937.874C1058.28 938.279 1059.9 939.645 1060.6 941.389C1061.07 942.579 1061.13 943.876 1061.18 945.144C1061.44 951.712 1060.73 967.224 1051.96 968.945C1048.28 969.668 1045.37 966.891 1044.54 963.548C1043.29 958.512 1046.04 944.931 1051.2 939.779" fill="#292949"/>
<path d="M1065.69 848.307L1063.36 888.073C1063.16 899.124 1061.69 910.088 1060.55 921.065C1059.49 931.26 1061.14 941.88 1055.81 951.152C1054.14 954.061 1050.76 955.996 1048.4 952.464C1046.58 949.741 1047.66 945.198 1047.31 942.11C1045.89 929.503 1044.12 916.936 1042.6 904.339C1041.86 898.163 1044.39 889.675 1044.22 883.451L1039.37 849.808L1065.69 848.307" fill="#914F4E"/>
<path d="M1030.9 773.651L1028.67 848.401L1040.4 923.989L1068.36 924.827L1067.12 843.02L1081.92 775.179L1086.89 730.771L1042.52 725.537L1030.9 773.651Z" fill="#292949"/>
<path d="M1066 572.561L1113.8 571.419L1141.51 622.96L1131.66 671.233L1129.91 729.004L1061.73 729.935L1039.29 726.292L1045.25 664.565L1041.83 582.109L1066 572.561" fill="#8CABEF"/>
<path d="M1072.26 527.957C1081.67 507.901 1108.33 518.671 1112 537.828C1114.39 550.324 1103.36 565.016 1090.45 567.139C1090.34 567.609 1088.96 571.677 1088.92 572.053C1088.7 573.995 1088.25 575.884 1087.76 577.793C1087.57 578.505 1076.83 575.215 1075.63 574.841C1075.21 574.711 1074.75 574.543 1074.56 574.16C1074.19 573.423 1076.42 567.845 1076.58 567.088C1076.77 566.195 1076.97 565.303 1077.16 564.409C1071.3 560.724 1068.09 553.875 1067.71 547.213C1067.32 540.521 1069.44 533.985 1072.26 527.957" fill="#914F4E"/>
<path d="M1092.23 511.071C1093.55 512.727 1093.9 514.877 1094.11 516.928C1094.23 518.152 1094.32 519.415 1093.93 520.572C1092.4 525.191 1087.74 524.439 1083.95 525.571C1079.27 526.968 1075.05 530.012 1072.11 533.727C1067.52 539.545 1068.42 547.764 1069.26 554.819C1069.56 557.305 1070.3 561.032 1068.19 562.993C1066.04 564.985 1061.66 564.169 1059.49 562.792C1057.51 561.532 1056 559.436 1053.74 558.804C1051.35 558.135 1047.95 558.849 1047.06 556.496C1046.81 555.843 1046.87 555.081 1046.53 554.469C1045.39 552.404 1041.81 554.293 1040.06 552.735C1038.99 551.776 1039.19 550.003 1039.73 548.64C1040.28 547.279 1041.1 545.925 1040.97 544.468C1040.87 543.215 1040.09 542.148 1039.66 540.972C1038.82 538.648 1039.5 535.815 1041.31 534.125C1044.68 530.984 1050.41 532.267 1053.96 529.353C1055.82 527.835 1056.73 525.456 1057.6 523.207C1058.47 520.956 1059.49 518.593 1061.44 517.216C1063.86 515.513 1067.01 516.187 1069.43 514.121C1070.86 512.907 1071.9 511.239 1073.46 510.217C1075.52 508.871 1079.35 508.077 1081.79 507.54C1085.66 506.688 1089.75 507.937 1092.23 511.071" fill="#292949"/>
<path d="M1106.04 546.184C1105.43 553.053 1101.23 560.096 1103.73 566.472C1106.26 572.905 1114.09 574.86 1120.83 575.908C1121.93 576.08 1136.09 578.855 1136.18 578.589C1137.77 573.929 1139.4 569.18 1142.35 565.255C1145.29 561.331 1149.84 558.307 1154.65 558.525C1153.3 558.137 1152.79 556.373 1153.1 554.968C1153.41 553.561 1154.29 552.359 1154.86 551.036C1156.27 547.789 1155.67 543.759 1153.39 541.125C1148.85 535.868 1139.47 536.837 1135.72 530.959C1133.4 527.313 1134.24 522.481 1133.27 518.233C1131.4 510.019 1122.91 507.425 1116.81 503.149C1110.38 498.636 1104.16 495.872 1096.12 496.336C1086.15 496.913 1077.8 506.096 1080.57 515.883C1084.11 528.435 1103.58 529.483 1105.89 542.088C1106.14 543.443 1106.16 544.809 1106.04 546.184" fill="#292949"/>
<path d="M1099.66 572.287L1084.83 593.244L1077.86 592.673L1066.24 571.419L1099.66 572.287Z" fill="#F9F9F9"/>
<path d="M1066.24 571.419L1039.29 572.884C1039.29 572.884 1009.04 587.759 1007.04 586.642C1005.04 585.527 972.351 520.081 972.351 520.081L956.34 525.279L976.353 600.143L995.697 620.146L1050.4 611.042L1066.24 571.419" fill="#8CABEF"/>
<path d="M958.845 524.361L954.547 517.949C952.976 515.611 955.201 506.196 955.385 503.231C955.489 501.537 963.503 505.009 964.227 505.987C965.463 507.653 965.453 513.003 965.971 515.248L970.069 516.833L969.54 522.449L958.845 524.361Z" fill="#914F4E"/>
<path d="M392.766 330.528L308.545 292.475V191.183L392.766 229.236V330.528" fill="#235E79"/>
<path d="M392.767 330.528L476.987 292.475V191.183L392.767 229.236V330.528" fill="#14475F"/>
<path d="M308.545 191.183L392.766 229.236L476.986 191.183L392.766 156.633L308.545 191.183Z" fill="#215066"/>
<path d="M1065.32 273.995L994.549 242.02V156.907L1065.32 188.883V273.995" fill="#235E79"/>
<path d="M1065.32 273.995L1136.09 242.02V156.907L1065.32 188.883V273.995" fill="#14475F"/>
<path d="M994.549 156.907L1065.32 188.883L1136.09 156.907L1065.32 127.876L994.549 156.907" fill="#215066"/>
<path d="M445.594 268.039L434.001 262.788L435.75 258.923L447.345 264.173L445.594 268.039ZM464.918 276.789L453.324 271.539L455.074 267.675L466.668 272.925L464.918 276.789ZM484.242 285.541L472.648 280.291L474.398 276.425L485.992 281.676L484.242 285.541ZM503.565 294.292L491.972 289.041L493.721 285.177L505.316 290.428L503.565 294.292ZM522.889 303.044L511.294 297.793L513.045 293.928L524.638 299.179L522.889 303.044ZM542.212 311.795L530.618 306.544L532.368 302.68L543.962 307.931L542.212 311.795ZM561.536 320.547L549.942 315.296L551.692 311.431L563.286 316.681L561.536 320.547ZM580.86 329.297L569.265 324.047L571.016 320.183L582.61 325.433L580.86 329.297ZM600.182 338.049L588.588 332.799L590.338 328.933L601.933 334.184L600.182 338.049ZM619.506 346.8L607.912 341.549L609.662 337.685L621.256 342.936L619.506 346.8ZM637.158 354.795L627.236 350.301L628.985 346.436L638.909 350.931L637.158 354.795Z" fill="#D67086"/>
<path d="M336.457 270.416L333.932 267.007L344.157 259.428L346.684 262.837L336.457 270.416ZM319.416 283.045L316.889 279.637L327.115 272.059L329.64 275.468L319.416 283.045ZM302.372 295.676L299.847 292.268L310.072 284.689L312.597 288.097L302.372 295.676ZM285.329 308.305L282.804 304.897L293.029 297.32L295.556 300.728L285.329 308.305ZM268.287 320.937L265.76 317.528L275.987 309.949L278.512 313.359L268.287 320.937ZM251.244 333.567L248.719 330.159L258.944 322.58L261.471 325.989L251.244 333.567ZM234.201 346.197L231.675 342.789L241.9 335.211L244.427 338.619L234.201 346.197ZM222.143 355.133L219.617 351.724L224.859 347.84L227.384 351.249L222.143 355.133Z" fill="#D67086"/>
<path d="M192.402 479.915L121.635 447.939V362.827L192.402 394.801V479.915Z" fill="#235E79"/>
<path d="M192.402 479.915L263.17 447.939V362.827L192.402 394.801V479.915" fill="#14475F"/>
<path d="M121.635 362.827L192.402 394.801L263.17 362.827L192.402 333.795L121.635 362.827Z" fill="#215066"/>
<path d="M1016.61 222.568L1015.05 218.625L1026.87 213.927L1028.44 217.869L1016.61 222.568ZM996.9 230.401L995.333 226.459L1007.16 221.759L1008.73 225.701L996.9 230.401ZM977.185 238.233L975.62 234.291L987.448 229.591L989.014 233.535L977.185 238.233ZM957.472 246.067L955.905 242.124L967.733 237.424L969.3 241.367L957.472 246.067ZM937.757 253.899L936.192 249.956L948.02 245.256L949.585 249.199L937.757 253.899ZM918.044 261.731L916.477 257.788L928.305 253.089L929.872 257.032L918.044 261.731ZM898.331 269.564L896.764 265.621L908.592 260.921L910.159 264.864L898.331 269.564ZM878.617 277.396L877.051 273.453L888.879 268.753L890.445 272.696L878.617 277.396ZM858.903 285.229L857.336 281.287L869.165 276.587L870.732 280.529L858.903 285.229ZM839.189 293.061L837.623 289.119L849.451 284.419L851.017 288.361L839.189 293.061ZM819.475 300.893L817.909 296.951L829.737 292.252L831.304 296.195L819.475 300.893ZM799.761 308.727L798.195 304.784L810.024 300.084L811.589 304.027L799.761 308.727ZM780.048 316.559L778.481 312.616L790.309 307.917L791.876 311.86L780.048 316.559ZM760.334 324.391L758.768 320.448L770.596 315.749L772.163 319.692L760.334 324.391ZM740.62 332.224L739.053 328.281L750.883 323.583L752.448 327.525L740.62 332.224ZM720.907 340.056L719.34 336.113L731.168 331.415L732.734 335.357L720.907 340.056ZM701.193 347.889L699.627 343.947L711.455 339.247L713.021 343.189L701.193 347.889ZM681.479 355.723L679.913 351.779L691.741 347.08L693.307 351.023L681.479 355.723ZM661.765 363.555L660.199 359.611L672.028 354.912L673.593 358.855L661.765 363.555ZM642.052 371.387L640.485 367.444L652.313 362.745L653.88 366.688L642.052 371.387ZM633.807 374.663L632.241 370.72L632.6 370.577L634.167 374.52L633.807 374.663Z" fill="#D67086"/>
<path d="M704.764 491.388L561.284 426.559V253.995L704.764 318.824V491.388Z" fill="#235E79"/>
<path d="M704.764 491.388L848.245 426.559V253.995L704.764 318.824V491.388Z" fill="#14475F"/>
<path d="M561.284 253.995L704.764 318.824L848.245 253.995L704.764 195.135L561.284 253.995" fill="#215066"/>
<path d="M787.254 379.83L775.638 374.627L777.371 370.755L788.987 375.956L787.254 379.83ZM806.614 388.497L794.998 383.296L796.732 379.424L808.348 384.625L806.614 388.497ZM825.975 397.167L814.359 391.966L816.092 388.094L827.708 393.295L825.975 397.167ZM845.335 405.835L833.719 400.635L835.454 396.761L847.07 401.963L845.335 405.835ZM864.695 414.504L853.08 409.303L854.814 405.431L866.43 410.632L864.695 414.504ZM884.056 423.173L872.44 417.972L874.174 414.1L885.791 419.301L884.056 423.173ZM903.418 431.842L891.802 426.64L893.534 422.768L905.151 427.971L903.418 431.842ZM922.778 440.511L911.162 435.309L912.895 431.437L924.512 436.639L922.778 440.511ZM942.139 449.18L930.523 443.979L932.255 440.107L943.871 445.308L942.139 449.18Z" fill="#D67086"/>
<path d="M623.5 381.396L621.19 377.836L631.869 370.912L634.178 374.471L623.5 381.396ZM605.701 392.937L603.393 389.377L614.072 382.453L616.38 386.012L605.701 392.937ZM587.902 404.479L585.594 400.92L596.273 393.995L598.582 397.555L587.902 404.479ZM570.105 416.021L567.797 412.461L578.476 405.536L580.784 409.096L570.105 416.021ZM552.306 427.563L549.998 424.003L560.677 417.079L562.985 420.639L552.306 427.563ZM534.509 439.105L532.2 435.545L542.88 428.62L545.188 432.18L534.509 439.105ZM516.71 450.647L514.402 447.087L525.082 440.161L527.389 443.721L516.71 450.647Z" fill="#D67086"/>
<path d="M467.649 632.756L369.525 588.42V470.407L467.649 514.743V632.756" fill="#235E79"/>
<path d="M467.649 632.756L565.775 588.42V470.407L467.649 514.743V632.756" fill="#14475F"/>
<path d="M369.525 470.407L467.649 514.743L565.775 470.407L467.649 430.152L369.525 470.407" fill="#215066"/>
<path d="M996.975 530.616L898.852 486.281V368.267L996.975 412.603V530.616" fill="#235E79"/>
<path d="M996.975 530.616L1095.1 486.281V368.267L996.975 412.603V530.616" fill="#14475F"/>
<path d="M898.852 368.267L996.975 412.603L1095.1 368.267L996.975 328.012L898.852 368.267Z" fill="#215066"/>
<path d="M1084.31 710.355C1081.41 713.3 1077.41 715.849 1073.3 715.327C1071.67 715.117 1070.04 714.829 1068.43 714.465C1067.16 714.177 1065.86 713.82 1064.85 712.984C1063.84 712.148 1063.2 710.711 1063.63 709.443C1064.23 707.652 1066.41 707.172 1067.99 706.208C1069.98 705.005 1071.19 702.843 1072.75 701.092C1076.3 697.103 1081.1 696.728 1085.63 694.6C1085.84 694.503 1088.29 697.333 1088.51 697.587C1090.16 699.429 1090.3 699.831 1089.38 702.163C1088.23 705.04 1086.56 708.072 1084.31 710.355Z" fill="#914F4E"/>
<path d="M1115.38 574.973L1154.18 634.071L1148.35 666.992L1088.26 708.62L1076.95 698.733L1117.13 647.949L1115.57 615.856L1115.38 574.973Z" fill="#8CABEF"/>
</g>
<defs>
<clipPath id="clip0_14_2">
<rect width="1333.33" height="1066.67" fill="white"/>
</clipPath>
</defs>
</svg>
