<svg xmlns="http://www.w3.org/2000/svg" xmlns:xlink="http://www.w3.org/1999/xlink" width="660" height="382" viewBox="0 0 660 382">
  <defs>
    <clipPath id="clip-path">
      <rect id="Rectangle_29" data-name="Rectangle 29" width="660" height="382"/>
    </clipPath>
  </defs>
  <g id="Artboard_1" data-name="Artboard – 1" clip-path="url(#clip-path)">
    <g id="Group_4445" data-name="Group 4445" transform="translate(-1514.744 -433.919)">
      <path id="Path_9030" data-name="Path 9030" d="M2220.48,591.038l8.936-1.007a1.992,1.992,0,0,1,1.876.9q.776,1.2,1.663,2.36a33.518,33.518,0,0,0,3.539,3.951,1.965,1.965,0,0,1,.485,2.163l-3.427,8.752a1.93,1.93,0,0,0,.951,2.449l7.7,3.813a1.91,1.91,0,0,0,2.448-.679l4.656-7.295a1.917,1.917,0,0,1,2.146-.83,34.739,34.739,0,0,0,10.9,1.085,1.978,1.978,0,0,1,1.981,1.374l1.578,5.023a2,2,0,0,0,2.272,1.349l8.362-1.691a1.747,1.747,0,0,0,.483-.16,1.919,1.919,0,0,0,1.07-1.958l-.744-6.676-.185-1.627a34.375,34.375,0,0,0,4.055-2.678,34.883,34.883,0,0,0,4.758-4.405,1.917,1.917,0,0,1,2.14-.516l7.046,2.769a1.987,1.987,0,0,0,2.508-.971l2.917-5.886.83-1.689a2.011,2.011,0,0,0-.715-2.592l-6.094-3.9a1.914,1.914,0,0,1-.859-2.087,34.45,34.45,0,0,0,.928-7.317,6.111,6.111,0,0,0,.019-.62,1.079,1.079,0,0,1,.014-.208,1.961,1.961,0,0,1,1.383-1.679l8.15-2.58a1.431,1.431,0,0,0,.265-.1,1.994,1.994,0,0,0,1.075-2.161l-1.673-8.338a1.984,1.984,0,0,0-2.164-1.579l-9.321,1.054a1.918,1.918,0,0,1-1.924-1.009,35.109,35.109,0,0,0-2.918-4.464q-.879-1.145-1.832-2.194a2.02,2.02,0,0,1-.382-2.094l3.292-8.412a1.929,1.929,0,0,0-.94-2.433l-7.622-3.761a2.017,2.017,0,0,0-2.6.721l-3.685,5.771a1.981,1.981,0,0,1-2.3.816A34.664,34.664,0,0,0,2261,537.9a1.968,1.968,0,0,1-1.854-1.385l-2.322-7.346a2.036,2.036,0,0,0-2.331-1.377l-8.309,1.663a1.946,1.946,0,0,0-1.554,2.133l.039.39.868,7.756a1.991,1.991,0,0,1-1.075,2l-.008.006a34.485,34.485,0,0,0-5.155,3.275c-.88.675-1.708,1.385-2.513,2.126a1.952,1.952,0,0,1-2.054.4l-7.152-2.811a2.02,2.02,0,0,0-2.551.98l-3.75,7.589a2.2,2.2,0,0,0-.193.667,2.012,2.012,0,0,0,.9,1.882l4.875,3.1a2.009,2.009,0,0,1,.91,1.751,2.15,2.15,0,0,1-.1.547,34.533,34.533,0,0,0-1.756,13.541,1.944,1.944,0,0,1-1.043,1.864,2.02,2.02,0,0,1-.311.127l-6.6,2.084a1.976,1.976,0,0,0-1.341,2.266l.037.194,1.624,8.129A2.013,2.013,0,0,0,2220.48,591.038Zm57.172-25.376a23.12,23.12,0,0,1,1.213,4.128,18.157,18.157,0,0,1-1.292,9.81c-.135.276-.275.544-.415.813-8.745,16.232-31.665,13-35.439-5.311a18.82,18.82,0,0,1,.672-8.555,12.174,12.174,0,0,1,.684-1.687,21.347,21.347,0,0,1,4.265-5.87,18.628,18.628,0,0,1,30.31,6.672Z" transform="translate(-431.911 -59.594)" fill="#015a58" opacity="0.2"/>
      <path id="Path_9031" data-name="Path 9031" d="M2812.88,600.215c-8.58-17.291-38.282-5.454-38.282-5.454s-14.586,36.139-20.526,38.111,6.438-33.333,6.438-33.333c-12.029,1.2-39.231,21.644-39.231,21.644s9.315,36.931,3.073,37.38-6.58-33.122-6.58-33.122c-10.74,5.7-18.753,21.138-18.753,21.138-9.014,24.348,22.716,34.665,22.716,34.665s2.952,12.868-2.093,29.3h0a44.915,44.915,0,0,0-2.168,8.124l3.114-.619q.133-1.328.365-2.585a.017.017,0,0,1,0-.015.072.072,0,0,1,.007-.037c.117-.523.288-1.269.5-2.179h0c.581-2.051.951-3.555,1.16-4.628a.034.034,0,0,0,0-.01c1.689-6.412,4.282-14.844,6.7-16.986a6.145,6.145,0,0,1-.95-1.3l.95,1.3c7.6,10.362,34.627,6.972,48.869.977s6.938-8.9-2.406-14.106-25.74-.089-31.219-1.771,1.226-5.784,11.275-6.989,16.966,7.71,33.258,6.057,22.5-34.15,22.5-34.15c-10.36,5.62-31.366,3.461-32.884-.2s27.873-9.1,32.214-11.148S2821.46,617.505,2812.88,600.215Z" transform="translate(-740.561 -100.07)" fill="#015a58" opacity="0.2"/>
      <path id="Path_9032" data-name="Path 9032" d="M1650.74,919.92c-3.492-18.984,27.38-27.306,27.38-27.306s33.332,20.193,39.269,18.212S1692.26,888,1692.26,888c10.35-6.245,44.377-6.179,44.377-6.179s14.672,35.149,19.938,31.768S1742,883.126,1742,883.126c12.011-1.876,27.68,5.686,27.68,5.686,21.806,14.091,2.585,41.364,2.585,41.364s5.348,12.071,19.235,22.206h0a44.906,44.906,0,0,1,6.6,5.2l-2.864,1.371q-.9-.984-1.841-1.851a.019.019,0,0,0-.012-.01l-.027-.025c-.408-.349-.991-.843-1.709-1.442h0c-1.694-1.294-2.891-2.276-3.7-3.011l-.007-.007c-5.195-4.121-12.323-9.318-15.545-9.582a6.159,6.159,0,0,0-.016-1.607c.005.513.01,1.047.016,1.607.126,12.85-23.544,26.33-38.539,30.065s-10.886-2.965-6.526-12.735,20.554-15.5,23.932-20.124-4.447-3.9-13.214,1.161-8.962,16.339-23,24.777-38.476-13.858-38.476-13.858c11.661-1.708,27.186-16.024,26.211-19.86s-27.767,9.417-32.471,10.377S1654.23,938.9,1650.74,919.92Z" transform="translate(-68.505 -286.877)" fill="#015a58" opacity="0.2"/>
      <path id="Path_9033" data-name="Path 9033" d="M2828.41,1144.91c15.192-11.908-2.423-38.593-2.423-38.593s-38.347-6.954-41.481-12.371,33.946-.456,33.946-.456c-3.617-11.535-29.15-34.026-29.15-34.026s-34.275,16.612-35.98,10.59,31.1-13.16,31.1-13.16c-7.755-9.362-24.5-14.077-24.5-14.077-25.669-3.889-29.337,29.274-29.337,29.274s-12,5.5-29.12,3.894h0a44.915,44.915,0,0,0-8.394-.476l1.237,2.924c.885-.093,1.754-.151,2.6-.167a.02.02,0,0,1,.016,0h.036c.537.009,1.3.025,2.236.052h.008c2.126.153,3.673.21,4.768.2h.01c6.621.354,15.4,1.183,17.992,3.12a6.152,6.152,0,0,1,1.076-1.193l-1.076,1.193c-8.606,9.542.2,35.321,8.955,48.052s10.119,4.99,13.324-5.217-5.133-25.224-4.6-30.929,5.912.027,9.13,9.624-4.109,18.176.814,33.8,38,15.107,38,15.107c-7.6-9.005-9.75-30.013-6.478-32.241s14.562,25.448,17.45,29.284S2813.21,1156.82,2828.41,1144.91Z" transform="translate(-737.773 -390.023)" fill="#015a58" opacity="0.2"/>
      <g id="Group_4394" data-name="Group 4394" transform="translate(1951.214 471.963)" opacity="0.2">
        <path id="Path_9034" data-name="Path 9034" d="M2685.88,597.823s1.781-35.567,18.407-57.865a3.954,3.954,0,0,1,7.107,2.193q0,.092.008.187C2711.6,548.648,2693.19,576.587,2685.88,597.823Z" transform="translate(-2684.375 -538.377)" fill="#015a58" opacity="0.5"/>
        <path id="Path_9035" data-name="Path 9035" d="M2681.68,611.5s14.976-45.334,44.4-66.954a4.2,4.2,0,0,1,5.749.682c.9,1.136,1.4,2.973.678,5.945C2730.59,559.093,2698.08,587.562,2681.68,611.5Z" transform="translate(-2681.684 -541.799)" fill="#015a58" opacity="0.5"/>
      </g>
      <g id="Group_4395" data-name="Group 4395" transform="translate(1638.493 552.401)" opacity="0.2">
        <path id="Path_9036" data-name="Path 9036" d="M1897.32,799.8s-14.924-26.032-35.929-36.427a3.332,3.332,0,0,0-4.5,4.362c.021.047.043.095.066.143C1859.22,772.69,1883.72,786.641,1897.32,799.8Z" transform="translate(-1839.316 -763.016)" fill="#015a58" opacity="0.5"/>
        <path id="Path_9037" data-name="Path 9037" d="M1871.4,825.807s-28.564-28.327-58.92-33.325a3.535,3.535,0,0,0-4.058,2.708c-.243,1.2.086,2.767,1.761,4.724C1814.65,805.133,1849.94,814.094,1871.4,825.807Z" transform="translate(-1808.349 -781.9)" fill="#015a58" opacity="0.5"/>
      </g>
      <path id="Path_9038" data-name="Path 9038" d="M2283.78,695.756V921.572c0,3.95-2.852,7.155-6.368,7.155h-325.8c-3.516,0-6.368-3.2-6.368-7.155V695.756c0-3.954,2.852-7.155,6.368-7.155h325.8C2280.93,688.6,2283.78,691.8,2283.78,695.756Z" transform="translate(-257.728 -162.846)" fill="#b8c0c7"/>
      <g id="Group_4397" data-name="Group 4397" transform="translate(1646.348 513.179)">
        <path id="Path_9039" data-name="Path 9039" d="M2193.88,660.32v18.312h-363.6V660.32a6.839,6.839,0,0,1,6.841-6.84h349.915a6.839,6.839,0,0,1,6.844,6.84Z" transform="translate(-1830.286 -653.48)" fill="#0fc2bf"/>
        <g id="Group_4396" data-name="Group 4396" transform="translate(11.123 9.392)">
          <path id="Path_9040" data-name="Path 9040" d="M1861.35,682.892a3.184,3.184,0,1,1,3.184,3.184,3.184,3.184,0,0,1-3.184-3.184Z" transform="translate(-1861.348 -679.708)" fill="#e9e9e9"/>
          <path id="Path_9041" data-name="Path 9041" d="M1896.39,682.892a3.184,3.184,0,1,1,3.184,3.184A3.184,3.184,0,0,1,1896.39,682.892Z" transform="translate(-1883.841 -679.708)" fill="#e9e9e9"/>
          <path id="Path_9042" data-name="Path 9042" d="M1932.31,682.892a3.184,3.184,0,1,1,3.184,3.184A3.184,3.184,0,0,1,1932.31,682.892Z" transform="translate(-1906.901 -679.708)" fill="#e9e9e9"/>
        </g>
      </g>
      <path id="Path_9043" data-name="Path 9043" d="M2484.71,543.14l4.352-.49a.97.97,0,0,1,.913.437q.379.586.811,1.15a16.3,16.3,0,0,0,1.723,1.924.958.958,0,0,1,.237,1.053l-1.67,4.262a.94.94,0,0,0,.464,1.192l3.75,1.857a.93.93,0,0,0,1.192-.331l2.267-3.553a.934.934,0,0,1,1.045-.4,16.912,16.912,0,0,0,5.308.529.964.964,0,0,1,.965.669l.768,2.446a.972.972,0,0,0,1.106.657l4.073-.824a.85.85,0,0,0,.235-.078.934.934,0,0,0,.522-.954l-.363-3.251-.09-.792a16.716,16.716,0,0,0,1.975-1.3,16.981,16.981,0,0,0,2.317-2.146.932.932,0,0,1,1.042-.251l3.431,1.348a.966.966,0,0,0,1.221-.473l1.421-2.866.405-.822a.982.982,0,0,0-.348-1.263l-2.968-1.9a.932.932,0,0,1-.418-1.016,16.833,16.833,0,0,0,.453-3.563,3,3,0,0,0,.009-.3.508.508,0,0,1,.007-.1.955.955,0,0,1,.673-.818l3.969-1.256a.659.659,0,0,0,.129-.051.97.97,0,0,0,.524-1.052l-.815-4.061a.965.965,0,0,0-1.054-.77l-4.54.513a.934.934,0,0,1-.937-.492,17.048,17.048,0,0,0-1.421-2.174q-.427-.557-.892-1.068a.984.984,0,0,1-.186-1.019l1.6-4.1a.94.94,0,0,0-.458-1.185l-3.712-1.832a.982.982,0,0,0-1.267.351l-1.795,2.811a.965.965,0,0,1-1.123.4,16.881,16.881,0,0,0-5.121-.92.958.958,0,0,1-.9-.674l-1.13-3.578a.992.992,0,0,0-1.135-.671l-4.047.81a.948.948,0,0,0-.757,1.039l.019.19.423,3.777a.969.969,0,0,1-.524.974h0a16.771,16.771,0,0,0-2.51,1.6c-.428.329-.832.674-1.224,1.035a.95.95,0,0,1-1,.2l-3.484-1.369a.984.984,0,0,0-1.242.477l-1.826,3.7a1.072,1.072,0,0,0-.094.325.978.978,0,0,0,.438.916l2.375,1.509a.977.977,0,0,1,.443.853,1.049,1.049,0,0,1-.048.266,16.813,16.813,0,0,0-.854,6.595.948.948,0,0,1-.509.908.959.959,0,0,1-.151.062l-3.215,1.015a.963.963,0,0,0-.653,1.1l.018.094.791,3.959a.98.98,0,0,0,1.067.76Zm27.843-12.358a11.233,11.233,0,0,1,.591,2.01,8.843,8.843,0,0,1-.629,4.777c-.065.134-.134.265-.2.4a9.137,9.137,0,0,1-16.932-6.753,6,6,0,0,1,.333-.822,10.38,10.38,0,0,1,2.077-2.858,9.072,9.072,0,0,1,14.767,3.246Z" transform="translate(-602.812 -49.687)" fill="#015a58" opacity="0.2"/>
      <g id="Group_4401" data-name="Group 4401" transform="translate(1558.525 692.481)">
        <path id="Path_9044" data-name="Path 9044" d="M1746.83,1159.5s.485-5.285-5.42-5.285a6.939,6.939,0,0,1,2.715,1.456s-3.766-2.211-7.864,1.186-1.552,11.918-2.8,13.535-6.1,1.941-5.506,7.172,15.4,11.782,14.452,16.109c0,0,5.8-8.531,1.654-12.425a7.691,7.691,0,0,1,2.229,4.17s.549-4.422-2.265-5.836c-2.49-1.251-4.53-5.829-4.314-6.647S1746.83,1159.5,1746.83,1159.5Z" transform="translate(-1676.747 -1154.216)" fill="#151f2c"/>
        <path id="Path_9045" data-name="Path 9045" d="M1753.31,1239.83s4.411,18.249,8.741,21.9c2.6,2.193,10.341,7.225,10.341,7.225l-3.219,1.168s-10.734-3.625-13.137-6.45-8.983-16.984-8.983-16.984Z" transform="translate(-1689.036 -1209.176)" fill="#914f4e"/>
        <path id="Path_9046" data-name="Path 9046" d="M1643.82,1298.44l.121.215c.965,1.677,3.18,5.788,5.619,10.287,1.154,2.134,2.361,4.356,3.508,6.447,1.974,3.608,3.771,6.821,4.819,8.519,1.066,1.727,1.85,2.94,2.168,3.425h0a.8.8,0,0,1,.1.5,26.228,26.228,0,0,0,.07,4.524,34.706,34.706,0,0,0,11.341,22.48l2.934.434s-4.152-15.385-5.376-24.083a16.7,16.7,0,0,1-.224-3.448,36.011,36.011,0,0,0-.947-9.413,210.855,210.855,0,0,0-6-21.788c-.137-.426-4.264-15.354-4.264-15.354-3.464,3.027-16.1,4.277-16.1,4.277S1639.45,1290.68,1643.82,1298.44Z" transform="translate(-1620.999 -1235.725)" fill="#384152"/>
        <path id="Path_9047" data-name="Path 9047" d="M1729.56,1486.24h-12.247a6.723,6.723,0,0,1,.346-3.282c.613-1.359,1.487-1.4.112-3.532.778.8,3.28,1.133,5.05.894.217.352,1.4,2.711,2.123,3.232C1725.75,1484.13,1729.32,1483.92,1729.56,1486.24Z" transform="translate(-1669.902 -1362.976)" fill="#151f2c"/>
        <path id="Path_9048" data-name="Path 9048" d="M1648.75,1316.42l.121.214c.965,1.678,6.186,11.319,8.625,15.818a65.224,65.224,0,0,1-.861-23.254Z" transform="translate(-1625.929 -1253.704)" fill="#151f2c"/>
        <path id="Path_9049" data-name="Path 9049" d="M1758.97,1166.74c.08-.322-7,3.2-7.354,3.6-3.318,3.68-2.372,8.484-.474,8.53,1.218.03.982,2.054.982,2.054l13.565-5.739S1764.06,1165.66,1758.97,1166.74Z" transform="translate(-1690.555 -1162.203)" fill="#151f2c"/>
        <path id="Path_9050" data-name="Path 9050" d="M1750.57,1232.18s2.065,4.124,1.807,7.47c0,0-2.489,3.929-8.945,4.924C1743.43,1244.57,1748.98,1232.18,1750.57,1232.18Z" transform="translate(-1686.708 -1204.263)" fill="#0fc2bf"/>
        <path id="Path_9051" data-name="Path 9051" d="M1620.3,1281.8l.042-2.291c-4.564.575-15.736-5.454-15.736-5.454s-4.775,3.175-5.428,12.245c-.319,4.426-2.338,23.147-2.561,28.737-.082,2.026-.109,3.472-.118,4.05v.005a.8.8,0,0,1-.194.472,26.158,26.158,0,0,0-2.473,3.791c-6.964,12.957-3.322,30.563-3.322,30.563l1.617-.411s5.888-18.252,9.737-26.147a16.516,16.516,0,0,1,1.743-2.983,36.012,36.012,0,0,0,4.477-8.334C1610.93,1309.25,1620.3,1281.8,1620.3,1281.8Z" transform="translate(-1587.935 -1231.143)" fill="#384152"/>
        <path id="Path_9052" data-name="Path 9052" d="M1597.34,1486.08h-12.247a6.725,6.725,0,0,1,.346-3.283c.613-1.359,1.573-1.977,1.343-3.62a4.41,4.41,0,0,0,3.817,1.46,13.43,13.43,0,0,0,2.125,2.755C1593.52,1483.97,1597.09,1483.77,1597.34,1486.08Z" transform="translate(-1585.025 -1362.818)" fill="#151f2c"/>
        <path id="Path_9053" data-name="Path 9053" d="M1669.93,1234.76c-1.645.281.268,1.589-1.994,1.834-3.22.352-6.546.592-8.287,1.287a1.872,1.872,0,0,0-1.193.966c-.755,2.271-5.536,6.172-5.536,6.172-21.326-.971-22.7-10.476-22.7-10.476,13.841-13.442,25.616-20.77,35.348-21.676a17.312,17.312,0,0,1,7.059.742c3.4,1.516,5.269,6.127,5.269,6.127S1676.18,1233.7,1669.93,1234.76Z" transform="translate(-1614.037 -1191.819)" fill="#0fc2bf"/>
        <path id="Path_9054" data-name="Path 9054" d="M1720.57,1248.16c-3.22.352-6.546.592-8.287,1.287a33.959,33.959,0,0,1,4.307-18.637S1719.86,1244.13,1720.57,1248.16Z" transform="translate(-1666.67 -1203.383)" fill="#0caba7"/>
        <path id="Path_9055" data-name="Path 9055" d="M1748.06,1208.77c.609,1.907,2.638,7.341,5.451,5.25a6.94,6.94,0,0,1,1.193-2.782c.891-1.531,1.951-3.094,1.951-3.094l-4.583-4.016-.274-.24a11.675,11.675,0,0,1-3.41,3.871A.916.916,0,0,0,1748.06,1208.77Z" transform="translate(-1689.655 -1186.098)" fill="#914f4e"/>
        <path id="Path_9056" data-name="Path 9056" d="M1763.77,1208.57s-1.06,1.561-1.95,3.093c-2.849-1.756-2.852-5.284-2.632-7.111Z" transform="translate(-1696.772 -1186.528)" fill="#914f4e"/>
        <path id="Path_9057" data-name="Path 9057" d="M1763.56,1195.9s-6.918-3.849-4.454-8.12,3.23-7.644,7.751-5.367,4.431,4.4,3.956,6.023S1765.42,1196.79,1763.56,1195.9Z" transform="translate(-1696.431 -1171.844)" fill="#914f4e"/>
        <path id="Path_9058" data-name="Path 9058" d="M1770.68,1184.91c-.317-1.9-1.28-2.078-1.952-1.951a5.533,5.533,0,0,0-6.728-2.576,9.417,9.417,0,0,1-5.453,3.274s.8,1.494,4.11,2.419a5.658,5.658,0,0,0,3.263-.26,18.489,18.489,0,0,1-4.695,1.769c4.359.4,8.505-3.586,8.936-4.012a6.2,6.2,0,0,1,.343,2.856c-.287,1.284-1.427,3.611-.731,3.911C1767.77,1190.34,1771.15,1187.75,1770.68,1184.91Z" transform="translate(-1695.127 -1170.807)" fill="#151f2c"/>
        <g id="Group_4400" data-name="Group 4400" transform="translate(60.784 52.738)">
          <rect id="Rectangle_456" data-name="Rectangle 456" width="57.424" height="15.06" transform="translate(32.072 16.2) rotate(25.99)" fill="#0fc2bf"/>
          <g id="Group_4398" data-name="Group 4398">
            <path id="Path_9059" data-name="Path 9059" d="M1764.1,1334.06a17.067,17.067,0,0,1-9.237-11.743,3.878,3.878,0,0,1,7.576-1.665,9.394,9.394,0,1,0,6.519-11.017,3.878,3.878,0,0,1-2.2-7.438,17.149,17.149,0,1,1-2.661,31.863Z" transform="translate(-1754.775 -1301.497)" fill="#0fc2bf"/>
          </g>
          <g id="Group_4399" data-name="Group 4399" transform="translate(72.716 35.603)">
            <path id="Path_9060" data-name="Path 9060" d="M1967.48,1433.49a17.15,17.15,0,1,1,23.463-21.722,3.878,3.878,0,0,1-7.213,2.85,9.393,9.393,0,1,0-4.664,11.922,3.878,3.878,0,0,1,3.354,6.994,17.067,17.067,0,0,1-14.94-.044Z" transform="translate(-1957.847 -1400.926)" fill="#0fc2bf"/>
          </g>
          <path id="Rectangle_457" data-name="Rectangle 457" d="M2.366,0h0A2.366,2.366,0,0,1,4.732,2.366V31.04a2.366,2.366,0,0,1-2.366,2.366h0A2.366,2.366,0,0,1,0,31.04V2.366A2.366,2.366,0,0,1,2.366,0Z" transform="translate(36.502 28.955) rotate(-64.01)" fill="#0caba7"/>
        </g>
        <path id="Path_9061" data-name="Path 9061" d="M1755.81,1353.41a4.579,4.579,0,0,0,.694,1.955c.545.666,2.13,2.276,2.158,3.219,0,0-.08.419-.42.342s-1.52-1.245-2.126-1.162a11.747,11.747,0,0,0,.644,2.422,6.638,6.638,0,0,1,.718,3c-.192.459-3.4-2.214-4.371-3.52s-.015-6.607-.015-6.607Z" transform="translate(-1692.639 -1281.857)" fill="#914f4e"/>
        <path id="Path_9062" data-name="Path 9062" d="M1725.67,1225.76s-8.1-.442-9.538,4.642,2.7,25.38,3.592,27.475c1.624,3.813,9.529,14.7,9.529,14.7l2.907-.885s-5.271-16.628-6.448-18.273C1723.87,1250.84,1728.1,1227.97,1725.67,1225.76Z" transform="translate(-1668.994 -1200.138)" fill="#914f4e"/>
        <path id="Path_9063" data-name="Path 9063" d="M1712.21,1234.51c.021.119,7.664,1.406,12.444-1.02,0,0,3.994-12.51-1.713-11.912s-9.086,2.4-9.23,5.128a52.6,52.6,0,0,1-1.5,7.8Z" transform="translate(-1666.67 -1197.445)" fill="#0fc2bf"/>
        <path id="Path_9064" data-name="Path 9064" d="M1803.36,1298.42a3.174,3.174,0,0,0-1.342.339c-.442.341-.938.933.052,1.426,1.484.739,4.452.411,4.336-.034C1806.05,1298.74,1805.51,1298.32,1803.36,1298.42Z" transform="translate(-1723.984 -1246.773)" fill="#914f4e"/>
      </g>
      <g id="Group_4404" data-name="Group 4404" transform="translate(1698.793 434.915)">
        <path id="Path_9065" data-name="Path 9065" d="M2069.64,719.974a1.385,1.385,0,0,0-.247,1.482.01.01,0,0,0,0,.007,9.2,9.2,0,0,0,2.91,3.192c.175.142.331.27.467.39.035.031.071.063.1.094l.081.073c1.279,1.179.8,1.449,3.1,3.841,2.62,2.726,4.424,2.775,4.937,2.527.434-.212-.448-1.657-1.425-3.282-.048-.078-.094-.157-.143-.237-.13-.216-.26-.435-.389-.652-1.146-1.955-.851-2.874-.58-5.784.221-2.365,3.679-13.213,3.679-13.213l-5.021-.865s-1.512,8.638-3.178,9.969c-.89.709-1.887.718-2.744,1.244q-.091.055-.178.112a6.582,6.582,0,0,0-1.369,1.1Z" transform="translate(-2036.147 -609.922)" fill="#914f4e"/>
        <path id="Path_9066" data-name="Path 9066" d="M2069.64,740.075a1.385,1.385,0,0,0-.247,1.482.01.01,0,0,0,0,.007,10.662,10.662,0,0,0,2.915,3.182c.173.144.326.276.462.4.035.031.071.063.1.094l.081.073c1.279,1.179.8,1.449,3.1,3.842,2.62,2.726,4.424,2.775,4.937,2.527.434-.212-.448-1.657-1.425-3.282a11.162,11.162,0,0,1-4.671-3.441c-1.578-2.013-2.63-4.6-3.7-6.1-.061.036-.12.074-.178.112a6.574,6.574,0,0,0-1.374,1.1Z" transform="translate(-2036.147 -630.024)" fill="#151f2c"/>
        <path id="Path_9067" data-name="Path 9067" d="M2176.14,714.1c.31,1.55,2.519,1.291,4.988.688s1.882.113,5.4-.275,4.576-1.7,4.684-2.221c.1-.463-1.64-.627-3.5-.841-.234-.026-.47-.056-.7-.085-2.1-.263-3.641-1.62-5.55-2.734-1.809-1.055-4.507-5.354-4.507-5.354l-4.818.382s2.528,3.839,3.506,5.509a5.825,5.825,0,0,1,.473,3.283,6.179,6.179,0,0,0,.029,1.648Z" transform="translate(-2102.166 -607.183)" fill="#914f4e"/>
        <path id="Path_9068" data-name="Path 9068" d="M2188.2,729.438c2.468-.6,1.882.114,5.394-.275s4.577-1.7,4.685-2.221c.1-.463-1.64-.627-3.5-.841l-.017.035a9.9,9.9,0,0,1-5.031,1.564c-2.384.058-4.907-.625-6.553-.6a6.179,6.179,0,0,0,.037,1.648C2183.52,730.3,2185.73,730.041,2188.2,729.438Z" transform="translate(-2109.232 -621.834)" fill="#151f2c"/>
        <path id="Path_9069" data-name="Path 9069" d="M2102.16,633.631l-4.5,12.118-5.88,15.823a9.524,9.524,0,0,1-3.123-.285,13.552,13.552,0,0,1-3.021-1.471s1.633-16.989,4.678-26.741a17.352,17.352,0,0,1,2.62-5.668C2097.65,621.827,2102.16,633.631,2102.16,633.631Z" transform="translate(-2046.641 -557.518)" fill="#151f2c"/>
        <path id="Path_9070" data-name="Path 9070" d="M2040.91,589.39c-2.95-.952-11.365.27-19.818,1.925l-1.77-2.919-18.258-1.426s-6.025,13.361-2.727,21.874a3.087,3.087,0,0,0,3.091,2.08h.266s10.867-.006,14.4-.006c9.08,0,19.216-6.242,20.528-6.5,2.146-.429,3,3.863,5.151,8.37s20.175,19.96,20.175,19.96a15.862,15.862,0,0,0,3.916-.4,3.858,3.858,0,0,0,1.681-1.061S2047.56,591.536,2040.91,589.39Z" transform="translate(-1989.973 -532.523)" fill="#384152"/>
        <path id="Path_9071" data-name="Path 9071" d="M2000.05,435.207c-2.559-.659-6.06,0-6.641.054-6.947.684-9.281,8.434-8.23,14.446.97,5.549-1.844,7.084-5.106,11.466-6.54,8.788-2.266,16.2,2.9,18.107,3.1,1.146,7.4-1.745,7.4-1.745.078.031,13.508-8.8,19.013-13.776C2018.54,460.173,2006.57,436.884,2000.05,435.207Z" transform="translate(-1976.749 -434.915)" fill="#151f2c"/>
        <path id="Path_9072" data-name="Path 9072" d="M2027.89,491.415c.182.643-2.856,1.825-5.176,1.39-2.182-.407-4.628-2.962-4.124-3.2.836-.4,1.4-1.384.94-6.72l.415.047,6.982.8s.021,2.175.183,4.212a13.781,13.781,0,0,0,.78,3.471Z" transform="translate(-2003.564 -465.707)" fill="#914f4e"/>
        <path id="Path_9073" data-name="Path 9073" d="M2029.48,483.813s.021,2.175.183,4.212c-3.853.207-6.173-3.134-7.165-5.009Z" transform="translate(-2006.114 -465.792)" fill="#914f4e"/>
        <path id="Path_9074" data-name="Path 9074" d="M2027.95,463.213s-9.084.9-9.555-4.77-1.961-9.366,3.82-10.177,7.088,1.257,7.7,3.11S2030.3,462.834,2027.95,463.213Z" transform="translate(-2003.147 -443.369)" fill="#914f4e"/>
        <path id="Path_9075" data-name="Path 9075" d="M2022.15,444.485s-1.144,6.921-6.317,8.564c-3.774,1.2-5.484.408-5.484.408a15.381,15.381,0,0,0,2.463-5.759,2.769,2.769,0,0,1,1.848-2.114C2017.34,444.7,2020.59,442.29,2022.15,444.485Z" transform="translate(-1998.315 -440.483)" fill="#151f2c"/>
        <path id="Path_9076" data-name="Path 9076" d="M2038.52,447.372a6.01,6.01,0,0,1,3.229,2.59,11.592,11.592,0,0,1,1.625,5.6s1.59-6.406-.728-8.789C2040.19,444.244,2038.52,447.372,2038.52,447.372Z" transform="translate(-2016.402 -441.893)" fill="#151f2c"/>
        <path id="Path_9077" data-name="Path 9077" d="M1997.5,521.172q.243,1.032.413,1.9c.185.942.312,1.755.4,2.471.277,2.234.194,3.558.382,5.007a12.479,12.479,0,0,0,.679,2.726c.376,1.038,10.247,1.963,15.864,1.59a7.7,7.7,0,0,0,3.624-.784c2-1.74,1.8,2.087,2.079-16.225.133-8.932-7.579-16.887-7.579-16.887s-.616,3.816-8.264-.726c-.272-.159-3.284,4.3-6.183,9.794C1995.72,516.111,1996.6,517.394,1997.5,521.172Z" transform="translate(-1989.535 -476.852)" fill="#0fc2bf"/>
        <path id="Path_9078" data-name="Path 9078" d="M2097.65,658.595l-5.88,15.823a9.523,9.523,0,0,1-3.123-.285,13.56,13.56,0,0,1-3.021-1.471s1.633-16.989,4.678-26.741Z" transform="translate(-2046.641 -570.364)" fill="#384152"/>
        <path id="Path_9079" data-name="Path 9079" d="M2043.3,502.28s7.87,1.334,8.794,4.723,7.309,22.338,7.309,22.338-4.947,1.688-6.8-.16-6.431-17.147-6.431-17.147Z" transform="translate(-2019.471 -478.158)" fill="#0fc2bf"/>
        <path id="Path_9080" data-name="Path 9080" d="M2040.17,480.669a1.562,1.562,0,0,0,1.386.931c1.006,0,1.278-.15,1.468-.363a3.151,3.151,0,0,0,.379-.623,8.539,8.539,0,0,0-3.233.055Z" transform="translate(-2017.457 -464.166)" fill="#fff"/>
        <path id="Path_9081" data-name="Path 9081" d="M2001.27,569.992c.277,2.234.194,3.558.382,5.007,7.146.023,16.7-5.518,16.7-5.518Z" transform="translate(-1992.492 -521.295)" fill="#0caba7"/>
        <path id="Path_9082" data-name="Path 9082" d="M2017.82,539.991s-11.132-.332-13.008-6.659c-2.062-6.951-4.37,2.859-4.37,2.859l1.229,6.261h12.213Z" transform="translate(-1991.959 -496.493)" fill="#0caba7"/>
        <g id="Group_4403" data-name="Group 4403" transform="translate(29.652 22.196)">
          <path id="Path_9083" data-name="Path 9083" d="M2075.18,501.036l-.6-1.49a4.225,4.225,0,0,0-3.918-2.643h-11.1V534h45.905V503.945H2079.49a4.649,4.649,0,0,1-4.31-2.909Z" transform="translate(-2059.558 -496.903)" fill="#b8c0c7"/>
          <g id="Group_4402" data-name="Group 4402" transform="translate(6.924 12.581)">
            <path id="Path_9084" data-name="Path 9084" d="M2078.9,547.753v-2.675l9.38-4.109V543.7l-6.551,2.694,6.551,2.694v2.771Z" transform="translate(-2078.896 -537.771)" fill="#fff"/>
            <path id="Path_9085" data-name="Path 9085" d="M2116.93,532.038h2.5l-8.586,17.948h-2.5Z" transform="translate(-2097.797 -532.038)" fill="#fff"/>
            <path id="Path_9086" data-name="Path 9086" d="M2151.6,545.078v2.675l-9.38,4.109v-2.733l6.551-2.694-6.551-2.694v-2.772Z" transform="translate(-2119.547 -537.771)" fill="#fff"/>
          </g>
        </g>
        <path id="Path_9087" data-name="Path 9087" d="M2048.97,553.578l.806-1.264a6.468,6.468,0,0,0,1.531-.835c1.063-.747.923-1.865,1.454-1.747l.007,2.458-.058.008c2.281.609,4.949-.053,5,.515.147,1.563-1.062,2.266-2.074,2.755a3.672,3.672,0,0,1-3.056.5c-1.024-.318-2.634-.642-2.634-.642Z" transform="translate(-2023.11 -508.613)" fill="#914f4e"/>
        <path id="Path_9088" data-name="Path 9088" d="M1998.06,500.261s-7.226.473-9.033,3.291-4.047,17.127-3.107,22.041,24.08-.94,24.08-.94l-.738-4.264s-13.355.077-14.116-1.662C1994.13,516.415,1998.06,500.261,1998.06,500.261Z" transform="translate(-1982.493 -476.862)" fill="#0fc2bf"/>
        <path id="Path_9089" data-name="Path 9089" d="M2117.63,514.044a2.69,2.69,0,0,0,2.728,1.751c1.023-.205,2.353-2.408,1.184-2.893a3.324,3.324,0,0,0-3.912,1.142Z" transform="translate(-2067.18 -484.822)" fill="#914f4e"/>
      </g>
      <g id="Group_4410" data-name="Group 4410" transform="translate(1804.532 513.085)">
        <g id="Group_4405" data-name="Group 4405" transform="translate(15.113 0.032)">
          <rect id="Rectangle_458" data-name="Rectangle 458" width="56.991" height="0.275" transform="matrix(0.471, -0.882, 0.882, 0.471, 0, 50.277)" fill="#151f2c"/>
        </g>
        <g id="Group_4406" data-name="Group 4406" transform="translate(110.062)">
          <rect id="Rectangle_459" data-name="Rectangle 459" width="0.275" height="44.379" transform="matrix(0.733, -0.68, 0.68, 0.733, 0, 0.187)" fill="#151f2c"/>
        </g>
        <g id="Group_4409" data-name="Group 4409" transform="translate(0 31.773)">
          <path id="Path_9090" data-name="Path 9090" d="M2431.13,752.32a12.069,12.069,0,0,1-2.251,8.84,11.51,11.51,0,0,1-7.7,4.6L2286.3,784.3c-6.884.946-13.249-3.615-14.145-10.134a11.614,11.614,0,0,1,2.527-8.877,12.947,12.947,0,0,1,8.361-4.7l134.88-18.533a11.862,11.862,0,0,1,13.206,10.264Z" transform="translate(-2272.045 -741.952)" fill="#e9e9e9"/>
          <path id="Path_9091" data-name="Path 9091" d="M2648.88,752.32a12.071,12.071,0,0,1-2.251,8.84,11.51,11.51,0,0,1-7.7,4.6l-24.407,3.354-3.258-23.707,24.407-3.354a11.862,11.862,0,0,1,13.209,10.267Z" transform="translate(-2489.797 -741.952)" fill="#0fc2bf"/>
          <g id="Group_4408" data-name="Group 4408" transform="translate(131.103 4.664)">
            <g id="Group_4407" data-name="Group 4407" transform="translate(6.184)">
              <path id="Path_9092" data-name="Path 9092" d="M2662.38,767.114a6.173,6.173,0,0,1-.913.057,6.1,6.1,0,0,1-4.191-10.459h0a6.1,6.1,0,1,1,5.1,10.4Zm-4.4-9.684a5.094,5.094,0,1,0,7.2.083A5.094,5.094,0,0,0,2657.98,757.43Z" transform="translate(-2655.442 -754.978)" fill="#fff"/>
            </g>
            <rect id="Rectangle_460" data-name="Rectangle 460" width="1.004" height="8.322" transform="matrix(0.699, 0.715, -0.715, 0.699, 7.925, 9.647)" fill="#fff"/>
            <path id="Path_9093" data-name="Path 9093" d="M2638.43,795.937h0a.9.9,0,0,1,.015-1.268l3.5-3.425a.9.9,0,0,1,1.268.015h0a.9.9,0,0,1-.014,1.268l-3.506,3.425a.9.9,0,0,1-1.268-.015Z" transform="translate(-2638.173 -778.094)" fill="#fff"/>
          </g>
        </g>
      </g>
      <g id="Group_4413" data-name="Group 4413" transform="translate(1707.867 681.472)">
        <rect id="Rectangle_461" data-name="Rectangle 461" width="30.304" height="2.571" rx="1.286" fill="#0fc2bf"/>
        <g id="Group_4412" data-name="Group 4412" transform="translate(0 5.978)">
          <path id="Path_9094" data-name="Path 9094" d="M2016.87,1152.2h-13.9a.877.877,0,0,1-.877-.878h0a.877.877,0,0,1,.877-.877h13.9a.877.877,0,0,1,.877.877h0a.878.878,0,0,1-.877.878Z" transform="translate(-2002.09 -1146.762)" fill="#151f2c"/>
          <g id="Group_4411" data-name="Group 4411">
            <rect id="Rectangle_462" data-name="Rectangle 462" width="26.245" height="1.754" rx="0.877" fill="#151f2c"/>
            <rect id="Rectangle_463" data-name="Rectangle 463" width="24.507" height="1.754" rx="0.877" transform="translate(28.637)" fill="#151f2c"/>
            <path id="Path_9095" data-name="Path 9095" d="M2065.3,1152.2h-13.9a.877.877,0,0,1-.877-.878h0a.877.877,0,0,1,.877-.877h13.9a.877.877,0,0,1,.877.877h0a.877.877,0,0,1-.877.878Z" transform="translate(-2033.18 -1146.762)" fill="#151f2c"/>
          </g>
        </g>
        <path id="Rectangle_464" data-name="Rectangle 464" d="M1.286,0H29.018A1.285,1.285,0,0,1,30.3,1.285h0a1.286,1.286,0,0,1-1.286,1.286H1.286A1.286,1.286,0,0,1,0,1.286H0A1.286,1.286,0,0,1,1.286,0Z" transform="translate(34.314)" fill="#0fc2bf"/>
      </g>
      <g id="Group_4416" data-name="Group 4416" transform="translate(1707.867 700.83)">
        <path id="Rectangle_465" data-name="Rectangle 465" d="M1.285,0H29.018A1.285,1.285,0,0,1,30.3,1.285h0A1.285,1.285,0,0,1,29.015,2.57H1.285A1.285,1.285,0,0,1,0,1.286H0A1.285,1.285,0,0,1,1.285,0Z" fill="#0fc2bf"/>
        <g id="Group_4415" data-name="Group 4415" transform="translate(0 5.977)">
          <path id="Path_9096" data-name="Path 9096" d="M2016.87,1206.26h-13.9a.878.878,0,0,1-.877-.878h0a.877.877,0,0,1,.877-.877h13.9a.877.877,0,0,1,.877.877h0a.878.878,0,0,1-.877.878Z" transform="translate(-2002.09 -1200.823)" fill="#151f2c"/>
          <g id="Group_4414" data-name="Group 4414">
            <rect id="Rectangle_466" data-name="Rectangle 466" width="26.245" height="1.755" rx="0.877" fill="#151f2c"/>
            <path id="Rectangle_467" data-name="Rectangle 467" d="M.877,0H23.63a.877.877,0,0,1,.877.877h0a.877.877,0,0,1-.877.877H.877A.877.877,0,0,1,0,.877H0A.877.877,0,0,1,.877,0Z" transform="translate(28.637)" fill="#151f2c"/>
            <path id="Path_9097" data-name="Path 9097" d="M2065.3,1206.26h-13.9a.877.877,0,0,1-.877-.878h0a.877.877,0,0,1,.877-.877h13.9a.877.877,0,0,1,.877.877h0a.878.878,0,0,1-.877.878Z" transform="translate(-2033.18 -1200.823)" fill="#151f2c"/>
          </g>
        </g>
        <path id="Rectangle_468" data-name="Rectangle 468" d="M1.285,0H29.018A1.285,1.285,0,0,1,30.3,1.285h0a1.286,1.286,0,0,1-1.286,1.286H1.285A1.285,1.285,0,0,1,0,1.286H0A1.285,1.285,0,0,1,1.285,0Z" transform="translate(34.314)" fill="#0fc2bf"/>
      </g>
      <g id="Group_4417" data-name="Group 4417" transform="translate(1853.452 570.969)">
        <path id="Path_9098" data-name="Path 9098" d="M2438.79,829.648l-16.094,3.745-7.958,14.481-6.076-33Z" transform="translate(-2408.664 -814.872)" fill="#384152"/>
        <rect id="Rectangle_469" data-name="Rectangle 469" width="2.942" height="17.021" transform="translate(10.811 17.119) rotate(-37.156)" fill="#384152"/>
      </g>
      <g id="Group_4419" data-name="Group 4419" transform="translate(1830.57 608.588)">
        <rect id="Rectangle_470" data-name="Rectangle 470" width="45.374" height="45.374" rx="8.099" fill="#e9e9e9"/>
        <g id="Group_4418" data-name="Group 4418" transform="translate(5.429 9.091)">
          <path id="Path_9099" data-name="Path 9099" d="M2360.29,988.969l8.817-15.9a2.9,2.9,0,0,1,4.875-.308l5.086,6.936a2.9,2.9,0,0,0,4.479.243h0a2.9,2.9,0,0,1,4.574.381l5.488,8.473a2.9,2.9,0,0,1-2.434,4.477h-28.347a2.9,2.9,0,0,1-2.538-4.3Z" transform="translate(-2359.924 -962.176)" fill="#0caba7"/>
          <path id="Path_9100" data-name="Path 9100" d="M2409.55,948.786a3.468,3.468,0,1,1,3.468,3.468,3.468,3.468,0,0,1-3.468-3.468Z" transform="translate(-2391.777 -945.318)" fill="#0caba7"/>
        </g>
      </g>
      <g id="Group_4421" data-name="Group 4421" transform="translate(1883.24 610.2)">
        <path id="Path_9101" data-name="Path 9101" d="M2539.71,969.416l-39.211,5.349a2.9,2.9,0,0,1-3.266-2.482l-5.349-39.211a2.9,2.9,0,0,1,2.481-3.266l39.211-5.348a2.9,2.9,0,0,1,3.265,2.481l5.349,39.211A2.9,2.9,0,0,1,2539.71,969.416Z" transform="translate(-2491.854 -924.431)" fill="#e9e9e9"/>
        <g id="Group_4420" data-name="Group 4420" transform="translate(10.027 11.139)">
          <path id="Path_9102" data-name="Path 9102" d="M2520.06,1003.96l6.588-16.941a2.9,2.9,0,0,1,4.789-.964l5.976,6.186a2.9,2.9,0,0,0,4.47-.365h0a2.9,2.9,0,0,1,4.583-.241l6.583,7.654a2.9,2.9,0,0,1-1.806,4.765l-28.088,3.832a2.9,2.9,0,0,1-3.1-3.926Z" transform="translate(-2519.857 -974.556)" fill="#0caba7"/>
          <path id="Path_9103" data-name="Path 9103" d="M2559.7,959.475a3.468,3.468,0,1,1,3.905,2.968A3.468,3.468,0,0,1,2559.7,959.475Z" transform="translate(-2545.416 -955.538)" fill="#0caba7"/>
        </g>
      </g>
      <g id="Group_4422" data-name="Group 4422" transform="translate(1792.008 794.521)">
        <rect id="Rectangle_471" data-name="Rectangle 471" width="22.867" height="19.606" transform="translate(0.923 0.839)" fill="#0fc2bf"/>
        <rect id="Rectangle_472" data-name="Rectangle 472" width="24.564" height="1.515" fill="#015a58"/>
        <path id="Path_9166" data-name="Path 9166" d="M0,0H22.867V6.228H0Z" transform="translate(0.923 6.144)" fill="#015a58"/>
      </g>
      <path id="Path_9104" data-name="Path 9104" d="M2339.93,1486.89h-21.59a1.431,1.431,0,0,1-1.432-1.431v-2.395a1.43,1.43,0,0,1,1.589-1.423l21.593,2.4a1.432,1.432,0,0,1,1.273,1.423h0a1.432,1.432,0,0,1-1.434,1.431Z" transform="translate(-496.312 -671.913)" fill="#0fc2bf"/>
      <path id="Path_9105" data-name="Path 9105" d="M2145.63,1498.06l-601.15-.207a.735.735,0,0,1-.733-.733v-.375a.735.735,0,0,1,.733-.733l601.15.208a.735.735,0,0,1,.733.733v.375A.735.735,0,0,1,2145.63,1498.06Z" transform="translate(0 -681.142)" fill="#0fc2bf" opacity="0.1"/>
      <g id="Group_4423" data-name="Group 4423" transform="translate(1715.07 600.106)">
        <path id="Path_9106" data-name="Path 9106" d="M2113.04,951.881h-2.488a.409.409,0,0,1,0-.818h2.471a.417.417,0,0,1,.417.409.4.4,0,0,1-.4.409Zm-4.959,0h-2.472a.409.409,0,0,1,0-.818h2.472a.409.409,0,0,1,0,.818Zm-4.943,0h-2.472a.409.409,0,0,1,0-.818h2.472a.409.409,0,0,1,0,.818Zm-4.943,0h-2.471a.409.409,0,0,1,0-.818h2.471a.409.409,0,0,1,0,.818Zm-4.943,0h-2.472a.409.409,0,0,1,0-.818h2.472a.409.409,0,0,1,0,.818Zm-4.943,0h-2.471a.409.409,0,0,1,0-.818h2.471a.409.409,0,0,1,0,.818Zm-4.943,0h-2.471a.409.409,0,0,1,0-.818h2.471a.409.409,0,0,1,0,.818Zm-4.943,0h-2.471a.409.409,0,0,1,0-.818h2.471a.409.409,0,0,1,0,.818Zm-4.943,0h-2.471a.409.409,0,0,1,0-.818h2.471a.409.409,0,0,1,0,.818Zm-4.942,0h-2.471a.409.409,0,0,1,0-.818h2.471a.409.409,0,0,1,0,.818Zm-4.943,0h-2.471a.409.409,0,0,1,0-.818h2.471a.409.409,0,1,1,0,.818Zm-4.943,0h-2.471a.409.409,0,0,1,0-.818h2.471a.409.409,0,0,1,0,.818Zm-4.943,0h-2.472a.409.409,0,0,1,0-.818h2.472a.409.409,0,0,1,0,.818Zm-4.943,0h-2.472a.409.409,0,1,1,0-.818h2.472a.409.409,0,0,1,0,.818Zm-4.943,0h-2.472a.409.409,0,1,1,0-.818h2.472a.409.409,0,1,1,0,.818Zm-4.943,0h-2.471a.409.409,0,1,1,0-.818h2.471a.409.409,0,1,1,0,.818Zm-4.943,0h-2.472a.409.409,0,1,1,0-.818h2.472a.409.409,0,1,1,0,.818Zm-4.943,0h-2.2c-.1,0-.2,0-.294-.009a.409.409,0,0,1,.052-.816c.08,0,.161.007.242.007h2.2a.409.409,0,1,1,0,.818Zm86.372-.719a.409.409,0,0,1-.23-.747,3.763,3.763,0,0,0,1.38-1.71.409.409,0,1,1,.759.306,4.576,4.576,0,0,1-1.679,2.08.406.406,0,0,1-.235.07Zm-91.122-.148a.407.407,0,0,1-.25-.085,4.57,4.57,0,0,1-1.551-2.177.409.409,0,0,1,.776-.259,3.757,3.757,0,0,0,1.275,1.789.409.409,0,0,1-.25.733Zm92.953-4.179a.41.41,0,0,1-.41-.409v-2.471a.409.409,0,0,1,.818,0v2.471a.409.409,0,0,1-.4.408Zm-94.58-.251a.409.409,0,0,1-.409-.409V943.7a.409.409,0,0,1,.818,0v2.471a.409.409,0,0,1-.415.412Zm94.58-4.692a.41.41,0,0,1-.41-.409v-2.471a.409.409,0,0,1,.818,0v2.471a.409.409,0,0,1-.4.408Zm-94.58-.251a.409.409,0,0,1-.409-.409v-2.471a.409.409,0,0,1,.818,0v2.471a.409.409,0,0,1-.415.408Zm94.58-4.692a.409.409,0,0,1-.41-.409v-2.471a.409.409,0,0,1,.818,0v2.471a.409.409,0,0,1-.4.408Zm-94.58-.251a.409.409,0,0,1-.409-.409v-2.471a.409.409,0,0,1,.818,0v2.471a.409.409,0,0,1-.415.411Zm94.58-4.691a.41.41,0,0,1-.41-.409v-2.471a.409.409,0,0,1,.818,0V931.6a.409.409,0,0,1-.4.406Zm-94.58-.252a.409.409,0,0,1-.409-.409v-2.471a.409.409,0,0,1,.818,0v2.471a.409.409,0,0,1-.415.408Zm94.58-4.691a.41.41,0,0,1-.41-.409v-2.471a.409.409,0,0,1,.818,0v2.471a.409.409,0,0,1-.4.408Zm-94.58-.251a.409.409,0,0,1-.409-.409v-2.471a.409.409,0,0,1,.818,0V926.4a.409.409,0,0,1-.415.412Zm94.58-4.691a.41.41,0,0,1-.41-.409v-2.471a.409.409,0,0,1,.818,0v2.471a.409.409,0,0,1-.4.407Zm-94.58-.252a.409.409,0,0,1-.409-.409V918.99a.409.409,0,0,1,.818,0v2.471a.409.409,0,0,1-.415.408Zm94.58-4.691a.41.41,0,0,1-.41-.409V914.3a.409.409,0,0,1,.818,0v2.471a.409.409,0,0,1-.4.406Zm-94.58-.251a.409.409,0,0,1-.409-.409v-2.471a.409.409,0,0,1,.818,0v2.471a.409.409,0,0,1-.415.407Zm94.58-4.692a.41.41,0,0,1-.41-.409v-2.472a.409.409,0,0,1,.818,0v2.472a.408.408,0,0,1-.4.407Zm-94.58-.251a.409.409,0,0,1-.409-.409V909.1a.409.409,0,0,1,.818,0v2.471a.409.409,0,0,1-.415.412Zm94.58-4.691a.41.41,0,0,1-.41-.409v-2.471a.409.409,0,0,1,.818,0v2.471a.409.409,0,0,1-.4.406Zm-94.58-.251a.409.409,0,0,1-.409-.409v-2.471a.409.409,0,0,1,.818,0v2.471a.409.409,0,0,1-.415.406Zm94.58-4.692a.41.41,0,0,1-.41-.409v-1.116a3.765,3.765,0,0,0-.2-1.2.409.409,0,0,1,.775-.261,4.585,4.585,0,0,1,.238,1.462v1.116a.409.409,0,0,1-.4.4Zm-94.58-.251a.409.409,0,0,1-.409-.409v-.864a4.562,4.562,0,0,1,.335-1.721.409.409,0,0,1,.758.308,3.736,3.736,0,0,0-.275,1.414v.864a.409.409,0,0,1-.415.408Zm92.945-4.177a.408.408,0,0,1-.249-.085,3.743,3.743,0,0,0-2.056-.77.409.409,0,0,1,.051-.816,4.554,4.554,0,0,1,2.5.937.409.409,0,0,1-.25.734Zm-91.107-.147a.409.409,0,0,1-.23-.748,4.56,4.56,0,0,1,2.556-.785h0a.409.409,0,1,1,0,.818,3.746,3.746,0,0,0-2.1.644.407.407,0,0,1-.23.069Zm86.356-.714h-2.471a.409.409,0,0,1,0-.818h2.471a.409.409,0,0,1,0,.818Zm-4.943,0H2103.4a.409.409,0,0,1,0-.818h2.471a.409.409,0,0,1,0,.818Zm-4.942,0h-2.472a.409.409,0,0,1,0-.818h2.472a.409.409,0,0,1,0,.818Zm-4.943,0h-2.472a.409.409,0,0,1,0-.818h2.472a.409.409,0,1,1,0,.818Zm-4.943,0h-2.472a.409.409,0,0,1,0-.818h2.472a.409.409,0,0,1,0,.818Zm-4.943,0h-2.472a.409.409,0,0,1,0-.818h2.472a.409.409,0,0,1,0,.818Zm-4.943,0h-2.471a.409.409,0,0,1,0-.818h2.471a.409.409,0,0,1,0,.818Zm-4.943,0h-2.472a.409.409,0,0,1,0-.818h2.472a.409.409,0,0,1,0,.818Zm-4.943,0H2068.8a.409.409,0,0,1,0-.818h2.471a.409.409,0,0,1,0,.818Zm-4.943,0h-2.471a.409.409,0,0,1,0-.818h2.471a.409.409,0,1,1,0,.818Zm-4.943,0h-2.471a.409.409,0,0,1,0-.818h2.471a.409.409,0,0,1,0,.818Zm-4.943,0h-2.471a.409.409,0,0,1,0-.818h2.471a.409.409,0,0,1,0,.818Zm-4.943,0h-2.471a.409.409,0,0,1,0-.818h2.471a.409.409,0,0,1,0,.818Zm-4.943,0h-2.471a.409.409,0,1,1,0-.818h2.471a.409.409,0,1,1,0,.818Zm-4.943,0h-2.471a.409.409,0,1,1,0-.818h2.471a.409.409,0,1,1,0,.818Zm-4.943,0h-2.471a.409.409,0,1,1,0-.818h2.471a.409.409,0,1,1,0,.818Zm-4.943,0h-2.471a.409.409,0,1,1,0-.818h2.471a.409.409,0,1,1,0,.818Z" transform="translate(-2022.206 -896.241)" fill="#151f2c"/>
      </g>
      <g id="Group_4424" data-name="Group 4424" transform="translate(1903.057 709.839)">
        <path id="Path_9107" data-name="Path 9107" d="M2590.53,1217.19h-2.206a.363.363,0,0,1,0-.725h2.189a.37.37,0,0,1,.371.362.356.356,0,0,1-.354.363Zm-4.4,0h-2.19a.363.363,0,0,1,0-.725h2.19a.362.362,0,1,1,0,.725Zm-4.379,0h-2.189a.363.363,0,1,1,0-.725h2.189a.362.362,0,1,1,0,.725Zm-4.379,0h-2.189a.363.363,0,1,1,0-.725h2.189a.362.362,0,1,1,0,.725Zm-4.379,0H2570.8a.363.363,0,1,1,0-.725h2.2a.362.362,0,1,1,0,.725Zm-4.379,0h-2.189a.363.363,0,0,1,0-.725h2.189a.362.362,0,0,1,0,.725Zm-4.378,0h-2.189a.363.363,0,1,1,0-.725h2.189a.362.362,0,1,1,0,.725Zm-4.378,0h-2.19a.363.363,0,1,1,0-.725h2.19a.362.362,0,1,1,0,.725Zm-4.379,0h-2.19a.363.363,0,0,1,0-.725h2.19a.362.362,0,1,1,0,.725Zm-4.379,0h-2.207a.362.362,0,1,1,.036-.724h2.171a.362.362,0,0,1,0,.725Zm40.841-1.387h-.012a.363.363,0,0,1-.35-.374v-2.178a.363.363,0,1,1,.725,0v2.2a.362.362,0,0,1-.355.349Zm-44.388-.059a.362.362,0,0,1-.362-.362v-2.189a.363.363,0,0,1,.725,0v2.189a.362.362,0,0,1-.357.358Zm44.388-4.32a.362.362,0,0,1-.362-.362v-2.189a.363.363,0,0,1,.725,0v2.189a.362.362,0,0,1-.355.358Zm-44.388-.058a.362.362,0,0,1-.362-.362v-2.19a.363.363,0,0,1,.725,0V1211a.362.362,0,0,1-.357.36Zm44.388-4.321a.362.362,0,0,1-.362-.362v-2.189a.363.363,0,1,1,.725,0v2.189a.362.362,0,0,1-.355.357Zm-44.388-.058a.362.362,0,0,1-.362-.363v-2.2a.357.357,0,0,1,.377-.347.363.363,0,0,1,.348.377v2.174a.363.363,0,0,1-.357.356Zm43.023-3.567h-2.19a.362.362,0,1,1,0-.725h2.205a.362.362,0,0,1-.016.724Zm-4.379,0h-2.189a.362.362,0,1,1,0-.725h2.189a.362.362,0,0,1,0,.725Zm-4.379,0h-2.189a.362.362,0,1,1,0-.725h2.189a.362.362,0,0,1,0,.725Zm-4.378,0h-2.19a.362.362,0,1,1,0-.725h2.19a.362.362,0,1,1,0,.725Zm-4.379,0h-2.189a.362.362,0,1,1,0-.725h2.189a.362.362,0,0,1,0,.725Zm-4.379,0H2566.5a.362.362,0,1,1,0-.725h2.189a.362.362,0,1,1,0,.725Zm-4.379,0h-2.189a.362.362,0,1,1,0-.725h2.189a.362.362,0,0,1,0,.725Zm-4.379,0h-2.19a.362.362,0,1,1,0-.725h2.19a.362.362,0,1,1,0,.725Zm-4.379,0h-2.189a.362.362,0,1,1,0-.725h2.189a.362.362,0,1,1,0,.725Zm-4.379,0h-2.181a.366.366,0,0,1-.367-.362.359.359,0,0,1,.358-.362h2.19a.362.362,0,1,1,0,.725Z" transform="translate(-2547.196 -1202.691)" fill="#151f2c"/>
      </g>
      <g id="Group_4425" data-name="Group 4425" transform="translate(1754.693 560.198)">
        <path id="Path_9108" data-name="Path 9108" d="M2168.18,818.273h-2.437a.409.409,0,0,1,0-.819h2.423a.416.416,0,0,1,.417.409.4.4,0,0,1-.4.41Zm-4.86,0h-2.42a.409.409,0,1,1,0-.819h2.423a.409.409,0,0,1,0,.819Zm-4.845,0h-2.422a.409.409,0,0,1,0-.819h2.422a.409.409,0,0,1,0,.819Zm-4.845,0h-2.423a.409.409,0,0,1,0-.819h2.423a.409.409,0,0,1,0,.819Zm-4.846,0h-2.423a.409.409,0,1,1,0-.819h2.423a.409.409,0,0,1,0,.819Zm-4.845,0h-2.423a.409.409,0,0,1,0-.819h2.423a.409.409,0,0,1,0,.819Zm-4.845,0h-2.423a.409.409,0,0,1,0-.819h2.423a.409.409,0,0,1,0,.819Zm-4.8-.261a.406.406,0,0,1-.2-.053,2.428,2.428,0,0,1-1.229-2.108v-.3a.409.409,0,0,1,.818,0v.3a1.608,1.608,0,0,0,.814,1.4.409.409,0,0,1-.2.765Zm35.757-1.043a.409.409,0,0,1-.383-.553,1.6,1.6,0,0,0,.1-.565v-1.7a.409.409,0,0,1,.818,0v1.7a2.418,2.418,0,0,1-.154.853.41.41,0,0,1-.382.265Zm-36.778-3.429a.41.41,0,0,1-.409-.409v-2.423a.409.409,0,0,1,.818,0v2.423a.408.408,0,0,1-.412.409Zm36.906-1.4a.409.409,0,0,1-.409-.409v-2.422a.409.409,0,1,1,.818,0v2.422a.409.409,0,0,1-.408.408Zm-36.906-3.444a.409.409,0,0,1-.409-.409v-2.423a.409.409,0,0,1,.818,0v2.423a.408.408,0,0,1-.412.408Zm36.906-1.4a.409.409,0,0,1-.409-.409v-2.423a.409.409,0,1,1,.818,0v2.423a.409.409,0,0,1-.408.407Zm-36.906-3.444a.41.41,0,0,1-.409-.409V801.02a.409.409,0,0,1,.818,0v2.423a.408.408,0,0,1-.412.407Zm36.906-1.4a.409.409,0,0,1-.409-.409V799.62a.409.409,0,1,1,.818,0v2.423a.409.409,0,0,1-.408.405ZM2133.27,799a.41.41,0,0,1-.409-.409v-2.422a.409.409,0,0,1,.818,0v2.422a.409.409,0,0,1-.409.409Zm36.906-1.4a.409.409,0,0,1-.409-.409v-2.422a.409.409,0,0,1,.818,0v2.422a.41.41,0,0,1-.405.409Zm-36.906-3.444a.409.409,0,0,1-.409-.409v-2.423a.409.409,0,0,1,.818,0v2.423a.409.409,0,0,1-.409.412Zm36.906-1.4a.409.409,0,0,1-.409-.409v-2.423a.409.409,0,0,1,.818,0v2.423a.409.409,0,0,1-.405.411Zm-36.906-3.444a.409.409,0,0,1-.409-.409v-1.69a2.408,2.408,0,0,1,.158-.862.409.409,0,1,1,.764.291,1.6,1.6,0,0,0-.1.57v1.69a.408.408,0,0,1-.413.411Zm36.906-1.4a.409.409,0,0,1-.409-.409v-.289a1.606,1.606,0,0,0-.819-1.4.409.409,0,0,1,.4-.713,2.427,2.427,0,0,1,1.236,2.112v.289a.41.41,0,0,1-.4.41Zm-3.406-2.3h-2.423a.409.409,0,0,1,0-.818h2.423a.409.409,0,0,1,0,.818Zm-4.846,0H2159.5a.409.409,0,0,1,0-.818h2.422a.409.409,0,0,1,0,.818Zm-4.845,0h-2.423a.409.409,0,0,1,0-.818h2.423a.409.409,0,1,1,0,.818Zm-4.845,0h-2.423a.409.409,0,0,1,0-.818h2.423a.409.409,0,0,1,0,.818Zm-4.845,0h-2.423a.409.409,0,0,1,0-.818h2.423a.409.409,0,0,1,0,.818Zm-4.846,0h-2.423a.409.409,0,0,1,0-.818h2.423a.409.409,0,1,1,0,.818Zm-4.845,0h-2.415a.412.412,0,0,1-.413-.409.406.406,0,0,1,.405-.409h2.423a.409.409,0,0,1,0,.818Z" transform="translate(-2132.862 -784.792)" fill="#151f2c"/>
      </g>
      <g id="Group_4426" data-name="Group 4426" transform="translate(1903.057 730.045)">
        <path id="Path_9109" data-name="Path 9109" d="M2590.53,1273.62h-2.206a.362.362,0,1,1,0-.725h2.189a.37.37,0,0,1,.371.362.356.356,0,0,1-.354.363Zm-4.4,0h-2.19a.362.362,0,1,1,0-.725h2.19a.362.362,0,1,1,0,.725Zm-4.379,0h-2.189a.362.362,0,1,1,0-.725h2.189a.362.362,0,1,1,0,.725Zm-4.379,0h-2.189a.362.362,0,1,1,0-.725h2.189a.362.362,0,1,1,0,.725Zm-4.379,0H2570.8a.362.362,0,1,1,0-.725h2.2a.362.362,0,1,1,0,.725Zm-4.379,0h-2.189a.362.362,0,1,1,0-.725h2.189a.362.362,0,0,1,0,.725Zm-4.378,0h-2.189a.362.362,0,1,1,0-.725h2.189a.362.362,0,1,1,0,.725Zm-4.378,0h-2.19a.362.362,0,1,1,0-.725h2.19a.362.362,0,1,1,0,.725Zm-4.379,0h-2.19a.362.362,0,1,1,0-.725h2.19a.362.362,0,1,1,0,.725Zm-4.379,0h-2.207a.363.363,0,0,1-.344-.38.357.357,0,0,1,.38-.344h2.171a.362.362,0,0,1,0,.725Zm40.841-1.387h-.012a.362.362,0,0,1-.35-.374v-2.178a.363.363,0,1,1,.725,0v2.2a.362.362,0,0,1-.355.349Zm-44.388-.058a.362.362,0,0,1-.362-.362v-2.189a.363.363,0,0,1,.725,0v2.189a.362.362,0,0,1-.357.357Zm44.388-4.32a.362.362,0,0,1-.362-.362V1265.3a.363.363,0,0,1,.725,0v2.189a.362.362,0,0,1-.355.361Zm-44.388-.058a.362.362,0,0,1-.362-.362v-2.19a.363.363,0,0,1,.725,0v2.19a.362.362,0,0,1-.357.355Zm44.388-4.32a.362.362,0,0,1-.362-.362v-2.189a.363.363,0,1,1,.725,0v2.189a.362.362,0,0,1-.355.355Zm-44.388-.058a.362.362,0,0,1-.362-.362v-2.2a.357.357,0,0,1,.377-.347.363.363,0,0,1,.348.377v2.175a.362.362,0,0,1-.356.352Zm43.023-3.567h-2.19a.362.362,0,1,1,0-.725h2.205a.362.362,0,0,1-.016.724Zm-4.379,0h-2.189a.362.362,0,1,1,0-.725h2.189a.362.362,0,0,1,0,.725Zm-4.379,0h-2.189a.362.362,0,1,1,0-.725h2.189a.362.362,0,0,1,0,.725Zm-4.378,0h-2.19a.362.362,0,1,1,0-.725h2.19a.362.362,0,1,1,0,.725Zm-4.379,0h-2.189a.362.362,0,1,1,0-.725h2.189a.362.362,0,0,1,0,.725Zm-4.379,0H2566.5a.362.362,0,1,1,0-.725h2.189a.362.362,0,1,1,0,.725Zm-4.379,0h-2.189a.362.362,0,1,1,0-.725h2.189a.362.362,0,0,1,0,.725Zm-4.379,0h-2.19a.362.362,0,1,1,0-.725h2.19a.362.362,0,1,1,0,.725Zm-4.379,0h-2.189a.362.362,0,1,1,0-.725h2.189a.362.362,0,1,1,0,.725Zm-4.379,0h-2.181a.366.366,0,0,1-.367-.363.359.359,0,0,1,.358-.362h2.19a.362.362,0,1,1,0,.725Z" transform="translate(-2547.196 -1259.12)" fill="#151f2c"/>
      </g>
      <g id="Group_4427" data-name="Group 4427" transform="translate(1702.692 673.772)">
        <path id="Path_9110" data-name="Path 9110" d="M2058.56,1157.51h-2.186a.363.363,0,0,1,0-.725h2.171a.369.369,0,0,1,.37.362.356.356,0,0,1-.355.363Zm-4.356,0h-2.171a.363.363,0,0,1,0-.725h2.171a.362.362,0,1,1,0,.725Zm-4.341,0h-2.171a.363.363,0,1,1,0-.725h2.171a.362.362,0,1,1,0,.725Zm-4.341,0h-2.171a.363.363,0,0,1,0-.725h2.171a.362.362,0,0,1,0,.725Zm-4.341,0h-2.17a.363.363,0,1,1,0-.725h2.17a.362.362,0,1,1,0,.725Zm-4.341,0h-2.17a.363.363,0,0,1,0-.725h2.17a.362.362,0,0,1,0,.725Zm-4.341,0h-2.17a.363.363,0,0,1,0-.725h2.17a.362.362,0,0,1,0,.725Zm-4.341,0h-2.171a.363.363,0,0,1,0-.725h2.171a.362.362,0,0,1,0,.725Zm-4.341,0h-2.171a.363.363,0,1,1,0-.725h2.171a.362.362,0,0,1,0,.725Zm-4.341,0h-2.17a.363.363,0,0,1,0-.725h2.17a.362.362,0,0,1,0,.725Zm-4.341,0h-2.17a.363.363,0,1,1,0-.725h2.17a.362.362,0,1,1,0,.725Zm-4.341,0h-2.171a.363.363,0,0,1,0-.725h2.171a.362.362,0,0,1,0,.725Zm-4.341,0h-2.171a.363.363,0,1,1,0-.725h2.171a.362.362,0,0,1,0,.725Zm-4.341,0h-2.17a.363.363,0,0,1,0-.725h2.17a.362.362,0,0,1,0,.725Zm-4.341,0h-2.17a.363.363,0,0,1,0-.725h2.17a.362.362,0,0,1,0,.725Zm-4.341,0H1991.7a4.105,4.105,0,0,1-.479-.028.362.362,0,0,1,.085-.72,3.484,3.484,0,0,0,.394.023h1.732a.362.362,0,0,1,0,.725Zm67.174-.626a.362.362,0,0,1-.2-.663,3.334,3.334,0,0,0,1.224-1.492.362.362,0,0,1,.669.278,4.059,4.059,0,0,1-1.489,1.816.361.361,0,0,1-.209.067Zm-71.3-.256a.361.361,0,0,1-.235-.086,4.05,4.05,0,0,1-1.273-1.974.364.364,0,0,1,.7-.2,3.326,3.326,0,0,0,1.046,1.621.362.362,0,0,1-.235.638Zm72.941-3.532a.362.362,0,0,1-.363-.362v-2.171a.363.363,0,0,1,.725,0v2.171a.362.362,0,0,1-.368.366Zm-74.242-.423a.362.362,0,0,1-.362-.362v-2.17a.363.363,0,0,1,.725,0v2.17a.362.362,0,0,1-.367.369Zm74.242-3.918a.363.363,0,0,1-.363-.363v-2.171a.363.363,0,0,1,.725,0v2.171a.363.363,0,0,1-.368.368Zm-74.242-.423a.363.363,0,0,1-.362-.362v-2.17a.363.363,0,1,1,.725,0v2.17a.363.363,0,0,1-.367.37Zm74.242-3.918a.363.363,0,0,1-.363-.362v-2.17a.363.363,0,0,1,.725,0v2.17a.362.362,0,0,1-.368.368ZM1988,1144a.363.363,0,0,1-.362-.362v-2.17a.363.363,0,0,1,.725,0v2.17A.363.363,0,0,1,1988,1144Zm74.242-3.918a.363.363,0,0,1-.363-.362v-2.171a.363.363,0,0,1,.725,0v2.171a.362.362,0,0,1-.364.36Zm-74.242-.423a.363.363,0,0,1-.362-.362v-2.171a.363.363,0,0,1,.725,0v2.171a.363.363,0,0,1-.363.363Zm74.242-3.918a.363.363,0,0,1-.363-.362v-2.17a.363.363,0,0,1,.725,0v2.17a.362.362,0,0,1-.364.361Zm-74.242-.423a.363.363,0,0,1-.362-.362v-2.17a.363.363,0,1,1,.725,0v2.17a.363.363,0,0,1-.363.354Zm74.242-3.918a.363.363,0,0,1-.363-.362v-2.17a.363.363,0,0,1,.725,0v2.17a.361.361,0,0,1-.364.362Zm-74.242-.423a.363.363,0,0,1-.362-.362v-2.17a.363.363,0,0,1,.725,0v2.17a.363.363,0,0,1-.363.355Zm74.242-3.918a.362.362,0,0,1-.363-.362v-2.171a.363.363,0,0,1,.725,0v2.171a.361.361,0,0,1-.364.363Zm-74.242-.422a.363.363,0,0,1-.362-.363v-2.17a.363.363,0,1,1,.725,0v2.17a.363.363,0,0,1-.363.356Zm74.242-3.918a.363.363,0,0,1-.363-.362v-2.171a.363.363,0,0,1,.725,0v2.171a.361.361,0,0,1-.364.353ZM1988,1122.3a.363.363,0,0,1-.362-.362v-2.171a.363.363,0,0,1,.725,0v2.171a.362.362,0,0,1-.363.356Zm74.242-3.918a.363.363,0,0,1-.363-.362v-2.17a.363.363,0,0,1,.725,0v2.17a.361.361,0,0,1-.364.354Zm-74.242-.423a.362.362,0,0,1-.362-.362v-2.17a.363.363,0,0,1,.725,0v2.17a.362.362,0,0,1-.363.357Zm74.242-3.918a.363.363,0,0,1-.363-.362v-2.17a.363.363,0,0,1,.725,0v2.17a.362.362,0,0,1-.364.355ZM1988,1113.61a.363.363,0,0,1-.362-.362v-2.171a.363.363,0,0,1,.725,0v2.171a.363.363,0,0,1-.363.362Zm74.242-3.918a.363.363,0,0,1-.363-.363v-2.171a.363.363,0,0,1,.725,0v2.171a.363.363,0,0,1-.364.361Zm-74.242-.423a.362.362,0,0,1-.362-.362v-2.171a.363.363,0,0,1,.725,0v2.171a.362.362,0,0,1-.363.363Zm74.1-3.9a.363.363,0,0,1-.348-.262,3.329,3.329,0,0,0-1.049-1.619.362.362,0,1,1,.469-.552,4.045,4.045,0,0,1,1.276,1.971.362.362,0,0,1-.348.463Zm-73.814-.4a.356.356,0,0,1-.139-.028.362.362,0,0,1-.195-.474,4.049,4.049,0,0,1,1.493-1.813.362.362,0,0,1,.4.6,3.333,3.333,0,0,0-1.227,1.489.363.363,0,0,1-.328.227Zm70.69-2.249h-.042a3.406,3.406,0,0,0-.388-.022h-1.74a.363.363,0,1,1,0-.725h1.74a4.143,4.143,0,0,1,.47.027.363.363,0,0,1-.041.723Zm-4.34-.025h-2.17a.362.362,0,1,1,0-.725h2.17a.362.362,0,0,1,0,.725Zm-4.341,0h-2.171a.362.362,0,1,1,0-.725h2.171a.362.362,0,1,1,0,.725Zm-4.341,0h-2.17a.362.362,0,1,1,0-.725h2.17a.362.362,0,1,1,0,.725Zm-4.341,0h-2.17a.362.362,0,1,1,0-.725h2.17a.362.362,0,1,1,0,.725Zm-4.341,0h-2.17a.362.362,0,1,1,0-.725h2.17a.362.362,0,1,1,0,.725Zm-4.341,0h-2.17a.362.362,0,1,1,0-.725h2.17a.362.362,0,0,1,0,.725Zm-4.341,0h-2.171a.362.362,0,1,1,0-.725h2.171a.362.362,0,1,1,0,.725Zm-4.341,0h-2.171a.362.362,0,1,1,0-.725h2.171a.362.362,0,0,1,0,.725Zm-4.341,0h-2.17a.362.362,0,1,1,0-.725h2.17a.362.362,0,1,1,0,.725Zm-4.341,0H2013.4a.362.362,0,1,1,0-.725h2.171a.362.362,0,0,1,0,.725Zm-4.341,0h-2.171a.362.362,0,1,1,0-.725h2.171a.362.362,0,1,1,0,.725Zm-4.341,0h-2.171a.362.362,0,1,1,0-.725h2.171a.362.362,0,0,1,0,.725Zm-4.341,0h-2.171a.362.362,0,1,1,0-.725h2.171a.362.362,0,1,1,0,.725Zm-4.341,0h-2.17a.362.362,0,0,1,0-.725h2.17a.362.362,0,0,1,0,.725Zm-4.341,0H1991.7a.366.366,0,0,1-.366-.363.359.359,0,0,1,.359-.362h2.17a.362.362,0,1,1,0,.725Z" transform="translate(-1987.639 -1101.968)" fill="#151f2c"/>
      </g>
      <g id="Group_4429" data-name="Group 4429" transform="translate(1703.559 607.969)">
        <rect id="Rectangle_474" data-name="Rectangle 474" width="94.579" height="54.822" rx="9.573" fill="#e9e9e9"/>
        <path id="Path_9111" data-name="Path 9111" d="M2092.32,961.314v21.748a1.709,1.709,0,0,0,2.648,1.428l16.528-10.874a1.709,1.709,0,0,0,0-2.855l-16.528-10.875a1.709,1.709,0,0,0-2.648,1.428Z" transform="translate(-2055.703 -944.778)" fill="#0fc2bf"/>
        <g id="Group_4428" data-name="Group 4428" transform="translate(4.917 48.179)">
          <path id="Path_9112" data-name="Path 9112" d="M2003.79,1054.45a1.7,1.7,0,1,1,1.7,1.7A1.7,1.7,0,0,1,2003.79,1054.45Z" transform="translate(-2003.79 -1052.749)" fill="#aec3ff"/>
          <path id="Path_9113" data-name="Path 9113" d="M2085.76,1057.13h-76.774a.457.457,0,0,1-.457-.457h0a.457.457,0,0,1,.457-.457h76.774a.457.457,0,0,1,.457.457h0A.457.457,0,0,1,2085.76,1057.13Z" transform="translate(-2006.833 -1054.973)" fill="#aec3ff"/>
        </g>
      </g>
      <rect id="Rectangle_475" data-name="Rectangle 475" width="48.931" height="73.042" transform="translate(1792.008 674.135)" fill="#e9e9e9"/>
      <g id="Group_4435" data-name="Group 4435" transform="translate(1812.553 675.876)">
        <g id="Group_4431" data-name="Group 4431" transform="translate(0 6.046)">
          <g id="Group_4430" data-name="Group 4430" transform="translate(7.948 2.489)">
            <path id="Path_9114" data-name="Path 9114" d="M2317.31,1144.87h-.669v-3.01a1.959,1.959,0,0,1,1.957-1.958h8.279a1.29,1.29,0,0,0,1.246-.961l1.309-4.977a1.289,1.289,0,0,0-1.246-1.616h-10.8v-.669h10.8a1.958,1.958,0,0,1,1.893,2.456l-1.309,4.978a1.96,1.96,0,0,1-1.894,1.46H2318.6a1.29,1.29,0,0,0-1.288,1.288Z" transform="translate(-2316.644 -1131.677)" fill="#384152"/>
          </g>
          <path id="Rectangle_476" data-name="Rectangle 476" d="M2.824,0H15.75a2.824,2.824,0,0,1,2.824,2.824h0A2.824,2.824,0,0,1,15.75,5.648H2.824A2.824,2.824,0,0,1,0,2.824H0A2.824,2.824,0,0,1,2.824,0Z" fill="#0fc2bf"/>
          <path id="Path_9115" data-name="Path 9115" d="M2314.28,1176.81h0a1.84,1.84,0,0,1-1.84-1.84v-11.156a1.841,1.841,0,0,1,1.84-1.841h0a1.841,1.841,0,0,1,1.841,1.841v11.156a1.841,1.841,0,0,1-1.841,1.84Z" transform="translate(-2305.996 -1148.636)" fill="#384152"/>
        </g>
        <g id="Group_4432" data-name="Group 4432" transform="translate(48.922 21.419)">
          <path id="Path_9116" data-name="Path 9116" d="M2508.32,1270.68s1.266,3.9,1.157,4.792a17.331,17.331,0,0,1-1.472,4.72c-.568.78-.848-3.177-1.3-3.772s-.092,1.49-.409,1.683-.978-1.534-1.262-2.143.7-2.856.7-4.422S2508.32,1270.68,2508.32,1270.68Z" transform="translate(-2478.517 -1233.686)" fill="#914f4e"/>
          <path id="Path_9117" data-name="Path 9117" d="M2431.09,1173.67a5.537,5.537,0,0,1,8.343-5.213q.118.071.234.146c5.743,3.7,18.135,20.945,18.987,22.672s3.37,15.474,3.37,15.474-3.11,1.138-4.564-.043c0,0-5.045-13.036-5.791-13.688s-20.177-11.554-20.343-15.642C2431.28,1176.3,2431.19,1175,2431.09,1173.67Z" transform="translate(-2431.071 -1167.66)" fill="#151f2c"/>
        </g>
        <g id="Group_4433" data-name="Group 4433" transform="translate(41.598 61.417)">
          <path id="Path_9118" data-name="Path 9118" d="M2512.92,1464.59s2.315,2.113,1.864,3.615-2.542,2.5-2.824,4.337-1.412,2.836-2.428,2.836h-4.846s-.748-1.291,1.059-1.68,2.489-2.546,2.375-4.548a35.276,35.276,0,0,1,.17-4.671l3.84-.89Z" transform="translate(-2470.904 -1397.623)" fill="#2a4a7c"/>
          <path id="Path_9119" data-name="Path 9119" d="M2424.23,1478.31s.416,4.809-.6,5.309l-13.01-.026s0-1.5,2.09-1.835,5.76-1.557,6.382-4.282S2424.23,1478.31,2424.23,1478.31Z" transform="translate(-2410.618 -1405.879)" fill="#2a4a7c"/>
          <path id="Path_9120" data-name="Path 9120" d="M2417.95,1289.85s.686,8.43,1.493,18.563c1.1,13.765,2.414,30.672,2.545,33.875.225,5.562,1.13,14.458,1.13,14.458s2.145,2.114,6.438,1.223a143.555,143.555,0,0,0,4.918-26.138c.017-.22.034-.442.051-.664,1.017-13.68,2.6-42.485,2.6-42.485Z" transform="translate(-2415.327 -1285.343)" fill="#0fc2bf"/>
          <path id="Path_9121" data-name="Path 9121" d="M2417.95,1289.85s.686,8.43,1.493,18.563l15.031,23.419c.017-.22.034-.442.051-.664,1.017-13.68,2.6-42.485,2.6-42.485Z" transform="translate(-2415.327 -1285.343)" fill="#0caba7"/>
          <path id="Path_9122" data-name="Path 9122" d="M2426.71,1284.87s12.368,30.529,20.5,44.876,10.674,18.351,10.674,18.351,4.659-1.835,5.083-3.086c0,0-3.11-27.7-8.556-34.449-3.077-3.815-6.692-15.264-6.862-19.268s-1.1-11.928-1.1-11.928Z" transform="translate(-2420.945 -1279.362)" fill="#0fc2bf"/>
        </g>
        <path id="Path_9123" data-name="Path 9123" d="M2432.93,1148.82s-8.287,4.2-13.14,2.8a11.386,11.386,0,0,1,3.213-2.677c-.186-.965-.332-1.8-.42-2.513a23.289,23.289,0,0,1-.255-2.572l3.177-2.6,3.013-2.49A12.338,12.338,0,0,0,2432.93,1148.82Z" transform="translate(-2374.909 -1127.693)" fill="#914f4e"/>
        <path id="Path_9124" data-name="Path 9124" d="M2433.67,1204.9a34.132,34.132,0,0,1-10.22,4.4c-4.372,1.037-9.746.731-11.544,1a.746.746,0,0,1-.525-.133c-.141-.072-.934-5.406-1.729-12.137-.035-.271-.072-.545-.087-.819l-.012-.091c-.309-2.631-.58-5.4-.815-8.166-.192-2.156-.35-4.288-.459-6.291-.138-2.506-.2-4.808-.138-6.7.025-.865.075-1.643.153-2.319a16.491,16.491,0,0,1,4.115-8.833l1.465-1.667a8.031,8.031,0,0,0,5.07-1.294c1.79-1.178,3.72-2.445,4.085-2.233,2.742,1.5,4.976,5.389,6.571,10.523a58.667,58.667,0,0,1,2.065,9.862c.145,1.1.267,2.233.361,3.359.019.208.034.417.051.622.215,3.078.566,5.963.956,8.539.524,3.475,1.12,6.385,1.542,8.436.212,1.043.373,1.85.469,2.428C2435.13,1203.9,2434.12,1204.62,2433.67,1204.9Z" transform="translate(-2367.417 -1141.067)" fill="#384152"/>
        <path id="Path_9125" data-name="Path 9125" d="M2433.18,1145.84a11.09,11.09,0,0,1-6.043,5.054,23.354,23.354,0,0,1-.255-2.572l3.178-2.6Z" transform="translate(-2379.457 -1132.157)" fill="#914f4e"/>
        <path id="Path_9126" data-name="Path 9126" d="M2419.76,1129.33s8.007,1.147,8.659-3.774,2.125-8.088-2.961-9.029-6.329.81-6.952,2.4S2417.69,1128.91,2419.76,1129.33Z" transform="translate(-2373.809 -1113.251)" fill="#914f4e"/>
        <path id="Path_9127" data-name="Path 9127" d="M2426.28,1110.42c.071-.084.236-.155.608-.183a1.511,1.511,0,0,0-.7-.182,1.871,1.871,0,0,0-1.276-1.63,1.116,1.116,0,0,1,.556.794c-1.052-1.038-3.276-1.765-9.383-1.161-8.049.8-5.29,5.9-4.234,6.5s3.65-1.144,5.6-1.028,2.373,2.918,3.04,3.291.4-.3,1.279-.725,1,1.056.76,2.023,1.013,2.211,1.013,2.211l1.213-1.359c1.213-1.359,2.269-7.036,1.681-8.229Z" transform="translate(-2368.964 -1107.843)" fill="#151f2c"/>
        <path id="Path_9128" data-name="Path 9128" d="M2422.19,1205.75s-6.752,5.137-13.908,6.263c-.138-2.505-.2-4.808-.138-6.7Z" transform="translate(-2367.417 -1170.413)" fill="#151f2c"/>
        <g id="Group_4434" data-name="Group 4434" transform="translate(5.917 23.123)">
          <path id="Path_9129" data-name="Path 9129" d="M2318.37,1180.14c-.106-.114-1.484-4.717-3.864-4.381-1.553.219-4.092,1.118-3.418,3.165.265.805,5,3.576,5,3.576Z" transform="translate(-2310.972 -1174.553)" fill="#914f4e"/>
          <path id="Path_9130" data-name="Path 9130" d="M2369.28,1174.71a5.538,5.538,0,0,1-.58,9.82c-.085.037-.169.072-.254.106-6.339,2.543-27.576,2.661-29.479,2.356s-14.568-6.21-14.568-6.21.873-3.2,2.677-3.7c0,0,13.551,3.433,14.514,3.2s21.1-9.763,24.531-7.531C2367.03,1173.34,2368.14,1174.03,2369.28,1174.71Z" transform="translate(-2319.594 -1172.417)" fill="#384152"/>
        </g>
      </g>
      <g id="Group_4436" data-name="Group 4436" transform="translate(1992.833 547.613)">
        <path id="Path_9131" data-name="Path 9131" d="M2816.11,752.229H2799.2a1.3,1.3,0,0,1-1.292-1.292h0a1.3,1.3,0,0,1,1.292-1.292h16.906a1.3,1.3,0,0,1,1.292,1.292h0a1.3,1.3,0,0,1-1.288,1.292Z" transform="translate(-2797.912 -749.646)" fill="#ebf3fa"/>
        <path id="Path_9132" data-name="Path 9132" d="M2816.11,766.326H2799.2a1.3,1.3,0,0,1-1.292-1.292h0a1.3,1.3,0,0,1,1.292-1.292h16.906a1.3,1.3,0,0,1,1.292,1.292h0a1.3,1.3,0,0,1-1.288,1.292Z" transform="translate(-2797.912 -758.694)" fill="#ebf3fa"/>
        <path id="Path_9133" data-name="Path 9133" d="M2816.11,780.787H2799.2a1.3,1.3,0,0,1-1.292-1.292h0a1.3,1.3,0,0,1,1.292-1.292h16.906a1.3,1.3,0,0,1,1.292,1.292h0a1.3,1.3,0,0,1-1.288,1.292Z" transform="translate(-2797.912 -767.977)" fill="#ebf3fa"/>
      </g>
      <path id="Path_9134" data-name="Path 9134" d="M2588.63,1119.69h-40.25a1.718,1.718,0,0,1-1.714-1.713h0a1.718,1.718,0,0,1,1.714-1.713h40.247a1.718,1.718,0,0,1,1.713,1.713h0A1.718,1.718,0,0,1,2588.63,1119.69Z" transform="translate(-643.799 -437.375)" fill="#ebf3fa"/>
      <path id="Path_9135" data-name="Path 9135" d="M2039.2,791.3h-40.247a1.718,1.718,0,0,1-1.713-1.713h0a1.718,1.718,0,0,1,1.713-1.713H2039.2a1.718,1.718,0,0,1,1.713,1.713h0a1.718,1.718,0,0,1-1.713,1.713Z" transform="translate(-291.113 -226.575)" fill="#ebf3fa"/>
      <path id="Path_9136" data-name="Path 9136" d="M2588.63,1167.16h-40.25a1.718,1.718,0,0,1-1.714-1.713h0a1.718,1.718,0,0,1,1.714-1.713h40.247a1.718,1.718,0,0,1,1.713,1.713h0A1.718,1.718,0,0,1,2588.63,1167.16Z" transform="translate(-643.799 -467.843)" fill="#ebf3fa"/>
      <path id="Path_9137" data-name="Path 9137" d="M2574.48,1143.43h-48.136a1.718,1.718,0,0,1-1.713-1.713h0a1.718,1.718,0,0,1,1.713-1.713h48.136a1.718,1.718,0,0,1,1.713,1.713h0A1.718,1.718,0,0,1,2574.48,1143.43Z" transform="translate(-629.656 -452.61)" fill="#ebf3fa"/>
      <g id="Group_4437" data-name="Group 4437" transform="translate(1704.611 572.077)">
        <rect id="Rectangle_477" data-name="Rectangle 477" width="25.318" height="3.426" rx="1.713" transform="translate(7.521)" fill="#ebf3fa"/>
        <path id="Path_9138" data-name="Path 9138" d="M1993,819.677a1.713,1.713,0,1,1,1.713,1.713,1.713,1.713,0,0,1-1.713-1.713Z" transform="translate(-1992.998 -817.964)" fill="#ebf3fa"/>
      </g>
      <g id="Group_4438" data-name="Group 4438" transform="translate(1704.611 578.895)">
        <rect id="Rectangle_478" data-name="Rectangle 478" width="29.738" height="3.426" rx="1.713" transform="translate(7.521)" fill="#ebf3fa"/>
        <path id="Path_9139" data-name="Path 9139" d="M1993,838.718a1.713,1.713,0,1,1,1.713,1.713,1.713,1.713,0,0,1-1.713-1.713Z" transform="translate(-1992.998 -837.005)" fill="#ebf3fa"/>
      </g>
      <g id="Group_4439" data-name="Group 4439" transform="translate(1704.611 586.295)">
        <rect id="Rectangle_479" data-name="Rectangle 479" width="25.318" height="3.426" rx="1.713" transform="translate(7.521)" fill="#ebf3fa"/>
        <path id="Path_9140" data-name="Path 9140" d="M1993,859.386a1.713,1.713,0,1,1,1.713,1.713,1.713,1.713,0,0,1-1.713-1.713Z" transform="translate(-1992.998 -857.673)" fill="#ebf3fa"/>
      </g>
      <g id="Group_4441" data-name="Group 4441" transform="translate(1764.449 567.311)">
        <g id="Group_4440" data-name="Group 4440" transform="translate(6.129)">
          <path id="Path_9141" data-name="Path 9141" d="M2184.1,816.684a6.137,6.137,0,0,1-.906.057,6.045,6.045,0,0,1-4.154-10.367h0a6.045,6.045,0,1,1,5.06,10.311Zm-4.364-9.6a5.049,5.049,0,1,0,7.14.082,5.049,5.049,0,0,0-7.14-.082Z" transform="translate(-2177.225 -804.655)" fill="#151f2c"/>
        </g>
        <rect id="Rectangle_480" data-name="Rectangle 480" width="0.996" height="8.249" transform="matrix(0.699, 0.715, -0.715, 0.699, 7.855, 9.562)" fill="#151f2c"/>
        <path id="Path_9142" data-name="Path 9142" d="M2160.36,845.253h0a.889.889,0,0,1,.015-1.257l3.474-3.4a.889.889,0,0,1,1.257.015h0a.888.888,0,0,1-.015,1.257l-3.474,3.4a.889.889,0,0,1-1.257-.02Z" transform="translate(-2160.108 -827.567)" fill="#151f2c"/>
      </g>
      <g id="Group_4442" data-name="Group 4442" transform="translate(2010.93 671.044)">
        <path id="Path_9143" data-name="Path 9143" d="M2896.76,1238.86h0a1.985,1.985,0,0,1-1.807-1.245l-46.439-141.4a.931.931,0,0,1,.984-1.261h0a1.985,1.985,0,0,1,1.807,1.245l46.44,141.4a.932.932,0,0,1-.985,1.261Z" transform="translate(-2848.452 -1094.738)" fill="#151f2c"/>
        <path id="Path_9144" data-name="Path 9144" d="M3001.28,1238.25h0a1.985,1.985,0,0,1-1.807-1.245l-46.44-141.4a.932.932,0,0,1,.985-1.261h0a1.985,1.985,0,0,1,1.807,1.245l46.439,141.4a.931.931,0,0,1-.984,1.261Z" transform="translate(-2915.547 -1094.35)" fill="#151f2c"/>
        <path id="Path_9145" data-name="Path 9145" d="M2904.8,1148.65l-37.584.217a1.88,1.88,0,0,1-1.706-1.175h0a.881.881,0,0,1,.929-1.19l37.584-.218a1.88,1.88,0,0,1,1.706,1.175h0a.881.881,0,0,1-.929,1.191Z" transform="translate(-2859.368 -1127.69)" fill="#151f2c"/>
        <path id="Path_9146" data-name="Path 9146" d="M2927.45,1217.6l-37.583.217a1.879,1.879,0,0,1-1.706-1.175h0a.881.881,0,0,1,.928-1.191l37.584-.217a1.88,1.88,0,0,1,1.706,1.175h0a.881.881,0,0,1-.929,1.191Z" transform="translate(-2873.903 -1171.947)" fill="#151f2c"/>
        <path id="Path_9147" data-name="Path 9147" d="M2949.25,1284l-37.583.218a1.881,1.881,0,0,1-1.706-1.175h0a.881.881,0,0,1,.929-1.19l37.584-.217a1.881,1.881,0,0,1,1.706,1.175h0a.881.881,0,0,1-.93,1.189Z" transform="translate(-2887.902 -1214.572)" fill="#151f2c"/>
        <path id="Path_9148" data-name="Path 9148" d="M2973.81,1358.75l-37.583.218a1.879,1.879,0,0,1-1.706-1.175h0a.881.881,0,0,1,.929-1.19l37.583-.217a1.879,1.879,0,0,1,1.706,1.175h0a.881.881,0,0,1-.929,1.189Z" transform="translate(-2903.663 -1262.559)" fill="#151f2c"/>
        <path id="Path_9149" data-name="Path 9149" d="M2999.5,1437l-37.583.218a1.88,1.88,0,0,1-1.706-1.175h0a.881.881,0,0,1,.929-1.19l37.583-.218a1.88,1.88,0,0,1,1.706,1.175h0a.881.881,0,0,1-.929,1.19Z" transform="translate(-2920.158 -1312.784)" fill="#151f2c"/>
      </g>
      <g id="Group_4443" data-name="Group 4443" transform="translate(2002.775 563.017)">
        <path id="Path_9150" data-name="Path 9150" d="M2841.85,910.112h0a.547.547,0,0,1-.639-.432l-.6-3.107a.547.547,0,0,1,.432-.639h0a.546.546,0,0,1,.639.432l.6,3.107a.547.547,0,0,1-.432.639Z" transform="translate(-2835.254 -865.368)" fill="#151f2c"/>
        <rect id="Rectangle_481" data-name="Rectangle 481" width="0.375" height="4.574" transform="translate(4.587 35.361) rotate(-10.953)" fill="#151f2c"/>
        <path id="Path_9151" data-name="Path 9151" d="M2830.63,809.755a14.416,14.416,0,0,0-1.1-4.275c-.75-1.182-3.583-1.942-3.762-1.768-.555.537,1.639,2.437,1.724,3.137s-1.113.216-.537,1.581a10.649,10.649,0,0,0,2.089,2.647Z" transform="translate(-2825.675 -799.74)" fill="#914f4e"/>
        <path id="Path_9152" data-name="Path 9152" d="M2833.71,818.244c1.033-.811,1.253-.8,1.253-.8s9.557,8.279,10.487,9.017,15.284,4.9,15.284,4.9l2.281,11.668s-19.422-9.381-21.742-11.3c-3.835-3.163-8.674-12.017-8.674-12.017a3.659,3.659,0,0,1,1.111-1.468Z" transform="translate(-2830.118 -808.574)" fill="#0caba7"/>
        <path id="Path_9153" data-name="Path 9153" d="M2891.27,1129.83s-.165,3.988-.93,4.957l-10.653.062a1.666,1.666,0,0,1,1.592-1.619,7.146,7.146,0,0,0,5.174-4.083C2887.64,1126.56,2891.27,1129.83,2891.27,1129.83Z" transform="translate(-2860.345 -1008.019)" fill="#151f2c"/>
        <path id="Path_9154" data-name="Path 9154" d="M2947.94,1128.33s.742,5.3-.266,5.391c-.134.012-4.292.079-6.094.109-2.118.036-5.6-.039-5.6-.039a.553.553,0,0,1-.5-.833,2.231,2.231,0,0,1,1.6-1.027c1.855-.357,4.946-1.72,6.03-4.2C2944.25,1125.12,2947.94,1128.33,2947.94,1128.33Z" transform="translate(-2896.113 -1007.095)" fill="#151f2c"/>
        <path id="Path_9155" data-name="Path 9155" d="M2896.56,961.412s2.962,10.365,11.451,28.364,8.857,26.674,8.857,26.674a7.458,7.458,0,0,0,2.99.273,8.037,8.037,0,0,0,3.146-1.02s-.55-21.424-4.56-30.507-4.827-33.939-4.827-33.939Z" transform="translate(-2871.18 -894.468)" fill="#151f2c"/>
        <path id="Path_9156" data-name="Path 9156" d="M2883.27,954.712a258.342,258.342,0,0,0,2.541,35.756c2.778,19.706,1.479,28.87,1.479,28.87a5.537,5.537,0,0,0,3,.527,6.727,6.727,0,0,0,4.008-1.1s3.975-19.713,2.835-29.577,5.443-33.846,5.443-33.846Z" transform="translate(-2862.645 -896.686)" fill="#384152"/>
        <path id="Path_9157" data-name="Path 9157" d="M2906.18,835.6l-3.137,2.324-4.533-.955c.063-.413.361-2.127.634-3.679.017-.091.033-.183.049-.273.233-1.321.435-2.455.435-2.455l4.234-2.11,1.579-.787c0,.028-.123,1.466-.139,1.675A13.557,13.557,0,0,0,2906.18,835.6Z" transform="translate(-2872.43 -815.132)" fill="#914f4e"/>
        <path id="Path_9158" data-name="Path 9158" d="M2904.34,886.95c-1.025,4.691-22.977,2.632-22.691-.232.011-.1.068-1.421.147-3.207.167-3.864.42-9.9.453-10.374v-.025c.4-3.987.774-7.887.8-10.435a36.239,36.239,0,0,1,.731-6.518c.374-1.893.832-3.611,1.23-4.95a5.472,5.472,0,0,1,3.207-3.516,4.818,4.818,0,0,1,.532-.185c2.583-.75,6.158-1.677,7.127-1.393,2.623.772,4.573,5.392,5.953,11.28C2904.41,868.416,2905.01,883.893,2904.34,886.95Z" transform="translate(-2861.605 -826.941)" fill="#0fc2bf"/>
        <path id="Path_9159" data-name="Path 9159" d="M2906.12,830.816c-.93,1.779-4.394,3.318-5.84,3.883.017-.091.033-.183.049-.273.233-1.32.435-2.455.435-2.455l4.234-2.11C2905.94,829.848,2906.5,830.084,2906.12,830.816Z" transform="translate(-2873.567 -816.542)" fill="#914f4e"/>
        <path id="Path_9160" data-name="Path 9160" d="M2894.17,812.525s7.639,2.383,9.05-2.4,3.347-7.692-1.47-9.415-6.308-.18-7.167,1.3S2892.22,811.782,2894.17,812.525Z" transform="translate(-2869.033 -797.342)" fill="#914f4e"/>
        <path id="Path_9161" data-name="Path 9161" d="M2896.59,796.874s.487,5.562,1.638,5.321,2.193-.42,2.024,1.256-1.763,3.613,1.782,3.91,8.641-8.846,7.667-10.577C2906.89,791.788,2892.52,790.781,2896.59,796.874Z" transform="translate(-2870.734 -792.663)" fill="#151f2c"/>
        <path id="Path_9162" data-name="Path 9162" d="M2882.07,918.1c.167-3.864.42-9.9.453-10.374V907.7l12.968-7.754S2895.99,918.05,2882.07,918.1Z" transform="translate(-2861.874 -861.532)" fill="#0caba7"/>
        <path id="Path_9163" data-name="Path 9163" d="M2841.71,901.426a34.32,34.32,0,0,0-3.136-1.938,6.581,6.581,0,0,0-2.215-.194c-.076.129-.3.524-.014.658s.643.087.536.18-1.184-.419-1.433.13-.467,2.432.8,3,4.385.055,4.61.12C2842.76,903.94,2841.71,901.426,2841.71,901.426Z" transform="translate(-2831.827 -861.082)" fill="#914f4e"/>
        <path id="Path_9164" data-name="Path 9164" d="M2851.72,875.188s12.863,2.187,14,1.632c1.819-.886-.706-13.937-.706-13.937a3.753,3.753,0,0,1,3.346-3.655c3-.606,5.9,1.643,5.9,1.643s2.634,2.357,2.3,4.972c-.746,5.8-1.907,17.583-5.783,19.39-5,2.33-19.467-6.463-19.467-6.463a2.527,2.527,0,0,1-.414-1.685,3.929,3.929,0,0,1,.824-1.9Z" transform="translate(-2841.862 -835.326)" fill="#0fc2bf"/>
        <path id="Path_9165" data-name="Path 9165" d="M2827.31,812.629s-.824-1.636-.955-1.944.189-.241.506-.07.749,1.122,1.238,1.007C2828.48,811.531,2827.31,812.629,2827.31,812.629Z" transform="translate(-2826.09 -804.094)" fill="#914f4e"/>
      </g>
    </g>
  </g>
</svg>
