<svg width="417" height="432" viewBox="0 0 417 432" fill="none" xmlns="http://www.w3.org/2000/svg">
<g clip-path="url(#clip0_10_455)">
<path d="M333.92 182.18L324.43 199.45C320.35 206.88 311.7 209.39 304.26 205.3C297.36 201.51 294.32 192.57 298.4 185.14L313.59 157.51C313.73 157.25 314 157.4 314.15 157.13C314.063 156.857 314.07 156.63 314.17 156.45C317.97 149.54 327.44 146.79 334.34 150.58C351.08 159.78 371.93 153.95 380.98 137.48C390.18 120.75 383.78 100.28 367.04 91.08C356.15 85.09 343.38 85.69 333.51 91.67C326.29 96.01 317.16 93.75 312.82 86.52C308.75 79.45 310.87 70.58 318.09 66.25C336.7 55.03 360.9 53.8 381.35 65.04C412.17 81.98 423.67 120.82 406.74 151.63C392.28 177.93 361.83 189.9 333.93 182.17L333.92 182.18ZM301.95 240.35L299.32 245.13C295.23 252.57 286.58 255.08 279.14 250.99C272.24 247.2 269.2 238.26 273.29 230.82L275.92 226.04C279.86 218.87 289.18 216.39 296.08 220.18C303.52 224.27 305.89 233.18 301.95 240.35Z" fill="#EBEBEB"/>
<path d="M273.63 56.5L275.62 43.34C276.48 37.68 281.37 34.07 287.04 34.93C292.3 35.73 296.31 40.68 295.45 46.34L292.26 67.39C292.23 67.59 292.02 67.56 291.99 67.76C292.11 67.9133 292.157 68.06 292.13 68.2C291.33 73.46 285.97 77.41 280.72 76.62C267.97 74.69 256.11 83.24 254.21 95.79C252.28 108.54 261.1 120.02 273.85 121.95C282.15 123.21 290.11 119.85 294.96 113.76C298.52 109.33 304.84 108.63 309.27 112.2C313.5 115.73 314.22 121.85 310.65 126.27C301.47 137.71 286.42 144.13 270.84 141.77C247.36 138.21 231.02 116.28 234.58 92.8C237.62 72.76 254.13 58.08 273.62 56.48L273.63 56.5ZM280.34 12.18L280.89 8.53998C281.75 2.86998 286.64 -0.74002 292.31 0.11998C297.57 0.91998 301.58 5.86998 300.72 11.54L300.17 15.18C299.34 20.64 294.01 24.39 288.76 23.59C283.09 22.73 279.51 17.64 280.34 12.18Z" fill="#EBEBEB"/>
<path d="M44.2698 85.79L38.6098 73.74C36.1798 68.56 38.2398 62.84 43.4298 60.4C48.2398 58.14 54.3298 60.03 56.7598 65.21L65.8098 84.48C65.8998 84.66 65.7098 84.75 65.7998 84.94C65.9798 85 66.0998 85.0933 66.1598 85.22C68.4198 90.04 66.1598 96.3 61.3498 98.56C49.6698 104.04 44.5698 117.74 49.9698 129.23C55.4498 140.9 69.1698 145.54 80.8398 140.06C88.4398 136.49 93.1898 129.28 93.8398 121.52C94.3398 115.85 99.1998 111.77 104.87 112.27C110.35 112.86 114.35 117.54 113.84 123.2C112.57 137.82 103.63 151.52 89.3598 158.22C67.8598 168.32 42.0898 159.16 31.9998 137.68C23.3898 119.34 28.9498 97.95 44.2598 85.79H44.2698ZM25.2198 45.22L23.6498 41.89C21.2098 36.7 23.2798 30.98 28.4698 28.54C33.2798 26.28 39.3698 28.17 41.8098 33.36L43.3798 36.69C45.7298 41.69 43.3798 47.76 38.5698 50.02C33.3798 52.46 27.5798 50.21 25.2298 45.21L25.2198 45.22Z" fill="#EBEBEB"/>
<path d="M261.97 324.24C261.97 324.24 237.88 366.84 237.87 366.87C234 375.46 230.76 383.06 229.45 387.15C229.45 387.17 229.43 387.19 229.43 387.22C228.93 388.76 228.72 389.79 228.87 390.16C228.88 390.19 228.88 390.22 228.9 390.24C230.68 393.12 298.43 426.05 301.18 426.4C303.93 426.77 305.15 418.94 303.54 415.57C301.91 412.18 281.62 387.98 281.62 387.98L305.27 345.21L261.98 324.24H261.97Z" fill="#914F4E"/>
<path d="M300.09 426.14C297.35 425.78 230.67 393.1 228.9 390.23C228.88 390.2 228.88 390.18 228.87 390.15C228.72 389.78 228.94 388.75 229.43 387.21C229.43 387.18 229.44 387.16 229.46 387.14C230.77 383.05 234.01 375.45 237.87 366.85C237.87 366.84 241.93 359.4 243.55 356.82L286.64 379.09L281.62 387.95C281.62 387.95 300.83 411.91 302.45 415.29C304.07 418.67 302.85 426.49 300.09 426.13V426.14Z" fill="#EBEBEB"/>
<path d="M301.33 425.22C298.56 424.8 231.06 390.03 229.33 387.07C228.65 385.96 233.15 375.83 238.93 363.74C238.99 363.61 239.05 363.49 239.11 363.36L282.91 385.31L282.51 386.04C282.51 386.04 302.39 410.91 303.95 414.36C305.49 417.79 304.08 425.65 301.32 425.22H301.33Z" fill="#263238"/>
<path d="M301.91 422.21C290.68 416.07 244.78 392.36 233.21 387.14C233.12 387.1 233.08 387.16 233.17 387.21C244.17 393.54 290.26 416.88 301.81 422.39C302.05 422.51 302.14 422.33 301.9 422.2L301.91 422.21Z" fill="white"/>
<path d="M286.11 388.06C282.06 384.92 276.23 382.78 271.17 384.21C270.97 384.26 271.06 384.54 271.22 384.57C276.36 385.45 280.94 386.68 285.8 388.61C286.14 388.75 286.4 388.28 286.11 388.05V388.06Z" fill="white"/>
<path d="M288.34 391.67C284.29 388.53 278.46 386.39 273.4 387.82C273.2 387.87 273.29 388.15 273.45 388.18C278.59 389.06 283.17 390.29 288.03 392.22C288.37 392.36 288.63 391.89 288.34 391.66V391.67Z" fill="white"/>
<path d="M290.57 395.29C286.52 392.15 280.69 390.01 275.63 391.44C275.43 391.5 275.52 391.77 275.68 391.8C280.82 392.68 285.4 393.91 290.26 395.84C290.6 395.98 290.86 395.51 290.57 395.28V395.29Z" fill="white"/>
<path d="M246.37 376.67C242.74 371.7 235.01 377.34 238.65 382.32C242.28 387.29 250.01 381.65 246.37 376.67Z" fill="white"/>
<path opacity="0.1" d="M285.49 389.77L290.34 420.08C296.45 423.12 300.67 425.12 301.32 425.22C304.08 425.65 305.5 417.79 303.96 414.36C302.78 411.75 291.09 396.85 285.48 389.77H285.49Z" fill="black"/>
<path d="M303.61 423.33C304.58 424.42 302.23 428.34 301.19 428.22C300.15 428.1 226.72 389.85 225.61 388.93C224.5 388 227.28 383.75 228.85 384.27C230.42 384.79 303.62 423.33 303.62 423.33H303.61Z" fill="#14475F"/>
<path d="M243.44 352.85L291.99 378.77C291.99 378.77 353.27 291.43 354.5 268.49C356.19 236.8 329.13 136.19 329.13 136.19L285.97 135.9C285.97 135.9 303.51 239.37 302.09 257.02C301.34 266.26 243.44 352.85 243.44 352.85V352.85Z" fill="#263238"/>
<path d="M296.23 368.74C293.73 366.94 270.72 353.6 253.19 345.09C253.07 345.03 252.99 345.2 253.1 345.27C258.42 348.78 292.77 367.6 296.1 368.93C296.21 368.97 296.34 368.82 296.23 368.74V368.74Z" fill="#37474F"/>
<path d="M308.09 234.91C306.08 219.77 303.88 204.65 301.36 189.59C298.83 174.46 296.17 159.33 293.01 144.32C292.62 142.49 292.22 140.66 291.82 138.83C291.76 138.55 291.33 138.63 291.38 138.92C294.04 153.81 296.77 168.7 299.22 183.63C301.67 198.56 303.95 213.52 306 228.51C306.51 232.22 307 235.94 307.48 239.65C307.98 243.49 308.54 247.34 308.58 251.21C308.62 254.93 308.04 258.56 306.73 262.04C305.44 265.46 303.61 268.64 301.76 271.78C293.95 284.99 258.98 342.72 258.07 344.4C258.01 344.51 258.16 344.62 258.23 344.51C266.62 331.49 292.65 289.9 300.57 276.47C304.14 270.42 308.24 264.28 309.4 257.22C310.61 249.87 309.05 242.19 308.08 234.9L308.09 234.91Z" fill="#37474F"/>
<path d="M295.65 352.85C295.65 352.85 295.16 402.09 295.16 402.13C295.42 411.55 295.82 419.8 296.42 424.05C296.42 424.07 296.42 424.1 296.43 424.12C296.66 425.72 296.91 426.74 297.21 427.01C297.23 427.03 297.24 427.06 297.27 427.07C300.13 428.89 375.45 429 378.08 428.12C380.72 427.25 378.41 419.68 375.49 417.34C372.55 415 343.74 402.06 343.74 402.06L343.76 352.86H295.66L295.65 352.85Z" fill="#914F4E"/>
<path d="M295.26 392.02C295.26 392.02 295.16 402.1 295.16 402.13C295.42 411.55 295.82 419.8 296.42 424.05C296.42 424.07 296.42 424.1 296.43 424.12C296.75 425.7 297.02 426.75 297.21 427.01C297.23 427.03 297.24 427.06 297.27 427.07C300.13 428.89 375.45 429 378.08 428.12C380.72 427.25 378.41 419.68 375.49 417.34C372.55 415 343.74 402.06 343.74 402.06V391.8L295.27 392.02H295.26Z" fill="#EBEBEB"/>
<path d="M378.12 428.03C375.45 428.88 299.53 427.54 296.67 425.65C295.57 424.95 295.12 413.88 294.96 400.48C294.96 400.34 294.96 400.2 294.96 400.06L343.95 400.37L343.92 401.2C343.92 401.2 372.75 414.71 375.68 417.12C378.58 419.52 380.79 427.19 378.12 428.02V428.03Z" fill="#263238"/>
<path d="M377.31 425.07C364.52 424.53 312.87 423.56 300.18 424C300.08 424 300.08 424.07 300.18 424.08C312.85 424.89 364.5 425.44 377.31 425.28C377.58 425.28 377.58 425.08 377.31 425.07Z" fill="white"/>
<path d="M348.03 401.43C343.01 400.4 336.84 401.07 332.93 404.59C332.78 404.73 332.97 404.94 333.14 404.89C338.14 403.41 342.79 402.49 348 402.07C348.37 402.04 348.39 401.51 348.03 401.43V401.43Z" fill="white"/>
<path d="M351.63 403.68C346.61 402.65 340.44 403.32 336.53 406.84C336.38 406.98 336.57 407.19 336.74 407.14C341.74 405.66 346.39 404.74 351.6 404.32C351.97 404.29 351.99 403.76 351.63 403.68V403.68Z" fill="white"/>
<path d="M355.22 405.93C350.2 404.9 344.03 405.57 340.12 409.09C339.97 409.23 340.16 409.44 340.33 409.39C345.33 407.91 349.98 406.99 355.19 406.57C355.56 406.54 355.58 406.01 355.22 405.93V405.93Z" fill="white"/>
<path d="M379.32 425.32C380.67 425.87 380.3 430.43 379.31 430.77C378.32 431.12 295.55 429.3 294.15 428.96C292.75 428.62 293.35 423.58 294.99 423.35C296.63 423.12 379.32 425.32 379.32 425.32V425.32Z" fill="#14475F"/>
<path d="M307.35 408.78C301.89 405.93 297.46 414.4 302.92 417.26C308.38 420.11 312.81 411.64 307.35 408.78Z" fill="white"/>
<path d="M328.59 136.1C328.59 136.1 328.59 136.11 328.57 136.14C328.28 137.03 312.77 179.53 311.31 180.21C309.66 180.97 345.58 241.31 347.7 269.34C349.06 287.27 346.39 388.72 346.39 388.72H293.88C293.88 388.72 296.4 297.51 297.6 268.61C298.07 257.4 261.54 201.61 261.1 166.86C260.96 155.91 268.83 135.9 268.83 135.9L328.59 136.1V136.1Z" fill="#263238"/>
<path d="M297.91 267.83C297.91 267.37 297.55 267.22 297.51 267.69C296.32 283.33 296.05 298.89 295.3 314.55C294.55 330.17 294.98 333.94 294.28 349.56C293.89 358.4 294.26 367.26 294.05 376.11C294.05 376.25 294.25 376.27 294.27 376.13C295.9 360.54 297.9 276.68 297.91 267.83V267.83Z" fill="#37474F"/>
<path d="M347.71 269.96C347.59 266.11 347.34 262.24 346.65 258.45C345.97 254.74 344.8 251.14 343.41 247.64C340.51 240.32 337.08 233.19 333.8 226.04C330.48 218.79 327.09 211.58 323.59 204.42C321.62 200.4 319.64 196.38 317.65 192.36C315.63 188.3 313.46 184.32 311.34 180.31C311.26 180.15 311.01 180.27 311.09 180.43C314.46 187.66 317.78 194.9 321.14 202.13C324.5 209.36 327.81 216.61 331.12 223.86C334.37 230.99 337.63 238.13 340.7 245.35C342.17 248.81 343.54 252.32 344.45 255.97C345.38 259.72 345.77 263.56 345.99 267.41C346.5 276.38 346.75 285.38 347.63 294.32C347.64 294.43 347.82 294.42 347.83 294.31C348.1 286.21 347.97 278.06 347.73 269.96H347.71Z" fill="#37474F"/>
<path d="M342.6 378.16C339.54 377.79 316.27 377.18 296.81 378.16C296.68 378.16 296.69 378.35 296.81 378.36C303.16 378.87 339 378.82 342.57 378.38C342.69 378.37 342.73 378.17 342.59 378.15L342.6 378.16Z" fill="#37474F"/>
<path d="M318.58 177.85C312.96 179.16 307.45 181.28 302.16 183.54C301.95 183.63 302.05 183.95 302.27 183.88C307.78 182.15 313.39 180.54 318.8 178.51C319.22 178.35 319.01 177.75 318.58 177.85V177.85Z" fill="#37474F"/>
<path d="M323.87 141.86C323.87 141.68 323.56 141.6 323.54 141.8C322.94 148.07 321.98 153.55 320.85 159.35C320.33 162.04 316.6 176.85 312 175.27C311.23 175.01 310.91 174.19 310.9 172.98C310.9 171.53 311.62 169.83 312 168.44C312.85 165.35 313.59 162.23 314.19 159.08C315.3 153.2 315.93 147.27 315.82 141.28C315.82 141.08 315.53 141.07 315.51 141.27C314.68 149.48 313.62 157.66 311.56 165.67C310.57 169.52 308 175.2 312.02 176.22C316.12 177.26 319.83 167.68 320.61 165.03C322.8 157.65 323.69 149.53 323.87 141.86V141.86Z" fill="#37474F"/>
<path d="M312.08 175.68C311.55 176.65 311.1 177.66 310.7 178.69C310.39 179.49 309.99 180.34 310 181.21C310 181.38 310.22 181.42 310.32 181.31C310.94 180.67 311.28 179.73 311.67 178.93C312.13 178 312.61 177.09 313.04 176.15C313.33 175.53 312.41 175.09 312.09 175.69L312.08 175.68Z" fill="#37474F"/>
<path d="M303.29 283.26C303.56 275.8 304.39 267.97 301.94 260.76C300.73 257.19 298.88 253.88 297.15 250.54C295.33 247.03 293.54 243.5 291.79 239.96C284.77 225.79 278.16 211.39 272.26 196.72C269.42 189.66 266.87 182.4 265.86 174.82C264.8 166.89 265.55 158.77 267.33 151C267.77 149.06 268.24 147.12 268.78 145.2C268.82 145.06 268.61 144.98 268.56 145.12C266.2 152.49 264.57 160.14 264.46 167.9C264.36 175.38 266 182.63 268.41 189.67C270.93 197 274.08 204.13 277.18 211.22C280.38 218.53 283.7 225.8 287.16 232.99C290.6 240.15 294.26 247.19 297.89 254.26C299.65 257.68 301.24 261.18 301.92 264.99C302.61 268.87 302.5 272.82 302.35 276.74C301.73 293.26 300.31 348.22 300.1 364.7C300.07 366.79 300.05 368.88 300.03 370.97C300.03 371.15 300.31 371.18 300.32 370.99C301.37 354.55 302.71 299.71 303.3 283.25L303.29 283.26Z" fill="#37474F"/>
<path d="M291.51 146.79C291.51 146.67 291.33 146.7 291.31 146.8C290.69 151.34 290.34 156.06 288.14 160.18C286.13 163.96 282.61 166.4 278.79 168.11C276.58 169.1 274.27 169.88 271.97 170.62C271.8 170.67 271.84 170.93 272.02 170.89C276.36 169.99 280.78 168.98 284.55 166.54C288.59 163.93 290.67 159.75 291.34 155.07C291.73 152.32 291.69 149.54 291.5 146.78L291.51 146.79Z" fill="#37474F"/>
<path d="M309.9 78.03C317.76 84.59 342.26 99.37 353.74 98.53C361.48 97.97 382 81.66 386.03 75.92C387.68 73.57 371.07 57.06 368.38 58.53C365.46 60.13 352.26 76.09 350.02 76.55C347.77 77.01 326.9 71.74 315.15 70.2C308.12 69.28 306.3 75.03 309.9 78.03V78.03Z" fill="#914F4E"/>
<path d="M381.41 80.6701C385.68 77.5701 397.4 63.6301 399.1 60.3701C400.8 57.1101 405 47.3701 402.63 45.8201C400.26 44.2701 398.81 47.0201 398.81 47.0201C398.81 47.0201 400.11 42.2301 397.41 41.2801C395.26 40.5201 393 44.2901 393 44.2901C393 44.2901 394.15 38.9701 391.35 38.3701C388.8 37.8301 387.39 42.5001 387.39 42.5001C387.39 42.5001 387.9 37.9501 385.34 37.9001C382.27 37.8401 381.38 45.7201 379.24 49.1801C378.75 49.9701 362.07 64.4801 362.07 64.4801L381.41 80.6801V80.6701Z" fill="#914F4E"/>
<path d="M387.23 42.3101C385.97 48.1501 385.28 50.5201 381.68 55.0001C381.61 55.0901 381.72 55.2101 381.81 55.1301C385.73 51.0701 386.75 48.3101 387.52 42.3301C387.56 42.0401 387.3 42.0401 387.24 42.3101H387.23Z" fill="#263238"/>
<path d="M392.941 44.3C391.731 50.26 390.261 52.78 386.841 57.74C386.791 57.81 386.911 57.9 386.961 57.83C390.721 53.24 392.711 50.4 393.141 44.29C393.161 44.01 392.991 44.03 392.941 44.29V44.3Z" fill="#263238"/>
<path d="M398.64 47.2701C397.05 52.9501 395.66 55.9101 391.72 60.3001C391.63 60.4001 391.77 60.5501 391.87 60.4501C396.32 56.3601 398.08 52.6901 398.8 47.3301C398.85 46.9601 398.73 46.9101 398.63 47.2601L398.64 47.2701Z" fill="#263238"/>
<path d="M362.07 64.47C362.07 64.47 365.47 58.45 366.94 55.51C368.41 52.57 371.42 43.7 374.19 43.15C377.3 42.54 377.21 51.07 374.63 56.33C374.63 56.33 381.67 62.9 379.43 68.07C378.94 69.19 374.4 73.53 373 73.61L362.08 64.46L362.07 64.47Z" fill="#914F4E"/>
<path d="M374.55 56.9701C377.38 59.4301 380.01 63.6201 379.43 67.3101C379.41 67.4201 379.56 67.4601 379.6 67.3501C380.76 63.4701 377.76 58.6001 375.1 56.5501C374.59 56.1601 373.82 56.3301 374.55 56.9601V56.9701Z" fill="#263238"/>
<path opacity="0.1" d="M392.36 38.9301L380.041 67.0001L376.02 76.1501L369.851 90.21C363.681 94.62 357.34 98.27 353.75 98.53C342.26 99.37 317.771 84.59 309.911 78.03C306.311 75.03 308.13 69.28 315.161 70.2C326.9 71.74 347.78 77.0101 350.03 76.5401C351.46 76.2401 357.32 69.6801 362.15 64.5301L362.08 64.4701C362.08 64.4701 365.481 58.45 366.951 55.51C368.421 52.57 371.431 43.7001 374.201 43.1501C376.571 42.6901 377.081 47.5201 376.041 52.1801C377.841 50.5601 379.12 49.38 379.25 49.17C381.39 45.71 382.281 37.8301 385.351 37.8901C387.911 37.9401 387.4 42.5001 387.4 42.5001C387.4 42.5001 388.81 37.83 391.36 38.37C391.79 38.46 392.12 38.6601 392.37 38.9301H392.36Z" fill="black"/>
<path d="M341.66 99.23L349.62 75.92C349.62 75.92 326.28 70.25 314.66 69.45C304.9 68.78 302.21 75.56 312.57 82.62C322.37 89.3 341.67 99.23 341.67 99.23H341.66Z" fill="#455A64"/>
<path d="M313.54 69.41L309.66 80.37C309.34 80.07 309.03 79.78 308.76 79.49L312.32 69.45C312.71 69.42 313.11 69.41 313.54 69.41V69.41ZM319.04 69.9L314.16 83.7C314.48 83.91 314.81 84.12 315.15 84.33L320.2 70.06C319.81 70 319.42 69.95 319.04 69.9ZM325.58 70.9L319.81 87.19C320.14 87.39 320.48 87.59 320.82 87.79L326.72 71.1C326.34 71.03 325.96 70.96 325.58 70.9ZM332.04 72.09L325.53 90.51C325.87 90.7 326.2 90.89 326.54 91.08L333.18 72.31C332.8 72.24 332.42 72.16 332.04 72.09ZM338.46 73.4L331.28 93.7C331.63 93.89 331.96 94.07 332.3 94.25L339.59 73.65C339.22 73.57 338.84 73.49 338.46 73.4V73.4ZM344.85 74.82L337.07 96.82C337.43 97.01 337.77 97.19 338.09 97.36L345.97 75.07C345.62 74.99 345.24 74.9 344.85 74.82Z" fill="#37474F"/>
<path d="M343.3 76.59C342.59 77.91 342.11 79.35 341.57 80.73C341 82.17 340.5 83.62 339.98 85.07C339.46 86.52 337.63 92.37 337.17 93.83C337.15 93.9 337.27 93.92 337.29 93.86C337.86 92.42 340.11 86.73 340.61 85.31C341.11 83.89 341.62 82.47 342.08 81.03C342.54 79.58 343.1 78.11 343.37 76.62C343.37 76.59 343.32 76.56 343.3 76.6V76.59Z" fill="#263238"/>
<path opacity="0.1" d="M344.01 92.37L341.67 99.23C341.67 99.23 322.38 89.3 312.58 82.62C303.48 76.42 304.44 70.43 311.44 69.53L344.02 92.37H344.01Z" fill="black"/>
<path d="M334.85 151.73L262.35 146C262.63 144.63 283.73 83.4501 301.15 70.3901C307.13 65.9001 317.53 70.43 318.78 71.63C330.94 83.3 335.89 151 334.85 151.73Z" fill="#455A64"/>
<path d="M321.75 75.8L297.36 73.91C297.7 73.54 298.04 73.18 298.38 72.84L321.05 74.6C321.29 74.98 321.52 75.38 321.75 75.8V75.8ZM324.18 81.36L293.29 78.97C293.03 79.32 292.77 79.68 292.52 80.05L324.6 82.53C324.46 82.13 324.32 81.74 324.18 81.36ZM326.31 88.03L289.2 85.16C288.97 85.52 288.75 85.89 288.53 86.26L326.63 89.2C326.52 88.81 326.41 88.42 326.31 88.03V88.03ZM327.97 94.67L285.6 91.39C285.4 91.75 285.2 92.12 285 92.49L328.23 95.83C328.15 95.44 328.06 95.05 327.97 94.67ZM329.36 101.29L282.32 97.65C282.13 98.02 281.94 98.39 281.76 98.76L329.58 102.46C329.51 102.06 329.43 101.67 329.36 101.29V101.29ZM330.54 107.89L279.26 103.93C279.08 104.29 278.91 104.66 278.74 105.03L330.73 109.06C330.67 108.67 330.61 108.28 330.54 107.89ZM331.57 114.48L276.37 110.21C276.21 110.58 276.04 110.95 275.88 111.32L331.74 115.64C331.68 115.25 331.63 114.87 331.57 114.48V114.48ZM332.47 121.07L273.63 116.52C273.47 116.89 273.31 117.26 273.16 117.63L332.61 122.23C332.57 121.84 332.52 121.46 332.47 121.07ZM333.26 127.64L271.01 122.83C270.85 123.2 270.7 123.57 270.56 123.94L333.38 128.8C333.34 128.42 333.3 128.03 333.26 127.64ZM333.94 134.21L268.49 129.15C268.35 129.52 268.2 129.89 268.06 130.25L334.04 135.36C334.01 134.98 333.97 134.6 333.94 134.21ZM334.5 140.76L266.08 135.47C265.94 135.85 265.8 136.23 265.66 136.59L334.58 141.92C334.56 141.54 334.53 141.16 334.5 140.76V140.76ZM334.91 147.3L263.77 141.8C263.63 142.2 263.5 142.57 263.38 142.92L334.95 148.45C334.94 148.1 334.92 147.71 334.91 147.3Z" fill="#37474F"/>
<path d="M316.5 81.56C312.56 82.28 306.19 76 303.79 71.05C303.63 70.71 304.31 67.25 304.94 63.02C305.31 60.45 305.67 57.57 305.8 54.93C305.82 54.39 322.19 59.8 322.19 59.8C322.19 59.8 320.28 65.26 320.07 69.88C320.06 70.27 320.07 70.63 320.13 70.97C320.13 71.02 320.14 71.08 320.14 71.15C320.37 73.23 320.29 80.86 316.49 81.56H316.5Z" fill="#914F4E"/>
<path d="M306.83 55.04C307.37 59.55 309.61 70.5 318.45 71.15C319.07 71.2 319.63 71.19 320.15 71.15C320.15 71.08 320.15 71.02 320.14 70.97C320.09 70.62 320.07 70.27 320.08 69.88C320.29 65.26 322.2 59.79 322.2 59.79C322.2 59.79 310.39 55.88 306.82 55.04H306.83Z" fill="#263238"/>
<path d="M301.78 37.26C300.48 43.28 304.99 59.98 309.48 63.42C315.99 68.4 325.95 68.1 330 60.43C333.93 53 327.66 31.33 322.71 28.29C315.42 23.8 303.7 28.37 301.78 37.27V37.26Z" fill="#914F4E"/>
<path d="M304.38 54.83C307.76 54.09 309.37 50.05 308.71 43.48C308.04 36.91 308.67 34.31 311.64 32.87C314.61 31.43 318.56 33.75 320.2 33.41C321.84 33.07 320.96 30.42 322.31 30.17C322.98 30.05 325.21 31.71 327.57 36.03C327.57 36.03 325.48 23.63 312.2 26.69C299.85 29.53 300.47 39.78 300.97 42.79C301.78 47.69 304.38 54.83 304.38 54.83V54.83Z" fill="#263238"/>
<path d="M308.32 50.93C308.32 50.93 303.92 45.85 301.58 47.47C299.24 49.09 302.94 56.73 305.97 57.51C309 58.29 309.78 55.5 309.78 55.5L308.32 50.92V50.93Z" fill="#914F4E"/>
<path d="M302.7 49.63C302.7 49.63 302.65 49.7 302.7 49.71C304.83 50.33 306.1 52.11 307.06 54C306.37 53.31 305.5 52.98 304.56 53.81C304.51 53.85 304.57 53.93 304.63 53.91C305.45 53.64 306.07 53.73 306.7 54.34C307.15 54.77 307.49 55.35 307.83 55.86C307.94 56.03 308.26 55.9 308.17 55.7C308.17 55.68 308.16 55.67 308.15 55.65C307.93 53.04 305.53 49.6 302.7 49.63V49.63Z" fill="#263238"/>
<path d="M326.16 44.51C326.16 44.51 326.26 44.54 326.27 44.59C326.53 45.73 327.02 46.98 328.14 47.09C328.17 47.09 328.19 47.15 328.14 47.16C326.85 47.31 326.21 45.64 326.15 44.52L326.16 44.51Z" fill="#263238"/>
<path d="M326.861 43.06C328.641 42.44 329.741 46.04 328.091 46.61C326.471 47.17 325.371 43.57 326.861 43.06Z" fill="#263238"/>
<path d="M317.28 45.59C317.81 45.63 318.3 45.57 318.82 45.55C319.41 45.53 319.89 45.57 320.39 45.21C320.66 45.02 320.73 44.53 320.57 44.25C320.19 43.6 319.46 43.44 318.74 43.44C317.97 43.44 317.37 43.63 316.76 44.12C316.18 44.59 316.58 45.54 317.27 45.58L317.28 45.59Z" fill="#263238"/>
<path d="M327.21 40.24C326.68 40.24 326.2 40.13 325.67 40.07C325.08 40 324.61 40 324.14 39.6C323.89 39.38 323.86 38.9 324.05 38.63C324.49 38.02 325.23 37.93 325.94 37.98C326.71 38.04 327.29 38.29 327.85 38.82C328.39 39.34 327.91 40.25 327.21 40.23V40.24Z" fill="#263238"/>
<path d="M321.441 57.42C321.781 57.61 322.141 57.91 322.561 57.83C322.961 57.76 323.371 57.46 323.701 57.23C323.731 57.21 323.781 57.23 323.761 57.27C323.581 57.78 323.041 58.21 322.491 58.26C321.961 58.31 321.591 57.93 321.341 57.5C321.311 57.44 321.391 57.39 321.441 57.42V57.42Z" fill="#263238"/>
<path d="M317.061 47.02C317.321 46.83 317.631 46.71 317.931 46.61C318.241 46.52 318.571 46.47 318.921 46.48C319.261 46.5 319.621 46.57 319.951 46.73C320.291 46.89 320.591 47.14 320.841 47.45L321.281 48L320.621 48.05C320.171 48.09 319.691 48.17 319.251 48.32C318.811 48.47 318.381 48.68 318.031 49.07C318.151 48.53 318.561 48.08 319.021 47.81C319.491 47.53 319.991 47.37 320.551 47.31L320.331 47.91C319.961 47.49 319.471 47.21 318.891 47.1C318.321 46.99 317.701 46.97 317.061 47.01V47.02Z" fill="#263238"/>
<path d="M319.511 49.42C319.961 49.15 320.411 48.97 320.781 48.58C320.871 48.49 321.191 48.11 321.151 48.02C321.061 47.79 320.891 47.54 320.731 47.32C320.931 47.51 321.151 47.68 321.291 47.97C321.311 48.23 321.191 48.53 320.941 48.76C320.541 49.13 319.961 49.35 319.511 49.41V49.42Z" fill="#263238"/>
<path d="M322.23 55.01C323.5 54.05 325.39 53.72 326.59 53.54C326.71 53.48 326.76 53.2 326.75 53.07L326.02 50.7C326.38 50.77 328.17 51.04 328.02 50.6C326.77 46.95 325.37 42.9 323.36 39.53C323.3 39.42 323.12 39.5 323.16 39.62C324.23 43.17 325.91 46.52 327.03 50.07C326.47 50.02 325.54 49.89 325.09 50.02C324.98 50.09 326 52.48 326.06 52.88C326.06 52.88 323.6 52.83 322.07 54.53C321.67 54.97 321.62 55.48 322.22 55.02L322.23 55.01Z" fill="#263238"/>
<path d="M324.31 53.26C324.31 53.26 324.62 55.52 323.56 56.35C322.34 57.3 321 55.93 322.09 54.43C322.66 53.64 324.3 53.27 324.3 53.27L324.31 53.26Z" fill="#263238"/>
<path d="M324.33 54.6C324.26 55.24 324.06 55.95 323.57 56.34C322.93 56.84 322.25 56.7 321.92 56.22C321.92 56.22 321.92 56.18 321.91 56.16C322.85 54.67 323.73 54.45 324.35 54.59L324.33 54.6Z" fill="#FF99BA"/>
<path d="M363.68 52.8L326.25 50.09L326.43 41.57L363.95 40.44L363.68 52.8Z" fill="#37474F"/>
<path d="M384.61 56.7L347.2 52.92L347.48 39.62L385.01 37.42L384.61 56.7Z" fill="#455A64"/>
<path d="M402.36 61.56L374 56.58L374.41 37.09L402.95 33.32L402.36 61.56Z" fill="#37474F"/>
<path d="M404.59 47.48C404.44 54.6 403.45 60.36 402.38 60.34C401.31 60.32 400.57 54.52 400.72 47.4C400.87 40.28 401.86 34.52 402.93 34.54C404 34.56 404.74 40.36 404.59 47.48Z" fill="#14475F"/>
<path d="M300.31 85.07C311.38 98.82 341.78 122.41 349.12 120.09C362.66 115.81 370.73 78.71 373.01 71.56C373.98 68.51 347.38 64.22 346.27 67.46C345.31 70.28 342.48 89.89 339.98 90.41C338.95 90.62 324.76 83.45 308.41 78.27C295.88 74.3 297.03 81 300.31 85.07V85.07Z" fill="#914F4E"/>
<path d="M344.97 73.48C344.97 73.48 345.88 70.46 345.87 62.78C345.86 56.78 350.01 42.67 365.54 36.11C371.49 33.6 375.86 36.68 370.14 40.38C366.11 42.99 363.09 44.46 362.02 45.68C362.02 45.68 369.34 46.39 371.45 50.09C372.4 51.74 374.87 56.31 376.3 60.14C376.3 60.14 375.55 60.67 374.5 61.22C374.5 61.22 377.01 65.96 373.26 70.68L371.47 77L344.97 73.48V73.48Z" fill="#914F4E"/>
<path d="M347.48 57.64C349.49 55.22 353.82 50.15 358.81 47.24C364.35 44.01 375.89 39.28 378.24 43.39C379.96 46.41 375.71 48.6 375.71 48.6C375.71 48.6 380.89 47.65 381.85 50.71C382.72 53.5 379.33 55 379.33 55C379.33 55 382.57 54.96 382.89 57.82C383.28 61.25 376.42 60.76 373.81 64.57C373.22 65.43 347.48 57.63 347.48 57.63V57.64Z" fill="#914F4E"/>
<path d="M361.25 53.67C363.51 51.7 369.79 48.54 375.59 48.54C375.72 48.54 375.79 48.64 375.67 48.66C369.28 50.02 363.62 52.52 361.27 53.72C361.24 53.74 361.21 53.69 361.24 53.67H361.25Z" fill="#263238"/>
<path d="M364.67 59.16C366.79 57.66 373.41 54.7 379.29 54.89C379.42 54.89 379.49 55 379.36 55.02C372.62 56.17 367.1 58.15 364.69 59.21C364.66 59.22 364.64 59.18 364.66 59.16H364.67Z" fill="#263238"/>
<path d="M327.32 111.06L339.39 89.59C339.39 89.59 317.47 79.76 306.19 76.86C296.71 74.42 292.84 80.6 301.74 89.43C310.16 97.78 327.33 111.06 327.33 111.06H327.32Z" fill="#455A64"/>
<path d="M305.28 76.66L299.57 87.04C299.29 86.7 299.04 86.36 298.82 86.03L304.09 76.46C304.47 76.51 304.87 76.57 305.28 76.66V76.66Z" fill="#37474F"/>
<path d="M311.67 78.52L304.31 91.9C304.02 91.63 303.73 91.36 303.45 91.1L310.57 78.16C310.93 78.27 311.3 78.39 311.67 78.52Z" fill="#37474F"/>
<path d="M317.87 80.72L309.28 96.34C308.99 96.08 308.69 95.83 308.4 95.57L316.79 80.32C317.15 80.45 317.51 80.59 317.87 80.72V80.72Z" fill="#37474F"/>
<path d="M323.98 83.09L314.34 100.62C314.04 100.38 313.74 100.13 313.44 99.88L322.91 82.67C323.27 82.81 323.63 82.95 323.98 83.09V83.09Z" fill="#37474F"/>
<path d="M330.03 85.56L319.45 104.81C319.15 104.57 318.85 104.33 318.55 104.07L328.97 85.12C329.33 85.27 329.68 85.42 330.03 85.56V85.56Z" fill="#37474F"/>
<path d="M336.04 88.12L324.59 108.92C324.31 108.7 324.01 108.46 323.69 108.21L334.98 87.66C335.36 87.82 335.71 87.97 336.04 88.12V88.12Z" fill="#37474F"/>
<path d="M333.05 89.09C332.11 90.26 331.38 91.59 330.6 92.84C329.78 94.15 329.02 95.48 328.25 96.81C327.48 98.14 324.61 103.56 323.89 104.91C323.86 104.97 323.97 105.02 324.01 104.96C324.83 103.65 328.08 98.46 328.83 97.16C329.58 95.85 330.34 94.55 331.05 93.22C331.76 91.88 332.58 90.53 333.12 89.12C333.13 89.09 333.08 89.05 333.06 89.08L333.05 89.09Z" fill="#263238"/>
<path d="M304.87 92.41C310.51 96.61 316.45 101.67 321.84 106.25C323.68 107.84 325.52 109.43 327.41 110.94L327.19 110.99C327.63 110.34 328.07 109.7 328.54 109.06C328.17 109.81 327.78 110.55 327.39 111.28L327.25 111.19C319.14 105.79 311.85 99.2 304.88 92.41H304.87Z" fill="#263238"/>
<path d="M305.45 93.9601C306.96 94.3801 308.16 95.1201 309.27 96.2101C307.71 96.0601 306.36 95.2201 305.45 93.9601Z" fill="#263238"/>
<path d="M228.43 248.43V285.66C228.43 301.67 216.4 313.7 200.36 313.7C185.49 313.7 172.29 301.67 172.29 285.66V226.1C172.29 225.54 172.9 225.54 172.9 224.96C172.493 224.587 172.29 224.207 172.29 223.82C172.29 208.92 185.48 195.75 200.36 195.75C236.44 195.75 265.63 167.13 265.63 131.62C265.63 96.11 236.45 67.49 200.36 67.49C176.91 67.49 156.3 80.1 145.39 98.98C137.37 112.73 120.21 117.3 106.46 109.28C93.31 101.28 88.7 84.66 96.72 70.93C117.33 35.43 156.3 11.37 200.36 11.37C266.79 11.37 321.2 65.19 321.2 131.6C321.2 188.29 281.67 235.82 228.43 248.41V248.43ZM228.43 373.82V384.12C228.43 400.16 216.4 412.19 200.36 412.19C185.49 412.19 172.29 400.16 172.29 384.12V373.82C172.29 358.37 185.48 345.78 200.36 345.78C216.4 345.78 228.43 358.37 228.43 373.82Z" fill="#14475F"/>
<path opacity="0.6" d="M211 23.71C259.06 17.66 302.39 66.65 310.21 110.8C311.1 115.66 311.53 121.01 311.6 125.96C311.54 127.65 311.49 129.33 311.38 131C299.7 83.59 261.47 32.21 211 23.71V23.71Z" fill="white"/>
<path d="M332.4 316.08L323.12 332.96C319.13 340.22 310.68 342.68 303.4 338.68C296.66 334.97 293.68 326.24 297.67 318.97L312.52 291.96C312.66 291.71 312.92 291.85 313.07 291.59C312.99 291.323 312.997 291.103 313.09 290.93C316.8 284.17 326.06 281.49 332.8 285.19C349.16 294.18 369.55 288.48 378.39 272.38C387.38 256.03 381.13 236.02 364.77 227.02C354.13 221.17 341.64 221.75 331.99 227.6C324.94 231.84 316.01 229.63 311.77 222.57C307.79 215.66 309.86 206.99 316.92 202.76C335.11 191.8 358.76 190.59 378.75 201.58C408.88 218.14 420.12 256.1 403.57 286.22C389.44 311.93 359.67 323.63 332.39 316.07L332.4 316.08ZM301.14 372.94L298.57 377.61C294.57 384.88 286.12 387.34 278.85 383.34C272.11 379.63 269.13 370.9 273.13 363.62L275.7 358.95C279.55 351.94 288.66 349.52 295.41 353.22C302.68 357.22 305 365.92 301.15 372.93L301.14 372.94Z" fill="#14475F"/>
<g opacity="0.6">
<path d="M332.4 316.08L323.12 332.96C319.13 340.22 310.68 342.68 303.4 338.68C296.66 334.97 293.68 326.24 297.67 318.97L312.52 291.96C312.66 291.71 312.92 291.85 313.07 291.59C312.99 291.323 312.997 291.103 313.09 290.93C316.8 284.17 326.06 281.49 332.8 285.19C349.16 294.18 369.55 288.48 378.39 272.38C387.38 256.03 381.13 236.02 364.77 227.02C354.13 221.17 341.64 221.75 331.99 227.6C324.94 231.84 316.01 229.63 311.77 222.57C307.79 215.66 309.86 206.99 316.92 202.76C335.11 191.8 358.76 190.59 378.75 201.58C408.88 218.14 420.12 256.1 403.57 286.22C389.44 311.93 359.67 323.63 332.39 316.07L332.4 316.08ZM301.14 372.94L298.57 377.61C294.57 384.88 286.12 387.34 278.85 383.34C272.11 379.63 269.13 370.9 273.13 363.62L275.7 358.95C279.55 351.94 288.66 349.52 295.41 353.22C302.68 357.22 305 365.92 301.15 372.93L301.14 372.94Z" fill="white"/>
</g>
<path d="M30.6302 238.06L24.8902 220.84C22.4202 213.43 26.1302 206.02 33.5502 203.55C40.4302 201.26 48.3702 204.79 50.8402 212.2L60.0202 239.74C60.1102 240 59.8402 240.09 59.9302 240.36C60.1702 240.473 60.3202 240.62 60.3802 240.8C62.6802 247.69 58.6202 255.81 51.7402 258.1C35.0502 263.66 25.9602 281.4 31.4302 297.82C36.9902 314.5 54.8202 322.97 71.5102 317.41C82.3702 313.79 89.9502 304.78 92.0802 294.37C93.6602 286.78 100.9 282.02 108.49 283.6C115.81 285.27 120.49 292.25 118.9 299.84C114.84 319.43 100.55 336.56 80.1602 343.35C49.4402 353.59 15.9902 337.08 5.75017 306.37C-2.98983 280.15 7.96017 252.08 30.6402 238.05L30.6302 238.06ZM11.3002 180.07L9.71017 175.3C7.24017 167.88 10.9502 160.47 18.3602 157.99C25.2402 155.7 33.1802 159.23 35.6502 166.65L37.2402 171.41C39.6202 178.56 35.4702 186.41 28.5902 188.7C21.1702 191.17 13.6702 187.2 11.2902 180.06L11.3002 180.07Z" fill="#14475F"/>
<g opacity="0.6">
<path d="M30.6302 238.06L24.8902 220.84C22.4202 213.43 26.1302 206.02 33.5502 203.55C40.4302 201.26 48.3702 204.79 50.8402 212.2L60.0202 239.74C60.1102 240 59.8402 240.09 59.9302 240.36C60.1702 240.473 60.3202 240.62 60.3802 240.8C62.6802 247.69 58.6202 255.81 51.7402 258.1C35.0502 263.66 25.9602 281.4 31.4302 297.82C36.9902 314.5 54.8202 322.97 71.5102 317.41C82.3702 313.79 89.9502 304.78 92.0802 294.37C93.6602 286.78 100.9 282.02 108.49 283.6C115.81 285.27 120.49 292.25 118.9 299.84C114.84 319.43 100.55 336.56 80.1602 343.35C49.4402 353.59 15.9902 337.08 5.75017 306.37C-2.98983 280.15 7.96017 252.08 30.6402 238.05L30.6302 238.06ZM11.3002 180.07L9.71017 175.3C7.24017 167.88 10.9502 160.47 18.3602 157.99C25.2402 155.7 33.1802 159.23 35.6502 166.65L37.2402 171.41C39.6202 178.56 35.4702 186.41 28.5902 188.7C21.1702 191.17 13.6702 187.2 11.2902 180.06L11.3002 180.07Z" fill="white"/>
</g>
<path d="M144.3 129.37C144.28 130.56 143.8 131.35 142.97 131.92C142.28 132.39 141.56 132.81 140.82 133.19C141.03 130.32 140.91 127.36 140.85 124.52C140.78 121.19 140.51 117.93 140.17 114.64C140.17 114.59 140.1 114.6 140.1 114.64C140.23 117.98 140.25 121.33 140.29 124.66C140.33 127.58 140.17 130.54 140.23 133.46C139.47 133.81 138.69 134.13 137.9 134.4C137.95 133.38 137.99 132.36 138.03 131.34C138.13 128.27 137.98 125.23 137.94 122.17C137.94 122.1 137.85 122.09 137.85 122.17C137.85 125.15 137.64 128.17 137.51 131.15C137.46 132.3 137.41 133.45 137.34 134.6C136.8 134.78 136.27 134.94 135.74 135.1C135.39 135.2 135.03 135.3 134.68 135.38C134.73 133.37 134.67 131.33 134.67 129.36C134.67 126.17 134.48 122.99 134.43 119.8C134.43 119.69 134.29 119.69 134.29 119.8C134.32 122.98 134.17 126.17 134.13 129.35C134.11 131.39 134.01 133.48 134 135.56C129.26 136.65 124.38 136.64 119.63 135.88C116.87 135.44 114.15 134.76 111.46 133.91C110.81 133.71 109.16 133.13 107.53 132.53C107.55 131.57 107.53 130.6 107.56 129.67C107.62 127.55 107.56 125.4 107.67 123.29C107.67 123.23 107.6 123.23 107.6 123.29C107.43 125.42 107.15 127.52 107.03 129.66C106.99 130.52 106.92 131.4 106.88 132.3C106.3 132.08 105.74 131.87 105.25 131.67C105.57 127.66 105.48 123.58 105.6 119.58C105.6 119.48 105.49 119.48 105.48 119.58C105.21 123.5 104.72 127.47 104.63 131.42C104.05 131.18 103.65 130.99 103.55 130.9C102.76 130.14 103.84 114.31 104.02 110.61C104.35 103.72 106.12 89.75 107.83 83.1C109.29 77.41 112.3 69.29 126.46 69.53C136.85 69.71 141.69 80.57 142.54 86.87C142.98 90.12 144.35 127.55 144.31 129.37H144.3Z" fill="#263238"/>
<path d="M113.99 125.07C110.12 148.56 108.84 172.81 111.45 177.49C115.48 184.73 144.91 202.27 155.03 205.94C158.34 207.14 168.26 185.29 166.28 182.09C164.3 178.88 131.96 162.47 130.42 160.75C129.6 159.83 126.62 139.93 123.8 126.34C121.17 113.72 115.16 117.94 113.99 125.08V125.07Z" fill="#914F4E"/>
<path d="M143.63 201.74L156.54 174.28C156.54 174.28 134.02 161.37 131.39 159.56C130.28 158.79 126.47 134.17 124.29 123.45C122.86 116.4 116.71 112.37 112.94 125.75C110.73 133.58 105.76 172.05 110.26 178.95C113.85 184.44 143.63 201.74 143.63 201.74V201.74Z" fill="#14475F"/>
<path d="M137.43 196.33C138.04 194.22 141.98 186.06 142.98 184.04C143.96 182.06 148.28 174.05 149.32 171.97C149.38 171.86 149.55 171.9 149.5 172.02C148.51 174.09 144.83 182.41 143.85 184.44C142.86 186.48 138.84 194.57 137.54 196.37C137.49 196.43 137.41 196.39 137.43 196.32V196.33Z" fill="#263238"/>
<path opacity="0.1" d="M113.63 123.56C113.52 123.88 113.4 124.22 113.29 124.58C113.17 124.95 113.05 125.35 112.94 125.75C112.56 127.09 112.09 129.34 111.62 132.19C111.53 132.71 111.44 133.24 111.36 133.79C111.31 134.13 111.25 134.47 111.2 134.83C111.09 135.57 110.97 136.33 110.86 137.11C110.84 137.25 110.83 137.38 110.8 137.52C110.68 138.38 110.55 139.26 110.44 140.17C110.35 140.82 110.26 141.48 110.19 142.16C110.1 142.83 110.02 143.51 109.95 144.2C109.91 144.54 109.87 144.89 109.83 145.24C109.4 149.06 109.03 153.08 108.78 156.97C108.71 158.02 108.65 159.07 108.61 160.11C108.57 160.8 108.55 161.49 108.53 162.16C108.5 162.83 108.48 163.5 108.47 164.15C108.34 171.01 108.81 176.67 110.28 178.94C112.7 182.66 127.14 191.8 136.2 197.3L121.27 117.7C121.15 117.6 121.02 117.51 120.89 117.43C120.06 116.91 119.15 116.75 118.22 117.09C117.84 117.23 117.44 117.45 117.06 117.77C116.8 117.99 116.54 118.25 116.28 118.54C116.01 118.84 115.76 119.17 115.51 119.55C114.86 120.55 114.23 121.87 113.64 123.54L113.63 123.56Z" fill="#020100"/>
<path d="M208.03 430.46C205.46 431.3 131.99 430.65 129.2 428.85C128.14 428.17 127.61 417.47 127.34 404.52C127.28 401.72 121.73 356.64 121.73 356.64L170.85 356.93L174.71 404.8C174.71 404.8 202.73 417.63 205.57 419.93C208.4 422.23 210.61 429.63 208.03 430.46Z" fill="#914F4E"/>
<path d="M208.02 430.46C205.45 431.3 131.98 430.65 129.19 428.85C128.39 428.34 127.88 422.07 127.56 413.42C137.06 415.6 190.48 419.99 196.62 419.25C202.55 418.54 188.81 411.47 186.32 410.22C194.38 414.02 203.95 418.64 205.56 419.93C208.38 422.23 210.59 429.63 208.01 430.47L208.02 430.46Z" fill="#263238"/>
<path d="M70.5601 157.91C70.5601 157.91 57.7201 176.56 64.7801 196.82C76.8401 231.43 107.48 270.37 108.42 274.82C110.64 285.32 122.45 392.93 122.45 392.93L177.34 392.59C177.34 392.59 168.31 301.32 158.99 271.17C153.9 254.71 124.84 209.59 112.3 187.57C111.18 185.6 113.82 177.1 113.82 177.1L70.5601 157.9V157.91Z" fill="#37474F"/>
<path d="M171.85 382.95C163.33 382.78 137.53 382.07 126.17 382.99C126.08 382.99 126.08 383.14 126.17 383.15C130.07 383.76 163.33 383.35 171.85 383.18C172.01 383.18 172.01 382.95 171.85 382.95Z" fill="#263238"/>
<path d="M61.4101 183.37C65.0801 189.28 68.9501 195.07 72.7001 200.92C76.4501 206.78 80.1901 212.65 83.8801 218.55C91.2501 230.34 98.4201 242.26 105.46 254.24C108.76 259.86 111.9 265.53 114.14 271.65C116.36 277.71 117.84 284 118.92 290.33C120 296.71 120.69 303.15 121.34 309.59C122.03 316.44 122.7 323.3 123.38 330.15C124.77 344.18 126.16 358.2 127.55 372.23C127.72 373.95 127.89 375.67 128.04 377.39C128.06 377.64 127.61 377.69 127.58 377.43C126.01 363.49 124.73 349.51 123.31 335.56C122.61 328.61 121.9 321.66 121.2 314.72C120.55 308.26 119.93 301.79 119 295.36C118.09 289.04 116.89 282.75 115.05 276.62C113.12 270.22 110.36 264.2 107.07 258.36C100.34 246.41 93.2001 234.67 86.0701 222.95C78.8701 211.13 71.6101 199.34 64.0701 187.73C63.1401 186.3 62.2001 184.87 61.2301 183.46C61.1601 183.35 61.3501 183.25 61.4201 183.36L61.4101 183.37Z" fill="#263238"/>
<path d="M74.23 430.82C71.53 430.62 2.01 401.45 0.1 398.75C0.04 398.66 0 398.48 0 398.23C0.04 395.83 33.28 335.49 33.28 335.49L78.72 354.2L52.96 394.53C52.96 394.53 74.12 416.94 75.89 420.13C77.65 423.32 76.92 431.01 74.23 430.82V430.82Z" fill="#914F4E"/>
<path d="M75.8998 420.12C77.6498 423.32 76.9298 431 74.2398 430.81C71.5398 430.61 2.00977 401.44 0.0997656 398.74C0.0397656 398.65 0.00976562 398.47 0.00976562 398.22C0.0197656 397.44 3.57976 390.47 8.35977 381.45C18.2198 362.85 33.2898 335.49 33.2898 335.49L78.7298 354.19L52.9698 394.51C52.9698 394.51 58.8098 400.7 64.5998 407.03L64.6198 407.05C69.8598 412.77 75.0498 418.6 75.8998 420.11V420.12Z" fill="#914F4E"/>
<path d="M74.2398 430.82C71.5398 430.62 2.00977 401.45 0.0997656 398.75C0.0397656 398.66 0.00976562 398.48 0.00976562 398.23C0.0197656 397.45 3.57976 390.48 8.35977 381.46C20.3598 394.09 67.7098 417.1 69.2698 416.45C70.8798 415.77 65.0098 407.64 64.6198 407.07C69.8598 412.79 75.0498 418.62 75.8998 420.13C77.6498 423.33 76.9298 431.01 74.2398 430.82V430.82Z" fill="#263238"/>
<path d="M59.6598 388.21L12.5298 365.86C12.5298 365.86 73.3198 274.53 73.8698 267.6C74.3598 261.46 47.1798 207.66 46.2798 192.06C45.2998 175.23 53.5598 162.32 62.5598 154.35L113.82 177.1C113.82 177.1 109.34 186.25 100.51 191.1C100.51 191.1 126.79 253.23 125.02 272.21C123.24 291.3 59.6498 388.2 59.6498 388.2L59.6598 388.21Z" fill="#37474F"/>
<path d="M62.2798 377.39C55.7498 374.05 57.6698 374.91 51.0998 371.65C47.8798 370.06 26.7298 359.6 23.4398 358.69C23.3698 358.67 23.3098 358.79 23.3698 358.84C26.1298 360.85 47.4798 370.9 50.7298 372.42C57.3698 375.54 55.4998 374.56 62.1798 377.6C62.3098 377.66 62.3998 377.45 62.2798 377.39V377.39Z" fill="#263238"/>
<path d="M108.15 191.61C102.54 191.92 96.9096 192.99 91.4696 194.24C91.2596 194.29 91.2996 194.6 91.5296 194.57C97.0996 193.86 102.75 193.26 108.26 192.25C108.69 192.17 108.58 191.58 108.15 191.6V191.61Z" fill="#263238"/>
<path d="M102.309 188.49C101.659 189.3 101.069 190.18 100.529 191.07C100.109 191.76 99.5994 192.49 99.4794 193.3C99.4594 193.46 99.6594 193.53 99.7694 193.45C100.469 192.95 100.929 192.13 101.429 191.45C102.009 190.66 102.609 189.88 103.159 189.08C103.529 188.55 102.709 187.99 102.309 188.49V188.49Z" fill="#263238"/>
<path d="M113.36 173.64C113.38 173.55 113.21 173.47 113.18 173.56C112.1 176.53 110.9 179.05 109.57 181.72C108.95 182.96 105.06 189.62 102.58 188.16C102.16 187.92 102.07 187.47 102.21 186.88C102.38 186.17 102.99 185.45 103.38 184.83C104.23 183.45 105.03 182.04 105.74 180.59C107.07 177.89 108.13 175.09 108.77 172.15C108.79 172.05 108.63 172 108.59 172.1C107.15 175.98 105.58 179.81 103.45 183.41C102.43 185.14 100.27 187.53 102.48 188.62C104.73 189.74 108 185.62 108.76 184.45C110.89 181.18 112.36 177.35 113.36 173.64V173.64Z" fill="#263238"/>
<path d="M101.31 193.13C103.13 197.13 104.73 201.1 106.44 205.08C108.1 208.97 109.66 212.9 111.17 216.85C114.22 224.84 116.93 232.96 119.31 241.17C120.48 245.23 121.56 249.32 122.53 253.44C123.5 257.57 124.45 261.74 124.82 265.97C125.19 270.22 124.84 274.4 123.61 278.49C122.36 282.63 115.34 296.5 113.42 300.37C112.24 302.73 111.85 302.41 112.42 301.21C114.04 297.82 123.68 277.3 123.49 268.62C123.4 264.43 122.59 260.3 121.69 256.22C120.78 252.05 119.74 247.92 118.6 243.81C116.36 235.71 113.67 227.77 110.91 219.84C109.36 215.4 107.69 211 106.12 206.56C104.54 202.09 102.89 198.07 101.14 193.19C101.09 193.06 101.28 192.99 101.34 193.11L101.31 193.13Z" fill="#263238"/>
<path d="M62.6698 179.52C63.5898 179.19 64.8498 179.77 65.7798 179.94C66.9798 180.16 68.1798 180.29 69.3998 180.35C70.5998 180.41 71.7998 180.37 72.9898 180.27C74.1798 180.17 75.3998 180.04 76.4398 179.4C78.1998 178.33 79.6798 176.43 80.8798 174.8C82.1998 173 83.5698 170.93 84.3698 168.84C84.4198 168.71 84.5998 168.8 84.5598 168.93C84.1598 170.15 83.8598 171.38 83.3498 172.58C82.8798 173.7 82.2698 174.77 81.6198 175.8C80.4198 177.73 79.0398 179.78 76.9998 180.91C74.8598 182.09 72.1298 181.99 69.7698 181.82C68.3998 181.72 67.0398 181.53 65.7098 181.23C64.7398 181.01 63.1198 180.84 62.5098 179.98C62.3998 179.83 62.4598 179.6 62.6398 179.53L62.6698 179.52Z" fill="#263238"/>
<path d="M26.6201 357.38C35.1801 344.77 43.5801 332.05 51.8401 319.24C60.1201 306.39 68.2501 293.45 76.2701 280.44C78.1901 277.33 80.4001 274.22 81.6501 270.77C83.0101 267.01 82.3101 263.35 81.1601 259.64C79.0601 252.84 76.4201 246.22 73.5601 239.7C70.6901 233.17 67.6001 226.74 64.5501 220.29C61.5301 213.89 58.3101 207.47 56.0501 200.75C53.8901 194.34 53.1101 187.71 54.9201 181.1C56.7101 174.55 60.4801 168.7 64.4101 163.24C65.4501 161.8 66.5001 160.37 67.5401 158.94C67.6201 158.83 67.7901 158.97 67.7001 159.07C63.3801 164.76 59.1501 170.78 56.5801 177.49C55.3101 180.81 54.4701 184.3 54.3401 187.86C54.2201 191.47 54.8501 195.06 55.8701 198.51C57.8601 205.22 61.0401 211.59 64.0101 217.91C67.0401 224.37 70.1601 230.79 73.0701 237.3C76.0101 243.85 78.7501 250.5 80.9801 257.32C81.9801 260.36 83.0901 263.54 82.9801 266.78C82.8601 270.33 81.1301 273.51 79.3301 276.48C71.5201 289.42 63.4301 302.2 55.2401 314.9C47.0201 327.65 38.6401 340.3 30.1301 352.86C29.0601 354.44 27.9801 356.03 26.9101 357.61C26.7801 357.81 26.4901 357.57 26.6301 357.37L26.6201 357.38Z" fill="#263238"/>
<path d="M113.82 177.1L118.14 155.3C118.14 155.3 125.78 152.6 125.68 142.69C125.64 138.13 123.48 120.3 118.34 113.26C113.52 106.65 105.76 108.27 101.1 110.56C91.9703 115.05 79.0103 127.68 62.5503 154.35L113.81 177.1H113.82Z" fill="#14475F"/>
<path d="M105.67 147.85C107.75 148.7 109.82 149.67 111.73 150.96C112.68 151.6 113.6 152.31 114.51 153.05C114.96 153.42 115.43 153.76 115.89 154.1C116.37 154.45 116.89 154.8 117.44 154.96C117.49 154.97 117.46 155.08 117.41 155.07C116.86 154.96 116.34 154.85 115.82 154.63C115.33 154.43 114.86 154.14 114.4 153.84C113.43 153.2 112.48 152.49 111.51 151.84C109.56 150.52 107.61 149.2 105.57 148.09C105.48 148.04 105.57 147.8 105.66 147.84L105.67 147.85Z" fill="#263238"/>
<path d="M99.6502 149.26C101.49 149.44 103.33 149.75 105.11 150.23C106 150.47 106.87 150.78 107.74 151.13C108.15 151.3 108.56 151.47 108.97 151.65C109.42 151.85 109.84 152.14 110.29 152.33C110.34 152.35 110.31 152.46 110.26 152.44C109.83 152.28 109.37 152.22 108.92 152.09C108.48 151.96 108.04 151.83 107.59 151.71C106.7 151.46 105.81 151.22 104.93 150.95C103.16 150.42 101.39 149.91 99.6002 149.47C99.5002 149.45 99.5602 149.25 99.6502 149.26V149.26Z" fill="#263238"/>
<path d="M94.6302 116.34C81.1502 130.51 61.7202 155.97 63.1102 162.01C66.6102 177.15 79.6002 195.49 86.1402 202.13C89.9602 206 111.39 186.85 108.17 183.24C103.09 177.55 90.6102 159.29 89.1602 156.89C88.3902 155.61 98.0402 136.13 102.49 123.15C107.33 109.04 101.19 109.43 94.6202 116.33L94.6302 116.34Z" fill="#914F4E"/>
<path d="M115.95 199.58C115.4 197.79 116.34 197.49 119.07 199.39C121.84 201.31 131 211.14 134.17 207.64C137.35 204.13 124.15 190.43 119.36 187.61C114.57 184.78 105.82 181.91 105.82 181.91C107.85 185.09 112.04 193.28 115.94 199.58H115.95Z" fill="#914F4E"/>
<path d="M108.895 213.257L115.202 219.955L164.809 173.241L158.502 166.543L108.895 213.257Z" fill="#C7C7C7"/>
<path d="M89.75 228.06L99.29 238.19L126.59 212.48L117.05 202.35L89.75 228.06Z" fill="#263238"/>
<path d="M138.8 194.62C139.41 191.02 143.3 193.8 143.3 193.8C143.3 193.8 138.66 188.45 140.72 184.98C142.72 181.64 147.3 185.16 147.63 185.41C147.39 185.12 143.25 180.1 145.68 176.83C148.21 173.43 152.21 177.76 152.46 178.04C152.32 177.7 150.47 173.15 152.89 171.09C157.04 167.54 163.39 180.09 167.57 181.52L174.43 176.97C173.76 178.41 172.93 179.76 173.03 183.03C173.12 186.09 173.2 188.12 172.38 189.85C171.03 192.69 168.24 192.23 168.24 192.23C168.24 192.23 170.24 195.55 168.41 198.18C167.47 199.53 164.46 199.22 164.46 199.22C164.46 199.22 165.95 201.94 164.17 204.19C162.76 205.99 159.97 205.4 159.97 205.4C159.97 205.4 160.19 208.68 158.15 210.04C154.04 212.8 137.49 202.33 138.79 194.63L138.8 194.62Z" fill="#914F4E"/>
<path d="M169.31 180.71L174.31 177.07C174.52 176.98 174.75 176.88 174.96 176.81C182.36 174.04 191.08 179.2 186.57 182.63C183.14 185.25 176.26 182.75 173.13 185.94L169.32 180.71H169.31Z" fill="#914F4E"/>
<path d="M159.52 205.37C159.58 205.4 159.55 205.49 159.48 205.47C153.2 203.36 146.94 199.11 143.07 193.68C142.94 193.5 143.18 193.22 143.35 193.39C148.41 198.22 153.29 202.11 159.51 205.38L159.52 205.37Z" fill="#263238"/>
<path d="M164.53 199.31C164.6 199.35 164.54 199.46 164.46 199.43C158 197.22 151.08 192.24 147.36 185.45C147.23 185.22 147.36 184.88 147.52 185.14C150.34 189.46 158.91 196.4 164.53 199.31Z" fill="#263238"/>
<path d="M152.37 177.48C156.19 183.85 161.67 188.35 167.97 192.16C168.05 192.21 167.97 192.32 167.89 192.3C164.3 191.27 160.54 188.42 157.81 185.96C155.19 183.6 153.3 180.94 152.15 177.61C152.11 177.48 152.29 177.34 152.37 177.48V177.48Z" fill="#263238"/>
<g opacity="0.4">
<path d="M151.85 123.13C156.59 95.84 182.67 77.51 209.95 82.25C223.15 84.55 234.67 91.86 242.41 102.85C250.14 113.84 253.13 127.16 250.83 140.35C248.54 153.55 241.22 165.07 230.23 172.81C219.24 180.54 205.92 183.52 192.73 181.23C179.53 178.93 168.01 171.62 160.28 160.63C152.55 149.64 149.56 136.32 151.86 123.13H151.85Z" fill="white"/>
</g>
<path d="M143.49 121.69C149.04 89.8 179.51 68.37 211.4 73.92C243.29 79.47 264.72 109.94 259.17 141.83C253.62 173.72 223.15 195.15 191.26 189.6C159.37 184.05 137.94 153.58 143.49 121.69ZM150.12 122.84C145.2 151.08 164.18 178.05 192.42 182.97C220.66 187.89 247.63 168.91 252.55 140.67C257.47 112.43 238.49 85.46 210.25 80.54C182.01 75.62 155.04 94.6 150.12 122.84V122.84Z" fill="#37474F"/>
<path d="M215.32 183.64C221.29 182.02 227.01 179.35 232.23 175.68C243.99 167.41 251.8 155.08 254.27 140.96C256.72 126.85 253.53 112.6 245.26 100.85C237 89.09 224.67 81.27 210.55 78.81C196.43 76.35 182.18 79.55 170.43 87.82C164.56 91.95 159.67 97.1 155.93 102.97C152.2 108.85 149.63 115.46 148.4 122.52C143.33 151.71 162.93 179.59 192.12 184.66C199.96 186.03 207.84 185.65 215.32 183.62V183.64ZM192.71 181.24C165.42 176.5 147.09 150.42 151.83 123.14C154.13 109.94 161.44 98.42 172.43 90.68C183.42 82.95 196.74 79.96 209.93 82.26C223.13 84.55 234.65 91.88 242.39 102.86C250.12 113.85 253.1 127.17 250.81 140.36C248.51 153.56 241.2 165.08 230.21 172.81C219.22 180.54 205.9 183.53 192.71 181.23V181.24ZM215.32 183.64C221.29 182.02 227.01 179.35 232.23 175.68C243.99 167.41 251.8 155.08 254.27 140.96C256.72 126.85 253.53 112.6 245.26 100.85C237 89.09 224.67 81.27 210.55 78.81C196.43 76.35 182.18 79.55 170.43 87.82C164.56 91.95 159.67 97.1 155.93 102.97C152.2 108.85 149.63 115.46 148.4 122.52C143.33 151.71 162.93 179.59 192.12 184.66C199.96 186.03 207.84 185.65 215.32 183.62V183.64ZM192.71 181.24C165.42 176.5 147.09 150.42 151.83 123.14C154.13 109.94 161.44 98.42 172.43 90.68C183.42 82.95 196.74 79.96 209.93 82.26C223.13 84.55 234.65 91.88 242.39 102.86C250.12 113.85 253.1 127.17 250.81 140.36C248.51 153.56 241.2 165.08 230.21 172.81C219.22 180.54 205.9 183.53 192.71 181.23V181.24ZM217.06 190.14C223.79 188.33 230.22 185.31 236.09 181.18C249.31 171.88 258.11 158.01 260.89 142.12C266.6 109.27 244.53 77.91 211.7 72.19C195.81 69.43 179.78 73.02 166.55 82.32C153.33 91.63 144.53 105.49 141.76 121.38C138.99 137.27 142.59 153.3 151.89 166.52C161.19 179.75 175.06 188.55 190.95 191.32C199.78 192.86 208.64 192.43 217.05 190.14H217.06ZM191.55 187.87C176.59 185.27 163.52 176.97 154.75 164.51C145.99 152.05 142.59 136.95 145.21 121.99C147.81 107.02 156.1 93.95 168.57 85.19C174.1 81.3 180.16 78.46 186.5 76.75C194.42 74.6 202.78 74.19 211.09 75.64C242.03 81.02 262.83 110.59 257.45 141.54C253.53 164.03 236.86 181.16 216.15 186.76C208.37 188.87 200.01 189.36 191.56 187.88L191.55 187.87ZM232.22 175.68C243.98 167.41 251.79 155.08 254.26 140.96C256.71 126.85 253.52 112.6 245.25 100.85C236.99 89.09 224.66 81.27 210.54 78.81C196.42 76.35 182.17 79.55 170.42 87.82C164.55 91.95 159.66 97.1 155.92 102.97C152.19 108.85 149.62 115.46 148.39 122.52C143.32 151.71 162.92 179.59 192.11 184.66C199.95 186.03 207.83 185.65 215.31 183.62C221.28 182 227 179.33 232.22 175.66V175.68ZM192.71 181.24C165.42 176.5 147.09 150.42 151.83 123.14C154.13 109.94 161.44 98.42 172.43 90.68C183.42 82.95 196.74 79.96 209.93 82.26C223.13 84.55 234.65 91.88 242.39 102.86C250.12 113.85 253.1 127.17 250.81 140.36C248.51 153.56 241.2 165.08 230.21 172.81C219.22 180.54 205.9 183.53 192.71 181.23V181.24Z" fill="#37474F"/>
<path opacity="0.3" d="M179.28 96.56C183.66 93.57 188.82 91.72 194.16 90.76C196.83 90.26 199.58 90.1 202.33 90.14C205.08 90.21 207.84 90.59 210.55 91.18C215.96 92.47 221.12 94.92 225.52 98.28C229.93 101.64 233.66 105.78 236.48 110.41C232.55 106.67 228.46 103.26 224.04 100.49C221.79 99.17 219.55 97.86 217.15 96.93C214.78 95.93 212.35 95.07 209.85 94.54C204.88 93.34 199.71 93.04 194.58 93.42C189.44 93.85 184.32 94.88 179.3 96.56H179.28Z" fill="#EBEBEB"/>
<path opacity="0.3" d="M210.71 170.48C205.68 172.15 200.21 172.53 194.81 172C192.1 171.75 189.42 171.15 186.78 170.37C184.15 169.55 181.6 168.43 179.16 167.12C174.31 164.4 170.01 160.64 166.7 156.2C163.38 151.76 160.92 146.76 159.47 141.54C162.23 146.21 165.23 150.61 168.73 154.49C170.53 156.37 172.33 158.25 174.39 159.8C176.4 161.41 178.5 162.9 180.76 164.09C185.22 166.6 190.1 168.3 195.15 169.34C200.21 170.33 205.42 170.74 210.71 170.49V170.48Z" fill="#EBEBEB"/>
<path d="M84.1702 199.34C90.2202 208.1 97.2102 219.36 108.1 224.42C110.24 225.41 111.96 224.91 111.96 224.91C116.8 227.26 119.36 225.68 119.36 225.68C124.54 226.49 126.94 224.51 126.94 224.51C126.94 224.51 132.65 227.21 134.86 224.03C137.34 220.47 128.83 217.38 125.19 212.81C116.85 202.36 107.92 185.16 105.82 181.91L84.1602 199.34H84.1702Z" fill="#914F4E"/>
<path d="M108.77 208C111.29 211.03 113.68 214.07 116.59 216.74C119.79 219.67 123.35 221.96 126.93 224.37C127.04 224.45 126.95 224.61 126.83 224.55C119.67 221.2 112.81 214.81 108.64 208.11C108.54 207.95 108.65 207.85 108.78 208H108.77Z" fill="#263238"/>
<path d="M101.73 212.12C104.34 214.93 108.96 219.84 119.44 225.57C119.47 225.59 119.45 225.65 119.41 225.64C112.11 222.82 106.38 218.35 101.59 212.24C101.44 212.05 101.55 211.93 101.72 212.12H101.73Z" fill="#263238"/>
<path d="M97.9801 214.4C102.6 219.01 106.1 221.33 111.96 224.87C111.99 224.89 111.96 224.95 111.93 224.93C104.85 221.6 102.66 219.59 97.8001 214.53C97.6301 214.36 97.8001 214.21 97.9801 214.39V214.4Z" fill="#263238"/>
<path d="M79.3201 201.72L107.26 179.86L90.9201 157C95.3801 146.63 102.92 126.13 104.92 118.5C107.27 109.54 102.95 107.96 95.8901 114.22C79.7501 128.54 61.8701 154.88 61.2001 160.23C60.2401 167.9 79.3101 201.72 79.3101 201.72H79.3201Z" fill="#14475F"/>
<path d="M78.3502 192.31C79.8202 190.64 86.9502 184.86 88.7502 183.44C90.5102 182.05 97.9202 176.56 99.7702 175.1C99.8702 175.02 100.01 175.14 99.9103 175.22C98.1103 176.69 91.1402 182.74 89.3702 184.17C87.5902 185.61 80.4102 191.3 78.4402 192.39C78.3702 192.43 78.3102 192.35 78.3602 192.3L78.3502 192.31Z" fill="#263238"/>
<path d="M101.13 132.11C98.5102 140.1 94.8502 148.29 91.7602 156.12C91.6302 156.46 91.5002 156.78 91.4002 157.1C91.4002 157.08 91.4202 157 91.4002 156.96C91.4002 156.96 91.4002 156.96 91.4002 156.98C94.9202 162.64 99.5402 168.61 103.37 174.16L107.32 179.79L107.35 179.83L107.31 179.86L106.54 180.43L107.25 179.79V179.86L102.97 174.46C98.8402 168.96 94.1202 163.19 90.5102 157.36C90.4502 157.24 90.4002 157 90.4602 156.87C90.7402 155.92 91.1102 155.07 91.4702 154.17C94.3702 147.11 98.0602 139.09 101.12 132.12L101.13 132.11Z" fill="#263238"/>
<path d="M101.37 133.78C100.83 134.96 100.18 136.15 99.1802 137C99.9202 135.95 100.55 134.77 101.37 133.78Z" fill="#263238"/>
<path d="M102.8 109.82C102.8 109.82 110.16 127.75 117.29 128.59C122.62 129.22 121.84 118.32 121.84 118.32C121.84 118.32 116.89 103.93 102.8 109.82V109.82Z" fill="#914F4E"/>
<path d="M110.041 111C109.891 112.15 112.241 121.12 117.471 122.35C120.191 122.99 122.101 114.45 122.101 114.45L122.481 113.87L127.861 105.71L119.931 95.01L118.751 93.54C118.751 93.54 117.421 95.87 115.801 98.79C115.721 98.92 115.651 99.06 115.571 99.21C115.471 99.37 115.381 99.53 115.301 99.68C115.051 100.11 114.801 100.56 114.561 101C114.381 101.34 114.191 101.67 114.011 102.03C113.821 102.39 113.641 102.74 113.451 103.1C111.641 106.69 110.091 110.52 110.021 111.01L110.041 111Z" fill="#914F4E"/>
<path d="M115.821 98.77C115.681 106.84 120.251 111.89 122.491 113.85L127.871 105.69L119.941 94.99L118.761 93.52C118.761 93.52 117.431 95.85 115.811 98.77H115.821Z" fill="#263238"/>
<path d="M144.231 90.38C146.811 107.35 136.941 110.81 133.291 111.36C129.971 111.86 118.591 113.15 114.271 96.54C109.951 79.93 117.021 73.37 124.551 71.82C132.091 70.27 141.651 73.41 144.231 90.38Z" fill="#914F4E"/>
<path d="M114.401 96.42C117.671 96.93 118.721 89.44 118.721 89.44C118.721 89.44 132.751 87.46 134.251 76.12C134.251 76.12 136.441 83.44 143.671 86.92C143.671 86.92 143.531 74.44 133.711 71.74C133.711 71.74 121.571 66.94 114.401 76.48C107.231 86.02 112.211 96.08 114.401 96.42V96.42Z" fill="#263238"/>
<path d="M134.321 75.28C134.461 77.02 134.161 78.79 133.551 80.45C132.951 82.11 132.021 83.68 130.791 84.97C130.511 85.32 130.141 85.58 129.821 85.89L129.321 86.34C129.141 86.47 128.961 86.6 128.781 86.72C128.411 86.97 128.051 87.23 127.671 87.46C127.281 87.67 126.881 87.86 126.491 88.06C126.291 88.16 126.101 88.26 125.891 88.35L125.271 88.57L124.031 89.01C123.181 89.22 122.321 89.39 121.471 89.54C122.281 89.21 123.111 88.97 123.901 88.64L125.071 88.11L125.651 87.85C125.841 87.75 126.021 87.63 126.201 87.52C126.561 87.3 126.931 87.08 127.301 86.87C127.651 86.63 127.981 86.37 128.321 86.12L128.831 85.74L129.291 85.31C129.591 85.01 129.931 84.76 130.201 84.43C131.381 83.22 132.271 81.76 132.981 80.22C133.331 79.45 133.611 78.64 133.831 77.81C134.071 76.98 134.221 76.14 134.311 75.27L134.321 75.28Z" fill="#263238"/>
<path d="M117.881 95.83C117.881 95.83 113.801 90.73 111.461 92.22C109.121 93.71 112.431 101.28 115.351 102.15C118.271 103.03 119.131 100.34 119.131 100.34L117.881 95.83Z" fill="#914F4E"/>
<path d="M112.47 94.36C112.47 94.36 112.42 94.42 112.46 94.44C114.51 95.12 115.68 96.9 116.54 98.78C115.9 98.08 115.06 97.73 114.12 98.5C114.07 98.54 114.12 98.62 114.18 98.6C114.99 98.37 115.59 98.48 116.18 99.09C116.6 99.53 116.91 100.1 117.22 100.62C117.32 100.79 117.64 100.68 117.56 100.47C117.56 100.46 117.55 100.44 117.54 100.42C117.43 97.87 115.22 94.44 112.47 94.36V94.36Z" fill="#263238"/>
<path d="M141.93 91C141.52 90.98 141.15 90.9 140.75 90.84C140.3 90.77 139.93 90.77 139.58 90.45C139.39 90.28 139.38 89.9 139.53 89.7C139.88 89.24 140.45 89.18 141 89.24C141.59 89.3 142.03 89.5 142.45 89.93C142.86 90.34 142.46 91.03 141.93 91V91Z" fill="#263238"/>
<path d="M130.671 89.61C131.071 89.52 131.411 89.36 131.801 89.23C132.231 89.08 132.591 89 132.871 88.62C133.021 88.42 132.971 88.05 132.781 87.88C132.351 87.49 131.781 87.54 131.251 87.7C130.681 87.87 130.281 88.15 129.951 88.65C129.631 89.13 130.141 89.73 130.661 89.61H130.671Z" fill="#263238"/>
<path d="M133.1 93.0599C133.1 93.0599 133.01 93.1199 133.02 93.1699C133.17 94.3299 133.14 95.6899 132.13 96.1799C132.1 96.1999 132.11 96.2499 132.15 96.2399C133.42 95.9399 133.44 94.1299 133.11 93.0599H133.1Z" fill="#263238"/>
<path d="M131.94 91.94C130.05 91.98 130.26 95.75 132.01 95.72C133.73 95.69 133.52 91.91 131.94 91.94Z" fill="#263238"/>
<path d="M131.21 92.18C130.89 92.41 130.59 92.81 130.19 92.87C129.73 92.94 129.36 92.57 129.04 92.2C129.01 92.16 128.98 92.2 128.98 92.25C129.01 92.97 129.33 93.7 130.11 93.76C130.82 93.82 131.3 93.15 131.43 92.41C131.46 92.27 131.33 92.08 131.2 92.17L131.21 92.18Z" fill="#263238"/>
<path d="M139.64 92.66C139.64 92.66 139.73 92.71 139.73 92.76C139.73 93.93 139.92 95.28 140.99 95.63C141.02 95.64 141.02 95.7 140.99 95.7C139.69 95.56 139.45 93.77 139.64 92.66V92.66Z" fill="#263238"/>
<path d="M140.65 91.41C142.53 91.21 142.79 94.99 141.05 95.17C139.34 95.35 139.08 91.58 140.65 91.41Z" fill="#263238"/>
<path d="M141.401 91.56C141.741 91.75 142.091 92.11 142.491 92.12C142.951 92.13 143.271 91.72 143.551 91.31C143.581 91.27 143.611 91.3 143.621 91.35C143.681 92.07 143.451 92.83 142.691 92.99C141.991 93.14 141.441 92.53 141.211 91.82C141.171 91.69 141.271 91.48 141.411 91.56H141.401Z" fill="#263238"/>
<path d="M132.361 102.99C132.631 103.28 132.891 103.67 133.321 103.72C133.731 103.77 134.211 103.61 134.591 103.48C134.631 103.47 134.661 103.51 134.641 103.54C134.321 103.98 133.671 104.23 133.131 104.11C132.601 104 132.361 103.53 132.251 103.04C132.231 102.97 132.331 102.95 132.361 102.99V102.99Z" fill="#263238"/>
<path d="M138.15 97.77C138.15 97.77 138.42 99.54 138.44 100.38C138.44 100.46 136.06 100.29 133.62 101.16C133.25 101.29 133.25 100.98 133.66 100.73C134.48 100.22 135.53 99.71 137.71 99.67C137.77 99.44 137.24 96.95 137.37 96.94C137.83 96.89 138.73 97.19 139.28 97.34C138.82 93.64 137.77 90.04 137.36 86.34C137.35 86.21 137.54 86.17 137.58 86.28C138.95 89.97 139.57 94.23 140.15 98.04C140.23 98.51 138.49 97.91 138.16 97.78L138.15 97.77Z" fill="#263238"/>
<path d="M136.401 100.52C136.401 100.52 135.631 102.55 134.371 102.75C132.921 102.98 132.431 101.23 134.031 100.48C134.861 100.09 136.401 100.52 136.401 100.52V100.52Z" fill="#263238"/>
<path d="M135.801 101.65C135.461 102.15 134.961 102.66 134.371 102.75C133.611 102.88 133.111 102.45 133.051 101.9C133.051 101.9 133.051 101.86 133.061 101.84C134.531 101.03 135.361 101.25 135.801 101.65Z" fill="#FF99BA"/>
<path d="M43.4502 48.39C43.4502 63.63 55.8102 76 71.0602 76C77.2202 76 82.9102 73.98 87.5102 70.56L101.04 74.01L95.4102 61.42C97.5002 57.54 98.6802 53.1 98.6802 48.4C98.6802 33.16 86.3202 20.79 71.0702 20.79C55.8202 20.79 43.4602 33.15 43.4602 48.4L43.4502 48.39Z" fill="white"/>
<path d="M43.4502 48.39C43.8802 71.41 69.1502 83.56 87.6002 70.21L101.15 73.58L100.64 74.18L94.9702 61.6L94.8702 61.39C103.39 46.05 94.7402 26.14 77.7102 21.9C60.6402 17.25 43.3602 30.73 43.4602 48.39H43.4502ZM43.4502 48.39C43.5202 24.89 70.9302 12.03 89.0702 27C99.0902 35.11 102.17 50.36 95.8202 61.65L95.8402 61.23L101.43 73.84L101.8 74.67L100.92 74.44L87.4202 70.91C70.1202 84.02 43.6002 71.7 43.4502 48.4V48.39Z" fill="#263238"/>
<path d="M72.8603 52.06V55.11C72.8603 56.42 71.8703 57.41 70.5603 57.41C69.3403 57.41 68.2603 56.42 68.2603 55.11V50.23C68.2603 50.23 68.3103 50.18 68.3103 50.14C68.3103 50.14 68.2937 50.11 68.2603 50.05C68.2603 48.83 69.3403 47.75 70.5603 47.75C73.5203 47.75 75.9103 45.4 75.9103 42.49C75.9103 39.58 73.5203 37.23 70.5603 37.23C68.6403 37.23 66.9503 38.26 66.0503 39.81C65.3903 40.94 63.9903 41.31 62.8603 40.65C61.7803 39.99 61.4003 38.63 62.0603 37.51C63.7503 34.6 66.9403 32.63 70.5603 32.63C76.0103 32.63 80.4703 37.04 80.4703 42.49C80.4703 47.14 77.2303 51.03 72.8603 52.07V52.06ZM72.8603 62.34V63.18C72.8603 64.49 71.8703 65.48 70.5603 65.48C69.3403 65.48 68.2603 64.49 68.2603 63.18V62.34C68.2603 61.07 69.3403 60.04 70.5603 60.04C71.8703 60.04 72.8603 61.07 72.8603 62.34Z" fill="#14475F"/>
<path d="M2.74023 431.04C133.59 430.43 280.38 430.42 411.23 431.04C280.38 431.66 133.59 431.65 2.74023 431.04V431.04Z" fill="#263238"/>
</g>
<defs>
<clipPath id="clip0_10_455">
<rect width="416.45" height="431.5" fill="white"/>
</clipPath>
</defs>
</svg>
