<?xml version="1.0" encoding="utf-8"?>
<!-- Generator: Adobe Illustrator 25.0.0, SVG Export Plug-In . SVG Version: 6.00 Build 0)  -->
<svg version="1.1" id="Layer_1" xmlns="http://www.w3.org/2000/svg" xmlns:xlink="http://www.w3.org/1999/xlink" x="0px" y="0px"
	 viewBox="0 0 165 32" style="enable-background:new 0 0 165 32;" xml:space="preserve">
<style type="text/css">
	.st0{fill:#E6E6E6;}
	.st1{clip-path:url(#SVGID_2_);}
	.st2{fill:#FFFFFF;}
</style>
<g id="Group_1735" transform="translate(-276 -3436.494)">
	<path id="Path_37" class="st0" d="M331.7,3455.1l-6.3-12.7h2.4l5,10.6l5-10.6h2.4l-6.3,12.7v6.9h-2.2L331.7,3455.1z"/>
	<path id="Path_38" class="st0" d="M338.8,3454.8c0-4.2,3.4-7.5,7.5-7.5c4.2,0,7.5,3.4,7.5,7.5s-3.4,7.5-7.5,7.5
		C342.2,3462.3,338.8,3459,338.8,3454.8L338.8,3454.8z M340.8,3454.9c0,3.2,2.6,5.7,5.7,5.7s5.7-2.6,5.7-5.7c0-3.2-2.6-5.7-5.7-5.7
		C343.3,3449.1,340.8,3451.7,340.8,3454.9L340.8,3454.9z"/>
	<path id="Path_39" class="st0" d="M370,3462h-1.9v-2.5c-0.8,1.9-2.7,3-5.3,2.9c-4.5-0.1-6-3.1-6-6.6v-8.1h1.9v7.7
		c0,3.1,1.4,5.1,4.6,5.1c3,0,4.7-1.8,4.7-4.8v-8.1h2V3462z"/>
	<path id="Path_40" class="st0" d="M373.8,3447.7h1.9v2.3c0.8-1.7,2.6-2.8,4.6-2.7v1.9h-0.2c-2.8,0-4.3,1.7-4.3,5v7.8h-1.9V3447.7z"
		/>
	<path id="Path_41" class="st0" d="M387,3442.3h10v1.9h-7.8v6.9h7.7v2h-7.7v8.8H387V3442.3z"/>
	<path id="Path_42" class="st0" d="M399.8,3442.3h2v19.6h-2V3442.3z"/>
	<path id="Path_43" class="st0" d="M404.7,3454.8c0-4.2,3.4-7.5,7.5-7.5c4.2,0,7.5,3.4,7.5,7.5s-3.4,7.5-7.5,7.5
		C408.1,3462.3,404.7,3459,404.7,3454.8L404.7,3454.8z M406.7,3454.9c0,3.2,2.6,5.7,5.7,5.7s5.7-2.6,5.7-5.7c0-3.2-2.6-5.7-5.7-5.7
		C409.2,3449.1,406.7,3451.7,406.7,3454.9L406.7,3454.9z"/>
	<path id="Path_44" class="st0" d="M420.6,3447.7h2.1l3.9,11.7l3.4-10.5h1.6l3.4,10.5l3.9-11.7h2l-4.9,14.3h-1.9l-3.4-10.4
		l-3.3,10.4h-1.9L420.6,3447.7z"/>
	<g id="Group_20" transform="translate(276 3436)">
		<g>
			<defs>
				<rect id="SVGID_1_" y="0.5" width="45" height="32"/>
			</defs>
			<clipPath id="SVGID_2_">
				<use xlink:href="#SVGID_1_"  style="overflow:visible;"/>
			</clipPath>
			<g id="Group_19" transform="translate(0 0)" class="st1">
				<path id="Path_45" class="st2" d="M44.3-5.1c-1.5-0.9-3.5-0.4-4.4,1.1L31.5,9.8L21.7-5.7c-0.9-1.5-2.9-2-4.5-1
					c-1.5,0.9-2,2.9-1,4.5c0,0,0,0,0,0L27.8,16l-5,8.3L4.9-4.1C4-5.6,2-6,0.5-5.1c-1.5,1-1.9,2.9-1,4.4l20.7,32.8
					c0.6,0.9,1.6,1.5,2.7,1.5h0c1.1,0,2.2-0.6,2.7-1.6L45.4-0.7C46.4-2.2,45.9-4.2,44.3-5.1z"/>
			</g>
		</g>
	</g>
</g>
</svg>
