<svg width="570" height="293" viewBox="0 0 570 293" fill="none" xmlns="http://www.w3.org/2000/svg">
<path d="M39.2563 291.882C39.2563 291.882 -27.176 221.258 18.0197 138.994C52.8868 75.5308 137.234 86.8386 180.513 113.684C198.946 125.118 238.551 104.149 288.778 40.4806C347.087 -33.4318 572.835 11.6654 533.848 152.887C514.982 221.228 591.268 223.712 552.398 292.026L39.2563 291.882V291.882Z" fill="#DDF0F9"/>
<path d="M511.128 291.317H342.593C325.722 291.317 312.046 277.641 312.046 260.77V114.856C312.046 99.3638 315.084 84.3268 321.076 70.1585C326.86 56.4848 335.136 44.2077 345.674 33.6682C356.211 23.1287 368.488 14.8547 382.164 9.07081C394.372 3.90744 391.453 0.779076 404.687 0.0560861C406.811 -0.0601439 424.718 0.0403257 426.861 0.0403257C442.353 0.0403257 457.392 3.07807 471.559 9.07081C485.233 14.8547 497.51 23.1307 508.049 33.6682C518.589 44.2077 526.865 56.4828 532.647 70.1585C538.639 84.3248 541.677 99.3638 541.677 114.856V260.77C541.677 277.641 528.001 291.317 511.13 291.317H511.128ZM347.925 120.941H505.795V114.856C505.795 71.3307 470.385 35.9219 426.861 35.9219C383.338 35.9219 347.927 71.3327 347.927 114.856V120.941H347.925Z" fill="#14475F"/>
<path d="M490.796 291.317H322.26C305.389 291.317 291.713 277.641 291.713 260.77V114.856C291.713 99.364 294.751 84.327 300.744 70.1587C306.528 56.485 314.804 44.2079 325.341 33.6684C335.881 23.1289 348.156 14.8549 361.832 9.07101C375.998 3.07827 391.037 0.0405273 406.529 0.0405273C422.021 0.0405273 437.06 3.07827 451.226 9.07101C464.9 14.8549 477.177 23.1309 487.717 33.6684C498.256 44.2079 506.532 56.483 512.314 70.1587C518.307 84.325 521.344 99.364 521.344 114.856V260.77C521.344 277.641 507.669 291.317 490.798 291.317H490.796ZM327.593 120.941H485.463V114.856C485.463 71.3309 450.052 35.9221 406.529 35.9221C363.006 35.9221 327.595 71.3329 327.595 114.856V120.941H327.593Z" fill="#1B6182"/>
<path d="M420.735 178.124C420.735 174.578 419.432 171.339 417.285 168.851C415.315 165.928 411.239 163.918 406.527 163.918C401.815 163.918 397.739 165.928 395.769 168.851C393.622 171.339 392.319 174.58 392.319 178.124C392.319 184.493 396.51 189.881 402.284 191.686V213.202C402.284 214.938 404.183 216.344 406.525 216.344C408.867 216.344 410.766 214.938 410.766 213.202V191.686C416.54 189.881 420.731 184.491 420.731 178.124H420.735Z" fill="#14475F"/>
<path d="M217.704 159.949C217.435 161.773 215.352 163.885 213.13 165.469C210.738 167.173 209.779 168.922 208.932 169.797C208.619 170.156 208.426 170.353 208.426 170.353L205.873 167.382C205.873 167.382 205.914 167.354 205.991 167.269C206.562 166.647 208.01 165.112 208.975 163.345C211.091 159.47 214.048 158.897 214.048 158.897C214.048 158.897 216.875 159.317 217.704 159.949Z" fill="#914F4E"/>
<path d="M85.8107 197.206L87.5364 198.606C87.5364 198.606 92.2566 196.914 93.3223 202.523C93.3223 202.523 93.606 204.912 92.0911 204.918C90.5761 204.922 91.2026 204.656 89.0573 204.719C86.9139 204.782 85.135 203.651 84.8218 201.912L83.7954 200.438L85.8107 197.206Z" fill="#914F4E"/>
<path d="M85.6136 200.214C86.9907 198.776 86.8804 197.714 86.8804 197.714C86.8804 197.714 70.9391 184.663 69.3237 183.599C68.2225 182.874 57.1137 172.234 50.9948 166.121C48.0517 163.18 44.9016 164.194 41.0444 165.302L37.8668 166.214C34.0312 167.315 33.0324 172.679 36.1804 175.286C45.0454 182.628 59.7909 190.886 62.5509 192.622C69.4006 196.93 82.8084 202.05 82.8084 202.05C82.8084 202.05 84.4356 201.445 85.6176 200.212L85.6136 200.214Z" fill="#56AFDD"/>
<path d="M103.807 280.397C103.807 280.397 107.676 283.295 113.604 281.764C113.604 281.764 118.383 280.675 119.431 283.058C119.431 283.058 112.1 286.782 110.247 287.8C108.848 288.569 107.39 289.78 106.358 290.716C105.542 291.457 104.27 291.356 103.574 290.501C103.251 290.105 102.883 289.632 102.479 289.085C101.348 287.554 98.7163 282.605 98.7163 282.605L103.809 280.397H103.807Z" fill="#14475F"/>
<path d="M106.076 278.925C106.076 278.925 103.72 284.356 98.2825 283.358C98.2825 283.358 87.1875 274.195 79.5754 264.676C77.1031 261.585 74.9991 258.455 73.7619 255.592C68.7148 243.906 55.0922 226.478 46.4321 217.644L68.1021 209.806C68.1021 209.806 75.0424 223.767 84.2778 240.918C90.9325 253.276 98.779 267.288 106.076 278.925V278.925Z" fill="#1E5169"/>
<path d="M84.2778 240.916L79.5754 264.674C77.1031 261.583 74.9991 258.453 73.7619 255.59C68.7148 243.904 55.0922 226.476 46.4321 217.642L68.1021 209.804C68.1021 209.804 75.0424 223.765 84.2778 240.916Z" fill="#14475F"/>
<path d="M66.566 283.549C66.566 283.549 66.3296 287.883 71.5836 288.462C71.5836 288.462 74.5859 288.478 74.5938 291.236L59.3224 291.285C59.3224 291.285 58.8791 290.172 58.7708 287.789C58.688 285.958 60.5438 281.173 60.5438 281.173L66.5621 283.549H66.566Z" fill="#14475F"/>
<path d="M60.9945 209.804C60.9945 209.804 70.6475 220.413 76.7762 239.522C80.1094 249.919 70.6652 276.061 68.8233 285.145C68.8233 285.145 62.4878 285.683 58.1557 284.008C58.1557 284.008 57.8267 265.248 60.3602 250.788C61.7786 242.695 47.6497 233.482 41.4757 218.86C37.2757 208.914 42.3859 209.081 48.6643 208.843L60.9945 209.804V209.804Z" fill="#1E5169"/>
<path d="M49.8502 162.479C44.4799 165.513 33.4834 162.715 33.4834 162.715C33.4834 162.715 37.9494 157.611 35.9203 149.388L40.1381 151.53L44.6671 153.831C44.6671 153.831 44.9606 155.282 45.1635 157.891C45.2147 158.562 45.262 159.313 45.2935 160.133C48.0515 160.968 49.8502 162.479 49.8502 162.479V162.479Z" fill="#914F4E"/>
<path d="M69.5463 209.256C69.5463 210.2 68.4589 210.653 68.2284 210.698C66.0614 211.094 60.0135 213.446 54.5645 213.986C49.9763 214.467 45.7172 214.01 41.0365 213.07C40.4159 212.946 38.9621 212.554 38.8577 211.959C38.7296 211.311 20.8065 175.423 34.7384 160.008C35.0654 159.646 37.8155 160.298 40.3312 160.895C42.6538 161.446 44.7854 161.139 46.6864 160.375L49.0445 161.616C51.9404 163.229 57.421 168.964 58.0632 173.463C58.3882 175.752 59.6983 177.447 60.0765 179.458C60.2164 180.203 60.3602 180.929 60.506 181.639C60.7916 183.03 61.0852 184.351 61.3885 185.61C62.2081 189.012 63.0729 191.944 63.922 194.473C64.8262 197.16 65.7127 199.396 66.5046 201.266C67.531 203.691 68.3998 205.503 68.9415 206.89C69.3237 207.867 69.5444 208.634 69.5444 209.254L69.5463 209.256Z" fill="#61B8E1"/>
<path d="M68.9436 206.892C43.6449 194.974 34.8823 172.086 34.8823 172.086C34.8823 172.086 55.4373 179.669 60.5081 181.643C60.7937 183.034 61.0873 184.356 61.3906 185.614C62.2102 189.017 63.075 191.948 63.9241 194.477C64.8283 197.165 65.7148 199.4 66.5067 201.27C67.5331 203.695 68.4019 205.507 68.9436 206.894V206.892Z" fill="#56AFDD"/>
<path d="M101.037 201.012H87.0694C73.6715 201.012 62.7734 190.112 62.7734 176.716V131.209C62.7734 117.811 73.6734 106.913 87.0694 106.913H101.037C114.435 106.913 125.333 117.813 125.333 131.209V176.716C125.333 190.114 114.433 201.012 101.037 201.012ZM87.0694 121.262C81.585 121.262 77.1249 125.724 77.1249 131.207V176.714C77.1249 182.198 81.5869 186.658 87.0694 186.658H101.037C106.521 186.658 110.981 182.196 110.981 176.714V131.207C110.981 125.722 106.519 121.262 101.037 121.262H87.0694Z" fill="#F99746"/>
<path d="M247.51 162.345H119.431V145.58H247.51C252.14 145.58 255.893 149.333 255.893 153.962C255.893 158.592 252.14 162.345 247.51 162.345Z" fill="#F99746"/>
<path d="M231.439 158.968H244.892V191.82C244.892 195.533 241.878 198.548 238.165 198.548C234.451 198.548 231.437 195.533 231.437 191.82V158.968H231.439Z" fill="#F99746"/>
<path d="M83.7441 199.983L85.9308 200.785C85.9308 200.785 90.3082 197.69 93.0347 202.724C93.0347 202.724 94.0197 204.922 92.4594 205.401C90.8992 205.88 91.4665 205.428 89.272 206.159C87.0794 206.89 84.9183 206.364 84.0889 204.796L82.6035 203.707L83.7441 199.983V199.983Z" fill="#914F4E"/>
<path d="M85.5449 203.076C86.3526 200.967 86.7229 200.013 86.7229 200.013C86.7229 200.013 70.2045 186.548 68.5201 185.394C67.3736 184.606 55.9535 176.072 50.3883 169.419C47.6263 166.119 43.2726 164.61 39.0608 165.495L35.5936 166.222C31.4053 167.1 30.046 172.4 33.2946 175.185C42.4433 183.028 57.8723 192.123 60.7485 194.016C67.8897 198.713 83.6872 205.295 83.6872 205.295C83.6872 205.295 84.9125 204.735 85.5469 203.078L85.5449 203.076Z" fill="#61B8E1"/>
<path d="M45.1635 157.89C39.882 158.188 36.4463 153.826 36.4463 153.826C36.4463 153.826 38.8339 152.502 40.1361 151.529L44.6651 153.83C44.6651 153.83 44.9587 155.282 45.1616 157.89H45.1635Z" fill="#914F4E"/>
<path d="M47.4153 152.469C47.4153 152.469 39.4132 158.211 35.9125 153.172C32.4118 148.133 29.0234 145.481 33.9839 141.602C38.9463 137.723 41.2847 138.949 42.8607 140.346C44.4387 141.744 49.405 150.844 47.4134 152.469H47.4153Z" fill="#914F4E"/>
<path d="M43.708 135.795C43.4204 133.858 42.7762 132.495 42.7762 132.495C42.7762 132.495 42.2739 134.575 38.4718 134.288C34.6697 134 28.6434 134.662 26.636 138.994C26.508 139.27 26.3937 139.554 26.2932 139.843C25.9288 138.882 25.8421 137.444 25.8421 137.444C25.1191 139.309 25.8421 141.642 25.8421 141.642C25.8303 141.709 25.8224 141.778 25.8125 141.847C24.9733 142.556 24.2681 144.76 24.2681 144.76C24.5222 144.146 25.1388 143.744 25.6884 143.498C25.6707 146.868 27.0379 150.164 29.4373 151.145C32.9459 152.579 32.9183 151.486 36.4466 153.826C36.4466 153.826 37.3942 152.652 36.748 151.862C36.1019 151.072 33.663 149.926 35.0262 148.777C36.3895 147.629 36.8918 148.921 37.3942 148.131C37.8965 147.341 35.3848 145.046 38.6136 142.895C41.8424 140.744 43.9937 137.729 43.7061 135.793L43.708 135.795Z" fill="#221E20"/>
<path d="M183.882 286.748L180.932 287.845C180.932 287.845 168.125 270.084 166.549 254.456C166.268 251.666 166.362 248.962 166.971 246.466C166.971 246.466 166.845 245.751 166.626 244.488C166.526 243.899 166.4 243.188 166.258 242.374C165.842 239.988 165.269 236.724 164.613 233.007C163.106 224.453 161.154 213.519 159.637 205.482L160.431 205.228L169.028 202.454L170.805 196.812L177.205 195.127C177.205 195.127 178.635 197.925 179.914 211.138C180.15 212.871 180.363 214.782 180.525 216.855C181.023 223.18 181.058 231.029 179.916 240C179.622 242.297 179.252 244.667 178.791 247.104C178.454 248.891 178.403 251.324 178.545 254.119C179.189 266.895 183.88 286.748 183.88 286.748H183.882Z" fill="#61B8E1"/>
<path d="M180.524 216.857L166.624 244.49C166.523 243.901 166.397 243.19 166.255 242.376C165.84 239.99 165.266 236.726 164.61 233.009C163.103 224.455 161.151 213.521 159.634 205.484L160.428 205.23L169.025 202.456L170.802 196.814L177.203 195.129C177.203 195.129 178.633 197.927 179.911 211.14C180.148 212.873 180.361 214.784 180.522 216.857H180.524Z" fill="#56AFDD"/>
<path d="M174.41 198.673L174.088 195.913C168.699 197.345 154.294 191.912 154.294 191.912C154.294 191.912 149.071 196.502 149.757 207.507C150.092 212.877 150.703 235.699 151.341 242.454C151.571 244.903 151.774 246.645 151.857 247.34C151.857 247.344 151.857 247.346 151.857 247.346C151.883 247.559 151.808 247.76 151.699 247.945C150.76 249.541 149.982 251.201 149.343 252.901C143.077 269.601 150.309 290.166 150.309 290.166L152.186 289.409C152.186 289.409 156.301 266.522 159.644 256.412C160.212 254.696 160.755 253.349 161.256 252.545C162.71 250.199 164.059 246.365 165.285 241.804C167.599 233.184 169.463 221.966 170.702 213.31C170.873 213.318 174.41 198.675 174.41 198.675V198.673Z" fill="#61B8E1"/>
<path d="M207.299 164.435C208.926 165.083 210.52 166.361 212.098 167.953C212.098 167.953 202.904 183.987 197.612 186.32C194.706 187.6 185.617 177.888 183.739 172.447C183.28 171.117 184.975 166.667 184.421 165.731C183.686 164.5 183.332 163.29 183.184 162.252C183.148 162.094 183.115 161.937 183.127 161.763C182.951 160.111 183.292 158.984 183.292 158.984C183.503 158.442 184.098 158.21 184.981 158.225H185.294C190.055 161.027 196.31 174.787 197.342 175.108C200.033 171.7 207.299 164.435 207.299 164.435V164.435Z" fill="#14475F"/>
<path d="M184.709 165.205C183.016 165.989 180.973 166.525 178.501 166.659C169.232 167.167 167.128 159.043 166.746 153.651C168.082 153.166 169.252 153.214 169.926 153.249C170.584 153.285 171.269 153.354 171.835 153.422C172.969 152.83 175.004 149.953 176.182 145.143L176.582 145.328L183.27 148.472C183.27 148.472 182.559 150.649 182.035 152.731C181.626 154.36 181.332 155.934 181.578 156.376C182.106 156.59 182.421 156.724 182.421 156.724C182.421 156.724 182.421 156.726 182.423 156.732C182.49 156.903 183.944 160.607 184.711 165.207L184.709 165.205Z" fill="#914F4E"/>
<path d="M187.027 171.287C186.958 171.472 186.88 171.653 186.797 171.838C184.451 176.893 180.105 197.834 180.105 197.834C180.723 201.599 151.81 197.096 151.735 193.668C150.716 190.033 155.348 184.192 157.96 181.263C158.287 180.894 158.58 180.5 158.837 180.083C159.483 179.039 159.891 177.859 160.021 176.625C160.533 171.765 158.624 160.56 159.14 158.395C159.341 157.548 163.171 162.392 163.628 161.906C164.13 161.376 164.445 160.834 164.483 160.223C164.508 159.76 164.494 159.287 164.447 158.813C164.425 158.588 164.396 158.365 164.362 158.141C164.002 155.789 159.504 156.793 159.504 156.793C161.153 152.826 169.93 153.141 169.928 153.249C169.928 153.358 169.924 153.496 169.92 153.897C169.906 155.513 169.92 159.66 170.438 160.446C171.086 161.423 182.932 165.706 183.558 164.38C184.175 163.076 182.486 156.963 182.425 156.732C182.423 156.728 182.423 156.724 182.423 156.724C183.72 157.25 185.298 158.226 185.298 158.226C186.785 161.206 188.879 166.383 187.031 171.289L187.027 171.287Z" fill="#1E5169"/>
<path d="M179.047 127.605C179.033 127.204 178.722 122.874 172.126 122.647C172.126 122.647 175.369 123.033 175.931 124.459C175.931 124.459 173.722 122.698 171.924 123.264C170.125 123.831 169.069 126.981 169.059 128.017C169.049 129.053 170.048 132.395 171.189 132.678C171.62 132.787 172.119 132.757 172.572 132.678C172.268 133.153 171.971 133.675 171.685 134.26C169.053 139.662 171.768 144.941 173.996 144.358C175.424 143.984 175.83 146.423 175.83 146.423L189.711 135.184C189.711 135.184 184.612 124.635 179.049 127.603L179.047 127.605Z" fill="#221E20"/>
<path d="M183.269 148.472C183.269 148.472 182.558 150.647 182.034 152.731C178.125 151.64 176.937 147.532 176.581 145.33L183.269 148.474V148.472Z" fill="#914F4E"/>
<path d="M184.092 150.775C184.092 150.775 174.741 148.61 176.177 142.808C177.615 137.004 177.375 132.818 183.407 133.953C189.439 135.09 190.046 137.589 190.038 139.644C190.03 141.697 186.561 151.188 184.092 150.775Z" fill="#914F4E"/>
<path d="M190.566 136.349C189.561 134.245 188.377 134.357 187.636 134.731C183.241 130.665 178.933 133.987 178.933 133.987C177.274 137.993 173.679 139.633 173.679 139.633C173.679 139.633 175.115 141.104 179.279 141.071C180.552 141.061 181.831 140.478 182.993 139.672C180.749 141.933 178.117 143.309 178.117 143.309C183.33 142.312 186.825 136.276 187.183 135.635C187.624 136.287 188.469 137.676 188.54 138.848C188.637 140.442 188.089 143.535 189.001 143.651C189.001 143.651 192.075 139.503 190.566 136.349V136.349Z" fill="#221E20"/>
<path d="M161.222 291.699H146.372C146.372 291.699 146.016 289.435 146.792 287.719C147.535 286.072 148.699 285.322 148.421 283.328C149.365 284.299 150.903 285.389 153.051 285.099C153.313 285.525 154.749 287.808 155.627 288.438C156.599 289.136 160.925 288.887 161.224 291.699H161.222Z" fill="#14475F"/>
<path d="M193.109 291.699H178.259C178.259 291.699 177.703 289.331 178.678 287.719C179.541 286.293 179.21 285.481 178.572 284.301C179.244 284.577 180.114 284.827 181.074 284.772C181.815 284.729 182.597 284.394 183.282 283.996C183.92 284.725 186.659 287.826 187.514 288.44C188.485 289.138 192.811 288.89 193.11 291.701L193.109 291.699Z" fill="#14475F"/>
<path d="M213.309 162.345H235.913L234.656 153.578L214.475 154.388L213.309 162.345Z" fill="#F99746"/>
<path d="M217.278 145.58C216.225 146.63 216.25 149.995 214.026 151.579C211.634 153.283 210.675 155.032 209.828 155.907C209.515 156.266 209.322 156.463 209.322 156.463L206.769 153.492C206.769 153.492 206.81 153.464 206.887 153.379C207.458 152.757 208.906 151.222 209.871 149.455C211.987 145.58 214.944 145.007 214.944 145.007C214.944 145.007 216.449 144.946 217.278 145.578V145.58Z" fill="#914F4E"/>
<path d="M208.331 151.159L212.097 155.374C212.097 155.374 202.031 164.139 199.929 165.959C198.434 167.23 197.025 168.266 195.876 168.861C195.762 168.924 195.66 168.967 195.526 169.017C192.571 170.311 186.188 170.167 179.811 169.224C178.931 169.096 178.06 168.948 177.209 168.812C174.065 168.262 171.072 167.543 168.608 166.72C167.13 166.241 165.822 165.735 164.817 165.197C164.459 165.014 164.122 164.84 163.825 164.641C158.837 161.655 159.079 158.879 159.173 157.882C159.268 156.885 159.985 155.57 161.652 155.03C165.609 153.745 178.885 158.863 180.841 159.232C182.016 159.48 185.069 160.562 186.097 160.751C188.063 161.101 189.689 161.33 190.8 161.334C191.519 161.342 192.789 160.896 194.324 160.217C197.001 159.045 208.335 151.161 208.335 151.161L208.331 151.159Z" fill="#14475F"/>
<path d="M209.811 163.873C209.497 163.357 209.466 162.522 209.466 162.522C209.899 161.407 210.865 160.15 211.223 159.904C211.582 159.657 212.052 159.051 212.165 159.454C212.277 159.858 211.739 161.966 211.111 162.796C210.482 163.625 209.811 163.871 209.811 163.871V163.873Z" fill="#914F4E"/>
<path d="M433.74 113.297C436.908 118.811 440.893 120.941 440.893 120.941H457.473C457.473 120.941 431.321 109.089 433.738 113.297H433.74Z" fill="#ED7D2B"/>
<path d="M445.489 156.253C445.921 156.748 446.295 156.722 446.08 157.313C446.08 157.315 445.984 157.606 445.982 157.608C445.586 158.702 444.839 159.468 443.322 160.686C443.129 160.841 442.93 160.973 442.781 161.103C442.741 161.139 442.473 161.192 442.436 161.225C442.404 161.253 442.17 161.74 442.14 161.765C440.726 163.069 441.014 162.691 438.472 165.339C435.572 168.355 435.659 168.044 435.09 167.768C434.609 167.533 434.41 166.972 435.492 165.173C435.545 165.087 435.596 164.998 435.649 164.911C435.793 164.673 435.937 164.429 436.079 164.19C437.345 162.027 437.02 161.011 436.721 157.79C436.477 155.174 432.649 143.17 432.649 143.17L438.204 142.213C438.204 142.213 439.877 151.771 441.721 153.243C442.706 154.027 443.809 154.037 444.757 154.618C444.824 154.657 444.889 154.701 444.954 154.742C445.491 155.099 445.056 155.753 445.489 156.249V156.253Z" fill="#914F4E"/>
<path d="M446.475 155.968C446.906 156.462 446.961 157.016 446.748 157.607C446.748 157.609 446.748 157.613 446.744 157.615C446.26 158.706 444.987 159.919 443.52 161.135C443.328 161.294 443.159 161.44 443.007 161.576C442.968 161.612 442.929 161.645 442.891 161.681C442.86 161.708 442.832 161.736 442.803 161.761C441.388 163.066 441.92 163.365 439.377 166.013C436.477 169.029 434.481 169.084 433.914 168.808C433.433 168.574 434.41 166.974 435.49 165.175C436.055 164.969 438.675 163.903 440.657 161.367C442.403 159.139 443.567 156.279 444.755 154.62C444.822 154.66 444.887 154.703 444.952 154.744C445.49 155.101 446.039 155.469 446.473 155.966L446.475 155.968Z" fill="#61B8E1"/>
<path d="M400.648 152.166C400.306 153.88 399.192 153.399 396.462 152.733C393.732 152.065 394.364 152.719 390.477 152.29C386.59 151.86 386.238 151.242 386.12 150.664C386.013 150.152 386.825 149.806 388.885 149.567C389.143 149.538 389.405 149.506 389.666 149.475C391.992 149.183 393.694 147.682 395.806 146.449C397.808 145.28 400.794 140.525 400.794 140.525L406.125 140.946C406.125 140.946 403.327 145.196 402.246 147.042C401.61 148.127 401.643 149.565 401.722 150.674C401.763 151.277 400.77 151.561 400.648 152.166V152.166Z" fill="#914F4E"/>
<path d="M396.161 153.259C393.43 152.591 394.079 153.385 390.192 152.955C386.305 152.526 385.127 151.076 385.009 150.499C384.902 149.987 386.823 149.805 388.884 149.567L388.903 149.606C388.903 149.606 391.234 151.259 394.469 151.336C397.104 151.401 399.898 150.644 401.72 150.674C401.762 151.277 401.801 151.893 401.679 152.498C401.336 154.212 398.891 153.927 396.161 153.261V153.259Z" fill="#61B8E1"/>
<path d="M422.105 118.415L427.088 131.823L433.593 149.331C433.593 149.331 435.358 149.502 437.048 149.015C438.604 148.566 440.391 147.388 440.391 147.388C440.391 147.388 438.585 128.59 435.216 117.801C434.353 115.031 433.384 112.791 432.316 111.53C427.092 105.356 422.105 118.417 422.105 118.417V118.415Z" fill="#ED7D2B"/>
<path d="M427.172 97.1221C430.437 96.0701 439.747 97.4215 449.1 99.2516L451.059 96.0208L471.259 94.4429C471.259 94.4429 477.914 109.222 474.275 118.644C473.389 120.939 470.497 120.937 470.495 120.939C470.495 120.939 458.537 120.939 454.632 120.939C444.585 120.939 433.37 114.033 431.92 113.743C429.546 113.268 428.595 118.018 426.221 123.004C423.847 127.99 403.899 145.09 403.899 145.09C403.899 145.09 400.833 145.119 399.567 144.644C398.205 144.134 397.707 143.47 397.707 143.47C397.707 143.47 419.81 99.4939 427.172 97.1201V97.1221Z" fill="#F99746"/>
<path d="M451.177 68.2004C458.371 72.162 472.963 80.373 473.04 80.3198C473.04 80.3198 478.404 82.341 481.448 80.3198C486.521 76.9511 489.239 67.8871 479.964 60.0859C475.339 56.1952 472.053 55.2476 471.552 49.0362C471.281 45.6655 466.675 34.5429 459.019 35.5713C458.379 35.6579 457.735 35.719 457.091 35.6973C456.196 35.6678 454.721 35.7998 453.206 36.7001C448.874 39.2788 440.395 66.6677 451.179 68.2004H451.177Z" fill="#221E20"/>
<path d="M457.207 64.8298C457.176 64.8495 460.747 66.0689 463.135 65.011C465.381 64.0182 467.083 60.3224 467.049 60.3205C466.027 60.2732 464.906 59.3808 464.041 53.5181L463.606 53.6737L456.289 56.3056C456.289 56.3056 456.819 58.6539 457.162 60.8878C457.451 62.7652 457.605 64.5619 457.205 64.8278L457.207 64.8298Z" fill="#914F4E"/>
<path d="M456.289 56.3072C456.289 56.3072 456.819 58.6555 457.162 60.8894C461.364 60.133 463.013 55.9467 463.606 53.6753L456.289 56.3072Z" fill="#533131"/>
<path d="M455.2 58.6377C455.2 58.6377 465.209 57.2942 464.278 51.0729C463.346 44.8516 464.01 40.4881 457.578 41.083C451.147 41.678 450.265 44.237 450.07 46.3902C449.877 48.5415 452.572 58.8268 455.2 58.6377V58.6377Z" fill="#914F4E"/>
<path d="M450.434 42.9801C450.434 42.9801 456.842 48.502 461.2 48.9472C465.558 49.3925 467.209 47.9938 467.209 47.9938C467.209 47.9938 464.64 45.8603 463.093 42.4187C462.638 41.4041 461.675 40.7067 460.566 40.6122C457.453 40.3443 451.553 40.2201 450.432 42.9801H450.434Z" fill="#221E20"/>
<path d="M454.441 42.4857C454.441 42.4857 452.298 44.5582 451.622 46.0967C450.97 47.5801 450.775 51.1281 451.295 52.5386C451.295 52.5386 447.956 46.0435 449.845 42.8896C451.851 39.5445 454.441 42.4877 454.441 42.4877V42.4857Z" fill="#221E20"/>
<path d="M448.777 79.575C449.081 99.8384 448.86 95.6029 451.076 97.5256C451.61 97.9885 453.111 98.2644 455.087 98.3944C461.301 98.8061 472.222 97.7837 472.638 96.6352C474.07 92.6617 473.06 91.4285 474.255 85.3451C474.379 84.6989 474.535 83.9976 474.716 83.2352C475.713 79.0569 476.684 77.6365 473.146 70.9247C469.939 64.8453 466.606 59.9104 466.306 60.0897C457.843 65.1132 457.162 60.8915 457.162 60.8915C457.162 60.8915 448.628 69.6915 448.777 79.575V79.575Z" fill="#61B8E1"/>
<path d="M427.089 131.823L433.594 149.331C433.594 149.331 435.359 149.502 437.05 149.015C438.606 148.566 440.393 147.388 440.393 147.388C440.393 147.388 438.586 128.59 435.218 117.801L427.089 131.825V131.823Z" fill="#F99746"/>
<path d="M457.162 60.8896C457.162 60.8896 448.454 62.3652 447.432 66.1161C446.409 69.865 440.393 91.9053 440.393 91.9053C440.393 91.9053 444.82 92.7012 446.864 90.6563C448.909 88.6115 453.98 71.6833 453.98 71.6833L457.162 60.8916V60.8896Z" fill="#61B8E1"/>
<path d="M455.087 98.3965C461.301 98.8082 472.222 97.7858 472.638 96.6373C474.07 92.6638 473.06 91.4306 474.256 85.3472L471.259 76.9077C471.259 76.9077 471.756 86.3046 468.984 88.777C466.216 91.2493 457.637 93.5483 456.291 95.6129C455.641 96.6038 455.213 97.5986 455.089 98.3965H455.087Z" fill="#56AFDD"/>
<path d="M462.207 94.4446C462.207 94.4446 456.076 93.0793 455.087 93.6231C454.098 94.1668 451.681 96.1486 451.378 96.8381C451.074 97.5276 453.58 96.3141 454.394 96.0954C454.922 95.9536 456.311 96.4362 456.998 96.6647C459.892 97.6281 461.663 97.1336 461.663 97.1336L462.205 94.4426L462.207 94.4446Z" fill="#914F4E"/>
<path d="M466.312 60.0859C466.312 60.0859 474.543 60.5922 477.392 64.5677C481.402 70.1625 489.359 94.0015 484.799 97.181C479.663 100.762 461.427 98.1168 461.427 98.1168C461.427 98.1168 460.82 95.28 461.665 93.9089C462.51 92.5377 476.231 90.3195 476.864 89.6872C477.496 89.0548 468.948 77.3372 468.948 75.4381C468.948 73.5391 466.312 60.0859 466.312 60.0859Z" fill="#61B8E1"/>
<path d="M454.792 95.3291C454.792 95.3291 453.507 96.9859 453.086 97.1829C452.664 97.3799 452.392 97.3306 452.392 97.3306L453.257 95.7724L454.79 95.3271L454.792 95.3291Z" fill="#914F4E"/>
<path d="M455.087 93.623L451.352 95.4374C451.352 95.4374 451.512 95.6975 451.971 95.6758C452.43 95.6541 453.59 95.2306 453.59 95.2306L455.085 93.623H455.087Z" fill="#914F4E"/>
<path d="M453.085 99.7225H423.547L414.663 77.625H444.155L453.085 99.7225Z" fill="#14475F"/>
<path d="M423.201 98.8613H462.207V99.7222H423.547L423.201 98.8613Z" fill="#14475F"/>
<path d="M431.004 88.6727C430.781 87.8965 431.23 87.2661 432.007 87.2661C432.783 87.2661 433.594 87.8965 433.817 88.6727C434.04 89.4489 433.59 90.0793 432.814 90.0793C432.038 90.0793 431.226 89.4489 431.004 88.6727Z" fill="white"/>
<path d="M567.806 292.591H1.75254C1.33884 292.591 1 292.252 1 291.838C1 291.425 1.33884 291.086 1.75254 291.086H567.806C568.22 291.086 568.559 291.425 568.559 291.838C568.559 292.252 568.22 292.591 567.806 292.591Z" fill="#14475F"/>
</svg>
