<svg xmlns="http://www.w3.org/2000/svg" xmlns:xlink="http://www.w3.org/1999/xlink" width="17.409" height="17.814" viewBox="0 0 17.409 17.814">
  <defs>
    <clipPath id="clip-path">
      <path id="Path_7" data-name="Path 7" d="M19.207,9.288h-8.3v3.441h4.777c-.445,2.186-2.308,3.441-4.777,3.441a5.263,5.263,0,1,1,0-10.527,5.149,5.149,0,0,1,3.279,1.174l2.591-2.591a8.9,8.9,0,1,0-5.871,15.587c4.454,0,8.5-3.239,8.5-8.907A7.389,7.389,0,0,0,19.207,9.288Z" transform="translate(-2 -2)"/>
    </clipPath>
  </defs>
  <g id="google" transform="translate(-2 -2)">
    <g id="Group_97" data-name="Group 97" transform="translate(2 2)" clip-path="url(#clip-path)">
      <path id="Path_6" data-name="Path 6" d="M0,21.527V11l6.883,5.263Z" transform="translate(-0.81 -7.356)" fill="#fbbc05"/>
    </g>
    <g id="Group_98" data-name="Group 98" transform="translate(2 2)" clip-path="url(#clip-path)">
      <path id="Path_8" data-name="Path 8" d="M0,4.454,6.883,9.717l2.834-2.47,9.717-1.579V0H0Z" transform="translate(-0.81 -0.81)" fill="#ea4335"/>
    </g>
    <g id="Group_99" data-name="Group 99" transform="translate(2 2)" clip-path="url(#clip-path)">
      <path id="Path_10" data-name="Path 10" d="M0,14.98,12.146,5.668l3.2.4L19.434,0V19.434H0Z" transform="translate(-0.81 -0.81)" fill="#34a853"/>
    </g>
    <g id="Group_100" data-name="Group 100" transform="translate(2 2)" clip-path="url(#clip-path)">
      <path id="Path_12" data-name="Path 12" d="M27.17,25.98,14.619,16.263,13,15.049,27.17,11Z" transform="translate(-8.546 -7.356)" fill="#4285f4"/>
    </g>
  </g>
</svg>
