<svg xmlns="http://www.w3.org/2000/svg" xmlns:xlink="http://www.w3.org/1999/xlink" width="165" height="32" viewBox="0 0 165 32">
  <defs>
    <clipPath id="clip-path">
      <rect id="Rectangle_5" data-name="Rectangle 5" width="45" height="32" transform="translate(0 0.494)" fill="none"/>
    </clipPath>
    <linearGradient id="linear-gradient" y1="0.5" x2="1" y2="0.5" gradientUnits="objectBoundingBox">
      <stop offset="0" stop-color="#f8cd47"/>
      <stop offset="0.998" stop-color="#f86d47"/>
    </linearGradient>
  </defs>
  <g id="Group_1735" data-name="Group 1735" transform="translate(-276 -3454)">
    <path id="Path_37" data-name="Path 37" d="M2160.11,3447.689l-6.308-12.723h2.385l5.036,10.6,5.01-10.6h2.386l-6.309,12.723v6.891h-2.2Z" transform="translate(-1828.434 24.882)"/>
    <path id="Path_38" data-name="Path 38" d="M2227.184,3469.481a7.515,7.515,0,1,1,0,.026Zm1.935.053a5.713,5.713,0,1,0,0-.027Z" transform="translate(-1888.351 2.825)"/>
    <path id="Path_39" data-name="Path 39" d="M2338.7,3478.406h-1.856v-2.544c-.795,1.855-2.73,2.968-5.275,2.941-4.452-.08-6.016-3.1-6.016-6.573v-8.084h1.935v7.713c0,3.074,1.378,5.142,4.585,5.116,2.969-.027,4.665-1.8,4.665-4.771v-8.057h1.962Z" transform="translate(-1968.672 1.055)"/>
    <path id="Path_40" data-name="Path 40" d="M2418,3462.378h1.855v2.332a4.855,4.855,0,0,1,4.559-2.729v1.935h-.186c-2.756,0-4.294,1.722-4.294,4.956v7.766H2418Z" transform="translate(-2044.158 2.825)"/>
    <path id="Path_41" data-name="Path 41" d="M2464.806,3434.966h9.967v1.935h-7.793v6.892h7.739v1.962h-7.739v8.825h-2.174Z" transform="translate(-2077.823 24.882)"/>
    <path id="Path_42" data-name="Path 42" d="M2534.865,3434.966h1.962v19.613h-1.962Z" transform="translate(-2135.027 24.882)"/>
    <path id="Path_43" data-name="Path 43" d="M2561.444,3469.481a7.515,7.515,0,1,1,0,.026Zm1.935.053a5.713,5.713,0,1,0,0-.027Z" transform="translate(-2156.729 2.825)"/>
    <path id="Path_44" data-name="Path 44" d="M2647.972,3464.147h2.067l3.923,11.742,3.419-10.47H2659l3.446,10.47,3.9-11.742h2.041l-4.93,14.259h-1.934l-3.367-10.39-3.313,10.39h-1.908Z" transform="translate(-2227.381 1.055)"/>
    <g id="Group_20" data-name="Group 20" transform="translate(276 3453.506)">
      <g id="Group_19" data-name="Group 19" transform="translate(0 0)" clip-path="url(#clip-path)">
        <path id="Path_45" data-name="Path 45" d="M1924.444,3363.011a3.235,3.235,0,0,0-4.439,1.1l-8.356,13.821-9.855-15.531a3.234,3.234,0,1,0-5.469,3.453l11.59,18.278-4.967,8.3-17.921-28.383a3.234,3.234,0,0,0-5.469,3.453l20.72,32.816a3.232,3.232,0,0,0,2.734,1.508h.034a3.236,3.236,0,0,0,2.736-1.565l19.762-32.817A3.234,3.234,0,0,0,1924.444,3363.011Z" transform="translate(-1880.102 -3368.145)" fill="url(#linear-gradient)"/>
      </g>
    </g>
  </g>
</svg>
