<svg xmlns="http://www.w3.org/2000/svg" xmlns:xlink="http://www.w3.org/1999/xlink" width="804" height="349.035" viewBox="0 0 804 349.035">
  <defs>
    <clipPath id="clip-path">
      <rect id="Rectangle_46" data-name="Rectangle 46" width="27.678" height="22.922" rx="3.351" fill="#ffffff"/>
    </clipPath>
    <clipPath id="clip-path-2">
      <circle id="Ellipse_13" data-name="Ellipse 13" cx="4.719" cy="4.719" r="4.719" transform="translate(0 9.185) rotate(-76.718)" fill="#ffffff"/>
    </clipPath>
  </defs>
  <g id="home-banner-bg" transform="translate(-178.572 -155.11)">
    <g id="Group_103" data-name="Group 103" transform="translate(409.179 286.802)">
      <path id="Path_16" data-name="Path 16" d="M1213.465,928.405h-45.386V732.317h45.386Z" transform="translate(-1168.079 -729.489)" fill="#ffffff"/>
      <path id="Path_17" data-name="Path 17" d="M1645.525,850.28l.269.808q-1.348,34.478-20.4,52.658t-55.284,18.182q-36.363,0-59.123-22.357t-22.76-58.045V800.584q0-35.554,21.885-57.978t56.9-22.423q37.17,0,56.833,18.719t22.222,53.2l-.27.808h-44.308q-.943-19.122-8.552-28.417t-25.925-9.293q-15.489,0-24.376,12.457t-8.889,32.659v41.211q0,20.337,9.7,32.861t26.666,12.525q16.429,0,23.3-8.754t7.811-27.878Z" transform="translate(-1413.613 -720.183)" fill="#ffffff"/>
      <path id="Path_18" data-name="Path 18" d="M2349.429,767.333h-51.716V928.405h-45.655V767.333h-51.311V732.317h148.682Z" transform="translate(-1960.081 -729.489)" fill="#ffffff"/>
    </g>
    <g id="Group_104" data-name="Group 104" transform="translate(642.776 352.932)">
      <path id="Path_19" data-name="Path 19" d="M2189.41,1618.442c-.42,1.051-11.98,0-15.763-1.471s-4.2-2.1-1.471-8.408c0,0,1.241,1.835,7.879,2.312C2181,1612.135,2189.832,1617.39,2189.41,1618.442Z" transform="translate(-2170.417 -1467.653)" fill="#331d16"/>
      <path id="Path_20" data-name="Path 20" d="M2290.406,1374.123a20.179,20.179,0,0,1-7.669,1.225s-1.591-11.765-2.187-13.952-1.781-8.764-2.935-11.349.04-9.518.04-9.518c-.132-3.918-4.021-11.562-7.387-18.735s-2.55-16.539-2.55-16.539l14.665-.774c3.621,9.5,4.729,33.253,5.525,36.047S2290.406,1371.737,2290.406,1374.123Z" transform="translate(-2244.975 -1234.44)" fill="#3d1e2a"/>
      <path id="Path_21" data-name="Path 21" d="M2349.434,1608.871c-1.79,1.789-17.81,1.989-19.6.811s0-5.152,0-5.152a20.178,20.178,0,0,0,7.668-1.225C2337.5,1605.689,2351.223,1607.081,2349.434,1608.871Z" transform="translate(-2292.073 -1463.621)" fill="#331d16"/>
      <path id="Path_22" data-name="Path 22" d="M2198.775,1340.044c-.84,3.994-13.871,32.789-12.928,34.05-6.638-.477-7.879-2.312-7.879-2.312,2.732-6.305,4.2-19.126,4.834-23.329s5.044-8.618,5.464-11.35-.42-14.082,0-25.433,2.8-11.839,2.8-11.839l16.148,2.442C2207.874,1311.373,2199.616,1336.051,2198.775,1340.044Z" transform="translate(-2176.208 -1230.873)" fill="#4a2433"/>
      <path id="Path_23" data-name="Path 23" d="M2346.3,1117.746c-4.464,1.075-13.219,2.809-20.365,1.942,0,0-11.518-3.056-13.494-4.915s-2.789-5.318,0-7.075c0,0,12.841,4.982,15.4,5.157,2.364.161,13.863,1.861,17.561.42A7.766,7.766,0,0,0,2346.3,1117.746Z" transform="translate(-2277.964 -1083.517)" fill="#59c1af"/>
      <path id="Path_24" data-name="Path 24" d="M2470.053,1113.651a9.006,9.006,0,0,1-6.566,3.131s-1.1.328-2.92.765a7.764,7.764,0,0,1-.9-4.471,2.546,2.546,0,0,0,.741-.42c2.5-2.149,4.183-5.725,4.823-5.157s-.523,3.3-.523,3.3,6.043-2.556,6.275-2.091A5.879,5.879,0,0,1,2470.053,1113.651Z" transform="translate(-2392.229 -1083.318)" fill="#fde3ca"/>
      <path id="Path_25" data-name="Path 25" d="M2230.765,1099.607c-1.534-.552-3.98-1.193-10.067,4.879s1.425,12.143,0,30.466c0,0-1.209,10.3,1.285,11.059s15.071,4.445,22.552,1.084a37.977,37.977,0,0,0,2.06-12.36c-.217-6.071-1.651-27.216-4.987-33.5C2241.607,1101.234,2234.591,1100.986,2230.765,1099.607Z" transform="translate(-2207.127 -1077.053)" fill="#11ae93"/>
      <path id="Path_26" data-name="Path 26" d="M2240.259,1123.747c-3.536.175-2.593,3.947-2.121,5.184s-2.358,2.592-2.358,2.592-4.183,9.131-6.656,13.9-6.009,5.184-7.777,5.007-7.127-5.772-9.012-14.256,1.5-12.693,2.473-12.9c3.83-.825,4.714,3.416,5.6,5.361s1.238,10.722,2.71,11.135,9.19-11.253,9.19-11.253.589-1.414.884-2.238-.236-1.12,0-2.594,2.181-2.827,4.654-2.061S2240.259,1123.747,2240.259,1123.747Z" transform="translate(-2202.135 -1094.029)" fill="#59c1af"/>
      <path id="Path_27" data-name="Path 27" d="M2284.8,1120.182c-.3.8-.958,1.282-1.48,1.089s-.706-1-.41-1.791.957-1.283,1.479-1.089S2285.093,1119.388,2284.8,1120.182Z" transform="translate(-2256.583 -1091.686)" fill="#807f7f"/>
      <path id="Path_28" data-name="Path 28" d="M2286.2,1118.532l28.769,9.582-3.209,8.64-26.629-15.343Z" transform="translate(-2258.398 -1091.826)" fill="#807f7f"/>
      <path id="Path_29" data-name="Path 29" d="M2398.39,1164.6c-.886,2.386-2.875,3.848-4.44,3.266s-2.118-2.987-1.231-5.374,2.874-3.849,4.44-3.266S2399.276,1162.216,2398.39,1164.6Z" transform="translate(-2340.585 -1122.94)" fill="#616261"/>
      <path id="Path_30" data-name="Path 30" d="M2252.568,1016.889c3.292-.99,8.131-1.656,9.1,1.6s2.386,9,2.121,10.593-.409,3.358-5.6,3.623-7.483-10.781-7.572-12.2S2251.811,1017.117,2252.568,1016.889Z" transform="translate(-2231.928 -1013.248)" fill="#fde3ca"/>
      <path id="Path_31" data-name="Path 31" d="M2236.18,1017.474s.276-3.178,1.658-4.422c0,0-2.9-2.488,0-3.869s6.356,1.382,7.877-1.658,1.257-3.524,1.257-3.524-6.577-.276-9.548.345-5.251,2.764-5.458,4.422c0,0-3.178,1.175-3.317,4.146s6.288,9.259,6.288,9.259Z" transform="translate(-2215.076 -1003.939)" fill="#a14a24"/>
      <path id="Path_32" data-name="Path 32" d="M2254.567,1060.828l.043,4.975a20.676,20.676,0,0,1-.311,4.75s2.626,2.857,4.753,2.857,2.808-.486,3.233-1.094a6.523,6.523,0,0,1,1.52-6.512Z" transform="translate(-2234.75 -1047.57)" fill="#fde3ca"/>
      <path id="Path_33" data-name="Path 33" d="M2245.783,1050.988c.479-1.437,2.917-.248,3.848,2.048v1.675S2244.418,1055.083,2245.783,1050.988Z" transform="translate(-2228.044 -1039.543)" fill="#fde3ca"/>
      <path id="Path_34" data-name="Path 34" d="M2307.826,1123.747c-3.536.175-2.593,3.947-2.12,5.184s-2.358,2.592-2.358,2.592a5.174,5.174,0,0,1-3.476-3s.59-1.414.884-2.238-.235-1.12,0-2.594,2.181-2.827,4.654-2.061S2307.826,1123.747,2307.826,1123.747Z" transform="translate(-2269.702 -1094.029)" fill="#fde3ca"/>
    </g>
    <g id="Group_117" data-name="Group 117" transform="translate(358.66 406.043)">
      <g id="Group_105" data-name="Group 105" transform="translate(42.842 10.332)">
        <path id="Path_35" data-name="Path 35" d="M1135.665,1276.175a.863.863,0,0,1,.968.722,4.8,4.8,0,0,1-.167,2.588c-.25.167-1.328,1.027-1.328,1.027A18.154,18.154,0,0,1,1135.665,1276.175Z" transform="translate(-1135.138 -1276.17)" fill="#e8c8a5"/>
      </g>
      <g id="Group_106" data-name="Group 106" transform="translate(10.717 17.366)">
        <path id="Path_36" data-name="Path 36" d="M1029.09,1307.152s-.275,2.909,1.4,3.577,10.519,2.171,11.854,5.593,4.426,11.522,4.51,14.861,2.17,12.356.668,14.109a7.928,7.928,0,0,0-1.67,3.924c-.167.417-3.506,8.1-6.512,8.432s-6.679,1.587-8.348,3.757-4.091,2.755-7.1,3.005-6.512,1.252-9.183.418-5.26-4.257-7.764-5.092-3.006-7.514-3.006-7.514-5.927-3.005-6.428-8.1a71.383,71.383,0,0,1,.751-17.114c.835-4.174,1.5-10.1,4.258-12.439s7.931-2.422,10.686-3.423,4.007-.5,4.267-3.639C1017.472,1307.508,1026.191,1305.159,1029.09,1307.152Z" transform="translate(-997.294 -1306.35)" fill="#f79420"/>
      </g>
      <g id="Group_107" data-name="Group 107" transform="translate(30.107 17.366)">
        <path id="Path_37" data-name="Path 37" d="M1093.565,1310.174s-.022,4.564-3.861,6.317-5.511.668-6.513-.918a54.3,54.3,0,0,1-2.7-5.752h0a3.444,3.444,0,0,0,.787-2.293c0-.006,0-.011,0-.017l.068-.017c.815-.213,8.757-2.218,11.527-.355l.024.016s-.008.08-.012.217A4.659,4.659,0,0,0,1093.565,1310.174Z" transform="translate(-1080.493 -1306.35)" fill="#f9d6b0"/>
      </g>
      <g id="Group_108" data-name="Group 108" transform="translate(30.381 4.552)">
        <path id="Path_38" data-name="Path 38" d="M1081.674,1257.038l.167,7.513s1.92,4.591,2.922,4.925,4.424.918,5.593.167,3.757-4.674,3.84-5.76.334-6.011.334-6.845.5-3.006-.084-3.757.584-.835-2.338-1.5-7.347-.585-8.766.668A5.846,5.846,0,0,0,1081.674,1257.038Z" transform="translate(-1081.671 -1251.365)" fill="#f9d6b0"/>
      </g>
      <g id="Group_109" data-name="Group 109" transform="translate(28.25)">
        <path id="Path_39" data-name="Path 39" d="M1087.469,1243.469a16.419,16.419,0,0,1,1.215-2.746,5.273,5.273,0,0,0,.584-3.924c-.5-1.252-1.92-3.34-2.838-3.757s-3.673-1.42-5.426-1.169-4.425.669-5.51,1.67-2.755,3.84-2.755,4.675a29.124,29.124,0,0,0-.168,4.258c.168,1.753,2.154,2.581,2.163,3.006s.759-4.258.759-4.258.668-1.336,3.673-1.336a40.927,40.927,0,0,1,5.426.25c1.587.167,1.67.167,2-.5S1087.469,1243.469,1087.469,1243.469Z" transform="translate(-1072.525 -1231.834)" fill="#4f4f4f"/>
      </g>
      <g id="Group_110" data-name="Group 110" transform="translate(28.688 10.349)">
        <path id="Path_40" data-name="Path 40" d="M1075.676,1276.262a.863.863,0,0,0-1.037.62,4.805,4.805,0,0,0-.1,2.592c.232.191,1.662,1.342,1.662,1.342S1076.2,1277.419,1075.676,1276.262Z" transform="translate(-1074.404 -1276.242)" fill="#e8c8a5"/>
      </g>
      <g id="Group_111" data-name="Group 111" transform="translate(16.734 36.772)">
        <path id="Path_41" data-name="Path 41" d="M1023.113,1389.618l40.7.626-4.508,25.545-34.937-.125Z" transform="translate(-1023.113 -1389.618)" fill="#b2b2b2"/>
      </g>
      <g id="Group_112" data-name="Group 112" transform="translate(32.888 45.537)">
        <path id="Path_42" data-name="Path 42" d="M1099.566,1430.861a3.569,3.569,0,1,1-3.569-3.632A3.6,3.6,0,0,1,1099.566,1430.861Z" transform="translate(-1092.428 -1427.229)" fill="#dbdada"/>
      </g>
      <g id="Group_113" data-name="Group 113" transform="translate(3.811 81.339)">
        <path id="Path_43" data-name="Path 43" d="M984.015,1580.917s-5.876-.638-10.259,1.992-6.136,4.759-5.886,5.635-2.63,4.258,7.137,5.76c3.507-2.128,8.265-3.757,10.018-5.384a18.209,18.209,0,0,0,2.581-2.87Z" transform="translate(-967.659 -1580.849)" fill="#3f4040"/>
      </g>
      <g id="Group_114" data-name="Group 114" transform="translate(18.613 58.779)">
        <path id="Path_44" data-name="Path 44" d="M1071.939,1485.024s5.944-1.445,7.822-.818,4.383,2.129,4.758,4.383.5,6.512-2,9.016-8.515,5.134-11.771,5.635-7.389,1.5-9.016,1.879-18.468,5.57-18.468,5.57-6.2,2.82-6.953,2.82-5.134-6.887-5.134-6.887.125-.876,3.631-2.63,11.27-5.385,11.27-5.385,14.4-6.136,16.655-7.764S1071.939,1485.024,1071.939,1485.024Z" transform="translate(-1031.174 -1484.048)" fill="#0f5282"/>
      </g>
      <g id="Group_115" data-name="Group 115" transform="translate(0 59.1)">
        <path id="Path_45" data-name="Path 45" d="M970.793,1490.977s-7.639-5.553-10.52-5.553-6.512.125-8.14,3.131-.876,10.769,2.5,12.022,14.777,6.386,17.156,7.387,6.011,3.506,9.141,4.258,7.138,2.5,9.016,2.254,5.26-8.391,4.759-9.267-4.883-2.254-7.764-4.132-8.139-4.759-9.642-5.886S970.793,1490.977,970.793,1490.977Z" transform="translate(-951.308 -1485.424)" fill="#135587"/>
      </g>
      <g id="Group_116" data-name="Group 116" transform="translate(39.383 79.758)">
        <path id="Path_46" data-name="Path 46" d="M1124.29,1574.064s2.907.505,4.66.881a12.1,12.1,0,0,1,5.134,2.5c2,1.5,5.76,3.631,5.385,5.635s-1.378,5.635-3.882,5.635-7.764-.25-9.392-2.129a35.307,35.307,0,0,0-5.9-4.546S1123.763,1575.687,1124.29,1574.064Z" transform="translate(-1120.298 -1574.064)" fill="#3f4040"/>
      </g>
      <path id="Path_47" data-name="Path 47" d="M1095.491,1309.74s-.008.08-.012.217a13.652,13.652,0,0,1-.721,1.4,17.611,17.611,0,0,1-1.694,2.453,6.534,6.534,0,0,1-.59.61,1.978,1.978,0,0,1-.8.44,6.132,6.132,0,0,1-1.767.174,14.912,14.912,0,0,1-1.736-.179,12.274,12.274,0,0,1-1.655-.368,1.5,1.5,0,0,1-.685-.556,7.252,7.252,0,0,1-.438-.647c-.259-.433-.476-.852-.669-1.241-.386-.78-.652-1.454-.845-1.921,0,0,0,0,0,0s0-.011,0-.017l.068-.017,0,.006c.223.454.56,1.092.974,1.849.209.377.445.78.716,1.188a6.535,6.535,0,0,0,.446.6,1.3,1.3,0,0,0,.537.431,11.928,11.928,0,0,0,1.606.331,14.1,14.1,0,0,0,1.692.147,5.8,5.8,0,0,0,1.651-.133,1.578,1.578,0,0,0,.671-.354,6,6,0,0,0,.563-.564,20.913,20.913,0,0,0,1.763-2.343c.376-.58.688-1.093.9-1.508Z" transform="translate(-1052.978 -1291.572)" opacity="0.1"/>
    </g>
    <g id="Group_119" data-name="Group 119" transform="translate(633.411 217.441)">
      <path id="Path_48" data-name="Path 48" d="M2223.3,535.912c1.34.45,3.119,1.72,1.665,5.96s-8.59,24.085-8.711,24.085-6.179-1.9-6.179-1.9,7.269-20.313,8.117-22.7S2220.528,534.983,2223.3,535.912Z" transform="translate(-2191.464 -509.391)" fill="#ff808b"/>
      <path id="Path_49" data-name="Path 49" d="M2131.414,691.527s1.023-4.024,17.5-3.73,17.422.34,17.422.34l10.506-2.489-4.854,12.784s-28.277.1-32.612-1.65S2131.731,696.461,2131.414,691.527Z" transform="translate(-2131.138 -624.336)" fill="#3a2914"/>
      <path id="Path_50" data-name="Path 50" d="M2309.665,651.47s4.208,7.9-4.622,13.97-10.091,11.143-17.5,11.09-2.649-10.381-2.649-10.381S2301.99,648.221,2309.665,651.47Z" transform="translate(-2247.694 -597.821)" fill="#3a2914"/>
      <path id="Path_51" data-name="Path 51" d="M2264.233,433.71c-1.375-.369-4.629-1.26-4.513-3.043s.794-1.22.5-1.976-1.1-2.344-.368-3.467a3.22,3.22,0,0,1,3.564-1.434,6.9,6.9,0,0,0,4.319-1.065c.5-.368,2.847-.1,3.119.717s1.917.484,2.344.446a2.252,2.252,0,0,1,1.917,2.421c-.194,1.685,1.491.833,2,1.472s.639,2.247,0,2.692.542,2.111.716,2.382-.271,2.363-1.2,2.673-.213,1.918-.387,2.266-1.763,3.661-6.024,1.685A12.992,12.992,0,0,1,2264.233,433.71Z" transform="translate(-2229.416 -422.565)"/>
      <path id="Path_52" data-name="Path 52" d="M2266.459,438.557s-.286,8.51,1.77,11.194,3.484,3.941,6.339,3.769,6.454-5.254,4.854-12.793S2266.8,436.387,2266.459,438.557Z" transform="translate(-2234.7 -432.862)" fill="#f0d6be"/>
      <path id="Path_53" data-name="Path 53" d="M2321.087,463.888c-.058-.039.523-3.118,1.491-2.6s1.135,4.358-1.495,4.2Z" transform="translate(-2276.604 -452.221)" fill="#f0d6be"/>
      <path id="Path_54" data-name="Path 54" d="M2264.694,435.518a5.248,5.248,0,0,0,3.758,1.414c2.3-.1,2.778-1.782,4.188-1.859s1.565.9,2.727.932,2.944-.525,2.654-1.378a5,5,0,0,0-5.191-3.777c-3.739.271-7.69.736-7.961,1.743A12.71,12.71,0,0,0,2264.694,435.518Z" transform="translate(-2233.344 -428.907)"/>
      <path id="Path_55" data-name="Path 55" d="M2289.849,491.374l1.472,4.687s.91,1.433,3.525.794,3.506-4.068,3.506-4.068l-1.763-5.617Z" transform="translate(-2252.65 -472.114)" fill="#f0d6be"/>
      <path id="Path_56" data-name="Path 56" d="M2265.479,512.717s.265,2.913,2.86,2.788,4.746-4.232,4.746-4.232a8.242,8.242,0,0,0,3.506,1.472,30.2,30.2,0,0,1,5.851,2.242s2.068,28.444,1.086,34.517c0,0-13.575,5.626-21.255,4.376,0,0-7.538-21.612-4.751-36.705A84.91,84.91,0,0,0,2265.479,512.717Z" transform="translate(-2227.381 -490.599)" fill="#ff5967"/>
      <path id="Path_57" data-name="Path 57" d="M2312.042,526.791c1.9-.436,4.788,2.653,5.629,10.417s1.488,17.793-.777,19.022-17.483,6.794-17.483,6.794.274-4.788-2.638-4.853c0,0,14.363-5.37,14.363-6.923s-1.812-14.1-1.812-15.852S2308.937,527.5,2312.042,526.791Z" transform="translate(-2257.96 -502.47)" fill="#ff808b"/>
      <path id="Path_58" data-name="Path 58" d="M2275.406,663.134s2.992-5.057-6.164-5.851c0,0-3.87,2.557-3.766,3.524s3.628,4.25,4.7,4.112S2274.625,663.906,2275.406,663.134Z" transform="translate(-2233.955 -602.581)" fill="#f0d6be"/>
      <path id="Path_59" data-name="Path 59" d="M2291.276,648.041c2.615,3.363-.764,8.253-6.495,11.538s-22.007,13.522-22.007,13.522-3.757-3.435-3.33-6.263c0,0,18.612-15.621,22.051-17.744S2289.136,645.291,2291.276,648.041Z" transform="translate(-2229.305 -594.393)" fill="#503713"/>
      <path id="Path_60" data-name="Path 60" d="M2250.082,733.422l-2.878,2.142s.391,4.61,3.363,5.447l2.846-1.326S2249.931,736.7,2250.082,733.422Z" transform="translate(-2219.942 -660.976)" fill="#f0d6be"/>
      <path id="Path_61" data-name="Path 61" d="M2203.714,741s-9.194-.757-10.691-.392-2.594,1.753-2.52,4.748,2.045,4.054,3.214,4.2,9.548-.463,13.612-3.227Z" transform="translate(-2176.454 -666.408)"/>
      <g id="Group_118" data-name="Group 118" transform="translate(0 63.802)">
        <path id="Path_62" data-name="Path 62" d="M2130.269,700.556c.34-2.655,4.625-5.412,11.465-3.69s26.128,9.054,26.128,9.054-.2,5.465-1.771,6.645c0,0-26.669-4.43-28.883-5.267S2129.729,704.788,2130.269,700.556Z" transform="translate(-2130.231 -696.33)" fill="#453015"/>
        <path id="Path_63" data-name="Path 63" d="M2284.1,744.12l3.592.614a10.546,10.546,0,0,0,1.92-5.828l-3.74-1.43S2285.3,742.229,2284.1,744.12Z" transform="translate(-2248.241 -727.886)" fill="#f0d6be"/>
        <path id="Path_64" data-name="Path 64" d="M2301.433,742.964s8.387-.558,10.269.2,2.016,3.069,1.86,4.212a4.69,4.69,0,0,1-4.906,3.361,67.556,67.556,0,0,1-9.141-1.949A11.3,11.3,0,0,0,2301.433,742.964Z" transform="translate(-2260.061 -731.945)"/>
      </g>
      <path id="Path_65" data-name="Path 65" d="M2181.448,624.143l-25.256,3a.921.921,0,0,1-1.02-.8l-3.638-20.2a.92.92,0,0,1,.8-1.02l25.256-3a.92.92,0,0,1,1.02.8l3.639,20.2A.921.921,0,0,1,2181.448,624.143Z" transform="translate(-2146.564 -560.268)" fill="#888"/>
      <path id="Rectangle_19" data-name="Rectangle 19" d="M.535,0H10.5a.535.535,0,0,1,.535.535v0a.535.535,0,0,1-.535.535H.535A.535.535,0,0,1,0,.535v0A.535.535,0,0,1,.535,0Z" transform="translate(34.459 62.882) rotate(-16.786)" fill="#888"/>
    </g>
    <g id="Group_120" data-name="Group 120" transform="translate(284.275 345.146)">
      <rect id="Rectangle_20" data-name="Rectangle 20" width="26.416" height="2.761" transform="translate(18.392 69.84)" fill="#4b2712"/>
      <path id="Rectangle_21" data-name="Rectangle 21" d="M1.633,0H5.389A1.633,1.633,0,0,1,7.023,1.633v0A1.633,1.633,0,0,1,5.389,3.266H1.633A1.633,1.633,0,0,1,0,1.633v0A1.633,1.633,0,0,1,1.633,0Z" transform="translate(28.267 69.509)" fill="#f2f2f2"/>
      <path id="Path_66" data-name="Path 66" d="M707.842,1282.053s-.8,30.244-.965,40.837,1.926,37.078,1.926,37.078,3.735,1.445,6.924.642c0,0,4.091-29.052,2.356-35.312l3.674-31.808s2.167,25.548,3.516,31.005c0,0-2.22,10.594,1.249,35.473,0,0,4.515,1.253,7.737-.161,0,0,.877-30.5,1.113-37.238s-1.113-40.516-1.113-40.516Z" transform="translate(-689.45 -1209.452)" fill="#386a84"/>
      <path id="Path_67" data-name="Path 67" d="M639.224,1286.154s.809,4.484,0,5.313-1.783.487-2.124.974-1.121,2.339-1.949,2.144-3.411-2.485-2.972-4.677a29.484,29.484,0,0,1,2.293-5.755S637.84,1284.5,639.224,1286.154Z" transform="translate(-632.128 -1211.063)" fill="#ffc194"/>
      <path id="Path_68" data-name="Path 68" d="M816.093,1081.215s5.867,4.847,8.874,25.534c0,0,1.789,10.952,1.575,18.969,0,0-3.078,1.074-4.581.859,0,0-4.295-13.1-3.866-18.9,0,0-5.011-14.746-5.655-18.755S814.019,1080.878,816.093,1081.215Z" transform="translate(-770.331 -1055.405)" fill="#fff"/>
      <path id="Path_69" data-name="Path 69" d="M656.336,1084.1s-3.9,9.1-7.568,25.529a133.037,133.037,0,0,0-6.587,21.094s3.752.917,4.752,2c0,0,7.836-15.508,9.045-19.843s6.546-20.26,5.712-22.511S660.569,1084.833,656.336,1084.1Z" transform="translate(-639.838 -1057.632)" fill="#fff"/>
      <path id="Path_70" data-name="Path 70" d="M716.128,1059.264c2.224.014,3.874.048,9.593,2.263s5.443,2.869,5.443,3.817-1.516,18.518-1.585,23.41,2.067,18.742,1.171,19.5-8.518,1.24-13.906,1.171-13.38.345-13.863-.62,1.516-15.917,1.447-18.122-4.272-24.047-2.687-25.632S714.122,1059.251,716.128,1059.264Z" transform="translate(-685.245 -1038.585)" fill="#fff"/>
      <path id="Path_71" data-name="Path 71" d="M738.775,986.363c-1.714.2-5.286.645-6.914-5.349s1.257-10.365,6.4-10.48,8.218,4.064,6.928,11.007S738.775,986.363,738.775,986.363Z" transform="translate(-708.269 -970.532)" fill="#985a25"/>
      <path id="Path_72" data-name="Path 72" d="M754.1,1033.438a8.7,8.7,0,0,1-7.919.445l-.833-5.673-.232-1.59-.227-1.544,9.009-2.184.041,2.163.064,3.3Z" transform="translate(-718.607 -1010.689)" fill="#ffc194"/>
      <path id="Path_73" data-name="Path 73" d="M759.052,1070.765l-1.7,1.931,1.179,1.567,2.829-.1,1.133-1.7-1.91-1.7Z" transform="translate(-728.169 -1047.406)" fill="#b51e40"/>
      <path id="Path_74" data-name="Path 74" d="M757.514,1085.453l-1.489,28.636,2.881,3.6,2.571-3.372-1.133-28.967Z" transform="translate(-727.151 -1058.595)" fill="#b51e40"/>
      <path id="Path_75" data-name="Path 75" d="M850.139,1273.1s-2.208,6.192-.282,7.279,4.2,1.334,5.533.346-.67-8.484-.67-8.484Z" transform="translate(-798.51 -1201.925)" fill="#ffc194"/>
      <path id="Path_76" data-name="Path 76" d="M788.255,1615.85s-1.635,4.574-.481,6.256c0,0,7.832,2.595,18.836.529,0,0,.673-.913-.769-1.249s-8.789-3.414-9.849-5.7Z" transform="translate(-751.184 -1465.333)" fill="#5e2d15"/>
      <path id="Path_77" data-name="Path 77" d="M679.232,1617.02s.867,4.105,0,5.535c0,0-11.947,2.621-19.929.477,0,0-.357-1.311,2.025-1.43s10.98-5.224,10.98-5.224Z" transform="translate(-652.955 -1465.862)" fill="#5e2d15"/>
      <path id="Path_78" data-name="Path 78" d="M860.9,1301.234h0a1.033,1.033,0,0,1-1.03-1.031v-6.182a1.033,1.033,0,0,1,1.03-1.03h0a1.033,1.033,0,0,1,1.03,1.03v6.182A1.033,1.033,0,0,1,860.9,1301.234Z" transform="translate(-806.792 -1217.842)" fill="#612f10"/>
      <path id="Path_79" data-name="Path 79" d="M766.72,1057.268s2.5,1.353,3.039,2.491a21.108,21.108,0,0,0,2.362-4.929l-1.277-1.611A10.781,10.781,0,0,1,766.72,1057.268Z" transform="translate(-735.353 -1033.949)" fill="#f4f4f4"/>
      <path id="Path_80" data-name="Path 80" d="M748.723,1058.879s-2.11,1.824-2.213,2.806a13.491,13.491,0,0,1-3.256-4.393c.122-.267.27-.547.431-.844a5.471,5.471,0,0,1,.737-1.128S746.4,1058.182,748.723,1058.879Z" transform="translate(-717.356 -1035.56)" fill="#f4f4f4"/>
      <rect id="Rectangle_22" data-name="Rectangle 22" width="9.64" height="31.198" rx="4.82" transform="translate(49.286 81.702)" fill="#763818"/>
      <path id="Path_81" data-name="Path 81" d="M754.746,1035.479a4.917,4.917,0,0,1-3.466,2.25c-2.551.393-4.384-1.4-5.189-2.4l-.232-1.59,8.823-1.565Z" transform="translate(-719.354 -1017.809)" opacity="0.1"/>
      <path id="Path_82" data-name="Path 82" d="M740.526,977.212c3.544-.692,7.141,1.821,7.207,4.447S748.4,995,742.824,995s-7.155-7.286-7.417-11.356S737.835,977.737,740.526,977.212Z" transform="translate(-711.324 -975.566)" fill="#ffc194"/>
      <path id="Path_83" data-name="Path 83" d="M732.4,1007.387s-.619-.867-1.281-.312-.269,4.136,1.836,3.811Z" transform="translate(-707.82 -998.416)" fill="#ffc194"/>
      <path id="Path_84" data-name="Path 84" d="M734.87,982.451a9.178,9.178,0,0,0,.625-2.261c.061-.912.122-1.429.547-1.429s1.156,1.125,4.136.852,3.558-1.764,4.714-1.7,1.277,2.311,1.825,3.193a7.9,7.9,0,0,1,.783,1.642s.312-4.835-1.664-6.173-2.924-1.7-4.822-1.673S733.435,976.275,734.87,982.451Z" transform="translate(-710.75 -973.88)" fill="#985a25"/>
      <path id="Path_85" data-name="Path 85" d="M786.024,1004.369s.527-.927,1.243-.442.695,4.086-1.432,3.981Z" transform="translate(-750.013 -996.036)" fill="#ffc194"/>
    </g>
    <g id="Group_121" data-name="Group 121" transform="translate(741.317 346.062)">
      <path id="Path_86" data-name="Path 86" d="M2618.985,1151.231l-1.613,1.894s-9.958-1.823-15.919-2.735c0,0-2.665-3.717-3.226-3.647s.491,2.735.491,2.735-5.259-1.613-5.4-1.193-.21,4.068.912,4.839,6.942.631,6.942.631,13.885,4.309,16.69,4.258,5.4-3.837,5.4-3.837A13.941,13.941,0,0,1,2618.985,1151.231Z" transform="translate(-2593.241 -1106.591)" fill="#ffc194"/>
      <path id="Path_87" data-name="Path 87" d="M2712.895,1097.8l-12.2,16.1s1.192,3.787,4.348,4.278c0,0,11.361-10.659,13.184-13.324S2713.8,1097.755,2712.895,1097.8Z" transform="translate(-2675.652 -1069.056)" fill="#f05e5a"/>
      <path id="Path_88" data-name="Path 88" d="M2873.823,1195.108v3.232a93.449,93.449,0,0,1-1.5,16.495s1.013,8.971-2.171,8.73-3.279-3.087-1.688-9.019c0,0-.3-11.238,1.006-14.517l-.668-4.63A11.8,11.8,0,0,0,2873.823,1195.108Z" transform="translate(-2803.552 -1143.685)" fill="#ffc194"/>
      <path id="Path_89" data-name="Path 89" d="M2855.651,1083.245a18.313,18.313,0,0,1,6.55,10.344,111.183,111.183,0,0,1,2.216,16.361,8.643,8.643,0,0,1-5.963.739s-3.695-12.561-4.012-17.681S2853.852,1084.091,2855.651,1083.245Z" transform="translate(-2793.392 -1057.892)" fill="#f05e5a"/>
      <path id="Path_90" data-name="Path 90" d="M2758.854,1622.944s1.144,3.229.487,4.083-8.175.1-9.685.164-5.818.648-7.329-.271,1.387-1.075,4.932-2.125a21.56,21.56,0,0,0,6.657-3.653Z" transform="translate(-2707.269 -1470.43)" fill="#8b371d"/>
      <path id="Path_91" data-name="Path 91" d="M2828.642,1622.944s-1.144,3.229-.488,4.083,8.174.1,9.685.164,5.819.648,7.329-.271-1.387-1.075-4.932-2.125a21.563,21.563,0,0,1-6.657-3.653Z" transform="translate(-2773.251 -1470.43)" fill="#8b371d"/>
      <path id="Path_92" data-name="Path 92" d="M2773.684,1417.23s.386,7.01.579,9.2,4.017,38.326,4.017,38.326.955,1.8,4.936,1.8c0,0,.653-34.424-.962-38.686,0,0,1.494-8.327.923-10.638Z" transform="translate(-2731.632 -1314.041)" fill="#ffc194"/>
      <path id="Path_93" data-name="Path 93" d="M2840.018,1417.23s-.386,7.01-.579,9.2-4.017,38.326-4.017,38.326-.955,1.8-4.936,1.8c0,0-.653-34.424.961-38.686,0,0-1.494-8.327-.923-10.638Z" transform="translate(-2775.095 -1314.041)" fill="#ffc194"/>
      <path id="Path_94" data-name="Path 94" d="M2765.846,1247.923s-3.257,9.693-2.94,15.254,1.828,27.17,1.828,27.17,12.711,1.907,23.913-1.271c0,0,2.145-31.54-1.391-38.849Z" transform="translate(-2723.349 -1184.192)" fill="#612715"/>
      <path id="Path_95" data-name="Path 95" d="M2765.34,1068.711a18.043,18.043,0,0,1-4.4.545s-5.435,5.219-8.361,5.659,1.686,14.027,3.075,16.159,3.868,10.413,2.628,14.777-4.066,9.719-4.017,13.289c0,0,3.471,2.827,10.86,2.876l4.215-8.38a41.382,41.382,0,0,1,2.926,7.884,17.314,17.314,0,0,0,8.628-3.074s-3.372-10.81-3.62-13.884-.645-11.157.893-16.066.625-15.644-1.557-16.835S2768.824,1067.819,2765.34,1068.711Z" transform="translate(-2714.717 -1046.608)" fill="#e75550"/>
      <path id="Path_96" data-name="Path 96" d="M2778.47,974.487c-2.09.19-6.916,2.182-6.916,8.391s-2.521,10.481-1.476,13.708,2.244,3.781,5.317,4.457a13.269,13.269,0,0,0,6.577-.184c1.752-.369,5.441-3.156,5.841-5.989s-3.412-8.242-3.259-9.687.861-2.8.523-5.471A6.122,6.122,0,0,0,2778.47,974.487Z" transform="translate(-2728.672 -974.46)" fill="#65302e"/>
      <path id="Path_97" data-name="Path 97" d="M2800.137,1048.577c-1.619,1.888-3.117,3.595-3.181,3.668l0,0a0,0,0,0,0,0,0c-.071-.062-1.72-1.523-3.429-3.285l-.92-8.077-.2-1.746v-.018l-.387-3.409-.342-3-.078-.675c2.012,1.078,7.509-1.619,7.509-1.619l.061,1.076.209,3.659.222,3.921Z" transform="translate(-2745.368 -1017.375)" fill="#ffc194"/>
      <path id="Path_98" data-name="Path 98" d="M2788.911,1080.889c-.071-.062-1.721-1.523-3.43-3.285-.663-.684-1.335-1.411-1.927-2.12l1.42-1.991a24.388,24.388,0,0,0-3.863.117,28.648,28.648,0,0,1,2.537-5.609l.714-.238v.018c.007.115.05.755.2,1.746A27.328,27.328,0,0,0,2788.911,1080.889Z" transform="translate(-2737.328 -1046.018)" fill="#f16763"/>
      <path id="Path_99" data-name="Path 99" d="M2817.6,1071.211l2.172,1.576c-.622.743-1.314,1.557-1.987,2.342-1.62,1.888-3.118,3.595-3.182,3.668,2.379-5.134,2.624-11.278,2.641-13.175,0-.378,0-.587,0-.587l.714.241c1.26,1.785,3.615,5.57,3.615,5.57A11.507,11.507,0,0,0,2817.6,1071.211Z" transform="translate(-2763.011 -1043.926)" fill="#f16763"/>
      <path id="Path_100" data-name="Path 100" d="M2799.63,1038.69c-.931,1.152-2.461,2.79-3.675,2.849-1.241.062-2.783-1.335-3.684-2.29l-.342-3,7.492-1.218Z" transform="translate(-2745.624 -1020.915)" opacity="0.1"/>
      <path id="Path_101" data-name="Path 101" d="M2790.932,981.347c-2.891-.386-5.448,2.072-5.6,6.062-.147,3.822.057,9.967,4.929,12.569a1.216,1.216,0,0,0,1.311-.106c1.555-1.185,5.347-4.991,4.426-13.461A5.851,5.851,0,0,0,2790.932,981.347Z" transform="translate(-2740.541 -979.711)" fill="#ffc194"/>
      <path id="Path_102" data-name="Path 102" d="M2829.561,1012.429s.8-.838,1.438-.382.474,4.007-1.675,3.388Z" transform="translate(-2774.305 -1003.183)" fill="#ffc194"/>
      <path id="Path_103" data-name="Path 103" d="M2793.332,980.63s-.747,6.556-9.561,6.484c0,0-.929-6.32,4.024-7.886C2787.8,979.228,2791.42,978.026,2793.332,980.63Z" transform="translate(-2739.315 -977.904)" fill="#65302e"/>
      <path id="Path_104" data-name="Path 104" d="M2780.84,1012.429s-.8-.838-1.439-.382-.474,4.007,1.676,3.388Z" transform="translate(-2735.766 -1003.183)" fill="#ffc194"/>
    </g>
    <g id="Group_125" data-name="Group 125" transform="translate(304.14 224.326)" opacity="0.3">
      <g id="Group_122" data-name="Group 122" transform="translate(0 21.619)">
        <ellipse id="Ellipse_1" data-name="Ellipse 1" cx="15.465" cy="5.405" rx="15.465" ry="5.405" transform="translate(0 6.569)" fill="#ffffff"/>
        <rect id="Rectangle_23" data-name="Rectangle 23" width="30.93" height="6.569" transform="translate(0 5.405)" fill="#ffffff"/>
        <ellipse id="Ellipse_2" data-name="Ellipse 2" cx="15.465" cy="5.405" rx="15.465" ry="5.405" fill="#ffffff"/>
      </g>
      <g id="Group_123" data-name="Group 123" transform="translate(0 10.809)">
        <ellipse id="Ellipse_3" data-name="Ellipse 3" cx="15.465" cy="5.405" rx="15.465" ry="5.405" transform="translate(0 6.569)" fill="#ffffff"/>
        <rect id="Rectangle_24" data-name="Rectangle 24" width="30.93" height="6.569" transform="translate(0 5.405)" fill="#ffffff"/>
        <ellipse id="Ellipse_4" data-name="Ellipse 4" cx="15.465" cy="5.405" rx="15.465" ry="5.405" fill="#ffffff"/>
      </g>
      <g id="Group_124" data-name="Group 124">
        <ellipse id="Ellipse_5" data-name="Ellipse 5" cx="15.465" cy="5.405" rx="15.465" ry="5.405" transform="translate(0 6.569)" fill="#ffffff"/>
        <rect id="Rectangle_25" data-name="Rectangle 25" width="30.93" height="6.569" transform="translate(0 5.405)" fill="#ffffff"/>
        <ellipse id="Ellipse_6" data-name="Ellipse 6" cx="15.465" cy="5.405" rx="15.465" ry="5.405" fill="#ffffff"/>
      </g>
    </g>
    <g id="Group_130" data-name="Group 130" transform="translate(815.455 155.11)" opacity="0.3">
      <g id="Group_126" data-name="Group 126" transform="translate(6.382 9.027)">
        <path id="Path_105" data-name="Path 105" d="M2973.035,204.5a22.163,22.163,0,0,0-31.343,0l-2.947-2.947a26.311,26.311,0,0,1,37.236,0Z" transform="translate(-2938.745 -193.842)" fill="#ffffff"/>
      </g>
      <g id="Group_127" data-name="Group 127">
        <path id="Path_106" data-name="Path 106" d="M2958.415,168.412a31.188,31.188,0,0,0-44.108,0l-2.947-2.946a35.326,35.326,0,0,1,50,0Z" transform="translate(-2911.36 -155.11)" fill="#ffffff"/>
      </g>
      <g id="Group_128" data-name="Group 128" transform="translate(12.76 18.046)">
        <path id="Path_107" data-name="Path 107" d="M2987.647,240.561a13.144,13.144,0,0,0-18.587,0l-2.947-2.947a17.311,17.311,0,0,1,24.48,0Z" transform="translate(-2966.113 -232.545)" fill="#ffffff"/>
      </g>
      <g id="Group_129" data-name="Group 129" transform="translate(20.127 28.834)">
        <circle id="Ellipse_7" data-name="Ellipse 7" cx="4.873" cy="4.873" r="4.873" fill="#ffffff"/>
      </g>
    </g>
    <g id="Group_134" data-name="Group 134" transform="translate(272.57 242.043)">
      <g id="Group_131" data-name="Group 131" transform="translate(7.02 2.353)">
        <path id="Path_108" data-name="Path 108" d="M612.614,571.356a.585.585,0,0,1-.585-.585V538.808a.585.585,0,1,1,1.17,0v31.963A.585.585,0,0,1,612.614,571.356Z" transform="translate(-612.029 -538.223)" fill="#ced2ea"/>
      </g>
      <g id="Group_132" data-name="Group 132" transform="translate(1.665 17.414)">
        <path id="Path_109" data-name="Path 109" d="M594.992,615.553a.583.583,0,0,1-.414-.172l-5.355-5.355a.585.585,0,0,1-.171-.414v-6.179a.585.585,0,1,1,1.17,0v5.936l5.183,5.184a.585.585,0,0,1-.414,1Z" transform="translate(-589.052 -602.849)" fill="#ced2ea"/>
      </g>
      <g id="Group_133" data-name="Group 133" transform="translate(7.02 5.668)">
        <path id="Path_110" data-name="Path 110" d="M612.614,568.593a.585.585,0,0,1-.414-1l5.829-5.828v-8.734a.585.585,0,1,1,1.17,0v8.976a.584.584,0,0,1-.171.414l-6,6A.583.583,0,0,1,612.614,568.593Z" transform="translate(-612.029 -552.446)" fill="#ced2ea"/>
      </g>
      <circle id="Ellipse_8" data-name="Ellipse 8" cx="1.727" cy="1.727" r="1.727" transform="translate(0 16.185) rotate(-22.5)" fill="#ced2ea"/>
      <circle id="Ellipse_9" data-name="Ellipse 9" cx="1.727" cy="1.727" r="1.727" transform="translate(5.878)" fill="#ced2ea"/>
      <circle id="Ellipse_10" data-name="Ellipse 10" cx="1.727" cy="1.727" r="1.727" transform="translate(11.892 3.453)" fill="#ced2ea"/>
    </g>
    <g id="Group_138" data-name="Group 138" transform="translate(203.902 189.057)" opacity="0.3">
      <g id="Group_135" data-name="Group 135" transform="translate(0 0)">
        <rect id="Rectangle_26" data-name="Rectangle 26" width="10.586" height="36.834" rx="3.528" fill="#ffffff"/>
        <rect id="Rectangle_27" data-name="Rectangle 27" width="6.529" height="1.388" rx="0.694" transform="translate(2.029 4.582)" fill="#ffffff"/>
        <path id="Path_111" data-name="Path 111" d="M301.8,426.515h-5.141a.7.7,0,0,1-.694-.694h0a.7.7,0,0,1,.694-.694H301.8a.7.7,0,0,1,.694.694h0A.7.7,0,0,1,301.8,426.515Z" transform="translate(-293.935 -396.146)" fill="#ffffff"/>
        <path id="Path_112" data-name="Path 112" d="M301.8,417.556h-5.141a.7.7,0,0,1-.694-.694h0a.7.7,0,0,1,.694-.694H301.8a.7.7,0,0,1,.694.694h0A.7.7,0,0,1,301.8,417.556Z" transform="translate(-293.935 -389.275)" fill="#ffffff"/>
        <path id="Path_113" data-name="Path 113" d="M301.8,435.474h-5.141a.7.7,0,0,1-.694-.694h0a.7.7,0,0,1,.694-.694H301.8a.7.7,0,0,1,.694.694h0A.7.7,0,0,1,301.8,435.474Z" transform="translate(-293.935 -403.017)" fill="#ffffff"/>
      </g>
      <g id="Group_136" data-name="Group 136" transform="translate(11.769 0)">
        <rect id="Rectangle_28" data-name="Rectangle 28" width="10.586" height="36.834" rx="3.528" fill="#ffffff"/>
        <rect id="Rectangle_29" data-name="Rectangle 29" width="6.529" height="1.388" rx="0.694" transform="translate(2.029 4.582)" fill="#ffffff"/>
        <path id="Path_114" data-name="Path 114" d="M352.3,426.515h-5.141a.7.7,0,0,1-.694-.694h0a.7.7,0,0,1,.694-.694H352.3a.7.7,0,0,1,.694.694h0A.7.7,0,0,1,352.3,426.515Z" transform="translate(-344.435 -396.146)" fill="#ffffff"/>
        <path id="Path_115" data-name="Path 115" d="M352.3,417.556h-5.141a.7.7,0,0,1-.694-.694h0a.7.7,0,0,1,.694-.694H352.3a.7.7,0,0,1,.694.694h0A.7.7,0,0,1,352.3,417.556Z" transform="translate(-344.435 -389.275)" fill="#ffffff"/>
        <path id="Path_116" data-name="Path 116" d="M352.3,435.474h-5.141a.7.7,0,0,1-.694-.694h0a.7.7,0,0,1,.694-.694H352.3a.7.7,0,0,1,.694.694h0A.7.7,0,0,1,352.3,435.474Z" transform="translate(-344.435 -403.017)" fill="#ffffff"/>
      </g>
      <g id="Group_137" data-name="Group 137" transform="translate(23.613 0)">
        <rect id="Rectangle_30" data-name="Rectangle 30" width="10.586" height="36.834" rx="3.528" fill="#ffffff"/>
        <rect id="Rectangle_31" data-name="Rectangle 31" width="6.529" height="1.388" rx="0.694" transform="translate(2.029 4.582)" fill="#ffffff"/>
        <path id="Path_117" data-name="Path 117" d="M403.12,426.515h-5.141a.7.7,0,0,1-.694-.694h0a.7.7,0,0,1,.694-.694h5.141a.7.7,0,0,1,.694.694h0A.7.7,0,0,1,403.12,426.515Z" transform="translate(-395.256 -396.146)" fill="#ffffff"/>
        <path id="Path_118" data-name="Path 118" d="M403.12,417.556h-5.141a.7.7,0,0,1-.694-.694h0a.7.7,0,0,1,.694-.694h5.141a.7.7,0,0,1,.694.694h0A.7.7,0,0,1,403.12,417.556Z" transform="translate(-395.256 -389.275)" fill="#ffffff"/>
        <path id="Path_119" data-name="Path 119" d="M403.12,435.474h-5.141a.7.7,0,0,1-.694-.694h0a.7.7,0,0,1,.694-.694h5.141a.7.7,0,0,1,.694.694h0A.7.7,0,0,1,403.12,435.474Z" transform="translate(-395.256 -403.017)" fill="#ffffff"/>
      </g>
    </g>
    <g id="Group_140" data-name="Group 140" transform="translate(913.941 394.594)" opacity="0.3">
      <g id="Group_139" data-name="Group 139" transform="translate(0)">
        <rect id="Rectangle_32" data-name="Rectangle 32" width="43.598" height="25.674" rx="3.08" fill="#ffffff"/>
        <rect id="Rectangle_33" data-name="Rectangle 33" width="17.827" height="2.616" rx="1.308" transform="translate(12.886 33.958)" fill="#ffffff"/>
        <rect id="Rectangle_34" data-name="Rectangle 34" width="8.041" height="12.623" transform="translate(17.778 21.335)" fill="#ffffff"/>
      </g>
      <rect id="Rectangle_35" data-name="Rectangle 35" width="40.484" height="22.851" rx="2.299" transform="translate(1.481 1.412)" fill="#ffffff"/>
    </g>
    <g id="Group_141" data-name="Group 141" transform="translate(943.678 166.656)" opacity="0.3">
      <path id="Rectangle_36" data-name="Rectangle 36" d="M3.661,0H7.185a3.662,3.662,0,0,1,3.662,3.662V23.033a3.662,3.662,0,0,1-3.662,3.662H3.662A3.662,3.662,0,0,1,0,23.033V3.661A3.661,3.661,0,0,1,3.661,0Z" transform="translate(13.848 12.77)" fill="#ffffff"/>
      <path id="Rectangle_37" data-name="Rectangle 37" d="M3.661,0H7.185a3.662,3.662,0,0,1,3.662,3.662v8.213a3.662,3.662,0,0,1-3.662,3.662H3.661A3.661,3.661,0,0,1,0,11.875V3.661A3.661,3.661,0,0,1,3.661,0Z" transform="translate(0 23.929)" fill="#ffffff"/>
      <path id="Rectangle_38" data-name="Rectangle 38" d="M3.661,0H7.185a3.661,3.661,0,0,1,3.661,3.661V35.8a3.662,3.662,0,0,1-3.662,3.662H3.662A3.662,3.662,0,0,1,0,35.8V3.661A3.661,3.661,0,0,1,3.661,0Z" transform="translate(28.048)" fill="#ffffff"/>
    </g>
    <g id="Group_143" data-name="Group 143" transform="translate(860.318 318.714)" opacity="0.3">
      <circle id="Ellipse_11" data-name="Ellipse 11" cx="16.99" cy="16.99" r="16.99" transform="translate(0 0)" fill="#ffffff"/>
      <g id="Group_142" data-name="Group 142" transform="translate(12.407 8.333)">
        <path id="Path_120" data-name="Path 120" d="M3160.667,910V908a8.444,8.444,0,0,1-3.567-.9l.63-2.455a7.4,7.4,0,0,0,3.483.924c1.2,0,2.015-.462,2.015-1.3,0-.8-.672-1.3-2.224-1.826-2.245-.755-3.777-1.8-3.777-3.84,0-1.847,1.3-3.294,3.546-3.735v-1.994h2.056v1.847a7.552,7.552,0,0,1,3.042.692l-.608,2.371a6.963,6.963,0,0,0-3.021-.713c-1.364,0-1.8.587-1.8,1.175,0,.692.735,1.133,2.518,1.8,2.5.881,3.5,2.035,3.5,3.924,0,1.867-1.322,3.462-3.735,3.882V910Z" transform="translate(-3157.1 -892.873)" fill="#ffffff"/>
      </g>
    </g>
    <g id="Group_146" data-name="Group 146" transform="translate(334.313 299.824)" opacity="0.3">
      <g id="Group_144" data-name="Group 144" transform="translate(0)">
        <rect id="Rectangle_39" data-name="Rectangle 39" width="30.304" height="18.095" rx="9.048" fill="#ffffff"/>
        <path id="Path_121" data-name="Path 121" d="M871.273,847.027l-2.684,5.083a.623.623,0,0,0,.894.812l8.675-5.722Z" transform="translate(-863.462 -830.488)" fill="#ffffff"/>
      </g>
      <g id="Group_145" data-name="Group 145" transform="translate(13.457 20.884)">
        <rect id="Rectangle_40" data-name="Rectangle 40" width="30.304" height="18.095" rx="9.048" transform="translate(30.304 18.095) rotate(180)" fill="#ffffff"/>
        <path id="Path_122" data-name="Path 122" d="M978.439,936.639l2.684,5.083a.623.623,0,0,1-.895.811l-8.675-5.722Z" transform="translate(-955.945 -920.1)" fill="#ffffff"/>
      </g>
    </g>
    <g id="Group_153" data-name="Group 153" transform="translate(429.402 206.579)" opacity="0.3">
      <g id="Group_147" data-name="Group 147" transform="translate(0 0)">
        <path id="Path_123" data-name="Path 123" d="M1271.736,409.725a16.834,16.834,0,1,1,6.572-1.327A16.778,16.778,0,0,1,1271.736,409.725Zm0-31.977a15.094,15.094,0,1,0,15.094,15.094A15.111,15.111,0,0,0,1271.736,377.748Z" transform="translate(-1254.853 -375.958)" fill="#ffffff"/>
      </g>
      <g id="Group_148" data-name="Group 148" transform="translate(7.921 0)">
        <path id="Path_124" data-name="Path 124" d="M1297.645,409.725c-2.471,0-4.742-1.84-6.394-5.181a29.628,29.628,0,0,1,0-23.4c1.652-3.341,3.923-5.181,6.394-5.181s4.741,1.84,6.394,5.181a29.63,29.63,0,0,1,0,23.4C1302.386,407.885,1300.115,409.725,1297.645,409.725Zm0-31.977a3.842,3.842,0,0,0-2.5,1.042,9.81,9.81,0,0,0-2.293,3.143,27.873,27.873,0,0,0,0,21.818,9.813,9.813,0,0,0,2.293,3.143,3.512,3.512,0,0,0,4.993,0,9.816,9.816,0,0,0,2.293-3.143,27.873,27.873,0,0,0,0-21.818,9.813,9.813,0,0,0-2.293-3.143A3.843,3.843,0,0,0,1297.645,377.748Z" transform="translate(-1288.842 -375.958)" fill="#ffffff"/>
      </g>
      <g id="Group_149" data-name="Group 149" transform="translate(6.294 3.734)">
        <path id="Path_125" data-name="Path 125" d="M1292.448,397.107a16.818,16.818,0,0,1-10.59-3.733l1.123-1.393a15.1,15.1,0,0,0,18.933,0l1.124,1.393a16.818,16.818,0,0,1-10.59,3.733Z" transform="translate(-1281.858 -391.98)" fill="#ffffff"/>
      </g>
      <g id="Group_150" data-name="Group 150" transform="translate(6.67 25.465)">
        <path id="Path_126" data-name="Path 126" d="M1302.816,490.09a15.1,15.1,0,0,0-18.26,0l-1.083-1.424a16.886,16.886,0,0,1,20.427,0Z" transform="translate(-1283.472 -485.227)" fill="#ffffff"/>
      </g>
      <g id="Group_151" data-name="Group 151" transform="translate(15.989 0.895)">
        <rect id="Rectangle_41" data-name="Rectangle 41" width="1.789" height="31.977" fill="#ffffff"/>
      </g>
      <g id="Group_152" data-name="Group 152" transform="translate(0.907 16.61)">
        <rect id="Rectangle_42" data-name="Rectangle 42" width="31.954" height="1.789" fill="#ffffff"/>
      </g>
    </g>
    <g id="Group_154" data-name="Group 154" transform="translate(341.162 173.149)" opacity="0.3">
      <path id="Path_127" data-name="Path 127" d="M906.29,257.988a16.4,16.4,0,1,1-6.8-23.975l-6.862,14.9Z" transform="translate(-876.226 -232.512)" fill="#ffffff"/>
      <path id="Path_128" data-name="Path 128" d="M969.139,252.782a16.325,16.325,0,0,1-2.738,9.075l-13.664-9.075,6.862-14.9A16.4,16.4,0,0,1,969.139,252.782Z" transform="translate(-934.907 -236.631)" fill="#ffffff"/>
    </g>
    <g id="Group_156" data-name="Group 156" transform="translate(551.199 362.528)">
      <g id="Group_155" data-name="Group 155">
        <path id="Path_129" data-name="Path 129" d="M1797.123,1064.77a11.514,11.514,0,1,1,3.372-8.141A11.439,11.439,0,0,1,1797.123,1064.77Zm-15.235-15.235a10.033,10.033,0,1,0,14.188,0A10.044,10.044,0,0,0,1781.888,1049.535Z" transform="translate(-1777.469 -1045.117)" fill="#ced2ea"/>
      </g>
      <rect id="Rectangle_43" data-name="Rectangle 43" width="3.844" height="14.49" transform="matrix(0.707, -0.707, 0.707, 0.707, 21.255, 23.973)" fill="#ced2ea"/>
      <rect id="Rectangle_44" data-name="Rectangle 44" width="2.036" height="6.003" transform="translate(18.39 19.83) rotate(-45)" fill="#ced2ea"/>
    </g>
    <g id="Group_166" data-name="Group 166" transform="translate(697.275 179.054)" opacity="0.3">
      <g id="Group_163" data-name="Group 163" transform="translate(0 12.874)">
        <g id="Group_159" data-name="Group 159">
          <g id="Group_158" data-name="Group 158">
            <rect id="Rectangle_45" data-name="Rectangle 45" width="27.678" height="22.922" rx="3.351" fill="#ffffff"/>
            <g id="Group_157" data-name="Group 157" clip-path="url(#clip-path)">
              <path id="Path_130" data-name="Path 130" d="M2404.881,313.092l-.617.058v-.058Z" transform="translate(-2404.264 -313.092)" fill="#ffffff"/>
              <path id="Path_131" data-name="Path 131" d="M2411.339,313.092l-7.075.663v-.606l.617-.058Z" transform="translate(-2404.264 -313.092)" fill="#ffffff"/>
              <path id="Path_132" data-name="Path 132" d="M2417.8,313.092l-13.534,1.269v-.605l7.075-.663Z" transform="translate(-2404.264 -313.092)" fill="#ffffff"/>
              <path id="Path_133" data-name="Path 133" d="M2424.257,313.092l-19.993,1.874v-.605l13.534-1.269Z" transform="translate(-2404.264 -313.092)" fill="#ffffff"/>
              <path id="Path_134" data-name="Path 134" d="M2430.716,313.092l-26.452,2.48v-.605l19.993-1.874Z" transform="translate(-2404.264 -313.092)" fill="#ffffff"/>
              <path id="Path_135" data-name="Path 135" d="M2431.942,313.582l-27.678,2.595v-.606l26.452-2.48h1.226Z" transform="translate(-2404.264 -313.092)" fill="#ffffff"/>
              <path id="Path_136" data-name="Path 136" d="M2431.942,315.8l-27.678,2.595v-.606l27.678-2.595Z" transform="translate(-2404.264 -314.706)" fill="#ffffff"/>
              <path id="Path_137" data-name="Path 137" d="M2431.942,318.4,2404.264,321v-.606l27.678-2.595Z" transform="translate(-2404.264 -316.699)" fill="#ffffff"/>
              <path id="Path_138" data-name="Path 138" d="M2431.942,321l-27.678,2.595v-.605l27.678-2.595Z" transform="translate(-2404.264 -318.691)" fill="#ffffff"/>
              <path id="Path_139" data-name="Path 139" d="M2431.942,323.6l-27.678,2.595v-.606l27.678-2.595Z" transform="translate(-2404.264 -320.684)" fill="#ffffff"/>
              <path id="Path_140" data-name="Path 140" d="M2431.942,326.195l-27.678,2.595v-.605l27.678-2.595Z" transform="translate(-2404.264 -322.677)" fill="#ffffff"/>
              <path id="Path_141" data-name="Path 141" d="M2431.942,328.793l-27.678,2.595v-.606l27.678-2.595Z" transform="translate(-2404.264 -324.669)" fill="#ffffff"/>
              <path id="Path_142" data-name="Path 142" d="M2431.942,331.391l-27.678,2.595v-.605l27.678-2.595Z" transform="translate(-2404.264 -326.662)" fill="#ffffff"/>
              <path id="Path_143" data-name="Path 143" d="M2431.942,333.989l-27.678,2.595v-.605l27.678-2.595Z" transform="translate(-2404.264 -328.655)" fill="#ffffff"/>
              <path id="Path_144" data-name="Path 144" d="M2431.942,336.587l-27.678,2.595v-.605l27.678-2.595Z" transform="translate(-2404.264 -330.647)" fill="#ffffff"/>
              <path id="Path_145" data-name="Path 145" d="M2431.942,339.185l-27.678,2.595v-.605l27.678-2.595Z" transform="translate(-2404.264 -332.64)" fill="#ffffff"/>
              <path id="Path_146" data-name="Path 146" d="M2431.942,341.784l-27.678,2.595v-.605l27.678-2.595Z" transform="translate(-2404.264 -334.633)" fill="#ffffff"/>
              <path id="Path_147" data-name="Path 147" d="M2431.942,344.382l-27.678,2.595v-.606l27.678-2.595Z" transform="translate(-2404.264 -336.625)" fill="#ffffff"/>
              <path id="Path_148" data-name="Path 148" d="M2431.942,346.98l-27.678,2.595v-.606l27.678-2.595Z" transform="translate(-2404.264 -338.618)" fill="#ffffff"/>
              <path id="Path_149" data-name="Path 149" d="M2431.942,349.578l-27.678,2.595v-.606l27.678-2.595Z" transform="translate(-2404.264 -340.61)" fill="#ffffff"/>
              <path id="Path_150" data-name="Path 150" d="M2431.942,352.176l-27.678,2.595v-.606l27.678-2.595Z" transform="translate(-2404.264 -342.603)" fill="#ffffff"/>
              <path id="Path_151" data-name="Path 151" d="M2431.942,354.774l-27.678,2.595v-.605l27.678-2.595Z" transform="translate(-2404.264 -344.596)" fill="#ffffff"/>
              <path id="Path_152" data-name="Path 152" d="M2431.942,357.373l-27.678,2.595v-.605l27.678-2.595Z" transform="translate(-2404.264 -346.588)" fill="#ffffff"/>
              <path id="Path_153" data-name="Path 153" d="M2431.942,359.971l-27.678,2.595v-.605l27.678-2.595Z" transform="translate(-2404.264 -348.581)" fill="#ffffff"/>
              <path id="Path_154" data-name="Path 154" d="M2431.942,362.569l-27.678,2.595v-.605l27.678-2.595Z" transform="translate(-2404.264 -350.574)" fill="#ffffff"/>
              <path id="Path_155" data-name="Path 155" d="M2431.942,365.167l-27.678,2.595v-.605l27.678-2.595Z" transform="translate(-2404.264 -352.566)" fill="#ffffff"/>
              <path id="Path_156" data-name="Path 156" d="M2431.942,367.765l-27.678,2.595v-.605l27.678-2.595Z" transform="translate(-2404.264 -354.559)" fill="#ffffff"/>
              <path id="Path_157" data-name="Path 157" d="M2431.942,370.363l-27.678,2.595v-.606l27.678-2.595Z" transform="translate(-2404.264 -356.552)" fill="#ffffff"/>
              <path id="Path_158" data-name="Path 158" d="M2431.942,372.961l-27.678,2.595v-.606l27.678-2.595Z" transform="translate(-2404.264 -358.544)" fill="#ffffff"/>
              <path id="Path_159" data-name="Path 159" d="M2431.942,375.56l-27.678,2.595v-.605l27.678-2.595Z" transform="translate(-2404.264 -360.537)" fill="#ffffff"/>
              <path id="Path_160" data-name="Path 160" d="M2431.942,378.158l-27.678,2.595v-.605l27.678-2.595Z" transform="translate(-2404.264 -362.529)" fill="#ffffff"/>
              <path id="Path_161" data-name="Path 161" d="M2431.942,380.756l-27.678,2.595v-.605l27.678-2.595Z" transform="translate(-2404.264 -364.522)" fill="#ffffff"/>
              <path id="Path_162" data-name="Path 162" d="M2431.942,383.354l-27.678,2.595v-.605l27.678-2.595Z" transform="translate(-2404.264 -366.515)" fill="#ffffff"/>
              <path id="Path_163" data-name="Path 163" d="M2431.942,385.952l-27.678,2.595v-.605l27.678-2.595Z" transform="translate(-2404.264 -368.508)" fill="#ffffff"/>
              <path id="Path_164" data-name="Path 164" d="M2431.942,388.55l-27.678,2.595v-.605l27.678-2.595Z" transform="translate(-2404.264 -370.5)" fill="#ffffff"/>
              <path id="Path_165" data-name="Path 165" d="M2431.942,391.148l-27.678,2.595v-.606l27.678-2.595Z" transform="translate(-2404.264 -372.493)" fill="#ffffff"/>
              <path id="Path_166" data-name="Path 166" d="M2431.942,393.747l-27.678,2.595v-.606l27.678-2.595Z" transform="translate(-2404.264 -374.485)" fill="#ffffff"/>
              <path id="Path_167" data-name="Path 167" d="M2431.942,396.345l-27.678,2.595v-.606l27.678-2.595Z" transform="translate(-2404.264 -376.478)" fill="#ffffff"/>
              <path id="Path_168" data-name="Path 168" d="M2431.942,398.943l-26.135,2.45h-1.543v-.461l27.678-2.595Z" transform="translate(-2404.264 -378.471)" fill="#ffffff"/>
              <path id="Path_169" data-name="Path 169" d="M2437.019,401.541l-19.677,1.845h-6.458l26.135-2.45Z" transform="translate(-2409.341 -380.463)" fill="#ffffff"/>
              <path id="Path_170" data-name="Path 170" d="M2458.273,404.139l-13.218,1.239H2438.6l19.677-1.845Z" transform="translate(-2430.595 -382.456)" fill="#ffffff"/>
              <path id="Path_171" data-name="Path 171" d="M2479.528,406.737l-6.76.634h-6.458l13.218-1.239Z" transform="translate(-2451.85 -384.449)" fill="#ffffff"/>
              <path id="Path_172" data-name="Path 172" d="M2500.783,409.335l-.3.028h-6.459l6.76-.634Z" transform="translate(-2473.105 -386.441)" fill="#ffffff"/>
              <path id="Path_173" data-name="Path 173" d="M2521.737,411.356l.3-.028v.028Z" transform="translate(-2494.36 -388.434)" fill="#ffffff"/>
            </g>
          </g>
        </g>
        <g id="Group_162" data-name="Group 162" transform="translate(8.162 5.265)">
          <g id="Group_161" data-name="Group 161" transform="translate(0 0)">
            <circle id="Ellipse_12" data-name="Ellipse 12" cx="4.719" cy="4.719" r="4.719" transform="translate(0 9.185) rotate(-76.718)" fill="#ffffff"/>
            <g id="Group_160" data-name="Group 160" transform="translate(0)" clip-path="url(#clip-path-2)">
              <path id="Path_174" data-name="Path 174" d="M2443.4,339.794v0Z" transform="translate(-2442.44 -338.836)" fill="#ffffff"/>
              <rect id="Rectangle_47" data-name="Rectangle 47" width="0.124" height="9.438" transform="translate(0.958 0.958)" fill="#ffffff"/>
              <rect id="Rectangle_48" data-name="Rectangle 48" width="0.124" height="9.438" transform="translate(1.082 0.958)" fill="#ffffff"/>
              <rect id="Rectangle_49" data-name="Rectangle 49" width="0.124" height="9.438" transform="translate(1.206 0.958)" fill="#ffffff"/>
              <rect id="Rectangle_50" data-name="Rectangle 50" width="0.124" height="9.438" transform="translate(1.33 0.958)" fill="#ffffff"/>
              <rect id="Rectangle_51" data-name="Rectangle 51" width="0.124" height="9.438" transform="translate(1.455 0.958)" fill="#ffffff"/>
              <rect id="Rectangle_52" data-name="Rectangle 52" width="0.124" height="9.438" transform="translate(1.579 0.958)" fill="#ffffff"/>
              <rect id="Rectangle_53" data-name="Rectangle 53" width="0.124" height="9.438" transform="translate(1.703 0.958)" fill="#ffffff"/>
              <rect id="Rectangle_54" data-name="Rectangle 54" width="0.124" height="9.438" transform="translate(1.827 0.958)" fill="#ffffff"/>
              <rect id="Rectangle_55" data-name="Rectangle 55" width="0.124" height="9.438" transform="translate(1.951 0.958)" fill="#ffffff"/>
              <rect id="Rectangle_56" data-name="Rectangle 56" width="0.124" height="9.438" transform="translate(2.076 0.958)" fill="#ffffff"/>
              <rect id="Rectangle_57" data-name="Rectangle 57" width="0.124" height="9.438" transform="translate(2.2 0.958)" fill="#ffffff"/>
              <rect id="Rectangle_58" data-name="Rectangle 58" width="0.124" height="9.438" transform="translate(2.324 0.958)" fill="#ffffff"/>
              <rect id="Rectangle_59" data-name="Rectangle 59" width="0.124" height="9.438" transform="translate(2.448 0.958)" fill="#ffffff"/>
              <rect id="Rectangle_60" data-name="Rectangle 60" width="0.124" height="9.438" transform="translate(2.572 0.958)" fill="#ffffff"/>
              <rect id="Rectangle_61" data-name="Rectangle 61" width="0.124" height="9.438" transform="translate(2.696 0.958)" fill="#ffffff"/>
              <rect id="Rectangle_62" data-name="Rectangle 62" width="0.124" height="9.438" transform="translate(2.821 0.958)" fill="#ffffff"/>
              <rect id="Rectangle_63" data-name="Rectangle 63" width="0.124" height="9.438" transform="translate(2.945 0.958)" fill="#ffffff"/>
              <rect id="Rectangle_64" data-name="Rectangle 64" width="0.124" height="9.438" transform="translate(3.069 0.958)" fill="#ffffff"/>
              <rect id="Rectangle_65" data-name="Rectangle 65" width="0.124" height="9.438" transform="translate(3.193 0.958)" fill="#ffffff"/>
              <rect id="Rectangle_66" data-name="Rectangle 66" width="0.124" height="9.438" transform="translate(3.317 0.958)" fill="#ffffff"/>
              <rect id="Rectangle_67" data-name="Rectangle 67" width="0.124" height="9.438" transform="translate(3.442 0.958)" fill="#ffffff"/>
              <rect id="Rectangle_68" data-name="Rectangle 68" width="0.124" height="9.438" transform="translate(3.566 0.958)" fill="#ffffff"/>
              <rect id="Rectangle_69" data-name="Rectangle 69" width="0.124" height="9.438" transform="translate(3.69 0.958)" fill="#ffffff"/>
              <rect id="Rectangle_70" data-name="Rectangle 70" width="0.124" height="9.438" transform="translate(3.814 0.958)" fill="#ffffff"/>
              <rect id="Rectangle_71" data-name="Rectangle 71" width="0.124" height="9.438" transform="translate(3.938 0.958)" fill="#ffffff"/>
              <rect id="Rectangle_72" data-name="Rectangle 72" width="0.124" height="9.438" transform="translate(4.063 0.958)" fill="#ffffff"/>
              <rect id="Rectangle_73" data-name="Rectangle 73" width="0.124" height="9.438" transform="translate(4.187 0.958)" fill="#ffffff"/>
              <rect id="Rectangle_74" data-name="Rectangle 74" width="0.124" height="9.438" transform="translate(4.311 0.958)" fill="#ffffff"/>
              <rect id="Rectangle_75" data-name="Rectangle 75" width="0.124" height="9.438" transform="translate(4.435 0.958)" fill="#ffffff"/>
              <rect id="Rectangle_76" data-name="Rectangle 76" width="0.124" height="9.438" transform="translate(4.559 0.958)" fill="#ffffff"/>
              <rect id="Rectangle_77" data-name="Rectangle 77" width="0.124" height="9.438" transform="translate(4.683 0.958)" fill="#ffffff"/>
              <rect id="Rectangle_78" data-name="Rectangle 78" width="0.124" height="9.438" transform="translate(4.808 0.958)" fill="#ffffff"/>
              <rect id="Rectangle_79" data-name="Rectangle 79" width="0.124" height="9.438" transform="translate(4.932 0.958)" fill="#ffffff"/>
              <rect id="Rectangle_80" data-name="Rectangle 80" width="0.124" height="9.438" transform="translate(5.056 0.958)" fill="#ffffff"/>
              <rect id="Rectangle_81" data-name="Rectangle 81" width="0.124" height="9.438" transform="translate(5.18 0.958)" fill="#ffffff"/>
              <rect id="Rectangle_82" data-name="Rectangle 82" width="0.124" height="9.438" transform="translate(5.304 0.958)" fill="#ffffff"/>
              <rect id="Rectangle_83" data-name="Rectangle 83" width="0.124" height="9.438" transform="translate(5.429 0.958)" fill="#ffffff"/>
              <rect id="Rectangle_84" data-name="Rectangle 84" width="0.124" height="9.438" transform="translate(5.553 0.958)" fill="#ffffff"/>
              <rect id="Rectangle_85" data-name="Rectangle 85" width="0.124" height="9.438" transform="translate(5.677 0.958)" fill="#ffffff"/>
              <rect id="Rectangle_86" data-name="Rectangle 86" width="0.124" height="9.438" transform="translate(5.801 0.958)" fill="#ffffff"/>
              <rect id="Rectangle_87" data-name="Rectangle 87" width="0.124" height="9.438" transform="translate(5.925 0.958)" fill="#ffffff"/>
              <rect id="Rectangle_88" data-name="Rectangle 88" width="0.124" height="9.438" transform="translate(6.049 0.958)" fill="#ffffff"/>
              <rect id="Rectangle_89" data-name="Rectangle 89" width="0.124" height="9.438" transform="translate(6.174 0.958)" fill="#ffffff"/>
              <rect id="Rectangle_90" data-name="Rectangle 90" width="0.124" height="9.438" transform="translate(6.298 0.958)" fill="#ffffff"/>
              <rect id="Rectangle_91" data-name="Rectangle 91" width="0.124" height="9.438" transform="translate(6.422 0.958)" fill="#ffffff"/>
              <rect id="Rectangle_92" data-name="Rectangle 92" width="0.124" height="9.438" transform="translate(6.546 0.958)" fill="#ffffff"/>
              <rect id="Rectangle_93" data-name="Rectangle 93" width="0.124" height="9.438" transform="translate(6.67 0.958)" fill="#ffffff"/>
              <rect id="Rectangle_94" data-name="Rectangle 94" width="0.124" height="9.438" transform="translate(6.795 0.958)" fill="#ffffff"/>
              <rect id="Rectangle_95" data-name="Rectangle 95" width="0.124" height="9.438" transform="translate(6.919 0.958)" fill="#ffffff"/>
              <rect id="Rectangle_96" data-name="Rectangle 96" width="0.124" height="9.438" transform="translate(7.043 0.958)" fill="#ffffff"/>
              <rect id="Rectangle_97" data-name="Rectangle 97" width="0.124" height="9.438" transform="translate(7.167 0.958)" fill="#ffffff"/>
              <rect id="Rectangle_98" data-name="Rectangle 98" width="0.124" height="9.438" transform="translate(7.291 0.958)" fill="#ffffff"/>
              <rect id="Rectangle_99" data-name="Rectangle 99" width="0.124" height="9.438" transform="translate(7.415 0.958)" fill="#ffffff"/>
              <rect id="Rectangle_100" data-name="Rectangle 100" width="0.124" height="9.438" transform="translate(7.54 0.958)" fill="#ffffff"/>
              <rect id="Rectangle_101" data-name="Rectangle 101" width="0.124" height="9.438" transform="translate(7.664 0.958)" fill="#ffffff"/>
              <rect id="Rectangle_102" data-name="Rectangle 102" width="0.124" height="9.438" transform="translate(7.788 0.958)" fill="#ffffff"/>
              <rect id="Rectangle_103" data-name="Rectangle 103" width="0.124" height="9.438" transform="translate(7.912 0.958)" fill="#ffffff"/>
              <rect id="Rectangle_104" data-name="Rectangle 104" width="0.124" height="9.438" transform="translate(8.036 0.958)" fill="#ffffff"/>
              <rect id="Rectangle_105" data-name="Rectangle 105" width="0.124" height="9.438" transform="translate(8.161 0.958)" fill="#ffffff"/>
              <rect id="Rectangle_106" data-name="Rectangle 106" width="0.124" height="9.438" transform="translate(8.285 0.958)" fill="#ffffff"/>
              <rect id="Rectangle_107" data-name="Rectangle 107" width="0.124" height="9.438" transform="translate(8.409 0.958)" fill="#ffffff"/>
              <rect id="Rectangle_108" data-name="Rectangle 108" width="0.124" height="9.438" transform="translate(8.533 0.958)" fill="#ffffff"/>
              <rect id="Rectangle_109" data-name="Rectangle 109" width="0.124" height="9.438" transform="translate(8.657 0.958)" fill="#ffffff"/>
              <rect id="Rectangle_110" data-name="Rectangle 110" width="0.124" height="9.438" transform="translate(8.781 0.958)" fill="#ffffff"/>
              <rect id="Rectangle_111" data-name="Rectangle 111" width="0.124" height="9.438" transform="translate(8.906 0.958)" fill="#ffffff"/>
              <rect id="Rectangle_112" data-name="Rectangle 112" width="0.124" height="9.438" transform="translate(9.03 0.958)" fill="#ffffff"/>
              <rect id="Rectangle_113" data-name="Rectangle 113" width="0.124" height="9.438" transform="translate(9.154 0.958)" fill="#ffffff"/>
              <rect id="Rectangle_114" data-name="Rectangle 114" width="0.124" height="9.438" transform="translate(9.278 0.958)" fill="#ffffff"/>
              <rect id="Rectangle_115" data-name="Rectangle 115" width="0.124" height="9.438" transform="translate(9.402 0.958)" fill="#ffffff"/>
              <rect id="Rectangle_116" data-name="Rectangle 116" width="0.124" height="9.438" transform="translate(9.527 0.958)" fill="#ffffff"/>
              <rect id="Rectangle_117" data-name="Rectangle 117" width="0.124" height="9.438" transform="translate(9.651 0.958)" fill="#ffffff"/>
              <rect id="Rectangle_118" data-name="Rectangle 118" width="0.124" height="9.438" transform="translate(9.775 0.958)" fill="#ffffff"/>
              <rect id="Rectangle_119" data-name="Rectangle 119" width="0.124" height="9.438" transform="translate(9.899 0.958)" fill="#ffffff"/>
              <rect id="Rectangle_120" data-name="Rectangle 120" width="0.124" height="9.438" transform="translate(10.023 0.958)" fill="#ffffff"/>
              <rect id="Rectangle_121" data-name="Rectangle 121" width="0.124" height="9.438" transform="translate(10.148 0.958)" fill="#ffffff"/>
              <rect id="Rectangle_122" data-name="Rectangle 122" width="0.124" height="9.438" transform="translate(10.272 0.958)" fill="#ffffff"/>
              <path id="Path_175" data-name="Path 175" d="M2483.9,349.232v0Z" transform="translate(-2473.499 -338.836)" fill="#ffffff"/>
            </g>
          </g>
        </g>
      </g>
      <g id="Group_164" data-name="Group 164" transform="translate(3.838 0)">
        <path id="Path_176" data-name="Path 176" d="M2433.177,283.6h-4.755a7.707,7.707,0,0,1-7.688-7.689V265.538a7.707,7.707,0,0,1,7.688-7.689h4.755a7.708,7.708,0,0,1,7.689,7.689v10.372a7.708,7.708,0,0,1-7.689,7.689Zm-4.755-23.606a5.552,5.552,0,0,0-5.546,5.546v10.372a5.552,5.552,0,0,0,5.546,5.546h4.755a5.552,5.552,0,0,0,5.546-5.546V265.538a5.552,5.552,0,0,0-5.546-5.546Z" transform="translate(-2420.733 -257.849)" fill="#ffffff"/>
      </g>
      <g id="Group_165" data-name="Group 165" transform="translate(10.403 18.611)">
        <circle id="Ellipse_14" data-name="Ellipse 14" cx="3.195" cy="3.195" r="3.195" fill="#ffffff"/>
        <path id="Path_177" data-name="Path 177" d="M2452.656,351.416V360.1h-3.026l1.647-8.688Z" transform="translate(-2449.461 -348.22)" fill="#ffffff"/>
        <path id="Path_178" data-name="Path 178" d="M2462.614,351.416V360.1h3.026l-1.647-8.688Z" transform="translate(-2459.419 -348.22)" fill="#ffffff"/>
      </g>
    </g>
    <g id="Group_169" data-name="Group 169" transform="translate(178.572 287.463)" opacity="0.5">
      <path id="Path_179" data-name="Path 179" d="M178.667,733.656s-2.955,33.1,24.036,43.381V723.019A33.169,33.169,0,0,1,178.667,733.656Z" transform="translate(-178.572 -723.019)" fill="#ffffff" opacity="0.5"/>
      <path id="Path_180" data-name="Path 180" d="M306.153,733.656s2.955,33.1-24.036,43.381V723.019A33.169,33.169,0,0,0,306.153,733.656Z" transform="translate(-257.986 -723.019)" fill="#ffffff" opacity="0.5"/>
      <g id="Group_168" data-name="Group 168" transform="translate(14.451 16.732)" opacity="0.5">
        <g id="Group_167" data-name="Group 167">
          <path id="Path_181" data-name="Path 181" d="M248.424,813.939a1.05,1.05,0,0,1-.839-.419l-6.793-9.029a1.051,1.051,0,1,1,1.679-1.263l5.866,7.8,9.658-15.712a1.051,1.051,0,1,1,1.79,1.1l-10.466,17.025a1.05,1.05,0,0,1-.846.5Z" transform="translate(-240.581 -794.812)" fill="#ffffff"/>
        </g>
      </g>
    </g>
    <g id="Group_173" data-name="Group 173" transform="translate(921.64 267.582)" opacity="0.3">
      <g id="Group_170" data-name="Group 170" transform="translate(0 0)">
        <path id="Path_182" data-name="Path 182" d="M3384.2,706.961v5.345h-17.212v-5.345a7.079,7.079,0,0,1,7.058-7.058h3.095A7.079,7.079,0,0,1,3384.2,706.961Z" transform="translate(-3366.985 -685.409)" fill="#ffffff"/>
        <circle id="Ellipse_15" data-name="Ellipse 15" cx="5.494" cy="5.494" r="5.494" transform="translate(0.836 7.77) rotate(-45)" fill="#ffffff"/>
      </g>
      <g id="Group_171" data-name="Group 171" transform="translate(41.485 1.16)">
        <path id="Path_183" data-name="Path 183" d="M3562.2,706.961v5.345h-17.211v-5.345a7.079,7.079,0,0,1,7.059-7.058h3.095A7.079,7.079,0,0,1,3562.2,706.961Z" transform="translate(-3544.992 -686.57)" fill="#ffffff"/>
        <circle id="Ellipse_16" data-name="Ellipse 16" cx="5.494" cy="5.494" r="5.494" transform="translate(1.996 10.695) rotate(-76.717)" fill="#ffffff"/>
      </g>
      <g id="Group_172" data-name="Group 172" transform="translate(21.285 11.414)">
        <path id="Path_184" data-name="Path 184" d="M3475.527,750.958V756.3h-17.211v-5.345a7.078,7.078,0,0,1,7.058-7.058h3.094A7.078,7.078,0,0,1,3475.527,750.958Z" transform="translate(-3458.316 -730.567)" fill="#ffffff"/>
        <circle id="Ellipse_17" data-name="Ellipse 17" cx="5.494" cy="5.494" r="5.494" transform="translate(1.996 10.695) rotate(-76.717)" fill="#ffffff"/>
      </g>
    </g>
    <g id="Group_174" data-name="Group 174" transform="translate(756.798 240.145)" opacity="0.3">
      <path id="Path_185" data-name="Path 185" d="M2681.349,582.146h-21.68a10.84,10.84,0,0,1,10.84-10.84q.393,0,.779.028A10.84,10.84,0,0,1,2681.349,582.146Z" transform="translate(-2659.669 -559.346)" fill="#ffffff"/>
      <path id="Path_186" data-name="Path 186" d="M2740.908,537.712a17.717,17.717,0,0,1-.737,5.073h-33.982a17.73,17.73,0,1,1,34.719-5.073Z" transform="translate(-2694.782 -519.985)" fill="#ffffff"/>
      <path id="Path_187" data-name="Path 187" d="M2830.372,561.942q0,.765-.075,1.511h-29.868q-.075-.745-.075-1.511a15.01,15.01,0,0,1,30.019,0Z" transform="translate(-2767.566 -540.653)" fill="#ffffff"/>
    </g>
    <g id="Group_175" data-name="Group 175" transform="translate(533.281 199.397)" opacity="0.3">
      <path id="Rectangle_123" data-name="Rectangle 123" d="M8.784,0H21.629a8.784,8.784,0,0,1,8.784,8.784V43.361a8.787,8.787,0,0,1-8.787,8.787H8.784A8.784,8.784,0,0,1,0,43.364V8.784A8.784,8.784,0,0,1,8.784,0Z" fill="#ffffff"/>
      <rect id="Rectangle_124" data-name="Rectangle 124" width="28.027" height="49.428" rx="4.089" transform="translate(1.194 1.36)" fill="#ffffff"/>
      <path id="Path_188" data-name="Path 188" d="M1757.515,346.605a3.632,3.632,0,1,1-6.955-1.466h6.647A3.621,3.621,0,0,1,1757.515,346.605Z" transform="translate(-1738.676 -345.139)" fill="#ffffff"/>
    </g>
  </g>
</svg>
