<?xml version="1.0" standalone="yes"?>
<svg xmlns="http://www.w3.org/2000/svg" width="202" height="278">
<path style="fill:#14475f; stroke:none;" d="M0 0L0 7L42 7L42 0L0 0z"/>
<path style="fill:#010101; stroke:none;" d="M42 0L42 7L0 7L0 278L182 278L164 233L180 239L186 239L200.972 232.351L202 218L202 180L202 0L186 0L186 29L180 29L180 7L166 7L166 0L125 0L125 7L83 7L83 0L42 0z"/>
<path style="fill:#14475f; stroke:none;" d="M83 0L83 7L125 7L125 0L83 0M166 0L166 7L180 7L180 29L186 29L186 0L166 0M180 70L180 113L186 113L186 70L180 70M180 154L180 196L186 196L186 154L180 154M164 233L183 278C191.142 265.738 198.115 247.206 202 233L186 239C184.053 236.769 181.947 236.769 180 239L164 233z"/>
<path style="fill:#010101; stroke:none;" d="M201 235L184 278L202 278C202 265.781 205.71 246.226 201 235z"/>
<path style="fill:#81b54b; stroke:none;" d="M200 237L201 238L200 237M168 244L169 245L168 244z"/>
<path style="fill:#55ab55; stroke:none;" d="M192 256L193 257L192 256M176 263L177 264L176 263z"/>
<path style="fill:#81b54b; stroke:none;" d="M189 263L190 264L189 263M179 270L180 271L179 270M186 270L187 271L186 270z"/>
<path style="fill:#818101; stroke:none;" d="M184 275L185 276L184 275z"/>
<path style="fill:#81b54b; stroke:none;" d="M182 277L183 278L182 277z"/>
</svg>
