<svg width="640" height="436" viewBox="0 0 640 436" fill="none" xmlns="http://www.w3.org/2000/svg">
<g clip-path="url(#clip0_1_196)">
<path d="M157.25 153.76C157.25 153.76 151.65 149.18 142.87 162.78C134.08 176.39 130.46 184.38 130.46 184.38C130.46 184.38 128.22 187.19 126.35 185.01C124.49 182.83 122.23 176.96 118.61 177.61C114.86 178.28 113.25 182.22 113.33 188.27C113.41 194.31 113.11 207.56 113.08 208.76C113.05 209.94 112.2 211.59 110.7 210.31C109.19 209.03 100.92 197.68 95.77 201.93C90.62 206.18 93.62 222.98 93.91 224.82C94.2 226.66 93.77 227.39 92.88 227.75C91.98 228.11 89.56 224.03 87.08 220.9C84.6 217.77 81.17 214.57 78.4 217.27C75.63 219.97 73.59 232.13 83.21 253.22L88.31 262.7L99.11 263.2C122.28 262.87 132.41 255.82 133.66 252.16C134.92 248.51 130.56 246.77 126.67 245.87C122.78 244.97 118.06 244.52 118 243.56C117.94 242.6 118.41 241.9 120.21 241.37C122 240.85 138.47 236.37 140.1 229.89C141.73 223.42 127.94 220.8 126.14 219.99C124.34 219.17 125.47 217.71 126.52 217.17C127.59 216.63 139.43 210.68 144.93 208.17C150.43 205.66 153.3 202.51 152.3 198.84C151.34 195.3 145.07 195.77 142.3 195.01C139.53 194.26 141.11 191.03 141.11 191.03C141.11 191.03 146.79 184.34 155.32 170.57C163.86 156.81 157.14 153.66 157.14 153.66" fill="#EBEBEB"/>
<path d="M86.39 264.45C92.7 254.37 104.22 236.63 114.02 221.35C123.82 206.08 132.69 192.24 139.05 182.19C142.22 177.17 144.79 173.1 146.57 170.28C147.45 168.88 148.14 167.79 148.62 167.04C148.85 166.68 149.03 166.4 149.16 166.2C149.28 166.01 149.35 165.92 149.35 165.92C149.35 165.92 149.3 166.02 149.19 166.22C149.07 166.42 148.9 166.71 148.68 167.07C148.22 167.83 147.55 168.93 146.69 170.34C144.96 173.18 142.42 177.27 139.26 182.31C132.95 192.39 124.12 206.25 114.31 221.52C104.5 236.8 92.96 254.51 86.59 264.56" fill="#E0E0E0"/>
<path d="M121.44 185.95C121.44 185.95 121.53 186.21 121.64 186.7C121.75 187.19 121.88 187.9 122.04 188.78C122.35 190.54 122.72 192.98 123.07 195.69C123.41 198.36 123.72 200.77 123.95 202.61C124.06 203.44 124.16 204.14 124.23 204.71C124.3 205.2 124.33 205.48 124.3 205.48C124.28 205.48 124.21 205.22 124.1 204.73C123.99 204.24 123.86 203.53 123.71 202.65C123.42 200.89 123.08 198.44 122.73 195.73C122.37 193.07 122.05 190.66 121.8 188.81C121.68 187.98 121.59 187.28 121.51 186.71C121.45 186.21 121.42 185.94 121.44 185.93V185.95Z" fill="#E0E0E0"/>
<path d="M125.26 205.78C125.24 205.69 130.25 204.71 136.44 203.6C142.63 202.49 147.66 201.66 147.68 201.75C147.7 201.84 142.69 202.82 136.5 203.93C130.31 205.04 125.28 205.87 125.26 205.78Z" fill="#E0E0E0"/>
<path d="M109.15 228.56C109.15 228.56 109.44 228.56 109.94 228.6C110.52 228.66 111.23 228.74 112.09 228.83C113.9 229.02 116.41 229.27 119.18 229.45C121.96 229.63 124.47 229.71 126.29 229.75C127.15 229.77 127.87 229.79 128.45 229.8C128.96 229.81 129.24 229.83 129.24 229.86C129.24 229.88 128.96 229.91 128.45 229.93C127.94 229.95 127.2 229.98 126.29 229.99C124.46 230.01 121.94 229.97 119.16 229.79C116.38 229.61 113.87 229.33 112.06 229.08C111.16 228.95 110.43 228.84 109.92 228.75C109.42 228.66 109.14 228.6 109.14 228.58L109.15 228.56Z" fill="#E0E0E0"/>
<path d="M101.74 211.38C101.74 211.38 101.89 211.6 102.1 212.02C102.33 212.51 102.62 213.11 102.96 213.82C103.67 215.35 104.64 217.47 105.69 219.81C106.74 222.16 107.67 224.29 108.33 225.84C108.63 226.57 108.89 227.18 109.1 227.68C109.27 228.12 109.36 228.37 109.34 228.37C109.32 228.37 109.19 228.15 108.98 227.73C108.75 227.24 108.46 226.64 108.12 225.93C107.41 224.4 106.44 222.28 105.39 219.93C104.34 217.58 103.41 215.45 102.75 213.9C102.45 213.17 102.19 212.56 101.98 212.06C101.81 211.62 101.72 211.37 101.74 211.37V211.38Z" fill="#E0E0E0"/>
<path d="M84.96 229.68C84.96 229.68 85.14 229.96 85.41 230.51C85.7 231.11 86.07 231.88 86.52 232.81C87.45 234.76 88.71 237.47 90.08 240.46C91.45 243.46 92.68 246.18 93.55 248.16C93.96 249.11 94.3 249.9 94.57 250.51C94.8 251.07 94.92 251.38 94.9 251.39C94.88 251.39 94.72 251.11 94.45 250.56C94.16 249.96 93.79 249.19 93.34 248.26C92.41 246.31 91.15 243.6 89.78 240.6C88.41 237.6 87.18 234.88 86.31 232.9C85.9 231.95 85.56 231.16 85.29 230.55C85.06 229.99 84.94 229.68 84.96 229.67V229.68Z" fill="#E0E0E0"/>
<path d="M94.81 250.81C94.81 250.81 95.17 250.8 95.82 250.84C96.53 250.89 97.44 250.95 98.55 251.03C100.86 251.19 104.05 251.39 107.57 251.52C111.1 251.65 114.29 251.69 116.61 251.7C117.72 251.7 118.64 251.71 119.35 251.71C120 251.71 120.36 251.73 120.36 251.75C120.36 251.77 120 251.8 119.36 251.84C118.71 251.87 117.78 251.91 116.62 251.93C114.3 251.98 111.1 251.98 107.57 251.85C104.04 251.72 100.85 251.48 98.54 251.26C97.39 251.15 96.46 251.05 95.81 250.96C95.17 250.88 94.81 250.82 94.82 250.8L94.81 250.81Z" fill="#E0E0E0"/>
<path d="M69.13 191.9C69.13 191.9 69.25 193.62 68.85 196.83C68.42 200.01 67.4 204.77 64.36 210.06L64.26 209.88H64.47L64.37 210.06C57.85 221.62 48.07 238.97 36.36 259.73L36.18 260.04L35.99 259.74C27.08 245.52 17.01 229.46 6.37999 212.51C5.87999 211.71 5.37999 210.92 4.91999 210.19L4.68999 209.83H5.11999L4.91999 210.18C2.64999 206.29 1.15999 202.02 0.459995 197.7C0.129995 195.54 -0.0600051 193.36 0.0199949 191.21C0.0799949 190.13 0.139995 189.06 0.189995 188C0.349995 186.94 0.509995 185.89 0.669995 184.84C2.28999 176.5 6.83 169.19 12.76 164.17C15.75 161.68 19.08 159.78 22.5 158.45L23.79 157.97L24.43 157.73L25.09 157.55C25.97 157.32 26.84 157.09 27.7 156.87C29.46 156.6 31.19 156.24 32.92 156.24C34.64 156.08 36.34 156.24 38 156.33C38.83 156.4 39.64 156.57 40.44 156.69C40.84 156.76 41.24 156.82 41.64 156.88C42.04 156.96 42.42 157.08 42.81 157.18C43.58 157.39 44.35 157.6 45.1 157.8C45.83 158.08 46.56 158.36 47.27 158.63C47.63 158.77 47.99 158.89 48.33 159.05C48.67 159.22 49.01 159.39 49.34 159.56C50.01 159.9 50.67 160.23 51.32 160.56C56.39 163.51 60.2 167.36 62.82 171.18C65.46 175.01 66.93 178.78 67.83 181.9C68.21 183.49 68.6 184.88 68.71 186.14C68.88 187.38 69.05 188.43 69.05 189.29C69.08 190.14 69.1 190.78 69.12 191.24C69.13 191.68 69.12 191.9 69.12 191.9C69.12 191.9 69.09 191.68 69.07 191.24C69.04 190.79 69.01 190.14 68.96 189.3C68.96 188.44 68.77 187.4 68.58 186.16C68.45 184.91 68.05 183.53 67.66 181.95C66.73 178.85 65.25 175.11 62.61 171.33C59.99 167.56 56.19 163.76 51.16 160.85C50.51 160.53 49.86 160.2 49.19 159.86C48.86 159.69 48.52 159.53 48.19 159.36C47.85 159.21 47.49 159.09 47.14 158.95C46.43 158.68 45.71 158.41 44.99 158.14C44.24 157.94 43.48 157.74 42.72 157.53C42.34 157.43 41.96 157.31 41.56 157.23C41.17 157.17 40.77 157.1 40.37 157.04C39.57 156.93 38.77 156.75 37.95 156.69C36.31 156.61 34.63 156.45 32.93 156.61C31.22 156.61 29.51 156.98 27.77 157.25C26.92 157.47 26.06 157.7 25.19 157.93L24.54 158.1L23.91 158.34L22.64 158.82C19.26 160.14 15.97 162.03 13.03 164.49C7.18 169.45 2.70999 176.68 1.11999 184.92C0.959995 185.95 0.809995 186.99 0.649995 188.04C0.589995 189.09 0.539995 190.15 0.479995 191.21C0.399995 193.34 0.589995 195.49 0.919995 197.62C1.60999 201.89 3.08999 206.1 5.32999 209.93L5.53999 210.28H5.12999L5.32999 209.92C5.78999 210.65 6.28999 211.45 6.78999 212.24C17.4 229.2 27.46 245.27 36.36 259.5H35.99C47.77 238.78 57.6 221.46 64.16 209.92L64.27 210.1H64.05L64.16 209.92C67.21 204.68 68.27 199.96 68.74 196.79C68.97 195.2 69.04 193.96 69.09 193.13C69.1 192.72 69.12 192.41 69.12 192.19C69.12 191.98 69.14 191.87 69.14 191.87L69.13 191.9Z" fill="#E0E0E0"/>
<path d="M56.56 191.5C56.56 191.5 56.54 191.38 56.52 191.15C56.5 190.89 56.48 190.55 56.45 190.11C56.44 189.88 56.42 189.63 56.4 189.35C56.37 189.07 56.31 188.77 56.26 188.44C56.15 187.78 56.06 187.02 55.8 186.19C55.41 184.5 54.62 182.51 53.38 180.4C52.13 178.3 50.32 176.1 47.86 174.23C45.41 172.38 42.31 170.81 38.73 170.16C35.18 169.54 31.17 169.64 27.34 171.09C26.37 171.4 25.45 171.88 24.51 172.33C23.62 172.87 22.68 173.36 21.85 174.03C20.97 174.63 20.2 175.39 19.39 176.11C18.66 176.91 17.89 177.7 17.26 178.62C15.97 180.41 14.84 182.39 14.15 184.58C13.44 186.75 13.05 189.06 13.02 191.41C13.05 193.76 13.42 196.07 14.12 198.25C14.79 200.44 15.92 202.43 17.2 204.23C17.83 205.15 18.59 205.94 19.32 206.75C20.12 207.48 20.89 208.24 21.77 208.85C22.6 209.53 23.53 210.02 24.42 210.57C25.36 211.02 26.27 211.51 27.24 211.82C31.06 213.28 35.07 213.4 38.62 212.8C42.2 212.18 45.31 210.62 47.77 208.78C50.24 206.93 52.06 204.74 53.32 202.64C54.57 200.53 55.37 198.54 55.77 196.86C56.03 196.03 56.13 195.27 56.24 194.61C56.29 194.28 56.35 193.98 56.39 193.7C56.41 193.42 56.43 193.17 56.44 192.94C56.47 192.5 56.5 192.16 56.52 191.9C56.54 191.67 56.55 191.55 56.56 191.55C56.57 191.55 56.56 191.67 56.56 191.9C56.56 192.16 56.54 192.5 56.53 192.94C56.53 193.17 56.51 193.43 56.5 193.71C56.48 193.99 56.42 194.3 56.38 194.63C56.29 195.29 56.2 196.07 55.95 196.91C55.58 198.62 54.8 200.64 53.55 202.78C52.29 204.92 50.47 207.15 47.97 209.05C45.48 210.93 42.33 212.54 38.69 213.19C35.07 213.82 30.99 213.71 27.09 212.23C26.1 211.91 25.17 211.42 24.21 210.96C23.3 210.41 22.35 209.9 21.5 209.22C20.6 208.6 19.82 207.83 18.99 207.08C18.25 206.26 17.47 205.45 16.83 204.51C15.52 202.68 14.37 200.65 13.68 198.41C12.96 196.19 12.58 193.83 12.56 191.43C12.6 189.03 12.99 186.67 13.72 184.45C14.42 182.22 15.58 180.19 16.9 178.37C17.55 177.44 18.33 176.63 19.08 175.82C19.91 175.08 20.7 174.31 21.6 173.7C22.45 173.02 23.41 172.51 24.32 171.97C25.28 171.51 26.22 171.03 27.21 170.72C31.12 169.26 35.2 169.17 38.82 169.82C42.46 170.49 45.6 172.11 48.08 174C50.57 175.91 52.38 178.16 53.63 180.3C54.87 182.45 55.64 184.48 56 186.18C56.24 187.02 56.33 187.79 56.42 188.46C56.46 188.79 56.52 189.1 56.54 189.38C56.54 189.66 56.56 189.92 56.57 190.15C56.58 190.59 56.59 190.94 56.6 191.19C56.6 191.42 56.6 191.54 56.6 191.54L56.56 191.5Z" fill="#E0E0E0"/>
<path d="M34.24 201.69L21.52 192.81L24.62 188.38L33.15 194.33L44.18 180.3L48.44 183.65L34.24 201.69Z" fill="#E0E0E0"/>
<path fill-rule="evenodd" clip-rule="evenodd" d="M390.3 37.33C394.06 37.8 397.7 38.77 401.12 40.19L409.07 33.52L422.73 43.92L418.43 53.36C420.7 56.28 422.61 59.53 424.07 63.03L434.4 63.94L436.71 80.95L426.99 84.58C426.52 88.34 425.54 91.98 424.13 95.4L430.8 103.35L420.4 117.01L410.96 112.71C408.04 114.98 404.79 116.89 401.29 118.35L400.38 128.68L383.36 130.99L379.73 121.27C375.97 120.8 372.33 119.83 368.91 118.41L360.95 125.08L347.29 114.68L351.6 105.24C349.33 102.32 347.42 99.07 345.96 95.57L335.63 94.66L333.32 77.65L343.04 74.02C343.51 70.26 344.48 66.62 345.9 63.2L339.23 55.25L349.63 41.59L359.07 45.9C361.99 43.63 365.24 41.72 368.74 40.26L369.65 29.93L386.66 27.62L390.29 37.34L390.3 37.33ZM385.2 60.79C373.5 61.21 365.17 72.14 367.89 83.53C369.9 91.96 377.75 97.93 386.4 97.61C398.1 97.18 406.41 86.26 403.7 74.88C401.7 66.45 393.85 60.48 385.2 60.79V60.79Z" fill="#F5F5F5"/>
<path fill-rule="evenodd" clip-rule="evenodd" d="M235.36 91.72C237.8 92.03 240.16 92.66 242.38 93.58L247.54 89.25L256.41 96L253.62 102.13C255.1 104.03 256.33 106.13 257.28 108.41L263.99 109L265.49 120.04L259.18 122.4C258.87 124.84 258.24 127.2 257.32 129.43L261.65 134.59L254.9 143.46L248.77 140.67C246.87 142.15 244.77 143.38 242.49 144.33L241.9 151.04L230.85 152.54L228.49 146.23C226.05 145.92 223.69 145.29 221.47 144.37L216.31 148.7L207.44 141.95L210.24 135.82C208.76 133.92 207.53 131.82 206.58 129.54L199.87 128.95L198.37 117.91L204.68 115.55C204.99 113.11 205.62 110.75 206.54 108.52L202.21 103.36L208.96 94.49L215.09 97.28C216.99 95.8 219.09 94.57 221.37 93.62L221.96 86.91L233 85.41L235.36 91.72V91.72ZM232.05 106.95C224.45 107.22 219.05 114.32 220.81 121.71C222.11 127.18 227.21 131.06 232.83 130.85C240.42 130.57 245.82 123.48 244.06 116.09C242.76 110.62 237.67 106.74 232.05 106.94V106.95Z" fill="#EBEBEB"/>
<path d="M328.03 172.45C328.03 172.45 329.67 173.05 332.02 175.09C334.32 177.1 337.3 180.88 338.21 186.47C338.64 189.23 338.56 192.39 337.53 195.54C336.49 198.66 334.65 201.83 331.82 204.28C330.44 205.54 328.82 206.59 327.05 207.4C325.29 208.24 323.35 208.82 321.34 209.07C317.32 209.66 312.98 208.86 309.18 206.82C305.42 204.72 302.41 201.48 300.75 197.77C299.88 195.94 299.33 193.99 299.09 192.06C298.82 190.13 298.84 188.19 299.16 186.36C299.7 182.66 301.39 179.41 303.46 176.85C305.56 174.28 308.19 172.52 310.74 171.4C315.94 169.16 320.74 169.64 323.66 170.51C326.64 171.4 328.03 172.46 328.03 172.46C327.97 172.58 326.5 171.67 323.55 170.93C320.65 170.21 316.01 169.88 311.06 172.12C308.63 173.24 306.14 174.96 304.17 177.43C302.23 179.89 300.65 183 300.17 186.52C299.88 188.26 299.88 190.09 300.14 191.92C300.37 193.75 300.91 195.59 301.74 197.32C303.33 200.82 306.17 203.86 309.72 205.85C313.31 207.77 317.4 208.54 321.2 207.99C323.11 207.76 324.94 207.22 326.61 206.44C328.29 205.68 329.84 204.69 331.15 203.51C333.86 201.22 335.63 198.21 336.66 195.25C337.69 192.26 337.8 189.24 337.44 186.59C336.67 181.21 333.89 177.47 331.73 175.41C329.52 173.32 327.96 172.57 328.03 172.45V172.45Z" fill="#EBEBEB"/>
<path d="M348.66 156.88C348.66 156.88 348.7 156.66 348.81 156.22C348.94 155.73 349.11 155.08 349.34 154.23C349.84 152.41 350.56 149.78 351.49 146.37L351.58 146.57C347.52 144.38 342.19 141.49 335.74 138L336.09 137.94C333.92 140.42 331.5 143.17 328.91 146.12L328.78 146.27L328.59 146.22C325.03 145.36 321.12 144.88 317 144.99H316.78L316.67 144.8C315.02 141.84 313.22 138.63 311.36 135.29L311.82 135.48C306.38 137.08 300.61 138.78 294.54 140.56L294.85 140.11C295.06 143.47 295.3 147.18 295.53 150.98L295.55 151.26L295.31 151.4C292.22 153.27 289.06 155.73 286.26 158.68L286.06 158.89L285.78 158.81C282.54 157.89 278.96 156.87 275.32 155.83L275.89 155.59C273.18 160.55 270.25 165.91 267.25 171.39L267.14 170.76C269.68 173 272.47 175.47 275.29 177.96L275.53 178.17L275.45 178.48C274.58 182.01 274.1 185.99 274.2 190.01V190.33L273.92 190.49C270.94 192.15 267.69 193.95 264.4 195.78L264.66 195.15C266.26 200.62 267.97 206.49 269.71 212.44L269.15 212.04C272.58 211.83 276.29 211.6 280.02 211.38L280.36 211.36L280.53 211.65C282.43 214.81 284.89 217.94 287.78 220.69C287.85 220.94 287.63 220.14 287.93 221.25V221.28V221.32L287.89 221.4L287.84 221.57L287.75 221.9L287.56 222.56L287.18 223.88L286.43 226.5C285.93 228.25 285.43 229.98 284.94 231.72L284.67 231.08C290.01 234.01 295.27 236.9 300.46 239.75L299.79 239.87C302.22 237.13 304.62 234.41 307 231.72L307.22 231.47L307.54 231.55C311.35 232.49 315.24 232.91 319.07 232.82H319.4L319.56 233.1C321.34 236.32 323.1 239.49 324.83 242.62L324.22 242.37C330.12 240.65 335.89 238.98 341.51 237.35L341.14 237.87C340.92 234.18 340.7 230.56 340.49 227L340.47 226.7L340.73 226.55C344.13 224.51 347.18 222.04 349.8 219.3L350 219.09L350.28 219.17C353.87 220.2 357.34 221.21 360.74 222.18L360.21 222.4C363.27 216.85 366.16 211.61 368.91 206.63L369 207.15C366.14 204.61 363.46 202.22 360.87 199.92L360.69 199.76L360.75 199.53C361.75 195.5 362.12 191.63 362.05 187.96V187.74L362.24 187.63C365.71 185.72 368.83 184 371.78 182.38L371.62 182.76C369.7 176.05 368.06 170.34 366.66 165.45L366.91 165.63C362.57 165.87 359.01 166.06 356.04 166.22H355.93L355.88 166.13C353.85 162.73 351.95 160.47 350.66 159.02C350.02 158.33 349.53 157.8 349.17 157.42C348.82 157.06 348.67 156.89 348.68 156.88C348.69 156.88 348.88 157.04 349.23 157.35C349.58 157.68 350.11 158.18 350.78 158.89C352.12 160.31 354.08 162.55 356.17 165.94L356.01 165.85C358.97 165.65 362.53 165.41 366.87 165.12H367.07L367.13 165.3C368.58 170.18 370.26 175.88 372.25 182.57L372.32 182.82L372.09 182.95C369.15 184.59 366.04 186.33 362.59 188.26L362.78 187.93C362.88 191.66 362.53 195.6 361.53 199.71L361.41 199.32C364.01 201.61 366.7 203.98 369.58 206.51L369.83 206.73L369.67 207.03C366.94 212.03 364.07 217.28 361.04 222.84L360.86 223.16L360.5 223.06C357.1 222.09 353.62 221.1 350.03 220.08L350.51 219.95C347.84 222.76 344.73 225.29 341.26 227.39L341.5 226.93C341.72 230.49 341.95 234.11 342.18 237.8L342.21 238.21L341.82 238.32C336.2 239.96 330.44 241.65 324.54 243.38L324.14 243.5L323.93 243.13C322.19 240 320.43 236.83 318.64 233.62L319.12 233.9C315.2 234 311.21 233.58 307.3 232.62L307.84 232.45C305.46 235.14 303.06 237.86 300.63 240.6L300.34 240.93L299.95 240.72C294.76 237.87 289.49 234.99 284.15 232.06L283.76 231.85L283.88 231.42C284.38 229.69 284.87 227.95 285.37 226.2L286.12 223.58L286.5 222.26L286.69 221.6L286.78 221.27L286.83 221.11L286.85 221.03V220.99L286.87 220.97C287.17 222.07 286.95 221.27 287.02 221.51C284.06 218.7 281.54 215.48 279.59 212.24L280.1 212.51C276.37 212.74 272.66 212.96 269.23 213.17L268.79 213.2L268.67 212.78C266.94 206.83 265.23 200.96 263.64 195.49L263.52 195.07L263.9 194.86C267.19 193.04 270.44 191.24 273.42 189.59L273.14 190.07C273.04 185.95 273.54 181.87 274.44 178.26L274.6 178.78C271.78 176.28 269 173.81 266.46 171.56L266.15 171.29L266.35 170.93C269.36 165.45 272.3 160.11 275.03 155.15L275.22 154.8L275.6 154.91C279.24 155.96 282.81 156.99 286.06 157.92L285.58 158.05C288.45 155.04 291.68 152.54 294.85 150.64L294.63 151.06C294.41 147.26 294.19 143.56 293.99 140.19L293.97 139.84L294.3 139.74C300.37 137.99 306.15 136.31 311.6 134.74L311.9 134.65L312.05 134.93C313.89 138.28 315.67 141.49 317.3 144.47L316.97 144.28C321.16 144.19 325.13 144.7 328.73 145.6L328.41 145.7C331.02 142.77 333.46 140.04 335.65 137.58L335.8 137.41L336 137.52C342.41 141.08 347.71 144.03 351.74 146.27L351.87 146.34L351.83 146.47C350.83 149.83 350.06 152.41 349.52 154.2C349.26 155.05 349.06 155.71 348.9 156.2C348.76 156.65 348.68 156.88 348.66 156.88V156.88Z" fill="#EBEBEB"/>
<path d="M391 174.96L375.3 112.56L439.15 111.5L391 174.96Z" fill="#EBEBEB"/>
<path d="M419.882 123.608L397.953 152.51L514.835 241.196L536.765 212.294L419.882 123.608Z" fill="#EBEBEB"/>
<path d="M505.22 334.48L513.33 352.87C513.33 352.87 497.36 367.29 498.53 370.83L534.75 356.39L523.29 327.22L505.22 334.48V334.48Z" fill="#14475F"/>
<path opacity="0.5" d="M505.22 334.48L513.33 352.87C513.33 352.87 497.36 367.29 498.53 370.83L534.75 356.39L523.29 327.22L505.22 334.48V334.48Z" fill="black"/>
<path d="M534.75 356.39L533.48 353.5L499.23 368.43C499.23 368.43 497.9 369.77 498.53 370.84L534.75 356.4V356.39Z" fill="#263238"/>
<path d="M569 360.53L579.15 377.87C579.15 377.87 564.93 394.01 566.49 397.4L600.83 378.92L586.12 351.25L569 360.52V360.53Z" fill="#14475F"/>
<path opacity="0.5" d="M569 360.53L579.15 377.87C579.15 377.87 564.93 394.01 566.49 397.4L600.83 378.92L586.12 351.25L569 360.52V360.53Z" fill="black"/>
<path d="M600.83 378.93L599.24 376.2L566.91 394.94C566.91 394.94 565.74 396.43 566.49 397.41L600.83 378.93Z" fill="#263238"/>
<path d="M524.69 117.23L502.43 118.96L501.69 106.5C501.69 106.5 492.71 106.37 491.37 97.6C490.03 88.83 488.71 68.45 488.71 68.45C498.26 62.65 510.21 62.48 519.93 67.99L521.37 68.81L524.68 117.23H524.69Z" fill="#914F4E"/>
<path d="M501.66 106.38C501.66 106.38 507.28 106.05 512.65 101.52C512.65 101.52 510.7 108.42 501.83 108.86L501.66 106.39V106.38Z" fill="#783736"/>
<path d="M521.58 78.07C521.72 77.98 527.36 75.44 528.02 81.47C528.67 87.5 522.48 86.91 522.45 86.74C522.42 86.57 521.58 78.07 521.58 78.07Z" fill="#914F4E"/>
<path d="M524.04 84.25C524.04 84.25 524.15 84.31 524.34 84.37C524.52 84.43 524.83 84.45 525.13 84.3C525.74 84 526.17 82.93 526.08 81.84C526.04 81.29 525.86 80.78 525.62 80.37C525.39 79.95 525.07 79.67 524.74 79.65C524.41 79.61 524.21 79.83 524.15 80.01C524.09 80.19 524.14 80.3 524.11 80.32C524.09 80.34 523.97 80.23 523.99 79.98C524 79.86 524.06 79.71 524.19 79.58C524.32 79.45 524.53 79.36 524.75 79.36C525.22 79.34 525.68 79.72 525.95 80.18C526.24 80.63 526.45 81.2 526.5 81.82C526.59 83.04 526.09 84.24 525.25 84.59C524.84 84.75 524.47 84.66 524.27 84.53C524.07 84.4 524.02 84.27 524.04 84.26V84.25Z" fill="#783736"/>
<path d="M492.51 82.26C492.58 82.93 493.2 83.42 493.9 83.36C494.6 83.3 495.1 82.71 495.03 82.05C494.96 81.38 494.34 80.89 493.64 80.95C492.94 81.01 492.44 81.6 492.5 82.26H492.51Z" fill="#263238"/>
<path d="M492.12 80.58C492.3 80.72 493.15 79.88 494.5 79.7C495.85 79.49 496.93 80.05 497.06 79.86C497.12 79.78 496.92 79.5 496.45 79.25C495.98 79 495.21 78.79 494.37 78.92C493.53 79.04 492.87 79.45 492.5 79.83C492.13 80.21 492.03 80.52 492.12 80.58Z" fill="#263238"/>
<path d="M505.64 80.74C505.71 81.41 506.33 81.9 507.03 81.84C507.73 81.78 508.23 81.19 508.16 80.53C508.09 79.86 507.47 79.37 506.77 79.43C506.07 79.49 505.57 80.08 505.63 80.74H505.64Z" fill="#263238"/>
<path d="M505.42 78.96C505.6 79.1 506.45 78.26 507.8 78.08C509.15 77.87 510.23 78.43 510.36 78.24C510.42 78.16 510.22 77.88 509.75 77.63C509.28 77.38 508.51 77.17 507.67 77.3C506.83 77.42 506.17 77.83 505.8 78.21C505.43 78.59 505.33 78.9 505.42 78.97V78.96Z" fill="#263238"/>
<path d="M501.93 89.66C501.93 89.58 501.07 89.56 499.68 89.57C499.33 89.58 498.99 89.57 498.9 89.33C498.78 89.09 498.88 88.7 498.99 88.28C499.2 87.4 499.41 86.48 499.64 85.51C500.53 81.57 501.12 78.36 500.96 78.32C500.8 78.29 499.95 81.45 499.06 85.38C498.85 86.35 498.65 87.27 498.45 88.16C498.37 88.57 498.21 89.05 498.46 89.54C498.59 89.78 498.87 89.94 499.1 89.96C499.33 90 499.52 89.97 499.7 89.96C501.08 89.84 501.93 89.73 501.92 89.65L501.93 89.66Z" fill="#263238"/>
<path d="M506.03 90.04C505.81 90.06 506.01 91.52 504.9 92.74C503.79 93.96 502.21 94.01 502.23 94.22C502.23 94.31 502.62 94.46 503.28 94.38C503.93 94.31 504.84 93.97 505.52 93.23C506.2 92.48 506.4 91.59 506.37 90.98C506.34 90.36 506.13 90.02 506.03 90.04V90.04Z" fill="#263238"/>
<path d="M504.33 73.72C504.51 74.07 505.84 73.7 507.45 73.67C509.06 73.61 510.4 73.89 510.57 73.53C510.64 73.36 510.37 73.05 509.8 72.76C509.24 72.48 508.37 72.25 507.41 72.28C506.44 72.31 505.6 72.58 505.05 72.9C504.5 73.22 504.25 73.55 504.33 73.71V73.72Z" fill="#263238"/>
<path d="M492.06 76.6C492.34 76.87 493.23 76.42 494.34 76.25C495.45 76.04 496.43 76.17 496.61 75.81C496.68 75.64 496.49 75.35 496.04 75.12C495.59 74.89 494.88 74.75 494.11 74.88C493.35 75.01 492.72 75.38 492.37 75.75C492.02 76.12 491.93 76.45 492.06 76.59V76.6Z" fill="#263238"/>
<path d="M483.66 63.51C483.41 62.43 483.66 61.21 484.45 60.44C485.25 59.68 486.63 59.52 487.46 60.24C486.84 58.83 487.8 56.97 489.31 56.66C490.73 56.37 492.1 57.28 493.54 57.46C494.94 57.64 496.35 57.12 497.57 56.41C498.8 55.7 499.91 54.81 501.16 54.14C503.76 52.75 506.92 52.44 509.75 53.28C512.58 54.13 515.04 56.12 516.46 58.71C518.3 57.84 520.62 58.51 522.03 59.97C523.44 61.43 524.05 63.53 524.09 65.56C524.12 66.93 523.91 68.29 523.64 69.64C523.66 69.75 523.68 69.86 523.7 69.98C524.29 74.82 524.54 80.57 522.48 80.89C518.9 81.45 518.8 74.56 518.8 74.56C514.15 73.48 514.87 66.64 513.62 65.79C512.38 64.94 509.74 62.94 501.18 68.95C497.85 71.29 493.08 71.9 490.4 71.67C490.32 71.67 490.24 71.67 490.16 71.66C490.14 71.66 490.12 71.66 490.11 71.66C490.08 71.66 490.06 71.64 490.03 71.64C489.17 71.54 488.33 71.33 487.52 70.97C486.61 70.56 485.75 69.95 485.26 69.08C484.78 68.21 484.75 67.03 485.38 66.26C484.58 65.5 483.9 64.56 483.66 63.49V63.51Z" fill="#263238"/>
<path d="M501.66 114.14L502.66 149.02L524.35 102.3L523.81 97.98L501.66 114.14Z" fill="#EBEBEB"/>
<path d="M516.06 218.39C515.27 218.65 470.09 264.34 471.1 272.55C472.11 280.76 504.27 341.53 504.27 341.53L527.21 330.22L505.69 276.94L505.97 273.63L532.27 252.08L530.87 217.42L516.05 218.4L516.06 218.39Z" fill="#263238"/>
<path d="M525.8 227.4C526.32 228.2 534.15 299.97 536.24 303.69C538.34 307.4 569.76 368.68 569.76 368.68L593.09 359.28L564.61 291.93L567.86 228.19L566.1 210.19L530.88 217.41L525.8 227.39V227.4Z" fill="#263238"/>
<path d="M535.84 302.42C535.84 302.42 535.77 302.18 535.69 301.7C535.6 301.18 535.49 300.49 535.35 299.63C535.07 297.77 534.68 295.18 534.19 291.99C533.25 285.49 531.98 276.6 530.56 266.77C529.2 256.93 527.98 248.03 527.08 241.53C526.66 238.34 526.32 235.73 526.08 233.87C525.98 233 525.9 232.31 525.83 231.78C525.78 231.3 525.76 231.05 525.78 231.05C525.8 231.05 525.85 231.29 525.93 231.77C526.02 232.29 526.13 232.98 526.27 233.84C526.55 235.7 526.94 238.29 527.43 241.48C528.37 247.98 529.64 256.87 531.06 266.7C532.42 276.53 533.64 285.43 534.54 291.94C534.96 295.13 535.3 297.74 535.54 299.6C535.64 300.47 535.72 301.16 535.79 301.69C535.84 302.17 535.86 302.42 535.84 302.42V302.42Z" fill="#455A64"/>
<path d="M564.02 289.87C564.15 289.91 563.55 292.45 562.66 295.56C561.78 298.66 560.95 301.15 560.82 301.11C560.69 301.07 561.29 298.53 562.18 295.42C563.06 292.32 563.89 289.83 564.02 289.87Z" fill="#455A64"/>
<path d="M567.55 306.13C567.55 306.13 566.95 305.53 566.28 304.36C565.6 303.19 564.85 301.46 564.42 299.43C563.99 297.4 563.97 295.51 564.11 294.17C564.25 292.82 564.5 292.02 564.55 292.03C564.72 292.04 564.04 295.35 564.91 299.32C565.73 303.3 567.71 306.05 567.56 306.12L567.55 306.13Z" fill="#455A64"/>
<path d="M498.17 269.2C498.22 269.08 500.1 269.87 501.94 271.55C503.79 273.22 504.74 275.03 504.63 275.09C504.5 275.17 503.39 273.54 501.6 271.93C499.83 270.3 498.1 269.34 498.17 269.21V269.2Z" fill="#455A64"/>
<path d="M501.71 267.08C501.8 266.99 502.95 268 503.93 269.6C504.92 271.2 505.32 272.68 505.19 272.72C505.05 272.77 504.46 271.41 503.5 269.86C502.55 268.31 501.6 267.17 501.7 267.07L501.71 267.08Z" fill="#455A64"/>
<path d="M504.83 162.37L510.61 191.02L515.31 231C515.31 231 534.69 228.29 542.94 225.68C552.52 222.65 573.36 220.07 573.36 220.07L569.85 223.55C577.31 221.46 582.05 214.35 582.05 214.35C569.2 202.43 558.23 177.91 558.23 177.91L548.46 129.39C548.46 129.39 546.98 122.54 546.08 119.5C545.18 116.46 530.35 106.64 528.29 105.4L527 104.79L526.59 100.9L525.06 99.99L509 114.58C505.88 117.42 503.89 121.29 503.41 125.48C502.91 129.9 502.46 136.24 502.71 143.73C502.9 149.41 504.83 162.38 504.83 162.38V162.37Z" fill="#14475F"/>
<path d="M515.86 112.74C515.86 112.74 507.37 117.29 505.9 121.15C504.43 125.01 508.8 167.33 508.8 167.33L478.33 167.9L478.23 186.06C478.23 186.06 526.63 189.88 528.51 187.27C531.06 183.73 534.01 150.66 534.01 150.66L535.11 126.86C535.11 126.86 532.3 108.71 515.84 112.74H515.86Z" fill="#14475F"/>
<g opacity="0.3">
<path d="M510.61 191.02C514.71 192.35 518.51 192.56 522.81 192.16C527.1 191.76 531.47 189.41 533.09 185.42C534.33 182.36 533.81 178.92 534 175.62C534.16 172.76 534.87 169.96 535.3 167.12C535.73 164.29 534.26 159.08 533.33 156.37C533.33 156.37 532.24 176.02 529.17 184.27C528.75 185.39 528.22 186.53 527.29 187.28C526.2 188.16 524.7 188.23 523.31 188.38C519.42 188.79 510.04 188.11 510.04 188.11" fill="black"/>
</g>
<path d="M535.07 129.43C535.07 129.43 535.07 129.58 535.07 129.86C535.06 130.17 535.04 130.59 535.02 131.12C534.97 132.26 534.89 133.89 534.79 135.98C534.68 138.1 534.54 140.68 534.39 143.67C534.21 146.67 534.11 150.09 533.74 153.85C533.41 157.61 533.02 161.73 532.55 166.15C532.06 170.57 531.54 175.29 530.7 180.22C530.46 181.45 530.27 182.7 529.86 183.95C529.44 185.19 528.71 186.37 527.66 187.24C526.62 188.09 525.25 188.69 523.87 188.59C522.53 188.62 521.18 188.59 519.82 188.57C514.38 188.44 508.76 188.16 503 187.84C494.35 187.36 486.02 186.82 478.23 186.28L478.01 186.26V186.04C478.05 179.59 478.09 173.52 478.12 167.91V167.7H478.33C490.5 167.44 500.62 167.22 507.74 167.07C511.27 167.01 514.04 166.96 515.97 166.93C516.9 166.93 517.62 166.91 518.14 166.91C518.63 166.91 518.88 166.93 518.88 166.93C518.88 166.93 518.63 166.96 518.14 166.98C517.63 167 516.9 167.03 515.98 167.07C514.06 167.13 511.28 167.22 507.76 167.33C500.65 167.53 490.52 167.81 478.36 168.14L478.57 167.93C478.55 173.53 478.53 179.61 478.51 186.06L478.29 185.82C486.08 186.35 494.41 186.88 503.06 187.36C508.81 187.67 514.43 187.95 519.86 188.09C521.22 188.11 522.56 188.14 523.89 188.12C525.19 188.22 526.42 187.66 527.39 186.88C528.36 186.08 529.05 184.98 529.45 183.8C529.84 182.62 530.04 181.35 530.28 180.14C531.13 175.23 531.67 170.51 532.18 166.1C532.67 161.69 533.08 157.57 533.43 153.81C533.82 150.05 533.94 146.64 534.15 143.64C534.34 140.65 534.5 138.07 534.64 135.96C534.78 133.87 534.89 132.24 534.97 131.11C535.01 130.57 535.04 130.15 535.07 129.85C535.09 129.57 535.11 129.42 535.12 129.42L535.07 129.43Z" fill="#263238"/>
<path d="M484.22 185.79C484.08 185.79 483.99 181.85 484.02 176.99C484.05 172.13 484.18 168.19 484.32 168.19C484.46 168.19 484.55 172.13 484.52 176.99C484.49 181.85 484.36 185.79 484.22 185.79Z" fill="#263238"/>
<path d="M480.99 170.94C480.93 170.91 481.24 170.57 481.81 170.76C482.08 170.84 482.4 171.14 482.43 171.57C482.46 171.97 482.27 172.44 481.81 172.66C481.35 172.86 480.87 172.71 480.58 172.43C480.27 172.15 480.22 171.74 480.28 171.47C480.42 170.9 480.82 170.77 480.83 170.83C480.88 170.89 480.64 171.1 480.63 171.51C480.63 171.71 480.7 171.94 480.88 172.08C481.06 172.23 481.36 172.3 481.59 172.19C481.81 172.09 481.96 171.81 481.95 171.59C481.95 171.36 481.81 171.18 481.65 171.08C481.3 170.87 481 171 480.97 170.94H480.99Z" fill="#263238"/>
<path d="M548.6 133.54C548.6 133.54 564.45 154.27 566.38 159.91C568.31 165.56 566.82 173.67 563.59 177.54C560.36 181.41 557.76 179.84 557.76 179.84L548.6 133.53V133.54Z" fill="#14475F"/>
<path d="M557.19 178.19C557.21 178.33 555.43 178.75 553.22 179.13C551 179.51 549.19 179.71 549.16 179.57C549.13 179.43 550.91 179.01 553.13 178.63C555.35 178.25 557.16 178.05 557.19 178.19Z" fill="#263238"/>
<path d="M560.24 193.47C560.24 193.47 560.43 193.85 560.67 194.56C560.91 195.27 561.27 196.3 561.74 197.56C562.68 200.08 564.12 203.52 566 207.16C567.89 210.81 569.84 213.98 571.32 216.22C572.06 217.34 572.67 218.25 573.1 218.87C573.52 219.49 573.75 219.85 573.72 219.87C573.69 219.89 573.42 219.58 572.94 218.99C572.46 218.4 571.81 217.53 571.03 216.42C569.47 214.22 567.45 211.06 565.55 207.39C563.66 203.72 562.26 200.24 561.4 197.67C560.97 196.39 560.66 195.34 560.47 194.6C560.28 193.87 560.19 193.46 560.23 193.45L560.24 193.47Z" fill="#263238"/>
<g opacity="0.3">
<path d="M561.32 195.92C563.83 200.4 566.41 204.96 570.24 208.38C571.59 209.59 573.1 210.66 574.13 212.15C575.16 213.64 575.61 215.73 574.63 217.25C574.28 217.79 573.67 218.25 573.05 218.1C572.61 218 572.29 217.62 572.02 217.26C567.25 211.12 563.66 204.06 561.5 196.59" fill="black"/>
</g>
<g opacity="0.3">
<path d="M559.23 179.77C561.4 178.21 562.16 175.24 561.84 172.59C561.52 169.94 560.31 167.49 559.21 165.05C555.8 157.49 553.5 150.66 551.49 142.41L549.94 136.66L557.78 177.68L559.23 179.77V179.77Z" fill="black"/>
</g>
<path d="M519.99 110.9C519.9 110.78 521.32 109.57 522.94 107.95C524.57 106.33 525.78 104.91 525.89 105C526 105.08 524.95 106.66 523.29 108.31C521.64 109.96 520.06 111.01 519.98 110.91L519.99 110.9Z" fill="#263238"/>
<path d="M518.38 114.41C518.41 114.49 517.47 114.78 516.06 115.47C514.66 116.16 512.82 117.33 511.14 119.02C509.47 120.72 508.31 122.57 507.64 123.98C506.96 125.39 506.69 126.33 506.61 126.31C506.58 126.31 506.61 126.06 506.72 125.62C506.81 125.18 507.02 124.57 507.32 123.83C507.92 122.35 509.06 120.41 510.78 118.66C512.51 116.92 514.44 115.76 515.91 115.14C516.64 114.83 517.26 114.62 517.69 114.52C518.12 114.41 518.36 114.37 518.37 114.4L518.38 114.41Z" fill="#263238"/>
<path d="M560.95 183.89C560.95 183.89 560.85 183.76 560.7 183.49C560.53 183.17 560.32 182.78 560.07 182.3C559.5 181.19 558.73 179.69 557.79 177.84V177.82L557.78 177.8C556.79 173.26 555.39 166.63 553.86 159.27C552.45 152.33 551.18 146.04 550.24 141.41C549.81 139.17 549.46 137.34 549.2 135.99C549.1 135.39 549.01 134.9 548.94 134.51C548.89 134.17 548.87 133.99 548.88 133.99C548.9 133.99 548.95 134.16 549.04 134.49C549.13 134.88 549.25 135.36 549.39 135.95C549.69 137.29 550.09 139.12 550.59 141.34C551.57 145.97 552.89 152.24 554.35 159.17C555.87 166.54 557.22 173.17 558.11 177.74V177.7C558.98 179.58 559.71 181.11 560.24 182.23C560.46 182.72 560.65 183.13 560.79 183.46C560.91 183.74 560.97 183.89 560.95 183.9V183.89Z" fill="#263238"/>
<path d="M508.28 167.32C508.28 167.32 508.16 166.79 508.05 165.82C507.93 164.76 507.78 163.38 507.6 161.71C507.24 158.24 506.79 153.43 506.31 148.12C505.84 142.81 505.44 138 505.17 134.52C505.05 132.85 504.96 131.46 504.88 130.39C504.82 129.41 504.81 128.87 504.84 128.87C504.87 128.87 504.96 129.4 505.07 130.37C505.19 131.43 505.34 132.81 505.52 134.48C505.88 137.96 506.33 142.76 506.81 148.07C507.28 153.38 507.68 158.18 507.95 161.67C508.07 163.34 508.16 164.73 508.24 165.8C508.3 166.78 508.31 167.32 508.28 167.32Z" fill="#263238"/>
<path d="M478.72 170.03C478.72 170.03 472.15 165.05 470.55 164.74C469.32 164.51 461.99 164.63 458.62 164.7C457.32 164.73 456.18 165.75 456.2 167.04C456.2 167.12 456.2 167.2 456.22 167.28C456.48 168.65 457.82 168.95 457.82 168.95C457.82 168.95 456.07 169.45 456.04 171.36C456.01 173.26 458.32 173.67 458.32 173.67C458.32 173.67 458.18 173.77 457.99 173.96C456.73 175.22 457.37 177.38 459.11 177.77L460.15 178.01C460.15 178.01 458.74 178.6 458.76 179.9C458.8 182.41 464.43 182.89 464.43 182.89C464.43 182.89 478.36 185.09 478.66 184.99C478.96 184.89 478.72 170.03 478.72 170.03V170.03Z" fill="#914F4E"/>
<path d="M459.91 161.74C459.97 162.57 460.17 164.32 461.57 165.12L469.33 164.82C469.33 164.82 463.55 162.83 462.73 161.84C462.44 161.49 462.04 161.07 461.62 160.76C460.88 160.22 459.84 160.84 459.91 161.75V161.74Z" fill="#914F4E"/>
<path d="M465.68 164.74C465.68 164.87 464.1 165.03 462.14 164.99C460.19 164.95 458.61 164.88 458.6 164.74C458.6 164.61 460.18 164.45 462.15 164.49C464.1 164.53 465.68 164.6 465.69 164.74H465.68Z" fill="#783736"/>
<path d="M463.93 169.08C463.94 169.21 462.57 169.46 460.87 169.39C459.16 169.33 457.82 168.99 457.84 168.86C457.86 168.72 459.22 168.83 460.89 168.89C462.56 168.95 463.92 168.94 463.93 169.08V169.08Z" fill="#783736"/>
<path d="M467.88 168.52C468 168.59 467.85 169.01 467.41 169.3C466.97 169.58 466.53 169.55 466.51 169.41C466.49 169.27 466.8 169.1 467.14 168.88C467.49 168.66 467.77 168.45 467.88 168.52Z" fill="#783736"/>
<path d="M464.79 173.99C464.78 174.13 463.28 174.19 461.44 174.13C459.6 174.07 458.11 173.91 458.11 173.77C458.11 173.63 459.61 173.57 461.46 173.63C463.31 173.69 464.8 173.85 464.79 173.99Z" fill="#783736"/>
<path d="M469.23 171.92C469.29 171.9 469.41 172.06 469.45 172.36C469.49 172.66 469.42 173.11 469.12 173.49C468.82 173.87 468.4 174.05 468.1 174.08C467.79 174.12 467.61 174.04 467.62 173.97C467.62 173.83 468.29 173.75 468.73 173.18C469.18 172.62 469.11 171.94 469.24 171.91L469.23 171.92Z" fill="#783736"/>
<path d="M465.96 178.81C465.94 178.95 464.59 178.89 462.94 178.69C461.29 178.49 459.97 178.21 459.98 178.07C460 177.93 461.35 177.99 463 178.19C464.65 178.39 465.97 178.67 465.96 178.81Z" fill="#783736"/>
<path d="M470.29 176.36C470.35 176.36 470.45 176.52 470.44 176.82C470.44 177.12 470.3 177.52 470.02 177.87C469.45 178.56 468.81 178.81 468.74 178.71C468.64 178.59 469.15 178.14 469.62 177.56C470.1 176.98 470.15 176.37 470.28 176.35L470.29 176.36Z" fill="#783736"/>
<path d="M567.21 223.97C569.95 223.73 572.54 222.1 573.94 219.73C574.1 219.46 574.24 219.1 574.03 218.86C573.89 218.7 573.65 218.69 573.44 218.68C571.27 218.66 569.1 219.03 567.06 219.77C566.83 219.85 566.57 219.97 566.49 220.2C566.43 220.37 566.47 220.55 566.52 220.73C566.79 221.78 567.07 222.83 567.34 223.88" fill="#14475F"/>
<g opacity="0.4">
<path d="M567.21 223.97C569.95 223.73 572.54 222.1 573.94 219.73C574.1 219.46 574.24 219.1 574.03 218.86C573.89 218.7 573.65 218.69 573.44 218.68C571.27 218.66 569.1 219.03 567.06 219.77C566.83 219.85 566.57 219.97 566.49 220.2C566.43 220.37 566.47 220.55 566.52 220.73C566.79 221.78 567.07 222.83 567.34 223.88" fill="black"/>
</g>
<path d="M501.66 114.14C501.66 114.14 498.46 124.87 499.34 124.26C500.22 123.65 502.13 121.96 502.13 121.96L501.65 114.14H501.66Z" fill="#EBEBEB"/>
<path d="M501.85 119.09L500.1 123.27C499.93 123.71 499.82 124.16 499.76 124.62C499.62 125.79 499.45 127.94 500.15 128.08C501.11 128.29 502.02 127.31 502.02 127.31L501.85 119.09V119.09Z" fill="#263238"/>
<path d="M556.05 119.75C556.05 119.75 538.95 113.08 529.49 118.97C520.02 124.86 518.3 134.26 512.66 134.26C501.67 134.26 502.02 126.5 502.02 126.5L499.68 127.21C499.63 128.8 497.13 140.19 508.72 141.61C520.31 143.02 525.18 127.23 535.6 127.21C546.02 127.19 553.93 132.85 553.93 132.85L561.42 128.11L556.05 119.75V119.75Z" fill="#263238"/>
<path d="M512.18 141.42C512.18 141.42 516.44 139.24 518.78 133.85C521.44 127.72 527.14 120.73 531.9 118.97C536.66 117.21 547.67 115.99 555.28 120.94L560.15 127.52L553.82 131.62C553.82 131.62 548.82 128.87 542.67 127.16C534.81 124.96 530.03 127.44 525.46 131.77C525.18 132.04 524.91 132.31 524.69 132.56C523.54 133.87 520.35 136.9 517.45 138.97C515.21 140.56 513.19 141.43 512.18 141.41V141.42Z" fill="#455A64"/>
<path d="M158.19 48.33C148.05 49.89 140.62 41.38 138.25 33.79C136.06 26.79 135.02 19.51 131.95 12.85C127.64 3.54997 116.26 -0.750027 106.05 0.109973C95.84 0.969973 85.54 6.08997 76.51 10.93L79 66.95C79 66.95 98.68 46 108.13 45.61C123.91 44.97 123.05 70.91 138.37 74.74C138.37 74.74 159.85 80.56 174.37 61.81C183.59 49.91 184.4 35.45 184.4 35.45C184.4 35.45 177.34 45.4 158.18 48.35L158.19 48.33Z" fill="#14475F"/>
<path d="M76.09 1.62994C76.23 1.62994 78.99 61.1099 82.25 134.48C85.52 207.87 88.05 267.35 87.91 267.36C87.77 267.36 85.01 207.89 81.75 134.5C78.49 61.1299 75.96 1.63994 76.09 1.62994Z" fill="#263238"/>
<g opacity="0.2">
<path d="M130.25 29.92C131.65 35.16 134.79 42.16 137.71 46.73C140.63 51.3 145.06 55.15 150.37 56.26C151.33 56.46 152.33 56.57 153.21 57C154.1 57.42 154.87 58.25 154.9 59.23C154.94 60.7 153.42 61.66 152.11 62.31C150.24 63.23 148.33 64.17 146.28 64.55C144.23 64.93 142.62 65.15 141.21 63.61C140.02 62.31 138.44 60.75 137.54 59.22C132.91 51.33 130.62 40.05 130.24 31.13" fill="black"/>
</g>
<path d="M143.97 65.89C143.97 65.89 143.8 65.81 143.51 65.63C143.22 65.44 142.81 65.15 142.3 64.74C141.29 63.91 139.91 62.59 138.56 60.68C137.19 58.78 135.89 56.29 134.82 53.4C133.74 50.51 132.86 47.23 132.05 43.77C130.44 36.84 129.73 30.43 129.47 25.78C129.34 23.46 129.32 21.57 129.32 20.27C129.33 19.67 129.34 19.17 129.35 18.77C129.36 18.43 129.38 18.25 129.4 18.25C129.42 18.25 129.44 18.43 129.45 18.77C129.47 19.17 129.49 19.66 129.51 20.26C129.57 21.56 129.64 23.43 129.82 25.75C130.17 30.37 130.93 36.75 132.54 43.65C133.35 47.09 134.21 50.36 135.26 53.23C136.3 56.1 137.55 58.57 138.86 60.47C140.16 62.38 141.48 63.72 142.44 64.59C143.41 65.45 144 65.85 143.98 65.89H143.97Z" fill="#263238"/>
<path d="M14.95 279.18L148.92 301.11V279.18H14.95Z" fill="#E0E0E0"/>
<path d="M171.04 328.73L305.01 350.66V328.73H171.04Z" fill="#E0E0E0"/>
<path d="M326.05 376.12L460.02 398.05V376.12H326.05Z" fill="#E0E0E0"/>
<path d="M480.86 413.84L614.83 435.77V413.84H480.86Z" fill="#E0E0E0"/>
<path d="M148.92 262.75H14.95V279.18H148.92V262.75Z" fill="#14475F"/>
<g opacity="0.3">
<path d="M148.93 262.75H107.12V279.18H148.93V262.75Z" fill="black"/>
</g>
<path d="M305.01 312.3H171.04V328.73H305.01V312.3Z" fill="#14475F"/>
<g opacity="0.3">
<path d="M305.01 312.3H263.2V328.73H305.01V312.3Z" fill="black"/>
</g>
<path d="M460.02 359.69H326.05V376.12H460.02V359.69Z" fill="#14475F"/>
<g opacity="0.3">
<path d="M460.03 359.69H418.22V376.12H460.03V359.69Z" fill="black"/>
</g>
<path d="M615.03 397.41H481.06V413.84H615.03V397.41Z" fill="#14475F"/>
<g opacity="0.3">
<path d="M615.04 397.41H573.23V413.84H615.04V397.41Z" fill="black"/>
</g>
<path d="M532.47 337.62C532.47 339.63 534.1 341.26 536.11 341.26C538.12 341.26 539.75 339.63 539.75 337.62C539.75 335.61 538.12 333.98 536.11 333.98C534.1 333.98 532.47 335.61 532.47 337.62Z" fill="#EBEBEB"/>
</g>
<defs>
<clipPath id="clip0_1_196">
<rect width="639.66" height="435.77" fill="white"/>
</clipPath>
</defs>
</svg>
