<svg width="451" height="451" viewBox="0 0 451 451" fill="none" xmlns="http://www.w3.org/2000/svg">
<g clip-path="url(#clip0_1_2)">
<path d="M225.71 450.18C350.002 450.18 450.76 392.008 450.76 320.25C450.76 248.492 350.002 190.32 225.71 190.32C101.418 190.32 0.659912 248.492 0.659912 320.25C0.659912 392.008 101.418 450.18 225.71 450.18Z" fill="#F5F5F5"/>
<path d="M264.23 391.68C287.083 391.68 305.61 380.984 305.61 367.79C305.61 354.596 287.083 343.9 264.23 343.9C241.376 343.9 222.85 354.596 222.85 367.79C222.85 380.984 241.376 391.68 264.23 391.68Z" fill="#E0E0E0"/>
<path d="M371.88 377.54C394.733 377.54 413.26 366.844 413.26 353.65C413.26 340.456 394.733 329.76 371.88 329.76C349.026 329.76 330.5 340.456 330.5 353.65C330.5 366.844 349.026 377.54 371.88 377.54Z" fill="#E0E0E0"/>
<path d="M145.54 427.51C168.393 427.51 186.92 416.814 186.92 403.62C186.92 390.426 168.393 379.73 145.54 379.73C122.686 379.73 104.16 390.426 104.16 403.62C104.16 416.814 122.686 427.51 145.54 427.51Z" fill="#E0E0E0"/>
<path d="M77.6999 325.05C77.6999 325.05 76.6099 299.79 66.0299 285.73C55.4399 271.68 42.4599 269.65 36.0199 273.6C31.3299 276.48 31.9599 285.04 40.0899 290.63C48.2199 296.22 63.8899 310.44 66.3399 319.73L77.7099 325.04L77.6999 325.05Z" fill="#37474F"/>
<path d="M70.7498 321.37C70.3898 321.35 70.1198 321.04 70.1398 320.69C71.2298 297.77 51.1198 283.48 45.6698 280.91C45.3398 280.75 45.1998 280.36 45.3598 280.04C45.5198 279.71 45.9098 279.58 46.2298 279.73C51.8398 282.38 72.5698 297.12 71.4498 320.76C71.4298 321.12 71.1298 321.4 70.7598 321.38C70.7598 321.38 70.7598 321.38 70.7498 321.38V321.37Z" fill="white"/>
<path d="M72.6699 317.08C71.1999 316.87 69.7699 316.61 68.8099 315.54C67.5799 314.18 67.6799 312.12 67.1099 310.37C66.1799 307.51 63.3599 305.57 60.4199 304.96C57.4799 304.35 54.4199 304.85 51.4999 305.57C45.5999 307.02 39.9299 303.39 34.0199 303.82C31.9099 303.97 29.7699 304.47 28.0299 305.69C26.2899 306.91 25.0499 308.94 25.1599 311.05C25.2599 312.81 26.2799 314.42 27.5999 315.6C28.9099 316.78 30.5099 317.6 32.0799 318.4C33.8099 319.28 35.5399 320.16 37.2699 321.04C38.1299 321.48 38.9999 321.93 39.6799 322.6C40.9599 323.88 41.8499 326.35 41.4899 328.12C41.0899 330.1 39.4699 331.64 38.9799 333.6C38.3499 336.17 39.9199 338.92 42.1799 340.31C44.4399 341.7 47.2199 341.96 49.8599 341.81C52.5099 341.66 55.1299 341.13 57.7799 341.08C59.5699 341.05 61.4299 341.26 62.9399 342.2C64.7899 343.35 65.8699 345.42 66.5699 347.48C67.0199 348.81 67.3699 350.21 68.1899 351.34C69.0499 352.51 70.3499 353.29 71.7099 353.79C74.3199 354.75 77.3599 354.77 79.9699 353.77C82.1599 352.93 83.2299 350.46 84.0399 348.32C84.8599 346.17 85.2499 343.61 85.1899 341.34C85.0399 335.39 83.6999 328.97 81.1199 323.6C79.8899 321.04 78.0999 318.48 75.3999 317.59C74.5399 317.31 73.5899 317.19 72.6599 317.06L72.6699 317.08Z" fill="#455A64"/>
<path d="M78.3999 344.54C78.1599 344.54 77.9299 344.39 77.8499 344.15C71.6799 326.46 42.4899 311.07 31.8099 309.3C31.4899 309.25 31.2799 308.95 31.3299 308.63C31.3799 308.31 31.6899 308.09 31.9999 308.15C42.8799 309.95 72.6499 325.68 78.9499 343.76C79.0599 344.06 78.8999 344.4 78.5899 344.5C78.5299 344.52 78.4599 344.53 78.3999 344.53V344.54Z" fill="white"/>
<path d="M52.1598 334.86C51.9898 334.86 51.8098 334.78 51.6998 334.63C51.4998 334.37 51.5498 334.01 51.8098 333.81C52.0798 333.61 58.4198 328.82 68.0298 328.6H68.0398C68.3598 328.6 68.6198 328.85 68.6198 329.17C68.6198 329.49 68.3698 329.76 68.0498 329.77C58.8198 329.98 52.5798 334.69 52.5198 334.74C52.4098 334.82 52.2898 334.86 52.1598 334.86V334.86Z" fill="white"/>
<path d="M78.71 358.23C77.54 357.56 76.59 355.84 76.59 354.4V146.01C76.59 144.57 77.6 142.82 78.84 142.1L324.02 0.559982C325.27 -0.160018 327.22 -0.200018 328.39 0.479982C329.56 1.14998 330.51 2.86998 330.51 4.30998V212.71C330.51 214.15 329.5 215.9 328.26 216.62L83.08 358.15C81.83 358.87 79.88 358.91 78.71 358.23V358.23Z" fill="#455A64"/>
<path d="M82.65 358.35C82.65 358.35 82.59 358.38 82.56 358.38C82.49 358.42 82.41 358.44 82.34 358.46C82.29 358.48 82.24 358.5 82.17 358.51C82.08 358.54 81.97 358.57 81.86 358.58C81.8 358.6 81.72 358.62 81.65 358.62C81.55 358.64 81.42 358.66 81.31 358.67C80.38 358.77 79.41 358.63 78.72 358.22C77.54 357.54 76.61 355.83 76.61 354.4V172.73L80.84 175.18V356.85C80.84 357.87 81.35 358.46 82.09 358.46C82.19 358.46 82.29 358.45 82.39 358.42C82.41 358.42 82.42 358.42 82.44 358.41C82.51 358.4 82.59 358.38 82.66 358.35H82.65Z" fill="#14475F"/>
<path opacity="0.81" d="M82.65 358.35C82.65 358.35 82.59 358.38 82.56 358.38C82.49 358.42 82.41 358.44 82.34 358.46C82.29 358.48 82.24 358.5 82.17 358.51C82.08 358.54 81.97 358.57 81.86 358.58C81.8 358.6 81.72 358.62 81.65 358.62C81.55 358.64 81.42 358.66 81.31 358.67C80.38 358.77 79.41 358.63 78.72 358.22C77.54 357.54 76.61 355.83 76.61 354.4V172.73L80.84 175.18V356.85C80.84 357.87 81.35 358.46 82.09 358.46C82.19 358.46 82.29 358.45 82.39 358.42C82.41 358.42 82.42 358.42 82.44 358.41C82.51 358.4 82.59 358.38 82.66 358.35H82.65Z" fill="#E0E0E0"/>
<path d="M80.83 175.18L76.59 172.73V213.08L80.83 215.55V175.18Z" fill="#14475F"/>
<path opacity="0.15" d="M80.83 175.18L76.59 172.73V213.08L80.83 215.55V175.18Z" fill="black"/>
<path d="M81.48 146.23C81.07 146.93 80.82 147.73 80.82 148.45V175.17L76.58 172.72V146.01C76.58 145.92 76.58 145.83 76.59 145.74C76.61 145.55 76.64 145.36 76.68 145.18C76.79 144.71 76.99 144.22 77.24 143.78L81.47 146.23H81.48Z" fill="#263238"/>
<path d="M330.5 4.31V16.36L150.79 120.11C149.55 120.83 148.54 120.25 148.54 118.81V114.25C148.54 112.81 147.53 112.23 146.28 112.95L91.55 144.55C90.3 145.27 89.29 147.02 89.29 148.46V153.02C89.29 154.46 88.28 156.21 87.04 156.93L80.83 160.51V148.46C80.83 147.02 81.84 145.27 83.08 144.55L328.25 3C329.49 2.28 330.5 2.86 330.5 4.3V4.31Z" fill="#37474F"/>
<path d="M330.51 212.7C330.51 214.14 329.5 215.89 328.25 216.61L83.08 358.15C81.84 358.87 80.83 358.29 80.83 356.85V160.51L87.04 156.93C88.28 156.21 90.3 145.27 91.55 144.55L145.36 113.48C146.61 112.76 149.55 120.84 150.79 120.12L330.5 16.36V212.7H330.51Z" fill="#14475F"/>
<path opacity="0.9" d="M330.51 212.7C330.51 214.14 329.5 215.89 328.25 216.61L83.08 358.15C81.84 358.87 80.83 358.29 80.83 356.85V160.51L87.04 156.93C88.28 156.21 90.3 145.27 91.55 144.55L145.36 113.48C146.61 112.76 149.55 120.84 150.79 120.12L330.5 16.36V212.7H330.51Z" fill="white"/>
<g opacity="0.4">
<path d="M329.5 18.09V212.7C329.51 213.78 328.69 215.2 327.75 215.74L82.58 357.29C82.31 357.45 82.14 357.46 82.08 357.46C81.84 357.46 81.83 356.95 81.83 356.85V161.08L87.54 157.78C88.43 157.27 88.99 155.52 90.25 151.02C90.82 149 91.67 145.96 92.13 145.36L145.5 114.55C145.96 115.07 146.74 116.43 147.22 117.29C148.66 119.83 149.47 121.15 150.63 121.15C150.86 121.15 151.1 121.09 151.3 120.97L329.5 18.09ZM330.5 16.36L150.79 120.11C150.74 120.14 150.68 120.16 150.62 120.16C149.36 120.16 146.8 113.43 145.53 113.43C145.47 113.43 145.41 113.44 145.36 113.48L91.55 144.55C90.3 145.27 88.28 156.21 87.04 156.93L80.83 160.51V356.85C80.83 357.87 81.34 358.46 82.08 358.46C82.38 358.46 82.72 358.36 83.08 358.15L328.25 216.61C329.5 215.89 330.51 214.14 330.51 212.7V31.03L330.5 16.36V16.36Z" fill="#14475F"/>
</g>
<path d="M80.83 175.18V215.55L330.5 71.42V31.03L80.83 175.18Z" fill="#14475F"/>
<path d="M330.5 16.36V31.03L80.83 175.18V160.51L85.47 157.82C86.71 157.1 87.13 156.01 87.72 153.91L89.29 148.45C89.79 146.55 90.3 145.26 91.55 144.54L145.36 113.47C146.61 112.75 147.59 112.67 148.54 114.24L150.47 117.74C151.18 118.96 151.53 119.68 152.77 118.96L330.5 16.36Z" fill="#F0F0F0"/>
<path d="M319.92 11.87C321.49 10.96 322.76 11.7 322.76 13.51C322.76 15.32 321.49 17.52 319.92 18.43C318.35 19.33 317.08 18.6 317.08 16.79C317.08 14.98 318.35 12.78 319.92 11.87Z" fill="#14475F"/>
<path d="M309.71 17.76C311.28 16.85 312.55 17.59 312.55 19.4C312.55 21.21 311.28 23.41 309.71 24.32C308.14 25.22 306.87 24.49 306.87 22.68C306.87 20.87 308.14 18.67 309.71 17.76V17.76Z" fill="#14475F"/>
<path d="M299.49 23.65C301.06 22.74 302.33 23.48 302.33 25.29C302.33 27.1 301.06 29.3 299.49 30.21C297.92 31.12 296.65 30.38 296.65 28.57C296.65 26.76 297.92 24.56 299.49 23.65Z" fill="#14475F"/>
<path opacity="0.5" d="M91.17 161.56L87.63 163.6L88.98 161C89.1 160.77 89.11 160.49 89.01 160.37C88.91 160.25 88.73 160.33 88.61 160.56L86.69 164.26C86.69 164.26 86.69 164.26 86.69 164.27C86.67 164.31 86.65 164.36 86.64 164.41C86.64 164.43 86.63 164.44 86.62 164.46C86.6 164.52 86.6 164.59 86.6 164.65C86.6 164.71 86.6 164.77 86.62 164.81C86.62 164.82 86.63 164.83 86.64 164.84C86.65 164.87 86.67 164.9 86.69 164.92L88.61 166.4C88.66 166.44 88.73 166.44 88.8 166.4C88.88 166.35 88.96 166.26 89.01 166.13C89.11 165.89 89.1 165.62 88.98 165.53L87.63 164.49L91.17 162.45C91.33 162.36 91.45 162.09 91.45 161.85C91.45 161.61 91.32 161.49 91.17 161.58V161.56Z" fill="#455A64"/>
<path opacity="0.5" d="M94.13 159.86L97.67 157.82L96.32 156.78C96.2 156.69 96.19 156.42 96.29 156.18C96.39 155.94 96.57 155.82 96.69 155.91L98.61 157.39C98.63 157.41 98.65 157.44 98.66 157.47C98.66 157.47 98.67 157.49 98.68 157.5C98.7 157.55 98.7 157.6 98.7 157.66C98.7 157.72 98.7 157.79 98.68 157.85C98.68 157.87 98.67 157.88 98.66 157.89C98.65 157.94 98.63 157.98 98.61 158.03C98.61 158.03 98.61 158.03 98.61 158.04L96.69 161.74C96.64 161.84 96.57 161.92 96.5 161.96C96.42 162.01 96.34 162 96.29 161.93C96.19 161.81 96.2 161.52 96.32 161.3L97.67 158.7L94.13 160.74C93.97 160.83 93.85 160.71 93.85 160.47C93.85 160.23 93.98 159.96 94.13 159.87V159.86Z" fill="#455A64"/>
<path opacity="0.5" d="M105.75 149.66C105.73 149.45 105.54 149.47 105.45 149.71L104.96 150.9C104.13 150.81 103.13 151.62 102.45 153.05C101.57 154.91 101.57 157.1 102.45 157.95C102.89 158.37 103.46 158.38 104.04 158.04C104.62 157.71 105.19 157.04 105.63 156.11C105.74 155.87 105.74 155.6 105.63 155.49C105.52 155.38 105.34 155.49 105.23 155.72C104.58 157.1 103.51 157.72 102.85 157.09C102.2 156.46 102.2 154.82 102.85 153.43C103.32 152.44 103.99 151.86 104.57 151.82L104.2 152.71C104.11 152.94 104.2 153.16 104.34 153.06L105.78 152.12C105.88 152.05 105.96 151.87 105.94 151.72L105.73 149.65L105.75 149.66Z" fill="#455A64"/>
<path opacity="0.5" d="M143.81 120.17L145.1 117.44C145.25 117.12 145.25 116.74 145.1 116.59C144.95 116.44 144.7 116.59 144.55 116.91L143.26 119.64L141.97 118.4C141.82 118.25 141.57 118.4 141.42 118.72C141.27 119.04 141.27 119.42 141.42 119.57L142.71 120.81L141.42 123.54C141.27 123.86 141.27 124.24 141.42 124.39C141.5 124.46 141.6 124.46 141.7 124.41C141.8 124.35 141.9 124.24 141.98 124.07L143.27 121.34L144.56 122.58C144.64 122.65 144.74 122.65 144.84 122.6C144.94 122.54 145.04 122.43 145.12 122.26C145.27 121.94 145.27 121.56 145.12 121.41L143.83 120.17H143.81Z" fill="#455A64"/>
<path d="M110.45 153.02V148.46C110.45 147.02 111.46 145.27 112.71 144.55L315.55 27.49C316.8 26.77 317.81 27.35 317.81 28.79V33.35C317.81 34.79 316.8 36.54 315.55 37.26L112.7 154.32C111.45 155.04 110.44 154.46 110.44 153.02H110.45Z" fill="white"/>
<path d="M312.48 37.52C312.42 37.52 312.36 37.51 312.31 37.49C312.15 37.42 311.99 37.23 312.03 36.91L312.26 35.02C312.26 35.02 312.26 35.01 312.26 35L311.35 34.34C311.22 34.25 311.15 34.1 311.15 33.91C311.15 33.64 311.28 33.35 311.49 33.2L312.81 32.18C312.81 32.18 312.88 32.1 312.9 32.03L313.49 30.09C313.59 29.77 313.82 29.54 314.08 29.53C314.26 29.51 314.43 29.62 314.51 29.79L315.04 30.93L316.24 30.47C316.42 30.4 316.61 30.44 316.73 30.58C316.9 30.77 316.9 31.09 316.75 31.39L315.79 33.19C315.75 33.26 315.74 33.32 315.75 33.36L315.98 34.99C316.02 35.28 315.88 35.56 315.72 35.72C315.59 35.85 315.43 35.92 315.27 35.9L314.09 35.75L312.94 37.29C312.79 37.48 312.63 37.54 312.49 37.54L312.48 37.52ZM311.74 33.89L312.65 34.55C312.8 34.66 312.87 34.86 312.84 35.09L312.65 36.65L313.64 35.39C313.78 35.21 313.96 35.12 314.15 35.14L315.34 35.29C315.34 35.29 315.39 35.13 315.38 35.05L315.15 33.42C315.13 33.25 315.17 33.06 315.26 32.89L316.22 31.09L315.12 31.51C314.89 31.6 314.65 31.51 314.55 31.28L314.06 30.23C314.06 30.23 314.06 30.24 314.06 30.25L313.47 32.19C313.41 32.37 313.31 32.54 313.17 32.64L311.85 33.66C311.79 33.71 311.75 33.82 311.75 33.88L311.74 33.89Z" fill="#E0E0E0"/>
<g opacity="0.5">
<path d="M320.47 26.94C320.2 26.94 319.94 26.8 319.79 26.55C319.57 26.18 319.7 25.7 320.08 25.48L326.43 21.81C326.81 21.59 327.28 21.72 327.5 22.1C327.72 22.47 327.59 22.95 327.21 23.17L320.86 26.84C320.74 26.91 320.6 26.94 320.47 26.94V26.94Z" fill="#455A64"/>
<path d="M320.47 30.6C320.2 30.6 319.94 30.46 319.79 30.21C319.57 29.84 319.7 29.36 320.08 29.14L326.43 25.47C326.81 25.25 327.28 25.38 327.5 25.76C327.72 26.13 327.59 26.61 327.21 26.83L320.86 30.5C320.74 30.57 320.6 30.6 320.47 30.6Z" fill="#455A64"/>
<path d="M320.47 34.27C320.2 34.27 319.94 34.13 319.79 33.88C319.57 33.51 319.7 33.03 320.08 32.81L326.43 29.14C326.81 28.92 327.28 29.05 327.5 29.43C327.72 29.8 327.59 30.28 327.21 30.5L320.86 34.17C320.74 34.24 320.6 34.27 320.47 34.27Z" fill="#455A64"/>
</g>
<path d="M80.83 160.51V175.18L76.59 172.73V158.07L80.83 160.51Z" fill="#E0E0E0"/>
<path d="M252.33 105.268L251.555 105.715L250.272 98.3155L251.035 97.8749L256.801 102.686L256.026 103.133L251.235 99.0473L251.187 99.0749L252.33 105.268ZM251.239 102.717L254.363 100.914L254.742 101.57L251.618 103.373L251.239 102.717ZM257.752 102.137L254.227 96.0316L254.931 95.6254L256.232 97.8791L256.292 97.8447C256.297 97.7354 256.31 97.5927 256.331 97.4167C256.352 97.2376 256.421 97.0494 256.537 96.8522C256.655 96.6519 256.863 96.4656 257.161 96.2935C257.546 96.0709 257.942 95.9711 258.347 95.9941C258.753 96.017 259.14 96.1578 259.509 96.4163C259.878 96.6748 260.202 97.0445 260.48 97.5255C260.76 98.0104 260.92 98.4783 260.96 98.9293C260.999 99.3783 260.929 99.7845 260.75 100.148C260.569 100.509 260.288 100.8 259.906 101.021C259.612 101.19 259.348 101.278 259.115 101.282C258.881 101.285 258.68 101.251 258.512 101.181C258.343 101.109 258.209 101.046 258.109 100.993L258.026 101.041L258.432 101.744L257.752 102.137ZM257.122 99.4481C257.322 99.7939 257.548 100.07 257.802 100.275C258.055 100.479 258.322 100.6 258.603 100.636C258.883 100.671 259.163 100.607 259.446 100.444C259.74 100.274 259.94 100.055 260.048 99.786C260.156 99.5143 260.183 99.2176 260.13 98.8959C260.078 98.571 259.957 98.2457 259.769 97.9197C259.583 97.5978 259.366 97.3363 259.118 97.1353C258.87 96.9312 258.603 96.811 258.317 96.7747C258.032 96.7353 257.74 96.8016 257.442 96.9737C257.156 97.1389 256.958 97.3503 256.847 97.6078C256.734 97.8634 256.703 98.149 256.753 98.4647C256.802 98.7785 256.925 99.1063 257.122 99.4481ZM264.786 98.2031C264.373 98.4418 263.953 98.5528 263.527 98.5362C263.104 98.5184 262.702 98.3832 262.323 98.1304C261.946 97.8765 261.621 97.513 261.348 97.04C261.073 96.563 260.919 96.0968 260.886 95.6412C260.856 95.1845 260.939 94.7683 261.135 94.3925C261.334 94.0156 261.639 93.7078 262.053 93.4692C262.466 93.2305 262.885 93.1201 263.308 93.1378C263.734 93.1544 264.136 93.2907 264.514 93.5466C264.894 93.8014 265.222 94.1672 265.498 94.6442C265.771 95.1172 265.922 95.5811 265.951 96.0358C265.983 96.4894 265.899 96.9046 265.701 97.2815C265.504 97.6572 265.199 97.9644 264.786 98.2031ZM264.421 97.5711C264.735 97.3898 264.947 97.1602 265.057 96.8822C265.166 96.6041 265.194 96.3059 265.14 95.9873C265.086 95.6688 264.971 95.3564 264.794 95.0504C264.617 94.7443 264.404 94.4873 264.154 94.2792C263.904 94.0711 263.631 93.9441 263.334 93.8981C263.037 93.8522 262.732 93.9199 262.418 94.1012C262.104 94.2825 261.892 94.5131 261.784 94.7931C261.675 95.0731 261.648 95.3734 261.704 95.6939C261.759 96.0145 261.875 96.3278 262.052 96.6338C262.228 96.9399 262.441 97.196 262.69 97.4021C262.939 97.6082 263.211 97.7332 263.507 97.7771C263.802 97.8211 264.107 97.7524 264.421 97.5711ZM269.684 92.7516L268.122 90.0449L268.825 89.6387L271.469 94.2176L270.765 94.6237L270.318 93.8487L270.27 93.8762C270.297 94.1707 270.244 94.4648 270.112 94.7586C269.978 95.0504 269.738 95.2961 269.393 95.4957C269.106 95.661 268.816 95.7452 268.521 95.7485C268.225 95.7498 267.94 95.66 267.666 95.4791C267.391 95.2961 267.141 95.0099 266.916 94.6204L265.236 91.7109L265.939 91.3047L267.592 94.1665C267.785 94.5004 268.032 94.7128 268.333 94.8037C268.637 94.8934 268.935 94.8539 269.227 94.6852C269.402 94.5843 269.554 94.4369 269.683 94.243C269.814 94.048 269.888 93.8225 269.904 93.5666C269.923 93.3095 269.85 93.0378 269.684 92.7516ZM272.105 87.745L272.449 88.3412L270.076 89.7112L269.732 89.115L272.105 87.745ZM269.79 87.6187L270.494 87.2125L273.014 91.5768C273.128 91.7755 273.243 91.9079 273.358 91.974C273.474 92.037 273.587 92.059 273.698 92.04C273.81 92.0178 273.918 91.9769 274.021 91.9173C274.099 91.8725 274.16 91.8318 274.205 91.7952C274.249 91.7566 274.284 91.7257 274.31 91.7025L274.818 92.2519C274.781 92.2973 274.725 92.3536 274.65 92.4208C274.576 92.4901 274.473 92.5625 274.342 92.6383C274.143 92.753 273.924 92.8227 273.684 92.8474C273.445 92.871 273.213 92.8314 272.987 92.7288C272.763 92.6251 272.574 92.44 272.42 92.1737L269.79 87.6187ZM279.973 86.8117L278.41 84.1049L279.113 83.6987L281.757 88.2776L281.054 88.6838L280.606 87.9087L280.558 87.9362C280.585 88.2307 280.533 88.5248 280.4 88.8186C280.266 89.1104 280.027 89.3561 279.681 89.5557C279.395 89.721 279.104 89.8052 278.809 89.8085C278.513 89.8099 278.228 89.72 277.954 89.5391C277.679 89.3562 277.429 89.0699 277.204 88.6804L275.524 85.7709L276.228 85.3647L277.88 88.2265C278.073 88.5604 278.32 88.7728 278.622 88.8637C278.925 88.9534 279.223 88.9139 279.515 88.7453C279.69 88.6443 279.842 88.4969 279.971 88.303C280.102 88.108 280.176 87.8826 280.193 87.6266C280.211 87.3695 280.138 87.0978 279.973 86.8117ZM284.238 82.1076L283.709 82.6514C283.608 82.569 283.491 82.5005 283.356 82.4459C283.222 82.3881 283.07 82.3643 282.901 82.3745C282.732 82.3846 282.545 82.4488 282.34 82.567C282.06 82.7287 281.864 82.9282 281.752 83.1652C281.64 83.3991 281.641 83.6144 281.755 83.8112C281.856 83.9861 281.999 84.0875 282.185 84.1154C282.371 84.1433 282.618 84.113 282.928 84.0246L283.704 83.7991C284.17 83.6621 284.563 83.638 284.882 83.7268C285.2 83.8136 285.451 84.017 285.636 84.337C285.787 84.5993 285.847 84.8774 285.816 85.1713C285.786 85.4641 285.671 85.7475 285.472 86.0216C285.272 86.2958 284.995 86.5355 284.639 86.7409C284.172 87.0106 283.727 87.1324 283.304 87.1064C282.881 87.0804 282.516 86.8961 282.21 86.5536L282.781 86.0012C282.987 86.2109 283.214 86.3263 283.462 86.3474C283.712 86.3673 283.981 86.2941 284.269 86.1278C284.597 85.9384 284.817 85.7186 284.93 85.4682C285.043 85.2146 285.043 84.9895 284.929 84.7927C284.837 84.6337 284.705 84.5327 284.532 84.4896C284.357 84.4446 284.139 84.4618 283.878 84.5412L283.011 84.803C282.535 84.9457 282.138 84.9695 281.82 84.8744C281.504 84.7762 281.255 84.5691 281.072 84.2531C280.923 83.9948 280.864 83.7243 280.894 83.4418C280.926 83.1582 281.036 82.8869 281.223 82.6279C281.412 82.3677 281.667 82.1447 281.989 81.9588C282.442 81.6972 282.856 81.5912 283.229 81.6408C283.604 81.6892 283.94 81.8448 284.238 82.1076Z" fill="#455A64"/>
<path opacity="0.1" d="M91.66 225.07L160.71 185.2V297.77L91.46 337.52L91.66 225.07Z" fill="#14475F"/>
<path opacity="0.15" d="M175.93 178.48L259.23 130.39C260.9 129.42 262.26 130.16 262.26 132.03C262.26 133.9 260.91 136.21 259.24 137.18L175.92 185.82C174.25 186.79 172.9 186.02 172.9 184.08V183.73C172.9 181.8 174.26 179.45 175.93 178.48V178.48Z" fill="#14475F"/>
<path opacity="0.1" d="M175.06 193.06L312.9 113.48C314.1 112.79 315.07 113.28 315.06 114.58C315.06 115.88 314.09 117.49 312.89 118.18L175.05 197.76C173.85 198.45 172.88 197.96 172.88 196.66C172.88 195.36 173.85 193.76 175.05 193.06H175.06Z" fill="#14475F"/>
<path opacity="0.1" d="M175.06 202.47L312.9 122.89C314.1 122.2 315.07 122.69 315.06 123.99C315.06 125.29 314.09 126.9 312.89 127.59L175.05 207.17C173.85 207.86 172.88 207.37 172.88 206.07C172.88 204.77 173.85 203.17 175.05 202.47H175.06Z" fill="#14475F"/>
<path opacity="0.1" d="M175.06 211.89L312.9 132.31C314.1 131.62 315.07 132.11 315.06 133.41C315.06 134.71 314.09 136.31 312.89 137.01L175.05 216.59C173.85 217.28 172.88 216.79 172.88 215.49C172.88 214.19 173.85 212.59 175.05 211.89H175.06Z" fill="#14475F"/>
<path opacity="0.1" d="M175.06 221.31L312.9 141.73C314.1 141.04 315.07 141.53 315.06 142.83C315.06 144.13 314.09 145.74 312.89 146.43L175.05 226.01C173.85 226.7 172.88 226.21 172.88 224.91C172.88 223.61 173.85 222.01 175.05 221.31H175.06Z" fill="#14475F"/>
<path opacity="0.1" d="M175.06 230.72L271.23 174.75C272.43 174.06 273.39 174.55 273.39 175.85C273.39 177.15 272.42 178.75 271.22 179.45L175.05 235.42C173.85 236.11 172.88 235.62 172.88 234.32C172.88 233.02 173.85 231.42 175.05 230.72H175.06Z" fill="#14475F"/>
<path opacity="0.1" d="M175.06 249.56L312.9 169.98C314.1 169.29 315.07 169.78 315.06 171.08C315.06 172.38 314.09 173.99 312.89 174.68L175.05 254.26C173.85 254.95 172.88 254.46 172.88 253.16C172.88 251.86 173.85 250.26 175.05 249.56H175.06Z" fill="#14475F"/>
<path opacity="0.1" d="M175.06 258.97L312.9 179.39C314.1 178.7 315.07 179.19 315.06 180.49C315.06 181.79 314.09 183.4 312.89 184.09L175.05 263.67C173.85 264.36 172.88 263.87 172.88 262.57C172.88 261.27 173.85 259.67 175.05 258.97H175.06Z" fill="#14475F"/>
<path opacity="0.1" d="M175.06 268.39L312.9 188.81C314.1 188.12 315.07 188.61 315.06 189.91C315.06 191.21 314.09 192.81 312.89 193.51L175.05 273.09C173.85 273.78 172.88 273.29 172.88 271.99C172.88 270.69 173.85 269.09 175.05 268.39H175.06Z" fill="#14475F"/>
<path opacity="0.1" d="M175.06 277.81L225.7 248.25C226.9 247.56 227.86 248.05 227.86 249.35C227.86 250.65 226.89 252.25 225.69 252.95L175.05 282.51C173.85 283.2 172.88 282.71 172.88 281.41C172.88 280.11 173.85 278.51 175.05 277.81H175.06Z" fill="#14475F"/>
<path d="M359.26 223.76C366.59 199.98 373.72 184.31 366.45 179.46C359.68 180.71 356.65 184.06 355.21 192.98C353.7 202.34 350.57 215.37 348.74 222.9C347.28 228.91 344.43 236.46 341.99 241.06C341.56 241.87 340.83 242.49 339.99 242.82C337.73 243.7 336.65 244.86 334.81 246.17C333.37 247.2 332.31 247.32 332.37 247.75C332.45 248.31 333.11 249.31 334.63 249.14C335.4 249.06 336.46 248.66 337.78 248.13C337.78 248.13 336.45 251.71 333.83 253.89C330.29 256.85 330.82 259.82 336.52 260.16C338.56 260.28 343.3 258.42 347.68 250.95C348.94 248.8 350.41 245.27 351.59 242.34C354.66 234.69 357.79 228.51 359.25 223.75L359.26 223.76Z" fill="#914F4E"/>
<path d="M367.75 179.18C367.75 179.18 362.11 178.89 358.7 182.65C355.29 186.41 351.29 208.94 351.29 208.94C351.29 208.94 355.03 214.08 364.9 211.98L367.75 179.18Z" fill="#14475F"/>
<path opacity="0.3" d="M367.75 179.18C367.75 179.18 362.11 178.89 358.7 182.65C355.29 186.41 351.29 208.94 351.29 208.94C351.29 208.94 355.03 214.08 364.9 211.98L367.75 179.18Z" fill="black"/>
<path d="M394.13 338.94H386.56V352.44H394.13V338.94Z" fill="#914F4E"/>
<path d="M367.88 338.22L360.31 338.49L359.93 324.2L367.88 323.93V338.22Z" fill="#914F4E"/>
<path d="M395.2 222.05C395.2 229.58 394.09 290.18 394.09 290.18C394.27 292.35 396.22 296.34 395.79 304.66C395.22 315.97 394.45 345.68 394.45 345.68C394.45 345.68 390.77 347.92 386.02 345.85C386.02 345.85 378.86 304.7 377.5 293.5C376.32 283.72 374.31 250.8 374.31 250.8L370.21 289.08C370.21 289.08 371.61 294.91 371.15 301.61C370.8 306.79 368.36 333.78 368.36 333.78C368.36 333.78 364.8 336.3 359.62 334.48C359.62 334.48 355.31 293.83 355.23 289.08C355.13 283.66 357.75 221.96 357.75 221.96L395.21 222.04L395.2 222.05Z" fill="#37474F"/>
<path d="M386.56 348.55V347.42C385.84 347.75 384.15 354.44 381.15 357.29C378.76 359.56 375.5 362.18 374.68 364.71C373.82 367.34 379.22 368.79 381.45 368.38C384.04 367.9 388.54 366 389.66 364.24C390.79 362.48 391.32 359.88 392.23 358.59C393.15 357.3 395.26 355.86 395.76 354.36C396.03 353.54 395.71 351.74 395.33 350.22C394.98 348.83 394.6 347.29 394.14 347.42C394.14 347.59 394.14 348.28 394.14 348.28C393.59 348.91 392.07 349.54 390.35 349.61C389.24 349.65 386.55 349.43 386.56 348.55V348.55Z" fill="#263238"/>
<path d="M360.23 336.06C359.84 336.07 359.52 336.65 358.65 337.63C357.6 338.81 355.89 340.09 354.2 340.97C351.36 342.45 345.85 344.72 343.36 345.89C341.8 346.62 341.87 348.58 343.49 349.7C345.1 350.82 348.99 351.62 353.66 350.53C356.2 349.94 359.52 347.49 361.61 347.62C363.71 347.75 367.63 347.72 369.18 346.61C370.73 345.5 370.11 343.13 369.67 341.09C369.19 338.86 368.6 335.4 367.89 335.55V336.32C366.98 337.76 362.28 338.34 360.28 337.28L360.24 336.06H360.23Z" fill="#263238"/>
<path d="M374.31 250.81C374.31 250.81 368.26 249.03 363.77 244.51C363.77 244.51 365.8 248.48 371.85 252.17L370.56 286.35L374.31 250.8V250.81Z" fill="#263238"/>
<path d="M391.26 180.98C391.26 180.98 397.19 181.52 396.76 192.81L395.45 210.79L395.49 237.77C389.92 244.08 365.24 243.62 356.79 237.26C356.79 237.26 357.75 205.33 358.32 193.04C358.73 184.3 360.74 179.91 369.32 178.94L379.88 179.4L391.26 180.96V180.98Z" fill="#14475F"/>
<path opacity="0.3" d="M374.43 186.9L373.07 196.38L369.91 196.32L373.48 196.88L374.43 186.9Z" fill="black"/>
<path d="M382.33 155.54C382.33 162.02 377.28 167.28 371.06 167.28C364.84 167.28 360.07 162.02 359.79 155.54C359.29 144.07 364.84 143.8 371.06 143.8C377.28 143.8 382.33 149.06 382.33 155.54Z" fill="#263238"/>
<path d="M388.75 161.36C388.75 161.36 387.02 169.82 386.33 171.21C385.64 172.6 384.2 173 384.2 173L384.32 167.05L388.75 161.37V161.36Z" fill="#263238"/>
<path d="M386.58 149.24C386.58 149.24 387.82 148.93 389.14 150.99C390.27 152.75 390.53 156.72 388.75 161.36L385.49 161.75L386.58 149.24Z" fill="#263238"/>
<path d="M384.52 161.76C385.17 162.17 386.1 160.86 386.91 159.98C387.72 159.1 390.34 157.9 391.66 160.78C393 163.71 390.5 167.59 388.43 168.27C384.86 169.44 384.33 167.05 384.33 167.05L384.06 180.45C379.32 187.77 368.6 187.51 372.46 180.1V176.02C372.46 176.02 369.24 176.53 367.66 176.28C365.04 175.86 363.39 173.7 362.59 170.74C361.31 165.99 360.83 162.15 361.91 152.81C363.1 142.57 374.53 142.46 380.71 146.51C386.88 150.56 384.53 161.75 384.53 161.75L384.52 161.76Z" fill="#914F4E"/>
<path d="M384.11 177.44C384.11 177.44 382.44 181.04 379.47 183.25C376.74 185.28 373.86 185.63 373.86 185.63C373.86 185.63 376.64 187.47 377.82 190.07C379 192.68 387.33 185.5 387.26 180.42C387.26 180.42 385.95 175.31 384.16 174.98L384.11 177.43V177.44Z" fill="#263238"/>
<path d="M373.87 185.64C373.87 185.64 371.3 184.36 372.45 180.09V176.01L371.33 176.16C370.45 176.95 369.07 178.81 368.62 180.85C368.36 182.02 367.73 187.93 368.86 189.11C369.89 190.18 371.56 185.95 373.86 185.63L373.87 185.64Z" fill="#263238"/>
<path d="M380.14 150.59C380.44 150.55 380.75 150.53 381.02 150.65C381.99 151.09 382.2 154.1 382.37 154.97C382.94 157.9 383.42 162.87 384.52 162.9C384.85 162.9 386.1 160.75 386.91 159.98C388.04 158.91 386.58 149.25 386.58 149.25C386.58 149.25 387.66 146.85 385.49 144.36C383.46 142.04 380.28 141.52 377.37 141.36C373.94 141.17 370.46 141.43 367.08 140.68C366.01 140.44 364.95 140.1 363.86 139.99C363.76 139.98 363.65 139.97 363.57 140.04C363.46 140.13 363.48 140.3 363.5 140.44C363.71 141.45 364.07 142.43 364.57 143.34C362.56 143.18 360.57 142.79 358.64 142.17C358.53 142.13 358.41 142.1 358.3 142.13C358.07 142.2 358.03 142.5 358.05 142.74C358.19 145.17 359.34 148.82 361.31 150.25C362.85 151.37 365.26 152.05 367.16 152.1C372.46 152.24 375.75 151.12 380.14 150.6V150.59Z" fill="#263238"/>
<path d="M386.58 149.75L390.53 147.54C389.97 146.36 388.63 145.9 387.54 146.51C386.45 147.12 386.02 148.57 386.58 149.75Z" fill="#263238"/>
<path d="M372.46 176.01C372.46 176.01 378.32 174.78 380.36 173.65C381.73 172.89 382.86 171.58 383.19 170.73C383.19 170.73 382.81 172.54 381.58 174.17C380.08 176.16 372.46 177.63 372.46 177.63V176.01V176.01Z" fill="#783736"/>
<path d="M373.87 160.23C373.87 160.93 374.4 161.5 375.04 161.5C375.69 161.5 376.21 160.93 376.21 160.23C376.21 159.53 375.68 158.96 375.04 158.96C374.39 158.96 373.87 159.53 373.87 160.23Z" fill="#263238"/>
<path d="M375.75 155.17L378.26 156.61C378.63 155.86 378.37 154.93 377.68 154.53C376.99 154.13 376.12 154.42 375.75 155.17V155.17Z" fill="#263238"/>
<path d="M372.99 168.67L370.31 169.72C370.58 170.52 371.39 170.93 372.13 170.64C372.87 170.35 373.25 169.47 372.99 168.67Z" fill="#783736"/>
<path d="M363.1 156.25L365.39 154.41C364.92 153.73 364.03 153.59 363.4 154.09C362.77 154.6 362.63 155.56 363.1 156.24V156.25Z" fill="#263238"/>
<path d="M364.11 159.88C364.11 160.58 364.64 161.15 365.28 161.15C365.93 161.15 366.45 160.58 366.45 159.88C366.45 159.18 365.92 158.61 365.28 158.61C364.63 158.61 364.11 159.18 364.11 159.88Z" fill="#263238"/>
<path d="M370.39 158.9L370.25 166.31L366.04 165.35L370.39 158.9Z" fill="#783736"/>
<path d="M402.78 166.35C404.47 164.11 407.89 169.08 409.47 172.51C411.05 175.94 411.07 177.88 409.78 179.24C408.49 180.6 406.03 179.78 403.58 176.53C401.13 173.28 401.81 168 402.78 166.35V166.35Z" fill="#14475F"/>
<path opacity="0.5" d="M402.78 166.35C404.47 164.11 407.89 169.08 409.47 172.51C411.05 175.94 411.07 177.88 409.78 179.24C408.49 180.6 406.03 179.78 403.58 176.53C401.13 173.28 401.81 168 402.78 166.35V166.35Z" fill="black"/>
<path d="M414.67 167.02C408.71 181.06 400.32 188.91 396.57 197.92C391.65 197.59 387.83 185.72 391.49 180.65C391.49 180.65 405.87 165.08 407.18 158.96C408.34 153.53 409.89 144.57 409.75 139.98C409.73 139.21 409.39 138.51 408.87 137.94C407.36 136.32 407.36 135.01 406.39 133.22C405.63 131.82 404.81 131.3 405.04 130.98C405.34 130.58 406.3 130.05 407.49 130.8C408.09 131.18 408.48 131.62 409.35 132.58C409.35 132.58 409.74 130.11 408.5 127.32C406.83 123.54 407.23 121.62 412.33 122.96C415.52 123.8 417.53 126.46 418.01 134.14C418.15 136.35 418.33 140.93 418.07 143.73C417.52 149.64 417.16 155.8 416.43 160.69C416.11 162.86 415.54 164.99 414.68 167.01L414.67 167.02Z" fill="#914F4E"/>
<path d="M390.03 180.81L402.72 166.31C402.72 166.31 401.21 169.85 404.51 174.99C407.81 180.13 409.77 179.25 409.77 179.25C409.77 179.25 402.28 190.18 400.27 193.84C398.26 197.5 396.18 200.58 396.18 200.58C396.18 200.58 395.68 201.87 393.81 201.87C391.94 201.87 387.01 193.61 390.02 180.81H390.03Z" fill="#14475F"/>
<path opacity="0.3" d="M390.03 180.81L402.72 166.31C402.72 166.31 401.21 169.85 404.51 174.99C407.81 180.13 409.77 179.25 409.77 179.25C409.77 179.25 402.28 190.18 400.27 193.84C398.26 197.5 396.18 200.58 396.18 200.58C396.18 200.58 395.68 201.87 393.81 201.87C391.94 201.87 387.01 193.61 390.02 180.81H390.03Z" fill="black"/>
<path d="M287.13 213.4L293.11 221.35L286.69 228.71L278.42 219.04L287.13 213.4Z" fill="#783736"/>
<path d="M267.59 195.32C272.8 195.56 275.28 196.37 278.01 199.58C280.67 202.72 294.38 222.52 294.38 222.52C294.38 222.52 291.97 229.28 286.69 228.7L277.1 218.81L267.59 195.31V195.32Z" fill="#455A64"/>
<path d="M242.03 360.45C241.86 361.71 241.5 363.17 241.43 366.72C241.36 370.53 240.66 371.88 240.57 375C240.46 378.57 241.08 379.91 242.53 381.91C243.98 383.91 247.78 385.74 249.39 382.35C251.02 378.92 250.79 376.74 250.28 373.23C249.75 369.61 249.68 367.61 249.37 364.85C249.1 362.42 248.77 360.57 248.77 360.57L242.03 360.45Z" fill="#263238"/>
<path d="M252.84 330.51L240.3 330.28C240.49 338.65 241.82 352.59 242.03 360.45C242.07 361.93 241.99 371.94 242.55 374.98C243.39 379.55 248.81 378.93 249.1 376.2C249.39 373.46 248.75 361.77 248.77 360.57C248.72 355.53 251.08 342.38 252.32 333.34C252.38 332.9 252.78 330.94 252.84 330.51V330.51Z" fill="#914F4E"/>
<path d="M271.27 353.93C271.27 353.93 270.62 353.97 270.52 354.5C270.4 355.13 270.37 356.12 270.11 357.15C269.75 358.58 269.45 360.95 269.66 362.12C269.88 363.29 272.55 365.03 274.37 365.34C276.2 365.65 278.77 367.45 280.2 368.8C281.95 370.45 285.73 372.01 288.31 371.99C291.36 371.97 293.48 370.98 294.49 369.34C295.54 367.64 293.58 367.51 290.09 365.25C289.3 364.74 288.4 364.16 287.39 363.5C281.87 359.9 279.85 357.96 278.29 354.36L271.27 353.94V353.93Z" fill="#263238"/>
<path d="M278.34 351.97C278.25 349.38 279.58 330.28 279.58 330.28L268.79 331.49C271.34 346.72 271.55 351.9 271.26 354.12C271.24 354.18 271.19 354.39 271.19 354.76C271.2 357.72 274.54 359.31 277.14 361.29C278.17 362.07 280.81 364.47 283.91 365.52C285.91 366.2 289.62 366.46 290.1 365.24C286.93 362.82 282.62 359.66 280.1 356.89C278.9 355.57 278.44 354.56 278.35 351.96L278.34 351.97Z" fill="#914F4E"/>
<path d="M243.2 243.91C237.31 256.77 243.41 302.05 243.41 302.05C243.23 304.14 240.85 308.24 239.96 317.42C238.91 328.27 241.9 357.31 241.9 357.31C241.9 357.31 244.77 359.45 248.92 357.46C248.92 357.46 256.51 314.78 257.88 304C259.07 294.59 261.35 273.89 261.35 273.89L267.83 303.95C267.83 303.95 266.17 309.22 265.78 313.24C265.17 319.59 271.34 351.43 271.34 351.43C271.34 351.43 274.23 352.96 278.34 351.29C278.34 351.29 281.08 310.15 281.65 302.51C282.61 289.67 279.2 249.62 276.85 242.02L243.21 243.9L243.2 243.91Z" fill="#14475F"/>
<path opacity="0.5" d="M243.2 243.91C237.31 256.77 243.41 302.05 243.41 302.05C243.23 304.14 240.85 308.24 239.96 317.42C238.91 328.27 241.9 357.31 241.9 357.31C241.9 357.31 244.77 359.45 248.92 357.46C248.92 357.46 256.51 314.78 257.88 304C259.07 294.59 261.35 273.89 261.35 273.89L267.83 303.95C267.83 303.95 266.17 309.22 265.78 313.24C265.17 319.59 271.34 351.43 271.34 351.43C271.34 351.43 274.23 352.96 278.34 351.29C278.34 351.29 281.08 310.15 281.65 302.51C282.61 289.67 279.2 249.62 276.85 242.02L243.21 243.9L243.2 243.91Z" fill="black"/>
<path opacity="0.2" d="M261.35 273.9L263.26 261.96C263.26 261.96 271.34 260.29 275.01 256.84C275.01 256.84 271.16 261.62 265.45 263.19L263.3 272.38L267.05 300.22L261.34 273.9H261.35Z" fill="black"/>
<path d="M246.22 203.98L254.23 206.07V189.14C249.81 187.99 246.22 190.54 246.22 194.84V203.98V203.98Z" fill="#14475F"/>
<path opacity="0.6" d="M246.22 203.98L254.23 206.07V189.14C249.81 187.99 246.22 190.54 246.22 194.84V203.98V203.98Z" fill="black"/>
<path d="M262.06 191.55L259.19 191.48C250.43 191.28 243.49 183.72 243.68 174.6C243.63 164.66 251.37 156.56 260.92 156.51C270.46 156.46 278.24 164.47 278.29 174.41L278.27 175.44C278.05 184.54 270.81 191.74 262.07 191.54L262.06 191.55Z" fill="#14475F"/>
<path opacity="0.6" d="M262.06 191.55L259.19 191.48C250.43 191.28 243.49 183.72 243.68 174.6C243.63 164.66 251.37 156.56 260.92 156.51C270.46 156.46 278.24 164.47 278.29 174.41L278.27 175.44C278.05 184.54 270.81 191.74 262.07 191.54L262.06 191.55Z" fill="black"/>
<path d="M248.65 160.68C248.33 159.44 247.09 158.74 245.88 159.12L246.65 162.08C246.49 161.88 246.3 161.71 246.07 161.58C244.99 160.95 243.65 161.38 243.06 162.54L246.96 164.84C247.16 164.43 247.24 163.99 247.22 163.56C248.32 163.11 248.96 161.87 248.65 160.68V160.68Z" fill="#14475F"/>
<path opacity="0.6" d="M248.65 160.68C248.33 159.44 247.09 158.74 245.88 159.12L246.65 162.08C246.49 161.88 246.3 161.71 246.07 161.58C244.99 160.95 243.65 161.38 243.06 162.54L246.96 164.84C247.16 164.43 247.24 163.99 247.22 163.56C248.32 163.11 248.96 161.87 248.65 160.68V160.68Z" fill="black"/>
<path d="M253.38 196.01C253.38 196.01 247.59 196.83 245.37 197.55C248.47 205.15 243.61 216.9 243.61 216.9L248.2 231.03C245.04 237.52 242.42 240.74 241.35 246.02C244.27 251.72 264.88 257.16 278.3 246.77C278.3 246.77 277.87 232.34 276.16 223.93C280.55 215.36 279.84 212.84 278.94 209.85C276.85 202.9 272.63 200.22 267.6 195.33L264.57 195.01L253.39 196.02L253.38 196.01Z" fill="#37474F"/>
<path d="M248.73 236.69C251.22 234.14 256.5 233.41 256.5 233.41L251.66 230.65L246.23 217.55C250 210.31 249.49 203.14 249.49 203.14L246.38 202.39C246.76 209.32 243.62 216.91 243.62 216.91L248.21 231.04C245.05 237.53 242.43 240.75 241.36 246.03C243.36 249.93 253.65 253.71 264.24 252.38C250.04 251.43 246.35 239.17 248.74 236.71L248.73 236.69Z" fill="#263238"/>
<path d="M263.07 252.48C263.26 252.46 263.46 252.44 263.65 252.42C263.49 252.42 263.3 252.44 263.07 252.48Z" fill="#E6E6E6"/>
<path d="M271.85 165.39C273.57 166.97 275.72 170.4 275.55 180.43C275.4 188.93 272.77 191.04 271.45 191.65C270.13 192.26 267.56 191.91 265.07 191.49L265.04 195.01C265.04 195.01 268.32 198.65 268.12 200.99C267.92 203.33 263.45 204.3 260.22 202.03C256.99 199.76 254.24 195.98 254.24 195.98L254.21 185.29C254.21 185.29 252.75 186.78 250.26 184.53C248.2 182.67 247.49 179.53 249.08 177.83C250.67 176.13 253.63 176.58 254.77 178.98C254.77 178.98 260.45 178.51 265.69 175.77C270.33 173.34 272.19 168.95 271.86 165.39H271.85Z" fill="#914F4E"/>
<path d="M265.06 178.48C265.09 179.09 264.66 179.61 264.1 179.64C263.53 179.67 263.05 179.2 263.02 178.59C262.99 177.98 263.42 177.46 263.99 177.43C264.56 177.4 265.04 177.87 265.07 178.48H265.06Z" fill="#263238"/>
<path d="M265.45 185.6L268.12 186.47C267.9 187.27 267.13 187.72 266.39 187.48C265.65 187.24 265.23 186.4 265.45 185.6Z" fill="#783736"/>
<path d="M274.68 174.64L272.26 173.81C272.44 173.11 273.13 172.73 273.8 172.95C274.47 173.18 274.86 173.93 274.68 174.63V174.64Z" fill="#263238"/>
<path d="M254.77 177.97L254.74 181.56C255.7 181.61 256.48 180.84 256.49 179.84C256.49 178.85 255.73 178.01 254.77 177.96V177.97Z" fill="#14475F"/>
<path opacity="0.6" d="M254.77 177.97L254.74 181.56C255.7 181.61 256.48 180.84 256.49 179.84C256.49 178.85 255.73 178.01 254.77 177.96V177.97Z" fill="black"/>
<path d="M273.84 178.13C273.87 178.74 273.44 179.26 272.87 179.29C272.3 179.32 271.82 178.85 271.79 178.24C271.76 177.63 272.19 177.11 272.75 177.08C273.32 177.05 273.8 177.52 273.83 178.13H273.84Z" fill="#263238"/>
<path d="M268.14 176.67L268.12 183.63L271.36 182.57L268.14 176.67Z" fill="#783736"/>
<path d="M265.07 191.48C262.45 191.14 257.04 189.55 256.19 187.33C256.19 187.33 256.48 188.73 258.1 190.16C259.72 191.59 265.06 193.2 265.06 193.2V191.49L265.07 191.48Z" fill="#783736"/>
<path d="M233.07 231.58C233.07 231.58 239.49 240.7 240.59 241.89C241.69 243.08 242.44 242.69 243.64 242.16C244.83 241.63 247.1 240.95 248.1 240.7C250.06 240.21 250.48 242.02 248.54 243.32C247.14 244.25 245.53 244.66 246.2 245.43C246.87 246.2 248.95 247.54 250.88 248.3C255.62 250.17 255.25 251.11 254.38 252.64C253.62 253.98 251.41 256.86 242.94 253.45C239.44 252.05 234.52 248.06 232.2 245.49C228.85 241.78 223.63 235.13 223.63 235.13L233.08 231.59L233.07 231.58Z" fill="#914F4E"/>
<path d="M246.61 197.22C244.29 197.38 239.92 197.93 234.44 207.03C229.63 215.01 222.19 225.84 220.8 229.71C220.24 231.27 222.42 234.53 225.23 237.86C229.07 237.69 232.56 235.04 234.37 232.92C233.53 230.98 232.6 229.71 232.6 229.71L243.84 216.89C243.84 216.89 248.11 212.98 249 207.86C249.96 202.38 249.66 198.03 246.61 197.22V197.22Z" fill="#455A64"/>
<path d="M309.54 214.48L281.83 221.78L274.2 253.14L300.55 245.49L309.54 214.48Z" fill="#14475F"/>
<path opacity="0.25" d="M309.54 214.48L281.83 221.78L274.2 253.14L300.55 245.49L309.54 214.48Z" fill="black"/>
<g opacity="0.1">
<path d="M297.02 236.69C297.28 237.39 298.98 239.94 302.2 239.79L302.4 239.1L297.02 236.7V236.69Z" fill="black"/>
</g>
<g opacity="0.1">
<path d="M301.19 219.46C301.19 219.46 301.29 218.99 301.42 218.4C301.55 217.82 299.92 217.79 297.79 218.34L293.71 219.4C291.58 219.95 289.75 220.87 289.62 221.46L289.39 222.52L301.2 219.46H301.19Z" fill="black"/>
</g>
<path d="M303.32 215.49C303.4 215.13 302.74 215.03 301.85 215.28L300.23 215.73C300.23 215.73 300.71 213.44 297.12 214.24C293.53 215.04 292.75 217.63 292.75 217.63C292.75 217.63 291.98 217.85 291.02 218.12C290.06 218.39 289.2 218.9 289.09 219.27L288.89 219.93L303.17 216.17C303.17 216.17 303.24 215.86 303.32 215.49V215.49Z" fill="#37474F"/>
<path d="M301.35 216.62C300.04 216.94 299.5 217.11 299.3 218.01C299.08 219.04 298.99 219.79 298.99 219.79L292.67 221.46C292.67 221.46 292.98 220.16 293.07 219.65C293.17 219.14 292.95 218.84 291.95 219.1L291.86 218.7L301.76 216.18L301.34 216.62H301.35Z" fill="#37474F"/>
<path d="M301.57 219.56C301.57 219.56 301.67 219.09 301.8 218.5C301.93 217.92 300.3 217.89 298.17 218.44L294.09 219.5C291.96 220.05 290.13 220.97 290 221.56L289.77 222.62L301.58 219.56H301.57Z" fill="#37474F"/>
<path d="M306.62 224.55C306.62 224.55 305.58 228.1 305.35 228.94C305.11 229.78 302.01 231.3 299.97 231.86C297.93 232.42 295.7 233.08 296.67 235.93C297.56 238.56 300.91 239.16 302.62 239.08C304.33 239.01 306.66 237.37 307.58 234.75C308.75 231.4 308.12 227.81 308.59 225.85C309.06 223.89 307.65 223.38 306.62 224.54V224.55Z" fill="#914F4E"/>
<path d="M201.65 225.38C197.85 221.55 196.49 223.04 196.01 227.24C195.66 230.34 194.74 232.37 194.74 232.37C194.47 231.07 194.36 230.48 194.03 229.84C193.37 228.56 192.25 228.53 191.77 228.73C191.4 228.89 191.86 229.78 191.8 231.4C191.73 233.48 191.05 234.64 191.54 236.85C191.72 237.68 191.57 238.54 191.17 239.29C189.12 243.08 182.58 250.11 177.97 255.16C173.89 251.48 164.78 243.24 160.41 239.31C154.42 233.91 152.47 231.48 146.68 231.88C146.68 231.88 148.92 232.56 151.61 234.83C154.29 237.1 153.65 250.09 153.65 250.09C153.65 250.09 173.57 264.38 175.62 265.74C175.92 265.94 176.23 266.12 176.53 266.28C178.53 267.34 181.01 266.84 182.5 265.13C186.75 260.27 192.95 250.7 196.53 245.73C198.21 243.4 199.84 240.21 200.86 238.19C204.42 231.17 204.03 227.78 201.65 225.38V225.38Z" fill="#914F4E"/>
<path d="M147.26 231.52C147.26 231.52 151.3 230.46 155.27 233.48C158.69 236.07 173.23 249.45 173.23 249.45C173.23 249.45 173.63 256.53 166.23 260.76L148.35 248.15L147.25 231.51L147.26 231.52Z" fill="#14475F"/>
<path opacity="0.3" d="M147.26 231.52C147.26 231.52 151.3 230.46 155.27 233.48C158.69 236.07 173.23 249.45 173.23 249.45C173.23 249.45 173.63 256.53 166.23 260.76L148.35 248.15L147.25 231.51L147.26 231.52Z" fill="black"/>
<path d="M130.02 391.51H122.45V405.01H130.02V391.51Z" fill="#914F4E"/>
<path d="M148.7 390.79L156.27 391.06L156.65 376.78L148.7 376.5V390.79Z" fill="#914F4E"/>
<path d="M121.38 274.63C121.38 282.16 122.49 342.76 122.49 342.76C122.31 344.93 120.36 348.92 120.79 357.24C121.36 368.55 122.13 398.26 122.13 398.26C122.13 398.26 125.81 400.5 130.56 398.43C130.56 398.43 137.72 357.28 139.08 346.08C140.26 336.3 142.27 303.38 142.27 303.38L146.37 341.66C146.37 341.66 144.97 347.49 145.43 354.19C145.78 359.37 148.22 386.36 148.22 386.36C148.22 386.36 151.78 388.88 156.96 387.06C156.96 387.06 161.27 346.41 161.35 341.66C161.45 336.24 158.83 274.54 158.83 274.54L121.37 274.62L121.38 274.63Z" fill="#37474F"/>
<path d="M130.02 401.12V399.99C130.74 400.32 132.43 407.01 135.43 409.86C137.82 412.13 141.08 414.75 141.9 417.28C142.76 419.91 137.36 421.36 135.13 420.95C132.54 420.47 128.04 418.57 126.92 416.81C125.79 415.05 125.26 412.45 124.35 411.16C123.43 409.87 121.32 408.43 120.82 406.93C120.55 406.11 120.87 404.31 121.25 402.79C121.6 401.4 121.98 399.86 122.44 399.99C122.44 400.16 122.44 400.85 122.44 400.85C122.99 401.48 124.51 402.11 126.23 402.18C127.34 402.22 130.03 402 130.02 401.12V401.12Z" fill="#263238"/>
<path d="M156.35 388.63C156.74 388.64 157.06 389.22 157.93 390.2C158.98 391.38 160.69 392.66 162.38 393.54C165.22 395.02 170.73 397.29 173.22 398.46C174.78 399.19 174.71 401.15 173.09 402.27C171.48 403.39 167.59 404.19 162.92 403.1C160.38 402.51 157.06 400.06 154.97 400.19C152.87 400.32 148.95 400.29 147.4 399.18C145.85 398.07 146.47 395.7 146.91 393.66C147.39 391.43 147.98 387.97 148.69 388.12V388.89C149.6 390.33 154.3 390.91 156.3 389.85L156.34 388.63H156.35Z" fill="#263238"/>
<path d="M142.27 303.38C142.27 303.38 148.32 301.6 152.81 297.08C152.81 297.08 150.78 301.05 144.73 304.74L146.02 338.92L142.27 303.37V303.38Z" fill="#263238"/>
<path d="M125.32 233.55C125.32 233.55 119.39 234.09 119.82 245.38L121.13 263.36L121.01 290.34C126.58 296.65 151.26 296.19 159.71 289.83C159.71 289.83 158.84 257.9 158.27 245.61C157.86 236.87 155.85 232.48 147.27 231.51L136.71 231.97L125.33 233.53L125.32 233.55Z" fill="#14475F"/>
<path opacity="0.3" d="M142.15 239.47L143.51 248.95L146.67 248.89L143.1 249.46L142.15 239.47Z" fill="black"/>
<path d="M106.53 272.31C109.6 247.61 116.67 235.34 125.28 233.89L124.67 249.69C124.67 249.69 118.88 262.88 116.47 275.84C115.34 281.92 114.03 292.49 114.37 297.69C114.43 298.61 114.84 299.47 115.47 300.11C117.17 301.84 117.68 303.34 118.82 305.3C119.71 306.83 120.63 307.37 120.4 307.74C120.09 308.21 119.09 308.86 117.76 308.08C117.09 307.69 116.29 306.89 115.3 305.86C115.3 305.86 115.05 309.67 116.54 312.74C118.56 316.89 118.22 319.09 112.64 317.86C109.14 317.09 106.62 313.4 105.68 304.79C105.41 302.31 105.38 298.3 105.51 295.14C105.85 286.91 105.92 277.26 106.53 272.32V272.31Z" fill="#914F4E"/>
<path d="M125.77 233.49C121.3 233.47 117.22 234.26 113.97 240.51C110.86 246.5 108.46 259.2 107.26 263.35C107.26 263.35 113.79 267.21 119.8 267.12L124.03 252.44C124.03 252.44 126.89 245.59 125.77 233.5V233.49Z" fill="#14475F"/>
<path opacity="0.3" d="M125.77 233.49C121.3 233.47 117.22 234.26 113.97 240.51C110.86 246.5 108.46 259.2 107.26 263.35C107.26 263.35 113.79 267.21 119.8 267.12L124.03 252.44C124.03 252.44 126.89 245.59 125.77 233.5V233.49Z" fill="black"/>
<path d="M135 208.06C135 214.54 140.05 219.8 146.27 219.8C152.49 219.8 157.54 214.54 157.54 208.06C157.54 201.58 152.49 196.32 146.27 196.32C140.05 196.32 135 201.58 135 208.06Z" fill="#263238"/>
<path d="M127.83 213.94C127.83 213.94 129.56 222.4 130.25 223.79C130.94 225.18 132.38 225.58 132.38 225.58L132.26 219.63L127.83 213.95V213.94Z" fill="#263238"/>
<path d="M130 201.82C130 201.82 128.76 201.51 127.44 203.57C126.31 205.33 126.05 209.3 127.83 213.94L131.09 214.33L130 201.82Z" fill="#263238"/>
<path d="M132.06 214.33C131.41 214.74 130.48 213.43 129.67 212.55C128.86 211.67 126.24 210.47 124.92 213.35C123.58 216.28 126.08 220.16 128.15 220.84C131.72 222.01 132.25 219.62 132.25 219.62L132.52 233.02C137.26 240.34 147.98 240.08 144.12 232.67V228.59C144.12 228.59 147.34 229.1 148.92 228.85C151.54 228.43 153.19 226.27 153.99 223.31C155.27 218.56 155.75 214.72 154.67 205.38C153.48 195.14 142.05 195.03 135.87 199.08C129.7 203.13 132.05 214.32 132.05 214.32L132.06 214.33Z" fill="#914F4E"/>
<path d="M132.47 230.02C132.47 230.02 134.14 233.62 137.11 235.83C139.84 237.86 142.72 238.21 142.72 238.21C142.72 238.21 139.94 240.05 138.76 242.66C137.58 245.27 129.25 238.09 129.32 233.01C129.32 233.01 130.63 227.9 132.42 227.57L132.47 230.02V230.02Z" fill="#263238"/>
<path d="M142.71 238.21C142.71 238.21 145.28 236.93 144.13 232.66V228.58L145.25 228.73C146.13 229.52 147.51 231.38 147.96 233.42C148.22 234.59 148.85 240.5 147.72 241.68C146.69 242.75 145.02 238.52 142.72 238.2L142.71 238.21Z" fill="#263238"/>
<path d="M132.06 215.47C131.73 215.47 130.48 213.32 129.67 212.55C128.54 211.48 130 201.82 130 201.82C130 201.82 128.92 199.42 131.09 196.93C132.63 195.16 135.21 194.96 139.61 194.24C141.33 193.96 143.16 193.77 144.83 193.3C146.62 192.79 148.38 191.61 150.05 190.76C150.6 190.48 151.22 190.19 151.82 190.35C152.39 190.5 152.79 191.05 152.94 191.63C153.09 192.21 153.03 192.81 152.97 193.4C153.99 192.27 155.98 192.44 157.02 193.54C158.06 194.65 158.21 196.4 157.65 197.81C157.09 199.22 155.96 200.34 154.7 201.19C149.17 204.93 142.64 203.89 136.44 203.15C136.14 203.11 135.83 203.09 135.56 203.21C134.59 203.65 134.38 206.66 134.21 207.53C133.64 210.46 133.16 215.43 132.06 215.46V215.47Z" fill="#263238"/>
<path d="M130 202.33L126.05 200.12C126.61 198.94 127.95 198.48 129.04 199.09C130.13 199.7 130.56 201.15 130 202.33Z" fill="#263238"/>
<path d="M144.12 228.59C144.12 228.59 138.26 227.36 136.22 226.23C134.85 225.47 133.72 224.16 133.39 223.31C133.39 223.31 133.77 225.12 135 226.75C136.5 228.74 144.12 230.21 144.12 230.21V228.59Z" fill="#783736"/>
<path d="M142 212.45C142 213.15 141.47 213.72 140.83 213.72C140.18 213.72 139.66 213.15 139.66 212.45C139.66 211.75 140.19 211.18 140.83 211.18C141.48 211.18 142 211.75 142 212.45Z" fill="#263238"/>
<path d="M139.99 207.38L137.48 208.82C137.11 208.07 137.37 207.14 138.07 206.74C138.76 206.34 139.63 206.63 140 207.38H139.99Z" fill="#263238"/>
<path d="M143.59 221.25L146.27 222.3C146 223.1 145.19 223.51 144.45 223.22C143.71 222.93 143.33 222.05 143.59 221.25Z" fill="#783736"/>
<path d="M153.73 208.78L151.09 207.49C151.39 206.72 152.23 206.39 152.96 206.74C153.69 207.09 154.03 208.01 153.73 208.77V208.78Z" fill="#263238"/>
<path d="M151.99 212.46C151.99 213.16 151.46 213.73 150.82 213.73C150.17 213.73 149.65 213.16 149.65 212.46C149.65 211.76 150.18 211.19 150.82 211.19C151.47 211.19 151.99 211.76 151.99 212.46Z" fill="#263238"/>
<path d="M145.34 211.55L145.47 218.96L149.68 217.99L145.34 211.55Z" fill="#783736"/>
<path d="M140.19 209.39C138.6 209.39 137.31 210.7 137.31 212.32C137.31 213.94 138.6 215.25 140.19 215.25H140.72C142.31 215.25 143.6 213.94 143.6 212.32C143.6 210.7 142.31 209.39 140.72 209.39H140.19ZM136.73 212.32C136.73 210.38 138.28 208.79 140.19 208.79H140.72C142.63 208.79 144.18 210.37 144.18 212.32C144.18 214.27 142.63 215.85 140.72 215.85H140.19C138.28 215.85 136.73 214.27 136.73 212.32Z" fill="#263238"/>
<path d="M150.74 209.39C149.15 209.39 147.86 210.7 147.86 212.32C147.86 213.94 149.15 215.25 150.74 215.25H151.27C152.86 215.25 154.15 213.94 154.15 212.32C154.15 210.7 152.86 209.39 151.27 209.39H150.74ZM147.28 212.32C147.28 210.38 148.83 208.79 150.74 208.79H151.27C153.18 208.79 154.73 210.37 154.73 212.32C154.73 214.27 153.18 215.85 151.27 215.85H150.74C148.83 215.85 147.28 214.27 147.28 212.32Z" fill="#263238"/>
<path d="M144.14 211.63C144.46 211.09 145.18 210.72 145.97 210.68C146.65 210.64 147.25 210.87 147.56 211.29L148.03 210.93C147.59 210.34 146.83 210.04 145.94 210.08C144.95 210.13 144.07 210.6 143.64 211.31L144.14 211.62V211.63Z" fill="#263238"/>
<path d="M137.04 211.6H131.08V212.19H137.04V211.6Z" fill="#263238"/>
</g>
<defs>
<clipPath id="clip0_1_2">
<rect width="450.09" height="450.18" fill="white" transform="translate(0.659912)"/>
</clipPath>
</defs>
</svg>
