<svg width="1365" height="986" viewBox="0 0 1365 986" fill="none" xmlns="http://www.w3.org/2000/svg">
<g clip-path="url(#clip0_16_695)">
<path d="M1365 0H0V985.833H1365V0Z" fill="white"/>
<path d="M643.677 817.795C643.051 822.588 642.699 830.099 643.776 833.018C644.291 834.418 639.976 837.011 634.922 837.349C631.043 837.606 627.494 833.982 628.252 830.922C629.606 825.469 628.252 815.152 628.252 815.152C628.67 810.997 644.17 814.007 643.677 817.795V817.795Z" fill="#914F4E"/>
<path d="M650.854 849.285L623.834 849.304C623.611 849.103 626.788 834.656 628.149 832.818C630.716 829.356 643.233 830.869 643.775 833.019C646.027 841.944 651.449 845.213 650.854 849.285V849.285Z" fill="#352437"/>
<path d="M719.562 817.878C719.13 822.694 718.796 828.264 721.197 830.948C722.19 832.059 716.631 837.227 711.596 837.765C707.729 838.179 704.039 834.698 704.676 831.612C705.81 826.11 704.047 815.853 704.047 815.853C704.297 811.686 719.907 814.071 719.566 817.878H719.562Z" fill="#914F4E"/>
<path d="M746.219 849.304H701.784C701.553 849.114 702.418 831.271 704.677 831.612C705.936 831.809 706.789 834.831 707.991 836.245C709.193 837.659 714.748 835.661 714.994 833.982C715.241 832.302 720.739 828.01 721.641 829.788C724.284 835.002 742.359 841.713 744.554 842.915C747.155 844.34 746.299 848.705 746.219 849.304V849.304Z" fill="#352437"/>
<path d="M720.237 432.823C720.237 432.823 714.368 504.228 696.031 501.994C677.699 499.757 671.833 434.469 671.833 434.469C671.833 434.469 684.05 430.393 685.415 428.842C686.765 427.291 686.439 413.607 686.476 408.856C686.492 407.009 709.473 406.915 709.374 409.243C709.367 409.398 709.344 409.978 709.314 410.843C709.211 413.645 709.048 419.457 709.204 423.734C709.306 426.381 709.522 428.436 709.958 428.842C711.316 430.108 720.241 432.823 720.241 432.823H720.237Z" fill="#914F4E"/>
<path d="M716.673 435.564C707.111 430.814 693.54 428.739 677.847 435.564C662.153 442.389 699.467 497.812 699.467 497.812C699.467 497.812 733.554 443.952 716.673 435.564Z" fill="white" stroke="#201600" stroke-width="0.379167" stroke-miterlimit="10"/>
<path d="M686.284 425.236C684.756 427.42 681.222 432.573 681.222 432.573L694.045 444.9L699.35 434.131V431.705L686.284 425.236V425.236Z" fill="#88A2AE"/>
<path d="M699.35 431.701L709.405 426.738L716.806 433.172L706.592 445.381L699.35 434.128V431.701Z" fill="#88A2AE"/>
<path d="M697.537 442.81L690.939 500.538H707.945L702.531 442.716L697.537 442.81Z" fill="#14475F"/>
<path d="M694.561 436.118C694.561 436.118 697.245 442.23 697.537 442.814C697.829 443.398 702.216 443.326 702.534 442.716C702.849 442.109 705.397 434.556 705.397 434.556L702.485 430.977H696.373L694.561 436.118Z" fill="#14475F"/>
<path d="M733.406 580.035C733.406 600.923 727.195 678.8 726.68 709.232C726.164 739.664 723.768 827.43 723.768 827.43H699.903C699.903 827.43 688.13 740.18 689.427 712.239C690.72 684.298 682.958 577.449 682.958 577.449L733.406 580.038V580.035Z" fill="#1D3B4A"/>
<path d="M686.151 423.731C684.623 425.915 681.089 431.068 681.089 431.068L693.912 443.395L699.217 432.626V430.2L686.151 423.731V423.731Z" fill="white"/>
<path d="M700.809 577.445C691.496 611.854 674.453 696.712 670.813 718.961C667.173 741.211 646.736 827.426 646.736 827.426H622.124L651.134 571.492L682.681 564.765L700.805 577.441L700.809 577.445Z" fill="#1D3B4A"/>
<path d="M699.217 430.199L709.276 425.236L716.674 431.671L706.463 443.88L699.217 432.626V430.199Z" fill="white"/>
<path d="M700.253 499.022L694.565 579.219C686.284 591.118 643.074 594.742 643.597 591.637C644.117 588.532 653.168 549.982 652.39 536.275C651.613 522.56 636.867 451.288 638.297 447.406C639.377 444.448 662.196 435.576 674.97 430.977C678.981 429.532 682.003 428.508 683.05 428.22L700.256 499.018L700.253 499.022Z" fill="#264E62"/>
<path d="M682.401 471.631L684.923 461.246L672.096 437.093L674.962 430.973C678.974 429.528 681.996 428.504 683.042 428.216L700.249 499.014L682.398 471.623L682.401 471.631Z" fill="#396C8A"/>
<path d="M751.22 442.879C751.22 442.879 780.583 510.408 781.618 511.375C782.653 512.342 764.673 536.92 762.732 535.756C760.79 534.592 744.623 511.307 741.646 504.194C738.67 497.081 749.154 438.139 751.22 442.879Z" fill="#264E62"/>
<path d="M682.371 599.251C684.839 602.06 689.059 606.44 690.219 608.328C691.379 610.22 686.177 609.135 684.858 608.65C683.535 608.165 673.782 609.003 671.746 608.21C669.71 607.418 669.376 606.515 665.115 602.068C660.853 597.62 673.21 597.431 675.155 597.59C677.1 597.749 682.371 599.251 682.371 599.251Z" fill="#623A39"/>
<path d="M665.251 572.459C667.284 575.337 670.518 577.934 672.239 579.155C673.961 580.376 678.321 584.206 680.683 588.448C683.042 592.691 684.445 591.838 686.261 595.179C688.077 598.519 694.53 607.38 693.935 608.321C693.34 609.261 692.418 610.239 688.71 605.936C685.002 601.632 683.766 601.101 682.492 601.477C681.218 601.852 677.862 604.844 675.257 604.969C672.653 605.09 672.429 604.563 669.104 603.736C665.778 602.91 662.324 600.919 661.281 596.968C660.239 593.017 658.051 586.033 656.572 583.637C655.097 581.237 647.074 578.943 651.578 576.216C656.083 573.486 665.247 572.463 665.247 572.463L665.251 572.459Z" fill="#914F4E"/>
<path d="M672.08 578.397C676.96 579.326 682.196 583.174 685.336 586.92C688.475 590.663 692.207 595.3 691.429 595.797C690.652 596.293 688.73 596.244 687.66 594.887C686.591 593.529 683.543 589.317 680.813 589.093C678.079 588.869 677.021 589.051 674.951 585.385C672.884 581.722 668.675 577.748 672.077 578.393L672.08 578.397Z" fill="#914F4E"/>
<path d="M739.06 592.691C739.579 595.797 702.838 591.118 694.564 579.216L699.221 499.018L699.471 497.816V497.808L713.743 429.119C714.812 429.407 717.493 430.142 720.962 431.143C731.749 434.256 750.147 439.936 751.223 442.871C752.645 446.75 737.767 528.51 736.989 542.216C736.212 555.931 738.54 589.586 739.063 592.687L739.06 592.691Z" fill="#264E62"/>
<path d="M638.288 447.406C630.356 458.607 613.062 529.029 613.582 536.017C614.097 543.002 643.593 533.689 644.886 529.807C646.179 525.924 652.863 505.294 653.682 500.182C654.718 493.714 640.233 444.657 638.288 447.406V447.406Z" fill="#264E62"/>
<path d="M613.582 536.014C614.098 542.933 655.355 589.696 657.175 590.86C658.995 592.024 678.518 577.858 677.741 576.114C676.964 574.366 647.15 532.002 644.886 529.803C642.622 527.604 613.582 536.014 613.582 536.014Z" fill="#264E62"/>
<path d="M826.605 546.33C826.605 546.33 829.881 547.13 832.539 547.847C833.995 548.241 835.266 548.613 835.717 548.814C836.991 549.386 841.131 552.317 842.151 553.083C843.171 553.849 855.851 560.792 856.677 561.175C857.508 561.558 868.784 551.68 867.639 549.963C867.025 549.045 857.758 544.738 849.261 540.927C844.711 538.887 840.384 536.991 837.726 535.835C837.537 535.752 837.355 535.672 837.18 535.596C835.842 535.012 830.591 532.953 830.591 532.953L826.605 546.33V546.33Z" fill="#914F4E"/>
<g style="mix-blend-mode:multiply">
<path d="M847.747 542.524C845.051 545.489 841.055 552.295 841.055 552.295L842.53 553.338L848.247 543.608L847.743 542.524H847.747Z" fill="#914F4E"/>
</g>
<path d="M845.219 546.372C844.324 547.783 842.33 551.32 841.807 552.469C841.279 553.614 843.369 555.768 844.396 555.328C845.473 554.865 848.707 550.971 849.473 549.932C850.167 548.988 846.034 545.094 845.219 546.372V546.372Z" fill="#914F4E"/>
<path d="M849.007 549.303C848.112 550.713 845.769 554.634 845.242 555.779C844.715 556.924 846.94 558.615 847.968 558.175C849.045 557.713 852.495 553.902 853.261 552.863C853.955 551.919 849.822 548.025 849.007 549.303V549.303Z" fill="#914F4E"/>
<path d="M852.539 551.597C851.645 553.008 849.298 557.091 849.044 558.327C848.858 559.218 850.666 560.913 851.694 560.473C852.771 560.011 856.032 556.196 856.794 555.158C857.488 554.213 853.355 550.319 852.539 551.597Z" fill="#914F4E"/>
<path d="M855.544 562.51C855.847 562.426 856.458 562.202 857.197 561.899C858.259 561.467 859.594 560.868 860.686 560.291C861.175 560.034 861.611 559.78 861.956 559.544H861.96C862.138 559.423 862.293 559.309 862.415 559.203C863.552 558.206 858.24 554.225 857.413 555.059C857.099 555.374 856.507 556.014 855.851 556.761C854.607 558.179 853.144 559.992 852.954 560.735C852.674 561.816 854.327 562.839 855.548 562.513L855.544 562.51Z" fill="#914F4E"/>
<path d="M861.235 559.84C861.307 559.821 861.386 559.795 861.47 559.764C862.262 559.465 863.453 558.676 864.837 557.63C865.079 557.448 865.326 557.258 865.58 557.061C866.562 556.295 867.62 555.434 868.693 554.543C868.909 554.365 869.129 554.183 869.349 554.001C870.407 553.121 871.465 552.234 872.466 551.4C873.239 550.759 875.078 548.465 875.76 547.927C876.42 547.4 886.779 545.178 887.306 544.81V529.833C887.306 529.833 872.784 535.972 869.004 535.494C865.087 534.997 856.442 533.079 854.944 533.045C853.443 533.01 847.615 543.142 845.226 546.368C844.972 546.71 858.565 560.568 861.242 559.836L861.235 559.84Z" fill="#914F4E"/>
<g style="mix-blend-mode:multiply">
<path d="M856.105 558.615C856.188 559.938 856.507 561.228 857.197 561.899C858.259 561.466 859.593 560.867 860.685 560.291C860.64 560.124 860.56 559.95 860.454 559.768C860.154 559.248 859.665 558.664 859.214 557.963C858.425 556.727 857.094 556.477 856.461 557.246C856.211 557.546 856.071 558.001 856.109 558.615H856.105Z" fill="#914F4E"/>
</g>
<g style="mix-blend-mode:multiply">
<path d="M859.548 555.154C859.802 556.439 860.636 558.752 861.47 559.765C862.262 559.465 863.453 558.676 864.837 557.63C864.344 556.379 863.199 554.832 862.535 554.066C861.28 552.621 859.225 553.505 859.548 555.154V555.154Z" fill="#914F4E"/>
</g>
<g style="mix-blend-mode:multiply">
<path d="M863.404 553.027C863.81 554.263 864.724 556.162 865.577 557.061C866.559 556.295 867.617 555.434 868.69 554.543C867.969 553.391 866.654 552.113 865.778 551.411C864.576 550.444 862.873 551.419 863.4 553.027H863.404Z" fill="#914F4E"/>
</g>
<g style="mix-blend-mode:multiply">
<path d="M867.877 551.798C868.313 552.594 868.844 553.443 869.348 554.001C870.406 553.121 871.464 552.234 872.465 551.4C871.965 550.672 871.089 549.967 870.228 549.424C868.382 548.256 866.899 550.008 867.881 551.798H867.877Z" fill="#914F4E"/>
</g>
<path d="M857.921 562.259C856.95 561.751 856.522 560.234 856.423 558.676C856.287 556.492 858.429 556.302 859.529 558.024C860.253 559.158 861.091 559.984 861.041 560.716C860.992 561.448 859.445 563.063 857.921 562.259V562.259Z" fill="#914F4E"/>
<path d="M837.291 536.464C839.445 538.326 847.749 542.523 847.749 542.523C847.749 542.523 848.31 541.788 849.261 540.931C849.944 540.317 850.831 539.642 851.859 539.134C854.319 537.913 855.946 538.967 856.519 539.373C857.091 539.778 857.068 541.261 858.335 543.1C859.601 544.939 862.468 544.821 862.657 544.222C862.847 543.627 861.311 537.792 860.629 536.889C859.29 535.122 852.936 531.437 850.115 531.774C846.592 532.199 840.624 534.807 838 535.456C837.67 535.539 837.39 535.589 837.177 535.6C836.571 535.63 836.703 535.964 837.287 536.464H837.291Z" fill="#914F4E"/>
<path d="M862.271 560.253C861.3 559.745 860.166 556.746 859.867 555.211C859.545 553.561 861.6 552.678 862.855 554.122C863.719 555.12 865.395 557.432 865.395 558.706C865.395 559.442 863.799 561.053 862.274 560.253H862.271Z" fill="#914F4E"/>
<path d="M866.403 557.531C865.433 557.023 864.212 554.573 863.723 553.091C863.192 551.479 864.898 550.509 866.1 551.476C867.355 552.484 869.528 554.683 869.528 555.988C869.528 556.723 867.931 558.335 866.407 557.535L866.403 557.531Z" fill="#914F4E"/>
<path d="M873.204 552.628C873.223 551.533 871.866 550.319 870.546 549.485C868.696 548.317 867.214 550.069 868.199 551.859C868.844 553.034 869.689 554.32 870.353 554.627C871.02 554.938 873.178 554.354 873.204 552.628V552.628Z" fill="#914F4E"/>
<g style="mix-blend-mode:multiply">
<path d="M709.2 423.735C698.488 423.735 693.908 418.168 691.371 412.28L709.309 410.843C709.207 413.645 709.044 419.458 709.2 423.735Z" fill="#88A2AE"/>
</g>
<path d="M762.287 535.236C766.746 540.552 827.542 554.43 829.703 554.312C831.86 554.195 839.44 531.297 837.791 530.33C836.141 529.367 784.741 511.834 781.617 511.372C778.496 510.909 762.287 535.236 762.287 535.236V535.236Z" fill="#264E62"/>
<path d="M715.203 376.729C720.185 388.699 720.473 407.711 715.711 414.779C710.949 421.846 691.725 414.835 688.134 409.25C684.547 403.665 671.261 376.93 685.002 371.933C698.743 366.931 709.898 363.985 715.203 376.729V376.729Z" fill="#914F4E"/>
<path d="M686.602 402.278C687.834 400.818 689.317 401.227 688.195 394.467C687.069 387.706 683.823 383.19 690.03 384.214C700.112 385.879 701.898 376.331 708.336 375.797C715.385 375.209 719.446 373.154 718.592 367.663C717.413 360.054 710.547 354.556 695.74 356.455C688.612 357.369 675.402 367.098 672.315 374.469C667.614 385.685 678.109 399.567 680.266 404.12C682.424 408.67 686.606 402.281 686.606 402.281L686.602 402.278Z" fill="#352437"/>
<path d="M685.427 397.231C682.053 393.409 678.682 394.266 678.159 395.585C677.639 396.901 677.37 399.836 680.263 404.117C683.156 408.401 686.493 410.669 687.312 409.963C688.135 409.258 688.495 406.126 687.892 404.01C687.289 401.895 686.258 398.175 685.427 397.235V397.231Z" fill="#914F4E"/>
<path d="M712.537 460.988L714.865 472.366L699.467 497.809L713.739 429.119C714.808 429.407 717.489 430.142 720.958 431.143L723.665 437.089L712.537 460.988V460.988Z" fill="#396C8A"/>
<path d="M657.383 591.459C657.285 591.459 657.19 591.455 657.103 591.444L656.891 591.418L645.853 579.322C645.637 579.083 645.652 578.712 645.891 578.496C646.13 578.279 646.501 578.295 646.718 578.533L657.452 590.295C660.618 590.288 670.639 581.969 676.975 576.039L644.416 530.144C644.23 529.879 644.291 529.515 644.556 529.329C644.818 529.139 645.186 529.204 645.371 529.469L678.522 576.194L678.15 576.543C676.501 578.097 662.176 591.459 657.391 591.459H657.383Z" fill="#1D3B4A"/>
<path d="M694.565 580.001C694.565 580.001 694.535 580.001 694.519 580.001C694.087 579.974 693.761 579.606 693.788 579.178L698.668 496.353C698.694 495.924 699.066 495.598 699.49 495.621C699.923 495.648 700.249 496.015 700.222 496.444L695.342 579.269C695.319 579.682 694.974 580.005 694.565 580.005V580.001Z" fill="#396C8A"/>
<path d="M948.287 826.277C947.282 829.193 942.357 827.82 939.623 833.743C936.881 839.665 938.512 849.288 938.512 849.288L912.528 849.266C912.528 849.266 912.073 848.488 913.627 846.119C914.454 844.86 916.979 843.7 919.273 842.278H919.277C921.294 841.019 923.133 839.57 923.478 837.648C924.21 833.545 926.78 811.573 926.78 806.469C926.784 801.366 913.536 750.114 907.17 731.716L931.748 725.695C931.748 725.695 938.322 740.835 940.135 757.068C941.947 773.292 937.822 803.197 941.553 809.309C942.952 811.603 944.393 814.143 945.591 816.589C947.589 820.665 948.916 824.449 948.287 826.273V826.277Z" fill="#914F4E"/>
<path d="M948.287 826.277C947.282 829.193 942.357 827.82 939.623 833.743C936.882 839.665 938.512 849.288 938.512 849.288L912.528 849.266C912.528 849.266 912.073 848.488 913.627 846.119C914.454 844.86 916.979 843.7 919.273 842.278H919.277C919.478 842.289 924.574 842.589 928.703 842.589C932.832 842.589 935.979 839.442 935.979 836.571C935.979 833.701 938.44 818.246 945.591 816.589C947.589 820.665 948.916 824.449 948.287 826.273V826.277Z" fill="#352437"/>
<path d="M967.92 766.399C965.721 785.179 957.679 808.327 957.853 815.44C957.925 818.401 958.642 820.581 959.286 822.572C960.192 825.374 960.97 827.801 959.665 831.482C959.233 832.703 956.932 831.115 951.548 836.218C946.163 841.322 946.201 849.3 944.013 849.3C941.826 849.296 923.91 849.284 923.91 849.284C923.91 849.284 923.368 845.591 928.016 843.54C928.164 843.476 928.305 843.403 928.449 843.328H928.452C928.452 843.328 928.452 843.324 928.456 843.324C932.851 840.867 935.622 831.426 938.011 826.663C940.472 821.745 943.896 814.568 944.18 802.533C944.465 790.498 942.41 739.758 936.214 726.624C930.026 713.497 964.86 711.81 966.126 719.901C968.094 732.52 970.115 747.626 967.909 766.402L967.92 766.399Z" fill="#914F4E"/>
<path d="M959.666 831.486L955.431 849.288H952.833L951.874 832.135L959.666 831.486Z" fill="#352437"/>
<path d="M878.058 615.009C876.215 618.11 875.146 621.417 874.41 623.942C873.675 626.467 872.909 627.631 871.912 627.991C870.918 628.352 871.54 624.594 871.593 624.283C871.646 623.972 872.215 608.73 872.215 608.73L878.058 615.009V615.009Z" fill="#B07D6B"/>
<path d="M872.22 608.734C869.819 612.055 868.382 618.6 868.284 620.95C868.185 623.301 867.992 631.533 868.235 632.242C868.477 632.951 870.396 631.351 870.794 629.118C871.192 626.884 872.341 619.233 872.921 618.273C873.501 617.314 872.223 608.734 872.223 608.734H872.22Z" fill="#B07D6B"/>
<path d="M896.729 579.5C895.819 581.362 891.936 594.913 891.652 597.135C891.367 599.357 891.515 605.924 890.279 608.749C889.043 611.574 885.998 623.355 885.16 623.434C884.326 623.518 883.826 621.88 883.826 620.192C883.826 618.505 885.468 611.252 884.44 610.258C883.412 609.265 877.444 615.426 873.892 619.578C870.339 623.73 867.412 629.929 866.486 629.937C865.561 629.944 865.679 626.05 869.474 618.414C873.27 610.778 870.581 610.876 873.281 606.641C875.981 602.406 880.535 598.155 882.082 595.891C883.629 593.628 885.248 570.093 885.248 570.093L896.733 579.496L896.729 579.5Z" fill="#914F4E"/>
<path d="M912.137 530.565C888.336 590.928 902.563 734.264 902.563 734.264H975.488C975.488 734.264 990.526 637.164 987.693 600.176C985.392 570.134 968.405 529.438 968.405 529.438L912.133 530.568L912.137 530.565Z" fill="#396C8A"/>
<path d="M902.824 441.062C897.391 452.221 889.565 515.735 887.866 527.948C886.167 540.165 877.663 594.826 877.682 597.548C877.701 600.274 894.691 605.651 895.647 602.064C896.602 598.477 911.856 530.743 912.41 523.425C912.963 516.103 918.184 490.157 918.184 490.157C918.184 490.157 918.878 463.615 915.261 455.353C911.647 447.087 904.148 438.336 902.824 441.059V441.062Z" fill="#C48A80"/>
<path d="M959.665 831.487C959.233 832.707 956.932 831.119 951.548 836.222C946.163 841.326 946.201 849.304 944.013 849.304C941.826 849.3 923.91 849.288 923.91 849.288C923.91 849.288 923.368 845.595 928.016 843.544C928.164 843.48 928.305 843.408 928.449 843.332H928.452C928.452 843.332 928.452 843.328 928.456 843.328C928.718 843.339 937.564 843.783 941.246 843.328C944.988 842.873 949.409 833.781 951.047 830.497C952.689 827.213 956.314 825.162 959.279 822.584C960.185 825.378 960.962 827.809 959.658 831.49L959.665 831.487Z" fill="#352437"/>
<path d="M962.419 362.791C978.317 372.612 972.614 409.285 983.815 430.651C993.635 449.389 975.026 457.223 944.799 445.127C931.873 439.952 924.168 440.926 918.238 434.768C912.312 428.611 936.328 412.356 939.638 408.253C942.948 404.151 962.419 362.795 962.419 362.795V362.791Z" fill="#352437"/>
<path d="M940.446 459.38C924.127 456.074 918.23 434.761 918.23 434.761C918.23 434.761 932.055 431.625 932.366 429.831C932.445 429.346 932.616 427.477 932.817 424.948C933.082 421.516 933.424 416.849 933.738 412.795C934.065 408.928 934.345 405.603 934.55 404.37C934.815 402.842 956.921 402.497 956.921 402.497C955.768 413.061 956.329 426.65 958.058 428.91C959.791 431.174 974.192 438.833 975.439 440.315C976.671 441.783 956.765 462.671 940.446 459.38V459.38Z" fill="#914F4E"/>
<path d="M926.075 443.326C935.429 447.739 943.335 449.931 963.632 446.405C983.929 442.879 935.399 492.007 935.399 492.007C935.399 492.007 925.931 485.338 922.071 468.423C918.212 451.512 926.079 443.326 926.079 443.326H926.075Z" fill="#88A2AE"/>
<path d="M930.323 430.776C930.399 429.46 905.84 438.249 902.826 441.066C902.826 441.066 906.53 452.339 904.748 464.116C902.966 475.893 904.206 479.267 906.981 488.481C909.757 497.691 911.831 514.852 910.147 524.305C908.464 533.757 896.3 564.386 895.47 565.911C894.64 567.435 914.997 579.037 932.374 576.36L937.129 481.588C937.129 481.588 928.002 469.989 930.323 430.779V430.776Z" fill="#14475F"/>
<g style="mix-blend-mode:multiply">
<path d="M949.978 413.182C949.978 413.182 946.342 424.182 932.817 424.948C933.083 421.516 933.424 416.849 933.739 412.795L949.978 413.186V413.182Z" fill="#914F4E"/>
</g>
<path d="M960.163 430.647C960.288 429.335 987.262 444.327 990.064 447.353C992.87 450.378 985.628 480.879 982.196 489.869C978.769 498.859 973.206 513.68 974.207 523.228C975.208 532.779 986.765 571.837 987.486 573.418C988.206 574.999 954.491 583.887 932.37 576.36L937.125 481.588C937.125 481.588 956.974 463.998 960.159 430.65L960.163 430.647Z" fill="#14475F"/>
<path d="M932.373 577.138C932.373 577.138 932.347 577.138 932.335 577.138C931.903 577.115 931.573 576.751 931.596 576.319L936.351 481.546C936.373 481.114 936.73 480.765 937.17 480.807C937.602 480.829 937.932 481.193 937.909 481.626L933.154 576.398C933.132 576.815 932.79 577.138 932.377 577.138H932.373Z" fill="#C48A80"/>
<path d="M990.068 447.353C995.604 459.024 992.976 478.126 975.125 499.537C957.27 520.945 950.714 530.5 931.881 535.998C913.044 541.496 879.916 551.423 878.65 551.525C877.383 551.627 871.21 534.303 873.857 533.526C876.507 532.749 927.975 511.227 932.04 508.004C936.105 504.785 968.171 460.608 968.171 460.608L990.068 447.357V447.353Z" fill="#14475F"/>
<path d="M928.76 367.86C924.911 376.831 923.296 387.846 923.785 396.905C924.278 405.963 925.473 416.068 931.433 418.305C937.394 420.542 948.12 417.11 956.03 407.134C963.939 397.162 966.449 377.544 953.36 369.859C940.268 362.173 930.959 362.734 928.76 367.86V367.86Z" fill="#914F4E"/>
<path d="M952.208 400.507C951.286 395.282 952.625 388.248 947.935 386.231C943.244 384.214 932.681 381.211 931.077 369.726L926.409 372.452C926.409 372.452 919.323 361.005 941.803 357.513C964.284 354.021 979.766 379.717 976.368 391.407C972.975 403.093 952.208 400.507 952.208 400.507V400.507Z" fill="#352437"/>
<path d="M953.774 400.075C954.878 396.677 956.341 391.616 960.834 392.165C965.327 392.715 964.611 400.712 961.74 404.837C958.87 408.962 956.087 409.357 954.741 408.53C953.55 407.802 952.75 403.226 953.774 400.075V400.075Z" fill="#914F4E"/>
<path d="M878.649 552.109C878.395 552.109 878.16 551.942 878.088 551.688C877.997 551.377 878.175 551.051 878.486 550.964C878.945 550.831 924.343 537.595 939.21 532.76C953.22 528.206 970.722 504.459 980.126 491.7L981.737 489.52C989.503 479.032 995.254 461.435 989.533 447.577C989.408 447.277 989.552 446.936 989.851 446.811C990.147 446.689 990.492 446.83 990.617 447.129C996.513 461.409 990.636 479.472 982.681 490.214L981.074 492.394C971.594 505.259 953.948 529.2 939.578 533.871C924.695 538.709 879.279 551.95 878.824 552.083C878.771 552.098 878.714 552.105 878.661 552.105L878.649 552.109Z" fill="#BA7D73"/>
<path d="M873.857 534.106C873.629 534.106 873.413 533.973 873.318 533.75C873.19 533.454 873.33 533.109 873.626 532.984C874.111 532.775 922.182 512.277 931.232 508.164C933.451 507.155 951.757 482.081 958.65 472.643C959.803 471.066 960.743 469.777 961.391 468.897C961.581 468.635 961.949 468.582 962.21 468.772C962.472 468.965 962.525 469.329 962.335 469.591C961.687 470.471 960.747 471.76 959.598 473.337C946.414 491.389 933.913 508.236 931.722 509.233C922.659 513.354 874.574 533.86 874.088 534.064C874.012 534.095 873.937 534.11 873.861 534.11L873.857 534.106Z" fill="#BA7D73"/>
<path d="M1243.84 849.425C1400.35 434.45 1072.28 99.1524 777.311 106.364C482.342 113.576 644.223 514.753 313.78 468.787C-70.4034 415.347 136.208 864.504 136.208 864.504L1243.84 849.425Z" fill="#E5F6FF"/>
<path d="M1292.61 864.478C1292.61 868.679 1291.29 872.444 1289.15 875.166C1287.04 877.87 1284.1 879.584 1280.87 879.584H84.1448C77.6724 879.584 72.3906 872.823 72.3906 864.478C72.3906 860.349 73.6988 856.564 75.8524 853.861C77.9758 851.104 80.9105 849.425 84.1448 849.425H1280.87C1287.34 849.425 1292.61 856.185 1292.61 864.478Z" fill="#88A2AE"/>
<path d="M368.727 395.842C437.706 359.812 471.754 288.734 444.776 237.085C417.798 185.437 340.009 172.776 271.03 208.807C202.051 244.838 168.003 315.916 194.981 367.564C221.959 419.212 299.748 431.873 368.727 395.842Z" fill="#E5F6FF"/>
<path d="M1177.06 721.482C1177.06 721.482 1194.65 702.168 1208.09 699.237C1221.52 696.306 1230.14 707.453 1219.54 715.897C1209.61 723.795 1191.29 716.678 1177.06 721.482Z" fill="#14475F"/>
<path d="M1174.61 698.099C1174.61 698.099 1171.7 672.141 1162.55 661.885C1153.39 651.628 1139.86 655.595 1143.5 668.657C1146.89 680.874 1165.91 685.863 1174.61 698.103V698.099Z" fill="#14475F"/>
<path d="M1147.64 754.674C1147.64 754.674 1153.52 740.205 1154.36 729.888C1155.48 716.223 1147.02 704.302 1137.35 708.92C1129.98 712.447 1131.59 723.389 1140.67 735.724C1148.78 746.727 1147.63 754.671 1147.63 754.671L1147.64 754.674Z" fill="#14475F"/>
<path d="M1190.46 666.598C1194.15 658.313 1204.25 634.627 1213.22 627.028C1222.19 619.43 1229.25 624.04 1231.12 626.042C1232.99 628.044 1236.49 635.908 1228.9 645.209C1221.01 654.867 1190.46 666.598 1190.46 666.598V666.598Z" fill="#14475F"/>
<path d="M1187.92 633.683C1190.6 627.46 1200.27 602.803 1201.69 592.463C1203.1 582.124 1198.83 573.767 1189.7 573.262C1181.72 572.823 1175.29 579.337 1175.56 590.829C1175.82 601.677 1187.92 633.683 1187.92 633.683V633.683Z" fill="#14475F"/>
<path d="M1119.9 806.878C1119.84 806.852 1119.79 806.814 1119.75 806.768C1119.54 806.552 1119.55 806.211 1119.77 806.002C1126.66 799.435 1156.81 755.228 1167.72 725.926C1180.1 692.666 1191 653.502 1187 592.645C1186.98 592.346 1187.2 592.088 1187.5 592.069C1187.8 592.05 1188.06 592.274 1188.08 592.573C1192.09 653.634 1181.15 692.931 1168.73 726.305C1157.31 757.003 1127.15 800.463 1120.52 806.787C1120.35 806.95 1120.1 806.981 1119.9 806.878H1119.9Z" fill="#352437"/>
<path d="M1181.52 681.931C1181.27 681.81 1181.16 681.518 1181.25 681.26C1186.86 666.287 1209.09 643.146 1218.99 636.302C1219.24 636.132 1219.57 636.192 1219.74 636.439C1219.91 636.685 1219.85 637.019 1219.61 637.19C1209.8 643.962 1187.8 666.848 1182.27 681.636C1182.16 681.916 1181.85 682.056 1181.57 681.954C1181.55 681.946 1181.53 681.939 1181.52 681.931Z" fill="#352437"/>
<path d="M1173.77 710.134C1173.53 710.012 1173.42 709.732 1173.51 709.474C1179.39 692.586 1161.86 677.791 1156.35 673.662C1156.11 673.483 1156.06 673.142 1156.24 672.903C1156.42 672.664 1156.76 672.627 1157 672.793C1162.66 677.036 1180.66 692.248 1174.53 709.83C1174.43 710.111 1174.12 710.263 1173.84 710.164C1173.81 710.156 1173.79 710.145 1173.77 710.134V710.134Z" fill="#352437"/>
<path d="M1165.02 733.873C1165.02 733.873 1164.99 733.858 1164.98 733.847C1164.72 733.687 1164.65 733.354 1164.8 733.1C1174.55 717.508 1196.89 709.425 1209.27 709.58C1209.57 709.584 1209.81 709.83 1209.81 710.126C1209.81 710.426 1209.56 710.664 1209.26 710.661C1197.14 710.509 1175.26 718.418 1165.73 733.672C1165.57 733.911 1165.27 733.995 1165.02 733.869V733.873Z" fill="#352437"/>
<path d="M1140.91 777.724C1140.89 777.713 1140.88 777.705 1140.86 777.69C1140.61 777.527 1140.54 777.19 1140.7 776.939C1148.68 764.89 1150.32 733.453 1143.57 721.793C1143.42 721.536 1143.51 721.206 1143.76 721.054C1144.02 720.902 1144.36 720.993 1144.5 721.251C1151.4 733.161 1149.74 765.246 1141.6 777.538C1141.45 777.77 1141.15 777.846 1140.91 777.724H1140.91Z" fill="#352437"/>
<path d="M241.519 713.273C241.519 713.273 241.879 687.156 249.993 676.05C258.107 664.948 271.954 667.576 269.615 680.93C267.423 693.42 248.984 700.245 241.522 713.273H241.519Z" fill="#14475F"/>
<path d="M224.181 697.398C224.181 697.398 204.795 679.891 191.137 678.287C177.479 676.68 169.987 688.62 181.366 695.987C192.009 702.88 209.557 694.004 224.181 697.398Z" fill="#14475F"/>
<path d="M241.498 757.636C241.498 757.636 236.307 742.905 230.1 734.624C221.88 723.651 207.638 720.341 203.467 730.207C200.286 737.737 208.745 744.862 223.726 748.069C237.092 750.928 241.498 757.64 241.498 757.64V757.636Z" fill="#14475F"/>
<path d="M215.158 663.311C212.428 654.658 204.284 630.232 205.959 618.595C207.635 606.959 215.985 605.726 218.711 605.984C221.437 606.242 229.274 609.806 229.756 621.807C230.256 634.266 215.158 663.307 215.158 663.307V663.311Z" fill="#14475F"/>
<path d="M191.43 640.352C189.306 633.917 180.203 609.048 174.405 600.369C168.608 591.69 159.868 588.27 152.698 593.946C146.438 598.901 145.937 608.047 153.763 616.468C161.15 624.416 191.426 640.356 191.426 640.356L191.43 640.352Z" fill="#14475F"/>
<path d="M255.346 815.102C255.289 815.117 255.224 815.125 255.164 815.117C254.864 815.091 254.644 814.829 254.671 814.533C255.475 805.047 248.733 751.963 237.472 722.798C224.686 689.693 206.881 653.145 163.534 610.242C163.322 610.034 163.318 609.689 163.53 609.476C163.739 609.264 164.084 609.26 164.296 609.473C207.791 652.519 225.657 689.189 238.484 722.407C250.284 752.964 256.525 805.494 255.751 814.621C255.732 814.856 255.566 815.042 255.349 815.098L255.346 815.102Z" fill="#584D5D"/>
<path d="M218.628 680.714C218.366 680.782 218.086 680.646 217.987 680.384C212.258 665.46 213.551 633.398 216.429 621.708C216.501 621.42 216.793 621.242 217.085 621.314C217.373 621.386 217.551 621.678 217.479 621.97C214.631 633.542 213.339 665.259 218.996 679.997C219.102 680.278 218.962 680.589 218.685 680.695C218.666 680.703 218.647 680.707 218.628 680.714V680.714Z" fill="#584D5D"/>
<path d="M231.53 706.964C231.272 707.032 230.995 706.9 230.893 706.646C224.102 690.099 201.17 690.648 194.303 691.21C194.004 691.232 193.742 691.012 193.719 690.717C193.697 690.421 193.924 690.163 194.212 690.133C201.265 689.556 224.822 689.01 231.89 706.236C232.004 706.513 231.871 706.827 231.594 706.941C231.572 706.949 231.549 706.956 231.526 706.964H231.53Z" fill="#584D5D"/>
<path d="M240.726 730.533C240.726 730.533 240.692 730.541 240.676 730.544C240.381 730.594 240.104 730.397 240.054 730.101C237.014 711.969 248.377 691.104 257.746 683.012C257.97 682.819 258.315 682.842 258.509 683.069C258.706 683.297 258.679 683.638 258.452 683.831C249.272 691.756 238.143 712.181 241.12 729.923C241.165 730.199 240.991 730.465 240.726 730.537V730.533Z" fill="#584D5D"/>
<path d="M251.748 779.343C251.726 779.347 251.707 779.354 251.684 779.354C251.388 779.396 251.115 779.191 251.073 778.896C249.056 764.586 229.434 739.967 216.653 735.716C216.368 735.621 216.217 735.314 216.311 735.03C216.406 734.745 216.713 734.594 216.998 734.689C230.052 739.034 250.091 764.15 252.146 778.744C252.184 779.017 252.01 779.271 251.752 779.343H251.748Z" fill="#584D5D"/>
<path d="M1245.71 753.15C1211.53 751.076 1133.99 738.825 1129.8 828.915C1129.02 845.606 1183.25 846.175 1212.29 811.652C1230.03 790.563 1245.71 753.15 1245.71 753.15Z" fill="#396C8A"/>
<path d="M1131.75 834.3C1145.81 813.616 1209.31 766.3 1245.57 752.798L1245.84 753.503C1207.16 767.904 1145.08 816.016 1132.37 834.721L1131.74 834.3H1131.75Z" fill="white"/>
<path d="M1197.35 779.51L1197.36 779.157C1197.39 778.308 1198.09 758.25 1206.34 751.281L1206.82 751.854C1199.42 758.114 1198.27 776.079 1198.13 778.824C1201.18 779.104 1222.95 781.011 1232.84 779.385L1232.96 780.128C1222.27 781.887 1197.95 779.563 1197.71 779.54L1197.36 779.506L1197.35 779.51Z" fill="white"/>
<path d="M1159.81 806.859C1159.46 805.206 1153.72 776.977 1161.2 763.176L1161.87 763.536C1154.69 776.769 1159.93 803.701 1160.51 806.533C1163.82 807.197 1199.8 814.245 1212.21 811.288L1212.38 812.02C1199.27 815.144 1161.71 807.549 1160.12 807.223L1159.88 807.174L1159.83 806.935C1159.83 806.935 1159.82 806.901 1159.81 806.859H1159.81Z" fill="white"/>
<path d="M1015.92 541.629C1014.39 541.629 1012.87 541.598 1011.36 541.541L1011.42 539.983C1014.54 540.101 1017.71 540.093 1020.83 539.968L1020.9 541.526C1019.25 541.595 1017.58 541.629 1015.92 541.629ZM1001.85 540.802C998.71 540.431 995.54 539.926 992.438 539.301L992.745 537.773C995.809 538.391 998.933 538.887 1002.04 539.255L1001.86 540.806L1001.85 540.802ZM1030.4 540.753L1030.21 539.206C1033.32 538.827 1036.44 538.319 1039.5 537.693L1039.81 539.221C1036.71 539.854 1033.55 540.374 1030.4 540.757V540.753ZM983.171 537.045C980.127 536.172 977.082 535.16 974.117 534.042L974.667 532.582C977.59 533.685 980.597 534.682 983.6 535.543L983.171 537.041V537.045ZM1049.07 536.927L1048.63 535.429C1051.63 534.557 1054.63 533.549 1057.55 532.434L1058.11 533.894C1055.15 535.024 1052.11 536.044 1049.07 536.927H1049.07ZM965.332 530.318C962.469 528.965 959.625 527.474 956.876 525.893L957.654 524.543C960.365 526.106 963.174 527.573 965.995 528.911L965.328 530.322L965.332 530.318ZM1066.86 530.144L1066.19 528.737C1069.01 527.395 1071.81 525.916 1074.51 524.346L1075.3 525.696C1072.56 527.289 1069.72 528.786 1066.86 530.148V530.144ZM948.808 520.801C946.199 519.004 943.632 517.081 941.175 515.079L942.161 513.87C944.584 515.845 947.12 517.745 949.691 519.516L948.808 520.801V520.801ZM1083.34 520.577L1082.45 519.296C1085.02 517.517 1087.54 515.61 1089.96 513.627L1090.95 514.833C1088.5 516.843 1085.94 518.776 1083.34 520.577ZM934.024 508.766C931.734 506.575 929.508 504.266 927.404 501.903L928.568 500.864C930.646 503.196 932.841 505.479 935.101 507.64L934.024 508.766ZM1098.08 508.497L1096.99 507.375C1099.25 505.206 1101.44 502.916 1103.51 500.576L1104.68 501.608C1102.58 503.977 1100.36 506.294 1098.08 508.493V508.497ZM921.352 494.532C919.441 492.003 917.614 489.368 915.915 486.703L917.231 485.865C918.907 488.5 920.711 491.097 922.596 493.592L921.352 494.532V494.532ZM1110.7 494.218L1109.46 493.281C1111.34 490.775 1113.13 488.17 1114.8 485.531L1116.12 486.365C1114.43 489.038 1112.61 491.681 1110.7 494.218ZM911.122 478.46C909.643 475.657 908.26 472.764 907.012 469.86L908.445 469.246C909.678 472.112 911.043 474.967 912.502 477.732L911.122 478.46V478.46ZM1120.88 478.103L1119.5 477.379C1120.96 474.611 1122.31 471.748 1123.54 468.87L1124.97 469.481C1123.73 472.397 1122.36 475.301 1120.89 478.107L1120.88 478.103ZM903.611 460.961C902.602 457.962 901.704 454.879 900.942 451.808L902.455 451.433C903.209 454.466 904.092 457.507 905.09 460.468L903.611 460.965V460.961ZM1128.34 460.552L1126.86 460.059C1127.85 457.097 1128.72 454.053 1129.46 451.015L1130.98 451.387C1130.22 454.466 1129.34 457.552 1128.34 460.552V460.552ZM899.019 442.465C898.507 439.337 898.117 436.152 897.859 433.001L899.414 432.876C899.668 435.985 900.054 439.129 900.559 442.215L899.019 442.465V442.465ZM1132.86 442.037L1131.32 441.79C1131.82 438.704 1132.19 435.557 1132.43 432.448L1133.99 432.569C1133.74 435.724 1133.36 438.909 1132.86 442.037V442.037ZM899.015 423.473H897.457V423.188C897.457 420.011 897.586 416.807 897.836 413.66L899.391 413.785C899.144 416.89 899.019 420.053 899.019 423.188V423.473H899.015ZM1132.79 423.044C1132.79 419.909 1132.66 416.743 1132.41 413.641L1133.97 413.516C1134.22 416.659 1134.35 419.867 1134.36 423.044H1132.8H1132.79ZM900.509 404.442L898.97 404.196C899.474 401.068 900.111 397.925 900.866 394.849L902.379 395.221C901.635 398.254 901.006 401.356 900.506 404.442H900.509ZM1131.27 404.302C1130.77 401.22 1130.14 398.118 1129.39 395.085L1130.91 394.713C1131.66 397.788 1132.31 400.931 1132.81 404.056L1131.27 404.306V404.302ZM904.995 386.182L903.516 385.689C904.517 382.686 905.655 379.687 906.902 376.763L908.339 377.378C907.111 380.259 905.988 383.224 904.999 386.186L904.995 386.182ZM1126.77 386.045C1125.78 383.088 1124.65 380.134 1123.43 377.256L1124.86 376.642C1126.11 379.554 1127.25 382.553 1128.25 385.549L1126.77 386.045H1126.77ZM912.377 368.869L910.997 368.141C912.472 365.339 914.076 362.56 915.775 359.883L917.094 360.717C915.422 363.36 913.833 366.101 912.381 368.869H912.377ZM1119.38 368.767C1117.92 366.002 1116.33 363.265 1114.66 360.63L1115.98 359.792C1117.68 362.465 1119.28 365.24 1120.76 368.039L1119.38 368.767V368.767ZM922.444 352.978L921.197 352.038C923.1 349.505 925.132 347.021 927.233 344.652L928.401 345.687C926.331 348.026 924.325 350.476 922.444 352.978ZM1109.3 352.895C1107.42 350.396 1105.41 347.947 1103.34 345.611L1104.51 344.576C1106.61 346.942 1108.64 349.422 1110.55 351.954L1109.31 352.895H1109.3ZM934.919 338.9L933.838 337.774C936.121 335.582 938.521 333.451 940.974 331.445L941.96 332.655C939.541 334.634 937.171 336.735 934.919 338.9ZM1096.81 338.831C1094.56 336.666 1092.19 334.57 1089.76 332.59L1090.75 331.381C1093.2 333.383 1095.61 335.51 1097.89 337.702L1096.81 338.828V338.831ZM949.479 326.998L948.591 325.716C951.193 323.915 953.904 322.197 956.645 320.612L957.426 321.962C954.723 323.528 952.05 325.223 949.479 326.998V326.998ZM1082.24 326.937C1079.66 325.159 1076.98 323.464 1074.28 321.905L1075.06 320.556C1077.8 322.137 1080.51 323.854 1083.12 325.655L1082.24 326.941V326.937ZM965.745 317.579L965.074 316.169C967.929 314.811 970.879 313.552 973.836 312.426L974.39 313.886C971.47 314.997 968.558 316.241 965.741 317.579H965.745ZM1065.94 317.526C1063.11 316.188 1060.2 314.944 1057.28 313.837L1057.83 312.377C1060.79 313.499 1063.75 314.758 1066.61 316.116L1065.94 317.526H1065.94ZM983.316 310.902L982.88 309.404C985.92 308.525 989.037 307.759 992.139 307.125L992.45 308.654C989.39 309.279 986.315 310.034 983.312 310.902H983.316ZM1048.35 310.864C1045.35 310 1042.27 309.245 1039.21 308.627L1039.52 307.099C1042.63 307.728 1045.74 308.49 1048.78 309.366L1048.35 310.864H1048.35ZM1001.74 307.148L1001.56 305.597C1004.7 305.218 1007.89 304.96 1011.06 304.835L1011.12 306.394C1008 306.519 1004.84 306.773 1001.74 307.148V307.148ZM1029.92 307.133C1026.82 306.762 1023.66 306.511 1020.53 306.39L1020.6 304.832C1023.77 304.957 1026.96 305.207 1030.1 305.582L1029.92 307.133V307.133Z" fill="#14475F"/>
<path d="M595.583 815.372H595.295C592.265 815.372 589.209 815.296 586.21 815.144L586.286 813.586C589.258 813.734 592.292 813.81 595.291 813.81H595.579V815.368L595.583 815.372ZM604.96 815.114L604.876 813.555C607.963 813.392 611.079 813.146 614.143 812.824L614.306 814.375C611.22 814.701 608.076 814.947 604.96 815.114ZM576.863 814.435C573.758 814.117 570.63 813.715 567.562 813.237L567.801 811.694C570.842 812.168 573.944 812.566 577.019 812.881L576.86 814.431L576.863 814.435ZM623.603 813.146L623.357 811.607C626.409 811.121 629.484 810.549 632.495 809.908L632.821 811.436C629.784 812.084 626.682 812.661 623.603 813.15V813.146ZM558.337 811.554C555.3 810.917 552.229 810.188 549.215 809.388L549.613 807.879C552.604 808.672 555.645 809.396 558.656 810.025L558.337 811.554ZM641.94 809.237L641.534 807.732C644.507 806.931 647.502 806.04 650.444 805.081L650.93 806.564C647.965 807.531 644.939 808.433 641.94 809.237V809.237ZM540.217 806.742C537.24 805.783 534.26 804.732 531.352 803.618L531.909 802.162C534.791 803.265 537.749 804.304 540.695 805.256L540.217 806.742ZM659.761 803.42L659.199 801.964C662.066 800.857 664.948 799.659 667.765 798.4L668.402 799.826C665.562 801.096 662.654 802.306 659.761 803.42ZM522.665 800.038C519.814 798.772 516.959 797.414 514.183 796.004L514.889 794.612C517.641 796.011 520.47 797.357 523.295 798.613L522.662 800.038H522.665ZM676.842 795.776L676.129 794.389C678.874 792.982 681.616 791.488 684.278 789.941L685.062 791.291C682.374 792.849 679.61 794.358 676.842 795.776V795.776ZM505.929 791.526C503.233 789.971 500.541 788.322 497.921 786.627L498.77 785.319C501.364 787.002 504.037 788.637 506.71 790.176L505.929 791.526V791.526ZM693.04 786.381L692.187 785.073C694.765 783.393 697.336 781.615 699.831 779.798L700.749 781.057C698.231 782.892 695.637 784.686 693.036 786.381H693.04ZM490.186 781.315C487.664 779.484 485.158 777.565 482.735 775.609L483.717 774.395C486.114 776.333 488.601 778.236 491.1 780.052L490.186 781.315V781.315ZM708.18 775.343L707.194 774.134C709.587 772.192 711.96 770.156 714.254 768.09L715.301 769.246C712.988 771.332 710.592 773.387 708.18 775.347V775.343ZM475.599 769.523C473.279 767.437 470.989 765.269 468.79 763.073L469.893 761.97C472.073 764.142 474.344 766.296 476.646 768.363L475.603 769.523H475.599ZM722.096 762.781L720.992 761.678C723.176 759.49 725.326 757.219 727.389 754.929L728.549 755.971C726.471 758.284 724.299 760.575 722.099 762.777L722.096 762.781ZM462.321 756.282C460.236 753.973 458.18 751.577 456.22 749.165L457.43 748.18C459.375 750.572 461.411 752.946 463.481 755.236L462.325 756.282H462.321ZM734.635 748.836L733.421 747.854C735.363 745.457 737.266 742.974 739.082 740.471L740.345 741.389C738.514 743.91 736.591 746.416 734.635 748.836V748.836ZM450.499 741.741C448.667 739.231 446.874 736.638 445.171 734.033L446.476 733.18C448.163 735.762 449.941 738.336 451.757 740.824L450.499 741.745V741.741ZM745.661 733.658L744.353 732.808C746.036 730.218 747.67 727.549 749.214 724.872L750.563 725.653C749.005 728.349 747.356 731.045 745.657 733.658H745.661ZM440.253 726.055C438.695 723.371 437.182 720.603 435.764 717.835L437.152 717.122C438.559 719.863 440.056 722.605 441.603 725.27L440.253 726.055V726.055ZM755.041 717.399L753.654 716.69C755.053 713.941 756.399 711.116 757.658 708.287L759.083 708.921C757.813 711.776 756.456 714.627 755.041 717.399V717.399ZM431.711 709.398C430.437 706.558 429.227 703.654 428.109 700.761L429.565 700.2C430.672 703.066 431.874 705.948 433.133 708.761L431.711 709.398ZM762.67 700.238L761.214 699.68C762.318 696.799 763.36 693.841 764.316 690.895L765.798 691.377C764.839 694.349 763.785 697.33 762.67 700.238V700.238ZM424.962 691.926C423.991 688.958 423.092 685.936 422.285 682.94L423.79 682.534C424.59 685.503 425.481 688.503 426.444 691.441L424.962 691.926ZM768.449 682.379L766.94 681.977C767.732 678.993 768.456 675.948 769.093 672.934L770.621 673.256C769.981 676.297 769.253 679.368 768.453 682.379H768.449ZM420.086 673.825C419.437 670.788 418.857 667.686 418.368 664.607L419.907 664.361C420.393 667.413 420.965 670.488 421.61 673.499L420.086 673.825V673.825ZM772.309 664.035L770.765 663.796C771.239 660.759 771.641 657.657 771.956 654.579L773.507 654.738C773.188 657.843 772.783 660.971 772.305 664.039L772.309 664.035ZM417.136 655.314C416.806 652.216 416.556 649.073 416.389 645.968L417.947 645.884C418.11 648.963 418.36 652.08 418.686 655.147L417.136 655.31V655.314ZM774.223 645.391L772.665 645.312C772.817 642.294 772.896 639.234 772.896 636.208V636.015H774.455V636.197C774.455 639.256 774.379 642.343 774.223 645.388V645.391ZM417.689 636.595H416.131V636.215C416.131 633.095 416.21 629.944 416.37 626.839L417.928 626.918C417.769 629.997 417.689 633.121 417.689 636.212V636.595ZM772.646 626.725C772.483 623.639 772.24 620.518 771.918 617.458L773.469 617.295C773.795 620.385 774.041 623.529 774.204 626.642L772.646 626.725ZM418.649 617.651L417.098 617.488C417.42 614.391 417.826 611.263 418.311 608.191L419.854 608.434C419.377 611.479 418.971 614.58 418.652 617.651H418.649ZM770.709 608.244C770.227 605.196 769.658 602.121 769.014 599.106L770.542 598.78C771.186 601.821 771.763 604.923 772.248 608.002L770.709 608.244V608.244ZM421.534 599.292L420.006 598.97C420.651 595.925 421.382 592.858 422.186 589.851L423.691 590.253C422.895 593.233 422.167 596.274 421.53 599.292H421.534ZM766.845 590.063C766.045 587.079 765.154 584.084 764.198 581.153L765.681 580.671C766.644 583.629 767.543 586.651 768.35 589.661L766.845 590.063ZM426.33 581.335L424.848 580.853C425.815 577.877 426.869 574.897 427.984 571.992L429.44 572.55C428.332 575.427 427.286 578.381 426.33 581.331V581.335ZM761.089 572.39C759.982 569.52 758.788 566.638 757.529 563.825L758.954 563.188C760.221 566.024 761.43 568.932 762.545 571.829L761.089 572.39ZM433.008 563.95L431.582 563.313C432.852 560.462 434.217 557.61 435.631 554.839L437.019 555.548C435.616 558.293 434.266 561.121 433.004 563.946L433.008 563.95ZM753.521 555.457C752.118 552.712 750.624 549.97 749.081 547.305L750.431 546.524C751.989 549.212 753.494 551.98 754.912 554.748L753.525 555.457H753.521ZM441.471 547.377L440.121 546.596C441.679 543.904 443.332 541.211 445.035 538.595L446.343 539.448C444.656 542.038 443.018 544.707 441.471 547.377V547.377ZM744.216 539.395C742.533 536.813 740.758 534.239 738.942 531.747L740.205 530.83C742.036 533.344 743.826 535.941 745.524 538.546L744.216 539.399V539.395ZM451.617 531.785L450.354 530.868C452.193 528.346 454.116 525.844 456.072 523.429L457.282 524.411C455.34 526.803 453.433 529.283 451.613 531.785H451.617ZM733.277 524.38C731.332 521.984 729.3 519.607 727.237 517.32L728.397 516.274C730.479 518.583 732.53 520.979 734.491 523.398L733.281 524.38H733.277ZM463.33 517.343L462.169 516.296C464.251 513.987 466.424 511.697 468.626 509.494L469.73 510.598C467.546 512.782 465.392 515.049 463.33 517.339V517.343ZM720.833 510.579C718.657 508.402 716.385 506.248 714.088 504.182L715.13 503.022C717.447 505.111 719.737 507.28 721.936 509.475L720.833 510.579V510.579ZM476.475 504.201L475.433 503.041C477.749 500.955 480.146 498.904 482.557 496.951L483.539 498.165C481.147 500.102 478.769 502.135 476.475 504.201V504.201ZM707.02 498.142C704.62 496.197 702.136 494.29 699.641 492.477L700.559 491.215C703.077 493.042 705.579 494.968 708.002 496.929L707.02 498.142V498.142ZM490.91 492.504L489.993 491.241C492.51 489.41 495.107 487.62 497.712 485.929L498.562 487.237C495.98 488.917 493.405 490.688 490.91 492.504V492.504ZM691.978 487.203C689.385 485.516 686.716 483.881 684.046 482.338L684.827 480.988C687.519 482.543 690.211 484.196 692.828 485.899L691.978 487.207V487.203ZM506.475 482.376L505.694 481.026C508.378 479.472 511.146 477.966 513.918 476.548L514.627 477.936C511.874 479.339 509.133 480.833 506.475 482.372V482.376ZM675.868 477.891C673.122 476.488 670.294 475.138 667.465 473.879L668.102 472.453C670.954 473.724 673.805 475.085 676.577 476.499L675.868 477.887V477.891ZM522.999 473.936L522.362 472.51C525.206 471.24 528.11 470.034 531.007 468.923L531.564 470.379C528.698 471.483 525.816 472.677 522.999 473.936ZM658.858 470.319C655.973 469.212 653.019 468.169 650.073 467.213L650.554 465.731C653.523 466.694 656.504 467.744 659.416 468.863L658.858 470.319V470.319ZM540.327 467.274L539.845 465.791C542.803 464.828 545.825 463.933 548.835 463.13L549.237 464.635C546.253 465.435 543.254 466.322 540.327 467.274ZM641.159 464.582C638.175 463.786 635.134 463.061 632.119 462.424L632.442 460.896C635.483 461.537 638.554 462.269 641.564 463.073L641.162 464.578L641.159 464.582ZM558.277 462.466L557.954 460.938C560.999 460.294 564.101 459.721 567.176 459.236L567.418 460.775C564.37 461.257 561.295 461.825 558.277 462.462V462.466ZM622.974 460.749C619.922 460.271 616.82 459.869 613.756 459.554L613.916 458.003C617.01 458.322 620.138 458.728 623.213 459.209L622.974 460.752V460.749ZM576.632 459.573L576.469 458.022C579.563 457.7 582.706 457.454 585.816 457.291L585.895 458.849C582.813 459.008 579.696 459.251 576.628 459.573H576.632ZM604.486 458.841C601.437 458.686 598.343 458.606 595.291 458.606L595.192 457.048H595.291C598.374 457.048 601.494 457.127 604.565 457.283L604.486 458.841Z" fill="#396C8A"/>
<path d="M978.81 406.293C978.81 411.957 978.575 417.562 978.056 423.086C969.555 518.109 889.706 592.642 792.461 592.642C773.386 592.642 754.969 589.76 737.623 584.44H737.592C733.926 583.307 730.305 582.078 726.714 580.724V580.694C726.714 580.694 726.699 580.679 726.684 580.679C656.215 554.126 606.082 486.05 606.082 406.293C606.082 396.453 606.852 386.838 608.315 377.442C619.994 302.204 676.721 241.825 750.04 224.793C754.715 223.69 759.47 222.761 764.286 222.021C773.461 220.653 782.876 219.913 792.461 219.913C799.779 219.913 807.021 220.338 814.119 221.172C841.666 224.353 867.37 233.544 889.877 247.395C943.252 280.167 978.81 339.082 978.81 406.293V406.293Z" fill="#F7FCFF"/>
<path d="M737.588 584.44C733.922 583.307 730.3 582.078 726.71 580.724C726.71 580.724 726.695 580.709 726.679 580.679C726.05 579.595 715.835 562.104 705.825 555.794C695.466 549.295 676.33 534.356 671.731 521.355C667.135 508.307 637.636 495.681 643.02 476.541C648.04 458.504 644.643 458.519 650.448 454.708C650.808 454.473 651.203 454.234 651.627 453.969C654.475 448.964 663.306 440.903 670.957 436.323C678.624 431.727 692.41 432.512 700.062 439.769C707.729 447.042 716.541 445.138 716.541 454.689C716.541 464.241 717.674 486.486 714.212 502.176C710.781 517.885 717.28 541.261 724.207 546.99C731.04 552.689 735.381 583.508 737.588 584.437V584.44Z" fill="#CFEEFF"/>
<path d="M750.041 224.793C750.086 232.24 727.643 238.235 723.048 253.125C718.452 267.984 698.538 272.58 697.014 278.184C695.471 283.788 704.146 285.786 714.376 285.047C724.576 284.307 731.234 287.614 727.128 302.299C723.051 316.999 716.408 334.85 710.789 334.331C705.185 333.842 701.079 327.233 702.618 322.637C704.146 318.011 713.337 303.432 704.146 302.302C694.955 301.169 694.466 313.935 687.304 319.02C680.156 324.135 682.708 330.304 689.351 334.365C695.994 338.441 705.185 340.473 706.194 345.069C707.217 349.664 703.141 349.16 698.023 361.911C692.938 374.693 682.219 392.055 670.965 391.536C659.727 391.016 652.595 396.651 650.536 401.246C648.522 405.842 643.028 403.214 641.864 410.437C640.92 416.401 639.976 422.165 641.864 426.006C643.768 429.831 644.572 437.479 646.649 440.361C648.758 443.243 653.543 449.931 651.639 453.977C651.37 454.542 650.964 454.765 650.46 454.716C647.389 454.466 640.56 444.187 637.269 440.55C633.443 436.33 623.858 433.263 621.954 425.596C620.066 417.944 622.144 407.43 613.533 399.957C604.922 392.48 614.117 391.9 608.937 379.288C608.718 378.784 608.513 378.185 608.323 377.446C620.002 302.208 676.729 241.829 750.048 224.797L750.041 224.793Z" fill="#CFEEFF"/>
<path d="M800 268.219C795.798 274.752 777.428 287.375 771.699 284.683C765.939 282.006 777.018 274.752 768.631 258.27C760.18 241.791 754.056 242.576 757.503 236.062C759.107 233.055 761.833 227.356 764.286 222.021C773.462 220.653 782.876 219.913 792.462 219.913C799.78 219.913 807.022 220.338 814.12 221.172C809.979 225.737 801.167 232.6 800 242.58C798.866 252.51 804.22 261.705 800 268.219V268.219Z" fill="#CFEEFF"/>
<path d="M836.392 282.267C838.235 280.341 842.008 288.14 844.817 297.328C847.627 306.519 848.901 309.325 842.266 314.178C835.63 319.031 838.182 322.091 834.095 322.603C830.007 323.115 825.923 313.924 825.415 307.031C824.903 300.137 827.201 296.778 834.095 302.416C840.988 308.051 830.777 288.14 836.392 282.267V282.267Z" fill="#CFEEFF"/>
<path d="M919.869 496.455C916.225 495.935 912.722 498.753 908.38 504.626C904.039 510.499 903.019 510.499 904.551 515.603C906.082 520.71 896.38 531.941 898.935 539.6C901.487 547.259 916.805 524.282 917.317 517.772C917.829 511.261 927.016 497.479 919.869 496.455Z" fill="#CFEEFF"/>
<path d="M978.811 406.296C978.811 411.965 978.564 417.569 978.045 423.086C968.517 419.685 962.636 413.099 955.5 410.282C946.677 406.85 928.295 414.509 922.937 422.934C917.576 431.359 920.886 449.495 916.81 450.261C912.734 451.027 904.035 453.571 902.504 470.175C900.972 486.748 898.428 491.863 892.3 503.871C886.173 515.849 887.951 532.453 885.926 536.529C883.875 540.635 875.45 545.231 870.089 553.652C864.727 562.077 856.302 566.396 850.421 566.396C844.54 566.396 855.783 554.418 844.571 538.823C833.328 523.262 839.456 514.837 839.698 510.241C839.975 505.646 835.869 492.872 820.827 487.51C805.755 482.149 797.33 469.651 795.799 456.877C794.267 444.133 803.458 433.134 811.636 424.22C819.785 415.275 821.84 403.267 832.039 399.191C842.269 395.115 855.783 407.093 869.565 408.625C883.352 410.156 894.594 388.222 894.594 385.924C894.594 383.626 886.935 372.384 881.574 377.988C876.212 383.626 872.902 385.401 859.362 380.039C845.822 374.678 840.214 381.325 830.261 380.559C820.304 379.793 825.419 369.316 818.253 376.452C811.113 383.622 804.743 385.397 804.466 376.452C804.22 367.538 808.296 360.368 816.475 352.709C824.653 345.05 841.503 354.241 836.388 343.029C831.273 331.786 834.337 324.647 851.707 321.064C869.076 317.48 897.138 305.745 899.709 299.618C902.253 293.491 876.212 291.439 879.276 282.248C882.309 273.182 886.844 260.404 889.874 247.388C943.237 280.167 978.807 339.078 978.807 406.289L978.811 406.296Z" fill="#CFEEFF"/>
<path d="M1168.3 514.826C1168.3 522.015 1167.98 529.094 1167.36 536.036C1161.47 602.064 1128.47 655.553 1085.32 671.512C1078.91 673.89 1072.3 675.429 1065.51 676.059C1063.16 676.286 1060.81 676.396 1058.42 676.396C1049.14 676.396 1040.13 674.705 1031.53 671.512C988.381 655.553 955.367 602.064 949.482 536.036C948.857 529.094 948.538 522.015 948.538 514.826C948.538 507.637 948.857 500.558 949.482 493.615H1167.36C1167.98 500.558 1168.3 507.637 1168.3 514.826H1168.3Z" fill="white"/>
<path d="M1158.36 514.826C1158.36 521.658 1158.06 528.487 1157.46 535.141C1156.15 549.728 1153.49 563.613 1149.67 576.508C1133.93 629.857 1098.52 666.454 1058.43 666.454C1021.79 666.454 989.057 635.897 971.673 589.916L971.661 589.904C965.428 573.407 961.151 554.922 959.392 535.153C958.796 528.498 958.485 521.658 958.485 514.826C958.485 511.057 958.576 507.299 958.762 503.561H1158.08C1158.27 507.299 1158.36 511.057 1158.36 514.826H1158.36Z" fill="#88A2AE"/>
<path d="M1180.08 493.615H936.777V536.036H1180.08V493.615Z" fill="#584D5D"/>
<g style="mix-blend-mode:multiply">
<path d="M1180.08 493.615V536.036H936.777V525.514H1152.07C1173.7 525.514 1169.47 506.37 1169.47 493.615H1180.08H1180.08Z" fill="#C3ABCF"/>
</g>
<path d="M1168.3 828.215C1168.3 831.805 1168.22 835.373 1168.06 838.903C1167.91 842.445 1167.68 845.952 1167.36 849.425H949.486C948.898 842.922 948.58 836.31 948.549 829.587C948.538 829.128 948.538 828.673 948.538 828.215C948.538 821.026 948.857 813.947 949.482 807.004C955.371 740.976 988.385 687.487 1031.53 671.516C1040.13 668.335 1049.14 666.644 1058.42 666.644H1058.6C1067.82 666.663 1076.77 668.354 1085.32 671.516C1128.47 687.487 1161.47 740.976 1167.36 807.004C1167.98 813.947 1168.3 821.026 1168.3 828.215V828.215Z" fill="white"/>
<path d="M1073.97 679.141H1044.98C1053.65 674.06 1053.65 668.979 1044.98 663.898H1073.97C1064.43 668.979 1064.43 674.06 1073.97 679.141Z" fill="#88A2AE"/>
<path d="M1158.36 828.214C1158.36 831.983 1158.27 835.741 1158.08 839.479H958.764C958.575 835.741 958.487 831.983 958.487 828.214C958.487 821.382 958.794 814.541 959.394 807.887C960.478 795.735 962.507 784.072 965.362 773.064C967.151 766.152 969.259 759.49 971.667 753.135L971.679 753.124C989.06 707.142 1021.8 676.585 1058.43 676.585C1086.71 676.585 1112.67 694.793 1131.02 724.247C1138.7 736.547 1145.04 750.819 1149.68 766.528C1153.5 779.427 1156.16 793.308 1157.46 807.895C1158.06 814.549 1158.37 821.378 1158.37 828.21L1158.36 828.214Z" fill="#88A2AE"/>
<path d="M1158.36 828.214C1158.36 831.983 1158.27 835.741 1158.08 839.479H958.764C958.575 835.741 958.487 831.983 958.487 828.214C958.487 821.382 958.794 814.541 959.394 807.887C960.478 795.735 962.507 784.072 965.362 773.064C1000.42 739.561 1026.51 740.263 1061.91 758.034C1106.99 780.667 1135.17 744.039 1131.02 724.25C1138.7 736.551 1145.04 750.822 1149.67 766.531C1153.49 779.431 1156.16 793.312 1157.46 807.898C1158.05 814.553 1158.37 821.382 1158.37 828.214H1158.36Z" fill="#14475F"/>
<path d="M1180.08 807.004H936.777V849.425H1180.08V807.004Z" fill="#584D5D"/>
<g style="mix-blend-mode:multiply">
<path d="M1180.08 838.903V849.425H936.777V807.004H947.386C947.386 814.014 946.112 822.955 948.55 829.587C950.549 835.016 955.046 838.903 964.79 838.903H1180.08H1180.08Z" fill="#C3ABCF"/>
</g>
<path d="M1149.67 576.512C1133.93 629.861 1098.52 666.458 1058.43 666.458C1021.79 666.458 989.058 635.901 971.673 589.919C987.613 607.429 1017.83 616.252 1052.13 589.908C1086.43 563.556 1129.19 560.075 1149.67 576.512V576.512Z" fill="#14475F"/>
<path d="M1027.55 585.628C1040.49 581.487 1049.08 572.161 1046.72 564.8C1044.37 557.438 1031.96 554.827 1019.02 558.969C1006.07 563.111 997.484 572.436 999.839 579.798C1002.19 587.16 1014.6 589.77 1027.55 585.628Z" fill="#14475F"/>
<g style="mix-blend-mode:multiply">
<path d="M1085.32 671.516C1128.47 687.487 1161.47 740.976 1167.36 807.004H1180.08V849.425H1102.45C1102.45 845.853 1102.42 842.353 1102.35 838.903C1102.16 827.627 1101.66 816.995 1100.93 807.004C1095.39 732.365 1076.09 692.666 1065.52 676.059C1061.89 670.36 1059.28 667.387 1058.6 666.64C1058.49 666.511 1058.42 666.45 1058.42 666.45C1086.5 646.514 1099.87 594.177 1102.11 536.032C1102.65 522.102 1102.54 507.841 1101.85 493.611H1180.08V536.032H1167.36C1161.47 602.06 1128.47 655.549 1085.32 671.509V671.516Z" fill="#88A2AE"/>
</g>
<path d="M608.477 820.021H520.222V834.725H608.477V820.021Z" fill="#264E62"/>
<path d="M615.624 827.938H513.078V849.425H615.624V827.938Z" fill="#1D3B4A"/>
<path d="M608.475 733.578C606.28 757.625 592.979 768.435 594.405 781.668C595.853 794.878 606.576 820.009 606.576 820.009H522.882C522.678 816.142 524.285 785.061 539.213 767.847C547.923 757.803 572.375 744.616 551.79 724.349C548.916 721.498 542.607 728.421 543.217 738.033C543.828 747.622 521.771 751.717 519.307 745.996C516.865 740.274 516.255 733.123 519.307 729.665C522.382 726.181 526.454 715.958 525.844 706.164C525.593 702.16 527.63 694.945 532.29 687.998V687.976C537.378 677.727 528.104 664.293 534.212 664.088C539.278 663.906 547.354 669.021 550.747 672.638C550.763 672.654 550.778 672.669 550.793 672.684C550.998 672.593 551.472 672.434 551.517 672.434C553.417 671.755 563.81 669.014 573.232 673.067C592.899 681.526 611.956 695.597 608.475 733.578V733.578Z" fill="#396C8A"/>
<path d="M556.558 725.559C561.043 725.559 565.863 723.682 569.438 720.315C573.943 716.076 575.558 710.464 573.871 704.917L573.112 705.148C574.708 710.396 573.173 715.716 568.896 719.739C564.16 724.19 557.183 725.934 551.928 723.974L551.651 724.717C553.179 725.286 554.844 725.559 556.558 725.559V725.559Z" fill="#1D3B4A"/>
<path d="M532.62 688.211L532.813 687.926C538.319 679.907 542.672 673.571 532.567 663.792L532.017 664.361C541.64 673.674 537.663 679.463 532.161 687.479L531.968 687.763L532.62 688.211Z" fill="#1D3B4A"/>
<path d="M572.739 820.127C566.98 800.93 565.217 787.302 567.351 778.457C570.988 763.305 577.744 754.342 583.701 746.436C590.507 737.404 596.384 729.605 596.384 715.102C596.384 703.507 590.723 692.537 580.44 684.218C572.015 677.405 561.133 672.999 552.712 672.999C552.063 672.999 551.426 673.025 550.827 673.082C550.744 673.09 550.683 673.094 550.642 673.094L550.232 673.086L550.198 672.73C550.16 672.358 550.543 672.282 550.623 672.267C550.767 672.218 551.006 672.146 551.335 672.074L551.476 672.043C552.814 671.751 555.298 671.27 558.365 670.709C559.332 670.637 560.326 670.603 561.311 670.603C565.831 670.603 570.119 671.35 573.384 672.707C591.804 680.359 612.484 694.194 608.87 733.62C607.721 746.224 603.623 755.024 600.005 762.789C596.851 769.561 594.128 775.408 594.799 781.634C596.225 794.636 606.834 819.611 606.94 819.862L607.175 820.411H572.827L572.743 820.131L572.739 820.127Z" fill="#264E62"/>
<path d="M448.794 406.278C470.099 420.53 508.475 443.462 533.746 451.417C559.018 459.372 608.154 515.997 608.154 520.21C608.154 524.422 606.872 534.857 582.537 525.029C558.202 515.201 547.358 494.411 528.764 492.072C510.169 489.732 445.298 471.073 445.298 471.073L448.794 406.278V406.278Z" fill="#623A39"/>
<path d="M447.603 560.583C456.529 571.219 465.424 587.595 468.23 596.957C471.039 606.315 440.152 612.4 434.537 628.31C428.922 644.22 432.198 648.432 434.537 650.305C436.876 652.179 469.636 638.138 477.121 634.862C484.61 631.586 528.131 616.143 526.728 599.296C525.325 582.45 497.244 541.269 497.244 541.269L447.603 560.583V560.583Z" fill="#623A39"/>
<path d="M495.037 581.096C496.307 592.744 499.583 600.703 498.18 603.975C496.778 607.251 468.029 631.392 461.477 649.407C455.232 666.583 456.4 681.89 466.494 687.297C480.216 694.649 518.307 613.333 518.307 613.333L512.225 573.554L495.041 581.092L495.037 581.096Z" fill="#623A39"/>
<path d="M538.057 637.698C525.605 660.528 482.152 721.554 479.343 720.5C476.533 719.446 466.356 714.183 466.004 692.423C465.651 670.663 502.855 619.069 504.611 609.59C506.366 600.115 497.592 581.862 491.977 578.002C486.361 574.142 434.768 551.328 413.709 557.296C392.65 563.264 387.736 604.676 385.632 613.803C383.527 622.929 405.288 672.066 408.094 689.613C410.903 707.161 399.669 738.75 388.438 728.433C377.207 718.115 337.193 634.16 309.116 593.445C281.039 552.73 279.632 505.699 281.039 459.372C282.442 413.042 268.011 382.534 256.078 360.072L361.414 273C361.414 273 386.462 328.651 408.192 345.652C424.94 358.753 427.989 375.375 431.723 386.128C435.473 396.897 513.388 467.793 522.166 477.974C529.298 486.259 543.631 540.506 549.485 568.204C550.55 573.243 551.339 577.388 551.745 580.235H551.76C551.858 580.994 551.942 581.653 551.999 582.214C553.402 596.604 547.085 621.174 538.057 637.698V637.698Z" fill="#914F4E"/>
<path d="M382.747 258.914C356.421 317.568 310.694 356.902 250.201 381.541L212.072 328.461C274.912 305.715 319.388 265.125 344.618 205.835L382.747 258.914V258.914Z" fill="white"/>
<g style="mix-blend-mode:multiply">
<path d="M551.745 580.235C551.506 580.068 551.324 579.83 551.226 579.519C543.87 555.961 516.448 531.141 498.298 514.7C491.966 508.971 486.953 504.436 484.356 501.334C483.852 500.743 483.935 499.859 484.523 499.355C485.114 498.862 486.013 498.949 486.502 499.537C488.974 502.487 493.915 506.95 500.175 512.622C515.914 526.871 538.558 547.354 549.482 568.204C550.547 573.243 551.336 577.388 551.741 580.235H551.745Z" fill="#88A2AE"/>
</g>
<g style="mix-blend-mode:multiply">
<path d="M384.229 702.603C383.925 702.603 383.622 702.471 383.413 702.217C383.053 701.773 382.678 701.307 382.287 700.821C379.561 697.401 376.168 693.143 372.744 693.064C371.189 693.018 369.726 693.845 368.224 695.559C367.841 695.998 367.174 696.04 366.738 695.657C366.302 695.274 366.256 694.611 366.639 694.171C368.546 691.991 370.571 690.94 372.789 690.955C377.199 691.058 380.93 695.741 383.933 699.506C384.316 699.983 384.684 700.446 385.036 700.882C385.404 701.333 385.34 701.997 384.888 702.365C384.695 702.524 384.456 702.603 384.221 702.603H384.229Z" fill="#88A2AE"/>
</g>
<g style="mix-blend-mode:multiply">
<path d="M482.267 702.604C482.02 702.604 481.77 702.517 481.573 702.342C481.137 701.959 481.091 701.292 481.478 700.856C482.055 700.204 482.616 699.533 483.181 698.869C487.75 693.451 492.478 687.847 502.575 691.009C503.129 691.183 503.44 691.775 503.265 692.328C503.091 692.882 502.495 693.193 501.946 693.018C493.179 690.277 489.293 694.888 484.788 700.226C484.216 700.905 483.643 701.584 483.059 702.251C482.851 702.486 482.559 702.608 482.267 702.608V702.604Z" fill="#88A2AE"/>
</g>
<g style="mix-blend-mode:multiply">
<path d="M597.389 517.517C597.093 517.517 596.797 517.392 596.589 517.149C596.327 516.842 596.066 516.55 595.808 516.262C593.252 513.403 590.837 510.7 592.975 501.493C593.104 500.925 593.669 500.576 594.238 500.705C594.803 500.837 595.156 501.402 595.027 501.967C593.135 510.108 595.008 512.205 597.378 514.855C597.647 515.155 597.916 515.458 598.189 515.777C598.568 516.216 598.515 516.884 598.075 517.263C597.878 517.434 597.632 517.517 597.389 517.517V517.517Z" fill="#88A2AE"/>
</g>
<path d="M489.114 815.804H384.024C413.057 808.024 432.334 716.231 417.467 706.532H456.146C444.608 715.841 455.846 807.553 489.114 815.804Z" fill="#352437"/>
<path d="M492.098 831.107H381.04V811.781H492.098V831.107Z" fill="#584D5D"/>
<path d="M500.516 822.151H372.623V848.951H500.516V822.151Z" fill="#352437"/>
<path d="M465.814 684.81C465.814 700.973 452.725 714.066 436.557 714.066C435.033 714.066 433.566 713.952 432.098 713.729H432.072C418.05 711.556 407.301 699.453 407.301 684.813C407.301 668.676 420.42 655.587 436.557 655.587C441.862 655.587 446.825 656.998 451.114 659.451C459.887 664.501 465.81 673.95 465.81 684.813L465.814 684.81Z" fill="#584D5D"/>
<g style="mix-blend-mode:multiply">
<path d="M436.562 714.559C435.019 714.559 433.532 714.445 432.031 714.214L430.048 713.907L431.947 713.258C457.932 704.378 453.715 679.721 451.452 666.469C450.917 663.337 450.493 660.861 450.629 659.401L450.701 658.635L451.368 659.018C460.586 664.323 466.315 674.208 466.315 684.809C466.315 701.212 452.969 714.559 436.566 714.559H436.562Z" fill="#C3ABCF"/>
</g>
<path d="M322.822 814.636H231.989C264.81 807.474 260.294 684.593 263.312 585.051H291.503C294.897 684.62 290.718 806.226 322.826 814.636H322.822Z" fill="#396C8A"/>
<path d="M334.467 812.437H220.35V830.823H334.467V812.437Z" fill="#264E62"/>
<path d="M343.704 822.337H211.109V849.208H343.704V822.337Z" fill="#1D3B4A"/>
<path d="M303 549.261C303 577.377 291.534 583.853 277.406 583.853C270.562 583.853 264.363 582.355 259.741 577.574C254.857 572.512 251.816 563.772 251.816 549.261C251.816 521.146 267.726 498.351 277.41 498.351C281.623 498.351 286.859 502.453 291.508 509.354C297.794 518.689 303.004 533.086 303.004 549.261H303Z" fill="#396C8A"/>
<path d="M302.999 549.261C302.999 577.376 291.533 583.852 277.406 583.852C270.562 583.852 264.362 582.355 259.74 577.573C291.181 564.223 291.651 520.41 291.503 509.354C297.79 518.689 302.999 533.086 302.999 549.261Z" fill="#264E62"/>
<path d="M289.404 499.609H265.414C263.255 499.609 261.505 501.359 261.505 503.518V505.452C261.505 507.611 263.255 509.361 265.414 509.361H289.404C291.563 509.361 293.313 507.611 293.313 505.452V503.518C293.313 501.359 291.563 499.609 289.404 499.609Z" fill="#1D3B4A"/>
<path d="M254.274 568.333L254.183 567.313C277.79 565.201 288.979 518.617 288.827 509.369L289.851 509.354C289.976 516.986 279.78 566.054 254.274 568.333Z" fill="#264E62"/>
<path d="M296.911 568.879H257.907C255.021 568.879 252.682 571.218 252.682 574.104V575.006C252.682 577.892 255.021 580.231 257.907 580.231H296.911C299.797 580.231 302.136 577.892 302.136 575.006V574.104C302.136 571.218 299.797 568.879 296.911 568.879Z" fill="#1D3B4A"/>
<path d="M296.539 574.4H258.273C253.704 574.4 250 578.104 250 582.673V584.804C250 589.373 253.704 593.078 258.273 593.078H296.539C301.108 593.078 304.812 589.373 304.812 584.804V582.673C304.812 578.104 301.108 574.4 296.539 574.4Z" fill="#264E62"/>
<path d="M277.406 499.989C283.462 499.989 288.371 495.079 288.371 489.023C288.371 482.967 283.462 478.058 277.406 478.058C271.35 478.058 266.44 482.967 266.44 489.023C266.44 495.079 271.35 499.989 277.406 499.989Z" fill="#264E62"/>
<path d="M289.074 462.394C285.779 463.183 282.487 463.634 279.193 463.778C279.337 460.483 279.784 457.192 280.576 453.897H273.41C274.472 457.196 275.09 460.495 275.28 463.789C271.825 463.672 268.367 463.221 264.913 462.39V469.557C268.379 468.442 271.844 467.812 275.31 467.657C275.154 471.123 274.521 474.588 273.41 478.054H280.576C279.746 474.6 279.295 471.141 279.177 467.687C282.476 467.881 285.775 468.499 289.07 469.557V462.39L289.074 462.394Z" fill="#1D3B4A"/>
<path d="M1118.47 409.743C1134.62 409.743 1147.71 396.651 1147.71 380.502C1147.71 364.352 1134.62 351.26 1118.47 351.26C1102.32 351.26 1089.22 364.352 1089.22 380.502C1089.22 396.651 1102.32 409.743 1118.47 409.743Z" fill="#396C8A"/>
<path d="M1118.47 404.996C1131.99 404.996 1142.96 394.029 1142.96 380.502C1142.96 366.974 1131.99 356.007 1118.47 356.007C1104.94 356.007 1093.97 366.974 1093.97 380.502C1093.97 394.029 1104.94 404.996 1118.47 404.996Z" fill="#E5F6FF"/>
<path d="M1116.89 399.498V394.827C1114.21 394.781 1111.43 393.947 1109.81 392.791L1110.92 389.689C1112.59 390.8 1115 391.68 1117.59 391.68C1120.87 391.68 1123.09 389.784 1123.09 387.145C1123.09 384.506 1121.29 383.027 1117.87 381.639C1113.15 379.789 1110.23 377.662 1110.23 373.635C1110.23 369.608 1112.96 366.878 1117.22 366.185V361.513H1120.09V365.999C1122.86 366.09 1124.76 366.833 1126.1 367.618L1124.95 370.67C1123.97 370.113 1122.08 369.097 1119.12 369.097C1115.55 369.097 1114.21 371.224 1114.21 373.074C1114.21 375.478 1115.92 376.684 1119.95 378.348C1124.71 380.293 1127.12 382.697 1127.12 386.815C1127.12 390.47 1124.57 393.894 1119.81 394.683V399.494H1116.89V399.498Z" fill="#396C8A"/>
<path d="M1016.32 256.279H1004.5V244.461C1004.5 242.186 1002.66 240.339 1000.38 240.339H998.865C996.59 240.339 994.743 242.182 994.743 244.461V256.279H982.924C980.649 256.279 978.803 258.122 978.803 260.401V261.917C978.803 264.192 980.646 266.039 982.924 266.039H994.743V277.858C994.743 280.133 996.586 281.979 998.865 281.979H1000.38C1002.66 281.979 1004.5 280.136 1004.5 277.858V266.039H1016.32C1018.6 266.039 1020.44 264.196 1020.44 261.917V260.401C1020.44 258.126 1018.6 256.279 1016.32 256.279Z" fill="#14475F"/>
<path d="M145.701 747.334C142.015 742.507 195.675 750.004 231.074 780.595C255.056 801.32 254.283 847.264 254.283 847.264C254.283 847.264 225.504 858.04 190.761 828.802C156.018 799.564 161.903 768.552 145.697 747.338L145.701 747.334Z" fill="#14475F"/>
<path d="M254.462 847.104L254.106 847.412C253.453 846.657 188.324 771.673 145.527 746.731L145.762 746.326C188.623 771.305 253.806 846.346 254.458 847.104H254.462Z" fill="#88A2AE"/>
<path d="M189.146 780.307L188.888 780.299C187.951 780.276 165.88 779.708 157.481 773.948L157.747 773.561C165.546 778.911 186.082 779.738 188.638 779.821C188.444 777.463 186.821 759.737 181.46 753.359L181.82 753.056C187.637 759.976 189.066 779.23 189.127 780.049L189.146 780.307V780.307Z" fill="#88A2AE"/>
<path d="M215.106 805.146L214.954 805.195C214.674 805.286 186.85 814.102 170.622 805.927L170.834 805.506C186.274 813.283 212.425 805.483 214.658 804.793C214.818 802.431 216.596 774.904 213.616 768.245L214.044 768.052C217.191 775.082 215.201 803.77 215.113 804.987L215.102 805.146H215.106Z" fill="#88A2AE"/>
<path d="M240.186 831.517L240.049 831.558C239.753 831.642 210.292 839.938 194.071 831.767L194.284 831.346C209.773 839.149 237.562 831.756 239.784 831.145C240.201 828.904 245.191 801.274 240.155 791.613L240.572 791.397C245.873 801.562 240.451 830.167 240.22 831.38L240.193 831.52L240.186 831.517Z" fill="#88A2AE"/>
<path d="M561.262 403.1H553.561V395.399C553.561 393.917 552.359 392.715 550.877 392.715H549.887C548.405 392.715 547.203 393.917 547.203 395.399V403.1H539.502C538.019 403.1 536.817 404.302 536.817 405.785V406.774C536.817 408.257 538.019 409.459 539.502 409.459H547.203V417.16C547.203 418.642 548.405 419.844 549.887 419.844H550.877C552.359 419.844 553.561 418.642 553.561 417.16V409.459H561.262C562.745 409.459 563.947 408.257 563.947 406.774V405.785C563.947 404.302 562.745 403.1 561.262 403.1Z" fill="#14475F"/>
<path d="M847.339 641.46H839.471V633.592C839.471 632.075 838.243 630.847 836.726 630.847H835.714C834.197 630.847 832.968 632.075 832.968 633.592V641.46H825.101C823.584 641.46 822.355 642.688 822.355 644.205V645.217C822.355 646.734 823.584 647.962 825.101 647.962H832.968V655.83C832.968 657.347 834.197 658.575 835.714 658.575H836.726C838.243 658.575 839.471 657.347 839.471 655.83V647.962H847.339C848.855 647.962 850.084 646.734 850.084 645.217V644.205C850.084 642.688 848.855 641.46 847.339 641.46Z" fill="#396C8A"/>
<path d="M643.677 817.795C643.051 822.588 642.699 830.099 643.776 833.018C644.291 834.418 639.976 837.011 634.922 837.349C631.043 837.606 627.494 833.982 628.252 830.922C629.606 825.469 628.252 815.152 628.252 815.152C628.67 810.997 644.17 814.007 643.677 817.795V817.795Z" fill="#914F4E"/>
<path d="M650.854 849.285L623.834 849.304C623.611 849.103 626.788 834.656 628.149 832.818C630.716 829.356 643.233 830.869 643.775 833.019C646.027 841.944 651.449 845.213 650.854 849.285V849.285Z" fill="#352437"/>
<path d="M719.562 817.878C719.13 822.694 718.796 828.264 721.197 830.948C722.19 832.059 716.631 837.227 711.596 837.765C707.729 838.179 704.039 834.698 704.676 831.612C705.81 826.11 704.047 815.853 704.047 815.853C704.297 811.686 719.907 814.071 719.566 817.878H719.562Z" fill="#914F4E"/>
<path d="M746.219 849.304H701.784C701.553 849.114 702.418 831.271 704.677 831.612C705.936 831.809 706.789 834.831 707.991 836.245C709.193 837.659 714.748 835.661 714.994 833.982C715.241 832.302 720.739 828.01 721.641 829.788C724.284 835.002 742.359 841.713 744.554 842.915C747.155 844.34 746.299 848.705 746.219 849.304V849.304Z" fill="#352437"/>
<path d="M720.237 432.823C720.237 432.823 714.368 504.228 696.031 501.994C677.699 499.757 671.833 434.469 671.833 434.469C671.833 434.469 684.05 430.393 685.415 428.842C686.765 427.291 686.439 413.607 686.476 408.856C686.492 407.009 709.473 406.915 709.374 409.243C709.367 409.398 709.344 409.978 709.314 410.843C709.211 413.645 709.048 419.457 709.204 423.734C709.306 426.381 709.522 428.436 709.958 428.842C711.316 430.108 720.241 432.823 720.241 432.823H720.237Z" fill="#914F4E"/>
<path d="M716.673 435.564C707.111 430.814 693.54 428.739 677.847 435.564C662.153 442.389 699.467 497.812 699.467 497.812C699.467 497.812 733.554 443.952 716.673 435.564Z" fill="white" stroke="#201600" stroke-width="0.379167" stroke-miterlimit="10"/>
<path d="M686.284 425.236C684.756 427.42 681.222 432.573 681.222 432.573L694.045 444.9L699.35 434.131V431.705L686.284 425.236V425.236Z" fill="#88A2AE"/>
<path d="M699.35 431.701L709.405 426.738L716.806 433.172L706.592 445.381L699.35 434.128V431.701Z" fill="#88A2AE"/>
<path d="M697.537 442.81L690.939 500.538H707.945L702.531 442.716L697.537 442.81Z" fill="#14475F"/>
<path d="M694.561 436.118C694.561 436.118 697.245 442.23 697.537 442.814C697.829 443.398 702.216 443.326 702.534 442.716C702.849 442.109 705.397 434.556 705.397 434.556L702.485 430.977H696.373L694.561 436.118Z" fill="#14475F"/>
<path d="M733.406 580.035C733.406 600.923 727.195 678.8 726.68 709.232C726.164 739.664 723.768 827.43 723.768 827.43H699.903C699.903 827.43 688.13 740.18 689.427 712.239C690.72 684.298 682.958 577.449 682.958 577.449L733.406 580.038V580.035Z" fill="#1D3B4A"/>
<path d="M686.151 423.731C684.623 425.915 681.089 431.068 681.089 431.068L693.912 443.395L699.217 432.626V430.2L686.151 423.731V423.731Z" fill="white"/>
<path d="M700.809 577.445C691.496 611.854 674.453 696.712 670.813 718.961C667.173 741.211 646.736 827.426 646.736 827.426H622.124L651.134 571.492L682.681 564.765L700.805 577.441L700.809 577.445Z" fill="#1D3B4A"/>
<path d="M699.217 430.199L709.276 425.236L716.674 431.671L706.463 443.88L699.217 432.626V430.199Z" fill="white"/>
<path d="M700.253 499.022L694.565 579.219C686.284 591.118 643.074 594.742 643.597 591.637C644.117 588.532 653.168 549.982 652.39 536.275C651.613 522.56 636.867 451.288 638.297 447.406C639.377 444.448 662.196 435.576 674.97 430.977C678.981 429.532 682.003 428.508 683.05 428.22L700.256 499.018L700.253 499.022Z" fill="#264E62"/>
<path d="M682.401 471.631L684.923 461.246L672.096 437.093L674.962 430.973C678.974 429.528 681.996 428.504 683.042 428.216L700.249 499.014L682.398 471.623L682.401 471.631Z" fill="#396C8A"/>
<path d="M751.22 442.879C751.22 442.879 780.583 510.408 781.618 511.375C782.653 512.342 764.673 536.92 762.732 535.756C760.79 534.592 744.623 511.307 741.646 504.194C738.67 497.081 749.154 438.139 751.22 442.879Z" fill="#264E62"/>
<path d="M682.371 599.251C684.839 602.06 689.059 606.44 690.219 608.328C691.379 610.22 686.177 609.135 684.858 608.65C683.535 608.165 673.782 609.003 671.746 608.21C669.71 607.418 669.376 606.515 665.115 602.068C660.853 597.62 673.21 597.431 675.155 597.59C677.1 597.749 682.371 599.251 682.371 599.251Z" fill="#623A39"/>
<path d="M665.251 572.459C667.284 575.337 670.518 577.934 672.239 579.155C673.961 580.376 678.321 584.206 680.683 588.448C683.042 592.691 684.445 591.838 686.261 595.179C688.077 598.519 694.53 607.38 693.935 608.321C693.34 609.261 692.418 610.239 688.71 605.936C685.002 601.632 683.766 601.101 682.492 601.477C681.218 601.852 677.862 604.844 675.257 604.969C672.653 605.09 672.429 604.563 669.104 603.736C665.778 602.91 662.324 600.919 661.281 596.968C660.239 593.017 658.051 586.033 656.572 583.637C655.097 581.237 647.074 578.943 651.578 576.216C656.083 573.486 665.247 572.463 665.247 572.463L665.251 572.459Z" fill="#914F4E"/>
<path d="M672.08 578.397C676.96 579.326 682.196 583.174 685.336 586.92C688.475 590.663 692.207 595.3 691.429 595.797C690.652 596.293 688.73 596.244 687.66 594.887C686.591 593.529 683.543 589.317 680.813 589.093C678.079 588.869 677.021 589.051 674.951 585.385C672.884 581.722 668.675 577.748 672.077 578.393L672.08 578.397Z" fill="#914F4E"/>
<path d="M739.06 592.691C739.579 595.797 702.838 591.118 694.564 579.216L699.221 499.018L699.471 497.816V497.808L713.743 429.119C714.812 429.407 717.493 430.142 720.962 431.143C731.749 434.256 750.147 439.936 751.223 442.871C752.645 446.75 737.767 528.51 736.989 542.216C736.212 555.931 738.54 589.586 739.063 592.687L739.06 592.691Z" fill="#264E62"/>
<path d="M638.288 447.406C630.356 458.607 613.062 529.029 613.582 536.017C614.097 543.002 643.593 533.689 644.886 529.807C646.179 525.924 652.863 505.294 653.682 500.182C654.718 493.714 640.233 444.657 638.288 447.406V447.406Z" fill="#264E62"/>
<path d="M613.582 536.014C614.098 542.933 655.355 589.696 657.175 590.86C658.995 592.024 678.518 577.858 677.741 576.114C676.964 574.366 647.15 532.002 644.886 529.803C642.622 527.604 613.582 536.014 613.582 536.014Z" fill="#264E62"/>
<path d="M826.605 546.33C826.605 546.33 829.881 547.13 832.539 547.847C833.995 548.241 835.266 548.613 835.717 548.814C836.991 549.386 841.131 552.317 842.151 553.083C843.171 553.849 855.851 560.792 856.677 561.175C857.508 561.558 868.784 551.68 867.639 549.963C867.025 549.045 857.758 544.738 849.261 540.927C844.711 538.887 840.384 536.991 837.726 535.835C837.537 535.752 837.355 535.672 837.18 535.596C835.842 535.012 830.591 532.953 830.591 532.953L826.605 546.33V546.33Z" fill="#914F4E"/>
<g style="mix-blend-mode:multiply">
<path d="M847.747 542.524C845.051 545.489 841.055 552.295 841.055 552.295L842.53 553.338L848.247 543.608L847.743 542.524H847.747Z" fill="#914F4E"/>
</g>
<path d="M845.219 546.372C844.324 547.783 842.33 551.32 841.807 552.469C841.279 553.614 843.369 555.768 844.396 555.328C845.473 554.865 848.707 550.971 849.473 549.932C850.167 548.988 846.034 545.094 845.219 546.372V546.372Z" fill="#914F4E"/>
<path d="M849.007 549.303C848.112 550.713 845.769 554.634 845.242 555.779C844.715 556.924 846.94 558.615 847.968 558.175C849.045 557.713 852.495 553.902 853.261 552.863C853.955 551.919 849.822 548.025 849.007 549.303V549.303Z" fill="#914F4E"/>
<path d="M852.539 551.597C851.645 553.008 849.298 557.091 849.044 558.327C848.858 559.218 850.666 560.913 851.694 560.473C852.771 560.011 856.032 556.196 856.794 555.158C857.488 554.213 853.355 550.319 852.539 551.597Z" fill="#914F4E"/>
<path d="M855.544 562.51C855.847 562.426 856.458 562.202 857.197 561.899C858.259 561.467 859.594 560.868 860.686 560.291C861.175 560.034 861.611 559.78 861.956 559.544H861.96C862.138 559.423 862.293 559.309 862.415 559.203C863.552 558.206 858.24 554.225 857.413 555.059C857.099 555.374 856.507 556.014 855.851 556.761C854.607 558.179 853.144 559.992 852.954 560.735C852.674 561.816 854.327 562.839 855.548 562.513L855.544 562.51Z" fill="#914F4E"/>
<path d="M861.235 559.84C861.307 559.821 861.386 559.795 861.47 559.764C862.262 559.465 863.453 558.676 864.837 557.63C865.079 557.448 865.326 557.258 865.58 557.061C866.562 556.295 867.62 555.434 868.693 554.543C868.909 554.365 869.129 554.183 869.349 554.001C870.407 553.121 871.465 552.234 872.466 551.4C873.239 550.759 875.078 548.465 875.76 547.927C876.42 547.4 886.779 545.178 887.306 544.81V529.833C887.306 529.833 872.784 535.972 869.004 535.494C865.087 534.997 856.442 533.079 854.944 533.045C853.443 533.01 847.615 543.142 845.226 546.368C844.972 546.71 858.565 560.568 861.242 559.836L861.235 559.84Z" fill="#914F4E"/>
<g style="mix-blend-mode:multiply">
<path d="M856.105 558.615C856.188 559.938 856.507 561.228 857.197 561.899C858.259 561.466 859.593 560.867 860.685 560.291C860.64 560.124 860.56 559.95 860.454 559.768C860.154 559.248 859.665 558.664 859.214 557.963C858.425 556.727 857.094 556.477 856.461 557.246C856.211 557.546 856.071 558.001 856.109 558.615H856.105Z" fill="#914F4E"/>
</g>
<g style="mix-blend-mode:multiply">
<path d="M859.548 555.154C859.802 556.439 860.636 558.752 861.47 559.765C862.262 559.465 863.453 558.676 864.837 557.63C864.344 556.379 863.199 554.832 862.535 554.066C861.28 552.621 859.225 553.505 859.548 555.154V555.154Z" fill="#914F4E"/>
</g>
<g style="mix-blend-mode:multiply">
<path d="M863.404 553.027C863.81 554.263 864.724 556.162 865.577 557.061C866.559 556.295 867.617 555.434 868.69 554.543C867.969 553.391 866.654 552.113 865.778 551.411C864.576 550.444 862.873 551.419 863.4 553.027H863.404Z" fill="#914F4E"/>
</g>
<g style="mix-blend-mode:multiply">
<path d="M867.877 551.798C868.313 552.594 868.844 553.443 869.348 554.001C870.406 553.121 871.464 552.234 872.465 551.4C871.965 550.672 871.089 549.967 870.228 549.424C868.382 548.256 866.899 550.008 867.881 551.798H867.877Z" fill="#914F4E"/>
</g>
<path d="M857.921 562.259C856.95 561.751 856.522 560.234 856.423 558.676C856.287 556.492 858.429 556.302 859.529 558.024C860.253 559.158 861.091 559.984 861.041 560.716C860.992 561.448 859.445 563.063 857.921 562.259V562.259Z" fill="#914F4E"/>
<path d="M837.291 536.464C839.445 538.326 847.749 542.523 847.749 542.523C847.749 542.523 848.31 541.788 849.261 540.931C849.944 540.317 850.831 539.642 851.859 539.134C854.319 537.913 855.946 538.967 856.519 539.373C857.091 539.778 857.068 541.261 858.335 543.1C859.601 544.939 862.468 544.821 862.657 544.222C862.847 543.627 861.311 537.792 860.629 536.889C859.29 535.122 852.936 531.437 850.115 531.774C846.592 532.199 840.624 534.807 838 535.456C837.67 535.539 837.39 535.589 837.177 535.6C836.571 535.63 836.703 535.964 837.287 536.464H837.291Z" fill="#914F4E"/>
<path d="M862.271 560.253C861.3 559.745 860.166 556.746 859.867 555.211C859.545 553.561 861.6 552.678 862.855 554.122C863.719 555.12 865.395 557.432 865.395 558.706C865.395 559.442 863.799 561.053 862.274 560.253H862.271Z" fill="#914F4E"/>
<path d="M866.403 557.531C865.433 557.023 864.212 554.573 863.723 553.091C863.192 551.479 864.898 550.509 866.1 551.476C867.355 552.484 869.528 554.683 869.528 555.988C869.528 556.723 867.931 558.335 866.407 557.535L866.403 557.531Z" fill="#914F4E"/>
<path d="M873.204 552.628C873.223 551.533 871.866 550.319 870.546 549.485C868.696 548.317 867.214 550.069 868.199 551.859C868.844 553.034 869.689 554.32 870.353 554.627C871.02 554.938 873.178 554.354 873.204 552.628V552.628Z" fill="#914F4E"/>
<g style="mix-blend-mode:multiply">
<path d="M709.2 423.735C698.488 423.735 693.908 418.168 691.371 412.28L709.309 410.843C709.207 413.645 709.044 419.458 709.2 423.735Z" fill="#88A2AE"/>
</g>
<path d="M762.287 535.236C766.746 540.552 827.542 554.43 829.703 554.312C831.86 554.195 839.44 531.297 837.791 530.33C836.141 529.367 784.741 511.834 781.617 511.372C778.496 510.909 762.287 535.236 762.287 535.236V535.236Z" fill="#264E62"/>
<path d="M715.203 376.729C720.185 388.699 720.473 407.711 715.711 414.779C710.949 421.846 691.725 414.835 688.134 409.25C684.547 403.665 671.261 376.93 685.002 371.933C698.743 366.931 709.898 363.985 715.203 376.729V376.729Z" fill="#914F4E"/>
<path d="M686.602 402.278C687.834 400.818 689.317 401.227 688.195 394.467C687.069 387.706 683.823 383.19 690.03 384.214C700.112 385.879 701.898 376.331 708.336 375.797C715.385 375.209 719.446 373.154 718.592 367.663C717.413 360.054 710.547 354.556 695.74 356.455C688.612 357.369 675.402 367.098 672.315 374.469C667.614 385.685 678.109 399.567 680.266 404.12C682.424 408.67 686.606 402.281 686.606 402.281L686.602 402.278Z" fill="#352437"/>
<path d="M685.427 397.231C682.053 393.409 678.682 394.266 678.159 395.585C677.639 396.901 677.37 399.836 680.263 404.117C683.156 408.401 686.493 410.669 687.312 409.963C688.135 409.258 688.495 406.126 687.892 404.01C687.289 401.895 686.258 398.175 685.427 397.235V397.231Z" fill="#914F4E"/>
<path d="M712.537 460.988L714.865 472.366L699.467 497.809L713.739 429.119C714.808 429.407 717.489 430.142 720.958 431.143L723.665 437.089L712.537 460.988V460.988Z" fill="#396C8A"/>
<path d="M657.383 591.459C657.285 591.459 657.19 591.455 657.103 591.444L656.891 591.418L645.853 579.322C645.637 579.083 645.652 578.712 645.891 578.496C646.13 578.279 646.501 578.295 646.718 578.533L657.452 590.295C660.618 590.288 670.639 581.969 676.975 576.039L644.416 530.144C644.23 529.879 644.291 529.515 644.556 529.329C644.818 529.139 645.186 529.204 645.371 529.469L678.522 576.194L678.15 576.543C676.501 578.097 662.176 591.459 657.391 591.459H657.383Z" fill="#1D3B4A"/>
<path d="M694.565 580.001C694.565 580.001 694.535 580.001 694.519 580.001C694.087 579.974 693.761 579.606 693.788 579.178L698.668 496.353C698.694 495.924 699.066 495.598 699.49 495.621C699.923 495.648 700.249 496.015 700.222 496.444L695.342 579.269C695.319 579.682 694.974 580.005 694.565 580.005V580.001Z" fill="#396C8A"/>
<path d="M948.287 826.277C947.282 829.193 942.357 827.82 939.623 833.743C936.881 839.665 938.512 849.288 938.512 849.288L912.528 849.266C912.528 849.266 912.073 848.488 913.627 846.119C914.454 844.86 916.979 843.7 919.273 842.278H919.277C921.294 841.019 923.133 839.57 923.478 837.648C924.21 833.545 926.78 811.573 926.78 806.469C926.784 801.366 913.536 750.114 907.17 731.716L931.748 725.695C931.748 725.695 938.322 740.835 940.135 757.068C941.947 773.292 937.822 803.197 941.553 809.309C942.952 811.603 944.393 814.143 945.591 816.589C947.589 820.665 948.916 824.449 948.287 826.273V826.277Z" fill="#914F4E"/>
<path d="M948.287 826.277C947.282 829.193 942.357 827.82 939.623 833.743C936.882 839.665 938.512 849.288 938.512 849.288L912.528 849.266C912.528 849.266 912.073 848.488 913.627 846.119C914.454 844.86 916.979 843.7 919.273 842.278H919.277C919.478 842.289 924.574 842.589 928.703 842.589C932.832 842.589 935.979 839.442 935.979 836.571C935.979 833.701 938.44 818.246 945.591 816.589C947.589 820.665 948.916 824.449 948.287 826.273V826.277Z" fill="#352437"/>
<path d="M967.92 766.399C965.721 785.179 957.679 808.327 957.853 815.44C957.925 818.401 958.642 820.581 959.286 822.572C960.192 825.374 960.97 827.801 959.665 831.482C959.233 832.703 956.932 831.115 951.548 836.218C946.163 841.322 946.201 849.3 944.013 849.3C941.826 849.296 923.91 849.284 923.91 849.284C923.91 849.284 923.368 845.591 928.016 843.54C928.164 843.476 928.305 843.403 928.449 843.328H928.452C928.452 843.328 928.452 843.324 928.456 843.324C932.851 840.867 935.622 831.426 938.011 826.663C940.472 821.745 943.896 814.568 944.18 802.533C944.465 790.498 942.41 739.758 936.214 726.624C930.026 713.497 964.86 711.81 966.126 719.901C968.094 732.52 970.115 747.626 967.909 766.402L967.92 766.399Z" fill="#914F4E"/>
<path d="M959.666 831.486L955.431 849.288H952.833L951.874 832.135L959.666 831.486Z" fill="#352437"/>
<path d="M878.058 615.009C876.215 618.11 875.146 621.417 874.41 623.942C873.675 626.467 872.909 627.631 871.912 627.991C870.918 628.352 871.54 624.594 871.593 624.283C871.646 623.972 872.215 608.73 872.215 608.73L878.058 615.009V615.009Z" fill="#B07D6B"/>
<path d="M872.22 608.734C869.819 612.055 868.382 618.6 868.284 620.95C868.185 623.301 867.992 631.533 868.235 632.242C868.477 632.951 870.396 631.351 870.794 629.118C871.192 626.884 872.341 619.233 872.921 618.273C873.501 617.314 872.223 608.734 872.223 608.734H872.22Z" fill="#B07D6B"/>
<path d="M896.729 579.5C895.819 581.362 891.936 594.913 891.652 597.135C891.367 599.357 891.515 605.924 890.279 608.749C889.043 611.574 885.998 623.355 885.16 623.434C884.326 623.518 883.826 621.88 883.826 620.192C883.826 618.505 885.468 611.252 884.44 610.258C883.412 609.265 877.444 615.426 873.892 619.578C870.339 623.73 867.412 629.929 866.486 629.937C865.561 629.944 865.679 626.05 869.474 618.414C873.27 610.778 870.581 610.876 873.281 606.641C875.981 602.406 880.535 598.155 882.082 595.891C883.629 593.628 885.248 570.093 885.248 570.093L896.733 579.496L896.729 579.5Z" fill="#914F4E"/>
<path d="M912.137 530.565C888.336 590.928 902.563 734.264 902.563 734.264H975.488C975.488 734.264 990.526 637.164 987.693 600.176C985.392 570.134 968.405 529.438 968.405 529.438L912.133 530.568L912.137 530.565Z" fill="#396C8A"/>
<path d="M902.824 441.062C897.391 452.221 889.565 515.735 887.866 527.948C886.167 540.165 877.663 594.826 877.682 597.548C877.701 600.274 894.691 605.651 895.647 602.064C896.602 598.477 911.856 530.743 912.41 523.425C912.963 516.103 918.184 490.157 918.184 490.157C918.184 490.157 918.878 463.615 915.261 455.353C911.647 447.087 904.148 438.336 902.824 441.059V441.062Z" fill="#C48A80"/>
<path d="M959.665 831.487C959.233 832.707 956.932 831.119 951.548 836.222C946.163 841.326 946.201 849.304 944.013 849.304C941.826 849.3 923.91 849.288 923.91 849.288C923.91 849.288 923.368 845.595 928.016 843.544C928.164 843.48 928.305 843.408 928.449 843.332H928.452C928.452 843.332 928.452 843.328 928.456 843.328C928.718 843.339 937.564 843.783 941.246 843.328C944.988 842.873 949.409 833.781 951.047 830.497C952.689 827.213 956.314 825.162 959.279 822.584C960.185 825.378 960.962 827.809 959.658 831.49L959.665 831.487Z" fill="#352437"/>
<path d="M962.419 362.791C978.317 372.612 972.614 409.285 983.815 430.651C993.635 449.389 975.026 457.223 944.799 445.127C931.873 439.952 924.168 440.926 918.238 434.768C912.312 428.611 936.328 412.356 939.638 408.253C942.948 404.151 962.419 362.795 962.419 362.795V362.791Z" fill="#352437"/>
<path d="M940.446 459.38C924.127 456.074 918.23 434.761 918.23 434.761C918.23 434.761 932.055 431.625 932.366 429.831C932.445 429.346 932.616 427.477 932.817 424.948C933.082 421.516 933.424 416.849 933.738 412.795C934.065 408.928 934.345 405.603 934.55 404.37C934.815 402.842 956.921 402.497 956.921 402.497C955.768 413.061 956.329 426.65 958.058 428.91C959.791 431.174 974.192 438.833 975.439 440.315C976.671 441.783 956.765 462.671 940.446 459.38V459.38Z" fill="#914F4E"/>
<path d="M926.075 443.326C935.429 447.739 943.335 449.931 963.632 446.405C983.929 442.879 935.399 492.007 935.399 492.007C935.399 492.007 925.931 485.338 922.071 468.423C918.212 451.512 926.079 443.326 926.079 443.326H926.075Z" fill="#88A2AE"/>
<path d="M930.323 430.776C930.399 429.46 905.84 438.249 902.826 441.066C902.826 441.066 906.53 452.339 904.748 464.116C902.966 475.893 904.206 479.267 906.981 488.481C909.757 497.691 911.831 514.852 910.147 524.305C908.464 533.757 896.3 564.386 895.47 565.911C894.64 567.435 914.997 579.037 932.374 576.36L937.129 481.588C937.129 481.588 928.002 469.989 930.323 430.779V430.776Z" fill="#AB7369"/>
<g style="mix-blend-mode:multiply">
<path d="M949.978 413.182C949.978 413.182 946.342 424.182 932.817 424.948C933.083 421.516 933.424 416.849 933.739 412.795L949.978 413.186V413.182Z" fill="#914F4E"/>
</g>
<path d="M960.163 430.647C960.288 429.335 987.262 444.327 990.064 447.353C992.87 450.378 985.628 480.879 982.196 489.869C978.769 498.859 973.206 513.68 974.207 523.228C975.208 532.779 986.765 571.837 987.486 573.418C988.206 574.999 954.491 583.887 932.37 576.36L937.125 481.588C937.125 481.588 956.974 463.998 960.159 430.65L960.163 430.647Z" fill="#AB7369"/>
<path d="M932.373 577.138C932.373 577.138 932.347 577.138 932.335 577.138C931.903 577.115 931.573 576.751 931.596 576.319L936.351 481.546C936.373 481.114 936.73 480.765 937.17 480.807C937.602 480.829 937.932 481.193 937.909 481.626L933.154 576.398C933.132 576.815 932.79 577.138 932.377 577.138H932.373Z" fill="#C48A80"/>
<path d="M990.068 447.353C995.603 459.024 992.976 478.126 975.125 499.537C957.27 520.945 950.714 530.5 931.881 535.998C913.044 541.496 879.916 551.423 878.65 551.525C877.383 551.627 871.21 534.303 873.857 533.526C876.507 532.749 927.975 511.227 932.04 508.004C936.105 504.785 968.171 460.608 968.171 460.608L990.068 447.357V447.353Z" fill="#AB7369"/>
<path d="M928.76 367.86C924.911 376.831 923.296 387.846 923.785 396.905C924.278 405.963 925.473 416.068 931.433 418.305C937.394 420.542 948.12 417.11 956.03 407.134C963.939 397.162 966.449 377.544 953.36 369.859C940.268 362.173 930.959 362.734 928.76 367.86V367.86Z" fill="#914F4E"/>
<path d="M952.208 400.507C951.286 395.282 952.625 388.248 947.935 386.231C943.244 384.214 932.681 381.211 931.077 369.726L926.409 372.452C926.409 372.452 919.323 361.005 941.803 357.513C964.284 354.021 979.766 379.717 976.368 391.407C972.975 403.093 952.208 400.507 952.208 400.507V400.507Z" fill="#352437"/>
<path d="M953.774 400.075C954.878 396.677 956.341 391.616 960.834 392.165C965.327 392.715 964.611 400.712 961.74 404.837C958.87 408.962 956.087 409.357 954.741 408.53C953.55 407.802 952.75 403.226 953.774 400.075V400.075Z" fill="#914F4E"/>
<path d="M878.649 552.109C878.395 552.109 878.16 551.942 878.088 551.688C877.997 551.377 878.175 551.051 878.486 550.964C878.945 550.831 924.343 537.595 939.21 532.76C953.22 528.206 970.722 504.459 980.126 491.7L981.737 489.52C989.503 479.032 995.254 461.435 989.533 447.577C989.408 447.277 989.552 446.936 989.851 446.811C990.147 446.689 990.492 446.83 990.617 447.129C996.513 461.409 990.636 479.472 982.681 490.214L981.074 492.394C971.594 505.259 953.948 529.2 939.578 533.871C924.695 538.709 879.279 551.95 878.824 552.083C878.771 552.098 878.714 552.105 878.661 552.105L878.649 552.109Z" fill="#BA7D73"/>
<path d="M873.857 534.106C873.629 534.106 873.413 533.973 873.318 533.75C873.19 533.454 873.33 533.109 873.626 532.984C874.111 532.775 922.182 512.277 931.232 508.164C933.451 507.155 951.757 482.081 958.65 472.643C959.803 471.066 960.743 469.777 961.391 468.897C961.581 468.635 961.949 468.582 962.21 468.772C962.472 468.965 962.525 469.329 962.335 469.591C961.687 470.471 960.747 471.76 959.598 473.337C946.414 491.389 933.913 508.236 931.722 509.233C922.659 513.354 874.574 533.86 874.088 534.064C874.012 534.095 873.937 534.11 873.861 534.11L873.857 534.106Z" fill="#BA7D73"/>
</g>
<defs>
<clipPath id="clip0_16_695">
<rect width="1365" height="985.833" fill="white"/>
</clipPath>
</defs>
</svg>
