<svg xmlns="http://www.w3.org/2000/svg" xmlns:xlink="http://www.w3.org/1999/xlink" width="660" height="382" viewBox="0 0 660 382">
  <defs>
    <clipPath id="clip-path">
      <rect id="Rectangle_27" data-name="Rectangle 27" width="660" height="382"/>
    </clipPath>
    <linearGradient id="linear-gradient" x1="-0.061" y1="0.159" x2="1.259" y2="0.962" gradientUnits="objectBoundingBox">
      <stop offset="0" stop-color="#fff"/>
      <stop offset="1" stop-color="#c6d4ee"/>
    </linearGradient>
    <clipPath id="clip-path-2">
      <rect id="SVGID" width="105.631" height="134.288" fill="none"/>
    </clipPath>
  </defs>
  <g id="Artboard_1" data-name="Artboard – 1" clip-path="url(#clip-path)">
    <g id="Group_4448" data-name="Group 4448" transform="translate(-273.909 -333.126)">
      <g id="Group_4404" data-name="Group 4404" transform="translate(375.05 504.361)">
        <g id="Group_4394" data-name="Group 4394">
          <path id="Path_9030" data-name="Path 9030" d="M331.53,388.05a.978.978,0,0,1-.5-.139.942.942,0,0,1-.294-1.29l13.47-21.484a.934.934,0,1,1,1.584.991l-13.47,21.484a.927.927,0,0,1-.79.438Z" transform="translate(-330.594 -364.693)" fill="#cee1fe"/>
        </g>
        <g id="Group_4395" data-name="Group 4395" transform="translate(7.184)">
          <path id="Path_9031" data-name="Path 9031" d="M332.922,388.05a.959.959,0,0,1-.5-.139.939.939,0,0,1-.3-1.29l13.47-21.484a.934.934,0,1,1,1.584.991l-13.47,21.484a.927.927,0,0,1-.784.438Z" transform="translate(-331.986 -364.693)" fill="#cee1fe"/>
        </g>
        <g id="Group_4396" data-name="Group 4396" transform="translate(14.368)">
          <path id="Path_9032" data-name="Path 9032" d="M334.314,388.05a.96.96,0,0,1-.5-.139.939.939,0,0,1-.3-1.29l13.47-21.484a.937.937,0,1,1,1.589.991L335.1,387.612a.942.942,0,0,1-.789.438Z" transform="translate(-333.377 -364.693)" fill="#cee1fe"/>
        </g>
        <g id="Group_4397" data-name="Group 4397" transform="translate(21.552)">
          <path id="Path_9033" data-name="Path 9033" d="M335.706,388.05a.96.96,0,0,1-.5-.139.939.939,0,0,1-.3-1.29l13.475-21.484a.926.926,0,0,1,1.285-.3.937.937,0,0,1,.3,1.29L336.5,387.611A.942.942,0,0,1,335.706,388.05Z" transform="translate(-334.77 -364.693)" fill="#cee1fe"/>
        </g>
        <g id="Group_4398" data-name="Group 4398" transform="translate(28.737)">
          <path id="Path_9034" data-name="Path 9034" d="M337.1,388.05a.96.96,0,0,1-.5-.139.933.933,0,0,1-.294-1.29l13.47-21.484a.927.927,0,0,1,1.285-.3.937.937,0,0,1,.3,1.29l-13.47,21.484a.942.942,0,0,1-.791.439Z" transform="translate(-336.162 -364.693)" fill="#cee1fe"/>
        </g>
        <g id="Group_4399" data-name="Group 4399" transform="translate(35.923)">
          <path id="Path_9035" data-name="Path 9035" d="M338.487,388.05a.96.96,0,0,1-.5-.139.938.938,0,0,1-.294-1.29l13.47-21.484a.927.927,0,0,1,1.285-.3.937.937,0,0,1,.3,1.29l-13.47,21.484A.942.942,0,0,1,338.487,388.05Z" transform="translate(-337.554 -364.693)" fill="#cee1fe"/>
        </g>
        <g id="Group_4400" data-name="Group 4400" transform="translate(43.107)">
          <path id="Path_9036" data-name="Path 9036" d="M339.879,388.05a.96.96,0,0,1-.5-.139.938.938,0,0,1-.294-1.29l13.47-21.484a.934.934,0,0,1,1.584.991l-13.47,21.484a.942.942,0,0,1-.79.438Z" transform="translate(-338.946 -364.693)" fill="#cee1fe"/>
        </g>
        <g id="Group_4401" data-name="Group 4401" transform="translate(50.291)">
          <path id="Path_9037" data-name="Path 9037" d="M341.271,388.05a.96.96,0,0,1-.5-.139.938.938,0,0,1-.294-1.29l13.47-21.484a.934.934,0,1,1,1.584.991l-13.47,21.484a.935.935,0,0,1-.79.438Z" transform="translate(-340.338 -364.693)" fill="#cee1fe"/>
        </g>
        <g id="Group_4402" data-name="Group 4402" transform="translate(57.475)">
          <path id="Path_9038" data-name="Path 9038" d="M342.663,388.05a.959.959,0,0,1-.5-.139.938.938,0,0,1-.294-1.29l13.47-21.484a.934.934,0,1,1,1.584.991l-13.47,21.484A.929.929,0,0,1,342.663,388.05Z" transform="translate(-341.73 -364.693)" fill="#cee1fe"/>
        </g>
        <g id="Group_4403" data-name="Group 4403" transform="translate(64.658)">
          <path id="Path_9039" data-name="Path 9039" d="M344.055,388.05a.959.959,0,0,1-.5-.139.938.938,0,0,1-.294-1.29l13.47-21.484a.934.934,0,1,1,1.584.991l-13.47,21.484A.929.929,0,0,1,344.055,388.05Z" transform="translate(-343.122 -364.693)" fill="#cee1fe"/>
        </g>
      </g>
      <path id="Path_9115" data-name="Path 9115" d="M284.315,0C441.337,0,568.629,3.757,568.629,8.391s-127.292,8.391-284.315,8.391S0,13.025,0,8.391,127.292,0,284.315,0Z" transform="translate(319.909 700.06)" fill="#015a58" opacity="0.3"/>
      <g id="Group_4405" data-name="Group 4405" transform="translate(391.689 462.699)">
        <path id="Rectangle_456" data-name="Rectangle 456" d="M1.544,0H344.449a1.544,1.544,0,0,1,1.544,1.544V231.178H0V1.544A1.544,1.544,0,0,1,1.544,0Z" transform="translate(39.845)" fill="#a7bbe4"/>
        <rect id="Rectangle_457" data-name="Rectangle 457" width="345.993" height="3.178" transform="translate(39.845 228)" fill="#122030"/>
        <path id="Rectangle_458" data-name="Rectangle 458" d="M.193,0h425.3a.193.193,0,0,1,.193.193V13.364a1.544,1.544,0,0,1-1.544,1.544H1.544A1.544,1.544,0,0,1,0,13.364V.193A.193.193,0,0,1,.193,0Z" transform="translate(0 230.844)" fill="#a7bbe4"/>
        <path id="Rectangle_459" data-name="Rectangle 459" d="M.038,0H83a.038.038,0,0,1,.038.038V2.607a.3.3,0,0,1-.3.3H.3a.3.3,0,0,1-.3-.3V.038A.038.038,0,0,1,.038,0Z" transform="translate(171.324 230.844)" fill="#cee1fe"/>
        <rect id="Rectangle_460" data-name="Rectangle 460" width="207.27" height="322.087" transform="translate(373.885 11.954) rotate(90)" fill="url(#linear-gradient)"/>
        <path id="Path_9040" data-name="Path 9040" d="M461.1,386.623H389.2a4.039,4.039,0,0,0-4.041,4.036v42.179a4.039,4.039,0,0,0,4.041,4.036h71.9a4.035,4.035,0,0,0,4.036-4.036V390.659a4.035,4.035,0,0,0-4.036-4.036Zm-26.9,13.31a.751.751,0,0,1,.754-.754h12.288a.755.755,0,0,1,.759.754v.119a.759.759,0,0,1-.759.754H434.951a.754.754,0,0,1-.754-.754Zm0,12.329a.751.751,0,0,1,.754-.753h12.288a.755.755,0,0,1,.759.753v.119a.756.756,0,0,1-.759.754H434.951a.751.751,0,0,1-.754-.754Zm-17.278,8.329h-24.27v-26.47h24.266ZM427.6,425.9a3.522,3.522,0,1,1,3.525-3.525A3.522,3.522,0,0,1,427.6,425.9Zm0-12.329a3.525,3.525,0,1,1,3.525-3.525,3.525,3.525,0,0,1-3.525,3.525Zm0-12.334a3.522,3.522,0,1,1,3.525-3.52,3.522,3.522,0,0,1-3.525,3.52ZM448,424.71a.755.755,0,0,1-.759.753h-12.29a.751.751,0,0,1-.754-.753v-.119a.754.754,0,0,1,.754-.753h12.288a.759.759,0,0,1,.759.753Zm4.779.753h-2.322a.813.813,0,1,1,0-1.625h2.322a.813.813,0,0,1,0,1.625Zm6.162-4.81a.754.754,0,0,1-.753.753H434.951a.754.754,0,0,1-.754-.753v-.119a.751.751,0,0,1,.754-.753h23.234a.751.751,0,0,1,.753.753Zm-9.3-8.335a.813.813,0,0,1,.815-.81h2.322a.813.813,0,0,1,0,1.626h-2.322a.814.814,0,0,1-.818-.815Zm9.3-4a.751.751,0,0,1-.753.754H434.951a.751.751,0,0,1-.754-.754V408.2a.754.754,0,0,1,.754-.753h23.234a.754.754,0,0,1,.753.753Zm-9.3-8.329a.813.813,0,0,1,.815-.81h2.322a.813.813,0,0,1,0,1.626h-2.322a.817.817,0,0,1-.818-.815Zm9.3-4a.751.751,0,0,1-.753.754H434.951a.751.751,0,0,1-.754-.754v-.119a.751.751,0,0,1,.754-.753h23.234a.751.751,0,0,1,.753.753Z" transform="translate(-120.196 -231.785)" fill="#b7d3fd"/>
      </g>
      <g id="Group_4413" data-name="Group 4413" transform="translate(443.491 521.424)">
        <g id="Group_4411" data-name="Group 4411" transform="translate(0 2.394)">
          <g id="Group_4410" data-name="Group 4410" clip-path="url(#clip-path-2)">
            <g id="Group_4409" data-name="Group 4409" transform="translate(-25.99 4.787)">
              <path id="Path_9041" data-name="Path 9041" d="M350.029,373.725a6.222,6.222,0,0,1-3.974,4.283c.867.738,2.338,1.435,3.391,1a3.192,3.192,0,0,0,1.92-2.616,2.729,2.729,0,0,0-1.337-2.667Z" transform="translate(-308.711 -351.358)" fill="#122030"/>
              <path id="Path_9042" data-name="Path 9042" d="M362.152,394.723l5.135-2.787s11.472,5.739,12.479,4.815-5.465-4.041-5.465-4.041,10.089,3.824,10.554,3.174-7.22-4.444-7.22-4.444,7.767,2.044,8.092,1.12-6.771-3.478-6.771-3.478,6.709.31,6.926-.692-13.413-3.995-13.413-3.995-1.393-1.564-2.3-2.374l-4.748,2.343-7.762,4.392Z" transform="translate(-260.438 -316.836)" fill="#f7c5b4"/>
              <path id="Path_9043" data-name="Path 9043" d="M348.541,377.412s11.8,7.875,14.6,12.247,10.022,29.473,10.022,29.473l26.4-16.355,5.212,11.1s-24.844,26.036-36.611,22.759c-13.9-3.865-17.629-32.348-17.629-32.348Z" transform="translate(-298.368 -336.017)" fill="#122030"/>
              <path id="Path_9044" data-name="Path 9044" d="M394.561,406.829l6.508-12.561a41.052,41.052,0,0,0-20.107-16.334c-5.827-2.167-16.442-2.038-22.367-.4l-6.1,21.11L338.819,436.72l25.2,22.372Z" transform="translate(-338.819 -340.626)" fill="#122030"/>
              <g id="Group_4408" data-name="Group 4408" transform="translate(36.343 5.938)">
                <path id="Path_9045" data-name="Path 9045" d="M350.926,370.826s6.343.387,6.89,5.765-5.718,11.555-5.718,11.555Z" transform="translate(-324.787 -369.359)" fill="#122030"/>
                <path id="Path_9046" data-name="Path 9046" d="M346.633,375.977s8.459,1.662,12.36,5.491l-2.343,3.153-10.306-5.1Z" transform="translate(-343.852 -347.926)" fill="#122030"/>
                <g id="Group_4406" data-name="Group 4406">
                  <path id="Path_9047" data-name="Path 9047" d="M349.231,403.041l1.842-14.76s-6.069.181-5.109-4.433c.857-4.108,5.3-3.065,6.8-.537,0,0,.578-15.106,12.979-12.458s7.385,19.193,6.188,23.2c-2.111,7.065-8.211,8.871-11.973,8.087l-1.063,4.4s-.882,3.871-4.474,2.911C349.628,408.171,349.231,403.041,349.231,403.041Z" transform="translate(-345.861 -370.542)" fill="#f7c5b4"/>
                </g>
                <path id="Path_9048" data-name="Path 9048" d="M347.42,375.862s7.881,3.891,9.233,4.2,3.8-1.125,4.3-.836,1.822,2.519,2.751,2.575,4.124.077,4.124.077l1.089-4.175-21.768-5.372Z" transform="translate(-340.515 -363.092)" fill="#122030"/>
                <path id="Path_9049" data-name="Path 9049" d="M350.259,374.181a1.292,1.292,0,1,0,1.7-.666,1.292,1.292,0,0,0-1.7.666Z" transform="translate(-328.011 -358.619)" fill="#fff"/>
                <path id="Path_9050" data-name="Path 9050" d="M349.1,373.85a1.291,1.291,0,1,0,1.7-.661A1.291,1.291,0,0,0,349.1,373.85Z" transform="translate(-332.864 -359.982)" fill="#fff"/>
                <g id="Group_4407" data-name="Group 4407" transform="translate(24.452 18.709)">
                  <path id="Path_9051" data-name="Path 9051" d="M352.38,374.457s6.054-1.729,5.481,3.257c-.63,5.491-7.261,1.739-7.261,1.739Z" transform="translate(-350.599 -374.167)" fill="#f7c5b4"/>
                </g>
                <path id="Path_9052" data-name="Path 9052" d="M353.831,379.89c-2.524-.346-6.5-4-6.5-4a13.154,13.154,0,0,0,5.955,6.25Z" transform="translate(-339.732 -348.288)" fill="#5163d1"/>
              </g>
              <path id="Path_9053" data-name="Path 9053" d="M348.6,373.99a5.986,5.986,0,0,0,3.525,4.944" transform="translate(-298.143 -350.255)" fill="none" stroke="#122030" stroke-linecap="round" stroke-miterlimit="10" stroke-width="0.112"/>
              <path id="Path_9054" data-name="Path 9054" d="M351.333,373.511a12.43,12.43,0,0,1-.268,2.73,2.634,2.634,0,0,1-.469,1.151,1.053,1.053,0,0,1-1.11.4" transform="translate(-294.44 -352.248)" fill="none" stroke="#122030" stroke-linecap="round" stroke-miterlimit="10" stroke-width="0.112"/>
              <path id="Path_9055" data-name="Path 9055" d="M350.954,377.317q.5-1.432.991-2.869" transform="translate(-288.328 -348.35)" fill="none" stroke="#122030" stroke-linecap="round" stroke-miterlimit="10" stroke-width="0.112"/>
              <path id="Path_9056" data-name="Path 9056" d="M351.085,374.725h.8" transform="translate(-287.783 -347.197)" fill="none" stroke="#122030" stroke-linecap="round" stroke-miterlimit="10" stroke-width="0.112"/>
              <path id="Path_9057" data-name="Path 9057" d="M346.369,372.95a3.588,3.588,0,0,1,2.183,2.957" transform="translate(-307.405 -354.583)" fill="none" stroke="#122030" stroke-linecap="round" stroke-miterlimit="10" stroke-width="0.112"/>
              <path id="Path_9058" data-name="Path 9058" d="M346.344,373.585l1.605-.356" transform="translate(-307.509 -353.422)" fill="none" stroke="#122030" stroke-linecap="round" stroke-miterlimit="10" stroke-width="0.112"/>
              <path id="Path_9059" data-name="Path 9059" d="M348.949,372.314q1.626,1.254,3.251,2.5" transform="translate(-296.67 -357.229)" fill="none" stroke="#122030" stroke-linecap="round" stroke-miterlimit="10" stroke-width="0.112"/>
              <path id="Path_9060" data-name="Path 9060" d="M350.229,373.063l3.731-.186" transform="translate(-291.344 -354.886)" fill="none" stroke="#122030" stroke-linecap="round" stroke-miterlimit="10" stroke-width="0.112"/>
              <path id="Path_9061" data-name="Path 9061" d="M346.453,381.184l1.228-5.207c2.023,3.757,9.687,7.406,12.36,5.491l-2.673,8.386-11.276-3.829Z" transform="translate(-308.557 -341.988)" fill="#122030"/>
              <path id="Path_9062" data-name="Path 9062" d="M381.711,381.8c-.356,10.884-24.421-.449-24.421-.449-1.373,4.345-4.686,4.923-4.686,4.923L350.7,392.3s-4.892-8.273-4.284-11.219,3.649-1.987,3.649-1.987c-2.317-11.142,17.175-9.14,17.175-9.14l-5.264,3.958,13.568-4.521c1.651,3.86-2.715,7.359-2.715,7.359S381.933,375.016,381.711,381.8Z" transform="translate(-307.447 -369.391)" fill="#122030"/>
            </g>
          </g>
        </g>
        <g id="Group_4412" data-name="Group 4412" transform="translate(83.739)">
          <rect id="Rectangle_461" data-name="Rectangle 461" width="144.699" height="116.554" rx="1.454" transform="translate(2.127)" fill="#fff"/>
          <path id="Path_9063" data-name="Path 9063" d="M360.081,382.535c3.313-1.089,7.633-.656,7.932.356s-7.932,2.983-7.932,2.983Z" transform="translate(-360.081 -310.168)" fill="#f7c5b4"/>
          <path id="Path_9064" data-name="Path 9064" d="M413.9,439.235H368.2a2.769,2.769,0,0,1,0-5.538h45.7a2.769,2.769,0,0,1,0,5.538Zm9.413-64.613a4.167,4.167,0,0,0-4.165-4.17H385.794a4.17,4.17,0,1,0,0,8.34h33.359a4.167,4.167,0,0,0,4.166-4.17Zm19.616,0a4.167,4.167,0,0,0-4.165-4.17h-7.69a4.17,4.17,0,1,0,0,8.34h7.69a4.167,4.167,0,0,0,4.166-4.169Z" transform="translate(-337.804 -357.795)" fill="#0fc2bf"/>
          <path id="Path_9065" data-name="Path 9065" d="M470.451,388.185H370.61a7.158,7.158,0,0,1-7.158-7.158h0a7.158,7.158,0,0,1,7.158-7.158h99.841a7.158,7.158,0,0,1,7.158,7.158h0a7.158,7.158,0,0,1-7.158,7.158Z" transform="translate(-346.055 -343.578)" fill="#cee1fe"/>
          <path id="Path_9066" data-name="Path 9066" d="M470.451,392.809H370.61a7.158,7.158,0,0,1-7.158-7.158h0a7.158,7.158,0,0,1,7.158-7.158h99.841a7.158,7.158,0,0,1,7.158,7.158h0a7.158,7.158,0,0,1-7.158,7.158Z" transform="translate(-346.055 -324.338)" fill="#cee1fe"/>
          <path id="Path_9067" data-name="Path 9067" d="M373.487,379.075V379a1.846,1.846,0,0,1-1.28.563,1.787,1.787,0,0,1-1.414-.655,2.628,2.628,0,0,1-.536-1.662v-1.909a.5.5,0,0,1,1,0v1.92a1.474,1.474,0,0,0,.289.955.968.968,0,0,0,.779.366,1.1,1.1,0,0,0,.836-.372,1.35,1.35,0,0,0,.33-.924v-1.93a.485.485,0,0,1,.49-.5.494.494,0,0,1,.356.139.475.475,0,0,1,.145.356v3.721a.44.44,0,0,1-.15.346.485.485,0,0,1-.356.15.478.478,0,0,1-.489-.489Zm2.993.341a1.452,1.452,0,0,1-.738-.645.537.537,0,0,1-.078-.274.4.4,0,0,1,.062-.222.449.449,0,0,1,.4-.217.556.556,0,0,1,.444.232.936.936,0,0,0,.872.454.914.914,0,0,0,.5-.139.4.4,0,0,0,.222-.361.36.36,0,0,0-.083-.248.9.9,0,0,0-.459-.279l-.268-.083a3.871,3.871,0,0,1-1.084-.516,1.078,1.078,0,0,1-.49-.9,1.254,1.254,0,0,1,.506-1,1.853,1.853,0,0,1,1.141-.372,2.21,2.21,0,0,1,.846.165,1.115,1.115,0,0,1,.6.506.47.47,0,0,1,.057.217.4.4,0,0,1-.108.273.437.437,0,0,1-.325.15.352.352,0,0,1-.165-.036l-.2-.15a1.665,1.665,0,0,0-.191-.124.845.845,0,0,0-.449-.124c-.423,0-.712.165-.712.464a.429.429,0,0,0,.243.372,2.57,2.57,0,0,0,.6.243,3.245,3.245,0,0,1,1.053.475,1.117,1.117,0,0,1,.449.929,1.316,1.316,0,0,1-.48,1.006,1.849,1.849,0,0,1-1.2.408,2.269,2.269,0,0,1-.965-.2Zm4.325-.5a2.361,2.361,0,0,1-.707-1.682,2.394,2.394,0,0,1,4.077-1.693,2.352,2.352,0,0,1,.712,1.667.462.462,0,0,1-.49.475h-3.2a1.414,1.414,0,0,0,.475.7,1.306,1.306,0,0,0,.815.274,1.148,1.148,0,0,0,.9-.356.516.516,0,0,1,.33-.124.491.491,0,0,1,.165.031.464.464,0,0,1,.237.211.483.483,0,0,1,.088.279.475.475,0,0,1-.191.372,1.918,1.918,0,0,1-.588.382,2.614,2.614,0,0,1-.939.16,2.373,2.373,0,0,1-1.692-.692Zm3.06-2.064a1.4,1.4,0,0,0-.475-.754,1.415,1.415,0,0,0-.882-.3,1.34,1.34,0,0,0-1.332,1.053Zm2.395,2.56a.473.473,0,0,1-.15-.346v-3.721a.5.5,0,0,1,.506-.5.466.466,0,0,1,.351.145.486.486,0,0,1,.139.356,2.477,2.477,0,0,1,1.491-.5h.021a.474.474,0,0,1,.516.5.5.5,0,0,1-.516.5H388.6a1.458,1.458,0,0,0-1.048.439,1.481,1.481,0,0,0-.444,1.068v1.718a.5.5,0,0,1-.846.346Zm7.21-.33V377.16a1.584,1.584,0,0,0-.284-.96.972.972,0,0,0-.79-.356,1.063,1.063,0,0,0-.831.366,1.425,1.425,0,0,0-.33.929v1.93a.485.485,0,0,1-.5.49.5.5,0,0,1-.5-.49v-3.721a.471.471,0,0,1,.15-.356.522.522,0,0,1,.356-.145.474.474,0,0,1,.351.145.507.507,0,0,1,.139.356v.067a1.857,1.857,0,0,1,1.275-.563,1.769,1.769,0,0,1,1.409.655,2.561,2.561,0,0,1,.542,1.651v1.925a.5.5,0,0,1-.991,0Zm2.864-.165a2.385,2.385,0,0,1,1.682-4.07,2.344,2.344,0,0,1,1.677.692,2.384,2.384,0,0,1,.7,1.672v1.837a.5.5,0,0,1-.145.356.478.478,0,0,1-.366.15.485.485,0,0,1-.485-.454,2.135,2.135,0,0,1-1.383.516,2.357,2.357,0,0,1-1.681-.7ZM399,378.21a1.4,1.4,0,0,0,0-1.956,1.386,1.386,0,1,0,0,1.956Zm3.04,1.2a.473.473,0,0,1-.15-.346v-3.721a.471.471,0,0,1,.15-.356.532.532,0,0,1,.356-.145.48.48,0,0,1,.48.413,1.438,1.438,0,0,1,.986-.413,1.6,1.6,0,0,1,1.27.583,2.145,2.145,0,0,1,1.429-.583,1.6,1.6,0,0,1,1.223.532,1.924,1.924,0,0,1,.459,1.28v2.415a.479.479,0,0,1-.49.485.5.5,0,0,1-.356-.144.454.454,0,0,1-.15-.341v-2.426a.876.876,0,0,0-.217-.578.751.751,0,0,0-.552-.222,1.012,1.012,0,0,0-.614.227.781.781,0,0,0-.3.552v2.446a.475.475,0,0,1-.485.485.491.491,0,0,1-.356-.144.436.436,0,0,1-.15-.341v-2.446a.814.814,0,0,0-.222-.562.719.719,0,0,0-.542-.217,1.009,1.009,0,0,0-.619.222.749.749,0,0,0-.3.552v2.446a.5.5,0,0,1-.846.346Zm8.061-.5a2.361,2.361,0,0,1-.707-1.682,2.394,2.394,0,0,1,4.077-1.693,2.33,2.33,0,0,1,.712,1.667.462.462,0,0,1-.49.475h-3.2a1.415,1.415,0,0,0,.475.7,1.306,1.306,0,0,0,.815.274,1.148,1.148,0,0,0,.9-.356.526.526,0,0,1,.33-.124.49.49,0,0,1,.165.031.464.464,0,0,1,.237.211.484.484,0,0,1,.088.279.475.475,0,0,1-.191.372,1.917,1.917,0,0,1-.589.382,2.615,2.615,0,0,1-.939.16,2.373,2.373,0,0,1-1.691-.686Zm3.06-2.064a1.365,1.365,0,0,0-1.357-1.054,1.34,1.34,0,0,0-1.331,1.053Z" transform="translate(-317.745 -339.525)" fill="#fff"/>
          <path id="Path_9068" data-name="Path 9068" d="M372.77,382.526a.471.471,0,0,1-.15-.356v-.2l-.145.088a.492.492,0,0,1-.3.093.484.484,0,0,1-.4-.2.519.519,0,0,1-.093-.3.5.5,0,0,1,.212-.4l.248-.15-.237-.144a.461.461,0,0,1-.222-.392.5.5,0,0,1,.428-.506l.083-.01a.455.455,0,0,1,.289.1l.139.083v-.191a.506.506,0,0,1,.516-.506.487.487,0,0,1,.49.506v.186l.124-.072a.424.424,0,0,1,.289-.093.561.561,0,0,1,.418.2.5.5,0,0,1,.093.3l-.005.083a.467.467,0,0,1-.217.32l-.237.144.253.145a.487.487,0,0,1,.2.408.519.519,0,0,1-.088.294.5.5,0,0,1-.4.206.474.474,0,0,1-.3-.1l-.129-.077v.2a.5.5,0,0,1-.5.506.524.524,0,0,1-.359-.165Zm4.392,0a.472.472,0,0,1-.15-.356v-.2l-.144.088a.492.492,0,0,1-.3.093.485.485,0,0,1-.4-.2.519.519,0,0,1-.093-.3.494.494,0,0,1,.212-.4l.248-.15-.237-.144a.461.461,0,0,1-.222-.392.5.5,0,0,1,.423-.506l.088-.01a.456.456,0,0,1,.289.1l.139.083v-.191a.506.506,0,0,1,.516-.506.487.487,0,0,1,.49.506v.186l.124-.072a.424.424,0,0,1,.289-.093.561.561,0,0,1,.418.2.5.5,0,0,1,.093.3l0,.083a.467.467,0,0,1-.217.32l-.237.144.253.145a.487.487,0,0,1,.2.408.521.521,0,0,1-.088.294.5.5,0,0,1-.4.206.465.465,0,0,1-.3-.1l-.129-.077v.2a.5.5,0,0,1-.5.506.524.524,0,0,1-.36-.165Zm4.392,0a.472.472,0,0,1-.15-.356v-.2l-.145.088a.492.492,0,0,1-.3.093.469.469,0,0,1-.4-.2.489.489,0,0,1-.1-.3.5.5,0,0,1,.212-.4l.248-.15-.237-.144a.461.461,0,0,1-.222-.392.489.489,0,0,1,.1-.3.5.5,0,0,1,.33-.2l.083-.01a.455.455,0,0,1,.289.1l.139.083v-.191a.506.506,0,0,1,.516-.506.487.487,0,0,1,.49.506v.186l.124-.072a.424.424,0,0,1,.289-.093.561.561,0,0,1,.418.2.5.5,0,0,1,.093.3l0,.083a.477.477,0,0,1-.212.32l-.243.144.253.145a.487.487,0,0,1,.2.408.519.519,0,0,1-.088.294.5.5,0,0,1-.4.206.475.475,0,0,1-.3-.1l-.129-.077v.2a.5.5,0,0,1-.5.506.524.524,0,0,1-.353-.171Zm4.392,0a.471.471,0,0,1-.15-.356v-.2l-.144.088a.492.492,0,0,1-.3.093.485.485,0,0,1-.4-.2.518.518,0,0,1-.093-.3.494.494,0,0,1,.212-.4l.248-.15-.237-.144a.461.461,0,0,1-.222-.392.5.5,0,0,1,.428-.506l.083-.01a.456.456,0,0,1,.289.1l.139.083v-.191a.506.506,0,0,1,.516-.506.487.487,0,0,1,.49.506v.186l.124-.072a.424.424,0,0,1,.289-.093.561.561,0,0,1,.418.2.5.5,0,0,1,.093.3l0,.083a.477.477,0,0,1-.212.32l-.242.144.253.145a.487.487,0,0,1,.2.408.521.521,0,0,1-.088.294.5.5,0,0,1-.4.206.475.475,0,0,1-.3-.1l-.129-.077v.2a.5.5,0,0,1-.5.506.524.524,0,0,1-.36-.165Zm4.392,0a.472.472,0,0,1-.15-.356v-.2l-.144.088a.493.493,0,0,1-.3.093.485.485,0,0,1-.4-.2.519.519,0,0,1-.093-.3.5.5,0,0,1,.212-.4l.248-.15-.238-.144a.461.461,0,0,1-.222-.392.5.5,0,0,1,.423-.506l.088-.01a.455.455,0,0,1,.289.1l.139.083v-.191a.506.506,0,0,1,.516-.506.487.487,0,0,1,.49.506v.186l.124-.072a.424.424,0,0,1,.289-.093.561.561,0,0,1,.418.2.5.5,0,0,1,.093.3l0,.083a.467.467,0,0,1-.217.32l-.237.144.253.145a.487.487,0,0,1,.2.408.519.519,0,0,1-.088.294.5.5,0,0,1-.4.206.475.475,0,0,1-.3-.1l-.129-.077v.2a.5.5,0,0,1-.5.506.524.524,0,0,1-.36-.165Zm4.392,0a.471.471,0,0,1-.15-.356v-.2l-.145.088a.492.492,0,0,1-.3.093.485.485,0,0,1-.4-.2.518.518,0,0,1-.093-.3.494.494,0,0,1,.211-.4l.248-.15-.237-.144a.461.461,0,0,1-.222-.392.5.5,0,0,1,.423-.506l.088-.01a.455.455,0,0,1,.289.1l.139.083v-.191a.506.506,0,0,1,.516-.506.487.487,0,0,1,.49.506v.186l.124-.072a.424.424,0,0,1,.289-.093.561.561,0,0,1,.418.2.5.5,0,0,1,.093.3l-.005.083a.467.467,0,0,1-.217.32l-.237.144.253.145a.487.487,0,0,1,.2.408.521.521,0,0,1-.088.294.5.5,0,0,1-.4.206.464.464,0,0,1-.3-.1l-.129-.077v.2a.5.5,0,0,1-.5.506.524.524,0,0,1-.358-.165Zm4.392,0a.472.472,0,0,1-.15-.356v-.2l-.144.088a.493.493,0,0,1-.3.093.469.469,0,0,1-.4-.2.489.489,0,0,1-.1-.3.5.5,0,0,1,.212-.4l.248-.15-.238-.144a.461.461,0,0,1-.222-.392.489.489,0,0,1,.1-.3.5.5,0,0,1,.33-.2l.083-.01a.455.455,0,0,1,.289.1l.139.083v-.191a.506.506,0,0,1,.516-.506.487.487,0,0,1,.49.506v.186l.124-.072a.424.424,0,0,1,.289-.093.561.561,0,0,1,.418.2.5.5,0,0,1,.093.3l-.005.083a.478.478,0,0,1-.212.32l-.243.144.253.145a.487.487,0,0,1,.2.408.52.52,0,0,1-.088.294.5.5,0,0,1-.4.206.474.474,0,0,1-.3-.1l-.129-.077v.2a.5.5,0,0,1-.5.506.524.524,0,0,1-.354-.171Z" transform="translate(-311.816 -320.057)" fill="#fff"/>
          <path id="Path_9117" data-name="Path 9117" d="M0,0H5.537V5.537H0Z" transform="translate(17.398 75.904)" fill="#0caba7"/>
          <path id="Path_9069" data-name="Path 9069" d="M419.538,398.333H375.33a6.325,6.325,0,0,1-6.33-6.327h0a6.328,6.328,0,0,1,6.326-6.327h44.209a6.328,6.328,0,0,1,6.327,6.326h0A6.324,6.324,0,0,1,419.538,398.333Z" transform="translate(-322.958 -294.439)" fill="#015a58"/>
        </g>
      </g>
      <g id="Group_4415" data-name="Group 4415" transform="translate(832.723 655.303)">
        <g id="Group_4414" data-name="Group 4414">
          <path id="Path_9070" data-name="Path 9070" d="M436.9,393.941H424.974a5.7,5.7,0,0,1-5.7,5.7V403.8a17.837,17.837,0,0,0,11.664,16.737h0A17.835,17.835,0,0,0,442.606,403.8v-4.154a5.7,5.7,0,0,1-5.7-5.7Zm-.289,15.591-2.678,2.673-3-3-3,3-2.673-2.673,3-3-3-3,2.673-2.673,3,3,3-3,2.678,2.673-3,3Z" transform="translate(-419.276 -393.941)" fill="#015a58"/>
        </g>
      </g>
      <g id="Group_4416" data-name="Group 4416" transform="translate(348.676 604.969)">
        <path id="Path_9071" data-name="Path 9071" d="M341.538,452.109H357.9a9.267,9.267,0,0,0,9.269-9.266V393.864A9.267,9.267,0,0,0,357.9,384.6H341.54Z" transform="translate(-258.682 -382.473)" fill="#122030"/>
        <path id="Path_9118" data-name="Path 9118" d="M1.8,0H108.811a1.8,1.8,0,0,1,1.8,1.8V65.718a1.8,1.8,0,0,1-1.8,1.8H1.8a1.8,1.8,0,0,1-1.8-1.8V1.8A1.8,1.8,0,0,1,1.8,0Z" transform="translate(110.606 67.514) rotate(180)" fill="#0caba7"/>
        <rect id="Rectangle_464" data-name="Rectangle 464" width="110.606" height="16.832" transform="translate(0 37.136)" fill="#122030"/>
        <path id="Path_9072" data-name="Path 9072" d="M356.581,394.7a8.68,8.68,0,1,1-8.681-8.681,8.68,8.68,0,0,1,8.681,8.681Z" transform="translate(-268.327 -376.577)" fill="#fff"/>
        <path id="Path_9073" data-name="Path 9073" d="M359.116,394.7a8.683,8.683,0,1,1-8.686-8.681,8.683,8.683,0,0,1,8.686,8.681Z" transform="translate(-257.8 -376.577)" fill="#cee1fe"/>
        <path id="Path_9074" data-name="Path 9074" d="M364.341,391.668h-34.2a2.825,2.825,0,0,1-2.828-2.823h0a2.826,2.826,0,0,1,2.828-2.828h34.2a2.829,2.829,0,0,1,2.828,2.828h0A2.828,2.828,0,0,1,364.341,391.668Zm-17.624,8.887h0a2.825,2.825,0,0,0-2.828-2.823H330.14a2.825,2.825,0,0,0-2.828,2.823h0a2.826,2.826,0,0,0,2.828,2.828h13.748a2.826,2.826,0,0,0,2.829-2.828Zm72.473,36.306h0a1.482,1.482,0,0,0-1.486-1.481H402.882a1.482,1.482,0,0,0-1.486,1.481h0a1.487,1.487,0,0,0,1.486,1.486H417.7a1.487,1.487,0,0,0,1.49-1.486Z" transform="translate(-317.873 -376.577)" fill="#cee1fe"/>
      </g>
      <path id="Path_9075" data-name="Path 9075" d="M437.066,387V356.887a3.337,3.337,0,0,0-6.673,0v.227h-2.952a3.331,3.331,0,0,0-.2,6.657v4.284a3.329,3.329,0,0,0,.2,6.652h2.952V387a15.542,15.542,0,1,0,6.673,0Zm-3.334,24.034a11.221,11.221,0,1,0,0-.005Z" transform="translate(408.92 93.295)" fill="#015a58"/>
      <path id="Path_9076" data-name="Path 9076" d="M412.313,346.108a1.106,1.106,0,0,1,.33.805,1.152,1.152,0,0,1-.088.444,1.375,1.375,0,0,1-.243.377,1.133,1.133,0,0,1-.821.33,1.174,1.174,0,0,1-.428-.088,1.1,1.1,0,0,1-.372-.243,1.13,1.13,0,0,1-.346-.821,1.148,1.148,0,0,1,.346-.8,1,1,0,0,1,.372-.258A1.162,1.162,0,0,1,412.313,346.108Zm10.74,0a1.068,1.068,0,0,0-.377-.258,1.2,1.2,0,0,0-1.507.619,1.143,1.143,0,0,0,.635,1.507,1.1,1.1,0,0,0,.428.088,1.152,1.152,0,0,0,.444-.088,1.3,1.3,0,0,0,.377-.243,1.654,1.654,0,0,0,.242-.377,1.152,1.152,0,0,0,.088-.444,1.233,1.233,0,0,0-.088-.444,1.3,1.3,0,0,0-.242-.36Zm9.491-.258a1,1,0,0,0-.372.258,1.106,1.106,0,0,0-.335.805,1.146,1.146,0,0,0,.335.821,1.1,1.1,0,0,0,.372.243,1.114,1.114,0,0,0,.428.088,1.2,1.2,0,0,0,.449-.088,1.351,1.351,0,0,0,.372-.243,1.186,1.186,0,0,0,.33-.821,1.106,1.106,0,0,0-.33-.8,1.167,1.167,0,0,0-1.249-.258Zm11.989.258a1.068,1.068,0,0,0-.377-.258,1.17,1.17,0,0,0-1.249.258.965.965,0,0,0-.243.377.886.886,0,0,0-.1.428,1.153,1.153,0,0,0,.083.444,1.438,1.438,0,0,0,.258.377,1.143,1.143,0,0,0,1.956-.821,1.1,1.1,0,0,0-.088-.428,1.184,1.184,0,0,0-.241-.377Zm9.491-.258a1.007,1.007,0,0,0-.372.258.951.951,0,0,0-.258.377,1.011,1.011,0,0,0-.088.428,1.156,1.156,0,0,0,.346.821,1.178,1.178,0,0,0,.8.33,1.2,1.2,0,0,0,.449-.088,1.355,1.355,0,0,0,.372-.243,1.373,1.373,0,0,0,.242-.377,1.156,1.156,0,0,0,.088-.444,1.133,1.133,0,0,0-.33-.8,1.175,1.175,0,0,0-1.25-.257Zm10.363,1.884a1.183,1.183,0,0,0,.377.243,1.112,1.112,0,0,0,.428.088,1.151,1.151,0,0,0,.444-.088,1.3,1.3,0,0,0,.377-.243,1.665,1.665,0,0,0,.243-.377,1.164,1.164,0,0,0,.1-.444,1.19,1.19,0,0,0-.346-.815,1.158,1.158,0,0,0-1.883,1.259,1.434,1.434,0,0,0,.259.377Zm-53.321,8.856a.95.95,0,0,0-.372.258,1.148,1.148,0,0,0-.346.805,1.081,1.081,0,0,0,.088.444,1.024,1.024,0,0,0,.258.377,1.1,1.1,0,0,0,.372.243,1.175,1.175,0,0,0,.428.088,1.154,1.154,0,0,0,.821-.33,1.3,1.3,0,0,0,.243-.377,1.171,1.171,0,0,0,.088-.444,1.106,1.106,0,0,0-.33-.805,1.153,1.153,0,0,0-1.252-.259Zm10.74,0a1.009,1.009,0,0,0-.377.258,1.137,1.137,0,0,0-.341.8,1.231,1.231,0,0,0,.341.821,1.153,1.153,0,0,0,1.249.243,1.307,1.307,0,0,0,.377-.243,1.547,1.547,0,0,0,.242-.377,1.17,1.17,0,0,0,.088-.444,1.132,1.132,0,0,0-.33-.8,1.157,1.157,0,0,0-1.255-.258Zm10.74,0a.95.95,0,0,0-.372.258.924.924,0,0,0-.248.377.876.876,0,0,0-.088.428,1.146,1.146,0,0,0,.335.821,1.1,1.1,0,0,0,.372.243,1.115,1.115,0,0,0,.428.088,1.155,1.155,0,0,0,.821-.33,1.561,1.561,0,0,0,.242-.377,1.171,1.171,0,0,0,.088-.444,1.132,1.132,0,0,0-.33-.8,1.157,1.157,0,0,0-1.25-.259Zm10.363.258a1.149,1.149,0,1,0,1.955.8,1.106,1.106,0,0,0-.33-.8,1.189,1.189,0,0,0-1.627,0Zm12.365,0a1.159,1.159,0,0,0-1.249-.258.951.951,0,0,0-.372.258,1.121,1.121,0,0,0-.346.8,1.08,1.08,0,0,0,.088.444,1.162,1.162,0,0,0,1.058.707,1.2,1.2,0,0,0,.449-.088,1.357,1.357,0,0,0,.372-.243,1.2,1.2,0,0,0,.33-.821,1.239,1.239,0,0,0-.088-.444,1.3,1.3,0,0,0-.244-.36Zm9.491-.258a1.011,1.011,0,0,0-.377.258,1.129,1.129,0,0,0,0,1.626,1.186,1.186,0,0,0,.377.243,1.114,1.114,0,0,0,.428.088,1.153,1.153,0,0,0,.444-.088,1.059,1.059,0,0,0,.619-.619,1.185,1.185,0,0,0,.1-.444,1.148,1.148,0,0,0-.346-.8,1.162,1.162,0,0,0-1.247-.259Zm-52.449,11a1.153,1.153,0,0,0-1.249-.258,1.259,1.259,0,0,0-.63.635,1.01,1.01,0,0,0-.088.428,1.2,1.2,0,0,0,.346.821,1.133,1.133,0,0,0,.8.33,1.154,1.154,0,0,0,.821-.33,1.142,1.142,0,0,0,.33-.821,1.094,1.094,0,0,0-.088-.428,1.177,1.177,0,0,0-.245-.379Zm9.491-.258a1.007,1.007,0,0,0-.377.258,1.137,1.137,0,0,0-.341.8,1.222,1.222,0,0,0,.341.821,1.153,1.153,0,0,0,1.249.243,1.312,1.312,0,0,0,.377-.243,1.659,1.659,0,0,0,.242-.377,1.153,1.153,0,0,0,.088-.444,1.106,1.106,0,0,0-.33-.8,1.157,1.157,0,0,0-1.256-.26Zm10.74,0a.949.949,0,0,0-.372.258.923.923,0,0,0-.248.377.877.877,0,0,0-.088.428,1.146,1.146,0,0,0,.335.821,1.178,1.178,0,0,0,.8.33,1.2,1.2,0,0,0,.449-.088,1.361,1.361,0,0,0,.372-.243,1.186,1.186,0,0,0,.33-.821,1.132,1.132,0,0,0-.33-.8,1.157,1.157,0,0,0-1.251-.259Zm10.363.258a1.156,1.156,0,0,0-.258,1.249,1.441,1.441,0,0,0,.258.377,1.165,1.165,0,0,0,1.625,0,1.142,1.142,0,0,0,.33-.821,1.106,1.106,0,0,0-.33-.805,1.189,1.189,0,0,0-1.628,0Zm11.116-.258a1.259,1.259,0,0,0-.63.635,1.009,1.009,0,0,0-.088.428,1.157,1.157,0,0,0,.346.821,1.18,1.18,0,0,0,.8.331,1.2,1.2,0,0,0,.449-.088,1.362,1.362,0,0,0,.372-.243,1.66,1.66,0,0,0,.242-.377,1.157,1.157,0,0,0,.088-.444,1.133,1.133,0,0,0-.33-.8,1.159,1.159,0,0,0-1.252-.26Zm10.363.258a1.165,1.165,0,0,0-.34.8,1.15,1.15,0,0,0,.083.444,1.437,1.437,0,0,0,.258.377,1.191,1.191,0,0,0,.377.243,1.115,1.115,0,0,0,.428.088,1.154,1.154,0,0,0,.444-.088,1.311,1.311,0,0,0,.377-.243,1.669,1.669,0,0,0,.243-.377,1.164,1.164,0,0,0,.1-.444,1.147,1.147,0,0,0-.346-.8,1.189,1.189,0,0,0-1.627,0Zm-52.073,10.74a1.152,1.152,0,0,0-1.249-.258,1.258,1.258,0,0,0-.63.635,1.01,1.01,0,0,0-.088.428,1.156,1.156,0,0,0,.346.821,1.133,1.133,0,0,0,.8.33,1.154,1.154,0,0,0,.821-.33,1.141,1.141,0,0,0,.33-.821,1.094,1.094,0,0,0-.088-.428,1.177,1.177,0,0,0-.245-.38Zm10.363-.258a1.155,1.155,0,0,0-1.249.258,1.137,1.137,0,0,0-.341.8,1.173,1.173,0,0,0,.341.821,1.188,1.188,0,0,0,.377.243,1.1,1.1,0,0,0,.428.088,1.155,1.155,0,0,0,.444-.088,1.311,1.311,0,0,0,.377-.243,1.141,1.141,0,0,0,.33-.821,1.106,1.106,0,0,0-.33-.805,1,1,0,0,0-.38-.261Zm11.116.258a1.156,1.156,0,0,0-1.249-.258.947.947,0,0,0-.372.258.923.923,0,0,0-.248.377,1.094,1.094,0,0,0-.088.428,1.146,1.146,0,0,0,.335.821,1.108,1.108,0,0,0,.372.243,1.177,1.177,0,0,0,.428.088,1.2,1.2,0,0,0,.449-.088,1.361,1.361,0,0,0,.372-.243,1.168,1.168,0,0,0,.33-.821,1.094,1.094,0,0,0-.088-.428,1.185,1.185,0,0,0-.243-.38Zm9.114-.016a1.158,1.158,0,0,0,0,1.641,1.18,1.18,0,0,0,.377.243,1.1,1.1,0,0,0,.428.088,1.155,1.155,0,0,0,.444-.088,1.312,1.312,0,0,0,.377-.243,1.141,1.141,0,0,0,.33-.821,1.168,1.168,0,0,0-.33-.821,1.221,1.221,0,0,0-1.628,0Zm12.365.016a1.158,1.158,0,0,0-1.249-.258.949.949,0,0,0-.372.258,1.121,1.121,0,0,0-.346.8,1.081,1.081,0,0,0,.088.444,1.172,1.172,0,0,0,.258.377,1.18,1.18,0,0,0,.8.331,1.2,1.2,0,0,0,.449-.088,1.361,1.361,0,0,0,.372-.243,1.2,1.2,0,0,0,.33-.821,1.239,1.239,0,0,0-.088-.444,1.3,1.3,0,0,0-.244-.364Zm9.114-.016a1.231,1.231,0,0,0-.34.821,1.167,1.167,0,0,0,.083.444,1.358,1.358,0,0,0,.258.377,1.19,1.19,0,0,0,.377.243,1.114,1.114,0,0,0,.428.088,1.154,1.154,0,0,0,.444-.088,1.311,1.311,0,0,0,.377-.243,1.562,1.562,0,0,0,.243-.377,1.185,1.185,0,0,0,.1-.444,1.159,1.159,0,0,0-1.972-.821Zm-52.073,10.755a1.152,1.152,0,0,0-1.249-.258.946.946,0,0,0-.372.258,1.147,1.147,0,0,0-.346.8,1.174,1.174,0,0,0,.346.821,1.1,1.1,0,0,0,.372.243,1.174,1.174,0,0,0,.428.088,1.154,1.154,0,0,0,.821-.33,1.662,1.662,0,0,0,.243-.377,1.152,1.152,0,0,0,.088-.444,1.14,1.14,0,0,0-.088-.434,1.216,1.216,0,0,0-.245-.374Zm10.363-.258a1.155,1.155,0,0,0-1.249.258,1.137,1.137,0,0,0-.341.805,1.222,1.222,0,0,0,.341.821,1.181,1.181,0,0,0,.377.243,1.1,1.1,0,0,0,.428.088,1.152,1.152,0,0,0,.444-.088,1.3,1.3,0,0,0,.377-.243,1.141,1.141,0,0,0,.33-.821,1.106,1.106,0,0,0-.33-.805,1,1,0,0,0-.379-.26Zm9.867,0a1.2,1.2,0,0,0-.619.63.909.909,0,0,0-.088.434,1.146,1.146,0,0,0,.335.821,1.1,1.1,0,0,0,.372.243,1.175,1.175,0,0,0,.428.088,1.2,1.2,0,0,0,.449-.088,1.353,1.353,0,0,0,.372-.243,1.186,1.186,0,0,0,.33-.821,1.132,1.132,0,0,0-.33-.8,1.156,1.156,0,0,0-1.25-.261Zm11.612,0a1.162,1.162,0,0,0-1.59,1.063,1.221,1.221,0,0,0,.341.821,1.165,1.165,0,0,0,1.625,0,1.141,1.141,0,0,0,.33-.821,1.106,1.106,0,0,0-.33-.805,1,1,0,0,0-.377-.26Zm9.867,0a.948.948,0,0,0-.372.258.97.97,0,0,0-.258.371,1.05,1.05,0,0,0-.088.434,1.156,1.156,0,0,0,.346.821,1.178,1.178,0,0,0,.8.33,1.2,1.2,0,0,0,.449-.088,1.355,1.355,0,0,0,.372-.243,1.661,1.661,0,0,0,.242-.377,1.156,1.156,0,0,0,.088-.444,1.133,1.133,0,0,0-.33-.8,1.158,1.158,0,0,0-1.25-.259Zm10.74,0a1,1,0,0,0-.377.258,1.164,1.164,0,0,0-.34.8,1.15,1.15,0,0,0,.083.444,1.44,1.44,0,0,0,.258.377,1.183,1.183,0,0,0,.377.243,1.112,1.112,0,0,0,.428.088,1.151,1.151,0,0,0,.444-.088,1.3,1.3,0,0,0,.377-.243,1.671,1.671,0,0,0,.243-.377,1.153,1.153,0,0,0-1.495-1.507Z" transform="translate(376.296 60.929)" fill="#d0e4fe"/>
      <g id="Group_4429" data-name="Group 4429" transform="translate(693.97 437.417)">
        <path id="Path_9077" data-name="Path 9077" d="M467.98,356.62H392.39v75.167a7.033,7.033,0,0,0,7.035,7.034h76.524V364.594a7.971,7.971,0,0,0-7.969-7.974Z" transform="translate(-392.39 -331.34)" fill="#015a58"/>
        <rect id="Rectangle_465" data-name="Rectangle 465" width="107.729" height="105.638" rx="1.363" transform="translate(1.844)" fill="#0caba7"/>
        <g id="Group_4427" data-name="Group 4427" transform="translate(12.768 16.243)">
          <g id="Group_4421" data-name="Group 4421">
            <g id="Group_4417" data-name="Group 4417">
              <path id="Path_9078" data-name="Path 9078" d="M422.49,360.495H397.677a2.813,2.813,0,1,1,0-5.625H422.49a2.813,2.813,0,1,1,0,5.625Z" transform="translate(-394.864 -354.869)" fill="#cee1fe"/>
            </g>
            <g id="Group_4418" data-name="Group 4418" transform="translate(0 11.968)">
              <path id="Path_9079" data-name="Path 9079" d="M477.932,362.813H397.677a2.813,2.813,0,1,1,0-5.625h80.256a2.813,2.813,0,1,1,0,5.625Z" transform="translate(-394.864 -357.188)" fill="#0fc2bf"/>
            </g>
            <g id="Group_4419" data-name="Group 4419" transform="translate(0 23.936)">
              <path id="Path_9080" data-name="Path 9080" d="M441.038,365.132H397.677a2.813,2.813,0,1,1,0-5.625h43.361a2.813,2.813,0,1,1,0,5.626Z" transform="translate(-394.864 -359.507)" fill="#fff"/>
            </g>
            <g id="Group_4420" data-name="Group 4420" transform="translate(56.702 23.936)">
              <path id="Path_9081" data-name="Path 9081" d="M414.356,365.132h-5.692a2.813,2.813,0,1,1,0-5.625h5.692a2.813,2.813,0,1,1,0,5.626Z" transform="translate(-405.851 -359.507)" fill="#cee1fe"/>
            </g>
          </g>
          <g id="Group_4426" data-name="Group 4426" transform="translate(0 43.588)">
            <g id="Group_4422" data-name="Group 4422">
              <path id="Path_9082" data-name="Path 9082" d="M422.49,368.945H397.677a2.815,2.815,0,1,1,0-5.63H422.49a2.815,2.815,0,0,1,0,5.63Z" transform="translate(-394.864 -363.315)" fill="#cee1fe"/>
            </g>
            <g id="Group_4423" data-name="Group 4423" transform="translate(0 11.973)">
              <path id="Path_9083" data-name="Path 9083" d="M477.932,371.26H397.677a2.813,2.813,0,1,1,0-5.625h80.256a2.813,2.813,0,1,1,0,5.625Z" transform="translate(-394.864 -365.635)" fill="#023536"/>
            </g>
            <g id="Group_4424" data-name="Group 4424" transform="translate(0 23.936)">
              <path id="Path_9084" data-name="Path 9084" d="M441.038,373.583H397.677a2.815,2.815,0,1,1,0-5.63h43.361a2.815,2.815,0,0,1,0,5.63Z" transform="translate(-394.864 -367.953)" fill="#fff"/>
            </g>
            <g id="Group_4425" data-name="Group 4425" transform="translate(56.702 23.936)">
              <path id="Path_9085" data-name="Path 9085" d="M414.356,373.583h-5.692a2.815,2.815,0,1,1,0-5.63h5.692a2.815,2.815,0,0,1,0,5.63Z" transform="translate(-405.851 -367.953)" fill="#cee1fe"/>
            </g>
          </g>
        </g>
        <g id="Group_4428" data-name="Group 4428" transform="translate(81.375 6.252)">
          <path id="Path_9086" data-name="Path 9086" d="M411.734,354.724a1.788,1.788,0,1,1-1.786-1.791,1.788,1.788,0,0,1,1.786,1.791Z" transform="translate(-408.158 -352.933)" fill="#fff"/>
          <path id="Path_9087" data-name="Path 9087" d="M413.009,354.724a1.788,1.788,0,1,1-1.791-1.791,1.788,1.788,0,0,1,1.791,1.791Z" transform="translate(-402.853 -352.933)" fill="#fff"/>
          <path id="Path_9088" data-name="Path 9088" d="M414.285,354.724a1.788,1.788,0,1,1-1.791-1.791A1.788,1.788,0,0,1,414.285,354.724Z" transform="translate(-397.548 -352.933)" fill="#fff"/>
        </g>
      </g>
      <g id="Group_4432" data-name="Group 4432" transform="translate(356.157 410.939)">
        <path id="Path_9089" data-name="Path 9089" d="M394.023,392.483a6.83,6.83,0,0,0,6.828-6.833V356.62h-51.34a7.975,7.975,0,0,0-7.974,7.973v27.89Z" transform="translate(-266.163 -304.863)" fill="#122030"/>
        <path id="Path_9116" data-name="Path 9116" d="M1.323,0H136.962a1.324,1.324,0,0,1,1.324,1.323V82.7a1.324,1.324,0,0,1-1.324,1.324H1.323A1.323,1.323,0,0,1,0,82.7V1.323A1.323,1.323,0,0,1,1.323,0Z" fill="#015a58"/>
        <path id="Path_9090" data-name="Path 9090" d="M329.58,349.238v41.9H440.543v-41.9Zm59.535,22.114-3.38,1.951-3.386,1.951a1.342,1.342,0,0,1-2.013-1.161v-7.808a1.34,1.34,0,0,1,2.013-1.161l6.766,3.9a1.346,1.346,0,0,1,0,2.328Z" transform="translate(-315.918 -335.578)" fill="#fff"/>
        <g id="Group_4430" data-name="Group 4430" transform="translate(13.028 63.524)">
          <path id="Path_9091" data-name="Path 9091" d="M436.6,367.818H333.916a4.459,4.459,0,0,1,0-8.918H436.6a4.459,4.459,0,1,1,0,8.918Z" transform="translate(-329.457 -358.9)" fill="#0fc2bf"/>
        </g>
        <g id="Group_4431" data-name="Group 4431" transform="translate(13.028 63.524)">
          <path id="Path_9092" data-name="Path 9092" d="M366.682,367.818H333.916a4.459,4.459,0,0,1,0-8.918h32.766a4.459,4.459,0,1,1,0,8.918Z" transform="translate(-329.457 -358.9)" fill="#cee1fe"/>
        </g>
      </g>
      <g id="Group_4435" data-name="Group 4435" transform="translate(744.025 593.536)">
        <path id="Path_9093" data-name="Path 9093" d="M435.593,382.443a41.2,41.2,0,0,0,0,80.947Z" transform="translate(-402.089 -380.015)" fill="#015a58"/>
        <g id="Group_4433" data-name="Group 4433" transform="translate(1.698)">
          <path id="Path_9119" data-name="Path 9119" d="M41.2,0A41.2,41.2,0,1,1,0,41.2,41.2,41.2,0,0,1,41.2,0Z" fill="#008f8d"/>
        </g>
        <g id="Group_4434" data-name="Group 4434" transform="translate(21.752 17.436)">
          <path id="Path_9094" data-name="Path 9094" d="M447.824,393.541a13.942,13.942,0,0,0-3.943-4.041,19.725,19.725,0,0,0-4.846-2.426,29.323,29.323,0,0,0-3.566-.965,35.979,35.979,0,0,0-14.7,0,29.335,29.335,0,0,0-3.566.965,19.736,19.736,0,0,0-4.846,2.426,13.94,13.94,0,0,0-3.943,4.041,16.4,16.4,0,0,0-1.966,10.569,51.39,51.39,0,0,0,3.071,11.065,8.213,8.213,0,0,0,7.179,12.592l4.774-4.815-3.5,8.355a19.139,19.139,0,0,0,20.292,0l-3.5-8.355,4.774,4.815a8.212,8.212,0,0,0,7.179-12.592,51.394,51.394,0,0,0,3.071-11.065,16.4,16.4,0,0,0-1.964-10.569Zm-32.462,18.853-.077-.057c-3.225-2.472-.077-8.066,3.308-5.878a16.521,16.521,0,0,1,5.641,6.105c-3.144.857-6.26,1.8-8.872-.17Zm12.758,8.422-3.009.924,3.009-6.694,3.009,6.694Zm12.835-8.479-.077.057c-2.611,1.966-5.729,1.027-8.872.17a16.525,16.525,0,0,1,5.641-6.105c3.385-2.189,6.533,3.406,3.307,5.878Z" transform="translate(-406.304 -385.351)" fill="#fff"/>
        </g>
      </g>
      <g id="Group_4442" data-name="Group 4442" transform="translate(664.084 382.064)">
        <path id="Path_9100" data-name="Path 9100" d="M413.662,341H392.668a6.072,6.072,0,0,0-6.069,6.069V364.06a6.072,6.072,0,0,0,6.069,6.069h5.078l5.424,5.424,5.419-5.424h5.073a6.072,6.072,0,0,0,6.069-6.069V347.065A6.072,6.072,0,0,0,413.662,341Z" transform="translate(-386.599 -340.996)" fill="#015a58"/>
        <path id="Path_9101" data-name="Path 9101" d="M401.252,346.624a4.536,4.536,0,1,1-4.536-4.536,4.536,4.536,0,0,1,4.536,4.536Zm-4.536,5.672c-3.964,0-7.323,2.926-8.567,7h17.134c-1.244-4.074-4.6-7-8.567-7Z" transform="translate(-380.15 -336.452)" fill="#fff"/>
      </g>
      <path id="Path_9102" data-name="Path 9102" d="M410.109,371.672h-.428a1,1,0,0,0-.392-.021c-.588-.021-1.166-.067-1.75-.129a19.56,19.56,0,0,1-2.188-.377,19.913,19.913,0,0,1-3.241-1.042,20.21,20.21,0,0,1-2.585-1.306,1.81,1.81,0,0,1-.454-.32,14.419,14.419,0,0,0,10.394-2.937,7.124,7.124,0,0,1-6.57-4.96c.258.036.516.083.779.1s.526.01.789.01a5.012,5.012,0,0,0,.785-.067,4.7,4.7,0,0,0,.764-.165l-.088-.036a7.047,7.047,0,0,1-2.08-.826,6.949,6.949,0,0,1-1.75-1.471,6.831,6.831,0,0,1-1.182-1.925,7.177,7.177,0,0,1-.537-2.668c0-.134.046-.129.134-.077a6.9,6.9,0,0,0,.955.423,7.142,7.142,0,0,0,1.466.351,1.592,1.592,0,0,0,.609.021l-.088-.067a7.121,7.121,0,0,1-3.009-5.435,6.532,6.532,0,0,1,.083-1.522,7.43,7.43,0,0,1,.8-2.328c.062-.114.1-.093.165-.01a19.811,19.811,0,0,0,1.517,1.641,20.079,20.079,0,0,0,10.8,5.449,17.711,17.711,0,0,0,2.09.227c.119,0,.139-.021.114-.145a7,7,0,0,1-.057-2.622,6.783,6.783,0,0,1,.785-2.276,7.215,7.215,0,0,1,1.548-1.92,7.4,7.4,0,0,1,1.755-1.135,7.045,7.045,0,0,1,2.813-.625,7.608,7.608,0,0,1,1.636.16,6.855,6.855,0,0,1,1.739.624,6.6,6.6,0,0,1,1.868,1.393.151.151,0,0,0,.16.046q.511-.108,1.006-.248a14.272,14.272,0,0,0,2.869-1.161c.176-.093.346-.191.521-.284a.075.075,0,0,1,0,.088,7.115,7.115,0,0,1-1.548,2.6,7.918,7.918,0,0,1-1.378,1.146l-.062.052a.056.056,0,0,0,.062.01c.238-.036.47-.062.707-.1a14.44,14.44,0,0,0,2.957-.883c.067-.031.134-.088.232-.062l-.206.3a14.538,14.538,0,0,1-3.2,3.261c-.067.052-.119.088-.114.191a17.311,17.311,0,0,1-.077,2.735,21.162,21.162,0,0,1-5.718,12.37,18.946,18.946,0,0,1-5.563,4.015,19.747,19.747,0,0,1-5.914,1.734c-.764.1-1.528.155-2.3.186a1.291,1.291,0,0,0-.42.017Z" transform="translate(329.374 51.415)" fill="#015a58"/>
      <path id="Path_9103" data-name="Path 9103" d="M359.025,399.837c-.335.759-1.548,1.259-2.24,1.466a2.05,2.05,0,0,1-1.868-.279,1.9,1.9,0,0,1-.5-1.987c.382-1.259,2.137-2.931,3.334-1.61A6.739,6.739,0,0,1,359,398.986a1.024,1.024,0,0,1,.02.851Zm2.126-.625a2.507,2.507,0,0,0,1.017-.485,12.473,12.473,0,0,0,3.582-3.179,2.285,2.285,0,0,0,.392-2.183,1.8,1.8,0,0,0-1.373-.9,4.117,4.117,0,0,0-1.693.191,13.055,13.055,0,0,0-3.752,1.708,1.572,1.572,0,0,0-.769,2.049C358.86,397.184,360.14,399.351,361.151,399.212Zm13.077-1.553c-.237.8-1.378,1.445-2.033,1.734a2.06,2.06,0,0,1-1.894-.041,1.913,1.913,0,0,1-.738-1.915c.222-1.29,1.755-3.174,3.107-2.013a6.716,6.716,0,0,1,1.44,1.394,1.016,1.016,0,0,1,.119.841Zm2.033-.888a2.51,2.51,0,0,0,.95-.6,12.452,12.452,0,0,0,3.153-3.607,2.273,2.273,0,0,0,.119-2.209,1.793,1.793,0,0,0-1.476-.728,4.139,4.139,0,0,0-1.657.4,13.167,13.167,0,0,0-3.509,2.162,1.576,1.576,0,0,0-.506,2.131c.4.727,1.941,2.719,2.927,2.451Zm3.318-14.156c-.237.8-1.378,1.445-2.033,1.734a2.029,2.029,0,0,1-1.894-.041,1.907,1.907,0,0,1-.738-1.909c.222-1.3,1.755-3.174,3.107-2.013a6.833,6.833,0,0,1,1.44,1.394,1.007,1.007,0,0,1,.119.835Zm2.033-.882a2.449,2.449,0,0,0,.944-.6,12.455,12.455,0,0,0,3.158-3.607,2.282,2.282,0,0,0,.119-2.214,1.8,1.8,0,0,0-1.476-.723,4.222,4.222,0,0,0-1.656.4,13.184,13.184,0,0,0-3.51,2.168,1.57,1.57,0,0,0-.506,2.126c.4.726,1.943,2.717,2.929,2.449Zm11.6-.506c-.294.774-1.481,1.337-2.157,1.579a2.041,2.041,0,0,1-1.884-.186,1.9,1.9,0,0,1-.594-1.956c.32-1.275,1.987-3.04,3.246-1.781a6.663,6.663,0,0,1,1.332,1.5,1,1,0,0,1,.06.844Zm2.1-.733a2.535,2.535,0,0,0,.991-.532,12.475,12.475,0,0,0,3.417-3.365,2.274,2.274,0,0,0,.28-2.2,1.794,1.794,0,0,0-1.419-.836,4.173,4.173,0,0,0-1.677.279,13.188,13.188,0,0,0-3.659,1.894,1.577,1.577,0,0,0-.666,2.09c.337.757,1.73,2.863,2.731,2.667Zm6.265-12.974a3.72,3.72,0,0,1-2.493.96,2.023,2.023,0,0,1-1.77-.666,1.9,1.9,0,0,1-.062-2.044c.635-1.151,2.7-2.415,3.6-.872a6.784,6.784,0,0,1,.9,1.791,1.01,1.01,0,0,1-.176.831Zm2.214-.16a2.559,2.559,0,0,0,1.094-.258,12.447,12.447,0,0,0,4.175-2.359,2.279,2.279,0,0,0,.841-2.049,1.8,1.8,0,0,0-1.151-1.172,4.254,4.254,0,0,0-1.693-.17,13.171,13.171,0,0,0-4.031.877,1.58,1.58,0,0,0-1.187,1.843c.139.821.934,3.21,1.951,3.288Zm11.8,4.273a3.729,3.729,0,0,1-2.673-.016,2.026,2.026,0,0,1-1.4-1.264,1.9,1.9,0,0,1,.686-1.93c1.011-.836,3.4-1.264,3.669.5a7.037,7.037,0,0,1,.181,1.992,1.02,1.02,0,0,1-.467.718Zm2.121.655a2.444,2.444,0,0,0,1.109.16,12.46,12.46,0,0,0,4.748-.671,2.3,2.3,0,0,0,1.533-1.6,1.788,1.788,0,0,0-.65-1.512,4.1,4.1,0,0,0-1.512-.779,13.125,13.125,0,0,0-4.072-.65,1.577,1.577,0,0,0-1.775,1.28c-.174.815-.308,3.328.615,3.772Z" transform="translate(143.226 125.708)" fill="#b7d3fd"/>
      <path id="Path_9104" data-name="Path 9104" d="M417.87,395.74a3.765,3.765,0,0,1,2.317-1.332,2.029,2.029,0,0,1,1.853.392,1.907,1.907,0,0,1,.377,2.013c-.454,1.228-2.307,2.8-3.422,1.409a6.692,6.692,0,0,1-1.161-1.636A1.019,1.019,0,0,1,417.87,395.74Zm-2.162.5a2.431,2.431,0,0,0-1.037.423,12.4,12.4,0,0,0-3.767,2.962,2.28,2.28,0,0,0-.521,2.152,1.773,1.773,0,0,0,1.316.986,4.191,4.191,0,0,0,1.7-.088,13.232,13.232,0,0,0,3.85-1.481,1.583,1.583,0,0,0,.893-2c-.267-.794-1.413-3.041-2.435-2.959Zm-11.5-1.631a3.719,3.719,0,0,1,2.415-1.156,2.048,2.048,0,0,1,1.817.521,1.915,1.915,0,0,1,.222,2.039c-.547,1.192-2.508,2.616-3.515,1.151a6.879,6.879,0,0,1-1.037-1.713.994.994,0,0,1,.1-.851Zm-2.193.33a2.458,2.458,0,0,0-1.068.346,12.448,12.448,0,0,0-3.974,2.673,2.291,2.291,0,0,0-.681,2.111,1.786,1.786,0,0,0,1.244,1.079,4.177,4.177,0,0,0,1.7.036,13.081,13.081,0,0,0,3.948-1.192,1.578,1.578,0,0,0,1.037-1.93c-.2-.81-1.178-3.132-2.205-3.127Zm-8.541,11.6a3.755,3.755,0,0,1,2.627-.485,2.031,2.031,0,0,1,1.615.981,1.9,1.9,0,0,1-.31,2.023c-.841,1.012-3.107,1.873-3.7.2a6.908,6.908,0,0,1-.557-1.925,1.021,1.021,0,0,1,.326-.8Zm-2.209-.248a2.5,2.5,0,0,0-1.12.052,12.491,12.491,0,0,0-4.536,1.548,2.294,2.294,0,0,0-1.2,1.863,1.787,1.787,0,0,0,.919,1.363,4.147,4.147,0,0,0,1.631.48,13.123,13.123,0,0,0,4.118-.124c.888-.17,1.486-.619,1.507-1.59.016-.839-.327-3.331-1.318-3.594Zm-10.807-6.369a3.758,3.758,0,0,1,2.622.506,2.04,2.04,0,0,1,1.151,1.507A1.9,1.9,0,0,1,383.2,403.7c-1.146.64-3.571.619-3.509-1.161a6.809,6.809,0,0,1,.186-2,1.023,1.023,0,0,1,.582-.619Zm-1.966-1.032a2.439,2.439,0,0,0-1.058-.361,12.407,12.407,0,0,0-4.789-.212,2.27,2.27,0,0,0-1.8,1.29,1.773,1.773,0,0,0,.356,1.605,4.22,4.22,0,0,0,1.342,1.042,13.355,13.355,0,0,0,3.886,1.388,1.578,1.578,0,0,0,1.982-.934c.319-.77.913-3.216.082-3.82Z" transform="translate(211.642 259.181)" fill="#b7d3fd"/>
      <path id="Path_9105" data-name="Path 9105" d="M400.687,350.578V347.94a.53.53,0,0,0-.532-.526H379.068a.529.529,0,0,0-.526.526v2.637a.53.53,0,0,0,.526.532h.846c-.454,7.406,2.369,9.32,5.047,11.643s3.943,3.788,3.943,4.851-1.27,2.524-3.943,4.851-5.5,4.237-5.047,11.643h-.846a.53.53,0,0,0-.526.531v2.637a.529.529,0,0,0,.526.526h21.087a.53.53,0,0,0,.532-.526v-2.637a.531.531,0,0,0-.532-.531h-.846c.459-7.406-2.369-9.32-5.042-11.643s-3.948-3.788-3.948-4.851,1.27-2.524,3.948-4.851,5.5-4.237,5.042-11.643h.846a.531.531,0,0,0,.532-.531Zm-2.359,33.52H380.9c.294-3.282,7.783-5.393,8.717-6.157.934.759,8.423,2.874,8.712,6.159Zm-5.6-21.773-.459.4a30.181,30.181,0,0,0-2.658,2.539,29.377,29.377,0,0,0-2.653-2.539l-.459-.4c-1.755-1.507-4.521-3.943-4.521-5.992H397.25c0,2.053-2.766,4.484-4.521,5.991Z" transform="translate(243.961 67.772)" fill="#008f8d"/>
      <g id="Group_4444" data-name="Group 4444" transform="translate(390.411 548.913)">
        <path id="Path_9106" data-name="Path 9106" d="M335.067,384.966a32.126,32.126,0,0,0,11.725,7.571h0a32.1,32.1,0,0,0,11.731-7.571Z" transform="translate(-327.341 -324.894)" fill="#122030"/>
        <path id="Path_9107" data-name="Path 9107" d="M354.616,421.388h0A32.173,32.173,0,0,1,333.57,391.2V377.65h42.1V391.2a32.176,32.176,0,0,1-21.048,30.186Z" transform="translate(-333.57 -355.335)" fill="#cee1fe"/>
        <path id="Path_9108" data-name="Path 9108" d="M346.214,383.9a4.743,4.743,0,1,0-6.5,4.4,18.374,18.374,0,0,0-2.983,10h9.485a18.374,18.374,0,0,0-2.983-10,4.741,4.741,0,0,0,2.981-4.4Z" transform="translate(-320.426 -349.056)" fill="#122030"/>
        <g id="Group_4443" data-name="Group 4443" transform="translate(6.224)">
          <path id="Path_9109" data-name="Path 9109" d="M364.9,395.641h-6.8V383.529a3.4,3.4,0,0,0-3.4-3.4h-9.723a3.407,3.407,0,0,0-3.4,3.4v6.3l-6.8-1.394v-4.9a10.211,10.211,0,0,1,10.2-10.2H354.7a10.215,10.215,0,0,1,10.2,10.2Z" transform="translate(-334.776 -373.326)" fill="#fff"/>
        </g>
      </g>
      <g id="Group_4446" data-name="Group 4446" transform="translate(512.435 331.126)">
        <line id="Line_13" data-name="Line 13" y2="80.519" transform="translate(80.034 25.16)" fill="none" stroke="#407cca" stroke-miterlimit="10" stroke-width="0.091"/>
        <line id="Line_14" data-name="Line 14" y2="74.791" transform="translate(15.67 23.553)" fill="none" stroke="#407cca" stroke-miterlimit="10" stroke-width="0.088"/>
        <g id="Group_4445" data-name="Group 4445" transform="translate(4.659 89.134)">
          <path id="Path_9110" data-name="Path 9110" d="M366,357.621h50.555a3.226,3.226,0,0,0,3.215-3.215h0a3.23,3.23,0,0,0-3.215-3.22H366a3.23,3.23,0,0,0-3.215,3.22h0A3.226,3.226,0,0,0,366,357.621Z" transform="translate(-338.694 -336.797)" fill="#0caba7"/>
          <path id="Path_9120" data-name="Path 9120" d="M0,0H4.968V5.436H0Z" transform="translate(72.891 20.825)" fill="#0caba7"/>
          <rect id="Rectangle_468" data-name="Rectangle 468" width="3.728" height="4.349" transform="translate(69.785 25.174) rotate(180)" fill="#0caba7"/>
          <rect id="Rectangle_469" data-name="Rectangle 469" width="3.883" height="4.349" transform="translate(62.64 25.174) rotate(180)" fill="#0caba7"/>
          <rect id="Rectangle_470" data-name="Rectangle 470" width="42.6" height="0.766" transform="translate(77.86 16.546) rotate(180)" fill="#0fc2bf"/>
          <path id="Path_9123" data-name="Path 9123" d="M0,0H4.968V1.087H0Z" transform="translate(77.86 26.261) rotate(180)" fill="#0fc2bf"/>
          <path id="Path_9122" data-name="Path 9122" d="M0,0H3.728V.9H0Z" transform="translate(69.785 25.174) rotate(180)" fill="#0fc2bf"/>
          <path id="Path_9121" data-name="Path 9121" d="M0,0H3.883V.9H0Z" transform="translate(62.64 25.174) rotate(180)" fill="#0fc2bf"/>
          <path id="Path_9111" data-name="Path 9111" d="M358.117,364.943A16.543,16.543,0,1,0,374.66,348.4a16.542,16.542,0,0,0-16.543,16.546Z" transform="translate(-358.117 -348.397)" fill="#0fc2bf"/>
          <path id="Path_9112" data-name="Path 9112" d="M358.578,363.02a14.161,14.161,0,1,0,14.161-14.161A14.161,14.161,0,0,0,358.578,363.02Z" transform="translate(-356.199 -346.475)" fill="#015a58"/>
          <path id="Path_9113" data-name="Path 9113" d="M359.739,354.615a3.736,3.736,0,1,0,3.736-3.736,3.736,3.736,0,0,0-3.736,3.736Z" transform="translate(-351.368 -338.07)" fill="#fff"/>
        </g>
        <path id="Path_9114" data-name="Path 9114" d="M361.491,350.392c3.964-4.155,12.783-4.335,17.3-.774,4.382-10.053,18.13-14.652,27.677-9.264,1.842-5.078,9.806-11.251,21.314-8.588,7.757,1.8,14.7,9.284,12.675,16.984,5.357-.774,10.776,2.906,12.851,7.912s1.161,10.915-1.538,15.611H363.731S350.7,361.7,361.491,350.392Z" transform="translate(-357.214 -331.126)" fill="#0caba7"/>
      </g>
    </g>
  </g>
</svg>
