<svg xmlns="http://www.w3.org/2000/svg" width="89.886" height="97.73" viewBox="0 0 89.886 97.73">
  <g id="services-7" transform="translate(-1169.26 -814.411)">
    <path id="Path_8576" data-name="Path 8576" d="M1185.032,868.211a18.487,18.487,0,0,1-9.361-4.421c-5.5-4.915-7.512-11.094-5.839-18.217,1.74-7.4,6.509-12.2,13.828-14.3a2.594,2.594,0,0,0,2.147-2.2c2.012-7.526,6.868-12.429,14.457-14.118,7.769-1.729,14.359.679,19.522,6.8.167.2.329.4.453.55,1.608-.592,3.13-1.3,4.728-1.715,9.453-2.43,18.791,2.6,22.272,12.013.676,1.827.974,3.79,1.513,5.671a1.51,1.51,0,0,0,.8.8,15.832,15.832,0,0,1,9.592,14.678,14.69,14.69,0,0,1-12.34,14.439c-1.056.182-2.135.232-3.31.354-.144-10.293-4.175-18.532-12.441-24.517a28.161,28.161,0,0,0-18.731-5.306,29.272,29.272,0,0,0-23.79,15.256A28.961,28.961,0,0,0,1185.032,868.211Z" fill="#14475f"/>
    <path id="Path_8577" data-name="Path 8577" d="M1261.547,1115.923c-.034,1.7-.085,3.4-.077,5.093,0,.188.308.465.53.547a6.46,6.46,0,0,1,4.14,4.175c.216.66.636.537,1.068.537q10.088.006,20.176,0h1.155v3.038h-1.2c-6.66,0-13.32.011-19.979-.016a1.178,1.178,0,0,0-1.354.887,6.547,6.547,0,0,1-12.227-.034,1.117,1.117,0,0,0-1.28-.849c-6.693.019-13.385.012-20.078.012h-1.2v-3.038h1.094q10.088,0,20.176.009c.645,0,1.031-.083,1.282-.822a5.987,5.987,0,0,1,3.851-3.8.9.9,0,0,0,.74-1.044c-.066-1.565-.08-3.133-.114-4.7l-.016.016,3.328,0Z" transform="translate(-45.67 -222.232)" fill="#14475f"/>
    <path id="Path_8578" data-name="Path 8578" d="M1241.167,962.615a26.053,26.053,0,0,1,8.23-17.458l6.237,3.649c-.331,1.594-.782,3.271-1.011,4.978-.357,2.659-.57,5.339-.824,8.011-.049.51,0,.952-.763.945-3.8-.032-7.609-.018-11.414-.024A2.951,2.951,0,0,1,1241.167,962.615Z" transform="translate(-53 -96.368)" fill="#14475f"/>
    <path id="Path_8579" data-name="Path 8579" d="M1386.5,962.747c-.111-1.506-.13-2.981-.346-4.427-.435-2.91-.947-5.809-1.5-8.7-.122-.635-.034-.9.546-1.2,1.849-.977,3.652-2.038,5.622-3.15a26,26,0,0,1,8.207,17.48Z" transform="translate(-158.725 -96.45)" fill="#14475f"/>
    <path id="Path_8580" data-name="Path 8580" d="M1386.465,1023.756h12.471a25.9,25.9,0,0,1-8.2,17.464c-2.065-1.15-4.034-2.236-5.984-3.355a.715.715,0,0,1-.242-.626,58.859,58.859,0,0,0,1.853-13.209A.922.922,0,0,1,1386.465,1023.756Z" transform="translate(-158.644 -154.301)" fill="#14475f"/>
    <path id="Path_8581" data-name="Path 8581" d="M1241.391,1023.747h12.415c.112,1.513.134,3.024.353,4.507.42,2.846.915,5.683,1.463,8.507.134.692.1,1-.586,1.358-1.649.862-3.212,1.886-4.837,2.8a1.068,1.068,0,0,1-.962.016,25.445,25.445,0,0,1-7.9-16.854A1.681,1.681,0,0,1,1241.391,1023.747Z" transform="translate(-53.126 -154.295)" fill="#14475f"/>
    <path id="Path_8582" data-name="Path 8582" d="M1302.421,963.176l7.021,1.261v11.5h-8.815A50.7,50.7,0,0,1,1302.421,963.176Z" transform="translate(-96.826 -109.65)" fill="#14475f"/>
    <path id="Path_8583" data-name="Path 8583" d="M1346.33,964.491l7.044-1.265a53.578,53.578,0,0,1,1.806,12.757h-8.85Z" transform="translate(-130.513 -109.687)" fill="#14475f"/>
    <path id="Path_8584" data-name="Path 8584" d="M1309.4,1035.309l-7.016,1.261a53.454,53.454,0,0,1-1.8-12.734h8.819Z" transform="translate(-96.796 -154.36)" fill="#14475f"/>
    <path id="Path_8585" data-name="Path 8585" d="M1353.412,1036.535l-7.041-1.258V1023.8h8.825A52.832,52.832,0,0,1,1353.412,1036.535Z" transform="translate(-130.543 -154.331)" fill="#14475f"/>
    <path id="Path_8586" data-name="Path 8586" d="M1346.266,1088.846c-.04-1.009-.107-2.017-.115-3.026-.018-2.126-.005-4.252-.005-6.656l6.19,1.1c-1.427,3.475-2.876,6.64-6.087,8.562Z" transform="translate(-130.374 -195.141)" fill="#14475f"/>
    <path id="Path_8587" data-name="Path 8587" d="M1352.513,928.77l-6.071,1.072v-9.427C1348.476,920.967,1350.953,924.336,1352.513,928.77Z" transform="translate(-130.595 -78.132)" fill="#14475f"/>
    <path id="Path_8588" data-name="Path 8588" d="M1317.274,1088.811a15.481,15.481,0,0,1-5.975-8.564l6.078-1.107c0,1.246.012,2.283,0,3.319-.03,2.122-.075,4.243-.116,6.366Z" transform="translate(-104.692 -195.123)" fill="#14475f"/>
    <path id="Path_8589" data-name="Path 8589" d="M1310.927,928.117c1.414-3.4,2.808-6.531,6.11-8.539v9.643Z" transform="translate(-104.418 -77.515)" fill="#14475f"/>
    <path id="Path_8590" data-name="Path 8590" d="M1281.7,1090.622l4.662-2.649,3.54,6.676A25.3,25.3,0,0,1,1281.7,1090.622Z" transform="translate(-82.874 -201.634)" fill="#14475f"/>
    <path id="Path_8591" data-name="Path 8591" d="M1289.914,922.052l-3.548,6.674-4.656-2.617A25.236,25.236,0,0,1,1289.914,922.052Z" transform="translate(-82.883 -79.339)" fill="#14475f"/>
    <path id="Path_8592" data-name="Path 8592" d="M1375.9,1090.612a25.994,25.994,0,0,1-8.206,4.021l3.542-6.672Z" transform="translate(-146.257 -201.625)" fill="#14475f"/>
    <path id="Path_8593" data-name="Path 8593" d="M1375.983,926.271l-4.667,2.66-3.517-6.638A25.492,25.492,0,0,1,1375.983,926.271Z" transform="translate(-146.337 -79.516)" fill="#14475f"/>
  </g>
</svg>
