<svg xmlns="http://www.w3.org/2000/svg" width="75" height="65.119" viewBox="0 0 75 65.119">
  <g id="services-8" transform="translate(-951.715 -1323.937)">
    <path id="Path_8616" data-name="Path 8616" d="M1026.715,1329.731v30.175c-.146.007-.292.02-.438.02q-36.944,0-73.887,0c-.21,0-.42-.029-.625-.045a1.92,1.92,0,0,1-.044-.264c0-9.691-.017-19.381.009-29.072a6.4,6.4,0,0,1,2.555-5.2,7.164,7.164,0,0,1,4.662-1.406q14.389.012,28.778,0,15.89,0,31.781-.007a6.576,6.576,0,0,1,5.853,2.694A17.185,17.185,0,0,1,1026.715,1329.731Zm-30.439,7.5c0,.409,0,.675,0,.941q0,4.794-.006,9.589a2.285,2.285,0,0,0,2.571,2.574c3.123.011,6.246-.01,9.369.01a2.651,2.651,0,0,0,2.552-1.484c1.488-2.686,3.029-5.343,4.54-8.016,1.118-1.977.144-3.643-2.128-3.645q-5.819-.006-11.638,0h-.866c0-.438,0-.8,0-1.156s.008-.733-.013-1.1a2,2,0,0,0-1.789-2,28.477,28.477,0,0,0-4.087,0,2.029,2.029,0,0,0-1.809,2.2,2.119,2.119,0,0,0,1.974,2.075C995.351,1337.257,995.763,1337.228,996.276,1337.228Zm-20.892-2.095v0q-3.625,0-7.251,0c-1.147,0-2.3-.021-3.441.018a2.173,2.173,0,0,0-.714,4.17,4.083,4.083,0,0,0,1.362.2q10,.018,19.993,0a5.142,5.142,0,0,0,1.087-.106,2,2,0,0,0,1.442-1.238,2.167,2.167,0,0,0-2.08-3.036C982.316,1335.117,978.85,1335.133,975.384,1335.133Zm-.04,7.006H970.8c-1.977,0-3.955-.019-5.932.01a2.144,2.144,0,0,0-2.223,2.213,2.222,2.222,0,0,0,2.511,2.167q10.179.011,20.358,0a4.075,4.075,0,0,0,.8-.077,2.175,2.175,0,0,0,.148-4.218,4.877,4.877,0,0,0-1.163-.091Q980.324,1342.133,975.344,1342.139Zm-.045,11.395q4.687,0,9.373,0a11.407,11.407,0,0,0,1.534-.056,2.137,2.137,0,0,0,1.729-2.778c-.339-1.07-1.106-1.554-2.518-1.554q-10.068-.005-20.137,0a5.665,5.665,0,0,0-.8.05,2.108,2.108,0,0,0-1.8,1.845,2.19,2.19,0,0,0,2.447,2.49C968.514,1353.543,971.906,1353.533,975.3,1353.533Zm24.335,2.294a2.163,2.163,0,0,0,2.18-2.183,2.192,2.192,0,1,0-4.384.014A2.182,2.182,0,0,0,999.634,1355.828Zm6.043,0a2.182,2.182,0,0,0,2.223-2.147,2.213,2.213,0,0,0-2.16-2.226,2.177,2.177,0,0,0-2.205,2.164A2.146,2.146,0,0,0,1005.676,1355.829Z" transform="translate(0 0)" fill="#14475f"/>
    <path id="Path_8617" data-name="Path 8617" d="M1026.727,1550.69a17.265,17.265,0,0,1-1.359,3.1,6.514,6.514,0,0,1-5.781,2.692q-10.033-.021-20.066,0h-.988v7.831h.787c1.709,0,3.418-.009,5.126,0a2.2,2.2,0,1,1,.015,4.385c-1.9.021-3.808.006-5.712.006q-12.157,0-24.313-.006a4.4,4.4,0,0,1-1.226-.136,2.174,2.174,0,0,1,.646-4.243c1.733-.026,3.466-.009,5.2-.01h.857v-7.831h-.975q-10.033,0-20.066,0a7.081,7.081,0,0,1-4.529-1.372,6.287,6.287,0,0,1-2.575-4.883c-.078-2.045-.017-4.1-.017-6.253h74.1c.293,0,.585-.013.878-.019Zm-37.546-.286c.39,0,.781.023,1.169,0a2.123,2.123,0,0,0,1.984-1.9,2.008,2.008,0,0,0-1.542-2.323,10.791,10.791,0,0,0-3.111,0,2,2,0,0,0-1.563,2.308,2.123,2.123,0,0,0,1.966,1.922C988.448,1550.426,988.816,1550.4,989.181,1550.4Z" transform="translate(-0.012 -179.652)" fill="#14475f"/>
  </g>
</svg>
