<svg xmlns="http://www.w3.org/2000/svg" width="108.268" height="78.528" viewBox="0 0 108.268 78.528">
  <g id="service-1" transform="translate(-130.656 -279.983)">
    <path id="Path_8571" data-name="Path 8571" d="M317.2,306.562c-.251.534-.458,1.092-.759,1.6a5.1,5.1,0,0,1-4.529,2.63c-2.289.036-4.579.011-6.868.013H303.8v1.467q0,21.346,0,42.693a7.477,7.477,0,0,1-.129,1.572,1.831,1.831,0,0,1-1.936,1.444,1.883,1.883,0,0,1-1.84-1.581,8.915,8.915,0,0,1-.054-1.37q0-21.4,0-42.8V310.8h-1.911c-1.938,0-3.875.009-5.812,0-3.386-.02-5.656-2.086-5.7-5.461q-.119-9.932,0-19.867a5.19,5.19,0,0,1,5.5-5.442c6.586-.074,13.174-.043,19.761-.013,2.933.013,4.654,1.665,5.528,4.346Zm-22.647-11.176v6.86c0,2.648.033,2.659,2.722,2.6.969-.022,1.425-.412,1.405-1.4-.026-1.3.018-2.6-.013-3.9-.021-.881.3-1.278,1.234-1.255a25.508,25.508,0,0,0,3.792-.116c3.488-.438,5.159-2.3,5.34-5.785.18-3.458-1.526-5.73-4.973-6.115-2.643-.3-5.332-.2-8-.247-1.33-.023-1.5.18-1.5,1.551Q294.547,291.482,294.553,295.386Z" transform="translate(-78.277 0)" fill="#14475f"/>
    <path id="Path_8572" data-name="Path 8572" d="M206.244,340.448c.519,1.8,1.225,3.749,1.626,5.764a35.685,35.685,0,0,1,.755,6.378c.1,6.3.038,12.612.034,18.918,0,3.338-1.656,4.984-5.01,5-1.479.006-2.96.025-4.439-.005-2.935-.061-4.618-1.778-4.649-4.723-.016-1.476,0-2.953,0-4.52h-47.8c0,1.478,0,2.942,0,4.407-.01,3.147-1.664,4.811-4.824,4.839-1.585.014-3.172.043-4.756-.011-2.718-.093-4.425-1.714-4.437-4.345q-.051-10.357.028-20.715A28.876,28.876,0,0,1,135,341.068c.1-.255.189-.515.3-.831-.361-.066-.664-.129-.971-.177a4.2,4.2,0,0,1-3.645-4.034c-.041-.844-.034-1.692-.007-2.536a3.279,3.279,0,0,1,4.29-3.305c1.333.3,2.645.694,4.049,1.067.749-1.808,1.475-3.554,2.2-5.3.617-1.5,1.19-3.01,1.851-4.486,1.605-3.583,4.378-5.591,8.32-5.608q19.288-.083,38.578,0a8.653,8.653,0,0,1,8.361,5.7c1.24,2.874,2.39,5.786,3.581,8.681.132.32.274.637.445,1.031,1.33-.355,2.6-.764,3.9-1.014a5.346,5.346,0,0,1,2.269.022,3.088,3.088,0,0,1,1.506,1.064c1.334,1.691,1,6.241-.653,7.578A15.19,15.19,0,0,1,206.244,340.448Zm-35.588.537q13,0,25.995,0c2.562,0,3.4-1.259,2.447-3.6q-2.976-7.274-5.981-14.535a5.419,5.419,0,0,0-5.413-3.61c-.88,0-1.761,0-2.641,0q-15.692,0-31.384-.006a5.212,5.212,0,0,0-5.2,3.11c-2.227,5.127-4.306,10.318-6.389,15.506-.7,1.744.09,2.918,1.94,3.1a12.656,12.656,0,0,0,1.266.034Q157.976,340.987,170.656,340.984Zm21.974,18.078c1.938,0,3.877.014,5.814,0,1.377-.013,1.985-.629,2-2.016.018-1.726.021-3.453,0-5.18a1.721,1.721,0,0,0-1.965-1.941q-5.761-.026-11.522,0a1.722,1.722,0,0,0-1.948,1.959q-.034,2.59,0,5.18c.017,1.378.632,1.984,2.02,2C188.895,359.076,190.763,359.063,192.63,359.062Zm-44.2,0c1.934,0,3.868.014,5.8,0,1.324-.013,1.98-.622,2-1.908q.051-2.688,0-5.379a1.681,1.681,0,0,0-1.845-1.846q-5.854-.035-11.708,0a1.676,1.676,0,0,0-1.878,1.9c-.025,1.722-.018,3.445,0,5.168.012,1.467.588,2.053,2.04,2.066C144.7,359.075,146.565,359.063,148.429,359.062Z" transform="translate(0 -18.014)" fill="#14475f"/>
    <path id="Path_8573" data-name="Path 8573" d="M311.134,301.613c0-2.8,0-2.8,2.794-2.623.35.022.7.079,1.047.122,1.889.232,2.66,1.219,2.394,3.078a1.894,1.894,0,0,1-1.722,1.84c-1.149.127-2.307.172-3.461.256-.792.058-1.066-.37-1.053-1.091C311.142,302.668,311.135,302.141,311.134,301.613Z" transform="translate(-90.734 -9.524)" fill="#14475f"/>
  </g>
</svg>
