<svg id="service-2" xmlns="http://www.w3.org/2000/svg" width="75.29" height="75.262" viewBox="0 0 75.29 75.262">
  <g id="Group_2569" data-name="Group 2569" transform="translate(0 0)">
    <path id="Path_8605" data-name="Path 8605" d="M2151.126,693.458c.082-.2.175-.391.244-.593a4.695,4.695,0,0,1,9.156,1.425c.023,6.051.009,12.1.01,18.152,0,2.156-.013,4.311.01,6.467a.865.865,0,0,1-.549.894,8.438,8.438,0,0,0-2.239,13.124c2.721,2.92,5.612,5.681,8.44,8.5a1.175,1.175,0,1,0,1.592-1.7c-2.663-2.673-5.348-5.325-8-8.01a6.166,6.166,0,1,1,8.613-8.825c1.344,1.288,2.64,2.626,3.957,3.942,2.911,2.91,5.812,5.829,8.735,8.728a9.607,9.607,0,0,1,2.968,7.184c-.024,3.036-.006,6.072-.006,9.163h-23.524c0-.791.042-1.593-.02-2.387a1.731,1.731,0,0,0-.417-1.006c-1.672-1.723-3.344-3.449-5.089-5.1-1.869-1.763-3.474-3.655-3.885-6.3Z" transform="translate(-2151.126 -687.284)" fill="#14475f"/>
    <path id="Path_8606" data-name="Path 8606" d="M2181.75,1027.277a1.8,1.8,0,0,1-.749-1.7c.042-1.688.008-3.379.015-5.068,0-1.052.414-1.459,1.475-1.459q13.813,0,27.625,0c1.061,0,1.473.409,1.477,1.458.006,1.689-.027,3.38.016,5.068a1.811,1.811,0,0,1-.749,1.7Z" transform="translate(-2175.134 -952.016)" fill="#14475f"/>
    <path id="Path_8607" data-name="Path 8607" d="M2349.464,1027.277a1.8,1.8,0,0,1-.749-1.7c.042-1.688.009-3.379.015-5.068,0-1.052.414-1.459,1.475-1.459q13.813,0,27.626,0c1.061,0,1.473.409,1.477,1.458.007,1.689-.026,3.38.015,5.068a1.81,1.81,0,0,1-.749,1.7Z" transform="translate(-2309.913 -952.016)" fill="#14475f"/>
    <path id="Path_8608" data-name="Path 8608" d="M2390.265,751.982h-23.481c-.014-.205-.041-.415-.042-.625,0-2.964-.013-5.928,0-8.893a9.054,9.054,0,0,1,2.689-6.553q6.423-6.467,12.889-12.891a6.166,6.166,0,0,1,10.573,4.467,6.283,6.283,0,0,1-1.964,4.377q-3.881,3.863-7.745,7.745a2.65,2.65,0,0,0-.545.68.944.944,0,0,0,.308,1.3,2.833,2.833,0,0,0,1.351.125c.153-.005.306-.225.444-.363,2.653-2.649,5.331-5.273,7.948-7.957a8.508,8.508,0,0,0-.93-12.948,1.217,1.217,0,0,0-.3-.206c-1.1-.359-1.224-1.16-1.218-2.208.043-7.839.017-15.679.028-23.519a4.7,4.7,0,0,1,9.4-.391c.015.269.01.539.01.808q0,20.359.012,40.717a8.9,8.9,0,0,1-2.782,6.7c-2.07,2.018-4.087,4.09-6.147,6.119a1.456,1.456,0,0,0-.5,1.215C2390.3,750.439,2390.265,751.194,2390.265,751.982Z" transform="translate(-2324.397 -687.34)" fill="#14475f"/>
    <path id="Path_8609" data-name="Path 8609" d="M2280.239,684.761q-6.836,0-13.673,0c-1.29,0-1.639-.357-1.641-1.667s0-2.6,0-3.895c0-1.071.4-1.491,1.445-1.491q13.857-.005,27.713,0c1,0,1.415.428,1.42,1.443q.011,2.095,0,4.189c-.006,1-.432,1.418-1.446,1.419Q2287.149,684.766,2280.239,684.761Zm6.987-2.352c1.495,0,2.989,0,4.484,0,.91,0,1.457-.469,1.439-1.2-.017-.708-.543-1.145-1.418-1.147q-4.447-.008-8.894,0c-.915,0-1.456.463-1.438,1.2.016.714.535,1.144,1.417,1.148C2284.286,682.415,2285.756,682.409,2287.226,682.409Zm-17.6-1.2a1.172,1.172,0,1,0-1.126,1.2A1.179,1.179,0,0,0,2269.625,681.207Zm3.529.035a1.171,1.171,0,1,0-1.162,1.163A1.18,1.18,0,0,0,2273.154,681.242Zm2.3,1.163a1.172,1.172,0,1,0-1.114-1.209A1.185,1.185,0,0,0,2275.455,682.4Z" transform="translate(-2242.577 -677.705)" fill="#14475f"/>
    <path id="Path_8610" data-name="Path 8610" d="M2280.2,755.554q6.836,0,13.673,0c1.255,0,1.621.365,1.624,1.611,0,1.347.007,2.695,0,4.042-.007.962-.434,1.4-1.391,1.4q-13.893.007-27.786,0c-.963,0-1.392-.432-1.4-1.39-.01-1.4-.007-2.793,0-4.189,0-1.059.41-1.471,1.464-1.472Q2273.292,755.55,2280.2,755.554Zm7.137,2.352c-1.519,0-3.038-.006-4.558,0-.867,0-1.391.457-1.391,1.172s.523,1.173,1.39,1.175q4.483.01,8.967,0c.863,0,1.392-.463,1.393-1.173s-.527-1.169-1.392-1.174C2290.279,757.9,2288.809,757.906,2287.339,757.906Zm-18.9,0a1.171,1.171,0,1,0,1.176,1.146A1.179,1.179,0,0,0,2268.439,757.911Zm3.563,0a1.171,1.171,0,1,0,1.142,1.18A1.182,1.182,0,0,0,2272,757.911Zm3.488,2.342a1.171,1.171,0,1,0-1.159-1.164A1.182,1.182,0,0,0,2275.491,760.253Z" transform="translate(-2242.568 -740.266)" fill="#14475f"/>
    <path id="Path_8611" data-name="Path 8611" d="M2280.207,833.4q6.836,0,13.673,0c1.251,0,1.616.366,1.618,1.616,0,1.347.008,2.695,0,4.042-.008.959-.436,1.393-1.4,1.394q-13.893.007-27.787,0c-.96,0-1.386-.434-1.393-1.4-.01-1.4-.008-2.793,0-4.189,0-1.056.412-1.466,1.469-1.467Q2273.3,833.4,2280.207,833.4Zm7.063,2.352c-1.469,0-2.94,0-4.41,0-.931,0-1.466.433-1.47,1.167s.533,1.18,1.457,1.182q4.41.007,8.82,0c.928,0,1.468-.438,1.472-1.168s-.535-1.177-1.459-1.181C2290.211,835.752,2288.741,835.756,2287.271,835.756Zm-17.655,1.148a1.171,1.171,0,1,0-1.124,1.2A1.179,1.179,0,0,0,2269.615,836.9Zm3.529.085a1.171,1.171,0,1,0-1.21,1.114A1.184,1.184,0,0,0,2273.145,836.989Zm3.529-.052a1.171,1.171,0,1,0-1.158,1.166A1.179,1.179,0,0,0,2276.673,836.937Z" transform="translate(-2242.568 -802.829)" fill="#14475f"/>
    <path id="Path_8612" data-name="Path 8612" d="M2218.048,788.464c-2.47-1.9-3.565-2.255-7.031-2.271v-1.448c0-2.5-.005-4.992,0-7.488a3.531,3.531,0,1,1,7.053-.033c.009,3.548,0,7.1,0,10.644C2218.073,788.033,2218.06,788.2,2218.048,788.464Z" transform="translate(-2199.255 -754.713)" fill="#14475f"/>
    <path id="Path_8613" data-name="Path 8613" d="M2438.623,788.515c0-4.008-.035-7.85.016-11.691a3.509,3.509,0,0,1,6.995-.12c.089,3.15.025,6.3.025,9.525A8.772,8.772,0,0,0,2438.623,788.515Z" transform="translate(-2382.157 -754.713)" fill="#14475f"/>
    <path id="Path_8614" data-name="Path 8614" d="M2306.611,725.928v3.413h-23.457v-3.413Z" transform="translate(-2257.228 -716.458)" fill="#14475f"/>
    <path id="Path_8615" data-name="Path 8615" d="M2283.075,807.1v-3.44h23.431v3.44Z" transform="translate(-2257.164 -778.923)" fill="#14475f"/>
  </g>
</svg>
