<svg xmlns="http://www.w3.org/2000/svg" width="75" height="74.997" viewBox="0 0 75 74.997">
  <g id="services-10" transform="translate(-817.774 -266.221)">
    <path id="Path_8620" data-name="Path 8620" d="M817.774,291.269V271.934c.057-.209.117-.417.171-.626a6.375,6.375,0,0,1,3.166-4.195,17.452,17.452,0,0,1,2.376-.892h63.571a.92.92,0,0,0,.195.1,6.569,6.569,0,0,1,5.517,6.883q0,8.494,0,16.988a6.583,6.583,0,0,1-6.8,6.79c-2.368.009-4.735-.013-7.1.019a1.527,1.527,0,0,0-.94.391c-1.081,1.023-2.113,2.1-3.174,3.142a2.243,2.243,0,0,1-3.522-.009c-1.04-1.031-2.052-2.091-3.122-3.09a1.724,1.724,0,0,0-1.068-.433q-11.789-.036-23.578,0a1.617,1.617,0,0,0-1,.412c-1.084,1.019-2.113,2.1-3.175,3.141a2.23,2.23,0,0,1-3.47,0c-1.059-1.046-2.09-2.122-3.174-3.142a1.635,1.635,0,0,0-1-.412c-2.464-.036-4.93,0-7.4-.029a6.587,6.587,0,0,1-6.135-4.514C817.979,292.067,817.884,291.665,817.774,291.269ZM837.555,279.4c2.877,0,5.754,0,8.631,0a2.2,2.2,0,1,0-.051-4.389q-8.521-.009-17.042,0a2.217,2.217,0,1,0-.022,4.393Q833.313,279.408,837.555,279.4Zm35.448,0c2.877,0,5.754,0,8.63,0a2.2,2.2,0,1,0-.053-4.389q-8.521-.009-17.042,0a2.217,2.217,0,1,0-.02,4.393Q868.761,279.408,873,279.4Zm-35.453,8.789q4.316,0,8.631,0a2.2,2.2,0,1,0-.042-4.393q-8.594-.01-17.188,0a2.2,2.2,0,1,0,.042,4.39Q833.272,288.2,837.551,288.192Zm35.45,0c2.877,0,5.754,0,8.631,0a2.2,2.2,0,1,0-.048-4.389q-8.521-.01-17.042,0a2.217,2.217,0,1,0-.025,4.393Q868.759,288.2,873,288.192Z" transform="translate(0 0)" fill="#14475f"/>
    <path id="Path_8621" data-name="Path 8621" d="M857.628,487.388c.784.145,1.576.261,2.352.441a15.407,15.407,0,0,1,11.767,14.689,2.218,2.218,0,0,1-2.378,2.446q-12.994.008-25.987,0a2.218,2.218,0,0,1-2.388-2.436,15.4,15.4,0,0,1,13.481-15.011,2.649,2.649,0,0,0,.642-.163,8.979,8.979,0,0,1-5.894-3.665,8.6,8.6,0,0,1-1.473-6.808,8.791,8.791,0,0,1,17.4,1.225A8.969,8.969,0,0,1,857.628,487.388Z" transform="translate(-18.676 -163.75)" fill="#14475f"/>
    <path id="Path_8622" data-name="Path 8622" d="M1037.3,487.331c1.3.323,2.6.546,3.834.97a15.349,15.349,0,0,1,10.271,14.193,2.24,2.24,0,0,1-2.481,2.49q-12.884,0-25.768,0a2.247,2.247,0,0,1-2.5-2.542,15.42,15.42,0,0,1,13.438-14.9c.234-.026.466-.086.849-.158-5.559-1.029-8.116-5.606-7.648-9.643a8.789,8.789,0,0,1,17.507.2A8.856,8.856,0,0,1,1037.3,487.331Z" transform="translate(-163.175 -163.768)" fill="#14475f"/>
  </g>
</svg>
