<svg xmlns="http://www.w3.org/2000/svg" width="80.088" height="80.085" viewBox="0 0 80.088 80.085">
  <g id="service-3" transform="translate(-2685.304 -1067.861)">
    <path id="Path_8618" data-name="Path 8618" d="M2726.766,1147.947h-34.091c-.065-.039-.127-.105-.2-.114a8.58,8.58,0,0,1-7.176-8.794c.052-20.8.02-41.594.023-62.39a8.444,8.444,0,0,1,8.751-8.781q15.634-.011,31.267,0a8.443,8.443,0,0,1,8.769,8.766c.007,2.736,0,5.473,0,8.209,0,1.255-.231,1.479-1.517,1.479H2706.95v43.169h.964q12.428,0,24.857,0c1.011,0,1.339.278,1.341,1.181.007,3.023.039,6.047-.014,9.069a8.4,8.4,0,0,1-5.92,7.816C2727.712,1147.7,2727.237,1147.817,2726.766,1147.947Zm-6.2-78.17h-21.677c.707,1.232,1.291,2.423,2.038,3.5a3.49,3.49,0,0,0,2.976,1.46q5.823.028,11.646,0a3.438,3.438,0,0,0,2.924-1.4C2719.235,1072.24,2719.837,1071.03,2720.563,1069.777Zm-10.451,68.159c-2.11,0-4.219,0-6.329,0-.82,0-1.288.35-1.241.954.055.725.545.925,1.2.924q6.29-.01,12.58,0c.655,0,1.145-.2,1.2-.922.048-.6-.42-.954-1.239-.957C2714.228,1137.933,2712.17,1137.936,2710.113,1137.936Z" transform="translate(0)" fill="#14475f"/>
    <path id="Path_8619" data-name="Path 8619" d="M2854.3,1170.824v28.154a.865.865,0,0,0-.112.2,6.553,6.553,0,0,1-6.9,5.43q-24.042,0-48.084,0c-1.277,0-1.509-.228-1.509-1.488q0-18.221,0-36.442c0-1.26.229-1.485,1.51-1.485h30.258c6.073,0,12.145-.011,18.217.005a6.52,6.52,0,0,1,6.352,4.741C2854.115,1170.236,2854.21,1170.53,2854.3,1170.824Zm-46.046,12.2c.911,0,1.821.012,2.732,0a1.876,1.876,0,0,0,2.024-1.984q.029-2.693,0-5.387a1.865,1.865,0,0,0-2-2.005q-2.692-.026-5.386,0a1.856,1.856,0,0,0-1.984,1.941q-.034,2.732,0,5.465a1.866,1.866,0,0,0,1.96,1.968C2806.485,1183.039,2807.37,1183.023,2808.255,1183.024Zm31.026-2.815h6.8c2.284,0,2.284,0,2.278-2.281,0-1.228-.24-1.473-1.444-1.473q-7.151,0-14.3,0c-2.41,0-2.41,0-2.4,2.4.007,1.092.277,1.355,1.4,1.356Q2835.451,1180.211,2839.281,1180.209Zm-35.8,13.074c0,.625-.012,1.25,0,1.875a.912.912,0,0,0,.969.995c1.223.022,2.447.02,3.67,0a.907.907,0,0,0,.977-.986c.017-1.224.022-2.448,0-3.671a.907.907,0,0,0-1-.959q-1.8-.018-3.592,0a.934.934,0,0,0-1.019,1.027C2803.47,1192.138,2803.479,1192.711,2803.48,1193.284Zm16.012-2.75c-.625,0-1.25-.012-1.875,0a.911.911,0,0,0-.995.968c-.022,1.223-.02,2.448,0,3.671a.906.906,0,0,0,.985.978c1.224.018,2.448.022,3.671,0a.907.907,0,0,0,.959-1q.02-1.8,0-3.594a.934.934,0,0,0-1.027-1.02C2820.638,1190.524,2820.065,1190.534,2819.492,1190.534Zm10.259,2.809c0,.6-.009,1.2,0,1.8a.912.912,0,0,0,.952,1.012q1.874.039,3.749,0a.883.883,0,0,0,.917-.962c.017-1.224.02-2.448,0-3.671a.906.906,0,0,0-.987-.976c-1.2-.017-2.4-.014-3.593,0a.955.955,0,0,0-1.04,1.088C2829.748,1192.2,2829.75,1192.77,2829.751,1193.343Zm15.939-2.81c-.573,0-1.146,0-1.718,0a.956.956,0,0,0-1.083,1.045c-.01,1.172-.007,2.344,0,3.515a.954.954,0,0,0,1.063,1.065q1.757.011,3.515,0a.931.931,0,0,0,1.042-1c.018-1.2.015-2.4,0-3.593a.934.934,0,0,0-1.022-1.024C2846.889,1190.523,2846.29,1190.534,2845.691,1190.533Z" transform="translate(-88.909 -76.996)" fill="#14475f"/>
  </g>
</svg>
