<svg xmlns="http://www.w3.org/2000/svg" width="69.308" height="101.96" viewBox="0 0 69.308 101.96">
  <g id="services-6" transform="translate(-632.75 -815.618)">
    <path id="Path_8574" data-name="Path 8574" d="M639.721,917.578c-.4-.13-.811-.249-1.211-.391A8.063,8.063,0,0,1,632.8,910.1a7.98,7.98,0,0,1,4.292-7.907,1.418,1.418,0,0,0,.883-1.523c-.038-2.687-.019-5.375-.014-8.063,0-2.332,1.167-3.5,3.474-3.506q10.9,0,21.8,0h1.122v-7.145c-.634,0-1.252.009-1.87,0a3.029,3.029,0,0,1-3.227-2.629c-.34-1.554-.693-3.106-.975-4.67a1.451,1.451,0,0,0-.906-1.137c-2.179-1.178-4.32-2.43-6.437-3.717a1.476,1.476,0,0,0-1.439-.251c-1.5.537-3.019,1-4.535,1.474a3.012,3.012,0,0,1-3.964-1.5q-2.407-4.121-4.775-8.266a3.038,3.038,0,0,1,.719-4.26c1.155-1.047,2.347-2.057,3.458-3.149a1.949,1.949,0,0,0,.5-1.246c.046-2.545.043-5.093,0-7.638a1.816,1.816,0,0,0-.441-1.175c-1.166-1.131-2.41-2.182-3.609-3.279a3.008,3.008,0,0,1-.664-4.11q2.39-4.189,4.823-8.353a3.005,3.005,0,0,1,3.972-1.48c1.547.489,3.078,1.032,4.637,1.479a1.687,1.687,0,0,0,1.158-.19q3.371-1.889,6.689-3.87a1.68,1.68,0,0,0,.745-.892c.386-1.542.686-3.105,1.014-4.661a3.071,3.071,0,0,1,3.38-2.808q4.728-.012,9.457,0a3.008,3.008,0,0,1,3.34,2.723q.509,2.28.964,4.571a1.507,1.507,0,0,0,.9,1.147c2.21,1.19,4.352,2.5,6.547,3.725a1.957,1.957,0,0,0,1.324.226c1.467-.405,2.9-.931,4.35-1.4,2.005-.65,3.217-.2,4.264,1.608q2.3,3.957,4.575,7.923c1.092,1.9.9,3.074-.743,4.565-1.13,1.026-2.3,2.013-3.389,3.078a1.6,1.6,0,0,0-.453,1.168,29.026,29.026,0,0,1,.007,7.639,1.718,1.718,0,0,0,.494,1.245c1.138,1.112,2.364,2.133,3.535,3.212a2.993,2.993,0,0,1,.667,4.185q-2.388,4.19-4.822,8.354a2.982,2.982,0,0,1-3.813,1.47c-1.582-.49-3.142-1.052-4.734-1.5a1.8,1.8,0,0,0-1.231.209c-2.19,1.228-4.329,2.55-6.539,3.739a1.592,1.592,0,0,0-.952,1.22c-.291,1.5-.612,2.986-.944,4.474a3.02,3.02,0,0,1-3.407,2.757c-.493,0-.986,0-1.552,0V889.1h1.1q10.851,0,21.7,0c2.443,0,3.573,1.14,3.576,3.605,0,2.754-.017,5.508.024,8.262a1.336,1.336,0,0,0,.516,1c3.247,1.809,5.028,4.937,4.623,8.237a8.242,8.242,0,0,1-6.576,7.208,1.762,1.762,0,0,0-.345.167h-2.39a18.554,18.554,0,0,1-2.242-.765,7.832,7.832,0,0,1-4.773-7.219,7.955,7.955,0,0,1,4.365-7.491c.311-.18.775-.48.783-.737.064-2.075.036-4.152.036-6.234H670.387c0,1.938.025,3.822-.014,5.7a1.209,1.209,0,0,0,.77,1.275,8.192,8.192,0,0,1-.585,14.818,17.92,17.92,0,0,1-1.964.648h-2.39c-.215-.071-.427-.157-.646-.21a8.29,8.29,0,0,1-6.295-6.923,8.121,8.121,0,0,1,4.393-8.332,1.125,1.125,0,0,0,.765-1.279,13.3,13.3,0,0,1-.009-1.392v-4.3H643.937c0,1.922.029,3.774-.015,5.625a1.306,1.306,0,0,0,.824,1.358,8.194,8.194,0,0,1-.938,14.922c-.546.224-1.13.353-1.7.526Zm27.627-52.242A16.526,16.526,0,1,0,650.829,848.8,16.609,16.609,0,0,0,667.348,865.335Z" transform="translate(0 0)" fill="#14475f"/>
    <path id="Path_8575" data-name="Path 8575" d="M723.176,911.3a10.55,10.55,0,1,1,21.1-.019,10.55,10.55,0,0,1-21.1.019Z" transform="translate(-66.37 -62.469)" fill="#14475f"/>
  </g>
</svg>
