<svg xmlns="http://www.w3.org/2000/svg" width="109" height="108.972" viewBox="0 0 109 108.972">
  <g id="services-5" transform="translate(-141.204 -726.684)">
    <path id="Path_8594" data-name="Path 8594" d="M189.177,979.416v-1.238q0-17.782,0-35.563c0-4.076,2.243-6.331,6.3-6.331q33.157,0,66.314,0c4.062,0,6.3,2.245,6.3,6.333q0,17.782,0,35.563v1.236Zm46.966-13.123a7.513,7.513,0,1,0-7.5,7.564A7.526,7.526,0,0,0,236.143,966.293Zm-17.4-12.7-6.227-6.084,6.116-6.078-2.635-2.686-6.338,6.339c-2.317,2.317-2.314,2.623.035,4.975q3.141,3.144,6.267,6.283Zm26.224-5.906L238.8,953.8l2.47,2.57c2.373-2.373,4.721-4.712,7.059-7.061,1.316-1.322,1.323-2.18.025-3.485q-3.224-3.242-6.468-6.464a5.275,5.275,0,0,0-.531-.437l-2.765,2.489Zm-20.463,8.5,11.272-15.033-3.015-2.232L221.5,953.937Z" transform="translate(-32.922 -143.839)" fill="#14475f"/>
    <path id="Path_8595" data-name="Path 8595" d="M268.823,748.23a1.212,1.212,0,0,1-2.276,0c-1.578-4.192-4.484-7.635-6.877-11.337-.677-1.047-1.8-1.089-2.867-.258-1.328,1.031-2.638,2.089-3.936,3.158a16.166,16.166,0,0,1-10.466,3.814,18.946,18.946,0,0,0-10.57,3.372c-3.361,2.252-6.729,4.494-10.193,6.8a2.589,2.589,0,0,1-3.767-1.027c-.742-1.539-1.468-3.07-2.109-4.636a4.181,4.181,0,0,1,.094-2.522c1.639-5.645.027-9.283-5.269-11.707-.06-.028-.092-.116-.29-.378,2.361-1.023,4.632-2.118,6.981-3a59.453,59.453,0,0,1,21.35-3.827c5.087.014,10.175-.006,15.262,0a15.683,15.683,0,0,1,15.021,21.293Z" transform="translate(-47.416 0)" fill="#14475f"/>
    <path id="Path_8596" data-name="Path 8596" d="M249.29,846.565H251.3a1.6,1.6,0,0,1,1.6,1.6q0,1.587,0,3.167c0,4.3,2.187,6.467,6.516,6.468.939,0,1.878.013,2.817,0a5.632,5.632,0,0,0,5.693-5.642c.012-.579,0-1.157,0-1.8h3.761c0,.574-.01,1.179,0,1.785a5.626,5.626,0,0,0,5.676,5.658c1.291.022,2.583.034,3.873-.006a5.6,5.6,0,0,0,5.466-5.5c.045-1.87.008-3.743.008-5.687h2.707a.988.988,0,0,1,.986,1.04c-.055,1.031-.1,2.066-.215,3.1a49.879,49.879,0,0,1-6.165,19.292,1.622,1.622,0,0,1-1.653.941q-12.56-.043-25.12,0a1.62,1.62,0,0,1-1.656-.931,49.834,49.834,0,0,1-6.406-22.33c-.013-.273-.011-.547-.005-.821A1.709,1.709,0,0,1,249.29,846.565Z" transform="translate(-74.103 -82.269)" fill="#14475f"/>
    <path id="Path_8597" data-name="Path 8597" d="M290.257,791.225a2.835,2.835,0,0,1-2.825,2.645c-4.225.015-8.495.051-12.763-.033-2.876-.057-3.507.854-3.27,3.222a.814.814,0,0,1-.009.2.355.355,0,0,1-.353.3H268a.355.355,0,0,1-.356-.355c0-.283,0-.571,0-.859-.013-1.854-.621-2.478-2.45-2.479q-7.454-.008-14.908,0h-.972a.355.355,0,0,1-.347-.286c-.432-2.074-.271-2.352,1.468-3.512,3.285-2.191,6.576-4.373,9.853-6.577a14.932,14.932,0,0,1,8.342-2.752,20.014,20.014,0,0,0,13.156-4.789l.022-.018a2.758,2.758,0,0,1,3.98.485A21.92,21.92,0,0,1,290.257,791.225Z" transform="translate(-73.817 -33.359)" fill="#14475f"/>
    <path id="Path_8598" data-name="Path 8598" d="M141.2,1017.379c.185-4.6-.483-9.159.969-13.584a20.736,20.736,0,0,1,10.22-12.186v25.77Z" transform="translate(0 -181.807)" fill="#14475f"/>
    <path id="Path_8599" data-name="Path 8599" d="M464.083,1017.479h-11.2V991.632a19.708,19.708,0,0,1,6.77,5.578,20.407,20.407,0,0,1,4.42,12.485C464.121,1012.233,464.083,1014.773,464.083,1017.479Z" transform="translate(-213.893 -181.823)" fill="#14475f"/>
    <path id="Path_8600" data-name="Path 8600" d="M280.51,846.717c0,1.911.035,3.742-.013,5.57a1.8,1.8,0,0,1-1.869,1.849c-1.247.046-2.5.047-3.745,0a1.8,1.8,0,0,1-1.864-1.852c-.046-1.828-.013-3.658-.013-5.566Z" transform="translate(-90.442 -82.374)" fill="#14475f"/>
    <path id="Path_8601" data-name="Path 8601" d="M332.888,846.6h7.484c0,1.979.074,3.919-.03,5.85a1.7,1.7,0,0,1-1.844,1.607c-1.247.035-2.5.045-3.745,0a1.8,1.8,0,0,1-1.853-1.864C332.856,850.366,332.888,848.538,332.888,846.6Z" transform="translate(-131.537 -82.295)" fill="#14475f"/>
    <path id="Path_8602" data-name="Path 8602" d="M228.716,846.531l.785,8.282c-1.319-1.091-2.57-2.008-3.675-3.076a2.913,2.913,0,0,1-.431-3.483A3.157,3.157,0,0,1,228.716,846.531Z" transform="translate(-57.513 -82.233)" fill="#14475f"/>
    <path id="Path_8603" data-name="Path 8603" d="M391.312,846.716a3.142,3.142,0,0,1,2.595,5.474c-.934.829-1.938,1.58-2.915,2.359a3.3,3.3,0,0,1-.459.246C390.8,852.037,391.056,849.375,391.312,846.716Z" transform="translate(-171.104 -82.355)" fill="#14475f"/>
    <path id="Path_8604" data-name="Path 8604" d="M310.476,1023.9a3.752,3.752,0,1,1-3.7-3.77A3.768,3.768,0,0,1,310.476,1023.9Z" transform="translate(-111.014 -201.382)" fill="#14475f"/>
  </g>
</svg>
