<svg width="877" height="877" viewBox="0 0 877 877" fill="none" xmlns="http://www.w3.org/2000/svg">
<g clip-path="url(#clip0_28_372)">
<path d="M771.992 748.255C754.071 766.827 737.11 778.803 723.713 788.264C566.22 899.491 379.862 867.07 340.254 859.15C281.768 847.458 168.716 824.859 86.9821 730.252C-36.675 587.12 -17.4207 361.619 78.4969 212.762C96.0422 185.534 188.719 34.4095 377.082 10.1734C491.079 -4.49396 623.96 25.0872 720.191 104.442C922.185 271.014 907.805 607.517 771.989 748.252L771.992 748.255Z" fill="#DDF0F9"/>
<path d="M167.345 248.907C167.427 244.699 170.962 241.313 175.296 241.313H438.21C442.604 241.313 447.27 244.804 447.27 249.072V844.975C447.27 848.159 445.412 851.214 443.09 853.46C440.768 855.709 437.344 856.967 434.065 856.96L168.274 856.256C164.966 856.247 161.731 854.948 159.419 852.655C157.106 850.358 155.802 847.25 155.865 844.037L167.345 248.91V248.907Z" fill="#56AFDD"/>
<g opacity="0.52">
<g style="mix-blend-mode:overlay">
<path d="M318.333 283.543L404.338 283.256L404.306 272.803L318.397 273.068L318.333 283.543Z" fill="#DDF0F9"/>
</g>
<g style="mix-blend-mode:overlay">
<path d="M318.097 322.036L404.455 321.654L404.423 311.118L318.163 311.475L318.097 322.036Z" fill="#DDF0F9"/>
</g>
<g style="mix-blend-mode:overlay">
<path d="M317.86 360.848L404.575 360.371L404.544 349.747L317.926 350.199L317.86 360.848Z" fill="#DDF0F9"/>
</g>
<g style="mix-blend-mode:overlay">
<path d="M317.62 399.982L404.695 399.407L404.66 388.695L317.686 389.244L317.62 399.982Z" fill="#DDF0F9"/>
</g>
<g style="mix-blend-mode:overlay">
<path d="M317.379 439.441L404.815 438.769L404.78 427.968L317.446 428.615L317.379 439.441Z" fill="#DDF0F9"/>
</g>
<g style="mix-blend-mode:overlay">
<path d="M316.89 519.355L405.058 518.48L405.027 507.5L316.956 508.346L316.89 519.355Z" fill="#DDF0F9"/>
</g>
<g style="mix-blend-mode:overlay">
<path d="M316.139 641.777L405.435 640.589L405.4 629.324L316.208 630.484L316.139 641.777Z" fill="#DDF0F9"/>
</g>
<g style="mix-blend-mode:overlay">
<path d="M317.133 479.233L404.939 478.459L404.904 467.566L317.2 468.312L317.133 479.233Z" fill="#DDF0F9"/>
</g>
<g style="mix-blend-mode:overlay">
<path d="M316.641 559.819L405.185 558.843L405.15 547.768L316.71 548.715L316.641 559.819Z" fill="#DDF0F9"/>
</g>
<g style="mix-blend-mode:overlay">
<path d="M316.391 600.624L405.308 599.541L405.274 588.374L316.461 589.429L316.391 600.624Z" fill="#DDF0F9"/>
</g>
<g style="mix-blend-mode:overlay">
<path d="M315.885 683.284L405.561 681.985L405.526 670.625L315.955 671.892L315.885 683.284Z" fill="#DDF0F9"/>
</g>
<g style="mix-blend-mode:overlay">
<path d="M315.629 725.144L405.69 723.735L405.655 712.277L315.699 713.655L315.629 725.144Z" fill="#DDF0F9"/>
</g>
<g style="mix-blend-mode:overlay">
<path d="M315.371 767.367L405.82 765.845L405.785 754.289L315.44 755.78L315.371 767.367Z" fill="#DDF0F9"/>
</g>
<g style="mix-blend-mode:overlay">
<path d="M315.108 809.954L405.949 808.318L405.915 796.661L315.181 798.266L315.108 809.954Z" fill="#DDF0F9"/>
</g>
<g style="mix-blend-mode:overlay">
<path d="M205.575 283.922L292.12 283.631L292.212 273.146L205.765 273.412L205.575 283.922Z" fill="#DDF0F9"/>
</g>
<g style="mix-blend-mode:overlay">
<path d="M204.871 322.539L291.776 322.153L291.87 311.583L205.063 311.943L204.871 322.539Z" fill="#DDF0F9"/>
</g>
<g style="mix-blend-mode:overlay">
<path d="M204.163 361.473L291.428 360.993L291.523 350.334L204.359 350.789L204.163 361.473Z" fill="#DDF0F9"/>
</g>
<g style="mix-blend-mode:overlay">
<path d="M203.449 400.737L291.078 400.159L291.175 389.412L203.645 389.961L203.449 400.737Z" fill="#DDF0F9"/>
</g>
<g style="mix-blend-mode:overlay">
<path d="M202.732 440.326L290.727 439.647L290.822 428.812L202.928 429.462L202.732 440.326Z" fill="#DDF0F9"/>
</g>
<g style="mix-blend-mode:overlay">
<path d="M201.272 520.502L290.013 519.623L290.111 508.602L201.475 509.454L201.272 520.502Z" fill="#DDF0F9"/>
</g>
<g style="mix-blend-mode:overlay">
<path d="M199.04 643.338L288.917 642.14L289.018 630.837L199.248 632.006L199.04 643.338Z" fill="#DDF0F9"/>
</g>
<g style="mix-blend-mode:overlay">
<path d="M202.006 480.246L290.37 479.466L290.468 468.539L202.205 469.291L202.006 480.246Z" fill="#DDF0F9"/>
</g>
<g style="mix-blend-mode:overlay">
<path d="M200.536 561.102L289.649 560.117L289.75 549.006L200.738 549.96L200.536 561.102Z" fill="#DDF0F9"/>
</g>
<g style="mix-blend-mode:overlay">
<path d="M199.791 602.046L289.286 600.956L289.384 589.748L199.996 590.81L199.791 602.046Z" fill="#DDF0F9"/>
</g>
<g style="mix-blend-mode:overlay">
<path d="M198.285 684.986L288.548 683.679L288.649 672.281L198.49 673.557L198.285 684.986Z" fill="#DDF0F9"/>
</g>
<g style="mix-blend-mode:overlay">
<path d="M197.52 726.991L288.174 725.573L288.275 714.074L197.728 715.464L197.52 726.991Z" fill="#DDF0F9"/>
</g>
<g style="mix-blend-mode:overlay">
<path d="M196.749 769.361L287.795 767.828L287.9 756.235L196.961 757.732L196.749 769.361Z" fill="#DDF0F9"/>
</g>
<g style="mix-blend-mode:overlay">
<path d="M195.972 812.1L287.417 810.454L287.521 798.756L196.187 800.37L195.972 812.1Z" fill="#DDF0F9"/>
</g>
</g>
<path d="M16.476 413.275C16.5897 408.407 21.5905 404.401 27.7158 404.401H259.276C265.483 404.401 271.58 408.616 271.58 413.55V854.522C271.58 856.894 269.859 859.172 267.745 860.846C265.632 862.521 262.498 863.459 259.51 863.453L17.3984 862.928C14.3847 862.922 11.4374 861.955 9.33029 860.243C7.22322 858.531 6.03542 856.168 6.09228 853.773L16.4729 413.272L16.476 413.275Z" fill="#56AFDD"/>
<path d="M187.007 456.367L252.974 456.294L253.498 429.427H187.468L187.007 456.367Z" fill="#DDF0F9"/>
<path d="M113.066 456.351L178.966 456.282L179.418 429.427H113.451L113.066 456.351Z" fill="#DDF0F9"/>
<path d="M39.1987 456.339L105.033 456.269L105.412 429.427H39.5146L39.1987 456.339Z" fill="#DDF0F9"/>
<path d="M186.182 504.596L252.035 504.631L252.556 477.934L186.64 477.915L186.182 504.596Z" fill="#DDF0F9"/>
<path d="M112.371 504.558L178.155 504.592L178.606 477.911L112.756 477.889L112.371 504.558Z" fill="#DDF0F9"/>
<path d="M38.6328 504.52L104.35 504.555L104.729 477.886L38.9456 477.864L38.6328 504.52Z" fill="#DDF0F9"/>
<path d="M185.36 552.496L251.097 552.55L251.618 525.948L185.815 525.903L185.36 552.496Z" fill="#DDF0F9"/>
<path d="M111.676 552.433L177.349 552.487L177.797 525.9L112.061 525.856L111.676 552.433Z" fill="#DDF0F9"/>
<path d="M38.0674 552.373L103.671 552.427L104.05 525.85L38.3801 525.809L38.0674 552.373Z" fill="#DDF0F9"/>
<path d="M184.542 600.226L250.164 600.305L250.682 573.795L184.996 573.729L184.542 600.226Z" fill="#DDF0F9"/>
<path d="M110.987 600.141L176.543 600.22L176.989 573.722L111.37 573.659L110.987 600.141Z" fill="#DDF0F9"/>
<path d="M37.502 600.059L102.995 600.134L103.371 573.649L37.8147 573.586L37.502 600.059Z" fill="#DDF0F9"/>
<path d="M183.727 647.795L249.236 647.893L249.751 621.474L184.179 621.389L183.727 647.795Z" fill="#DDF0F9"/>
<path d="M110.298 647.688L175.741 647.783L176.186 621.38L110.681 621.294L110.298 647.688Z" fill="#DDF0F9"/>
<path d="M36.9429 647.577L102.319 647.675L102.695 621.284L37.2525 621.199L36.9429 647.577Z" fill="#DDF0F9"/>
<path d="M182.912 695.199L248.31 695.316L248.822 668.992L183.364 668.884L182.912 695.199Z" fill="#DDF0F9"/>
<path d="M109.61 695.066L174.942 695.183L175.388 668.872L109.993 668.764L109.61 695.066Z" fill="#DDF0F9"/>
<path d="M36.3838 694.933L101.649 695.054L102.022 668.751L36.6934 668.644L36.3838 694.933Z" fill="#DDF0F9"/>
<path d="M182.103 742.439L247.384 742.578L247.899 716.342L182.552 716.216L182.103 742.439Z" fill="#DDF0F9"/>
<path d="M108.927 742.284L174.145 742.423L174.588 716.2L109.306 716.074L108.927 742.284Z" fill="#DDF0F9"/>
<path d="M35.8242 742.129L100.979 742.268L101.349 716.058L36.1338 715.928L35.8242 742.129Z" fill="#DDF0F9"/>
<path d="M181.295 789.518L246.466 789.676L246.977 763.532L181.743 763.383L181.295 789.518Z" fill="#DDF0F9"/>
<path d="M108.245 789.338L173.353 789.499L173.792 763.364L108.624 763.216L108.245 789.338Z" fill="#DDF0F9"/>
<path d="M35.2686 789.161L100.31 789.319L100.683 763.2L35.5781 763.052L35.2686 789.161Z" fill="#DDF0F9"/>
<path d="M180.492 836.436L245.549 836.613L246.058 810.558L180.938 810.39L180.492 836.436Z" fill="#DDF0F9"/>
<path d="M107.566 836.234L172.56 836.414L172.999 810.368L107.945 810.2L107.566 836.234Z" fill="#DDF0F9"/>
<path d="M34.7158 836.032L99.6465 836.212L100.016 810.181L35.0223 810.011L34.7158 836.032Z" fill="#DDF0F9"/>
<path d="M620.918 423.807C621.032 418.939 626.033 414.933 632.158 414.933H863.718C869.926 414.933 876.023 419.147 876.023 424.082V865.054C876.023 867.426 874.301 869.704 872.188 871.378C870.074 873.052 866.94 873.991 863.952 873.984L621.841 873.46C618.827 873.454 615.88 872.487 613.773 870.775C611.666 869.063 610.478 866.7 610.535 864.305L620.915 423.804L620.918 423.807Z" fill="#56AFDD"/>
<g opacity="0.5">
<path d="M791.452 466.896L857.419 466.827L857.94 439.956H791.91L791.452 466.896Z" fill="#DDF0F9"/>
<path d="M717.508 466.884L783.409 466.811L783.861 439.956H717.897L717.508 466.884Z" fill="#DDF0F9"/>
<path d="M643.641 466.871L709.478 466.798L709.858 439.956H643.96L643.641 466.871Z" fill="#DDF0F9"/>
<path d="M790.627 515.125L856.477 515.16L856.999 488.466L791.086 488.444L790.627 515.125Z" fill="#DDF0F9"/>
<path d="M716.814 515.09L782.601 515.122L783.049 488.441L717.199 488.418L716.814 515.09Z" fill="#DDF0F9"/>
<path d="M643.075 515.052L708.796 515.084L709.175 488.419L643.391 488.396L643.075 515.052Z" fill="#DDF0F9"/>
<path d="M789.806 563.026L855.542 563.079L856.06 536.477L790.261 536.436L789.806 563.026Z" fill="#DDF0F9"/>
<path d="M716.122 562.962L781.792 563.019L782.241 536.43L716.504 536.389L716.122 562.962Z" fill="#DDF0F9"/>
<path d="M642.51 562.903L708.117 562.956L708.493 536.383L642.823 536.338L642.51 562.903Z" fill="#DDF0F9"/>
<path d="M788.985 610.759L854.611 610.834L855.129 584.324L789.44 584.261L788.985 610.759Z" fill="#DDF0F9"/>
<path d="M715.43 610.673L780.986 610.749L781.435 584.251L715.812 584.188L715.43 610.673Z" fill="#DDF0F9"/>
<path d="M641.948 610.588L707.438 610.664L707.814 584.182L642.261 584.115L641.948 610.588Z" fill="#DDF0F9"/>
<path d="M788.17 658.327L853.679 658.422L854.197 632.006L788.625 631.921L788.17 658.327Z" fill="#DDF0F9"/>
<path d="M714.741 658.216L780.187 658.314L780.629 631.908L715.123 631.823L714.741 658.216Z" fill="#DDF0F9"/>
<path d="M641.386 658.109L706.765 658.204L707.138 631.813L641.698 631.728L641.386 658.109Z" fill="#DDF0F9"/>
<path d="M787.358 705.731L852.753 705.848L853.268 679.521L787.81 679.414L787.358 705.731Z" fill="#DDF0F9"/>
<path d="M714.056 705.599L779.388 705.716L779.83 679.401L714.435 679.297L714.056 705.599Z" fill="#DDF0F9"/>
<path d="M640.826 705.466L706.092 705.583L706.465 679.281L641.136 679.177L640.826 705.466Z" fill="#DDF0F9"/>
<path d="M786.546 752.972L851.83 753.111L852.342 726.872L786.998 726.746L786.546 752.972Z" fill="#DDF0F9"/>
<path d="M713.371 752.814L778.589 752.953L779.031 726.73L713.753 726.604L713.371 752.814Z" fill="#DDF0F9"/>
<path d="M640.271 752.659L705.422 752.798L705.795 726.588L640.58 726.461L640.271 752.659Z" fill="#DDF0F9"/>
<path d="M785.741 800.047L850.912 800.208L851.42 774.061L786.189 773.913L785.741 800.047Z" fill="#DDF0F9"/>
<path d="M712.691 799.871L777.795 800.029L778.238 773.897L713.07 773.749L712.691 799.871Z" fill="#DDF0F9"/>
<path d="M639.714 799.69L704.756 799.852L705.125 773.73L640.021 773.581L639.714 799.69Z" fill="#DDF0F9"/>
<path d="M784.935 846.966L849.992 847.146L850.501 821.09L785.381 820.919L784.935 846.966Z" fill="#DDF0F9"/>
<path d="M712.012 846.763L777.006 846.943L777.445 820.9L712.388 820.732L712.012 846.763Z" fill="#DDF0F9"/>
<path d="M639.162 846.561L704.089 846.741L704.459 820.711L639.468 820.543L639.162 846.561Z" fill="#DDF0F9"/>
</g>
<path d="M390.717 543.765C371.819 484.429 335.253 437.142 291.943 409.346C253.226 384.493 225.329 345.792 215.002 301.089C213.915 296.391 212.626 291.678 211.126 286.968C188.396 215.609 126.056 171.745 71.8851 189C17.7141 206.255 -7.77611 278.091 14.9531 349.45C19.6 364.042 25.9055 377.48 33.4587 389.482C57.5621 427.779 66.995 473.711 58.1276 518.139C50.2016 557.842 52.3529 602.546 66.5211 647.031C87.6519 713.377 130.871 764.664 180.916 790.482C199.845 800.247 216.913 813.379 231.047 829.25C254.534 855.622 287.637 868.015 318.049 858.329C350.859 847.879 371.355 814.655 372.83 775.894C373.664 753.958 378.823 732.457 387.229 712.132C407.074 664.147 409.829 603.765 390.72 543.772L390.717 543.765Z" fill="#A2D4EB"/>
<path opacity="0.57" d="M115.035 258.868C137.132 303.776 157.764 349.358 177.915 395.158C182.957 406.606 187.815 418.133 192.709 429.645L200.047 446.912L207.24 464.243C211.991 475.814 216.904 487.319 221.522 498.948L235.384 533.823C244.327 557.194 253.47 580.485 261.974 604.02C266.241 615.781 270.743 627.457 274.771 639.306L287.022 674.789C302.874 722.259 317.538 770.153 329.735 818.698L327.64 819.248L317.124 783.276L314.515 774.279L311.681 765.349L305.979 747.5L300.312 729.645C298.432 723.69 296.334 717.805 294.354 711.882C290.316 700.061 286.377 688.211 282.264 676.419C265.505 629.349 248.118 582.507 229.764 536.028C220.407 512.86 211.252 489.613 201.734 466.508L194.642 449.161L187.405 431.872C182.587 420.341 177.77 408.814 172.835 397.334C163.162 374.289 153.325 351.313 143.298 328.42C133.392 305.473 123.267 282.614 113.073 259.796L115.031 258.871L115.035 258.868Z" fill="#DDF0F9"/>
<path d="M548.813 425.822C539.981 361.021 510.788 305.482 471.148 268.875C435.714 236.154 413.913 191.065 411.288 142.95C411.013 137.893 410.527 132.784 409.825 127.638C399.205 49.7051 342.841 -6.96474 283.938 1.06235C225.035 9.08944 185.894 78.7776 196.515 156.711C198.685 172.648 202.773 187.691 208.403 201.471C226.368 245.454 227.853 294.675 210.75 339.022C195.466 378.652 189.666 425.282 196.288 473.865C206.163 546.323 241.497 607.207 288.424 642.983C306.175 656.517 321.404 673.193 333.121 692.17C352.593 723.703 384.474 742.525 417.543 738.02C453.218 733.158 480.291 702.506 488.763 662.68C493.555 640.14 502.726 618.836 515.031 599.335C544.081 553.299 557.741 491.337 548.813 425.819V425.822Z" fill="#61B8E1"/>
<path opacity="0.57" d="M315.867 81.1631C330.581 131.619 343.663 182.511 356.214 233.536C359.357 246.292 362.295 259.095 365.274 271.889L369.741 291.081L374.047 310.31C376.868 323.142 379.865 335.932 382.538 348.796L390.565 387.384C395.588 413.177 400.829 438.926 405.375 464.811C407.665 477.751 410.205 490.643 412.233 503.63L418.494 542.552C426.316 594.527 432.833 646.727 436.7 699.151L434.441 699.341L430.056 660.226L428.982 650.449L427.662 640.697L424.986 621.202L422.348 601.705C421.483 595.207 420.371 588.737 419.394 582.251C417.357 569.293 415.42 556.319 413.297 543.376C404.471 491.654 394.956 440.045 384.38 388.641C378.896 362.98 373.63 337.272 367.965 311.649L363.77 292.42L359.414 273.226C356.517 260.429 353.62 247.628 350.594 234.859C344.759 209.271 338.744 183.721 332.518 158.221C326.427 132.69 320.093 107.209 313.681 81.7601L315.864 81.1567L315.867 81.1631Z" fill="#DDF0F9"/>
<path d="M819.548 161.826H305.366C301.348 161.826 298.09 165.083 298.09 169.101V863.929C298.09 867.947 301.348 871.205 305.366 871.205H819.548C823.566 871.205 826.823 867.947 826.823 863.929V169.101C826.823 165.083 823.566 161.826 819.548 161.826Z" fill="#14475F"/>
<path d="M736.817 268.399H386.976C373.715 268.399 362.964 279.149 362.964 292.411V753.749C362.964 767.01 373.715 777.761 386.976 777.761H736.817C750.078 777.761 760.828 767.01 760.828 753.749V292.411C760.828 279.149 750.078 268.399 736.817 268.399Z" fill="#DDF0F9"/>
<path d="M723.58 310.3H400.528C396.55 310.3 393.326 313.525 393.326 317.502V735.123C393.326 739.101 396.55 742.326 400.528 742.326H723.58C727.558 742.326 730.783 739.101 730.783 735.123V317.502C730.783 313.525 727.558 310.3 723.58 310.3Z" fill="#14475F"/>
<path d="M572.679 227.405C578.856 221.228 578.856 211.213 572.679 205.036C566.502 198.859 556.488 198.859 550.31 205.036C544.133 211.213 544.133 221.228 550.31 227.405C556.488 233.582 566.502 233.582 572.679 227.405Z" fill="#DDF0F9"/>
<path d="M663.682 471.569L460.186 474.952C444.698 475.211 432.096 487.253 432.096 501.851V630.007C432.096 644.604 444.698 655.933 460.186 655.31L663.682 647.138C678.298 646.55 690.107 634.641 690.107 620.533V496.677C690.107 482.568 678.298 471.329 663.682 471.572V471.569Z" fill="#56AFDD"/>
<path d="M673.983 448.391C667.82 448.482 662.816 443.725 662.816 437.767V409.718C662.816 381.581 639.016 358.756 609.552 358.842L543.26 359.034C513.037 359.123 488.27 382.62 488.27 411.414V440.117C488.27 446.217 483.023 451.237 476.541 451.335C470.046 451.433 464.773 446.552 464.773 440.433V411.642C464.773 370.543 500.183 337.104 543.26 337.104H609.552C651.409 337.104 685.119 369.582 685.119 409.5V437.464C685.119 443.406 680.137 448.296 673.983 448.388V448.391Z" fill="#56AFDD"/>
<path d="M594.856 542.593C594.856 528.352 582.422 517.169 567.309 518.196C553.943 519.106 542.89 529.808 542.17 542.587C541.611 552.503 547.06 561.076 555.343 565.411C558.868 567.256 560.618 571.141 559.933 574.986L554.124 607.59C553.384 611.741 556.72 615.39 561.111 615.232L576.044 614.698C580.413 614.54 583.727 610.67 582.994 606.585L577.188 574.281C576.496 570.427 578.499 566.602 582.03 564.488C589.713 559.895 594.856 551.748 594.856 542.587V542.593Z" fill="#14475F"/>
<path d="M186.15 872.446C186.153 872.168 186.134 871.884 186.065 871.599C181.844 854.869 160.9 844.451 160.9 844.451L152.601 845.101C147.828 859.848 148.444 868.889 149.208 872.92C149.23 873.034 149.265 873.141 149.293 873.248C156.139 873.861 170.232 874.259 186.15 872.449V872.446Z" fill="#221E20"/>
<path d="M149.293 873.246C149.663 874.591 150.655 875.637 151.928 875.905C161.667 877.952 177.147 876.307 183.645 875.457C185.079 875.27 186.128 873.944 186.15 872.446C170.232 874.26 156.139 873.858 149.293 873.246V873.246Z" fill="#A2D4EB"/>
<path d="M149.265 832.737L152.781 849.66C153.04 850.898 153.991 851.827 155.144 851.937C156.556 852.07 158.568 852.149 160.59 851.852C162.404 851.587 163.667 849.742 163.345 847.764L160.903 832.74H149.265V832.737Z" fill="#914F4E"/>
<path d="M222.094 873.031C212.926 872.775 208.188 871.694 205.736 870.693C205.73 871.603 205.736 872.531 205.765 873.492C205.796 874.518 206.557 875.337 207.493 875.333L257.819 875.008C259.424 874.999 260.362 873.135 259.667 871.663C253.068 872.209 236.262 873.429 222.094 873.031V873.031Z" fill="#A2D4EB"/>
<path d="M259.666 871.663C259.606 871.533 259.553 871.404 259.467 871.284C255.023 865.073 243.704 852.705 221.335 847.341L210.603 847.003C210.603 847.003 205.824 855.309 205.735 870.693C208.187 871.694 212.928 872.775 222.093 873.031C236.261 873.429 253.067 872.206 259.666 871.663V871.663Z" fill="#221E20"/>
<path d="M208.137 831.239C208.307 832.029 210.538 844.071 211.403 848.74C211.608 849.849 212.474 850.664 213.501 850.721C215.339 850.825 218.302 850.835 220.849 850.143C222.223 849.77 223.148 848.368 223.05 846.813L221.85 827.768L208.137 831.239Z" fill="#914F4E"/>
<path d="M200.005 608.926C200.005 608.926 214.767 710.363 225.42 831.069C225.619 833.318 223.827 835.274 221.619 835.738C218.365 836.424 213.583 837.239 209.621 837.125C207.508 837.065 205.739 835.498 205.385 833.413C201.755 812.131 175.861 697.91 169.062 672.77C169.062 672.77 161.257 779.555 163.752 834.955C163.815 836.332 162.804 837.526 161.437 837.684C159.358 837.924 156.035 838.107 151.805 837.659C150.2 837.488 148.905 836.275 148.674 834.677C146.09 816.664 131.211 709.453 131.843 632.218C131.878 627.861 136.954 592.079 136.954 592.079L200.011 608.926H200.005Z" fill="#1B252E"/>
<path d="M205.726 438.345L207.704 491.423C213.317 493.356 218.662 494.857 223.751 495.978C226.936 485.73 233.946 473.151 239.682 463.797C218.593 456.342 205.726 438.342 205.726 438.342V438.345Z" fill="#DCDC9F"/>
<path d="M134.731 614.77C133.214 614.23 132.156 612.856 131.989 611.254C130.027 592.209 120.521 474.124 180.527 425.548C180.527 425.548 183.967 416.544 212.253 438.677C240.539 460.809 225.395 484.006 218.622 516C210.427 554.717 196.051 586.364 202.41 610.193C202.849 611.836 201.983 613.564 200.388 614.151C178.417 622.248 156.528 622.516 134.727 614.77H134.731Z" fill="#FFFFCC"/>
<path d="M203.932 390.167C203.913 391.848 179.952 425.88 179.952 425.88C179.952 425.88 184.252 434.349 204.785 441.226L222.507 404.787L203.932 390.167V390.167Z" fill="#914F4E"/>
<path d="M192.063 506.622C191.915 506.622 191.76 506.577 191.627 506.489C172.487 493.556 163.481 472.681 163.392 472.472C163.225 472.074 163.411 471.62 163.806 471.452C164.204 471.285 164.659 471.468 164.826 471.863C164.912 472.068 173.751 492.529 192.499 505.197C192.856 505.437 192.948 505.92 192.708 506.277C192.559 506.498 192.313 506.618 192.063 506.618V506.622Z" fill="#FFFFCC"/>
<path d="M220.574 477.688C220.319 477.688 220.069 477.562 219.92 477.331C219.864 477.243 214.016 468.138 202.878 448.195C199.453 442.064 194.952 438.178 189.499 436.652C180.471 434.128 171.767 438.971 171.682 439.018C171.306 439.224 170.835 439.1 170.621 438.728C170.409 438.355 170.539 437.878 170.911 437.666C171.287 437.455 180.237 432.444 189.903 435.152C195.776 436.791 200.6 440.923 204.236 447.434C215.346 467.326 221.171 476.399 221.228 476.488C221.462 476.848 221.358 477.331 220.995 477.562C220.865 477.647 220.717 477.685 220.574 477.685V477.688Z" fill="#FFFFCC"/>
<path d="M222.798 370.667C222.798 370.667 231.324 390.253 231.896 400.532C232.468 410.811 234.682 417.48 222.798 419.552C210.914 421.622 200.9 415.702 195.476 405.463C195.476 405.463 186.978 389.684 188.883 383.224C190.788 376.763 222.798 370.67 222.798 370.67V370.667Z" fill="#914F4E"/>
<path d="M199.538 398.096L200.214 397.799C201.076 397.42 201.443 396.393 201.01 395.559C199.333 392.321 196.066 384.901 200.287 383.17C205.727 380.939 227.274 376.545 231.924 368.897C236.391 361.549 232.433 352.063 226.485 349.365C226.087 349.185 225.616 349.327 225.414 349.715L224.918 350.654C224.58 351.295 223.629 351.197 223.427 350.502C223.234 349.832 222.343 349.703 221.973 350.294C220.546 352.581 216.685 356.289 206.368 358.194C191.704 360.902 182.012 366.834 181.769 376.968C181.753 377.613 181.067 377.97 180.518 377.635C179.434 376.975 177.703 376.665 175.387 378.611C171.36 381.998 173.009 390.78 181.835 398.008C182.255 398.352 182.252 399.006 181.797 399.3C180.195 400.342 177.81 402.819 183.992 406.123C190.386 409.541 195.16 409.26 196.998 408.957C197.456 408.881 197.75 408.439 197.649 407.987L195.687 399.082C195.577 398.576 195.959 398.099 196.477 398.099H199.535L199.538 398.096Z" fill="#221E20"/>
<path d="M199.908 399.976C199.908 399.976 196.654 387.466 191.047 390.973C185.436 394.479 193.956 404.989 198.467 405.457L199.908 399.973V399.976Z" fill="#914F4E"/>
<path d="M310.303 434.353C310.303 434.353 306.029 426.777 306.301 423.094C306.572 419.414 304.279 414.008 306.721 414.407C309.163 414.808 309.665 414.479 310.329 418.896C310.992 423.312 318.694 442.604 310.303 434.349V434.353Z" fill="#914F4E"/>
<path d="M311.109 422.307L311.011 437.442C282.083 468.675 258.669 470.514 239.683 463.801C233.943 473.155 226.933 485.731 223.752 495.982C301.003 513.012 319.193 441.994 319.193 441.994C329.655 437.66 331.765 435.123 331.314 432.283L311.109 422.304V422.307Z" fill="#914F4E"/>
<path d="M333.355 407.292C330.884 406.29 326.054 397.079 325.129 400.108C324.203 403.138 325.52 407.292 325.129 408.581C324.737 409.87 318.716 424.695 319.916 427.987C320.785 430.362 325.568 430.012 326.298 433.9C326.541 435.189 327.571 436.115 328.768 436.118C329.965 436.118 330.995 435.196 331.238 433.904C331.336 433.385 335.822 408.293 333.355 407.292Z" fill="#914F4E"/>
<path d="M254.505 375.768C234.998 414.349 250.462 461.437 289.043 480.944C320.399 496.8 357.379 489.553 380.601 465.566L514.648 533.34C516.875 534.465 519.523 534.373 521.664 533.097L534.774 525.288C534.999 525.152 535.213 525.007 535.419 524.852C535.476 524.808 535.532 524.763 535.589 524.716C535.741 524.593 535.889 524.466 536.028 524.337C536.076 524.293 536.123 524.248 536.171 524.201C536.344 524.027 536.512 523.85 536.667 523.664C536.667 523.664 536.673 523.658 536.673 523.654C538.319 521.652 538.821 518.856 537.813 516.329L527.161 489.625C526.504 487.976 525.266 486.624 523.68 485.822L510.254 479.033L506.7 486.062L495.166 480.23L498.72 473.202L487.929 467.746L484.659 474.209L470.643 467.121L473.912 460.657L468.691 458.016L467.007 461.343L455.255 455.401L456.939 452.074L447.8 447.452L444.246 454.481L437.716 451.18L441.27 444.151L435.612 441.289L432.058 448.315L420.743 442.594L424.297 435.565L408.391 427.522L401.58 424.079C407.131 391.158 391.045 357.082 359.688 341.227C321.107 321.72 274.018 337.183 254.511 375.765L254.505 375.768ZM300.175 381.097C307.988 385.046 311.118 394.583 307.169 402.395C303.221 410.207 293.683 413.338 285.871 409.389C278.059 405.44 274.928 395.903 278.877 388.091C282.826 380.279 292.363 377.148 300.175 381.097Z" fill="url(#paint0_linear_28_372)"/>
<path d="M363.16 399.41L426.704 431.537L423.15 438.566L434.465 444.287L438.019 437.258L443.677 440.12L440.123 447.149L446.653 450.45L450.207 443.421L459.346 448.043L457.662 451.369L469.414 457.311L471.097 453.985L476.319 456.626L473.05 463.089L487.066 470.178L490.336 463.715L501.127 469.171L497.573 476.199L509.107 482.031L512.661 475.002L526.087 481.791C527.672 482.593 528.908 483.945 529.568 485.594L540.22 512.298C541.547 515.624 540.258 519.424 537.181 521.26L524.071 529.069C521.926 530.345 519.279 530.437 517.055 529.312L355.237 447.496L363.153 399.41H363.16Z" fill="url(#paint1_linear_28_372)"/>
<path d="M291.456 476.914C330.038 496.421 377.126 480.957 396.633 442.376C416.14 403.795 400.677 356.707 362.096 337.2C323.514 317.693 276.426 333.156 256.919 371.737C237.412 410.318 252.875 457.407 291.456 476.914ZM288.288 405.359C280.476 401.41 277.345 391.873 281.294 384.061C285.243 376.248 294.78 373.118 302.592 377.066C310.404 381.015 313.535 390.552 309.586 398.365C305.637 406.177 296.1 409.308 288.288 405.359Z" fill="#914F4E"/>
<path d="M383.014 461.536L517.061 529.31C519.289 530.434 521.936 530.343 524.078 529.066L537.188 521.257C539.165 520.079 540.391 518.089 540.672 515.934C528.456 502.698 412.324 451.986 407.98 441.549C406.435 437.837 406.17 432.214 410.801 423.495L403.99 420.051C409.541 387.131 393.455 353.055 362.098 337.2C323.517 317.693 276.429 333.156 256.922 371.737C237.415 410.318 252.878 457.407 291.459 476.914C322.816 492.769 359.795 485.519 383.018 461.536H383.014ZM302.592 377.066C310.404 381.015 313.535 390.552 309.586 398.365C305.637 406.177 296.1 409.308 288.288 405.359C280.475 401.41 277.345 391.873 281.294 384.061C285.242 376.248 294.78 373.118 302.592 377.066Z" fill="url(#paint2_linear_28_372)"/>
<path d="M298.387 463.203C329.396 478.881 367.244 466.454 382.922 435.445C398.601 404.436 386.173 366.587 355.164 350.909C324.155 335.231 286.307 347.659 270.628 378.668C254.95 409.677 267.378 447.525 298.387 463.203V463.203ZM288.284 405.358C280.472 401.409 277.341 391.872 281.29 384.06C285.239 376.248 294.776 373.117 302.588 377.066C310.401 381.015 313.531 390.552 309.582 398.364C305.634 406.176 296.096 409.307 288.284 405.358Z" fill="#1B6182"/>
<path d="M192.064 506.621C192.064 506.621 265.78 531.3 307.012 499.905C309.57 497.959 312.796 497.109 315.967 497.624L331.718 500.189C338.33 501.267 344.629 496.983 346.054 490.438C346.866 486.704 347.258 482.619 346.43 479.112L316.694 477.318L317.544 473.461C317.544 473.461 304.399 476.677 304.137 486.959C304.137 486.959 273.305 507.155 217.074 475.808C217.074 475.808 195.176 492.946 192.064 506.621Z" fill="#914F4E"/>
<path d="M761.429 137.046C759.714 136.977 758.377 135.527 758.45 133.811C758.586 130.476 758.58 127.086 758.431 123.734C758.355 122.038 759.654 120.6 761.341 120.493C761.36 120.493 761.382 120.493 761.401 120.49C763.116 120.414 764.569 121.744 764.645 123.459C764.803 126.988 764.809 130.555 764.664 134.067C764.598 135.672 763.324 136.942 761.758 137.043C761.65 137.049 761.54 137.053 761.429 137.046V137.046ZM756.586 107.471C755.983 104.173 755.231 100.869 754.353 97.6501C753.901 95.9947 754.877 94.2825 756.536 93.8308C758.201 93.3822 759.903 94.3584 760.355 96.0137C761.277 99.4002 762.07 102.878 762.705 106.35C763.015 108.04 761.897 109.661 760.207 109.97C760.083 109.992 759.96 110.008 759.84 110.015C758.289 110.112 756.874 109.038 756.586 107.471ZM748.964 82.2024C747.643 79.1287 746.174 76.077 744.595 73.1265C743.783 71.6133 744.354 69.7274 745.868 68.9155C747.381 68.1068 749.267 68.6754 750.079 70.1886C751.74 73.2939 753.288 76.5098 754.678 79.7447C755.357 81.3242 754.624 83.1501 753.048 83.8293C752.71 83.9746 752.363 84.0536 752.018 84.0757C750.742 84.1578 749.497 83.4407 748.964 82.1992V82.2024ZM735.882 59.2742C733.908 56.57 731.791 53.9228 729.596 51.3987C728.468 50.1035 728.604 48.1386 729.899 47.0108C731.194 45.883 733.159 46.0189 734.287 47.3141C736.599 49.9708 738.826 52.7571 740.905 55.6034C741.919 56.9902 741.616 58.9361 740.229 59.9502C739.733 60.3135 739.164 60.5062 738.592 60.5441C737.566 60.6104 736.533 60.165 735.882 59.2773V59.2742ZM718.018 39.8303C715.497 37.638 712.846 35.5214 710.142 33.5439C708.755 32.5298 708.455 30.5839 709.466 29.1971C710.48 27.8102 712.426 27.507 713.813 28.5242C716.659 30.606 719.449 32.8299 722.099 35.1392C723.394 36.267 723.533 38.2319 722.406 39.5271C721.837 40.181 721.057 40.538 720.257 40.5885C719.471 40.6391 718.662 40.3895 718.021 39.8303H718.018ZM696.296 24.8249C693.349 23.2423 690.297 21.767 687.227 20.4402C685.65 19.7579 684.924 17.9288 685.606 16.3524C686.288 14.7761 688.117 14.0495 689.694 14.7319C692.925 16.1281 696.138 17.6824 699.24 19.3472C700.754 20.1591 701.322 22.045 700.507 23.5582C699.98 24.5406 698.997 25.1251 697.961 25.1914C697.402 25.2262 696.827 25.1124 696.296 24.8281V24.8249ZM580.808 23.3781C580 21.8618 580.575 19.979 582.088 19.1703C585.193 17.515 588.412 15.9734 591.657 14.5865C593.236 13.9105 595.065 14.6466 595.738 16.2261C596.414 17.8056 595.678 19.6315 594.098 20.3075C591.018 21.6217 587.96 23.0875 585.013 24.6607C584.609 24.8755 584.179 24.9924 583.749 25.0208C582.571 25.0966 581.399 24.4901 580.805 23.3781H580.808ZM671.804 15.013C668.582 14.1253 665.281 13.3672 661.992 12.7606C660.302 12.4479 659.187 10.8241 659.5 9.13721C659.813 7.44713 661.433 6.34147 663.123 6.64473C666.586 7.28602 670.06 8.08209 673.456 9.01717C675.112 9.47207 676.085 11.1843 675.63 12.8427C675.27 14.1569 674.117 15.0414 672.828 15.1204C672.493 15.1425 672.149 15.1078 671.804 15.013V15.013ZM605.749 12.7543C605.3 11.0958 606.283 9.38994 607.941 8.94135C611.337 8.02208 614.819 7.23864 618.287 6.60999C619.977 6.29724 621.595 7.42502 621.901 9.1151C622.207 10.8052 621.086 12.4226 619.396 12.729C616.101 13.3261 612.79 14.0716 609.565 14.9435C609.36 15.0004 609.151 15.032 608.949 15.0446C607.502 15.1362 606.144 14.2043 605.752 12.7511L605.749 12.7543ZM645.739 10.9221C642.4 10.7799 639.013 10.7767 635.665 10.9189C633.95 10.9916 632.5 9.66161 632.427 7.9431C632.354 6.24986 633.653 4.81565 635.336 4.70825C635.359 4.70825 635.381 4.70825 635.403 4.70825C638.925 4.55661 642.492 4.55977 646.008 4.70825C647.723 4.78406 649.056 6.23406 648.98 7.94941C648.911 9.55104 647.641 10.821 646.074 10.9189C645.963 10.9252 645.853 10.9284 645.739 10.9221V10.9221Z" fill="#61B8E1"/>
<path d="M565.493 36.9969C566.103 36.959 566.709 36.7411 567.227 36.3304C568.482 35.3321 569.78 34.3465 571.085 33.3925C572.471 32.3816 572.778 30.4356 571.764 29.0457C570.753 27.6589 568.804 27.3524 567.417 28.3665C566.046 29.3679 564.681 30.404 563.361 31.4528C562.015 32.5206 561.791 34.4792 562.858 35.8218C563.516 36.6526 564.514 37.0538 565.496 36.9938L565.493 36.9969Z" fill="#61B8E1"/>
<path d="M520.152 120.278C521.649 120.183 522.9 119.015 523.048 117.47C523.2 115.875 523.39 114.254 523.611 112.655C523.844 110.953 522.654 109.383 520.954 109.149C519.245 108.915 517.681 110.106 517.447 111.806C517.217 113.489 517.018 115.195 516.857 116.876C516.692 118.585 517.947 120.104 519.656 120.269C519.823 120.285 519.99 120.288 520.152 120.275V120.278Z" fill="#61B8E1"/>
<path d="M642.157 253.055C640.438 253.08 639.026 251.706 639.001 249.988C638.976 248.269 640.347 246.86 642.065 246.835C645.335 246.788 648.655 246.601 651.966 246.279C653.665 246.108 655.197 247.366 655.362 249.075C655.529 250.784 654.278 252.306 652.566 252.471C651.132 252.61 649.698 252.727 648.27 252.815C646.232 252.945 644.172 253.024 642.151 253.055H642.157ZM665.549 247.378C665.155 245.707 666.188 244.033 667.859 243.635C671.068 242.874 674.278 241.97 677.402 240.947C679.032 240.406 680.792 241.3 681.326 242.934C681.86 244.564 680.972 246.323 679.339 246.857C676.05 247.934 672.67 248.888 669.293 249.688C669.119 249.729 668.942 249.754 668.769 249.767C667.284 249.861 665.903 248.876 665.549 247.378V247.378ZM625.234 252.136C621.8 251.713 618.335 251.138 614.939 250.421C613.258 250.067 612.181 248.418 612.535 246.737C612.888 245.056 614.538 243.982 616.218 244.333C619.443 245.012 622.732 245.559 625.992 245.96C627.698 246.172 628.908 247.723 628.699 249.429C628.513 250.935 627.278 252.057 625.812 252.152C625.623 252.164 625.427 252.158 625.231 252.136H625.234ZM690.891 239.054C690.136 237.51 690.777 235.649 692.322 234.894C695.282 233.45 698.214 231.861 701.038 230.174C702.513 229.293 704.421 229.773 705.303 231.248C706.184 232.724 705.704 234.632 704.229 235.513C701.253 237.292 698.167 238.963 695.052 240.485C694.676 240.669 694.281 240.77 693.886 240.795C692.667 240.874 691.463 240.22 690.891 239.054ZM598.644 245.805C595.391 244.636 592.14 243.313 588.984 241.869C587.424 241.155 586.735 239.31 587.449 237.75C588.163 236.186 590.008 235.5 591.571 236.214C594.569 237.585 597.656 238.843 600.748 239.952C602.366 240.533 603.206 242.314 602.625 243.929C602.192 245.132 601.093 245.906 599.892 245.982C599.482 246.007 599.058 245.954 598.644 245.805V245.805ZM574.089 233.798C571.161 231.943 568.277 229.941 565.519 227.852C564.151 226.813 563.879 224.864 564.919 223.496C565.958 222.125 567.907 221.857 569.275 222.896C571.897 224.883 574.639 226.785 577.419 228.547C578.869 229.467 579.302 231.387 578.382 232.841C577.826 233.716 576.91 234.218 575.95 234.278C575.318 234.319 574.667 234.167 574.089 233.801V233.798ZM552.734 216.723C550.28 214.272 547.898 211.691 545.661 209.05C544.549 207.739 544.713 205.777 546.024 204.665C547.335 203.553 549.297 203.717 550.409 205.028C552.535 207.537 554.797 209.988 557.128 212.319C558.345 213.533 558.348 215.504 557.132 216.717C556.576 217.276 555.858 217.579 555.129 217.623C554.27 217.677 553.391 217.377 552.734 216.72V216.723ZM535.612 195.397C533.752 192.468 531.995 189.426 530.39 186.355C529.594 184.833 530.185 182.953 531.708 182.157C533.227 181.364 535.11 181.952 535.903 183.474C537.426 186.39 539.094 189.278 540.863 192.057C541.785 193.507 541.355 195.428 539.905 196.351C539.447 196.641 538.942 196.799 538.437 196.831C537.34 196.9 536.241 196.385 535.612 195.393V195.397ZM523.589 170.816C522.423 167.559 521.381 164.207 520.49 160.856C520.048 159.194 521.037 157.491 522.698 157.052C524.354 156.613 526.063 157.599 526.502 159.26C527.345 162.445 528.337 165.629 529.446 168.722C530.024 170.339 529.184 172.118 527.566 172.699C527.285 172.8 526.998 172.857 526.713 172.876C525.364 172.961 524.066 172.152 523.589 170.819V170.816ZM517.262 144.223C516.946 141.693 516.702 139.122 516.541 136.582C516.484 135.662 516.434 134.743 516.396 133.827C516.323 132.112 517.634 130.63 519.375 130.592C521.09 130.52 522.54 131.853 522.613 133.571C522.651 134.443 522.695 135.315 522.749 136.19C522.904 138.607 523.131 141.049 523.431 143.456C523.646 145.158 522.436 146.716 520.73 146.928C520.667 146.934 520.601 146.943 520.537 146.946C518.91 147.051 517.464 145.869 517.258 144.227L517.262 144.223Z" fill="#61B8E1"/>
<path d="M716.466 226.466C717.082 226.428 717.695 226.204 718.213 225.79C719.527 224.735 720.841 223.635 722.124 222.517C723.419 221.389 723.552 219.424 722.424 218.129C721.293 216.834 719.331 216.698 718.036 217.829C716.817 218.891 715.569 219.936 714.321 220.938C712.982 222.012 712.767 223.97 713.841 225.31C714.501 226.131 715.49 226.529 716.466 226.469V226.466Z" fill="#61B8E1"/>
<path d="M722.342 173.473C722.702 172.968 722.705 172.292 722.342 171.786L712.094 157.362C715.244 149.723 717.196 141.526 717.755 133.044L733.301 124.622C733.847 124.325 734.144 123.718 734.043 123.105L730.571 102.171C730.47 101.558 729.99 101.078 729.38 100.976L711.949 98.0259C708.682 90.1757 704.187 83.0489 698.741 76.8351L703.783 59.8775C703.96 59.2836 703.738 58.6423 703.236 58.2822L685.978 45.9335C685.473 45.5734 684.797 45.5702 684.291 45.9335L669.867 56.1814C662.229 53.0318 654.031 51.0796 645.549 50.5204L637.127 34.9748C636.83 34.4283 636.224 34.1314 635.611 34.2325L614.676 37.7042C614.063 37.8053 613.583 38.2855 613.482 38.8952L610.531 56.3299C602.681 59.5963 595.554 64.0916 589.341 69.5378L572.383 64.496C571.789 64.3191 571.148 64.5402 570.788 65.0425L558.439 82.3002C558.079 82.8057 558.076 83.4817 558.439 83.9872L568.687 98.4113C565.537 106.05 563.585 114.244 563.026 122.73L547.48 131.151C546.934 131.445 546.637 132.055 546.738 132.668L550.21 153.603C550.311 154.216 550.791 154.696 551.401 154.797L568.832 157.747C572.099 165.598 576.594 172.724 582.04 178.938L576.998 195.896C576.821 196.49 577.042 197.131 577.545 197.491L594.803 209.84C595.308 210.2 595.984 210.203 596.489 209.84L610.914 199.592C618.552 202.741 626.747 204.694 635.232 205.253L643.654 220.798C643.947 221.342 644.557 221.642 645.17 221.541L666.105 218.069C666.718 217.968 667.198 217.488 667.299 216.878L670.25 199.447C678.1 196.18 685.227 191.685 691.44 186.239L708.398 191.28C708.992 191.457 709.633 191.236 709.993 190.734L722.342 173.476V173.473Z" fill="#A2D4EB"/>
<path d="M638.622 149.139C626.899 148.163 618.158 137.836 619.131 126.113C619.601 120.433 622.258 115.281 626.608 111.597C630.955 107.917 636.477 106.148 642.157 106.622C653.88 107.598 662.621 117.925 661.648 129.648C660.76 140.313 652.133 148.511 641.756 149.171C640.726 149.237 639.68 149.228 638.622 149.139V149.139ZM629.821 115.398C626.485 118.222 624.45 122.171 624.087 126.527C623.342 135.514 630.045 143.434 639.032 144.18C648.023 144.931 655.94 138.222 656.688 129.234C657.434 120.247 650.73 112.327 641.743 111.582C640.928 111.515 640.119 111.506 639.317 111.556C635.836 111.777 632.531 113.101 629.821 115.394V115.398Z" fill="#14475F"/>
<path d="M643.272 179.946C645.053 179.832 646.841 179.63 648.626 179.333C649.188 179.241 649.748 179.137 650.307 179.027C653.061 178.477 655.772 177.709 658.388 176.736C658.422 176.724 658.46 176.711 658.495 176.695C658.596 176.657 658.697 176.619 658.798 176.578C658.994 176.503 659.19 176.427 659.386 176.351C659.901 176.149 660.204 175.64 660.169 175.116C660.16 174.989 660.134 174.86 660.084 174.737C659.831 174.098 659.108 173.786 658.47 174.038C655.181 175.34 651.731 176.294 648.215 176.875C630.749 179.775 613.864 173.192 602.83 160.906C596.692 154.073 592.364 145.475 590.753 135.761C590.468 134.058 590.276 132.352 590.168 130.652C589.445 119.21 592.648 107.964 599.408 98.5156C607.173 87.6611 618.701 80.4807 631.867 78.2978C659.057 73.7898 684.825 92.2354 689.333 119.413C689.611 121.087 689.804 122.771 689.908 124.458C690.37 131.755 689.229 139.074 686.544 145.882C686.474 146.059 686.449 146.239 686.459 146.416C686.487 146.88 686.781 147.313 687.245 147.493C687.886 147.743 688.607 147.433 688.86 146.792C691.681 139.643 692.878 131.96 692.391 124.3C692.281 122.53 692.079 120.765 691.788 119.005C687.056 90.4695 659.986 71.111 631.463 75.84C617.642 78.1335 605.54 85.6709 597.387 97.0656C590.288 106.985 586.924 118.793 587.685 130.804C587.799 132.589 588.004 134.38 588.298 136.168C590.592 149.992 598.129 162.091 609.521 170.244C619.443 177.343 631.255 180.707 643.268 179.946H643.272Z" fill="#14475F"/>
<path d="M872.873 212.118C873.704 212.064 874.43 211.476 874.623 210.624C874.983 209.031 875.299 207.411 875.561 205.8C875.732 204.754 875.024 203.765 873.975 203.595C872.926 203.418 871.941 204.135 871.77 205.181C871.517 206.716 871.217 208.264 870.876 209.78C870.642 210.813 871.293 211.843 872.326 212.077C872.509 212.118 872.693 212.13 872.873 212.118Z" fill="#61B8E1"/>
<path d="M874.594 197.469C873.533 197.428 872.708 196.537 872.749 195.476C872.85 192.8 872.816 190.09 872.648 187.417C872.614 186.855 872.569 186.289 872.522 185.721C872.433 184.666 873.217 183.734 874.275 183.645C875.277 183.601 876.262 184.34 876.351 185.398C876.401 185.992 876.445 186.583 876.483 187.171C876.66 189.973 876.698 192.816 876.588 195.621C876.55 196.613 875.763 197.403 874.793 197.463C874.73 197.466 874.664 197.466 874.597 197.463L874.594 197.469ZM871.107 176.067C870.44 172.889 869.575 169.723 868.529 166.662C868.185 165.658 868.722 164.568 869.726 164.224C870.725 163.882 871.821 164.416 872.165 165.421C873.261 168.63 874.171 171.95 874.869 175.28C875.087 176.319 874.421 177.337 873.381 177.555C873.29 177.574 873.198 177.586 873.106 177.589C872.168 177.649 871.306 177.011 871.107 176.067ZM864.801 157.643C863.38 154.731 861.762 151.875 859.987 149.158C859.409 148.27 859.658 147.079 860.546 146.501C861.437 145.92 862.625 146.17 863.206 147.06C865.067 149.91 866.763 152.905 868.254 155.959C868.718 156.914 868.324 158.063 867.37 158.528C867.136 158.641 866.893 158.702 866.649 158.717C865.894 158.765 865.152 158.364 864.801 157.643ZM854.165 141.33C852.07 138.85 849.799 136.478 847.423 134.282C846.643 133.562 846.596 132.346 847.316 131.569C848.033 130.792 849.249 130.741 850.03 131.461C852.522 133.764 854.901 136.25 857.1 138.853C857.785 139.662 857.681 140.875 856.872 141.561C856.544 141.835 856.152 141.984 855.757 142.009C855.169 142.047 854.576 141.817 854.165 141.333V141.33ZM839.867 128.109C837.232 126.214 834.459 124.467 831.616 122.91C830.687 122.401 830.346 121.232 830.854 120.304C831.363 119.372 832.532 119.03 833.461 119.542C836.44 121.172 839.349 123.008 842.11 124.992C842.969 125.611 843.168 126.811 842.549 127.674C842.198 128.16 841.665 128.435 841.109 128.47C840.682 128.498 840.24 128.381 839.867 128.113V128.109ZM822.793 118.762C819.779 117.565 816.664 116.547 813.53 115.736C812.504 115.47 811.888 114.421 812.153 113.395C812.418 112.368 813.464 111.752 814.494 112.017C817.779 112.87 821.049 113.938 824.208 115.192C825.193 115.584 825.677 116.699 825.285 117.685C825.001 118.399 824.337 118.847 823.62 118.895C823.345 118.914 823.064 118.872 822.789 118.762H822.793ZM803.958 113.875C800.755 113.455 797.479 113.234 794.229 113.215C793.167 113.208 792.314 112.343 792.321 111.281C792.327 110.22 793.189 109.383 794.254 109.37C797.662 109.392 801.096 109.626 804.458 110.065C805.509 110.204 806.252 111.168 806.113 112.22C805.993 113.145 805.231 113.831 804.331 113.888C804.208 113.894 804.085 113.891 803.958 113.875V113.875ZM772.564 114.071C772.311 113.041 772.943 112.002 773.976 111.749C776.829 111.054 779.77 110.501 782.708 110.109C783.153 110.046 783.598 109.992 784.044 109.939C785.09 109.787 786.053 110.571 786.173 111.626C786.296 112.681 785.541 113.632 784.486 113.755C784.069 113.802 783.649 113.856 783.223 113.913C780.411 114.286 777.606 114.813 774.886 115.477C774.775 115.505 774.662 115.521 774.551 115.527C773.638 115.584 772.788 114.984 772.564 114.064V114.071Z" fill="#61B8E1"/>
<path d="M797.777 275.219C794.435 275.386 791.051 275.351 787.722 275.118C786.663 275.042 785.867 274.126 785.94 273.064C786.016 272.006 786.941 271.219 787.993 271.283C791.168 271.507 794.393 271.538 797.584 271.377C798.642 271.324 799.546 272.139 799.6 273.2C799.653 274.252 798.851 275.149 797.802 275.216C797.792 275.216 797.783 275.216 797.777 275.216V275.219ZM805.557 272.54C805.377 271.494 806.079 270.502 807.124 270.322C810.271 269.782 813.414 269.043 816.469 268.13C817.48 267.83 818.557 268.405 818.86 269.422C819.163 270.439 818.585 271.507 817.571 271.813C814.368 272.77 811.073 273.544 807.778 274.11C807.709 274.123 807.639 274.129 807.57 274.135C806.603 274.195 805.725 273.522 805.557 272.543V272.54ZM777.745 273.794C774.457 273.15 771.181 272.3 768.009 271.267C767.001 270.938 766.449 269.851 766.777 268.844C767.106 267.833 768.186 267.286 769.197 267.612C772.223 268.597 775.348 269.409 778.485 270.025C779.527 270.231 780.203 271.238 780.001 272.278C779.83 273.153 779.088 273.772 778.238 273.826C778.077 273.835 777.913 273.826 777.745 273.794V273.794ZM824.49 267.353C824.063 266.383 824.505 265.249 825.478 264.822C828.4 263.54 831.272 262.068 834.014 260.441C834.927 259.901 836.105 260.204 836.645 261.11C837.186 262.023 836.886 263.202 835.973 263.742C833.098 265.448 830.084 266.996 827.02 268.338C826.808 268.43 826.587 268.484 826.369 268.496C825.586 268.547 824.821 268.111 824.49 267.35V267.353ZM758.658 267.574C755.629 266.162 752.656 264.548 749.82 262.778C748.919 262.216 748.644 261.032 749.207 260.131C749.769 259.231 750.954 258.953 751.854 259.518C754.561 261.208 757.395 262.747 760.285 264.093C761.246 264.541 761.663 265.685 761.214 266.645C760.908 267.305 760.273 267.707 759.594 267.751C759.284 267.77 758.965 267.716 758.662 267.574H758.658ZM741.619 256.953C739.012 254.852 736.507 252.572 734.179 250.18C733.44 249.422 733.456 248.206 734.214 247.467C734.972 246.727 736.188 246.743 736.931 247.501C739.151 249.782 741.54 251.956 744.029 253.962C744.853 254.628 744.983 255.838 744.32 256.663C743.969 257.099 743.464 257.342 742.945 257.373C742.484 257.402 742.007 257.266 741.619 256.953ZM727.612 242.557C725.58 239.891 723.697 237.077 722.014 234.196C721.477 233.279 721.786 232.104 722.702 231.567C723.618 231.03 724.794 231.343 725.331 232.256C726.935 235.004 728.733 237.689 730.67 240.229C731.311 241.073 731.15 242.28 730.303 242.921C729.99 243.161 729.627 243.287 729.264 243.309C728.645 243.347 728.016 243.088 727.612 242.557V242.557Z" fill="#61B8E1"/>
<path d="M843.321 258.435C843.69 258.413 844.057 258.28 844.373 258.037C845.674 257.033 846.95 255.984 848.17 254.919C848.969 254.221 849.051 253.008 848.356 252.209C847.658 251.413 846.445 251.327 845.646 252.022C844.483 253.036 843.267 254.038 842.025 254.995C841.185 255.643 841.033 256.853 841.681 257.69C842.085 258.214 842.708 258.47 843.324 258.432L843.321 258.435Z" fill="#61B8E1"/>
<path d="M848.419 222.223C848.659 221.885 848.662 221.433 848.419 221.092L841.563 211.441C843.67 206.33 844.978 200.846 845.351 195.169L855.754 189.534C856.12 189.335 856.319 188.927 856.25 188.52L853.928 174.509C853.862 174.099 853.539 173.779 853.132 173.71L841.466 171.736C839.279 166.482 836.272 161.715 832.627 157.555L836 146.207C836.117 145.809 835.972 145.38 835.634 145.14L824.085 136.876C823.747 136.636 823.295 136.632 822.954 136.876L813.303 143.731C808.191 141.624 802.707 140.316 797.031 139.943L791.395 129.54C791.196 129.174 790.788 128.975 790.381 129.044L776.371 131.366C775.96 131.436 775.641 131.755 775.571 132.162L773.597 143.829C768.343 146.015 763.576 149.022 759.416 152.668L748.069 149.294C747.671 149.177 747.241 149.322 747.001 149.66L738.737 161.21C738.497 161.548 738.494 161.999 738.737 162.337L745.592 171.988C743.485 177.1 742.177 182.584 741.804 188.26L731.402 193.896C731.035 194.092 730.836 194.5 730.906 194.91L733.228 208.921C733.297 209.331 733.616 209.65 734.024 209.72L745.69 211.694C747.876 216.948 750.883 221.715 754.529 225.875L751.155 237.222C751.038 237.62 751.184 238.05 751.522 238.29L763.071 246.554C763.409 246.794 763.861 246.797 764.202 246.554L773.853 239.699C778.964 241.806 784.448 243.114 790.125 243.487L795.761 253.889C795.96 254.253 796.367 254.455 796.775 254.385L810.785 252.063C811.196 251.994 811.515 251.675 811.584 251.267L813.559 239.601C818.812 237.415 823.579 234.408 827.739 230.762L839.087 234.136C839.485 234.253 839.914 234.107 840.154 233.769L848.419 222.22V222.223Z" fill="#A2D4EB"/>
<path d="M792.378 206.194C788.508 205.875 784.998 204.065 782.49 201.102C779.981 198.142 778.778 194.38 779.1 190.51C779.764 182.527 786.789 176.582 794.785 177.232C802.771 177.899 808.726 184.934 808.059 192.917C807.737 196.784 805.93 200.296 802.967 202.805C800.559 204.842 797.622 206.021 794.529 206.216C793.818 206.261 793.098 206.254 792.374 206.194H792.378ZM782.929 190.829C782.692 193.675 783.576 196.442 785.421 198.622C787.266 200.799 789.85 202.132 792.693 202.369C795.54 202.602 798.304 201.718 800.487 199.873C802.666 198.031 803.996 195.444 804.233 192.601C804.723 186.728 800.341 181.554 794.469 181.064C793.938 181.02 793.414 181.017 792.899 181.048C787.699 181.377 783.374 185.487 782.929 190.829V190.829Z" fill="#14475F"/>
<path d="M795.613 227.638C796.826 227.563 798.045 227.42 799.268 227.221C801.697 226.82 804.091 226.169 806.382 225.288C806.486 225.247 806.587 225.206 806.691 225.168C807.484 224.855 807.955 224.072 807.904 223.263C807.892 223.067 807.848 222.868 807.772 222.675C807.383 221.69 806.265 221.21 805.279 221.598C803.147 222.442 800.913 223.061 798.642 223.434C798.519 223.456 798.393 223.475 798.269 223.494C792.886 224.334 787.497 223.8 782.499 222.012C779.786 221.042 777.189 219.7 774.769 218C774.75 217.988 774.731 217.972 774.709 217.959C774.649 217.915 774.589 217.874 774.529 217.833C767.504 212.804 762.853 205.342 761.441 196.819C761.258 195.716 761.132 194.614 761.062 193.511C760.592 186.103 762.667 178.822 767.046 172.706C772.075 165.68 779.536 161.033 788.059 159.621C796.576 158.212 805.147 160.199 812.172 165.225C819.198 170.255 823.848 177.716 825.26 186.239C825.44 187.323 825.563 188.413 825.633 189.503C825.933 194.228 825.194 198.964 823.456 203.371C823.349 203.642 823.308 203.923 823.327 204.195C823.371 204.915 823.823 205.579 824.54 205.86C825.529 206.245 826.641 205.765 827.032 204.776C828.978 199.845 829.803 194.544 829.471 189.259C829.392 188.04 829.256 186.821 829.054 185.607C827.471 176.07 822.272 167.721 814.409 162.098C806.549 156.475 796.971 154.241 787.434 155.83C777.897 157.41 769.551 162.61 763.924 170.473C759.028 177.315 756.706 185.462 757.23 193.748C757.309 194.977 757.448 196.212 757.654 197.447C760.718 215.909 777.328 228.807 795.619 227.645L795.613 227.638Z" fill="#14475F"/>
</g>
<defs>
<linearGradient id="paint0_linear_28_372" x1="207.435" y1="226.828" x2="468.38" y2="571.313" gradientUnits="userSpaceOnUse">
<stop stop-color="#14475F"/>
<stop offset="1" stop-color="#1B6182"/>
</linearGradient>
<linearGradient id="paint1_linear_28_372" x1="486.575" y1="287.746" x2="438.094" y2="525.529" gradientUnits="userSpaceOnUse">
<stop stop-color="#56AFDD"/>
<stop offset="1" stop-color="#1B6182"/>
</linearGradient>
<linearGradient id="paint2_linear_28_372" x1="421.975" y1="384.727" x2="520.963" y2="133.05" gradientUnits="userSpaceOnUse">
<stop stop-color="#56AFDD"/>
<stop offset="1" stop-color="#1B6182"/>
</linearGradient>
<clipPath id="clip0_28_372">
<rect width="877" height="877" fill="white"/>
</clipPath>
</defs>
</svg>
