<svg width="501" height="373" viewBox="0 0 501 373" fill="none" xmlns="http://www.w3.org/2000/svg">
<g clip-path="url(#clip0_29_636)">
<path d="M500.553 327.45H0.552734V327.7H500.553V327.45Z" fill="#E6E6E6"/>
<path d="M125.373 342.58H92.2529V342.83H125.373V342.58Z" fill="#E6E6E6"/>
<path d="M81.7725 342.58H62.5825V342.83H81.7725V342.58Z" fill="#E6E6E6"/>
<path d="M211.103 346.26H191.913V346.51H211.103V346.26Z" fill="#E6E6E6"/>
<path d="M311.163 351.84H267.973V352.09H311.163V351.84Z" fill="#E6E6E6"/>
<path d="M259.073 351.84H252.743V352.09H259.073V351.84Z" fill="#E6E6E6"/>
<path d="M453.903 346.26H360.223V346.51H453.903V346.26Z" fill="#E6E6E6"/>
<path d="M237.563 282.85H44.4629C41.3129 282.85 38.7529 280.29 38.7529 277.14V5.71C38.7529 2.56 41.3129 0 44.4629 0H237.563C240.713 0 243.273 2.56 243.273 5.71V277.14C243.273 280.29 240.713 282.85 237.563 282.85V282.85ZM44.4629 0.25C41.4529 0.25 39.0029 2.7 39.0029 5.71V277.14C39.0029 280.15 41.4529 282.6 44.4629 282.6H237.563C240.573 282.6 243.023 280.15 243.023 277.14V5.71C243.023 2.7 240.573 0.25 237.563 0.25H44.4629Z" fill="#E6E6E6"/>
<path d="M453.863 282.85H260.763C257.613 282.85 255.053 280.29 255.053 277.14V5.71C255.053 2.56 257.613 0 260.763 0H453.863C457.013 0 459.573 2.56 459.573 5.71V277.14C459.573 280.29 457.013 282.85 453.863 282.85V282.85ZM260.763 0.25C257.753 0.25 255.303 2.7 255.303 5.71V277.14C255.303 280.15 257.753 282.6 260.763 282.6H453.863C456.873 282.6 459.323 280.15 459.323 277.14V5.71C459.323 2.7 456.873 0.25 453.863 0.25H260.763V0.25Z" fill="#E6E6E6"/>
<path d="M267.952 242.02H245.962V329.25H267.952V242.02Z" fill="#E0E0E0"/>
<path d="M263.773 329.26H267.953V317.38H259.393L263.773 329.26Z" fill="#FAFAFA"/>
<path d="M171.593 242.02H149.603V329.25H171.593V242.02Z" fill="#E0E0E0"/>
<path d="M267.953 242.02H167.953V321.96H267.953V242.02Z" fill="#FAFAFA"/>
<path d="M264.322 245.95V267.1H171.572V245.95H264.322M264.712 245.56H171.192V267.48H264.712V245.56V245.56Z" fill="#E0E0E0"/>
<path d="M172.133 329.26H167.953V317.38H176.503L172.133 329.26Z" fill="#FAFAFA"/>
<path d="M215.743 256.53C215.743 257.75 216.733 258.74 217.953 258.74C219.173 258.74 220.163 257.75 220.163 256.53C220.163 255.31 219.173 254.32 217.953 254.32C216.733 254.32 215.743 255.31 215.743 256.53Z" fill="#E6E6E6"/>
<path d="M264.322 271.42V292.57H171.572V271.42H264.322ZM264.712 271.03H171.192V292.95H264.712V271.03Z" fill="#E0E0E0"/>
<path d="M215.743 282C215.743 283.22 216.733 284.21 217.953 284.21C219.173 284.21 220.163 283.22 220.163 282C220.163 280.78 219.173 279.79 217.953 279.79C216.733 279.79 215.743 280.78 215.743 282Z" fill="#E6E6E6"/>
<path d="M264.322 296.89V318.04H171.572V296.89H264.322ZM264.712 296.5H171.192V318.42H264.712V296.5Z" fill="#E0E0E0"/>
<path d="M215.743 307.46C215.743 308.68 216.733 309.67 217.953 309.67C219.173 309.67 220.163 308.68 220.163 307.46C220.163 306.24 219.173 305.25 217.953 305.25C216.733 305.25 215.743 306.24 215.743 307.46Z" fill="#E6E6E6"/>
<path d="M158.163 191.36H136.173V329.26H158.163V191.36Z" fill="#E0E0E0"/>
<path d="M153.983 329.26H158.163V317.38H149.603L153.983 329.26Z" fill="#FAFAFA"/>
<path d="M75.9827 191.36H53.9927V329.26H75.9827V191.36Z" fill="#E0E0E0"/>
<path d="M158.163 191.36H72.3325V321.97H158.163V191.36Z" fill="#FAFAFA"/>
<path d="M154.463 195.06V224.63H76.0328V195.06H154.473M154.933 194.6H75.5728V225.08H154.923V194.6H154.933Z" fill="#E0E0E0"/>
<path d="M154.463 228.23V306.67H117.103V228.23H154.463M154.923 227.77H116.653V307.12H154.923V227.77Z" fill="#E0E0E0"/>
<path d="M113.393 228.23V306.67H76.0325V228.23H113.393M113.853 227.77H75.5825V307.12H113.853V227.77V227.77Z" fill="#E0E0E0"/>
<path d="M76.5125 329.26H72.3325V317.38H80.8925L76.5125 329.26Z" fill="#FAFAFA"/>
<path d="M113.033 209.85C113.033 211.07 114.023 212.06 115.243 212.06C116.463 212.06 117.453 211.07 117.453 209.85C117.453 208.63 116.463 207.64 115.243 207.64C114.023 207.64 113.033 208.63 113.033 209.85Z" fill="#E6E6E6"/>
<path d="M120.953 265.57C120.953 266.79 121.943 267.78 123.163 267.78C124.383 267.78 125.373 266.79 125.373 265.57C125.373 264.35 124.383 263.36 123.163 263.36C121.943 263.36 120.953 264.35 120.953 265.57Z" fill="#E6E6E6"/>
<path d="M105.123 265.57C105.123 266.79 106.113 267.78 107.333 267.78C108.553 267.78 109.543 266.79 109.543 265.57C109.543 264.35 108.553 263.36 107.333 263.36C106.113 263.36 105.123 264.35 105.123 265.57Z" fill="#E6E6E6"/>
<path d="M102.623 152.92H93.3428C93.3428 152.92 94.9528 161.49 94.9528 166.54C94.9528 171.59 87.8928 191.37 97.9828 191.37C108.073 191.37 101.013 171.59 101.013 166.54C101.013 161.49 102.623 152.92 102.623 152.92V152.92Z" fill="#E0E0E0"/>
<path d="M67.3525 173.2V179.23C67.3525 185.91 72.8125 191.37 79.4925 191.37H85.5225C92.2025 191.37 97.6625 185.91 97.6625 179.23V173.2H67.3525V173.2Z" fill="#F5F5F5"/>
<path d="M196.223 229.31C196.223 236.3 204.053 242.02 213.623 242.02H222.263C231.833 242.02 239.663 236.3 239.663 229.31H196.223Z" fill="#E0E0E0"/>
<path d="M425.163 219.08C419.923 223.36 412.693 231.19 406.063 242.21C401.653 249.55 398.993 257.24 397.823 267.4C397.853 255.9 397.883 243.55 397.923 231.89C399.253 228.89 402.293 221.97 404.473 216.51C411.753 198.28 414.463 193.8 421.003 178.07C429.733 157.1 438.673 132.21 436.113 134.2C430.893 138.25 410.893 175.7 408.733 181.06C401.293 199.5 399.223 212.94 397.943 225.91C397.983 214.96 398.023 204.9 398.063 197.14C398.193 171.83 398.623 163.66 398.833 161.14C399.643 159.86 400.593 158.37 401.153 157.56C405.853 150.77 407.663 144.98 412.093 134.85C418.363 120.49 423.773 94.9998 422.193 96.2898C415.613 101.64 410.433 113.15 403.613 127.82C396.793 142.48 398.743 150.92 397.393 163.44C397.113 165.9 396.893 175.17 396.733 188.03C394.963 174.33 391.653 165.31 385.603 157.11C378.163 147.02 370.963 140.21 365.683 136.65C360.403 133.09 374.803 157.87 381.693 168.68C387.823 178.31 393.473 186.81 396.663 195.18C396.493 212.6 396.413 234.66 396.413 255.2C394.833 245.85 392.253 235.79 388.813 228C384.673 218.64 378.313 204.28 373.253 199.4C372.033 198.23 378.553 226.16 382.733 233.59C386.913 241.02 389.983 248.02 392.613 252.23C393.223 253.21 395.263 257 396.423 259.18C396.433 284.25 396.563 306.37 396.783 313.9H397.863C397.793 311.96 397.773 299.2 397.803 282.32C400.413 273.16 406.373 262.7 411.303 253.16C416.673 242.75 430.413 214.8 425.173 219.08H425.163Z" fill="#E0E0E0"/>
<path d="M412.993 329.26H381.653L379.283 298.54H415.363L412.993 329.26Z" fill="#F0F0F0"/>
<path d="M417.693 302.12H376.953L375.783 291.75H418.863L417.693 302.12Z" fill="#F5F5F5"/>
<path d="M124.813 20.54H68.7627V82.09H124.813V20.54Z" fill="#E0E0E0"/>
<path d="M130.883 20.54H72.9829V82.09H130.883V20.54Z" fill="#F5F5F5"/>
<path d="M126.033 77.2499V25.3999L77.8327 25.3999V77.2499H126.033Z" fill="white"/>
<path d="M114.353 64.67V37.96H89.5225V64.67H114.353Z" fill="#F5F5F5"/>
<path d="M410.603 27.7202H358.533V84.9002H410.603V27.7202Z" fill="#E0E0E0"/>
<path d="M416.243 27.7202H362.463V84.9002H416.243V27.7202Z" fill="#F5F5F5"/>
<path d="M411.743 80.39V32.23H366.973V80.39H411.743Z" fill="white"/>
<path d="M389.353 70.2803C397.068 70.2803 403.323 64.0258 403.323 56.3103C403.323 48.5949 397.068 42.3403 389.353 42.3403C381.637 42.3403 375.383 48.5949 375.383 56.3103C375.383 64.0258 381.637 70.2803 389.353 70.2803Z" fill="#F5F5F5"/>
<path d="M183.043 57.2402H141.463V102.9H183.043V57.2402Z" fill="#E0E0E0"/>
<path d="M187.543 57.2402H144.593V102.9H187.543V57.2402Z" fill="#F5F5F5"/>
<path d="M183.943 99.3003V60.8403H148.193V99.3003H183.943Z" fill="white"/>
<path d="M166.073 70.3501L156.293 87.2901H175.853L166.073 70.3501Z" fill="#F5F5F5"/>
<path d="M250.553 372.61C357.635 372.61 444.443 367.542 444.443 361.29C444.443 355.038 357.635 349.97 250.553 349.97C143.47 349.97 56.6626 355.038 56.6626 361.29C56.6626 367.542 143.47 372.61 250.553 372.61Z" fill="#F5F5F5"/>
<path d="M349.802 108.48L339.882 104.46C339.882 104.46 326.792 128.33 323.042 129.54C317.942 131.18 307.392 135.74 301.122 136.59C300.272 137.58 298.882 140.69 299.012 141.83C307.422 144.63 325.902 140.91 329.862 137.97C338.882 131.27 349.802 108.48 349.802 108.48V108.48Z" fill="#914F4E"/>
<path d="M352.853 103.06C354.703 109.9 344.683 123.64 344.683 123.64L331.523 116.26C331.523 116.26 333.973 110.61 336.983 104.86C341.833 95.5701 350.753 95.2601 352.863 103.06H352.853Z" fill="#14475F"/>
<path opacity="0.2" d="M352.853 103.06C354.703 109.9 344.683 123.64 344.683 123.64L331.523 116.26C331.523 116.26 333.973 110.61 336.983 104.86C341.833 95.5701 350.753 95.2601 352.863 103.06H352.853Z" fill="black"/>
<path opacity="0.2" d="M336.763 119.2L341.933 122.1L342.833 106.23C339.833 108.54 337.703 115.5 336.763 119.2Z" fill="black"/>
<path d="M344.213 97.9101C344.213 97.9101 333.993 120.65 339.953 162.99H380.223C380.863 156.81 378.743 126.65 386.413 97.5301C386.413 97.5301 379.593 96.1401 373.033 95.8301C367.903 95.5801 360.463 95.4201 355.913 95.8301C349.913 96.3701 344.213 97.9201 344.213 97.9201V97.9101Z" fill="#14475F"/>
<path opacity="0.2" d="M344.213 97.9101C344.213 97.9101 333.993 120.65 339.953 162.99H380.223C380.863 156.81 378.743 126.65 386.413 97.5301C386.413 97.5301 379.593 96.1401 373.033 95.8301C367.903 95.5801 360.463 95.4201 355.913 95.8301C349.913 96.3701 344.213 97.9201 344.213 97.9201V97.9101Z" fill="black"/>
<g style="mix-blend-mode:multiply">
<path d="M334.873 362.19C334.813 363.26 350.083 364.13 368.973 364.13C387.863 364.13 403.243 363.26 403.303 362.19C403.363 361.12 388.103 360.25 369.203 360.25C350.303 360.25 334.933 361.12 334.873 362.19Z" fill="#E8ECF1"/>
</g>
<path d="M362.714 335.225L355.548 337.986L361.692 353.933L368.858 351.172L362.714 335.225Z" fill="#914F4E"/>
<path d="M393.603 354.5H386.073L383.313 337.07H390.843L393.603 354.5Z" fill="#914F4E"/>
<path d="M385.593 353.63H394.053C394.363 353.63 394.613 353.84 394.663 354.14L395.753 360.83C395.863 361.52 395.283 362.18 394.573 362.17C391.623 362.12 390.203 361.95 386.483 361.95C384.193 361.95 379.463 362.19 376.303 362.19C373.143 362.19 372.913 359.07 374.223 358.78C380.103 357.51 382.383 355.76 384.343 354.09C384.693 353.79 385.143 353.63 385.593 353.63V353.63Z" fill="#263238"/>
<path d="M360.523 350.99L368.543 348.66C368.843 348.57 369.153 348.7 369.283 348.97L372.253 354.97C372.563 355.59 372.193 356.37 371.503 356.56C368.603 357.35 366.643 357.85 363.003 358.91C360.493 359.64 357.933 360.83 355.453 361.62C353.733 362.17 349.693 362.19 347.603 362.19C344.513 362.19 343.823 358.93 345.143 358.78C348.493 358.4 348.943 358.58 350.793 357.65C353.853 356.12 356.223 354.84 358.873 352.07C359.333 351.59 359.873 351.18 360.513 350.99H360.523Z" fill="#263238"/>
<path d="M302.383 136.52L294.103 133.03L290.693 142.21C290.693 142.21 295.473 143.08 300.933 142.21L302.383 136.52Z" fill="#914F4E"/>
<path d="M287.943 132.81L287.723 138.91L290.693 142.21L294.103 133.03L287.943 132.81Z" fill="#914F4E"/>
<path d="M362.732 335.17L355.568 337.937L358.741 346.155L365.905 343.389L362.732 335.17Z" fill="#653F3E"/>
<path d="M390.842 337.07H383.312L384.742 346.06H392.272L390.842 337.07Z" fill="#653F3E"/>
<path opacity="0.2" d="M338.673 151.53C338.813 153.34 338.993 155.19 339.203 157.09L369.143 147.37C373.823 145.97 377.883 143.03 380.663 139.02C380.773 136.35 380.933 133.54 381.153 130.61C381.253 129.18 381.383 127.72 381.513 126.24C381.653 124.7 381.823 123.13 382.003 121.54L338.663 151.53H338.673Z" fill="black"/>
<path d="M348.453 118.74L347.433 118.62C348.023 113.63 351.753 109.69 355.683 109.78L355.653 110.81C352.253 110.71 348.983 114.27 348.453 118.74V118.74Z" fill="white"/>
<path d="M353.783 127.97C353.723 127.97 353.673 127.97 353.613 127.97L353.643 126.94C357.083 127.07 360.313 123.48 360.843 119.01L361.863 119.13C361.273 124.05 357.673 127.97 353.773 127.97H353.783Z" fill="white"/>
<path d="M372.473 76.54C371.073 82.05 369.403 92.14 373.043 95.82C373.043 95.82 370.503 101.41 360.263 101.41C350.913 101.41 355.923 95.82 355.923 95.82C362.153 94.35 362.263 89.8 361.443 85.52L372.473 76.55V76.54Z" fill="#914F4E"/>
<path d="M367.973 80.2104L361.443 85.5204C361.643 86.5304 361.783 87.5604 361.793 88.5604C363.703 90.4604 367.533 85.6505 367.923 83.1905C368.123 81.9605 368.133 80.7905 367.973 80.2205V80.2104Z" fill="#653F3E"/>
<path d="M350.213 76.4805C351.173 78.1905 352.863 79.2605 354.453 79.6205C356.853 80.1505 358.063 77.9505 357.403 75.7205C356.803 73.7205 354.843 71.0305 352.423 71.4905C350.043 71.9405 349.113 74.5205 350.213 76.4805V76.4805Z" fill="#653F3E"/>
<path d="M354.183 58.8503C350.443 60.5603 349.123 75.4203 353.823 77.6203C358.523 79.8203 361.263 55.6103 354.183 58.8503V58.8503Z" fill="#263238"/>
<path d="M373.613 68.2605C372.713 75.7205 372.573 80.1105 368.583 83.9305C362.583 89.6905 353.573 86.2705 352.233 78.8305C351.023 72.1305 352.693 61.0605 360.163 58.0905C367.523 55.1705 374.513 60.8005 373.613 68.2605V68.2605Z" fill="#914F4E"/>
<path d="M361.323 62.7102C366.853 61.2902 370.923 60.3302 369.473 64.9502C367.533 71.1002 365.213 77.0602 368.333 77.3402C370.223 77.5102 378.633 73.9402 377.563 70.3402C376.633 67.2002 380.543 66.3502 381.263 64.7502C383.853 58.9802 376.443 59.7302 377.763 56.2402C379.043 52.8402 371.793 47.1002 367.773 49.9102C361.263 54.4502 350.093 54.3902 355.963 46.9402C360.173 41.6102 352.663 42.7002 352.663 42.7002C352.663 42.7002 357.203 45.3902 349.563 49.5502C341.473 53.9602 348.883 65.8902 361.323 62.7102V62.7102Z" fill="#263238"/>
<path d="M376.503 76.4805C375.343 78.1905 373.533 79.2605 371.893 79.6205C369.433 80.1505 368.483 77.9505 369.403 75.7205C370.233 73.7205 372.513 71.0305 374.873 71.4905C377.193 71.9405 377.823 74.5205 376.503 76.4805V76.4805Z" fill="#914F4E"/>
<path d="M339.953 162.99C339.953 162.99 333.193 223.49 332.663 246.45C332.113 270.33 355.573 344.84 355.573 344.84L367.583 339.8C367.583 339.8 353.603 271.73 355.543 248.27C357.663 222.7 366.423 162.99 366.423 162.99H339.953V162.99Z" fill="#14475F"/>
<path opacity="0.2" d="M356.753 179.6C351.373 190.78 354.993 212.88 357.913 225.99C359.023 216.74 360.343 206.7 361.593 197.41C361.473 183.13 360.363 172.1 356.753 179.6V179.6Z" fill="black"/>
<path d="M367.043 335.87C367.103 335.85 368.463 339.7 368.463 339.7L354.623 345.51L352.443 341.45L367.043 335.86V335.87Z" fill="#14475F"/>
<path d="M354.243 162.99C354.243 162.99 359.413 220.53 362.843 242.08C366.593 265.69 381.343 344.32 381.343 344.32H395.133C395.133 344.32 386.873 267.6 385.313 244.22C383.623 218.85 380.243 162.99 380.243 162.99H354.263H354.243Z" fill="#14475F"/>
<path d="M395.333 340.72C395.393 340.72 395.793 344.57 395.793 344.57H380.633L379.553 340.15L395.333 340.72V340.72Z" fill="#14475F"/>
<path opacity="0.2" d="M390.053 336.17C389.983 336.17 389.933 336.12 389.923 336.06C389.843 335.36 382.393 266.09 380.993 245.1C379.473 222.31 376.413 171.79 376.383 171.28C376.383 171.21 376.433 171.15 376.503 171.14C376.573 171.14 376.623 171.19 376.633 171.26C376.663 171.77 379.723 222.29 381.243 245.08C382.643 266.07 390.093 335.34 390.173 336.03C390.173 336.1 390.133 336.16 390.063 336.17H390.053Z" fill="black"/>
<path d="M362.173 70.3402C362.133 70.9502 361.783 71.4402 361.393 71.4402C361.003 71.4402 360.703 70.9502 360.743 70.3402C360.783 69.7302 361.133 69.2402 361.523 69.2402C361.913 69.2402 362.213 69.7302 362.173 70.3402Z" fill="#263238"/>
<path d="M355.313 70.3402C355.273 70.9502 354.923 71.4402 354.533 71.4402C354.143 71.4402 353.843 70.9502 353.883 70.3402C353.923 69.7302 354.273 69.2402 354.663 69.2402C355.053 69.2402 355.353 69.7302 355.313 70.3402Z" fill="#263238"/>
<path d="M357.473 70.6404C357.473 70.6404 355.883 74.1404 354.263 75.8304C355.283 76.8304 357.133 76.3704 357.133 76.3704L357.473 70.6304V70.6404Z" fill="#643837"/>
<path d="M357.653 78.9301C357.553 78.9301 357.483 78.8501 357.483 78.7501C357.483 78.6501 357.573 78.5701 357.673 78.5701C360.343 78.5701 361.693 76.7101 361.703 76.6901C361.763 76.6101 361.873 76.5801 361.953 76.6401C362.033 76.6901 362.053 76.8001 361.993 76.8901C361.933 76.9701 360.513 78.9301 357.653 78.9301Z" fill="#263238"/>
<path d="M363.393 68.4904C363.293 68.5304 363.173 68.5204 363.083 68.4604C361.773 67.6304 360.543 68.1904 360.533 68.1904C360.363 68.2804 360.143 68.2004 360.063 68.0204C359.993 67.8404 360.073 67.6304 360.263 67.5404C360.323 67.5104 361.863 66.8104 363.483 67.8404C363.643 67.9404 363.683 68.1604 363.573 68.3304C363.523 68.4004 363.463 68.4504 363.393 68.4804V68.4904Z" fill="#263238"/>
<path d="M352.663 66.5003C352.663 66.5003 352.563 66.4603 352.523 66.4203C352.383 66.2903 352.383 66.0603 352.523 65.9203C353.923 64.4503 355.533 64.6703 355.603 64.6803C355.793 64.7003 355.923 64.8903 355.883 65.0903C355.843 65.2803 355.653 65.4203 355.463 65.3903C355.413 65.3903 354.143 65.2203 353.033 66.4003C352.933 66.5103 352.793 66.5403 352.663 66.5103V66.5003Z" fill="#263238"/>
<path d="M390.283 107.36L379.883 104.59C379.883 104.59 369.683 129.7 366.083 131.34C361.183 133.57 348.763 141.29 343.493 145.01C343.203 146.25 343.433 149.57 344.093 150.47C353.063 148.84 370.323 142.2 373.923 138.83C382.133 131.14 390.293 107.36 390.293 107.36H390.283Z" fill="#914F4E"/>
<path d="M383.023 354.94C382.453 354.94 381.923 354.84 381.593 354.56C381.333 354.33 381.233 354.02 381.283 353.62C381.323 353.32 381.483 353.18 381.613 353.12C382.463 352.69 384.813 354.18 385.073 354.36C385.133 354.4 385.163 354.47 385.143 354.54C385.123 354.61 385.073 354.67 385.003 354.68C384.473 354.81 383.713 354.95 383.013 354.95L383.023 354.94ZM381.993 353.38C381.903 353.38 381.823 353.39 381.763 353.42C381.713 353.45 381.653 353.49 381.643 353.63C381.613 353.91 381.673 354.13 381.843 354.28C382.233 354.63 383.213 354.67 384.503 354.42C383.683 353.93 382.573 353.38 381.993 353.38V353.38Z" fill="#14475F"/>
<path d="M384.963 354.68C384.963 354.68 384.903 354.68 384.883 354.66C384.133 354.24 382.723 352.59 382.923 351.75C382.963 351.6 383.083 351.33 383.513 351.28C383.793 351.25 384.043 351.32 384.263 351.51C385.093 352.22 385.153 354.4 385.153 354.49C385.153 354.56 385.123 354.62 385.063 354.65C385.033 354.67 385.003 354.68 384.963 354.68ZM383.623 351.63C383.623 351.63 383.573 351.63 383.543 351.63C383.313 351.66 383.283 351.77 383.273 351.81C383.153 352.31 384.033 353.55 384.773 354.14C384.723 353.5 384.553 352.24 384.023 351.78C383.903 351.68 383.773 351.62 383.623 351.62V351.63Z" fill="#14475F"/>
<path d="M356.473 353.7C355.733 353.88 355.033 353.93 354.583 353.69C354.293 353.54 354.133 353.28 354.093 352.93C354.073 352.72 354.143 352.54 354.293 352.4C355.103 351.68 358.363 352.45 358.733 352.54C358.803 352.56 358.853 352.62 358.863 352.7C358.863 352.78 358.823 352.85 358.753 352.88C358.143 353.16 357.283 353.51 356.473 353.71V353.7ZM354.843 352.51C354.703 352.54 354.603 352.59 354.523 352.65C354.463 352.71 354.433 352.77 354.443 352.86C354.473 353.1 354.573 353.26 354.763 353.37C355.293 353.66 356.523 353.43 358.113 352.77C356.993 352.54 355.543 352.34 354.833 352.51H354.843Z" fill="#14475F"/>
<path d="M358.723 352.89C358.723 352.89 358.673 352.89 358.653 352.89C357.683 352.71 355.613 351.56 355.593 350.7C355.593 350.5 355.683 350.22 356.153 350.06C356.493 349.93 356.853 349.96 357.183 350.12C358.273 350.66 358.833 352.58 358.863 352.66C358.883 352.72 358.863 352.79 358.823 352.83C358.793 352.86 358.763 352.88 358.723 352.89V352.89ZM356.363 350.36C356.363 350.36 356.293 350.38 356.263 350.39C355.953 350.5 355.953 350.63 355.953 350.67C355.963 351.19 357.403 352.14 358.413 352.46C358.213 351.91 357.723 350.79 357.013 350.44C356.803 350.33 356.583 350.31 356.363 350.36Z" fill="#14475F"/>
<path d="M344.333 144.42L333.903 149.22L332.693 152.16L336.543 154.75C336.543 154.75 343.733 153.97 345.783 149.35L344.323 144.42H344.333Z" fill="#914F4E"/>
<path d="M344.773 150.64C344.123 146.77 342.843 145 342.833 144.98L344.473 143.75C344.533 143.83 346.053 145.88 346.793 150.3L344.763 150.64H344.773Z" fill="#263238"/>
<path d="M346.553 145.84C346.893 146.68 346.343 147.69 345.343 148.09C344.333 148.5 343.243 148.15 342.903 147.31C342.563 146.47 343.113 145.46 344.113 145.06C345.123 144.65 346.213 145 346.553 145.84Z" fill="#263238"/>
<path d="M326.853 153.1L328.243 154.5L337.603 150.5L333.903 149.22L326.853 153.1Z" fill="#914F4E"/>
<path opacity="0.2" d="M367.043 335.87C367.103 335.85 368.463 339.7 368.463 339.7L354.623 345.51L352.443 341.45L367.043 335.86V335.87Z" fill="black"/>
<path opacity="0.2" d="M395.333 340.72C395.393 340.72 395.793 344.57 395.793 344.57H380.633L379.553 340.15L395.333 340.72V340.72Z" fill="black"/>
<path d="M392.993 104.49C395.743 113.36 385.033 125.47 385.033 125.47L370.183 119.41C370.183 119.41 372.273 112.97 376.253 104.34C380.773 94.5302 390.213 95.5402 392.983 104.49H392.993Z" fill="#14475F"/>
<path opacity="0.2" d="M392.993 104.49C395.743 113.36 385.033 125.47 385.033 125.47L370.183 119.41C370.183 119.41 372.273 112.97 376.253 104.34C380.773 94.5302 390.213 95.5402 392.983 104.49H392.993Z" fill="black"/>
<path d="M245.433 15.6201H239.043V16.6501H245.433V15.6201Z" fill="#14475F"/>
<path d="M328.157 56.3833L327.383 73.5459L328.412 73.5923L329.186 56.4297L328.157 56.3833Z" fill="#14475F"/>
<path d="M326.163 20.2402H208.163L197.183 265.96H315.183L326.163 20.2402Z" fill="#14475F"/>
<path opacity="0.56" d="M322.643 23.6104H204.643L193.663 269.33H311.663L322.643 23.6104Z" fill="#FAFAFA"/>
<path opacity="0.07" d="M319.123 26.98H201.123L190.133 272.7H308.133L319.123 26.98Z" fill="#14475F"/>
<path d="M305.693 134.15H204.973L204.133 152.96H304.853L305.693 134.15Z" fill="white"/>
<path d="M260.363 120.44H205.583L205.213 128.85H259.993L260.363 120.44Z" fill="#14475F"/>
<path d="M303.423 184.9H202.703L201.863 203.7H302.583L303.423 184.9Z" fill="white"/>
<path opacity="0.47" d="M284.953 229.08H217.223L216.213 251.62H283.943L284.953 229.08Z" fill="#14475F"/>
<path d="M280.423 255.11H212.693C212.693 255.11 212.633 255.1 212.603 255.07C212.583 255.05 212.573 255.01 212.573 254.98L213.583 232.44C213.583 232.38 213.643 232.33 213.703 232.33H281.433C281.433 232.33 281.493 232.34 281.523 232.37C281.543 232.39 281.553 232.43 281.553 232.46L280.543 255C280.543 255.06 280.483 255.11 280.423 255.11V255.11ZM212.823 254.87H280.313L281.313 232.57H213.823L212.823 254.87V254.87Z" fill="white"/>
<path d="M248.533 171.18H203.313L202.943 179.59H248.153L248.533 171.18Z" fill="#14475F"/>
<path d="M283.663 73.4301C283.413 79.0601 281.373 84.2601 278.103 88.4801C273.163 94.8801 265.423 99.0401 256.903 99.0401C248.383 99.0401 241.023 94.8801 236.663 88.4801C233.773 84.2601 232.193 79.0601 232.443 73.4301C233.073 59.2801 245.053 47.8101 259.193 47.8101C273.333 47.8101 284.303 59.2801 283.663 73.4301Z" fill="white"/>
<path d="M286.073 53.1703C286.003 54.6703 285.463 56.0503 284.593 57.1703C283.283 58.8703 281.223 59.9804 278.963 59.9804C276.703 59.9804 274.743 58.8703 273.583 57.1703C272.813 56.0503 272.393 54.6703 272.463 53.1703C272.633 49.4103 275.813 46.3604 279.573 46.3604C283.333 46.3604 286.243 49.4103 286.073 53.1703Z" fill="#14475F"/>
<path d="M215.823 143.56C215.753 145.22 214.343 146.57 212.673 146.57C211.003 146.57 209.723 145.22 209.793 143.56C209.863 141.9 211.273 140.55 212.943 140.55C214.613 140.55 215.893 141.9 215.823 143.56Z" fill="#263238"/>
<path d="M229.303 143.56C229.233 145.22 227.823 146.57 226.153 146.57C224.483 146.57 223.203 145.22 223.273 143.56C223.343 141.9 224.753 140.55 226.423 140.55C228.093 140.55 229.373 141.9 229.303 143.56Z" fill="#263238"/>
<path d="M242.793 143.56C242.723 145.22 241.313 146.57 239.643 146.57C237.973 146.57 236.693 145.22 236.763 143.56C236.833 141.9 238.243 140.55 239.913 140.55C241.583 140.55 242.863 141.9 242.793 143.56Z" fill="#263238"/>
<path d="M213.553 194.3C213.483 195.96 212.073 197.31 210.403 197.31C208.733 197.31 207.453 195.96 207.523 194.3C207.593 192.64 209.003 191.29 210.673 191.29C212.343 191.29 213.623 192.64 213.553 194.3Z" fill="#263238"/>
<path d="M227.033 194.3C226.963 195.96 225.553 197.31 223.883 197.31C222.213 197.31 220.933 195.96 221.003 194.3C221.073 192.64 222.483 191.29 224.153 191.29C225.823 191.29 227.103 192.64 227.033 194.3Z" fill="#263238"/>
<path d="M240.523 194.3C240.453 195.96 239.043 197.31 237.373 197.31C235.703 197.31 234.423 195.96 234.493 194.3C234.563 192.64 235.973 191.29 237.643 191.29C239.313 191.29 240.593 192.64 240.523 194.3Z" fill="#263238"/>
<path d="M254.013 194.3C253.943 195.96 252.533 197.31 250.863 197.31C249.193 197.31 247.913 195.96 247.983 194.3C248.053 192.64 249.463 191.29 251.133 191.29C252.803 191.29 254.083 192.64 254.013 194.3Z" fill="#263238"/>
<path d="M267.503 194.3C267.433 195.96 266.023 197.31 264.353 197.31C262.683 197.31 261.403 195.96 261.473 194.3C261.543 192.64 262.953 191.29 264.623 191.29C266.293 191.29 267.573 192.64 267.503 194.3Z" fill="#263238"/>
<path d="M268.793 64.86C268.533 70.58 263.693 75.22 257.973 75.22C252.253 75.22 247.823 70.58 248.073 64.86C248.333 59.14 253.173 54.5 258.893 54.5C264.613 54.5 269.043 59.14 268.793 64.86Z" fill="#14475F"/>
<path d="M278.093 88.48C273.153 94.88 265.413 99.04 256.893 99.04C248.373 99.04 241.013 94.88 236.653 88.48C241.513 83.64 249.203 80.5 257.723 80.5C266.243 80.5 273.663 83.64 278.093 88.48Z" fill="#14475F"/>
<path opacity="0.1" d="M268.793 64.86C268.533 70.58 263.693 75.22 257.973 75.22C252.253 75.22 247.823 70.58 248.073 64.86C248.333 59.14 253.173 54.5 258.893 54.5C264.613 54.5 269.043 59.14 268.793 64.86Z" fill="white"/>
<path opacity="0.1" d="M278.093 88.48C273.153 94.88 265.413 99.04 256.893 99.04C248.373 99.04 241.013 94.88 236.653 88.48C241.513 83.64 249.203 80.5 257.723 80.5C266.243 80.5 273.663 83.64 278.093 88.48Z" fill="white"/>
<path d="M130.962 157.49C130.012 159.57 129.022 161.85 128.142 164.08C127.262 166.33 126.382 168.58 125.612 170.87C124.122 175.44 122.722 180.05 122.042 184.67L121.812 186.14C121.792 186.32 121.812 186.57 121.882 186.89C122.032 187.53 122.422 188.38 122.982 189.21C124.112 190.9 125.702 192.61 127.422 194.19C129.142 195.8 131.002 197.34 132.942 198.81C134.862 200.29 136.882 201.73 138.862 203.08L137.002 206.59C132.242 204.51 127.812 202.02 123.522 198.9C121.412 197.29 119.332 195.56 117.482 193.22C116.572 192.04 115.682 190.71 115.092 188.95C114.812 188.07 114.612 187.08 114.612 186.01C114.612 185.76 114.632 185.42 114.652 185.25L114.702 184.75L114.802 183.76C115.342 178.46 116.522 173.36 118.072 168.42C118.852 165.95 119.682 163.51 120.632 161.11C121.602 158.7 122.562 156.38 123.772 153.95L130.972 157.49H130.962Z" fill="#914F4E"/>
<path d="M137.462 202.48L144.532 198.9L142.702 206.67C142.702 206.67 137.852 208.03 135.592 205.67L137.462 202.49V202.48Z" fill="#914F4E"/>
<path d="M151.002 200.17L149.122 206.59L142.702 206.66L144.532 198.89L151.002 200.17Z" fill="#914F4E"/>
<path d="M160.982 120.05C160.982 120.05 161.592 122.3 162.562 124C161.722 124.78 160.982 124.51 160.982 124.51V120.05V120.05Z" fill="#643837"/>
<path d="M160.772 120.11C161.187 120.11 161.522 119.595 161.522 118.96C161.522 118.325 161.187 117.81 160.772 117.81C160.358 117.81 160.022 118.325 160.022 118.96C160.022 119.595 160.358 120.11 160.772 120.11Z" fill="#263238"/>
<path d="M160.592 117.85L162.112 117.41C162.112 117.41 161.332 118.6 160.592 117.85Z" fill="#263238"/>
<path d="M141.452 127.38C142.362 132.04 143.272 140.57 140.022 143.67C140.022 143.67 141.292 148.39 149.942 148.39C159.452 148.39 154.492 143.67 154.492 143.67C149.302 142.43 149.432 138.58 150.342 134.96L141.462 127.38H141.452Z" fill="#914F4E"/>
<path d="M138.922 116.79C139.402 124.56 139.432 127.86 143.362 131.85C149.262 137.85 158.712 135.56 160.562 127.81C162.232 120.83 161.172 109.29 153.562 106.2C146.072 103.15 138.442 109.02 138.922 116.79V116.79Z" fill="#914F4E"/>
<path d="M139.692 108C135.792 109.42 130.592 108.36 132.632 120.39C134.792 133.13 131.472 137.32 131.472 137.32C131.472 137.32 146.262 140.47 161.362 137.13C161.362 137.13 156.752 129.07 158.042 123.19C159.692 115.69 158.382 112.91 158.382 112.91C158.382 112.91 145.162 106 139.682 108H139.692Z" fill="#263238"/>
<path d="M156.192 120.84C156.172 122.38 156.712 123.93 157.412 125.01C158.462 126.63 159.712 125.97 160.032 124.29C160.312 122.78 160.102 120.11 158.752 119.07C157.422 118.05 156.202 119.07 156.192 120.84Z" fill="#914F4E"/>
<path d="M136.302 109.36C135.182 106.22 140.522 101.38 151.822 103.39C163.122 105.4 163.612 114.8 163.612 114.8L161.322 112.09L161.422 114.95L149.812 117.18L136.292 109.37L136.302 109.36Z" fill="#263238"/>
<path d="M137.262 144.2C137.102 143.24 137.752 142.33 138.712 142.18C142.232 141.6 150.222 140.42 154.252 140.98C157.242 141.39 158.032 143.14 158.162 144.57C158.252 145.63 157.382 146.52 156.322 146.47L138.932 145.68C138.092 145.64 137.402 145.02 137.272 144.2H137.262Z" fill="#14475F"/>
<path opacity="0.6" d="M137.262 144.2C137.102 143.24 137.752 142.33 138.712 142.18C142.232 141.6 150.222 140.42 154.252 140.98C157.242 141.39 158.032 143.14 158.162 144.57C158.252 145.63 157.382 146.52 156.322 146.47L138.932 145.68C138.092 145.64 137.402 145.02 137.272 144.2H137.262Z" fill="black"/>
<path d="M147.312 318.91L153.763 323.38L164.553 308.76L158.103 304.28L147.312 318.91Z" fill="#914F4E"/>
<path d="M132.272 318.61L139.082 322.5L148.632 307.03L141.822 303.15L132.272 318.61Z" fill="#914F4E"/>
<path d="M164.542 308.76L158.982 316.3L152.532 311.82L158.102 304.28L164.542 308.76Z" fill="#653F3E"/>
<path d="M141.812 303.15L148.632 307.03L143.712 315L136.892 311.12L141.812 303.15Z" fill="#653F3E"/>
<path d="M152.752 193.04C152.752 193.04 177.932 224.78 173.212 255.12C169.392 279.63 147.302 312.82 147.302 312.82L136.912 307.66C136.912 307.66 148.202 285.6 155.612 262.22C158.722 252.41 157.392 241.61 151.582 233.12C138.822 214.49 118.392 225.57 132.142 193.04H152.762H152.752Z" fill="#14475F"/>
<path opacity="0.6" d="M152.752 193.04C152.752 193.04 177.932 224.78 173.212 255.12C169.392 279.63 147.302 312.82 147.302 312.82L136.912 307.66C136.912 307.66 148.202 285.6 155.612 262.22C158.722 252.41 157.392 241.61 151.582 233.12C138.822 214.49 118.392 225.57 132.142 193.04H152.762H152.752Z" fill="black"/>
<path opacity="0.4" d="M165.102 213.43L161.442 209.79C161.442 210.08 168.532 253.84 170.522 266.14C171.722 262.37 172.652 258.65 173.202 255.11C175.512 240.25 170.652 225.05 165.092 213.42L165.102 213.43Z" fill="black"/>
<path d="M163.992 193.04C163.992 193.04 194.312 232.92 195.162 256.84C195.872 276.88 162.132 315.59 162.132 315.59L152.332 309.25C152.332 309.25 172.062 281.73 177.032 259.24C175.142 236.97 134.492 193.05 134.492 193.05H163.992V193.04Z" fill="#14475F"/>
<path opacity="0.6" d="M163.992 193.04C163.992 193.04 194.312 232.92 195.162 256.84C195.872 276.88 162.132 315.59 162.132 315.59L152.332 309.25C152.332 309.25 172.062 281.73 177.032 259.24C175.142 236.97 134.492 193.05 134.492 193.05H163.992V193.04Z" fill="black"/>
<path d="M126.482 145.46C123.232 146.23 120.132 158.01 120.132 158.01L132.792 166.46C132.792 166.46 137.012 157.14 135.542 153.06C134.012 148.81 130.582 144.48 126.482 145.45V145.46Z" fill="#14475F"/>
<path opacity="0.2" d="M128.963 153.04L128.083 163.31L132.793 166.47C132.793 166.47 135.003 161.59 135.663 157.33L128.963 153.04V153.04Z" fill="black"/>
<path d="M167.742 145.68C167.742 145.68 171.482 147 163.992 193.03H132.132C132.662 180.06 132.682 172.07 126.482 145.45C126.482 145.45 133.162 144 140.012 143.67C145.372 143.41 149.762 143.24 154.482 143.67C160.692 144.24 167.742 145.68 167.742 145.68V145.68Z" fill="#14475F"/>
<path d="M170.983 152.99C171.703 154.99 172.473 157.14 173.263 159.22C174.023 161.32 174.823 163.42 175.633 165.51L178.083 171.79L178.703 173.36L179.013 174.14L179.173 174.53C179.203 174.6 179.193 174.59 179.183 174.59C179.143 174.57 179.103 174.37 178.483 173.97C178.183 173.78 177.673 173.6 177.173 173.59C176.683 173.57 176.283 173.69 176.063 173.79C175.613 174.01 175.603 174.1 175.613 174.08C175.643 174.07 175.733 173.98 175.833 173.85C176.273 173.33 176.793 172.42 177.263 171.52C177.733 170.6 178.183 169.62 178.633 168.63C179.513 166.64 180.323 164.56 181.143 162.47C181.953 160.38 182.713 158.26 183.473 156.13L185.753 149.75L189.603 150.72C188.843 155.28 187.853 159.76 186.683 164.24C186.113 166.49 185.443 168.72 184.683 170.97C184.303 172.1 183.883 173.22 183.393 174.37C182.883 175.53 182.383 176.66 181.493 177.99C181.263 178.33 180.993 178.68 180.623 179.07C180.233 179.45 179.773 179.92 178.803 180.36C178.313 180.57 177.643 180.75 176.863 180.72C176.083 180.7 175.303 180.42 174.753 180.08C173.643 179.37 173.263 178.7 172.933 178.19C172.783 177.94 172.653 177.67 172.563 177.49L172.373 177.1L171.993 176.32L171.233 174.77C170.243 172.69 169.273 170.6 168.363 168.48C167.453 166.36 166.573 164.23 165.713 162.08C164.893 159.9 164.083 157.79 163.353 155.47L170.983 152.98V152.99Z" fill="#914F4E"/>
<path d="M167.742 145.68C171.572 146.59 175.872 157.91 175.872 157.91L164.492 167.61C164.492 167.61 157.112 155.27 158.612 151.2C160.162 146.96 162.742 144.49 167.742 145.69V145.68Z" fill="#14475F"/>
<path d="M187.532 146.24L191.523 142.9L194.303 147.23L192.253 150.85C192.253 150.85 188.993 153.83 186.103 152.32C185.173 150.21 185.753 147.73 187.523 146.25L187.532 146.24Z" fill="#914F4E"/>
<path d="M198.772 142.91L198.472 143.99L192.142 145.06L191.522 142.9L198.772 142.91Z" fill="#914F4E"/>
<path d="M162.952 316.1L151.532 308.71L153.582 305.16L166.412 313.05L162.952 316.1Z" fill="#14475F"/>
<path d="M143.532 321.97C142.622 321.97 141.432 321.39 140.702 320.99C140.632 320.95 140.602 320.88 140.612 320.81C140.612 320.74 140.672 320.67 140.742 320.65C141.052 320.55 143.762 319.72 144.522 320.37C144.642 320.47 144.782 320.66 144.732 320.97C144.672 321.39 144.482 321.68 144.172 321.84C143.992 321.93 143.772 321.97 143.532 321.97ZM141.282 320.88C142.522 321.51 143.522 321.75 144.002 321.51C144.202 321.41 144.322 321.22 144.362 320.93C144.382 320.77 144.332 320.7 144.272 320.66C143.872 320.32 142.372 320.58 141.272 320.89L141.282 320.88Z" fill="#263238"/>
<path d="M140.802 321.02C140.752 321.02 140.702 321 140.672 320.96C140.622 320.91 140.612 320.84 140.622 320.78C140.652 320.69 141.272 318.52 142.302 318.02C142.572 317.89 142.852 317.88 143.122 317.99C143.552 318.17 143.592 318.49 143.582 318.66C143.512 319.56 141.682 320.8 140.842 321.01C140.832 321.01 140.812 321.01 140.802 321.01V321.02ZM142.742 318.29C142.652 318.29 142.562 318.31 142.462 318.36C141.852 318.66 141.332 319.83 141.092 320.54C141.972 320.17 143.172 319.19 143.212 318.64C143.212 318.55 143.202 318.44 142.982 318.34C142.902 318.31 142.822 318.29 142.742 318.29Z" fill="#263238"/>
<path d="M157.823 326.29C156.693 326.29 155.123 324.84 154.263 323.95C154.203 323.89 154.192 323.81 154.232 323.74C154.272 323.67 154.362 323.63 154.422 323.64C154.822 323.69 158.293 324.16 158.793 325.14C158.883 325.33 158.882 325.53 158.772 325.73C158.592 326.05 158.322 326.24 157.982 326.28C157.932 326.28 157.882 326.28 157.832 326.28L157.823 326.29ZM154.922 324.09C156.182 325.32 157.292 326 157.922 325.91C158.142 325.88 158.313 325.76 158.433 325.54C158.483 325.46 158.482 325.38 158.442 325.31C158.172 324.78 156.322 324.31 154.912 324.09H154.922Z" fill="#263238"/>
<path d="M155.032 324.06C154.772 324.06 154.542 324.04 154.362 324.01C154.302 324 154.242 323.95 154.222 323.89C154.202 323.83 154.212 323.76 154.252 323.71C154.312 323.64 155.662 322.01 156.942 321.9C157.342 321.87 157.682 321.98 157.972 322.22C158.362 322.56 158.342 322.86 158.242 323.05C157.922 323.72 156.192 324.06 155.032 324.06V324.06ZM154.772 323.68C155.892 323.74 157.672 323.37 157.912 322.88C157.932 322.84 157.992 322.72 157.732 322.49C157.512 322.31 157.262 322.23 156.982 322.25C156.142 322.32 155.202 323.21 154.782 323.67L154.772 323.68Z" fill="#263238"/>
<path d="M141.072 319.97L132.592 317.57C132.282 317.48 131.972 317.63 131.842 317.92L128.982 324.36C128.682 325.03 129.102 325.86 129.812 326.04C132.782 326.82 134.262 327.05 137.992 328.11C140.282 328.76 143.572 329.94 146.742 330.84C149.842 331.72 150.962 328.65 149.722 327.99C144.162 325.04 143.722 323.03 142.202 320.79C141.932 320.39 141.522 320.1 141.072 319.97V319.97Z" fill="#14475F"/>
<path d="M154.492 322.79L147.252 317.76C146.992 317.58 146.652 317.61 146.432 317.84L141.632 323C141.132 323.53 141.252 324.45 141.872 324.86C144.422 326.57 145.742 327.27 148.932 329.48C150.892 330.84 154.802 333.86 157.502 335.73C160.152 337.57 162.212 335.03 161.252 334.01C156.952 329.42 156.012 326.54 155.302 323.93C155.172 323.46 154.882 323.05 154.502 322.79H154.492Z" fill="#14475F"/>
<path d="M148.622 313.48L135.572 306.99L136.922 303.46L150.862 310.29L148.622 313.48Z" fill="#14475F"/>
<path d="M131.652 191.17L130.552 194.02C130.442 194.24 130.702 194.47 131.072 194.47H164.152C164.442 194.47 164.682 194.33 164.692 194.15L164.982 191.3C165.002 191.1 164.752 190.94 164.442 190.94H132.172C131.932 190.94 131.722 191.04 131.652 191.18V191.17Z" fill="#14475F"/>
<path opacity="0.4" d="M131.652 191.17L130.552 194.02C130.442 194.24 130.702 194.47 131.072 194.47H164.152C164.442 194.47 164.682 194.33 164.692 194.15L164.982 191.3C165.002 191.1 164.752 190.94 164.442 190.94H132.172C131.932 190.94 131.722 191.04 131.652 191.18V191.17Z" fill="white"/>
<path d="M136.862 194.77H136.002C135.832 194.77 135.702 194.68 135.712 194.57L136.122 190.86C136.132 190.75 136.282 190.66 136.452 190.66H137.312C137.482 190.66 137.612 190.75 137.602 190.86L137.192 194.57C137.182 194.68 137.032 194.77 136.862 194.77Z" fill="#14475F"/>
<path d="M157.262 194.77H156.402C156.232 194.77 156.102 194.68 156.112 194.57L156.522 190.86C156.532 190.75 156.682 190.66 156.852 190.66H157.712C157.882 190.66 158.012 190.75 158.002 190.86L157.592 194.57C157.582 194.68 157.432 194.77 157.262 194.77Z" fill="#14475F"/>
<g style="mix-blend-mode:multiply">
<path d="M136.103 364.13C150.898 364.13 162.892 363.261 162.892 362.19C162.892 361.119 150.898 360.25 136.103 360.25C121.307 360.25 109.312 361.119 109.312 362.19C109.312 363.261 121.307 364.13 136.103 364.13Z" fill="#F5F5F5"/>
</g>
<path d="M152.422 359.45C147.682 358.07 142.462 356.3 139.242 354.42C139.152 354.37 139.062 354.33 138.962 354.28V332.85H148.492C150.072 332.85 151.342 331.57 151.342 330C151.342 328.43 150.062 327.15 148.492 327.15H138.962V229.33H133.252V327.15H123.722C122.142 327.15 120.872 328.43 120.872 330C120.872 331.57 122.152 332.85 123.722 332.85H133.252V354.28C133.162 354.33 133.062 354.37 132.972 354.42C129.742 356.31 124.532 358.08 119.792 359.45C118.232 359.9 118.562 362.19 120.182 362.19H152.032C153.652 362.19 153.982 359.9 152.422 359.45V359.45Z" fill="#E0E0E0"/>
<path d="M153.892 219.36H118.332C115.472 219.36 113.152 221.679 113.152 224.54V235.11C113.152 237.971 115.472 240.29 118.332 240.29H153.892C156.753 240.29 159.072 237.971 159.072 235.11V224.54C159.072 221.679 156.753 219.36 153.892 219.36Z" fill="#14475F"/>
<path d="M118.002 240.29V242.11C118.002 243.61 119.632 244.84 121.632 244.84H150.592C152.592 244.84 154.222 243.61 154.222 242.11V240.29H118.002V240.29Z" fill="#14475F"/>
<path opacity="0.3" d="M118.002 240.29V242.11C118.002 243.61 119.632 244.84 121.632 244.84H150.592C152.592 244.84 154.222 243.61 154.222 242.11V240.29H118.002V240.29Z" fill="white"/>
</g>
<defs>
<clipPath id="clip0_29_636">
<rect width="500" height="372.61" fill="white" transform="translate(0.552734)"/>
</clipPath>
</defs>
</svg>
