<svg width="459" height="443" viewBox="0 0 459 443" fill="none" xmlns="http://www.w3.org/2000/svg">
<g clip-path="url(#clip0_10_3)">
<path d="M18.0802 261.38C18.0802 261.38 27.0802 258.42 31.4002 279.2C35.7202 299.98 36.3602 311.47 36.3602 311.47C36.3602 311.47 37.7702 315.96 41.0802 314.18C44.3902 312.4 49.9202 306.29 54.0302 308.79C58.3002 311.38 58.4102 316.96 55.4502 324.31C52.4902 331.66 46.6102 348 46.0802 349.48C45.5602 350.93 45.8202 353.35 48.2602 352.5C50.7102 351.65 66.1702 341.68 70.4602 349.3C74.7502 356.92 63.1502 376.04 61.9202 378.16C60.6902 380.27 60.8702 381.37 61.8002 382.23C62.7302 383.09 67.6102 379.25 72.1302 376.59C76.6402 373.94 82.3402 371.65 84.4502 376.25C86.5602 380.85 83.3102 396.69 61.5902 417.93L50.8802 427.11L37.4402 422.63C9.30019 411.28 0.260188 397.88 0.450188 392.82C0.640188 387.76 6.78019 387.7 11.9702 388.43C17.1602 389.16 23.1302 390.85 23.6602 389.7C24.1902 388.55 23.9402 387.47 22.0002 385.98C20.0602 384.49 2.04019 371.24 3.10019 362.56C4.16019 353.88 22.2602 357.19 24.8502 357.05C27.4402 356.9 26.7502 354.57 25.7202 353.43C24.6702 352.26 13.0002 339.4 7.46019 333.74C1.92019 328.07 -0.0998116 322.87 2.86019 318.85C5.71019 314.97 13.1502 318.51 16.8902 318.89C20.6302 319.27 20.2202 314.58 20.2202 314.58C20.2202 314.58 16.4402 303.72 12.5002 282.86C8.56019 262 18.2602 261.33 18.2602 261.33" fill="#F5F5F5"/>
<path d="M50.99 424.14C48.04 408.83 43.79 387.72 39.01 364.41C34.24 341.11 29.93 320.01 26.9 304.72C25.39 297.09 24.17 290.91 23.32 286.61C22.9 284.49 22.57 282.83 22.34 281.69C22.23 281.14 22.14 280.72 22.07 280.41C22.01 280.12 21.96 279.98 21.96 279.98C21.96 279.98 21.97 280.13 22.02 280.42C22.07 280.73 22.15 281.16 22.24 281.71C22.45 282.86 22.75 284.52 23.13 286.65C23.91 290.94 25.08 297.14 26.55 304.79C29.5 320.1 33.75 341.21 38.52 364.51C43.3 387.82 47.6 408.92 50.63 424.21" fill="#E0E0E0"/>
<path d="M46.6401 317.64C46.6401 317.64 46.4001 317.92 46.0401 318.46C45.6801 319.01 45.1801 319.81 44.5701 320.81C43.3601 322.81 41.7501 325.63 40.0401 328.77C38.3701 331.86 36.8601 334.66 35.7001 336.82C35.1801 337.77 34.7401 338.59 34.3701 339.25C34.0501 339.82 33.8901 340.15 33.9201 340.17C33.9501 340.19 34.1601 339.89 34.5301 339.35C34.8901 338.8 35.3901 338 35.9901 336.99C37.1801 334.97 38.7501 332.14 40.4601 329C42.1501 325.92 43.6801 323.14 44.8601 320.98C45.3901 320.03 45.8301 319.22 46.2001 318.55C46.5101 317.97 46.6701 317.65 46.6401 317.63V317.64Z" fill="#E0E0E0"/>
<path d="M32.6103 340.08C32.6803 339.97 27.0303 336.4 19.9903 332.12C12.9503 327.84 7.19027 324.46 7.12027 324.57C7.05027 324.68 12.7003 328.25 19.7403 332.53C26.7803 336.81 32.5403 340.19 32.6103 340.08Z" fill="#E0E0E0"/>
<path d="M41.5501 375.53C41.5501 375.53 41.2001 375.38 40.5601 375.2C39.8101 375 38.9001 374.75 37.8301 374.46C35.5301 373.83 32.3501 372.95 28.8701 371.86C25.3901 370.77 22.2801 369.68 20.0301 368.87C18.9801 368.5 18.0901 368.18 17.3601 367.92C16.7301 367.7 16.3701 367.59 16.3601 367.62C16.3501 367.65 16.6801 367.82 17.2901 368.09C17.9001 368.36 18.7901 368.74 19.9001 369.19C22.1201 370.08 25.2301 371.23 28.7201 372.32C32.2001 373.42 35.4101 374.25 37.7401 374.79C38.9101 375.06 39.8501 375.26 40.5101 375.38C41.1701 375.5 41.5301 375.56 41.5401 375.53H41.5501Z" fill="#E0E0E0"/>
<path d="M58.7204 358.03C58.7204 358.03 58.4304 358.22 57.9704 358.64C57.5104 359.05 56.8604 359.67 56.0604 360.43C54.4604 361.96 52.2804 364.09 49.8904 366.46C47.5004 368.84 45.3504 371.01 43.8204 372.59C43.0504 373.38 42.4404 374.03 42.0204 374.49C41.6004 374.95 41.3804 375.21 41.4104 375.23C41.4304 375.25 41.7004 375.04 42.1604 374.62C42.6204 374.21 43.2704 373.59 44.0704 372.83C45.6704 371.3 47.8504 369.17 50.2404 366.8C52.6304 364.42 54.7804 362.25 56.3104 360.67C57.0804 359.88 57.6904 359.23 58.1104 358.77C58.5304 358.31 58.7504 358.05 58.7204 358.03Z" fill="#E0E0E0"/>
<path d="M70.5901 388.33C70.5901 388.33 70.2301 388.59 69.6401 389.12C68.9901 389.72 68.1701 390.49 67.1901 391.41C65.1301 393.36 62.3101 396.07 59.2201 399.08C56.1301 402.1 53.3401 404.85 51.3501 406.85C50.4101 407.81 49.6201 408.61 49.0001 409.25C48.4501 409.82 48.1601 410.15 48.1901 410.18C48.2101 410.2 48.5501 409.92 49.1401 409.39C49.7901 408.79 50.6101 408.02 51.5901 407.1C53.6501 405.15 56.4701 402.44 59.5601 399.43C62.6501 396.41 65.4301 393.66 67.4301 391.66C68.3701 390.7 69.1601 389.9 69.7801 389.26C70.3301 388.69 70.6201 388.36 70.5901 388.33Z" fill="#E0E0E0"/>
<path d="M48.5701 409.5C48.5701 409.5 48.1401 409.31 47.3301 409.05C46.4301 408.77 45.2801 408.41 43.9001 407.98C41.0101 407.08 37.0101 405.82 32.6401 404.31C28.2701 402.81 24.3401 401.35 21.5101 400.27C20.1601 399.76 19.0301 399.33 18.1501 399C17.3501 398.7 16.9101 398.56 16.9001 398.59C16.8901 398.62 17.3101 398.83 18.0801 399.18C18.8501 399.53 19.9801 400.02 21.3801 400.59C24.1901 401.75 28.1001 403.26 32.4801 404.77C36.8601 406.28 40.8801 407.49 43.8001 408.31C45.2601 408.72 46.4501 409.03 47.2701 409.23C48.0901 409.43 48.5501 409.53 48.5601 409.49L48.5701 409.5Z" fill="#E0E0E0"/>
<path d="M427.73 21.68H334.1V157.39H427.73V21.68Z" fill="#E0E0E0"/>
<path d="M423.04 21.68H329.41V157.39H423.04V21.68Z" fill="#F5F5F5"/>
<path d="M411.41 36.38H341.05V142.69H411.41V36.38Z" fill="white"/>
<path d="M411.41 142.69C411.41 142.69 411.41 142.51 411.4 142.17C411.4 141.82 411.4 141.32 411.39 140.66C411.39 139.32 411.37 137.37 411.36 134.83C411.35 129.73 411.32 122.31 411.3 112.93C411.27 94.18 411.23 67.64 411.19 36.38L411.42 36.61C389.92 36.61 366.1 36.62 341.07 36.63L341.32 36.38C341.3 76.49 341.28 113.46 341.27 142.69L341.07 142.49C362.5 142.53 380.06 142.57 392.28 142.6C398.39 142.62 403.17 142.64 406.43 142.65C408.05 142.66 409.29 142.67 410.14 142.67C410.98 142.67 411.42 142.69 411.42 142.69C411.42 142.69 411.01 142.7 410.18 142.71C409.34 142.71 408.11 142.72 406.5 142.73C403.25 142.74 398.49 142.76 392.4 142.78C380.15 142.81 362.54 142.84 341.06 142.89H340.86V142.69C340.85 113.46 340.83 76.48 340.81 36.38V36.13H341.06C366.1 36.13 389.92 36.14 411.41 36.15H411.64V36.38C411.59 67.7 411.55 94.3 411.52 113.09C411.49 122.45 411.47 129.85 411.46 134.94C411.45 137.46 411.44 139.4 411.43 140.72C411.43 141.36 411.42 141.86 411.42 142.2C411.42 142.53 411.41 142.69 411.41 142.69V142.69Z" fill="#E0E0E0"/>
<path d="M423.3 21.68C423.35 21.72 422.72 22.65 421.63 24.1C420.54 25.55 419 27.53 417.24 29.67C415.48 31.81 413.83 33.7 412.61 35.05C411.39 36.4 410.6 37.2 410.55 37.15C410.5 37.1 411.19 36.22 412.34 34.81C413.6 33.29 415.14 31.41 416.85 29.34C418.56 27.27 420.1 25.39 421.35 23.87C422.51 22.47 423.25 21.62 423.3 21.67V21.68Z" fill="#E0E0E0"/>
<path d="M411.77 142.35C415.26 147.91 419.39 153.07 424.04 157.7Z" fill="white"/>
<path d="M424.04 157.7C424.04 157.7 423.16 157.02 421.9 155.75C420.64 154.48 418.97 152.66 417.27 150.53C415.57 148.4 414.15 146.37 413.19 144.86C412.23 143.35 411.71 142.38 411.76 142.34C411.82 142.3 412.45 143.21 413.49 144.65C414.52 146.1 415.97 148.08 417.66 150.2C419.35 152.32 420.97 154.17 422.15 155.49C423.34 156.82 424.08 157.63 424.03 157.68L424.04 157.7Z" fill="#E0E0E0"/>
<path d="M329.4 157.28C333.49 152.24 337.58 147.19 341.66 142.15Z" fill="white"/>
<path d="M341.66 142.15C341.77 142.24 339.11 145.7 335.73 149.88C332.34 154.06 329.51 157.37 329.4 157.29C329.29 157.2 331.95 153.74 335.33 149.56C338.72 145.38 341.55 142.07 341.66 142.16V142.15Z" fill="#E0E0E0"/>
<path d="M329.41 21.68C329.52 21.59 332.19 24.78 335.36 28.8C338.54 32.82 341.02 36.15 340.91 36.23C340.8 36.32 338.14 33.13 334.96 29.11C331.78 25.09 329.3 21.77 329.41 21.68V21.68Z" fill="#E0E0E0"/>
<path d="M389.49 57.96H365.93V124.85H389.49V57.96Z" fill="#E0E0E0"/>
<path d="M133.82 0V74.77H26.4203L22.5503 0.52L133.82 0Z" fill="#E0E0E0"/>
<path d="M22.5503 0.519989L22.5503 74.61H129.95V0.519989H22.5503Z" fill="white"/>
<path d="M130.46 75.13H22.0503V0.0100098H130.47V75.13H130.46ZM23.0603 74.11H129.44V1.03001H23.0603V74.11V74.11Z" fill="#E0E0E0"/>
<path d="M118.32 9.72998H34.1899V65.41H118.32V9.72998Z" fill="white"/>
<path d="M118.32 9.73C118.32 9.73 118.18 9.73 117.91 9.74C117.63 9.74 117.23 9.74 116.71 9.75C115.64 9.75 114.1 9.77 112.09 9.78C108.05 9.8 102.17 9.82 94.7501 9.85C79.9101 9.88 58.9101 9.92 34.1901 9.97L34.4301 9.73C34.4301 26.74 34.4401 45.59 34.4501 65.41L34.1801 65.15C65.9201 65.17 95.1801 65.19 118.31 65.2L118.1 65.41C118.15 48.46 118.18 34.57 118.21 24.9C118.23 20.06 118.25 16.29 118.26 13.7C118.27 12.42 118.28 11.44 118.28 10.76C118.28 10.09 118.3 9.74 118.3 9.74C118.3 9.74 118.32 10.06 118.32 10.72C118.32 11.39 118.33 12.36 118.34 13.62C118.35 16.2 118.37 19.96 118.39 24.78C118.42 34.49 118.45 48.43 118.5 65.43V65.64H118.29C95.1601 65.65 65.8901 65.67 34.1601 65.69H33.8901V65.42C33.8901 45.6 33.9101 26.75 33.9101 9.74V9.5H34.1501C58.9401 9.55 80.0001 9.59 94.8701 9.62C102.27 9.65 108.12 9.67 112.15 9.69C114.14 9.7 115.67 9.71 116.72 9.72C117.22 9.72 117.61 9.73 117.89 9.73C118.15 9.73 118.28 9.74 118.28 9.74L118.32 9.73Z" fill="#E0E0E0"/>
<path d="M22.5501 0.319986C22.5901 0.259986 23.3001 0.719986 24.4001 1.51999C25.5001 2.30999 26.9901 3.43999 28.6101 4.72999C30.2301 6.01999 31.6501 7.24999 32.6501 8.15999C33.6501 9.07999 34.2401 9.67999 34.1901 9.72999C34.0901 9.83999 31.5101 7.70999 28.2801 5.13999C25.0501 2.55999 22.4601 0.439986 22.5501 0.319986Z" fill="#E0E0E0"/>
<path d="M129.95 0.519975C130.04 0.629975 127.51 2.78997 124.3 5.32997C121.09 7.86997 118.41 9.83997 118.32 9.71997C118.23 9.60997 120.76 7.44997 123.97 4.90997C127.18 2.36997 129.86 0.399975 129.95 0.519975V0.519975Z" fill="#E0E0E0"/>
<path d="M129.87 74.63C125.88 71.39 121.89 68.16 117.9 64.92Z" fill="white"/>
<path d="M117.89 64.92C117.98 64.81 120.74 66.89 124.04 69.57C127.35 72.25 129.95 74.52 129.86 74.63C129.77 74.74 127.01 72.66 123.71 69.98C120.4 67.3 117.8 65.04 117.89 64.92Z" fill="#E0E0E0"/>
<path d="M22.5502 74.62C22.4602 74.51 24.9602 72.37 28.1402 69.86C31.3202 67.34 33.9702 65.4 34.0602 65.52C34.1502 65.63 31.6502 67.77 28.4702 70.28C25.2902 72.79 22.6402 74.74 22.5502 74.62Z" fill="#E0E0E0"/>
<path d="M51.2705 27.08V45.72H104.211V27.08L51.2705 27.08Z" fill="#E0E0E0"/>
<path d="M385.11 248.28C370.02 262.58 346.16 261.92 331.82 246.79C317.48 231.66 318.09 207.81 333.19 193.5C348.28 179.2 372.14 179.86 386.47 194.99C400.81 210.12 400.2 233.97 385.11 248.28V248.28Z" fill="#EBEBEB"/>
<path d="M378.94 241.76C367.44 252.66 349.26 252.15 338.33 240.62C327.4 229.09 327.87 210.91 339.37 200.01C350.87 189.11 369.05 189.62 379.98 201.14C390.9 212.67 390.44 230.85 378.94 241.75V241.76Z" fill="#F5F5F5"/>
<path d="M379.59 241.14C379.47 241.02 380.3 240.06 381.58 238.21C382.84 236.36 384.54 233.55 385.69 229.74C386.26 227.84 386.7 225.7 386.86 223.38C387.01 221.06 386.91 218.56 386.41 216.01C386.16 214.73 385.84 213.43 385.38 212.15C384.93 210.86 384.41 209.57 383.74 208.32C383.08 207.07 382.34 205.83 381.47 204.66C380.6 203.49 379.63 202.36 378.57 201.3C377.5 200.25 376.36 199.29 375.18 198.43C374 197.57 372.75 196.84 371.5 196.19C370.24 195.54 368.95 195.02 367.66 194.59C366.37 194.15 365.07 193.83 363.79 193.6C361.23 193.12 358.73 193.05 356.41 193.22C354.09 193.41 351.96 193.86 350.06 194.45C346.26 195.64 343.47 197.36 341.63 198.64C339.79 199.94 338.84 200.78 338.72 200.65C338.63 200.56 339.37 199.51 341.1 197.96C342.83 196.43 345.61 194.42 349.56 192.97C351.53 192.25 353.77 191.68 356.23 191.39C358.69 191.13 361.36 191.13 364.12 191.59C365.5 191.81 366.9 192.13 368.3 192.58C369.7 193.03 371.1 193.57 372.46 194.26C373.82 194.95 375.17 195.73 376.45 196.65C377.73 197.57 378.96 198.6 380.11 199.73C381.25 200.88 382.29 202.09 383.23 203.37C384.16 204.64 384.96 205.98 385.66 207.34C386.36 208.69 386.92 210.09 387.37 211.48C387.84 212.87 388.16 214.27 388.4 215.65C388.88 218.41 388.91 221.08 388.67 223.54C388.41 226 387.86 228.25 387.16 230.23C385.75 234.19 383.76 236.99 382.25 238.73C380.72 240.47 379.67 241.23 379.58 241.14H379.59Z" fill="#E0E0E0"/>
<path d="M348.94 235.05L345.35 238.55L342.23 235.35L345.72 231.95C342.82 228.59 340.84 224.58 340.5 221.48L346.12 219.43C346.5 222.19 347.88 225.33 349.91 227.86L355.26 222.64C352.66 218.24 349.97 213.12 354.55 208.65C357.94 205.34 363.26 204.96 368.77 209.46L372.32 205.99L375.44 209.19L371.95 212.59C374.1 215.18 375.74 218.14 376.34 220.99L370.84 223.23C370.17 220.69 369.1 218.5 367.73 216.71L362.29 222.02C364.92 226.38 367.55 231.45 363.04 235.85C359.71 239.1 354.46 239.48 348.94 235.04V235.05ZM359.97 218.04L364.51 213.6C362.47 212.28 360.89 212.51 359.83 213.54C358.71 214.63 359.04 216.19 359.97 218.03V218.04ZM357.63 231.07C358.75 229.98 358.45 228.46 357.59 226.61L353.17 230.92C355.08 232.18 356.6 232.07 357.63 231.07V231.07Z" fill="#E0E0E0"/>
<path d="M237.27 293.02C244.42 313.65 233.45 336.18 212.77 343.34C192.09 350.5 169.54 339.59 162.39 318.96C155.24 298.33 166.21 275.8 186.89 268.64C207.57 261.48 230.12 272.39 237.27 293.02Z" fill="#EBEBEB"/>
<path d="M228.37 296.11C233.82 311.83 225.46 329 209.7 334.46C193.95 339.92 176.76 331.6 171.31 315.88C165.86 300.16 174.22 282.99 189.98 277.53C205.74 272.07 222.92 280.39 228.37 296.11V296.11Z" fill="#F5F5F5"/>
<path d="M228.05 295.21C227.88 295.28 227.32 294.07 226.11 292.04C224.89 290.03 222.94 287.19 219.79 284.44C218.22 283.07 216.36 281.73 214.22 280.56C212.07 279.42 209.64 278.42 206.97 277.8C205.64 277.48 204.26 277.23 202.83 277.11C201.41 276.98 199.94 276.93 198.46 277.02C196.98 277.11 195.47 277.28 193.98 277.61C192.48 277.93 190.99 278.37 189.51 278.92C188.04 279.49 186.63 280.16 185.3 280.92C183.96 281.68 182.73 282.55 181.56 283.47C180.39 284.39 179.34 285.4 178.36 286.45C177.38 287.49 176.51 288.6 175.74 289.72C174.17 291.96 173.02 294.32 172.18 296.61C171.36 298.91 170.87 301.15 170.61 303.21C170.1 307.36 170.54 310.78 170.97 313.09C171.42 315.41 171.81 316.68 171.64 316.75C171.51 316.8 170.83 315.63 170.1 313.31C169.39 311 168.66 307.46 168.98 303.06C169.14 300.87 169.57 298.47 170.36 295.99C171.17 293.52 172.33 290.97 173.97 288.52C174.78 287.3 175.69 286.09 176.73 284.95C177.76 283.81 178.89 282.7 180.13 281.7C181.38 280.69 182.71 279.74 184.14 278.92C185.57 278.09 187.09 277.37 188.68 276.75C190.27 276.15 191.89 275.69 193.51 275.34C195.13 275 196.76 274.82 198.36 274.74C199.96 274.65 201.54 274.74 203.07 274.89C204.6 275.05 206.08 275.34 207.5 275.71C210.34 276.44 212.91 277.57 215.17 278.87C217.41 280.18 219.33 281.69 220.91 283.21C224.09 286.28 225.9 289.39 226.92 291.59C227.92 293.81 228.19 295.13 228.07 295.18L228.05 295.21Z" fill="#E0E0E0"/>
<path d="M208.96 321.89L210.75 326.83L206.34 328.43L204.6 323.62C200.13 324.94 195.44 325.09 192.33 324.08L192.8 317.81C195.6 318.64 199.21 318.68 202.5 317.84L199.83 310.47C194.5 311.06 188.43 311.41 186.14 305.1C184.44 300.42 186.38 295.17 193.07 291.85L191.29 286.95L195.7 285.35L197.45 290.16C200.86 289.22 204.4 288.94 207.39 289.6L207.15 295.83C204.43 295.37 201.87 295.45 199.56 295.98L202.28 303.49C207.6 302.86 213.57 302.54 215.83 308.76C217.5 313.35 215.58 318.54 208.95 321.89H208.96ZM197.47 303.98L195.2 297.71C193.05 299.09 192.59 300.7 193.12 302.16C193.68 303.7 195.31 304.06 197.48 303.98H197.47ZM208.92 311.87C208.36 310.32 206.78 309.95 204.64 309.98L206.85 316.07C208.88 314.78 209.44 313.28 208.92 311.87Z" fill="#E0E0E0"/>
<path d="M86.76 195.18C86.99 213.5 72.29 228.54 53.92 228.77C35.56 229 20.48 214.33 20.26 196.01C20.03 177.69 34.73 162.65 53.1 162.42C71.46 162.19 86.54 176.86 86.77 195.18H86.76Z" fill="#EBEBEB"/>
<path d="M78.8501 195.28C79.0201 209.24 67.8201 220.7 53.8301 220.88C39.8401 221.05 28.3501 209.88 28.1801 195.92C28.0101 181.96 39.2101 170.5 53.2001 170.32C67.1901 170.15 78.6801 181.32 78.8601 195.28H78.8501Z" fill="#F5F5F5"/>
<path d="M78.8398 194.48C78.6898 194.48 78.5598 193.38 78.1298 191.44C77.6898 189.52 76.8898 186.74 75.1098 183.71C74.2198 182.2 73.0998 180.64 71.6998 179.15C70.2898 177.67 68.6198 176.23 66.6598 175.03C65.6898 174.42 64.6498 173.86 63.5498 173.39C62.4498 172.91 61.2998 172.48 60.0898 172.16C58.8898 171.84 57.6398 171.58 56.3598 171.44C55.0798 171.3 53.7698 171.25 52.4498 171.3C51.1298 171.37 49.8298 171.53 48.5698 171.78C47.3098 172.03 46.0898 172.4 44.9198 172.82C43.7498 173.24 42.6398 173.77 41.5798 174.35C40.5198 174.92 39.5398 175.57 38.6198 176.26C36.7798 177.63 35.2398 179.21 33.9598 180.81C32.6998 182.42 31.7098 184.08 30.9598 185.65C29.4598 188.82 28.8998 191.66 28.6298 193.61C28.3698 195.58 28.3498 196.69 28.1898 196.7C28.0798 196.7 27.8398 195.6 27.8698 193.55C27.9098 191.52 28.2698 188.51 29.6998 185.09C30.4098 183.39 31.3798 181.59 32.6698 179.83C33.9698 178.08 35.5698 176.35 37.5198 174.84C38.4898 174.08 39.5298 173.36 40.6598 172.73C41.7798 172.09 42.9698 171.51 44.2298 171.04C45.4898 170.57 46.7998 170.16 48.1598 169.89C49.5198 169.61 50.9198 169.43 52.3498 169.36C53.7798 169.31 55.1898 169.36 56.5698 169.52C57.9498 169.68 59.2898 169.97 60.5898 170.32C61.8898 170.68 63.1198 171.15 64.2998 171.69C65.4798 172.22 66.5798 172.85 67.6098 173.52C69.6798 174.86 71.4298 176.44 72.8798 178.07C74.3198 179.71 75.4398 181.42 76.2998 183.05C78.0198 186.33 78.6398 189.3 78.8598 191.32C79.0698 193.35 78.9398 194.48 78.8198 194.48H78.8398Z" fill="#E0E0E0"/>
<path d="M56.5697 210.67L56.6897 215.08L52.7497 215.19L52.6297 210.9C48.7197 210.77 44.9497 209.65 42.7397 208.01L44.7797 203.14C46.7897 204.55 49.6497 205.53 52.4997 205.73L52.3197 199.15C47.9197 198.21 42.9897 196.88 42.8397 191.24C42.7297 187.06 45.6597 183.4 51.8697 182.52L51.7497 178.15L55.6897 178.04L55.8097 182.34C58.7697 182.5 61.6697 183.21 63.8697 184.53L62.0297 189.43C59.9897 188.34 57.9197 187.73 55.9497 187.54L56.1297 194.24C60.5297 195.15 65.3797 196.48 65.5297 202.03C65.6397 206.13 62.7397 209.75 56.5797 210.67H56.5697ZM52.1597 193.36L52.0097 187.77C49.9397 188.3 49.1397 189.46 49.1697 190.76C49.2097 192.14 50.4097 192.86 52.1597 193.36V193.36ZM59.1897 202.67C59.1497 201.29 57.9897 200.57 56.2797 200.03L56.4297 205.47C58.3897 204.98 59.2297 203.94 59.1897 202.68V202.67Z" fill="#E0E0E0"/>
<path d="M244.25 51.91C246.61 47.68 247.96 42.81 247.96 37.61C247.96 21.5 235.05 8.42999 219.12 8.42999C216.46 8.42999 213.89 8.79999 211.45 9.47999C223.65 12.88 232.62 24.18 232.62 37.61C232.62 51.04 223.65 62.34 211.45 65.74C213.89 66.42 216.46 66.79 219.12 66.79C224.73 66.79 229.97 65.16 234.4 62.36L247.97 67.61L244.26 51.92L244.25 51.91Z" fill="#EBEBEB"/>
<path d="M431.77 427.11C431.77 427.25 336.68 427.37 219.41 427.37C102.14 427.37 7.03027 427.25 7.03027 427.11C7.03027 426.97 102.1 426.85 219.41 426.85C336.72 426.85 431.77 426.97 431.77 427.11Z" fill="#263238"/>
<path d="M121.49 395L122.31 419.89L128.63 439.39C129.09 440.8 128.26 442.29 126.82 442.65C126.02 442.85 125.17 442.65 124.55 442.12C120.55 438.69 105.91 426.01 105.96 424.19C106.01 422.08 103.36 398 103.36 398L121.5 395.01L121.49 395Z" fill="#14475F"/>
<path d="M126.82 442.64L105.86 422.5L105.92 423.55C105.97 424.46 106.34 425.32 106.97 425.99C108.65 427.76 113.4 432.54 124.48 442.12C125.12 442.68 126.01 442.88 126.83 442.65L126.82 442.64Z" fill="#E0E0E0"/>
<path d="M110.51 414.2C111.16 414.6 111.41 415.53 111.04 416.19C110.67 416.85 109.73 417.12 109.07 416.74C108.42 416.36 108.07 415.25 108.52 414.63C108.96 414.01 110.09 413.76 110.63 414.29" fill="white"/>
<path d="M120.53 432.1C120.67 432.16 121.16 430.83 122.6 430.04C124.02 429.21 125.41 429.49 125.43 429.33C125.45 429.27 125.12 429.09 124.54 429.04C123.96 428.99 123.12 429.12 122.33 429.56C121.54 430.01 121 430.65 120.74 431.18C120.48 431.71 120.46 432.08 120.52 432.09L120.53 432.1Z" fill="#263238"/>
<path d="M122.49 435.33C122.61 435.43 123.37 434.58 124.63 434.14C125.89 433.67 127.01 433.85 127.04 433.69C127.1 433.56 125.88 433.1 124.44 433.62C123 434.13 122.35 435.27 122.48 435.33H122.49Z" fill="#263238"/>
<path d="M116.99 428.01C117.11 428.12 118.26 426.8 120.17 425.95C122.06 425.06 123.81 425.05 123.81 424.88C123.84 424.75 121.98 424.5 119.94 425.45C117.9 426.37 116.86 427.95 116.99 428.01Z" fill="#263238"/>
<path d="M116.11 420.47C116.18 420.62 117.53 419.96 119.31 419.8C121.09 419.61 122.53 419.99 122.58 419.83C122.64 419.7 121.17 419.06 119.26 419.26C117.34 419.44 116.03 420.36 116.11 420.47V420.47Z" fill="#263238"/>
<path d="M115.69 413.17C115.78 413.31 117.11 412.4 119 412.38C120.89 412.32 122.26 413.17 122.34 413.02C122.38 412.97 122.09 412.67 121.5 412.37C120.91 412.07 120.01 411.81 118.99 411.83C117.97 411.85 117.08 412.15 116.5 412.48C115.92 412.8 115.65 413.11 115.69 413.17V413.17Z" fill="#263238"/>
<path d="M118.88 411C118.88 411 118.95 410.66 118.86 410.06C118.77 409.46 118.55 408.58 117.98 407.64C117.69 407.19 117.37 406.61 116.66 406.33C116.31 406.18 115.8 406.28 115.52 406.62C115.25 406.96 115.18 407.37 115.19 407.76C115.3 409.34 116.74 410.79 118.53 410.92C120.32 411.02 121.88 409.91 122.51 408.51C122.64 408.15 122.73 407.71 122.51 407.3C122.3 406.89 121.78 406.75 121.43 406.83C120.7 406.98 120.26 407.43 119.84 407.77C119.02 408.51 118.53 409.26 118.25 409.8C117.97 410.34 117.89 410.67 117.92 410.68C118.01 410.74 118.48 409.42 120.09 408.07C120.5 407.76 120.97 407.36 121.5 407.28C121.76 407.24 121.99 407.33 122.09 407.53C122.2 407.73 122.16 408.04 122.04 408.32C121.51 409.47 120.08 410.48 118.56 410.37C117.05 410.28 115.79 409 115.69 407.73C115.67 407.42 115.73 407.11 115.89 406.92C116.04 406.73 116.28 406.67 116.52 406.75C117.01 406.92 117.37 407.42 117.66 407.84C118.81 409.61 118.78 411.03 118.89 411H118.88Z" fill="#263238"/>
<path d="M169.93 398.7L168.64 417.31C168.64 417.31 187.12 424.87 187.22 428.33L151.05 427.13L151.87 398.05L169.93 398.7V398.7Z" fill="#14475F"/>
<path d="M157.51 415.36C156.8 415.53 156.29 416.3 156.43 417.01C156.57 417.72 157.35 418.25 158.06 418.09C158.77 417.93 159.41 417.03 159.19 416.33C158.97 415.64 158.02 415.07 157.37 415.39" fill="#E0E0E0"/>
<path d="M151.05 427.12L151.25 424.19L185.86 426.44C185.86 426.44 187.45 427.19 187.23 428.32L151.06 427.12H151.05Z" fill="#E0E0E0"/>
<path d="M169.24 417.14C169.23 417.32 168.34 417.37 167.45 417.91C166.55 418.43 166.07 419.18 165.91 419.1C165.75 419.06 166.05 418.01 167.13 417.38C168.21 416.74 169.27 416.98 169.23 417.14H169.24Z" fill="#263238"/>
<path d="M172.98 418.83C173.01 419 172.24 419.28 171.62 420C170.97 420.71 170.8 421.51 170.62 421.5C170.45 421.52 170.37 420.48 171.16 419.59C171.95 418.69 172.99 418.65 172.99 418.82L172.98 418.83Z" fill="#263238"/>
<path d="M174.98 423.45C174.82 423.48 174.6 422.59 175.09 421.64C175.57 420.68 176.41 420.33 176.48 420.48C176.57 420.63 176.02 421.13 175.63 421.92C175.22 422.7 175.15 423.44 174.97 423.45H174.98Z" fill="#263238"/>
<path d="M169.06 412.87C168.98 413.03 168.18 412.76 167.18 412.79C166.18 412.8 165.39 413.11 165.3 412.96C165.2 412.83 165.98 412.2 167.16 412.18C168.34 412.15 169.15 412.74 169.06 412.87V412.87Z" fill="#263238"/>
<path d="M169.25 409.11C169.25 409.18 168.55 409.27 167.44 409.04C166.89 408.93 166.24 408.72 165.56 408.39C165.22 408.23 164.88 408.03 164.54 407.8C164.38 407.69 164.18 407.57 164.01 407.36C163.82 407.17 163.72 406.7 163.96 406.42C164.15 406.15 164.49 406.04 164.75 406.04C165.02 406.04 165.23 406.1 165.43 406.16C165.83 406.27 166.2 406.42 166.54 406.58C167.22 406.92 167.77 407.33 168.17 407.73C168.98 408.54 169.25 409.2 169.19 409.24C169.11 409.3 168.72 408.73 167.89 408.06C167.47 407.73 166.94 407.38 166.3 407.1C165.98 406.96 165.64 406.84 165.27 406.74C164.89 406.63 164.56 406.61 164.46 406.78C164.42 406.84 164.42 406.87 164.49 406.98C164.57 407.09 164.72 407.19 164.88 407.3C165.19 407.52 165.51 407.71 165.82 407.88C166.44 408.21 167.04 408.45 167.55 408.61C168.58 408.93 169.26 409 169.25 409.1V409.11Z" fill="#263238"/>
<path d="M169.01 409.35C168.95 409.38 168.62 408.73 168.59 407.58C168.58 407.01 168.66 406.33 168.9 405.6C169.02 405.24 169.19 404.87 169.4 404.52C169.62 404.17 169.9 403.7 170.59 403.64C170.95 403.64 171.24 403.93 171.33 404.17C171.44 404.42 171.46 404.63 171.49 404.84C171.54 405.26 171.52 405.68 171.45 406.06C171.31 406.83 170.97 407.46 170.61 407.91C169.87 408.82 169.13 409.01 169.11 408.95C169.05 408.86 169.68 408.54 170.25 407.66C170.53 407.22 170.79 406.65 170.88 405.98C170.93 405.65 170.93 405.29 170.88 404.93C170.84 404.54 170.7 404.23 170.56 404.26C170.38 404.26 170.06 404.53 169.91 404.83C169.71 405.15 169.55 405.48 169.43 405.8C169.18 406.45 169.06 407.07 169.02 407.6C168.94 408.66 169.1 409.33 169 409.35H169.01Z" fill="#263238"/>
<path d="M95.5703 215.05L100.91 415.1L129.45 414.24L136.25 208.23L95.5703 215.05Z" fill="#263238"/>
<path d="M154.88 207.89C154.88 207.89 176.06 292.69 176.71 307.15C177.36 321.61 172.18 411.99 172.18 411.99H144.24L146.57 309.07L125.35 221.97L130.49 208.33L154.87 207.88L154.88 207.89Z" fill="#263238"/>
<path d="M137.64 218.31C137.64 218.31 137.65 218.4 137.65 218.58C137.65 218.79 137.65 219.05 137.63 219.37C137.6 220.11 137.56 221.13 137.52 222.42C137.4 225.11 137.22 228.92 137.01 233.62C136.52 243.11 135.86 256.16 135.12 270.57C134.32 284.98 133.6 298.03 133.08 307.52C132.8 312.22 132.56 316.03 132.4 318.71C132.31 320 132.24 321.02 132.19 321.75C132.16 322.07 132.14 322.33 132.12 322.54C132.1 322.72 132.09 322.81 132.08 322.81C132.07 322.81 132.07 322.72 132.07 322.54C132.07 322.33 132.07 322.07 132.09 321.75C132.12 321.01 132.16 320 132.2 318.7C132.32 316.01 132.5 312.2 132.71 307.5C133.2 298.01 133.86 284.96 134.6 270.54C135.4 256.13 136.12 243.09 136.64 233.6C136.92 228.9 137.16 225.09 137.32 222.41C137.41 221.12 137.48 220.1 137.53 219.37C137.56 219.05 137.58 218.79 137.6 218.58C137.62 218.4 137.63 218.31 137.64 218.31V218.31Z" fill="#455A64"/>
<path d="M134.5 99.15C134.5 99.15 144.86 150.59 145.02 165.08C145.17 179.57 150.26 207.89 150.26 207.89H105.36L104.39 129.52L101.19 106.14L107.93 96.53L134.5 99.15V99.15Z" fill="#F5F5F5"/>
<path d="M135.05 100.67C135.05 100.67 145.76 103.82 148.59 107.78C150.82 110.91 153.84 170.07 153.84 170.07L158.44 222.18L153.95 221.76L147.61 202.25L135.06 100.66L135.05 100.67Z" fill="#14475F"/>
<path d="M148.59 107.77L178.83 135.52L216.04 123.46L223.45 139.08L183.75 157.1C178.08 159.52 174.52 158.19 170.58 155.03L149.75 138.35L148.59 107.76V107.77Z" fill="#14475F"/>
<path d="M209.12 128.45C209.33 128.85 209.18 129.34 208.78 129.55C208.38 129.76 207.89 129.61 207.68 129.21C207.47 128.81 207.62 128.32 208.02 128.11C208.42 127.9 208.91 128.05 209.12 128.45Z" fill="#263238"/>
<path d="M208.4 129.67C208.32 129.67 208.24 129.66 208.16 129.63C207.94 129.56 207.77 129.42 207.66 129.22C207.55 129.02 207.53 128.79 207.6 128.58C207.67 128.37 207.81 128.19 208.01 128.08C208.21 127.97 208.44 127.95 208.65 128.02C208.86 128.09 209.04 128.23 209.15 128.43C209.26 128.63 209.28 128.86 209.21 129.07C209.15 129.28 209 129.46 208.8 129.57C208.68 129.64 208.54 129.67 208.4 129.67V129.67ZM208.4 128.04C208.27 128.04 208.15 128.07 208.03 128.13C207.84 128.23 207.71 128.4 207.65 128.6C207.59 128.8 207.61 129.02 207.71 129.2C207.81 129.39 207.98 129.52 208.18 129.58C208.38 129.64 208.6 129.62 208.78 129.52C208.97 129.42 209.1 129.25 209.16 129.05C209.22 128.85 209.2 128.63 209.1 128.45C208.96 128.18 208.68 128.03 208.4 128.03V128.04Z" fill="#263238"/>
<path d="M212.231 127.7C212.441 128.1 212.291 128.59 211.891 128.8C211.491 129.01 211.001 128.86 210.791 128.46C210.581 128.06 210.731 127.57 211.131 127.36C211.531 127.15 212.021 127.3 212.231 127.7V127.7Z" fill="#263238"/>
<path d="M211.521 128.93C211.441 128.93 211.361 128.92 211.281 128.89C211.061 128.83 210.891 128.68 210.781 128.48C210.561 128.07 210.721 127.56 211.131 127.34C211.331 127.24 211.561 127.21 211.771 127.28C211.981 127.35 212.161 127.49 212.271 127.69C212.381 127.89 212.401 128.12 212.331 128.33C212.261 128.54 212.121 128.72 211.921 128.83C211.801 128.9 211.661 128.93 211.521 128.93V128.93ZM211.521 127.3C211.391 127.3 211.261 127.33 211.151 127.39C210.771 127.6 210.621 128.08 210.831 128.46C210.931 128.65 211.101 128.78 211.301 128.84C211.501 128.9 211.721 128.88 211.901 128.78C212.281 128.57 212.431 128.09 212.231 127.71C212.131 127.52 211.961 127.39 211.761 127.33C211.681 127.31 211.611 127.3 211.531 127.3H211.521Z" fill="#263238"/>
<path d="M215.2 127.11C215.41 127.51 215.26 128 214.86 128.21C214.46 128.42 213.97 128.27 213.76 127.87C213.55 127.47 213.7 126.98 214.1 126.77C214.5 126.56 214.99 126.71 215.2 127.11V127.11Z" fill="#263238"/>
<path d="M214.49 128.33C214.41 128.33 214.33 128.32 214.24 128.29C214.03 128.22 213.85 128.08 213.74 127.88C213.63 127.68 213.61 127.45 213.68 127.24C213.74 127.02 213.89 126.85 214.09 126.74C214.5 126.52 215.01 126.68 215.23 127.09C215.45 127.5 215.29 128.01 214.88 128.23C214.76 128.3 214.62 128.33 214.49 128.33ZM214.49 126.7C214.36 126.7 214.24 126.73 214.12 126.79C213.93 126.89 213.8 127.06 213.74 127.26C213.68 127.46 213.7 127.68 213.8 127.86C213.9 128.05 214.07 128.18 214.27 128.24C214.47 128.3 214.69 128.28 214.87 128.18C215.25 127.97 215.4 127.49 215.2 127.11C215.06 126.84 214.78 126.69 214.5 126.69L214.49 126.7Z" fill="#263238"/>
<path d="M216.41 124.25L219.29 123.19L225.9 137.11L223.09 138.31L216.41 124.25Z" fill="#E0E0E0"/>
<path d="M149.56 118.74C149.56 118.74 149.65 119.29 149.73 120.3C149.84 121.39 149.99 122.82 150.16 124.54C150.58 128.21 151.13 133.1 151.74 138.52C152.34 143.98 152.83 148.94 153.05 152.54C153.17 154.34 153.22 155.8 153.23 156.81C153.23 157.82 153.21 158.38 153.18 158.38C153.14 158.38 153.09 157.82 153.03 156.82C152.96 155.82 152.85 154.37 152.68 152.57C152.36 148.99 151.82 144.04 151.22 138.58C150.62 133.12 150.08 128.17 149.79 124.58C149.64 122.78 149.56 121.33 149.52 120.32C149.5 119.31 149.52 118.75 149.55 118.75L149.56 118.74Z" fill="#263238"/>
<path d="M156.17 125.68C156.31 125.72 155.46 129.06 154.28 133.14C153.1 137.22 152.02 140.49 151.89 140.45C151.76 140.41 152.6 137.07 153.78 132.99C154.96 128.91 156.04 125.64 156.17 125.68Z" fill="#263238"/>
<path d="M178.51 144.9C178.45 144.93 178.14 144.45 177.84 143.58C177.54 142.71 177.3 141.44 177.39 140.03C177.48 138.62 177.88 137.38 178.28 136.56C178.68 135.73 179.06 135.3 179.11 135.33C179.26 135.4 178.06 137.35 177.91 140.06C177.72 142.77 178.67 144.85 178.51 144.91V144.9Z" fill="#263238"/>
<path d="M175.05 177.04L178.92 177.34L177.39 193.49L173.65 193.06L175.05 177.04Z" fill="#E0E0E0"/>
<path d="M107.94 97.65L87.0703 110.95C82.1703 114.39 80.1203 120.64 82.0103 126.32L98.0203 176.61L92.2503 222.31L137.98 220.37L136.87 200.34L132.99 164.5C132.27 157.85 130.62 151.34 128.08 145.16L107.94 97.64V97.65Z" fill="#14475F"/>
<path d="M86.1401 129.09L107.01 172.77C108.7 176.3 111.89 178.87 115.69 179.77L173.61 193.49L175.09 176.63L130.88 160L108.64 117.31C105.26 110.82 97.0901 108.52 90.8201 112.3C85.0601 115.77 83.0101 123.13 86.1401 129.08V129.09Z" fill="#14475F"/>
<path d="M175.09 176.62C175.09 176.62 175.01 176.61 174.85 176.56C174.67 176.5 174.45 176.42 174.17 176.33C173.54 176.1 172.66 175.79 171.55 175.39C169.24 174.54 165.94 173.33 161.85 171.82C153.6 168.74 142.14 164.45 129.16 159.6L129.07 159.56L129.02 159.47C127.79 157.02 126.49 154.46 125.17 151.85C121.54 144.79 117.93 138.14 114.55 132.14C112.86 129.14 111.23 126.31 109.69 123.66C108.92 122.34 108.17 121.07 107.45 119.84C107.1 119.22 106.73 118.63 106.35 118.08C106 117.5 105.57 117 105.17 116.5C103.52 114.51 101.5 113.22 99.6104 112.47C97.7104 111.72 95.9204 111.49 94.4804 111.56C91.5504 111.66 90.2104 112.8 90.1904 112.71C90.1904 112.71 90.2704 112.64 90.4304 112.54C90.6004 112.43 90.8404 112.26 91.2004 112.12C91.9004 111.8 93.0004 111.44 94.4704 111.36C95.9304 111.27 97.7604 111.46 99.7204 112.21C101.66 112.95 103.75 114.26 105.45 116.28C105.87 116.79 106.31 117.3 106.67 117.88C107.07 118.45 107.44 119.04 107.79 119.65C108.52 120.87 109.28 122.14 110.06 123.45C111.62 126.09 113.26 128.91 114.96 131.91C118.36 137.9 121.99 144.54 125.62 151.61C126.96 154.21 128.25 156.79 129.46 159.24L129.32 159.11C142.27 164.02 153.71 168.36 161.95 171.49C166.02 173.06 169.3 174.32 171.59 175.2C172.69 175.63 173.56 175.98 174.18 176.22C174.45 176.33 174.67 176.42 174.85 176.5C175 176.56 175.07 176.6 175.07 176.61L175.09 176.62Z" fill="#263238"/>
<path d="M165.25 187.14C165.25 187.59 164.88 187.96 164.43 187.96C163.98 187.96 163.61 187.59 163.61 187.14C163.61 186.69 163.98 186.32 164.43 186.32C164.88 186.32 165.25 186.69 165.25 187.14Z" fill="#263238"/>
<path d="M164.43 187.98C163.97 187.98 163.59 187.6 163.59 187.14C163.59 186.68 163.97 186.3 164.43 186.3C164.89 186.3 165.27 186.68 165.27 187.14C165.27 187.6 164.89 187.98 164.43 187.98ZM164.43 186.35C163.99 186.35 163.64 186.7 163.64 187.14C163.64 187.58 163.99 187.93 164.43 187.93C164.87 187.93 165.22 187.58 165.22 187.14C165.22 186.7 164.87 186.35 164.43 186.35Z" fill="#263238"/>
<path d="M168.35 187.95C168.35 188.4 167.98 188.77 167.53 188.77C167.08 188.77 166.71 188.4 166.71 187.95C166.71 187.5 167.08 187.13 167.53 187.13C167.98 187.13 168.35 187.5 168.35 187.95Z" fill="#263238"/>
<path d="M167.53 188.79C167.07 188.79 166.69 188.41 166.69 187.95C166.69 187.49 167.07 187.11 167.53 187.11C167.99 187.11 168.37 187.49 168.37 187.95C168.37 188.41 167.99 188.79 167.53 188.79ZM167.53 187.16C167.09 187.16 166.74 187.52 166.74 187.95C166.74 188.38 167.09 188.74 167.53 188.74C167.97 188.74 168.32 188.38 168.32 187.95C168.32 187.52 167.97 187.16 167.53 187.16Z" fill="#263238"/>
<path d="M170.43 189.64C170.883 189.64 171.25 189.273 171.25 188.82C171.25 188.367 170.883 188 170.43 188C169.977 188 169.61 188.367 169.61 188.82C169.61 189.273 169.977 189.64 170.43 189.64Z" fill="#263238"/>
<path d="M170.43 189.66C169.97 189.66 169.59 189.28 169.59 188.82C169.59 188.36 169.97 187.98 170.43 187.98C170.89 187.98 171.27 188.36 171.27 188.82C171.27 189.28 170.89 189.66 170.43 189.66ZM170.43 188.03C169.99 188.03 169.64 188.38 169.64 188.82C169.64 189.26 169.99 189.61 170.43 189.61C170.87 189.61 171.22 189.25 171.22 188.82C171.22 188.39 170.87 188.03 170.43 188.03Z" fill="#263238"/>
<path d="M173.61 193.49C173.61 193.49 173.51 193.49 173.33 193.45C173.12 193.4 172.85 193.34 172.52 193.27C171.77 193.09 170.73 192.84 169.4 192.52C166.66 191.84 162.75 190.88 157.95 189.7C148.28 187.33 134.93 183.97 120.13 180.54C118.28 180.1 116.44 179.75 114.64 179.26C112.85 178.77 111.07 178.04 109.69 176.79C108.31 175.54 107.43 173.94 106.66 172.4C105.92 170.84 105.19 169.32 104.48 167.83C101.66 161.89 99.1303 156.53 96.9903 152.02C94.8903 147.54 93.1802 143.9 91.9802 141.34C91.4102 140.1 90.9603 139.13 90.6403 138.43C90.5003 138.12 90.3902 137.87 90.3002 137.67C90.2302 137.5 90.1903 137.41 90.2003 137.4C90.2003 137.4 90.2603 137.48 90.3503 137.65C90.4503 137.84 90.5802 138.09 90.7302 138.39C91.0702 139.08 91.5503 140.04 92.1603 141.26C93.4003 143.8 95.1503 147.42 97.3203 151.87C99.4903 156.37 102.06 161.71 104.91 167.63C105.63 169.11 106.36 170.63 107.11 172.18C107.88 173.71 108.74 175.25 110.04 176.42C111.34 177.59 113.03 178.29 114.79 178.77C116.56 179.25 118.41 179.6 120.26 180.05C135.07 183.48 148.4 186.89 158.05 189.36C162.84 190.61 166.73 191.63 169.46 192.34C170.78 192.7 171.81 192.98 172.56 193.18C172.89 193.28 173.15 193.35 173.36 193.41C173.54 193.47 173.63 193.5 173.63 193.51L173.61 193.49Z" fill="#263238"/>
<path d="M126.83 190.75C126.83 190.75 126.6 190.99 126.14 191.33C125.68 191.68 124.99 192.16 124.13 192.74C122.41 193.88 119.95 195.43 116.94 196.48C113.92 197.54 110.94 197.67 108.88 197.29C107.85 197.11 107.04 196.84 106.5 196.61C105.96 196.38 105.69 196.21 105.7 196.18C105.74 196.09 106.9 196.67 108.93 196.93C110.95 197.21 113.82 197.02 116.77 195.99C119.72 194.96 122.17 193.49 123.94 192.43C125.7 191.36 126.79 190.69 126.83 190.75V190.75Z" fill="#263238"/>
<path d="M129.37 196.55C129.37 196.55 129.44 196.67 129.51 196.93C129.6 197.18 129.68 197.56 129.78 198.05C129.96 199.04 130.05 200.51 129.74 202.29C129.41 204.06 128.65 206.14 127.14 208.02C125.65 209.91 123.37 211.45 120.7 212.21C118.03 212.95 115.27 212.81 113.02 211.97C110.76 211.15 109.02 209.76 107.83 208.42C106.64 207.06 105.96 205.75 105.6 204.81C105.42 204.34 105.3 203.97 105.25 203.71C105.19 203.45 105.16 203.32 105.18 203.31C105.3 203.24 105.71 205.55 108.11 208.16C109.31 209.43 111.01 210.74 113.19 211.51C115.36 212.3 118 212.41 120.57 211.7C123.13 210.97 125.33 209.51 126.78 207.71C128.25 205.92 129.03 203.92 129.39 202.22C130.08 198.74 129.24 196.55 129.39 196.55H129.37Z" fill="#263238"/>
<path d="M110.19 57.84L110.32 95.1C110.34 101.44 115.66 106.47 121.99 106.13C127.9 105.82 132.52 100.92 132.49 95C132.48 92.2 132.47 89.86 132.49 89.57C132.49 89.57 141.97 88.64 142.62 79.25C142.93 74.71 142.82 65.31 142.62 56.81C142.41 47.68 135.2 40.25 126.08 39.73L125.17 39.68C115.36 39.69 109.89 48.03 110.18 57.84H110.19Z" fill="#914F4E"/>
<path d="M132.51 89.44C132.51 89.44 126.54 89.58 120.46 85.26C120.46 85.26 122.97 92.19 132.4 91.88L132.52 89.44H132.51Z" fill="#914F4E"/>
<path d="M140.3 62.34C140.28 63.05 139.67 63.62 138.93 63.62C138.19 63.62 137.6 63.04 137.62 62.33C137.64 61.62 138.25 61.05 138.99 61.05C139.73 61.05 140.32 61.63 140.31 62.34H140.3Z" fill="#263238"/>
<path d="M140.56 60.76C140.38 60.93 139.41 60.11 137.97 60.04C136.53 59.94 135.43 60.62 135.28 60.44C135.21 60.36 135.39 60.05 135.88 59.74C136.35 59.43 137.15 59.15 138.05 59.21C138.95 59.27 139.69 59.64 140.1 60C140.52 60.37 140.66 60.69 140.57 60.76H140.56Z" fill="#263238"/>
<path d="M126.26 62.23C126.24 62.94 125.63 63.51 124.89 63.51C124.15 63.51 123.56 62.93 123.58 62.22C123.6 61.51 124.21 60.94 124.95 60.94C125.69 60.94 126.28 61.52 126.27 62.23H126.26Z" fill="#263238"/>
<path d="M126.19 60.43C126.01 60.6 125.04 59.79 123.59 59.71C122.15 59.61 121.05 60.29 120.9 60.11C120.83 60.03 121.01 59.72 121.5 59.41C121.97 59.1 122.77 58.82 123.67 58.87C124.57 58.93 125.31 59.3 125.72 59.66C126.14 60.03 126.28 60.35 126.19 60.42V60.43Z" fill="#263238"/>
<path d="M130.76 71.78C130.76 71.7 131.66 71.59 133.13 71.49C133.5 71.47 133.85 71.42 133.93 71.17C134.03 70.91 133.9 70.5 133.75 70.06C133.45 69.15 133.14 68.19 132.82 67.19C131.53 63.11 130.62 59.76 130.79 59.71C130.96 59.66 132.13 62.93 133.42 67.01C133.73 68.02 134.02 68.98 134.3 69.89C134.42 70.32 134.63 70.81 134.41 71.35C134.3 71.62 134.01 71.8 133.77 71.85C133.53 71.91 133.32 71.9 133.14 71.9C131.67 71.9 130.76 71.85 130.76 71.77V71.78Z" fill="#263238"/>
<path d="M126.771 57.43C126.611 57.81 125.171 57.55 123.471 57.65C121.761 57.72 120.371 58.14 120.161 57.78C120.071 57.61 120.331 57.25 120.901 56.9C121.471 56.55 122.361 56.24 123.391 56.19C124.411 56.14 125.341 56.35 125.941 56.64C126.551 56.93 126.841 57.25 126.771 57.44V57.43Z" fill="#263238"/>
<path d="M140.441 57.31C140.171 57.62 139.191 57.23 138.001 57.14C136.811 57.01 135.781 57.23 135.561 56.88C135.471 56.71 135.651 56.39 136.111 56.1C136.561 55.82 137.311 55.6 138.131 55.68C138.951 55.75 139.651 56.09 140.041 56.45C140.441 56.81 140.561 57.16 140.441 57.31V57.31Z" fill="#263238"/>
<path d="M110.56 64.84C110.4 64.76 104.21 62.56 104.05 69C103.89 75.44 110.38 74.27 110.4 74.09C110.42 73.91 110.56 64.85 110.56 64.85V64.84Z" fill="#914F4E"/>
<path d="M108.49 71.6001C108.49 71.6001 108.38 71.6801 108.18 71.7601C107.99 71.8401 107.67 71.8901 107.34 71.7601C106.67 71.4901 106.12 70.4001 106.12 69.2401C106.12 68.6501 106.25 68.1001 106.47 67.6401C106.68 67.1701 106.99 66.8501 107.33 66.8001C107.67 66.7301 107.91 66.9401 107.98 67.1201C108.06 67.3001 108.02 67.4301 108.05 67.4401C108.07 67.4601 108.19 67.3401 108.15 67.0701C108.13 66.9401 108.05 66.7901 107.91 66.6601C107.76 66.5301 107.53 66.4601 107.29 66.4801C106.79 66.5001 106.33 66.9501 106.09 67.4501C105.82 67.9501 105.65 68.5801 105.66 69.2301C105.66 70.5301 106.3 71.7601 107.23 72.0501C107.68 72.1801 108.06 72.0501 108.26 71.9101C108.46 71.7601 108.5 71.6101 108.48 71.6001H108.49Z" fill="#914F4E"/>
<path d="M107 64.42C107.99 64.24 109.64 65.24 110 66.18C110.37 67.12 110.4 68.17 110.76 69.11C111.12 70.05 112.02 70.94 113.01 70.76C113.7 70.64 114.22 70.03 114.43 69.37C114.65 68.71 114.61 67.99 114.57 67.3C114.36 64.28 113.9 61.27 113.95 58.24C114 55.21 114.61 52.1 116.34 49.61C118.07 47.13 121.1 45.4 124.1 45.81C126.09 46.08 127.86 47.23 129.83 47.62C132.16 48.08 134.7 47.4 136.48 45.81C136.54 45.76 136.66 45.67 136.8 45.58C137.45 45.16 137.78 44.35 137.53 43.61C137.45 43.36 137.34 43.13 137.19 42.97C133.46 39.11 126.43 37.69 121.16 38.7C115.89 39.71 110.8 43.1 108.29 47.85C105.78 52.59 106.05 59.41 107 64.41" fill="#263238"/>
<path d="M127.35 72.92C127.58 72.91 127.59 74.47 128.93 75.58C130.27 76.69 131.93 76.52 131.95 76.74C131.97 76.84 131.58 77.04 130.87 77.06C130.18 77.08 129.17 76.86 128.35 76.18C127.53 75.5 127.18 74.59 127.13 73.95C127.07 73.3 127.24 72.91 127.35 72.92V72.92Z" fill="#263238"/>
<path d="M217.21 125.83C217.21 125.83 224.26 119.64 225.59 119.18C226.93 118.73 237.53 118.53 238.25 119.06C238.97 119.59 249.71 125.48 247.93 126.38C246.15 127.28 238.7 123.06 238.7 123.06L237.45 123.23C237.45 123.23 243.95 126.7 245.11 128.04C246.18 129.27 245.16 130.74 243.94 130.18C242.73 129.62 237.15 126.4 236.71 126.52C236.27 126.64 242.65 130.38 243.24 131.07C244.03 132 243.52 133.8 242.3 133.28C241.58 132.97 235.69 129.07 235.69 129.07C235.69 129.07 240.13 132.81 240.45 133.43C240.97 134.43 239.97 135.34 238.95 134.71C238.25 134.28 235.22 131.3 234.28 130.73C234.28 130.73 233.24 130.66 231.71 132.29C230.18 133.92 224.14 136.16 224.14 136.16L217.23 125.84L217.21 125.83Z" fill="#914F4E"/>
<path d="M247.9 126.41C247.9 126.48 247.02 126.53 245.62 126.27C244.93 126.13 244.11 125.91 243.23 125.56C242.39 125.16 241.48 124.7 240.53 124.21C239.83 123.85 239.15 123.5 238.51 123.16L238.64 123.19C235.48 123.22 233.19 123.16 233.19 123.03C233.19 122.9 235.47 122.75 238.64 122.64H238.7L238.77 122.67C239.41 122.99 240.08 123.33 240.78 123.68C241.71 124.16 242.59 124.62 243.43 125.05C244.26 125.42 245.04 125.67 245.7 125.85C247.03 126.21 247.89 126.3 247.89 126.38L247.9 126.41Z" fill="#914F4E"/>
<path d="M219.831 127.62C220.301 128.51 221.501 128.74 222.481 128.53C223.461 128.32 224.351 127.79 225.311 127.51C228.201 126.68 231.401 128.22 234.251 127.25C234.651 127.11 235.091 126.82 235.041 126.41C235.001 126.02 234.561 125.83 234.191 125.71C231.031 124.7 227.871 123.7 224.711 122.69" fill="#914F4E"/>
<path d="M224.72 122.69C224.72 122.69 225.11 122.73 225.78 122.91C226.45 123.09 227.41 123.36 228.6 123.71C229.83 124.08 231.23 124.51 232.76 124.97C233.15 125.09 233.55 125.22 233.96 125.34C234.33 125.49 234.88 125.51 235.24 126.1C235.4 126.4 235.3 126.82 235.09 127.03C234.89 127.25 234.65 127.38 234.41 127.47C233.94 127.63 233.47 127.74 232.98 127.79C231.01 127.99 229.23 127.53 227.63 127.5C226.83 127.47 226.07 127.53 225.4 127.71C224.73 127.89 224.11 128.19 223.52 128.4C222.34 128.89 221.18 128.8 220.55 128.42C219.9 128.05 219.8 127.59 219.83 127.6C219.88 127.56 220.04 127.95 220.65 128.23C221.26 128.51 222.26 128.54 223.37 128.03C223.93 127.8 224.54 127.48 225.27 127.26C226 127.04 226.81 126.96 227.64 126.98C229.31 126.99 231.1 127.42 232.91 127.23C233.36 127.19 233.8 127.08 234.2 126.95C234.59 126.81 234.85 126.53 234.73 126.34C234.63 126.12 234.19 125.98 233.79 125.85C233.38 125.72 232.99 125.59 232.59 125.46C231.07 124.95 229.69 124.49 228.46 124.08C227.29 123.68 226.34 123.35 225.69 123.1C225.04 122.86 224.69 122.71 224.7 122.67L224.72 122.69Z" fill="#914F4E"/>
<path d="M177.18 177.43L188.87 176.27C188.87 176.27 204.33 186.86 202.85 189.19C201.37 191.52 198.83 189.19 198.83 189.19C198.83 189.19 201.58 192.58 197.14 193.64C197.14 193.64 196.08 195.97 194.39 195.76H193.33C193.33 195.76 192.37 198.72 190.94 198.09C189.51 197.45 185.2 193.64 185.2 193.64L173.21 192.58L177.19 177.43H177.18Z" fill="#914F4E"/>
<path d="M184.45 189.49C184.45 189.49 181.46 190.64 180.83 191.84C180.21 193.04 179.85 195.88 181.78 196.39C182.52 196.59 185.18 196.28 185.18 196.28L184.44 193.13C184.44 193.13 185.56 191.84 186.23 191.28C186.87 190.75 186.17 188.68 184.45 189.48V189.49Z" fill="#914F4E"/>
<path d="M187.82 191.09C187.82 191.09 184.83 192.24 184.2 193.44C183.58 194.64 183.99 196.66 185.92 197.18C186.66 197.38 189.01 197.07 189.01 197.07L188.7 196.46C188.09 195.28 187.83 194.32 188.9 193.54C188.96 193.5 189.56 192.94 189.6 192.9C190.19 192.35 189.54 190.3 187.82 191.1V191.09Z" fill="#914F4E"/>
<path d="M188.54 196.96C187.99 196.46 187.94 195.56 188.3 194.9C188.66 194.25 189.34 193.82 190.06 193.62C190.53 193.49 191.11 193.47 191.43 193.84C191.63 194.08 191.66 194.43 191.62 194.74C191.51 195.57 190.97 196.27 190.45 196.93C190.17 197.28 189.83 197.66 189.38 197.65C188.92 197.64 188.6 197.22 188.34 196.84" fill="#914F4E"/>
<path d="M125.36 102.71L127.98 101.71L130.26 105.78L128.99 110.13L126.31 110.79L123.64 107.42L125.36 102.71Z" fill="#14475F"/>
<path d="M126.31 110.79C126.31 110.79 129.71 129.5 132.55 142.66C132.55 142.66 134.88 153.62 135.82 156.14C136.87 158.96 140.11 163.18 140.11 163.18L143.4 164.45L141.39 145.96L129 110.12L126.32 110.78L126.31 110.79Z" fill="#14475F"/>
<g opacity="0.4">
<path d="M125.36 102.71L127.98 101.71L130.26 105.78L128.99 110.13L126.31 110.79L123.64 107.42L125.36 102.71Z" fill="black"/>
</g>
<g opacity="0.4">
<path d="M126.31 110.79C126.31 110.79 129.71 129.5 132.55 142.66C132.55 142.66 135.21 153.51 135.82 156.14C136.17 157.69 140.11 163.18 140.11 163.18L143.4 164.45L141.39 145.96L129 110.12L126.32 110.78L126.31 110.79Z" fill="black"/>
</g>
<path d="M109.58 91.34L125.36 102.71L121.95 112.09L107.59 97.31L109.58 91.34Z" fill="#F5F5F5"/>
<path d="M127.98 101.71L132.39 91.88L134.89 99.99L131.42 108.52L127.98 101.71Z" fill="#F5F5F5"/>
<path d="M125.361 102.71C125.361 102.71 125.321 102.97 125.181 103.43C125.001 103.97 124.791 104.62 124.541 105.39C123.981 107.06 123.151 109.42 122.171 112.17L122.031 112.55L121.761 112.25C120.621 110.99 119.381 109.62 118.081 108.19C115.221 105.02 112.661 102.13 110.821 100.02C109.961 99.02 109.241 98.18 108.661 97.5C108.161 96.9 107.901 96.55 107.921 96.53C107.951 96.51 108.261 96.8 108.811 97.36C109.421 98.01 110.181 98.81 111.091 99.77C113.001 101.82 115.611 104.67 118.461 107.84C119.751 109.28 120.981 110.65 122.111 111.92L121.701 112C122.721 109.26 123.601 106.93 124.241 105.28C124.541 104.53 124.801 103.9 125.011 103.37C125.201 102.93 125.311 102.69 125.341 102.7L125.361 102.71Z" fill="#263238"/>
<path d="M134.89 99.99C134.96 100.02 134.67 100.89 134.15 102.29C133.63 103.69 132.89 105.6 132.03 107.71C131.9 108.02 131.78 108.33 131.66 108.62L131.4 109.25L131.18 108.61C129.84 104.77 127.9 102.23 128.03 102.15C128.08 102.11 128.62 102.7 129.35 103.79C130.08 104.88 130.97 106.49 131.67 108.44H131.19C131.31 108.14 131.43 107.83 131.56 107.52C132.41 105.42 133.22 103.52 133.82 102.16C134.42 100.8 134.83 99.97 134.9 100L134.89 99.99Z" fill="#263238"/>
<path d="M335.44 396.1L341.52 420.24L351.84 437.95C352.58 439.23 352.09 440.87 350.77 441.52C350.03 441.89 349.16 441.88 348.43 441.48C343.8 438.98 326.8 429.7 326.45 427.91C326.05 425.83 318.34 402.87 318.34 402.87L335.43 396.1H335.44Z" fill="#14475F"/>
<g opacity="0.6">
<path d="M350.77 441.53L326.01 426.3L326.29 427.32C326.53 428.2 327.08 428.97 327.83 429.48C329.85 430.85 335.51 434.51 348.36 441.52C349.11 441.93 350.01 441.93 350.77 441.54V441.53Z" fill="white"/>
</g>
<g opacity="0.6">
<path d="M328.79 417.19C329.51 417.44 329.95 418.29 329.73 419.02C329.51 419.75 328.64 420.21 327.92 419.97C327.2 419.73 326.63 418.72 326.93 418.03C327.23 417.33 328.28 416.85 328.92 417.25" fill="white"/>
</g>
<path d="M342.39 432.56C342.54 432.59 342.74 431.18 343.98 430.11C345.19 429 346.61 428.97 346.6 428.82C346.6 428.76 346.25 428.65 345.67 428.73C345.09 428.8 344.3 429.11 343.62 429.71C342.95 430.31 342.55 431.06 342.41 431.63C342.27 432.2 342.33 432.57 342.39 432.57V432.56Z" fill="#263238"/>
<path d="M344.981 435.3C345.121 435.37 345.681 434.38 346.821 433.68C347.951 432.96 349.081 432.89 349.081 432.73C349.121 432.59 347.821 432.4 346.531 433.22C345.231 434.02 344.841 435.27 344.981 435.3V435.3Z" fill="#263238"/>
<path d="M338.07 429.32C338.21 429.4 339.06 427.87 340.74 426.63C342.4 425.36 344.11 424.98 344.07 424.82C344.07 424.68 342.2 424.84 340.41 426.2C338.61 427.54 337.93 429.29 338.07 429.33V429.32Z" fill="#263238"/>
<path d="M335.6 422.13C335.7 422.26 336.88 421.34 338.58 420.8C340.28 420.24 341.77 420.3 341.78 420.13C341.81 419.99 340.24 419.68 338.41 420.28C336.58 420.86 335.49 422.04 335.59 422.13H335.6Z" fill="#263238"/>
<path d="M333.64 415.09C333.75 415.21 334.86 414.04 336.71 413.62C338.55 413.16 340.07 413.7 340.11 413.54C340.14 413.48 339.79 413.25 339.15 413.08C338.51 412.91 337.57 412.85 336.58 413.08C335.59 413.32 334.78 413.8 334.29 414.24C333.79 414.68 333.59 415.04 333.64 415.08V415.09Z" fill="#263238"/>
<path d="M336.29 412.29C336.29 412.29 336.29 411.94 336.07 411.37C335.86 410.8 335.45 409.99 334.69 409.19C334.31 408.82 333.88 408.32 333.12 408.19C332.74 408.12 332.26 408.32 332.07 408.72C331.87 409.11 331.89 409.53 331.99 409.91C332.44 411.43 334.15 412.54 335.93 412.28C337.7 411.99 338.99 410.58 339.31 409.08C339.37 408.7 339.35 408.25 339.05 407.9C338.75 407.54 338.22 407.51 337.89 407.67C337.21 407.97 336.87 408.51 336.54 408.93C335.9 409.82 335.58 410.66 335.42 411.25C335.26 411.84 335.25 412.18 335.28 412.18C335.38 412.22 335.56 410.83 336.85 409.16C337.18 408.77 337.56 408.28 338.06 408.09C338.3 408 338.55 408.04 338.69 408.21C338.84 408.38 338.87 408.69 338.81 409C338.53 410.24 337.35 411.52 335.85 411.74C334.36 411.97 332.85 410.99 332.48 409.77C332.4 409.48 332.39 409.16 332.5 408.94C332.61 408.72 332.83 408.61 333.08 408.64C333.6 408.7 334.05 409.12 334.42 409.47C335.92 410.95 336.19 412.35 336.29 412.29V412.29Z" fill="#263238"/>
<path d="M260.03 400.61L261.32 419.22C261.32 419.22 242.84 426.78 242.74 430.24L278.91 429.04L278.09 399.96L260.03 400.61V400.61Z" fill="#14475F"/>
<path d="M272.451 417.28C273.161 417.45 273.671 418.22 273.531 418.93C273.391 419.64 272.611 420.17 271.901 420.01C271.191 419.85 270.551 418.95 270.771 418.25C270.991 417.56 271.941 416.99 272.591 417.31" fill="#E0E0E0"/>
<path d="M278.91 429.03L278.71 426.1L244.1 428.35C244.1 428.35 242.51 429.1 242.73 430.23L278.9 429.03H278.91Z" fill="#E0E0E0"/>
<path d="M260.73 419.05C260.74 419.23 261.63 419.28 262.52 419.82C263.42 420.34 263.9 421.09 264.06 421.01C264.22 420.97 263.92 419.92 262.84 419.29C261.76 418.65 260.7 418.89 260.74 419.05H260.73Z" fill="#263238"/>
<path d="M256.99 420.75C256.96 420.92 257.73 421.2 258.35 421.92C259 422.63 259.17 423.43 259.35 423.42C259.52 423.44 259.6 422.4 258.81 421.51C258.02 420.61 256.98 420.57 256.98 420.74L256.99 420.75Z" fill="#263238"/>
<path d="M254.98 425.36C255.14 425.39 255.36 424.5 254.87 423.55C254.39 422.59 253.55 422.24 253.48 422.39C253.39 422.54 253.94 423.04 254.33 423.83C254.73 424.61 254.81 425.35 254.99 425.36H254.98Z" fill="#263238"/>
<path d="M260.91 414.78C260.99 414.94 261.79 414.67 262.79 414.7C263.79 414.71 264.58 415.02 264.67 414.87C264.77 414.74 263.99 414.11 262.81 414.09C261.63 414.06 260.82 414.65 260.91 414.78V414.78Z" fill="#263238"/>
<path d="M260.72 411.02C260.72 411.09 261.42 411.18 262.53 410.95C263.08 410.84 263.73 410.63 264.41 410.3C264.75 410.14 265.09 409.94 265.43 409.71C265.59 409.6 265.79 409.48 265.96 409.27C266.15 409.08 266.25 408.61 266.01 408.33C265.82 408.06 265.48 407.95 265.22 407.95C264.95 407.95 264.74 408.01 264.54 408.07C264.14 408.18 263.77 408.33 263.43 408.49C262.75 408.83 262.2 409.24 261.8 409.64C260.99 410.45 260.72 411.11 260.78 411.15C260.86 411.21 261.25 410.64 262.08 409.97C262.5 409.64 263.03 409.29 263.67 409.01C263.99 408.87 264.33 408.75 264.7 408.65C265.08 408.54 265.41 408.52 265.51 408.69C265.55 408.75 265.55 408.78 265.48 408.89C265.4 409 265.25 409.1 265.09 409.21C264.78 409.43 264.46 409.62 264.15 409.79C263.53 410.12 262.93 410.36 262.42 410.52C261.39 410.84 260.71 410.91 260.72 411.01V411.02Z" fill="#263238"/>
<path d="M260.95 411.26C261.01 411.29 261.34 410.64 261.37 409.49C261.38 408.92 261.3 408.24 261.06 407.51C260.94 407.15 260.77 406.78 260.56 406.43C260.34 406.08 260.06 405.61 259.37 405.55C259.01 405.55 258.72 405.84 258.63 406.08C258.52 406.33 258.5 406.54 258.47 406.75C258.42 407.17 258.44 407.59 258.51 407.97C258.65 408.74 258.99 409.37 259.35 409.82C260.09 410.73 260.83 410.92 260.85 410.86C260.91 410.77 260.28 410.45 259.71 409.57C259.43 409.13 259.17 408.56 259.08 407.89C259.03 407.56 259.03 407.2 259.08 406.84C259.12 406.45 259.26 406.14 259.4 406.17C259.58 406.17 259.9 406.44 260.05 406.74C260.25 407.06 260.41 407.39 260.53 407.71C260.78 408.36 260.9 408.98 260.94 409.51C261.02 410.57 260.86 411.24 260.96 411.26H260.95Z" fill="#263238"/>
<path d="M250.16 198.18L255.98 414.73L284.51 413.88L282.32 228.01L318.68 419.04L344.45 412.32L311.18 198.59L250.16 198.18Z" fill="#263238"/>
<path d="M265.8 415.02C265.66 415.02 265.54 370.13 265.54 314.77C265.54 259.41 265.66 214.51 265.8 214.51C265.94 214.51 266.06 259.39 266.06 314.77C266.06 370.15 265.94 415.02 265.8 415.02Z" fill="#455A64"/>
<path d="M326.82 418.98C326.68 419 320.01 375.96 311.93 322.86C303.85 269.74 297.41 226.68 297.56 226.65C297.7 226.63 304.37 269.66 312.45 322.78C320.53 375.88 326.96 418.96 326.82 418.98Z" fill="#455A64"/>
<path d="M291.05 62.76C291.9 60.45 293 58.28 293.46 55.87C293.8 54.07 294.34 51.37 293.62 49.69C292.9 48.01 291.15 46.4 288.95 46.85C288.4 43.29 286.51 40.41 282.91 38.66C279.67 37.09 276.49 36.32 272.9 36.06C271.82 35.98 270.13 36.06 269.15 36.53C268.17 37.01 267.27 37.98 266.9 38.96C265.01 37.47 262.3 37.03 259.55 37.78C256.8 38.53 253.66 40.01 252.45 42.6C251.7 44.2 251.43 46.18 252.23 48.7C252.77 50.38 254.54 53.02 256.2 52.41" fill="#263238"/>
<path d="M277.14 109.46C270.18 109.32 264.71 103.45 265.06 96.49C265.23 93.03 265.39 90.25 265.39 90.25C265.39 90.25 255.97 89.03 255.62 79.65C255.27 70.28 256.35 48.7 256.35 48.7C267.09 43.76 279.66 45.02 289.2 51.99L290.62 53.02L289.74 97.34C289.6 104.17 283.96 109.59 277.13 109.45L277.14 109.46Z" fill="#914F4E"/>
<path d="M265.37 90.12C265.37 90.12 271.31 90.45 277.51 86.34C277.51 86.34 274.62 93.62 265.24 93.01L265.37 90.13V90.12Z" fill="#914F4E"/>
<path d="M289.71 62.7799C289.87 62.7099 296.11 60.7099 296.06 67.1299C296.02 73.5499 289.58 72.1799 289.57 71.9899C289.57 71.8099 289.7 62.7799 289.7 62.7799H289.71Z" fill="#914F4E"/>
<path d="M291.55 69.5799C291.55 69.5799 291.66 69.6599 291.85 69.7499C292.03 69.8399 292.35 69.8999 292.69 69.7699C293.37 69.5299 293.95 68.4499 293.99 67.2999C294.01 66.7199 293.89 66.1599 293.69 65.6999C293.5 65.2299 293.2 64.8999 292.86 64.8399C292.52 64.7599 292.28 64.9599 292.2 65.1399C292.11 65.3199 292.15 65.4499 292.12 65.4599C292.1 65.4799 291.98 65.3499 292.04 65.0899C292.07 64.9599 292.14 64.8099 292.3 64.6899C292.45 64.5699 292.68 64.4999 292.92 64.5299C293.41 64.5699 293.86 65.0299 294.08 65.5299C294.33 66.0399 294.48 66.6699 294.46 67.3199C294.41 68.6099 293.74 69.8199 292.81 70.0799C292.36 70.1899 291.98 70.0599 291.79 69.8999C291.59 69.7399 291.56 69.5999 291.58 69.5899L291.55 69.5799Z" fill="#914F4E"/>
<path d="M258.79 63.35C258.79 64.06 259.38 64.65 260.12 64.67C260.86 64.69 261.46 64.14 261.47 63.43C261.47 62.72 260.88 62.13 260.15 62.11C259.41 62.09 258.81 62.65 258.8 63.35H258.79Z" fill="#263238"/>
<path d="M258.46 61.86C258.63 62.03 259.63 61.25 261.07 61.22C262.51 61.17 263.58 61.88 263.74 61.7C263.81 61.62 263.64 61.31 263.17 60.99C262.71 60.67 261.93 60.36 261.03 60.39C260.13 60.42 259.39 60.77 258.96 61.12C258.53 61.47 258.38 61.79 258.47 61.87L258.46 61.86Z" fill="#263238"/>
<path d="M272.91 63.3399C272.91 64.0499 273.5 64.64 274.23 64.66C274.97 64.68 275.57 64.1299 275.58 63.4199C275.58 62.7099 274.99 62.1199 274.26 62.0999C273.52 62.0799 272.92 62.6399 272.91 63.3399V63.3399Z" fill="#263238"/>
<path d="M272.63 61.7699C272.8 61.9399 273.8 61.1599 275.24 61.1299C276.68 61.0799 277.76 61.7899 277.91 61.6099C277.98 61.5299 277.81 61.2199 277.34 60.8999C276.88 60.5799 276.1 60.2699 275.2 60.2999C274.3 60.3299 273.56 60.6799 273.13 61.0299C272.7 61.3799 272.55 61.6999 272.64 61.7799L272.63 61.7699Z" fill="#263238"/>
<path d="M267.67 72.5899C267.67 72.5099 266.78 72.3799 265.32 72.2299C264.95 72.1999 264.6 72.1399 264.53 71.8899C264.44 71.6299 264.58 71.2299 264.75 70.7899C265.07 69.8899 265.41 68.9499 265.77 67.9599C267.18 63.9299 268.19 60.6199 268.03 60.5699C267.87 60.5099 266.59 63.7299 265.18 67.7599C264.84 68.7499 264.52 69.6999 264.21 70.6099C264.08 71.0299 263.85 71.5099 264.06 72.0599C264.17 72.3299 264.44 72.5299 264.68 72.5799C264.92 72.6499 265.12 72.6399 265.31 72.6499C266.77 72.6899 267.68 72.6799 267.68 72.5899H267.67Z" fill="#263238"/>
<path d="M271.94 73.4799C271.71 73.4799 271.74 75.0399 270.43 76.1799C269.12 77.3299 267.45 77.1899 267.44 77.4099C267.42 77.5099 267.82 77.6999 268.52 77.7099C269.21 77.7099 270.21 77.4699 271.02 76.7699C271.82 76.0699 272.15 75.1499 272.19 74.5099C272.23 73.8499 272.05 73.4699 271.94 73.4799Z" fill="#263238"/>
<path d="M272.12 56.13C272.27 56.52 273.71 56.3 275.4 56.46C277.1 56.59 278.48 57.05 278.69 56.69C278.79 56.52 278.54 56.16 277.98 55.79C277.42 55.43 276.54 55.09 275.53 55C274.51 54.91 273.59 55.1 272.98 55.36C272.37 55.63 272.06 55.94 272.13 56.13H272.12Z" fill="#263238"/>
<path d="M258.89 57.6699C259.15 57.9899 260.14 57.6299 261.33 57.5799C262.52 57.4899 263.54 57.7399 263.76 57.3999C263.86 57.2299 263.69 56.9099 263.24 56.6099C262.8 56.3099 262.06 56.0799 261.24 56.1199C260.42 56.1699 259.72 56.4799 259.31 56.8299C258.9 57.1799 258.77 57.5199 258.88 57.6699H258.89Z" fill="#263238"/>
<path d="M291.12 53.78C291.06 56.52 291.75 59.54 291.34 62.24C291.28 62.65 290.25 63.76 290.17 64.16C289.68 66.55 288.72 67.59 287.25 65.18C286.68 64.25 286.27 61.64 286.03 60.58C285.39 57.71 284.75 54.84 284.11 51.96C281.9 53.06 279.49 53.92 277.02 53.83C274.55 53.74 272.02 52.56 270.84 50.39C269.72 52.36 267.67 53.78 265.44 54.13C263.2 54.48 260.82 53.76 259.15 52.23C258.35 53.59 256.36 54.01 255 53.23C253.63 52.44 252.98 50.66 253.37 49.13C253.96 46.83 256.38 45.52 258.64 44.79C267.49 41.94 277.41 43.75 285.54 48.25C286.73 48.91 287.9 49.63 288.84 50.61C289.78 51.59 291.08 52.73 291.15 54.09" fill="#263238"/>
<path d="M284.38 53.03C284.4 53.12 284.99 52.91 285.84 53.26C286.26 53.43 286.72 53.72 287.18 54.12C287.64 54.52 288.09 55.04 288.64 55.55C289.18 56.06 289.8 56.5 290.46 56.7C291.12 56.9 291.75 56.86 292.24 56.72C293.23 56.44 293.63 55.9 293.58 55.86C293.53 55.79 293.06 56.19 292.16 56.34C291.72 56.41 291.17 56.41 290.62 56.21C290.07 56.02 289.53 55.63 289.02 55.14C288.5 54.66 288.03 54.14 287.51 53.72C287 53.31 286.46 53.02 285.97 52.88C284.96 52.58 284.34 52.97 284.39 53.01L284.38 53.03Z" fill="#455A64"/>
<path d="M285.47 55.83C285.48 55.91 285.95 55.84 286.49 56.28C286.75 56.49 287.01 56.82 287.31 57.21C287.6 57.6 288.02 58.04 288.53 58.34C289.56 58.98 290.7 59.08 291.45 58.96C292.22 58.84 292.62 58.56 292.59 58.5C292.56 58.42 292.12 58.56 291.41 58.57C290.71 58.58 289.71 58.44 288.81 57.87C287.89 57.35 287.44 56.38 286.7 55.96C285.98 55.52 285.41 55.76 285.46 55.83H285.47Z" fill="#455A64"/>
<path d="M260.74 37.59C260.74 37.59 260.44 37.51 259.92 37.67C259.41 37.82 258.69 38.23 258.11 39.03C256.96 40.64 256.7 43.5 257.59 46.26C258.49 49.07 260.54 51.01 262.18 51.91C263 52.38 263.73 52.64 264.23 52.79C264.74 52.93 265.03 52.96 265.04 52.93C265.07 52.83 263.93 52.58 262.38 51.59C260.85 50.63 258.96 48.76 258.11 46.1C257.26 43.48 257.47 40.76 258.43 39.26C258.91 38.51 259.54 38.09 259.99 37.88C260.45 37.68 260.74 37.65 260.74 37.6V37.59Z" fill="#455A64"/>
<path d="M252.97 41.49C252.91 41.49 252.85 42.19 253.05 43.3C253.25 44.4 253.76 45.9 254.71 47.34C255.67 48.78 256.86 49.83 257.8 50.44C258.74 51.05 259.41 51.27 259.44 51.21C259.54 51.06 257 49.83 255.17 47.04C253.3 44.27 253.14 41.46 252.97 41.49V41.49Z" fill="#455A64"/>
<path d="M201.26 172.17L187.54 172.86C185.79 172.95 184.42 174.41 184.46 176.16C184.52 179.29 185.05 183.59 187.5 183.18L189.06 176.35L200.45 186.4C201.6 187.44 203.02 188.14 204.55 188.41L207.23 188.13L201.27 172.17H201.26Z" fill="#914F4E"/>
<path d="M266.87 98.68L259.7 101.05L256.14 160.61V213.43L300.17 218.31L300.68 142.13L297.84 104.21L291.11 96.17L266.87 98.68Z" fill="#E0E0E0"/>
<path d="M264.67 101.53V95.76L290.83 92.12L289.78 105.41L283.77 115.84L273.94 116.38L266.84 112L264.67 101.53Z" fill="#E0E0E0"/>
<path d="M267.01 100.86C266.87 100.86 266.8 99.67 266.86 98.22C266.92 96.77 267.09 95.6 267.23 95.6C267.37 95.6 267.44 96.79 267.38 98.24C267.32 99.69 267.15 100.86 267.01 100.86Z" fill="#263238"/>
<path d="M273.55 100.38C273.41 100.38 273.37 99.05 273.46 97.43C273.55 95.81 273.75 94.5 273.89 94.51C274.03 94.51 274.07 95.84 273.98 97.46C273.89 99.08 273.69 100.39 273.55 100.38Z" fill="#263238"/>
<path d="M279.88 99.72C279.74 99.71 279.72 98.31 279.85 96.6C279.98 94.89 280.19 93.51 280.34 93.52C280.48 93.53 280.5 94.93 280.37 96.64C280.24 98.35 280.03 99.73 279.88 99.72Z" fill="#263238"/>
<path d="M285.96 98.72C285.82 98.72 285.65 97.4 285.73 95.77C285.8 94.13 286.09 92.83 286.23 92.85C286.38 92.87 286.32 94.18 286.25 95.79C286.17 97.4 286.11 98.71 285.96 98.72V98.72Z" fill="#263238"/>
<path d="M283.05 123.9C283.05 123.9 282.96 124.26 282.7 124.88C282.45 125.5 282.05 126.38 281.54 127.45C280.52 129.6 279.01 132.53 277.15 135.66C275.29 138.79 273.44 141.52 272.04 143.44C271.34 144.4 270.75 145.17 270.33 145.68C269.91 146.2 269.67 146.47 269.64 146.45C269.58 146.4 270.42 145.19 271.74 143.22C273.06 141.25 274.86 138.5 276.71 135.39C278.56 132.28 280.12 129.39 281.22 127.28C282.32 125.17 282.98 123.86 283.05 123.89V123.9Z" fill="#263238"/>
<path d="M290.981 95.25L298.081 98.67L311.801 102.02C317.821 103.07 321.961 108.67 321.181 114.73L314.001 170.74L322.571 225.04L288.571 224.03L286.581 203.83V147.83L290.991 95.25H290.981Z" fill="#455A64"/>
<path d="M286.571 160.74C286.571 160.74 286.591 160.5 286.671 160.05C286.771 159.55 286.901 158.89 287.061 158.08C287.431 156.32 287.941 153.86 288.571 150.86C289.911 144.72 291.741 136.34 293.761 127.09C294.331 124.54 294.881 122.06 295.411 119.67L295.471 119.9C294.671 119.06 293.881 118.24 293.111 117.44L292.981 117.3L293.081 117.14C294.491 114.8 295.811 112.59 297.041 110.56V110.76C295.241 106.42 293.741 102.8 292.671 100.2C292.181 98.97 291.781 97.98 291.491 97.24C291.221 96.56 291.091 96.19 291.111 96.18C291.131 96.17 291.301 96.52 291.611 97.19C291.931 97.91 292.361 98.89 292.901 100.1C294.011 102.68 295.561 106.27 297.431 110.59L297.471 110.69L297.411 110.79C296.201 112.83 294.901 115.04 293.501 117.4L293.471 117.1C294.241 117.9 295.031 118.72 295.841 119.55L295.931 119.65L295.901 119.78C295.371 122.16 294.831 124.65 294.261 127.2C292.181 136.44 290.301 144.81 288.921 150.94C288.221 153.93 287.651 156.37 287.241 158.12C287.041 158.92 286.881 159.57 286.761 160.07C286.641 160.51 286.581 160.75 286.561 160.74H286.571Z" fill="#263238"/>
<path d="M201.84 169.91L231.92 153.14L246.5 113.83C248.54 108.34 252.76 103.94 258.17 101.69L262.04 100.08L262.06 203.58L262.84 228.1L246.54 223.22L254.85 173.94L251.98 149.68L249.12 161.41C248.1 165.61 245.42 169.21 241.69 171.39L210.38 187.65L201.85 169.91H201.84Z" fill="#455A64"/>
<path d="M202.2 170.68L199.67 171.43L206.79 188.41L210.11 187.12L202.2 170.68Z" fill="#E0E0E0"/>
<path d="M237.36 160.12C237.21 160.17 236.69 158.19 235.11 156.31C233.56 154.41 231.71 153.54 231.78 153.4C231.8 153.27 233.86 153.97 235.51 155.98C237.18 157.97 237.49 160.12 237.36 160.12V160.12Z" fill="#263238"/>
<path d="M205.45 170.13C205.48 170.2 205.3 170.33 205.28 170.62C205.25 170.92 205.46 171.25 205.85 171.13C206.25 171.02 206.24 170.63 206.06 170.4C205.89 170.17 205.66 170.15 205.65 170.07C205.62 170.01 205.93 169.85 206.31 170.13C206.48 170.27 206.67 170.51 206.65 170.86C206.65 171.21 206.34 171.54 205.99 171.63C205.65 171.74 205.22 171.63 205.02 171.33C204.82 171.05 204.84 170.74 204.91 170.53C205.08 170.08 205.43 170.05 205.43 170.12L205.45 170.13Z" fill="#263238"/>
<path d="M207.87 169.11C207.9 169.18 207.72 169.31 207.7 169.6C207.67 169.9 207.88 170.23 208.27 170.11C208.67 170 208.66 169.61 208.48 169.38C208.31 169.15 208.08 169.13 208.07 169.05C208.04 168.99 208.35 168.83 208.73 169.11C208.9 169.25 209.09 169.49 209.07 169.84C209.07 170.19 208.76 170.52 208.41 170.61C208.07 170.72 207.64 170.61 207.44 170.31C207.24 170.03 207.26 169.72 207.34 169.51C207.51 169.06 207.86 169.03 207.86 169.1L207.87 169.11Z" fill="#263238"/>
<path d="M262.03 162.34C262.03 162.34 261.97 162.12 261.9 161.7C261.83 161.22 261.74 160.61 261.62 159.86C261.39 158.19 261.08 155.89 260.7 153.07C259.96 147.27 258.96 139.37 257.85 130.63C257.7 129.39 257.55 128.17 257.4 126.96V126.89L257.42 126.83C258.18 124.9 258.91 123.03 259.62 121.24V121.43C258.86 119.69 258.14 118.04 257.45 116.47L257.42 116.39L257.44 116.31C258.77 111.49 259.89 107.44 260.7 104.53C261.1 103.15 261.42 102.05 261.65 101.22C261.88 100.46 262.01 100.05 262.04 100.06C262.06 100.06 261.98 100.48 261.79 101.26C261.58 102.09 261.31 103.21 260.96 104.6C260.2 107.53 259.14 111.59 257.88 116.43V116.28C258.56 117.84 259.3 119.49 260.07 121.22L260.11 121.31L260.07 121.41C259.37 123.2 258.64 125.07 257.89 127L257.91 126.87C258.06 128.07 258.21 129.3 258.36 130.54C259.41 139.28 260.36 147.19 261.06 153C261.37 155.83 261.63 158.14 261.82 159.81C261.89 160.57 261.95 161.19 262 161.67C262.04 162.1 262.05 162.32 262.03 162.32V162.34Z" fill="#263238"/>
<path d="M254.791 174.22C254.791 174.22 254.741 174.05 254.691 173.73C254.641 173.35 254.571 172.88 254.501 172.32C254.341 171.01 254.121 169.25 253.861 167.11C253.331 162.71 252.581 156.64 251.681 149.94C250.781 143.24 249.901 137.18 249.251 132.8C248.941 130.67 248.68 128.91 248.49 127.61C248.42 127.05 248.361 126.58 248.311 126.19C248.271 125.87 248.261 125.69 248.281 125.69C248.301 125.69 248.341 125.85 248.411 126.17C248.491 126.55 248.581 127.01 248.691 127.57C248.921 128.79 249.241 130.55 249.611 132.74C250.351 137.11 251.291 143.16 252.191 149.87C253.091 156.57 253.781 162.66 254.221 167.07C254.441 169.28 254.601 171.06 254.701 172.3C254.741 172.87 254.771 173.34 254.801 173.72C254.821 174.05 254.821 174.22 254.801 174.22H254.791Z" fill="#263238"/>
<path d="M250.64 211.01C250.64 211.01 250.81 211.39 251.34 211.85C251.85 212.29 252.88 212.75 254.08 212.46C255.28 212.18 256.45 211.06 257.06 209.53C257.69 207.99 257.76 206.1 257.9 204.15C258.02 202.21 257.98 200.32 257.34 198.79C256.73 197.25 255.54 196.22 254.61 195.35C253.66 194.48 252.92 193.7 252.53 193.08C252.13 192.46 252.01 192.07 252.04 192.06C252.08 192.04 252.26 192.4 252.7 192.96C253.13 193.53 253.88 194.24 254.86 195.07C255.81 195.91 257.09 196.94 257.78 198.6C258.48 200.24 258.54 202.21 258.41 204.18C258.27 206.13 258.19 208.07 257.49 209.71C256.82 211.34 255.51 212.55 254.15 212.81C252.78 213.08 251.7 212.51 251.19 211.99C250.92 211.72 250.78 211.46 250.7 211.29C250.63 211.11 250.61 211.01 250.63 211L250.64 211.01Z" fill="#263238"/>
<path d="M239.46 172.17C239.46 172.17 240.43 160.7 249.54 159.64C249.54 159.64 249.71 168.99 239.46 172.17Z" fill="#263238"/>
<path d="M288.14 215.12C288.74 215.52 314.59 232.42 314.59 232.42L317.57 230.03L318.98 191.26L293.79 172.17L290.32 173.36L288.13 215.12H288.14Z" fill="#14475F"/>
<path d="M293.51 172.72L294.55 214.69H288.99L290.85 173.55L293.51 172.72Z" fill="#E0E0E0"/>
<path d="M301.841 224.32C301.841 224.32 302.431 226.18 304.821 226.35C304.891 226.35 304.971 226.41 305.041 226.53C305.581 227.45 306.491 228.1 307.551 228.1C308.371 228.1 309.361 227.91 310.391 227.28C311.771 226.44 314.231 220.92 314.231 220.92L320.061 207.93L310.251 205.28L297.791 209.16C297.791 209.39 294.871 221.18 294.871 221.18C294.871 221.18 297.231 221.84 298.371 219.32C299.511 216.8 300.571 215.2 300.571 215.2L301.501 220.51L297.961 221.72C297.961 221.72 297.531 223.68 299.481 224.41L301.841 224.31V224.32Z" fill="#914F4E"/>
<path d="M306.24 133.1L322.57 163.16L309.28 202.61L324.06 210.93L342.84 167.05C344.23 163.8 344.17 160.1 342.68 156.89L319.64 107.4L306.24 133.1V133.1Z" fill="#455A64"/>
<path d="M309.28 202.61L307.9 205.66L321.84 213.18L323.3 210.5L309.28 202.61Z" fill="#E0E0E0"/>
<path d="M309.281 202.61C309.281 202.61 309.281 202.54 309.321 202.41C309.371 202.25 309.421 202.06 309.491 201.83C309.661 201.29 309.901 200.54 310.201 199.6C310.851 197.62 311.771 194.81 312.911 191.31C315.271 184.23 318.561 174.37 322.321 163.08L322.341 163.29C320.441 160.06 318.491 156.65 316.511 153.13C312.911 146.7 309.601 140.5 306.781 134.77C305.381 131.9 304.081 129.15 302.981 126.53C301.781 123.91 301.481 121.16 301.621 118.74C301.781 116.31 302.261 114.13 303.081 112.37C303.891 110.6 304.961 109.28 305.961 108.37C306.971 107.46 307.911 106.94 308.561 106.65C309.211 106.36 309.581 106.29 309.581 106.29C309.631 106.37 308.071 106.69 306.091 108.52C305.131 109.44 304.101 110.76 303.331 112.5C302.561 114.23 302.101 116.39 301.971 118.77C301.861 121.15 302.171 123.82 303.361 126.37C304.471 128.97 305.791 131.7 307.191 134.57C310.041 140.28 313.351 146.46 316.951 152.88C318.921 156.4 320.871 159.81 322.761 163.04L322.821 163.14L322.781 163.25C318.951 174.51 315.601 184.35 313.201 191.42C311.991 194.9 311.031 197.7 310.341 199.66C310.011 200.59 309.741 201.33 309.551 201.86C309.461 202.09 309.391 202.27 309.341 202.43C309.291 202.56 309.261 202.62 309.251 202.62L309.281 202.61Z" fill="#263238"/>
<path d="M333.611 162.87C333.571 162.94 332.991 162.63 332.001 162.3C331.021 161.97 329.601 161.67 328.021 161.72C326.441 161.77 325.041 162.16 324.081 162.55C323.111 162.94 322.561 163.29 322.511 163.22C322.481 163.17 322.971 162.71 323.931 162.22C324.891 161.72 326.351 161.26 328.011 161.2C329.671 161.15 331.161 161.53 332.141 161.96C333.131 162.39 333.651 162.82 333.621 162.87H333.611Z" fill="#263238"/>
<path d="M302.97 125.94L314.7 165.21L316.36 152.3L302.97 125.94Z" fill="#263238"/>
<path d="M322.35 203.08C322.38 203.15 322.2 203.28 322.18 203.57C322.15 203.87 322.36 204.2 322.75 204.08C323.15 203.97 323.14 203.58 322.96 203.35C322.79 203.12 322.56 203.1 322.55 203.02C322.52 202.96 322.83 202.8 323.21 203.08C323.38 203.22 323.57 203.46 323.55 203.81C323.55 204.16 323.24 204.49 322.89 204.58C322.55 204.69 322.12 204.58 321.92 204.28C321.72 204 321.74 203.69 321.81 203.48C321.98 203.03 322.33 203 322.33 203.07L322.35 203.08Z" fill="#263238"/>
<path d="M323.531 200.25C323.561 200.32 323.381 200.45 323.361 200.74C323.331 201.04 323.541 201.37 323.931 201.25C324.331 201.14 324.321 200.75 324.141 200.52C323.971 200.29 323.741 200.27 323.731 200.19C323.701 200.13 324.011 199.97 324.391 200.25C324.561 200.39 324.751 200.63 324.731 200.98C324.731 201.33 324.421 201.66 324.071 201.75C323.731 201.86 323.301 201.75 323.101 201.45C322.901 201.17 322.921 200.86 322.991 200.65C323.161 200.2 323.511 200.17 323.511 200.24L323.531 200.25Z" fill="#263238"/>
<path d="M339.58 150.24C337.83 151.16 337.22 153.74 337.42 155.71C337.62 157.68 338.34 159.59 338.29 161.57C338.25 162.98 337.82 164.35 337.54 165.73C337.26 167.11 337.13 168.6 337.67 169.9C338.21 171.21 339.59 172.25 340.98 171.99L342.37 169.19C344.57 164.75 344.5 159.51 342.17 155.13L339.58 150.24Z" fill="#263238"/>
<path d="M425.2 361.34C426.1 358.22 428.03 355.21 431 353.93C434.1 352.59 437.69 353.35 440.86 354.51C444.03 355.66 447.15 357.2 450.51 357.41C453.88 357.62 457.68 356.02 458.69 352.8C459.64 349.77 457.81 346.54 455.53 344.35C450.73 339.73 443.51 337.77 437.03 339.32C430.55 340.87 425.01 345.9 422.83 352.2" fill="#14475F"/>
<g opacity="0.5">
<path d="M425.2 361.34C426.1 358.22 428.03 355.21 431 353.93C434.1 352.59 437.69 353.35 440.86 354.51C444.03 355.66 447.15 357.2 450.51 357.41C453.88 357.62 457.68 356.02 458.69 352.8C459.64 349.77 457.81 346.54 455.53 344.35C450.73 339.73 443.51 337.77 437.03 339.32C430.55 340.87 425.01 345.9 422.83 352.2" fill="black"/>
</g>
<path d="M398.52 374.86C393.58 370.17 393.83 362 396.29 355.64C398.75 349.29 404.13 344.41 410.14 341.19C421.79 334.96 436.35 334.49 448.37 339.95C442.46 340.15 436.75 343.5 433.7 348.57C430.99 353.07 430.39 358.52 428.15 363.27C425.66 368.56 421.08 372.83 415.64 374.96C410.19 377.09 403.93 377.05 398.51 374.85" fill="#14475F"/>
<path d="M396.14 346.66C390.67 340.2 389.94 329.84 390.75 321.41C391.56 312.99 393.51 304.51 392.18 296.15C391.39 291.2 389.47 286.47 388.82 281.5C388.17 276.53 389.09 270.91 392.94 267.7C397.37 264.01 404.34 264.88 408.94 268.34C413.55 271.8 416.21 277.24 418.16 282.67C422.44 294.58 424.02 307.79 420.5 319.95C416.98 332.11 408.72 342.98 396.61 346.65" fill="#14475F"/>
<path d="M393.52 399.64C393.52 399.64 393.5 399.38 393.5 398.9C393.5 398.41 393.5 397.69 393.54 396.77C393.61 394.92 393.79 392.24 394.2 388.95C394.62 385.66 395.27 381.76 396.3 377.5C397.32 373.23 399.06 368.67 401.53 364.24C404 359.81 407.02 355.98 410.07 352.82C413.13 349.66 416.26 347.21 419.02 345.37C420.39 344.42 421.71 343.71 422.85 343.04C424.02 342.43 425.04 341.92 425.87 341.52C426.7 341.17 427.35 340.9 427.84 340.69C428.29 340.51 428.53 340.42 428.54 340.43C428.54 340.44 428.32 340.56 427.88 340.77C427.4 340.99 426.76 341.29 425.95 341.67C425.13 342.1 424.13 342.62 422.98 343.25C421.86 343.93 420.56 344.66 419.21 345.62C416.48 347.48 413.4 349.94 410.38 353.09C407.37 356.24 404.39 360.04 401.93 364.44C396.9 373.24 395.52 382.49 394.52 388.97C394.07 392.24 393.84 394.91 393.72 396.76C393.67 397.65 393.63 398.36 393.59 398.89C393.56 399.38 393.54 399.63 393.52 399.63V399.64Z" fill="#263238"/>
<path d="M346.34 321.19C336.22 327.3 336.25 332.86 337.94 338.1C339.63 343.35 345.84 346.99 350.99 345.03C353.9 343.92 356.01 341.39 357.81 338.85C359.61 336.31 361.3 333.59 363.83 331.76C366.35 329.93 370.01 329.24 372.55 331.05" fill="#14475F"/>
<g opacity="0.5">
<path d="M346.34 321.19C336.22 327.3 336.25 332.86 337.94 338.1C339.63 343.35 345.84 346.99 350.99 345.03C353.9 343.92 356.01 341.39 357.81 338.85C359.61 336.31 361.3 333.59 363.83 331.76C366.35 329.93 370.01 329.24 372.55 331.05" fill="black"/>
</g>
<path d="M338.76 327.89C341.41 324.23 347.94 323.17 352.07 325C356.2 326.82 359.22 330.44 361.93 334.06C364.64 337.67 367.27 341.49 371.02 344C374.77 346.51 380.01 347.42 383.74 344.89C386.19 343.23 387.62 340.34 388.06 337.41C388.51 334.48 388.08 331.49 387.47 328.59C386.58 324.35 385.12 319.91 381.72 317.22C377.93 314.21 372.68 314.07 367.85 314.23C362.31 314.41 356.68 314.83 351.48 316.75C346.28 318.67 340.97 322.82 338.76 327.91" fill="#14475F"/>
<path d="M385.11 391.54C385.11 391.54 385.09 391.46 385.08 391.32C385.08 391.15 385.06 390.93 385.05 390.67C385.03 390.06 385 389.22 384.96 388.16C384.9 385.94 384.81 382.79 384.69 378.92C384.57 375.02 384.41 370.38 384.13 365.23C383.84 360.08 383.46 354.42 382.68 348.53C382.28 345.59 381.82 342.71 381 340.05C380.18 337.38 379.09 334.9 377.9 332.63C376.7 330.36 375.38 328.3 373.99 326.49C372.59 324.69 371.14 323.12 369.72 321.8C366.85 319.18 364.1 317.57 362.14 316.64C361.65 316.41 361.22 316.19 360.83 316.03C360.45 315.88 360.12 315.75 359.84 315.65C359.59 315.55 359.4 315.47 359.23 315.41C359.09 315.35 359.03 315.32 359.03 315.31C359.03 315.31 359.11 315.32 359.25 315.36C359.42 315.41 359.62 315.48 359.87 315.56C360.15 315.66 360.49 315.77 360.88 315.9C361.28 316.05 361.71 316.26 362.22 316.47C364.21 317.36 367.01 318.94 369.94 321.56C371.39 322.88 372.86 324.45 374.29 326.26C375.71 328.07 377.05 330.15 378.27 332.44C379.48 334.73 380.59 337.23 381.43 339.92C382.26 342.63 382.73 345.52 383.13 348.47C383.91 354.38 384.28 360.05 384.55 365.21C384.81 370.37 384.93 375.01 385.02 378.91C385.1 382.81 385.13 385.97 385.14 388.15C385.14 389.21 385.14 390.05 385.14 390.66C385.14 390.93 385.14 391.14 385.13 391.31C385.13 391.46 385.12 391.53 385.11 391.53V391.54Z" fill="#263238"/>
<path d="M388.75 396.11C388.75 396.11 388.18 394.61 387.64 391.76C387.11 388.92 386.72 384.71 387.18 379.55C387.61 374.39 388.93 368.33 391.04 361.83C393.12 355.32 395.94 348.36 398.35 340.87C399.54 337.12 400.56 333.42 401.26 329.78C401.97 326.14 402.41 322.59 402.7 319.2C403.27 312.41 403.19 306.26 403.02 301.11C402.85 295.96 402.57 291.79 402.4 288.91C402.32 287.49 402.25 286.38 402.2 285.59C402.18 285.23 402.17 284.94 402.16 284.73C402.16 284.54 402.16 284.44 402.16 284.43C402.16 284.43 402.18 284.53 402.2 284.72C402.22 284.94 402.25 285.22 402.29 285.58C402.36 286.37 402.45 287.48 402.57 288.89C402.79 291.77 403.12 295.93 403.33 301.09C403.54 306.25 403.65 312.41 403.1 319.23C402.83 322.64 402.39 326.2 401.68 329.86C400.99 333.52 399.97 337.25 398.77 341C396.35 348.51 393.52 355.46 391.43 361.95C389.31 368.42 387.97 374.44 387.5 379.57C387 384.7 387.35 388.88 387.82 391.72C388.07 393.14 388.3 394.23 388.5 394.97C388.59 395.32 388.65 395.6 388.7 395.81C388.74 396 388.76 396.1 388.75 396.1V396.11Z" fill="#263238"/>
<path d="M413.84 400.68H366.32L365.23 391.54H413.84V400.68Z" fill="#455A64"/>
<path d="M371.42 399.64L377.36 427.08H403.18L408.74 399.64H371.42Z" fill="#455A64"/>
<path d="M413.84 400.68C413.84 400.81 403.39 400.88 390.51 400.84C377.62 400.8 367.18 400.67 367.18 400.55C367.18 400.43 377.63 400.35 390.52 400.39C403.41 400.43 413.85 400.56 413.85 400.68H413.84Z" fill="#455A64"/>
<path d="M405.68 414.23C405.62 414.32 404.28 412.94 401.5 411.83C400.12 411.28 398.37 410.85 396.41 410.81C394.44 410.75 392.31 411.22 390.15 411.96C387.98 412.69 385.96 413.54 383.99 414.01C382.01 414.44 380.17 414.41 378.67 414.17C377.16 413.93 376 413.49 375.25 413.09C374.88 412.88 374.6 412.71 374.43 412.57C374.25 412.44 374.16 412.36 374.17 412.35C374.2 412.31 374.58 412.59 375.33 412.94C376.09 413.28 377.24 413.67 378.72 413.86C380.19 414.05 381.99 414.05 383.9 413.61C385.8 413.13 387.82 412.27 390.01 411.53C392.19 410.78 394.4 410.3 396.42 410.39C398.44 410.46 400.22 410.93 401.62 411.53C403.03 412.11 404.05 412.82 404.72 413.34C405.05 413.6 405.3 413.82 405.46 413.98C405.62 414.13 405.7 414.22 405.69 414.23H405.68Z" fill="#263238"/>
<path d="M405.32 416.06C405.26 416.15 403.97 414.81 401.3 413.69C399.97 413.14 398.29 412.72 396.39 412.68C394.49 412.63 392.42 413.06 390.34 413.77C388.25 414.47 386.28 415.28 384.41 415.79C382.54 416.3 380.77 416.48 379.29 416.36C377.81 416.26 376.66 415.84 375.94 415.46C375.58 415.26 375.31 415.09 375.14 414.95C374.97 414.82 374.88 414.75 374.89 414.73C374.92 414.69 375.28 414.96 376.01 415.29C376.74 415.61 377.87 415.97 379.31 416.03C380.74 416.1 382.46 415.9 384.29 415.37C386.13 414.85 388.08 414.03 390.19 413.33C392.3 412.61 394.44 412.18 396.4 412.25C398.35 412.31 400.08 412.78 401.42 413.38C402.77 413.97 403.75 414.67 404.39 415.17C404.71 415.42 404.95 415.64 405.1 415.79C405.25 415.94 405.33 416.02 405.32 416.04V416.06Z" fill="white"/>
<path d="M406.15 412.41C406.09 412.5 404.7 411.1 401.85 409.88C400.44 409.28 398.66 408.75 396.63 408.63C394.61 408.49 392.4 409.01 390.17 409.77C387.93 410.52 385.85 411.43 383.79 411.85C381.73 412.22 379.84 412.11 378.29 411.85C376.74 411.58 375.54 411.14 374.76 410.73C374.38 410.52 374.08 410.34 373.9 410.2C373.72 410.06 373.62 409.98 373.63 409.97C373.66 409.93 374.05 410.21 374.83 410.57C375.62 410.92 376.81 411.31 378.33 411.53C379.85 411.74 381.71 411.81 383.7 411.43C385.67 411.01 387.76 410.09 390.01 409.33C392.25 408.56 394.54 408.03 396.64 408.2C398.73 408.35 400.54 408.93 401.96 409.58C403.39 410.22 404.44 410.95 405.13 411.49C405.47 411.76 405.73 411.98 405.89 412.15C406.06 412.31 406.14 412.4 406.13 412.41H406.15Z" fill="white"/>
<path d="M414.26 400.72C414.26 400.84 403.57 400.95 390.39 400.95C377.21 400.95 366.51 400.85 366.51 400.72C366.51 400.59 377.2 400.49 390.39 400.49C403.58 400.49 414.26 400.59 414.26 400.72Z" fill="#263238"/>
<path d="M51.1102 390.28C52.8202 392.72 56.1402 391.91 57.6802 390.42C59.2202 388.93 59.8702 386.77 60.4602 384.71C61.8102 380 63.1802 375.07 62.1702 370.28C61.8702 368.85 61.3302 367.42 60.3302 366.36C59.3202 365.3 57.7802 364.67 56.3602 365.04C54.6902 365.48 53.6402 367.12 52.8902 368.68C50.6802 373.27 49.5102 378.35 49.4902 383.44C49.4902 385.82 49.7602 388.31 51.1002 390.28" fill="#14475F"/>
<g opacity="0.2">
<path d="M51.1102 390.28C52.8202 392.72 56.1402 391.91 57.6802 390.42C59.2202 388.93 59.8702 386.77 60.4602 384.71C61.8102 380 63.1802 375.07 62.1702 370.28C61.8702 368.85 61.3302 367.42 60.3302 366.36C59.3202 365.3 57.7802 364.67 56.3602 365.04C54.6902 365.48 53.6402 367.12 52.8902 368.68C50.6802 373.27 49.5102 378.35 49.4902 383.44C49.4902 385.82 49.7602 388.31 51.1002 390.28" fill="black"/>
</g>
<path d="M57.5201 402.65C60.3101 401.21 63.6101 401.02 66.7101 401.53C68.3801 401.81 70.1201 402.3 71.2501 403.56C72.3801 404.81 72.6001 407.02 71.3001 408.09C70.5201 408.73 69.4401 408.83 68.4401 408.82C66.0101 408.79 63.3201 408.36 61.3701 409.83C60.2601 410.66 59.5301 412.05 58.2001 412.46C56.9001 412.86 55.4401 412.1 54.7601 410.93C54.0701 409.76 54.0501 408.3 54.3701 406.98C54.3701 406.98 54.7101 404.11 57.5201 402.66V402.65Z" fill="#14475F"/>
<path d="M46.4202 393.79C48.2802 391.59 48.6302 388.38 47.8002 385.62C46.9702 382.86 45.1102 380.51 42.9602 378.6C40.4402 376.35 37.4802 374.6 34.2902 373.48C33.0402 373.04 31.7102 372.69 30.3902 372.82C29.0702 372.95 27.7402 373.62 27.1202 374.8C26.2102 376.54 27.0802 378.65 28.0302 380.37C29.7002 383.4 31.6002 386.31 33.7202 389.04C35.4302 391.24 37.3802 393.41 39.9802 394.41C42.5802 395.4 45.2802 395.29 46.6602 393.48" fill="#14475F"/>
<path d="M51.0002 427.11C51.0002 427.11 51.0802 426.72 51.1502 426C51.2302 425.19 51.3302 424.18 51.4402 422.97C51.5802 421.7 51.7702 420.18 52.1202 418.53C52.4702 416.88 53.0202 415.1 53.7302 413.29C54.4602 411.49 55.3602 409.86 56.4102 408.55C57.4502 407.24 58.6602 406.29 59.7902 405.74C60.9202 405.18 61.9402 404.95 62.6402 404.85C63.3502 404.78 63.7402 404.72 63.7402 404.69C63.7402 404.66 63.3402 404.65 62.6202 404.67C61.9002 404.72 60.8402 404.9 59.6502 405.44C58.4502 405.97 57.1702 406.94 56.0802 408.28C54.9802 409.61 54.0502 411.29 53.3102 413.12C52.5902 414.96 52.0402 416.76 51.7102 418.45C51.3702 420.13 51.2202 421.66 51.1202 422.95C51.0202 424.24 50.9902 425.28 50.9702 426C50.9502 426.72 50.9702 427.12 50.9902 427.12L51.0002 427.11Z" fill="#263238"/>
<path d="M51.2099 424.78C51.2099 424.78 51.2399 424.6 51.2399 424.27C51.2399 423.88 51.2399 423.4 51.2399 422.8C51.2399 421.52 51.2399 419.67 51.3099 417.39C51.4199 412.83 51.8199 406.52 52.5799 399.6C53.3399 392.67 54.3599 386.44 55.2799 381.97C55.4999 380.85 55.7199 379.84 55.9299 378.96C56.1299 378.07 56.2999 377.31 56.4599 376.69C56.5999 376.11 56.7099 375.64 56.7999 375.26C56.8699 374.93 56.9099 374.76 56.8899 374.75C56.8699 374.75 56.8099 374.91 56.7099 375.23C56.5999 375.6 56.4599 376.07 56.2799 376.64C56.0899 377.25 55.8999 378.01 55.6699 378.89C55.4399 379.77 55.1999 380.78 54.9599 381.9C53.9499 386.37 52.8899 392.61 52.1199 399.55C51.3599 406.49 51.0199 412.81 50.9899 417.39C50.9599 419.68 51.0099 421.53 51.0699 422.81C51.1099 423.41 51.1399 423.89 51.1599 424.28C51.1899 424.62 51.2099 424.79 51.2199 424.79L51.2099 424.78Z" fill="#263238"/>
<path d="M51.2401 412.59C51.2401 412.59 51.2701 412.04 51.2301 411.05C51.1701 410.06 51.0401 408.63 50.7601 406.88C50.4701 405.13 50.0501 403.06 49.4101 400.81C48.7901 398.55 47.9501 396.11 46.8701 393.63C44.7601 388.64 41.9001 384.55 39.4201 382.03C38.8401 381.36 38.1901 380.87 37.6701 380.4C37.4001 380.17 37.1601 379.95 36.9201 379.77C36.6801 379.6 36.4501 379.45 36.2401 379.3C35.4201 378.74 34.9601 378.44 34.9501 378.47C34.8801 378.57 36.7801 379.69 39.1901 382.25C41.5901 384.81 44.3701 388.86 46.4601 393.81C47.5301 396.27 48.3801 398.69 49.0101 400.93C49.6801 403.16 50.1201 405.21 50.4501 406.94C50.7701 408.67 50.9501 410.09 51.0601 411.06C51.1501 412.04 51.2201 412.58 51.2501 412.58L51.2401 412.59Z" fill="#263238"/>
<path d="M198.69 8.43998C198.69 8.43998 198.86 8.41999 199.2 8.42999C199.58 8.42999 200.07 8.44999 200.7 8.46999C201.36 8.46999 202.17 8.55998 203.13 8.70998C203.61 8.77998 204.13 8.82998 204.67 8.94998C205.21 9.07998 205.79 9.22998 206.39 9.37998C208.8 10.05 211.73 11.11 214.71 13.1C217.69 15.06 220.74 17.89 223.14 21.72C225.54 25.51 227.35 30.29 227.57 35.61C227.9 40.89 226.68 46.69 223.63 51.83C220.67 57.03 215.72 61.38 209.73 63.92C206.73 65.19 203.44 65.88 200.09 66.04C196.74 66.28 193.3 65.81 190.01 64.79L189.71 64.7H189.95C184.18 66.7 178.54 68.65 173.1 70.54L172.41 70.78L172.63 70.09C174.14 65.24 175.6 60.55 177 56.05L177.07 56.39C173.84 52.75 171.65 48.46 170.58 44.11C169.49 39.76 169.53 35.39 170.31 31.44C171.1 27.48 172.68 23.96 174.66 21.05C176.64 18.14 178.99 15.84 181.33 14.09C182.48 13.17 183.71 12.5 184.83 11.82C186.02 11.26 187.1 10.66 188.19 10.3C189.27 9.90999 190.26 9.52998 191.22 9.33998C192.17 9.09998 193.02 8.86999 193.82 8.79999C194.61 8.69999 195.3 8.57999 195.91 8.51999C196.51 8.49999 197.02 8.47999 197.44 8.46999C197.82 8.46999 198.13 8.45998 198.38 8.44998C198.59 8.44998 198.7 8.44998 198.7 8.45998C198.7 8.46998 198.59 8.48999 198.38 8.50999C198.14 8.52999 197.83 8.55998 197.45 8.58998C197.03 8.61998 196.52 8.64998 195.93 8.69998C195.33 8.76998 194.64 8.90998 193.86 9.02998C193.07 9.11998 192.23 9.36998 191.3 9.61998C190.35 9.82998 189.38 10.22 188.32 10.62C187.25 10.99 186.19 11.61 185.03 12.17C183.93 12.86 182.73 13.52 181.61 14.44C179.32 16.19 177.03 18.47 175.11 21.34C173.19 24.21 171.66 27.67 170.91 31.55C170.17 35.42 170.15 39.7 171.23 43.95C172.29 48.19 174.45 52.38 177.61 55.92L177.74 56.07L177.68 56.26C176.29 60.76 174.84 65.45 173.34 70.31L172.87 69.86C178.31 67.97 183.95 66.01 189.72 64.01L189.84 63.97L189.96 64.01L190.25 64.1C193.46 65.1 196.81 65.55 200.07 65.33C203.33 65.17 206.54 64.5 209.47 63.27C215.3 60.8 220.15 56.57 223.05 51.5C226.05 46.49 227.26 40.83 226.97 35.66C226.78 30.45 225.04 25.76 222.71 22.02C220.38 18.25 217.41 15.43 214.49 13.47C211.58 11.47 208.69 10.38 206.32 9.67999C205.72 9.51999 205.15 9.36998 204.62 9.22998C204.08 9.10998 203.57 9.04998 203.1 8.95998C202.16 8.78998 201.36 8.66998 200.7 8.64998C200.08 8.59998 199.58 8.56998 199.21 8.53998C198.87 8.50998 198.7 8.48998 198.7 8.47998L198.69 8.43998Z" fill="#14475F"/>
<path d="M181.75 39.18L186.18 34.75L194.73 42.35L211.51 26.2L215.63 30.63L194.1 50.9L181.75 39.18Z" fill="#14475F"/>
</g>
<defs>
<clipPath id="clip0_10_3">
<rect width="458.5" height="442.74" fill="white" transform="translate(0.450195)"/>
</clipPath>
</defs>
</svg>
