<svg xmlns="http://www.w3.org/2000/svg" xmlns:xlink="http://www.w3.org/1999/xlink" width="660" height="382" viewBox="0 0 660 382">
  <defs>
    <clipPath id="clip-path">
      <rect id="Rectangle_21" data-name="Rectangle 21" width="660" height="382"/>
    </clipPath>
    <clipPath id="clip-path-2">
      <path id="Path_9215" data-name="Path 9215" d="M411.63,212.312a63.645,63.645,0,1,1,91.276,1.379l32.029,31.275a107.584,107.584,0,1,0-152.58-.995Z" transform="translate(-351.555 -61.07)" fill="none"/>
    </clipPath>
  </defs>
  <g id="Artboard_1" data-name="Artboard – 1" clip-path="url(#clip-path)">
    <g id="Group_4849" data-name="Group 4849" transform="translate(37)">
      <g id="Group_4848" data-name="Group 4848">
        <g id="Group_4847" data-name="Group 4847" transform="translate(-51.371 -51.226)">
          <g id="Background_Complete" data-name="Background Complete" transform="translate(53.205 81.546)">
            <g id="Group_4469" data-name="Group 4469" transform="translate(524.321 227.388)">
              <g id="Group_4447" data-name="Group 4447" opacity="0.2">
                <g id="Group_4446" data-name="Group 4446">
                  <path id="Path_9167" data-name="Path 9167" d="M686.536,336.878s-5.884-2.544-10.059,11.192a166.056,166.056,0,0,0-5.313,21.431s-1.227,2.94-3.347,1.538-5.473-5.852-8.4-4.423c-3.031,1.482-3.449,5.235-1.907,10.366s4.508,16.5,4.773,17.524-.058,2.623-1.655,1.9-11.406-8.382-14.761-3.51,3.29,18.46,3.988,19.959.509,2.226-.169,2.749-3.733-2.363-6.612-4.426-6.578-3.952-8.279-.979-.478,13.838,12.853,29.467L654.3,446.5l9.325-2.2c19.669-5.924,26.578-14.4,26.758-17.819s-3.953-3.835-7.491-3.658-7.668.949-7.955.142-.051-1.519,1.347-2.4,14.341-8.71,14.157-14.623-12.576-4.783-14.311-5.039-1.128-1.784-.364-2.493,9.426-8.672,13.5-12.151,5.755-6.86,4.008-9.748c-1.685-2.785-6.912-.859-9.454-.827s-1.98-3.106-1.98-3.106a166.114,166.114,0,0,0,7.133-20.894c3.925-13.809-2.564-14.85-2.564-14.85" transform="translate(-634.199 -336.692)" fill="#015a58"/>
                </g>
              </g>
              <g id="Group_4450" data-name="Group 4450" transform="translate(15.628 12.48)">
                <g id="Group_4449" data-name="Group 4449">
                  <g id="Group_4448" data-name="Group 4448">
                    <path id="Path_9168" data-name="Path 9168" d="M684.459,350.516s-.017.1-.066.294-.13.489-.227.853c-.209.763-.512,1.863-.9,3.273-.785,2.842-1.953,6.946-3.414,12.01-2.92,10.131-7.072,24.091-11.71,39.493s-8.827,29.357-11.8,39.47c-1.481,5.047-2.679,9.137-3.514,11.98-.414,1.4-.736,2.5-.959,3.256q-.165.54-.257.844c-.06.19-.1.285-.1.285s.017-.1.066-.294.13-.488.226-.853c.21-.763.513-1.863.9-3.273.785-2.842,1.952-6.945,3.413-12.01,2.92-10.131,7.073-24.092,11.712-39.5s8.825-29.351,11.8-39.464c1.481-5.047,2.68-9.137,3.514-11.98l.96-3.257c.11-.36.2-.641.257-.844A1.649,1.649,0,0,1,684.459,350.516Z" transform="translate(-651.511 -350.516)" fill="#e0e0e0"/>
                  </g>
                </g>
              </g>
              <g id="Group_4453" data-name="Group 4453" transform="translate(29.659 36.338)">
                <g id="Group_4452" data-name="Group 4452">
                  <g id="Group_4451" data-name="Group 4451">
                    <path id="Path_9169" data-name="Path 9169" d="M667.056,376.944a2.765,2.765,0,0,1,.356.592c.212.39.5.963.85,1.675.7,1.425,1.6,3.418,2.564,5.636l2.434,5.687q.439,1.012.745,1.72a2.724,2.724,0,0,1,.246.645,2.821,2.821,0,0,1-.359-.59c-.211-.39-.5-.964-.841-1.679-.682-1.432-1.564-3.436-2.523-5.653-.951-2.177-1.809-4.145-2.474-5.668q-.443-1.01-.754-1.716a2.858,2.858,0,0,1-.244-.649Z" transform="translate(-667.053 -376.944)" fill="#e0e0e0"/>
                  </g>
                </g>
              </g>
              <g id="Group_4456" data-name="Group 4456" transform="translate(37.748 43.413)">
                <g id="Group_4455" data-name="Group 4455">
                  <g id="Group_4454" data-name="Group 4454">
                    <path id="Path_9170" data-name="Path 9170" d="M676.013,393.674c-.04-.08,3.985-2.137,8.987-4.591s9.094-4.38,9.133-4.3-3.984,2.137-8.989,4.592S676.053,393.755,676.013,393.674Z" transform="translate(-676.013 -384.781)" fill="#e0e0e0"/>
                  </g>
                </g>
              </g>
              <g id="Group_4459" data-name="Group 4459" transform="translate(29.558 71.848)">
                <g id="Group_4458" data-name="Group 4458">
                  <g id="Group_4457" data-name="Group 4457">
                    <path id="Path_9171" data-name="Path 9171" d="M666.941,420.072a2.918,2.918,0,0,1,.686-.162l1.885-.333c1.591-.283,3.786-.681,6.193-1.207s4.573-1.065,6.136-1.471l1.853-.478a2.927,2.927,0,0,1,.692-.139,2.953,2.953,0,0,1-.655.261c-.428.147-1.052.348-1.827.578-1.551.464-3.713,1.046-6.129,1.568s-4.624.891-6.226,1.116c-.8.109-1.453.19-1.9.231a2.886,2.886,0,0,1-.708.036Z" transform="translate(-666.941 -416.279)" fill="#e0e0e0"/>
                  </g>
                </g>
              </g>
              <g id="Group_4462" data-name="Group 4462" transform="translate(19.064 62.807)">
                <g id="Group_4461" data-name="Group 4461">
                  <g id="Group_4460" data-name="Group 4460">
                    <path id="Path_9172" data-name="Path 9172" d="M655.318,406.265a2.521,2.521,0,0,1,.466.457c.284.307.686.759,1.177,1.322.983,1.125,2.324,2.7,3.789,4.441s2.779,3.339,3.717,4.5c.468.582.844,1.056,1.1,1.388a2.568,2.568,0,0,1,.368.538,2.461,2.461,0,0,1-.466-.456c-.284-.308-.686-.759-1.177-1.322-.983-1.126-2.324-2.7-3.79-4.442s-2.778-3.339-3.716-4.5c-.469-.581-.844-1.055-1.1-1.388a2.5,2.5,0,0,1-.368-.538Z" transform="translate(-655.316 -406.264)" fill="#e0e0e0"/>
                  </g>
                </g>
              </g>
              <g id="Group_4465" data-name="Group 4465" transform="translate(9.217 82.489)">
                <g id="Group_4464" data-name="Group 4464">
                  <g id="Group_4463" data-name="Group 4463">
                    <path id="Path_9173" data-name="Path 9173" d="M644.41,428.067a4.163,4.163,0,0,1,.59.59c.4.448.908,1.014,1.513,1.69,1.267,1.435,3,3.434,4.9,5.654s3.607,4.243,4.829,5.717l1.435,1.757a4.077,4.077,0,0,1,.492.673,4.007,4.007,0,0,1-.589-.59l-1.514-1.689c-1.266-1.435-3-3.434-4.9-5.655s-3.6-4.242-4.827-5.716L644.9,428.74a4.044,4.044,0,0,1-.49-.673Z" transform="translate(-644.409 -428.066)" fill="#e0e0e0"/>
                  </g>
                </g>
              </g>
              <g id="Group_4468" data-name="Group 4468" transform="translate(22.756 92.682)">
                <g id="Group_4467" data-name="Group 4467">
                  <g id="Group_4466" data-name="Group 4466">
                    <path id="Path_9174" data-name="Path 9174" d="M659.406,444.769a4.662,4.662,0,0,1,.864-.225l2.375-.508c2.005-.43,4.771-1.032,7.807-1.781s5.77-1.49,7.745-2.042l2.34-.65a4.651,4.651,0,0,1,.869-.2,4.676,4.676,0,0,1-.832.324c-.542.188-1.332.447-2.312.75-1.96.608-4.688,1.39-7.731,2.137s-5.822,1.319-7.841,1.691c-1.01.184-1.829.323-2.4.407a4.745,4.745,0,0,1-.884.1Z" transform="translate(-659.406 -439.357)" fill="#e0e0e0"/>
                  </g>
                </g>
              </g>
            </g>
            <g id="Group_4500" data-name="Group 4500" transform="translate(185.072 263.574)">
              <g id="Group_4499" data-name="Group 4499">
                <g id="Group_4471" data-name="Group 4471">
                  <g id="Group_4470" data-name="Group 4470">
                    <rect id="Rectangle_482" data-name="Rectangle 482" width="117.452" height="54.167" fill="#f5f5f5"/>
                  </g>
                </g>
                <g id="Group_4473" data-name="Group 4473" transform="translate(2.689 2.85)">
                  <g id="Group_4472" data-name="Group 4472">
                    <path id="Path_9175" data-name="Path 9175" d="M373.355,428.7H261.387V379.933H373.355Zm-111.238-.73H372.624v-47.3H262.117Z" transform="translate(-261.387 -379.933)" fill="#e0e0e0"/>
                  </g>
                </g>
                <g id="Group_4475" data-name="Group 4475" transform="translate(117.452)">
                  <g id="Group_4474" data-name="Group 4474">
                    <rect id="Rectangle_483" data-name="Rectangle 483" width="28.693" height="54.167" fill="#e0e0e0"/>
                  </g>
                </g>
                <g id="Group_4478" data-name="Group 4478" transform="translate(2.911 17.646)">
                  <g id="Group_4477" data-name="Group 4477">
                    <g id="Group_4476" data-name="Group 4476">
                      <path id="Path_9176" data-name="Path 9176" d="M261.776,396.618H373.013a.15.15,0,1,0,0-.3H261.776a.15.15,0,0,0,0,.3Z" transform="translate(-261.633 -396.323)" fill="#e0e0e0"/>
                    </g>
                  </g>
                </g>
                <g id="Group_4481" data-name="Group 4481" transform="translate(58.571 2.936)">
                  <g id="Group_4480" data-name="Group 4480">
                    <g id="Group_4479" data-name="Group 4479">
                      <path id="Path_9177" data-name="Path 9177" d="M323.753,394.887a121.619,121.619,0,0,0,.038-14.714.15.15,0,1,0-.3,0,121.781,121.781,0,0,0,.039,14.714.112.112,0,0,0,.223,0Z" transform="translate(-323.288 -380.028)" fill="#e0e0e0"/>
                    </g>
                  </g>
                </g>
                <g id="Group_4483" data-name="Group 4483" transform="translate(85.946 8.922)">
                  <g id="Group_4482" data-name="Group 4482">
                    <path id="Path_9178" data-name="Path 9178" d="M356.643,388.174a1.516,1.516,0,1,1-1.516-1.515,1.516,1.516,0,0,1,1.516,1.515Z" transform="translate(-353.612 -386.659)" fill="#e0e0e0"/>
                  </g>
                </g>
                <g id="Group_4485" data-name="Group 4485" transform="translate(27.569 8.922)">
                  <g id="Group_4484" data-name="Group 4484">
                    <path id="Path_9179" data-name="Path 9179" d="M291.978,388.174a1.515,1.515,0,1,1-1.516-1.515A1.515,1.515,0,0,1,291.978,388.174Z" transform="translate(-288.947 -386.659)" fill="#e0e0e0"/>
                  </g>
                </g>
                <g id="Group_4487" data-name="Group 4487" transform="translate(57.157 25.717)">
                  <g id="Group_4486" data-name="Group 4486">
                    <path id="Path_9180" data-name="Path 9180" d="M324.753,406.778a1.516,1.516,0,1,1-1.516-1.515,1.516,1.516,0,0,1,1.516,1.515Z" transform="translate(-321.722 -405.263)" fill="#e0e0e0"/>
                  </g>
                </g>
                <g id="Group_4489" data-name="Group 4489" transform="translate(7.996 54.167)">
                  <g id="Group_4488" data-name="Group 4488">
                    <path id="Path_9181" data-name="Path 9181" d="M273.313,436.778l-6.047,34.008h3.4l11.149-34.008Z" transform="translate(-267.266 -436.778)" fill="#e0e0e0"/>
                  </g>
                </g>
                <g id="Group_4491" data-name="Group 4491" transform="translate(100.639 54.167)">
                  <g id="Group_4490" data-name="Group 4490">
                    <path id="Path_9182" data-name="Path 9182" d="M378.391,436.778l5.057,34.067h-3.4l-10.159-34.067Z" transform="translate(-369.888 -436.778)" fill="#e0e0e0"/>
                  </g>
                </g>
                <g id="Group_4493" data-name="Group 4493" transform="translate(123.344 54.167)">
                  <g id="Group_4492" data-name="Group 4492">
                    <path id="Path_9183" data-name="Path 9183" d="M403.542,436.778l5.729,34.067h-3.4l-10.832-34.067Z" transform="translate(-395.039 -436.778)" fill="#e0e0e0"/>
                  </g>
                </g>
                <g id="Group_4495" data-name="Group 4495" transform="translate(57.056 41.047)">
                  <g id="Group_4494" data-name="Group 4494">
                    <path id="Path_9184" data-name="Path 9184" d="M324.641,423.76a1.515,1.515,0,1,1-.444-1.072,1.515,1.515,0,0,1,.444,1.072Z" transform="translate(-321.61 -422.244)" fill="#e0e0e0"/>
                  </g>
                </g>
                <g id="Group_4498" data-name="Group 4498" transform="translate(2.911 34.421)">
                  <g id="Group_4497" data-name="Group 4497">
                    <g id="Group_4496" data-name="Group 4496">
                      <path id="Path_9185" data-name="Path 9185" d="M261.776,415.2H373.013a.147.147,0,0,0,0-.294H261.776a.147.147,0,0,0,0,.294Z" transform="translate(-261.633 -414.904)" fill="#e0e0e0"/>
                    </g>
                  </g>
                </g>
              </g>
            </g>
            <g id="Group_4504" data-name="Group 4504" transform="translate(475.743)">
              <g id="Group_4501" data-name="Group 4501" opacity="0.1">
                <rect id="Rectangle_484" data-name="Rectangle 484" width="74.258" height="99.596" fill="#015a58"/>
              </g>
              <g id="Group_4502" data-name="Group 4502" transform="translate(3.865 3.914)" opacity="0.1">
                <rect id="Rectangle_485" data-name="Rectangle 485" width="66.527" height="91.768" fill="#0fc2bf"/>
              </g>
              <g id="Group_4503" data-name="Group 4503" transform="translate(25.424 35.657)" opacity="0.1">
                <rect id="Rectangle_486" data-name="Rectangle 486" width="25.398" height="29.022" fill="#015a58"/>
              </g>
            </g>
            <g id="Group_4508" data-name="Group 4508" transform="translate(517.661 123.208)" opacity="0.12">
              <g id="Group_4505" data-name="Group 4505">
                <rect id="Rectangle_487" data-name="Rectangle 487" width="48.224" height="64.679" transform="translate(0 48.224) rotate(-90)" fill="#015a58"/>
              </g>
              <g id="Group_4506" data-name="Group 4506" transform="translate(2.542 2.51)">
                <rect id="Rectangle_488" data-name="Rectangle 488" width="59.595" height="43.204" fill="#0caba7"/>
              </g>
              <g id="Group_4507" data-name="Group 4507" transform="translate(23.156 15.22)">
                <rect id="Rectangle_489" data-name="Rectangle 489" width="16.494" height="18.847" transform="translate(0 16.494) rotate(-90)" fill="#015a58"/>
              </g>
            </g>
            <g id="Group_4512" data-name="Group 4512" transform="translate(0 38.461)" opacity="0.2">
              <g id="Group_4509" data-name="Group 4509">
                <rect id="Rectangle_490" data-name="Rectangle 490" width="47.116" height="63.193" fill="#015a58"/>
              </g>
              <g id="Group_4510" data-name="Group 4510" transform="translate(2.453 2.483)">
                <rect id="Rectangle_491" data-name="Rectangle 491" width="42.211" height="58.226" fill="#0fc2bf"/>
              </g>
              <g id="Group_4511" data-name="Group 4511" transform="translate(16.131 22.624)">
                <rect id="Rectangle_492" data-name="Rectangle 492" width="16.115" height="18.414" fill="#015a58"/>
              </g>
            </g>
            <g id="Group_4524" data-name="Group 4524" transform="translate(259.035 232.794)">
              <g id="Group_4522" data-name="Group 4522">
                <g id="Group_4515" data-name="Group 4515">
                  <g id="Group_4514" data-name="Group 4514">
                    <g id="Group_4513" data-name="Group 4513">
                      <path id="Path_9186" data-name="Path 9186" d="M343.551,342.681l-3.212,29.8h41.147l3.412-29.8Z" transform="translate(-340.339 -342.681)" fill="#ebebeb"/>
                    </g>
                  </g>
                </g>
                <g id="Group_4518" data-name="Group 4518" transform="translate(1.779 2.141)">
                  <g id="Group_4517" data-name="Group 4517">
                    <g id="Group_4516" data-name="Group 4516">
                      <path id="Path_9187" data-name="Path 9187" d="M345.434,345.052,342.31,371.13h37.134l3-26.078Z" transform="translate(-342.31 -345.052)" fill="#fafafa"/>
                    </g>
                  </g>
                </g>
                <g id="Group_4521" data-name="Group 4521" transform="translate(9.23 6.527)">
                  <g id="Group_4520" data-name="Group 4520">
                    <g id="Group_4519" data-name="Group 4519">
                      <path id="Path_9188" data-name="Path 9188" d="M352.486,349.911l-1.923,17.3H374l1.2-17.3Z" transform="translate(-350.563 -349.911)" fill="#e0e0e0"/>
                    </g>
                  </g>
                </g>
              </g>
              <g id="Group_4523" data-name="Group 4523" transform="translate(41.147 11.719)">
                <path id="Path_9189" data-name="Path 9189" d="M387.861,356.778l8.5,17.087-10.442-.12,2.07-18.083" transform="translate(-385.918 -355.662)" fill="#f5f5f5"/>
              </g>
            </g>
          </g>
          <g id="Floor" transform="translate(51.37 432.89)">
            <g id="Group_4526" data-name="Group 4526">
              <g id="Group_4525" data-name="Group 4525">
                <path id="Path_9190" data-name="Path 9190" d="M619.442,474.235c0,.129-127.177.235-284.023.235-156.9,0-284.05-.106-284.05-.235S178.52,474,335.42,474C492.265,474,619.442,474.1,619.442,474.235Z" transform="translate(-51.37 -473.999)" fill="#263238"/>
              </g>
            </g>
          </g>
          <g id="Loading" transform="translate(125.431 74.632)">
            <g id="Group_4546" data-name="Group 4546">
              <g id="Group_4533" data-name="Group 4533">
                <g id="Group_4530" data-name="Group 4530">
                  <g id="Group_4527" data-name="Group 4527" transform="translate(0.235 0.235)">
                    <rect id="Rectangle_493" data-name="Rectangle 493" width="339.681" height="223.589" fill="#ebebeb"/>
                  </g>
                  <g id="Group_4529" data-name="Group 4529">
                    <g id="Group_4528" data-name="Group 4528">
                      <path id="Path_9191" data-name="Path 9191" d="M473.324,300.978c0-1.527-.073-87.205-.187-223.589l.187.187-339.654.048h-.027l.236-.235c-.007,79.539-.014,155.222-.02,223.589l-.216-.216,339.682.216-339.682.216h-.216v-.216c-.006-68.367-.013-144.05-.019-223.589v-.236h.262l339.654.048h.187v.188C473.4,213.773,473.325,299.452,473.324,300.978Z" transform="translate(-133.408 -77.153)" fill="#263238"/>
                    </g>
                  </g>
                </g>
                <g id="Group_4532" data-name="Group 4532" transform="translate(0.235 19.895)">
                  <g id="Group_4531" data-name="Group 4531">
                    <path id="Path_9192" data-name="Path 9192" d="M473.35,99.426c0,.13-76.047.235-169.833.235-93.819,0-169.848-.1-169.848-.235s76.03-.235,169.848-.235C397.3,99.191,473.35,99.3,473.35,99.426Z" transform="translate(-133.668 -99.191)" fill="#263238"/>
                  </g>
                </g>
              </g>
              <g id="Group_4534" data-name="Group 4534" transform="translate(31.883 53.209)">
                <rect id="Rectangle_494" data-name="Rectangle 494" width="284.765" height="38.971" fill="#e0e0e0"/>
              </g>
              <g id="Group_4535" data-name="Group 4535" transform="translate(27.013 160.338)">
                <rect id="Rectangle_495" data-name="Rectangle 495" width="63.22" height="63.22" fill="#e0e0e0"/>
              </g>
              <g id="Group_4536" data-name="Group 4536" transform="translate(101.747 160.338)">
                <rect id="Rectangle_496" data-name="Rectangle 496" width="63.22" height="63.22" fill="#e0e0e0"/>
              </g>
              <g id="Group_4537" data-name="Group 4537" transform="translate(174.248 160.338)">
                <rect id="Rectangle_497" data-name="Rectangle 497" width="63.22" height="63.22" fill="#e0e0e0"/>
              </g>
              <g id="Group_4541" data-name="Group 4541" transform="translate(60.856 112.425)">
                <g id="Group_4538" data-name="Group 4538" transform="translate(0.23 0.235)">
                  <path id="Path_9193" data-name="Path 9193" d="M280.048,222.834h-68.53a10.444,10.444,0,0,1-10.444-10.443h0a10.444,10.444,0,0,1,10.444-10.444h68.53a10.444,10.444,0,0,1,10.443,10.443h0a10.443,10.443,0,0,1-10.443,10.443Z" transform="translate(-201.074 -201.947)" fill="#015a58"/>
                </g>
                <g id="Group_4540" data-name="Group 4540">
                  <g id="Group_4539" data-name="Group 4539">
                    <path id="Path_9194" data-name="Path 9194" d="M360.13,222.809s.317-.032.933-.071c.308-.023.685-.1,1.138-.172a11.507,11.507,0,0,0,1.521-.455,10.347,10.347,0,0,0-1.812-19.9,36.045,36.045,0,0,0-5.026-.155l-5.387.009-11.71.016-128.286.07a10.2,10.2,0,1,0-.68,20.387c1.458.068,2.964.019,4.433.034l34.061.014,57.675.051,38.882.075,10.571.044,2.749.023c.619.007.936.023.936.023s-.317.016-.936.024l-2.749.023-10.571.044-38.882.074-57.675.051-34.061.014c-1.483-.015-2.946.036-4.463-.033a10.671,10.671,0,0,1,.71-21.319l128.286.069,11.71.017,5.387.009a35.959,35.959,0,0,1,5.071.177,10.511,10.511,0,0,1,1.8,20.242,11.466,11.466,0,0,1-1.539.436c-.457.06-.838.133-1.147.149C360.447,222.809,360.13,222.809,360.13,222.809Z" transform="translate(-200.819 -201.687)" fill="#263238"/>
                  </g>
                </g>
              </g>
              <g id="Group_4542" data-name="Group 4542" transform="translate(127.648 140.401)">
                <path id="Path_9195" data-name="Path 9195" d="M275.9,233.169h.78l-.959,4.78h2.962l-.132.678H274.8Z" transform="translate(-274.805 -232.725)" fill="#263238"/>
                <path id="Path_9196" data-name="Path 9196" d="M279.75,237.027a2.353,2.353,0,0,1,2.425-2.432,1.739,1.739,0,0,1,1.933,1.777,2.349,2.349,0,0,1-2.417,2.44,1.755,1.755,0,0,1-1.941-1.785Zm3.6-.617a1.091,1.091,0,0,0-1.232-1.162A1.628,1.628,0,0,0,280.506,237a1.1,1.1,0,0,0,1.232,1.162,1.624,1.624,0,0,0,1.614-1.752Z" transform="translate(-275.286 -232.864)" fill="#263238"/>
                <path id="Path_9197" data-name="Path 9197" d="M289.946,234.634l-.819,4.132h-.717l.1-.507a2.058,2.058,0,0,1-1.458.553,1.7,1.7,0,0,1-1.824-1.785,2.311,2.311,0,0,1,2.338-2.432,1.571,1.571,0,0,1,1.49.74l.141-.7Zm-1.115,1.777a1.092,1.092,0,0,0-1.232-1.162A1.628,1.628,0,0,0,285.985,237a1.1,1.1,0,0,0,1.232,1.162,1.624,1.624,0,0,0,1.614-1.752Z" transform="translate(-275.819 -232.864)" fill="#263238"/>
                <path id="Path_9198" data-name="Path 9198" d="M296.166,232.807l-1.154,5.785h-.718l.1-.507a2.061,2.061,0,0,1-1.459.553,1.7,1.7,0,0,1-1.824-1.785,2.311,2.311,0,0,1,2.339-2.432,1.573,1.573,0,0,1,1.5.748l.469-2.363Zm-1.45,3.43a1.092,1.092,0,0,0-1.232-1.162,1.628,1.628,0,0,0-1.614,1.747,1.1,1.1,0,0,0,1.232,1.162,1.624,1.624,0,0,0,1.614-1.747Z" transform="translate(-276.391 -232.69)" fill="#263238"/>
                <path id="Path_9199" data-name="Path 9199" d="M297.826,234.447h.748l-.818,4.132h-.749Zm.125-1.248a.517.517,0,0,1,.538-.523.455.455,0,0,1,.476.437.518.518,0,0,1-.546.538.452.452,0,0,1-.469-.451Z" transform="translate(-276.964 -232.677)" fill="#263238"/>
                <path id="Path_9200" data-name="Path 9200" d="M303.843,235.966a2.683,2.683,0,0,1-.047.483l-.459,2.316h-.748l.46-2.316a1.906,1.906,0,0,0,.04-.343c0-.537-.312-.841-.96-.841a1.457,1.457,0,0,0-1.528,1.318l-.436,2.183h-.748l.818-4.132h.718l-.1.529a2.028,2.028,0,0,1,1.5-.568,1.312,1.312,0,0,1,1.49,1.371Z" transform="translate(-277.198 -232.864)" fill="#263238"/>
                <path id="Path_9201" data-name="Path 9201" d="M310.056,234.634l-.71,3.57a2.268,2.268,0,0,1-2.472,2.121,2.9,2.9,0,0,1-1.887-.585l.413-.577a2.3,2.3,0,0,0,1.528.5,1.478,1.478,0,0,0,1.645-1.342l.062-.3a2.1,2.1,0,0,1-1.5.569,1.657,1.657,0,0,1-1.84-1.684,2.267,2.267,0,0,1,2.354-2.315,1.622,1.622,0,0,1,1.544.794l.148-.756Zm-1.146,1.684c0-.664-.452-1.069-1.232-1.069a1.563,1.563,0,0,0-1.622,1.614c0,.671.46,1.077,1.232,1.077a1.565,1.565,0,0,0,1.623-1.623Z" transform="translate(-277.74 -232.864)" fill="#263238"/>
                <path id="Path_9202" data-name="Path 9202" d="M313.307,238.653a.55.55,0,0,1,.553-.57.483.483,0,0,1,.491.506.546.546,0,0,1-.546.562.492.492,0,0,1-.5-.5Z" transform="translate(-278.549 -233.203)" fill="#263238"/>
                <path id="Path_9203" data-name="Path 9203" d="M315.265,238.653a.551.551,0,0,1,.554-.57.483.483,0,0,1,.49.506.545.545,0,0,1-.545.562.493.493,0,0,1-.5-.5Z" transform="translate(-278.739 -233.203)" fill="#263238"/>
                <path id="Path_9204" data-name="Path 9204" d="M317.224,238.653a.55.55,0,0,1,.553-.57.483.483,0,0,1,.491.506.546.546,0,0,1-.546.562.492.492,0,0,1-.5-.5Z" transform="translate(-278.93 -233.203)" fill="#263238"/>
              </g>
              <g id="Group_4543" data-name="Group 4543" transform="translate(8.231 8.657)">
                <path id="Path_9205" data-name="Path 9205" d="M147.506,89.231a2.49,2.49,0,1,1-2.49-2.489A2.49,2.49,0,0,1,147.506,89.231Z" transform="translate(-142.526 -86.742)" fill="#263238"/>
              </g>
              <g id="Group_4544" data-name="Group 4544" transform="translate(18.813 8.657)">
                <path id="Path_9206" data-name="Path 9206" d="M159.227,89.231a2.49,2.49,0,1,1-2.49-2.489A2.49,2.49,0,0,1,159.227,89.231Z" transform="translate(-154.247 -86.742)" fill="#263238"/>
              </g>
              <g id="Group_4545" data-name="Group 4545" transform="translate(29.394 8.657)">
                <path id="Path_9207" data-name="Path 9207" d="M170.947,89.231a2.489,2.489,0,1,1-2.489-2.489A2.489,2.489,0,0,1,170.947,89.231Z" transform="translate(-165.968 -86.742)" fill="#263238"/>
              </g>
            </g>
          </g>
          <g id="Character" transform="translate(311.153 51.226)">
            <g id="Group_4686" data-name="Group 4686">
              <g id="Group_4561" data-name="Group 4561">
                <g id="Group_4550" data-name="Group 4550">
                  <g id="Group_4547" data-name="Group 4547" transform="translate(0.235 0.188)">
                    <circle id="Ellipse_23" data-name="Ellipse 23" cx="118.555" cy="118.555" r="118.555" transform="translate(0 0)" fill="#f5f5f5"/>
                  </g>
                  <g id="Group_4549" data-name="Group 4549">
                    <g id="Group_4548" data-name="Group 4548">
                      <path id="Path_9208" data-name="Path 9208" d="M576.478,169.969s-.032-.651-.073-1.922q-.028-.956-.071-2.367c-.023-.942-.048-2.035-.169-3.27q-.145-1.855-.326-4.145c-.155-1.522-.4-3.179-.623-4.977a124.757,124.757,0,0,0-2.409-12.276,117.566,117.566,0,0,0-4.857-14.886,114.455,114.455,0,0,0-8.245-16.691,119.865,119.865,0,0,0-30.086-33.659,118.116,118.116,0,0,0-49.844-22.12,120.278,120.278,0,0,0-46.383.532,116.842,116.842,0,0,0-31.222,11.4,124.75,124.75,0,0,0-14.58,9.233,129.751,129.751,0,0,0-13.354,11.5,127.579,127.579,0,0,0-11.69,13.643,116.562,116.562,0,0,0-9.649,15.53c-.681,1.379-1.45,2.719-2.061,4.137q-.955,2.111-1.912,4.23c-1.142,2.882-2.323,5.763-3.264,8.743a115.263,115.263,0,0,0-4.507,18.306,118.1,118.1,0,0,0,0,38.093,115.423,115.423,0,0,0,4.5,18.313l.75,2.218.375,1.107.428,1.087q.856,2.172,1.711,4.335l1.912,4.231c.61,1.42,1.38,2.759,2.061,4.138a116.543,116.543,0,0,0,9.649,15.537,127.542,127.542,0,0,0,11.692,13.647,129.6,129.6,0,0,0,13.355,11.5,118.547,118.547,0,0,0,29.983,16.121,126.362,126.362,0,0,0,15.826,4.512,120.3,120.3,0,0,0,46.388.529,118.082,118.082,0,0,0,49.843-22.125,119.825,119.825,0,0,0,30.084-33.66,114.38,114.38,0,0,0,8.243-16.689,117.406,117.406,0,0,0,4.856-14.885,124.756,124.756,0,0,0,2.409-12.274c.223-1.8.468-3.455.623-4.977q.18-2.287.327-4.144c.12-1.235.145-2.327.168-3.269s.052-1.73.071-2.366c.041-1.271.073-1.922.073-1.922s0,.651-.024,1.922q-.02.957-.049,2.369c-.014.943-.032,2.036-.145,3.273q-.135,1.857-.3,4.149c-.147,1.524-.385,3.183-.6,4.985a124.039,124.039,0,0,1-2.37,12.3,117.152,117.152,0,0,1-4.825,14.923,114.264,114.264,0,0,1-8.226,16.741,119.934,119.934,0,0,1-30.107,33.79,118.389,118.389,0,0,1-49.974,22.244,120.62,120.62,0,0,1-46.546-.5,117.172,117.172,0,0,1-31.348-11.424,125.086,125.086,0,0,1-14.641-9.262,130.146,130.146,0,0,1-13.411-11.544,128.044,128.044,0,0,1-11.74-13.7,116.989,116.989,0,0,1-9.69-15.594c-.683-1.385-1.457-2.73-2.07-4.155q-.957-2.119-1.92-4.247-.857-2.172-1.719-4.352l-.429-1.091-.376-1.111-.754-2.227a115.82,115.82,0,0,1-4.525-18.385,118.511,118.511,0,0,1,.005-38.243,115.635,115.635,0,0,1,4.527-18.378c.946-2.993,2.131-5.885,3.279-8.778l1.919-4.246c.615-1.425,1.387-2.77,2.07-4.154a117.018,117.018,0,0,1,9.69-15.589A127.993,127.993,0,0,1,373.92,85.99a130.193,130.193,0,0,1,13.409-11.54,118.935,118.935,0,0,1,30.1-16.163A126.7,126.7,0,0,1,433.3,53.773a120.669,120.669,0,0,1,46.543-.5A118.386,118.386,0,0,1,529.82,75.512,119.963,119.963,0,0,1,559.931,109.3a114.329,114.329,0,0,1,8.227,16.743,117.033,117.033,0,0,1,4.827,14.924,124.04,124.04,0,0,1,2.37,12.3c.216,1.8.454,3.461.6,4.986q.168,2.29.3,4.15c.113,1.236.131,2.33.145,3.273s.035,1.731.049,2.369C576.477,169.318,576.478,169.969,576.478,169.969Z" transform="translate(-339.134 -51.226)" fill="#263238"/>
                    </g>
                  </g>
                </g>
                <g id="Group_4558" data-name="Group 4558" transform="translate(11.213 8.887)">
                  <g id="Group_4557" data-name="Group 4557" clip-path="url(#clip-path-2)">
                    <g id="Group_4551" data-name="Group 4551">
                      <path id="Path_9209" data-name="Path 9209" d="M411.63,212.312a63.645,63.645,0,1,1,91.276,1.379l32.029,31.275a107.584,107.584,0,1,0-152.58-.995Z" transform="translate(-351.555 -61.07)" fill="#015a58"/>
                    </g>
                    <g id="Group_4552" data-name="Group 4552" transform="translate(140.406 107.023)" opacity="0.8">
                      <path id="Path_9210" data-name="Path 9210" d="M530.551,179.621h57.858s-5.851,47.1-7.021,47.976-35.4,40.37-35.4,40.37l-38.907-46.221Z" transform="translate(-507.084 -179.621)"/>
                    </g>
                    <g id="Group_4553" data-name="Group 4553" transform="translate(148.264 27.88)" opacity="0.7">
                      <path id="Path_9211" data-name="Path 9211" d="M515.788,132.137l40.946-40.185,28.821,43L589.4,171.09h-57.3l-10.436-22.97Z" transform="translate(-515.788 -91.953)"/>
                    </g>
                    <g id="Group_4554" data-name="Group 4554" transform="translate(109.786 -4.433)" opacity="0.5">
                      <path id="Path_9212" data-name="Path 9212" d="M473.478,114.082c-.7-1.171,0-57.923,0-57.923l35.281,4.433,43.435,28.039-41.732,40.955-26.277-3.8Z" transform="translate(-473.167 -56.159)"/>
                    </g>
                    <g id="Group_4555" data-name="Group 4555" transform="translate(26.063 -4.433)" opacity="0.3">
                      <path id="Path_9213" data-name="Path 9213" d="M380.425,90.679c.878.292,38.907,40.955,38.907,40.955l33.934-13.457L464.149,104.6l.311-48.444-40.447,4.433Z" transform="translate(-380.425 -56.159)"/>
                    </g>
                    <g id="Group_4556" data-name="Group 4556" transform="translate(-3.815 32.741)" opacity="0.1">
                      <path id="Path_9214" data-name="Path 9214" d="M347.329,171.62c.877.585,64.358,0,64.358,0l-1.119-41.778-30.642-32.5-20.9,24.843Z" transform="translate(-347.329 -97.338)"/>
                    </g>
                  </g>
                </g>
                <g id="Group_4559" data-name="Group 4559" transform="translate(95.294 94.041)">
                  <circle id="Ellipse_24" data-name="Ellipse 24" cx="24.702" cy="24.702" r="24.702" transform="translate(0 0)" fill="#e0e0e0"/>
                </g>
                <g id="Group_4560" data-name="Group 4560" transform="translate(112.436 100.791)">
                  <path id="Path_9216" data-name="Path 9216" d="M463.965,182.475h0a7.013,7.013,0,0,0,8.647,4.78l85.9-24.382-88.654,10.672a7.013,7.013,0,0,0-5.893,8.93Z" transform="translate(-463.681 -162.873)" fill="#455a64"/>
                </g>
              </g>
              <g id="Group_4562" data-name="Group 4562" transform="translate(74.206 172.169)">
                <path id="Path_9217" data-name="Path 9217" d="M453.934,241.939l-4.726,23.972h-6.267l2.466-12.637-7.98,10.273h-2.979L430.1,253.274l-2.535,12.637h-6.232l4.794-23.972h5.513l5.616,13.869,10.89-13.869Z" transform="translate(-421.333 -241.939)" fill="#263238"/>
                <path id="Path_9218" data-name="Path 9218" d="M480.564,247.9l-3.7,18.561H470.7l.377-1.747a7.624,7.624,0,0,1-5.378,2.055c-4.006,0-7.841-3.049-7.841-8.459,0-6.164,4.52-10.719,10.068-10.719,2.5,0,4.521.754,5.685,2.535l.445-2.226Zm-8.184,8.458a3.283,3.283,0,0,0-3.527-3.561c-2.568,0-4.418,2.089-4.418,5.2a3.257,3.257,0,0,0,3.527,3.527C470.565,261.529,472.38,259.44,472.38,256.358Z" transform="translate(-424.885 -242.489)" fill="#263238"/>
                <path id="Path_9219" data-name="Path 9219" d="M497.264,257.281l5.034,9.213h-6.917l-2.534-4.863-4.486,4.863H481l9.28-9.521-4.9-9.04h6.82l2.465,4.725,4.418-4.725h7.157Z" transform="translate(-427.135 -242.522)" fill="#263238"/>
                <path id="Path_9220" data-name="Path 9220" d="M506.488,264.443a4.04,4.04,0,0,1,4.178-4.144,3.424,3.424,0,0,1,3.663,3.562A4.05,4.05,0,0,1,510.187,268a3.51,3.51,0,0,1-3.7-3.557Z" transform="translate(-429.613 -243.724)" fill="#263238"/>
              </g>
              <g id="Group_4563" data-name="Group 4563" transform="translate(104.416 200.792)">
                <path id="Path_9221" data-name="Path 9221" d="M458.431,286.921h7.483l-.363,1.86H454.8l.3-1.453,7.291-5.836c2.009-1.625,2.607-2.608,2.607-3.827,0-1.3-.919-2.159-2.929-2.159a5.325,5.325,0,0,0-3.868,1.666l-1.434-1.239a7.512,7.512,0,0,1,5.6-2.288c3.037,0,4.768,1.539,4.768,3.741,0,1.731-.748,3.228-3.313,5.259Z" transform="translate(-454.797 -273.645)" fill="#263238"/>
                <path id="Path_9222" data-name="Path 9222" d="M474.326,275.7l-1.239,4.1h1.453c3.826,0,5.558,1.582,5.558,4,0,3.1-2.544,5.174-6.371,5.174a7.018,7.018,0,0,1-5.238-1.881l1.133-1.646a5.628,5.628,0,0,0,4.255,1.625c2.586,0,4.083-1.133,4.083-3.037,0-1.475-1.07-2.372-3.806-2.372H470.52l2.33-7.825h8.45l-.364,1.861Z" transform="translate(-456.128 -273.663)" fill="#263238"/>
                <path id="Path_9223" data-name="Path 9223" d="M483.673,283.458c0-5.2,2.929-9.813,7.568-9.813,3.143,0,5.046,2.031,5.046,5.494,0,5.2-2.949,9.813-7.546,9.813C485.576,288.952,483.673,286.921,483.673,283.458Zm10.476-4.275c0-2.373-1.154-3.635-3.078-3.635-3.377,0-5.259,4.384-5.259,7.868,0,2.373,1.154,3.635,3.1,3.635,3.355,0,5.237-4.384,5.237-7.868Z" transform="translate(-457.605 -273.645)" fill="#263238"/>
              </g>
              <g id="Group_4570" data-name="Group 4570" transform="translate(248.083 352.627)">
                <g id="Group_4564" data-name="Group 4564">
                  <path id="Path_9224" data-name="Path 9224" d="M613.938,452.381l3.836,6.2,9.775-11.291-5.149-5.454Z" transform="translate(-613.938 -441.835)" fill="#015a58"/>
                </g>
                <g id="Group_4566" data-name="Group 4566" transform="translate(2.751 4.297)">
                  <g id="Group_4565" data-name="Group 4565">
                    <path id="Path_9225" data-name="Path 9225" d="M626.978,446.6a9.292,9.292,0,0,1-1.314,1.741c-.865,1.03-2.1,2.413-3.5,3.912l-3.6,3.81A10.6,10.6,0,0,1,617,457.575a9.439,9.439,0,0,1,1.32-1.736c.867-1.028,2.109-2.409,3.506-3.908l3.6-3.812A10.819,10.819,0,0,1,626.978,446.6Z" transform="translate(-616.985 -446.595)" fill="#263238"/>
                  </g>
                </g>
                <g id="Group_4568" data-name="Group 4568" transform="translate(3.746 4.878)">
                  <g id="Group_4567" data-name="Group 4567">
                    <path id="Path_9226" data-name="Path 9226" d="M618.093,447.244a20.985,20.985,0,0,1,4.463,4.423,20.983,20.983,0,0,1-4.463-4.423Z" transform="translate(-618.087 -447.238)" fill="#263238"/>
                  </g>
                </g>
                <g id="Group_4569" data-name="Group 4569" transform="translate(2.666 4.422)" opacity="0.6">
                  <path id="Path_9227" data-name="Path 9227" d="M618.061,459.056l9.775-11.291-.974-1.032-9.971,10.954,1.043,1.259" transform="translate(-616.891 -446.733)" fill="#fff"/>
                </g>
              </g>
              <g id="Group_4638" data-name="Group 4638" transform="translate(160.559 376.445)">
                <g id="Group_4637" data-name="Group 4637">
                  <g id="Group_4577" data-name="Group 4577" transform="translate(0.046)">
                    <g id="Group_4573" data-name="Group 4573">
                      <g id="Group_4572" data-name="Group 4572">
                        <g id="Group_4571" data-name="Group 4571">
                          <path id="Path_9228" data-name="Path 9228" d="M527.453,469.742l.026-1.524,15.427.12-.028,5.022-.952.051c-4.24.194-21.573.711-24.4-.1C514.378,472.4,527.453,469.742,527.453,469.742Z" transform="translate(-517.038 -468.218)" fill="#015a58"/>
                        </g>
                      </g>
                    </g>
                    <g id="Group_4576" data-name="Group 4576" transform="translate(20.273 0.93)" opacity="0.6">
                      <g id="Group_4575" data-name="Group 4575">
                        <g id="Group_4574" data-name="Group 4574">
                          <path id="Path_9229" data-name="Path 9229" d="M539.495,473.317a4.932,4.932,0,0,1,1.991-3.034,5.467,5.467,0,0,1,3.6-1.017l-.037,3.991Z" transform="translate(-539.495 -469.248)" fill="#fff"/>
                        </g>
                      </g>
                    </g>
                  </g>
                  <g id="Group_4580" data-name="Group 4580" transform="translate(0 3.033)" opacity="0.6">
                    <g id="Group_4579" data-name="Group 4579">
                      <g id="Group_4578" data-name="Group 4578">
                        <path id="Path_9230" data-name="Path 9230" d="M521.057,471.578s-4.586,1.2-4.023,1.9,18.1.794,25.839.2l-.021-.32-20.455.057S521.951,471.618,521.057,471.578Z" transform="translate(-516.987 -471.578)" fill="#fff"/>
                      </g>
                    </g>
                  </g>
                  <g id="Group_4584" data-name="Group 4584" transform="translate(0.045 4.692)">
                    <g id="Group_4583" data-name="Group 4583">
                      <g id="Group_4582" data-name="Group 4582">
                        <g id="Group_4581" data-name="Group 4581">
                          <path id="Path_9231" data-name="Path 9231" d="M543.1,473.539a1.5,1.5,0,0,1-.265.025l-.758.039-2.792.1c-2.359.067-5.618.118-9.218.1s-6.86-.1-9.216-.185l-2.79-.123-.758-.045a1.489,1.489,0,0,1-.264-.028,1.64,1.64,0,0,1,.265-.007l.759.013,2.792.067c2.357.057,5.614.118,9.214.135s6.856-.017,9.214-.052l2.792-.042.76-.006A1.632,1.632,0,0,1,543.1,473.539Z" transform="translate(-517.037 -473.415)" fill="#263238"/>
                        </g>
                      </g>
                    </g>
                  </g>
                  <g id="Group_4588" data-name="Group 4588" transform="translate(3.959 2.857)">
                    <g id="Group_4587" data-name="Group 4587">
                      <g id="Group_4586" data-name="Group 4586">
                        <g id="Group_4585" data-name="Group 4585">
                          <path id="Path_9232" data-name="Path 9232" d="M522.826,473.627a5.566,5.566,0,0,0-.51-1.241,6.011,6.011,0,0,0-.943-1,2.043,2.043,0,0,1,1.1.909,1.811,1.811,0,0,1,.353,1.332Z" transform="translate(-521.372 -471.382)" fill="#263238"/>
                        </g>
                      </g>
                    </g>
                  </g>
                  <g id="Group_4592" data-name="Group 4592" transform="translate(9.156 1.793)">
                    <g id="Group_4591" data-name="Group 4591">
                      <g id="Group_4590" data-name="Group 4590">
                        <g id="Group_4589" data-name="Group 4589">
                          <path id="Path_9233" data-name="Path 9233" d="M527.937,471.4c-.043.025-.257-.221-.478-.551s-.365-.617-.321-.642.258.221.479.55S527.981,471.373,527.937,471.4Z" transform="translate(-527.13 -470.204)" fill="#263238"/>
                        </g>
                      </g>
                    </g>
                  </g>
                  <g id="Group_4596" data-name="Group 4596" transform="translate(10.259 1.572)">
                    <g id="Group_4595" data-name="Group 4595">
                      <g id="Group_4594" data-name="Group 4594">
                        <g id="Group_4593" data-name="Group 4593">
                          <path id="Path_9234" data-name="Path 9234" d="M529.3,470.77c-.034.035-.275-.116-.538-.339s-.447-.431-.413-.467.275.116.538.339S529.34,470.734,529.3,470.77Z" transform="translate(-528.35 -469.959)" fill="#263238"/>
                        </g>
                      </g>
                    </g>
                  </g>
                  <g id="Group_4600" data-name="Group 4600" transform="translate(10.407 0.956)">
                    <g id="Group_4599" data-name="Group 4599">
                      <g id="Group_4598" data-name="Group 4598">
                        <g id="Group_4597" data-name="Group 4597">
                          <path id="Path_9235" data-name="Path 9235" d="M530.12,469.359a3.76,3.76,0,1,1-.8-.082A1.943,1.943,0,0,1,530.12,469.359Z" transform="translate(-528.515 -469.277)" fill="#263238"/>
                        </g>
                      </g>
                    </g>
                  </g>
                  <g id="Group_4604" data-name="Group 4604" transform="translate(10.472 0.075)">
                    <g id="Group_4603" data-name="Group 4603">
                      <g id="Group_4602" data-name="Group 4602">
                        <g id="Group_4601" data-name="Group 4601">
                          <path id="Path_9236" data-name="Path 9236" d="M530.406,468.315a1.647,1.647,0,0,1-.9.237,1.664,1.664,0,0,1-.923-.119q.91-.047,1.819-.118Z" transform="translate(-528.587 -468.301)" fill="#263238"/>
                        </g>
                      </g>
                    </g>
                  </g>
                  <g id="Group_4608" data-name="Group 4608" transform="translate(6.568 0.445)">
                    <g id="Group_4607" data-name="Group 4607">
                      <g id="Group_4606" data-name="Group 4606">
                        <g id="Group_4605" data-name="Group 4605">
                          <path id="Path_9237" data-name="Path 9237" d="M527.149,470a3.042,3.042,0,0,1-.987-.011,6.124,6.124,0,0,1-1.049-.221,2.954,2.954,0,0,1-.6-.233.5.5,0,0,1-.242-.286.35.35,0,0,1,.153-.367,1.892,1.892,0,0,1,2.234.5,1.59,1.59,0,0,1,.316.614c.038.157.034.246.023.248a2.54,2.54,0,0,0-.442-.785,1.787,1.787,0,0,0-.839-.514,1.638,1.638,0,0,0-1.177.069c-.157.107-.1.279.076.376a3,3,0,0,0,.552.223,7.05,7.05,0,0,0,1.014.251C526.773,469.974,527.15,469.977,527.149,470Z" transform="translate(-524.263 -468.711)" fill="#263238"/>
                        </g>
                      </g>
                    </g>
                  </g>
                  <g id="Group_4612" data-name="Group 4612" transform="translate(9.081 0.012)">
                    <g id="Group_4611" data-name="Group 4611">
                      <g id="Group_4610" data-name="Group 4610">
                        <g id="Group_4609" data-name="Group 4609">
                          <path id="Path_9238" data-name="Path 9238" d="M527.164,470a.848.848,0,0,1-.108-.637,1.452,1.452,0,0,1,.275-.669,1.006,1.006,0,0,1,.826-.464.365.365,0,0,1,.3.425.971.971,0,0,1-.172.409,2.865,2.865,0,0,1-.471.553,1.46,1.46,0,0,1-.568.368c-.017-.023.2-.163.472-.453a3.187,3.187,0,0,0,.419-.548c.137-.193.233-.541-.014-.584a.9.9,0,0,0-.654.386,1.47,1.47,0,0,0-.284.6,3.012,3.012,0,0,0-.021.619Z" transform="translate(-527.045 -468.231)" fill="#263238"/>
                        </g>
                      </g>
                    </g>
                  </g>
                  <g id="Group_4616" data-name="Group 4616" transform="translate(20.334 0.807)">
                    <g id="Group_4615" data-name="Group 4615">
                      <g id="Group_4614" data-name="Group 4614">
                        <g id="Group_4613" data-name="Group 4613">
                          <path id="Path_9239" data-name="Path 9239" d="M545.007,469.211c0,.033-.44-.041-1.135.032a5.2,5.2,0,0,0-2.484.936,4.642,4.642,0,0,0-1.565,2.024c-.24.611-.267,1.023-.3,1.018a.772.772,0,0,1,0-.288,3.468,3.468,0,0,1,.174-.769,4.433,4.433,0,0,1,1.575-2.121,4.983,4.983,0,0,1,2.587-.922,4.314,4.314,0,0,1,.845.024.963.963,0,0,1,.3.066Z" transform="translate(-539.511 -469.111)" fill="#263238"/>
                        </g>
                      </g>
                    </g>
                  </g>
                  <g id="Group_4620" data-name="Group 4620" transform="translate(13.912 3.578)">
                    <g id="Group_4619" data-name="Group 4619">
                      <g id="Group_4618" data-name="Group 4618">
                        <g id="Group_4617" data-name="Group 4617">
                          <path id="Path_9240" data-name="Path 9240" d="M536.886,472.2a13.5,13.5,0,0,1-4.489.016c.005-.05,1.008.013,2.244.006S536.88,472.149,536.886,472.2Z" transform="translate(-532.397 -472.181)" fill="#263238"/>
                        </g>
                      </g>
                    </g>
                  </g>
                  <g id="Group_4624" data-name="Group 4624" transform="translate(20.965 3.602)">
                    <g id="Group_4623" data-name="Group 4623">
                      <g id="Group_4622" data-name="Group 4622">
                        <g id="Group_4621" data-name="Group 4621">
                          <path id="Path_9241" data-name="Path 9241" d="M540.655,472.213c.037.035-.084.2-.188.411s-.162.4-.216.4-.077-.226.047-.471S540.622,472.178,540.655,472.213Z" transform="translate(-540.21 -472.208)" fill="#263238"/>
                        </g>
                      </g>
                    </g>
                  </g>
                  <g id="Group_4628" data-name="Group 4628" transform="translate(21.969 2.293)">
                    <g id="Group_4627" data-name="Group 4627">
                      <g id="Group_4626" data-name="Group 4626">
                        <g id="Group_4625" data-name="Group 4625">
                          <path id="Path_9242" data-name="Path 9242" d="M541.91,470.765c.036.034-.064.182-.224.331s-.32.242-.357.209.064-.181.225-.331S541.874,470.732,541.91,470.765Z" transform="translate(-541.322 -470.759)" fill="#263238"/>
                        </g>
                      </g>
                    </g>
                  </g>
                  <g id="Group_4632" data-name="Group 4632" transform="translate(23.307 1.626)">
                    <g id="Group_4631" data-name="Group 4631">
                      <g id="Group_4630" data-name="Group 4630">
                        <g id="Group_4629" data-name="Group 4629">
                          <path id="Path_9243" data-name="Path 9243" d="M543.683,470.1c-.012.049-.216.046-.441.119s-.39.183-.431.151.09-.229.372-.315S543.7,470.059,543.683,470.1Z" transform="translate(-542.804 -470.019)" fill="#263238"/>
                        </g>
                      </g>
                    </g>
                  </g>
                  <g id="Group_4636" data-name="Group 4636" transform="translate(24.878 1.399)">
                    <g id="Group_4635" data-name="Group 4635">
                      <g id="Group_4634" data-name="Group 4634">
                        <g id="Group_4633" data-name="Group 4633">
                          <path id="Path_9244" data-name="Path 9244" d="M545.01,469.8c.019.044-.07.117-.2.162s-.246.045-.265,0,.071-.117.2-.163S544.992,469.756,545.01,469.8Z" transform="translate(-544.544 -469.768)" fill="#263238"/>
                        </g>
                      </g>
                    </g>
                  </g>
                </g>
              </g>
              <g id="Group_4639" data-name="Group 4639" transform="translate(126.8 105.842)">
                <path id="Path_9245" data-name="Path 9245" d="M517.475,240.086l-23.831-24.143L496.67,184.5l.546-.625c.3-.344.631-.72,1.025-1.133a5.92,5.92,0,0,1,1.577-1.173,9.124,9.124,0,0,1,2.279-.9c.745-.107.991-1.047.4-1.363s-2.655-.071-4.711,1.227-.809-2.271-.378-3.58,1.574-5.414,1.273-5.854c-.441-.645-1.233-.285-1.633,1.031-.4,1.332-1.879,5.185-2.564,4.943S496.1,170.2,496.1,170.2s.72-1.345-.062-1.651c-1.409-.553-3.316,6.663-3.48,7.354-.114.481-.868.244-.718-.266s2.434-6.568,1-7.144c-1.1-.442-1.624,5.923-2.8,6.933s.9-4.8-.17-5.179c-.4-.141-.714-.191-1.418,3.3a69.145,69.145,0,0,0-1.361,7.29h0L479.592,218.4l23.45,31.046Z" transform="translate(-479.592 -168.469)" fill="#914f4e"/>
              </g>
              <g id="Group_4640" data-name="Group 4640" transform="translate(165.79 107.103)">
                <path id="Path_9246" data-name="Path 9246" d="M533.819,171.1c-.981.565,2.1,5.908.76,5.125s-2.994-6.951-3.994-6.319c-1.3.823,2.022,6.36,2.269,6.848s-.46.843-.659.391c-.285-.65-3.453-7.409-4.741-6.612-.714.441.235,1.636.235,1.636s3.436,6.117,2.815,6.473-2.77-3.165-3.407-4.4-1.473-1.436-1.791-.722c-.217.487,1.642,4.322,2.3,5.533s2.524,4.5.269,3.589-4.324-.78-4.854-.363-.118,1.3.634,1.27a9.09,9.09,0,0,1,2.4.479,5.936,5.936,0,0,1,1.761.871c.461.336.859.646,1.211.932l.648.516,12.873,31.736-11.7,27.222,18.128,6.748,8.148-36-18.677-35.032h0a69.255,69.255,0,0,0-2.644-6.929C534.487,170.788,534.184,170.894,533.819,171.1Z" transform="translate(-522.781 -169.865)" fill="#914f4e"/>
              </g>
              <g id="Group_4658" data-name="Group 4658" transform="translate(156.565 240.629)">
                <g id="Group_4641" data-name="Group 4641">
                  <path id="Path_9247" data-name="Path 9247" d="M573.263,378.348l-11.776-60.575L544.86,319.2v-.139l-30.373,2.749s-1.422,69.57-1.927,69.57l8.318,63.417v.013l23.98-1.094-9.269-63.128,3.42-50.66L539.7,339l13.875,51.792,47.243,53.466,15.39-14.884Z" transform="translate(-512.563 -317.773)" fill="#455a64"/>
                </g>
                <g id="Group_4643" data-name="Group 4643" transform="translate(23.661 14.509)">
                  <g id="Group_4642" data-name="Group 4642">
                    <path id="Path_9248" data-name="Path 9248" d="M538.789,382.579a2.126,2.126,0,0,1-.014-.518c.014-.391.033-.881.054-1.481.07-1.349.167-3.191.285-5.44.29-4.649.683-10.961,1.118-17.936.441-6.331.845-12.116,1.153-16.537v-.058l.036-.043,4.162-4.944,1.156-1.332a2.881,2.881,0,0,1,.431-.443,2.77,2.77,0,0,1-.35.509l-1.082,1.393-4.041,5.044.04-.1c-.277,4.423-.64,10.21-1.037,16.544-.488,6.972-.93,13.281-1.256,17.928-.18,2.243-.326,4.083-.434,5.43-.058.6-.1,1.086-.142,1.475a2.177,2.177,0,0,1-.079.509Z" transform="translate(-538.772 -333.844)" fill="#263238"/>
                  </g>
                </g>
                <g id="Group_4645" data-name="Group 4645" transform="translate(32.064 1.29)">
                  <g id="Group_4644" data-name="Group 4644">
                    <path id="Path_9249" data-name="Path 9249" d="M548.317,319.2a71.585,71.585,0,0,1,0,11.585,71.336,71.336,0,0,1,0-11.585Z" transform="translate(-548.081 -319.202)" fill="#263238"/>
                  </g>
                </g>
                <g id="Group_4647" data-name="Group 4647" transform="translate(11.629 5.278)">
                  <g id="Group_4646" data-name="Group 4646">
                    <path id="Path_9250" data-name="Path 9250" d="M525.636,324.9a4.081,4.081,0,0,1,.749-.122l2.215-.267c1.919-.221,4.691-.531,8.017-.868l.226-.023v.229c.008,2.847.018,6.13.028,9.617v.145l-.131.065-.172.085-5.8,2.851-.109.053-.1-.061-5.019-2.975-.1-.057v-.107c.04-2.572.072-4.712.1-6.294l.049-1.7a2.613,2.613,0,0,1,.043-.57,4.263,4.263,0,0,1,.043.642c.013.463.029,1.041.049,1.743.024,1.554.058,3.656.1,6.182l-.094-.163,5.054,2.916-.212-.007,5.789-2.872.172-.085-.131.211c.01-3.487.02-6.77.028-9.617l.227.206c-3.244.29-5.973.506-7.911.653l-2.27.161a6.4,6.4,0,0,1-.84.029Z" transform="translate(-525.445 -323.619)" fill="#263238"/>
                  </g>
                </g>
                <g id="Group_4649" data-name="Group 4649" transform="translate(35.013 2.971)">
                  <g id="Group_4648" data-name="Group 4648">
                    <path id="Path_9251" data-name="Path 9251" d="M551.538,322.343a4.059,4.059,0,0,1,.749-.122l2.215-.267c1.919-.221,4.691-.531,8.017-.868l.227-.023v.229c.008,2.847.018,6.13.028,9.617v.145l-.131.065-.172.085-5.8,2.851-.109.053-.1-.061-5.019-2.975-.1-.057v-.107c.04-2.572.072-4.711.1-6.294l.05-1.7a2.609,2.609,0,0,1,.043-.57,4.271,4.271,0,0,1,.043.642c.013.463.029,1.041.049,1.743.024,1.554.058,3.656.1,6.182l-.094-.164,5.054,2.917-.212-.007,5.788-2.872.172-.085-.131.211c.01-3.487.02-6.77.028-9.617l.227.206c-3.244.29-5.973.506-7.912.653l-2.269.161A6.4,6.4,0,0,1,551.538,322.343Z" transform="translate(-551.347 -321.064)" fill="#263238"/>
                  </g>
                </g>
                <g id="Group_4651" data-name="Group 4651" transform="translate(11.82 7.789)">
                  <g id="Group_4650" data-name="Group 4650">
                    <path id="Path_9252" data-name="Path 9252" d="M536.874,326.491a67.191,67.191,0,0,1-11.218.518A67.221,67.221,0,0,1,536.874,326.491Z" transform="translate(-525.656 -326.401)" fill="#263238"/>
                  </g>
                </g>
                <g id="Group_4653" data-name="Group 4653" transform="translate(35.202 5.687)">
                  <g id="Group_4652" data-name="Group 4652">
                    <path id="Path_9253" data-name="Path 9253" d="M562.56,324.133a64.812,64.812,0,0,1-11,.836,64.818,64.818,0,0,1,11-.836Z" transform="translate(-551.557 -324.072)" fill="#263238"/>
                  </g>
                </g>
                <g id="Group_4655" data-name="Group 4655" transform="translate(10.226 72.233)">
                  <g id="Group_4654" data-name="Group 4654">
                    <path id="Path_9254" data-name="Path 9254" d="M534.8,397.827a64.393,64.393,0,0,1-10.906,1.334A64.439,64.439,0,0,1,534.8,397.827Z" transform="translate(-523.89 -397.787)" fill="#263238"/>
                  </g>
                </g>
                <g id="Group_4657" data-name="Group 4657" transform="translate(48.334 61.867)">
                  <g id="Group_4656" data-name="Group 4656">
                    <path id="Path_9255" data-name="Path 9255" d="M576.947,386.316c.047.135-2.594,1.058-5.582,2.737-3,1.663-5.169,3.426-5.26,3.314a6.1,6.1,0,0,1,1.342-1.259,27.732,27.732,0,0,1,7.725-4.311A6.033,6.033,0,0,1,576.947,386.316Z" transform="translate(-566.103 -386.304)" fill="#263238"/>
                  </g>
                </g>
              </g>
              <g id="Group_4663" data-name="Group 4663" transform="translate(66.678 61.332)">
                <g id="Group_4660" data-name="Group 4660">
                  <g id="Group_4659" data-name="Group 4659">
                    <path id="Path_9256" data-name="Path 9256" d="M511,150.6a2.055,2.055,0,0,1-.179-.333c-.118-.244-.277-.574-.48-1s-.452-.989-.78-1.618l-1.174-2.151c-.453-.8-1.023-1.656-1.609-2.612-.625-.929-1.333-1.923-2.111-2.973a57.24,57.24,0,0,0-5.968-6.572,52.322,52.322,0,0,0-19.807-11.531,47.793,47.793,0,0,0-13.414-2.175,52.049,52.049,0,0,0-27.931,7.438,47.78,47.78,0,0,0-10.559,8.56,52.34,52.34,0,0,0-11.449,19.857,57.251,57.251,0,0,0-1.908,8.669q-.231,1.95-.353,3.629c-.033,1.119-.1,2.143-.1,3.065s.036,1.736.051,2.449.1,1.307.128,1.792c.033.467.059.832.079,1.1a2.222,2.222,0,0,1,.011.378,2.2,2.2,0,0,1-.059-.373l-.125-1.1c-.045-.484-.13-1.082-.173-1.792q-.041-1.074-.094-2.456c-.021-.924.035-1.953.055-3.078.067-1.123.174-2.344.316-3.65a56.426,56.426,0,0,1,1.851-8.734,52.292,52.292,0,0,1,11.45-20.053,47.992,47.992,0,0,1,10.637-8.66,52.286,52.286,0,0,1,28.18-7.5A48.01,48.01,0,0,1,479.02,121.4a52.3,52.3,0,0,1,19.9,11.7,56.452,56.452,0,0,1,5.95,6.656q1.159,1.595,2.09,3.01c.577.967,1.137,1.831,1.579,2.643l1.14,2.178c.316.638.54,1.2.741,1.641l.439,1.017a2.378,2.378,0,0,1,.136.355Z" transform="translate(-412.994 -119.164)" fill="#263238"/>
                  </g>
                </g>
                <g id="Group_4662" data-name="Group 4662" transform="translate(28.382 8.567)">
                  <g id="Group_4661" data-name="Group 4661">
                    <path id="Path_9257" data-name="Path 9257" d="M503.84,149.048a3.767,3.767,0,0,1-.423-.542c-.274-.356-.626-.918-1.158-1.583a45.532,45.532,0,0,0-13.272-11.808A43.092,43.092,0,0,0,463.95,129.2a45.56,45.56,0,0,0-17.152,4.626c-.774.357-1.339.7-1.743.9a3.7,3.7,0,0,1-.621.294,3.854,3.854,0,0,1,.573-.376c.391-.223.943-.595,1.708-.979a40.978,40.978,0,0,1,6.666-2.827A43.648,43.648,0,0,1,497.709,141.3a40.937,40.937,0,0,1,4.7,5.51c.512.685.84,1.266,1.089,1.639a3.769,3.769,0,0,1,.342.6Z" transform="translate(-444.433 -128.654)" fill="#263238"/>
                  </g>
                </g>
              </g>
              <g id="Group_4675" data-name="Group 4675" transform="translate(143.42 153.277)">
                <g id="Group_4672" data-name="Group 4672">
                  <g id="Group_4665" data-name="Group 4665">
                    <g id="Group_4664" data-name="Group 4664">
                      <path id="Path_9258" data-name="Path 9258" d="M554.726,263.917l-4.193,21.82c8.745,12.171,9.542,22.61,9.542,22.61l-47,4.039c.877-7.37,5.42-23.325,5.42-23.325l-6.822-23.3L498,247.961l13.569-12.229c-.26.688,12.721,8.2,12.721,8.2l18.646.158a15.58,15.58,0,0,1,2.679.533l9.11-23.613s7.046,10.363,4.684,23.077c-1.681,9.054-1.362,11.171-4.684,19.827" transform="translate(-498.002 -221.012)" fill="#0fc2bf"/>
                    </g>
                  </g>
                  <g id="Group_4667" data-name="Group 4667" transform="translate(12.936 26.327)">
                    <g id="Group_4666" data-name="Group 4666">
                      <path id="Path_9259" data-name="Path 9259" d="M522.031,250.175a3.73,3.73,0,0,1,.688.821,13.235,13.235,0,0,1,1.408,2.562,12.488,12.488,0,0,1,.942,4.244,10.766,10.766,0,0,1-1.114,5.208,9.284,9.284,0,0,1-3.607,3.917,8.589,8.589,0,0,1-4.2,1.13,7.446,7.446,0,0,1-2.88-.555,4.888,4.888,0,0,1-.709-.365c-.155-.1-.232-.153-.224-.167a9.359,9.359,0,0,0,3.806.755,8.546,8.546,0,0,0,3.992-1.172,9.06,9.06,0,0,0,3.4-3.754,10.6,10.6,0,0,0,1.1-4.984,12.834,12.834,0,0,0-.818-4.136,25.816,25.816,0,0,0-1.789-3.5Z" transform="translate(-512.331 -250.174)" fill="#263238"/>
                    </g>
                  </g>
                  <g id="Group_4669" data-name="Group 4669" transform="translate(53.828 26.251)">
                    <g id="Group_4668" data-name="Group 4668">
                      <path id="Path_9260" data-name="Path 9260" d="M558.91,266.062c-.076-.035.33-.887.726-2.336a16.994,16.994,0,0,0-.914-11.442c-.621-1.369-1.156-2.145-1.087-2.192.026-.019.18.16.437.5a10.491,10.491,0,0,1,.949,1.545,15.386,15.386,0,0,1,.933,11.681,10.576,10.576,0,0,1-.691,1.676C559.062,265.876,558.939,266.076,558.91,266.062Z" transform="translate(-557.628 -250.09)" fill="#263238"/>
                    </g>
                  </g>
                  <g id="Group_4671" data-name="Group 4671" transform="translate(31.439 61.269)" opacity="0.3">
                    <g id="Group_4670" data-name="Group 4670">
                      <path id="Path_9261" data-name="Path 9261" d="M550.2,291.029a1.887,1.887,0,0,0-1.877-.253,14.541,14.541,0,0,1-3.159.65c-2.01.042-3.824-1.093-5.68-1.868s-4.223-1.119-5.694.253a3.236,3.236,0,0,0-.473,4.022,3.156,3.156,0,0,0,1.96,1.289h0c4.7,1.323,8.734.349,13.332-1.491a3.539,3.539,0,0,0,1.506-.949A1.324,1.324,0,0,0,550.2,291.029Z" transform="translate(-532.827 -288.88)"/>
                    </g>
                  </g>
                </g>
                <g id="Group_4674" data-name="Group 4674" transform="translate(11.379 11.346)" opacity="0.3">
                  <g id="Group_4673" data-name="Group 4673">
                    <path id="Path_9262" data-name="Path 9262" d="M513.549,236.776a12.723,12.723,0,0,0-2.9,8.783,8.007,8.007,0,0,0,5.49,7c2.092.555,4.378.058,6.429.75,3.785,1.277,5.791,6.226,9.77,6.583,3.6.322,6.219-3.312,9.576-4.654a25.924,25.924,0,0,1,5.5-1.059,14.81,14.81,0,0,0,9.8-5.631c2.228-3.164,2.59-7.76.268-10.856-2.479-3.308-7.081-4.116-11.214-4.118a47.087,47.087,0,0,0-18.237,3.678,11.649,11.649,0,0,0-3.484,2.035,4.715,4.715,0,0,0-1.645,3.557" transform="translate(-510.607 -233.58)"/>
                  </g>
                </g>
              </g>
              <g id="Group_4685" data-name="Group 4685" transform="translate(155.559 135.051)">
                <g id="Group_4676" data-name="Group 4676">
                  <path id="Path_9263" data-name="Path 9263" d="M567.375,231.094a4.689,4.689,0,0,0-2.922-3.735c-1.814-.691-3.936-.2-5.709-.984-2.211-.982-3.144-3.578-3.7-5.931s-1.094-4.952-3-6.446c-1.314-1.032-3.058-1.337-4.479-2.214-2.1-1.3-3.245-3.66-4.683-5.671a10.978,10.978,0,0,0-1.922-2.087c-.031-.037-.054-.079-.085-.116-3.057-3.686-11.209-4.167-14.733-.927l.135-.119c-6.57.493-10.739,11.108-10.808,17.835-.043,4.185,1.308,8.565-.276,12.439-.923,2.253-2.764,4.075-3.468,6.406a7.118,7.118,0,0,0,12.51,6.328,4.109,4.109,0,0,0,2.911,3.789,12.035,12.035,0,0,0,5.074.31c3.647-.3,7.853-.928,9.724-4.073a6.564,6.564,0,0,0,5.978,2.485,18.253,18.253,0,0,0,6.427-1.313,2.643,2.643,0,0,1-.237-.371,5.856,5.856,0,0,0,.972-.467c1.732-1.063,2.806-3.356,2-5.221l1.964,2.279a7.839,7.839,0,0,0,3.288-9.935,9.449,9.449,0,0,1,3.1,2.065A4.688,4.688,0,0,0,567.375,231.094Z" transform="translate(-511.449 -200.823)" fill="#263238"/>
                </g>
                <g id="Group_4678" data-name="Group 4678" transform="translate(15.468 0.711)">
                  <g id="Group_4677" data-name="Group 4677">
                    <path id="Path_9264" data-name="Path 9264" d="M568.211,233.961a3.2,3.2,0,0,0-.425-2.127,4.325,4.325,0,0,0-1.9-1.685,10.554,10.554,0,0,0-3.35-.779,13.541,13.541,0,0,1-4.193-.886,5.033,5.033,0,0,1-1.912-1.511,7.413,7.413,0,0,1-1.161-2.289c-.565-1.661-.687-3.492-1.241-5.237a7.823,7.823,0,0,0-1.221-2.465,4.031,4.031,0,0,0-2.274-1.5c-.924-.229-1.913-.21-2.892-.4a4.731,4.731,0,0,1-2.582-1.4,13.087,13.087,0,0,1-2.517-4.818,10.672,10.672,0,0,0-2.434-4.077,9.655,9.655,0,0,0-9.414-2.591,18.141,18.141,0,0,0-2.109.756,2.388,2.388,0,0,1,.5-.306,8.747,8.747,0,0,1,1.561-.627,9.791,9.791,0,0,1,6.125.18,10,10,0,0,1,3.614,2.314,10.984,10.984,0,0,1,2.562,4.2,12.854,12.854,0,0,0,2.441,4.649,4.271,4.271,0,0,0,2.344,1.268c.915.182,1.909.16,2.915.405a4.5,4.5,0,0,1,2.53,1.665,8.23,8.23,0,0,1,1.292,2.613c.569,1.824.677,3.64,1.214,5.242a5.486,5.486,0,0,0,2.827,3.581,13.467,13.467,0,0,0,4.068.908,10.563,10.563,0,0,1,3.425.873,4.446,4.446,0,0,1,1.945,1.831,3.077,3.077,0,0,1,.394,1.642,1.7,1.7,0,0,1-.132.571Z" transform="translate(-528.583 -201.61)" fill="#455a64"/>
                  </g>
                </g>
                <g id="Group_4680" data-name="Group 4680" transform="translate(15.943 2.384)">
                  <g id="Group_4679" data-name="Group 4679">
                    <path id="Path_9265" data-name="Path 9265" d="M556.724,247.151c-.011-.027.19-.078.5-.293a2.536,2.536,0,0,0,.913-1.32,3.487,3.487,0,0,0-.158-2.505,6.058,6.058,0,0,0-2.386-2.4c-1.087-.69-2.425-1.206-3.746-2.041a7.086,7.086,0,0,1-1.826-1.6,6.728,6.728,0,0,1-1.12-2.326,36.89,36.89,0,0,1-.692-5.385c-.23-1.8-.791-3.787-2.393-4.891-1.556-1.1-3.649-1.433-5.046-2.889a9.309,9.309,0,0,1-2.194-5c-.287-1.714-.4-3.347-.789-4.81a11.015,11.015,0,0,0-1.81-3.753,11.9,11.9,0,0,0-4.733-3.744c-1.336-.556-2.146-.667-2.134-.718a2.709,2.709,0,0,1,.583.078,10.227,10.227,0,0,1,1.62.471,11.7,11.7,0,0,1,4.928,3.711,11.233,11.233,0,0,1,1.922,3.854c.414,1.5.544,3.155.839,4.835a8.946,8.946,0,0,0,2.1,4.751c1.258,1.33,3.288,1.652,4.991,2.828a5.438,5.438,0,0,1,1.87,2.387,10.7,10.7,0,0,1,.707,2.827,37.863,37.863,0,0,0,.653,5.329,6.324,6.324,0,0,0,1.032,2.19,6.681,6.681,0,0,0,1.71,1.529c1.263.822,2.6,1.361,3.711,2.087a6.278,6.278,0,0,1,2.446,2.575,3.641,3.641,0,0,1,.093,2.675,2.532,2.532,0,0,1-1.034,1.34,1.436,1.436,0,0,1-.557.213Z" transform="translate(-529.109 -203.464)" fill="#455a64"/>
                  </g>
                </g>
                <g id="Group_4682" data-name="Group 4682" transform="translate(15.235 2.799)">
                  <g id="Group_4681" data-name="Group 4681">
                    <path id="Path_9266" data-name="Path 9266" d="M534.846,249.176a3.064,3.064,0,0,0,.6-1.764,5.17,5.17,0,0,0-.465-2.149c-.341-.8-.9-1.639-1.371-2.665a5.331,5.331,0,0,1-.381-3.657,19.556,19.556,0,0,1,1.661-3.865,9.065,9.065,0,0,0,1.179-4.3,7.5,7.5,0,0,0-1.574-4.452c-.991-1.339-2.224-2.467-3.193-3.78a8.634,8.634,0,0,1-1.169-2.108,8.258,8.258,0,0,1-.459-2.265,18.136,18.136,0,0,1,.326-4.2c.219-1.291.438-2.483.516-3.58a8.34,8.34,0,0,0-.961-5.009,7.27,7.27,0,0,0-1.221-1.461,1.58,1.58,0,0,1,.417.281,4.642,4.642,0,0,1,.96,1.082,8.3,8.3,0,0,1,1.137,5.129c-.059,1.123-.262,2.333-.462,3.621a18.077,18.077,0,0,0-.279,4.1,7.837,7.837,0,0,0,.449,2.141,8.251,8.251,0,0,0,1.118,1.99c.936,1.262,2.169,2.386,3.2,3.774a7.929,7.929,0,0,1,1.656,4.726,9.441,9.441,0,0,1-1.251,4.5,19.723,19.723,0,0,0-1.671,3.765,5,5,0,0,0,.307,3.43c.44,1,.979,1.861,1.31,2.7a5.192,5.192,0,0,1,.4,2.259,2.775,2.775,0,0,1-.437,1.382,1.352,1.352,0,0,1-.337.375Z" transform="translate(-528.325 -203.923)" fill="#455a64"/>
                  </g>
                </g>
                <g id="Group_4684" data-name="Group 4684" transform="translate(5.566 2.703)">
                  <g id="Group_4683" data-name="Group 4683">
                    <path id="Path_9267" data-name="Path 9267" d="M517.99,248.425a1.131,1.131,0,0,1-.264-.437,2.227,2.227,0,0,1,.02-1.462,3.943,3.943,0,0,1,1.373-1.861,18.639,18.639,0,0,0,2.31-1.906,6.244,6.244,0,0,0,1.485-3.185,7.42,7.42,0,0,0-.642-4,9.278,9.278,0,0,1-.95-4.606,16.215,16.215,0,0,1,1.712-4.744,9.9,9.9,0,0,0,1.212-4.678,20.272,20.272,0,0,0-.976-4.483,13.711,13.711,0,0,1-.219-7.87A8.861,8.861,0,0,1,526,204.777a6.767,6.767,0,0,1,1.231-.775,1.8,1.8,0,0,1,.473-.182,13.931,13.931,0,0,0-1.588,1.1,8.947,8.947,0,0,0-2.742,4.369,13.57,13.57,0,0,0,.317,7.658,20.224,20.224,0,0,1,1.018,4.581,10.263,10.263,0,0,1-1.245,4.9,16.069,16.069,0,0,0-1.682,4.6,8.939,8.939,0,0,0,.9,4.4,11.7,11.7,0,0,1,.617,2.113,6.257,6.257,0,0,1,0,2.1,6.527,6.527,0,0,1-1.623,3.347,17.744,17.744,0,0,1-2.391,1.888,3.822,3.822,0,0,0-1.366,1.715,2.243,2.243,0,0,0-.1,1.373C517.9,248.269,518.009,248.413,517.99,248.425Z" transform="translate(-517.614 -203.817)" fill="#455a64"/>
                  </g>
                </g>
              </g>
            </g>
          </g>
          <g id="Plants" transform="translate(72.317 106.597)">
            <g id="Group_4816" data-name="Group 4816" transform="translate(0 142.23)">
              <g id="Group_4804" data-name="Group 4804">
                <g id="Group_4690" data-name="Group 4690" transform="translate(11.529)">
                  <g id="Group_4689" data-name="Group 4689">
                    <g id="Group_4688" data-name="Group 4688">
                      <g id="Group_4687" data-name="Group 4687">
                        <path id="Path_9268" data-name="Path 9268" d="M103.28,429.69a2.471,2.471,0,0,1,.166-.4l.535-1.141a28.81,28.81,0,0,0,1.573-4.568,40.324,40.324,0,0,0-.135-17.639,94.639,94.639,0,0,0-3.272-11.848c-1.385-4.2-2.993-8.667-4.307-13.49a52.2,52.2,0,0,1-2.125-15.5c.2-5.486,1.823-10.962,3.609-16.412s3.626-10.8,4.178-16.164a24.631,24.631,0,0,0-2.963-14.927c-2.364-4.356-5.339-8.082-7.565-11.941a41.482,41.482,0,0,1-4.546-11.478,42.732,42.732,0,0,1-.288-17.784A33.149,33.149,0,0,1,90,270.111a2.42,2.42,0,0,1-.11.417l-.376,1.2a45.8,45.8,0,0,0-1.153,4.7,43.294,43.294,0,0,0,.461,17.649,41.376,41.376,0,0,0,4.562,11.333c2.221,3.812,5.209,7.523,7.619,11.929a25.134,25.134,0,0,1,3.056,15.231c-.556,5.458-2.413,10.83-4.192,16.283s-3.391,10.865-3.594,16.259a51.917,51.917,0,0,0,2.076,15.351c1.292,4.8,2.881,9.262,4.248,13.479a93.475,93.475,0,0,1,3.218,11.918c1.5,7.427,1.071,13.7-.045,17.771a26.328,26.328,0,0,1-1.683,4.561c-.247.473-.442.843-.587,1.12a2.351,2.351,0,0,1-.22.378Z" transform="translate(-87.343 -270.111)" fill="#263238"/>
                      </g>
                    </g>
                  </g>
                </g>
                <g id="Group_4698" data-name="Group 4698" transform="translate(18.927 16.272)">
                  <g id="Group_4693" data-name="Group 4693">
                    <g id="Group_4692" data-name="Group 4692">
                      <g id="Group_4691" data-name="Group 4691">
                        <path id="Path_9269" data-name="Path 9269" d="M96.795,311.211s-4.52-14.454,3.588-22.918a.5.5,0,0,1,.859.248C101.676,290.929,102.217,298.2,96.795,311.211Z" transform="translate(-95.539 -288.135)" fill="#015a58"/>
                      </g>
                    </g>
                  </g>
                  <g id="Group_4697" data-name="Group 4697" transform="translate(1.093 4.975)">
                    <g id="Group_4696" data-name="Group 4696">
                      <g id="Group_4695" data-name="Group 4695">
                        <g id="Group_4694" data-name="Group 4694">
                          <path id="Path_9270" data-name="Path 9270" d="M99.621,293.646a13.29,13.29,0,0,1-.3,2.667c-.3,1.837-.645,3.993-1.031,6.375l-1.012,6.375A14.692,14.692,0,0,1,96.8,311.7a11.139,11.139,0,0,1,.08-2.687c.15-1.651.441-3.923.85-6.418s.843-4.74,1.2-6.357a12.072,12.072,0,0,1,.691-2.592Z" transform="translate(-96.749 -293.646)" fill="#263238"/>
                        </g>
                      </g>
                    </g>
                  </g>
                </g>
                <g id="Group_4706" data-name="Group 4706" transform="translate(25.405 54.833)">
                  <g id="Group_4701" data-name="Group 4701" transform="translate(0.088)">
                    <g id="Group_4700" data-name="Group 4700">
                      <g id="Group_4699" data-name="Group 4699">
                        <path id="Path_9271" data-name="Path 9271" d="M102.812,349.457s2.764-14.89,13.89-18.58a.5.5,0,0,1,.643.622C116.612,333.811,113.689,340.491,102.812,349.457Z" transform="translate(-102.812 -330.85)" fill="#015a58"/>
                      </g>
                    </g>
                  </g>
                  <g id="Group_4705" data-name="Group 4705" transform="translate(0 3.87)">
                    <g id="Group_4704" data-name="Group 4704">
                      <g id="Group_4703" data-name="Group 4703">
                        <g id="Group_4702" data-name="Group 4702">
                          <path id="Path_9272" data-name="Path 9272" d="M113.662,335.14a13.313,13.313,0,0,1-1.517,2.215l-3.893,5.152-3.876,5.162a14.506,14.506,0,0,1-1.657,2.108,11.229,11.229,0,0,1,1.328-2.336c.9-1.39,2.224-3.263,3.754-5.275s2.961-3.8,4.031-5.06a12.041,12.041,0,0,1,1.83-1.966Z" transform="translate(-102.714 -335.138)" fill="#263238"/>
                        </g>
                      </g>
                    </g>
                  </g>
                </g>
                <g id="Group_4714" data-name="Group 4714" transform="translate(22.366 88.888)">
                  <g id="Group_4709" data-name="Group 4709" transform="translate(0.008)">
                    <g id="Group_4708" data-name="Group 4708">
                      <g id="Group_4707" data-name="Group 4707">
                        <path id="Path_9273" data-name="Path 9273" d="M99.47,390.48s-1.679-15.052,7.895-21.813a.5.5,0,0,1,.8.408C108.13,371.5,107.274,378.742,99.47,390.48Z" transform="translate(-99.357 -368.573)" fill="#015a58"/>
                      </g>
                    </g>
                  </g>
                  <g id="Group_4713" data-name="Group 4713" transform="translate(0 4.654)">
                    <g id="Group_4712" data-name="Group 4712">
                      <g id="Group_4711" data-name="Group 4711">
                        <g id="Group_4710" data-name="Group 4710">
                          <path id="Path_9274" data-name="Path 9274" d="M105.581,373.729a13.3,13.3,0,0,1-.807,2.559c-.643,1.747-1.4,3.8-2.229,6.062s-1.574,4.317-2.21,6.065a14.513,14.513,0,0,1-.973,2.5,11.2,11.2,0,0,1,.592-2.623c.462-1.592,1.182-3.767,2.059-6.138s1.731-4.491,2.388-6.012a12.089,12.089,0,0,1,1.18-2.413Z" transform="translate(-99.348 -373.728)" fill="#263238"/>
                        </g>
                      </g>
                    </g>
                  </g>
                </g>
                <g id="Group_4722" data-name="Group 4722" transform="translate(30.751 126.768)">
                  <g id="Group_4717" data-name="Group 4717" transform="translate(0.076)">
                    <g id="Group_4716" data-name="Group 4716">
                      <g id="Group_4715" data-name="Group 4715">
                        <path id="Path_9275" data-name="Path 9275" d="M108.761,432.134s-1.139-15.1,8.67-21.516a.5.5,0,0,1,.782.435C118.1,413.477,116.98,420.682,108.761,432.134Z" transform="translate(-108.72 -410.534)" fill="#015a58"/>
                      </g>
                    </g>
                  </g>
                  <g id="Group_4721" data-name="Group 4721" transform="translate(0 4.577)">
                    <g id="Group_4720" data-name="Group 4720">
                      <g id="Group_4719" data-name="Group 4719">
                        <g id="Group_4718" data-name="Group 4718">
                          <path id="Path_9276" data-name="Path 9276" d="M115.478,415.6a13.315,13.315,0,0,1-.9,2.529c-.7,1.722-1.53,3.745-2.444,5.978l-2.426,5.982a14.455,14.455,0,0,1-1.062,2.462,11.223,11.223,0,0,1,.686-2.6c.518-1.575,1.314-3.723,2.278-6.06s1.891-4.427,2.6-5.923a12.056,12.056,0,0,1,1.268-2.368Z" transform="translate(-108.636 -415.604)" fill="#263238"/>
                        </g>
                      </g>
                    </g>
                  </g>
                </g>
                <g id="Group_4730" data-name="Group 4730" transform="translate(0 7.398)">
                  <g id="Group_4725" data-name="Group 4725">
                    <g id="Group_4724" data-name="Group 4724">
                      <g id="Group_4723" data-name="Group 4723">
                        <path id="Path_9277" data-name="Path 9277" d="M88.261,297.556s-13.425-7.011-13.688-18.729a.5.5,0,0,1,.783-.432C77.351,279.775,82.879,284.528,88.261,297.556Z" transform="translate(-74.573 -278.306)" fill="#015a58"/>
                      </g>
                    </g>
                  </g>
                  <g id="Group_4729" data-name="Group 4729" transform="translate(2.781 4.546)">
                    <g id="Group_4728" data-name="Group 4728">
                      <g id="Group_4727" data-name="Group 4727">
                        <g id="Group_4726" data-name="Group 4726">
                          <path id="Path_9278" data-name="Path 9278" d="M77.659,283.343a13.281,13.281,0,0,1,1.673,2.1l3.784,5.233,3.8,5.22a14.573,14.573,0,0,1,1.529,2.2,11.2,11.2,0,0,1-1.844-1.954c-1.063-1.273-2.466-3.084-3.942-5.136S79.9,287.062,79,285.669A12.061,12.061,0,0,1,77.659,283.343Z" transform="translate(-77.654 -283.341)" fill="#263238"/>
                        </g>
                      </g>
                    </g>
                  </g>
                </g>
                <g id="Group_4738" data-name="Group 4738" transform="translate(13.301 39.276)">
                  <g id="Group_4733" data-name="Group 4733">
                    <g id="Group_4732" data-name="Group 4732">
                      <g id="Group_4731" data-name="Group 4731">
                        <path id="Path_9279" data-name="Path 9279" d="M104.108,332.032s-13.825-6.183-14.8-17.863a.5.5,0,0,1,.755-.479C92.139,314.946,97.946,319.354,104.108,332.032Z" transform="translate(-89.307 -313.617)" fill="#015a58"/>
                      </g>
                    </g>
                  </g>
                  <g id="Group_4737" data-name="Group 4737" transform="translate(3.023 4.399)">
                    <g id="Group_4736" data-name="Group 4736">
                      <g id="Group_4735" data-name="Group 4735">
                        <g id="Group_4734" data-name="Group 4734">
                          <path id="Path_9280" data-name="Path 9280" d="M92.661,318.492a13.311,13.311,0,0,1,1.8,1.994l4.1,4.993,4.108,4.98a14.446,14.446,0,0,1,1.66,2.105,11.192,11.192,0,0,1-1.959-1.84c-1.139-1.2-2.65-2.928-4.247-4.886s-2.994-3.77-3.972-5.106a12.119,12.119,0,0,1-1.485-2.24Z" transform="translate(-92.656 -318.49)" fill="#263238"/>
                        </g>
                      </g>
                    </g>
                  </g>
                </g>
                <g id="Group_4746" data-name="Group 4746" transform="translate(13.919 69.356)">
                  <g id="Group_4741" data-name="Group 4741">
                    <g id="Group_4740" data-name="Group 4740">
                      <g id="Group_4739" data-name="Group 4739">
                        <path id="Path_9281" data-name="Path 9281" d="M96.22,369.9s-9.493-11.8-5.04-22.643a.5.5,0,0,1,.89-.083C93.346,349.235,96.508,355.8,96.22,369.9Z" transform="translate(-89.992 -346.938)" fill="#015a58"/>
                      </g>
                    </g>
                  </g>
                  <g id="Group_4745" data-name="Group 4745" transform="translate(2.106 5.122)">
                    <g id="Group_4744" data-name="Group 4744">
                      <g id="Group_4743" data-name="Group 4743">
                        <g id="Group_4742" data-name="Group 4742">
                          <path id="Path_9282" data-name="Path 9282" d="M92.348,352.612a13.3,13.3,0,0,1,.692,2.594c.4,1.818.859,3.952,1.371,6.31S95.4,366,95.8,367.82a14.527,14.527,0,0,1,.519,2.631,11.2,11.2,0,0,1-.906-2.53c-.465-1.592-1.025-3.813-1.555-6.284s-.949-4.72-1.212-6.355a12.079,12.079,0,0,1-.3-2.67Z" transform="translate(-92.325 -352.612)" fill="#263238"/>
                        </g>
                      </g>
                    </g>
                  </g>
                </g>
                <g id="Group_4754" data-name="Group 4754" transform="translate(15.052 114.412)">
                  <g id="Group_4749" data-name="Group 4749">
                    <g id="Group_4748" data-name="Group 4748">
                      <g id="Group_4747" data-name="Group 4747">
                        <path id="Path_9283" data-name="Path 9283" d="M105.744,415.5s-13.719-6.414-14.5-18.108a.5.5,0,0,1,.763-.467C94.063,398.214,99.8,402.719,105.744,415.5Z" transform="translate(-91.246 -396.846)" fill="#015a58"/>
                      </g>
                    </g>
                  </g>
                  <g id="Group_4753" data-name="Group 4753" transform="translate(2.958 4.44)">
                    <g id="Group_4752" data-name="Group 4752">
                      <g id="Group_4751" data-name="Group 4751">
                        <g id="Group_4750" data-name="Group 4750">
                          <path id="Path_9284" data-name="Path 9284" d="M94.527,401.767a13.384,13.384,0,0,1,1.763,2.024l4.011,5.062c1.5,1.887,2.864,3.593,4.024,5.047a14.53,14.53,0,0,1,1.624,2.133,11.205,11.205,0,0,1-1.928-1.872c-1.119-1.224-2.6-2.972-4.164-4.957s-2.93-3.82-3.885-5.172a12.009,12.009,0,0,1-1.445-2.265Z" transform="translate(-94.523 -401.765)" fill="#263238"/>
                        </g>
                      </g>
                    </g>
                  </g>
                </g>
                <g id="Group_4803" data-name="Group 4803" transform="translate(26.192 70.076)">
                  <g id="Group_4758" data-name="Group 4758" transform="translate(4.488 3.444)">
                    <g id="Group_4757" data-name="Group 4757">
                      <g id="Group_4756" data-name="Group 4756">
                        <g id="Group_4755" data-name="Group 4755">
                          <path id="Path_9285" data-name="Path 9285" d="M134.755,351.55a1.156,1.156,0,0,1,.017.334c-.006.264-.014.581-.024.968-.04.91-.094,2.14-.162,3.672-.177,3.228-.423,7.729-.718,13.114v.031c-.98,5.481-3.77,11.554-7.519,17.451-2.75,4.345-5.632,8.3-8.119,11.968a84.8,84.8,0,0,0-6.087,10.061,42.642,42.642,0,0,0-2.847,7.384c-.242.9-.422,1.611-.527,2.094a3.877,3.877,0,0,1-.2.729,3.728,3.728,0,0,1,.088-.752c.069-.491.216-1.207.425-2.126a38.982,38.982,0,0,1,2.7-7.5A80.262,80.262,0,0,1,117.8,398.8c2.47-3.7,5.337-7.655,8.072-11.978,3.729-5.868,6.505-11.85,7.522-17.242v.031c.378-5.38.694-9.876.921-13.1.124-1.529.223-2.755.3-3.663.038-.385.07-.7.1-.963A1.159,1.159,0,0,1,134.755,351.55Z" transform="translate(-108.558 -351.55)" fill="#263238"/>
                        </g>
                      </g>
                    </g>
                  </g>
                  <g id="Group_4769" data-name="Group 4769" transform="translate(19.474 14.546)">
                    <g id="Group_4761" data-name="Group 4761">
                      <g id="Group_4760" data-name="Group 4760">
                        <g id="Group_4759" data-name="Group 4759">
                          <path id="Path_9286" data-name="Path 9286" d="M128.2,387.19s5.81-13.986-1.5-23.149a.5.5,0,0,0-.878.17C125.176,366.549,123.979,373.74,128.2,387.19Z" transform="translate(-125.158 -363.848)" fill="#015a58"/>
                        </g>
                      </g>
                    </g>
                    <g id="Group_4765" data-name="Group 4765" transform="translate(1.943 5.07)">
                      <g id="Group_4764" data-name="Group 4764">
                        <g id="Group_4763" data-name="Group 4763">
                          <g id="Group_4762" data-name="Group 4762">
                            <path id="Path_9287" data-name="Path 9287" d="M127.351,369.464a12.036,12.036,0,0,1,.46,2.646c.206,1.643.436,3.919.616,6.439s.266,4.81.266,6.468a11.217,11.217,0,0,1-.163,2.683,14.548,14.548,0,0,1-.238-2.67c-.124-1.856-.269-4.034-.431-6.441s-.32-4.586-.45-6.442a13.281,13.281,0,0,1-.06-2.683Z" transform="translate(-127.31 -369.464)" fill="#263238"/>
                          </g>
                        </g>
                      </g>
                    </g>
                    <g id="Group_4768" data-name="Group 4768" opacity="0.3">
                      <g id="Group_4767" data-name="Group 4767">
                        <g id="Group_4766" data-name="Group 4766">
                          <path id="Path_9288" data-name="Path 9288" d="M128.2,387.19s5.81-13.986-1.5-23.149a.5.5,0,0,0-.878.17C125.176,366.549,123.979,373.74,128.2,387.19Z" transform="translate(-125.158 -363.848)"/>
                        </g>
                      </g>
                    </g>
                  </g>
                  <g id="Group_4780" data-name="Group 4780" transform="translate(0 48.478)">
                    <g id="Group_4772" data-name="Group 4772">
                      <g id="Group_4771" data-name="Group 4771">
                        <g id="Group_4770" data-name="Group 4770">
                          <path id="Path_9289" data-name="Path 9289" d="M108.106,424.547s4.656-14.411-3.371-22.951a.5.5,0,0,0-.861.24C103.418,404.22,102.808,411.484,108.106,424.547Z" transform="translate(-103.586 -401.434)" fill="#015a58"/>
                        </g>
                      </g>
                    </g>
                    <g id="Group_4776" data-name="Group 4776" transform="translate(1.961 4.987)">
                      <g id="Group_4775" data-name="Group 4775">
                        <g id="Group_4774" data-name="Group 4774">
                          <g id="Group_4773" data-name="Group 4773">
                            <path id="Path_9290" data-name="Path 9290" d="M105.781,406.959a11.942,11.942,0,0,1,.674,2.6c.338,1.62.752,3.87,1.136,6.368s.655,4.773.79,6.426a11.182,11.182,0,0,1,.055,2.687,14.505,14.505,0,0,1-.453-2.642c-.274-1.839-.6-4-.952-6.384s-.692-4.545-.97-6.385a13.331,13.331,0,0,1-.28-2.67Z" transform="translate(-105.757 -406.959)" fill="#263238"/>
                          </g>
                        </g>
                      </g>
                    </g>
                    <g id="Group_4779" data-name="Group 4779" opacity="0.3">
                      <g id="Group_4778" data-name="Group 4778">
                        <g id="Group_4777" data-name="Group 4777">
                          <path id="Path_9291" data-name="Path 9291" d="M108.106,424.547s4.656-14.411-3.371-22.951a.5.5,0,0,0-.861.24C103.418,404.22,102.808,411.484,108.106,424.547Z" transform="translate(-103.586 -401.434)"/>
                        </g>
                      </g>
                    </g>
                  </g>
                  <g id="Group_4791" data-name="Group 4791" transform="translate(29.916)">
                    <g id="Group_4783" data-name="Group 4783">
                      <g id="Group_4782" data-name="Group 4782">
                        <g id="Group_4781" data-name="Group 4781">
                          <path id="Path_9292" data-name="Path 9292" d="M136.724,368.531s12.408-8.685,11.155-20.339a.5.5,0,0,0-.832-.328C145.247,349.489,140.378,354.917,136.724,368.531Z" transform="translate(-136.724 -347.735)" fill="#015a58"/>
                        </g>
                      </g>
                    </g>
                    <g id="Group_4786" data-name="Group 4786" opacity="0.3">
                      <g id="Group_4785" data-name="Group 4785">
                        <g id="Group_4784" data-name="Group 4784">
                          <path id="Path_9293" data-name="Path 9293" d="M136.724,368.531s12.408-8.685,11.155-20.339a.5.5,0,0,0-.832-.328C145.247,349.489,140.378,354.917,136.724,368.531Z" transform="translate(-136.724 -347.735)"/>
                        </g>
                      </g>
                    </g>
                    <g id="Group_4790" data-name="Group 4790" transform="translate(0.115 4.807)">
                      <g id="Group_4789" data-name="Group 4789">
                        <g id="Group_4788" data-name="Group 4788">
                          <g id="Group_4787" data-name="Group 4787">
                            <path id="Path_9294" data-name="Path 9294" d="M145.648,353.061a12.076,12.076,0,0,1-1.031,2.48c-.709,1.5-1.735,3.542-2.936,5.765s-2.355,4.2-3.245,5.6a11.132,11.132,0,0,1-1.577,2.177,14.6,14.6,0,0,1,1.232-2.381l3.092-5.666,3.078-5.678a13.312,13.312,0,0,1,1.387-2.3Z" transform="translate(-136.852 -353.06)" fill="#263238"/>
                          </g>
                        </g>
                      </g>
                    </g>
                  </g>
                  <g id="Group_4802" data-name="Group 4802" transform="translate(9.524 43.276)">
                    <g id="Group_4794" data-name="Group 4794">
                      <g id="Group_4793" data-name="Group 4793">
                        <g id="Group_4792" data-name="Group 4792">
                          <path id="Path_9295" data-name="Path 9295" d="M114.135,409.7s14.963-2.333,18.972-13.346a.5.5,0,0,0-.6-.661C130.172,396.359,123.411,399.087,114.135,409.7Z" transform="translate(-114.135 -395.673)" fill="#015a58"/>
                        </g>
                      </g>
                    </g>
                    <g id="Group_4797" data-name="Group 4797" opacity="0.3">
                      <g id="Group_4796" data-name="Group 4796">
                        <g id="Group_4795" data-name="Group 4795">
                          <path id="Path_9296" data-name="Path 9296" d="M114.135,409.7s14.963-2.333,18.972-13.346a.5.5,0,0,0-.6-.661C130.172,396.359,123.411,399.087,114.135,409.7Z" transform="translate(-114.135 -395.673)"/>
                        </g>
                      </g>
                    </g>
                    <g id="Group_4801" data-name="Group 4801" transform="translate(0.091 3.594)">
                      <g id="Group_4800" data-name="Group 4800">
                        <g id="Group_4799" data-name="Group 4799">
                          <g id="Group_4798" data-name="Group 4798">
                            <path id="Path_9297" data-name="Path 9297" d="M129.186,399.659a12.093,12.093,0,0,1-2.019,1.773c-1.295,1.032-3.117,2.415-5.174,3.883s-3.966,2.735-5.381,3.6a11.205,11.205,0,0,1-2.374,1.259,14.52,14.52,0,0,1,2.155-1.6l5.272-3.725,5.263-3.743a13.379,13.379,0,0,1,2.258-1.447Z" transform="translate(-114.236 -399.654)" fill="#263238"/>
                          </g>
                        </g>
                      </g>
                    </g>
                  </g>
                </g>
              </g>
              <g id="Group_4807" data-name="Group 4807" transform="translate(17.075 154.919)">
                <g id="Group_4806" data-name="Group 4806">
                  <g id="Group_4805" data-name="Group 4805">
                    <path id="Path_9298" data-name="Path 9298" d="M97.852,441.716,93.487,471.1h27.2l-3.527-29.379Z" transform="translate(-93.487 -441.716)" fill="#455a64"/>
                  </g>
                </g>
              </g>
              <g id="Group_4811" data-name="Group 4811" transform="translate(19.899 163.739)">
                <g id="Group_4810" data-name="Group 4810">
                  <g id="Group_4809" data-name="Group 4809">
                    <g id="Group_4808" data-name="Group 4808">
                      <path id="Path_9299" data-name="Path 9299" d="M118.554,451.77a106.21,106.21,0,0,1-10.969.283,106.2,106.2,0,0,1-10.97-.283,106.7,106.7,0,0,1,10.97-.283A106.674,106.674,0,0,1,118.554,451.77Z" transform="translate(-96.615 -451.487)" fill="#263238"/>
                    </g>
                  </g>
                </g>
              </g>
              <g id="Group_4815" data-name="Group 4815" transform="translate(19.719 166.077)">
                <g id="Group_4814" data-name="Group 4814">
                  <g id="Group_4813" data-name="Group 4813">
                    <g id="Group_4812" data-name="Group 4812">
                      <path id="Path_9300" data-name="Path 9300" d="M119.074,454.359c0,.156-5.073.283-11.329.283s-11.33-.127-11.33-.283,5.072-.283,11.33-.283A112.639,112.639,0,0,1,119.074,454.359Z" transform="translate(-96.416 -454.076)" fill="#263238"/>
                    </g>
                  </g>
                </g>
              </g>
            </g>
            <g id="Group_4832" data-name="Group 4832" transform="translate(508.629 287.204)">
              <g id="Group_4818" data-name="Group 4818" transform="translate(12.039)">
                <g id="Group_4817" data-name="Group 4817">
                  <path id="Path_9301" data-name="Path 9301" d="M657.387,430.7a7.442,7.442,0,0,0-4.539,3.655,13.129,13.129,0,0,0-1.5,5.746c-.219,3.859,1.276,8.048,3.075,11.47,3.663-2.235,5.228-6.963,5.872-9.41,1.017-3.869.5-11.48-2.9-11.461" transform="translate(-651.322 -430.7)" fill="#015a58"/>
                </g>
              </g>
              <g id="Group_4820" data-name="Group 4820" transform="translate(0 17.194)">
                <g id="Group_4819" data-name="Group 4819">
                  <path id="Path_9302" data-name="Path 9302" d="M648.346,459.036a6.35,6.35,0,0,0-1-6.3,8.43,8.43,0,0,0-5.8-2.965,3.55,3.55,0,0,0-2.9.747,2.715,2.715,0,0,0-.506,2.706,5.511,5.511,0,0,0,1.669,2.322c2.465,2.206,5.256,3.888,8.539,3.486" transform="translate(-637.987 -449.746)" fill="#015a58"/>
                </g>
              </g>
              <g id="Group_4823" data-name="Group 4823" transform="translate(4.936 21.281)">
                <g id="Group_4822" data-name="Group 4822">
                  <g id="Group_4821" data-name="Group 4821">
                    <path id="Path_9303" data-name="Path 9303" d="M650.978,471.782a4.463,4.463,0,0,0,.019-.8c-.006-.563-.015-1.292-.025-2.168a22.276,22.276,0,0,0-1.019-7.088,13.645,13.645,0,0,0-3.941-5.947,9.238,9.238,0,0,0-1.816-1.2,5.492,5.492,0,0,0-.542-.241c-.126-.05-.193-.072-.2-.063a14.521,14.521,0,0,1,2.425,1.659,14.088,14.088,0,0,1,3.808,5.891,24.008,24.008,0,0,1,1.085,7c.042.914.077,1.655.115,2.166A4.122,4.122,0,0,0,650.978,471.782Z" transform="translate(-643.455 -454.273)" fill="#263238"/>
                  </g>
                </g>
              </g>
              <g id="Group_4826" data-name="Group 4826" transform="translate(12.38 5.83)">
                <g id="Group_4825" data-name="Group 4825">
                  <g id="Group_4824" data-name="Group 4824">
                    <path id="Path_9304" data-name="Path 9304" d="M657.3,437.158a1.6,1.6,0,0,0-.1.332l-.225.966c-.19.84-.45,2.058-.759,3.567-.617,3.016-1.413,7.2-2.187,11.829s-1.378,8.847-1.772,11.9c-.2,1.527-.348,2.763-.44,3.619-.042.4-.075.731-.1.987a1.665,1.665,0,0,0-.016.346,1.58,1.58,0,0,0,.072-.339c.04-.253.09-.578.153-.98.13-.886.31-2.109.528-3.606.445-3.045,1.081-7.249,1.852-11.881s1.537-8.813,2.1-11.837c.278-1.487.507-2.7.671-3.583l.174-.976a1.688,1.688,0,0,0,.044-.344Z" transform="translate(-651.7 -437.158)" fill="#263238"/>
                  </g>
                </g>
              </g>
              <g id="Group_4828" data-name="Group 4828" transform="translate(15.48 20.148)">
                <g id="Group_4827" data-name="Group 4827">
                  <path id="Path_9305" data-name="Path 9305" d="M655.134,462.6a14.855,14.855,0,0,1,9.83-9.354c1.153-.328,2.6-.423,3.34.52s.3,2.335-.317,3.363a12.688,12.688,0,0,1-12.832,5.8" transform="translate(-655.134 -453.018)" fill="#015a58"/>
                </g>
              </g>
              <g id="Group_4831" data-name="Group 4831" transform="translate(12.617 23.877)">
                <g id="Group_4830" data-name="Group 4830">
                  <g id="Group_4829" data-name="Group 4829">
                    <path id="Path_9306" data-name="Path 9306" d="M663.525,457.152a3.851,3.851,0,0,0-.727.18,7.073,7.073,0,0,0-.834.276c-.317.13-.693.246-1.078.443a13.223,13.223,0,0,0-1.257.647,14.676,14.676,0,0,0-1.369.874,16.47,16.47,0,0,0-2.747,2.506,16.232,16.232,0,0,0-2.057,3.1,14.018,14.018,0,0,0-.641,1.493,12.031,12.031,0,0,0-.428,1.348,10.861,10.861,0,0,0-.249,1.138,6.5,6.5,0,0,0-.123.87,3.82,3.82,0,0,0-.044.747c.063.008.135-1.061.607-2.7a13,13,0,0,1,.454-1.318,14.914,14.914,0,0,1,.655-1.459,16.8,16.8,0,0,1,2.04-3.033,17.087,17.087,0,0,1,2.686-2.481,15.354,15.354,0,0,1,1.334-.882c.422-.271.845-.473,1.224-.669C662.508,457.483,663.544,457.21,663.525,457.152Z" transform="translate(-651.963 -457.149)" fill="#263238"/>
                  </g>
                </g>
              </g>
            </g>
            <g id="Group_4846" data-name="Group 4846" transform="translate(76.603)">
              <g id="Group_4836" data-name="Group 4836" transform="translate(0.218)">
                <g id="Group_4833" data-name="Group 4833" transform="translate(31.069 37.85)">
                  <path id="Path_9307" data-name="Path 9307" d="M219.774,154.488A33.761,33.761,0,0,0,195.3,164.963a4.409,4.409,0,0,0,.663,6.652l.007.005a4.412,4.412,0,0,0,5.72-.558,25.021,25.021,0,0,1,36.018-.145,4.416,4.416,0,0,0,5.739.515l.024-.017a4.408,4.408,0,0,0,.6-6.651A33.8,33.8,0,0,0,219.774,154.488Z" transform="translate(-194.083 -154.488)" fill="#0fc2bf"/>
                </g>
                <g id="Group_4834" data-name="Group 4834">
                  <path id="Path_9308" data-name="Path 9308" d="M216.427,112.561a71.542,71.542,0,0,0-55.785,26.7,4.408,4.408,0,0,0,.9,6.374l.008.005a4.417,4.417,0,0,0,5.972-.844,62.836,62.836,0,0,1,97.5-.382,4.418,4.418,0,0,0,6,.789l.011-.007a4.408,4.408,0,0,0,.841-6.368,71.554,71.554,0,0,0-55.452-26.267Z" transform="translate(-159.668 -112.561)" fill="#0fc2bf"/>
                </g>
                <g id="Group_4835" data-name="Group 4835" transform="translate(16.887 20.71)">
                  <path id="Path_9309" data-name="Path 9309" d="M218.246,135.5a51.17,51.17,0,0,0-38.8,17.765,4.414,4.414,0,0,0,.8,6.5l.009.006a4.414,4.414,0,0,0,5.873-.726,42.448,42.448,0,0,1,64.02-.251,4.417,4.417,0,0,0,5.885.678h0a4.409,4.409,0,0,0,.756-6.49A51.156,51.156,0,0,0,218.246,135.5Z" transform="translate(-178.373 -135.502)" fill="#0fc2bf"/>
                </g>
              </g>
              <circle id="Ellipse_25" data-name="Ellipse 25" cx="8.391" cy="8.391" r="8.391" transform="translate(48.557 55.601)" fill="#0fc2bf"/>
              <g id="Group_4843" data-name="Group 4843" transform="translate(0 5.724)">
                <g id="Group_4838" data-name="Group 4838" transform="translate(38.676 33.398)">
                  <g id="Group_4837" data-name="Group 4837">
                    <path id="Path_9310" data-name="Path 9310" d="M244.244,171.784a.213.213,0,0,1-.176-.09.216.216,0,0,1,.05-.3l.023-.017a4.191,4.191,0,0,0,.574-6.324,33.794,33.794,0,0,0-14.255-8.732.216.216,0,1,1,.127-.413,34.241,34.241,0,0,1,14.438,8.843,4.624,4.624,0,0,1-.633,6.977l-.023.017a.21.21,0,0,1-.125.039Zm-41.758-.368a.216.216,0,0,1-.156-.366,25.211,25.211,0,0,1,18.24-7.792.216.216,0,0,1,0,.432,24.628,24.628,0,0,0-17.929,7.658.214.214,0,0,1-.155.067Z" transform="translate(-202.269 -155.897)" fill="#231822"/>
                  </g>
                </g>
                <g id="Group_4840" data-name="Group 4840">
                  <g id="Group_4839" data-name="Group 4839">
                    <path id="Path_9311" data-name="Path 9311" d="M268.43,146.858a4.648,4.648,0,0,1-3.6-1.694,62.629,62.629,0,0,0-30.166-20.206.216.216,0,1,1,.125-.413,62.876,62.876,0,0,1,16.776,7.991,63.54,63.54,0,0,1,13.6,12.353,4.214,4.214,0,0,0,5.7.751l.011-.007a4.191,4.191,0,0,0,.8-6.056.217.217,0,1,1,.335-.274,4.624,4.624,0,0,1-.883,6.68l-.011.008A4.594,4.594,0,0,1,268.43,146.858Zm-106.9-.389a.208.208,0,0,1-.124-.04l-.008,0a4.649,4.649,0,0,1-1.927-3.149,4.565,4.565,0,0,1,.977-3.538,72.2,72.2,0,0,1,27.274-20.817.218.218,0,0,1,.173.4,72.008,72.008,0,0,0-27.111,20.692,4.193,4.193,0,0,0,.862,6.061l.008.005a.217.217,0,0,1-.125.394Z" transform="translate(-159.427 -118.902)" fill="#231822"/>
                  </g>
                </g>
                <g id="Group_4842" data-name="Group 4842" transform="translate(16.889 14.769)">
                  <g id="Group_4841" data-name="Group 4841">
                    <path id="Path_9312" data-name="Path 9312" d="M182.771,160.771a4.616,4.616,0,0,1-2.659-.843l-.01-.007a4.631,4.631,0,0,1-.839-6.819,51.384,51.384,0,0,1,38.959-17.84.216.216,0,1,1,0,.432,51.034,51.034,0,0,0-38.63,17.687,4.2,4.2,0,0,0,.758,6.186l.009.007a4.189,4.189,0,0,0,5.585-.692.216.216,0,1,1,.327.283,4.624,4.624,0,0,1-3.5,1.606Zm70.677-.276a4.63,4.63,0,0,1-3.481-1.579.217.217,0,0,1,.325-.286,4.2,4.2,0,0,0,6.316-5.526,51.473,51.473,0,0,0-7.449-6.958.216.216,0,1,1,.263-.344,51.9,51.9,0,0,1,7.511,7.017,4.632,4.632,0,0,1-3.485,7.676Z" transform="translate(-178.134 -135.262)" fill="#231822"/>
                  </g>
                </g>
              </g>
              <g id="Group_4844" data-name="Group 4844" transform="translate(48.961 55.384)">
                <path id="Path_9313" data-name="Path 9313" d="M230.039,182.735a.217.217,0,0,1-.216-.217,8.176,8.176,0,0,0-15.745-3.09.217.217,0,0,1-.4-.164,8.609,8.609,0,0,1,16.578,3.254.217.217,0,0,1-.217.217Z" transform="translate(-213.661 -173.911)" fill="#231822"/>
              </g>
              <g id="Group_4845" data-name="Group 4845" transform="translate(56.732 69.421)">
                <path id="Path_9314" data-name="Path 9314" d="M222.486,192.637a.216.216,0,1,1,0-.432,8.2,8.2,0,0,0,6.047-2.674.216.216,0,1,1,.32.291A8.629,8.629,0,0,1,222.486,192.637Z" transform="translate(-222.269 -189.46)" fill="#231822"/>
              </g>
            </g>
          </g>
        </g>
      </g>
    </g>
  </g>
</svg>
