<svg width="501" height="500" viewBox="0 0 501 500" fill="none" xmlns="http://www.w3.org/2000/svg">
<g clip-path="url(#clip0_10_303)">
<path d="M500.95 0H0.950195V500H500.95V0Z" fill="white"/>
<g style="mix-blend-mode:multiply" opacity="0.36">
<path d="M211.35 332.18C289.874 332.18 353.53 268.524 353.53 190C353.53 111.476 289.874 47.82 211.35 47.82C132.827 47.82 69.1704 111.476 69.1704 190C69.1704 268.524 132.827 332.18 211.35 332.18Z" fill="#DADEEA"/>
</g>
<g style="mix-blend-mode:multiply" opacity="0.36">
<path d="M250.95 457.36C359.055 457.36 446.69 451.522 446.69 444.32C446.69 437.118 359.055 431.28 250.95 431.28C142.846 431.28 55.2104 437.118 55.2104 444.32C55.2104 451.522 142.846 457.36 250.95 457.36Z" fill="#7DBBF1"/>
</g>
<path d="M191 318.41C191 318.41 190.45 307.13 174.49 301.12C174.49 301.12 176.96 316.36 191 318.41Z" fill="#48BE97"/>
<path d="M189.73 338.36C189.73 338.36 188.07 323.8 166.9 317.36C166.9 317.36 171.38 336.88 189.73 338.36V338.36Z" fill="#48BE97"/>
<path d="M195.021 367.23C195.021 367.23 192.611 350.35 167.771 343.55C167.771 343.55 173.621 366.11 195.021 367.23Z" fill="#48BE97"/>
<path d="M212.361 397.49C212.361 397.49 202.951 379.25 172.021 381.35C172.021 381.35 187.591 404.68 212.361 397.49Z" fill="#48BE97"/>
<path d="M190.97 318.63C190.97 318.63 193.16 307.55 209.82 303.92C209.82 303.92 205.16 318.64 190.97 318.63Z" fill="#48BE97"/>
<path d="M189.32 338.55C189.32 338.55 193.08 324.39 214.96 321.1C214.96 321.1 207.69 339.76 189.32 338.55Z" fill="#48BE97"/>
<path d="M194.621 367.1C194.621 367.1 192.501 350.18 214.671 337.09C214.671 337.09 214.961 360.39 194.621 367.1Z" fill="#48BE97"/>
<path d="M211 397.67C211 397.67 202.72 378.89 223.78 356.15C223.78 356.15 232.15 382.92 211 397.67Z" fill="#48BE97"/>
<path d="M191.23 318.07C191.23 318.07 175.61 383.13 247.11 429.61" stroke="#48BE97" stroke-width="2.01" stroke-miterlimit="10" stroke-linecap="round"/>
<path d="M309.04 339.29C309.04 339.29 311.15 328.19 327.79 324.45C327.79 324.45 323.23 339.2 309.04 339.29Z" fill="#48BE97"/>
<path d="M307.13 359.41C307.13 359.41 310.79 345.22 332.65 341.77C332.65 341.77 325.51 360.48 307.13 359.41Z" fill="#48BE97"/>
<path d="M298.48 386.6C298.48 386.6 307.27 371.98 332.79 375.39C332.79 375.39 318.62 393.89 298.48 386.6Z" fill="#48BE97"/>
<path d="M277.84 414.65C277.84 414.65 292.75 400.54 321.24 412.73C321.24 412.73 298.84 429.61 277.84 414.65Z" fill="#48BE97"/>
<path d="M309.03 339.5C309.03 339.5 308.4 328.22 292.39 322.33C292.39 322.33 294.97 337.55 309.03 339.5Z" fill="#48BE97"/>
<path d="M307.13 359.36C307.13 359.36 305.37 344.81 284.15 338.53C284.15 338.53 288.77 358.01 307.13 359.36Z" fill="#48BE97"/>
<path d="M298.71 387C298.71 387 303.15 370.53 283 354.5C283 354.5 279.48 377.54 298.71 387Z" fill="#48BE97"/>
<path d="M278.25 415.02C278.25 415.02 289.05 397.56 271.34 372.13C271.34 372.13 259.35 397.48 278.25 415.02Z" fill="#48BE97"/>
<path d="M308.85 338.91C308.85 338.91 311.14 393.57 268.34 422.37" stroke="#48BE97" stroke-width="2.01" stroke-miterlimit="10" stroke-linecap="round"/>
<path d="M104.17 444.32C109 433.85 117.6 403.13 104.35 396.71C96.0403 392.68 93.6103 399.58 93.6103 399.58C93.6103 399.58 99.6103 365.98 85.3803 365.91C77.0803 365.87 75.6903 375.39 75.6903 375.39C75.6903 375.39 71.1803 364.88 65.6603 361.83C53.6703 355.19 39.3903 362.05 50.4503 380.83C53.4503 385.92 57.6203 389.58 57.6203 389.58C57.6203 389.58 45.1203 384.87 43.8903 393.81C42.6703 402.75 66.3703 416.96 66.3703 416.96C66.3703 416.96 59.2803 417.23 59.0003 425.42C58.6203 436.49 81.4803 444.32 81.4803 444.32H104.18H104.17Z" fill="#36A871"/>
<path d="M58.9204 370.01C74.4704 392.8 87.2404 399.58 97.6304 442.03" stroke="white" stroke-width="0.79" stroke-miterlimit="10" stroke-linecap="round"/>
<path d="M114.72 444.32C114.21 428.76 137.18 396.42 123.27 388.58C114.54 383.66 112.08 392.55 112.08 392.55C112.08 392.55 131.74 359.24 112.93 357.01C106.38 356.23 102.57 365.81 102.57 365.81C102.57 365.81 102.41 348.66 97.1604 342.24C88.6004 331.76 70.6804 337.62 74.9004 360.21C77.2204 372.6 85.7304 377.51 85.7304 377.51C85.7304 377.51 77.1204 370.94 73.0104 379.57C67.5104 391.13 85.9604 406.07 85.9604 406.07C85.9604 406.07 77.7004 399.95 72.2504 409.96C64.8804 423.47 92.9104 444.34 92.9104 444.34H114.71L114.72 444.32Z" fill="#48BE97"/>
<path d="M89.8506 354.68C100.371 381.4 105.861 410.72 108.131 441.69" stroke="white" stroke-width="0.79" stroke-miterlimit="10" stroke-linecap="round"/>
<path d="M391.1 444.32C394.52 431.68 378.04 406.78 390.84 400.42C398.87 396.43 403.18 400.51 403.18 400.51C403.18 400.51 393.73 375.41 409.41 373.6C414.88 372.97 416.53 377.84 416.53 377.84C416.53 377.84 418.7 370.41 424.56 365.74C435.67 356.9 450.15 360.18 442.36 378.52C438.09 388.58 434.71 390.06 434.71 390.06C434.71 390.06 442.43 388.56 444.1 395.57C446.33 404.96 427.83 420.67 427.83 420.67C427.83 420.67 434.48 421.3 435.35 426.27C437.29 437.27 413.97 444.32 413.97 444.32H391.07H391.1Z" fill="#36A871"/>
<path d="M437.31 367.58C416.03 384.86 415.24 420.03 404.46 440.34" stroke="white" stroke-width="0.72" stroke-miterlimit="10" stroke-linecap="round"/>
<path d="M381.47 444.32C373.76 431.64 357 394.46 369.29 386.68C377 381.8 381.29 390.16 381.29 390.16C381.29 390.16 366.52 349.48 381.45 349.39C390.15 349.34 394.02 360.87 394.02 360.87C394.02 360.87 396.97 348.94 401.11 341.76C410.63 325.25 432.96 331.85 425.08 358.04C423.08 364.68 417.08 373.1 417.08 373.1C417.08 373.1 430.95 372.27 430.58 384.27C430.23 395.65 411.01 406.36 411.01 406.36C411.01 406.36 423.79 403.51 426.14 413.43C429.32 426.83 401.1 444.31 401.1 444.31H381.47V444.32Z" fill="#48BE97"/>
<path d="M414.45 348.34C403.71 384.72 387.98 390.15 387.76 441.54" stroke="white" stroke-width="0.72" stroke-miterlimit="10" stroke-linecap="round"/>
<path d="M251.061 349.87C251.061 349.87 251.931 342.16 263.131 338.74C263.131 338.74 260.771 349.07 251.061 349.87Z" fill="#36A871"/>
<path d="M251.061 363.6C251.061 363.6 252.831 353.7 267.621 350.21C267.621 350.21 263.701 363.39 251.061 363.6Z" fill="#36A871"/>
<path d="M246.17 383.14C246.17 383.14 248.56 371.68 265.87 368.11C265.87 368.11 260.88 383.31 246.17 383.14V383.14Z" fill="#36A871"/>
<path d="M232.96 403.12C232.96 403.12 240.21 391.03 261.3 393.82C261.3 393.82 249.61 409.12 232.96 403.12V403.12Z" fill="#36A871"/>
<path d="M251.071 350.02C251.071 350.02 250.061 342.33 238.791 339.12C238.791 339.12 241.341 349.41 251.071 350.02Z" fill="#36A871"/>
<path d="M251.331 363.74C251.331 363.74 249.371 353.87 234.521 350.66C234.521 350.66 238.691 363.76 251.331 363.74Z" fill="#36A871"/>
<path d="M246.45 383.07C246.45 383.07 248.64 371.57 234.02 361.63C234.02 361.63 232.8 377.58 246.45 383.07Z" fill="#36A871"/>
<path d="M233.89 403.3C233.89 403.3 240.38 390.79 226.95 374.29C226.95 374.29 220.04 392.27 233.89 403.3Z" fill="#36A871"/>
<path d="M250.92 349.62C250.92 349.62 258.78 394.88 207.75 423.6" stroke="#36A871" stroke-width="1.38" stroke-miterlimit="10" stroke-linecap="round"/>
<path d="M252.28 444.32H237.54C227.29 444.32 211.35 415.61 211.35 404.48C211.35 393.35 227.24 364.09 237.54 364.09H252.28C265.33 364.09 275.64 368.15 282.93 376.16C289.93 383.87 293.48 393.4 293.48 404.48C293.48 415.56 289.89 425.12 282.81 432.66C275.53 440.4 265.26 444.32 252.28 444.32V444.32ZM213.3 329.43L213.53 317.9C213.92 298.01 216.62 282.48 221.78 270.42C226.99 258.25 236.95 245.47 252.23 231.36L252.47 231.15L287.87 200.27C300.76 187.88 307.03 175.26 307.03 161.7C307.03 148.14 303.34 139.16 295.75 132.21C287.98 125.1 275.91 121.5 259.89 121.5C243.87 121.5 231.22 124.94 222.03 131.73C213.66 137.91 209.76 145.64 209.76 156.05V167.35H136.71L136.88 155.88C137.29 127.41 149.39 104.14 172.83 86.71C195.29 70.02 224.58 61.55 259.89 61.55C295.2 61.55 325.97 70.26 347.08 87.44C368.87 105.19 379.92 129.7 379.92 160.28C379.92 190.86 363.83 219.91 332.09 248.11L331.85 248.32L302.48 272.95C291.67 283.23 286.42 298.01 286.42 318.12V329.42H213.31L213.3 329.43Z" fill="#65A4DA"/>
<path d="M237.55 444.32C224.53 444.32 214.29 440.38 207.1 432.59C200.15 425.06 196.62 415.61 196.62 404.48C196.62 393.35 200.1 383.92 206.97 376.23C214.17 368.17 224.46 364.08 237.55 364.08C250.64 364.08 260.91 368.14 268.2 376.15C275.2 383.86 278.75 393.39 278.75 404.47C278.75 415.55 275.16 425.11 268.08 432.65C260.8 440.39 250.53 444.31 237.55 444.31V444.32ZM198.57 329.43L198.8 317.9C199.19 298.01 201.89 282.48 207.05 270.42C212.26 258.25 222.22 245.47 237.5 231.36L237.74 231.15L273.14 200.27C286.03 187.88 292.3 175.26 292.3 161.7C292.3 148.14 288.61 139.16 281.02 132.21C273.25 125.1 261.18 121.5 245.16 121.5C229.14 121.5 216.49 124.94 207.3 131.73C198.93 137.91 195.03 145.64 195.03 156.05V167.35H121.98L122.15 155.88C122.56 127.41 134.66 104.14 158.1 86.71C180.56 70.02 209.85 61.55 245.16 61.55C280.47 61.55 311.24 70.26 332.35 87.44C354.14 105.19 365.19 129.7 365.19 160.28C365.19 190.86 349.1 219.91 317.36 248.11L317.12 248.32L287.75 272.95C276.94 283.23 271.69 298.01 271.69 318.12V329.42H198.58L198.57 329.43Z" fill="#7DBBF1"/>
<path d="M144.161 428.69C144.531 433.45 142.961 444.07 144.201 444.32H179.341C179.341 444.32 179.691 438.97 175.531 437.81C169.971 436.26 163.201 435.12 160.681 432.9C159.431 431.8 158.831 428.7 158.831 428.7H144.171L144.161 428.69Z" fill="#0A1930"/>
<path d="M169.7 436.32C169.7 436.32 165.23 435.92 163.63 438.46" stroke="#7DBBF1" stroke-width="0.85" stroke-linecap="round" stroke-linejoin="round"/>
<path d="M165.67 435.13C165.67 435.13 161.2 434.73 159.61 437.27" stroke="#7DBBF1" stroke-width="0.85" stroke-linecap="round" stroke-linejoin="round"/>
<path d="M123.68 428.69C123.23 435.52 124.42 443.74 122.49 444.32H99.1405C99.1405 444.32 98.8105 440.49 101.92 437.31C103.2 436.01 106.21 434.51 107.58 433.14C108.82 431.89 109.02 428.69 109.02 428.69H123.68V428.69Z" fill="#0A1930"/>
<path d="M109.621 437.18C109.621 437.18 106.631 433.66 102.871 436.5" stroke="#7DBBF1" stroke-width="0.85" stroke-linecap="round" stroke-linejoin="round"/>
<path d="M113.3 435.39C113.3 435.39 108.82 431.71 105.4 434.59" stroke="#7DBBF1" stroke-width="0.85" stroke-linecap="round" stroke-linejoin="round"/>
<path d="M169.66 238.65C170.68 244.95 170.34 251.68 170.66 251.35C171.5 250.45 181.51 245.53 182.31 245.12C185.97 243.24 188.88 243.35 190.91 243.45C191.58 243.48 193.6 243.33 193.6 243.33C193.6 243.33 195.18 242.95 196.29 243.45C197.41 243.96 197.72 244.83 196.69 245.18C195.77 245.49 194.04 245.75 194.04 245.75C194.04 245.75 197.62 245.68 200.44 245.45C201.5 245.37 201.62 246.81 201.62 246.81C201.62 246.81 202.07 246.74 202.29 246.69C203.73 246.37 204.28 248.53 203.71 248.7C202.75 248.98 202.09 249.06 202.09 249.06C202.45 249.2 203.09 250.2 202.18 250.47C201.19 250.76 198.55 251.29 198.55 251.29C199.18 251.29 199.7 252.5 199.33 252.63C197.87 253.16 192.91 254.39 192.2 254.46C191.57 254.52 188.33 254.49 186.89 254.26C185.75 254.09 183.33 253.53 183.33 253.53C183.33 253.53 167.13 266.75 164.73 266.15C162.95 265.7 159.52 263.57 158.96 260.39C158.39 257.2 154.55 238.25 154.55 238.25C156.05 228.69 168.14 229.1 169.67 238.64L169.66 238.65Z" fill="#914F4E"/>
<path d="M182.12 248.73C182.12 248.73 182.04 251.82 183.05 253.22" stroke="#914F4E" stroke-width="0.57" stroke-linecap="round" stroke-linejoin="round"/>
<path d="M191.61 246.08C191.61 246.08 190.01 248.74 185.04 248.39C188.82 249.08 191.2 252.92 191.2 252.92" stroke="#914F4E" stroke-width="0.57" stroke-linecap="round" stroke-linejoin="round"/>
<path d="M198.191 251.28L192.771 252.06" stroke="#914F4E" stroke-width="0.57" stroke-linecap="round" stroke-linejoin="round"/>
<path d="M201.27 248.97L193.11 249.92" stroke="#914F4E" stroke-width="0.57" stroke-linecap="round" stroke-linejoin="round"/>
<path d="M200.94 246.81L193.53 247.51" stroke="#914F4E" stroke-width="0.57" stroke-linecap="round" stroke-linejoin="round"/>
<path d="M154.61 171.37C154.61 171.37 156.11 172.94 156.48 176.41C156.84 179.89 154.13 184.5 154.13 184.5L154.61 171.36V171.37Z" fill="#24292D"/>
<path d="M164.781 285.52C165.921 296.3 159.781 430.14 159.781 430.14H144.121C144.121 430.14 139.211 334.93 139.871 321.04C140.531 307.15 137.531 293.97 138.411 285.52C139.291 277.07 162.861 267.34 164.781 285.52Z" fill="#14475F"/>
<path d="M143.84 285.91C143.85 334.3 124.23 430.13 124.23 430.13H108.09C108.09 430.13 116.22 321.11 116.52 307.17C116.74 297.16 117.87 290.19 118.85 281.72C120.52 267.41 143.82 267.7 143.83 285.92L143.84 285.91Z" fill="#14475F"/>
<g style="mix-blend-mode:multiply" opacity="0.36">
<path d="M164.88 295.62C164.17 295.22 163.35 294.76 162.53 294.25C160.2 292.84 159.51 293.15 143.68 294.14C143.48 294.15 143.27 294.16 143.06 294.17C141.5 294.26 139.96 294.27 138.47 294.22C128.48 293.81 120.33 290.32 117.96 289.2C118.25 286.76 118.57 284.31 118.86 281.72C120.31 269.38 137.85 267.89 142.63 279.41C149.72 273.95 163.35 271.86 164.78 285.51C164.93 286.93 164.95 290.49 164.88 295.61V295.62Z" fill="#14475F"/>
</g>
<path d="M159.871 208.51C171.351 219.29 170.711 247.96 170.711 247.96C170.711 247.96 160.141 254.99 153.851 252.25C153.851 252.25 149.091 222.85 151.601 213.78C153.131 208.24 157.731 206.51 159.871 208.52V208.51Z" fill="#021946"/>
<g style="mix-blend-mode:multiply" opacity="0.36">
<path d="M167.841 235.76C167.691 241.26 167.731 246.43 167.411 249.85C163.781 251.7 157.921 254.02 153.851 252.25C153.851 252.25 149.091 222.85 151.601 213.79C152.281 211.37 153.531 209.68 154.911 208.72L159.871 208.53L159.891 208.55C160.441 209.14 168.401 215.64 167.831 235.77L167.841 235.76Z" fill="#021946"/>
</g>
<path d="M130.411 204.17C130.411 204.17 113.571 206.94 113.061 210.01C112.551 213.08 118.951 257.37 118.951 267.77C118.951 278.17 117.741 288.01 117.741 288.01C117.741 288.01 131.231 291.79 144.121 291.55C157.001 291.31 165.221 289.39 165.221 289.39C165.221 289.39 164.471 276.6 164.221 268.1C163.961 259.59 165.971 234.78 165.991 225.69C166.011 217.78 162.291 211.33 159.871 208.52C157.871 206.2 147.351 203.75 147.351 203.75L130.421 204.17H130.411Z" fill="#021946"/>
<g style="mix-blend-mode:multiply" opacity="0.36">
<path d="M122.381 264.32C120.931 266.93 119.791 269.11 118.901 270.92C118.931 269.88 118.951 268.82 118.951 267.76C118.951 260.85 116.111 238.97 114.371 224.18L127.391 216.63C128.991 221.68 128.991 252.38 122.381 264.33V264.32Z" fill="#021946"/>
</g>
<path d="M131.95 197.96L130.42 204.21C130.42 204.21 137.03 215.23 144.84 214.13C152.65 213.03 147.36 203.75 147.36 203.75L147.67 199.61L133.27 191.08L131.96 197.96H131.95Z" fill="#914F4E"/>
<path d="M155.37 174.36C155.78 176.43 155.6 183.19 155.2 188.41C154.81 193.46 153.45 200.78 150.58 201.42C147.71 202.06 135.39 199.68 134.82 192.6C132.72 190.94 124.75 181.18 127.55 176.34C132.54 167.75 154.06 167.69 155.37 174.35V174.36Z" fill="#914F4E"/>
<path d="M145.311 186.26C145.786 186.26 146.171 185.687 146.171 184.98C146.171 184.273 145.786 183.7 145.311 183.7C144.836 183.7 144.451 184.273 144.451 184.98C144.451 185.687 144.836 186.26 145.311 186.26Z" fill="#24292D"/>
<path d="M153.83 184.62C153.83 185.33 153.45 185.9 152.97 185.9C152.49 185.9 152.11 185.33 152.11 184.62C152.11 183.91 152.49 183.34 152.97 183.34C153.45 183.34 153.83 183.91 153.83 184.62Z" fill="#24292D"/>
<path d="M146.751 181.86C145.931 181.64 145.171 181.49 144.451 181.6C143.721 181.68 143.081 182.07 142.391 182.58C142.551 182.19 142.781 181.8 143.131 181.52C143.471 181.22 143.911 181.04 144.361 180.98C145.271 180.86 146.181 181.22 146.751 181.86V181.86Z" fill="#24292D"/>
<path d="M150.55 181.51C151.11 180.87 152.03 180.51 152.94 180.63C153.39 180.69 153.84 180.88 154.17 181.17C154.53 181.44 154.76 181.84 154.91 182.23C154.22 181.73 153.58 181.33 152.85 181.25C152.13 181.14 151.37 181.29 150.55 181.51V181.51Z" fill="#24292D"/>
<path d="M149.92 186.5C150.04 187.24 150.44 187.9 150.8 188.56L151.93 190.54C152.12 190.88 152.31 191.21 152.47 191.59C152.54 191.78 152.63 191.97 152.64 192.26C152.64 192.34 152.64 192.42 152.59 192.54C152.55 192.65 152.51 192.68 152.46 192.75C152.37 192.86 152.27 192.95 152.17 193C151.78 193.25 151.4 193.35 151.01 193.43C150.62 193.5 150.23 193.54 149.84 193.53V193.46C150.51 193.12 151.26 192.83 151.75 192.43C151.87 192.33 151.92 192.24 151.89 192.27C151.88 192.18 151.84 192 151.79 191.84C151.68 191.5 151.54 191.15 151.4 190.81L150.47 188.72C150.2 188.01 149.88 187.29 149.85 186.5H149.92V186.5Z" fill="#263238"/>
<path d="M152.62 194.65C152.62 194.65 150.3 194.43 148 195.58C148 195.58 151.95 196.15 152.31 195.76C152.67 195.37 152.62 194.65 152.62 194.65Z" fill="white"/>
<path d="M155.75 176.15C155.12 177.49 150.84 179.45 142.98 179.02C142.98 179.02 146.91 177.94 147.78 174.86C147.78 174.86 144.61 179.71 138.44 179.59C138.44 179.59 138.98 183.92 136.32 188.37C136.32 188.37 134.55 190.71 134.81 192.6C135.06 194.37 133.18 197.53 131.94 198.25C131.19 192.65 125.33 181.7 126.47 175.53C127.63 169.29 133.25 169.18 133.25 169.18C135.81 165.11 145.28 163.43 151.45 166.8C156.02 169.29 156.89 173.71 155.75 176.15Z" fill="#24292D"/>
<path d="M136.971 186.45C135.661 183.22 131.231 183.48 131.201 186.21C131.161 190.69 133.861 192.01 134.821 192.6C135.781 193.18 137.761 188.41 136.971 186.46V186.45Z" fill="#914F4E"/>
<path d="M109.99 238.82C108.97 245.12 108.12 251.32 107.8 250.98C106.96 250.08 92.4305 246.12 91.5305 245.58C87.2805 243.04 84.3105 243.44 82.4405 243.44L79.7505 243.32C79.7505 243.32 78.1705 242.94 77.0605 243.44C75.9405 243.95 75.6305 244.82 76.6605 245.17C77.5805 245.48 79.3105 245.74 79.3105 245.74C79.3105 245.74 75.7305 245.67 72.9105 245.44C71.8505 245.36 71.7305 246.8 71.7305 246.8C71.7305 246.8 71.2805 246.73 71.0605 246.68C69.6205 246.36 69.0705 248.52 69.6405 248.69C70.6005 248.97 71.2605 249.05 71.2605 249.05C70.9005 249.19 70.2605 250.19 71.1705 250.46C72.1605 250.75 74.8005 251.28 74.8005 251.28C74.1705 251.28 73.6505 252.49 74.0205 252.62C75.4805 253.15 80.4405 254.38 81.1505 254.45C81.7805 254.51 85.0205 254.48 86.4605 254.25C87.6005 254.08 90.0105 253.98 90.0105 253.98C90.0105 253.98 110.57 263.94 113.03 264.25C115.26 264.53 118.97 263.74 120.16 260.38C121.24 257.32 125.75 238.72 125.75 238.72C124.25 229.16 111.52 229.26 109.98 238.8L109.99 238.82Z" fill="#914F4E"/>
<path d="M90.2705 253.76C90.2705 253.76 91.2405 252.43 91.4805 250.58" stroke="#914F4E" stroke-width="0.57" stroke-linecap="round" stroke-linejoin="round"/>
<path d="M81.7305 246.08C81.7305 246.08 83.3305 248.74 88.3005 248.39C84.5205 249.08 82.1405 252.92 82.1405 252.92" stroke="#914F4E" stroke-width="0.57" stroke-linecap="round" stroke-linejoin="round"/>
<path d="M75.1504 251.28L80.5704 252.06" stroke="#914F4E" stroke-width="0.57" stroke-linecap="round" stroke-linejoin="round"/>
<path d="M72.0703 248.97L80.2403 249.92" stroke="#914F4E" stroke-width="0.57" stroke-linecap="round" stroke-linejoin="round"/>
<path d="M72.4106 246.81L79.8106 247.51" stroke="#914F4E" stroke-width="0.57" stroke-linecap="round" stroke-linejoin="round"/>
<path d="M113.03 209.98C107.45 221.12 107.25 246.27 107.25 246.27C107.25 246.27 118.26 252 124.81 249.34C124.81 249.34 129.06 225.4 127.39 216.62C126.37 211.26 115.74 204.56 113.03 209.98Z" fill="#021946"/>
<path d="M349.11 428.69C348.74 433.45 350.31 444.07 349.07 444.32H313.93C313.93 444.32 313.58 438.97 317.74 437.81C323.3 436.26 330.07 435.12 332.59 432.9C333.84 431.8 334.44 428.7 334.44 428.7H349.1L349.11 428.69Z" fill="#14475F"/>
<path d="M323.57 436.32C323.57 436.32 328.04 435.92 329.64 438.46" stroke="#7DBBF1" stroke-width="0.85" stroke-linecap="round" stroke-linejoin="round"/>
<path d="M327.6 435.13C327.6 435.13 332.07 434.73 333.67 437.27" stroke="#7DBBF1" stroke-width="0.85" stroke-linecap="round" stroke-linejoin="round"/>
<path d="M369.59 428.69C370.04 435.52 368.85 443.74 370.78 444.32H394.13C394.13 444.32 394.46 440.49 391.35 437.31C390.07 436.01 387.06 434.51 385.69 433.14C384.45 431.89 384.25 428.69 384.25 428.69H369.59Z" fill="#14475F"/>
<path d="M383.65 437.18C383.65 437.18 386.64 433.66 390.4 436.5" stroke="#7DBBF1" stroke-width="0.85" stroke-linecap="round" stroke-linejoin="round"/>
<path d="M379.97 435.39C379.97 435.39 384.45 431.71 387.87 434.59" stroke="#7DBBF1" stroke-width="0.85" stroke-linecap="round" stroke-linejoin="round"/>
<path d="M327.4 285.1C326.26 295.88 333.82 430.13 333.82 430.13H349.48C349.48 430.13 354.39 334.92 353.73 321.03C353.07 307.14 356.07 293.96 355.19 285.51C354.31 277.06 329.32 266.92 327.4 285.1V285.1Z" fill="#021946"/>
<path d="M349.77 285.91C349.76 334.3 369.38 430.13 369.38 430.13H385.52C385.52 430.13 377.39 321.11 377.09 307.17C376.87 297.16 375.74 290.19 374.76 281.72C373.09 267.41 349.79 267.7 349.78 285.92L349.77 285.91Z" fill="#021946"/>
<g style="mix-blend-mode:multiply" opacity="0.36">
<path d="M375.71 289.61C373 290.81 364.95 293.94 355.15 293.97C354.25 293.97 353.32 293.95 352.39 293.89C351.54 293.84 350.72 293.79 349.91 293.75C338.09 293.13 331.58 293.4 329.53 293.96C328.73 294.17 327.98 294.85 327.37 295.63C327.25 290.28 327.23 286.55 327.39 285.1C328.84 271.33 343.51 273.81 350.93 279.47C352.11 276.59 354.07 274.52 356.39 273.22L367.56 272.41C371.24 273.81 374.18 276.96 374.74 281.71C375.06 284.45 375.4 287.02 375.7 289.6L375.71 289.61Z" fill="#021946"/>
</g>
<path d="M334.47 208.51C322.99 219.29 323.63 247.96 323.63 247.96C323.63 247.96 334.2 254.99 340.49 252.25C340.49 252.25 345.25 222.85 342.74 213.78C341.21 208.24 336.61 206.51 334.47 208.52V208.51Z" fill="#1B84C1"/>
<path d="M366.58 204.17C366.58 204.17 382.61 209.27 383.13 212.34C383.64 215.41 374.73 256.87 374.73 267.27C374.73 277.67 375.86 288.01 375.86 288.01C375.86 288.01 362.37 291.79 349.48 291.55C336.59 291.31 326.95 288.98 326.95 288.98C326.95 288.98 327.65 276.26 327.91 267.75C328.17 259.24 328.35 234.78 328.33 225.69C328.31 217.78 332.03 211.33 334.45 208.52C336.45 206.2 349.63 203.75 349.63 203.75L366.56 204.17H366.58Z" fill="#1B84C1"/>
<g style="mix-blend-mode:multiply" opacity="0.36">
<path d="M374.73 267.26C374.73 270.15 374.82 273.04 374.94 275.69C372.37 270.64 367.55 265.99 365.1 265.21C361.98 264.22 335.61 253.44 333.54 253.87C332.43 254.1 330.09 253.79 328.16 253.45C328.21 250.41 328.23 247.21 328.26 244.07L342.05 205.44C345.87 204.43 349.65 203.73 349.65 203.73C348.52 204.63 346.95 209.78 345.8 212.33C344.64 214.88 338.31 241.66 338.31 241.66L359.85 243.8C362.54 223.25 368.34 214.97 368.34 214.97L381.16 225.79C378.67 239.75 374.74 260.35 374.74 267.26H374.73Z" fill="#1B84C1"/>
</g>
<path d="M365.05 197.96L366.58 204.21C366.58 204.21 359.97 215.23 352.16 214.13C344.35 213.03 349.64 203.75 349.64 203.75L349.33 199.61L363.73 191.08L365.04 197.96H365.05Z" fill="#914F4E"/>
<path d="M342.19 174.43C341.78 176.5 341.39 183.19 341.8 188.41C342.19 193.46 343.55 200.77 346.42 201.41C349.29 202.05 361.61 199.68 362.18 192.6C364.28 190.94 372.25 181.18 369.45 176.34C364.46 167.75 343.5 167.77 342.19 174.43Z" fill="#914F4E"/>
<path d="M351.69 186.26C352.165 186.26 352.55 185.687 352.55 184.98C352.55 184.273 352.165 183.7 351.69 183.7C351.215 183.7 350.83 184.273 350.83 184.98C350.83 185.687 351.215 186.26 351.69 186.26Z" fill="#24292D"/>
<path d="M344.2 185.76C344.675 185.76 345.06 185.187 345.06 184.48C345.06 183.773 344.675 183.2 344.2 183.2C343.725 183.2 343.34 183.773 343.34 184.48C343.34 185.187 343.725 185.76 344.2 185.76Z" fill="#24292D"/>
<path d="M350.18 182.39C350.63 181.59 351.56 181.07 352.54 181.09C353.03 181.11 353.52 181.24 353.91 181.52C354.31 181.77 354.61 182.15 354.8 182.56C354.36 182.4 354 182.22 353.62 182.12C353.25 182 352.89 181.95 352.52 181.94C351.79 181.91 351.05 182.12 350.18 182.39V182.39Z" fill="#24292D"/>
<path d="M347.04 181.88C346.18 181.61 345.43 181.4 344.7 181.43C344.34 181.43 343.97 181.49 343.6 181.61C343.22 181.71 342.86 181.89 342.42 182.05C342.61 181.64 342.91 181.27 343.31 181.01C343.7 180.73 344.19 180.6 344.68 180.58C345.66 180.57 346.59 181.08 347.04 181.88V181.88Z" fill="#24292D"/>
<path d="M347.15 186.51C347.13 187.32 346.82 188.07 346.55 188.81L345.63 190.98C345.49 191.34 345.35 191.71 345.24 192.06C345.18 192.23 345.14 192.42 345.13 192.54C345.13 192.57 345.13 192.59 345.13 192.6C345.13 192.6 345.11 192.56 345.13 192.6C345.14 192.63 345.19 192.68 345.24 192.73C345.71 193.15 346.49 193.46 347.19 193.83L347.17 193.9C346.76 193.92 346.36 193.87 345.96 193.78C345.56 193.69 345.16 193.57 344.76 193.29C344.66 193.21 344.56 193.12 344.48 192.98C344.44 192.94 344.39 192.81 344.37 192.71C344.36 192.62 344.36 192.54 344.37 192.47C344.39 192.2 344.48 192.01 344.55 191.81C344.71 191.42 344.9 191.08 345.09 190.73L346.21 188.66C346.56 187.97 346.96 187.28 347.08 186.51H347.15V186.51Z" fill="#914F4E"/>
<path d="M344.15 195.58C344.15 195.58 346.41 194.75 348.71 195.9C348.71 195.9 344.76 196.47 344.4 196.08C344.04 195.69 344.15 195.58 344.15 195.58Z" fill="white"/>
<path d="M341.75 177.1C342.38 178.44 353.68 178.35 359.85 178.23C359.85 178.23 358.01 183.92 360.67 188.37C360.67 188.37 362.44 190.71 362.18 192.6C361.93 194.37 364.85 198.49 365.02 197.06C365.56 192.63 371.7 180.03 370.04 173.98C368.63 168.86 365.42 169.1 365.42 169.1C362.86 165.03 356.49 167.22 343.69 164.4C338.61 163.28 340.61 174.66 341.76 177.11L341.75 177.1Z" fill="#24292D"/>
<path d="M360.03 186.45C361.34 183.22 365.77 183.48 365.8 186.21C365.84 190.69 363.14 192.01 362.18 192.6C361.22 193.18 359.24 188.41 360.03 186.46V186.45Z" fill="#914F4E"/>
<path d="M326.77 250.97C328.7 251.65 329.25 251.81 330.04 251.83C331.96 251.88 333.23 251.73 333.23 251.73C333.23 251.73 361.83 261.76 364.54 261.6C366.55 261.47 370.93 260.18 372.82 256.98C374.62 253.92 378.62 241.64 380.1 236.19C382.88 225.95 369.19 224.33 365.6 234.29C363.23 240.88 362.59 247.72 362.31 247.3C361.59 246.16 337.82 243.74 337.33 242.88C336.38 241.18 332.96 240.41 331.99 240.37C330.93 240.32 330.46 240.13 330.03 240.04C328.72 239.75 327.58 241.03 328.85 241.6C329.83 242.04 331.6 242.76 331.6 242.76C331.6 242.76 325.48 240.58 324.31 240.13C323.14 239.68 321.79 241.41 323.4 242.33C325.01 243.25 325.33 243.39 325.33 243.39C325.33 243.39 324.22 242.63 323.14 242.9C322.42 243.08 322.84 245.11 323.64 245.35C323.73 245.38 324.06 245.47 324.06 245.47C324.06 245.47 322.51 247.04 324.69 247.82C324.87 247.88 325.06 247.95 325.06 247.95C325.06 247.95 323.78 249.04 324.78 249.71C325.78 250.38 326.75 250.98 326.75 250.98L326.77 250.97Z" fill="#914F4E"/>
<path d="M346.5 208.12C345.79 211.04 344.56 210.33 344.18 211.18C343.78 212.08 336.13 240.97 335.85 242.29C334.94 246.56 329.55 249.9 326.44 248.49C323.05 246.95 321.88 242.21 322.51 239.52C323.13 236.87 336.91 208.97 336.91 208.97C336.91 208.97 337.95 200.28 338.5 199.97C340.02 199.11 342.86 198.11 343.22 198.03C344.25 197.82 349.08 198.06 349.05 198.03C349.02 198 348.98 199.15 348.19 199.66C347.86 199.87 344.07 200.28 344.07 200.28C344.07 200.28 347.56 200.46 347.72 200.81C347.88 201.15 348.29 205.1 348.13 205.54C347.61 207.02 346.58 207.83 346.51 208.13L346.5 208.12Z" fill="#914F4E"/>
<path d="M340.91 200.95L342.58 200.56" stroke="#914F4E" stroke-width="0.57" stroke-linecap="round" stroke-linejoin="round"/>
<path d="M341.24 202.45C341.24 202.45 346.16 202.51 346.31 202.64C346.46 202.76 346.8 204.94 347.17 205.28C347.54 205.62 347.72 205.58 347.72 205.58" stroke="#914F4E" stroke-width="0.57" stroke-linecap="round" stroke-linejoin="round"/>
<path d="M340.47 204.39C340.47 204.39 344.49 204.83 344.73 204.94C344.98 205.05 345.42 207.3 346.19 207.34C346.97 207.38 347.16 206.49 347.16 206.49" stroke="#914F4E" stroke-width="0.57" stroke-linecap="round" stroke-linejoin="round"/>
<path d="M340.71 206.36L343.98 206.86" stroke="#914F4E" stroke-width="0.57" stroke-linecap="round" stroke-linejoin="round"/>
<path d="M342.87 207.9C342.09 207.97 342.46 209.34 342.87 209.41C343.28 209.48 344.64 209.56 344.94 209.41C345.24 209.26 345.78 208.47 345.79 207.86C345.79 207.57 345.35 206.36 345.35 206.36" stroke="#914F4E" stroke-width="0.57" stroke-linecap="round" stroke-linejoin="round"/>
<path d="M344.73 210.58C344.73 210.58 342.93 211.63 340.2 211.14" stroke="#914F4E" stroke-width="0.57" stroke-linecap="round" stroke-linejoin="round"/>
<path d="M343.82 211.71C343.82 211.71 343.02 212.23 341.25 211.58" stroke="#914F4E" stroke-width="0.57" stroke-linecap="round" stroke-linejoin="round"/>
<path d="M343.72 197.98C343.72 197.98 348.82 198.04 349.05 198.04C349.28 198.04 348.84 199.5 348.19 199.67C347.54 199.83 344.07 200.29 344.07 200.29C344.07 200.29 347.65 200.53 347.72 200.82C347.79 201.1 347.99 202.65 347.99 202.65" stroke="#914F4E" stroke-width="0.57" stroke-linecap="round" stroke-linejoin="round"/>
<path d="M383.16 212.31C388.42 218.04 376.87 249.33 376.87 249.33C376.87 249.33 367.89 248.71 361.34 246.06C361.34 246.06 366.37 218.81 368.33 214.98C370.81 210.12 379.06 207.84 383.16 212.31V212.31Z" fill="#1B84C1"/>
<path d="M336.01 241.67C335.23 244.93 332.42 249.57 327.48 248.74C323.39 248.05 322.59 242.87 322.59 242.87" stroke="#914F4E" stroke-width="0.57" stroke-linecap="round" stroke-linejoin="round"/>
<path d="M112.871 148.866C131.418 140.997 140.074 119.583 132.206 101.036C124.337 82.4884 102.922 73.8321 84.375 81.701C65.8279 89.57 57.1715 110.984 65.0405 129.532C72.9094 148.079 94.3239 156.735 112.871 148.866Z" fill="#DADEEA"/>
<path d="M86.2204 115.27C86.2204 117.84 84.1404 119.92 81.5704 119.92C79.0004 119.92 76.9204 117.84 76.9204 115.27C76.9204 112.7 79.0004 110.62 81.5704 110.62C84.1404 110.62 86.2204 112.7 86.2204 115.27Z" fill="white"/>
<path d="M103.29 115.27C103.29 117.84 101.21 119.92 98.6402 119.92C96.0702 119.92 93.9902 117.84 93.9902 115.27C93.9902 112.7 96.0702 110.62 98.6402 110.62C101.21 110.62 103.29 112.7 103.29 115.27Z" fill="white"/>
<path d="M120.35 115.27C120.35 117.84 118.27 119.92 115.7 119.92C113.13 119.92 111.05 117.84 111.05 115.27C111.05 112.7 113.13 110.62 115.7 110.62C118.27 110.62 120.35 112.7 120.35 115.27Z" fill="white"/>
<path d="M97.0405 149.04C97.0405 149.04 100.791 158.24 115.701 158.74C115.701 158.74 109.311 154.18 109.261 146.62L97.0405 149.05V149.04Z" fill="#DADEEA"/>
<path d="M412.37 179.473C431.995 174.917 444.211 155.314 439.655 135.689C435.099 116.063 415.496 103.847 395.87 108.404C376.245 112.96 364.029 132.563 368.585 152.188C373.141 171.814 392.744 184.03 412.37 179.473Z" fill="#DADEEA"/>
<path d="M416.53 143.91C416.53 146.48 418.61 148.56 421.18 148.56C423.75 148.56 425.83 146.48 425.83 143.91C425.83 141.34 423.75 139.26 421.18 139.26C418.61 139.26 416.53 141.34 416.53 143.91Z" fill="white"/>
<path d="M399.47 143.91C399.47 146.48 401.55 148.56 404.12 148.56C406.69 148.56 408.77 146.48 408.77 143.91C408.77 141.34 406.69 139.26 404.12 139.26C401.55 139.26 399.47 141.34 399.47 143.91Z" fill="white"/>
<path d="M382.41 143.91C382.41 146.48 384.49 148.56 387.06 148.56C389.63 148.56 391.71 146.48 391.71 143.91C391.71 141.34 389.63 139.26 387.06 139.26C384.49 139.26 382.41 141.34 382.41 143.91Z" fill="white"/>
<path d="M405.721 177.68C405.721 177.68 401.971 186.88 387.061 187.38C387.061 187.38 393.451 182.82 393.501 175.26L405.721 177.69V177.68Z" fill="#DADEEA"/>
<path d="M194.71 444.32C194.71 444.32 195.27 430.37 182.11 419.97C182.11 419.97 200.49 422.01 201.99 444.32H194.71Z" fill="#48BE97"/>
<path d="M196.65 444.32C196.65 444.32 194.92 421.2 215.53 416.43C215.53 416.43 203.68 424.77 202.5 444.32H196.65Z" fill="#36A871"/>
<path d="M196.65 444.32C196.65 444.32 201.33 423.71 220.85 424.44C220.85 424.44 206.08 432.73 205.22 444.32H196.65Z" fill="#48BE97"/>
<path d="M295.66 444.32C295.66 444.32 293.04 435.6 304.69 430.87C304.69 430.87 291.52 428.33 290.45 444.32H295.66V444.32Z" fill="#48BE97"/>
<path d="M294.27 444.32C294.27 444.32 291.84 434.59 296.88 422.48C296.88 422.48 287.55 427.06 290.08 444.32H294.27Z" fill="#36A871"/>
<path d="M294.27 444.32C294.27 444.32 293.52 433.18 279.54 433.71C279.54 433.71 289.55 436.95 288.13 444.32H294.27V444.32Z" fill="#48BE97"/>
</g>
<defs>
<clipPath id="clip0_10_303">
<rect width="500" height="500" fill="white" transform="translate(0.950195)"/>
</clipPath>
</defs>
</svg>
