<svg xmlns="http://www.w3.org/2000/svg" width="473.798" height="439.788" viewBox="0 0 473.798 439.788">
  <g id="Group_25858" data-name="Group 25858" transform="translate(-217.18 -1673.959)">
    <g id="Group_25843" data-name="Group 25843" transform="translate(217.18 1822.245)">
      <g id="Group_25839" data-name="Group 25839" transform="translate(0 10.727)" style="mix-blend-mode: multiply;isolation: isolate">
        <path id="Path_70588" data-name="Path 70588" d="M229.416,1979.529v-235.74a14.224,14.224,0,0,1,14.239-14.239H618.975a14.258,14.258,0,0,1,14.259,14.239v235.74Z" transform="translate(-194.416 -1729.55)" fill="#e6e7e8"/>
        <path id="Path_70589" data-name="Path 70589" d="M690.978,1824a23.761,23.761,0,0,1-23.741,23.741H240.941A23.761,23.761,0,0,1,217.18,1824v-7.054h473.8Z" transform="translate(-217.18 -1566.964)" fill="#e6e7e8"/>
        <path id="Path_70590" data-name="Path 70590" d="M383.738,1819.16a8.8,8.8,0,0,1-8.827,8.813H291.089a8.838,8.838,0,0,1-8.827-8.813v-2.217H383.738Z" transform="translate(-96.101 -1566.964)" fill="#e6e7e8"/>
        <rect id="Rectangle_5640" data-name="Rectangle 5640" width="368.77" height="214.956" transform="translate(52.514 17.51)" fill="#e6e7e8"/>
      </g>
      <g id="Group_25842" data-name="Group 25842">
        <g id="Group_25841" data-name="Group 25841">
          <path id="Path_70591" data-name="Path 70591" d="M229.416,1975.779v-235.74a14.224,14.224,0,0,1,14.239-14.239H618.975a14.258,14.258,0,0,1,14.259,14.239v235.74Z" transform="translate(-194.416 -1725.8)" fill="#14475f" opacity="0.8"/>
          <path id="Path_70592" data-name="Path 70592" d="M690.978,1820.247a23.761,23.761,0,0,1-23.741,23.741H240.941a23.761,23.761,0,0,1-23.761-23.741v-7.054h473.8Z" transform="translate(-217.18 -1563.214)" fill="#14475f"/>
          <path id="Path_70593" data-name="Path 70593" d="M383.738,1815.41a8.8,8.8,0,0,1-8.827,8.813H291.089a8.839,8.839,0,0,1-8.827-8.813v-2.217H383.738Z" transform="translate(-96.101 -1563.214)" fill="#042438"/>
          <g id="Group_25840" data-name="Group 25840" transform="translate(52.514 17.51)">
            <rect id="Rectangle_5641" data-name="Rectangle 5641" width="368.77" height="214.956" fill="#0fc2bf"/>
          </g>
        </g>
      </g>
    </g>
    <g id="Group_25857" data-name="Group 25857" transform="translate(314.331 1673.959)">
      <g id="Group_25850" data-name="Group 25850">
        <g id="Group_25844" data-name="Group 25844" transform="translate(0 9.276)" style="mix-blend-mode: multiply;isolation: isolate">
          <path id="Path_70594" data-name="Path 70594" d="M300.029,1677.2H300v340.131l.029.014,32.792-14.059,1.711-.73,47.457-20.34c21.75-30.332,36.553-63.8,45.692-97.895l.023-.086c15.235-56.708,14.9-115.217,5.24-164.193C369.871,1731.059,341.07,1714.239,300.029,1677.2Z" transform="translate(-160.252 -1677.2)" fill="#e6e7e8"/>
          <path id="Path_70595" data-name="Path 70595" d="M257.946,1720.048c-15.466,78.441-7,181.346,50.955,262.168l81.965,35.126.023-.006V1677.207l-.023-.005C349.819,1714.241,321.012,1731.063,257.946,1720.048Z" transform="translate(-251.144 -1677.202)" fill="#e6e7e8"/>
          <path id="Path_70596" data-name="Path 70596" d="M260.6,1737.567c7.417,42.992,22.572,81.5,45.151,114.579l67.537,28.936.017-.005.026.005.006,0V1737.567Z" transform="translate(-233.557 -1564.899)" fill="#e6e7e8"/>
          <path id="Path_70597" data-name="Path 70597" d="M376.616,1687.395l-.031.023c-26.141,21.716-55.212,39.013-98.309,39.013-5.28,0-10.718-.24-16.4-.73a351.092,351.092,0,0,0,1.43,102.04c.094.509.183,1.015.272,1.519.094.552.2,1.1.3,1.648H376.616Z" transform="translate(-236.839 -1658.239)" fill="#e6e7e8"/>
          <path id="Path_70598" data-name="Path 70598" d="M300.01,1881.079l67.526-28.933c22.586-33.078,37.734-71.584,45.152-114.579H300.01Z" transform="translate(-160.233 -1564.899)" fill="#e6e7e8"/>
          <path id="Path_70599" data-name="Path 70599" d="M414.684,1725.77c-5.669.489-11.11.73-16.39.73-40.392,0-67.586-13.613-98.284-39.036v143.512H412.687c.094-.549.2-1.09.295-1.642.089-.509.186-1.016.275-1.525A351.193,351.193,0,0,0,414.684,1725.77Z" transform="translate(-160.233 -1658.11)" fill="#e6e7e8"/>
        </g>
        <g id="Group_25849" data-name="Group 25849">
          <g id="Group_25848" data-name="Group 25848">
            <g id="Group_25847" data-name="Group 25847">
              <g id="Group_25845" data-name="Group 25845">
                <path id="Path_70600" data-name="Path 70600" d="M300.029,1673.96H300v340.131l.029.014,32.792-14.059,1.711-.729,47.457-20.34c21.75-30.332,36.553-63.8,45.692-97.894l.023-.089c15.235-56.7,14.9-115.214,5.24-164.19C369.871,1727.815,341.07,1711,300.029,1673.96Z" transform="translate(-160.252 -1673.957)" fill="#14475f"/>
                <path id="Path_70601" data-name="Path 70601" d="M257.946,1716.8c-15.466,78.441-7,181.347,50.955,262.168l81.965,35.125.023-.006V1673.965l-.023-.006C349.819,1711,321.012,1727.82,257.946,1716.8Z" transform="translate(-251.144 -1673.959)" fill="#14475f"/>
              </g>
              <g id="Group_25846" data-name="Group 25846" transform="translate(21.994 29.156)">
                <path id="Path_70602" data-name="Path 70602" d="M260.6,1734.324c7.417,42.989,22.572,81.5,45.151,114.579l67.537,28.936.017-.005.026.005.006,0V1734.324Z" transform="translate(-255.551 -1590.812)" fill="#f1f1f2"/>
                <path id="Path_70603" data-name="Path 70603" d="M376.616,1684.152l-.031.023c-26.141,21.716-55.212,39.013-98.309,39.013-5.28,0-10.718-.24-16.4-.729a351.092,351.092,0,0,0,1.43,102.04c.094.506.183,1.015.272,1.519.094.552.2,1.1.3,1.647H376.616Z" transform="translate(-258.833 -1684.152)" fill="#fff"/>
                <path id="Path_70604" data-name="Path 70604" d="M300.01,1877.836l67.526-28.933c22.586-33.078,37.734-71.585,45.152-114.579H300.01Z" transform="translate(-182.227 -1590.812)" fill="#fff"/>
                <path id="Path_70605" data-name="Path 70605" d="M414.684,1722.528c-5.669.489-11.11.729-16.39.729-40.392,0-67.586-13.613-98.284-39.036v143.512H412.687c.094-.549.2-1.09.295-1.642.089-.509.186-1.018.275-1.524A351.191,351.191,0,0,0,414.684,1722.528Z" transform="translate(-182.227 -1684.024)" fill="#f1f1f2"/>
              </g>
            </g>
          </g>
        </g>
      </g>
      <g id="Group_25856" data-name="Group 25856" transform="translate(83.112 92.634)">
        <g id="Group_25851" data-name="Group 25851" transform="translate(0 11.702)" style="mix-blend-mode: multiply;isolation: isolate">
          <path id="Path_70606" data-name="Path 70606" d="M383.671,1734.782H289.992a9.789,9.789,0,0,0-9.788,9.791v71.842a9.187,9.187,0,0,0,9.185,9.188h94.885a9.187,9.187,0,0,0,9.188-9.187v-71.842A9.789,9.789,0,0,0,383.671,1734.782Z" transform="translate(-280.193 -1665.14)" fill="#e6e7e8"/>
          <path id="Path_70607" data-name="Path 70607" d="M383.7,1734.782H289.967a9.778,9.778,0,0,0-9.765,9.788,9.177,9.177,0,0,0,9.165,9.188H384.3a9.177,9.177,0,0,0,9.165-9.188A9.776,9.776,0,0,0,383.7,1734.782Z" transform="translate(-280.196 -1665.14)" fill="#e6e7e8"/>
          <path id="Path_70608" data-name="Path 70608" d="M383.7,1734.782H289.965a9.778,9.778,0,0,0-9.765,9.788,9.175,9.175,0,0,0,9.165,9.188H384.3a9.177,9.177,0,0,0,9.165-9.188A9.778,9.778,0,0,0,383.7,1734.782Z" transform="translate(-280.2 -1665.14)" fill="#e6e7e8"/>
          <path id="Path_70609" data-name="Path 70609" d="M388.99,1759.8a11.372,11.372,0,0,1-5.283,1.264H289.968a10.4,10.4,0,0,1-8.355-3.81,6.792,6.792,0,0,1-1.413-4.1v21.47a6.248,6.248,0,0,0,.117,1.2c.638,3.166,3.764,5.667,7.7,6.136a10.477,10.477,0,0,0,1.344.08H384.3c.252,0,.5-.008.755-.023,4.705-.315,8.407-3.507,8.407-7.4v-21.47a4.509,4.509,0,0,1-.023.48A7.745,7.745,0,0,1,388.99,1759.8Z" transform="translate(-280.2 -1630.957)" fill="#e6e7e8"/>
          <path id="Path_70610" data-name="Path 70610" d="M325.266,1763.417v-4.236l-8.407,11.633C321.564,1770.5,325.266,1767.307,325.266,1763.417Z" transform="translate(-211.999 -1619.748)" fill="#e6e7e8"/>
          <path id="Path_70611" data-name="Path 70611" d="M323.535,1756.742l-14.891,20.606-.278.378h12.142l16.081-22.248a11.372,11.372,0,0,1-5.283,1.265Z" transform="translate(-227.8 -1626.637)" fill="#e6e7e8"/>
          <path id="Path_70612" data-name="Path 70612" d="M306,1768.431l-6.122,8.472h12.134l3.2-4.424,11.97-16.559H315.049Z" transform="translate(-243.583 -1625.814)" fill="#e6e7e8"/>
          <path id="Path_70613" data-name="Path 70613" d="M303.375,1760.329,291.4,1776.9h12.133l9.054-12.518,6.114-8.465H306.558Z" transform="translate(-259.367 -1625.814)" fill="#e6e7e8"/>
          <path id="Path_70614" data-name="Path 70614" d="M292.9,1756.281l.26-.361h-1.085Z" transform="translate(-258.104 -1625.814)" fill="#e6e7e8"/>
          <path id="Path_70615" data-name="Path 70615" d="M298.039,1755.92l-15.106,20.9a10.477,10.477,0,0,0,1.344.08h10.729l14.906-20.62-.824-.363Z" transform="translate(-275.116 -1625.814)" fill="#e6e7e8"/>
          <path id="Path_70616" data-name="Path 70616" d="M281.613,1754.588l-1.413,1.956v15.418a6.249,6.249,0,0,0,.117,1.2l10.672-14.768h-1.021A10.4,10.4,0,0,1,281.613,1754.588Z" transform="translate(-280.2 -1628.293)" fill="#e6e7e8"/>
          <path id="Path_70617" data-name="Path 70617" d="M286.324,1752.024v31.962h7.185V1751.61a31.876,31.876,0,0,1,31.839-31.839h.166v-6.75h-.189A39,39,0,0,0,286.324,1752.024Z" transform="translate(-268.807 -1705.626)" fill="#e6e7e8"/>
          <path id="Path_70618" data-name="Path 70618" d="M300.214,1713.02h-.189v6.75h.169a31.878,31.878,0,0,1,31.839,31.839v32.377h7.185v-31.962A39,39,0,0,0,300.214,1713.02Z" transform="translate(-243.317 -1705.626)" fill="#e6e7e8"/>
          <path id="Path_70619" data-name="Path 70619" d="M332.1,1723.7a45.166,45.166,0,0,0-32.028-13.267h-.043v7.394h.189a39,39,0,0,1,39,39V1788.8h6.141v-33.066A45.178,45.178,0,0,0,332.1,1723.7Z" transform="translate(-243.317 -1710.435)" fill="#e6e7e8"/>
          <path id="Path_70620" data-name="Path 70620" d="M297.468,1723.727a45.217,45.217,0,0,0-13.292,32.082V1788.8h6.144v-31.962a39,39,0,0,1,39-39h.189v-7.394a45.227,45.227,0,0,0-32.042,13.292Z" transform="translate(-272.803 -1710.435)" fill="#e6e7e8"/>
          <path id="Path_70621" data-name="Path 70621" d="M304.605,1743.016a6.691,6.691,0,0,0-3.164,12.586v11.733h6.33V1755.6a6.691,6.691,0,0,0-3.166-12.586Z" transform="translate(-247.243 -1649.821)" fill="#e6e7e8"/>
          <path id="Path_70622" data-name="Path 70622" d="M305.077,1743.039c-.155-.012-.312-.023-.472-.023a6.691,6.691,0,0,0-3.164,12.586v11.733h.944V1755.6a6.686,6.686,0,0,1,2.692-12.563Z" transform="translate(-247.243 -1649.821)" fill="#e6e7e8"/>
        </g>
        <g id="Group_25855" data-name="Group 25855">
          <g id="Group_25854" data-name="Group 25854">
            <path id="Path_70623" data-name="Path 70623" d="M383.671,1730.691H289.992a9.789,9.789,0,0,0-9.788,9.791v71.842a9.187,9.187,0,0,0,9.185,9.188h94.885a9.188,9.188,0,0,0,9.188-9.188v-71.842A9.789,9.789,0,0,0,383.671,1730.691Z" transform="translate(-280.193 -1661.048)" fill="#14475f"/>
            <path id="Path_70624" data-name="Path 70624" d="M383.7,1730.691H289.967a9.778,9.778,0,0,0-9.765,9.788,9.175,9.175,0,0,0,9.165,9.188H384.3a9.175,9.175,0,0,0,9.165-9.187A9.776,9.776,0,0,0,383.7,1730.691Z" transform="translate(-280.196 -1661.048)" fill="#0d2038"/>
            <path id="Path_70625" data-name="Path 70625" d="M383.7,1730.691H289.965a9.778,9.778,0,0,0-9.765,9.788,9.173,9.173,0,0,0,9.165,9.188H384.3a9.175,9.175,0,0,0,9.165-9.187A9.778,9.778,0,0,0,383.7,1730.691Z" transform="translate(-280.2 -1661.048)" fill="#008f8d"/>
            <g id="Group_25852" data-name="Group 25852" transform="translate(0 122.199)">
              <path id="Path_70626" data-name="Path 70626" d="M388.99,1755.707a11.378,11.378,0,0,1-5.283,1.264H289.968a10.4,10.4,0,0,1-8.355-3.81,6.792,6.792,0,0,1-1.413-4.1v21.473a6.239,6.239,0,0,0,.117,1.2c.638,3.167,3.764,5.667,7.7,6.138a10.939,10.939,0,0,0,1.344.078H384.3c.252,0,.5-.009.755-.023,4.705-.314,8.407-3.507,8.407-7.394v-21.473a4.524,4.524,0,0,1-.023.481A7.745,7.745,0,0,1,388.99,1755.707Z" transform="translate(-280.2 -1749.065)" fill="#008f8d"/>
              <path id="Path_70627" data-name="Path 70627" d="M325.266,1759.327v-4.236l-8.407,11.63C321.564,1766.407,325.266,1763.215,325.266,1759.327Z" transform="translate(-211.999 -1737.854)" fill="#f1c40f"/>
              <path id="Path_70628" data-name="Path 70628" d="M323.535,1752.651l-14.891,20.607-.278.378h12.142l16.081-22.248a11.378,11.378,0,0,1-5.283,1.264Z" transform="translate(-227.8 -1744.745)" fill="#f1c40f"/>
              <path id="Path_70629" data-name="Path 70629" d="M306,1764.34l-6.122,8.472h12.134l3.2-4.424,11.97-16.559H315.049Z" transform="translate(-243.583 -1743.922)" fill="#f1c40f"/>
              <path id="Path_70630" data-name="Path 70630" d="M303.375,1756.238,291.4,1772.813h12.133l9.054-12.519,6.114-8.465H306.558Z" transform="translate(-259.367 -1743.922)" fill="#f1c40f"/>
              <path id="Path_70631" data-name="Path 70631" d="M292.9,1752.19l.26-.361h-1.085Z" transform="translate(-258.104 -1743.922)" fill="#f1c40f"/>
              <path id="Path_70632" data-name="Path 70632" d="M298.039,1751.829l-15.106,20.906a10.939,10.939,0,0,0,1.344.078h10.729l14.906-20.621-.824-.363Z" transform="translate(-275.116 -1743.923)" fill="#f1c40f"/>
              <path id="Path_70633" data-name="Path 70633" d="M281.613,1750.5l-1.413,1.957v15.421a6.239,6.239,0,0,0,.117,1.2l10.672-14.768h-1.021A10.4,10.4,0,0,1,281.613,1750.5Z" transform="translate(-280.2 -1746.401)" fill="#f1c40f"/>
            </g>
            <g id="Group_25853" data-name="Group 25853" transform="translate(11.373)">
              <path id="Path_70634" data-name="Path 70634" d="M286.324,1747.933V1779.9h7.185v-32.377a31.876,31.876,0,0,1,31.839-31.84h.166v-6.75h-.189A39,39,0,0,0,286.324,1747.933Z" transform="translate(-280.18 -1701.535)" fill="#808285"/>
              <path id="Path_70635" data-name="Path 70635" d="M300.214,1708.929h-.189v6.75h.169a31.878,31.878,0,0,1,31.839,31.84V1779.9h7.185v-31.962A39,39,0,0,0,300.214,1708.929Z" transform="translate(-254.69 -1701.535)" fill="#bfc1c4"/>
              <path id="Path_70636" data-name="Path 70636" d="M332.1,1719.61a45.166,45.166,0,0,0-32.028-13.267h-.043v7.394h.189a39,39,0,0,1,39,39V1784.7h6.141v-33.067A45.18,45.18,0,0,0,332.1,1719.61Z" transform="translate(-254.69 -1706.344)" fill="#808285"/>
              <path id="Path_70637" data-name="Path 70637" d="M297.468,1719.636a45.231,45.231,0,0,0-13.292,32.082V1784.7h6.144v-31.962a39,39,0,0,1,39-39h.189v-7.394a45.227,45.227,0,0,0-32.042,13.292Z" transform="translate(-284.176 -1706.344)" fill="#bfc1c4"/>
            </g>
            <path id="Path_70638" data-name="Path 70638" d="M304.605,1738.925a6.69,6.69,0,0,0-3.164,12.586v11.733h6.33V1751.51a6.69,6.69,0,0,0-3.166-12.586Z" transform="translate(-247.243 -1645.73)"/>
            <path id="Path_70639" data-name="Path 70639" d="M305.077,1738.948c-.155-.011-.312-.023-.472-.023a6.69,6.69,0,0,0-3.164,12.586v11.733h.944V1751.51a6.686,6.686,0,0,1,2.692-12.563Z" transform="translate(-247.243 -1645.73)" fill="#14475f"/>
          </g>
        </g>
      </g>
    </g>
  </g>
</svg>
