<svg width="448" height="325" viewBox="0 0 448 325" fill="none" xmlns="http://www.w3.org/2000/svg">
<g clip-path="url(#clip0_12_7045)">
<g style="mix-blend-mode:multiply">
<path d="M389.501 15.0845C388.656 13.5212 387.412 12.21 385.895 11.2844V11.2774C385.508 11.0457 385.107 10.8385 384.695 10.6565H384.689C383.463 10.1125 376.611 9.81642 375.183 9.81642H285.79C284.409 9.81447 283.042 10.0991 281.777 10.6524C281.364 10.8362 280.963 11.0471 280.577 11.2835C280.537 11.3023 280.498 11.324 280.461 11.3484C278.993 12.2741 277.789 13.5641 276.967 15.0925C276.925 15.1589 276.888 15.2285 276.857 15.3005C276.136 16.7065 275.76 18.2643 275.762 19.8445V232.101C275.762 232.631 275.804 233.161 275.887 233.684C275.915 233.854 275.949 234.026 275.98 234.195L276.046 234.474C276.112 234.76 276.194 235.047 276.287 235.322C276.321 235.409 276.348 235.503 276.387 235.59C276.426 235.677 276.453 235.777 276.493 235.865C276.542 236.001 276.598 236.134 276.662 236.264C276.723 236.395 276.783 236.523 276.855 236.655C276.955 236.855 277.063 237.054 277.179 237.247C277.529 237.829 277.933 238.376 278.388 238.88C278.54 239.045 278.695 239.204 278.86 239.358C278.985 239.473 279.108 239.589 279.239 239.699C279.491 239.917 279.756 240.12 280.025 240.313L280.036 240.332L280.459 240.606C280.88 240.87 281.318 241.104 281.772 241.306C283.037 241.861 284.404 242.145 285.785 242.142H380.673C382.512 242.142 384.316 241.635 385.886 240.677C387.354 239.781 388.567 238.524 389.41 237.025C390.252 235.525 390.694 233.835 390.695 232.115L390.701 19.8513C390.703 18.1915 390.291 16.5574 389.501 15.0974V15.0845Z" fill="#E6E7E8"/>
<path d="M389.501 12.8853C388.656 11.322 387.412 10.0107 385.895 9.08523V9.07937C385.508 8.84791 385.107 8.64072 384.695 8.45926H384.689C383.463 7.91426 376.611 7.61819 375.183 7.61819H285.79C284.409 7.61485 283.042 7.89886 281.777 8.45218C281.364 8.63649 280.963 8.84769 280.577 9.08426C280.537 9.10305 280.498 9.12504 280.461 9.15018C278.993 10.0757 277.789 11.3657 276.967 12.8943C276.925 12.9603 276.888 13.0296 276.857 13.1013C276.136 14.5074 275.76 16.0651 275.762 17.6453V229.903C275.762 230.434 275.804 230.963 275.887 231.487C275.915 231.656 275.949 231.826 275.98 231.997C276.003 232.09 276.024 232.183 276.046 232.277C276.112 232.564 276.194 232.846 276.29 233.123C276.322 233.21 276.349 233.305 276.39 233.392C276.431 233.479 276.456 233.579 276.496 233.668C276.545 233.805 276.601 233.938 276.665 234.068C276.726 234.199 276.786 234.326 276.858 234.457C276.958 234.657 277.066 234.857 277.182 235.05C277.531 235.632 277.936 236.179 278.391 236.683C278.546 236.849 278.698 237.007 278.863 237.162C278.99 237.276 279.111 237.393 279.242 237.503C279.494 237.721 279.759 237.924 280.028 238.117L280.039 238.134L280.462 238.409C280.883 238.673 281.321 238.907 281.775 239.109C283.04 239.663 284.407 239.948 285.788 239.945H380.676C382.059 239.949 383.427 239.663 384.693 239.105C385.107 238.925 385.508 238.715 385.893 238.478C387.361 237.584 388.575 236.327 389.417 234.828C390.259 233.329 390.702 231.639 390.702 229.919L390.701 17.6524C390.703 15.9925 390.291 14.3582 389.501 12.8982V12.8853Z" fill="#E6E7E8"/>
<path d="M389.501 12.3362C388.656 10.7732 387.412 9.46198 385.895 8.53615C385.509 8.30394 385.108 8.09698 384.695 7.91628H384.689C383.463 7.37228 376.611 7.07424 375.183 7.07424H285.79C284.409 7.07163 283.043 7.3556 281.777 7.90822C281.364 8.09288 280.963 8.30438 280.577 8.54128C280.537 8.56045 280.498 8.58242 280.461 8.6072C278.993 9.53245 277.79 10.8214 276.967 12.3491C276.924 12.4155 276.888 12.4857 276.857 12.5584C276.135 13.9643 275.76 15.5221 275.762 17.1023V229.359C275.762 229.889 275.804 230.418 275.887 230.941C275.915 231.113 275.949 231.282 275.98 231.451C276.003 231.551 276.024 231.639 276.046 231.733C276.112 232.019 276.193 232.301 276.29 232.578C276.322 232.667 276.349 232.76 276.39 232.849C276.431 232.938 276.456 233.036 276.496 233.122C276.545 233.259 276.601 233.392 276.665 233.522C276.726 233.654 276.786 233.78 276.858 233.912C276.958 234.112 277.066 234.312 277.182 234.507C277.531 235.089 277.936 235.634 278.391 236.137C278.546 236.302 278.698 236.463 278.863 236.616C278.99 236.732 279.111 236.846 279.242 236.957C279.494 237.177 279.759 237.381 280.028 237.573L280.039 237.59C280.183 237.683 280.325 237.776 280.462 237.863C280.882 238.128 281.321 238.362 281.775 238.563C283.041 239.116 284.407 239.4 285.788 239.397H380.676C382.516 239.4 384.321 238.892 385.889 237.93C387.358 237.035 388.571 235.778 389.414 234.278C390.256 232.779 390.698 231.088 390.698 229.368L390.704 17.1072C390.706 15.4473 390.294 13.8132 389.504 12.3533L389.501 12.3362Z" fill="#E6E7E8"/>
<path d="M386.458 24.7471H279.133V215.197H386.458V24.7471Z" fill="#E6E7E8"/>
<path opacity="0.14" d="M336.376 220.653H329.21C327.974 220.655 326.79 221.146 325.916 222.02C325.042 222.894 324.55 224.078 324.549 225.314V229.18C324.551 230.416 325.042 231.6 325.916 232.474C326.79 233.347 327.974 233.839 329.21 233.84H336.376C337.611 233.839 338.795 233.348 339.669 232.475C340.542 231.601 341.034 230.417 341.035 229.182V225.314C341.034 224.079 340.543 222.894 339.669 222.021C338.796 221.147 337.611 220.655 336.376 220.653ZM339.387 229.182C339.386 229.98 339.068 230.746 338.504 231.31C337.94 231.875 337.174 232.192 336.376 232.193H329.21C328.411 232.192 327.646 231.874 327.081 231.309C326.517 230.744 326.2 229.979 326.199 229.18V225.314C326.2 224.516 326.518 223.751 327.082 223.186C327.647 222.622 328.412 222.304 329.21 222.303H336.376C337.174 222.304 337.94 222.622 338.504 223.186C339.068 223.751 339.386 224.516 339.387 225.314V229.182Z" fill="#E6E7E8"/>
<path opacity="0.14" d="M345.899 14.0864H320.176C319.862 14.0864 319.608 14.3407 319.608 14.6544V17.1264C319.608 17.4401 319.862 17.6944 320.176 17.6944H345.899C346.213 17.6944 346.467 17.4401 346.467 17.1264V14.6544C346.467 14.3407 346.213 14.0864 345.899 14.0864Z" fill="#E6E7E8"/>
<path d="M368.018 14.4001C368.323 14.4001 368.621 14.4907 368.875 14.6602C369.128 14.8296 369.326 15.0703 369.443 15.3521C369.559 15.6338 369.59 15.9438 369.53 16.2429C369.471 16.542 369.324 16.8168 369.108 17.0325C368.893 17.2481 368.618 17.3951 368.319 17.4546C368.02 17.5141 367.71 17.4834 367.428 17.3667C367.146 17.25 366.905 17.0524 366.736 16.7988C366.566 16.5452 366.476 16.2471 366.476 15.9421C366.476 15.7395 366.515 15.5388 366.593 15.3516C366.67 15.1643 366.783 14.9941 366.927 14.8508C367.07 14.7076 367.24 14.5942 367.427 14.5168C367.615 14.4395 367.815 14.3998 368.018 14.4001ZM368.018 13.3311C367.502 13.3311 366.997 13.4843 366.567 13.7712C366.138 14.0581 365.803 14.4658 365.606 14.9429C365.408 15.42 365.356 15.9452 365.457 16.4517C365.558 16.9581 365.807 17.4232 366.172 17.7883C366.537 18.1535 367.002 18.4022 367.509 18.5029C368.015 18.6037 368.54 18.5521 369.017 18.3545C369.494 18.1569 369.902 17.8222 370.189 17.3928C370.476 16.9634 370.629 16.4585 370.629 15.9421C370.629 15.5992 370.562 15.2597 370.43 14.9429C370.299 14.626 370.107 14.3382 369.865 14.0957C369.622 13.8532 369.334 13.6607 369.017 13.5295C368.7 13.3984 368.361 13.3309 368.018 13.3311Z" fill="#E6E7E8"/>
<path opacity="0.28" d="M390.702 24.7114H384.69V215.175H390.702V24.7114Z" fill="#E6E7E8"/>
<path opacity="0.28" d="M389.499 24.7114H385.891V215.174H389.499V24.7114Z" fill="#E6E7E8"/>
<path opacity="0.14" d="M384.684 238.562C385.098 238.382 385.499 238.172 385.884 237.935C386.536 237.533 387.14 237.057 387.684 236.518L387.748 236.453C387.989 236.213 388.218 235.959 388.434 235.697L388.534 235.576C388.619 235.47 388.71 235.369 388.79 235.259C390.03 233.55 390.698 231.492 390.698 229.38V215.161H384.684V238.562Z" fill="#E6E7E8"/>
<path opacity="0.14" d="M389.507 12.3469L389.501 12.3359C388.658 10.7735 387.416 9.46257 385.901 8.53613H385.895C385.51 8.30253 385.109 8.09527 384.695 7.91602V24.7161H390.707V17.106C390.709 16.0214 390.532 14.944 390.184 13.917C390.004 13.3753 389.777 12.85 389.507 12.3469Z" fill="#E6E7E8"/>
<path opacity="0.14" d="M385.896 8.5332V24.7131H389.504V12.3333C388.658 10.7703 387.413 9.45914 385.896 8.5332Z" fill="#E6E7E8"/>
<path opacity="0.14" d="M385.888 237.937C387.406 237.012 388.651 235.7 389.496 234.137V215.164H385.888V237.937Z" fill="#E6E7E8"/>
<path opacity="0.28" d="M281.779 24.707H275.767V215.157H281.779V24.707Z" fill="#E6E7E8"/>
<path opacity="0.28" d="M280.578 24.707H276.97V215.156H280.578V24.707Z" fill="#E6E7E8"/>
<path opacity="0.14" d="M275.765 229.354C275.766 229.884 275.808 230.413 275.89 230.936C275.918 231.107 275.945 231.276 275.99 231.446C276.011 231.546 276.028 231.634 276.056 231.728C276.122 232.014 276.202 232.296 276.297 232.573C276.331 232.661 276.358 232.755 276.397 232.844C276.436 232.933 276.463 233.03 276.497 233.117C276.544 233.254 276.601 233.388 276.666 233.517C276.727 233.649 276.789 233.775 276.854 233.907C276.886 233.979 276.924 234.051 276.962 234.123L276.968 234.133L276.974 234.144C277.034 234.263 277.101 234.378 277.174 234.489V234.501C277.263 234.643 277.35 234.791 277.445 234.929C277.54 235.067 277.635 235.21 277.735 235.346C277.835 235.482 277.935 235.615 278.048 235.746C278.161 235.877 278.268 236.005 278.383 236.129C278.461 236.212 278.538 236.294 278.614 236.373C278.69 236.456 278.77 236.534 278.855 236.608C278.978 236.725 279.103 236.838 279.23 236.948C279.355 237.058 279.488 237.168 279.62 237.272C279.752 237.376 279.889 237.472 280.02 237.564L280.031 237.581C280.173 237.674 280.31 237.767 280.452 237.854C280.487 237.883 280.524 237.909 280.562 237.933C280.946 238.171 281.347 238.38 281.762 238.559V215.159H275.75L275.765 229.354Z" fill="#E6E7E8"/>
<path opacity="0.14" d="M280.468 8.60107C279.001 9.52696 277.797 10.816 276.974 12.3433C276.931 12.4108 276.892 12.4809 276.858 12.5532C276.147 13.9626 275.775 15.5186 275.772 17.0972V24.7083H281.786V7.9082C281.373 8.09325 280.972 8.30474 280.586 8.54126C280.545 8.5587 280.506 8.57856 280.468 8.60107Z" fill="#E6E7E8"/>
<path opacity="0.14" d="M276.972 12.3411V24.7073H280.58V8.53516C280.541 8.55461 280.504 8.57748 280.468 8.60327C279 9.52662 277.795 10.8142 276.972 12.3411Z" fill="#E6E7E8"/>
<path opacity="0.14" d="M276.967 234.129C277.812 235.694 279.057 237.007 280.575 237.934V215.156H276.967V234.129Z" fill="#E6E7E8"/>
<path d="M305.313 110.774L305.125 163.299C305.122 164.267 305.904 165.054 306.871 165.058L359.397 165.245C360.364 165.249 361.152 164.467 361.155 163.5L361.343 110.974C361.346 110.006 360.565 109.219 359.597 109.216L307.072 109.028C306.104 109.024 305.317 109.806 305.313 110.774Z" fill="#E6E7E8"/>
<path d="M343.853 121.418L343.834 126.595L349.011 126.614L349.029 121.437L343.853 121.418Z" fill="#E6E7E8"/>
<path d="M339.756 143.792L344.113 143.807L345.929 143.813L348.482 143.822L348.498 139.454L345.945 139.445L344.129 139.438L335.404 139.407L335.392 142.64V143.774L335.361 152.526L339.729 152.542L339.756 143.792Z" fill="#E6E7E8"/>
<path d="M352.876 152.591L357.225 152.606L357.236 149.45V148.238L357.267 139.486L352.899 139.47L352.883 143.846L348.534 143.83L348.518 148.199L352.867 148.214V148.221V149.434L352.856 152.544L348.444 152.528L348.459 148.228L344.091 148.212L344.06 156.942L339.71 156.926H338.945L335.345 156.913L335.329 161.281L338.929 161.294H339.694L348.413 161.325L348.423 158.525L348.429 156.953V156.891L352.861 156.907L352.876 152.591Z" fill="#E6E7E8"/>
<path d="M352.862 156.89L352.846 161.343L357.214 161.359L357.23 156.906L352.862 156.89Z" fill="#E6E7E8"/>
<path d="M317.551 121.323L317.533 126.5L322.71 126.519L322.728 121.342L317.551 121.323Z" fill="#E6E7E8"/>
<path d="M319.215 128.708L319.145 148.382L320.905 148.389L320.975 128.715L319.215 128.708Z" fill="#E6E7E8"/>
<path d="M321.98 123.076L321.974 124.836L341.855 124.908L341.861 123.148L321.98 123.076Z" fill="#E6E7E8"/>
<path d="M317.457 147.624L317.438 152.801L322.615 152.82L322.633 147.643L317.457 147.624Z" fill="#E6E7E8"/>
<path d="M335.503 113.008L335.474 121.208L339.823 121.224L339.837 117.372L353.076 117.42L353.029 130.659L339.79 130.611L339.804 126.811L335.455 126.796L335.426 134.941L357.363 135.019L357.442 113.082L335.503 113.008Z" fill="#E6E7E8"/>
<path d="M322.803 139.263L322.787 143.614L326.68 143.627L326.633 156.866L313.394 156.818L313.441 143.579L317.195 143.593L317.211 139.243L309.111 139.214L309.032 161.151L330.969 161.23L331.048 139.293L322.803 139.263Z" fill="#E6E7E8"/>
<path d="M326.726 130.564L322.833 130.55L322.817 134.899L331.059 134.928L331.088 126.783L326.739 126.767L326.726 130.564Z" fill="#E6E7E8"/>
<path d="M309.205 112.913L309.126 134.85L317.226 134.879L317.242 130.53L313.488 130.517L313.535 117.278L326.774 117.325L326.76 121.176L331.109 121.191L331.138 112.991L309.205 112.913Z" fill="#E6E7E8"/>
<path d="M315.46 136.358L315.45 139.257L317.21 139.264L317.22 136.365L315.46 136.358Z" fill="#E6E7E8"/>
<path d="M322.812 136.384L322.802 139.283L324.562 139.29L324.572 136.391L322.812 136.384Z" fill="#E6E7E8"/>
<path d="M331.105 119.432L331.099 121.192L333.998 121.203L334.004 119.443L331.105 119.432Z" fill="#E6E7E8"/>
<path d="M331.079 126.784L331.073 128.544L333.972 128.555L333.978 126.795L331.079 126.784Z" fill="#E6E7E8"/>
<path d="M366.75 165.352L366.739 167.991C366.736 168.755 366.429 169.486 365.887 170.025C365.345 170.563 364.612 170.864 363.848 170.862L361.208 170.853L356.389 175.637L363.832 175.664C365.87 175.671 367.827 174.868 369.273 173.432C370.719 171.996 371.535 170.045 371.542 168.007L371.57 160.567L366.75 165.352Z" fill="#E6E7E8"/>
<path d="M299.717 108.92L299.728 106.279C299.731 105.516 300.037 104.785 300.579 104.247C301.121 103.709 301.854 103.408 302.618 103.41L305.259 103.419L310.079 98.6334L302.638 98.6085C301.629 98.6045 300.629 98.7993 299.695 99.1819C298.761 99.5645 297.912 100.127 297.196 100.838C296.48 101.549 295.911 102.394 295.521 103.325C295.132 104.256 294.929 105.254 294.926 106.263L294.898 113.706L299.717 108.92Z" fill="#E6E7E8"/>
<path d="M361.45 103.621L364.088 103.631C364.852 103.634 365.584 103.94 366.122 104.482C366.66 105.024 366.961 105.757 366.959 106.521L366.951 109.16L371.736 113.979L371.761 106.538C371.765 105.529 371.57 104.53 371.187 103.596C370.804 102.663 370.241 101.814 369.531 101.098C368.82 100.382 367.975 99.813 367.044 99.4236C366.113 99.0342 365.115 98.8319 364.106 98.8284L356.663 98.8003L361.45 103.621Z" fill="#E6E7E8"/>
<path d="M305.018 170.652L302.38 170.641C301.616 170.638 300.884 170.331 300.346 169.789C299.808 169.246 299.507 168.512 299.509 167.748L299.517 165.11L294.734 160.29L294.706 167.731C294.699 169.769 295.502 171.726 296.938 173.173C298.373 174.619 300.325 175.436 302.363 175.443L309.804 175.471L305.018 170.652Z" fill="#E6E7E8"/>
<path d="M297.49 150.53L370.663 150.792" stroke="#E6E7E8" stroke-width="1.046" stroke-miterlimit="10"/>
<path d="M296.615 146.152L369.788 146.414" stroke="#E6E7E8" stroke-width="1.046" stroke-miterlimit="10"/>
<path d="M301.776 49.2483L295.438 45.5881L294.932 45.2983L294.432 45.5881L288.094 49.2483L287.588 49.5403V58.0251L288.094 58.3171L294.432 61.9763L294.932 62.2664L295.438 61.9763L301.776 58.3171L302.276 58.0251V49.5374L301.776 49.2483ZM301.897 50.3113V57.7983L301.418 58.0762L295.411 61.5442L294.932 61.8193L294.454 61.5442L288.449 58.0762L287.97 57.7983V49.7583L288.449 49.4832L294.454 46.0151L294.932 45.7402L295.411 46.0151L301.418 49.4832L301.897 49.7583V50.3113Z" fill="#E6E7E8"/>
<path d="M288.927 50.9351V57.0251L292.187 55.1431L288.927 50.9351Z" fill="#E6E7E8"/>
<path d="M300.94 57.0251V50.9351L297.68 55.1431L300.94 57.0251Z" fill="#E6E7E8"/>
<path d="M295.236 58.2932L295.125 58.4373V60.6013L300.749 57.3542L297.443 55.4453L295.236 58.2932Z" fill="#E6E7E8"/>
<path d="M292.737 55.2271L292.758 55.2539L294.933 58.061L293.581 56.3159L292.737 55.2271Z" fill="#E6E7E8"/>
<path d="M292.424 55.4473L289.118 57.3562L294.742 60.6033V58.4392L294.631 58.2952L292.424 55.4473Z" fill="#E6E7E8"/>
<path d="M295.411 46.0132L294.932 45.7383L294.454 46.0132L288.449 49.4822L287.97 49.7571V57.7971L288.449 58.0752L294.454 61.5432L294.932 61.8181L295.411 61.5432L301.418 58.0752L301.897 57.7971V49.7571L301.418 49.4822L295.411 46.0132ZM301.323 50.3132V57.4702L301.13 57.5801L295.125 61.0491L294.932 61.1592L294.741 61.0491L288.734 57.5801L288.543 57.4702V50.0933L288.734 49.9832L294.741 46.5151L294.932 46.4053L295.125 46.5151L301.13 49.9832L301.323 50.0933V50.3132Z" fill="#E6E7E8"/>
<path d="M297.345 54.949L300.945 50.3101L297.209 55.1311L297.345 54.949Z" fill="#E6E7E8"/>
<path d="M300.544 50.0833L294.933 46.8433L289.322 50.0833L294.933 52.9441L300.544 50.0833Z" fill="#E6E7E8"/>
<path d="M295.125 46.5112L294.932 46.4014L294.741 46.5112L288.734 49.9792L288.543 50.0894V57.4663L288.734 57.5762L294.741 61.0452L294.932 61.1553L295.125 61.0452L301.13 57.5762L301.323 57.4663V50.0894L301.13 49.9792L295.125 46.5112ZM294.932 46.8413L300.543 50.0813L294.932 52.9443L289.321 50.0813L294.932 46.8413ZM294.741 60.6033L289.117 57.3562L292.422 55.4473L294.631 58.2952L294.741 58.4392V60.6033ZM288.926 57.0242V50.9343L292.187 55.1414L288.926 57.0242ZM295.126 60.6033V58.4382L295.236 58.2942L297.445 55.4463L300.75 57.3552L295.126 60.6033ZM300.941 57.0242L297.68 55.1423L300.941 50.9353V57.0242ZM297.341 54.9492L297.201 55.1313L294.929 58.0623L292.754 55.2544L292.733 55.2263L288.924 50.3093L294.067 52.9314L294.929 53.3723L300.936 50.3103L297.341 54.9492Z" fill="#E6E7E8"/>
<path d="M294.071 52.9312L288.927 50.3101L294.071 52.9312Z" fill="#E6E7E8"/>
<path d="M294.071 52.9312L288.927 50.3101L294.071 52.9312Z" fill="#E6E7E8"/>
<path d="M294.933 53.3721V58.062L297.108 55.2561L297.208 55.1321L300.944 50.311L294.937 53.373L294.933 53.3721Z" fill="#E6E7E8"/>
<path d="M294.933 53.3721V58.062L297.108 55.2561L297.208 55.1321L300.944 50.311L294.937 53.373L294.933 53.3721Z" fill="#E6E7E8"/>
<path d="M293.581 56.3164L294.933 58.0615L293.581 56.3164Z" fill="#E6E7E8"/>
<path d="M293.581 56.3164L294.933 58.0615L293.581 56.3164Z" fill="#E6E7E8"/>
<path d="M294.933 58.0615L297.203 55.1313L297.103 55.2554L294.933 58.0615Z" fill="#E6E7E8"/>
<path d="M294.933 58.0615L297.203 55.1313L297.103 55.2554L294.933 58.0615Z" fill="#E6E7E8"/>
<path d="M288.927 50.3101L292.522 54.949L292.738 55.2271L293.582 56.3159L288.927 50.3101Z" fill="#E6E7E8"/>
<path d="M288.927 50.3101L292.522 54.949L292.738 55.2271L293.582 56.3159L288.927 50.3101Z" fill="#E6E7E8"/>
<path d="M294.933 53.3711L294.07 52.9312L294.933 53.3711Z" fill="#E6E7E8"/>
<path d="M294.933 53.3711L294.07 52.9312L294.933 53.3711Z" fill="#E6E7E8"/>
<path d="M288.927 50.3101L292.737 55.2271L292.521 54.949L288.927 50.3101Z" fill="#E6E7E8"/>
<path d="M288.927 50.3101L292.737 55.2271L292.521 54.949L288.927 50.3101Z" fill="#E6E7E8"/>
<path d="M293.581 56.3159L294.933 58.061V53.3711L294.07 52.9312L288.926 50.3101L293.581 56.3159Z" fill="#E6E7E8"/>
<path d="M293.581 56.3159L294.933 58.061V53.3711L294.07 52.9312L288.926 50.3101L293.581 56.3159Z" fill="#E6E7E8"/>
<path d="M293.581 56.3159L294.933 58.061V53.3711L294.07 52.9312L288.926 50.3101L293.581 56.3159Z" fill="#E6E7E8"/>
<path d="M311.426 54.4575H313.714V53.1575H311.426V52.1953H313.848V50.8374H309.753V56.8555H313.991V55.4873H311.426V54.4575Z" fill="#E6E7E8"/>
<path d="M319.282 53.7571C319.448 53.4642 319.543 53.137 319.56 52.801C319.577 52.4651 319.516 52.1297 319.382 51.8213C319.269 51.5902 319.099 51.3912 318.889 51.2432C318.667 51.0914 318.417 50.9844 318.154 50.9282C317.857 50.8613 317.553 50.8276 317.248 50.8281H314.832V56.8462H316.526V54.7073H316.916L318.03 56.8462H319.919L318.509 54.3882C318.825 54.2615 319.095 54.0412 319.282 53.7571ZM317.782 53.0881C317.741 53.1681 317.682 53.2368 317.608 53.2881C317.535 53.3383 317.453 53.375 317.367 53.3962C317.276 53.4176 317.183 53.4283 317.09 53.4282H316.527V52.1873H317.101C317.284 52.1829 317.465 52.2211 317.63 52.2991C317.707 52.345 317.768 52.4125 317.808 52.4929C317.847 52.5734 317.861 52.6635 317.85 52.7522C317.855 52.8673 317.832 52.9818 317.783 53.0862L317.782 53.0881Z" fill="#E6E7E8"/>
<path d="M321.965 50.8311H320.251V56.8491H321.965V50.8311Z" fill="#E6E7E8"/>
<path d="M327.305 51.4793C326.984 51.2422 326.619 51.0722 326.231 50.9793C325.817 50.8785 325.393 50.828 324.967 50.8291H322.731V56.8472H325.02C325.439 56.8489 325.855 56.7896 326.257 56.6712C326.643 56.5611 327.004 56.3756 327.318 56.1253C327.633 55.8721 327.885 55.5505 328.057 55.1851C328.252 54.7582 328.347 54.2925 328.334 53.8233C328.35 53.3316 328.254 52.8428 328.052 52.3943C327.879 52.0344 327.623 51.7208 327.305 51.4793ZM326.397 54.5733C326.318 54.7657 326.196 54.9369 326.039 55.0733C325.887 55.2032 325.708 55.2965 325.514 55.3462C325.305 55.4007 325.091 55.4279 324.875 55.4273H324.447V52.2273H324.907C325.12 52.2262 325.332 52.2532 325.538 52.3081C325.728 52.356 325.904 52.4461 326.055 52.5713C326.208 52.7008 326.327 52.8655 326.402 53.0513C326.494 53.2903 326.537 53.5453 326.529 53.8013C326.536 54.0649 326.491 54.3272 326.396 54.5733H326.397Z" fill="#E6E7E8"/>
<path d="M306.35 54.5022L305.018 50.8232H303.302L305.486 56.8523H307.203L309.422 50.8232H307.706L306.35 54.5022Z" fill="#E6E7E8"/>
<path d="M332.017 50.6743C331.392 50.6743 330.78 50.8599 330.26 51.2073C329.741 51.5546 329.335 52.0483 329.096 52.626C328.856 53.2036 328.794 53.8393 328.916 54.4526C329.037 55.066 329.338 55.6292 329.78 56.0715C330.222 56.5138 330.786 56.8153 331.399 56.9375C332.012 57.0597 332.648 56.9973 333.226 56.7583C333.803 56.5193 334.297 56.1142 334.645 55.5945C334.993 55.0748 335.179 54.4637 335.179 53.8384C335.179 53.4229 335.098 53.0116 334.939 52.6277C334.78 52.2438 334.548 51.8949 334.254 51.6011C333.96 51.3072 333.611 51.074 333.228 50.915C332.844 50.7561 332.432 50.6742 332.017 50.6743ZM332.011 55.3865C331.704 55.3869 331.404 55.2961 331.149 55.126C330.894 54.9558 330.695 54.7137 330.577 54.4304C330.46 54.1471 330.429 53.8353 330.489 53.5344C330.548 53.2336 330.696 52.9574 330.913 52.7405C331.13 52.5236 331.406 52.3759 331.707 52.3162C332.008 52.2564 332.32 52.2872 332.603 52.4048C332.886 52.5223 333.128 52.7214 333.299 52.9766C333.469 53.2318 333.559 53.5316 333.559 53.8384C333.559 54.042 333.519 54.2436 333.441 54.4316C333.363 54.6197 333.249 54.7905 333.105 54.9343C332.961 55.0781 332.79 55.1922 332.601 55.2698C332.413 55.3473 332.212 55.387 332.008 55.3865H332.011Z" fill="#E6E7E8"/>
<path d="M338.811 55.3861C338.4 55.3853 338.006 55.2213 337.716 54.9301C337.426 54.6388 337.263 54.2442 337.264 53.8332C337.265 53.4221 337.429 53.0281 337.72 52.7379C338.011 52.4478 338.406 52.2852 338.817 52.286C339.117 52.2862 339.412 52.3727 339.664 52.5353C339.917 52.6979 340.117 52.9297 340.242 53.203L341.798 52.7921C341.552 52.0889 341.065 51.4951 340.424 51.1156C339.783 50.7362 339.028 50.5953 338.293 50.7179C337.558 50.8405 336.89 51.2187 336.407 51.7858C335.924 52.3529 335.656 53.0725 335.652 53.8175C335.647 54.5626 335.906 55.2854 336.382 55.8583C336.858 56.4312 337.522 56.8175 338.255 56.9491C338.989 57.0807 339.745 56.9491 340.391 56.5775C341.036 56.2059 341.53 55.6183 341.785 54.9181L340.224 54.507C340.094 54.7706 339.892 54.9925 339.643 55.1479C339.393 55.3032 339.105 55.3858 338.811 55.3861Z" fill="#E6E7E8"/>
<path d="M345.047 51.0171H345.818V56.3381H348.37V56.9841H345.048L345.047 51.0171Z" fill="#E6E7E8"/>
<path d="M352.954 54.8058C352.979 55.0989 352.942 55.394 352.845 55.6718C352.748 55.9496 352.595 56.204 352.393 56.4186C352.192 56.6332 351.948 56.8031 351.677 56.9174C351.406 57.0317 351.114 57.0878 350.82 57.0819C350.537 57.0852 350.256 57.0295 349.996 56.9181C349.735 56.8068 349.501 56.6422 349.308 56.4352C349.114 56.2282 348.966 55.9832 348.873 55.7157C348.78 55.4483 348.743 55.1643 348.766 54.882C348.74 54.5895 348.776 54.2948 348.871 54.017C348.967 53.7393 349.12 53.4847 349.32 53.2699C349.52 53.0552 349.764 52.8851 350.034 52.7707C350.305 52.6563 350.596 52.6001 350.89 52.6059C351.174 52.6003 351.457 52.6544 351.719 52.7648C351.981 52.8752 352.217 53.0396 352.411 53.247C352.606 53.4544 352.755 53.7004 352.848 53.9689C352.942 54.2375 352.978 54.5224 352.954 54.8058ZM349.554 54.85C349.554 55.788 350.094 56.497 350.854 56.497C351.614 56.497 352.154 55.7969 352.154 54.8329C352.154 54.1059 351.792 53.186 350.871 53.186C349.95 53.186 349.554 54.035 349.554 54.85Z" fill="#E6E7E8"/>
<path d="M357.627 52.6981C357.608 53.0101 357.591 53.3551 357.591 53.8761V56.3642C357.635 56.7152 357.604 57.0717 357.498 57.4093C357.392 57.747 357.215 58.0579 356.979 58.3212C356.542 58.6802 355.988 58.8634 355.423 58.8351C354.924 58.8479 354.431 58.7252 353.996 58.4801L354.196 57.8871C354.576 58.1129 355.01 58.2297 355.452 58.2243C356.252 58.2243 356.833 57.8093 356.833 56.7243V56.2472H356.816C356.672 56.4766 356.47 56.6637 356.231 56.7895C355.991 56.9153 355.722 56.9753 355.452 56.9633C355.193 56.9521 354.939 56.8883 354.706 56.776C354.472 56.6637 354.264 56.505 354.093 56.3097C353.923 56.1145 353.794 55.8866 353.714 55.64C353.634 55.3934 353.605 55.1332 353.629 54.8752C353.599 54.5977 353.625 54.3169 353.707 54.05C353.789 53.783 353.924 53.5356 354.104 53.3227C354.285 53.1097 354.507 52.9358 354.757 52.8114C355.007 52.687 355.279 52.6149 355.558 52.5993C355.828 52.5829 356.098 52.6442 356.335 52.7758C356.571 52.9074 356.765 53.1039 356.894 53.3422H356.913L356.947 52.6962L357.627 52.6981ZM356.82 54.3903C356.825 54.2703 356.81 54.1502 356.776 54.0351C356.71 53.7977 356.568 53.5887 356.371 53.4403C356.175 53.2919 355.934 53.2125 355.688 53.2143C354.945 53.2143 354.413 53.8421 354.413 54.8341C354.413 55.6751 354.837 56.3742 355.679 56.3742C355.92 56.3725 356.155 56.2941 356.349 56.1503C356.543 56.0065 356.686 55.8046 356.757 55.5741C356.801 55.4395 356.823 55.2987 356.821 55.1571L356.82 54.3903Z" fill="#E6E7E8"/>
<path d="M358.847 56.9861C358.866 56.6941 358.883 56.2602 358.883 55.8792V50.7002H359.654V53.3911H359.671C359.819 53.1384 360.033 52.9313 360.291 52.7925C360.549 52.6537 360.84 52.5886 361.132 52.6042C362.195 52.6042 362.947 53.489 362.932 54.791C362.968 55.0697 362.945 55.3529 362.867 55.6226C362.788 55.8922 362.654 56.1425 362.473 56.3579C362.293 56.5733 362.07 56.7491 361.818 56.874C361.566 56.999 361.292 57.0706 361.011 57.0842C360.72 57.1007 360.43 57.0334 360.176 56.8904C359.922 56.7474 359.714 56.5345 359.577 56.2771H359.552L359.516 56.9861H358.847ZM359.654 55.269C359.656 55.3636 359.668 55.4577 359.688 55.55C359.752 55.8112 359.902 56.0434 360.114 56.209C360.326 56.3746 360.588 56.464 360.857 56.4631C361.672 56.4631 362.157 55.7982 362.157 54.8152C362.157 53.9572 361.714 53.2231 360.882 53.2231C360.606 53.2277 360.339 53.3241 360.124 53.4971C359.909 53.67 359.758 53.9097 359.694 54.1782C359.669 54.2832 359.655 54.3902 359.652 54.498L359.654 55.269Z" fill="#E6E7E8"/>
<path d="M367.798 54.8058C367.824 55.099 367.788 55.3943 367.692 55.6725C367.596 55.9507 367.442 56.2055 367.241 56.4203C367.04 56.6351 366.795 56.8051 366.524 56.9191C366.253 57.0331 365.96 57.0886 365.666 57.0819C365.383 57.0852 365.102 57.0295 364.842 56.9181C364.581 56.8068 364.347 56.6422 364.154 56.4352C363.96 56.2282 363.812 55.9832 363.719 55.7157C363.626 55.4483 363.589 55.1643 363.612 54.882C363.586 54.5895 363.622 54.2947 363.718 54.017C363.813 53.7393 363.966 53.4849 364.167 53.2702C364.367 53.0555 364.61 52.8854 364.881 52.7709C365.151 52.6565 365.443 52.6002 365.736 52.6059C366.02 52.6002 366.303 52.6544 366.565 52.7648C366.827 52.8752 367.062 53.0396 367.257 53.247C367.451 53.4544 367.6 53.7003 367.693 53.9689C367.786 54.2375 367.822 54.5225 367.798 54.8058ZM364.398 54.85C364.398 55.788 364.938 56.497 365.698 56.497C366.458 56.497 366.998 55.7969 366.998 54.8329C366.998 54.1059 366.636 53.1859 365.717 53.1859C364.798 53.1859 364.4 54.035 364.4 54.85H364.398Z" fill="#E6E7E8"/>
<path d="M372.655 54.8058C372.681 55.0992 372.644 55.3947 372.548 55.673C372.452 55.9513 372.298 56.2063 372.096 56.4211C371.895 56.6359 371.65 56.8057 371.379 56.9196C371.107 57.0335 370.814 57.0889 370.52 57.082C370.237 57.085 369.956 57.0289 369.696 56.9174C369.436 56.8059 369.202 56.6415 369.009 56.4345C368.816 56.2275 368.668 55.9826 368.575 55.7153C368.482 55.448 368.445 55.1642 368.468 54.882C368.442 54.5895 368.478 54.2948 368.573 54.017C368.669 53.7393 368.822 53.4847 369.022 53.27C369.222 53.0552 369.466 52.8851 369.736 52.7707C370.007 52.6563 370.298 52.6001 370.592 52.6059C370.876 52.6001 371.159 52.6542 371.421 52.7646C371.683 52.875 371.919 53.0391 372.113 53.2465C372.308 53.454 372.457 53.7001 372.55 53.9687C372.643 54.2373 372.679 54.5225 372.655 54.8058ZM369.255 54.85C369.255 55.788 369.795 56.497 370.555 56.497C371.315 56.497 371.855 55.7969 371.855 54.8329C371.855 54.1059 371.493 53.186 370.574 53.186C369.655 53.186 369.257 54.035 369.257 54.85H369.255Z" fill="#E6E7E8"/>
<path d="M374.407 54.6633H374.426C374.532 54.5133 374.682 54.3273 374.807 54.1763L376.065 52.6985H377.001L375.347 54.4604L377.232 56.9834H376.286L374.808 54.9294L374.408 55.3713V56.9824H373.639V50.6963H374.408L374.407 54.6633Z" fill="#E6E7E8"/>
<path d="M263.271 219.545C261.842 222.656 260.813 226.372 261.918 229.439C264.313 236.08 267.796 242.61 272.912 241.958C278.028 241.306 278.354 239.671 278.898 237.93C279.442 236.189 275.851 225.521 275.851 225.521V222.25C273.064 221.49 269.412 220.505 265.751 219.55C264.943 219.305 264.08 219.304 263.271 219.545Z" fill="#E6E7E8"/>
<path d="M275.741 104.484C275.741 104.484 273.782 104.921 269.865 106.009C265.948 107.097 254.191 109.056 254.191 113.194C254.191 117.315 255.921 128.465 273.069 127.999C274.037 127.699 274.949 127.425 275.741 127.199V104.484Z" fill="#E6E7E8"/>
<path d="M260.008 163.336C260.633 165.345 261.173 167.001 261.516 168.045C262.977 171.619 265.488 175.65 269.342 175.468C271.594 175.359 273.819 174.931 275.951 174.196C275.951 173.62 275.959 173.276 275.959 173.276C275.959 173.276 280.967 169.248 280.967 164.24C280.967 159.232 276.611 147.696 276.611 147.696C276.207 145.61 275.916 143.503 275.741 141.384V136.651C273.24 136.016 270.778 135.24 268.364 134.328C267.66 134.074 266.908 133.985 266.164 134.069C261.064 138.946 255.276 145.769 256.472 150.743C257.472 154.891 258.772 159.343 259.849 162.843L259.87 162.743C259.87 162.743 259.917 162.955 260.008 163.336Z" fill="#E6E7E8"/>
<path d="M267.47 180.042C263.752 181.142 260.321 183.044 257.418 185.613C257.32 187.099 257.443 188.59 257.782 190.039C259.741 197.658 263.768 212.677 267.141 213.114L267.041 213.247C269.834 214.054 273.441 213.322 275.852 212.619V212.57C277.709 211.145 279.123 209.224 279.932 207.028C280.742 204.832 280.912 202.451 280.424 200.162C278.681 192.217 276.068 187.208 275.96 185.468C275.92 184.816 275.909 182.94 275.911 180.848C273.243 179.735 270.301 179.454 267.47 180.042Z" fill="#E6E7E8"/>
<path d="M268.364 134.328C270.777 135.24 273.24 136.016 275.741 136.651V127.201C274.949 127.425 274.041 127.694 273.069 128.001C273.126 128.001 273.181 128.001 273.238 128.001C270.775 129.9 268.415 131.928 266.168 134.076C266.91 133.99 267.661 134.076 268.364 134.328Z" fill="#E6E7E8"/>
<path d="M269.342 175.47C265.488 175.652 262.977 171.62 261.516 168.046C261.77 168.812 261.916 169.246 261.916 169.246C261.916 169.246 257.774 178.199 257.416 185.61C260.319 183.041 263.75 181.139 267.468 180.039C270.298 179.449 273.24 179.728 275.908 180.839C275.908 178.366 275.936 175.592 275.948 174.19C273.817 174.926 271.593 175.357 269.342 175.47Z" fill="#E6E7E8"/>
<path d="M259.875 162.735L259.854 162.835C259.907 163.002 259.954 163.169 260.009 163.335C259.918 162.956 259.875 162.735 259.875 162.735Z" fill="#E6E7E8"/>
<path d="M267.04 213.246C265.573 215.213 264.311 217.324 263.271 219.546C264.08 219.303 264.942 219.303 265.751 219.546C269.412 220.501 273.065 221.486 275.851 222.246V212.613C273.439 213.32 269.833 214.052 267.04 213.246Z" fill="#E6E7E8"/>
<path d="M264.929 172.26C264.929 172.26 257.529 159.053 262.608 151.942C267.687 144.831 274.942 162.972 275.089 163.842C274.925 164.212 274.662 164.53 274.329 164.761C273.996 164.991 273.606 165.125 273.202 165.148C271.605 165.439 264.639 169.936 264.929 172.26Z" fill="#E6E7E8"/>
<path d="M265.076 188.95C265.076 188.95 260.432 191.561 261.593 196.641C262.754 201.721 265.076 208.832 265.076 208.832C265.076 208.832 264.93 210.139 267.107 207.962C268.771 206.261 270.808 204.969 273.057 204.189C274.219 203.899 276.25 204.335 275.09 199.835C273.93 195.335 270.736 186.773 265.076 188.95Z" fill="#E6E7E8"/>
<path d="M264.496 227.698C264.496 227.698 265.961 225.231 268.422 225.375C270.883 225.519 273.493 234.375 273.493 234.375C273.493 234.375 271.893 235.389 270.446 236.551C268.999 237.713 268.413 239.599 267.687 239.451C266.961 239.303 263.915 233.212 264.496 227.698Z" fill="#E6E7E8"/>
<path d="M264.929 107.316C264.929 107.316 253.77 109.057 254.496 115.733C254.496 115.733 251.303 113.266 255.438 109.783C259.573 106.3 266.811 106.662 266.811 106.662L264.929 107.316Z" fill="#E6E7E8"/>
<path d="M334.975 270.812C335.953 256.773 347.055 242.406 360.116 251.221C373.177 260.036 371.216 259.385 375.136 254.486C379.056 249.587 386.801 242.205 388.506 235.926V235.918C387.407 237.807 385.833 239.374 383.94 240.465C382.047 241.556 379.902 242.133 377.717 242.137H310.166C314.041 252.345 328.804 288.329 344.766 289.737H348.923C342.27 285.636 334.403 279.001 334.975 270.812Z" fill="#E6E7E8"/>
<path d="M397.43 107.533C398.141 114.071 401.498 130.068 408.858 123.777C407.528 118.397 406.978 112.853 407.225 107.315C407.225 107.315 407.225 101.264 402.041 99.2354C399.878 100.602 396.966 103.267 397.43 107.533Z" fill="#E6E7E8"/>
<path d="M431.872 266.222C430.71 263.639 429.82 260.942 429.215 258.175C428.931 256.803 428.664 255.428 428.415 254.05C424.968 235.46 423.824 216.169 421.897 197.434C420.724 186.008 418.935 174.534 418.397 163.052C418.079 156.312 418.283 149.409 416.434 142.852C414.562 136.222 410.543 130.56 408.868 123.776C401.507 130.067 398.151 114.069 397.44 107.532C396.976 103.265 399.888 100.604 402.052 99.2323C399.94 98.5011 397.668 98.3589 395.481 98.8212C383.725 100.782 387.426 131.693 388.514 139.312C389.366 144.79 389.873 150.315 390.033 155.856C390.033 156.476 390.213 163.25 390.213 172.256V229.642C390.215 231.847 389.628 234.012 388.513 235.914V235.923C386.813 242.202 379.063 249.585 375.143 254.483C371.223 259.381 373.184 260.035 360.123 251.218C347.062 242.401 335.96 256.77 334.982 270.81C334.41 278.998 342.277 285.631 348.934 289.736H390.034V289.774H447.503C447.503 289.774 437.233 278.456 431.872 266.222Z" fill="#E6E7E8"/>
<path d="M171.469 60.1821C191.02 60.1821 203.786 84.1463 192.081 124.923H171.469V60.1821Z" fill="#E6E7E8"/>
<path d="M171.445 60.1821C151.894 60.1821 139.127 84.1463 150.833 124.923H171.445V60.1821Z" fill="#E6E7E8"/>
<path d="M166.975 106.447H175.915C175.915 106.447 175.458 119.79 180.146 121.079C181.762 121.524 177.802 126.517 171.546 126.517C166.458 126.517 161.141 121.74 163.087 121.079C168.053 119.391 166.975 106.447 166.975 106.447Z" fill="#E6E7E8"/>
<path d="M154.444 86.1301C154.262 80.4621 158.577 75.4961 158.577 75.4961H185.571C187.203 78.8263 188.194 82.4337 188.493 86.1301C189.672 85.6411 193.171 84.5399 193.171 88.7539C193.171 93.8209 187.092 96.6921 187.092 96.6921C184.727 104.631 176.028 112.48 171.469 112.48C166.908 112.48 158.211 104.631 155.846 96.6921C155.846 96.6921 149.767 93.8199 149.767 88.7539C149.766 84.5399 153.264 85.6411 154.444 86.1301Z" fill="#E6E7E8"/>
<path d="M188.493 86.1294C188.493 86.1294 182.861 73.0613 177.149 77.6743C172.759 81.2213 163.07 85.4243 158.902 85.4563C167.025 82.6443 168.657 77.6743 168.657 77.6743C168.657 77.6743 159.816 84.0292 154.4 85.8862C154.4 79.1862 160.155 69.2192 171.4 69.2192C187.625 69.2192 188.493 80.2914 188.493 86.1294Z" fill="#E6E7E8"/>
<path opacity="0.2" d="M154.836 78.2253C154.788 78.2544 154.734 78.2727 154.678 78.2793C154.622 78.2859 154.566 78.2804 154.512 78.2632C154.343 78.1742 154.393 77.9242 154.468 77.7512C155.658 75.0629 157.398 72.6534 159.575 70.6775C161.753 68.7016 164.319 67.2032 167.11 66.2783C167.356 66.3423 167.284 66.7123 167.142 66.9243C166.042 68.5573 163.974 69.5943 163.542 71.5173C165.685 71.4173 167.567 70.1353 169.319 68.8953C169.836 69.0713 169.787 69.8233 169.579 70.3293C169.141 71.3243 168.562 72.2508 167.86 73.0803C164.714 76.9412 160.346 79.6152 155.477 80.6614C156.881 79.4079 158.107 77.9682 159.121 76.3823C157.692 76.9957 156.263 77.61 154.836 78.2253Z" fill="#E6E7E8"/>
<path d="M202.943 144.184C203.75 151.719 204.147 159.293 204.133 166.871C204.072 180.719 202.716 196.635 202.716 199.411C202.716 204.628 206.771 208.98 201.155 213.941L199.027 199.821C198.517 196.439 196.101 180.247 196.101 170.367C196.101 159.086 193.314 144.26 193.314 144.26L202.943 144.184Z" fill="#E6E7E8"/>
<path d="M188.883 123.468C188.883 123.468 204.301 130.547 204.301 152.952H193.201L188.883 123.468Z" fill="#E6E7E8"/>
<path d="M139.907 144.184C139.1 151.719 138.703 159.293 138.717 166.871C138.776 180.719 140.134 196.635 140.134 199.411C140.134 204.628 136.079 208.98 141.692 213.941L143.822 199.821C144.33 196.439 146.746 180.247 146.746 170.367C146.746 159.086 149.535 144.26 149.535 144.26L139.907 144.184Z" fill="#E6E7E8"/>
<path d="M154.226 123.243C154.226 123.243 138.55 130.543 138.55 152.952H149.65L154.226 123.243Z" fill="#E6E7E8"/>
<path d="M151.569 231.917L163.657 324.696H170.948V231.918L151.569 231.917Z" fill="#E6E7E8"/>
<path d="M190.327 231.917L178.239 324.695H170.948V231.917H190.327Z" fill="#E6E7E8"/>
<path d="M170.948 231.917V324.695" stroke="#E6E7E8" stroke-width="0.718" stroke-miterlimit="10"/>
<path d="M178.406 316.926H177.241C175.572 316.927 173.972 317.59 172.791 318.77C171.611 319.95 170.948 321.55 170.948 323.219V324.695H184.699V323.219C184.699 322.393 184.536 321.575 184.22 320.811C183.904 320.048 183.44 319.354 182.856 318.77C182.271 318.185 181.578 317.722 180.814 317.405C180.051 317.089 179.232 316.926 178.406 316.926Z" fill="#E6E7E8"/>
<path d="M164.655 316.926H163.49C161.821 316.927 160.221 317.59 159.04 318.77C157.86 319.95 157.197 321.55 157.197 323.219V324.695H170.948V323.219C170.948 322.393 170.785 321.575 170.469 320.811C170.153 320.047 169.69 319.354 169.105 318.769C168.521 318.185 167.827 317.721 167.063 317.405C166.3 317.089 165.481 316.926 164.655 316.926Z" fill="#E6E7E8"/>
<path d="M180.08 119.79C180.08 119.79 178.814 124.84 171.468 124.84C164.122 124.84 162.854 119.79 162.854 119.79L153.565 122.89C153.565 122.89 146.3 142.06 152.576 160.082C156.169 170.392 154.676 179.173 151.032 187.777C142.657 207.538 151.032 237.32 151.032 237.32H191.902C191.902 237.32 199.51 204.397 191.373 187.22C187.458 178.962 185.448 171.828 190.073 159.978C195.746 145.447 189.373 122.885 189.373 122.885L180.08 119.79Z" fill="#E6E7E8"/>
<path d="M37.246 96.4272H51.49C51.49 96.4272 50.762 110.044 58.23 111.362C60.803 111.815 54.497 116.911 44.53 116.911C36.422 116.911 27.95 112.034 31.05 111.362C38.963 109.64 37.246 96.4272 37.246 96.4272Z" fill="#E6E7E8"/>
<path d="M27.0971 77.5254C26.9131 71.0774 31.3151 65.4253 31.3151 65.4253H58.8661C60.5464 69.258 61.5557 73.3509 61.8501 77.5254C63.0501 76.9684 66.6251 75.7143 66.6251 80.5103C66.6251 86.2723 60.4191 89.5393 60.4191 89.5393C57.6791 100.352 51.9431 107.498 44.4741 107.498C37.0051 107.498 31.2651 99.5853 28.5291 89.5393C28.5291 89.5393 22.3291 86.2723 22.3291 80.5103C22.3241 75.7143 25.8941 76.9674 27.0971 77.5254Z" fill="#E6E7E8"/>
<path d="M44.5981 69.3504C50.8851 69.3504 53.7541 65.6194 57.7731 67.2134C61.8431 68.8294 61.1211 78.6134 59.3991 86.4624C61.4341 83.1794 70.8381 63.1393 61.6991 58.6353C55.0991 55.3833 50.0271 46.3884 37.5781 50.6694C31.3781 52.8014 26.4971 56.6693 24.1041 63.8513C21.6291 71.2823 27.7331 86.4624 27.7331 86.4624C27.7331 86.4624 26.105 75.5714 28.933 69.5144C31.366 64.2804 37.2611 69.3504 44.5981 69.3504Z" fill="#E6E7E8"/>
<path opacity="0.2" d="M41.993 62.3733C41.1197 62.1559 40.3403 61.661 39.772 60.9631C41.915 60.9631 43.84 59.6732 45.942 59.2522C47.9082 58.9054 49.9337 59.1984 51.721 60.0881C53.4955 60.9801 55.0759 62.2145 56.371 63.7202C54.3115 62.6414 51.9512 62.2793 49.663 62.6912C49.998 63.2372 49.309 63.8414 48.71 64.0684C44.638 65.6094 40.024 64.2962 36.166 62.2742C38.1033 62.4502 40.0509 62.4834 41.993 62.3733Z" fill="#E6E7E8"/>
<path d="M19.5281 202.223L29.2821 324.695H44.4721V202.223H19.5281Z" fill="#E6E7E8"/>
<path d="M69.4191 202.223L59.6651 324.695H44.4731V202.223H69.4191Z" fill="#E6E7E8"/>
<path d="M44.4731 202.223V324.695" stroke="#E6E7E8" stroke-width="0.733" stroke-miterlimit="10"/>
<path d="M55.0941 316.765H51.7211C49.7988 316.766 47.9554 317.53 46.5963 318.889C45.2371 320.248 44.4734 322.092 44.4731 324.014V324.695H62.3431V324.014C62.3433 323.062 62.1559 322.12 61.7916 321.24C61.4274 320.36 60.8934 319.561 60.2203 318.888C59.5471 318.215 58.7479 317.681 57.8684 317.317C56.9888 316.952 56.0461 316.765 55.0941 316.765Z" fill="#E6E7E8"/>
<path d="M37.227 316.765H33.852C31.9297 316.766 30.0863 317.53 28.7271 318.889C27.3679 320.248 26.6043 322.092 26.604 324.014V324.695H44.474V324.014C44.4741 323.062 44.2868 322.12 43.9227 321.24C43.5585 320.361 43.0248 319.562 42.3518 318.889C41.6789 318.216 40.8799 317.682 40.0006 317.317C39.1213 316.953 38.1788 316.765 37.227 316.765Z" fill="#E6E7E8"/>
<path d="M44.4681 117.213C49.6181 117.213 54.9681 111.164 54.9681 111.164L53.3881 109.178C53.3881 109.178 48.8311 112.392 44.4711 112.392C40.1111 112.392 36.2021 108.892 36.2021 108.892L33.5471 111.009C33.5471 111.009 38.9231 117.213 44.4681 117.213Z" fill="#E6E7E8"/>
<path d="M69.1591 200.619C69.1591 200.619 85.9971 183.503 88.0411 166.091C89.7221 151.775 89.6331 131.446 82.5521 123.122C78.5121 118.371 64.4711 113.601 58.5371 111.163C58.5371 121.494 68.7671 127.692 70.8801 136.944C72.8801 145.719 74.7341 150.844 75.2991 159.874C75.8541 168.751 69.1581 180.719 69.1581 180.719L69.1591 200.619Z" fill="#E6E7E8"/>
<path d="M44.4731 115.801V209.041H70.8801V115.982L57.6801 110.712L44.4731 115.801Z" fill="#E6E7E8"/>
<path d="M44.4731 112.391L51.5542 123.122L58.8062 110.301C58.8062 110.301 53.7542 105.831 53.7542 106.377C53.7542 106.923 51.5541 111.036 44.4731 112.391Z" fill="#E6E7E8"/>
<path d="M19.782 200.619C19.782 200.619 2.94403 183.503 0.898031 166.091C-0.782969 151.775 -0.69197 131.446 6.38703 123.122C10.429 118.371 24.471 113.601 30.402 111.163C30.402 121.494 20.172 127.692 18.061 136.944C16.056 145.719 14.207 150.844 13.642 159.874C13.085 168.751 19.783 180.719 19.783 180.719L19.782 200.619Z" fill="#E6E7E8"/>
<path d="M44.467 115.801V209.041H18.061V115.982L31.261 110.712L44.467 115.801Z" fill="#E6E7E8"/>
<path d="M44.466 112.391L37.387 123.122L30.387 110.301C30.387 110.301 35.181 105.831 35.181 106.377C35.181 106.923 37.387 111.036 44.466 112.391Z" fill="#E6E7E8"/>
<path d="M130.996 143.542H123.396L120.813 157.615H133.576L130.996 143.542Z" fill="#E6E7E8"/>
<path d="M127.179 104.228C142.103 104.228 151.145 116.287 151.145 142.428H127.179V104.228Z" fill="#E6E7E8"/>
<path d="M127.179 104.228C112.253 104.228 103.211 116.287 103.211 142.428H127.179V104.228Z" fill="#E6E7E8"/>
<path d="M141.645 126.276C141.797 121.458 138.132 117.24 138.132 117.24H115.195C113.807 120.07 112.964 123.135 112.711 126.276C111.711 125.861 108.736 124.925 108.736 128.508C108.736 132.808 113.903 135.252 113.903 135.252C115.913 141.996 123.303 146.517 127.178 146.517C131.053 146.517 138.443 141.996 140.453 135.252C140.453 135.252 145.62 132.812 145.62 128.508C145.62 124.925 142.647 125.861 141.645 126.276Z" fill="#E6E7E8"/>
<path d="M112.712 126.275C112.712 126.275 115.386 114.637 120.242 118.559C123.874 121.309 128.271 122.863 132.824 123.007C132.021 122.643 131.311 122.101 130.747 121.422C130.183 120.744 129.781 119.947 129.569 119.09C129.569 119.09 137.08 124.49 141.683 126.069C141.683 120.377 136.794 111.907 127.237 111.907C113.45 111.908 112.712 121.316 112.712 126.275Z" fill="#E6E7E8"/>
<path opacity="0.2" d="M141.311 119.559C141.352 119.584 141.398 119.6 141.446 119.606C141.494 119.611 141.542 119.606 141.588 119.591C141.73 119.517 141.688 119.305 141.624 119.157C140.613 116.873 139.134 114.825 137.284 113.146C135.434 111.467 133.253 110.194 130.882 109.408C130.674 109.461 130.734 109.777 130.854 109.957C131.788 111.346 133.547 112.227 133.916 113.857C132.095 113.776 130.496 112.684 129.008 111.631C128.568 111.779 128.608 112.417 128.788 112.847C129.158 113.694 129.649 114.481 130.247 115.185C132.92 118.467 136.632 120.74 140.771 121.628C139.576 120.563 138.533 119.339 137.671 117.99L141.311 119.559Z" fill="#E6E7E8"/>
<path d="M158.226 174.892C158.912 181.294 159.249 187.729 159.236 194.168C159.185 205.937 158.036 219.462 158.036 221.818C158.036 226.255 161.481 229.952 156.71 234.167L154.902 222.167C154.47 219.294 152.416 205.536 152.416 197.14C152.416 187.554 150.049 174.955 150.049 174.955L158.226 174.892Z" fill="#E6E7E8"/>
<path d="M147.797 152.357C147.797 152.357 159.38 157.14 159.38 176.181H147.797V152.357Z" fill="#E6E7E8"/>
<path d="M96.0581 174.892C95.3722 181.294 95.035 187.729 95.0481 194.168C95.0991 205.937 96.2481 219.462 96.2481 221.818C96.2481 226.255 92.8031 229.952 97.5741 234.167L99.3821 222.167C99.8161 219.294 101.868 205.536 101.868 197.14C101.868 187.554 104.238 174.955 104.238 174.955L96.0581 174.892Z" fill="#E6E7E8"/>
<path d="M106.487 152.357C106.487 152.357 94.9041 157.14 94.9041 176.181H106.487V152.357Z" fill="#E6E7E8"/>
<path d="M110.269 245.858L118.39 324.697H126.736V245.858H110.269Z" fill="#E6E7E8"/>
<path d="M143.204 245.858L135.083 324.697H126.737V245.858H143.204Z" fill="#E6E7E8"/>
<path d="M126.737 245.857V324.695" stroke="#E6E7E8" stroke-width="0.61" stroke-miterlimit="10"/>
<path d="M135.581 318.093H132.771C131.171 318.093 129.635 318.729 128.504 319.861C127.372 320.993 126.736 322.528 126.736 324.128V324.695H141.614V324.128C141.614 322.528 140.979 320.993 139.847 319.862C138.716 318.73 137.181 318.094 135.581 318.093Z" fill="#E6E7E8"/>
<path d="M120.699 318.093H117.889C116.288 318.093 114.753 318.729 113.622 319.861C112.49 320.993 111.854 322.528 111.854 324.128V324.695H126.732V324.128C126.732 322.528 126.096 320.993 124.965 319.862C123.834 318.73 122.299 318.094 120.699 318.093Z" fill="#E6E7E8"/>
<path d="M134.497 149.409C134.028 150.986 133.062 152.369 131.743 153.353C130.424 154.336 128.823 154.868 127.178 154.868C125.533 154.868 123.932 154.336 122.613 153.353C121.294 152.369 120.328 150.986 119.859 149.409L105.513 152.045V224.438H148.846V152.045L134.497 149.409Z" fill="#E6E7E8"/>
<path d="M150.262 193.356L158.901 250.669C158.901 250.669 120.921 255.33 94.571 250.669L103.928 193.354L150.262 193.356Z" fill="#E6E7E8"/>
<path d="M146.67 165.12H107.686V195.92H146.67V165.12Z" fill="#E6E7E8"/>
<path d="M121.883 211.87H107.738V224.161C107.738 225.717 108.356 227.209 109.456 228.309C110.556 229.409 112.048 230.027 113.604 230.027H116.016C116.787 230.027 117.55 229.876 118.261 229.581C118.973 229.287 119.62 228.855 120.165 228.31C120.71 227.765 121.142 227.118 121.437 226.406C121.732 225.695 121.884 224.932 121.884 224.161L121.883 211.87Z" fill="#E6E7E8"/>
<path d="M146.342 211.237H132.195V223.527C132.195 224.298 132.347 225.061 132.642 225.772C132.937 226.484 133.369 227.131 133.914 227.676C134.459 228.22 135.106 228.652 135.818 228.947C136.53 229.242 137.293 229.393 138.063 229.393H140.475C141.246 229.393 142.008 229.242 142.72 228.947C143.432 228.652 144.079 228.22 144.624 227.676C145.169 227.131 145.601 226.484 145.896 225.772C146.191 225.061 146.343 224.298 146.343 223.527L146.342 211.237Z" fill="#E6E7E8"/>
<path d="M145.047 149.989L139.016 148.889V173.673H145.047V149.989Z" fill="#E6E7E8"/>
<path d="M145.517 171.024H138.55V166.354H145.517V171.024ZM139.184 170.39H144.884V166.99H139.184V170.39Z" fill="#E6E7E8"/>
<path d="M115.34 148.952L109.309 150.052V173.74H115.34V148.952Z" fill="#E6E7E8"/>
<path d="M115.807 171.422H108.84V166.751H115.807V171.422ZM109.474 170.786H115.174V167.386H109.474V170.786Z" fill="#E6E7E8"/>
</g>
<path d="M389.501 8.01513C388.656 6.45198 387.412 5.14073 385.895 4.21508C385.509 3.98254 385.108 3.77466 384.695 3.59228H384.689C383.463 3.04828 376.611 2.75219 375.183 2.75219H285.79C283.95 2.73933 282.144 3.248 280.581 4.21923C280.54 4.2368 280.501 4.25886 280.465 4.28515C278.998 5.21062 277.794 6.49956 276.971 8.02709C276.929 8.09304 276.892 8.16229 276.861 8.23412C276.14 9.64078 275.764 11.1994 275.766 12.7803V225.037C275.766 225.567 275.808 226.096 275.891 226.619C275.919 226.788 275.953 226.96 275.984 227.129L276.05 227.41C276.116 227.696 276.197 227.978 276.291 228.255C276.325 228.344 276.352 228.437 276.391 228.524C276.43 228.611 276.457 228.713 276.497 228.799C276.546 228.935 276.603 229.069 276.666 229.199C276.727 229.33 276.787 229.457 276.859 229.588C276.959 229.788 277.067 229.988 277.183 230.181C277.532 230.763 277.937 231.31 278.392 231.814C278.544 231.979 278.699 232.137 278.864 232.292C278.989 232.407 279.112 232.523 279.243 232.633C279.495 232.853 279.76 233.057 280.029 233.249L280.04 233.264C280.184 233.357 280.326 233.453 280.463 233.539C280.883 233.804 281.322 234.038 281.776 234.239C283.042 234.792 284.408 235.076 285.789 235.073H380.677C382.059 235.077 383.427 234.79 384.692 234.233C385.106 234.051 385.506 233.842 385.892 233.606C387.36 232.711 388.574 231.454 389.416 229.954C390.258 228.455 390.701 226.765 390.701 225.045V12.7822C390.703 11.1233 390.291 9.49019 389.501 8.03124V8.01513Z" fill="#0C001F"/>
<path d="M389.501 5.82227C388.657 4.25883 387.412 2.94749 385.895 2.02222C385.509 1.78911 385.108 1.58097 384.695 1.39917H384.689C383.463 0.855171 376.611 0.55835 375.183 0.55835H285.79C283.95 0.545295 282.144 1.05433 280.581 2.02637C280.54 2.04323 280.501 2.065 280.465 2.09131C278.997 3.01593 277.793 4.30468 276.971 5.83228C276.929 5.89859 276.892 5.96815 276.861 6.04028C276.14 7.44689 275.764 9.0053 275.766 10.5862V222.843C275.766 223.373 275.808 223.902 275.891 224.425C275.919 224.594 275.953 224.766 275.984 224.935C276.007 225.029 276.028 225.122 276.05 225.217C276.116 225.503 276.198 225.785 276.294 226.062C276.326 226.151 276.353 226.244 276.394 226.331C276.435 226.418 276.46 226.519 276.5 226.606C276.549 226.743 276.606 226.876 276.669 227.006C276.73 227.137 276.79 227.264 276.862 227.396C276.962 227.596 277.07 227.796 277.186 227.989C277.535 228.571 277.94 229.118 278.395 229.622C278.55 229.787 278.702 229.946 278.867 230.1C278.994 230.215 279.115 230.331 279.246 230.441C279.498 230.661 279.763 230.865 280.032 231.057L280.043 231.071C280.187 231.165 280.329 231.26 280.466 231.346C280.886 231.611 281.325 231.845 281.779 232.046C283.045 232.599 284.411 232.883 285.792 232.88L380.68 232.885C382.063 232.888 383.431 232.602 384.697 232.044C385.111 231.862 385.511 231.652 385.897 231.417C387.366 230.523 388.579 229.265 389.422 227.766C390.264 226.267 390.706 224.576 390.706 222.856L390.712 10.5933C390.715 8.93399 390.302 7.30049 389.512 5.84131L389.501 5.82227Z" fill="#11313F"/>
<path d="M389.501 5.26921C388.656 3.70591 387.412 2.39462 385.895 1.46916V1.46208C385.509 1.23004 385.108 1.02308 384.695 0.842203H384.689C383.463 0.298203 376.611 0.00113891 375.183 0.00113891H285.79C283.95 -0.00946279 282.145 0.499388 280.581 1.46916C280.541 1.48767 280.502 1.50967 280.465 1.53507C278.997 2.45998 277.794 3.7489 276.971 5.27629C276.929 5.34342 276.892 5.41358 276.861 5.48625C276.14 6.89224 275.764 8.44998 275.766 10.0302V222.287C275.766 222.817 275.808 223.346 275.891 223.869C275.919 224.04 275.953 224.21 275.984 224.382C276.007 224.475 276.028 224.568 276.05 224.661C276.116 224.948 276.198 225.23 276.294 225.508C276.326 225.595 276.353 225.688 276.394 225.777C276.435 225.866 276.46 225.963 276.5 226.052C276.549 226.187 276.605 226.318 276.669 226.446C276.73 226.58 276.79 226.705 276.862 226.838C276.962 227.038 277.07 227.238 277.186 227.431C277.536 228.013 277.941 228.559 278.395 229.063C278.55 229.228 278.702 229.387 278.867 229.54C278.994 229.657 279.115 229.773 279.246 229.881C279.498 230.101 279.763 230.304 280.032 230.497L280.043 230.514L280.466 230.789C280.887 231.053 281.326 231.287 281.779 231.489C283.044 232.044 284.411 232.329 285.792 232.326H380.68C382.52 232.33 384.325 231.822 385.893 230.858C387.362 229.964 388.576 228.706 389.418 227.207C390.26 225.708 390.702 224.017 390.702 222.297L390.701 10.0312C390.703 8.37131 390.291 6.7373 389.501 5.27726V5.26921Z" fill="#14475F"/>
<path d="M386.459 17.6792H279.134V208.129H386.459V17.6792Z" fill="white"/>
<path opacity="0.14" d="M336.376 213.587H329.21C327.974 213.588 326.788 214.08 325.914 214.954C325.04 215.828 324.548 217.014 324.547 218.25V222.119C324.549 223.354 325.04 224.539 325.914 225.412C326.788 226.285 327.972 226.777 329.208 226.778H336.374C337.609 226.776 338.794 226.284 339.667 225.411C340.54 224.537 341.032 223.352 341.033 222.117V218.25C341.033 217.014 340.542 215.829 339.669 214.955C338.796 214.081 337.611 213.589 336.376 213.587ZM339.387 222.114C339.386 222.912 339.069 223.678 338.504 224.242C337.94 224.807 337.174 225.124 336.376 225.125H329.21C328.412 225.124 327.646 224.807 327.082 224.242C326.517 223.678 326.2 222.912 326.199 222.114V218.25C326.2 217.452 326.517 216.686 327.082 216.122C327.646 215.557 328.412 215.24 329.21 215.239H336.376C337.174 215.24 337.94 215.557 338.504 216.122C339.069 216.686 339.386 217.452 339.387 218.25V222.114Z" fill="#F8FDFF"/>
<path opacity="0.14" d="M345.899 7.01807H320.176C319.862 7.01807 319.608 7.27237 319.608 7.58607V10.0581C319.608 10.3718 319.862 10.6261 320.176 10.6261H345.899C346.213 10.6261 346.467 10.3718 346.467 10.0581V7.58607C346.467 7.27237 346.213 7.01807 345.899 7.01807Z" fill="#F8FDFF"/>
<g opacity="0.14">
<path d="M368.019 7.33716C368.421 7.3474 368.803 7.51428 369.084 7.80225C369.365 8.09022 369.522 8.4765 369.522 8.87866C369.522 9.28083 369.365 9.66711 369.084 9.95508C368.803 10.243 368.421 10.4099 368.019 10.4202C367.816 10.4204 367.616 10.3806 367.429 10.3032C367.241 10.2258 367.071 10.1122 366.928 9.96899C366.785 9.82575 366.671 9.65571 366.594 9.46851C366.516 9.2813 366.477 9.08075 366.477 8.87817C366.477 8.46929 366.64 8.07721 366.929 7.78809C367.218 7.49896 367.61 7.33645 368.019 7.33618M368.019 6.26709C367.503 6.26709 366.998 6.42038 366.568 6.70728C366.139 6.99418 365.804 7.40181 365.607 7.87891C365.409 8.356 365.357 8.88097 365.458 9.38745C365.559 9.89394 365.808 10.3592 366.173 10.7244C366.538 11.0895 367.003 11.3382 367.51 11.439C368.016 11.5397 368.541 11.4881 369.018 11.2905C369.495 11.0929 369.903 10.7582 370.19 10.3289C370.477 9.89948 370.63 9.39458 370.63 8.87817C370.63 8.18569 370.355 7.52164 369.865 7.03198C369.376 6.54232 368.711 6.26709 368.019 6.26709Z" fill="#F8FDFF"/>
</g>
<path opacity="0.28" d="M390.702 17.6431H384.69V208.107H390.702V17.6431Z" fill="#F8FDFF"/>
<path opacity="0.28" d="M389.5 17.6431H385.892V208.106H389.5V17.6431Z" fill="#F8FDFF"/>
<path opacity="0.14" d="M384.685 231.493C385.1 231.313 385.501 231.104 385.885 230.866C386.537 230.463 387.141 229.988 387.685 229.449L387.749 229.383C387.991 229.144 388.22 228.891 388.435 228.627C388.467 228.587 388.499 228.549 388.535 228.506C388.62 228.4 388.711 228.3 388.791 228.19C389.052 227.831 389.289 227.454 389.5 227.063C389.989 226.16 390.334 225.187 390.523 224.177C390.64 223.562 390.699 222.937 390.699 222.31V208.091H384.685V231.493Z" fill="#F8FDFF"/>
<path opacity="0.14" d="M389.507 5.27734L389.501 5.26733C388.658 3.70468 387.416 2.39342 385.901 1.46729L385.895 1.46021C385.509 1.22655 385.109 1.01923 384.695 0.839355V17.6394H390.707V10.0293C390.709 8.94542 390.533 7.8686 390.184 6.84229C390.003 6.30232 389.777 5.77881 389.507 5.27734Z" fill="#F8FDFF"/>
<path opacity="0.14" d="M385.897 1.46826V17.6462H389.505V5.27124C388.659 3.70716 387.414 2.39502 385.897 1.46826Z" fill="#F8FDFF"/>
<path opacity="0.14" d="M385.889 230.87C387.407 229.943 388.651 228.63 389.497 227.065V208.093H385.889V230.87Z" fill="#F8FDFF"/>
<path opacity="0.28" d="M281.78 17.6396H275.768V208.09H281.78V17.6396Z" fill="#F8FDFF"/>
<path opacity="0.28" d="M280.579 17.6396H276.971V208.089H280.579V17.6396Z" fill="#F8FDFF"/>
<path opacity="0.14" d="M275.765 222.286C275.766 222.816 275.808 223.344 275.89 223.867C275.918 224.039 275.945 224.208 275.99 224.38C276.011 224.473 276.028 224.566 276.056 224.659C276.122 224.945 276.204 225.231 276.297 225.506C276.331 225.593 276.358 225.686 276.397 225.775C276.436 225.864 276.463 225.961 276.497 226.05C276.544 226.185 276.601 226.317 276.666 226.444C276.727 226.578 276.789 226.703 276.854 226.836C276.886 226.906 276.924 226.978 276.962 227.05L276.968 227.06L276.974 227.071C277.035 227.19 277.101 227.306 277.174 227.418V227.429C277.263 227.571 277.35 227.721 277.445 227.857C277.54 227.993 277.635 228.139 277.735 228.276C277.835 228.413 277.935 228.545 278.048 228.676C278.161 228.807 278.268 228.934 278.383 229.061C278.461 229.144 278.538 229.226 278.614 229.302C278.689 229.385 278.77 229.464 278.855 229.537C278.978 229.654 279.103 229.77 279.23 229.878C279.357 229.986 279.488 230.098 279.62 230.202C279.752 230.306 279.889 230.402 280.02 230.494L280.031 230.511C280.173 230.604 280.31 230.697 280.452 230.786C280.487 230.815 280.523 230.84 280.562 230.862C280.945 231.101 281.347 231.311 281.762 231.488V208.088H275.75L275.765 222.286Z" fill="#F8FDFF"/>
<path opacity="0.14" d="M280.468 1.53345C279.001 2.45895 277.797 3.74748 276.974 5.27441C276.932 5.34244 276.893 5.41249 276.858 5.48438C276.147 6.8937 275.775 8.44971 275.772 10.0283V17.6384H281.786V0.838379C281.372 1.02201 280.971 1.23323 280.586 1.47046C280.545 1.48836 280.506 1.50941 280.468 1.53345Z" fill="#F8FDFF"/>
<path opacity="0.14" d="M276.972 5.27344V17.6394H280.58V1.46533C280.541 1.48544 280.504 1.50827 280.468 1.53345C278.999 2.45735 277.795 3.74583 276.972 5.27344Z" fill="#F8FDFF"/>
<path opacity="0.14" d="M276.968 227.061C277.812 228.627 279.057 229.941 280.576 230.866V208.09H276.968V227.061Z" fill="#F8FDFF"/>
<path d="M305.313 103.705L305.125 156.231C305.122 157.199 305.904 157.986 306.871 157.989L359.397 158.177C360.364 158.181 361.152 157.399 361.155 156.431L361.343 103.906C361.346 102.938 360.565 102.151 359.597 102.147L307.072 101.96C306.104 101.956 305.317 102.738 305.313 103.705Z" fill="white"/>
<path d="M343.853 114.35L343.834 119.527L349.011 119.546L349.029 114.369L343.853 114.35Z" fill="black"/>
<path d="M339.757 136.725L344.114 136.741L345.93 136.748L348.483 136.757L348.499 132.389L345.946 132.38L344.13 132.374L335.405 132.343L335.393 135.576V136.711L335.362 145.463L339.73 145.478L339.757 136.725Z" fill="black"/>
<path d="M352.876 145.524L357.225 145.54L357.236 142.384V141.172L357.267 132.42L352.904 132.407L352.888 136.783L348.539 136.767L348.523 141.135L352.872 141.151V141.159V142.371L352.861 145.48L348.449 145.464L348.464 141.164L344.096 141.148L344.065 149.877L339.715 149.862H338.95L335.35 149.849L335.334 154.217L338.934 154.23H339.699L348.418 154.261L348.428 151.461L348.434 149.888V149.827L352.866 149.843L352.876 145.524Z" fill="black"/>
<path d="M352.862 149.823L352.846 154.276L357.214 154.292L357.23 149.839L352.862 149.823Z" fill="black"/>
<path d="M317.551 114.256L317.533 119.433L322.71 119.452L322.728 114.275L317.551 114.256Z" fill="black"/>
<path d="M319.216 121.641L319.146 141.315L320.906 141.321L320.976 121.647L319.216 121.641Z" fill="black"/>
<path d="M321.98 116.008L321.974 117.768L341.855 117.839L341.861 116.079L321.98 116.008Z" fill="black"/>
<path d="M317.457 140.557L317.439 145.734L322.616 145.752L322.634 140.575L317.457 140.557Z" fill="black"/>
<path d="M335.503 105.94L335.474 114.14L339.823 114.156L339.837 110.304L353.076 110.351L353.029 123.59L339.786 123.54L339.8 119.74L335.451 119.725L335.422 127.87L357.359 127.949L357.438 106.012L335.503 105.94Z" fill="black"/>
<path d="M322.803 132.196L322.787 136.545L326.68 136.559L326.633 149.797L313.394 149.75L313.441 136.511L317.195 136.525L317.211 132.176L309.111 132.147L309.032 154.084L330.969 154.163L331.048 132.226L322.803 132.196Z" fill="black"/>
<path d="M326.726 123.496L322.833 123.482L322.817 127.831L331.059 127.86L331.088 119.715L326.739 119.699L326.726 123.496Z" fill="black"/>
<path d="M309.205 105.846L309.126 127.782L317.226 127.811L317.242 123.462L313.488 123.449L313.535 110.21L326.774 110.257L326.76 114.108L331.109 114.124L331.138 105.924L309.205 105.846Z" fill="black"/>
<path d="M315.461 129.291L315.451 132.19L317.211 132.196L317.221 129.297L315.461 129.291Z" fill="black"/>
<path d="M322.812 129.317L322.802 132.216L324.562 132.223L324.572 129.324L322.812 129.317Z" fill="black"/>
<path d="M331.105 112.365L331.099 114.125L333.998 114.135L334.004 112.375L331.105 112.365Z" fill="black"/>
<path d="M331.079 119.717L331.073 121.477L333.972 121.487L333.978 119.727L331.079 119.717Z" fill="black"/>
<path d="M366.75 158.285L366.739 160.924C366.736 161.688 366.43 162.42 365.888 162.958C365.346 163.496 364.612 163.797 363.848 163.795L361.208 163.787L356.389 168.572L363.832 168.598C364.841 168.602 365.841 168.407 366.774 168.024C367.708 167.641 368.557 167.078 369.273 166.367C369.989 165.657 370.558 164.812 370.947 163.881C371.336 162.95 371.539 161.952 371.542 160.943L371.57 153.5L366.75 158.285Z" fill="#008F8D"/>
<path d="M299.718 101.852L299.729 99.2142C299.732 98.4503 300.038 97.7188 300.58 97.1805C301.122 96.6421 301.855 96.3409 302.619 96.3431L305.26 96.3511L310.08 91.5682L302.639 91.5411C301.63 91.5374 300.63 91.7325 299.696 92.1153C298.763 92.4981 297.913 93.0612 297.197 93.7723C296.481 94.4833 295.912 95.3284 295.522 96.2593C295.133 97.1903 294.931 98.1889 294.927 99.198L294.899 106.639L299.718 101.852Z" fill="#008F8D"/>
<path d="M361.45 96.5518L364.088 96.563C364.852 96.5662 365.583 96.8722 366.121 97.4141C366.66 97.9559 366.961 98.6891 366.959 99.4529L366.951 102.094L371.736 106.913L371.761 99.4729C371.769 97.4351 370.966 95.4777 369.531 94.0315C368.095 92.5852 366.144 91.7687 364.106 91.761L356.663 91.7339L361.45 96.5518Z" fill="#008F8D"/>
<path d="M305.018 163.584L302.38 163.574C301.616 163.571 300.885 163.265 300.346 162.723C299.808 162.181 299.507 161.447 299.509 160.683L299.517 158.042L294.734 153.223L294.706 160.666C294.699 162.704 295.502 164.661 296.938 166.107C298.374 167.553 300.325 168.369 302.363 168.376L309.804 168.403L305.018 163.584Z" fill="#008F8D"/>
<g opacity="0.5">
<path d="M297.491 143.463L370.664 143.725" stroke="black" stroke-width="1.046" stroke-miterlimit="10"/>
</g>
<path d="M296.615 139.084L369.788 139.346" stroke="#0CABA7" stroke-width="1.046" stroke-miterlimit="10"/>
<path d="M301.777 42.1812L295.439 38.521L294.933 38.229L294.433 38.521L288.095 42.1802L287.589 42.47V50.9551L288.095 51.2471L294.433 54.907L294.933 55.199L295.439 54.907L301.777 51.2471L302.277 50.9551V42.47L301.777 42.1812ZM301.898 43.2419V50.7319L301.419 51.0071L295.412 54.4761L294.933 54.751L294.455 54.4761L288.45 51.0071L287.971 50.7319V42.6899L288.45 42.415L294.455 38.947L294.933 38.6721L295.412 38.947L301.419 42.415L301.898 42.6899V43.2419Z" fill="white"/>
<path d="M288.927 43.8682V49.958L292.187 48.0752L288.927 43.8682Z" fill="black"/>
<path d="M300.941 49.958V43.8682L297.681 48.0752L300.941 49.958Z" fill="black"/>
<path d="M295.236 51.2283L295.125 51.3723V53.5361L300.749 50.2893L297.443 48.3813L295.236 51.2283Z" fill="black"/>
<path d="M292.737 48.1602L292.758 48.1873L294.933 50.9944L293.581 49.2493L292.737 48.1602Z" fill="black"/>
<path d="M292.424 48.3799L289.118 50.2881L294.742 53.5349V51.3711L294.631 51.2271L292.424 48.3799Z" fill="black"/>
<path d="M295.411 38.9451L294.932 38.6699L294.454 38.9451L288.449 42.4131L287.97 42.688V50.731L288.449 51.0059L294.454 54.4749L294.932 54.75L295.411 54.4749L301.418 51.0059L301.897 50.731V42.688L301.418 42.4131L295.411 38.9451ZM301.323 43.2449V50.4019L301.13 50.512L295.125 53.98L294.932 54.0898L294.741 53.98L288.734 50.512L288.543 50.4019V43.0239L288.734 42.9141L294.741 39.446L294.932 39.3359L295.125 39.446L301.13 42.9141L301.323 43.0239V43.2449Z" fill="black"/>
<path d="M297.346 47.8821L300.946 43.2432L297.21 48.064L297.346 47.8821Z" fill="black"/>
<path d="M300.545 43.0139L294.934 39.7739L289.323 43.0139L294.934 45.875L300.545 43.0139Z" fill="black"/>
<path d="M295.125 39.4421L294.932 39.332L294.741 39.4421L288.734 42.9102L288.543 43.02V50.3982L288.734 50.5081L294.741 53.9761L294.932 54.0862L295.125 53.9761L301.13 50.5081L301.323 50.3982V43.02L301.13 42.9102L295.125 39.4421ZM294.932 39.7742L300.543 43.0142L294.932 45.875L289.321 43.0142L294.932 39.7742ZM294.741 53.5342L289.118 50.2881L292.423 48.3801L294.632 51.228L294.742 51.3701L294.741 53.5342ZM288.926 49.9561V43.8682L292.187 48.074L288.926 49.9561ZM295.126 53.5342V51.3701L295.236 51.228L297.445 48.3801L300.745 50.2881L295.126 53.5342ZM300.941 49.9561L297.68 48.074L300.941 43.8682V49.9561ZM297.341 47.8811L297.201 48.063L294.929 50.9941L292.754 48.187L292.733 48.1611L288.924 43.2422L294.067 45.863L294.929 46.3042L300.936 43.2422L297.341 47.8811Z" fill="white"/>
<path d="M294.071 45.864L288.927 43.2432L294.071 45.864Z" fill="black"/>
<path d="M294.071 45.864L288.927 43.2432L294.071 45.864Z" fill="url(#paint0_linear_12_7045)"/>
<path d="M294.933 46.3032V50.9934L297.108 48.1863L297.208 48.0632L300.944 43.2422L294.937 46.3032H294.933Z" fill="black"/>
<path d="M294.933 46.3032V50.9934L297.108 48.1863L297.208 48.0632L300.944 43.2422L294.937 46.3032H294.933Z" fill="url(#paint1_linear_12_7045)"/>
<path d="M293.581 49.248L294.933 50.9919L293.581 49.248Z" fill="black"/>
<path d="M293.581 49.248L294.933 50.9919L293.581 49.248Z" fill="url(#paint2_linear_12_7045)"/>
<path d="M294.933 50.9961L297.203 48.0659L297.103 48.189L294.933 50.9961Z" fill="white"/>
<path d="M294.933 50.9961L297.203 48.0659L297.103 48.189L294.933 50.9961Z" fill="url(#paint3_linear_12_7045)"/>
<path d="M288.927 43.2432L292.522 47.8821L292.738 48.1602L293.582 49.249L288.927 43.2432Z" fill="black"/>
<path d="M288.927 43.2432L292.522 47.8821L292.738 48.1602L293.582 49.249L288.927 43.2432Z" fill="url(#paint4_linear_12_7045)"/>
<path d="M294.934 46.303L294.071 45.8638L294.934 46.303Z" fill="white"/>
<path d="M294.934 46.303L294.071 45.8638L294.934 46.303Z" fill="url(#paint5_linear_12_7045)"/>
<path d="M288.927 43.2432L292.737 48.1602L292.521 47.8821L288.927 43.2432Z" fill="white"/>
<path d="M288.927 43.2432L292.737 48.1602L292.521 47.8821L288.927 43.2432Z" fill="url(#paint6_linear_12_7045)"/>
<path d="M293.581 49.252L294.933 50.9971V46.3071L294.07 45.8682L288.926 43.2471L293.581 49.252Z" fill="black"/>
<path d="M293.581 49.252L294.933 50.9971V46.3071L294.07 45.8682L288.926 43.2471L293.581 49.252Z" fill="url(#paint7_linear_12_7045)"/>
<path d="M293.581 49.252L294.933 50.9971V46.3071L294.07 45.8682L288.926 43.2471L293.581 49.252Z" fill="url(#paint8_linear_12_7045)"/>
<path d="M311.426 47.386H313.714V46.0859H311.426V45.124H313.848V43.7671H309.753V49.7849H313.991V48.417H311.426V47.386Z" fill="black"/>
<path d="M319.282 46.6868C319.448 46.3939 319.543 46.0664 319.56 45.7305C319.577 45.3945 319.516 45.0591 319.382 44.7507C319.269 44.5201 319.1 44.3219 318.889 44.1748C318.667 44.0224 318.417 43.9149 318.154 43.8586C317.857 43.792 317.553 43.7586 317.248 43.7588H314.832V49.7766H316.526V47.6396H316.916L318.03 49.7766H319.919L318.509 47.3188C318.825 47.1923 319.095 46.9716 319.282 46.6868ZM317.782 46.0178C317.742 46.0981 317.682 46.1668 317.608 46.2178C317.535 46.268 317.453 46.3045 317.367 46.3257C317.276 46.3471 317.183 46.3578 317.09 46.3577H316.527V45.1167H317.101C317.284 45.112 317.465 45.1505 317.63 45.2288C317.707 45.2751 317.769 45.3428 317.808 45.4236C317.847 45.5044 317.861 45.5948 317.85 45.6838C317.855 45.7986 317.832 45.9129 317.783 46.0168L317.782 46.0178Z" fill="black"/>
<path d="M321.966 43.7622H320.252V49.7802H321.966V43.7622Z" fill="black"/>
<path d="M327.305 44.4097C326.984 44.1727 326.619 44.0027 326.231 43.9097C325.817 43.8083 325.393 43.7577 324.967 43.7588H322.731V49.7766H325.02C325.439 49.778 325.855 49.7189 326.257 49.6008C326.643 49.4904 327.003 49.3054 327.318 49.0567C327.633 48.8033 327.886 48.4811 328.057 48.1148C328.252 47.6879 328.347 47.2219 328.334 46.7527C328.351 46.2617 328.254 45.7734 328.052 45.3257C327.879 44.9654 327.623 44.6515 327.305 44.4097ZM326.397 47.5037C326.321 47.6931 326.201 47.862 326.048 47.9966C325.895 48.1312 325.712 48.228 325.514 48.2788C325.305 48.3326 325.091 48.3593 324.875 48.3587H324.447V45.1587H324.907C325.12 45.1577 325.332 45.1847 325.538 45.2388C325.727 45.2889 325.903 45.3785 326.055 45.5017C326.208 45.6317 326.327 45.7967 326.402 45.9827C326.494 46.2217 326.537 46.4767 326.529 46.7327C326.536 46.996 326.491 47.258 326.396 47.5037H326.397Z" fill="black"/>
<path d="M306.351 47.4329L305.019 43.7549H303.303L305.487 49.7839H307.204L309.423 43.7549H307.707L306.351 47.4329Z" fill="black"/>
<path d="M332.017 43.605C331.391 43.6048 330.78 43.79 330.259 44.1375C329.739 44.4849 329.334 44.9789 329.094 45.5569C328.855 46.1348 328.792 46.7709 328.914 47.3845C329.036 47.9981 329.337 48.5617 329.779 49.0042C330.221 49.4466 330.785 49.748 331.399 49.8701C332.012 49.9922 332.648 49.9296 333.226 49.6902C333.804 49.4508 334.298 49.0456 334.646 48.5254C334.993 48.0052 335.179 47.3937 335.179 46.7681C335.179 46.3527 335.097 45.9414 334.939 45.5576C334.78 45.1739 334.547 44.8252 334.253 44.5315C333.96 44.2378 333.611 44.0047 333.227 43.8457C332.844 43.6867 332.432 43.605 332.017 43.605ZM332.011 48.3188C331.704 48.3192 331.405 48.2289 331.149 48.0588C330.894 47.8888 330.695 47.6469 330.578 47.3638C330.46 47.0806 330.429 46.769 330.488 46.4683C330.548 46.1675 330.695 45.8911 330.912 45.6741C331.129 45.4571 331.405 45.3091 331.705 45.249C332.006 45.1889 332.318 45.2193 332.601 45.3364C332.884 45.4535 333.127 45.6522 333.297 45.907C333.468 46.1618 333.559 46.4615 333.559 46.7681C333.559 46.9718 333.519 47.1733 333.441 47.3616C333.363 47.5498 333.249 47.7209 333.105 47.865C332.961 48.009 332.79 48.1233 332.602 48.2012C332.414 48.2791 332.212 48.319 332.008 48.3188H332.011Z" fill="black"/>
<path d="M338.812 48.3185C338.401 48.3177 338.007 48.1537 337.717 47.8625C337.427 47.5712 337.264 47.1766 337.265 46.7655C337.266 46.3544 337.43 45.9607 337.721 45.6706C338.012 45.3804 338.407 45.2179 338.818 45.2187C339.118 45.2188 339.412 45.305 339.665 45.4672C339.917 45.6294 340.118 45.8608 340.243 46.1337L341.799 45.7226C341.553 45.0193 341.066 44.4258 340.425 44.0463C339.784 43.6668 339.029 43.526 338.294 43.6486C337.559 43.7712 336.891 44.1494 336.408 44.7165C335.925 45.2835 335.657 46.0031 335.653 46.7482C335.648 47.4933 335.907 48.2158 336.383 48.7887C336.859 49.3617 337.523 49.7482 338.256 49.8798C338.989 50.0114 339.746 49.8798 340.392 49.5082C341.037 49.1366 341.531 48.5487 341.786 47.8485L340.225 47.4386C340.095 47.7022 339.893 47.9243 339.644 48.0797C339.394 48.2352 339.106 48.3177 338.812 48.3185Z" fill="black"/>
<path d="M345.048 43.9492H345.819V49.27H348.371V49.916H345.049L345.048 43.9492Z" fill="url(#paint9_linear_12_7045)"/>
<path d="M352.954 47.736C352.978 48.0291 352.941 48.3241 352.845 48.602C352.748 48.8798 352.594 49.1342 352.393 49.3488C352.192 49.5634 351.948 49.7333 351.677 49.8476C351.406 49.9618 351.114 50.0177 350.82 50.0119C350.537 50.0153 350.256 49.9596 349.995 49.8483C349.735 49.737 349.5 49.5727 349.307 49.3656C349.114 49.1586 348.966 48.9134 348.872 48.6459C348.779 48.3784 348.743 48.0943 348.766 47.8119C348.74 47.5193 348.776 47.2245 348.871 46.9467C348.967 46.6689 349.119 46.4144 349.32 46.1996C349.52 45.9848 349.764 45.8146 350.034 45.7001C350.305 45.5856 350.596 45.5294 350.89 45.5351C351.174 45.5294 351.457 45.5835 351.719 45.694C351.981 45.8045 352.217 45.9687 352.411 46.1762C352.606 46.3837 352.755 46.6299 352.848 46.8986C352.942 47.1673 352.978 47.4525 352.954 47.736ZM349.554 47.7799C349.554 48.7199 350.094 49.4279 350.854 49.4279C351.614 49.4279 352.154 48.7278 352.154 47.7628C352.154 47.0368 351.792 46.1159 350.871 46.1159C349.95 46.1159 349.554 46.9679 349.554 47.7809V47.7799Z" fill="url(#paint10_linear_12_7045)"/>
<path d="M357.628 45.632C357.609 45.941 357.592 46.2861 357.592 46.8071V49.2951C357.636 49.6461 357.604 50.0024 357.499 50.34C357.393 50.6777 357.216 50.9887 356.98 51.2519C356.543 51.6112 355.988 51.795 355.424 51.767C354.925 51.7791 354.432 51.6568 353.997 51.413L354.197 50.82C354.577 51.0438 355.012 51.1593 355.453 51.154C356.253 51.154 356.834 50.739 356.834 49.654V49.176H356.817C356.673 49.4056 356.471 49.5931 356.232 49.7192C355.992 49.8453 355.723 49.9056 355.453 49.894C355.194 49.8827 354.94 49.8187 354.706 49.7063C354.472 49.5938 354.264 49.4351 354.093 49.2397C353.923 49.0443 353.794 48.8161 353.714 48.5693C353.635 48.3225 353.606 48.0621 353.63 47.8039C353.6 47.5264 353.626 47.2457 353.708 46.9787C353.789 46.7117 353.925 46.4642 354.105 46.2512C354.286 46.0381 354.508 45.8639 354.758 45.7395C355.007 45.615 355.28 45.5428 355.559 45.5271C355.829 45.5105 356.099 45.5718 356.336 45.7038C356.573 45.8359 356.767 46.033 356.895 46.2719H356.914L356.948 45.6259L357.628 45.632ZM356.821 47.322C356.826 47.2024 356.811 47.0827 356.777 46.968C356.711 46.7303 356.569 46.5209 356.372 46.372C356.176 46.2231 355.935 46.143 355.689 46.144C354.946 46.144 354.414 46.7731 354.414 47.7641C354.414 48.6051 354.838 49.3039 355.68 49.3039C355.921 49.3024 356.156 49.2241 356.35 49.0803C356.543 48.9364 356.686 48.7347 356.758 48.5041C356.802 48.3702 356.823 48.23 356.822 48.0891L356.821 47.322Z" fill="url(#paint11_linear_12_7045)"/>
<path d="M358.848 49.916C358.867 49.624 358.884 49.1888 358.884 48.8088V43.6289H359.655V46.3208H359.672C359.82 46.0684 360.035 45.8616 360.292 45.7227C360.55 45.5837 360.841 45.5181 361.133 45.533C361.399 45.5471 361.659 45.6165 361.897 45.7366C362.135 45.8567 362.345 46.0248 362.514 46.2305C362.683 46.4361 362.808 46.6747 362.88 46.9312C362.952 47.1876 362.97 47.4562 362.933 47.72C362.969 47.9987 362.947 48.2818 362.868 48.5515C362.789 48.8212 362.655 49.0717 362.475 49.2871C362.294 49.5025 362.071 49.6783 361.819 49.8032C361.567 49.9281 361.293 49.9995 361.012 50.0129C360.722 50.0298 360.432 49.9635 360.178 49.8218C359.924 49.6801 359.716 49.4688 359.578 49.2129H359.553L359.517 49.9199L358.848 49.916ZM359.655 48.198C359.657 48.2935 359.669 48.3885 359.689 48.4819C359.754 48.7426 359.904 48.9739 360.116 49.1389C360.328 49.3039 360.589 49.3929 360.858 49.3918C361.673 49.3918 362.158 48.7288 362.158 47.7468C362.158 46.8868 361.715 46.1519 360.883 46.1519C360.607 46.157 360.34 46.254 360.125 46.4272C359.91 46.6005 359.759 46.8402 359.695 47.1089C359.67 47.2129 359.656 47.3192 359.653 47.426L359.655 48.198Z" fill="url(#paint12_linear_12_7045)"/>
<path d="M367.798 47.736C367.824 48.0291 367.787 48.3243 367.691 48.6024C367.595 48.8805 367.441 49.1352 367.24 49.35C367.039 49.5647 366.795 49.7347 366.524 49.8488C366.252 49.9628 365.96 50.0183 365.666 50.0119C365.383 50.0153 365.102 49.9596 364.841 49.8483C364.581 49.737 364.346 49.5727 364.153 49.3656C363.96 49.1586 363.812 48.9134 363.719 48.6459C363.625 48.3784 363.589 48.0943 363.612 47.8119C363.586 47.5194 363.622 47.2246 363.718 46.9469C363.813 46.6692 363.966 46.4146 364.166 46.1998C364.367 45.9851 364.61 45.8149 364.88 45.7003C365.151 45.5858 365.442 45.5296 365.736 45.535C366.02 45.5296 366.302 45.5837 366.564 45.6942C366.826 45.8048 367.062 45.9691 367.257 46.1766C367.451 46.3842 367.6 46.6302 367.693 46.8988C367.786 47.1674 367.822 47.4527 367.798 47.736ZM364.398 47.7799C364.398 48.7199 364.938 49.4279 365.698 49.4279C366.458 49.4279 366.998 48.7278 366.998 47.7628C366.998 47.0368 366.636 46.1159 365.717 46.1159C364.798 46.1159 364.4 46.9679 364.4 47.7809L364.398 47.7799Z" fill="url(#paint13_linear_12_7045)"/>
<path d="M372.656 47.736C372.682 48.0294 372.645 48.3249 372.549 48.6032C372.453 48.8815 372.299 49.1364 372.097 49.3512C371.896 49.566 371.651 49.7359 371.38 49.8498C371.108 49.9636 370.815 50.0188 370.521 50.0119C370.238 50.015 369.957 49.9592 369.697 49.8478C369.437 49.7364 369.203 49.5719 369.009 49.3649C368.816 49.1579 368.669 48.9128 368.575 48.6454C368.482 48.378 368.446 48.0941 368.469 47.8119C368.443 47.5193 368.479 47.2245 368.574 46.9467C368.67 46.6689 368.823 46.4144 369.023 46.1996C369.223 45.9848 369.467 45.8146 369.737 45.7001C370.008 45.5856 370.299 45.5294 370.593 45.5351C370.877 45.5294 371.16 45.5835 371.422 45.694C371.684 45.8045 371.92 45.9689 372.114 46.1764C372.309 46.3839 372.458 46.6299 372.551 46.8986C372.644 47.1673 372.68 47.4526 372.656 47.736ZM369.256 47.7799C369.256 48.7199 369.796 49.4279 370.556 49.4279C371.316 49.4279 371.856 48.7279 371.856 47.7629C371.856 47.0369 371.494 46.1159 370.575 46.1159C369.656 46.1159 369.258 46.9679 369.258 47.7809L369.256 47.7799Z" fill="url(#paint14_linear_12_7045)"/>
<path d="M374.408 47.5979H374.427C374.533 47.4449 374.683 47.2608 374.808 47.1108L376.066 45.6328H377.002L375.348 47.3928L377.233 49.917H376.287L374.809 47.8628L374.409 48.3059V49.917H373.64V43.6299H374.409L374.408 47.5979Z" fill="url(#paint15_linear_12_7045)"/>
<path d="M263.271 212.478C261.842 215.591 260.813 219.307 261.918 222.378C264.313 229.016 267.796 235.547 272.912 234.894C278.028 234.241 278.354 232.607 278.898 230.866C279.442 229.125 275.851 218.458 275.851 218.458V215.186C273.064 214.426 269.412 213.441 265.751 212.486C264.943 212.242 264.081 212.239 263.271 212.478Z" fill="#914F4E"/>
<path d="M275.741 97.4194C275.741 97.4194 273.782 97.8534 269.865 98.9424C265.948 100.031 254.191 101.991 254.191 106.126C254.191 110.261 255.921 121.397 273.069 120.932C274.037 120.627 274.949 120.358 275.741 120.132V97.4194Z" fill="#914F4E"/>
<path d="M260.008 156.27C260.633 158.282 261.173 159.938 261.516 160.979C262.977 164.553 265.488 168.587 269.342 168.403C271.594 168.293 273.819 167.864 275.951 167.129C275.951 166.553 275.959 166.209 275.959 166.209C275.959 166.209 280.967 162.182 280.967 157.176C280.967 152.17 276.611 140.629 276.611 140.629C276.206 138.543 275.916 136.436 275.741 134.317V129.585C273.24 128.951 270.777 128.176 268.364 127.262C267.66 127.007 266.907 126.919 266.164 127.005C261.064 131.879 255.276 138.705 256.472 143.679C257.472 147.825 258.772 152.279 259.849 155.772L259.87 155.672C259.87 155.672 259.917 155.888 260.008 156.27Z" fill="#914F4E"/>
<path d="M267.469 172.975C263.751 174.075 260.32 175.977 257.417 178.548C257.319 180.032 257.442 181.523 257.781 182.972C259.74 190.591 263.767 205.613 267.14 206.046L267.04 206.178C269.833 206.985 273.44 206.255 275.851 205.549V205.501C277.708 204.076 279.122 202.154 279.932 199.958C280.741 197.762 280.911 195.381 280.423 193.092C278.68 185.147 276.067 180.142 275.959 178.4C275.919 177.747 275.908 175.87 275.91 173.778C273.242 172.666 270.299 172.386 267.469 172.975Z" fill="#914F4E"/>
<path d="M268.364 127.261C270.777 128.175 273.24 128.951 275.741 129.584V120.131C274.949 120.356 274.041 120.625 273.069 120.931H273.238C270.775 122.83 268.415 124.858 266.168 127.006C266.91 126.92 267.662 127.008 268.364 127.261Z" fill="#914F4E"/>
<path d="M269.342 168.404C265.488 168.588 262.977 164.553 261.516 160.979C261.77 161.746 261.916 162.179 261.916 162.179C261.916 162.179 257.774 171.133 257.416 178.546C260.319 175.975 263.75 174.073 267.468 172.973C270.298 172.383 273.24 172.662 275.908 173.772C275.908 171.299 275.936 168.528 275.948 167.124C273.818 167.861 271.593 168.292 269.342 168.404Z" fill="#914F4E"/>
<path d="M259.874 155.667L259.853 155.768C259.906 155.937 259.953 156.102 260.008 156.268C259.917 155.885 259.874 155.667 259.874 155.667Z" fill="#914F4E"/>
<path d="M267.04 206.179C265.573 208.146 264.311 210.257 263.271 212.479C264.08 212.237 264.942 212.237 265.751 212.479C269.412 213.434 273.065 214.418 275.851 215.179V205.546C273.439 206.256 269.833 206.986 267.04 206.179Z" fill="#914F4E"/>
<path d="M264.93 165.191C264.93 165.191 257.53 151.984 262.609 144.873C267.688 137.762 274.943 155.903 275.09 156.773C274.926 157.144 274.663 157.462 274.33 157.693C273.997 157.923 273.607 158.057 273.203 158.08C271.606 158.371 264.64 162.871 264.93 165.191Z" fill="#542C2B"/>
<path d="M265.076 181.883C265.076 181.883 260.432 184.495 261.593 189.573C262.754 194.651 265.076 201.763 265.076 201.763C265.076 201.763 264.93 203.07 267.107 200.893C268.771 199.192 270.808 197.9 273.057 197.12C274.219 196.83 276.25 197.266 275.09 192.766C273.93 188.266 270.736 179.706 265.076 181.883Z" fill="#542C2B"/>
<path d="M264.496 220.63C264.496 220.63 265.961 218.164 268.422 218.309C270.883 218.454 273.493 227.309 273.493 227.309C273.493 227.309 271.893 228.326 270.446 229.486C268.999 230.646 268.413 232.533 267.687 232.386C266.961 232.239 263.915 226.146 264.496 220.63Z" fill="#542C2B"/>
<path d="M264.93 100.248C264.93 100.248 253.771 101.99 254.497 108.665C254.497 108.665 251.304 106.199 255.439 102.715C259.574 99.2313 266.812 99.5964 266.812 99.5964L264.93 100.248Z" fill="#542C2B"/>
<path d="M334.975 263.745C335.953 249.706 347.055 235.339 360.116 244.156C373.177 252.973 371.216 252.319 375.136 247.421C379.056 242.523 386.801 235.139 388.506 228.859V228.85C387.407 230.739 385.833 232.307 383.94 233.398C382.048 234.489 379.902 235.066 377.717 235.071H310.166C314.041 245.278 328.804 281.263 344.766 282.671H348.923C342.27 278.565 334.403 271.933 334.975 263.745Z" fill="#914F4E"/>
<path d="M397.431 100.466C398.142 107.002 401.499 123.002 408.859 116.709C407.529 111.329 406.979 105.785 407.226 100.248C407.226 100.248 407.226 94.1965 402.042 92.1685C399.879 93.5375 396.967 96.2003 397.431 100.466Z" fill="#542C2B"/>
<path d="M431.872 259.154C430.71 256.571 429.82 253.874 429.215 251.107C428.931 249.737 428.664 248.362 428.415 246.982C424.968 228.392 423.824 209.104 421.897 190.369C420.724 178.941 418.935 167.464 418.397 155.987C418.079 149.244 418.283 142.342 416.434 135.787C414.562 129.157 410.543 123.497 408.868 116.71C401.507 123.003 398.151 107.003 397.44 100.467C396.976 96.202 399.888 93.5392 402.052 92.1672C399.939 91.4379 397.668 91.2964 395.481 91.7581C383.725 93.7161 387.426 124.628 388.514 132.247C389.368 137.725 389.877 143.251 390.039 148.793C390.039 149.411 390.219 156.185 390.219 165.193V222.58C390.22 224.785 389.634 226.95 388.519 228.852V228.86C386.819 235.14 379.069 242.525 375.149 247.423C371.229 252.321 373.19 252.973 360.129 244.157C347.068 235.341 335.966 249.707 334.988 263.746C334.416 271.934 342.283 278.567 348.94 282.674H390.04V282.711H447.509C447.509 282.711 437.233 271.393 431.872 259.154Z" fill="#914F4E"/>
<path d="M171.469 53.1133C191.02 53.1133 203.786 77.0772 192.081 117.856H171.469V53.1133Z" fill="#542C2B"/>
<path d="M171.445 53.1133C151.894 53.1133 139.127 77.0772 150.833 117.856H171.445V53.1133Z" fill="#542C2B"/>
<path d="M166.975 99.377H175.915C175.915 99.377 175.458 112.721 180.146 114.012C181.762 114.454 177.802 119.448 171.546 119.448C166.458 119.448 161.141 114.673 163.087 114.012C168.053 112.324 166.975 99.377 166.975 99.377Z" fill="#914F4E"/>
<path d="M154.444 79.0613C154.262 73.3933 158.577 68.4292 158.577 68.4292H185.571C187.203 71.7587 188.194 75.3654 188.493 79.0613C189.672 78.5723 193.171 77.4713 193.171 81.6873C193.171 86.7523 187.092 89.6233 187.092 89.6233C184.727 97.5613 176.028 105.414 171.469 105.414C166.908 105.414 158.211 97.5623 155.846 89.6233C155.846 89.6233 149.767 86.7523 149.767 81.6873C149.766 77.4713 153.264 78.5723 154.444 79.0613Z" fill="#914F4E"/>
<path d="M188.493 79.0613C188.493 79.0613 182.86 65.9922 177.145 70.6062C172.755 74.1532 163.066 78.3564 158.898 78.3904C167.021 75.5764 168.653 70.6062 168.653 70.6062C168.653 70.6062 159.812 76.9613 154.396 78.8203C154.396 72.1203 160.151 62.1533 171.396 62.1533C187.625 62.1533 188.493 73.2263 188.493 79.0613Z" fill="#542C2B"/>
<path opacity="0.2" d="M154.836 71.156C154.788 71.1861 154.735 71.2051 154.678 71.2117C154.622 71.2182 154.566 71.2123 154.512 71.1941C154.343 71.1071 154.393 70.8551 154.468 70.6821C155.659 67.9938 157.398 65.5843 159.576 63.6084C161.753 61.6325 164.319 60.1339 167.11 59.209C167.356 59.273 167.284 59.643 167.142 59.855C166.042 61.49 163.974 62.525 163.542 64.448C165.685 64.353 167.567 63.0671 169.319 61.8291C169.836 62.0051 169.787 62.755 169.579 63.261C169.142 64.2562 168.563 65.1828 167.86 66.012C164.714 69.8732 160.347 72.5478 155.477 73.595C156.881 72.3404 158.107 70.8997 159.121 69.313C157.692 69.9283 156.264 70.5427 154.836 71.156Z" fill="white"/>
<path d="M202.943 137.116C203.75 144.651 204.147 152.224 204.133 159.801C204.072 173.649 202.716 189.564 202.716 192.341C202.716 197.559 206.771 201.912 201.155 206.872L199.027 192.752C198.517 189.37 196.101 173.178 196.101 163.297C196.101 152.017 193.314 137.191 193.314 137.191L202.943 137.116Z" fill="#914F4E"/>
<path d="M188.883 116.399C188.883 116.399 204.301 123.478 204.301 145.885H193.201L188.883 116.399Z" fill="#008F8D"/>
<path d="M139.908 137.116C139.101 144.651 138.704 152.224 138.718 159.801C138.777 173.649 140.135 189.564 140.135 192.341C140.135 197.559 136.08 201.912 141.693 206.872L143.823 192.752C144.331 189.37 146.747 173.178 146.747 163.297C146.747 152.017 149.536 137.191 149.536 137.191L139.908 137.116Z" fill="#914F4E"/>
<path d="M154.226 116.175C154.226 116.175 138.55 123.475 138.55 145.886H149.65L154.226 116.175Z" fill="#008F8D"/>
<path d="M151.569 224.849L163.657 317.627H170.948V224.849H151.569Z" fill="#914F4E"/>
<path d="M190.327 224.849L178.239 317.627H170.948V224.849H190.327Z" fill="#914F4E"/>
<path d="M170.948 224.849V317.627" stroke="#914F4E" stroke-width="0.718" stroke-miterlimit="10"/>
<path d="M178.406 309.857H177.241C175.572 309.858 173.972 310.521 172.791 311.701C171.611 312.881 170.948 314.481 170.948 316.15V317.626H184.699V316.15C184.699 314.481 184.036 312.881 182.856 311.7C181.676 310.52 180.075 309.857 178.406 309.857Z" fill="#BC262D"/>
<path d="M164.655 309.857H163.49C161.821 309.858 160.221 310.521 159.04 311.701C157.86 312.881 157.197 314.481 157.197 316.15V317.626H170.948V316.15C170.948 314.481 170.285 312.881 169.105 311.7C167.925 310.52 166.324 309.857 164.655 309.857Z" fill="#BC262D"/>
<path d="M180.08 112.72C180.08 112.72 178.814 117.768 171.468 117.768C164.122 117.768 162.854 112.72 162.854 112.72L153.565 115.82C153.565 115.82 146.3 134.988 152.576 153.01C156.169 163.323 154.676 172.102 151.032 180.71C142.657 200.471 151.032 230.253 151.032 230.253H191.902C191.902 230.253 199.51 197.33 191.373 180.153C187.458 171.894 185.448 164.761 190.073 152.911C195.746 138.38 189.373 115.82 189.373 115.82L180.08 112.72Z" fill="#14475F"/>
<path d="M37.246 89.3594H51.49C51.49 89.3594 50.762 102.979 58.23 104.294C60.803 104.747 54.497 109.844 44.53 109.844C36.422 109.844 27.95 104.97 31.05 104.294C38.963 102.572 37.246 89.3594 37.246 89.3594Z" fill="#914F4E"/>
<path d="M27.0971 70.4565C26.9131 64.0085 31.3151 58.3564 31.3151 58.3564H58.8661C60.5461 62.1892 61.5555 66.2821 61.8501 70.4565C63.0501 69.8995 66.6251 68.6457 66.6251 73.4417C66.6251 79.2057 60.4191 82.4705 60.4191 82.4705C57.6791 93.2825 51.9431 100.428 44.4741 100.428C37.0051 100.428 31.2651 92.5175 28.5291 82.4705C28.5291 82.4705 22.3291 79.2057 22.3291 73.4417C22.3241 68.6467 25.8941 69.8995 27.0971 70.4565Z" fill="#914F4E"/>
<path d="M44.5981 62.2843C50.8851 62.2843 53.7541 58.5513 57.7731 60.1483C61.8431 61.7613 61.1211 71.5481 59.3991 79.3961C61.4341 76.1121 70.8381 56.0713 61.6991 51.5673C55.0991 48.3143 50.0271 39.3212 37.5781 43.6032C31.3781 45.7332 26.4971 49.6031 24.1041 56.7821C21.6291 64.2131 27.7331 79.3961 27.7331 79.3961C27.7331 79.3961 26.105 68.5042 28.933 62.4452C31.366 57.2132 37.2611 62.2843 44.5981 62.2843Z" fill="#542C2B"/>
<path opacity="0.2" d="M41.993 55.3072C41.1199 55.0892 40.3408 54.5947 39.772 53.8973C41.915 53.8973 43.84 52.6074 45.942 52.1844C47.9083 51.8373 49.934 52.1307 51.721 53.0214C53.4951 53.9135 55.0754 55.1476 56.371 56.6525C54.3111 55.5747 51.9513 55.2127 49.663 55.6234C49.998 56.1694 49.309 56.7734 48.71 56.9994C44.638 58.5414 40.024 57.2284 36.166 55.2074C38.1033 55.3825 40.0508 55.4158 41.993 55.3072Z" fill="white"/>
<path d="M19.5281 195.155L29.2821 317.623H44.4721V195.155H19.5281Z" fill="#3A4142"/>
<path d="M69.4191 195.155L59.6641 317.623H44.4731V195.155H69.4191Z" fill="#3A4142"/>
<path d="M44.4731 195.155V317.627" stroke="black" stroke-width="0.733" stroke-miterlimit="10"/>
<path d="M55.0941 309.699H51.7211C49.7992 309.699 47.9559 310.462 46.5967 311.821C45.2375 313.18 44.4737 315.023 44.4731 316.945V317.627H62.3431V316.945C62.3431 315.993 62.1556 315.051 61.7913 314.171C61.427 313.292 60.893 312.493 60.2198 311.82C59.5466 311.147 58.7475 310.614 57.868 310.25C56.9885 309.886 56.046 309.699 55.0941 309.699Z" fill="black"/>
<path d="M37.227 309.699H33.852C31.9301 309.699 30.0868 310.462 28.7276 311.821C27.3684 313.18 26.6045 315.023 26.604 316.945V317.627H44.474V316.945C44.474 315.993 44.2866 315.051 43.9223 314.172C43.5581 313.293 43.0243 312.494 42.3513 311.821C41.6784 311.148 40.8795 310.615 40.0002 310.25C39.121 309.886 38.1786 309.699 37.227 309.699Z" fill="black"/>
<path d="M44.4681 110.146C49.6181 110.146 54.9681 104.094 54.9681 104.094L53.3881 102.108C53.3881 102.108 48.8311 105.323 44.4711 105.323C40.1111 105.323 36.2021 101.823 36.2021 101.823L33.5471 103.938C33.5471 103.938 38.9231 110.146 44.4681 110.146Z" fill="#3A5068"/>
<path d="M69.1591 193.55C69.1591 193.55 85.9971 176.434 88.0411 159.022C89.7221 144.705 89.6331 124.377 82.5521 116.053C78.5121 111.302 64.4711 106.532 58.5371 104.093C58.5371 114.427 68.7671 120.623 70.8801 129.874C72.8801 138.649 74.7341 143.774 75.2991 152.807C75.8541 161.682 69.1581 173.649 69.1581 173.649L69.1591 193.55Z" fill="#77AAAD"/>
<path d="M44.4731 108.728V201.967H70.8801V108.908L57.6801 103.639L44.4731 108.728Z" fill="#A8D7DE"/>
<path d="M44.4731 105.324L51.5542 116.054L58.8062 103.232C58.8062 103.232 53.7542 98.7636 53.7542 99.3106C53.7542 99.8576 51.5541 103.968 44.4731 105.324Z" fill="#F2F1F0"/>
<path d="M19.782 193.55C19.782 193.55 2.94403 176.434 0.898031 159.022C-0.782969 144.705 -0.69197 124.377 6.38703 116.053C10.429 111.302 24.471 106.532 30.402 104.093C30.402 114.427 20.172 120.623 18.061 129.874C16.056 138.649 14.207 143.774 13.642 152.807C13.085 161.682 19.783 173.649 19.783 173.649L19.782 193.55Z" fill="#77AAAD"/>
<path d="M44.467 108.728V201.967H18.061V108.908L31.261 103.639L44.467 108.728Z" fill="#A8D7DE"/>
<path d="M44.466 105.324L37.387 116.054L30.387 103.232C30.387 103.232 35.181 98.7636 35.181 99.3106C35.181 99.8576 37.387 103.968 44.466 105.324Z" fill="#F2F1F0"/>
<path d="M130.995 136.474H123.395L120.812 150.547H133.575L130.995 136.474Z" fill="#914F4E"/>
<path d="M127.178 97.1602C142.102 97.1602 151.144 109.22 151.144 135.36H127.178V97.1602Z" fill="#542C2B"/>
<path d="M127.178 97.1602C112.252 97.1602 103.21 109.22 103.21 135.36H127.178V97.1602Z" fill="#542C2B"/>
<path d="M141.645 119.21C141.797 114.392 138.132 110.172 138.132 110.172H115.195C113.807 113.002 112.964 116.068 112.711 119.21C111.711 118.793 108.736 117.856 108.736 121.439C108.736 125.739 113.903 128.183 113.903 128.183C115.913 134.93 123.303 139.451 127.178 139.451C131.053 139.451 138.443 134.93 140.453 128.183C140.453 128.183 145.62 125.744 145.62 121.439C145.62 117.856 142.647 118.793 141.645 119.21Z" fill="#914F4E"/>
<path d="M112.711 119.21C112.711 119.21 115.385 107.57 120.241 111.492C123.873 114.243 128.269 115.798 132.823 115.941C132.02 115.577 131.31 115.035 130.746 114.357C130.183 113.679 129.78 112.882 129.568 112.026C129.568 112.026 137.079 117.426 141.682 119.003C141.682 113.312 136.793 104.841 127.236 104.841C113.449 104.84 112.711 114.248 112.711 119.21Z" fill="#542C2B"/>
<path opacity="0.2" d="M141.311 112.493C141.352 112.518 141.398 112.534 141.446 112.539C141.494 112.545 141.542 112.539 141.588 112.524C141.73 112.448 141.688 112.236 141.624 112.088C140.612 109.804 139.134 107.757 137.284 106.078C135.434 104.399 133.253 103.125 130.882 102.339C130.674 102.391 130.734 102.707 130.854 102.887C131.788 104.276 133.547 105.157 133.916 106.787C132.095 106.707 130.496 105.614 129.008 104.562C128.568 104.71 128.608 105.35 128.788 105.777C129.158 106.624 129.649 107.411 130.247 108.115C132.92 111.397 136.632 113.67 140.771 114.559C139.577 113.494 138.534 112.27 137.671 110.921L141.311 112.493Z" fill="white"/>
<path d="M158.226 167.824C158.912 174.227 159.249 180.662 159.236 187.101C159.185 198.868 158.036 212.393 158.036 214.751C158.036 219.186 161.481 222.883 156.71 227.099L154.902 215.099C154.47 212.226 152.416 198.467 152.416 190.07C152.416 180.485 150.049 167.884 150.049 167.884L158.226 167.824Z" fill="#914F4E"/>
<path d="M147.797 145.289C147.797 145.289 159.38 150.075 159.38 169.113H147.797V145.289Z" fill="#67B29B"/>
<path d="M96.0581 167.824C95.3723 174.227 95.0351 180.662 95.0481 187.101C95.0991 198.868 96.2481 212.393 96.2481 214.751C96.2481 219.186 92.8031 222.883 97.5741 227.099L99.3821 215.099C99.8161 212.226 101.868 198.467 101.868 190.07C101.868 180.485 104.238 167.884 104.238 167.884L96.0581 167.824Z" fill="#914F4E"/>
<path d="M106.486 145.289C106.486 145.289 94.9031 150.075 94.9031 169.113H106.486V145.289Z" fill="#67B29B"/>
<path d="M110.269 238.79L118.39 317.627H126.736V238.79H110.269Z" fill="#914F4E"/>
<path d="M143.204 238.79L135.083 317.627H126.737V238.79H143.204Z" fill="#914F4E"/>
<path d="M126.737 238.79V317.628" stroke="#914F4E" stroke-width="0.61" stroke-miterlimit="10"/>
<path d="M135.581 311.027H132.771C131.979 311.027 131.194 311.183 130.462 311.486C129.73 311.789 129.064 312.233 128.504 312.794C127.943 313.354 127.499 314.019 127.196 314.751C126.892 315.483 126.736 316.268 126.736 317.06V317.627H141.614V317.06C141.614 315.46 140.978 313.926 139.847 312.794C138.716 311.663 137.181 311.027 135.581 311.027Z" fill="#E85B5D"/>
<path d="M120.699 311.027H117.889C117.097 311.027 116.312 311.183 115.58 311.486C114.847 311.789 114.182 312.233 113.622 312.794C113.061 313.354 112.617 314.019 112.313 314.751C112.01 315.483 111.854 316.268 111.854 317.06V317.627H126.732V317.06C126.732 315.46 126.096 313.926 124.965 312.794C123.834 311.663 122.299 311.027 120.699 311.027Z" fill="#E85B5D"/>
<path d="M134.497 142.343C134.027 143.92 133.061 145.302 131.742 146.285C130.424 147.268 128.823 147.8 127.178 147.8C125.533 147.8 123.932 147.268 122.613 146.285C121.295 145.302 120.329 143.92 119.859 142.343L105.513 144.98V217.373H148.846V144.98L134.497 142.343Z" fill="#90CDBC"/>
<path d="M150.262 186.288L158.901 243.602C158.901 243.602 120.921 248.26 94.571 243.602L103.928 186.288H150.262Z" fill="#14475F"/>
<path d="M146.67 158.052H107.686V188.852H146.67V158.052Z" fill="#14475F"/>
<path d="M121.883 204.802H107.738V217.092C107.738 218.648 108.356 220.14 109.456 221.24C110.556 222.341 112.048 222.959 113.604 222.959H116.016C116.787 222.959 117.55 222.808 118.262 222.513C118.973 222.218 119.62 221.786 120.165 221.241C120.71 220.696 121.142 220.05 121.437 219.338C121.732 218.626 121.884 217.863 121.884 217.092L121.883 204.802Z" fill="#005A7A"/>
<path d="M146.342 204.168H132.195V216.458C132.196 218.014 132.814 219.506 133.914 220.606C135.015 221.707 136.507 222.325 138.063 222.325H140.475C142.031 222.325 143.523 221.707 144.624 220.606C145.724 219.506 146.343 218.014 146.343 216.458L146.342 204.168Z" fill="#005A7A"/>
<path d="M145.048 142.921L139.017 141.821V166.605H145.048V142.921Z" fill="#14475F"/>
<path d="M145.517 163.956H138.55V159.285H145.517V163.956ZM139.184 163.324H144.884V159.919H139.184V163.324Z" fill="#14475F"/>
<path d="M115.34 141.884L109.309 142.984V166.666H115.34V141.884Z" fill="#14475F"/>
<path d="M115.807 164.352H108.84V159.681H115.807V164.352ZM109.474 163.719H115.174V160.319H109.474V163.719Z" fill="#14475F"/>
</g>
<defs>
<linearGradient id="paint0_linear_12_7045" x1="288.927" y1="44.5536" x2="300.938" y2="44.5536" gradientUnits="userSpaceOnUse">
<stop stop-color="#33994B"/>
<stop offset="0.34" stop-color="#6FB64D"/>
<stop offset="1" stop-color="#A3C851"/>
</linearGradient>
<linearGradient id="paint1_linear_12_7045" x1="288.922" y1="47.1178" x2="300.944" y2="47.1178" gradientUnits="userSpaceOnUse">
<stop stop-color="#33994B"/>
<stop offset="0.34" stop-color="#6FB64D"/>
<stop offset="1" stop-color="#A3C851"/>
</linearGradient>
<linearGradient id="paint2_linear_12_7045" x1="288.929" y1="50.12" x2="300.937" y2="50.12" gradientUnits="userSpaceOnUse">
<stop stop-color="#33994B"/>
<stop offset="0.34" stop-color="#6FB64D"/>
<stop offset="1" stop-color="#A3C851"/>
</linearGradient>
<linearGradient id="paint3_linear_12_7045" x1="288.926" y1="49.531" x2="300.937" y2="49.531" gradientUnits="userSpaceOnUse">
<stop stop-color="#33994B"/>
<stop offset="0.34" stop-color="#6FB64D"/>
<stop offset="1" stop-color="#A3C851"/>
</linearGradient>
<linearGradient id="paint4_linear_12_7045" x1="-15044.4" y1="50.9967" x2="-15044.4" y2="43.2432" gradientUnits="userSpaceOnUse">
<stop stop-color="#026839"/>
<stop offset="0.379" stop-color="#33994B"/>
<stop offset="1" stop-color="#6FB64D"/>
</linearGradient>
<linearGradient id="paint5_linear_12_7045" x1="-15048.5" y1="50.9907" x2="-15048.5" y2="43.2434" gradientUnits="userSpaceOnUse">
<stop stop-color="#026839"/>
<stop offset="0.379" stop-color="#33994B"/>
<stop offset="1" stop-color="#6FB64D"/>
</linearGradient>
<linearGradient id="paint6_linear_12_7045" x1="-15038.9" y1="50.9923" x2="-15038.9" y2="43.2432" gradientUnits="userSpaceOnUse">
<stop stop-color="#026839"/>
<stop offset="0.379" stop-color="#33994B"/>
<stop offset="1" stop-color="#6FB64D"/>
</linearGradient>
<linearGradient id="paint7_linear_12_7045" x1="288.926" y1="47.1221" x2="300.94" y2="47.1221" gradientUnits="userSpaceOnUse">
<stop stop-color="#33994B"/>
<stop offset="0.34" stop-color="#6FB64D"/>
<stop offset="1" stop-color="#A3C851"/>
</linearGradient>
<linearGradient id="paint8_linear_12_7045" x1="-15043.5" y1="50.9971" x2="-15043.5" y2="43.2471" gradientUnits="userSpaceOnUse">
<stop stop-color="#026839"/>
<stop offset="0.379" stop-color="#33994B"/>
<stop offset="1" stop-color="#6FB64D"/>
</linearGradient>
<linearGradient id="paint9_linear_12_7045" x1="336.102" y1="47.6964" x2="374.646" y2="47.6964" gradientUnits="userSpaceOnUse">
<stop stop-color="#006537"/>
<stop offset="0.33" stop-color="#008A40"/>
<stop offset="0.66" stop-color="#36AC47"/>
<stop offset="1" stop-color="#9AC341"/>
</linearGradient>
<linearGradient id="paint10_linear_12_7045" x1="336.05" y1="47.6974" x2="374.723" y2="47.6974" gradientUnits="userSpaceOnUse">
<stop stop-color="#006537"/>
<stop offset="0.33" stop-color="#008A40"/>
<stop offset="0.66" stop-color="#36AC47"/>
<stop offset="1" stop-color="#9AC341"/>
</linearGradient>
<linearGradient id="paint11_linear_12_7045" x1="336.061" y1="47.6916" x2="374.675" y2="47.6916" gradientUnits="userSpaceOnUse">
<stop stop-color="#006537"/>
<stop offset="0.33" stop-color="#008A40"/>
<stop offset="0.66" stop-color="#36AC47"/>
<stop offset="1" stop-color="#9AC341"/>
</linearGradient>
<linearGradient id="paint12_linear_12_7045" x1="336.022" y1="47.6972" x2="374.697" y2="47.6972" gradientUnits="userSpaceOnUse">
<stop stop-color="#006537"/>
<stop offset="0.33" stop-color="#008A40"/>
<stop offset="0.66" stop-color="#36AC47"/>
<stop offset="1" stop-color="#9AC341"/>
</linearGradient>
<linearGradient id="paint13_linear_12_7045" x1="335.992" y1="47.6974" x2="374.672" y2="47.6974" gradientUnits="userSpaceOnUse">
<stop stop-color="#006537"/>
<stop offset="0.33" stop-color="#008A40"/>
<stop offset="0.66" stop-color="#36AC47"/>
<stop offset="1" stop-color="#9AC341"/>
</linearGradient>
<linearGradient id="paint14_linear_12_7045" x1="335.966" y1="47.6974" x2="374.656" y2="47.6974" gradientUnits="userSpaceOnUse">
<stop stop-color="#006537"/>
<stop offset="0.33" stop-color="#008A40"/>
<stop offset="0.66" stop-color="#36AC47"/>
<stop offset="1" stop-color="#9AC341"/>
</linearGradient>
<linearGradient id="paint15_linear_12_7045" x1="336.111" y1="47.6976" x2="374.639" y2="47.6976" gradientUnits="userSpaceOnUse">
<stop stop-color="#006537"/>
<stop offset="0.33" stop-color="#008A40"/>
<stop offset="0.66" stop-color="#36AC47"/>
<stop offset="1" stop-color="#9AC341"/>
</linearGradient>
<clipPath id="clip0_12_7045">
<rect width="447.499" height="324.695" fill="white"/>
</clipPath>
</defs>
</svg>
