<svg xmlns="http://www.w3.org/2000/svg" width="346.389" height="292.983" viewBox="0 0 346.389 292.983">
  <g id="Group_25972" data-name="Group 25972" transform="translate(-208.096 -3352.858)">
    <g id="Group_25962" data-name="Group 25962" transform="translate(209.391 3354.153)">
      <g id="Group_25961" data-name="Group 25961">
        <g id="Group_25958" data-name="Group 25958" transform="translate(114.974)">
          <path id="Path_70962" data-name="Path 70962" d="M319.653,3377.722h-7.529v14.164" transform="translate(-232.196 -3333.007)" fill="none" stroke="#abd0d8" stroke-miterlimit="10" stroke-width="2.589"/>
          <line id="Line_1146" data-name="Line 1146" y1="32.483" transform="translate(57.526 26.395)" fill="none" stroke="#abd0d8" stroke-miterlimit="10" stroke-width="2.589"/>
          <path id="Path_70963" data-name="Path 70963" d="M283.907,3373.549h8.728v22.081" transform="translate(-257.512 -3336.751)" fill="none" stroke="#abd0d8" stroke-miterlimit="10" stroke-width="2.589"/>
          <circle id="Ellipse_791" data-name="Ellipse 791" cx="9.306" cy="9.306" r="9.306" transform="translate(95.241 35.409)" fill="none" stroke="#abd0d8" stroke-miterlimit="10" stroke-width="2.589"/>
          <circle id="Ellipse_792" data-name="Ellipse 792" cx="9.306" cy="9.306" r="9.306" transform="translate(48.222)" fill="none" stroke="#abd0d8" stroke-miterlimit="10" stroke-width="2.589"/>
          <circle id="Ellipse_793" data-name="Ellipse 793" cx="9.306" cy="9.306" r="9.306" transform="translate(0 27.492)" fill="none" stroke="#abd0d8" stroke-miterlimit="10" stroke-width="2.589"/>
        </g>
        <g id="Group_25959" data-name="Group 25959" transform="translate(279.676 110.336)">
          <path id="Path_70964" data-name="Path 70964" d="M375.552,3426.224v7.529H356.809" transform="translate(-356.809 -3399.829)" fill="none" stroke="#abd0d8" stroke-miterlimit="10" stroke-width="2.589"/>
          <circle id="Ellipse_794" data-name="Ellipse 794" cx="9.306" cy="9.306" r="9.306" transform="translate(9.437)" fill="none" stroke="#abd0d8" stroke-miterlimit="10" stroke-width="2.589"/>
          <path id="Path_70965" data-name="Path 70965" d="M356.809,3453.81h17.737l9.471,9.47" transform="translate(-356.809 -3375.081)" fill="none" stroke="#abd0d8" stroke-miterlimit="10" stroke-width="2.589"/>
          <circle id="Ellipse_795" data-name="Ellipse 795" cx="9.306" cy="9.306" r="9.306" transform="translate(29.85 90.842)" fill="none" stroke="#abd0d8" stroke-miterlimit="10" stroke-width="2.589"/>
          <line id="Line_1147" data-name="Line 1147" x2="37.729" transform="translate(0 56.326)" fill="none" stroke="#abd0d8" stroke-miterlimit="10" stroke-width="2.589"/>
          <circle id="Ellipse_796" data-name="Ellipse 796" cx="9.306" cy="9.306" r="9.306" transform="translate(45.513 47.021)" fill="none" stroke="#abd0d8" stroke-miterlimit="10" stroke-width="2.589"/>
        </g>
        <g id="Group_25960" data-name="Group 25960" transform="translate(0 110.336)">
          <path id="Path_70966" data-name="Path 70966" d="M233.312,3426.224v7.529h18.9" transform="translate(-187.93 -3399.829)" fill="none" stroke="#abd0d8" stroke-miterlimit="10" stroke-width="2.589"/>
          <circle id="Ellipse_797" data-name="Ellipse 797" cx="9.306" cy="9.306" r="9.306" transform="translate(36.076)" fill="none" stroke="#abd0d8" stroke-miterlimit="10" stroke-width="2.589"/>
          <path id="Path_70967" data-name="Path 70967" d="M256.931,3453.81h-28.88v4.328" transform="translate(-192.65 -3375.081)" fill="none" stroke="#abd0d8" stroke-miterlimit="10" stroke-width="2.589"/>
          <circle id="Ellipse_798" data-name="Ellipse 798" cx="9.306" cy="9.306" r="9.306" transform="translate(26.095 90.842)" fill="none" stroke="#abd0d8" stroke-miterlimit="10" stroke-width="2.589"/>
          <line id="Line_1148" data-name="Line 1148" x1="37.886" transform="translate(26.395 56.326)" fill="none" stroke="#abd0d8" stroke-miterlimit="10" stroke-width="2.589"/>
          <circle id="Ellipse_799" data-name="Ellipse 799" cx="9.306" cy="9.306" r="9.306" transform="translate(0 47.021)" fill="none" stroke="#abd0d8" stroke-miterlimit="10" stroke-width="2.589"/>
        </g>
      </g>
    </g>
    <g id="Group_25971" data-name="Group 25971" transform="translate(280.447 3419.807)">
      <g id="Group_25963" data-name="Group 25963" transform="translate(0 7.114)" style="mix-blend-mode: multiply;isolation: isolate">
        <rect id="Rectangle_5702" data-name="Rectangle 5702" width="201.687" height="201.687" rx="7.5" transform="translate(0)" fill="#e6e7e8"/>
        <path id="Path_70968" data-name="Path 70968" d="M262.832,3458.054v47.008h47.01v-47.008Zm40.3,11.888v28.408h-33.58v-33.583h33.58Z" transform="translate(-232.502 -3333.705)" fill="#e6e7e8"/>
        <rect id="Rectangle_5703" data-name="Rectangle 5703" width="20.145" height="20.145" transform="translate(43.763 137.779)" fill="#e6e7e8"/>
        <path id="Path_70969" data-name="Path 70969" d="M262.832,3408.5v47h47.01v-47Zm40.3,11.885v28.4h-33.58v-33.576h33.58Z" transform="translate(-232.502 -3378.165)" fill="#e6e7e8"/>
        <path id="Path_70970" data-name="Path 70970" d="M269.913,3435.723h20.145v-20.146H269.913Z" transform="translate(-226.15 -3371.815)" fill="#e6e7e8"/>
        <path id="Path_70971" data-name="Path 70971" d="M312.389,3408.5v47H359.4v-47Zm40.294,11.885v28.4H319.1v-33.576h33.58Z" transform="translate(-188.041 -3378.165)" fill="#e6e7e8"/>
        <path id="Path_70972" data-name="Path 70972" d="M319.469,3435.723h20.145v-20.146H319.469Z" transform="translate(-181.689 -3371.815)" fill="#e6e7e8"/>
        <path id="Path_70973" data-name="Path 70973" d="M369.011,3588.331H260.884a8.169,8.169,0,0,1-8.167-8.169V3406.549a8.169,8.169,0,0,1,8.167-8.169H434.493a8.169,8.169,0,0,1,8.167,8.169v106.3a56.281,56.281,0,0,1,5.872,3v-109.3a14.055,14.055,0,0,0-14.039-14.039H260.884a14.055,14.055,0,0,0-14.039,14.039v173.613a14.056,14.056,0,0,0,14.039,14.039H372.208A56.02,56.02,0,0,1,369.011,3588.331Z" transform="translate(-246.845 -3392.509)" fill="#e6e7e8"/>
        <rect id="Rectangle_5704" data-name="Rectangle 5704" width="6.718" height="6.714" transform="translate(97.485 30.335)" fill="#e6e7e8"/>
        <path id="Path_70974" data-name="Path 70974" d="M305.309,3415.212v6.713h6.719V3408.5h-6.719Z" transform="translate(-194.393 -3378.165)" fill="#e6e7e8"/>
        <rect id="Rectangle_5705" data-name="Rectangle 5705" width="6.719" height="6.719" transform="translate(84.052 43.761)" fill="#e6e7e8"/>
        <rect id="Rectangle_5706" data-name="Rectangle 5706" width="6.718" height="6.719" transform="translate(97.485 43.761)" fill="#e6e7e8"/>
        <path id="Path_70975" data-name="Path 70975" d="M305.309,3425.831v6.714h6.719v-13.427h-6.719Z" transform="translate(-194.393 -3368.637)" fill="#e6e7e8"/>
        <rect id="Rectangle_5707" data-name="Rectangle 5707" width="6.719" height="6.714" transform="translate(110.916 70.625)" fill="#e6e7e8"/>
        <path id="Path_70976" data-name="Path 70976" d="M283.706,3436.816h-6.714v6.714h6.714v6.712h6.718v-6.712h6.715v-6.714H283.706Z" transform="translate(-219.798 -3352.76)" fill="#e6e7e8"/>
        <path id="Path_70977" data-name="Path 70977" d="M301.4,3422.656h-6.714v13.432H301.4v26.858h6.718V3429.37H301.4Z" transform="translate(-203.92 -3365.463)" fill="#e6e7e8"/>
        <rect id="Rectangle_5708" data-name="Rectangle 5708" width="6.712" height="6.715" transform="translate(151.212 84.056)" fill="#e6e7e8"/>
        <path id="Path_70978" data-name="Path 70978" d="M291.149,3439.993v13.427h6.719v-20.145h-6.719Z" transform="translate(-207.097 -3355.937)" fill="#e6e7e8"/>
        <path id="Path_70979" data-name="Path 70979" d="M269.548,3436.816h-6.716v13.427h6.716v-6.712h6.716v13.431h6.715v-20.146H269.548Z" transform="translate(-232.502 -3352.76)" fill="#e6e7e8"/>
        <rect id="Rectangle_5709" data-name="Rectangle 5709" width="6.715" height="6.719" transform="translate(70.625 97.483)" fill="#e6e7e8"/>
        <rect id="Rectangle_5710" data-name="Rectangle 5710" width="6.714" height="6.719" transform="translate(104.202 97.483)" fill="#e6e7e8"/>
        <path id="Path_70980" data-name="Path 70980" d="M269.548,3454.148h-6.716v6.717h13.432v-13.431h-6.716Z" transform="translate(-232.502 -3343.232)" fill="#e6e7e8"/>
        <path id="Path_70981" data-name="Path 70981" d="M286.882,3447.435h-6.714v6.714h-6.716v6.717H293.6v-6.717h-6.718Z" transform="translate(-222.974 -3343.232)" fill="#e6e7e8"/>
        <path id="Path_70982" data-name="Path 70982" d="M312.028,3436.816h-6.719v6.714h6.719v13.431h-6.719v6.714h6.719v6.717h13.427v-6.717h-6.714V3443.53h6.714v-6.714H312.028Z" transform="translate(-194.393 -3352.76)" fill="#e6e7e8"/>
        <path id="Path_70983" data-name="Path 70983" d="M336.079,3453.786v-13.431H329.36v13.431h-6.714v-13.431h-6.718V3460.5H329.36v6.717H342.79V3460.5h-6.712Z" transform="translate(-184.866 -3349.584)" fill="#e6e7e8"/>
        <path id="Path_70984" data-name="Path 70984" d="M336.8,3447.067v-6.712h-6.716V3460.5H343.52v-6.714H336.8Z" transform="translate(-172.163 -3349.584)" fill="#e6e7e8"/>
        <path id="Path_70985" data-name="Path 70985" d="M287.611,3454.148v6.717h6.712v-13.431h-6.712Z" transform="translate(-210.271 -3343.232)" fill="#e6e7e8"/>
        <path id="Path_70986" data-name="Path 70986" d="M304.582,3454.148v-6.714h-6.714v13.431h-6.719v6.715H311.3v-6.715h-6.718Z" transform="translate(-207.097 -3343.232)" fill="#e6e7e8"/>
        <rect id="Rectangle_5711" data-name="Rectangle 5711" width="6.719" height="6.712" transform="translate(110.916 124.348)" fill="#e6e7e8"/>
        <path id="Path_70987" data-name="Path 70987" d="M297.868,3461.592h-6.719v13.433h6.719v-6.714H311.3v-6.719H297.868Z" transform="translate(-207.097 -3330.531)" fill="#e6e7e8"/>
        <rect id="Rectangle_5712" data-name="Rectangle 5712" width="6.719" height="6.714" transform="translate(110.916 137.779)" fill="#e6e7e8"/>
        <rect id="Rectangle_5713" data-name="Rectangle 5713" width="6.714" height="6.718" transform="translate(90.771 144.493)" fill="#e6e7e8"/>
        <path id="Path_70988" data-name="Path 70988" d="M291.149,3478.927v6.719h6.719v-13.433h-6.719Z" transform="translate(-207.097 -3321.002)" fill="#e6e7e8"/>
        <path id="Path_70989" data-name="Path 70989" d="M311.661,3472.213H298.229v6.713h6.718v13.432h6.714v-6.713h6.719v-6.719h-6.719Z" transform="translate(-200.745 -3321.002)" fill="#e6e7e8"/>
        <rect id="Rectangle_5714" data-name="Rectangle 5714" width="6.714" height="6.713" transform="translate(90.771 164.643)" fill="#e6e7e8"/>
        <path id="Path_70990" data-name="Path 70990" d="M319.1,3468.289v-3.523h3.415a56.665,56.665,0,0,1,8.609-6.712H312.389v19.558A56.72,56.72,0,0,1,319.1,3468.289Z" transform="translate(-188.041 -3333.705)" fill="#e6e7e8"/>
        <circle id="Ellipse_800" data-name="Ellipse 800" cx="43.739" cy="43.739" r="43.739" transform="translate(129.469 128.212)" fill="#e6e7e8"/>
        <path id="Path_70991" data-name="Path 70991" d="M360.356,3464.625a40.733,40.733,0,1,1-40.734,40.732,40.777,40.777,0,0,1,40.734-40.732m0-6.238a46.97,46.97,0,1,0,46.97,46.97,46.972,46.972,0,0,0-46.97-46.97Z" transform="translate(-187.147 -3333.407)" fill="#e6e7e8"/>
        <path id="Path_70992" data-name="Path 70992" d="M372.213,3500.284l-4.591-3.618a16.61,16.61,0,0,0,0-3.916l4.595-3.622a2.016,2.016,0,0,0,.48-2.558l-4.682-8.158a1.938,1.938,0,0,0-1.715-1.022,2.107,2.107,0,0,0-.738.135l-5.413,2.189a18.013,18.013,0,0,0-3.347-1.954l-.823-5.8a1.966,1.966,0,0,0-1.96-1.705h-9.383a1.959,1.959,0,0,0-1.956,1.692l-.827,5.811a18.629,18.629,0,0,0-3.341,1.956l-5.424-2.2a1.933,1.933,0,0,0-.7-.128,1.994,1.994,0,0,0-1.742,1l-4.688,8.171a1.975,1.975,0,0,0,.48,2.565l4.593,3.62a16.353,16.353,0,0,0,0,3.916l-4.595,3.618a2.015,2.015,0,0,0-.482,2.558l4.682,8.16a1.939,1.939,0,0,0,1.715,1.024,2.1,2.1,0,0,0,.738-.137l5.414-2.189a18.146,18.146,0,0,0,3.345,1.956l.825,5.794a1.963,1.963,0,0,0,1.958,1.707h9.383a1.963,1.963,0,0,0,1.958-1.692l.825-5.809a18.7,18.7,0,0,0,3.341-1.958l5.426,2.2a1.988,1.988,0,0,0,.725.138h0a1.944,1.944,0,0,0,1.711-1.013l4.7-8.194A2.011,2.011,0,0,0,372.213,3500.284Zm-22.709,5.2a10.827,10.827,0,1,1,10.825-10.825A10.838,10.838,0,0,1,349.5,3505.482Z" transform="translate(-176.113 -3322.757)" fill="#e6e7e8"/>
      </g>
      <g id="Group_25970" data-name="Group 25970">
        <g id="Group_25969" data-name="Group 25969">
          <rect id="Rectangle_5715" data-name="Rectangle 5715" width="201.687" height="201.687" rx="7.5" transform="translate(0)" fill="#fff"/>
          <g id="Group_25964" data-name="Group 25964" transform="translate(30.33 124.349)">
            <path id="Path_70993" data-name="Path 70993" d="M262.832,3454.3v47.008h47.01V3454.3Zm40.3,11.888V3494.6h-33.58v-33.583h33.58Z" transform="translate(-262.832 -3454.304)" fill="#14475f"/>
            <rect id="Rectangle_5716" data-name="Rectangle 5716" width="20.145" height="20.145" transform="translate(13.433 13.431)" fill="#14475f"/>
          </g>
          <g id="Group_25965" data-name="Group 25965" transform="translate(30.33 30.335)">
            <path id="Path_70994" data-name="Path 70994" d="M262.832,3404.749v47h47.01v-47Zm40.3,11.886v28.4h-33.58v-33.576h33.58Z" transform="translate(-262.832 -3404.749)" fill="#14475f"/>
            <path id="Path_70995" data-name="Path 70995" d="M269.913,3431.972h20.145v-20.146H269.913Z" transform="translate(-256.48 -3398.4)" fill="#14475f"/>
          </g>
          <g id="Group_25966" data-name="Group 25966" transform="translate(124.348 30.335)">
            <path id="Path_70996" data-name="Path 70996" d="M312.389,3404.749v47H359.4v-47Zm40.294,11.886v28.4H319.1v-33.576h33.58Z" transform="translate(-312.389 -3404.749)" fill="#14475f"/>
            <path id="Path_70997" data-name="Path 70997" d="M319.469,3431.972h20.145v-20.146H319.469Z" transform="translate(-306.037 -3398.4)" fill="#14475f"/>
          </g>
          <path id="Path_70998" data-name="Path 70998" d="M369.011,3584.581H260.884a8.169,8.169,0,0,1-8.167-8.169V3402.8a8.169,8.169,0,0,1,8.167-8.169H434.493a8.169,8.169,0,0,1,8.167,8.169v106.3a56.281,56.281,0,0,1,5.872,3V3402.8a14.055,14.055,0,0,0-14.039-14.039H260.884a14.055,14.055,0,0,0-14.039,14.039v173.614a14.056,14.056,0,0,0,14.039,14.039H372.208A56.02,56.02,0,0,1,369.011,3584.581Z" transform="translate(-246.845 -3388.759)" fill="#14475f"/>
          <g id="Group_25967" data-name="Group 25967" transform="translate(30.33 30.335)">
            <rect id="Rectangle_5717" data-name="Rectangle 5717" width="6.718" height="6.714" transform="translate(67.154)" fill="#14475f"/>
            <path id="Path_70999" data-name="Path 70999" d="M305.309,3411.462v6.713h6.719v-13.427h-6.719Z" transform="translate(-224.724 -3404.749)" fill="#14475f"/>
            <rect id="Rectangle_5718" data-name="Rectangle 5718" width="6.719" height="6.719" transform="translate(53.722 13.427)" fill="#14475f"/>
            <rect id="Rectangle_5719" data-name="Rectangle 5719" width="6.718" height="6.719" transform="translate(67.154 13.427)" fill="#14475f"/>
            <path id="Path_71000" data-name="Path 71000" d="M305.309,3422.081v6.713h6.719v-13.427h-6.719Z" transform="translate(-224.724 -3395.222)" fill="#14475f"/>
            <rect id="Rectangle_5720" data-name="Rectangle 5720" width="6.719" height="6.714" transform="translate(80.585 40.291)" fill="#14475f"/>
            <path id="Path_71001" data-name="Path 71001" d="M283.706,3433.066h-6.714v6.714h6.714v6.712h6.718v-6.712h6.715v-6.714H283.706Z" transform="translate(-250.129 -3379.344)" fill="#14475f"/>
            <path id="Path_71002" data-name="Path 71002" d="M301.4,3418.906h-6.714v13.432H301.4V3459.2h6.718V3425.62H301.4Z" transform="translate(-234.25 -3392.047)" fill="#14475f"/>
            <rect id="Rectangle_5721" data-name="Rectangle 5721" width="6.712" height="6.715" transform="translate(120.882 53.722)" fill="#14475f"/>
            <path id="Path_71003" data-name="Path 71003" d="M291.149,3436.243v13.427h6.719v-20.145h-6.719Z" transform="translate(-237.427 -3382.521)" fill="#14475f"/>
            <path id="Path_71004" data-name="Path 71004" d="M269.548,3433.066h-6.716v13.427h6.716v-6.712h6.716v13.431h6.715v-20.146H269.548Z" transform="translate(-262.832 -3379.344)" fill="#14475f"/>
            <rect id="Rectangle_5722" data-name="Rectangle 5722" width="6.715" height="6.719" transform="translate(40.295 67.149)" fill="#14475f"/>
            <rect id="Rectangle_5723" data-name="Rectangle 5723" width="6.714" height="6.719" transform="translate(73.872 67.149)" fill="#14475f"/>
            <path id="Path_71005" data-name="Path 71005" d="M269.548,3450.4h-6.716v6.717h13.432v-13.431h-6.716Z" transform="translate(-262.832 -3369.817)" fill="#14475f"/>
            <path id="Path_71006" data-name="Path 71006" d="M286.882,3443.685h-6.714v6.714h-6.716v6.717H293.6V3450.4h-6.718Z" transform="translate(-253.305 -3369.817)" fill="#14475f"/>
            <path id="Path_71007" data-name="Path 71007" d="M312.028,3433.066h-6.719v6.714h6.719v13.431h-6.719v6.714h6.719v6.717h13.427v-6.717h-6.714v-20.145h6.714v-6.714H312.028Z" transform="translate(-224.724 -3379.344)" fill="#14475f"/>
            <path id="Path_71008" data-name="Path 71008" d="M336.079,3450.036V3436.6H329.36v13.431h-6.714V3436.6h-6.718v20.145H329.36v6.717H342.79v-6.717h-6.712Z" transform="translate(-215.197 -3376.168)" fill="#14475f"/>
            <path id="Path_71009" data-name="Path 71009" d="M336.8,3443.317V3436.6h-6.716v20.145H343.52v-6.714H336.8Z" transform="translate(-202.493 -3376.168)" fill="#14475f"/>
            <path id="Path_71010" data-name="Path 71010" d="M287.611,3450.4v6.717h6.712v-13.431h-6.712Z" transform="translate(-240.602 -3369.817)" fill="#14475f"/>
            <path id="Path_71011" data-name="Path 71011" d="M304.582,3450.4v-6.714h-6.714v13.431h-6.719v6.715H311.3v-6.715h-6.718Z" transform="translate(-237.427 -3369.817)" fill="#14475f"/>
            <rect id="Rectangle_5724" data-name="Rectangle 5724" width="6.719" height="6.712" transform="translate(80.585 94.013)" fill="#14475f"/>
            <path id="Path_71012" data-name="Path 71012" d="M297.868,3457.842h-6.719v13.432h6.719v-6.713H311.3v-6.719H297.868Z" transform="translate(-237.427 -3357.116)" fill="#14475f"/>
            <rect id="Rectangle_5725" data-name="Rectangle 5725" width="6.719" height="6.714" transform="translate(80.585 107.444)" fill="#14475f"/>
            <rect id="Rectangle_5726" data-name="Rectangle 5726" width="6.714" height="6.718" transform="translate(60.441 114.158)" fill="#14475f"/>
            <path id="Path_71013" data-name="Path 71013" d="M291.149,3475.176v6.72h6.719v-13.433h-6.719Z" transform="translate(-237.427 -3347.587)" fill="#14475f"/>
            <path id="Path_71014" data-name="Path 71014" d="M311.661,3468.463H298.229v6.713h6.718v13.433h6.714V3481.9h6.719v-6.72h-6.719Z" transform="translate(-231.075 -3347.587)" fill="#14475f"/>
            <rect id="Rectangle_5727" data-name="Rectangle 5727" width="6.714" height="6.713" transform="translate(60.441 134.309)" fill="#14475f"/>
            <path id="Path_71015" data-name="Path 71015" d="M319.1,3464.539v-3.522h3.415a56.665,56.665,0,0,1,8.609-6.712H312.389v19.558A56.745,56.745,0,0,1,319.1,3464.539Z" transform="translate(-218.372 -3360.29)" fill="#14475f"/>
          </g>
          <g id="Group_25968" data-name="Group 25968" transform="translate(126.239 124.98)">
            <circle id="Ellipse_801" data-name="Ellipse 801" cx="43.739" cy="43.739" r="43.739" transform="translate(3.23 3.232)" fill="#fff"/>
            <path id="Path_71016" data-name="Path 71016" d="M360.356,3460.875a40.733,40.733,0,1,1-40.734,40.732,40.777,40.777,0,0,1,40.734-40.732m0-6.238a46.97,46.97,0,1,0,46.97,46.97,46.972,46.972,0,0,0-46.97-46.97Z" transform="translate(-313.386 -3454.637)" fill="#14475f"/>
            <path id="Path_71017" data-name="Path 71017" d="M372.213,3496.534l-4.591-3.618a16.614,16.614,0,0,0,0-3.916l4.595-3.621a2.017,2.017,0,0,0,.48-2.558l-4.682-8.158a1.938,1.938,0,0,0-1.715-1.022,2.107,2.107,0,0,0-.738.135l-5.413,2.189a17.986,17.986,0,0,0-3.347-1.954l-.823-5.8a1.967,1.967,0,0,0-1.96-1.706h-9.383a1.96,1.96,0,0,0-1.956,1.692l-.827,5.811a18.625,18.625,0,0,0-3.341,1.956l-5.424-2.195a1.933,1.933,0,0,0-.7-.129,1.994,1.994,0,0,0-1.742,1l-4.688,8.171a1.974,1.974,0,0,0,.48,2.565l4.593,3.62a16.357,16.357,0,0,0,0,3.916l-4.595,3.618a2.015,2.015,0,0,0-.482,2.558l4.682,8.159a1.939,1.939,0,0,0,1.715,1.025,2.1,2.1,0,0,0,.738-.137l5.414-2.189a18.146,18.146,0,0,0,3.345,1.956l.825,5.794a1.963,1.963,0,0,0,1.958,1.707h9.383a1.963,1.963,0,0,0,1.958-1.692l.825-5.809a18.7,18.7,0,0,0,3.341-1.958l5.426,2.195a1.989,1.989,0,0,0,.725.139h0a1.944,1.944,0,0,0,1.711-1.013l4.7-8.194A2.01,2.01,0,0,0,372.213,3496.534Zm-22.709,5.2a10.827,10.827,0,1,1,10.825-10.825A10.838,10.838,0,0,1,349.5,3501.732Z" transform="translate(-302.352 -3443.986)" fill="#14475f"/>
          </g>
        </g>
      </g>
    </g>
  </g>
</svg>
