<svg xmlns="http://www.w3.org/2000/svg" width="763.608" height="476.319" viewBox="0 0 763.608 476.319">
  <g id="Group_26346" data-name="Group 26346" transform="translate(-179.764 -4686.124)">
    <g id="Group_26324" data-name="Group 26324" transform="translate(227.45 5023.247)">
      <path id="Path_75176" data-name="Path 75176" d="M290.556,4853.711a33.789,33.789,0,0,0-7.97-21.919,28.692,28.692,0,0,0-.851-16.035c-4.281-12.649-15.731-20.11-25.569-16.675a15.111,15.111,0,0,0-4.776,2.743c-5.144-5.9-12-9.536-19.545-9.536-15.947,0-28.865,16.074-28.865,35.908a44.6,44.6,0,0,0,.451,6.164,34.218,34.218,0,0,0-8.65,23.158c0,16.671,11.022,30.307,25.013,31.576a27.244,27.244,0,0,0,22.254,11.845,27.577,27.577,0,0,0,24.3-15.153C280.213,4882.393,290.556,4869.334,290.556,4853.711Z" transform="translate(-194.781 -4792.289)" fill="#afd111"/>
      <rect id="Rectangle_6104" data-name="Rectangle 6104" width="8.003" height="34.064" transform="translate(43.617 96.622)" fill="#bb5428"/>
      <path id="Path_75177" data-name="Path 75177" d="M281.665,4826.974a28.692,28.692,0,0,0-.851-16.035c-2.753-8.139-8.485-14.113-14.839-16.435a28.085,28.085,0,0,1,.019,12.88,33.785,33.785,0,0,1,7.974,21.92c0,15.626-10.346,28.685-24.21,32.075a27.566,27.566,0,0,1-24.3,15.153,27.238,27.238,0,0,1-22.254-11.844,23.8,23.8,0,0,1-8-2.207c3.325,11.952,12.549,20.786,23.67,21.8a27.244,27.244,0,0,0,22.254,11.845,27.577,27.577,0,0,0,24.3-15.153c13.864-3.395,24.206-16.453,24.206-32.076A33.789,33.789,0,0,0,281.665,4826.974Z" transform="translate(-193.861 -4787.471)" fill="#a1b807"/>
      <path id="Path_75178" data-name="Path 75178" d="M230.518,4801.905c5.716,6.747,4.636,17.074-2.423,23.054s-17.417,5.352-23.14-1.4-4.636-17.079,2.423-23.058S224.8,4795.145,230.518,4801.905Z" transform="translate(-180.635 -4783.361)" fill="#cbec42"/>
      <path id="Path_75179" data-name="Path 75179" d="M220.917,4807.943a12.571,12.571,0,1,1-17.7-1.442A12.562,12.562,0,0,1,220.917,4807.943Z" transform="translate(-186.107 -4767.865)" fill="#cbec42"/>
      <path id="Path_75180" data-name="Path 75180" d="M226.487,4801.754c3.369,3.969,2.677,10.094-1.543,13.676s-10.38,3.248-13.75-.728-2.677-10.1,1.546-13.676S223.115,4797.771,226.487,4801.754Z" transform="translate(-163.721 -4778.686)" fill="#cbec42"/>
    </g>
    <g id="Group_26325" data-name="Group 26325" transform="translate(179.764 5040.201)">
      <path id="Path_75181" data-name="Path 75181" d="M254.124,4828.411a26.147,26.147,0,0,0,.5-5.049,25.455,25.455,0,0,0-46.362-14.8,17.7,17.7,0,0,0-2.686-.24c-8.787,0-15.906,6.324-15.906,14.133a12.644,12.644,0,0,0,.4,3.074,27.685,27.685,0,0,0,7.726,47.492c3.9,8.075,12.692,13.715,22.93,13.715a25.518,25.518,0,0,0,21.625-11.412,25.75,25.75,0,0,0,11.778-46.915Z" transform="translate(-179.764 -4797.628)" fill="#afd111"/>
      <rect id="Rectangle_6105" data-name="Rectangle 6105" width="8.004" height="34.581" transform="translate(38.822 79.152)" fill="#bb5428"/>
      <path id="Path_75182" data-name="Path 75182" d="M253.941,4825.567a26.147,26.147,0,0,0,.5-5.049,25.745,25.745,0,0,0-11.648-21.583,26.367,26.367,0,0,1-1.1,13.48,25.976,25.976,0,0,1-18.218,44.72,24.957,24.957,0,0,1-42.427-8.657c-.419-.235-.791-.539-1.2-.8a27.43,27.43,0,0,0,17.76,22.5c3.9,8.075,12.692,13.715,22.93,13.715a25.518,25.518,0,0,0,21.625-11.412,25.75,25.75,0,0,0,11.778-46.915Z" transform="translate(-179.581 -4794.785)" fill="#a1b807"/>
      <path id="Path_75183" data-name="Path 75183" d="M214.466,4806.035c5.043,5.948,3.7,15.382-3.007,21.063s-16.233,5.456-21.276-.5-3.7-15.386,3.007-21.066S209.42,4800.072,214.466,4806.035Z" transform="translate(-163.741 -4789.389)" fill="#cbec42"/>
      <path id="Path_75184" data-name="Path 75184" d="M204.447,4809.539c3.941,4.651,3.064,11.888-1.966,16.153s-12.314,3.939-16.258-.718-3.071-11.893,1.966-16.153S200.5,4804.877,204.447,4809.539Z" transform="translate(-171.089 -4779.803)" fill="#cbec42"/>
    </g>
    <g id="Group_26326" data-name="Group 26326" transform="translate(857.723 5040.137)">
      <path id="Path_75185" data-name="Path 75185" d="M467.624,4828.395a26.183,26.183,0,0,0,.5-5.05,25.455,25.455,0,0,0-46.365-14.8,17.786,17.786,0,0,0-2.687-.241c-8.786,0-15.906,6.321-15.906,14.13a12.643,12.643,0,0,0,.4,3.077,27.685,27.685,0,0,0,7.726,47.492c3.9,8.075,12.692,13.715,22.93,13.715a25.531,25.531,0,0,0,21.628-11.412,26,26,0,0,0,23.063-25.661A25.738,25.738,0,0,0,467.624,4828.395Z" transform="translate(-393.264 -4797.607)" fill="#afd111"/>
      <rect id="Rectangle_6106" data-name="Rectangle 6106" width="8.003" height="34.427" transform="translate(38.823 79.155)" fill="#bb5428"/>
      <path id="Path_75186" data-name="Path 75186" d="M467.441,4825.549a26.183,26.183,0,0,0,.5-5.05,25.744,25.744,0,0,0-11.651-21.583,26.431,26.431,0,0,1-1.092,13.48,25.976,25.976,0,0,1-18.221,44.72,24.955,24.955,0,0,1-42.427-8.66c-.419-.232-.791-.539-1.2-.794a27.434,27.434,0,0,0,17.76,22.5c3.9,8.075,12.692,13.715,22.93,13.715a25.531,25.531,0,0,0,21.628-11.412A26,26,0,0,0,478.73,4846.8,25.738,25.738,0,0,0,467.441,4825.549Z" transform="translate(-393.081 -4794.762)" fill="#a1b807"/>
      <path id="Path_75187" data-name="Path 75187" d="M427.966,4806.015c5.043,5.951,3.7,15.385-3.007,21.065s-16.233,5.456-21.276-.5-3.7-15.386,3.007-21.069S422.92,4800.055,427.966,4806.015Z" transform="translate(-377.241 -4789.369)" fill="#cbec42"/>
      <path id="Path_75188" data-name="Path 75188" d="M417.945,4809.521c3.941,4.651,3.067,11.885-1.966,16.153s-12.314,3.939-16.258-.718-3.068-11.893,1.965-16.153S414,4804.856,417.945,4809.521Z" transform="translate(-384.587 -4779.783)" fill="#cbec42"/>
    </g>
    <rect id="Rectangle_6107" data-name="Rectangle 6107" width="214.599" height="53.387" transform="translate(290.35 4909.931)" fill="#14475f"/>
    <rect id="Rectangle_6108" data-name="Rectangle 6108" width="221.771" height="465.922" transform="translate(504.938 4687.796)" fill="#e7effa"/>
    <path id="Path_76454" data-name="Path 76454" d="M0,0H151.486V341.822H0Z" transform="translate(726.708 4811.896)" fill="#14475f"/>
    <rect id="Rectangle_6110" data-name="Rectangle 6110" width="214.593" height="190.401" transform="translate(290.35 4963.318)" fill="#e7effa"/>
    <rect id="Rectangle_6111" data-name="Rectangle 6111" width="132.072" height="30.613" transform="translate(726.709 4845.346)" fill="#e7effa"/>
    <rect id="Rectangle_6112" data-name="Rectangle 6112" width="132.072" height="30.613" transform="translate(726.709 4894.625)" fill="#e7effa"/>
    <rect id="Rectangle_6113" data-name="Rectangle 6113" width="132.072" height="30.609" transform="translate(726.709 4943.907)" fill="#e7effa"/>
    <rect id="Rectangle_6114" data-name="Rectangle 6114" width="132.072" height="30.613" transform="translate(726.709 4993.186)" fill="#e7effa"/>
    <rect id="Rectangle_6115" data-name="Rectangle 6115" width="132.072" height="30.615" transform="translate(726.709 5042.463)" fill="#e7effa"/>
    <rect id="Rectangle_6116" data-name="Rectangle 6116" width="132.072" height="30.614" transform="translate(726.709 5091.746)" fill="#e7effa"/>
    <g id="Group_26327" data-name="Group 26327" transform="translate(290.333 4963.318)" opacity="0.3">
      <path id="Path_75189" data-name="Path 75189" d="M214.6,4887.567l68.126-114.15h42.456l-110.6,184.429Z" transform="translate(-214.584 -4773.417)" fill="#a6a4a8"/>
    </g>
    <g id="Group_26328" data-name="Group 26328" transform="translate(307.365 4963.318)" opacity="0.3">
      <path id="Path_75190" data-name="Path 75190" d="M219.948,4963.817l113.829-190.4h20.058l-113.355,190.4Z" transform="translate(-219.948 -4773.417)" fill="#a6a4a8"/>
    </g>
    <g id="Group_26329" data-name="Group 26329" transform="translate(405.926 4988.109)" opacity="0.3">
      <path id="Path_75191" data-name="Path 75191" d="M250.986,4946.833l99.009-165.609v33.789l-78.476,131.82Z" transform="translate(-250.986 -4781.224)" fill="#a6a4a8"/>
    </g>
    <path id="Path_75192" data-name="Path 75192" d="M910.871,4833.374H193.895a8.708,8.708,0,0,0-8.679,8.732H919.552A8.709,8.709,0,0,0,910.871,4833.374Z" transform="translate(11.861 320.337)" fill="#404436"/>
    <g id="Group_26330" data-name="Group 26330" transform="translate(553.399 4732.836)" opacity="0.4">
      <path id="Path_75193" data-name="Path 75193" d="M297.427,4761.644l36.291-60.81h42.456l-36.465,60.81Z" transform="translate(-297.427 -4700.834)" fill="#a6a4a8"/>
    </g>
    <g id="Group_26331" data-name="Group 26331" transform="translate(619.972 4732.836)" opacity="0.4">
      <path id="Path_75194" data-name="Path 75194" d="M318.392,4761.644l36.353-60.81H374.8l-36.2,60.81Z" transform="translate(-318.392 -4700.834)" fill="#a6a4a8"/>
    </g>
    <g id="Group_26332" data-name="Group 26332" transform="translate(553.399 4840.4)" opacity="0.4">
      <path id="Path_75195" data-name="Path 75195" d="M297.427,4795.517l36.291-60.81h42.456l-36.465,60.81Z" transform="translate(-297.427 -4734.707)" fill="#a6a4a8"/>
    </g>
    <g id="Group_26333" data-name="Group 26333" transform="translate(619.972 4840.4)" opacity="0.4">
      <path id="Path_75196" data-name="Path 75196" d="M318.392,4795.517l36.353-60.81H374.8l-36.2,60.81Z" transform="translate(-318.392 -4734.707)" fill="#a6a4a8"/>
    </g>
    <g id="Group_26334" data-name="Group 26334" transform="translate(553.399 4947.923)" opacity="0.4">
      <path id="Path_75197" data-name="Path 75197" d="M297.427,4829.379l36.291-60.81h42.456l-36.465,60.81Z" transform="translate(-297.427 -4768.569)" fill="#a6a4a8"/>
    </g>
    <g id="Group_26335" data-name="Group 26335" transform="translate(619.972 4947.923)" opacity="0.4">
      <path id="Path_75198" data-name="Path 75198" d="M318.392,4829.379l36.353-60.81H374.8l-36.2,60.81Z" transform="translate(-318.392 -4768.569)" fill="#a6a4a8"/>
    </g>
    <g id="Group_26336" data-name="Group 26336" transform="translate(553.399 5055.647)" opacity="0.4">
      <path id="Path_75199" data-name="Path 75199" d="M297.427,4863.3l36.291-60.812h42.456L339.709,4863.3Z" transform="translate(-297.427 -4802.492)" fill="#a6a4a8"/>
    </g>
    <g id="Group_26337" data-name="Group 26337" transform="translate(619.972 5055.647)" opacity="0.4">
      <path id="Path_75200" data-name="Path 75200" d="M318.392,4863.3l36.353-60.812H374.8L338.6,4863.3Z" transform="translate(-318.392 -4802.492)" fill="#a6a4a8"/>
    </g>
    <g id="Group_26338" data-name="Group 26338" transform="translate(726.708 4844.811)" opacity="0.3">
      <path id="Path_75201" data-name="Path 75201" d="M352.005,4861.3,428.272,4736.1h42.456l-107.974,179.63-10.748-.642Z" transform="translate(-352.005 -4736.098)" fill="#a6a4a8"/>
    </g>
    <g id="Group_26339" data-name="Group 26339" transform="translate(726.997 4856.379)" opacity="0.3">
      <path id="Path_75202" data-name="Path 75202" d="M352.1,4963.631,483.878,4739.74,483.8,4773.6,352.1,4995.457Z" transform="translate(-352.096 -4739.74)" fill="#e7effa"/>
    </g>
    <g id="Group_26340" data-name="Group 26340" transform="translate(794.951 5015.55)" opacity="0.3">
      <path id="Path_75203" data-name="Path 75203" d="M373.5,4896.676l63.831-106.811,0,26.912-47.813,79.9Z" transform="translate(-373.496 -4789.865)" fill="#a6a4a8"/>
    </g>
    <rect id="Rectangle_6117" data-name="Rectangle 6117" width="131.783" height="18.666" transform="translate(726.997 4875.959)" fill="#14475f"/>
    <rect id="Rectangle_6118" data-name="Rectangle 6118" width="131.783" height="18.665" transform="translate(726.997 4925.172)" fill="#14475f"/>
    <rect id="Rectangle_6119" data-name="Rectangle 6119" width="131.783" height="18.666" transform="translate(726.997 4974.639)" fill="#14475f"/>
    <rect id="Rectangle_6120" data-name="Rectangle 6120" width="131.783" height="18.665" transform="translate(726.997 5023.799)" fill="#14475f"/>
    <rect id="Rectangle_6121" data-name="Rectangle 6121" width="132.072" height="18.668" transform="translate(726.709 5073.078)" fill="#14475f"/>
    <rect id="Rectangle_6122" data-name="Rectangle 6122" width="36.501" height="341.822" transform="translate(726.708 4811.895)" fill="#293c3f" opacity="0.25"/>
    <rect id="Rectangle_6123" data-name="Rectangle 6123" width="214.59" height="3.547" transform="translate(290.35 4963.318)" fill="#293c3f"/>
    <rect id="Rectangle_6124" data-name="Rectangle 6124" width="3.546" height="190.4" transform="translate(345.373 4963.318)" fill="#293c3f"/>
    <rect id="Rectangle_6125" data-name="Rectangle 6125" width="3.546" height="190.392" transform="translate(401.567 4963.318)" fill="#293c3f"/>
    <rect id="Rectangle_6126" data-name="Rectangle 6126" width="3.547" height="190.615" transform="translate(455.43 4963.318)" fill="#293c3f"/>
    <path id="Path_75204" data-name="Path 75204" d="M214.587,4788.5h214.6l-.006,3.546H214.6Z" transform="translate(75.755 222.724)" fill="#293c3f"/>
    <rect id="Rectangle_6127" data-name="Rectangle 6127" width="214.585" height="3.546" transform="translate(290.35 5055.534)" fill="#293c3f"/>
    <rect id="Rectangle_6128" data-name="Rectangle 6128" width="214.585" height="3.546" transform="translate(290.35 5103.725)" fill="#293c3f"/>
    <rect id="Rectangle_6129" data-name="Rectangle 6129" width="5.448" height="190.398" transform="translate(396.119 4963.318)" fill="#14475f"/>
    <rect id="Rectangle_6130" data-name="Rectangle 6130" width="214.611" height="5.447" transform="translate(290.333 5050.2)" fill="#14475f"/>
    <rect id="Rectangle_6131" data-name="Rectangle 6131" width="5.446" height="190.4" transform="translate(339.927 4963.318)" fill="#14475f"/>
    <rect id="Rectangle_6132" data-name="Rectangle 6132" width="5.448" height="190.4" transform="translate(449.879 4963.318)" fill="#14475f"/>
    <rect id="Rectangle_6133" data-name="Rectangle 6133" width="214.605" height="5.444" transform="translate(290.337 5005.784)" fill="#14475f"/>
    <rect id="Rectangle_6134" data-name="Rectangle 6134" width="214.585" height="5.447" transform="translate(290.35 5098.278)" fill="#14475f"/>
    <rect id="Rectangle_6135" data-name="Rectangle 6135" width="221.773" height="3.544" transform="translate(504.935 4975.463)" fill="#293c3f"/>
    <rect id="Rectangle_6136" data-name="Rectangle 6136" width="221.773" height="3.545" transform="translate(504.935 5082.992)" fill="#293c3f"/>
    <rect id="Rectangle_6137" data-name="Rectangle 6137" width="221.773" height="3.544" transform="translate(504.935 4867.931)" fill="#293c3f"/>
    <rect id="Rectangle_6138" data-name="Rectangle 6138" width="221.773" height="3.544" transform="translate(504.935 4760.398)" fill="#293c3f"/>
    <rect id="Rectangle_6139" data-name="Rectangle 6139" width="3.547" height="383.621" transform="translate(562.354 4732.836)" fill="#293c3f"/>
    <rect id="Rectangle_6140" data-name="Rectangle 6140" width="132.071" height="3.547" transform="translate(726.709 4845.346)" fill="#293c3f"/>
    <rect id="Rectangle_6141" data-name="Rectangle 6141" width="132.071" height="3.546" transform="translate(726.709 4894.625)" fill="#293c3f"/>
    <rect id="Rectangle_6142" data-name="Rectangle 6142" width="132.071" height="3.546" transform="translate(726.709 4943.907)" fill="#293c3f"/>
    <rect id="Rectangle_6143" data-name="Rectangle 6143" width="132.071" height="3.547" transform="translate(726.709 4993.186)" fill="#293c3f"/>
    <rect id="Rectangle_6144" data-name="Rectangle 6144" width="132.071" height="3.544" transform="translate(726.709 5042.463)" fill="#293c3f"/>
    <rect id="Rectangle_6145" data-name="Rectangle 6145" width="132.071" height="3.547" transform="translate(726.709 5091.746)" fill="#293c3f"/>
    <rect id="Rectangle_6146" data-name="Rectangle 6146" width="3.546" height="383.621" transform="translate(618.549 4732.836)" fill="#293c3f"/>
    <rect id="Rectangle_6147" data-name="Rectangle 6147" width="3.547" height="383.621" transform="translate(672.309 4732.836)" fill="#293c3f"/>
    <rect id="Rectangle_6148" data-name="Rectangle 6148" width="221.773" height="5.446" transform="translate(504.935 4754.953)" fill="#14475f"/>
    <rect id="Rectangle_6149" data-name="Rectangle 6149" width="221.773" height="5.446" transform="translate(504.935 4862.485)" fill="#14475f"/>
    <rect id="Rectangle_6150" data-name="Rectangle 6150" width="221.773" height="5.446" transform="translate(504.935 4970.017)" fill="#14475f"/>
    <rect id="Rectangle_6151" data-name="Rectangle 6151" width="221.773" height="5.442" transform="translate(504.935 5077.549)" fill="#14475f"/>
    <rect id="Rectangle_6152" data-name="Rectangle 6152" width="5.448" height="392.619" transform="translate(613.099 4723.588)" fill="#14475f"/>
    <rect id="Rectangle_6153" data-name="Rectangle 6153" width="5.448" height="392.619" transform="translate(556.905 4723.588)" fill="#14475f"/>
    <rect id="Rectangle_6154" data-name="Rectangle 6154" width="5.448" height="392.619" transform="translate(666.859 4723.588)" fill="#14475f"/>
    <rect id="Rectangle_6155" data-name="Rectangle 6155" width="238.023" height="37.511" transform="translate(496.811 4686.124)" fill="#14475f"/>
    <rect id="Rectangle_6156" data-name="Rectangle 6156" width="238.023" height="37.511" transform="translate(496.809 4793.646)" fill="#14475f"/>
    <g id="Group_26341" data-name="Group 26341" transform="translate(504.952 4723.588)" opacity="0.6">
      <rect id="Rectangle_6157" data-name="Rectangle 6157" width="221.756" height="9.247" fill="#293c3f"/>
    </g>
    <g id="Group_26342" data-name="Group 26342" transform="translate(504.952 4831.156)" opacity="0.6">
      <rect id="Rectangle_6158" data-name="Rectangle 6158" width="221.756" height="9.243" fill="#293c3f"/>
    </g>
    <g id="Group_26343" data-name="Group 26343" transform="translate(504.952 4938.678)" opacity="0.6">
      <rect id="Rectangle_6159" data-name="Rectangle 6159" width="221.756" height="9.247" fill="#293c3f"/>
    </g>
    <g id="Group_26344" data-name="Group 26344" transform="translate(504.952 5046.198)" opacity="0.6">
      <rect id="Rectangle_6160" data-name="Rectangle 6160" width="221.756" height="9.243" fill="#293c3f"/>
    </g>
    <rect id="Rectangle_6161" data-name="Rectangle 6161" width="13.737" height="243.997" transform="translate(491.212 4909.931)" fill="#293c3f" opacity="0.25"/>
    <rect id="Rectangle_6162" data-name="Rectangle 6162" width="238.023" height="37.511" transform="translate(496.809 4901.166)" fill="#14475f"/>
    <rect id="Rectangle_6163" data-name="Rectangle 6163" width="238.023" height="37.511" transform="translate(496.809 5008.688)" fill="#14475f"/>
    <rect id="Rectangle_6164" data-name="Rectangle 6164" width="238.023" height="37.511" transform="translate(496.809 5116.208)" fill="#14475f"/>
    <g id="Group_26345" data-name="Group 26345" transform="translate(299.91 4925.306)">
      <path id="Path_75205" data-name="Path 75205" d="M236.17,4770.634c0,5.872-3.423,8.9-9.3,8.9s-9.272-3.025-9.272-8.9,3.4-8.9,9.272-8.9S236.17,4764.76,236.17,4770.634Zm-12.921-.8v1.6c0,2.349,1.2,3.976,3.623,3.976s3.652-1.627,3.652-3.976v-1.6c0-2.354-1.226-3.976-3.652-3.976S223.249,4767.483,223.249,4769.837Z" transform="translate(-217.6 -4760.814)" fill="#ebfeff"/>
      <path id="Path_75206" data-name="Path 75206" d="M233.237,4761.894v2.925h-1.15c-1.1,0-1.4.4-1.4,1.324v.523h2.55v3.373h-2.55v9.825h-4.973v-9.825h-1.848v-3.373h1.848v-.549c0-3.6,1.975-4.672,4.823-4.672A9.91,9.91,0,0,1,233.237,4761.894Z" transform="translate(-203.969 -4761.445)" fill="#ebfeff"/>
      <path id="Path_75207" data-name="Path 75207" d="M236.81,4761.894v2.925h-1.15c-1.1,0-1.4.4-1.4,1.324v.523h2.547v3.373h-2.547v9.825H229.29v-9.825h-1.851v-3.373h1.851v-.549c0-3.6,1.972-4.672,4.823-4.672A9.888,9.888,0,0,1,236.81,4761.894Z" transform="translate(-196.196 -4761.445)" fill="#ebfeff"/>
      <path id="Path_75208" data-name="Path 75208" d="M231.28,4764.912v-3.372h4.973v3.372Zm0,14.747v-13.2h4.973v13.2Z" transform="translate(-187.84 -4761.241)" fill="#ebfeff"/>
      <path id="Path_75209" data-name="Path 75209" d="M248.353,4768.617H243.53c0-1.548-.9-2.248-2.451-2.248-1.75,0-2.448,1.076-2.448,2.821v1.427c0,1.749.727,2.8,2.55,2.8,1.626,0,2.55-.673,2.55-2.3h4.623c0,4.025-3.248,5.674-7.275,5.674-4.5,0-7.421-2.273-7.421-6.9s2.925-6.9,7.421-6.9C245.1,4763,248.353,4764.594,248.353,4768.617Z" transform="translate(-182.669 -4758.073)" fill="#ebfeff"/>
      <path id="Path_75210" data-name="Path 75210" d="M253.777,4769.894v.848h-9.895c0,1.825.746,2.873,2.648,2.873,1.775,0,2.423-.847,2.423-1.921h4.824c0,3.147-2.4,5.1-7.148,5.1s-7.723-2.149-7.723-6.9c0-4.624,2.925-6.9,7.424-6.9C251.078,4763,253.777,4765.146,253.777,4769.894Zm-9.869-1.5h4.846a2.048,2.048,0,0,0-2.223-2.225A2.325,2.325,0,0,0,243.907,4768.394Z" transform="translate(-171.25 -4758.073)" fill="#ebfeff"/>
      <path id="Path_75211" data-name="Path 75211" d="M264.043,4769.11h-5.274c0-1.976-1.051-3.249-3.023-3.249-2.35,0-3.248,1.622-3.248,3.976v1.6c0,2.349.946,3.976,3.2,3.976,2.172,0,3.248-1.179,3.248-3.151h5.1c0,4.727-3.026,7.272-8.272,7.272-5.875,0-8.923-3.025-8.923-8.9s3.048-8.9,8.923-8.9C260.769,4761.735,264.043,4764.312,264.043,4769.11Z" transform="translate(-153.972 -4760.814)" fill="#ebfeff"/>
      <path id="Path_75212" data-name="Path 75212" d="M267.772,4769.894v.848h-9.9c0,1.825.749,2.873,2.648,2.873,1.775,0,2.426-.847,2.426-1.921h4.824c0,3.147-2.4,5.1-7.148,5.1s-7.723-2.149-7.723-6.9c0-4.624,2.921-6.9,7.421-6.9C265.069,4763,267.772,4765.146,267.772,4769.894Zm-9.872-1.5h4.846a2.047,2.047,0,0,0-2.223-2.225A2.327,2.327,0,0,0,257.9,4768.394Z" transform="translate(-140.804 -4758.073)" fill="#ebfeff"/>
      <path id="Path_75213" data-name="Path 75213" d="M272.035,4767.944v8.548h-4.973v-7.948a1.649,1.649,0,0,0-1.673-1.877,2.024,2.024,0,0,0-2.074,2.077v7.748h-4.976v-13.2h4.074l.327,2a5.886,5.886,0,0,1,4.7-2.3C270.561,4763,272.035,4764.821,272.035,4767.944Z" transform="translate(-128.974 -4758.073)" fill="#ebfeff"/>
      <path id="Path_75214" data-name="Path 75214" d="M272.954,4765.828v3.373h-2.8v5.026c0,1.124.276,1.721,1.4,1.721h1.4v2.93a12.626,12.626,0,0,1-3.2.446c-2.7,0-4.573-.825-4.573-3.524v-6.6h-1.851v-3.373h2.051l1.073-4h3.7v4Z" transform="translate(-118.119 -4760.608)" fill="#ebfeff"/>
      <path id="Path_75215" data-name="Path 75215" d="M281.766,4769.894v.848h-9.9c0,1.825.749,2.873,2.648,2.873,1.775,0,2.426-.847,2.426-1.921h4.824c0,3.147-2.4,5.1-7.148,5.1s-7.723-2.149-7.723-6.9c0-4.624,2.925-6.9,7.421-6.9C279.067,4763,281.766,4765.146,281.766,4769.894Zm-9.872-1.5h4.849a2.049,2.049,0,0,0-2.226-2.225A2.327,2.327,0,0,0,271.893,4768.394Z" transform="translate(-110.361 -4758.073)" fill="#ebfeff"/>
      <path id="Path_75216" data-name="Path 75216" d="M281.831,4763.287v4.176h-1.6c-2.15,0-2.925,1.172-2.925,3.172v5.875h-4.973v-13.2h4.074l.324,2a3.71,3.71,0,0,1,3.626-2.326A3.325,3.325,0,0,1,281.831,4763.287Z" transform="translate(-98.531 -4758.091)" fill="#ebfeff"/>
    </g>
  </g>
</svg>
