<svg width="101" height="116" viewBox="0 0 101 116" fill="none" xmlns="http://www.w3.org/2000/svg">
<path d="M100.278 26.626C100.038 23.32 98.5875 20.2185 96.204 17.9149C93.8205 15.6113 90.6714 14.2674 87.3591 14.14C71.9381 13.54 59.5472 3.62702 59.0112 3.19202C56.5776 1.13187 53.4926 0.000915952 50.3041 5.56129e-07C47.1156 -0.000914839 44.0299 1.12826 41.5951 3.18701C41.1711 3.53301 28.7631 13.534 13.2421 14.14C9.9279 14.2658 6.77668 15.6103 4.3925 17.9159C2.00832 20.2215 0.558933 23.3259 0.322148 26.634C-1.06285 45.619 2.02214 62.875 9.49714 77.918C17.0121 93.01 29.0167 105.404 43.8611 113.397C45.8406 114.474 48.0587 115.038 50.3123 115.036C52.5659 115.035 54.7832 114.468 56.7612 113.388C71.598 105.395 83.5963 93.0042 91.1082 77.918C98.5762 62.875 101.663 45.618 100.278 26.626ZM53.9781 108.312C52.8494 108.927 51.5848 109.248 50.2996 109.248C49.0145 109.248 47.7499 108.927 46.6212 108.312C18.2212 92.872 3.44714 63.252 6.08914 27.048C6.22448 25.1597 7.0519 23.3879 8.41282 22.072C9.77375 20.7561 11.5724 19.9887 13.4641 19.917C31.2971 19.217 45.1701 7.73303 45.2951 7.62903C46.6877 6.43907 48.4588 5.78449 50.2905 5.78284C52.1222 5.78119 53.8945 6.43255 55.2892 7.62C55.4282 7.736 69.3431 19.22 87.1301 19.92C89.0207 19.9928 90.8181 20.7597 92.1787 22.0743C93.5393 23.389 94.3676 25.1591 94.5051 27.046C97.1501 63.254 82.3762 92.876 53.9812 108.312H53.9781Z" fill="#14475f"/>
<path d="M86.9075 23.137C67.8015 22.393 53.2025 10.1799 53.0675 10.0669C52.2726 9.38257 51.259 9.00556 50.2102 9.00391C49.1613 9.00226 48.1465 9.37617 47.3495 10.058C47.2035 10.182 32.6305 22.391 13.4995 23.137C12.4206 23.1778 11.3948 23.6152 10.6185 24.3655C9.84219 25.1158 9.37003 26.1262 9.29249 27.203C6.74849 62.057 20.8925 90.532 48.1065 105.325C48.7497 105.675 49.4705 105.859 50.203 105.859C50.9355 105.859 51.6563 105.675 52.2995 105.325C79.5105 90.532 93.6575 62.0589 91.1145 27.2009C91.0361 26.1246 90.5636 25.115 89.7874 24.3652C89.0112 23.6155 87.9859 23.1782 86.9075 23.137V23.137Z" fill="#14475f"/>
<path d="M50.2074 9C49.161 9.00079 48.1491 9.37443 47.3534 10.054C47.2074 10.178 32.6344 22.3869 13.5034 23.1329C12.4245 23.1737 11.3987 23.6112 10.6224 24.3615C9.84609 25.1117 9.37393 26.1221 9.29639 27.199C6.75239 62.053 20.8964 90.5279 48.1104 105.321C48.7549 105.671 49.4768 105.855 50.2104 105.855L50.2074 9Z" fill="#14475f"/>
<path d="M50.184 32C45.884 32.005 41.7616 33.7154 38.721 36.756C35.6804 39.7965 33.97 43.919 33.965 48.219V51.134C33.0473 51.819 32.3017 52.7082 31.7871 53.7312C31.2724 54.7542 31.003 55.8828 31 57.028V76.171C31.0024 78.1241 31.7793 79.9965 33.1604 81.3776C34.5414 82.7586 36.4139 83.5356 38.367 83.538H62.001C63.9541 83.5356 65.8266 82.7586 67.2076 81.3776C68.5887 79.9965 69.3656 78.1241 69.368 76.171V57.028C69.365 55.8828 69.0956 54.7542 68.5809 53.7312C68.0663 52.7082 67.3207 51.819 66.403 51.134V48.3979C66.4065 44.341 64.9152 40.4249 62.214 37.3979C59.5111 34.3465 55.7464 32.4404 51.687 32.068C51.187 32.023 50.682 32 50.187 32H50.184Z" fill="white"/>
<path d="M63.031 53.736V48.7119C63.0506 45.5663 61.8971 42.5263 59.7956 40.1855C57.6941 37.8448 54.7956 36.3713 51.666 36.053C51.274 36.017 50.884 36 50.498 36C47.1752 36.0037 43.9895 37.3253 41.6399 39.6749C39.2903 42.0245 37.9687 45.2101 37.965 48.533V53.7329C37.1311 53.9006 36.3806 54.351 35.8404 55.0081C35.3002 55.6651 35.0033 56.4884 35 57.339V76.481C34.9999 76.9644 35.095 77.4432 35.2799 77.8899C35.4648 78.3366 35.7359 78.7426 36.0778 79.0845C36.4196 79.4264 36.8254 79.6976 37.2721 79.8827C37.7188 80.0677 38.1975 80.163 38.681 80.163H62.315C62.7985 80.163 63.2772 80.0677 63.7239 79.8827C64.1705 79.6976 64.5764 79.4264 64.9182 79.0845C65.26 78.7426 65.5312 78.3366 65.7161 77.8899C65.901 77.4432 65.9961 76.9644 65.996 76.481V57.339C65.9919 56.4889 65.6948 55.6663 65.1546 55.0099C64.6145 54.3535 63.8644 53.9035 63.031 53.736V53.736ZM57.102 53.752H43.895V48.7579C43.882 47.8788 44.0426 47.0058 44.3674 46.1887C44.6922 45.3717 45.1749 44.6267 45.7879 43.9965C46.4009 43.3662 47.1322 42.8629 47.9399 42.5155C48.7476 42.1681 49.6158 41.9834 50.495 41.9719C50.653 41.9719 50.812 41.977 50.973 41.989C52.6399 42.1144 54.1978 42.865 55.3344 44.0907C56.471 45.3164 57.1024 46.9263 57.102 48.5979V53.752Z" fill="#14475f"/>
<path d="M62.534 53.736V48.7119C62.5536 45.5663 61.4001 42.5263 59.2986 40.1855C57.1971 37.8448 54.2986 36.3713 51.169 36.053C50.777 36.017 50.387 36 50.001 36V41.9719C50.159 41.9719 50.318 41.977 50.479 41.989C52.1459 42.1144 53.7038 42.865 54.8404 44.0907C55.977 45.3164 56.6084 46.9263 56.608 48.5979V53.751H50V80.1659H61.821C62.7974 80.1656 63.7336 79.7776 64.4239 79.0872C65.1142 78.3967 65.502 77.4604 65.502 76.484V57.3419C65.4985 56.4909 65.2012 55.6673 64.6604 55.0103C64.1196 54.3532 63.3684 53.903 62.534 53.736Z" fill="#14475f"/>
<path d="M53.807 71.787C53.8382 71.8965 53.8437 72.0118 53.8228 72.1238C53.8019 72.2358 53.7553 72.3414 53.6867 72.4324C53.6181 72.5233 53.5292 72.5971 53.4273 72.6478C53.3253 72.6986 53.2129 72.725 53.099 72.725H47.21C47.096 72.7252 46.9835 72.6989 46.8814 72.6482C46.7793 72.5975 46.6904 72.5237 46.6218 72.4327C46.5531 72.3418 46.5065 72.2361 46.4857 72.124C46.4649 72.0119 46.4705 71.8965 46.502 71.787L47.68 67.6649C46.7999 67.1886 46.0788 66.4647 45.606 65.5828C45.1333 64.7008 44.9295 63.6996 45.02 62.703C45.1273 61.5216 45.6373 60.413 46.4645 59.5629C47.2917 58.7127 48.386 58.1725 49.564 58.033C49.7599 58.0112 49.9569 58.0002 50.154 58C51.5204 58.0016 52.8304 58.5451 53.7967 59.5114C54.7629 60.4776 55.3064 61.7875 55.308 63.1539C55.3111 64.0778 55.0637 64.9853 54.5919 65.7797C54.1201 66.574 53.4417 67.2256 52.629 67.6649L53.807 71.787Z" fill="white"/>
</svg>
