<svg xmlns="http://www.w3.org/2000/svg" width="94.742" height="94.743" viewBox="0 0 94.742 94.743">
  <g id="Group_27415" data-name="Group 27415" transform="translate(-341.155 -1328.604)">
    <path id="Path_77027" data-name="Path 77027" d="M433.193,1328.6H400.119a2.585,2.585,0,0,0-2.586,2.585V1342.9H402.7v-9.121h27.9v27.9h-9v19.857h3.005v-14.687h8.582a2.585,2.585,0,0,0,2.585-2.585v-33.075A2.585,2.585,0,0,0,433.193,1328.6ZM402.7,1352.8h-5.171v11.469a2.585,2.585,0,0,0,2.586,2.585H408.7v14.687h3.005v-14.687h0v-5.17h-9Zm13.85-11.154a6.2,6.2,0,0,0-1.4,12.237v41.053a8.335,8.335,0,0,1,3,0v-41.114a6.19,6.19,0,0,0-1.6-12.173Zm0,9.4a3.2,3.2,0,1,1,3.2-3.2A3.2,3.2,0,0,1,416.554,1351.045Z" fill="#14475f"/>
    <path id="Path_77028" data-name="Path 77028" d="M410.688,1405.608a6.179,6.179,0,1,0-.064-3.005H369.57a9.069,9.069,0,0,1,.138,1.5,9.365,9.365,0,0,1-.134,1.5Zm5.968-4.8a3.2,3.2,0,1,1-3.2,3.2A3.2,3.2,0,0,1,416.656,1400.8Zm16.656-15.821H421.606v5.171h9.121v27.9h-27.9v-9H382.965v3.006h14.688v8.582a2.585,2.585,0,0,0,2.585,2.585h33.074a2.585,2.585,0,0,0,2.585-2.585v-33.075A2.585,2.585,0,0,0,433.312,1384.983Zm-35.659,14.173h5.17v-9h8.883v-5.171H400.238a2.585,2.585,0,0,0-2.585,2.585v8.582H382.965v3.006Z" fill="#14475f"/>
    <path id="Path_77029" data-name="Path 77029" d="M346.325,1333.893h27.9v9h19.858v-3.006H379.4v-8.582a2.585,2.585,0,0,0-2.585-2.585H343.74a2.585,2.585,0,0,0-2.585,2.585v33.075a2.585,2.585,0,0,0,2.585,2.585h11.706v-5.17h-9.121Zm33.074,18.9h-5.17v9h-8.883v5.17h11.468a2.585,2.585,0,0,0,2.585-2.585V1355.8h14.688V1352.8H379.4Zm28.082-3.447a8.337,8.337,0,0,1,0-3.005H366.364a6.179,6.179,0,1,0,.064,3.005Zm-47.085,1.8a3.2,3.2,0,1,1,3.2-3.2A3.2,3.2,0,0,1,360.4,1351.147Z" fill="#14475f"/>
    <path id="Path_77030" data-name="Path 77030" d="M360.5,1410.31a6.2,6.2,0,0,0,1.4-12.236V1357.02a9.087,9.087,0,0,1-1.5.138,9.254,9.254,0,0,1-1.5-.135v41.114a6.191,6.191,0,0,0,1.6,12.173Zm0-9.4a3.2,3.2,0,1,1-3.2,3.2A3.2,3.2,0,0,1,360.5,1400.906Zm13.85,17.271h-27.9v-27.905h9v-19.857h-3.005V1385.1h-8.583a2.585,2.585,0,0,0-2.585,2.585v33.075a2.585,2.585,0,0,0,2.585,2.585h33.075a2.585,2.585,0,0,0,2.585-2.585v-11.707h-5.17Zm2.585-33.075h-8.582v-14.687h-3.005V1385.1h0v5.17h9v8.884h5.17v-11.469A2.585,2.585,0,0,0,376.933,1385.1Z" fill="#14475f"/>
  </g>
</svg>
