<svg xmlns="http://www.w3.org/2000/svg" width="107.581" height="107.581" viewBox="0 0 107.581 107.581">
  <g id="Group_27420" data-name="Group 27420" transform="translate(-933.858 -1315.005)">
    <path id="Path_77049" data-name="Path 77049" d="M1025.684,1330.76a53.79,53.79,0,1,0,15.755,38.035A53.438,53.438,0,0,0,1025.684,1330.76ZM940.9,1368.8a46.74,46.74,0,0,1,77.221-35.445L952.2,1399.264A46.391,46.391,0,0,1,940.9,1368.8Zm79.811,33.06a46.731,46.731,0,0,1-63.528,2.386l65.915-65.914a46.73,46.73,0,0,1-2.387,63.528Z" fill="#14475f"/>
    <g id="Group_27419" data-name="Group 27419">
      <path id="Path_77050" data-name="Path 77050" d="M964.732,1372.191a2.766,2.766,0,0,1,2.757-2.758h11.7l2.3-2.3c-2-2.678-3.592-6.829-4.348-12.481.716-.165,1.378-.275,2.095-.385a3.065,3.065,0,0,0,2.978,1.764c1.654,0,2.978-.993,3.033-2.206h4.8a2.639,2.639,0,0,0,2.58,2.172l2.448-2.448a48.627,48.627,0,0,0-7.455-.275c-9.816-.331-16.1,1.709-19.632,5.625a50.034,50.034,0,0,0,5.846,6.01h-.276c-5.79,2.868-10.092,4.522-11.856,8.493-4.156,9.261-5.438,14-4.157,17.677l7.19-7.19Z" fill="#14475f"/>
      <path id="Path_77051" data-name="Path 77051" d="M1013.591,1373.4c-1.765-3.971-6.066-5.625-11.856-8.493h-.276a45.694,45.694,0,0,0,5.79-6.01,12.545,12.545,0,0,0-.944-.943l-11.474,11.475h12.97a2.766,2.766,0,0,1,2.757,2.758v23.381a2.754,2.754,0,0,1-2.757,2.7h-3.42v-.386h-5.955v.386H976.864v-.386h-5.956v.386h-3.419a2.748,2.748,0,0,1-1.207-.291l-.844.843h5.47v.386h5.956v-.386h21.562v.386h5.955v-.386h6.894c.22,0,.386.11.386.331v3.033a.37.37,0,0,1-.386.331h-47.26a.369.369,0,0,1-.386-.331v-1.554l-.607.606v.948a.978.978,0,0,0,.993.937h47.26a.978.978,0,0,0,.992-.937v-3.033a.945.945,0,0,0-.661-.883C1019.436,1391.767,1020.594,1389.01,1013.591,1373.4Z" fill="#14475f"/>
      <path id="Path_77052" data-name="Path 77052" d="M987.617,1352.669a47.61,47.61,0,0,1,8,.341l8.419-8.418c-3.022-7.106-8.3-13.416-16.415-12.989-13.566-.717-19.19,17.537-19.632,26.691C971.515,1354.379,977.8,1352.338,987.617,1352.669Z" fill="#14475f"/>
      <path id="Path_77053" data-name="Path 77053" d="M1007.169,1357.095l-.547.547c.217.212.428.428.627.652C1007.233,1357.911,1007.2,1357.507,1007.169,1357.095Z" fill="#14475f"/>
    </g>
  </g>
</svg>
