<svg xmlns="http://www.w3.org/2000/svg" width="94.176" height="96.292" viewBox="0 0 94.176 96.292">
  <g id="Group_27416" data-name="Group 27416" transform="translate(-546.124 -1327.829)">
    <path id="Path_77031" data-name="Path 77031" d="M574.128,1367.325a4.041,4.041,0,0,0,.745,4.081l9.258,10.548a4.033,4.033,0,0,0,3.956,1.266l.479-.112a4.036,4.036,0,0,0,2.39-6.231l-8.469-12.188a4.034,4.034,0,0,0-4.65-1.505,5.622,5.622,0,0,0-3.4,3.331Z" fill="#14475f"/>
    <path id="Path_77032" data-name="Path 77032" d="M574.189,1373.068a3.216,3.216,0,0,0-4.186-.679,6.4,6.4,0,0,0-2.936,4.481l-.033.216a3.216,3.216,0,0,0,1.121,2.946l9.123,7.6a3.212,3.212,0,0,0,2.458.721l.608-.076a3.215,3.215,0,0,0,2.08-5.238Z" fill="#14475f"/>
    <path id="Path_77033" data-name="Path 77033" d="M592.674,1356.656l3.976,6.037a38.1,38.1,0,0,1,3.644-2.3l5.452-2.815-4.371-7.488a3.858,3.858,0,0,0-3.773-1.922l-.9.187a6.828,6.828,0,0,0-1.59.455,5.311,5.311,0,0,0-2.436,7.842Z" fill="#14475f"/>
    <path id="Path_77034" data-name="Path 77034" d="M582.3,1362.39l7.852,11.585c-.38-.867.371-2.941.7-3.853a17.448,17.448,0,0,1,5.224-7.044l-4.717-6.723a5.37,5.37,0,0,0-5.411-2.277l-.156.028a5.37,5.37,0,0,0-3.491,8.284Z" fill="#14475f"/>
    <path id="Path_77035" data-name="Path 77035" d="M610.464,1346.609l-6.731,5.493,3.043,5.213a5.566,5.566,0,0,1,1.2-.257,5.76,5.76,0,0,1,5.667,3.1l4.733-3.864c4.675,3.116,10.115,3.508,14.964-.45a20.057,20.057,0,0,0,6.962-14.236l-8.585,7.008a2.916,2.916,0,0,1-2.878.467l-6.29-2.387a2.913,2.913,0,0,1-1.843-2.259l-1.078-6.639a2.914,2.914,0,0,1,1.034-2.726l8.585-7.008a20.06,20.06,0,0,0-15.342,3.969C609.054,1336,608.348,1341.4,610.464,1346.609Z" fill="#14475f"/>
    <path id="Path_77036" data-name="Path 77036" d="M569.887,1395.848l7.789-6.23-4.805-3.654-5.315-4.333-5.579,4.526a11.935,11.935,0,0,0-13.165,18.819c4.168,5.106,12.365,5.339,17.471,1.172C569.612,1403.43,570.414,1399.817,569.887,1395.848Zm-8.141,8.208-5.092.827a2.664,2.664,0,0,1-2.49-.945l-3.262-4a2.664,2.664,0,0,1-.427-2.63l1.83-4.823a2.662,2.662,0,0,1,2.064-1.684l5.092-.827a2.662,2.662,0,0,1,2.49.945l3.262,4a2.663,2.663,0,0,1,.427,2.63l-1.83,4.823A2.661,2.661,0,0,1,561.746,1404.056Z" fill="#14475f"/>
    <path id="Path_77037" data-name="Path 77037" d="M608.291,1417.731a29.863,29.863,0,0,1,1.387-21.009l3.522-7.759a29.862,29.862,0,0,0,1.548-20.462l-1.641-6.848a4.692,4.692,0,0,0-5.033-3.575,4.845,4.845,0,0,0-1.89.614l-5.167,2.885c-3.635,2.031-7.447,5.423-8.854,9.343a2.708,2.708,0,0,0,2.36,3.613l3.187.224a6.585,6.585,0,0,0,3.457-.894l5.831-3.792a8.666,8.666,0,0,1,1.826-.8,11,11,0,0,1,3.978.131,7.39,7.39,0,0,0-5.074,2.12,23.222,23.222,0,0,1-4.621,3.464c1,.529,1.9.665,2.963,1.324a10.794,10.794,0,0,1,3.618,4.355,11.459,11.459,0,0,0-2.53-2.474,11.772,11.772,0,0,0-4.387-1.893,11.213,11.213,0,0,0-2.025-.23,11.439,11.439,0,0,1-6.422.516c-1.246-.276-2.745-.8-2.745-.8.058.634,1.62,4.161,1.455,4.793a5.561,5.561,0,0,1-4.116,4.019l-.478.112a5.558,5.558,0,0,1-3.824-.471,4.732,4.732,0,0,1-4.081,5.561l-.607.076a4.837,4.837,0,0,1-.659.036l-6.914,5.53,1.167,5.977a10.374,10.374,0,0,0,2.323,4.85,10.7,10.7,0,0,1,2.63,7.535l-.334,7.183a25.992,25.992,0,0,0,20.7,1.755l9.949-3.368Z" fill="#14475f"/>
  </g>
</svg>
