<svg xmlns="http://www.w3.org/2000/svg" xmlns:xlink="http://www.w3.org/1999/xlink" width="413.289" height="345.706" viewBox="0 0 413.289 345.706">
  <defs>
    <filter id="Path_68688" x="264.556" y="189.007" width="148.734" height="151.737" filterUnits="userSpaceOnUse">
      <feOffset dy="3" input="SourceAlpha"/>
      <feGaussianBlur result="blur"/>
      <feFlood flood-opacity="0.102"/>
      <feComposite operator="in" in2="blur"/>
      <feComposite in="SourceGraphic"/>
    </filter>
  </defs>
  <g id="Group_24144" data-name="Group 24144" transform="translate(-632.648 -1279.644)">
    <path id="Path_68647" data-name="Path 68647" d="M728.49,1413.7l-6.575-10.828a38.808,38.808,0,0,0,1.724-3.881,39.232,39.232,0,0,0,1.249-4.062l12.067-3.859a4.37,4.37,0,0,0,2.918-4.823l-3.314-20.105a4.193,4.193,0,0,0-2.7-3.378,4.59,4.59,0,0,0-1.6-.288l-12.647.341a38.879,38.879,0,0,0-5.3-6.508l2.725-12.386a4.256,4.256,0,0,0-2.678-4.948l-19.041-7.118a4.251,4.251,0,0,0-5.256,1.951l-6.084,11.162a40.373,40.373,0,0,0-8.262,1.436l-9.342-8.57a4.117,4.117,0,0,0-1.313-.788,4.316,4.316,0,0,0-4.3.712l-15.712,13.024a4.281,4.281,0,0,0-.97,5.569l6.572,10.824a35.745,35.745,0,0,0-2.97,7.946l-12.067,3.857a4.367,4.367,0,0,0-2.918,4.823L636,1403.908a4.21,4.21,0,0,0,2.7,3.378,4.688,4.688,0,0,0,1.6.285l12.644-.338a38.985,38.985,0,0,0,5.3,6.5l-2.721,12.386a4.249,4.249,0,0,0,2.675,4.949l19.044,7.118a4.245,4.245,0,0,0,5.253-1.951l6.084-11.159a40.546,40.546,0,0,0,8.262-1.439l9.342,8.57a4.234,4.234,0,0,0,1.365.831h0a4.208,4.208,0,0,0,4.237-.755l15.761-13.061A4.36,4.36,0,0,0,728.49,1413.7Zm-50.023-6.679a23.453,23.453,0,1,1,30.178-13.751A23.481,23.481,0,0,1,678.467,1407.019Z" transform="translate(0 106.89)" fill="#f4f4f4"/>
    <path id="Path_68648" data-name="Path 68648" d="M750.26,1400.537l10.349-6.2A37.732,37.732,0,0,0,764.3,1396a37.063,37.063,0,0,0,3.863,1.209l3.611,11.521a4.166,4.166,0,0,0,4.581,2.8l19.17-3.05a4,4,0,0,0,3.234-2.556,4.38,4.38,0,0,0,.282-1.525l-.255-12.048a37.087,37.087,0,0,0,6.225-5.017L816.8,1390a4.056,4.056,0,0,0,4.728-2.525l6.885-18.105a4.042,4.042,0,0,0-1.832-5.013l-10.6-5.857a38.522,38.522,0,0,0-1.326-7.882l8.214-8.851a3.946,3.946,0,0,0,.761-1.249,4.113,4.113,0,0,0-.656-4.093l-12.322-15.04a4.081,4.081,0,0,0-5.3-.954l-10.349,6.2a37.644,37.644,0,0,0-3.691-1.66,37.167,37.167,0,0,0-3.863-1.212l-3.611-11.518a4.157,4.157,0,0,0-4.578-2.8l-19.176,3.044a4.006,4.006,0,0,0-3.231,2.559,4.373,4.373,0,0,0-.282,1.525l.255,12.048a37.275,37.275,0,0,0-6.225,5.02l-11.785-2.66a4.055,4.055,0,0,0-4.731,2.525l-6.885,18.1a4.047,4.047,0,0,0,1.832,5.016l10.6,5.857a38.522,38.522,0,0,0,1.326,7.879l-8.213,8.854a4.049,4.049,0,0,0-.8,1.295v0a4.013,4.013,0,0,0,.7,4.04L745,1399.63A4.149,4.149,0,0,0,750.26,1400.537Zm6.63-47.617a22.344,22.344,0,1,1,12.941,28.821A22.369,22.369,0,0,1,756.891,1352.921Z" transform="translate(194.981 61.011)" fill="#f4f4f4"/>
    <path id="Path_68649" data-name="Path 68649" d="M737.946,1384.781l-6.182-13.08a40.751,40.751,0,0,0,4.317-8.674l14.172-2.955a4.992,4.992,0,0,0,3.887-5.133l-1.377-23.238a4.8,4.8,0,0,0-2.669-4.16,5.249,5.249,0,0,0-1.786-.516l-14.408-1.114a44.535,44.535,0,0,0-5.256-8.023l4.565-13.752a4.862,4.862,0,0,0-2.454-5.94l-20.793-10.349a4.851,4.851,0,0,0-6.2,1.592l-8.238,11.96a46.255,46.255,0,0,0-9.56.653l-9.6-10.846a4.685,4.685,0,0,0-1.4-1.053,4.933,4.933,0,0,0-4.964.3l-19.4,12.932a4.888,4.888,0,0,0-1.761,6.213l6.182,13.079a40.7,40.7,0,0,0-4.317,8.677l-14.172,2.952a4.989,4.989,0,0,0-3.888,5.133l1.375,23.238a4.809,4.809,0,0,0,2.672,4.161,5.281,5.281,0,0,0,1.786.512l14.408,1.12a44.659,44.659,0,0,0,5.253,8.02l-4.562,13.748a4.86,4.86,0,0,0,2.454,5.943l20.793,10.349a4.852,4.852,0,0,0,6.2-1.593l8.238-11.959a46.206,46.206,0,0,0,9.557-.654l9.6,10.846a4.917,4.917,0,0,0,1.451,1.107h0a4.821,4.821,0,0,0,4.906-.356l19.455-12.969A4.977,4.977,0,0,0,737.946,1384.781ZM681.9,1371.256a26.793,26.793,0,1,1,35.922-12.045A26.825,26.825,0,0,1,681.9,1371.256Z" transform="translate(0 15.378)" fill="#f4f4f4"/>
    <g id="Group_24128" data-name="Group 24128" transform="translate(680.907 1348.024)">
      <g id="Group_24125" data-name="Group 24125" transform="translate(0 9.204)" style="mix-blend-mode: multiply;isolation: isolate">
        <path id="Path_68650" data-name="Path 68650" d="M768.292,1396.492l-.018-.166c-.393-2.4-.822-4.958-1-7.609-.23-3.418-.43-7-.43-10.735v-.067c0-.826.427-1.684.448-2.562H697.986c.04.871.512,1.816.512,2.629v9.818c0,14.724-3.111,26.987-16.111,34.872h-4.915v5.256h113.9v-5.256H785.9C775.2,1417.411,770.249,1408.222,768.292,1396.492Z" transform="translate(-588.205 -1159.807)" fill="#e6e7e8"/>
        <rect id="Rectangle_5232" data-name="Rectangle 5232" width="113.903" height="8.879" transform="translate(89.267 259.243)" fill="#e6e7e8"/>
        <rect id="Rectangle_5233" data-name="Rectangle 5233" width="291.885" height="218.989" rx="3.812" fill="#e6e7e8"/>
        <path id="Path_68651" data-name="Path 68651" d="M928.568,1305.1H660.073a11.7,11.7,0,0,0-11.7,11.7v185.852H940.263V1316.8A11.7,11.7,0,0,0,928.568,1305.1Z" transform="translate(-648.377 -1305.099)" fill="#e6e7e8"/>
        <path id="Path_68652" data-name="Path 68652" d="M920.891,1308.811H652.4a.31.31,0,0,0-.307.31v174.463H921.195V1309.121A.306.306,0,0,0,920.891,1308.811Z" transform="translate(-640.7 -1297.424)" fill="#e6e7e8"/>
        <path id="Path_68653" data-name="Path 68653" d="M752.674,1376.21H684.325v.028c0,3.237.061,6.572.034,9.625l69.757,8.818h0c-.414-2.629-.838-5.09-1.013-7.735C752.873,1383.528,752.622,1379.947,752.674,1376.21Z" transform="translate(-574.032 -1158.035)" fill="#e6e7e8" opacity="0.2"/>
        <path id="Path_68654" data-name="Path 68654" d="M841.709,1305.1H660.073a11.7,11.7,0,0,0-11.7,11.7v185.852h46.255Z" transform="translate(-648.377 -1305.099)" fill="#e6e7e8" opacity="0.2"/>
      </g>
      <g id="Group_24127" data-name="Group 24127">
        <g id="Group_24126" data-name="Group 24126">
          <path id="Path_68655" data-name="Path 68655" d="M768.292,1393.493l-.018-.166c-.393-2.4-.822-4.958-1-7.609-.23-3.418-.43-7-.43-10.735v-.068c0-.825.427-1.684.448-2.562H697.986c.04.871.512,1.816.512,2.629v9.818c0,14.724-3.111,26.987-16.111,34.872h-4.915v5.255h113.9v-5.255H785.9C775.2,1414.411,770.249,1405.222,768.292,1393.493Z" transform="translate(-588.205 -1156.807)" fill="#14475f"/>
          <rect id="Rectangle_5234" data-name="Rectangle 5234" width="113.903" height="8.879" transform="translate(89.267 259.243)" fill="#184f70"/>
          <path id="Path_76450" data-name="Path 76450" d="M3.812,0H288.073a3.812,3.812,0,0,1,3.812,3.812V215.177a3.812,3.812,0,0,1-3.812,3.812H3.812A3.812,3.812,0,0,1,0,215.177V3.812A3.812,3.812,0,0,1,3.812,0Z" fill="#14475f"/>
          <path id="Path_68656" data-name="Path 68656" d="M928.568,1302.1H660.073a11.7,11.7,0,0,0-11.7,11.7v185.852H940.263V1313.8A11.7,11.7,0,0,0,928.568,1302.1Z" transform="translate(-648.377 -1302.099)" fill="#0a384f"/>
          <path id="Path_68657" data-name="Path 68657" d="M920.891,1305.811H652.4a.31.31,0,0,0-.307.31v174.463H921.195V1306.121A.306.306,0,0,0,920.891,1305.811Z" transform="translate(-640.7 -1294.424)" fill="#fff"/>
          <path id="Path_68658" data-name="Path 68658" d="M752.674,1373.21H684.325v.027c0,3.237.061,6.572.034,9.625l69.757,8.818h0c-.414-2.629-.838-5.09-1.013-7.735C752.873,1380.528,752.622,1376.947,752.674,1373.21Z" transform="translate(-574.032 -1155.035)" opacity="0.2"/>
          <path id="Path_68659" data-name="Path 68659" d="M841.709,1302.1H660.073a11.7,11.7,0,0,0-11.7,11.7v185.852h46.255Z" transform="translate(-648.377 -1302.099)" fill="#fff" opacity="0.2"/>
        </g>
      </g>
    </g>
    <g id="Group_24139" data-name="Group 24139" transform="translate(717.989 1279.894)">
      <path id="Path_68660" data-name="Path 68660" d="M737.906,1305.811H727.83v159.436Z" transform="translate(-521.14 -1226.294)" fill="#e6e7e8"/>
      <path id="Path_68661" data-name="Path 68661" d="M660.775,1305.811h10.076v159.436Z" transform="translate(-659.819 -1226.294)" fill="#e6e7e8"/>
      <path id="Path_68662" data-name="Path 68662" d="M660.463,1302.1h11.031v11.388H661.419Z" transform="translate(-660.463 -1233.97)" opacity="0.2"/>
      <path id="Path_68663" data-name="Path 68663" d="M738.861,1302.1H727.83v11.388h10.076Z" transform="translate(-521.14 -1233.97)" opacity="0.2"/>
      <g id="Group_24138" data-name="Group 24138" transform="translate(11.032)">
        <g id="Group_24130" data-name="Group 24130">
          <g id="Group_24129" data-name="Group 24129">
            <path id="Path_68664" data-name="Path 68664" d="M859.717,1518.846V1332.009a8.445,8.445,0,0,0-2.47-5.964l-43.678-43.681a8.434,8.434,0,0,0-5.968-2.47H672.493a8.459,8.459,0,0,0-8.434,8.434v230.518" transform="translate(-664.059 -1279.894)" fill="#fff" stroke="#dcdcdc" stroke-miterlimit="10" stroke-width="0.5"/>
            <path id="Path_68665" data-name="Path 68665" d="M712.011,1280.32l-.028,40.831,48.283,52.4v-42.377a7.332,7.332,0,0,0-2.175-5.216Z" transform="translate(-564.946 -1279.013)" fill="#a6a8ab" opacity="0.15"/>
            <path id="Path_68666" data-name="Path 68666" d="M711.983,1321.552a6.5,6.5,0,0,0,6.486,6.483h40.917a.5.5,0,0,0,.356-.859l-46.9-46.9a.506.506,0,0,0-.862.359Z" transform="translate(-564.946 -1279.415)" fill="#dcdcdc"/>
          </g>
        </g>
        <rect id="Rectangle_5236" data-name="Rectangle 5236" width="141.012" height="8.512" transform="translate(27.322 78.329)" fill="#e6e7e8"/>
        <rect id="Rectangle_5237" data-name="Rectangle 5237" width="141.012" height="8.512" transform="translate(27.322 99.321)" fill="#e6e7e8"/>
        <rect id="Rectangle_5238" data-name="Rectangle 5238" width="141.012" height="8.512" transform="translate(27.322 120.314)" fill="#e6e7e8"/>
        <rect id="Rectangle_5239" data-name="Rectangle 5239" width="141.012" height="8.512" transform="translate(27.322 141.307)" fill="#e6e7e8"/>
        <rect id="Rectangle_5240" data-name="Rectangle 5240" width="85.259" height="9.838" transform="translate(55.199 37.009)" fill="#bbbdbf"/>
        <g id="Group_24136" data-name="Group 24136" transform="translate(27.475 173.51)">
          <g id="Group_24131" data-name="Group 24131" transform="translate(28.936 28.937)">
            <path id="Path_68667" data-name="Path 68667" d="M682.445,1360.347h14.472v-14.469H682.445Zm2.068-3.66v-8.741h10.336v10.334H684.513Z" transform="translate(-682.445 -1345.878)" fill="#102947"/>
            <rect id="Rectangle_5241" data-name="Rectangle 5241" width="6.203" height="6.2" transform="translate(4.135 4.134)" fill="#102947"/>
          </g>
          <g id="Group_24132" data-name="Group 24132" transform="translate(0 28.937)">
            <path id="Path_68668" data-name="Path 68668" d="M673.014,1360.347h14.469v-14.469H673.014Zm2.065-3.66v-8.741h10.337v10.334H675.079Z" transform="translate(-673.014 -1345.878)" fill="#102947"/>
            <rect id="Rectangle_5242" data-name="Rectangle 5242" width="6.2" height="6.2" transform="translate(4.135 4.134)" fill="#102947"/>
          </g>
          <g id="Group_24133" data-name="Group 24133" transform="translate(0 0.001)">
            <path id="Path_68669" data-name="Path 68669" d="M673.014,1350.913h14.469v-14.466H673.014Zm2.065-3.657v-8.744h10.337v10.336H675.079Z" transform="translate(-673.014 -1336.447)" fill="#102947"/>
            <rect id="Rectangle_5243" data-name="Rectangle 5243" width="6.2" height="6.2" transform="translate(4.135 4.133)" fill="#102947"/>
          </g>
          <g id="Group_24134" data-name="Group 24134" transform="translate(28.936 0.001)">
            <path id="Path_68670" data-name="Path 68670" d="M682.445,1350.913h14.472v-14.466H682.445Zm2.068-3.657v-8.744h10.336v10.336H684.513Z" transform="translate(-682.445 -1336.447)" fill="#102947"/>
            <rect id="Rectangle_5244" data-name="Rectangle 5244" width="6.203" height="6.2" transform="translate(4.135 4.133)" fill="#102947"/>
          </g>
          <g id="Group_24135" data-name="Group 24135" transform="translate(0.001)">
            <rect id="Rectangle_5245" data-name="Rectangle 5245" width="2.068" height="2.067" transform="translate(20.668)" fill="#102947"/>
            <path id="Path_68671" data-name="Path 68671" d="M681.1,1338.514v2.067h2.068v-4.135H681.1Z" transform="translate(-656.296 -1336.447)" fill="#102947"/>
            <rect id="Rectangle_5246" data-name="Rectangle 5246" width="2.066" height="2.067" transform="translate(16.537 4.135)" fill="#102947"/>
            <rect id="Rectangle_5247" data-name="Rectangle 5247" width="2.068" height="2.067" transform="translate(20.668 4.135)" fill="#102947"/>
            <path id="Path_68672" data-name="Path 68672" d="M681.1,1340.533v2.068h2.068v-4.133H681.1Z" transform="translate(-656.296 -1332.267)" fill="#102947"/>
            <rect id="Rectangle_5248" data-name="Rectangle 5248" width="2.068" height="2.066" transform="translate(24.802 12.402)" fill="#102947"/>
            <path id="Path_68673" data-name="Path 68673" d="M677.775,1341.836h-2.066v2.067h2.066v2.066h2.068V1343.9h2.065v-2.067h-4.134Z" transform="translate(-667.441 -1325.301)" fill="#102947"/>
            <path id="Path_68674" data-name="Path 68674" d="M681.143,1339.141h-2.066v4.135h2.066v8.267h2.068v-10.335h-2.068Z" transform="translate(-660.475 -1330.874)" fill="#102947"/>
            <rect id="Rectangle_5249" data-name="Rectangle 5249" width="2.068" height="2.067" transform="translate(37.205 16.535)" fill="#102947"/>
            <path id="Path_68675" data-name="Path 68675" d="M678.4,1343.23v4.134h2.066v-6.2H678.4Z" transform="translate(-661.867 -1326.694)" fill="#102947"/>
            <path id="Path_68676" data-name="Path 68676" d="M675.08,1341.836h-2.066v4.134h2.066V1343.9h2.069v4.134h2.066v-6.2H675.08Z" transform="translate(-673.014 -1325.301)" fill="#102947"/>
            <rect id="Rectangle_5250" data-name="Rectangle 5250" width="2.066" height="2.067" transform="translate(12.402 20.669)" fill="#102947"/>
            <rect id="Rectangle_5251" data-name="Rectangle 5251" width="2.066" height="2.067" transform="translate(22.736 20.669)" fill="#102947"/>
            <path id="Path_68677" data-name="Path 68677" d="M675.08,1345.925h-2.066v2.066h4.135v-4.133H675.08Z" transform="translate(-673.014 -1321.121)" fill="#102947"/>
            <path id="Path_68678" data-name="Path 68678" d="M679.169,1343.857H677.1v2.067h-2.068v2.066h6.2v-2.066h-2.068Z" transform="translate(-668.835 -1321.121)" fill="#102947"/>
            <path id="Path_68679" data-name="Path 68679" d="M683.166,1341.836H681.1v2.067h2.068v4.134H681.1v2.067h2.068v2.066H687.3V1350.1h-2.068v-6.2H687.3v-2.067h-4.134Z" transform="translate(-656.296 -1325.301)" fill="#102947"/>
            <path id="Path_68680" data-name="Path 68680" d="M689.32,1346.644v-4.134h-2.066v4.134h-2.069v-4.134H683.12v6.2h4.135v2.066h4.134v-2.066H689.32Z" transform="translate(-652.115 -1323.907)" fill="#102947"/>
            <path id="Path_68681" data-name="Path 68681" d="M687.88,1344.576v-2.066h-2.065v6.2h4.134v-2.067H687.88Z" transform="translate(-646.542 -1323.907)" fill="#102947"/>
            <path id="Path_68682" data-name="Path 68682" d="M677.73,1345.925v2.066H679.8v-4.133H677.73Z" transform="translate(-663.262 -1321.121)" fill="#102947"/>
            <path id="Path_68683" data-name="Path 68683" d="M682.536,1345.925v-2.067H680.47v4.133H678.4v2.068h6.2v-2.068h-2.068Z" transform="translate(-661.867 -1321.121)" fill="#102947"/>
            <rect id="Rectangle_5252" data-name="Rectangle 5252" width="2.068" height="2.067" transform="translate(24.802 28.938)" fill="#102947"/>
            <path id="Path_68684" data-name="Path 68684" d="M680.47,1346.552H678.4v4.132h2.066v-2.066H684.6v-2.066H680.47Z" transform="translate(-661.867 -1315.547)" fill="#102947"/>
            <rect id="Rectangle_5253" data-name="Rectangle 5253" width="2.068" height="2.066" transform="translate(24.802 33.072)" fill="#102947"/>
            <rect id="Rectangle_5254" data-name="Rectangle 5254" width="2.066" height="2.069" transform="translate(18.603 35.137)" fill="#102947"/>
            <path id="Path_68685" data-name="Path 68685" d="M678.4,1350.638v2.067h2.066v-4.132H678.4Z" transform="translate(-661.867 -1311.367)" fill="#102947"/>
            <path id="Path_68686" data-name="Path 68686" d="M683.884,1348.573h-4.134v2.065h2.068v4.135h2.066v-2.067h2.068v-2.067h-2.068Z" transform="translate(-659.082 -1311.367)" fill="#102947"/>
            <rect id="Rectangle_5255" data-name="Rectangle 5255" width="2.066" height="2.067" transform="translate(18.603 41.338)" fill="#102947"/>
          </g>
        </g>
        <g id="Group_24137" data-name="Group 24137" transform="translate(95.431 191.08)">
          <line id="Line_1099" data-name="Line 1099" x2="72.462" transform="translate(0.288 25.999)" fill="none" stroke="#d0d2d3" stroke-miterlimit="10" stroke-width="0.582"/>
          <path id="Path_68687" data-name="Path 68687" d="M695.163,1360.711c5.329-1.2,27.052-16.988,22.545-18.446s-16.5,14.838-12.2,18.446,12.429-5.047,16.706-5.427c3.823-.337,2,6.584,7.581,5.427,10.453-2.169,25.41-15.19,38.118-13.171" transform="translate(-695.163 -1342.173)" fill="none" stroke="#00aeb7" stroke-linecap="round" stroke-linejoin="round" stroke-width="0.874"/>
        </g>
      </g>
    </g>
    <g id="Group_24143" data-name="Group 24143" transform="translate(897.204 1468.651)">
      <g transform="matrix(1, 0, 0, 1, -264.56, -189.01)" filter="url(#Path_68688)">
        <g id="Path_68688-2" data-name="Path 68688" transform="translate(-454.32 -1152.41)" fill="#fff" stroke-miterlimit="10">
          <path d="M 793.243408203125 1488.327758789062 C 783.4500122070312 1488.327758789062 773.9503173828125 1486.409912109375 765.0081176757812 1482.627319335938 C 760.7100830078125 1480.809204101562 756.564453125 1478.558959960938 752.6864013671875 1475.938842773438 C 748.8446655273438 1473.34326171875 745.2319946289062 1470.362426757812 741.94873046875 1467.078979492188 C 738.6654663085938 1463.795654296875 735.6846313476562 1460.182861328125 733.0891723632812 1456.340942382812 C 730.4690551757812 1452.462768554688 728.21875 1448.31689453125 726.4006958007812 1444.018676757812 C 722.6182250976562 1435.075927734375 720.7003173828125 1425.575561523438 720.7003173828125 1415.781494140625 C 720.7003173828125 1405.988159179688 722.6182250976562 1396.488525390625 726.4006958007812 1387.546630859375 C 728.21875 1383.248657226562 730.4690551757812 1379.103271484375 733.089111328125 1375.225341796875 C 735.6846313476562 1371.3837890625 738.6654052734375 1367.771362304688 741.9486694335938 1364.48828125 C 745.23193359375 1361.205200195312 748.8446044921875 1358.224609375 752.686279296875 1355.629272460938 C 756.5643920898438 1353.009399414062 760.7100219726562 1350.75927734375 765.008056640625 1348.94140625 C 773.9502563476562 1345.1591796875 783.449951171875 1343.241455078125 793.243408203125 1343.241455078125 C 803.0368041992188 1343.241455078125 812.536376953125 1345.1591796875 821.478271484375 1348.94140625 C 825.7761840820312 1350.75927734375 829.921630859375 1353.009399414062 833.7994995117188 1355.629272460938 C 837.6410522460938 1358.224609375 841.2534790039062 1361.205200195312 844.5365600585938 1364.48828125 C 847.8196411132812 1367.771240234375 850.8002319335938 1371.3837890625 853.3955078125 1375.225341796875 C 856.015380859375 1379.103149414062 858.2655639648438 1383.248657226562 860.0834350585938 1387.546508789062 C 863.8656005859375 1396.488403320312 865.7833251953125 1405.988037109375 865.7833251953125 1415.781494140625 C 865.7833251953125 1425.57568359375 863.8656005859375 1435.076049804688 860.0833740234375 1444.018676757812 C 858.2655029296875 1448.31689453125 856.015380859375 1452.462768554688 853.3955078125 1456.341064453125 C 850.8001708984375 1460.182861328125 847.819580078125 1463.795654296875 844.5364990234375 1467.078979492188 C 841.25341796875 1470.362426757812 837.6409912109375 1473.34326171875 833.7994384765625 1475.938842773438 C 829.9215698242188 1478.558959960938 825.776123046875 1480.809326171875 821.478271484375 1482.627319335938 C 812.5363159179688 1486.409912109375 803.0368041992188 1488.327758789062 793.243408203125 1488.327758789062 Z" stroke="none"/>
          <path d="M 793.243408203125 1345.066772460938 C 783.6956176757812 1345.066772460938 774.43505859375 1346.935913085938 765.7191162109375 1350.622436523438 C 761.5296020507812 1352.39453125 757.488525390625 1354.587890625 753.7080688476562 1357.141845703125 C 749.962646484375 1359.672119140625 746.4404296875 1362.578002929688 743.2393188476562 1365.778930664062 C 740.0382080078125 1368.979858398438 737.1320190429688 1372.501953125 734.6015625 1376.247192382812 C 732.0474853515625 1380.027465820312 729.8538818359375 1384.068359375 728.081787109375 1388.257690429688 C 724.3949584960938 1396.973388671875 722.5255737304688 1406.233764648438 722.5255737304688 1415.781494140625 C 722.5255737304688 1425.329956054688 724.3949584960938 1434.591064453125 728.0818481445312 1443.3076171875 C 729.8539428710938 1447.497314453125 732.0475463867188 1451.53857421875 734.6016845703125 1455.319213867188 C 737.132080078125 1459.064697265625 740.0382690429688 1462.587158203125 743.2393798828125 1465.788330078125 C 746.4405517578125 1468.989501953125 749.9627685546875 1471.895751953125 753.7081909179688 1474.42626953125 C 757.4886474609375 1476.98046875 761.5297241210938 1479.174072265625 765.71923828125 1480.946166992188 C 774.4351806640625 1484.633056640625 783.6956787109375 1486.50244140625 793.243408203125 1486.50244140625 C 802.7911376953125 1486.50244140625 812.0514526367188 1484.633056640625 820.76708984375 1480.9462890625 C 824.9564208984375 1479.174072265625 828.997314453125 1476.98046875 832.777587890625 1474.426391601562 C 836.5228271484375 1471.895874023438 840.0447998046875 1468.989624023438 843.2457885742188 1465.788452148438 C 846.4466552734375 1462.587158203125 849.3526611328125 1459.064819335938 851.8829345703125 1455.319213867188 C 854.4368286132812 1451.538696289062 856.6302490234375 1447.497436523438 858.4022827148438 1443.307739257812 C 862.0888061523438 1434.591186523438 863.9580078125 1425.330078125 863.9580078125 1415.781494140625 C 863.9580078125 1406.233642578125 862.0888061523438 1396.973266601562 858.4022827148438 1388.257568359375 C 856.6303100585938 1384.068237304688 854.4369506835938 1380.02734375 851.8829956054688 1376.2470703125 C 849.3527221679688 1372.501831054688 846.44677734375 1368.979858398438 843.245849609375 1365.778930664062 C 840.0449829101562 1362.578002929688 836.52294921875 1359.671997070312 832.7777099609375 1357.141723632812 C 828.9974365234375 1354.587890625 824.95654296875 1352.394409179688 820.7672119140625 1350.622436523438 C 812.051513671875 1346.935913085938 802.7911987304688 1345.066772460938 793.243408203125 1345.066772460938 M 793.243408203125 1341.416137695312 C 834.3133544921875 1341.416137695312 867.608642578125 1374.71142578125 867.608642578125 1415.781494140625 C 867.608642578125 1456.8544921875 834.3133544921875 1490.153076171875 793.243408203125 1490.153076171875 C 752.173583984375 1490.153076171875 718.875 1456.8544921875 718.875 1415.781494140625 C 718.875 1374.71142578125 752.173583984375 1341.416137695312 793.243408203125 1341.416137695312 Z" stroke="none" fill="#14475f"/>
        </g>
      </g>
      <g id="Group_24142" data-name="Group 24142" transform="translate(45.422 30.113)">
        <rect id="Rectangle_5256" data-name="Rectangle 5256" width="57.891" height="40.521" rx="0.964" transform="translate(0 27.779)" fill="#fdb700"/>
        <rect id="Rectangle_5257" data-name="Rectangle 5257" width="40.521" height="40.521" transform="translate(8.685 27.779)" fill="#fc0"/>
        <g id="Group_24140" data-name="Group 24140" transform="translate(23.525 39.257)">
          <path id="Path_68689" data-name="Path 68689" d="M752.19,1369.447a5.421,5.421,0,1,1-5.421-5.421A5.421,5.421,0,0,1,752.19,1369.447Z" transform="translate(-741.347 -1364.026)" fill="#4f280b"/>
          <rect id="Rectangle_5258" data-name="Rectangle 5258" width="4.525" height="7.777" transform="translate(3.156 9.791)" fill="#4f280b"/>
        </g>
        <path id="Path_68690" data-name="Path 68690" d="M777.031,1379.01H769.5v-7.52a12.736,12.736,0,0,0-25.471,0v7.52H736.51v-7.52a20.26,20.26,0,0,1,40.521,0Z" transform="translate(-727.826 -1351.231)" fill="#14475f"/>
        <g id="Group_24141" data-name="Group 24141" transform="translate(0 68.301)">
          <rect id="Rectangle_5259" data-name="Rectangle 5259" width="4.525" height="8.486" transform="translate(26.681)" fill="#14475f"/>
          <rect id="Rectangle_5260" data-name="Rectangle 5260" width="24.115" height="4.525" transform="translate(0 11.052)" fill="#14475f"/>
          <rect id="Rectangle_5261" data-name="Rectangle 5261" width="24.12" height="4.525" transform="translate(33.772 11.052)" fill="#14475f"/>
          <path id="Path_68691" data-name="Path 68691" d="M747.763,1389.373a6.894,6.894,0,1,1,6.891-6.891A6.9,6.9,0,0,1,747.763,1389.373Zm0-9.26a2.367,2.367,0,1,0,2.365,2.369A2.371,2.371,0,0,0,747.763,1380.114Z" transform="translate(-718.817 -1369.165)" fill="#14475f"/>
        </g>
      </g>
    </g>
  </g>
</svg>
