<svg xmlns="http://www.w3.org/2000/svg" width="463.207" height="330.992" viewBox="0 0 463.207 330.992">
  <g id="Group_24051" data-name="Group 24051" transform="translate(-976.586 -1278.581)">
    <g id="Group_24036" data-name="Group 24036" transform="translate(1130.908 1279.489)">
      <path id="Path_68436" data-name="Path 68436" d="M1089.605,1294.945l-20.658,11.1v47.867" transform="translate(-955.217 -1249.797)" fill="none" stroke="#e6e7e8" stroke-miterlimit="10" stroke-width="1.817"/>
      <line id="Line_1092" data-name="Line 1092" y1="80.704" transform="translate(78.204 23.413)" fill="none" stroke="#e6e7e8" stroke-miterlimit="10" stroke-width="1.817"/>
      <circle id="Ellipse_772" data-name="Ellipse 772" cx="11.707" cy="11.707" r="11.707" transform="translate(132.994 27.898)" fill="none" stroke="#e6e7e8" stroke-miterlimit="10" stroke-width="1.817"/>
      <path id="Path_68437" data-name="Path 68437" d="M1037.551,1294.945l20.658,11.1v47.867" transform="translate(-1015.533 -1249.797)" fill="none" stroke="#e6e7e8" stroke-miterlimit="10" stroke-width="1.817"/>
      <circle id="Ellipse_773" data-name="Ellipse 773" cx="11.707" cy="11.707" r="11.707" transform="translate(0 27.898)" fill="none" stroke="#e6e7e8" stroke-miterlimit="10" stroke-width="1.817"/>
      <circle id="Ellipse_774" data-name="Ellipse 774" cx="11.707" cy="11.707" r="11.707" transform="translate(66.499)" fill="none" stroke="#e6e7e8" stroke-miterlimit="10" stroke-width="1.817"/>
    </g>
    <g id="Group_24037" data-name="Group 24037" transform="translate(1339.247 1416.195)">
      <path id="Path_68438" data-name="Path 68438" d="M1101.336,1351.8h35.734l18.666-18.666" transform="translate(-1101.336 -1313.146)" fill="none" stroke="#e6e7e8" stroke-miterlimit="10" stroke-width="1.817"/>
      <circle id="Ellipse_775" data-name="Ellipse 775" cx="11.707" cy="11.707" r="11.707" transform="translate(50.971)" fill="none" stroke="#e6e7e8" stroke-miterlimit="10" stroke-width="1.817"/>
      <path id="Path_68439" data-name="Path 68439" d="M1101.336,1363.844h35.734l18.666,18.666" transform="translate(-1101.336 -1254.14)" fill="none" stroke="#e6e7e8" stroke-miterlimit="10" stroke-width="1.817"/>
      <circle id="Ellipse_776" data-name="Ellipse 776" cx="11.707" cy="11.707" r="11.707" transform="translate(50.971 124.942)" fill="none" stroke="#e6e7e8" stroke-miterlimit="10" stroke-width="1.817"/>
      <line id="Line_1093" data-name="Line 1093" x2="76.224" transform="translate(0 74.179)" fill="none" stroke="#e6e7e8" stroke-miterlimit="10" stroke-width="1.817"/>
      <circle id="Ellipse_777" data-name="Ellipse 777" cx="11.707" cy="11.707" r="11.707" transform="translate(76.224 62.471)" fill="none" stroke="#e6e7e8" stroke-miterlimit="10" stroke-width="1.817"/>
    </g>
    <g id="Group_24038" data-name="Group 24038" transform="translate(977.495 1416.195)">
      <path id="Path_68440" data-name="Path 68440" d="M1047.381,1351.8h-35.734l-18.667-18.666" transform="translate(-947.743 -1313.146)" fill="none" stroke="#e6e7e8" stroke-miterlimit="10" stroke-width="1.817"/>
      <circle id="Ellipse_778" data-name="Ellipse 778" cx="11.707" cy="11.707" r="11.707" transform="translate(25.253)" fill="none" stroke="#e6e7e8" stroke-miterlimit="10" stroke-width="1.817"/>
      <path id="Path_68441" data-name="Path 68441" d="M1047.4,1363.844h-35.734l-18.69,18.69" transform="translate(-947.759 -1254.14)" fill="none" stroke="#e6e7e8" stroke-miterlimit="10" stroke-width="1.817"/>
      <circle id="Ellipse_779" data-name="Ellipse 779" cx="11.707" cy="11.707" r="11.707" transform="translate(25.253 124.942)" fill="none" stroke="#e6e7e8" stroke-miterlimit="10" stroke-width="1.817"/>
      <line id="Line_1094" data-name="Line 1094" x1="76.548" transform="translate(23.089 74.179)" fill="none" stroke="#e6e7e8" stroke-miterlimit="10" stroke-width="1.817"/>
      <circle id="Ellipse_780" data-name="Ellipse 780" cx="11.707" cy="11.707" r="11.707" transform="translate(0 62.471)" fill="none" stroke="#e6e7e8" stroke-miterlimit="10" stroke-width="1.817"/>
    </g>
    <g id="Group_24042" data-name="Group 24042" transform="translate(1036.59 1396.333)">
      <g id="Group_24039" data-name="Group 24039" transform="translate(0 8.763)" style="mix-blend-mode: multiply;isolation: isolate">
        <path id="Path_68442" data-name="Path 68442" d="M1006.45,1504.541V1332.859a10.362,10.362,0,0,1,10.37-10.37H1290.15a10.387,10.387,0,0,1,10.385,10.37v171.682Z" transform="translate(-980.963 -1322.489)" fill="#e6e7e8"/>
        <path id="Path_68443" data-name="Path 68443" d="M1342.772,1389.947a17.3,17.3,0,0,1-17.29,17.29H1015.027a17.3,17.3,0,0,1-17.3-17.29v-5.135h345.047Z" transform="translate(-997.725 -1202.76)" fill="#e6e7e8"/>
        <path id="Path_68444" data-name="Path 68444" d="M1118.037,1386.425a6.413,6.413,0,0,1-6.429,6.418h-61.042a6.438,6.438,0,0,1-6.429-6.418v-1.612h73.9Z" transform="translate(-908.565 -1202.76)" fill="#e6e7e8"/>
        <rect id="Rectangle_5093" data-name="Rectangle 5093" width="268.561" height="156.544" transform="translate(38.242 12.753)" fill="#e6e7e8"/>
      </g>
      <g id="Group_24041" data-name="Group 24041">
        <g id="Group_24040" data-name="Group 24040">
          <path id="Path_68445" data-name="Path 68445" d="M1006.45,1501.541V1329.859a10.362,10.362,0,0,1,10.37-10.37H1290.15a10.386,10.386,0,0,1,10.385,10.37v171.682Z" transform="translate(-980.963 -1319.489)" fill="#14475f" opacity="0.8"/>
          <path id="Path_68446" data-name="Path 68446" d="M1342.772,1386.947a17.3,17.3,0,0,1-17.29,17.29H1015.027a17.3,17.3,0,0,1-17.3-17.29v-5.135h345.047Z" transform="translate(-997.725 -1199.76)" fill="#14475f"/>
          <path id="Path_68447" data-name="Path 68447" d="M1118.037,1383.425a6.414,6.414,0,0,1-6.429,6.418h-61.042a6.439,6.439,0,0,1-6.429-6.418v-1.613h73.9Z" transform="translate(-908.565 -1199.76)" fill="#042438"/>
          <path id="Path_76451" data-name="Path 76451" d="M0,0H268.561V156.544H0Z" transform="translate(38.242 12.753)" fill="#0fc2bf"/>
        </g>
      </g>
    </g>
    <g id="Group_24050" data-name="Group 24050" transform="translate(1094.612 1356.869)">
      <g id="Group_24048" data-name="Group 24048">
        <g id="Group_24043" data-name="Group 24043" transform="translate(0 8.763)" opacity="0.1" style="mix-blend-mode: multiply;isolation: isolate">
          <path id="Path_68448" data-name="Path 68448" d="M1246.588,1469.188a8.1,8.1,0,0,1-8.086,8.086H1025.674a8.1,8.1,0,0,1-8.085-8.086V1316.456h229Z" transform="translate(-1017.588 -1294.615)"/>
          <path id="Path_68449" data-name="Path 68449" d="M1246.588,1330.82h-229v-13.756a8.083,8.083,0,0,1,8.085-8.085H1238.5a8.083,8.083,0,0,1,8.086,8.085Z" transform="translate(-1017.588 -1308.979)"/>
          <path id="Path_68450" data-name="Path 68450" d="M1027.864,1314.754a2.832,2.832,0,1,1-2.831-2.833A2.831,2.831,0,0,1,1027.864,1314.754Z" transform="translate(-1008.728 -1303.329)"/>
          <path id="Path_68451" data-name="Path 68451" d="M1030.78,1314.754a2.835,2.835,0,1,1-2.831-2.833A2.835,2.835,0,0,1,1030.78,1314.754Z" transform="translate(-1003.138 -1303.329)"/>
          <path id="Path_68452" data-name="Path 68452" d="M1033.69,1314.754a2.835,2.835,0,1,1-2.831-2.833A2.835,2.835,0,0,1,1033.69,1314.754Z" transform="translate(-997.547 -1303.329)"/>
        </g>
        <g id="Group_24047" data-name="Group 24047">
          <g id="Group_24046" data-name="Group 24046">
            <g id="Group_24044" data-name="Group 24044">
              <path id="Path_68453" data-name="Path 68453" d="M1246.588,1466.188a8.1,8.1,0,0,1-8.086,8.086H1025.674a8.1,8.1,0,0,1-8.085-8.086V1313.456h229Z" transform="translate(-1017.588 -1291.615)" fill="#fff"/>
              <path id="Path_68454" data-name="Path 68454" d="M1246.588,1327.82h-229v-13.756a8.083,8.083,0,0,1,8.085-8.085H1238.5a8.083,8.083,0,0,1,8.086,8.085Z" transform="translate(-1017.588 -1305.979)" fill="#008f8d"/>
            </g>
            <g id="Group_24045" data-name="Group 24045" transform="translate(13.472 8.591)">
              <path id="Path_68455" data-name="Path 68455" d="M1027.864,1311.753a2.832,2.832,0,1,1-2.831-2.833A2.831,2.831,0,0,1,1027.864,1311.753Z" transform="translate(-1022.2 -1308.92)" fill="#fff"/>
              <path id="Path_68456" data-name="Path 68456" d="M1030.78,1311.753a2.835,2.835,0,1,1-2.831-2.833A2.835,2.835,0,0,1,1030.78,1311.753Z" transform="translate(-1016.61 -1308.92)" fill="#fff"/>
              <path id="Path_68457" data-name="Path 68457" d="M1033.69,1311.753a2.835,2.835,0,1,1-2.831-2.833A2.835,2.835,0,0,1,1033.69,1311.753Z" transform="translate(-1011.019 -1308.92)" fill="#fff"/>
            </g>
          </g>
        </g>
      </g>
      <g id="Group_24049" data-name="Group 24049" transform="translate(46.086 65.303)">
        <g id="Rectangle_5095" data-name="Rectangle 5095" fill="#fff" stroke="#707070" stroke-miterlimit="10" stroke-width="1.362">
          <rect width="136.828" height="73.893" stroke="none"/>
          <rect x="-0.681" y="-0.681" width="138.191" height="75.255" fill="none"/>
        </g>
        <text id="API" transform="translate(67.16 58.936)" fill="#008f8d" font-size="61" font-family="Roboto-Bold, Roboto" font-weight="700" letter-spacing="0.05em"><tspan x="-52.136" y="0">API</tspan></text>
      </g>
    </g>
  </g>
</svg>
