<svg xmlns="http://www.w3.org/2000/svg" xmlns:xlink="http://www.w3.org/1999/xlink" width="279.402" height="244.227" viewBox="0 0 279.402 244.227">
  <defs>
    <clipPath id="clip-path">
      <rect id="SVGID" width="86.641" height="99.98" fill="none"/>
    </clipPath>
  </defs>
  <g id="Group_24193" data-name="Group 24193" transform="translate(-508.766 -1878.951)">
    <g id="Group_24170" data-name="Group 24170" transform="translate(508.766 1886.571)" opacity="0.1" style="mix-blend-mode: multiply;isolation: isolate">
      <path id="Path_68750" data-name="Path 68750" d="M774.792,1897.748H522.142a13.633,13.633,0,0,0-13.376,13.883v168.718a13.633,13.633,0,0,0,13.376,13.881h252.65a13.633,13.633,0,0,0,13.376-13.881V1911.631A13.633,13.633,0,0,0,774.792,1897.748Zm-102.543,21.338a3.788,3.788,0,0,1-3.714,3.858H628.4a3.788,3.788,0,0,1-3.714-3.858v-8.222a3.789,3.789,0,0,1,3.714-3.858h40.135a3.789,3.789,0,0,1,3.714,3.858Z" transform="translate(-508.766 -1857.623)"/>
      <rect id="Rectangle_5304" data-name="Rectangle 5304" width="247.468" height="145.482" transform="translate(15.968 75.001)"/>
      <path id="Path_68751" data-name="Path 68751" d="M514.028,2061.141H766.7V1910.455H514.028Zm5.2-145.487H761.5v140.282H519.232Z" transform="translate(-500.662 -1838.054)"/>
      <path id="Path_68752" data-name="Path 68752" d="M599.38,1900.528H559.245a5.584,5.584,0,0,0-5.573,5.573v7.925a5.579,5.579,0,0,0,5.573,5.575H599.38a5.581,5.581,0,0,0,5.573-5.575V1906.1A5.585,5.585,0,0,0,599.38,1900.528Zm1.854,13.5a1.858,1.858,0,0,1-1.854,1.859H559.245a1.858,1.858,0,0,1-1.857-1.859V1906.1a1.857,1.857,0,0,1,1.857-1.857H599.38a1.857,1.857,0,0,1,1.854,1.857Z" transform="translate(-439.61 -1853.342)"/>
      <path id="Path_68753" data-name="Path 68753" d="M587.434,1881.951H561.358a4.771,4.771,0,0,0-4.493,5.011v50.788a4.775,4.775,0,0,0,4.493,5.012h26.076a4.772,4.772,0,0,0,4.488-5.012v-50.788A4.769,4.769,0,0,0,587.434,1881.951ZM574.4,1910.313a9.2,9.2,0,1,1,8.915-9.2A9.064,9.064,0,0,1,574.4,1910.313Z" transform="translate(-434.693 -1881.951)"/>
      <path id="Path_68754" data-name="Path 68754" d="M569.853,1885.315a10.032,10.032,0,1,0,10.028,10.033A10.047,10.047,0,0,0,569.853,1885.315Zm0,17.836a7.8,7.8,0,1,1,7.8-7.8A7.816,7.816,0,0,1,569.853,1903.151Z" transform="translate(-430.147 -1876.77)"/>
      <rect id="Rectangle_5305" data-name="Rectangle 5305" width="35.109" height="10.589" transform="translate(122.147 45.02)"/>
      <path id="Path_68755" data-name="Path 68755" d="M597.3,1969.341h15.337V1954H597.3Zm2.192-3.879V1956.2H610.44v10.953H599.488Z" transform="translate(-372.428 -1770.988)"/>
      <rect id="Rectangle_5306" data-name="Rectangle 5306" width="6.575" height="6.571" transform="translate(229.249 187.398)"/>
      <path id="Path_68756" data-name="Path 68756" d="M585.221,1969.341h15.334V1954H585.221Zm2.189-3.879V1956.2h10.955v10.953H587.41Z" transform="translate(-391.024 -1770.988)"/>
      <rect id="Rectangle_5307" data-name="Rectangle 5307" width="6.571" height="6.571" transform="translate(198.579 187.398)"/>
      <path id="Path_68757" data-name="Path 68757" d="M585.221,1957.263h15.334v-15.334H585.221Zm2.189-3.876v-9.266h10.955v10.953H587.41Z" transform="translate(-391.024 -1789.584)"/>
      <rect id="Rectangle_5308" data-name="Rectangle 5308" width="6.571" height="6.571" transform="translate(198.579 156.727)"/>
      <path id="Path_68758" data-name="Path 68758" d="M597.3,1957.263h15.337v-15.334H597.3Zm2.192-3.876v-9.266H610.44v10.953H599.488Z" transform="translate(-372.428 -1789.584)"/>
      <rect id="Rectangle_5309" data-name="Rectangle 5309" width="6.575" height="6.571" transform="translate(229.249 156.727)"/>
      <rect id="Rectangle_5310" data-name="Rectangle 5310" width="2.192" height="2.191" transform="translate(216.104 152.345)"/>
      <path id="Path_68759" data-name="Path 68759" d="M595.571,1944.12v2.191h2.192v-4.382h-2.192Z" transform="translate(-375.085 -1789.584)"/>
      <rect id="Rectangle_5311" data-name="Rectangle 5311" width="2.189" height="2.19" transform="translate(211.725 156.727)"/>
      <rect id="Rectangle_5312" data-name="Rectangle 5312" width="2.192" height="2.19" transform="translate(216.104 156.727)"/>
      <path id="Path_68760" data-name="Path 68760" d="M595.571,1946.706v2.191h2.192v-4.38h-2.192Z" transform="translate(-375.085 -1785.599)"/>
      <rect id="Rectangle_5313" data-name="Rectangle 5313" width="2.192" height="2.19" transform="translate(220.485 165.49)"/>
      <path id="Path_68761" data-name="Path 68761" d="M590.861,1948.829h-2.189v2.191h2.189v2.19h2.192v-2.19h2.189v-2.191h-4.381Z" transform="translate(-385.71 -1778.958)"/>
      <path id="Path_68762" data-name="Path 68762" d="M595.173,1945.379h-2.189v4.382h2.189v8.763h2.192V1947.57h-2.192Z" transform="translate(-379.069 -1784.271)"/>
      <rect id="Rectangle_5314" data-name="Rectangle 5314" width="2.192" height="2.191" transform="translate(233.631 169.871)"/>
      <path id="Path_68763" data-name="Path 68763" d="M592.122,1950.157v4.381h2.19v-6.572h-2.19Z" transform="translate(-380.397 -1780.286)"/>
      <path id="Path_68764" data-name="Path 68764" d="M587.41,1948.829h-2.189v4.381h2.189v-2.19H589.6v4.381h2.19v-6.573H587.41Z" transform="translate(-391.024 -1778.958)"/>
      <rect id="Rectangle_5315" data-name="Rectangle 5315" width="2.189" height="2.191" transform="translate(207.343 174.252)"/>
      <rect id="Rectangle_5316" data-name="Rectangle 5316" width="2.189" height="2.191" transform="translate(218.296 174.252)"/>
      <path id="Path_68765" data-name="Path 68765" d="M587.41,1953.608h-2.189v2.19H589.6v-4.381H587.41Z" transform="translate(-391.024 -1774.973)"/>
      <path id="Path_68766" data-name="Path 68766" d="M592.19,1951.417H590v2.191h-2.192v2.19h6.573v-2.19H592.19Z" transform="translate(-387.039 -1774.973)"/>
      <path id="Path_68767" data-name="Path 68767" d="M597.763,1948.829h-2.192v2.191h2.192v4.381h-2.192v2.191h2.192v2.19h4.381v-2.19h-2.192v-6.573h2.192v-2.191h-4.381Z" transform="translate(-375.085 -1778.958)"/>
      <path id="Path_68768" data-name="Path 68768" d="M604.731,1954.073v-4.381h-2.19v4.381h-2.193v-4.381h-2.19v6.573h4.382v2.19h4.382v-2.19h-2.192Z" transform="translate(-371.1 -1777.629)"/>
      <path id="Path_68769" data-name="Path 68769" d="M603.8,1951.881v-2.19h-2.189v6.573h4.381v-2.191H603.8Z" transform="translate(-365.786 -1777.629)"/>
      <path id="Path_68770" data-name="Path 68770" d="M591.258,1953.608v2.19h2.193v-4.381h-2.193Z" transform="translate(-381.726 -1774.973)"/>
      <path id="Path_68771" data-name="Path 68771" d="M596.5,1953.608v-2.191h-2.189v4.381h-2.19v2.191h6.571V1955.8H596.5Z" transform="translate(-380.397 -1774.973)"/>
      <rect id="Rectangle_5317" data-name="Rectangle 5317" width="2.192" height="2.191" transform="translate(220.485 183.016)"/>
      <path id="Path_68772" data-name="Path 68772" d="M594.311,1954.867h-2.19v4.379h2.19v-2.189h4.381v-2.19h-4.381Z" transform="translate(-380.397 -1769.659)"/>
      <rect id="Rectangle_5318" data-name="Rectangle 5318" width="2.192" height="2.19" transform="translate(220.485 187.398)"/>
      <rect id="Rectangle_5319" data-name="Rectangle 5319" width="2.189" height="2.193" transform="translate(213.914 189.587)"/>
      <path id="Path_68773" data-name="Path 68773" d="M592.122,1959.643v2.191h2.19v-4.38h-2.19Z" transform="translate(-380.397 -1765.674)"/>
      <path id="Path_68774" data-name="Path 68774" d="M598.227,1957.455h-4.381v2.188h2.192v4.382h2.19v-2.191h2.192v-2.191h-2.192Z" transform="translate(-377.742 -1765.674)"/>
      <rect id="Rectangle_5320" data-name="Rectangle 5320" width="2.189" height="2.191" transform="translate(213.914 196.16)"/>
      <g id="Group_24169" data-name="Group 24169" transform="translate(39.2 98.401)">
        <g id="Group_24168" data-name="Group 24168" clip-path="url(#clip-path)">
          <rect id="Rectangle_5321" data-name="Rectangle 5321" width="86.641" height="107.108"/>
          <path id="Path_68775" data-name="Path 68775" d="M561.4,1944.282H539.04a14.64,14.64,0,0,1,.267,3.274c-.13,3.554-1.6,6.866-3.861,10.142h29.545c-2.268-3.8-3.635-6.827-3.795-10.2A14.987,14.987,0,0,1,561.4,1944.282Z" transform="translate(-506.878 -1884.362)"/>
          <path id="Path_68776" data-name="Path 68776" d="M563.318,1949.327l-22.07,54.308h46.6l-2.87-35.042C584.974,1960.221,576.669,1953.142,563.318,1949.327Z" transform="translate(-497.943 -1876.592)"/>
          <path id="Path_68777" data-name="Path 68777" d="M549.119,1950.032h-.005c-2.421,1.9-5.563,3.958-7.869,3.98v53.371l.175-.414,18.943-45.695,3.31-7.976c-2.794-.808-10.879-6.477-10.879-6.477A47.932,47.932,0,0,1,549.119,1950.032Z" transform="translate(-497.947 -1880.45)"/>
          <path id="Path_68778" data-name="Path 68778" d="M541.248,1954.005v53.386l22.421-54.092c-2.8-.8-10.879-6.477-10.879-6.477S545.556,1953.967,541.248,1954.005Z" transform="translate(-497.943 -1880.45)"/>
          <path id="Path_68779" data-name="Path 68779" d="M525.785,1968.593l-2.87,35.042h46.6l-22.078-54.308C534.091,1953.142,525.785,1960.221,525.785,1968.593Z" transform="translate(-526.176 -1876.592)"/>
          <path id="Path_68780" data-name="Path 68780" d="M532.435,1953.3l22.423,54.092v-53.386c-4.315-.038-11.547-7.183-11.547-7.183S535.232,1952.5,532.435,1953.3Z" transform="translate(-511.515 -1880.45)"/>
          <path id="Path_68781" data-name="Path 68781" d="M549.114,1948.085l-7.869,2.841v54.037l.067.062h.108l18.942-45.7-11.243-11.243Z" transform="translate(-497.947 -1878.504)" opacity="0.1"/>
          <path id="Path_68782" data-name="Path 68782" d="M541.247,1952.876v54.032l7.9-22.4-6.293-26.176,9.933-11.515Z" transform="translate(-497.943 -1880.449)"/>
          <path id="Path_68783" data-name="Path 68783" d="M546.609,1958.337l-6.293,26.176,7.909,22.4v-54.032l-11.509-6.054Z" transform="translate(-504.921 -1880.449)"/>
          <path id="Path_68784" data-name="Path 68784" d="M537.128,1947.556c3.152,2.878,6.9,5.891,10.914,5.891,4.041,0,7.8-3.058,10.975-5.949a14.987,14.987,0,0,1,.206-3.215H536.861A14.64,14.64,0,0,1,537.128,1947.556Z" transform="translate(-504.699 -1884.362)" opacity="0.07"/>
          <path id="Path_68785" data-name="Path 68785" d="M555.127,1928.661a87.239,87.239,0,0,1-15.382-1.367c-4.031,5.258-6.548,12.751-6.548,21.08,0,15.9,9.175,28.778,20.49,28.778s20.483-12.883,20.483-28.778c0-8.107-2.39-15.433-6.236-20.666A86.72,86.72,0,0,1,555.127,1928.661Z" transform="translate(-510.343 -1910.524)"/>
          <path id="Path_68786" data-name="Path 68786" d="M580.591,1928.667c-1.74.2-3.434-.173-3.952,1.732-.173-3.856-11.887-6.434-20.427-3.02-6.281,2.509-11.087-6.249-18.509-4.133-6.856,1.948-11.392,13.175-3.736,21.9,2.278,2.6.594,1.989,4.438,14.349l3.132-12.692c6.627.455,14.128-1.06,18.844-1.657,3.543-.447,14.062-1.077,15.222-6.581l3.317,20.93C580.8,1942.657,588.468,1929.414,580.591,1928.667Z" transform="translate(-515.302 -1917.269)"/>
          <path id="Path_68787" data-name="Path 68787" d="M538.145,1927.427c-1.435-.731-1.641-2.385-4.176-1.46a7.008,7.008,0,0,0-1.491,5.2c.18,1.514.8,1.723,1.011,1.793a5.562,5.562,0,0,1,1.364.668l2.344.16c6.4.442,11.087-2.477,19.388-6.042l-11.7,1.455A14.424,14.424,0,0,1,538.145,1927.427Z" transform="translate(-511.515 -1912.99)"/>
        </g>
      </g>
      <rect id="Rectangle_5322" data-name="Rectangle 5322" width="100.504" height="8.125" transform="translate(139.701 98.401)"/>
      <rect id="Rectangle_5323" data-name="Rectangle 5323" width="100.504" height="8.125" transform="translate(139.701 133.016)"/>
      <rect id="Rectangle_5324" data-name="Rectangle 5324" width="100.504" height="8.125" transform="translate(139.701 113.936)"/>
      <rect id="Rectangle_5325" data-name="Rectangle 5325" width="42.009" height="8.125" transform="translate(139.701 152.096)"/>
      <rect id="Rectangle_5326" data-name="Rectangle 5326" width="42.009" height="8.125" transform="translate(139.701 171.177)"/>
      <rect id="Rectangle_5327" data-name="Rectangle 5327" width="42.009" height="8.125" transform="translate(139.701 190.257)"/>
    </g>
    <g id="Group_24192" data-name="Group 24192" transform="translate(508.766 1878.951)">
      <g id="Group_24189" data-name="Group 24189">
        <path id="Path_68788" data-name="Path 68788" d="M774.792,1894.748H522.142a13.633,13.633,0,0,0-13.376,13.883v168.718a13.634,13.634,0,0,0,13.376,13.882h252.65a13.634,13.634,0,0,0,13.376-13.882V1908.631A13.633,13.633,0,0,0,774.792,1894.748Zm-102.543,21.338a3.789,3.789,0,0,1-3.714,3.858H628.4a3.789,3.789,0,0,1-3.714-3.858v-8.222a3.789,3.789,0,0,1,3.714-3.858h40.135a3.789,3.789,0,0,1,3.714,3.858Z" transform="translate(-508.766 -1854.623)" fill="#14475f"/>
        <g id="Group_24173" data-name="Group 24173" transform="translate(13.366 72.4)">
          <rect id="Rectangle_5328" data-name="Rectangle 5328" width="247.468" height="145.482" transform="translate(2.602 2.601)" fill="#fff"/>
          <path id="Path_68789" data-name="Path 68789" d="M514.028,2058.142H766.7V1907.455H514.028Zm5.2-145.487H761.5v140.282H519.232Z" transform="translate(-514.028 -1907.455)" fill="#b6e1f2"/>
        </g>
        <path id="Path_68790" data-name="Path 68790" d="M599.38,1897.528H559.245a5.583,5.583,0,0,0-5.573,5.573v7.925a5.579,5.579,0,0,0,5.573,5.575H599.38a5.58,5.58,0,0,0,5.573-5.575V1903.1A5.585,5.585,0,0,0,599.38,1897.528Zm1.854,13.5a1.858,1.858,0,0,1-1.854,1.859H559.245a1.858,1.858,0,0,1-1.857-1.859V1903.1a1.857,1.857,0,0,1,1.857-1.857H599.38a1.857,1.857,0,0,1,1.854,1.857Z" transform="translate(-439.61 -1850.342)" fill="#fff"/>
        <path id="Path_68791" data-name="Path 68791" d="M587.434,1878.951H561.358a4.771,4.771,0,0,0-4.493,5.011v50.788a4.775,4.775,0,0,0,4.493,5.012h26.076a4.772,4.772,0,0,0,4.488-5.012v-50.788A4.769,4.769,0,0,0,587.434,1878.951ZM574.4,1907.313a9.2,9.2,0,1,1,8.915-9.2A9.063,9.063,0,0,1,574.4,1907.313Z" transform="translate(-434.693 -1878.951)" fill="#b6e1f2"/>
        <path id="Path_68792" data-name="Path 68792" d="M569.853,1882.315a10.032,10.032,0,1,0,10.028,10.033A10.047,10.047,0,0,0,569.853,1882.315Zm0,17.836a7.8,7.8,0,1,1,7.8-7.8A7.816,7.816,0,0,1,569.853,1900.151Z" transform="translate(-430.147 -1873.77)" fill="#fff"/>
        <rect id="Rectangle_5329" data-name="Rectangle 5329" width="35.109" height="10.589" transform="translate(122.147 45.02)" fill="#caf3ff"/>
        <g id="Group_24188" data-name="Group 24188" transform="translate(39.2 98.401)">
          <g id="Group_24179" data-name="Group 24179" transform="translate(154.997 53.943)">
            <g id="Group_24174" data-name="Group 24174" transform="translate(30.671 30.671)">
              <path id="Path_68793" data-name="Path 68793" d="M597.3,1966.341h15.337V1951H597.3Zm2.192-3.878V1953.2H610.44v10.953H599.488Z" transform="translate(-597.296 -1951.004)" fill="#14475f"/>
              <rect id="Rectangle_5330" data-name="Rectangle 5330" width="6.575" height="6.571" transform="translate(4.381 4.382)" fill="#14475f"/>
            </g>
            <g id="Group_24175" data-name="Group 24175" transform="translate(0 30.671)">
              <path id="Path_68794" data-name="Path 68794" d="M585.221,1966.341h15.334V1951H585.221Zm2.189-3.878V1953.2h10.955v10.953H587.41Z" transform="translate(-585.221 -1951.004)" fill="#14475f"/>
              <rect id="Rectangle_5331" data-name="Rectangle 5331" width="6.571" height="6.571" transform="translate(4.383 4.382)" fill="#14475f"/>
            </g>
            <g id="Group_24176" data-name="Group 24176">
              <path id="Path_68795" data-name="Path 68795" d="M585.221,1954.263h15.334v-15.334H585.221Zm2.189-3.876v-9.266h10.955v10.953H587.41Z" transform="translate(-585.221 -1938.929)" fill="#14475f"/>
              <rect id="Rectangle_5332" data-name="Rectangle 5332" width="6.571" height="6.571" transform="translate(4.383 4.382)" fill="#14475f"/>
            </g>
            <g id="Group_24177" data-name="Group 24177" transform="translate(30.671)">
              <path id="Path_68796" data-name="Path 68796" d="M597.3,1954.263h15.337v-15.334H597.3Zm2.192-3.876v-9.266H610.44v10.953H599.488Z" transform="translate(-597.296 -1938.929)" fill="#14475f"/>
              <rect id="Rectangle_5333" data-name="Rectangle 5333" width="6.575" height="6.571" transform="translate(4.381 4.382)" fill="#14475f"/>
            </g>
            <g id="Group_24178" data-name="Group 24178" transform="translate(0 0)">
              <rect id="Rectangle_5334" data-name="Rectangle 5334" width="2.192" height="2.191" transform="translate(21.907)" fill="#14475f"/>
              <path id="Path_68797" data-name="Path 68797" d="M595.571,1941.12v2.191h2.192v-4.382h-2.192Z" transform="translate(-569.283 -1938.929)" fill="#14475f"/>
              <rect id="Rectangle_5335" data-name="Rectangle 5335" width="2.189" height="2.19" transform="translate(17.528 4.382)" fill="#14475f"/>
              <rect id="Rectangle_5336" data-name="Rectangle 5336" width="2.192" height="2.19" transform="translate(21.907 4.382)" fill="#14475f"/>
              <path id="Path_68798" data-name="Path 68798" d="M595.571,1943.706v2.191h2.192v-4.38h-2.192Z" transform="translate(-569.283 -1934.944)" fill="#14475f"/>
              <rect id="Rectangle_5337" data-name="Rectangle 5337" width="2.192" height="2.19" transform="translate(26.288 13.144)" fill="#14475f"/>
              <path id="Path_68799" data-name="Path 68799" d="M590.861,1945.829h-2.189v2.191h2.189v2.19h2.192v-2.19h2.189v-2.191h-4.381Z" transform="translate(-579.907 -1928.303)" fill="#14475f"/>
              <path id="Path_68800" data-name="Path 68800" d="M595.173,1942.379h-2.189v4.382h2.189v8.763h2.192V1944.57h-2.192Z" transform="translate(-573.266 -1933.617)" fill="#14475f"/>
              <rect id="Rectangle_5338" data-name="Rectangle 5338" width="2.192" height="2.191" transform="translate(39.434 17.526)" fill="#14475f"/>
              <path id="Path_68801" data-name="Path 68801" d="M592.122,1947.157v4.381h2.19v-6.572h-2.19Z" transform="translate(-574.594 -1929.632)" fill="#14475f"/>
              <path id="Path_68802" data-name="Path 68802" d="M587.41,1945.829h-2.189v4.381h2.189v-2.19H589.6v4.381h2.19v-6.573H587.41Z" transform="translate(-585.221 -1928.303)" fill="#14475f"/>
              <rect id="Rectangle_5339" data-name="Rectangle 5339" width="2.189" height="2.191" transform="translate(13.145 21.907)" fill="#14475f"/>
              <rect id="Rectangle_5340" data-name="Rectangle 5340" width="2.189" height="2.191" transform="translate(24.099 21.907)" fill="#14475f"/>
              <path id="Path_68803" data-name="Path 68803" d="M587.41,1950.608h-2.189v2.19H589.6v-4.381H587.41Z" transform="translate(-585.221 -1924.318)" fill="#14475f"/>
              <path id="Path_68804" data-name="Path 68804" d="M592.19,1948.417H590v2.191h-2.192v2.19h6.573v-2.19H592.19Z" transform="translate(-581.236 -1924.318)" fill="#14475f"/>
              <path id="Path_68805" data-name="Path 68805" d="M597.763,1945.829h-2.192v2.191h2.192v4.381h-2.192v2.191h2.192v2.19h4.381v-2.19h-2.192v-6.573h2.192v-2.191h-4.381Z" transform="translate(-569.283 -1928.303)" fill="#14475f"/>
              <path id="Path_68806" data-name="Path 68806" d="M604.731,1951.073v-4.381h-2.19v4.381h-2.193v-4.381h-2.19v6.573h4.382v2.19h4.382v-2.19h-2.192Z" transform="translate(-565.297 -1926.974)" fill="#14475f"/>
              <path id="Path_68807" data-name="Path 68807" d="M603.8,1948.881v-2.19h-2.189v6.573h4.381v-2.191H603.8Z" transform="translate(-559.983 -1926.974)" fill="#14475f"/>
              <path id="Path_68808" data-name="Path 68808" d="M591.258,1950.608v2.19h2.193v-4.381h-2.193Z" transform="translate(-575.924 -1924.318)" fill="#14475f"/>
              <path id="Path_68809" data-name="Path 68809" d="M596.5,1950.608v-2.191h-2.189v4.381h-2.19v2.191h6.571V1952.8H596.5Z" transform="translate(-574.594 -1924.318)" fill="#14475f"/>
              <rect id="Rectangle_5341" data-name="Rectangle 5341" width="2.192" height="2.191" transform="translate(26.288 30.671)" fill="#14475f"/>
              <path id="Path_68810" data-name="Path 68810" d="M594.311,1951.867h-2.19v4.38h2.19v-2.19h4.381v-2.19h-4.381Z" transform="translate(-574.594 -1919.004)" fill="#14475f"/>
              <rect id="Rectangle_5342" data-name="Rectangle 5342" width="2.192" height="2.19" transform="translate(26.288 35.053)" fill="#14475f"/>
              <rect id="Rectangle_5343" data-name="Rectangle 5343" width="2.189" height="2.193" transform="translate(19.717 37.242)" fill="#14475f"/>
              <path id="Path_68811" data-name="Path 68811" d="M592.122,1956.643v2.191h2.19v-4.38h-2.19Z" transform="translate(-574.594 -1915.019)" fill="#14475f"/>
              <path id="Path_68812" data-name="Path 68812" d="M598.227,1954.455h-4.381v2.188h2.192v4.382h2.19v-2.191h2.192v-2.191h-2.192Z" transform="translate(-571.939 -1915.019)" fill="#14475f"/>
              <rect id="Rectangle_5344" data-name="Rectangle 5344" width="2.189" height="2.191" transform="translate(19.717 43.815)" fill="#14475f"/>
            </g>
          </g>
          <g id="Group_24182" data-name="Group 24182">
            <g id="Group_24181" data-name="Group 24181" clip-path="url(#clip-path)">
              <rect id="Rectangle_5345" data-name="Rectangle 5345" width="86.641" height="107.108" fill="#cddfe8"/>
              <g id="Group_24180" data-name="Group 24180" transform="translate(-3.261 5.645)">
                <path id="Path_68813" data-name="Path 68813" d="M561.4,1941.282H539.04a14.644,14.644,0,0,1,.267,3.274c-.13,3.553-1.6,6.866-3.861,10.142h29.545c-2.268-3.805-3.635-6.828-3.795-10.2A14.99,14.99,0,0,1,561.4,1941.282Z" transform="translate(-503.617 -1887.007)" fill="#efc64c"/>
                <path id="Path_68814" data-name="Path 68814" d="M563.318,1946.327l-22.07,54.308h46.6l-2.87-35.042C584.974,1957.221,576.669,1950.142,563.318,1946.327Z" transform="translate(-494.682 -1879.237)" fill="#14475f"/>
                <path id="Path_68815" data-name="Path 68815" d="M549.119,1947.033h-.005c-2.421,1.9-5.563,3.957-7.869,3.98v53.371l.175-.414,18.943-45.695,3.31-7.976c-2.794-.808-10.879-6.477-10.879-6.477A48,48,0,0,1,549.119,1947.033Z" transform="translate(-494.686 -1883.095)" fill="#fff"/>
                <path id="Path_68816" data-name="Path 68816" d="M541.248,1951v53.386l22.421-54.092c-2.8-.8-10.879-6.477-10.879-6.477S545.556,1950.967,541.248,1951Z" transform="translate(-494.682 -1883.095)" fill="#fff"/>
                <path id="Path_68817" data-name="Path 68817" d="M525.785,1965.593l-2.87,35.042h46.6l-22.078-54.308C534.091,1950.142,525.785,1957.221,525.785,1965.593Z" transform="translate(-522.915 -1879.237)" fill="#14475f"/>
                <path id="Path_68818" data-name="Path 68818" d="M532.435,1950.3l22.423,54.092V1951c-4.315-.038-11.547-7.183-11.547-7.183S535.232,1949.5,532.435,1950.3Z" transform="translate(-508.254 -1883.095)" fill="#fff"/>
                <path id="Path_68819" data-name="Path 68819" d="M549.114,1945.085l-7.869,2.841v54.036l.067.062h.108l18.942-45.7-11.243-11.243Z" transform="translate(-494.686 -1881.149)" fill="#231f20" opacity="0.1"/>
                <path id="Path_68820" data-name="Path 68820" d="M541.247,1949.876v54.032l7.9-22.4-6.293-26.176,9.933-11.515Z" transform="translate(-494.683 -1883.094)" fill="#008f8d"/>
                <path id="Path_68821" data-name="Path 68821" d="M546.609,1955.337l-6.293,26.176,7.909,22.4v-54.032l-11.509-6.054Z" transform="translate(-501.66 -1883.094)" fill="#008f8d"/>
                <path id="Path_68822" data-name="Path 68822" d="M537.128,1944.556c3.152,2.877,6.9,5.89,10.914,5.89,4.041,0,7.8-3.058,10.975-5.949a14.99,14.99,0,0,1,.206-3.216H536.861A14.644,14.644,0,0,1,537.128,1944.556Z" transform="translate(-501.438 -1887.007)" opacity="0.07"/>
                <path id="Path_68823" data-name="Path 68823" d="M555.127,1925.66a87.239,87.239,0,0,1-15.382-1.367c-4.031,5.258-6.548,12.751-6.548,21.08,0,15.9,9.175,28.778,20.49,28.778s20.483-12.883,20.483-28.778c0-8.107-2.39-15.433-6.236-20.666A86.72,86.72,0,0,1,555.127,1925.66Z" transform="translate(-507.082 -1913.168)" fill="#efc64c"/>
                <path id="Path_68824" data-name="Path 68824" d="M580.591,1925.667c-1.74.2-3.434-.173-3.952,1.732-.173-3.856-11.887-6.434-20.427-3.02-6.281,2.509-11.087-6.249-18.509-4.133-6.856,1.948-11.392,13.175-3.736,21.905,2.278,2.6.594,1.989,4.438,14.349l3.132-12.692c6.627.455,14.128-1.059,18.844-1.656,3.543-.447,14.062-1.077,15.222-6.581l3.317,20.93C580.8,1939.658,588.468,1926.414,580.591,1925.667Z" transform="translate(-512.041 -1919.914)" fill="#752900"/>
                <path id="Path_68825" data-name="Path 68825" d="M538.145,1924.427c-1.435-.731-1.641-2.385-4.176-1.46a7.009,7.009,0,0,0-1.491,5.2c.18,1.514.8,1.722,1.011,1.793a5.562,5.562,0,0,1,1.364.668l2.344.16c6.4.442,11.087-2.477,19.388-6.042l-11.7,1.456A14.424,14.424,0,0,1,538.145,1924.427Z" transform="translate(-508.254 -1915.635)" fill="#943400"/>
              </g>
            </g>
          </g>
          <rect id="Rectangle_5346" data-name="Rectangle 5346" width="100.504" height="8.125" transform="translate(100.501)" fill="#d0d2d3"/>
          <g id="Group_24183" data-name="Group 24183" transform="translate(100.501 34.615)">
            <rect id="Rectangle_5347" data-name="Rectangle 5347" width="100.504" height="8.125" fill="#e6e7e8"/>
          </g>
          <g id="Group_24184" data-name="Group 24184" transform="translate(100.501 15.535)">
            <rect id="Rectangle_5348" data-name="Rectangle 5348" width="100.504" height="8.125" fill="#e6e7e8"/>
          </g>
          <g id="Group_24185" data-name="Group 24185" transform="translate(100.501 53.695)">
            <rect id="Rectangle_5349" data-name="Rectangle 5349" width="42.009" height="8.125" fill="#e6e7e8"/>
          </g>
          <g id="Group_24186" data-name="Group 24186" transform="translate(100.501 72.776)">
            <rect id="Rectangle_5350" data-name="Rectangle 5350" width="42.009" height="8.125" fill="#e6e7e8"/>
          </g>
          <g id="Group_24187" data-name="Group 24187" transform="translate(100.501 91.856)">
            <rect id="Rectangle_5351" data-name="Rectangle 5351" width="42.009" height="8.125" fill="#e6e7e8"/>
          </g>
        </g>
      </g>
    </g>
  </g>
</svg>
