<svg xmlns="http://www.w3.org/2000/svg" width="406.184" height="406.398" viewBox="0 0 406.184 406.398">
  <g id="Group_3293" data-name="Group 3293" transform="translate(-5369.109 30.502)">
    <path id="Path_17146" data-name="Path 17146" d="M5881.516,525.082a286.185,286.185,0,0,1-13.054-40.643c-3.215-13.741-5.156-27.627-4.572-41.774.6-14.646,3.7-28.674,12.242-40.838a135.223,135.223,0,0,1,14.133-16.454c20.009-20.475,40.274-40.7,60.291-61.166,8.28-8.466,19.571-6.816,26.47-1.7,3.734,2.767,6.762,10.441,4.146,15.891a54.143,54.143,0,0,1-10.083,15.1q-18.466,18.587-37.04,37.068c-2.353,2.353-2.565,5.589-.521,7.7,2.187,2.259,5.333,2.1,7.844-.446,16.861-17.065,33.845-34.013,50.511-51.267,6.948-7.193,11.771-15.939,15.512-25.212a208.66,208.66,0,0,0,12.667-43.245,15.174,15.174,0,0,1,6.218-10.051c4.554-3.388,9.348-5.77,15.295-4.483a16.817,16.817,0,0,1,12.711,14.123,23.485,23.485,0,0,1-.377,9.4c-5.607,20.669-11.46,41.271-17.286,61.88a17.541,17.541,0,0,1-1.989,4.527,153.966,153.966,0,0,1-21.488,27.239q-24.333,24.248-48.6,48.56c-9.913,9.991-14.878,22.093-14.525,36.244a3.509,3.509,0,0,1-1.353,3.148q-33.125,27.827-66.19,55.724C5882.254,524.587,5882.009,524.735,5881.516,525.082Z" transform="translate(-279.29 -165.824)" fill="#14475f"/>
    <path id="Path_17147" data-name="Path 17147" d="M5542.307,525.343c-11.306-9.555-22.363-18.923-33.444-28.261q-16.711-14.08-33.477-28.093a3.743,3.743,0,0,1-1.477-3.3c.053-14.129-4.653-26.374-14.728-36.432-17.543-17.516-35.182-34.938-52.569-52.6a117.357,117.357,0,0,1-18.352-24.722,24.834,24.834,0,0,1-1.792-5.555q-8.373-29.779-16.707-59.57c-2.514-9.02,2.485-19.8,10.62-22.453a15.942,15.942,0,0,1,7.423-.507,19.176,19.176,0,0,1,15.44,15.6A212.02,212.02,0,0,0,5418.9,329a68.235,68.235,0,0,0,14.308,20.07q24.722,24.483,49.368,49.042c2.371,2.356,4.948,2.626,7.364.8,2.7-2.038,2.879-5.188.391-7.682q-14.593-14.622-29.212-29.22-4.381-4.382-8.764-8.766a43.847,43.847,0,0,1-9.479-14.441c-3.07-7.446.692-15.542,8.173-18.5,4.981-1.971,9.952-2.708,15-.741a16.51,16.51,0,0,1,5.69,3.456c23.344,23.6,46.707,47.189,69.814,71.022,10.9,11.243,15.97,25.326,17.808,40.665,2.354,19.62-.611,38.763-5.9,57.559-3.012,10.708-6.983,21.146-10.532,31.7C5542.8,524.366,5542.586,524.736,5542.307,525.343Z" transform="translate(0 -166.063)" fill="#14475f"/>
    <path id="Path_17148" data-name="Path 17148" d="M5978.308,708.308l7.421,8.485c-19.621,19.621-39.691,39.688-59.616,59.612l-12.584-12.672Z" transform="translate(-307.374 -401.254)" fill="#14475f"/>
    <path id="Path_17149" data-name="Path 17149" d="M5662.828,802.118l-12.612,12.6L5590.3,754.79l8.188-8.055Z" transform="translate(-124.884 -438.821)" fill="#14475f"/>
    <path id="Path_17150" data-name="Path 17150" d="M5634.765,12.454c-.027-2.71.845-4.239,3.415-5.372,27.947-12.313,55.826-24.782,83.8-37.034a8.539,8.539,0,0,1,6.153.047c27.435,12.035,54.775,24.28,82.177,36.39,3.39,1.5,4.871,3.639,4.841,7.438-.148,19.852.152,39.711-.165,59.56-.82,51.291-37.986,100.763-85.855,114.4a15.348,15.348,0,0,1-8.493-.053c-45.048-14.806-71.781-46.733-82.447-91.88C5634.357,79.722,5634.873,23.482,5634.765,12.454Zm76.57,117c.854-.754,1.427-1.209,1.942-1.724q32.14-32.132,64.268-64.277a22.585,22.585,0,0,0,1.793-1.944,11.326,11.326,0,0,0-.761-15.239,11.025,11.025,0,0,0-15.189-.508c-1.241,1.028-2.342,2.23-3.485,3.374-16.114,16.116-32.224,32.236-49.131,49.15a33.907,33.907,0,0,0-2.981-4.119c-6.814-6.913-13.616-13.842-20.6-20.578a11.142,11.142,0,0,0-15.882-.116,10.842,10.842,0,0,0-.442,15.5C5684.127,102.519,5697.654,115.808,5711.335,129.45Z" transform="translate(-149.987 0)" fill="#14475f"/>
  </g>
</svg>
