<svg xmlns="http://www.w3.org/2000/svg" width="309.228" height="277.774" viewBox="0 0 309.228 277.774">
  <g id="Group_619" data-name="Group 619" transform="translate(-773.022 -907.869)">
    <path id="Path_1412" data-name="Path 1412" d="M948.076,1128.861s-121.054-.73-121.054.823,121.054.823,121.054.823c.492,0,.9-.184.9-.408v-.831C948.971,1129.045,948.568,1128.861,948.076,1128.861Z" fill="#14475f"/>
    <ellipse id="Ellipse_204" data-name="Ellipse 204" cx="33.583" cy="0.979" rx="33.583" ry="0.979" transform="translate(961.085 1129.684)" fill="#14475f"/>
    <g id="Group_618" data-name="Group 618">
      <rect id="Rectangle_158" data-name="Rectangle 158" width="61.887" height="11.018" transform="translate(852.604 1078.842)" fill="#14475f"/>
      <rect id="Rectangle_159" data-name="Rectangle 159" width="61.887" height="11.018" transform="translate(910.851 957.748)" fill="#14475f"/>
      <rect id="Rectangle_160" data-name="Rectangle 160" width="80.027" height="11.018" transform="translate(892.711 935.712)" fill="#14475f"/>
      <path id="Path_1413" data-name="Path 1413" d="M834.8,1121.762V937.05l.017-.017,21.817-.187V915.219l.018-.018H990.54v101.06c1.215-.115,2.444-.18,3.689-.18,1.19,0,2.4.055,3.591.164l.048.005V907.869H853.619l-26.146,26.148v195.071h122.6a17.462,17.462,0,0,1-1.679-7.326Z" fill="#14475f"/>
      <path id="Path_1414" data-name="Path 1414" d="M852.6,1067.824h97.764a17.8,17.8,0,0,1,5.107-6.024v-4.994H852.6Z" fill="#14475f"/>
      <path id="Path_1415" data-name="Path 1415" d="M852.6,1034.771v11.018H956.552a38.533,38.533,0,0,1,4.533-11.018Z" fill="#14475f"/>
      <path id="Path_1416" data-name="Path 1416" d="M852.6,1023.854H970.976q.863-.648,1.762-1.249v-9.769H852.6Z" fill="#14475f"/>
      <path id="Path_1417" data-name="Path 1417" d="M1024.175,1067.266v-12c0-15.537-11.681-28.837-27.154-30.246q-1.409-.127-2.792-.127a29.98,29.98,0,0,0-29.946,29.946v12.431a8.823,8.823,0,0,0-7.084,8.618v45.737a8.8,8.8,0,0,0,8.8,8.8h56.47a8.8,8.8,0,0,0,8.8-8.8v-45.737A8.822,8.822,0,0,0,1024.175,1067.266Zm-21.228,46.741a1.757,1.757,0,0,1-1.69,2.242H987.184a1.758,1.758,0,0,1-1.691-2.242l2.814-9.849a12.225,12.225,0,0,1-6.355-11.856,12.359,12.359,0,0,1,10.858-11.157,12.724,12.724,0,0,1,1.41-.079,12.3,12.3,0,0,1,5.914,23.092Zm7.06-46.7H978.451v-11.932a15.983,15.983,0,0,1,15.772-16.215q.565,0,1.14.041a15.832,15.832,0,0,1,14.644,15.792Z" fill="#14475f"/>
    </g>
  </g>
</svg>
