<svg xmlns="http://www.w3.org/2000/svg" width="230" height="214.93" viewBox="0 0 230 214.93">
  <g id="Group_557" data-name="Group 557" transform="translate(-801.223 -903.785)">
    <path id="Path_1336" data-name="Path 1336" d="M822.344,1015.456a23.74,23.74,0,0,0,46.481,9.678l3.9-35.754c-12.808-6.95-8.115,21.858-30.238,17.083C827.291,1003.175,823.15,1012.9,822.344,1015.456Z" fill="#14475f"/>
    <path id="Path_1337" data-name="Path 1337" d="M957.81,985.614c-1.106-2.452-6.248-11.677-21-6.775-21.494,7.148-19.939-22-31.909-13.712l7.726,35.11a23.745,23.745,0,0,0,45.182-14.623Z" fill="#14475f"/>
    <path id="Path_1338" data-name="Path 1338" d="M858.913,916.763a6.493,6.493,0,1,0-6.844-6.131A6.5,6.5,0,0,0,858.913,916.763Z" fill="#14475f"/>
    <path id="Path_1339" data-name="Path 1339" d="M884.008,928.1a6.494,6.494,0,1,0-6.845-6.135A6.5,6.5,0,0,0,884.008,928.1Z" fill="#14475f"/>
    <path id="Path_1340" data-name="Path 1340" d="M861.425,926.721a6.494,6.494,0,1,0,6.848,6.132A6.5,6.5,0,0,0,861.425,926.721Z" fill="#14475f"/>
    <path id="Path_1341" data-name="Path 1341" d="M972.763,1011.031a42.192,42.192,0,0,0,2.138-32.746l-26.215-60.593-69.7,23.192,4.656,18.949-59.575-12.879-19.645,63.551a41.9,41.9,0,0,0,26.893,48.486l-6.725,31.089-16.41-3.539a5.741,5.741,0,0,0-2.421,11.223l21.969,4.745c.016,0,.024.014.035.014s.054,0,.079.009l21.976,4.744a5.741,5.741,0,1,0,2.419-11.224L835.81,1092.5l6.7-30.96c1.1.089,2.2.177,3.3.177a42.547,42.547,0,0,0,41.328-33.792l4.657-34.913,3.058,12.438a42.2,42.2,0,0,0,40.089,28.931,41.571,41.571,0,0,0,7.773-.8l10.007,30.094-15.925,5.293a5.739,5.739,0,0,0,1.807,11.187,5.619,5.619,0,0,0,1.812-.293l14.682-4.881v-6.368a16.2,16.2,0,0,1,6.508-12.938V1054l-8.024-24.13A41.825,41.825,0,0,0,972.763,1011.031Zm-96.924,14.93a31.191,31.191,0,0,1-36.6,23.569h-.01a30.822,30.822,0,0,1-23.719-36.113L831.919,960.4l51.169,11.066Zm68.84-4.646a30.754,30.754,0,0,1-38.8-19.043l-13.219-53.839,49.68-16.526,21.851,50.467a30.781,30.781,0,0,1-19.507,38.941Z" fill="#14475f"/>
    <path id="Path_1342" data-name="Path 1342" d="M1024.716,1060.7v-11.027c0-14.273-10.732-26.492-24.946-27.786q-1.293-.117-2.565-.117a27.542,27.542,0,0,0-27.51,27.511V1060.7a8.106,8.106,0,0,0-6.508,7.917v42.017a8.081,8.081,0,0,0,8.08,8.081h51.876a8.08,8.08,0,0,0,8.08-8.081v-42.017A8.106,8.106,0,0,0,1024.716,1060.7Zm-19.5,42.939a1.613,1.613,0,0,1-1.553,2.06H990.733a1.613,1.613,0,0,1-1.553-2.06l2.585-9.047a11.231,11.231,0,0,1-5.838-10.892,11.355,11.355,0,0,1,9.974-10.25,11.884,11.884,0,0,1,1.3-.072,11.3,11.3,0,0,1,5.433,21.214Zm6.485-42.9H982.71v-10.961a14.683,14.683,0,0,1,14.49-14.9q.519,0,1.047.038a14.541,14.541,0,0,1,13.453,14.507Z" fill="#14475f"/>
  </g>
</svg>
