<svg xmlns="http://www.w3.org/2000/svg" width="273.682" height="206.559" viewBox="0 0 273.682 206.559">
  <g id="Group_708" data-name="Group 708" transform="translate(-757.577 -941.456)">
    <path id="Path_1526" data-name="Path 1526" d="M829.022,1050.8a3.575,3.575,0,0,0-4.441-2.427l-30.9,9.062a3.579,3.579,0,0,0,2.014,6.868l30.9-9.062A3.575,3.575,0,0,0,829.022,1050.8Z" fill="#14475f"/>
    <path id="Path_1527" data-name="Path 1527" d="M869.223,1035.286l-30.906,9.062a3.579,3.579,0,1,0,2.014,6.868l30.905-9.062a3.578,3.578,0,0,0-2.013-6.868Z" fill="#14475f"/>
    <path id="Path_1528" data-name="Path 1528" d="M822.748,1067.559l-6.868,2.013a3.579,3.579,0,1,0,2.014,6.868l6.868-2.014a3.578,3.578,0,1,0-2.014-6.867Z" fill="#14475f"/>
    <path id="Path_1529" data-name="Path 1529" d="M834.057,1067.972a3.574,3.574,0,0,0,4.44,2.427l3.434-1.007a3.578,3.578,0,0,0-2.013-6.868l-3.434,1.007A3.574,3.574,0,0,0,834.057,1067.972Z" fill="#14475f"/>
    <path id="Path_1530" data-name="Path 1530" d="M860.521,1056.483l-6.868,2.014a3.579,3.579,0,0,0,2.014,6.868l6.868-2.014a3.579,3.579,0,1,0-2.014-6.868Z" fill="#14475f"/>
    <path id="Path_1531" data-name="Path 1531" d="M872.111,1054.166a3.63,3.63,0,0,0,1.43,4.877,3.593,3.593,0,1,0-1.43-4.877Z" fill="#14475f"/>
    <path id="Path_1532" data-name="Path 1532" d="M823.553,1087.46c-6.376,6.121-6.712,14.349-5.355,22.386q-2.655-1.156-5.308-2.322c-4.2-1.834-7.667,4.43-3.432,6.28q6,2.621,12,5.248c2.832,1.239,5.968-.963,5.15-4.147-1.931-7.515-4.167-16.465,2.15-22.531C832.089,1089.179,826.879,1084.269,823.553,1087.46Z" fill="#14475f"/>
    <path id="Path_1533" data-name="Path 1533" d="M831.7,1102.521c8.471,5.1,16.13.528,22.262-5.562a14.68,14.68,0,0,0,6.9,1.955c3.452.211,12.807-8.3,13.991-7.395,3.619,2.78,8.581-2.389,4.913-5.207-2.038-1.558-4.021-2.777-6.739-2.2-5.114,1.09-11.6,10.768-17.009,5.48a3.6,3.6,0,0,0-5.059.145c-3.988,4.409-9.085,10.566-15.829,6.505C831.167,1093.857,827.75,1100.147,831.7,1102.521Z" fill="#14475f"/>
    <path id="Path_1534" data-name="Path 1534" d="M800.866,1132.832l-24.953-85.1,192.3-56.384,12.127,41.36A39.493,39.493,0,0,1,987.3,1031L975.081,989.33l-10.069-34.339-.789-2.689A15.108,15.108,0,0,0,945.5,942.067L768.423,993.988a15.108,15.108,0,0,0-10.235,18.726l.789,2.69,10.068,34.338,24.953,85.1a15.11,15.11,0,0,0,18.727,10.236l133.4-39.115v-7.459l-135.415,39.705A7.939,7.939,0,0,1,800.866,1132.832ZM765.844,1013.39l-.788-2.689a7.94,7.94,0,0,1,5.381-9.845l177.073-51.92a7.94,7.94,0,0,1,9.846,5.38l.788,2.689Z" fill="#14475f"/>
    <path id="Path_1535" data-name="Path 1535" d="M953.482,1052.783a8.276,8.276,0,0,0,1.831-7.935l-.671-2.291a8.3,8.3,0,0,0-4.481-5.193c-3.137-6.158-9.627-11.912-23-7.991-.525.155-1.038.328-1.527.516a10.832,10.832,0,0,1-7.092.446,8.146,8.146,0,0,1-2.3-1.043,4.182,4.182,0,0,0-6.018,1.567,4.059,4.059,0,0,0-.07,3.309c.358.854.811,1.839,1.369,2.9a9.891,9.891,0,0,1,.872,1.881c.005.129-.066.613-.124,1-.089.585-.2,1.308-.3,2.257a27.034,27.034,0,0,0,.114,6.381,8.287,8.287,0,0,0-.93,6.721l.671,2.29a8.286,8.286,0,0,0,5.827,5.69,18.443,18.443,0,0,0,9.965,7.494l-6.478,5.953a11.393,11.393,0,0,0-2.89,11.278l0,.017-6.867,2.014-18.124-61.811,61.811-18.123,9.555,32.589a40.143,40.143,0,0,1,5.971-5.073l-10.672-36.4-75.546,22.15,22.15,75.547,14.942-4.381,25.339-7.429a18.22,18.22,0,0,1,6.6-9.6v-7.155a40.018,40.018,0,0,1,.323-4.986l-4.617-.872A18.433,18.433,0,0,0,953.482,1052.783Z" fill="#14475f"/>
    <path id="Path_1536" data-name="Path 1536" d="M1023.982,1083.139v-12.333c0-15.961-12-29.624-27.9-31.072q-1.448-.132-2.869-.131a30.8,30.8,0,0,0-30.764,30.765v12.771a9.064,9.064,0,0,0-7.278,8.853v46.987a9.037,9.037,0,0,0,9.036,9.036h58.012a9.036,9.036,0,0,0,9.036-9.036v-46.987A9.063,9.063,0,0,0,1023.982,1083.139Zm-21.808,48.017a1.8,1.8,0,0,1-1.737,2.3H985.98a1.8,1.8,0,0,1-1.737-2.3l2.891-10.117a12.557,12.557,0,0,1-6.529-12.18,12.7,12.7,0,0,1,11.154-11.462,13.227,13.227,0,0,1,1.449-.082,12.636,12.636,0,0,1,6.075,23.724Zm7.253-47.979H977.008v-12.258a16.419,16.419,0,0,1,16.2-16.657q.581,0,1.172.042a16.263,16.263,0,0,1,15.044,16.223Z" fill="#14475f"/>
  </g>
</svg>
