<svg xmlns="http://www.w3.org/2000/svg" width="204.237" height="223.631" viewBox="0 0 204.237 223.631">
  <g id="Group_589" data-name="Group 589" transform="translate(-827.022 -905.679)">
    <path id="Path_1383" data-name="Path 1383" d="M957.52,973.66a3.342,3.342,0,0,0,.065-4.729,13.772,13.772,0,0,0-1.29-1.313q-20.322-19.383-40.654-38.759c-2.429-2.312-4.208-2.368-6.65-.048q-20.583,19.554-41.1,39.18c-2.164,2.067-2.4,4.28-.655,5.867,2.008,1.83,3.889,1.211,5.669-.488,1.564-1.494,3.186-2.929,5.244-4.813,0,10.979,0,21.194,0,31.408,0,5.7.751,6.464,6.574,6.466q27.779.006,55.557-.008c5.258,0,6.085-.813,6.087-5.97,0-10.413,0-20.828,0-32.044,2.473,2.293,4.254,4.123,6.224,5.719A3.319,3.319,0,0,0,957.52,973.66ZM916.4,998.814h-8.1V980.753h8.1Zm22.6.035H924.041q0-2.852,0-5.7c0-5.113.045-10.225-.035-15.335-.049-3.2-1.36-4.49-4.481-4.517q-7.206-.067-14.414.012c-3.225.037-4.41,1.2-4.438,4.472-.058,6.934-.018,13.868-.018,21.125H885.529c0-1.833,0-3.537,0-5.242,0-9.713-.086-19.426.072-29.135a6.993,6.993,0,0,1,1.826-4.447c7.481-7.407,15.131-14.645,22.735-21.929.652-.626,1.36-1.192,2.206-1.929,6.256,6.032,12.061,12.434,18.7,17.8,6.418,5.184,8.081,10.121,8.081,19.227C939.151,981.957,938.993,990.177,938.993,998.849Z" fill="#14475f"/>
    <rect id="Rectangle_137" data-name="Rectangle 137" width="61.922" height="11.024" transform="translate(883.128 1089.595)" fill="#14475f"/>
    <rect id="Rectangle_138" data-name="Rectangle 138" width="61.922" height="11.024" transform="translate(883.128 1025.735)" fill="#14475f"/>
    <path id="Path_1384" data-name="Path 1384" d="M947.636,1119.691H834.355V934.876l.019-.019,21.827-.187V913.03l.019-.019H990.181v101.1c1.222-.116,2.459-.181,3.71-.181,1.2,0,2.42.056,3.623.165V905.679H853.182l-26.16,26.161v195.184h121.9a17.65,17.65,0,0,1-1.281-6.59Z" fill="#14475f"/>
    <path id="Path_1385" data-name="Path 1385" d="M852.167,1057.809H954.784v-4.77a39.187,39.187,0,0,1,.507-6.254H852.167Z" fill="#14475f"/>
    <path id="Path_1386" data-name="Path 1386" d="M852.167,1078.571h95.469v-4.291a17.569,17.569,0,0,1,1.347-6.733H852.167Z" fill="#14475f"/>
    <path id="Path_1387" data-name="Path 1387" d="M1024.111,1065.583V1053.47c0-15.679-11.789-29.1-27.4-30.522q-1.422-.129-2.818-.128a30.254,30.254,0,0,0-30.219,30.219v12.544a8.9,8.9,0,0,0-7.148,8.7v46.154a8.875,8.875,0,0,0,8.875,8.876h56.984a8.876,8.876,0,0,0,8.876-8.876V1074.28A8.9,8.9,0,0,0,1024.111,1065.583Zm-21.422,47.167a1.772,1.772,0,0,1-1.706,2.262h-14.2a1.772,1.772,0,0,1-1.706-2.262l2.84-9.938a12.335,12.335,0,0,1-6.413-11.965,12.47,12.47,0,0,1,10.956-11.258,12.729,12.729,0,0,1,1.424-.08,12.412,12.412,0,0,1,5.967,23.3Zm7.124-47.128H977.969v-12.041a16.128,16.128,0,0,1,15.916-16.362c.381,0,.764.013,1.151.041a15.974,15.974,0,0,1,14.777,15.936Z" fill="#14475f"/>
  </g>
</svg>
