<svg xmlns="http://www.w3.org/2000/svg" width="245.211" height="264.484" viewBox="0 0 245.211 264.484">
  <g id="Group_891" data-name="Group 891" transform="translate(-785.81 -912.732)">
    <path id="Path_2582" data-name="Path 2582" d="M818.138,1063.806a45.321,45.321,0,0,0,27.432,22.881,90.049,90.049,0,0,1-7.765-22.881Z" fill="#14475f"/>
    <path id="Path_2583" data-name="Path 2583" d="M857.144,1088.648c.45.012.869.132,1.321.132s.871-.12,1.319-.132a75.858,75.858,0,0,0,10.064-24.842H847.082A76.02,76.02,0,0,0,857.144,1088.648Z" fill="#14475f"/>
    <path id="Path_2584" data-name="Path 2584" d="M881.17,1043.37a106.058,106.058,0,0,1-.654,11.353h21.747a40.777,40.777,0,0,0,0-22.7H880.53A107.45,107.45,0,0,1,881.17,1043.37Z" fill="#14475f"/>
    <path id="Path_2585" data-name="Path 2585" d="M871.348,1000.049a88.209,88.209,0,0,1,7.807,22.887h19.638A45.333,45.333,0,0,0,871.348,1000.049Z" fill="#14475f"/>
    <path id="Path_2586" data-name="Path 2586" d="M859.8,998.1c-.454-.014-.878-.135-1.334-.135s-.874.12-1.322.132a75.351,75.351,0,0,0-10.072,24.842h22.79A75.461,75.461,0,0,0,859.8,998.1Z" fill="#14475f"/>
    <path id="Path_2587" data-name="Path 2587" d="M844.843,1043.37a96.131,96.131,0,0,0,.723,11.353h25.8a96.578,96.578,0,0,0,.721-11.353,97.873,97.873,0,0,0-.712-11.351h-25.82A96.987,96.987,0,0,0,844.843,1043.37Z" fill="#14475f"/>
    <path id="Path_2588" data-name="Path 2588" d="M845.584,1000.049a45.336,45.336,0,0,0-27.446,22.887h19.645A88.531,88.531,0,0,1,845.584,1000.049Z" fill="#14475f"/>
    <path id="Path_2589" data-name="Path 2589" d="M835.761,1043.37a107.164,107.164,0,0,1,.643-11.351H814.668a40.777,40.777,0,0,0,0,22.7h21.749A105.521,105.521,0,0,1,835.761,1043.37Z" fill="#14475f"/>
    <path id="Path_2590" data-name="Path 2590" d="M871.366,1086.687a45.335,45.335,0,0,0,27.427-22.883H879.128A89.779,89.779,0,0,1,871.366,1086.687Z" fill="#14475f"/>
    <path id="Path_2591" data-name="Path 2591" d="M923.378,1161.368c-.444.032-.887.067-1.339.067h-31.33l32.969,8.835a20.616,20.616,0,0,1-.3-3.373Z" fill="#14475f"/>
    <path id="Path_2592" data-name="Path 2592" d="M1017.553,941.562,912.284,913.356A18.163,18.163,0,0,0,890.039,926.2l-9.494,35.434h41.494a18.041,18.041,0,0,1,13.889,6.587l15.846,4.246,29.9-27.876,8.37,2.243L971.306,977.7l14.789,3.963,11.359-6.677,5.581,1.495-8.809,13.341.957,15.958-5.58-1.5-6.5-11.46-14.788-3.963.793,36.1-8.37-2.243-11.955-39.091c-2.921-.782-5.834-1.562-8.581-2.3V1062.1a45.62,45.62,0,0,1,24.3-17.223l-2.653-.709,2.342-8.773,8.78,2.351-1.521,5.7a45.705,45.705,0,0,1,5.7-.37c1.244,0,2.5.059,3.753.16l.844-3.136,8.771,2.349-.655,2.435a44.634,44.634,0,0,1,8.473,3.463l.954-3.546,8.788,2.288,22.314-83.279A18.167,18.167,0,0,0,1017.553,941.562Zm-64.482,100.253-8.771-2.351,2.359-8.771,8.771,2.351Z" fill="#14475f"/>
    <path id="Path_2593" data-name="Path 2593" d="M922.038,970.716H785.81v181.638H922.038a9.125,9.125,0,0,0,1.34-.11v-39.007a20.665,20.665,0,0,1,7.742-16.071V979.8A9.092,9.092,0,0,0,922.038,970.716Zm-18.163,163.473H813.056v-9.081h90.819Zm-45.41-36.327a54.491,54.491,0,1,1,54.491-54.492A54.491,54.491,0,0,1,858.465,1097.862Z" fill="#14475f"/>
    <path id="Path_2594" data-name="Path 2594" d="M1012.29,1103.126v-14.084c0-18.228-13.7-33.832-31.859-35.485q-1.652-.15-3.275-.149a35.174,35.174,0,0,0-35.134,35.134v14.584a10.353,10.353,0,0,0-8.311,10.111v53.66a10.319,10.319,0,0,0,10.319,10.319h66.252A10.319,10.319,0,0,0,1020.6,1166.9v-53.66A10.353,10.353,0,0,0,1012.29,1103.126Zm-24.9,54.838a2.06,2.06,0,0,1-1.983,2.63H968.891a2.06,2.06,0,0,1-1.984-2.63l3.3-11.555a14.342,14.342,0,0,1-7.456-13.91,14.5,14.5,0,0,1,12.738-13.09,14.962,14.962,0,0,1,1.655-.092,14.43,14.43,0,0,1,6.938,27.092Zm8.283-54.793H958.645v-14a18.751,18.751,0,0,1,18.5-19.024q.663,0,1.338.048a18.574,18.574,0,0,1,17.181,18.528Z" fill="#14475f"/>
  </g>
</svg>
