<svg width="231" height="213" viewBox="0 0 231 213" fill="none" xmlns="http://www.w3.org/2000/svg">
<path d="M77.1109 52.771C76.2901 52.771 75.4877 53.0144 74.8052 53.4705C74.1227 53.9265 73.5908 54.5747 73.2767 55.3331C72.9626 56.0914 72.8806 56.9259 73.0408 57.731C73.201 58.536 73.5963 59.2755 74.1768 59.8558C74.7573 60.4362 75.4968 60.8313 76.3019 60.9913C77.107 61.1513 77.9415 61.0691 78.6998 60.7548C79.4581 60.4406 80.1061 59.9085 80.562 59.2259C81.0179 58.5433 81.2611 57.7408 81.2609 56.92C81.2604 55.8196 80.823 54.7645 80.0448 53.9865C79.2666 53.2084 78.2113 52.7713 77.1109 52.771V52.771Z" fill="#14475f"/>
<path d="M57.415 148.538V138.248C57.455 131.805 55.0923 125.579 50.788 120.784C46.4837 115.99 40.5469 112.972 34.137 112.32C33.3323 112.247 32.5347 112.211 31.744 112.211C24.938 112.219 18.4129 114.926 13.6003 119.738C8.78776 124.551 6.08067 131.076 6.073 137.882V148.538C4.3648 148.881 2.82752 149.804 1.72101 151.15C0.614492 152.496 0.0065889 154.183 0 155.925V195.133C-8.71023e-09 196.123 0.195042 197.104 0.573975 198.018C0.952907 198.933 1.50833 199.764 2.2085 200.464C2.90866 201.164 3.73987 201.72 4.65466 202.098C5.56945 202.477 6.54986 202.672 7.53998 202.672H55.947C56.9371 202.672 57.9175 202.477 58.8323 202.098C59.7471 201.72 60.5783 201.164 61.2785 200.464C61.9787 199.764 62.5341 198.933 62.913 198.018C63.292 197.104 63.487 196.123 63.487 195.133V155.925C63.4805 154.183 62.8727 152.496 61.7664 151.15C60.66 149.804 59.123 148.882 57.415 148.538V148.538ZM39.215 188.605C39.2808 188.829 39.2932 189.066 39.2512 189.296C39.2093 189.526 39.1141 189.743 38.9733 189.93C38.8325 190.117 38.6501 190.268 38.4404 190.372C38.2308 190.475 37.9998 190.528 37.766 190.527H25.705C25.4715 190.527 25.2411 190.473 25.032 190.37C24.8229 190.266 24.6408 190.114 24.5001 189.928C24.3595 189.742 24.2642 189.525 24.2216 189.295C24.1791 189.066 24.1905 188.829 24.255 188.605L26.668 180.163C24.8654 179.187 23.3886 177.704 22.4203 175.898C21.452 174.091 21.0346 172.04 21.22 169.999C21.4405 167.58 22.4853 165.309 24.1795 163.568C25.8737 161.827 28.1146 160.721 30.527 160.435C30.9284 160.39 31.332 160.368 31.736 160.368C34.0809 160.363 36.3607 161.14 38.2147 162.576C40.0686 164.011 41.391 166.024 41.9726 168.296C42.5542 170.568 42.3618 172.969 41.4259 175.119C40.49 177.269 38.8639 179.046 36.805 180.168L39.215 188.605ZM45.267 148.57H18.218V138.342C18.1916 136.541 18.5204 134.753 19.1859 133.079C19.8513 131.406 20.8401 129.88 22.0958 128.589C23.3516 127.298 24.8496 126.267 26.5041 125.555C28.1586 124.844 29.9371 124.465 31.738 124.442C32.062 124.442 32.388 124.454 32.716 124.478C36.1303 124.734 39.3214 126.272 41.6495 128.783C43.9776 131.293 45.2705 134.591 45.269 138.015L45.267 148.57Z" fill="#14475f"/>
<path d="M226.439 134.093C224.261 130.316 221.36 127.006 217.902 124.352C214.444 121.697 210.497 119.75 206.286 118.622C202.075 117.494 197.682 117.207 193.36 117.777C189.038 118.347 184.871 119.764 181.097 121.946L164.244 131.674V95.6439C164.232 91.1568 162.778 86.7926 160.095 83.1959L139.349 55.5369V43.7539C141.774 42.8937 143.873 41.3043 145.359 39.2039C146.845 37.1035 147.645 34.5948 147.649 32.0219V12.9409C147.645 9.64047 146.332 6.47626 143.999 4.14258C141.665 1.8089 138.5 0.496361 135.2 0.49292H60.515C57.2145 0.496097 54.0501 1.80857 51.7164 4.14233C49.3826 6.4761 48.0701 9.64048 48.067 12.9409V32.0259C48.071 34.5989 48.8708 37.1075 50.3568 39.2079C51.8427 41.3084 53.9421 42.8977 56.3669 43.7579V55.5369L35.619 83.1999C32.9367 86.7952 31.4827 91.1582 31.4719 95.6439V104.668C31.5629 104.668 31.6529 104.661 31.7449 104.661C32.7649 104.661 33.7999 104.708 34.8229 104.801C43.1373 105.564 50.8482 109.467 56.3849 115.717C61.9169 121.918 64.9716 129.938 64.9659 138.248V143.848C66.8453 145.251 68.3722 147.073 69.4261 149.168C70.48 151.264 71.0318 153.575 71.0379 155.921V171.805H115.153C113.809 177.279 113.878 183.005 115.353 188.445H71.0369V195.129C71.0361 195.668 71.0064 196.206 70.9479 196.741H118.897C123.36 204.233 130.594 209.665 139.033 211.862C147.472 214.058 156.436 212.842 163.985 208.477L214.285 179.432C221.903 175.026 227.462 167.777 229.741 159.277C232.02 150.776 230.832 141.719 226.439 134.093ZM60.515 8.79291H135.199C136.299 8.79397 137.355 9.23187 138.133 10.0104C138.911 10.7889 139.348 11.8444 139.348 12.9449V32.0299C139.347 33.13 138.909 34.1847 138.132 34.9625C137.354 35.7404 136.299 36.1778 135.199 36.1789H60.515C59.4149 36.1778 58.3602 35.7404 57.5823 34.9625C56.8045 34.1847 56.367 33.13 56.3659 32.0299V12.9409C56.3662 11.8403 56.8033 10.7849 57.5812 10.0063C58.3592 9.22784 59.4144 8.79 60.515 8.78894V8.79291ZM114.453 138.654H102.006V151.103C102.006 152.204 101.569 153.259 100.79 154.037C100.012 154.816 98.9566 155.253 97.856 155.253C96.7553 155.253 95.6997 154.816 94.9214 154.037C94.1432 153.259 93.7059 152.204 93.7059 151.103V138.654H81.2609C80.1603 138.654 79.1047 138.217 78.3264 137.438C77.5481 136.66 77.1109 135.605 77.1109 134.504C77.1109 133.403 77.5481 132.348 78.3264 131.569C79.1047 130.791 80.1603 130.354 81.2609 130.354H93.7079V117.906C93.7079 116.805 94.1452 115.75 94.9235 114.971C95.7017 114.193 96.7573 113.756 97.8579 113.756C98.9586 113.756 100.014 114.193 100.792 114.971C101.571 115.75 102.008 116.805 102.008 117.906V130.354H114.455C115.556 130.354 116.611 130.791 117.389 131.569C118.168 132.348 118.605 133.403 118.605 134.504C118.605 135.605 118.168 136.66 117.389 137.438C116.611 138.217 115.556 138.654 114.455 138.654H114.453ZM39.8529 94.2609C40.1006 92.0551 40.9287 89.9544 42.2529 88.1729L63.8279 59.4059C64.3671 58.6882 64.6585 57.8146 64.658 56.9169V44.4749H131.044V52.7749H93.7079C92.6073 52.7749 91.5517 53.2121 90.7734 53.9904C89.9952 54.7687 89.5579 55.8243 89.5579 56.9249C89.5579 58.0256 89.9952 59.0812 90.7734 59.8594C91.5517 60.6377 92.6073 61.0749 93.7079 61.0749H133.128L153.457 88.1749C154.781 89.9563 155.609 92.057 155.857 94.2629L39.8529 94.2609ZM159.833 201.291C157.001 202.94 153.871 204.014 150.624 204.451C147.376 204.888 144.073 204.679 140.906 203.837C137.739 202.995 134.77 201.535 132.168 199.543C129.566 197.55 127.383 195.064 125.745 192.226C124.106 189.388 123.044 186.254 122.619 183.005C122.195 179.755 122.416 176.454 123.27 173.29C124.124 170.126 125.594 167.162 127.597 164.568C129.599 161.973 132.094 159.8 134.938 158.172L157.46 145.172L182.354 188.291L159.833 201.291ZM210.133 172.246L189.533 184.14L164.633 141.021L185.233 129.131C188.064 127.496 191.189 126.435 194.43 126.008C197.671 125.58 200.965 125.796 204.123 126.642C207.281 127.487 210.241 128.947 212.835 130.936C215.429 132.926 217.605 135.407 219.24 138.238C220.875 141.069 221.937 144.195 222.364 147.436C222.791 150.677 222.576 153.97 221.73 157.128C220.884 160.286 219.425 163.247 217.435 165.841C215.445 168.434 212.964 170.611 210.133 172.246V172.246Z" fill="#14475f"/>
</svg>
