<svg xmlns="http://www.w3.org/2000/svg" width="232.74" height="225.926" viewBox="0 0 232.74 225.926">
  <g id="Group_482" data-name="Group 482" transform="translate(-798.483 -903.785)">
    <g id="Group_476" data-name="Group 476">
      <path id="Path_1234" data-name="Path 1234" d="M1007.046,1018.093a55.01,55.01,0,0,0-43.185-20.885H827.884a22.05,22.05,0,0,1,0-44.1H875.66v-7.35H827.884a29.4,29.4,0,0,0,0,58.8H963.861a47.619,47.619,0,0,1,33.621,13.839,33.61,33.61,0,0,1,9.564-.3Z" fill="#14475f"/>
      <path id="Path_1235" data-name="Path 1235" d="M995.491,1088.127a47.584,47.584,0,0,1-31.63,11.983H901.385v7.35h62.476a54.978,54.978,0,0,0,41.228-18.548c-.61.031-1.212.092-1.83.092A35.56,35.56,0,0,1,995.491,1088.127Z" fill="#14475f"/>
      <path id="Path_1236" data-name="Path 1236" d="M1003.26,1025.481a27.965,27.965,0,1,0,27.963,27.965A28,28,0,0,0,1003.26,1025.481Zm0,49.874a21.909,21.909,0,1,1,21.908-21.909A21.934,21.934,0,0,1,1003.26,1075.355Z" fill="#14475f"/>
      <path id="Path_1237" data-name="Path 1237" d="M1018.271,1045.7a2.164,2.164,0,1,0-3.061-3.061l-17.021,17.021-6.881-6.879a2.164,2.164,0,0,0-3.061,3.061l8.411,8.41a2.165,2.165,0,0,0,3.062,0l0-.006Z" fill="#14475f"/>
    </g>
    <g id="Group_479" data-name="Group 479">
      <g id="Group_478" data-name="Group 478">
        <g id="Group_477" data-name="Group 477">
          <path id="Path_1238" data-name="Path 1238" d="M928.537,909.092v3.939H918.026a7.084,7.084,0,0,0-4.974,2.046l-20.833,20.612a7.07,7.07,0,0,0-2.1,5.03v2h43.72V903.785ZM922.3,935.554a.828.828,0,0,1-.83.83H901.294a.83.83,0,0,1-.566-1.433l16.318-15.572a.893.893,0,0,1,.583-.228h3.837a.828.828,0,0,1,.83.831Z" fill="#14475f"/>
          <path id="Path_1239" data-name="Path 1239" d="M890.121,947.521h0v11.742a5.3,5.3,0,0,0,5.3,5.3H901.1a14.553,14.553,0,0,1,28.8,0h28.764a14.542,14.542,0,0,1,28.781,0h14.382V947.854Z" fill="#14475f"/>
          <path id="Path_1240" data-name="Path 1240" d="M915.5,955.662a11,11,0,1,0,11,11A11,11,0,0,0,915.5,955.662Zm0,16.5a5.5,5.5,0,1,1,5.5-5.5A5.5,5.5,0,0,1,915.5,972.161Z" fill="#14475f"/>
          <path id="Path_1241" data-name="Path 1241" d="M973.055,955.662a11,11,0,1,0,11,11A11,11,0,0,0,973.055,955.662Zm0,16.5a5.5,5.5,0,1,1,5.5-5.5A5.5,5.5,0,0,1,973.055,972.161Z" fill="#14475f"/>
        </g>
      </g>
      <rect id="Rectangle_58" data-name="Rectangle 58" width="63.552" height="38.932" transform="translate(1001.825 942.719) rotate(-180)" fill="#14475f"/>
    </g>
    <g id="Group_481" data-name="Group 481">
      <g id="Group_480" data-name="Group 480">
        <path id="Path_1242" data-name="Path 1242" d="M798.483,1040.809v88.9h44.451v-88.9Zm16.67,66.678H804.04v-11.113h11.113Zm0-22.225H804.04v-11.117h11.113Zm0-22.229H804.04v-11.112h11.113Zm22.225,44.454H826.266v-11.113h11.112Zm0-22.225H826.266v-11.117h11.112Zm0-22.229H826.266v-11.112h11.112Z" fill="#14475f"/>
        <rect id="Rectangle_59" data-name="Rectangle 59" width="38.894" height="5.556" transform="translate(848.49 1068.592)" fill="#14475f"/>
        <path id="Path_1243" data-name="Path 1243" d="M848.49,1079.7h38.894v50.007H876.272v-22.225H859.6v22.225H848.49Z" fill="#14475f"/>
      </g>
    </g>
  </g>
</svg>
