<svg xmlns="http://www.w3.org/2000/svg" xmlns:xlink="http://www.w3.org/1999/xlink" width="303.487" height="338.616" viewBox="0 0 303.487 338.616">
  <defs>
    <linearGradient id="linear-gradient" y1="0.5" x2="1" y2="0.5" gradientUnits="objectBoundingBox">
      <stop offset="0"/>
      <stop offset="0.159" stop-color="#0e3555"/>
      <stop offset="0.55" stop-color="#0d3353"/>
      <stop offset="0.691" stop-color="#0c2f4c"/>
      <stop offset="0.791" stop-color="#0a2840"/>
      <stop offset="0.872" stop-color="#071d2f"/>
      <stop offset="0.941" stop-color="#041019"/>
      <stop offset="1"/>
    </linearGradient>
    <linearGradient id="linear-gradient-2" x1="0" y1="0.5" x2="1" y2="0.5" xlink:href="#linear-gradient"/>
  </defs>
  <g id="Group_676" data-name="Group 676" transform="translate(-750.769 -918.137)">
    <path id="Path_1468" data-name="Path 1468" d="M904.135,1174.925s-99.366-.927-99.366,1.044,99.366,1.044,99.366,1.044c.4,0,.735-.233.735-.517v-1.055C904.87,1175.157,904.539,1174.925,904.135,1174.925Z" fill="url(#linear-gradient)"/>
    <ellipse id="Ellipse_247" data-name="Ellipse 247" cx="30" cy="1.243" rx="30" ry="1.243" transform="translate(940.256 1200.267)" fill="url(#linear-gradient-2)"/>
    <g id="Group_675" data-name="Group 675">
      <path id="Path_1469" data-name="Path 1469" d="M813.311,1167.43V952.147l.021-.02,25.426-.218V926.7l.022-.02H994.824v144.482a73.713,73.713,0,0,1,8.541,3.614V918.137H835.242l-30.473,30.475v227.357h100a74.121,74.121,0,0,1-3.818-8.539Z" fill="#14475f" fill-rule="evenodd"/>
      <rect id="Rectangle_202" data-name="Rectangle 202" width="12.837" height="12.842" transform="translate(834.759 1091.724)" fill="#14475f"/>
      <rect id="Rectangle_203" data-name="Rectangle 203" width="12.837" height="12.842" transform="translate(834.759 1066.04)" fill="#14475f"/>
      <rect id="Rectangle_204" data-name="Rectangle 204" width="12.837" height="12.842" transform="translate(834.759 1040.476)" fill="#14475f"/>
      <rect id="Rectangle_205" data-name="Rectangle 205" width="12.837" height="12.842" transform="translate(834.759 1014.793)" fill="#14475f"/>
      <rect id="Rectangle_206" data-name="Rectangle 206" width="12.837" height="12.842" transform="translate(834.759 989.011)" fill="#14475f"/>
      <rect id="Rectangle_207" data-name="Rectangle 207" width="12.837" height="12.842" transform="translate(834.759 963.447)" fill="#14475f"/>
      <rect id="Rectangle_208" data-name="Rectangle 208" width="33.309" height="12.842" transform="translate(860.948 1091.724)" fill="#14475f"/>
      <rect id="Rectangle_209" data-name="Rectangle 209" width="113.128" height="12.842" transform="translate(860.948 1014.793)" fill="#14475f"/>
      <rect id="Rectangle_210" data-name="Rectangle 210" width="56.563" height="12.842" transform="translate(860.948 1066.04)" fill="#14475f"/>
      <rect id="Rectangle_211" data-name="Rectangle 211" width="113.128" height="12.842" transform="translate(860.948 1040.476)" fill="#14475f"/>
      <rect id="Rectangle_212" data-name="Rectangle 212" width="113.128" height="12.842" transform="translate(860.948 989.011)" fill="#14475f"/>
      <rect id="Rectangle_213" data-name="Rectangle 213" width="113.128" height="12.842" transform="translate(860.948 963.447)" fill="#14475f"/>
      <path id="Path_1470" data-name="Path 1470" d="M1001.169,1112.826a2.654,2.654,0,0,0-.777-1.866,2.665,2.665,0,0,0-3.731,0l-22.373,22.406c-.027-.053-.053-.106-.077-.159a1.611,1.611,0,0,0-.88-.8,1.552,1.552,0,0,0-1.194.08,1.525,1.525,0,0,0-.8.88l-1.089,3.1-20.69-15.457a3.735,3.735,0,0,0-2.745-.7,3.655,3.655,0,0,0-2.434,1.449,3.577,3.577,0,0,0-.7,2.748,3.675,3.675,0,0,0,1.424,2.429l20.382,15.218-2.514,2.509a2.634,2.634,0,0,0,1.865,4.494,2.427,2.427,0,0,0,.986-.205l-10.36,29.337a1.553,1.553,0,0,0,2.927,1.039l11.885-33.586,3.835,2.872a3.722,3.722,0,0,0,2.744.7,3.672,3.672,0,0,0,3.132-4.19,3.624,3.624,0,0,0-1.451-2.436l-3.495-2.628,25.354-25.378A2.593,2.593,0,0,0,1001.169,1112.826Z" fill="#14475f" fill-rule="evenodd"/>
      <path id="Path_1471" data-name="Path 1471" d="M1013.391,1097.966a61.016,61.016,0,1,0,17.868,43.145A60.815,60.815,0,0,0,1013.391,1097.966Zm-7.568,78.731a50.381,50.381,0,0,1-54.83,10.922,50.321,50.321,0,1,1,65.771-65.757,50.271,50.271,0,0,1-10.941,54.835Z" fill="#14475f" fill-rule="evenodd"/>
      <path id="Path_1472" data-name="Path 1472" d="M943.6,1138.476H930.263a2.628,2.628,0,1,0,0,5.256H943.6a2.628,2.628,0,0,0,0-5.256Z" fill="#14475f" fill-rule="evenodd"/>
      <path id="Path_1473" data-name="Path 1473" d="M1010.257,1138.476H996.921a2.628,2.628,0,1,0,0,5.256h13.336a2.628,2.628,0,0,0,0-5.256Z" fill="#14475f" fill-rule="evenodd"/>
      <path id="Path_1474" data-name="Path 1474" d="M970.247,1165.139a2.621,2.621,0,0,0-2.615,2.628v13.325a2.629,2.629,0,1,0,5.258,0v-13.325A2.643,2.643,0,0,0,970.247,1165.139Z" fill="#14475f" fill-rule="evenodd"/>
      <path id="Path_1475" data-name="Path 1475" d="M970.247,1117.076a2.643,2.643,0,0,0,2.643-2.628v-13.325a2.629,2.629,0,1,0-5.258,0v13.325A2.62,2.62,0,0,0,970.247,1117.076Z" fill="#14475f" fill-rule="evenodd"/>
    </g>
  </g>
</svg>
