<svg xmlns="http://www.w3.org/2000/svg" width="197.815" height="291.466" viewBox="0 0 197.815 291.466">
  <g id="Group_687" data-name="Group 687" transform="translate(-833.469 -817.522)">
    <path id="Path_1488" data-name="Path 1488" d="M896.323,897.689c0,6.71,2.337,8.583,14.931,26.841a2.081,2.081,0,0,0,3.421,0c12.594-18.258,14.932-20.131,14.932-26.841a16.642,16.642,0,1,0-33.284,0Zm23.576,0a6.934,6.934,0,1,1-6.934-6.934A6.935,6.935,0,0,1,919.9,897.689Z" fill="#14475f"/>
    <path id="Path_1489" data-name="Path 1489" d="M1022.973,1034.9v-14.084c0-18.228-13.706-33.832-31.859-35.485q-1.652-.151-3.275-.149a35.173,35.173,0,0,0-35.134,35.133V1034.9a10.352,10.352,0,0,0-8.311,10.11v53.661a10.319,10.319,0,0,0,10.319,10.319h66.252a10.319,10.319,0,0,0,10.319-10.319v-53.661A10.352,10.352,0,0,0,1022.973,1034.9Zm-24.905,54.837a2.062,2.062,0,0,1-1.984,2.631h-16.51a2.062,2.062,0,0,1-1.984-2.631l3.3-11.554a14.342,14.342,0,0,1-7.456-13.911,14.5,14.5,0,0,1,12.738-13.089,14.966,14.966,0,0,1,1.655-.093h0a14.431,14.431,0,0,1,6.936,27.093Zm8.283-54.793H969.328v-14a18.75,18.75,0,0,1,18.5-19.023q.663,0,1.338.048a18.573,18.573,0,0,1,17.181,18.527Z" fill="#14475f"/>
    <path id="Path_1490" data-name="Path 1490" d="M842.837,845.057H983.093V975.431a45.374,45.374,0,0,1,4.746-.251c1.39,0,2.8.064,4.182.19.147.013.292.036.439.05V839.894a22.373,22.373,0,0,0-22.372-22.372H855.842a22.374,22.374,0,0,0-22.373,22.372v223.722a22.374,22.374,0,0,0,22.373,22.372h78.552v-35.281H842.837Zm54.64-13.765h30.976a1.289,1.289,0,1,1,0,2.578H897.477a1.289,1.289,0,1,1,0-2.578Z" fill="#14475f"/>
    <path id="Path_1491" data-name="Path 1491" d="M958.369,986.172c-5.56.384-13.913-1.969-16.362-2.669-2.17-.62-2.693-2.743-1.676-3.352,4.19-2.515,19.7-5.03,21.792-3.772,1.308.785,1.473,3.86.9,6.261q1.738-1.149,3.583-2.14v-1.188c0-4.191-2.1-6.705-3.772-8.8s-6.286-3.772-7.124-4.191-1.257-1.257-.838-1.676a1.3,1.3,0,0,1,.838-.42,2.925,2.925,0,0,0,1.676.839c.838,0,7.543.419,8.382-1.676s0-3.353-1.677-4.61-6.7-1.258-7.543-.839-1.676,2.934-1.676,2.934h-2.515s-6.286-11.734-7.962-13.83-4.61-2.933-7.125-2.933-15.087-.838-24.306-.838-21.792.838-24.307.838-5.448.838-7.124,2.933-7.963,13.83-7.963,13.83h-2.514s-.838-2.515-1.676-2.934-5.867-.419-7.544.839-2.514,2.514-1.676,4.61,7.543,1.676,8.381,1.676a2.925,2.925,0,0,0,1.677-.839,1.3,1.3,0,0,1,.838.42c.419.419,0,1.257-.838,1.676s-5.448,2.1-7.125,4.191-3.771,4.609-3.771,8.8v35.2a2.514,2.514,0,0,0,2.514,2.514h10.477a2.514,2.514,0,0,0,2.515-2.514v-5.867h69.413A45.207,45.207,0,0,1,958.369,986.172ZM876.505,962.13c.419-.838,6.286-13.41,9.22-15.087s19.7-1.676,27.659-1.676,23.887,0,26.821,1.676,8.8,14.249,9.22,15.087c.265.531.405,1.893-1.258,1.677-9.639-1.258-25.144-1.677-34.783-1.677s-25.983.419-35.622,1.677C876.1,964.023,876.24,962.661,876.505,962.13Zm7.126,21.373c-2.934.838-14.356,4.064-19.278,2.1-2.1-.839-2.933-7.963-.838-9.22s17.6,1.257,21.792,3.772C886.324,980.76,885.8,982.883,883.631,983.5Zm42.954,15.74a1.026,1.026,0,0,1-1.024,1.023H900.369a1.026,1.026,0,0,1-1.024-1.023v-.467a1.026,1.026,0,0,1,1.024-1.024h25.192a1.027,1.027,0,0,1,1.024,1.024Zm2.095-6.363a1.1,1.1,0,0,1-1.1,1.1H898.349a1.1,1.1,0,0,1-1.1-1.1v-.315a1.1,1.1,0,0,1,1.1-1.1H927.58a1.1,1.1,0,0,1,1.1,1.1Zm3.562-5.186H893.687a1.257,1.257,0,1,1,0-2.514h38.555a1.257,1.257,0,1,1,0,2.514Z" fill="#14475f"/>
  </g>
</svg>
