<svg xmlns="http://www.w3.org/2000/svg" width="406.141" height="374.727" viewBox="0 0 406.141 374.727">
  <g id="Group_11489" data-name="Group 11489" transform="translate(-297.109 -3402.043)">
    <g id="Group_11428" data-name="Group 11428" transform="translate(297.109 3411.992)" style="mix-blend-mode: multiply;isolation: isolate">
      <rect id="Rectangle_2412" data-name="Rectangle 2412" width="305.052" height="264.338" rx="2.407" transform="translate(0 39.902)" fill="#e6e7e8"/>
      <path id="Path_18403" data-name="Path 18403" d="M602.16,3419.689v58.7H297.109v-58.7a7.981,7.981,0,0,1,7.982-7.981H594.178A7.983,7.983,0,0,1,602.16,3419.689Z" transform="translate(-297.108 -3389.607)" fill="#e6e7e8"/>
      <rect id="Rectangle_2413" data-name="Rectangle 2413" width="305.052" height="6.001" transform="translate(0 88.422)" fill="#e6e7e8"/>
      <rect id="Rectangle_2414" data-name="Rectangle 2414" width="305.052" height="3.081" transform="translate(0 88.422)" fill="#e6e7e8"/>
      <circle id="Ellipse_331" data-name="Ellipse 331" cx="11.051" cy="11.051" r="11.051" transform="translate(27.034 31.925)" fill="#e6e7e8" opacity="0.7"/>
      <rect id="Rectangle_2415" data-name="Rectangle 2415" width="16.19" height="49.574" rx="2.441" transform="translate(29.989)" fill="#e6e7e8"/>
      <circle id="Ellipse_332" data-name="Ellipse 332" cx="11.051" cy="11.051" r="11.051" transform="translate(73.135 31.925)" fill="#e6e7e8" opacity="0.7"/>
      <rect id="Rectangle_2416" data-name="Rectangle 2416" width="16.19" height="49.574" rx="2.441" transform="translate(76.09)" fill="#e6e7e8"/>
      <circle id="Ellipse_333" data-name="Ellipse 333" cx="11.051" cy="11.051" r="11.051" transform="translate(119.236 31.925)" fill="#e6e7e8" opacity="0.7"/>
      <rect id="Rectangle_2417" data-name="Rectangle 2417" width="16.19" height="49.574" rx="2.441" transform="translate(122.191)" fill="#e6e7e8"/>
      <circle id="Ellipse_334" data-name="Ellipse 334" cx="11.051" cy="11.051" r="11.051" transform="translate(165.337 31.925)" fill="#e6e7e8" opacity="0.7"/>
      <rect id="Rectangle_2418" data-name="Rectangle 2418" width="16.19" height="49.574" rx="2.441" transform="translate(168.292)" fill="#e6e7e8"/>
      <circle id="Ellipse_335" data-name="Ellipse 335" cx="11.051" cy="11.051" r="11.051" transform="translate(211.438 31.925)" fill="#e6e7e8" opacity="0.7"/>
      <rect id="Rectangle_2419" data-name="Rectangle 2419" width="16.19" height="49.574" rx="2.441" transform="translate(214.393)" fill="#e6e7e8"/>
      <circle id="Ellipse_336" data-name="Ellipse 336" cx="11.051" cy="11.051" r="11.051" transform="translate(257.539 31.925)" fill="#e6e7e8" opacity="0.7"/>
      <rect id="Rectangle_2420" data-name="Rectangle 2420" width="16.19" height="49.574" rx="2.441" transform="translate(260.494)" fill="#e6e7e8"/>
      <rect id="Rectangle_2421" data-name="Rectangle 2421" width="22.646" height="22.646" rx="1.321" transform="translate(63.132 122.866)" fill="#e6e7e8"/>
      <rect id="Rectangle_2422" data-name="Rectangle 2422" width="22.646" height="22.646" rx="1.321" transform="translate(102.173 122.866)" fill="#e6e7e8"/>
      <rect id="Rectangle_2423" data-name="Rectangle 2423" width="22.646" height="22.646" rx="1.321" transform="translate(141.207 122.866)" fill="#e6e7e8"/>
      <rect id="Rectangle_2424" data-name="Rectangle 2424" width="22.646" height="22.646" rx="1.321" transform="translate(180.241 122.866)" fill="#e6e7e8"/>
      <rect id="Rectangle_2425" data-name="Rectangle 2425" width="22.646" height="22.646" rx="1.321" transform="translate(219.274 122.866)" fill="#e6e7e8"/>
      <rect id="Rectangle_2426" data-name="Rectangle 2426" width="22.646" height="22.646" rx="1.321" transform="translate(258.308 122.866)" fill="#e6e7e8"/>
      <rect id="Rectangle_2427" data-name="Rectangle 2427" width="22.646" height="22.646" rx="1.321" transform="translate(24.098 156.46)" fill="#e6e7e8"/>
      <rect id="Rectangle_2428" data-name="Rectangle 2428" width="22.646" height="22.646" rx="1.321" transform="translate(63.132 156.46)" fill="#e6e7e8"/>
      <rect id="Rectangle_2429" data-name="Rectangle 2429" width="22.646" height="22.646" rx="1.321" transform="translate(102.173 156.46)" fill="#e6e7e8"/>
      <rect id="Rectangle_2430" data-name="Rectangle 2430" width="22.646" height="22.646" rx="1.321" transform="translate(141.207 156.46)" fill="#e6e7e8"/>
      <rect id="Rectangle_2431" data-name="Rectangle 2431" width="22.646" height="22.646" rx="1.321" transform="translate(180.241 156.46)" fill="#e6e7e8"/>
      <rect id="Rectangle_2432" data-name="Rectangle 2432" width="22.646" height="22.646" rx="1.321" transform="translate(219.274 156.46)" fill="#e6e7e8"/>
      <rect id="Rectangle_2433" data-name="Rectangle 2433" width="22.646" height="22.646" rx="1.321" transform="translate(258.308 156.46)" fill="#e6e7e8"/>
      <rect id="Rectangle_2434" data-name="Rectangle 2434" width="22.646" height="22.646" rx="1.321" transform="translate(24.098 190.053)" fill="#e6e7e8"/>
      <rect id="Rectangle_2435" data-name="Rectangle 2435" width="22.646" height="22.646" rx="1.321" transform="translate(63.132 190.053)" fill="#e6e7e8"/>
      <rect id="Rectangle_2436" data-name="Rectangle 2436" width="22.646" height="22.646" rx="1.321" transform="translate(102.173 190.053)" fill="#e6e7e8"/>
      <rect id="Rectangle_2437" data-name="Rectangle 2437" width="22.646" height="22.646" rx="1.321" transform="translate(141.207 190.053)" fill="#e6e7e8"/>
      <rect id="Rectangle_2438" data-name="Rectangle 2438" width="22.646" height="22.646" rx="1.321" transform="translate(180.241 190.053)" fill="#e6e7e8"/>
      <rect id="Rectangle_2439" data-name="Rectangle 2439" width="22.646" height="22.646" rx="1.321" transform="translate(219.274 190.053)" fill="#e6e7e8"/>
      <rect id="Rectangle_2440" data-name="Rectangle 2440" width="22.646" height="22.646" rx="1.321" transform="translate(258.308 190.053)" fill="#e6e7e8"/>
      <rect id="Rectangle_2441" data-name="Rectangle 2441" width="22.646" height="22.646" rx="1.321" transform="translate(24.098 223.646)" fill="#e6e7e8"/>
      <rect id="Rectangle_2442" data-name="Rectangle 2442" width="22.646" height="22.646" rx="1.321" transform="translate(63.132 223.646)" fill="#e6e7e8"/>
      <rect id="Rectangle_2443" data-name="Rectangle 2443" width="22.646" height="22.646" rx="1.321" transform="translate(102.173 223.646)" fill="#e6e7e8"/>
      <rect id="Rectangle_2444" data-name="Rectangle 2444" width="22.646" height="22.646" rx="1.321" transform="translate(141.207 223.646)" fill="#e6e7e8"/>
      <rect id="Rectangle_2445" data-name="Rectangle 2445" width="22.646" height="22.646" rx="1.321" transform="translate(180.241 223.646)" fill="#e6e7e8"/>
      <rect id="Rectangle_2446" data-name="Rectangle 2446" width="22.646" height="22.646" rx="1.321" transform="translate(219.274 223.646)" fill="#e6e7e8"/>
      <rect id="Rectangle_2447" data-name="Rectangle 2447" width="22.646" height="22.646" rx="1.321" transform="translate(258.308 223.646)" fill="#e6e7e8"/>
      <rect id="Rectangle_2448" data-name="Rectangle 2448" width="22.646" height="22.646" rx="1.321" transform="translate(24.102 257.239)" fill="#e6e7e8"/>
      <rect id="Rectangle_2449" data-name="Rectangle 2449" width="22.646" height="22.646" rx="1.321" transform="translate(63.136 257.239)" fill="#e6e7e8"/>
      <rect id="Rectangle_2450" data-name="Rectangle 2450" width="22.646" height="22.646" rx="1.321" transform="translate(102.177 257.239)" fill="#e6e7e8"/>
      <rect id="Rectangle_2451" data-name="Rectangle 2451" width="22.646" height="22.646" rx="1.321" transform="translate(141.21 257.239)" fill="#e6e7e8"/>
      <circle id="Ellipse_337" data-name="Ellipse 337" cx="101.089" cy="101.089" r="101.089" transform="translate(203.963 162.6)" fill="#e6e7e8"/>
      <circle id="Ellipse_338" data-name="Ellipse 338" cx="89.26" cy="89.26" r="89.26" transform="translate(215.792 174.429)" fill="#e6e7e8"/>
      <path id="Path_18404" data-name="Path 18404" d="M520.612,3538.638a77.431,77.431,0,1,1-77.436-77.426A77.441,77.441,0,0,1,520.612,3538.638Z" transform="translate(-138.124 -3274.948)" fill="#e6e7e8"/>
      <rect id="Rectangle_2452" data-name="Rectangle 2452" width="4.302" height="13.544" transform="translate(302.901 193.036)" fill="#e6e7e8"/>
      <rect id="Rectangle_2453" data-name="Rectangle 2453" width="13.555" height="4.302" transform="translate(234.399 261.538)" fill="#e6e7e8"/>
      <rect id="Rectangle_2454" data-name="Rectangle 2454" width="4.302" height="13.544" transform="translate(302.901 320.798)" fill="#e6e7e8"/>
      <rect id="Rectangle_2455" data-name="Rectangle 2455" width="13.544" height="4.302" transform="translate(362.161 261.538)" fill="#e6e7e8"/>
      <path id="Path_18405" data-name="Path 18405" d="M389.829,3486.925c-.68.375-.441,2.119.531,3.88l26.9,48.7c.972,1.758,2.325,2.889,3,2.515s.444-2.122-.527-3.88l-26.907-48.7C391.861,3487.682,390.508,3486.551,389.829,3486.925Z" transform="translate(-83.251 -3215.559)" fill="#e6e7e8"/>
      <path id="Path_18406" data-name="Path 18406" d="M393.561,3484.217a6.322,6.322,0,1,0,6.321,6.32A6.319,6.319,0,0,0,393.561,3484.217Z" transform="translate(-88.35 -3221.665)" fill="#e6e7e8"/>
      <path id="Path_18407" data-name="Path 18407" d="M388.547,3519.421c-1.446,1.4-2.189,2.993-1.651,3.554s2.165-.122,3.611-1.515l45.746-44.075c1.446-1.394,2.189-3,1.648-3.552s-2.169.119-3.615,1.516Z" transform="translate(-89.553 -3246.17)" fill="#e6e7e8"/>
      <path id="Path_18408" data-name="Path 18408" d="M376.472,3488.016c0,1.542,1.638,2.806,3.651,2.809l46.045.066c2.01,0,3.658-1.253,3.658-2.8s-1.641-2.8-3.651-2.8l-46.042-.07C378.12,3485.217,376.472,3486.474,376.472,3488.016Z" transform="translate(-113.29 -3219.341)" fill="#e6e7e8"/>
      <path id="Path_18409" data-name="Path 18409" d="M389.829,3485.425c-.68.375-.441,2.118.531,3.88l26.9,48.7c.972,1.758,2.325,2.889,3,2.514s.444-2.122-.527-3.88l-26.907-48.7C391.861,3486.181,390.508,3485.05,389.829,3485.425Z" transform="translate(-83.251 -3219.033)" fill="#e6e7e8"/>
      <path id="Path_18410" data-name="Path 18410" d="M393.561,3482.717a6.322,6.322,0,1,0,6.321,6.32A6.319,6.319,0,0,0,393.561,3482.717Z" transform="translate(-88.35 -3225.138)" fill="#e6e7e8"/>
      <path id="Path_18411" data-name="Path 18411" d="M388.547,3517.921c-1.446,1.4-2.189,2.994-1.651,3.554s2.165-.122,3.611-1.515l45.746-44.075c1.446-1.393,2.189-2.994,1.648-3.552s-2.169.119-3.615,1.516Z" transform="translate(-89.553 -3249.645)" fill="#e6e7e8"/>
      <path id="Path_18412" data-name="Path 18412" d="M376.472,3486.515c0,1.543,1.638,2.806,3.651,2.809l46.045.066c2.01,0,3.658-1.253,3.658-2.795s-1.641-2.8-3.651-2.806l-46.042-.069C378.12,3483.716,376.472,3484.973,376.472,3486.515Z" transform="translate(-113.29 -3222.816)" fill="#e6e7e8"/>
    </g>
    <g id="Group_11488" data-name="Group 11488" transform="translate(297.109 3402.043)">
      <g id="Group_11487" data-name="Group 11487">
        <g id="Group_11478" data-name="Group 11478">
          <g id="Group_11445" data-name="Group 11445">
            <g id="Group_11429" data-name="Group 11429" transform="translate(0 39.902)">
              <rect id="Rectangle_2456" data-name="Rectangle 2456" width="305.052" height="264.338" rx="2.407" fill="#fff"/>
            </g>
            <g id="Group_11430" data-name="Group 11430" transform="translate(0.001 22.101)">
              <path id="Path_18413" data-name="Path 18413" d="M602.16,3416.689v58.7H297.109v-58.7a7.981,7.981,0,0,1,7.982-7.981H594.178A7.983,7.983,0,0,1,602.16,3416.689Z" transform="translate(-297.109 -3408.708)" fill="#008f8d"/>
            </g>
            <g id="Group_11431" data-name="Group 11431" transform="translate(0 88.422)" opacity="0.3">
              <rect id="Rectangle_2457" data-name="Rectangle 2457" width="305.052" height="6.001" fill="#222"/>
            </g>
            <g id="Group_11432" data-name="Group 11432" transform="translate(0 88.422)">
              <rect id="Rectangle_2458" data-name="Rectangle 2458" width="305.052" height="3.081" fill="#14475f"/>
            </g>
            <g id="Group_11434" data-name="Group 11434" transform="translate(27.034)">
              <g id="Group_11433" data-name="Group 11433">
                <path id="Path_20265" data-name="Path 20265" d="M11.051,0A11.051,11.051,0,1,1,0,11.051,11.051,11.051,0,0,1,11.051,0Z" transform="translate(0 31.925)" opacity="0.7"/>
                <rect id="Rectangle_2459" data-name="Rectangle 2459" width="16.19" height="49.574" rx="2.441" transform="translate(2.955)" fill="#14475f"/>
              </g>
            </g>
            <g id="Group_11436" data-name="Group 11436" transform="translate(73.135)">
              <g id="Group_11435" data-name="Group 11435">
                <circle id="Ellipse_340" data-name="Ellipse 340" cx="11.051" cy="11.051" r="11.051" transform="translate(0 31.925)" opacity="0.7"/>
                <rect id="Rectangle_2460" data-name="Rectangle 2460" width="16.19" height="49.574" rx="2.441" transform="translate(2.955)" fill="#14475f"/>
              </g>
            </g>
            <g id="Group_11438" data-name="Group 11438" transform="translate(119.236)">
              <g id="Group_11437" data-name="Group 11437">
                <circle id="Ellipse_341" data-name="Ellipse 341" cx="11.051" cy="11.051" r="11.051" transform="translate(0 31.925)" opacity="0.7"/>
                <rect id="Rectangle_2461" data-name="Rectangle 2461" width="16.19" height="49.574" rx="2.441" transform="translate(2.955)" fill="#14475f"/>
              </g>
            </g>
            <g id="Group_11440" data-name="Group 11440" transform="translate(165.337)">
              <g id="Group_11439" data-name="Group 11439">
                <circle id="Ellipse_342" data-name="Ellipse 342" cx="11.051" cy="11.051" r="11.051" transform="translate(0 31.925)" opacity="0.7"/>
                <rect id="Rectangle_2462" data-name="Rectangle 2462" width="16.19" height="49.574" rx="2.441" transform="translate(2.955)" fill="#14475f"/>
              </g>
            </g>
            <g id="Group_11442" data-name="Group 11442" transform="translate(211.438)">
              <g id="Group_11441" data-name="Group 11441">
                <circle id="Ellipse_343" data-name="Ellipse 343" cx="11.051" cy="11.051" r="11.051" transform="translate(0 31.925)" opacity="0.7"/>
                <rect id="Rectangle_2463" data-name="Rectangle 2463" width="16.19" height="49.574" rx="2.441" transform="translate(2.955)" fill="#14475f"/>
              </g>
            </g>
            <g id="Group_11444" data-name="Group 11444" transform="translate(257.539)">
              <g id="Group_11443" data-name="Group 11443">
                <circle id="Ellipse_344" data-name="Ellipse 344" cx="11.051" cy="11.051" r="11.051" transform="translate(0 31.925)" opacity="0.7"/>
                <rect id="Rectangle_2464" data-name="Rectangle 2464" width="16.19" height="49.574" rx="2.441" transform="translate(2.955)" fill="#14475f"/>
              </g>
            </g>
          </g>
          <g id="Group_11477" data-name="Group 11477" transform="translate(24.098 122.866)">
            <g id="Group_11446" data-name="Group 11446" transform="translate(39.034)" opacity="0.2">
              <rect id="Rectangle_2465" data-name="Rectangle 2465" width="22.646" height="22.646" rx="1.321" fill="#222"/>
            </g>
            <g id="Group_11447" data-name="Group 11447" transform="translate(78.075)" opacity="0.2">
              <rect id="Rectangle_2466" data-name="Rectangle 2466" width="22.646" height="22.646" rx="1.321" fill="#222"/>
            </g>
            <g id="Group_11448" data-name="Group 11448" transform="translate(117.108)" opacity="0.2">
              <rect id="Rectangle_2467" data-name="Rectangle 2467" width="22.646" height="22.646" rx="1.321" fill="#222"/>
            </g>
            <g id="Group_11449" data-name="Group 11449" transform="translate(156.142)" opacity="0.2">
              <rect id="Rectangle_2468" data-name="Rectangle 2468" width="22.646" height="22.646" rx="1.321" fill="#222"/>
            </g>
            <g id="Group_11450" data-name="Group 11450" transform="translate(195.176)" opacity="0.3">
              <rect id="Rectangle_2469" data-name="Rectangle 2469" width="22.646" height="22.646" rx="1.321" fill="#222"/>
            </g>
            <g id="Group_11451" data-name="Group 11451" transform="translate(234.21)">
              <rect id="Rectangle_2470" data-name="Rectangle 2470" width="22.646" height="22.646" rx="1.321" fill="#008f8d"/>
            </g>
            <g id="Group_11452" data-name="Group 11452" transform="translate(0 33.593)" opacity="0.2">
              <rect id="Rectangle_2471" data-name="Rectangle 2471" width="22.646" height="22.646" rx="1.321" fill="#222"/>
            </g>
            <g id="Group_11453" data-name="Group 11453" transform="translate(39.034 33.593)" opacity="0.2">
              <rect id="Rectangle_2472" data-name="Rectangle 2472" width="22.646" height="22.646" rx="1.321" fill="#222"/>
            </g>
            <g id="Group_11454" data-name="Group 11454" transform="translate(78.075 33.593)" opacity="0.2">
              <rect id="Rectangle_2473" data-name="Rectangle 2473" width="22.646" height="22.646" rx="1.321" fill="#222"/>
            </g>
            <g id="Group_11455" data-name="Group 11455" transform="translate(117.108 33.593)" opacity="0.2">
              <rect id="Rectangle_2474" data-name="Rectangle 2474" width="22.646" height="22.646" rx="1.321" fill="#222"/>
            </g>
            <g id="Group_11456" data-name="Group 11456" transform="translate(156.142 33.593)" opacity="0.2">
              <rect id="Rectangle_2475" data-name="Rectangle 2475" width="22.646" height="22.646" rx="1.321" fill="#222"/>
            </g>
            <g id="Group_11457" data-name="Group 11457" transform="translate(195.176 33.593)" opacity="0.3">
              <rect id="Rectangle_2476" data-name="Rectangle 2476" width="22.646" height="22.646" rx="1.321" fill="#222"/>
            </g>
            <g id="Group_11458" data-name="Group 11458" transform="translate(234.21 33.593)">
              <rect id="Rectangle_2477" data-name="Rectangle 2477" width="22.646" height="22.646" rx="1.321" fill="#14475f"/>
            </g>
            <g id="Group_11459" data-name="Group 11459" transform="translate(0 67.186)" opacity="0.2">
              <rect id="Rectangle_2478" data-name="Rectangle 2478" width="22.646" height="22.646" rx="1.321" fill="#222"/>
            </g>
            <g id="Group_11460" data-name="Group 11460" transform="translate(39.034 67.186)" opacity="0.2">
              <rect id="Rectangle_2479" data-name="Rectangle 2479" width="22.646" height="22.646" rx="1.321" fill="#222"/>
            </g>
            <g id="Group_11461" data-name="Group 11461" transform="translate(78.075 67.186)" opacity="0.2">
              <rect id="Rectangle_2480" data-name="Rectangle 2480" width="22.646" height="22.646" rx="1.321" fill="#222"/>
            </g>
            <g id="Group_11462" data-name="Group 11462" transform="translate(117.108 67.186)" opacity="0.2">
              <rect id="Rectangle_2481" data-name="Rectangle 2481" width="22.646" height="22.646" rx="1.321" fill="#222"/>
            </g>
            <g id="Group_11463" data-name="Group 11463" transform="translate(156.142 67.186)" opacity="0.2">
              <rect id="Rectangle_2482" data-name="Rectangle 2482" width="22.646" height="22.646" rx="1.321" fill="#222"/>
            </g>
            <g id="Group_11464" data-name="Group 11464" transform="translate(195.176 67.186)" opacity="0.3">
              <rect id="Rectangle_2483" data-name="Rectangle 2483" width="22.646" height="22.646" rx="1.321" fill="#222"/>
            </g>
            <g id="Group_11465" data-name="Group 11465" transform="translate(234.21 67.186)">
              <rect id="Rectangle_2484" data-name="Rectangle 2484" width="22.646" height="22.646" rx="1.321" fill="#dd3b33"/>
            </g>
            <g id="Group_11466" data-name="Group 11466" transform="translate(0 100.779)" opacity="0.2">
              <rect id="Rectangle_2485" data-name="Rectangle 2485" width="22.646" height="22.646" rx="1.321" fill="#222"/>
            </g>
            <g id="Group_11467" data-name="Group 11467" transform="translate(39.034 100.779)" opacity="0.2">
              <rect id="Rectangle_2486" data-name="Rectangle 2486" width="22.646" height="22.646" rx="1.321" fill="#222"/>
            </g>
            <g id="Group_11468" data-name="Group 11468" transform="translate(78.075 100.779)" opacity="0.2">
              <rect id="Rectangle_2487" data-name="Rectangle 2487" width="22.646" height="22.646" rx="1.321" fill="#222"/>
            </g>
            <g id="Group_11469" data-name="Group 11469" transform="translate(117.108 100.779)" opacity="0.2">
              <rect id="Rectangle_2488" data-name="Rectangle 2488" width="22.646" height="22.646" rx="1.321" fill="#222"/>
            </g>
            <g id="Group_11470" data-name="Group 11470" transform="translate(156.142 100.779)" opacity="0.2">
              <rect id="Rectangle_2489" data-name="Rectangle 2489" width="22.646" height="22.646" rx="1.321" fill="#222"/>
            </g>
            <g id="Group_11471" data-name="Group 11471" transform="translate(195.176 100.779)" opacity="0.3">
              <rect id="Rectangle_2490" data-name="Rectangle 2490" width="22.646" height="22.646" rx="1.321" fill="#222"/>
            </g>
            <g id="Group_11472" data-name="Group 11472" transform="translate(234.21 100.779)">
              <rect id="Rectangle_2491" data-name="Rectangle 2491" width="22.646" height="22.646" rx="1.321" fill="#dd3b33"/>
            </g>
            <g id="Group_11473" data-name="Group 11473" transform="translate(0.004 134.373)" opacity="0.2">
              <rect id="Rectangle_2492" data-name="Rectangle 2492" width="22.646" height="22.646" rx="1.321" fill="#222"/>
            </g>
            <g id="Group_11474" data-name="Group 11474" transform="translate(39.037 134.373)" opacity="0.2">
              <rect id="Rectangle_2493" data-name="Rectangle 2493" width="22.646" height="22.646" rx="1.321" fill="#222"/>
            </g>
            <g id="Group_11475" data-name="Group 11475" transform="translate(78.078 134.373)" opacity="0.2">
              <rect id="Rectangle_2494" data-name="Rectangle 2494" width="22.646" height="22.646" rx="1.321" fill="#222"/>
            </g>
            <g id="Group_11476" data-name="Group 11476" transform="translate(117.112 134.373)" opacity="0.2">
              <rect id="Rectangle_2495" data-name="Rectangle 2495" width="22.646" height="22.646" rx="1.321" fill="#222"/>
            </g>
          </g>
        </g>
        <g id="Group_11486" data-name="Group 11486" transform="translate(203.963 162.6)">
          <circle id="Ellipse_345" data-name="Ellipse 345" cx="101.089" cy="101.089" r="101.089" fill="#0fc2bf"/>
          <circle id="Ellipse_346" data-name="Ellipse 346" cx="89.26" cy="89.26" r="89.26" transform="translate(11.83 11.829)" fill="#008f8d"/>
          <path id="Path_18414" data-name="Path 18414" d="M520.612,3535.638a77.431,77.431,0,1,1-77.436-77.426A77.441,77.441,0,0,1,520.612,3535.638Z" transform="translate(-342.087 -3434.548)" fill="#fff"/>
          <rect id="Rectangle_2496" data-name="Rectangle 2496" width="4.302" height="13.544" transform="translate(98.938 30.436)" fill="#14475f"/>
          <rect id="Rectangle_2497" data-name="Rectangle 2497" width="13.555" height="4.302" transform="translate(30.436 98.938)" fill="#14475f"/>
          <rect id="Rectangle_2498" data-name="Rectangle 2498" width="4.302" height="13.544" transform="translate(98.938 158.198)" fill="#14475f"/>
          <rect id="Rectangle_2499" data-name="Rectangle 2499" width="13.544" height="4.302" transform="translate(158.198 98.938)" fill="#14475f"/>
          <g id="Group_11485" data-name="Group 11485" transform="translate(59.219 59.893)">
            <g id="Group_11479" data-name="Group 11479" transform="translate(0 4.974)" style="mix-blend-mode: multiply;isolation: isolate">
              <path id="Path_18415" data-name="Path 18415" d="M389.829,3483.925c-.68.375-.441,2.119.531,3.88l26.9,48.7c.972,1.758,2.325,2.889,3,2.514s.444-2.122-.527-3.88l-26.907-48.7C391.861,3484.682,390.508,3483.55,389.829,3483.925Z" transform="translate(-346.433 -3440.025)" fill="#e6e7e8"/>
              <path id="Path_18416" data-name="Path 18416" d="M393.561,3481.217a6.322,6.322,0,1,0,6.321,6.321A6.32,6.32,0,0,0,393.561,3481.217Z" transform="translate(-351.531 -3446.131)" fill="#e6e7e8"/>
              <path id="Path_18417" data-name="Path 18417" d="M388.547,3516.42c-1.446,1.4-2.189,2.994-1.651,3.555s2.165-.122,3.611-1.515l45.746-44.075c1.446-1.394,2.189-3,1.648-3.552s-2.169.119-3.615,1.516Z" transform="translate(-352.735 -3470.637)" fill="#e6e7e8"/>
              <path id="Path_18418" data-name="Path 18418" d="M376.472,3485.016c0,1.542,1.638,2.8,3.651,2.809l46.045.066c2.01,0,3.658-1.254,3.658-2.8s-1.641-2.8-3.651-2.806l-46.042-.069C378.12,3482.217,376.472,3483.473,376.472,3485.016Z" transform="translate(-376.472 -3443.808)" fill="#e6e7e8"/>
            </g>
            <g id="Group_11484" data-name="Group 11484">
              <g id="Group_11483" data-name="Group 11483">
                <g id="Group_11480" data-name="Group 11480" transform="translate(43.008 43.828)">
                  <path id="Path_18419" data-name="Path 18419" d="M389.829,3482.426c-.68.374-.441,2.118.531,3.879l26.9,48.7c.972,1.758,2.325,2.889,3,2.515s.444-2.122-.527-3.88l-26.907-48.7C391.861,3483.182,390.508,3482.051,389.829,3482.426Z" transform="translate(-389.441 -3482.354)" fill="#008f8d"/>
                </g>
                <path id="Path_18420" data-name="Path 18420" d="M393.561,3479.717a6.322,6.322,0,1,0,6.321,6.32A6.319,6.319,0,0,0,393.561,3479.717Z" transform="translate(-351.531 -3444.631)" fill="#14475f"/>
                <g id="Group_11481" data-name="Group 11481" transform="translate(33.985)">
                  <path id="Path_18421" data-name="Path 18421" d="M388.547,3514.921c-1.446,1.4-2.189,2.994-1.651,3.554s2.165-.122,3.611-1.515l45.746-44.075c1.446-1.394,2.189-3,1.648-3.552s-2.169.119-3.615,1.516Z" transform="translate(-386.72 -3469.137)" fill="#14475f"/>
                </g>
                <g id="Group_11482" data-name="Group 11482" transform="translate(0 38.412)">
                  <path id="Path_18422" data-name="Path 18422" d="M376.472,3483.515c0,1.542,1.638,2.806,3.651,2.809l46.045.066c2.01,0,3.658-1.253,3.658-2.8s-1.641-2.8-3.651-2.8l-46.042-.07C378.12,3480.716,376.472,3481.973,376.472,3483.515Z" transform="translate(-376.472 -3480.719)" fill="#14475f"/>
                </g>
              </g>
            </g>
          </g>
        </g>
      </g>
    </g>
  </g>
</svg>
