<svg id="Group_23100" data-name="Group 23100" xmlns="http://www.w3.org/2000/svg" width="500.837" height="385.117" viewBox="0 0 500.837 385.117">
  <g id="Group_11250" data-name="Group 11250">
    <g id="Group_11232" data-name="Group 11232" transform="translate(0 8.072)" style="mix-blend-mode: multiply;isolation: isolate">
      <path id="Path_17769" data-name="Path 17769" d="M645.4,2413.2a17.111,17.111,0,1,1,0-34.221c.209,0,2.878.15,2.878.15l-.569-2.086a27.154,27.154,0,0,1-1.853-9.9A27.491,27.491,0,0,1,653,2348.635l1.594-1.609a2.144,2.144,0,0,0,.277-.253,27.413,27.413,0,0,1,18.508-7.156,27.135,27.135,0,0,1,11.693,2.628l1.52.722.489-1.615a48.234,48.234,0,0,1,94.4,13.977s-.038,1.157-.038,1.409v1.449h1.449a27.5,27.5,0,0,1,20.973,45.337,26.3,26.3,0,0,1-2.979,3.014,27.549,27.549,0,0,1-17.956,6.661Z" transform="translate(-589.146 -2283.95)" fill="#e6e7e8"/>
      <path id="Path_17770" data-name="Path 17770" d="M734.2,2309.5a46.842,46.842,0,0,1,46.787,46.79c0,.192-.009.386-.018.581-.012.28-.024.556-.024.828l.041,2.9h2.9a26.057,26.057,0,0,1,19.818,42.966,24.5,24.5,0,0,1-2.811,2.833,26.055,26.055,0,0,1-17.008,6.311H646.358a15.66,15.66,0,1,1,0-31.321c.183,0,.362.012.545.021l.271.018,4.469.218-1.624-4.169a25.661,25.661,0,0,1-1.756-9.369,26.059,26.059,0,0,1,6.705-17.474l.109-.108.053-.044.124-.124,1.231-1.255c.135-.118.247-.227.3-.283a25.983,25.983,0,0,1,17.547-6.791,25.68,25.68,0,0,1,11.071,2.489l3.043,1.44.975-3.222A47.084,47.084,0,0,1,734.2,2309.5m0-2.9a49.7,49.7,0,0,0-47.553,35.3,28.866,28.866,0,0,0-31.812,4.778c-.1.094-.2.2-.321.295l-1.329,1.352c-.118.1-.2.2-.3.3a28.938,28.938,0,0,0-5.562,29.906c-.321-.015-.642-.038-.96-.038a18.561,18.561,0,1,0,0,37.121H783.886a28.915,28.915,0,0,0,18.9-7.015,27.284,27.284,0,0,0,3.138-3.17,28.955,28.955,0,0,0-22.04-47.726h-.038c0-.464.038-.943.038-1.409A49.688,49.688,0,0,0,734.2,2306.6Z" transform="translate(-590.105 -2284.909)" fill="#e6e7e8"/>
      <path id="Path_17771" data-name="Path 17771" d="M708.223,2348.879a12.371,12.371,0,0,1-8.075-3,11.783,11.783,0,0,1-1.337-1.344,12.38,12.38,0,0,1,9.413-20.41h1.449l.021-1.45-.012-.4a22.27,22.27,0,0,1,43.585-6.728l.486,1.608,1.52-.719a12.347,12.347,0,0,1,13.594,2.044l.224.2.507.531a12.4,12.4,0,0,1,3.317,8.428,12.262,12.262,0,0,1-.831,4.452l-.81,2.08,2.616-.124a7.413,7.413,0,1,1,0,14.825Z" transform="translate(-457.654 -2298.279)" fill="#e6e7e8"/>
      <path id="Path_17772" data-name="Path 17772" d="M732.905,2302.138a20.957,20.957,0,0,1,19.931,14.79l.972,3.222,3.043-1.44a10.906,10.906,0,0,1,11.893,1.706c.068.07.142.138.218.209l.557.565.121.123.012.012a10.917,10.917,0,0,1,2.036,11.2l-1.62,4.16,4.457-.212.147-.006.015,0,.162-.005a5.961,5.961,0,1,1,0,11.922H709.18a10.924,10.924,0,0,1-7.133-2.646,10.266,10.266,0,0,1-1.179-1.193,10.924,10.924,0,0,1,8.332-18.01h2.9v-2.9c0-.153-.006-.306-.012-.459l-.006-.215a20.848,20.848,0,0,1,20.823-20.823m0-2.9a23.727,23.727,0,0,0-23.725,23.725c0,.221.021.451.021.674h-.021a13.825,13.825,0,0,0-10.521,22.788,13,13,0,0,0,1.5,1.512,13.8,13.8,0,0,0,9.024,3.35h65.668a8.862,8.862,0,0,0,0-17.725c-.153,0-.306.013-.459.018a13.825,13.825,0,0,0-2.657-14.28c-.05-.045-.089-.1-.144-.142l-.634-.646a1.507,1.507,0,0,1-.153-.141,13.8,13.8,0,0,0-15.19-2.284,23.729,23.729,0,0,0-22.706-16.851Z" transform="translate(-458.611 -2299.237)" fill="#e6e7e8"/>
      <rect id="Rectangle_2188" data-name="Rectangle 2188" width="297.079" height="11.41" transform="translate(109.043 93.623)" fill="#e6e7e8" opacity="0.8"/>
      <path id="Path_17773" data-name="Path 17773" d="M656.658,2331.906a3.082,3.082,0,1,0,3.079,3.078A3.084,3.084,0,0,0,656.658,2331.906Z" transform="translate(-539.931 -2235.66)" fill="#e6e7e8"/>
      <path id="Path_17774" data-name="Path 17774" d="M659.556,2331.906a3.082,3.082,0,1,0,3.079,3.078A3.084,3.084,0,0,0,659.556,2331.906Z" transform="translate(-534.293 -2235.66)" fill="#e6e7e8"/>
      <path id="Path_17775" data-name="Path 17775" d="M662.452,2331.906a3.082,3.082,0,1,0,3.085,3.078A3.084,3.084,0,0,0,662.452,2331.906Z" transform="translate(-528.655 -2235.66)" fill="#e6e7e8"/>
      <path id="Path_17776" data-name="Path 17776" d="M781.456,2430.853l-.021-.183c-.433-2.651-.907-5.473-1.1-8.4-.256-3.777-.477-7.727-.477-11.852v-.076c0-.91.471-1.856.495-2.825H703.841c.044.963.566,2.006.566,2.9v10.835c0,16.26-3.432,29.794-17.786,38.5h-5.427v5.8H806.937v-5.8h-6.043C789.086,2453.948,783.618,2443.8,781.456,2430.853Z" transform="translate(-486.18 -2088.513)" fill="#e6e7e8"/>
      <rect id="Rectangle_2189" data-name="Rectangle 2189" width="125.742" height="9.802" transform="translate(195.015 367.241)" fill="#e6e7e8"/>
      <rect id="Rectangle_2190" data-name="Rectangle 2190" width="322.226" height="241.752" rx="4.382" transform="translate(96.47 81.052)" fill="#e6e7e8"/>
      <path id="Path_17777" data-name="Path 17777" d="M957.059,2326.749h-296.4a12.91,12.91,0,0,0-12.91,12.91v205.172H969.969V2339.659A12.91,12.91,0,0,0,957.059,2326.749Z" transform="translate(-551.275 -2245.696)" fill="#e6e7e8"/>
      <path id="Path_17778" data-name="Path 17778" d="M948.753,2331.016h-296.4a.338.338,0,0,0-.336.339v192.6H949.092v-192.6A.337.337,0,0,0,948.753,2331.016Z" transform="translate(-542.969 -2237.392)" fill="#e6e7e8"/>
      <path id="Path_17779" data-name="Path 17779" d="M764.526,2408.5H689.073v.03c0,3.574.068,7.257.038,10.626l77.005,9.735h0c-.454-2.9-.922-5.618-1.114-8.538C764.746,2416.58,764.469,2412.627,764.526,2408.5Z" transform="translate(-470.846 -2086.596)" fill="#e6e7e8" opacity="0.2"/>
      <rect id="Rectangle_2191" data-name="Rectangle 2191" width="297.079" height="11.41" transform="translate(109.043 93.623)" fill="#e6e7e8"/>
      <path id="Path_17780" data-name="Path 17780" d="M656.658,2331.906a3.082,3.082,0,1,0,3.079,3.078A3.084,3.084,0,0,0,656.658,2331.906Z" transform="translate(-539.931 -2235.66)" fill="#e6e7e8"/>
      <path id="Path_17781" data-name="Path 17781" d="M659.556,2331.906a3.082,3.082,0,1,0,3.079,3.078A3.084,3.084,0,0,0,659.556,2331.906Z" transform="translate(-534.293 -2235.66)" fill="#e6e7e8"/>
      <path id="Path_17782" data-name="Path 17782" d="M662.452,2331.906a3.082,3.082,0,1,0,3.085,3.078A3.084,3.084,0,0,0,662.452,2331.906Z" transform="translate(-528.655 -2235.66)" fill="#e6e7e8"/>
      <path id="Path_17783" data-name="Path 17783" d="M861.172,2326.748H660.655a12.913,12.913,0,0,0-12.91,12.913v205.172H698.81Z" transform="translate(-551.275 -2245.698)" fill="#e6e7e8" opacity="0.2"/>
      <path id="Path_17784" data-name="Path 17784" d="M710.13,2354.3a2.225,2.225,0,0,0-3.146,0l-21.919,21.92-11.728,11.728a2.224,2.224,0,0,0,0,3.146l11.728,11.729,21.919,21.922a2.224,2.224,0,0,0,3.146,0l10.155-10.155a2.224,2.224,0,0,0,0-3.147l-20.346-20.349a2.224,2.224,0,0,1,0-3.146l20.346-20.345a2.224,2.224,0,0,0,0-3.147Z" transform="translate(-502.74 -2193.348)" fill="#e6e7e8"/>
      <path id="Path_17785" data-name="Path 17785" d="M751.57,2376.107l-.041.041L729.683,2354.3a2.225,2.225,0,0,0-3.146,0l-10.232,10.229a2.229,2.229,0,0,0,0,3.146l20.275,20.272a2.229,2.229,0,0,1,0,3.146l-20.275,20.275a2.227,2.227,0,0,0,0,3.147l10.229,10.229a2.224,2.224,0,0,0,3.146,0l21.845-21.845.041.038,13.372-13.372-.035-.045.035-.038Z" transform="translate(-419.114 -2193.348)" fill="#e6e7e8"/>
      <rect id="Rectangle_2192" data-name="Rectangle 2192" width="70.216" height="17.567" rx="0.755" transform="translate(231.768 221.523) rotate(-58.439)" fill="#e6e7e8"/>
      <rect id="Rectangle_2193" data-name="Rectangle 2193" width="145.894" height="88.13" rx="2.131" transform="translate(0 164.877)" fill="#e6e7e8"/>
      <path id="Path_17786" data-name="Path 17786" d="M679.567,2409.336v-24.073a3.379,3.379,0,0,0-3.379-3.376H652.115a3.378,3.378,0,0,0-2.389,5.766l24.073,24.072A3.379,3.379,0,0,0,679.567,2409.336Z" transform="translate(-549.358 -2138.392)" fill="#e6e7e8"/>
      <rect id="Rectangle_2194" data-name="Rectangle 2194" width="50.543" height="6.122" transform="translate(22.404 224.472)" fill="#e6e7e8"/>
      <rect id="Rectangle_2195" data-name="Rectangle 2195" width="101.086" height="6.137" transform="translate(22.404 212.206)" fill="#e6e7e8"/>
      <rect id="Rectangle_2196" data-name="Rectangle 2196" width="101.086" height="6.129" transform="translate(22.404 199.948)" fill="#e6e7e8"/>
      <rect id="Rectangle_2197" data-name="Rectangle 2197" width="101.086" height="6.129" transform="translate(22.404 187.69)" fill="#e6e7e8"/>
      <rect id="Rectangle_2198" data-name="Rectangle 2198" width="145.894" height="88.13" rx="2.131" transform="translate(354.943 65.331)" fill="#e6e7e8"/>
      <path id="Path_17787" data-name="Path 17787" d="M740.8,2375.549v-24.073a3.382,3.382,0,0,1,3.379-3.379h24.073a3.38,3.38,0,0,1,2.389,5.769l-24.073,24.073A3.38,3.38,0,0,1,740.8,2375.549Z" transform="translate(-370.175 -2204.15)" fill="#e6e7e8"/>
      <text id="API" transform="translate(425.855 128.715)" fill="#e6e7e8" font-size="60" font-family="Roboto-Bold, Roboto" font-weight="700"><tspan x="-48.281" y="0">API</tspan></text>
    </g>
    <g id="Group_11249" data-name="Group 11249">
      <g id="Group_11248" data-name="Group 11248">
        <g id="Group_11233" data-name="Group 11233" transform="translate(37.687 21.689)">
          <path id="Path_17788" data-name="Path 17788" d="M645.4,2410.46a17.111,17.111,0,1,1,0-34.221c.209,0,2.878.15,2.878.15l-.569-2.086a27.151,27.151,0,0,1-1.853-9.9A27.492,27.492,0,0,1,653,2345.9l1.594-1.609a2.144,2.144,0,0,0,.277-.253,27.43,27.43,0,0,1,30.2-4.529l1.52.723.489-1.615a48.233,48.233,0,0,1,94.4,13.977s-.038,1.157-.038,1.408v1.45h1.449a27.5,27.5,0,0,1,20.973,45.337,26.3,26.3,0,0,1-2.979,3.014,27.549,27.549,0,0,1-17.956,6.661Z" transform="translate(-626.833 -2302.901)" fill="#fff"/>
          <path id="Path_17789" data-name="Path 17789" d="M734.2,2306.758a46.842,46.842,0,0,1,46.787,46.79c0,.192-.009.386-.018.581-.012.277-.024.553-.024.827l.041,2.9h2.9a26.057,26.057,0,0,1,19.818,42.966,24.675,24.675,0,0,1-2.811,2.833,26.054,26.054,0,0,1-17.008,6.311H646.358a15.66,15.66,0,1,1,0-31.32c.183,0,.362.013.545.021l.271.015,4.469.221-1.624-4.169a25.678,25.678,0,0,1-1.756-9.371,26.059,26.059,0,0,1,6.705-17.471l.109-.112.053-.041.124-.124,1.231-1.255c.135-.117.247-.226.3-.282a25.981,25.981,0,0,1,17.547-6.79,25.68,25.68,0,0,1,11.071,2.489l3.043,1.441.975-3.223a47.084,47.084,0,0,1,44.775-33.235m0-2.9a49.7,49.7,0,0,0-47.553,35.295,28.878,28.878,0,0,0-31.812,4.781c-.1.094-.2.2-.321.294l-1.329,1.352c-.118.1-.2.2-.3.3a28.937,28.937,0,0,0-5.562,29.905c-.321-.014-.642-.038-.96-.038a18.561,18.561,0,1,0,0,37.121H783.886a28.915,28.915,0,0,0,18.9-7.015,27.242,27.242,0,0,0,3.138-3.169,28.956,28.956,0,0,0-22.04-47.727h-.038c0-.463.038-.945.038-1.408a49.688,49.688,0,0,0-49.686-49.689Z" transform="translate(-627.792 -2303.859)" fill="#f1f1f2"/>
        </g>
        <g id="Group_11234" data-name="Group 11234" transform="translate(236.749)">
          <path id="Path_17790" data-name="Path 17790" d="M708.223,2346.139a12.372,12.372,0,0,1-8.075-3,11.805,11.805,0,0,1-1.337-1.344,12.38,12.38,0,0,1,9.413-20.411h1.449l.021-1.449-.012-.394a22.27,22.27,0,0,1,43.585-6.729l.486,1.608,1.52-.718a12.347,12.347,0,0,1,13.594,2.044l.224.2.507.53a12.4,12.4,0,0,1,3.317,8.428,12.235,12.235,0,0,1-.831,4.448l-.81,2.082,2.616-.124a7.413,7.413,0,1,1,0,14.826Z" transform="translate(-694.402 -2295.539)" fill="#fff"/>
          <path id="Path_17791" data-name="Path 17791" d="M732.905,2299.4a20.957,20.957,0,0,1,19.931,14.79l.972,3.222,3.043-1.44a10.907,10.907,0,0,1,11.893,1.706c.068.071.142.138.218.209l.557.565.121.123.012.013a10.917,10.917,0,0,1,2.036,11.2l-1.62,4.159,4.457-.212.147-.005.015,0,.162-.005a5.961,5.961,0,1,1,0,11.922H709.18a10.941,10.941,0,0,1-7.133-2.645,10.274,10.274,0,0,1-1.179-1.194,10.924,10.924,0,0,1,8.332-18.01h2.9v-2.9c0-.15-.006-.3-.012-.457l-.006-.215a20.846,20.846,0,0,1,20.823-20.824m0-2.9a23.727,23.727,0,0,0-23.725,23.725c0,.221.021.45.021.671h-.021a13.826,13.826,0,0,0-10.521,22.79,12.908,12.908,0,0,0,1.5,1.512,13.8,13.8,0,0,0,9.024,3.35h65.668a8.862,8.862,0,0,0,0-17.725c-.153,0-.306.013-.459.018a13.826,13.826,0,0,0-2.657-14.28c-.05-.044-.089-.094-.144-.141l-.634-.646a1.9,1.9,0,0,1-.153-.142,13.792,13.792,0,0,0-15.19-2.283,23.73,23.73,0,0,0-22.706-16.851Z" transform="translate(-695.36 -2296.497)" fill="#f1f1f2"/>
        </g>
        <rect id="Rectangle_2199" data-name="Rectangle 2199" width="297.079" height="11.41" transform="translate(109.043 93.623)" fill="#d0d2d3" opacity="0.8"/>
        <g id="Group_11235" data-name="Group 11235" transform="translate(113.643 96.246)">
          <path id="Path_17792" data-name="Path 17792" d="M656.658,2329.166a3.082,3.082,0,1,0,3.079,3.078A3.084,3.084,0,0,0,656.658,2329.166Z" transform="translate(-653.574 -2329.166)" fill="#fff"/>
        </g>
        <path id="Path_17793" data-name="Path 17793" d="M659.556,2329.166a3.082,3.082,0,1,0,3.079,3.078A3.084,3.084,0,0,0,659.556,2329.166Z" transform="translate(-534.293 -2232.92)" fill="#fff"/>
        <path id="Path_17794" data-name="Path 17794" d="M662.452,2329.166a3.082,3.082,0,1,0,3.085,3.078A3.084,3.084,0,0,0,662.452,2329.166Z" transform="translate(-528.655 -2232.92)" fill="#fff"/>
        <g id="Group_11242" data-name="Group 11242" transform="translate(96.47 81.05)">
          <path id="Path_17795" data-name="Path 17795" d="M781.456,2428.113l-.021-.183c-.433-2.651-.907-5.474-1.1-8.4-.256-3.777-.477-7.727-.477-11.852v-.076c0-.91.471-1.856.495-2.825H703.841c.044.96.566,2.006.566,2.9v10.835c0,16.26-3.432,29.794-17.786,38.5h-5.427v5.8H806.937v-5.8h-6.043C789.086,2451.207,783.618,2441.061,781.456,2428.113Z" transform="translate(-582.649 -2166.823)" fill="#14475f"/>
          <rect id="Rectangle_2200" data-name="Rectangle 2200" width="125.742" height="9.802" transform="translate(98.546 286.19)" fill="#184f70"/>
          <path id="Path_20261" data-name="Path 20261" d="M4.382,0H317.843a4.382,4.382,0,0,1,4.382,4.382V237.37a4.382,4.382,0,0,1-4.382,4.382H4.382A4.382,4.382,0,0,1,0,237.37V4.382A4.382,4.382,0,0,1,4.382,0Z" transform="translate(0 0.001)" fill="#14475f"/>
          <path id="Path_17796" data-name="Path 17796" d="M957.059,2324.008h-296.4a12.913,12.913,0,0,0-12.91,12.913v205.172H969.969V2336.921A12.913,12.913,0,0,0,957.059,2324.008Z" transform="translate(-647.745 -2324.008)" fill="#0a384f"/>
          <path id="Path_17797" data-name="Path 17797" d="M948.753,2328.276h-296.4a.338.338,0,0,0-.336.34v192.6H949.092v-192.6A.337.337,0,0,0,948.753,2328.276Z" transform="translate(-639.439 -2315.703)" fill="#fff"/>
          <path id="Path_17798" data-name="Path 17798" d="M764.526,2405.762H689.073v.03c0,3.571.068,7.257.038,10.626l77.005,9.734h0c-.454-2.9-.922-5.622-1.114-8.538C764.746,2413.84,764.469,2409.887,764.526,2405.762Z" transform="translate(-567.316 -2164.906)" opacity="0.2"/>
          <g id="Group_11237" data-name="Group 11237" transform="translate(12.573 12.573)">
            <rect id="Rectangle_2202" data-name="Rectangle 2202" width="297.079" height="11.41" fill="#d0d2d3"/>
            <g id="Group_11236" data-name="Group 11236" transform="translate(4.6 2.623)">
              <path id="Path_17799" data-name="Path 17799" d="M656.658,2329.166a3.082,3.082,0,1,0,3.079,3.078A3.084,3.084,0,0,0,656.658,2329.166Z" transform="translate(-653.574 -2329.166)" fill="#fff"/>
            </g>
            <path id="Path_17800" data-name="Path 17800" d="M659.556,2329.166a3.082,3.082,0,1,0,3.079,3.078A3.084,3.084,0,0,0,659.556,2329.166Z" transform="translate(-643.336 -2326.543)" fill="#fff"/>
            <path id="Path_17801" data-name="Path 17801" d="M662.452,2329.166a3.082,3.082,0,1,0,3.085,3.078A3.084,3.084,0,0,0,662.452,2329.166Z" transform="translate(-637.698 -2326.543)" fill="#fff"/>
          </g>
          <path id="Path_17802" data-name="Path 17802" d="M861.172,2324.008H660.655a12.913,12.913,0,0,0-12.91,12.913v205.172H698.81Z" transform="translate(-647.745 -2324.008)" fill="#fff" opacity="0.2"/>
          <g id="Group_11241" data-name="Group 11241" transform="translate(73.475 79.249)">
            <g id="Group_11238" data-name="Group 11238">
              <path id="Path_17803" data-name="Path 17803" d="M710.13,2351.56a2.224,2.224,0,0,0-3.146,0l-21.919,21.919-11.728,11.728a2.224,2.224,0,0,0,0,3.146l11.728,11.729L706.984,2422a2.225,2.225,0,0,0,3.146,0l10.155-10.155a2.225,2.225,0,0,0,0-3.147l-20.346-20.349a2.224,2.224,0,0,1,0-3.146l20.346-20.345a2.224,2.224,0,0,0,0-3.147Z" transform="translate(-672.685 -2350.907)" fill="#008f8d"/>
            </g>
            <g id="Group_11239" data-name="Group 11239" transform="translate(126.596)">
              <path id="Path_17804" data-name="Path 17804" d="M751.57,2373.367l-.041.041-21.845-21.848a2.224,2.224,0,0,0-3.146,0l-10.232,10.229a2.229,2.229,0,0,0,0,3.146l20.275,20.272a2.229,2.229,0,0,1,0,3.146l-20.275,20.275a2.227,2.227,0,0,0,0,3.147L726.537,2422a2.225,2.225,0,0,0,3.146,0l21.845-21.849.041.041,13.372-13.375-.035-.042.035-.037Z" transform="translate(-715.656 -2350.907)" fill="#008f8d"/>
            </g>
            <g id="Group_11240" data-name="Group 11240" transform="translate(61.823 1.394)">
              <rect id="Rectangle_2203" data-name="Rectangle 2203" width="70.216" height="17.567" rx="0.755" transform="translate(0 59.83) rotate(-58.439)" fill="#008f8d"/>
            </g>
          </g>
        </g>
        <g id="Group_11245" data-name="Group 11245" transform="translate(0 164.877)">
          <g id="Group_11243" data-name="Group 11243">
            <rect id="Rectangle_2204" data-name="Rectangle 2204" width="145.894" height="88.13" rx="2.131" fill="#0fc2bf"/>
            <path id="Path_17805" data-name="Path 17805" d="M679.567,2406.6v-24.073a3.379,3.379,0,0,0-3.379-3.376H652.115a3.378,3.378,0,0,0-2.389,5.766l24.073,24.073A3.379,3.379,0,0,0,679.567,2406.6Z" transform="translate(-549.358 -2300.528)" fill="#0fc2bf"/>
          </g>
          <g id="Group_11244" data-name="Group 11244" transform="translate(22.404 22.813)">
            <rect id="Rectangle_2205" data-name="Rectangle 2205" width="50.543" height="6.122" transform="translate(0 36.782)" fill="#fff"/>
            <rect id="Rectangle_2206" data-name="Rectangle 2206" width="101.086" height="6.137" transform="translate(0 24.516)" fill="#fff"/>
            <rect id="Rectangle_2207" data-name="Rectangle 2207" width="101.086" height="6.129" transform="translate(0 12.258)" fill="#fff"/>
            <rect id="Rectangle_2208" data-name="Rectangle 2208" width="101.086" height="6.129" fill="#fff"/>
          </g>
        </g>
        <g id="Group_11247" data-name="Group 11247" transform="translate(354.943 65.33)">
          <g id="Group_11246" data-name="Group 11246">
            <rect id="Rectangle_2209" data-name="Rectangle 2209" width="145.894" height="88.13" rx="2.131" fill="#0caba7"/>
            <path id="Path_17806" data-name="Path 17806" d="M740.8,2372.809v-24.073a3.381,3.381,0,0,1,3.379-3.379h24.073a3.38,3.38,0,0,1,2.389,5.768L746.572,2375.2A3.38,3.38,0,0,1,740.8,2372.809Z" transform="translate(-725.118 -2266.741)" fill="#0caba7"/>
          </g>
          <text id="API-2" data-name="API" transform="translate(70.912 63.385)" fill="#fff" font-size="60" font-family="Roboto-Bold, Roboto" font-weight="700"><tspan x="-48.281" y="0">API</tspan></text>
        </g>
      </g>
    </g>
  </g>
</svg>
