<svg xmlns="http://www.w3.org/2000/svg" width="343.517" height="295.161" viewBox="0 0 343.517 295.161">
  <g id="Group_22993" data-name="Group 22993" transform="translate(-634.343 -6004.835)">
    <g id="Group_22970" data-name="Group 22970" transform="translate(634.343 6012.236)" style="mix-blend-mode: multiply;isolation: isolate">
      <path id="Path_66170" data-name="Path 66170" d="M644.043,6221.088V6050.169a10.311,10.311,0,0,1,10.325-10.322H926.484a10.333,10.333,0,0,1,10.338,10.322v170.919Z" transform="translate(-618.668 -5955.656)" fill="#e6e7e8"/>
      <path id="Path_66171" data-name="Path 66171" d="M977.86,6114.243a17.225,17.225,0,0,1-17.213,17.214H651.569a17.225,17.225,0,0,1-17.226-17.214v-5.114H977.86Z" transform="translate(-634.343 -5843.697)" fill="#e6e7e8"/>
      <path id="Path_66172" data-name="Path 66172" d="M759.51,6110.738a6.386,6.386,0,0,1-6.4,6.388h-60.77a6.408,6.408,0,0,1-6.4-6.388v-1.609H759.51Z" transform="translate(-550.966 -5843.697)" fill="#e6e7e8"/>
      <rect id="Rectangle_4512" data-name="Rectangle 4512" width="267.369" height="155.849" transform="translate(38.074 96.886)" fill="#e6e7e8"/>
      <path id="Path_66173" data-name="Path 66173" d="M675.4,6009.973a7.363,7.363,0,0,0-7.343,7.342v206.648a7.366,7.366,0,0,0,7.343,7.344H831.012a7.365,7.365,0,0,0,7.343-7.344V6055.334a7.349,7.349,0,0,0-2.151-5.192l-38.018-38.02a7.335,7.335,0,0,0-5.193-2.149Z" transform="translate(-579.866 -6003.935)" fill="#e6e7e8"/>
      <rect id="Rectangle_4513" data-name="Rectangle 4513" width="69.961" height="7.343" transform="translate(115.407 184.327)" fill="#e6e7e8"/>
      <rect id="Rectangle_4514" data-name="Rectangle 4514" width="87.933" height="7.343" transform="translate(115.407 166.587)" fill="#e6e7e8"/>
      <rect id="Rectangle_4515" data-name="Rectangle 4515" width="121.642" height="7.343" transform="translate(115.407 148.556)" fill="#e6e7e8"/>
      <rect id="Rectangle_4516" data-name="Rectangle 4516" width="121.642" height="7.343" transform="translate(115.407 131.562)" fill="#e6e7e8"/>
      <rect id="Rectangle_4517" data-name="Rectangle 4517" width="121.642" height="7.343" transform="translate(115.407 113.823)" fill="#e6e7e8"/>
      <rect id="Rectangle_4518" data-name="Rectangle 4518" width="121.642" height="7.343" transform="translate(115.407 96.083)" fill="#e6e7e8"/>
      <rect id="Rectangle_4519" data-name="Rectangle 4519" width="57.643" height="7.343" transform="translate(179.406 78.052)" fill="#e6e7e8"/>
      <rect id="Rectangle_4520" data-name="Rectangle 4520" width="57.643" height="7.343" transform="translate(179.406 61.058)" fill="#e6e7e8"/>
      <path id="Path_66174" data-name="Path 66174" d="M756.777,6066.419v-40.27h-38.24Z" transform="translate(-498.287 -5977.792)" fill="#e6e7e8" opacity="0.15"/>
      <path id="Path_66175" data-name="Path 66175" d="M716.977,6047.088a5.215,5.215,0,0,0,5.2,5.2H759.3l-42.319-42.318Z" transform="translate(-500.807 -6003.935)" fill="#e6e7e8"/>
      <path id="Path_66176" data-name="Path 66176" d="M691.754,6033.672v17.36h17.36v-17.36Zm14.88,4.39v10.492h-12.4v-12.4h12.4Z" transform="translate(-541.567 -5965.638)" fill="#e6e7e8"/>
      <rect id="Rectangle_4521" data-name="Rectangle 4521" width="7.44" height="7.44" transform="translate(155.147 72.994)" fill="#e6e7e8"/>
      <path id="Path_66177" data-name="Path 66177" d="M678.481,6033.672v17.36h17.36v-17.36Zm14.88,4.39v10.492h-12.4v-12.4h12.4Z" transform="translate(-563.016 -5965.638)" fill="#e6e7e8"/>
      <rect id="Rectangle_4522" data-name="Rectangle 4522" width="7.44" height="7.44" transform="translate(120.425 72.994)" fill="#e6e7e8"/>
      <path id="Path_66178" data-name="Path 66178" d="M678.481,6020.4v17.36h17.36V6020.4Zm14.88,4.391v10.489h-12.4v-12.4h12.4Z" transform="translate(-563.016 -5987.086)" fill="#e6e7e8"/>
      <path id="Path_66179" data-name="Path 66179" d="M680.377,6029.734h7.44v-7.44h-7.44Z" transform="translate(-559.952 -5984.022)" fill="#e6e7e8"/>
      <path id="Path_66180" data-name="Path 66180" d="M691.754,6020.4v17.36h17.36V6020.4Zm14.88,4.391v10.489h-12.4v-12.4h12.4Z" transform="translate(-541.567 -5987.086)" fill="#e6e7e8"/>
      <path id="Path_66181" data-name="Path 66181" d="M693.65,6029.734h7.44v-7.44h-7.44Z" transform="translate(-538.503 -5984.022)" fill="#e6e7e8"/>
      <rect id="Rectangle_4523" data-name="Rectangle 4523" width="2.481" height="2.479" transform="translate(140.265 33.313)" fill="#e6e7e8"/>
      <path id="Path_66182" data-name="Path 66182" d="M689.858,6022.878v2.479h2.481V6020.4h-2.481Z" transform="translate(-544.632 -5987.086)" fill="#e6e7e8"/>
      <rect id="Rectangle_4524" data-name="Rectangle 4524" width="2.481" height="2.482" transform="translate(135.305 38.272)" fill="#e6e7e8"/>
      <rect id="Rectangle_4525" data-name="Rectangle 4525" width="2.481" height="2.482" transform="translate(140.265 38.272)" fill="#e6e7e8"/>
      <path id="Path_66183" data-name="Path 66183" d="M689.858,6025.722v2.479h2.481v-4.958h-2.481Z" transform="translate(-544.632 -5982.49)" fill="#e6e7e8"/>
      <rect id="Rectangle_4526" data-name="Rectangle 4526" width="2.481" height="2.479" transform="translate(145.226 48.193)" fill="#e6e7e8"/>
      <path id="Path_66184" data-name="Path 66184" d="M684.753,6027.982h-2.479v2.481h2.479v2.479h2.481v-2.479h2.48v-2.481h-4.961Z" transform="translate(-556.888 -5974.83)" fill="#e6e7e8"/>
      <path id="Path_66185" data-name="Path 66185" d="M689.493,6024.19h-2.479v4.96h2.479v9.92h2.481v-12.4h-2.481Z" transform="translate(-549.228 -5980.958)" fill="#e6e7e8"/>
      <rect id="Rectangle_4527" data-name="Rectangle 4527" width="2.479" height="2.48" transform="translate(160.108 53.153)" fill="#e6e7e8"/>
      <path id="Path_66186" data-name="Path 66186" d="M686.065,6029.515v4.96h2.481v-7.44h-2.481Z" transform="translate(-550.761 -5976.362)" fill="#e6e7e8"/>
      <path id="Path_66187" data-name="Path 66187" d="M680.961,6027.982h-2.48v4.96h2.48v-2.479h2.48v4.959h2.48v-7.44h-4.96Z" transform="translate(-563.017 -5974.83)" fill="#e6e7e8"/>
      <rect id="Rectangle_4528" data-name="Rectangle 4528" width="2.48" height="2.481" transform="translate(130.346 58.113)" fill="#e6e7e8"/>
      <rect id="Rectangle_4529" data-name="Rectangle 4529" width="2.479" height="2.481" transform="translate(142.746 58.113)" fill="#e6e7e8"/>
      <path id="Path_66188" data-name="Path 66188" d="M680.961,6033.306h-2.48v2.482h4.961v-4.962h-2.48Z" transform="translate(-563.017 -5970.233)" fill="#e6e7e8"/>
      <path id="Path_66189" data-name="Path 66189" d="M686.285,6030.826h-2.479v2.479h-2.48v2.482h7.441v-2.482h-2.481Z" transform="translate(-558.42 -5970.233)" fill="#e6e7e8"/>
      <path id="Path_66190" data-name="Path 66190" d="M692.339,6027.982h-2.481v2.481h2.481v4.959h-2.481v2.479h2.481v2.482H697.3V6037.9h-2.479v-7.438H697.3v-2.481h-4.959Z" transform="translate(-544.632 -5974.83)" fill="#e6e7e8"/>
      <path id="Path_66191" data-name="Path 66191" d="M700.143,6033.891v-4.959h-2.481v4.959h-2.479v-4.959H692.7v7.438h4.96v2.482h4.96v-2.482h-2.479Z" transform="translate(-540.036 -5973.298)" fill="#e6e7e8"/>
      <path id="Path_66192" data-name="Path 66192" d="M698.974,6031.41v-2.479h-2.48v7.438h4.961v-2.479h-2.48Z" transform="translate(-533.907 -5973.298)" fill="#e6e7e8"/>
      <path id="Path_66193" data-name="Path 66193" d="M685.117,6033.306v2.482H687.6v-4.962h-2.479Z" transform="translate(-552.292 -5970.233)" fill="#e6e7e8"/>
      <path id="Path_66194" data-name="Path 66194" d="M691.026,6033.306v-2.479h-2.479v4.962h-2.481v2.479h7.442v-2.479h-2.481Z" transform="translate(-550.761 -5970.233)" fill="#e6e7e8"/>
      <rect id="Rectangle_4530" data-name="Rectangle 4530" width="2.481" height="2.479" transform="translate(145.226 68.034)" fill="#e6e7e8"/>
      <path id="Path_66195" data-name="Path 66195" d="M688.547,6034.618h-2.481v4.96h2.481V6037.1h4.96v-2.481h-4.96Z" transform="translate(-550.761 -5964.105)" fill="#e6e7e8"/>
      <rect id="Rectangle_4531" data-name="Rectangle 4531" width="2.481" height="2.479" transform="translate(145.226 72.994)" fill="#e6e7e8"/>
      <rect id="Rectangle_4532" data-name="Rectangle 4532" width="2.479" height="2.481" transform="translate(137.786 75.473)" fill="#e6e7e8"/>
      <path id="Path_66196" data-name="Path 66196" d="M686.065,6039.943v2.48h2.481v-4.96h-2.481Z" transform="translate(-550.761 -5959.509)" fill="#e6e7e8"/>
      <path id="Path_66197" data-name="Path 66197" d="M692.922,6037.464h-4.96v2.479h2.481v4.96h2.479v-2.479H695.4v-2.48h-2.481Z" transform="translate(-547.696 -5959.509)" fill="#e6e7e8"/>
      <rect id="Rectangle_4533" data-name="Rectangle 4533" width="2.479" height="2.479" transform="translate(137.786 82.915)" fill="#e6e7e8"/>
      <path id="Path_66198" data-name="Path 66198" d="M778.166,6116.028l-6.4-5.044a23.067,23.067,0,0,0,0-5.462l6.407-5.05a2.81,2.81,0,0,0,.672-3.564l-6.529-11.38a2.708,2.708,0,0,0-2.394-1.428,2.979,2.979,0,0,0-1.028.188l-7.55,3.056a25.215,25.215,0,0,0-4.667-2.729l-1.151-8.083a2.74,2.74,0,0,0-2.731-2.381H739.7a2.735,2.735,0,0,0-2.728,2.362l-1.154,8.1a26.287,26.287,0,0,0-4.659,2.73l-7.566-3.061a2.666,2.666,0,0,0-.97-.18,2.778,2.778,0,0,0-2.428,1.4l-6.54,11.395a2.759,2.759,0,0,0,.67,3.578l6.406,5.047a22.711,22.711,0,0,0,0,5.462l-6.409,5.047a2.815,2.815,0,0,0-.672,3.567l6.529,11.38a2.712,2.712,0,0,0,2.394,1.426,3.006,3.006,0,0,0,1.031-.187l7.55-3.056a25.2,25.2,0,0,0,4.664,2.729l1.151,8.083a2.739,2.739,0,0,0,2.731,2.381h13.088a2.734,2.734,0,0,0,2.728-2.363l1.154-8.1a26.275,26.275,0,0,0,4.659-2.729l7.566,3.061a2.755,2.755,0,0,0,1.012.192h0A2.715,2.715,0,0,0,772.3,6131l6.561-11.429A2.811,2.811,0,0,0,778.166,6116.028Zm-31.672,7.252a15.1,15.1,0,1,1,15.1-15.1A15.118,15.118,0,0,1,746.494,6123.28Z" transform="translate(-506.793 -5900.222)" fill="#e6e7e8"/>
      <path id="Path_66199" data-name="Path 66199" d="M675.4,6007.664a7.364,7.364,0,0,0-7.343,7.344v206.646A7.366,7.366,0,0,0,675.4,6229H831.012a7.365,7.365,0,0,0,7.343-7.344V6053.027a7.342,7.342,0,0,0-2.151-5.192l-38.018-38.021a7.347,7.347,0,0,0-5.193-2.149Z" transform="translate(-579.866 -6007.664)" fill="#e6e7e8"/>
      <rect id="Rectangle_4534" data-name="Rectangle 4534" width="69.961" height="7.343" transform="translate(115.407 178.29)" fill="#e6e7e8"/>
      <rect id="Rectangle_4535" data-name="Rectangle 4535" width="87.933" height="7.343" transform="translate(115.407 160.55)" fill="#e6e7e8"/>
      <rect id="Rectangle_4536" data-name="Rectangle 4536" width="121.642" height="7.343" transform="translate(115.407 142.519)" fill="#e6e7e8"/>
      <rect id="Rectangle_4537" data-name="Rectangle 4537" width="121.642" height="7.343" transform="translate(115.407 125.526)" fill="#e6e7e8"/>
      <rect id="Rectangle_4538" data-name="Rectangle 4538" width="121.642" height="7.343" transform="translate(115.407 107.786)" fill="#e6e7e8"/>
      <rect id="Rectangle_4539" data-name="Rectangle 4539" width="121.642" height="7.343" transform="translate(115.407 90.046)" fill="#e6e7e8"/>
      <rect id="Rectangle_4540" data-name="Rectangle 4540" width="57.643" height="7.343" transform="translate(179.406 72.015)" fill="#e6e7e8"/>
      <rect id="Rectangle_4541" data-name="Rectangle 4541" width="57.643" height="7.343" transform="translate(179.406 55.022)" fill="#e6e7e8"/>
      <path id="Path_66200" data-name="Path 66200" d="M756.777,6064.112v-40.27h-38.24Z" transform="translate(-498.287 -5981.522)" fill="#e6e7e8" opacity="0.15"/>
      <path id="Path_66201" data-name="Path 66201" d="M716.977,6044.782a5.217,5.217,0,0,0,5.2,5.2H759.3l-42.319-42.321Z" transform="translate(-500.807 -6007.664)" fill="#e6e7e8"/>
      <path id="Path_66202" data-name="Path 66202" d="M691.754,6031.363v17.362h17.36v-17.362Zm14.88,4.393v10.489h-12.4v-12.4h12.4Z" transform="translate(-541.567 -5969.368)" fill="#e6e7e8"/>
      <rect id="Rectangle_4542" data-name="Rectangle 4542" width="7.44" height="7.44" transform="translate(155.147 66.957)" fill="#e6e7e8"/>
      <path id="Path_66203" data-name="Path 66203" d="M678.481,6031.363v17.362h17.36v-17.362Zm14.88,4.393v10.489h-12.4v-12.4h12.4Z" transform="translate(-563.016 -5969.368)" fill="#e6e7e8"/>
      <rect id="Rectangle_4543" data-name="Rectangle 4543" width="7.44" height="7.44" transform="translate(120.425 66.957)" fill="#e6e7e8"/>
      <path id="Path_66204" data-name="Path 66204" d="M678.481,6018.091v17.36h17.36v-17.36Zm14.88,4.391v10.489h-12.4v-12.4h12.4Z" transform="translate(-563.016 -5990.814)" fill="#e6e7e8"/>
      <path id="Path_66205" data-name="Path 66205" d="M680.377,6027.428h7.44v-7.44h-7.44Z" transform="translate(-559.952 -5987.752)" fill="#e6e7e8"/>
      <path id="Path_66206" data-name="Path 66206" d="M691.754,6018.091v17.36h17.36v-17.36Zm14.88,4.391v10.489h-12.4v-12.4h12.4Z" transform="translate(-541.567 -5990.814)" fill="#e6e7e8"/>
      <path id="Path_66207" data-name="Path 66207" d="M693.65,6027.428h7.44v-7.44h-7.44Z" transform="translate(-538.503 -5987.752)" fill="#e6e7e8"/>
      <rect id="Rectangle_4544" data-name="Rectangle 4544" width="2.481" height="2.479" transform="translate(140.265 27.276)" fill="#e6e7e8"/>
      <path id="Path_66208" data-name="Path 66208" d="M689.858,6020.57v2.479h2.481v-4.959h-2.481Z" transform="translate(-544.632 -5990.814)" fill="#e6e7e8"/>
      <rect id="Rectangle_4545" data-name="Rectangle 4545" width="2.481" height="2.482" transform="translate(135.305 32.235)" fill="#e6e7e8"/>
      <rect id="Rectangle_4546" data-name="Rectangle 4546" width="2.481" height="2.482" transform="translate(140.265 32.235)" fill="#e6e7e8"/>
      <path id="Path_66209" data-name="Path 66209" d="M689.858,6023.415v2.479h2.481v-4.959h-2.481Z" transform="translate(-544.632 -5986.219)" fill="#e6e7e8"/>
      <rect id="Rectangle_4547" data-name="Rectangle 4547" width="2.481" height="2.479" transform="translate(145.226 42.156)" fill="#e6e7e8"/>
      <path id="Path_66210" data-name="Path 66210" d="M684.753,6025.676h-2.479v2.479h2.479v2.479h2.481v-2.479h2.48v-2.479h-4.961Z" transform="translate(-556.888 -5978.559)" fill="#e6e7e8"/>
      <path id="Path_66211" data-name="Path 66211" d="M689.493,6021.884h-2.479v4.96h2.479v9.92h2.481v-12.4h-2.481Z" transform="translate(-549.228 -5984.688)" fill="#e6e7e8"/>
      <rect id="Rectangle_4548" data-name="Rectangle 4548" width="2.479" height="2.48" transform="translate(160.108 47.117)" fill="#e6e7e8"/>
      <path id="Path_66212" data-name="Path 66212" d="M686.065,6027.209v4.959h2.481v-7.44h-2.481Z" transform="translate(-550.761 -5980.092)" fill="#e6e7e8"/>
      <path id="Path_66213" data-name="Path 66213" d="M680.961,6025.676h-2.48v4.959h2.48v-2.479h2.48v4.96h2.48v-7.439h-4.96Z" transform="translate(-563.017 -5978.559)" fill="#e6e7e8"/>
      <rect id="Rectangle_4549" data-name="Rectangle 4549" width="2.48" height="2.481" transform="translate(130.346 52.076)" fill="#e6e7e8"/>
      <rect id="Rectangle_4550" data-name="Rectangle 4550" width="2.479" height="2.481" transform="translate(142.746 52.076)" fill="#e6e7e8"/>
      <path id="Path_66214" data-name="Path 66214" d="M680.961,6031h-2.48v2.48h4.961v-4.961h-2.48Z" transform="translate(-563.017 -5973.963)" fill="#e6e7e8"/>
      <path id="Path_66215" data-name="Path 66215" d="M686.285,6028.52h-2.479V6031h-2.48v2.48h7.441V6031h-2.481Z" transform="translate(-558.42 -5973.963)" fill="#e6e7e8"/>
      <path id="Path_66216" data-name="Path 66216" d="M692.339,6025.676h-2.481v2.479h2.481v4.96h-2.481v2.48h2.481v2.48H697.3v-2.48h-2.479v-7.44H697.3v-2.479h-4.959Z" transform="translate(-544.632 -5978.559)" fill="#e6e7e8"/>
      <path id="Path_66217" data-name="Path 66217" d="M700.143,6031.583v-4.96h-2.481v4.96h-2.479v-4.96H692.7v7.44h4.96v2.48h4.96v-2.48h-2.479Z" transform="translate(-540.036 -5977.026)" fill="#e6e7e8"/>
      <path id="Path_66218" data-name="Path 66218" d="M698.974,6029.1v-2.479h-2.48v7.44h4.961v-2.48h-2.48Z" transform="translate(-533.907 -5977.026)" fill="#e6e7e8"/>
      <path id="Path_66219" data-name="Path 66219" d="M685.117,6031v2.48H687.6v-4.961h-2.479Z" transform="translate(-552.292 -5973.963)" fill="#e6e7e8"/>
      <path id="Path_66220" data-name="Path 66220" d="M691.026,6031v-2.48h-2.479v4.961h-2.481v2.479h7.442v-2.479h-2.481Z" transform="translate(-550.761 -5973.963)" fill="#e6e7e8"/>
      <rect id="Rectangle_4551" data-name="Rectangle 4551" width="2.481" height="2.479" transform="translate(145.226 61.997)" fill="#e6e7e8"/>
      <path id="Path_66221" data-name="Path 66221" d="M688.547,6032.312h-2.481v4.961h2.481v-2.48h4.96v-2.48h-4.96Z" transform="translate(-550.761 -5967.835)" fill="#e6e7e8"/>
      <rect id="Rectangle_4552" data-name="Rectangle 4552" width="2.481" height="2.479" transform="translate(145.226 66.957)" fill="#e6e7e8"/>
      <rect id="Rectangle_4553" data-name="Rectangle 4553" width="2.479" height="2.481" transform="translate(137.786 69.438)" fill="#e6e7e8"/>
      <path id="Path_66222" data-name="Path 66222" d="M686.065,6037.636v2.481h2.481v-4.961h-2.481Z" transform="translate(-550.761 -5963.238)" fill="#e6e7e8"/>
      <path id="Path_66223" data-name="Path 66223" d="M692.922,6035.156h-4.96v2.479h2.481v4.961h2.479v-2.479H695.4v-2.481h-2.481Z" transform="translate(-547.696 -5963.238)" fill="#e6e7e8"/>
      <rect id="Rectangle_4554" data-name="Rectangle 4554" width="2.479" height="2.479" transform="translate(137.786 76.879)" fill="#e6e7e8"/>
      <path id="Path_66224" data-name="Path 66224" d="M778.166,6113.721l-6.4-5.047a23.067,23.067,0,0,0,0-5.462l6.407-5.049a2.812,2.812,0,0,0,.672-3.565l-6.529-11.377a2.709,2.709,0,0,0-2.394-1.429,2.894,2.894,0,0,0-1.028.189l-7.55,3.056a25.052,25.052,0,0,0-4.667-2.729l-1.151-8.085a2.737,2.737,0,0,0-2.731-2.379H739.7a2.732,2.732,0,0,0-2.728,2.358l-1.154,8.105a26.037,26.037,0,0,0-4.659,2.729l-7.566-3.062a2.666,2.666,0,0,0-.97-.18,2.778,2.778,0,0,0-2.428,1.4l-6.54,11.4a2.755,2.755,0,0,0,.67,3.575l6.406,5.047a22.711,22.711,0,0,0,0,5.462l-6.409,5.05a2.811,2.811,0,0,0-.672,3.564l6.529,11.38a2.715,2.715,0,0,0,2.394,1.429,2.943,2.943,0,0,0,1.031-.19l7.55-3.053a25.184,25.184,0,0,0,4.664,2.726l1.151,8.083a2.739,2.739,0,0,0,2.731,2.381h13.088a2.734,2.734,0,0,0,2.728-2.359l1.154-8.1a25.922,25.922,0,0,0,4.659-2.729l7.566,3.061a2.757,2.757,0,0,0,1.012.194h0a2.715,2.715,0,0,0,2.386-1.41l6.561-11.433A2.807,2.807,0,0,0,778.166,6113.721Zm-31.672,7.251a15.1,15.1,0,1,1,15.1-15.1A15.117,15.117,0,0,1,746.494,6120.972Z" transform="translate(-506.793 -5903.95)" fill="#e6e7e8"/>
    </g>
    <g id="Group_22992" data-name="Group 22992" transform="translate(634.343 6004.835)">
      <g id="Group_22991" data-name="Group 22991">
        <path id="Path_66225" data-name="Path 66225" d="M644.043,6218.259V6047.341a10.311,10.311,0,0,1,10.325-10.322H926.484a10.333,10.333,0,0,1,10.338,10.322v170.918Z" transform="translate(-618.668 -5952.828)" fill="#184f70"/>
        <path id="Path_66226" data-name="Path 66226" d="M977.86,6111.415a17.223,17.223,0,0,1-17.213,17.213H651.569a17.223,17.223,0,0,1-17.226-17.213V6106.3H977.86Z" transform="translate(-634.343 -5840.868)" fill="#14475f"/>
        <path id="Path_66227" data-name="Path 66227" d="M759.51,6107.91a6.386,6.386,0,0,1-6.4,6.388h-60.77a6.408,6.408,0,0,1-6.4-6.388v-1.61H759.51Z" transform="translate(-550.966 -5840.868)" fill="#042438"/>
        <path id="Path_76452" data-name="Path 76452" d="M0,0H267.369V155.849H0Z" transform="translate(38.074 96.888)" fill="#0caba7"/>
        <g id="Group_22990" data-name="Group 22990" transform="translate(88.188)">
          <g id="Group_22971" data-name="Group 22971" transform="translate(0 6.038)" style="mix-blend-mode: multiply;isolation: isolate">
            <path id="Path_66228" data-name="Path 66228" d="M675.4,6007.144a7.364,7.364,0,0,0-7.343,7.344v206.647a7.366,7.366,0,0,0,7.343,7.343H831.012a7.364,7.364,0,0,0,7.343-7.343V6052.5a7.351,7.351,0,0,0-2.151-5.192l-38.018-38.019a7.332,7.332,0,0,0-5.193-2.15Z" transform="translate(-668.054 -6007.144)" fill="#e6e7e8"/>
            <rect id="Rectangle_4556" data-name="Rectangle 4556" width="69.961" height="7.343" transform="translate(27.22 178.29)" fill="#e6e7e8"/>
            <rect id="Rectangle_4557" data-name="Rectangle 4557" width="87.933" height="7.343" transform="translate(27.22 160.549)" fill="#e6e7e8"/>
            <rect id="Rectangle_4558" data-name="Rectangle 4558" width="121.642" height="7.343" transform="translate(27.22 142.518)" fill="#e6e7e8"/>
            <rect id="Rectangle_4559" data-name="Rectangle 4559" width="121.642" height="7.343" transform="translate(27.22 125.526)" fill="#e6e7e8"/>
            <rect id="Rectangle_4560" data-name="Rectangle 4560" width="121.642" height="7.343" transform="translate(27.22 107.786)" fill="#e6e7e8"/>
            <rect id="Rectangle_4561" data-name="Rectangle 4561" width="121.642" height="7.343" transform="translate(27.22 90.045)" fill="#e6e7e8"/>
            <rect id="Rectangle_4562" data-name="Rectangle 4562" width="57.643" height="7.343" transform="translate(91.218 72.014)" fill="#e6e7e8"/>
            <rect id="Rectangle_4563" data-name="Rectangle 4563" width="57.643" height="7.343" transform="translate(91.218 55.022)" fill="#e6e7e8"/>
            <path id="Path_66229" data-name="Path 66229" d="M756.777,6063.59v-40.269h-38.24Z" transform="translate(-586.475 -5981)" fill="#e6e7e8" opacity="0.15"/>
            <path id="Path_66230" data-name="Path 66230" d="M716.977,6044.26a5.217,5.217,0,0,0,5.2,5.205H759.3l-42.319-42.321Z" transform="translate(-588.995 -6007.144)" fill="#e6e7e8"/>
            <path id="Path_66231" data-name="Path 66231" d="M691.754,6030.842v17.36h17.36v-17.36Zm14.88,4.391v10.492h-12.4v-12.4h12.4Z" transform="translate(-629.755 -5968.846)" fill="#e6e7e8"/>
            <rect id="Rectangle_4564" data-name="Rectangle 4564" width="7.44" height="7.44" transform="translate(66.959 66.957)" fill="#e6e7e8"/>
            <path id="Path_66232" data-name="Path 66232" d="M678.481,6030.842v17.36h17.36v-17.36Zm14.88,4.391v10.492h-12.4v-12.4h12.4Z" transform="translate(-651.204 -5968.846)" fill="#e6e7e8"/>
            <rect id="Rectangle_4565" data-name="Rectangle 4565" width="7.44" height="7.44" transform="translate(32.237 66.957)" fill="#e6e7e8"/>
            <path id="Path_66233" data-name="Path 66233" d="M678.481,6017.569v17.36h17.36v-17.36Zm14.88,4.39v10.492h-12.4v-12.4h12.4Z" transform="translate(-651.204 -5990.295)" fill="#e6e7e8"/>
            <path id="Path_66234" data-name="Path 66234" d="M680.377,6026.905h7.44v-7.438h-7.44Z" transform="translate(-648.14 -5987.231)" fill="#e6e7e8"/>
            <path id="Path_66235" data-name="Path 66235" d="M691.754,6017.569v17.36h17.36v-17.36Zm14.88,4.39v10.492h-12.4v-12.4h12.4Z" transform="translate(-629.755 -5990.295)" fill="#e6e7e8"/>
            <path id="Path_66236" data-name="Path 66236" d="M693.65,6026.905h7.44v-7.438h-7.44Z" transform="translate(-626.691 -5987.231)" fill="#e6e7e8"/>
            <rect id="Rectangle_4566" data-name="Rectangle 4566" width="2.481" height="2.479" transform="translate(52.077 27.276)" fill="#e6e7e8"/>
            <path id="Path_66237" data-name="Path 66237" d="M689.858,6020.05v2.479h2.481v-4.959h-2.481Z" transform="translate(-632.82 -5990.294)" fill="#e6e7e8"/>
            <rect id="Rectangle_4567" data-name="Rectangle 4567" width="2.481" height="2.482" transform="translate(47.117 32.235)" fill="#e6e7e8"/>
            <rect id="Rectangle_4568" data-name="Rectangle 4568" width="2.481" height="2.482" transform="translate(52.077 32.235)" fill="#e6e7e8"/>
            <path id="Path_66238" data-name="Path 66238" d="M689.858,6022.894v2.479h2.481v-4.959h-2.481Z" transform="translate(-632.82 -5985.698)" fill="#e6e7e8"/>
            <rect id="Rectangle_4569" data-name="Rectangle 4569" width="2.481" height="2.479" transform="translate(57.038 42.156)" fill="#e6e7e8"/>
            <path id="Path_66239" data-name="Path 66239" d="M684.753,6025.154h-2.479v2.479h2.479v2.479h2.481v-2.479h2.48v-2.479h-4.961Z" transform="translate(-645.076 -5978.038)" fill="#e6e7e8"/>
            <path id="Path_66240" data-name="Path 66240" d="M689.493,6021.361h-2.479v4.961h2.479v9.919h2.481v-12.4h-2.481Z" transform="translate(-637.416 -5984.167)" fill="#e6e7e8"/>
            <rect id="Rectangle_4570" data-name="Rectangle 4570" width="2.479" height="2.48" transform="translate(71.92 47.116)" fill="#e6e7e8"/>
            <path id="Path_66241" data-name="Path 66241" d="M686.065,6026.687v4.959h2.481v-7.439h-2.481Z" transform="translate(-638.948 -5979.571)" fill="#e6e7e8"/>
            <path id="Path_66242" data-name="Path 66242" d="M680.961,6025.154h-2.48v4.959h2.48v-2.479h2.48v4.961h2.48v-7.44h-4.96Z" transform="translate(-651.204 -5978.038)" fill="#e6e7e8"/>
            <rect id="Rectangle_4571" data-name="Rectangle 4571" width="2.48" height="2.481" transform="translate(42.158 52.075)" fill="#e6e7e8"/>
            <rect id="Rectangle_4572" data-name="Rectangle 4572" width="2.479" height="2.481" transform="translate(54.558 52.075)" fill="#e6e7e8"/>
            <path id="Path_66243" data-name="Path 66243" d="M680.961,6030.478h-2.48v2.48h4.961V6028h-2.48Z" transform="translate(-651.204 -5973.441)" fill="#e6e7e8"/>
            <path id="Path_66244" data-name="Path 66244" d="M686.285,6028h-2.479v2.479h-2.48v2.48h7.441v-2.48h-2.481Z" transform="translate(-646.608 -5973.441)" fill="#e6e7e8"/>
            <path id="Path_66245" data-name="Path 66245" d="M692.339,6025.154h-2.481v2.479h2.481v4.961h-2.481v2.479h2.481v2.48H697.3v-2.48h-2.479v-7.44H697.3v-2.479h-4.959Z" transform="translate(-632.82 -5978.038)" fill="#e6e7e8"/>
            <path id="Path_66246" data-name="Path 66246" d="M700.143,6031.063V6026.1h-2.481v4.961h-2.479V6026.1H692.7v7.44h4.96v2.48h4.96v-2.48h-2.479Z" transform="translate(-628.224 -5976.506)" fill="#e6e7e8"/>
            <path id="Path_66247" data-name="Path 66247" d="M698.974,6028.581V6026.1h-2.48v7.44h4.961v-2.479h-2.48Z" transform="translate(-622.095 -5976.506)" fill="#e6e7e8"/>
            <path id="Path_66248" data-name="Path 66248" d="M685.117,6030.478v2.48H687.6V6028h-2.479Z" transform="translate(-640.48 -5973.441)" fill="#e6e7e8"/>
            <path id="Path_66249" data-name="Path 66249" d="M691.026,6030.478V6028h-2.479v4.96h-2.481v2.479h7.442v-2.479h-2.481Z" transform="translate(-638.948 -5973.441)" fill="#e6e7e8"/>
            <rect id="Rectangle_4573" data-name="Rectangle 4573" width="2.481" height="2.479" transform="translate(57.038 61.996)" fill="#e6e7e8"/>
            <path id="Path_66250" data-name="Path 66250" d="M688.547,6031.79h-2.481v4.961h2.481v-2.479h4.96v-2.481h-4.96Z" transform="translate(-638.948 -5967.315)" fill="#e6e7e8"/>
            <rect id="Rectangle_4574" data-name="Rectangle 4574" width="2.481" height="2.479" transform="translate(57.038 66.957)" fill="#e6e7e8"/>
            <rect id="Rectangle_4575" data-name="Rectangle 4575" width="2.479" height="2.481" transform="translate(49.598 69.436)" fill="#e6e7e8"/>
            <path id="Path_66251" data-name="Path 66251" d="M686.065,6037.114v2.482h2.481v-4.962h-2.481Z" transform="translate(-638.948 -5962.718)" fill="#e6e7e8"/>
            <path id="Path_66252" data-name="Path 66252" d="M692.922,6034.635h-4.96v2.479h2.481v4.961h2.479V6039.6H695.4v-2.482h-2.481Z" transform="translate(-635.884 -5962.718)" fill="#e6e7e8"/>
            <rect id="Rectangle_4576" data-name="Rectangle 4576" width="2.479" height="2.479" transform="translate(49.598 76.878)" fill="#e6e7e8"/>
            <path id="Path_66253" data-name="Path 66253" d="M778.166,6113.2l-6.4-5.047a23.067,23.067,0,0,0,0-5.462l6.407-5.049a2.812,2.812,0,0,0,.672-3.565l-6.529-11.38a2.71,2.71,0,0,0-2.394-1.428,2.979,2.979,0,0,0-1.028.188l-7.55,3.057a25.037,25.037,0,0,0-4.667-2.726l-1.151-8.084a2.74,2.74,0,0,0-2.731-2.384H739.7a2.735,2.735,0,0,0-2.728,2.363l-1.154,8.1a25.92,25.92,0,0,0-4.659,2.729l-7.566-3.062a2.647,2.647,0,0,0-.97-.181,2.78,2.78,0,0,0-2.428,1.4l-6.54,11.4a2.757,2.757,0,0,0,.67,3.576l6.406,5.046a22.711,22.711,0,0,0,0,5.462l-6.409,5.047a2.817,2.817,0,0,0-.672,3.568l6.529,11.38a2.712,2.712,0,0,0,2.394,1.425,2.983,2.983,0,0,0,1.031-.187l7.55-3.056a25.037,25.037,0,0,0,4.664,2.729l1.151,8.083a2.738,2.738,0,0,0,2.731,2.381h13.088a2.733,2.733,0,0,0,2.728-2.361l1.154-8.1a26.215,26.215,0,0,0,4.659-2.729l7.566,3.061a2.757,2.757,0,0,0,1.012.194h0a2.716,2.716,0,0,0,2.386-1.413l6.561-11.43A2.806,2.806,0,0,0,778.166,6113.2Zm-31.672,7.249a15.1,15.1,0,1,1,15.1-15.1A15.115,15.115,0,0,1,746.494,6120.451Z" transform="translate(-594.981 -5903.431)" fill="#e6e7e8"/>
          </g>
          <g id="Group_22989" data-name="Group 22989">
            <g id="Group_22988" data-name="Group 22988">
              <g id="Group_22972" data-name="Group 22972">
                <path id="Path_66254" data-name="Path 66254" d="M675.4,6004.835a7.365,7.365,0,0,0-7.343,7.344V6218.83a7.364,7.364,0,0,0,7.343,7.339H831.012a7.363,7.363,0,0,0,7.343-7.339V6050.2a7.342,7.342,0,0,0-2.151-5.192l-38.018-38.021a7.341,7.341,0,0,0-5.193-2.151Z" transform="translate(-668.054 -6004.835)" fill="#fff"/>
              </g>
              <g id="Group_22973" data-name="Group 22973" transform="translate(27.22 178.291)">
                <rect id="Rectangle_4577" data-name="Rectangle 4577" width="69.961" height="7.343" fill="#e6e7e8"/>
              </g>
              <g id="Group_22974" data-name="Group 22974" transform="translate(27.22 160.552)">
                <rect id="Rectangle_4578" data-name="Rectangle 4578" width="87.933" height="7.343" fill="#e6e7e8"/>
              </g>
              <g id="Group_22975" data-name="Group 22975" transform="translate(27.22 142.519)">
                <rect id="Rectangle_4579" data-name="Rectangle 4579" width="121.642" height="7.343" fill="#e6e7e8"/>
              </g>
              <g id="Group_22976" data-name="Group 22976" transform="translate(27.22 125.527)">
                <rect id="Rectangle_4580" data-name="Rectangle 4580" width="121.642" height="7.343" fill="#e6e7e8"/>
              </g>
              <g id="Group_22977" data-name="Group 22977" transform="translate(27.22 107.787)">
                <rect id="Rectangle_4581" data-name="Rectangle 4581" width="121.642" height="7.343" fill="#e6e7e8"/>
              </g>
              <g id="Group_22978" data-name="Group 22978" transform="translate(27.22 90.048)">
                <rect id="Rectangle_4582" data-name="Rectangle 4582" width="121.642" height="7.343" fill="#e6e7e8"/>
              </g>
              <g id="Group_22979" data-name="Group 22979" transform="translate(91.218 72.015)">
                <rect id="Rectangle_4583" data-name="Rectangle 4583" width="57.643" height="7.343" fill="#e6e7e8"/>
              </g>
              <g id="Group_22980" data-name="Group 22980" transform="translate(91.218 55.023)">
                <rect id="Rectangle_4584" data-name="Rectangle 4584" width="57.643" height="7.343" fill="#e6e7e8"/>
              </g>
              <path id="Path_66255" data-name="Path 66255" d="M756.777,6061.282v-40.269h-38.24Z" transform="translate(-586.475 -5978.691)" fill="#a6a8ab" opacity="0.15"/>
              <g id="Group_22981" data-name="Group 22981" transform="translate(127.982)">
                <path id="Path_66256" data-name="Path 66256" d="M716.977,6041.954a5.215,5.215,0,0,0,5.2,5.2H759.3l-42.319-42.322Z" transform="translate(-716.977 -6004.835)" fill="#dcdcdc"/>
              </g>
              <g id="Group_22987" data-name="Group 22987" transform="translate(27.277 27.278)">
                <g id="Group_22982" data-name="Group 22982" transform="translate(34.723 34.719)">
                  <path id="Path_66257" data-name="Path 66257" d="M691.754,6028.534V6045.9h17.36v-17.362Zm14.88,4.392v10.491h-12.4v-12.4h12.4Z" transform="translate(-691.754 -6028.534)" fill="#14475f"/>
                  <rect id="Rectangle_4585" data-name="Rectangle 4585" width="7.44" height="7.44" transform="translate(4.96 4.961)" fill="#14475f"/>
                </g>
                <g id="Group_22983" data-name="Group 22983" transform="translate(0 34.719)">
                  <path id="Path_66258" data-name="Path 66258" d="M678.481,6028.534V6045.9h17.36v-17.362Zm14.88,4.392v10.491h-12.4v-12.4h12.4Z" transform="translate(-678.481 -6028.534)" fill="#14475f"/>
                  <rect id="Rectangle_4586" data-name="Rectangle 4586" width="7.44" height="7.44" transform="translate(4.96 4.961)" fill="#14475f"/>
                </g>
                <g id="Group_22984" data-name="Group 22984" transform="translate(0)">
                  <path id="Path_66259" data-name="Path 66259" d="M678.481,6015.263v17.358h17.36v-17.358Zm14.88,4.389v10.491h-12.4v-12.4h12.4Z" transform="translate(-678.481 -6015.263)" fill="#14475f"/>
                  <path id="Path_66260" data-name="Path 66260" d="M680.377,6024.6h7.44v-7.44h-7.44Z" transform="translate(-675.417 -6012.2)" fill="#14475f"/>
                </g>
                <g id="Group_22985" data-name="Group 22985" transform="translate(34.723)">
                  <path id="Path_66261" data-name="Path 66261" d="M691.754,6015.263v17.358h17.36v-17.358Zm14.88,4.389v10.491h-12.4v-12.4h12.4Z" transform="translate(-691.754 -6015.263)" fill="#14475f"/>
                  <path id="Path_66262" data-name="Path 66262" d="M693.65,6024.6h7.44v-7.44h-7.44Z" transform="translate(-688.69 -6012.2)" fill="#14475f"/>
                </g>
                <g id="Group_22986" data-name="Group 22986">
                  <rect id="Rectangle_4587" data-name="Rectangle 4587" width="2.481" height="2.479" transform="translate(24.801)" fill="#14475f"/>
                  <path id="Path_66263" data-name="Path 66263" d="M689.858,6017.742v2.479h2.481v-4.958h-2.481Z" transform="translate(-660.096 -6015.263)" fill="#14475f"/>
                  <rect id="Rectangle_4588" data-name="Rectangle 4588" width="2.481" height="2.482" transform="translate(19.84 4.959)" fill="#14475f"/>
                  <rect id="Rectangle_4589" data-name="Rectangle 4589" width="2.481" height="2.482" transform="translate(24.801 4.959)" fill="#14475f"/>
                  <path id="Path_66264" data-name="Path 66264" d="M689.858,6020.587v2.479h2.481v-4.958h-2.481Z" transform="translate(-660.096 -6010.667)" fill="#14475f"/>
                  <rect id="Rectangle_4590" data-name="Rectangle 4590" width="2.481" height="2.479" transform="translate(29.761 14.88)" fill="#14475f"/>
                  <path id="Path_66265" data-name="Path 66265" d="M684.753,6022.847h-2.479v2.48h2.479v2.478h2.481v-2.478h2.48v-2.48h-4.961Z" transform="translate(-672.352 -6003.007)" fill="#14475f"/>
                  <path id="Path_66266" data-name="Path 66266" d="M689.493,6019.055h-2.479v4.96h2.479v9.918h2.481v-12.4h-2.481Z" transform="translate(-664.692 -6009.135)" fill="#14475f"/>
                  <rect id="Rectangle_4591" data-name="Rectangle 4591" width="2.479" height="2.48" transform="translate(44.643 19.84)" fill="#14475f"/>
                  <path id="Path_66267" data-name="Path 66267" d="M686.065,6024.379v4.958h2.481V6021.9h-2.481Z" transform="translate(-666.225 -6004.539)" fill="#14475f"/>
                  <path id="Path_66268" data-name="Path 66268" d="M680.961,6022.847h-2.48v4.958h2.48v-2.478h2.48v4.96h2.48v-7.44h-4.96Z" transform="translate(-678.481 -6003.007)" fill="#14475f"/>
                  <rect id="Rectangle_4592" data-name="Rectangle 4592" width="2.48" height="2.481" transform="translate(14.881 24.798)" fill="#14475f"/>
                  <rect id="Rectangle_4593" data-name="Rectangle 4593" width="2.479" height="2.481" transform="translate(27.282 24.798)" fill="#14475f"/>
                  <path id="Path_66269" data-name="Path 66269" d="M680.961,6028.17h-2.48v2.481h4.961v-4.96h-2.48Z" transform="translate(-678.481 -5998.411)" fill="#14475f"/>
                  <path id="Path_66270" data-name="Path 66270" d="M686.285,6025.691h-2.479v2.479h-2.48v2.481h7.441v-2.481h-2.481Z" transform="translate(-673.885 -5998.411)" fill="#14475f"/>
                  <path id="Path_66271" data-name="Path 66271" d="M692.339,6022.847h-2.481v2.48h2.481v4.96h-2.481v2.479h2.481v2.481H697.3v-2.481h-2.479v-7.438H697.3v-2.48h-4.959Z" transform="translate(-660.096 -6003.007)" fill="#14475f"/>
                  <path id="Path_66272" data-name="Path 66272" d="M700.143,6028.755v-4.96h-2.481v4.96h-2.479v-4.96H692.7v7.438h4.96v2.481h4.96v-2.481h-2.479Z" transform="translate(-655.5 -6001.475)" fill="#14475f"/>
                  <path id="Path_66273" data-name="Path 66273" d="M698.974,6026.272v-2.478h-2.48v7.438h4.961v-2.479h-2.48Z" transform="translate(-649.372 -6001.475)" fill="#14475f"/>
                  <path id="Path_66274" data-name="Path 66274" d="M685.117,6028.17v2.481H687.6v-4.96h-2.479Z" transform="translate(-667.756 -5998.411)" fill="#14475f"/>
                  <path id="Path_66275" data-name="Path 66275" d="M691.026,6028.17v-2.479h-2.479v4.96h-2.481v2.48h7.442v-2.48h-2.481Z" transform="translate(-666.225 -5998.411)" fill="#14475f"/>
                  <rect id="Rectangle_4594" data-name="Rectangle 4594" width="2.481" height="2.479" transform="translate(29.761 34.721)" fill="#14475f"/>
                  <path id="Path_66276" data-name="Path 66276" d="M688.547,6029.482h-2.481v4.962h2.481v-2.479h4.96v-2.482h-4.96Z" transform="translate(-666.225 -5992.284)" fill="#14475f"/>
                  <rect id="Rectangle_4595" data-name="Rectangle 4595" width="2.481" height="2.479" transform="translate(29.761 39.681)" fill="#14475f"/>
                  <rect id="Rectangle_4596" data-name="Rectangle 4596" width="2.479" height="2.481" transform="translate(22.322 42.16)" fill="#14475f"/>
                  <path id="Path_66277" data-name="Path 66277" d="M686.065,6034.806v2.482h2.481v-4.961h-2.481Z" transform="translate(-666.225 -5987.687)" fill="#14475f"/>
                  <path id="Path_66278" data-name="Path 66278" d="M692.922,6032.327h-4.96v2.479h2.481v4.962h2.479v-2.479H695.4v-2.482h-2.481Z" transform="translate(-663.16 -5987.687)" fill="#14475f"/>
                  <rect id="Rectangle_4597" data-name="Rectangle 4597" width="2.479" height="2.479" transform="translate(22.322 49.602)" fill="#14475f"/>
                </g>
              </g>
              <path id="Path_66279" data-name="Path 66279" d="M778.166,6110.892l-6.4-5.045a23.059,23.059,0,0,0,0-5.461l6.407-5.051a2.812,2.812,0,0,0,.672-3.566l-6.529-11.377a2.708,2.708,0,0,0-2.394-1.428,2.958,2.958,0,0,0-1.028.188l-7.55,3.056a25.215,25.215,0,0,0-4.667-2.729l-1.151-8.084a2.737,2.737,0,0,0-2.731-2.38H739.7a2.732,2.732,0,0,0-2.728,2.359l-1.154,8.1a26.175,26.175,0,0,0-4.659,2.731l-7.566-3.063a2.628,2.628,0,0,0-.97-.182,2.777,2.777,0,0,0-2.428,1.4l-6.54,11.4a2.761,2.761,0,0,0,.67,3.579l6.406,5.045a22.7,22.7,0,0,0,0,5.461l-6.409,5.048a2.815,2.815,0,0,0-.672,3.566l6.529,11.379a2.715,2.715,0,0,0,2.394,1.429,2.985,2.985,0,0,0,1.031-.188l7.55-3.056a25.2,25.2,0,0,0,4.664,2.729l1.151,8.08a2.738,2.738,0,0,0,2.731,2.381h13.088a2.733,2.733,0,0,0,2.728-2.359l1.154-8.1a26,26,0,0,0,4.659-2.731l7.566,3.061a2.737,2.737,0,0,0,1.012.194h0a2.711,2.711,0,0,0,2.386-1.41l6.561-11.432A2.809,2.809,0,0,0,778.166,6110.892Zm-31.672,7.252a15.1,15.1,0,1,1,15.1-15.1A15.118,15.118,0,0,1,746.494,6118.144Z" transform="translate(-594.981 -5901.121)" fill="#008f8d"/>
            </g>
          </g>
        </g>
      </g>
    </g>
  </g>
</svg>
