<svg id="Group_11338" data-name="Group 11338" xmlns="http://www.w3.org/2000/svg" xmlns:xlink="http://www.w3.org/1999/xlink" width="452.782" height="261.485" viewBox="0 0 452.782 261.485">
  <defs>
    <linearGradient id="linear-gradient" x1="0.5" x2="0.5" y2="1" gradientUnits="objectBoundingBox">
      <stop offset="0" stop-color="#f89a47"/>
      <stop offset="1" stop-color="#f8c647"/>
    </linearGradient>
  </defs>
  <g id="Group_11318" data-name="Group 11318" transform="translate(33.707 44.422)">
    <g id="Group_11312" data-name="Group 11312" transform="translate(0 7.614)" style="mix-blend-mode: multiply;isolation: isolate">
      <path id="Path_18092" data-name="Path 18092" d="M292.712,3988.651V3812.8a10.61,10.61,0,0,1,10.621-10.622H583.307a10.631,10.631,0,0,1,10.637,10.622v175.852Z" transform="translate(-266.604 -3802.178)" fill="#e6e7e8"/>
      <path id="Path_18093" data-name="Path 18093" d="M635.86,3880.916a17.729,17.729,0,0,1-17.71,17.709h-318a17.725,17.725,0,0,1-17.725-17.709v-5.265H635.86Z" transform="translate(-282.425 -3689.177)" fill="#e6e7e8"/>
      <path id="Path_18094" data-name="Path 18094" d="M412.839,3877.306a6.567,6.567,0,0,1-6.586,6.573H343.727a6.594,6.594,0,0,1-6.586-6.573v-1.656h75.7Z" transform="translate(-198.272 -3689.177)" fill="#e6e7e8"/>
      <rect id="Rectangle_2296" data-name="Rectangle 2296" width="275.088" height="160.349" transform="translate(39.173 13.063)" fill="#e6e7e8"/>
      <rect id="Rectangle_2297" data-name="Rectangle 2297" width="17.723" height="112.074" transform="translate(63.311 37.2)" fill="#e6e7e8"/>
      <rect id="Rectangle_2298" data-name="Rectangle 2298" width="17.723" height="112.074" transform="translate(93.183 37.2)" fill="#e6e7e8"/>
      <rect id="Rectangle_2299" data-name="Rectangle 2299" width="17.723" height="112.074" transform="translate(123.055 37.2)" fill="#e6e7e8"/>
      <rect id="Rectangle_2300" data-name="Rectangle 2300" width="17.708" height="112.074" transform="translate(152.927 37.2)" fill="#e6e7e8"/>
      <rect id="Rectangle_2301" data-name="Rectangle 2301" width="17.737" height="112.074" transform="translate(182.785 37.2)" fill="#e6e7e8"/>
      <rect id="Rectangle_2302" data-name="Rectangle 2302" width="17.708" height="112.089" transform="translate(212.672 37.186)" fill="#e6e7e8"/>
      <rect id="Rectangle_2303" data-name="Rectangle 2303" width="17.723" height="112.074" transform="translate(242.529 37.2)" fill="#e6e7e8"/>
      <rect id="Rectangle_2304" data-name="Rectangle 2304" width="17.723" height="112.074" transform="translate(272.402 37.2)" fill="#e6e7e8"/>
      <path id="Path_18095" data-name="Path 18095" d="M437.1,3928.918l-32.248-87.17-23.226,39.986H307.37V3870.44h68.143l31.327-53.61,33.047,86.744L460.4,3870.44h73.782v11.295H466.041Z" transform="translate(-244.06 -3779.644)" fill="#e6e7e8"/>
    </g>
    <g id="Group_11317" data-name="Group 11317">
      <g id="Group_11316" data-name="Group 11316">
        <path id="Path_18096" data-name="Path 18096" d="M292.712,3985.651V3809.8a10.611,10.611,0,0,1,10.621-10.622H583.307a10.633,10.633,0,0,1,10.637,10.622v175.852Z" transform="translate(-266.604 -3799.178)" fill="#14475f"/>
        <path id="Path_18097" data-name="Path 18097" d="M635.86,3877.915a17.728,17.728,0,0,1-17.71,17.709h-318a17.723,17.723,0,0,1-17.725-17.709v-5.264H635.86Z" transform="translate(-282.425 -3686.177)" fill="#14475f"/>
        <path id="Path_18098" data-name="Path 18098" d="M412.839,3874.305a6.568,6.568,0,0,1-6.586,6.574H343.727a6.594,6.594,0,0,1-6.586-6.574v-1.655h75.7Z" transform="translate(-198.272 -3686.177)"/>
        <rect id="Rectangle_2305" data-name="Rectangle 2305" width="275.088" height="160.349" transform="translate(39.173 13.063)" fill="#fff"/>
        <g id="Group_11315" data-name="Group 11315" transform="translate(63.311 37.186)">
          <g id="Group_11313" data-name="Group 11313">
            <rect id="Rectangle_2306" data-name="Rectangle 2306" width="17.723" height="112.074" transform="translate(0 0.014)" fill="#f2f2f2"/>
            <rect id="Rectangle_2307" data-name="Rectangle 2307" width="17.723" height="112.074" transform="translate(29.872 0.014)" fill="#f2f2f2"/>
            <rect id="Rectangle_2308" data-name="Rectangle 2308" width="17.723" height="112.074" transform="translate(59.744 0.014)" fill="#f2f2f2"/>
            <rect id="Rectangle_2309" data-name="Rectangle 2309" width="17.708" height="112.074" transform="translate(89.617 0.014)" fill="#f2f2f2"/>
            <rect id="Rectangle_2310" data-name="Rectangle 2310" width="17.737" height="112.074" transform="translate(119.474 0.014)" fill="#f2f2f2"/>
            <rect id="Rectangle_2311" data-name="Rectangle 2311" width="17.708" height="112.089" transform="translate(149.361)" fill="#f2f2f2"/>
            <rect id="Rectangle_2312" data-name="Rectangle 2312" width="17.723" height="112.074" transform="translate(179.219 0.014)" fill="#f2f2f2"/>
            <rect id="Rectangle_2313" data-name="Rectangle 2313" width="17.723" height="112.074" transform="translate(209.091 0.014)" fill="#f2f2f2"/>
          </g>
          <g id="Group_11314" data-name="Group 11314">
            <path id="Path_18099" data-name="Path 18099" d="M437.1,3925.918l-32.248-87.17-23.226,39.987H307.37V3867.44h68.143l31.327-53.611,33.047,86.746L460.4,3867.44h73.782v11.295H466.041Z" transform="translate(-307.37 -3813.829)" fill="#008f8d"/>
          </g>
        </g>
      </g>
    </g>
  </g>
  <g id="Group_11325" data-name="Group 11325" transform="translate(0)">
    <g id="Group_11319" data-name="Group 11319" transform="translate(0 5.076)" style="mix-blend-mode: multiply;isolation: isolate">
      <path id="Path_18100" data-name="Path 18100" d="M420.076,3785.461a6.081,6.081,0,0,0-4.315-1.786H275.245a6.1,6.1,0,0,0-6.1,6.1v82.529a6.112,6.112,0,0,0,6.1,6.109H385.9l19.41,19.411v-19.411h10.454a6.126,6.126,0,0,0,6.109-6.109v-82.529A6.089,6.089,0,0,0,420.076,3785.461Z" transform="translate(-269.144 -3783.675)" fill="#e6e7e8"/>
      <rect id="Rectangle_2314" data-name="Rectangle 2314" width="119.607" height="6.853" transform="translate(16.556 71.332)" fill="#e6e7e8"/>
      <rect id="Rectangle_2315" data-name="Rectangle 2315" width="64.824" height="6.853" transform="translate(71.339 57.639)" fill="#e6e7e8"/>
      <rect id="Rectangle_2316" data-name="Rectangle 2316" width="64.824" height="6.846" transform="translate(71.339 43.948)" fill="#e6e7e8"/>
      <rect id="Rectangle_2317" data-name="Rectangle 2317" width="64.824" height="6.853" transform="translate(71.339 30.248)" fill="#e6e7e8"/>
      <rect id="Rectangle_2318" data-name="Rectangle 2318" width="32.408" height="6.846" transform="translate(71.339 16.556)" fill="#e6e7e8"/>
      <path id="Path_18101" data-name="Path 18101" d="M316.581,3830.018a23.969,23.969,0,1,1-26.113-39.1l9.155,22.146Z" transform="translate(-259.116 -3772.533)" fill="#e6e7e8"/>
      <path id="Path_18102" data-name="Path 18102" d="M309.078,3814.164H285.107V3790.2A23.979,23.979,0,0,1,309.078,3814.164Z" transform="translate(-244.593 -3773.638)" fill="#e6e7e8"/>
      <path id="Path_18103" data-name="Path 18103" d="M309.078,3799.643a23.92,23.92,0,0,1-7.02,16.952l-16.951-16.952Z" transform="translate(-244.593 -3759.116)" fill="#e6e7e8"/>
      <path id="Path_18104" data-name="Path 18104" d="M290.652,3790.2v23.979L281.5,3792.03A23.615,23.615,0,0,1,290.652,3790.2Z" transform="translate(-250.145 -3773.643)" fill="#e6e7e8"/>
    </g>
    <g id="Group_11324" data-name="Group 11324">
      <g id="Group_11323" data-name="Group 11323">
        <g id="Group_11320" data-name="Group 11320">
          <path id="Path_18105" data-name="Path 18105" d="M420.076,3783.461a6.081,6.081,0,0,0-4.315-1.786H275.245a6.1,6.1,0,0,0-6.1,6.1v82.53a6.112,6.112,0,0,0,6.1,6.109H385.9l19.41,19.411v-19.411h10.454a6.126,6.126,0,0,0,6.109-6.109v-82.53A6.089,6.089,0,0,0,420.076,3783.461Z" transform="translate(-269.144 -3781.675)" fill="#fff"/>
        </g>
        <g id="Group_11321" data-name="Group 11321" transform="translate(16.556 16.556)">
          <rect id="Rectangle_2319" data-name="Rectangle 2319" width="119.607" height="6.853" transform="translate(0 54.776)" fill="#e6e7e8"/>
          <rect id="Rectangle_2320" data-name="Rectangle 2320" width="64.824" height="6.853" transform="translate(54.783 41.084)" fill="#e6e7e8"/>
          <rect id="Rectangle_2321" data-name="Rectangle 2321" width="64.824" height="6.846" transform="translate(54.783 27.392)" fill="#e6e7e8"/>
          <rect id="Rectangle_2322" data-name="Rectangle 2322" width="64.824" height="6.853" transform="translate(54.783 13.693)" fill="#e6e7e8"/>
          <rect id="Rectangle_2323" data-name="Rectangle 2323" width="32.408" height="6.846" transform="translate(54.783)" fill="#d0d2d3"/>
        </g>
        <g id="Group_11322" data-name="Group 11322" transform="translate(16.548 16.555)">
          <path id="Path_18106" data-name="Path 18106" d="M316.581,3828.018a23.969,23.969,0,1,1-26.113-39.1l9.155,22.146Z" transform="translate(-275.664 -3787.088)" fill="#0caba7"/>
          <path id="Path_18107" data-name="Path 18107" d="M309.078,3812.165H285.107V3788.2A23.979,23.979,0,0,1,309.078,3812.165Z" transform="translate(-261.141 -3788.194)" fill="#f1f1f2"/>
          <path id="Path_18108" data-name="Path 18108" d="M309.078,3797.643a23.92,23.92,0,0,1-7.02,16.952l-16.951-16.952Z" transform="translate(-261.141 -3773.672)" fill="#008f8d"/>
          <path id="Path_18109" data-name="Path 18109" d="M290.652,3788.2v23.979l-9.155-22.146A23.624,23.624,0,0,1,290.652,3788.2Z" transform="translate(-266.693 -3788.198)" fill="#14475f"/>
        </g>
      </g>
    </g>
  </g>
  <g id="Group_11337" data-name="Group 11337" transform="translate(300.059 53.212)">
    <g id="Group_11326" data-name="Group 11326" transform="translate(0 5.076)" style="mix-blend-mode: multiply;isolation: isolate">
      <path id="Path_18110" data-name="Path 18110" d="M538.308,3806.425a6.073,6.073,0,0,0-4.315-1.784H393.48a6.1,6.1,0,0,0-6.109,6.1v91.081a6.119,6.119,0,0,0,6.109,6.108h10.454v19.412l19.408-19.412H533.993a6.111,6.111,0,0,0,6.1-6.108V3810.74A6.079,6.079,0,0,0,538.308,3806.425Z" transform="translate(-387.371 -3804.641)" fill="#e6e7e8"/>
      <rect id="Rectangle_2324" data-name="Rectangle 2324" width="119.607" height="5.98" transform="translate(16.562 69.462)" fill="#e6e7e8"/>
      <rect id="Rectangle_2325" data-name="Rectangle 2325" width="119.607" height="5.98" transform="translate(16.562 81.43)" fill="#e6e7e8"/>
      <rect id="Rectangle_2326" data-name="Rectangle 2326" width="44.102" height="5.98" transform="translate(92.067 33.579)" fill="#e6e7e8"/>
      <rect id="Rectangle_2327" data-name="Rectangle 2327" width="44.102" height="5.981" transform="translate(92.067 45.54)" fill="#e6e7e8"/>
      <rect id="Rectangle_2328" data-name="Rectangle 2328" width="44.102" height="5.981" transform="translate(92.067 21.611)" fill="#e6e7e8"/>
      <rect id="Rectangle_2329" data-name="Rectangle 2329" width="5.98" height="5.981" transform="translate(80.107 21.611)" fill="#e6e7e8"/>
      <rect id="Rectangle_2330" data-name="Rectangle 2330" width="5.98" height="5.98" transform="translate(80.107 33.579)" fill="#e6e7e8"/>
      <rect id="Rectangle_2331" data-name="Rectangle 2331" width="5.98" height="5.981" transform="translate(80.107 45.54)" fill="#e6e7e8"/>
      <path id="Path_18111" data-name="Path 18111" d="M398.231,3847.9l2.892-1.752V3817.79l-2.892,1.751Z" transform="translate(-370.668 -3784.419)" fill="#e6e7e8"/>
      <path id="Path_18112" data-name="Path 18112" d="M393.9,3819.521h11l2.892-1.719H396.925Z" transform="translate(-377.335 -3784.4)" fill="#e6e7e8"/>
      <rect id="Rectangle_2332" data-name="Rectangle 2332" width="11.002" height="28.36" transform="translate(16.562 35.122)" fill="#e6e7e8"/>
      <path id="Path_18113" data-name="Path 18113" d="M405.758,3852.112l2.893-2.156V3815.05l-2.893,2.156Z" transform="translate(-359.092 -3788.631)" fill="#e6e7e8"/>
      <path id="Path_18114" data-name="Path 18114" d="M401.423,3817.207h11l2.893-2.156H404.452Z" transform="translate(-365.759 -3788.631)" fill="#e6e7e8"/>
      <rect id="Rectangle_2333" data-name="Rectangle 2333" width="11.001" height="34.906" transform="translate(35.664 28.575)" fill="#e6e7e8"/>
      <path id="Path_18115" data-name="Path 18115" d="M413.284,3858.091l2.893-2.729v-44.2l-2.893,2.73Z" transform="translate(-347.516 -3794.61)" fill="#e6e7e8"/>
      <path id="Path_18116" data-name="Path 18116" d="M408.95,3813.894h11l2.893-2.73H411.979Z" transform="translate(-354.183 -3794.61)" fill="#e6e7e8"/>
      <rect id="Rectangle_2334" data-name="Rectangle 2334" width="11.001" height="44.197" transform="translate(54.767 19.285)" fill="#e6e7e8"/>
    </g>
    <g id="Group_11336" data-name="Group 11336">
      <g id="Group_11335" data-name="Group 11335">
        <g id="Group_11327" data-name="Group 11327">
          <path id="Path_18117" data-name="Path 18117" d="M538.308,3804.425a6.077,6.077,0,0,0-4.315-1.784H393.48a6.1,6.1,0,0,0-6.109,6.1v91.081a6.122,6.122,0,0,0,6.109,6.108h10.454v19.412l19.408-19.412H533.993a6.113,6.113,0,0,0,6.1-6.108V3808.74A6.079,6.079,0,0,0,538.308,3804.425Z" transform="translate(-387.371 -3802.641)" fill="#fff"/>
        </g>
        <g id="Group_11330" data-name="Group 11330" transform="translate(16.562 21.611)">
          <g id="Group_11328" data-name="Group 11328" transform="translate(0 47.851)">
            <rect id="Rectangle_2335" data-name="Rectangle 2335" width="119.607" height="5.98" fill="#d9d8d7"/>
            <rect id="Rectangle_2336" data-name="Rectangle 2336" width="119.607" height="5.98" transform="translate(0 11.968)" fill="#d9d8d7"/>
          </g>
          <g id="Group_11329" data-name="Group 11329" transform="translate(63.545)">
            <rect id="Rectangle_2337" data-name="Rectangle 2337" width="44.102" height="5.98" transform="translate(11.961 11.968)" fill="#d9d8d7"/>
            <rect id="Rectangle_2338" data-name="Rectangle 2338" width="44.102" height="5.981" transform="translate(11.961 23.929)" fill="#d9d8d7"/>
            <rect id="Rectangle_2339" data-name="Rectangle 2339" width="44.102" height="5.981" transform="translate(11.961)" fill="#d9d8d7"/>
            <rect id="Rectangle_2340" data-name="Rectangle 2340" width="5.98" height="5.981" fill="#0caba7"/>
            <rect id="Rectangle_2341" data-name="Rectangle 2341" width="5.98" height="5.98" transform="translate(0 11.968)" fill="#0fc2bf"/>
            <rect id="Rectangle_2342" data-name="Rectangle 2342" width="5.98" height="5.981" transform="translate(0 23.929)" fill="#14475f"/>
          </g>
        </g>
        <g id="Group_11334" data-name="Group 11334" transform="translate(16.562 16.554)">
          <g id="Group_11331" data-name="Group 11331" transform="translate(0 16.817)">
            <path id="Path_18118" data-name="Path 18118" d="M398.231,3845.9l2.892-1.752V3815.79l-2.892,1.751Z" transform="translate(-387.23 -3815.79)" fill="url(#linear-gradient)"/>
            <path id="Path_18119" data-name="Path 18119" d="M393.9,3817.522h11l2.892-1.72H396.925Z" transform="translate(-393.897 -3815.771)" fill="#008f8d"/>
            <rect id="Rectangle_2343" data-name="Rectangle 2343" width="11.002" height="28.36" transform="translate(0 1.752)" fill="#14475f"/>
          </g>
          <g id="Group_11332" data-name="Group 11332" transform="translate(19.102 9.865)">
            <path id="Path_18120" data-name="Path 18120" d="M405.758,3850.112l2.893-2.156V3813.05l-2.893,2.157Z" transform="translate(-394.756 -3813.05)" fill="url(#linear-gradient)"/>
            <path id="Path_18121" data-name="Path 18121" d="M401.423,3815.207h11l2.893-2.157H404.452Z" transform="translate(-401.423 -3813.05)" fill="#008f8d"/>
            <path id="Path_20266" data-name="Path 20266" d="M0,0H11V34.906H0Z" transform="translate(0 2.156)" fill="#0fc2bf"/>
          </g>
          <g id="Group_11333" data-name="Group 11333" transform="translate(38.205)">
            <path id="Path_18122" data-name="Path 18122" d="M413.284,3856.091l2.893-2.73v-44.2l-2.893,2.73Z" transform="translate(-402.283 -3809.164)" fill="url(#linear-gradient)"/>
            <path id="Path_18123" data-name="Path 18123" d="M408.95,3811.894h11l2.893-2.73H411.979Z" transform="translate(-408.95 -3809.164)" fill="#008f8d"/>
            <rect id="Rectangle_2345" data-name="Rectangle 2345" width="11.001" height="44.197" transform="translate(0 2.731)" fill="#0caba7"/>
          </g>
        </g>
      </g>
    </g>
  </g>
</svg>
