<svg id="_20210623_063919-A" data-name="20210623_063919-A" xmlns="http://www.w3.org/2000/svg" width="334.23" height="357.32" viewBox="0 0 334.23 357.32">
  <g id="Group_7447" data-name="Group 7447" transform="translate(0 10.679)" opacity="0.15">
    <path id="Path_9232" data-name="Path 9232" d="M25.579,3.7A10.844,10.844,0,0,0,14.9,14.379V315.417A10.844,10.844,0,0,0,25.579,326.1H252.44a10.844,10.844,0,0,0,10.679-10.679V69.8a10.481,10.481,0,0,0-3.175-7.5L204.528,6.875a10.481,10.481,0,0,0-7.5-3.175H25.579Z" transform="translate(28.105 -3.7)"/>
    <rect id="Rectangle_1115" data-name="Rectangle 1115" width="177.217" height="10.679" transform="translate(82.547 198.864)"/>
    <rect id="Rectangle_1116" data-name="Rectangle 1116" width="131.902" height="10.679" transform="translate(105.349 174.042)"/>
    <path id="Path_9233" data-name="Path 9233" d="M137.305,83.691V25.1H81.6Z" transform="translate(153.92 36.666)" opacity="0.15"/>
    <path id="Path_9234" data-name="Path 9234" d="M79.5,57.673a7.641,7.641,0,0,0,7.5,7.5h53.973L79.5,3.7Z" transform="translate(149.958 -3.7)"/>
    <path id="Path_9235" data-name="Path 9235" d="M58.3,19.3h0V130.421h0L68.979,125.8l.577-.289,15.586-6.638c7.216-9.813,11.834-20.781,15.009-32.038h0a121.516,121.516,0,0,0,1.732-53.685C81.1,36.906,71.865,31.422,58.3,19.3Z" transform="translate(109.969 25.726)"/>
    <path id="Path_9236" data-name="Path 9236" d="M44.8,33.443c-5.2,25.4-2.309,59.169,16.452,85.434l26.842,11.545h0V19.3h0C74.815,31.422,65.291,36.906,44.8,33.443Z" transform="translate(80.177 25.726)"/>
    <path id="Path_9237" data-name="Path 9237" d="M45.6,38.9A95.581,95.581,0,0,0,60.32,76.422l21.936,9.525h0V38.9Z" transform="translate(86.014 62.697)"/>
    <path id="Path_9238" data-name="Path 9238" d="M83.488,22.6h0C74.829,29.816,65.593,35.3,51.45,35.3a36.8,36.8,0,0,1-5.484-.289A106.727,106.727,0,0,0,46.543,68.2v1.155H83.2V22.6Z" transform="translate(84.782 31.95)"/>
    <path id="Path_9239" data-name="Path 9239" d="M58.3,85.846l21.936-9.525c7.5-10.679,12.411-23.379,14.72-37.521H58.3Z" transform="translate(109.969 62.508)"/>
    <path id="Path_9240" data-name="Path 9240" d="M95.822,35.111a34.929,34.929,0,0,1-5.484.289C77.061,35.4,68.4,31.07,58.3,22.7V69.458H94.956V68.3A106.787,106.787,0,0,0,95.822,35.111Z" transform="translate(109.969 32.139)"/>
    <path id="Path_9241" data-name="Path 9241" d="M67.246,53.764,88.027,32.983a1.4,1.4,0,0,1,2.02,0l5.773,5.773a1.4,1.4,0,0,1,0,2.02L68.112,68.484h0a.283.283,0,0,1-.289-.289l-16.74-16.74a1.4,1.4,0,0,1,0-2.02l5.773-5.773a1.4,1.4,0,0,1,2.02,0Z" transform="translate(95.54 50.719)" fill-rule="evenodd"/>
    <path id="Path_9242" data-name="Path 9242" d="M43.005,100.92,0,126.607V99.188L43.005,73.5Z" transform="translate(0 127.962)"/>
    <path id="Path_9243" data-name="Path 9243" d="M100.9,100.92l42.717,25.688V99.188L100.9,73.5Z" transform="translate(190.325 127.962)"/>
    <rect id="Rectangle_1117" data-name="Rectangle 1117" width="334.23" height="59.746" transform="translate(0 227.149)"/>
    <path id="Path_9244" data-name="Path 9244" d="M107.034,105.4H52.773A5.79,5.79,0,0,0,47,111.173v41.851a5.48,5.48,0,0,0,5.484,5.484h55.128a5.48,5.48,0,0,0,5.484-5.484V111.173A6.248,6.248,0,0,0,107.034,105.4Z" transform="translate(88.655 188.134)"/>
    <path id="Path_9245" data-name="Path 9245" d="M107.223,105.4H52.673a5.79,5.79,0,0,0-5.773,5.773,5.426,5.426,0,0,0,5.2,5.484h55.128a5.245,5.245,0,0,0,5.2-5.484A5.013,5.013,0,0,0,107.223,105.4Z" transform="translate(88.466 188.134)"/>
    <path id="Path_9246" data-name="Path 9246" d="M107.223,105.4H52.673a5.79,5.79,0,0,0-5.773,5.773,5.426,5.426,0,0,0,5.2,5.484h55.128a5.245,5.245,0,0,0,5.2-5.484A5.013,5.013,0,0,0,107.223,105.4Z" transform="translate(88.466 188.134)"/>
    <path id="Path_9247" data-name="Path 9247" d="M110.4,119.752a5.818,5.818,0,0,1-3.175.866H52.673a6.165,6.165,0,0,1-4.907-2.309A3.277,3.277,0,0,1,46.9,116v12.988c.289,1.732,2.309,3.175,4.618,3.464h56.571c2.6-.289,4.907-2.02,4.907-4.329V116.289A4.6,4.6,0,0,1,110.4,119.752Z" transform="translate(88.466 208.128)"/>
    <path id="Path_9248" data-name="Path 9248" d="M73.007,122v-2.6L68.1,126.038A4.364,4.364,0,0,0,73.007,122Z" transform="translate(128.455 214.541)"/>
    <path id="Path_9249" data-name="Path 9249" d="M72.147,118.166,63.489,130l-.289.289h6.927L79.363,117.3a5.818,5.818,0,0,1-3.175.866Z" transform="translate(119.212 210.58)"/>
    <path id="Path_9250" data-name="Path 9250" d="M62.052,124.816,58.3,129.722h7.216l1.732-2.6,6.927-9.525H67.247Z" transform="translate(109.969 211.146)"/>
    <path id="Path_9251" data-name="Path 9251" d="M60.327,120.2,53.4,129.722h7.216l5.2-7.216,3.464-4.907H62.347Z" transform="translate(100.727 211.146)"/>
    <path id="Path_9252" data-name="Path 9252" d="M54.377,117.889V117.6H53.8Z" transform="translate(101.481 211.146)"/>
    <path id="Path_9253" data-name="Path 9253" d="M57.259,117.789,48.6,129.911h6.927l8.659-12.122-.577-.289h-6.35Z" transform="translate(91.673 210.957)"/>
    <path id="Path_9254" data-name="Path 9254" d="M47.866,116.8,47,117.955v9.525l6.061-8.659h-.577A4.507,4.507,0,0,1,47.866,116.8Z" transform="translate(88.655 209.637)"/>
    <path id="Path_9255" data-name="Path 9255" d="M50.5,115.6v18.472h4.329V115.313A18.6,18.6,0,0,1,73.3,96.841h0V92.8h0A23.037,23.037,0,0,0,50.5,115.6Z" transform="translate(95.257 164.367)"/>
    <path id="Path_9256" data-name="Path 9256" d="M58.4,92.9h0v4.041h0a18.6,18.6,0,0,1,18.472,18.472v18.761h4.041V115.7A22.247,22.247,0,0,0,58.4,92.9Z" transform="translate(110.158 164.555)"/>
    <path id="Path_9257" data-name="Path 9257" d="M77.161,99.193a28.831,28.831,0,0,0-8.37-5.773A24.738,24.738,0,0,0,58.4,91.4h0v4.329h0a22.85,22.85,0,0,1,22.8,22.8V137h3.464V117.665a26.621,26.621,0,0,0-2.02-10.391A25.086,25.086,0,0,0,77.161,99.193Z" transform="translate(110.158 161.726)"/>
    <path id="Path_9258" data-name="Path 9258" d="M56.993,99.193a28.831,28.831,0,0,0-5.773,8.37,24.738,24.738,0,0,0-2.02,10.391V137h3.464V118.531a22.85,22.85,0,0,1,22.8-22.8h0V91.4a24.314,24.314,0,0,0-10.1,2.02A31.107,31.107,0,0,0,56.993,99.193Z" transform="translate(92.804 161.726)"/>
    <path id="Path_9259" data-name="Path 9259" d="M60.952,110.2a3.821,3.821,0,0,0-3.752,3.752,4,4,0,0,0,2.02,3.464v6.927h3.752v-6.927a4,4,0,0,0,2.02-3.464A3.889,3.889,0,0,0,60.952,110.2Z" transform="translate(107.895 197.188)"/>
    <path id="Path_9260" data-name="Path 9260" d="M61.241,110.2h0a3.889,3.889,0,0,0-4.041,3.752,4,4,0,0,0,2.02,3.464v6.927H59.8v-6.927a4,4,0,0,1-2.02-3.464A3.579,3.579,0,0,1,61.241,110.2Z" transform="translate(107.895 197.188)"/>
    <path id="Path_9261" data-name="Path 9261" d="M63.161,89.6H58.255A1.242,1.242,0,0,0,57.1,90.755v16.163a1.242,1.242,0,0,0,1.155,1.155h4.907a1.242,1.242,0,0,0,1.155-1.155V90.755A1.057,1.057,0,0,0,63.161,89.6Z" transform="translate(107.706 158.331)"/>
    <path id="Path_9262" data-name="Path 9262" d="M63.161,96.155H58.255A1.242,1.242,0,0,1,57.1,95v1.443A1.242,1.242,0,0,0,58.255,97.6h4.907a1.242,1.242,0,0,0,1.155-1.155V95A1.057,1.057,0,0,1,63.161,96.155Z" transform="translate(107.706 168.516)" opacity="0.2"/>
    <path id="Path_9263" data-name="Path 9263" d="M63.161,89.6H58.255A1.242,1.242,0,0,0,57.1,90.755v1.732a1.242,1.242,0,0,1,1.155-1.155h4.907a1.242,1.242,0,0,1,1.155,1.155V90.755A1.057,1.057,0,0,0,63.161,89.6Z" transform="translate(107.706 158.331)" opacity="0.1"/>
    <rect id="Rectangle_1118" data-name="Rectangle 1118" width="6.927" height="8.37" transform="translate(165.095 253.703)" opacity="0.2"/>
    <rect id="Rectangle_1119" data-name="Rectangle 1119" width="6.927" height="3.464" transform="translate(165.095 254.858)" opacity="0.2"/>
  </g>
  <g id="Group_7465" data-name="Group 7465">
    <g id="Group_7464" data-name="Group 7464">
      <g id="Group_7452" data-name="Group 7452" transform="translate(43.005)">
        <g id="Group_7448" data-name="Group 7448">
          <path id="Path_9264" data-name="Path 9264" d="M25.579,0A10.844,10.844,0,0,0,14.9,10.679V311.717A10.844,10.844,0,0,0,25.579,322.4H252.44a10.844,10.844,0,0,0,10.679-10.679V66.1a10.481,10.481,0,0,0-3.175-7.5L204.528,3.175A11,11,0,0,0,197.024,0Z" transform="translate(-14.9)" fill="#fff"/>
        </g>
        <g id="Group_7449" data-name="Group 7449" transform="translate(39.542 198.864)">
          <rect id="Rectangle_1120" data-name="Rectangle 1120" width="177.217" height="10.679" fill="#e6e7e8"/>
        </g>
        <g id="Group_7450" data-name="Group 7450" transform="translate(62.343 174.042)">
          <rect id="Rectangle_1121" data-name="Rectangle 1121" width="131.902" height="10.679" fill="#e6e7e8"/>
        </g>
        <path id="Path_9265" data-name="Path 9265" d="M137.305,79.991V21.4H81.6Z" transform="translate(110.914 40.366)" fill="#a6a8ab" opacity="0.15"/>
        <g id="Group_7451" data-name="Group 7451" transform="translate(186.453)">
          <path id="Path_9266" data-name="Path 9266" d="M79.5,53.973a7.641,7.641,0,0,0,7.5,7.5h53.973L79.5,0Z" transform="translate(-79.5)" fill="#dcdcdc"/>
        </g>
      </g>
      <g id="Group_7458" data-name="Group 7458" transform="translate(122.683 45.026)">
        <g id="Group_7456" data-name="Group 7456">
          <g id="Group_7455" data-name="Group 7455">
            <g id="Group_7453" data-name="Group 7453">
              <path id="Path_9267" data-name="Path 9267" d="M58.3,15.6h0V126.721h0L68.979,122.1l.577-.289,15.586-6.638c7.216-9.813,11.834-20.781,15.009-32.038h0a121.516,121.516,0,0,0,1.732-53.685C81.1,33.206,71.865,27.722,58.3,15.6Z" transform="translate(-12.714 -15.6)" fill="#14475f"/>
              <path id="Path_9268" data-name="Path 9268" d="M44.8,29.743c-5.2,25.4-2.309,59.169,16.452,85.434l26.842,11.545h0V15.6h0C74.815,27.722,65.291,33.206,44.8,29.743Z" transform="translate(-42.506 -15.6)" fill="#14475f"/>
            </g>
            <g id="Group_7454" data-name="Group 7454" transform="translate(7.046 9.525)">
              <path id="Path_9269" data-name="Path 9269" d="M45.6,35.1A95.581,95.581,0,0,0,60.32,72.622l21.936,9.525h0V35.1Z" transform="translate(-43.715 11.658)" fill="#f1f1f2"/>
              <path id="Path_9270" data-name="Path 9270" d="M83.488,18.9h0C74.829,26.116,65.593,31.6,51.45,31.6a36.8,36.8,0,0,1-5.484-.289A106.727,106.727,0,0,0,46.543,64.5v1.155H83.2V18.9Z" transform="translate(-44.947 -18.9)" fill="#fff"/>
              <path id="Path_9271" data-name="Path 9271" d="M58.3,82.146l21.936-9.525c7.5-10.679,12.411-23.379,14.72-37.521H58.3Z" transform="translate(-19.759 11.658)" fill="#fff"/>
              <path id="Path_9272" data-name="Path 9272" d="M95.822,31.411a34.929,34.929,0,0,1-5.484.289C77.061,31.7,68.4,27.37,58.3,19V65.758H94.956V64.6A106.787,106.787,0,0,0,95.822,31.411Z" transform="translate(-19.759 -18.711)" fill="#f1f1f2"/>
            </g>
          </g>
        </g>
        <g id="Group_7457" data-name="Group 7457" transform="translate(23.507 38.243)">
          <path id="Path_9273" data-name="Path 9273" d="M67.246,50.064,88.027,29.283a1.4,1.4,0,0,1,2.02,0l5.773,5.773a1.4,1.4,0,0,1,0,2.02L68.112,64.784h0a.283.283,0,0,1-.289-.289l-16.74-16.74a1.4,1.4,0,0,1,0-2.02l5.773-5.773a1.4,1.4,0,0,1,2.02,0Z" transform="translate(-50.65 -28.85)" fill="#008f8d" fill-rule="evenodd"/>
        </g>
      </g>
      <g id="Group_7463" data-name="Group 7463" transform="translate(0 201.462)">
        <path id="Path_9274" data-name="Path 9274" d="M43.005,97.22,0,122.907V95.488L43.005,69.8Z" transform="translate(0 -69.8)" fill="#008f8d"/>
        <path id="Path_9275" data-name="Path 9275" d="M100.9,97.22l42.717,25.688V95.488L100.9,69.8Z" transform="translate(190.325 -69.8)" fill="#008f8d"/>
        <path id="Path_10924" data-name="Path 10924" d="M0,0H334.23V59.746H0Z" transform="translate(0 25.688)" fill="#14475f"/>
        <g id="Group_7461" data-name="Group 7461" transform="translate(135.366 51.376)">
          <path id="Path_9276" data-name="Path 9276" d="M107.034,101.7H52.773A5.79,5.79,0,0,0,47,107.473v41.851a5.48,5.48,0,0,0,5.484,5.484h55.128a5.48,5.48,0,0,0,5.484-5.484V107.473A6.248,6.248,0,0,0,107.034,101.7Z" transform="translate(-46.711 -61.004)" fill="#14475f"/>
          <path id="Path_9277" data-name="Path 9277" d="M107.223,101.7H52.673a5.79,5.79,0,0,0-5.773,5.773,5.426,5.426,0,0,0,5.2,5.484h55.128a5.245,5.245,0,0,0,5.2-5.484A5.013,5.013,0,0,0,107.223,101.7Z" transform="translate(-46.9 -61.004)" fill="#0d2038"/>
          <path id="Path_9278" data-name="Path 9278" d="M107.223,101.7H52.673a5.79,5.79,0,0,0-5.773,5.773,5.426,5.426,0,0,0,5.2,5.484h55.128a5.245,5.245,0,0,0,5.2-5.484A5.013,5.013,0,0,0,107.223,101.7Z" transform="translate(-46.9 -61.004)"/>
          <g id="Group_7459" data-name="Group 7459" transform="translate(0 71.002)">
            <path id="Path_9279" data-name="Path 9279" d="M110.4,116.241a5.818,5.818,0,0,1-3.175.866H52.673a6.165,6.165,0,0,1-4.907-2.309,3.277,3.277,0,0,1-.866-2.309v12.988c.289,1.732,2.309,3.175,4.618,3.464h56.571c2.6-.289,4.907-2.02,4.907-4.329V112.489A4.614,4.614,0,0,1,110.4,116.241Z" transform="translate(-46.9 -112.2)" fill="#14475f"/>
            <path id="Path_9280" data-name="Path 9280" d="M73.007,118.3v-2.6L68.1,122.338C70.7,122.338,73.007,120.607,73.007,118.3Z" transform="translate(-6.911 -105.598)" fill="#0caba7"/>
            <path id="Path_9281" data-name="Path 9281" d="M72.147,114.466,63.489,126.3l-.289.289h6.927L79.363,113.6a5.818,5.818,0,0,1-3.175.866Z" transform="translate(-16.154 -109.559)" fill="#0caba7"/>
            <path id="Path_9282" data-name="Path 9282" d="M62.052,121.116,58.3,126.022h7.216l1.732-2.6,6.927-9.525H67.247Z" transform="translate(-25.397 -108.993)" fill="#0caba7"/>
            <path id="Path_9283" data-name="Path 9283" d="M60.327,116.5,53.4,126.022h7.216l5.2-7.216,3.464-4.907H62.347Z" transform="translate(-34.639 -108.993)" fill="#0caba7"/>
            <path id="Path_9284" data-name="Path 9284" d="M54.377,114.189V113.9H53.8Z" transform="translate(-33.885 -108.993)" fill="#f1c40f"/>
            <path id="Path_9285" data-name="Path 9285" d="M57.259,114.089,48.6,126.211h6.927l8.659-12.122-.577-.289h-6.35Z" transform="translate(-43.693 -109.182)" fill="#0caba7"/>
            <path id="Path_9286" data-name="Path 9286" d="M47.866,113.1,47,114.255v9.525l6.061-8.659h-.577A4.507,4.507,0,0,1,47.866,113.1Z" transform="translate(-46.711 -110.502)" fill="#0caba7"/>
          </g>
          <g id="Group_7460" data-name="Group 7460" transform="translate(6.638)">
            <path id="Path_9287" data-name="Path 9287" d="M50.5,111.9v18.472h4.329V111.613A18.6,18.6,0,0,1,73.3,93.141h0V89.1h0A23.037,23.037,0,0,0,50.5,111.9Z" transform="translate(-46.748 -84.771)" fill="#808285"/>
            <path id="Path_9288" data-name="Path 9288" d="M58.4,89.2h0v4.041h0a18.6,18.6,0,0,1,18.472,18.472v18.761h4.041V111.713A22.18,22.18,0,0,0,58.4,89.2Z" transform="translate(-31.846 -84.582)" fill="#bfc1c4"/>
            <path id="Path_9289" data-name="Path 9289" d="M77.161,95.493a28.831,28.831,0,0,0-8.37-5.773A24.738,24.738,0,0,0,58.4,87.7h0v4.329h0a22.85,22.85,0,0,1,22.8,22.8V133.3h3.464V113.965a26.621,26.621,0,0,0-2.02-10.391A25.086,25.086,0,0,0,77.161,95.493Z" transform="translate(-31.846 -87.411)" fill="#808285"/>
            <path id="Path_9290" data-name="Path 9290" d="M56.993,95.682a28.831,28.831,0,0,0-5.773,8.37,24.738,24.738,0,0,0-2.02,10.391v19.049h3.464V114.731a22.85,22.85,0,0,1,22.8-22.8h0V87.6a24.314,24.314,0,0,0-10.1,2.02A41.038,41.038,0,0,0,56.993,95.682Z" transform="translate(-49.2 -87.6)" fill="#bfc1c4"/>
          </g>
          <path id="Path_9291" data-name="Path 9291" d="M60.952,106.5a3.821,3.821,0,0,0-3.752,3.752,4,4,0,0,0,2.02,3.464v6.927h3.752v-6.927a4,4,0,0,0,2.02-3.464A3.889,3.889,0,0,0,60.952,106.5Z" transform="translate(-27.471 -51.95)"/>
          <path id="Path_9292" data-name="Path 9292" d="M61.241,106.5h0a3.889,3.889,0,0,0-4.041,3.752,4,4,0,0,0,2.02,3.464v6.927H59.8v-6.927a4,4,0,0,1-2.02-3.464A3.579,3.579,0,0,1,61.241,106.5Z" transform="translate(-27.471 -51.95)" fill="#14475f"/>
        </g>
        <g id="Group_7462" data-name="Group 7462" transform="translate(164.806 46.469)">
          <path id="Path_9293" data-name="Path 9293" d="M63.161,85.9H58.255A1.242,1.242,0,0,0,57.1,87.055v16.163a1.242,1.242,0,0,0,1.155,1.155h4.907a1.242,1.242,0,0,0,1.155-1.155V87.055A1.057,1.057,0,0,0,63.161,85.9Z" transform="translate(-57.1 -85.9)" fill="#73a6c7"/>
          <path id="Path_9294" data-name="Path 9294" d="M63.161,92.455H58.255A1.242,1.242,0,0,1,57.1,91.3v1.443A1.242,1.242,0,0,0,58.255,93.9h4.907a1.242,1.242,0,0,0,1.155-1.155V91.3A1.057,1.057,0,0,1,63.161,92.455Z" transform="translate(-57.1 -75.714)" fill="#231f20" opacity="0.2"/>
          <path id="Path_9295" data-name="Path 9295" d="M63.161,85.9H58.255A1.242,1.242,0,0,0,57.1,87.055v1.732a1.242,1.242,0,0,1,1.155-1.155h4.907a1.242,1.242,0,0,1,1.155,1.155V87.055A1.057,1.057,0,0,0,63.161,85.9Z" transform="translate(-57.1 -85.9)" fill="#231f20" opacity="0.1"/>
          <rect id="Rectangle_1123" data-name="Rectangle 1123" width="6.927" height="8.37" transform="translate(0.289 5.484)" fill="#fff" opacity="0.2"/>
          <rect id="Rectangle_1124" data-name="Rectangle 1124" width="6.927" height="3.464" transform="translate(0.289 6.638)" fill="#fff" opacity="0.2"/>
        </g>
      </g>
    </g>
  </g>
</svg>
