<svg xmlns="http://www.w3.org/2000/svg" width="368.354" height="341.99" viewBox="0 0 368.354 341.99">
  <g id="Group_23050" data-name="Group 23050" transform="translate(-286.573 -6004.835)">
    <g id="Group_23035" data-name="Group 23035" transform="translate(286.573 6120.122)">
      <g id="Group_23032" data-name="Group 23032" transform="translate(0 8.415)" style="mix-blend-mode: multiply;isolation: isolate">
        <path id="Path_66376" data-name="Path 66376" d="M295.546,6239.973V6056.7a11.057,11.057,0,0,1,11.072-11.071H598.41a11.083,11.083,0,0,1,11.084,11.071v183.275Z" transform="translate(-268.335 -6045.627)" fill="#e6e7e8"/>
        <path id="Path_66377" data-name="Path 66377" d="M654.927,6115.2a18.469,18.469,0,0,1-18.456,18.456H305.047a18.469,18.469,0,0,1-18.474-18.456v-5.486H654.927Z" transform="translate(-286.573 -5915.368)" fill="#e6e7e8"/>
        <path id="Path_66378" data-name="Path 66378" d="M413.2,6111.44a6.85,6.85,0,0,1-6.866,6.851H341.164a6.875,6.875,0,0,1-6.865-6.851v-1.727h78.9Z" transform="translate(-189.57 -5915.368)" fill="#e6e7e8"/>
        <rect id="Rectangle_4632" data-name="Rectangle 4632" width="286.701" height="167.118" transform="translate(40.827 13.615)" fill="#e6e7e8"/>
      </g>
      <g id="Group_23034" data-name="Group 23034">
        <g id="Group_23033" data-name="Group 23033">
          <path id="Path_66379" data-name="Path 66379" d="M295.546,6237.2V6053.924a11.059,11.059,0,0,1,11.072-11.072H598.41a11.084,11.084,0,0,1,11.084,11.072V6237.2Z" transform="translate(-268.335 -6042.852)" fill="#184f70"/>
          <path id="Path_66380" data-name="Path 66380" d="M654.927,6112.426a18.473,18.473,0,0,1-18.456,18.456H305.047a18.473,18.473,0,0,1-18.474-18.456v-5.486H654.927Z" transform="translate(-286.573 -5912.594)" fill="#14475f"/>
          <path id="Path_66381" data-name="Path 66381" d="M413.2,6108.664a6.856,6.856,0,0,1-6.866,6.853H341.164a6.881,6.881,0,0,1-6.865-6.853v-1.724h78.9Z" transform="translate(-189.57 -5912.594)" fill="#042438"/>
          <rect id="Rectangle_4633" data-name="Rectangle 4633" width="286.701" height="167.118" transform="translate(40.827 13.614)" fill="#14475f"/>
        </g>
      </g>
    </g>
    <g id="Group_23049" data-name="Group 23049" transform="translate(362.102 6004.835)">
      <g id="Group_23042" data-name="Group 23042">
        <g id="Group_23036" data-name="Group 23036" transform="translate(0 7.211)" style="mix-blend-mode: multiply;isolation: isolate">
          <path id="Path_66382" data-name="Path 66382" d="M347.329,6007.213h-.021v264.438l.021.011,25.494-10.929,1.331-.569,36.893-15.815a234.166,234.166,0,0,0,35.526-76.106l.015-.066c11.845-44.086,11.584-89.574,4.076-127.648C401.629,6049.084,379.237,6036.008,347.329,6007.213Z" transform="translate(-238.658 -6007.21)" fill="#e6e7e8"/>
          <path id="Path_66383" data-name="Path 66383" d="M316.77,6040.526c-12.027,60.982-5.446,140.988,39.613,203.822l63.725,27.308.018,0V6007.22l-.018-.007C388.2,6036.014,365.8,6049.089,316.77,6040.526Z" transform="translate(-311.48 -6007.213)" fill="#e6e7e8"/>
          <path id="Path_66384" data-name="Path 66384" d="M318.412,6051.482c5.768,33.421,17.549,63.364,35.1,89.08l52.508,22.495.012-.006.018.006.006,0V6051.482Z" transform="translate(-297.389 -5917.236)" fill="#e6e7e8"/>
          <path id="Path_66385" data-name="Path 66385" d="M408.689,6014.688l-.024.018c-20.324,16.886-42.925,30.332-76.431,30.332-4.106,0-8.333-.188-12.746-.568a273.009,273.009,0,0,0,1.11,79.333c.073.395.143.791.212,1.181.073.43.158.851.23,1.282h87.648Z" transform="translate(-300.018 -5992.02)" fill="#e6e7e8"/>
          <path id="Path_66386" data-name="Path 66386" d="M347.315,6163.053l52.5-22.491c17.558-25.718,29.336-55.655,35.1-89.08h-87.6Z" transform="translate(-238.644 -5917.236)" fill="#e6e7e8"/>
          <path id="Path_66387" data-name="Path 66387" d="M436.47,6044.522c-4.409.378-8.64.566-12.742.566-31.4,0-52.547-10.583-76.413-30.35v111.576h87.6c.076-.428.161-.849.23-1.278.07-.394.143-.79.212-1.185A272.993,272.993,0,0,0,436.47,6044.522Z" transform="translate(-238.644 -5991.916)" fill="#e6e7e8"/>
        </g>
        <g id="Group_23041" data-name="Group 23041">
          <g id="Group_23040" data-name="Group 23040">
            <g id="Group_23039" data-name="Group 23039">
              <g id="Group_23037" data-name="Group 23037">
                <path id="Path_66388" data-name="Path 66388" d="M347.329,6004.835h-.021v264.438l.021.009,25.494-10.93,1.331-.566,36.893-15.814a234.2,234.2,0,0,0,35.526-76.106l.015-.07c11.845-44.083,11.584-89.574,4.076-127.65C401.629,6046.706,379.237,6033.629,347.329,6004.835Z" transform="translate(-238.658 -6004.833)" fill="#14475f"/>
                <path id="Path_66389" data-name="Path 66389" d="M316.77,6038.146c-12.027,60.985-5.446,140.99,39.613,203.824l63.725,27.308.018,0V6004.841l-.018-.007C388.2,6033.631,365.8,6046.71,316.77,6038.146Z" transform="translate(-311.48 -6004.834)" fill="#14475f"/>
              </g>
              <g id="Group_23038" data-name="Group 23038" transform="translate(17.101 22.668)">
                <path id="Path_66390" data-name="Path 66390" d="M318.412,6049.1c5.768,33.424,17.549,63.367,35.1,89.079l52.508,22.5.012-.006.018.006.006,0V6049.1Z" transform="translate(-314.49 -5937.528)" fill="#f1f1f2"/>
                <path id="Path_66391" data-name="Path 66391" d="M408.689,6012.31l-.024.019c-20.324,16.884-42.925,30.33-76.431,30.33-4.106,0-8.333-.187-12.746-.567a272.991,272.991,0,0,0,1.11,79.331c.073.394.143.79.212,1.18.073.431.158.855.23,1.283h87.648Z" transform="translate(-317.119 -6012.31)" fill="#fff"/>
                <path id="Path_66392" data-name="Path 66392" d="M347.315,6160.677l52.5-22.5c17.558-25.715,29.336-55.651,35.1-89.079h-87.6Z" transform="translate(-255.745 -5937.528)" fill="#fff"/>
                <path id="Path_66393" data-name="Path 66393" d="M436.47,6042.145c-4.409.378-8.64.566-12.742.566-31.4,0-52.547-10.583-76.413-30.35v111.575h87.6c.076-.426.161-.848.23-1.277.07-.4.143-.79.212-1.186A272.983,272.983,0,0,0,436.47,6042.145Z" transform="translate(-255.745 -6012.207)" fill="#f1f1f2"/>
              </g>
            </g>
          </g>
        </g>
      </g>
      <g id="Group_23048" data-name="Group 23048" transform="translate(64.618 72.022)">
        <g id="Group_23043" data-name="Group 23043" transform="translate(0 9.097)" style="mix-blend-mode: multiply;isolation: isolate">
          <path id="Path_66394" data-name="Path 66394" d="M413.233,6049.439H340.4a7.612,7.612,0,0,0-7.612,7.612V6112.9a7.146,7.146,0,0,0,7.145,7.144H413.7a7.146,7.146,0,0,0,7.144-7.144v-55.853A7.612,7.612,0,0,0,413.233,6049.439Z" transform="translate(-332.784 -5995.297)" fill="#e6e7e8"/>
          <path id="Path_66395" data-name="Path 66395" d="M413.253,6049.439H340.382a7.6,7.6,0,0,0-7.593,7.612,7.133,7.133,0,0,0,7.126,7.141h73.8a7.133,7.133,0,0,0,7.126-7.141A7.6,7.6,0,0,0,413.253,6049.439Z" transform="translate(-332.786 -5995.297)" fill="#e6e7e8"/>
          <path id="Path_66396" data-name="Path 66396" d="M413.255,6049.439H340.378a7.6,7.6,0,0,0-7.59,7.612,7.13,7.13,0,0,0,7.123,7.141h73.811a7.133,7.133,0,0,0,7.126-7.141A7.6,7.6,0,0,0,413.255,6049.439Z" transform="translate(-332.788 -5995.297)" fill="#e6e7e8"/>
          <path id="Path_66397" data-name="Path 66397" d="M417.364,6068.076a8.85,8.85,0,0,1-4.106.982H340.381a8.076,8.076,0,0,1-6.5-2.963,5.26,5.26,0,0,1-1.1-3.18V6079.6a4.8,4.8,0,0,0,.091.935c.494,2.463,2.926,4.407,5.986,4.772a8.4,8.4,0,0,0,1.046.062h73.811c.2,0,.391-.006.588-.019,3.66-.246,6.538-2.726,6.538-5.75v-16.689c0,.122-.006.248-.018.372A6.031,6.031,0,0,1,417.364,6068.076Z" transform="translate(-332.788 -5967.91)" fill="#e6e7e8"/>
          <path id="Path_66398" data-name="Path 66398" d="M366.209,6070.625v-3.292l-6.538,9.042C363.331,6076.129,366.209,6073.649,366.209,6070.625Z" transform="translate(-278.148 -5958.93)" fill="#e6e7e8"/>
          <path id="Path_66399" data-name="Path 66399" d="M365.236,6065.6l-11.578,16.021-.215.294h9.44l12.5-17.3a8.85,8.85,0,0,1-4.106.982Z" transform="translate(-290.807 -5964.449)" fill="#e6e7e8"/>
          <path id="Path_66400" data-name="Path 66400" d="M351.981,6074.667l-4.76,6.587h9.434l2.486-3.44,9.306-12.874h-9.434Z" transform="translate(-303.452 -5963.79)" fill="#e6e7e8"/>
          <path id="Path_66401" data-name="Path 66401" d="M350.311,6068.367,341,6081.253h9.433l7.039-9.733,4.754-6.581h-9.44Z" transform="translate(-316.098 -5963.79)" fill="#e6e7e8"/>
          <path id="Path_66402" data-name="Path 66402" d="M342.138,6065.221l.2-.281H341.5Z" transform="translate(-315.086 -5963.79)" fill="#e6e7e8"/>
          <path id="Path_66403" data-name="Path 66403" d="M346.537,6064.94l-11.745,16.253a8.311,8.311,0,0,0,1.046.062h8.339l11.59-16.032-.643-.282Z" transform="translate(-328.715 -5963.791)" fill="#e6e7e8"/>
          <path id="Path_66404" data-name="Path 66404" d="M333.886,6063.963l-1.1,1.522v11.987a4.8,4.8,0,0,0,.091.935l8.3-11.481h-.794A8.078,8.078,0,0,1,333.886,6063.963Z" transform="translate(-332.788 -5965.777)" fill="#e6e7e8"/>
          <path id="Path_66405" data-name="Path 66405" d="M337.279,6063.805v24.848h5.586v-25.17a24.783,24.783,0,0,1,24.754-24.754h.127v-5.25H367.6A30.322,30.322,0,0,0,337.279,6063.805Z" transform="translate(-323.66 -6027.733)" fill="#e6e7e8"/>
          <path id="Path_66406" data-name="Path 66406" d="M347.475,6033.48h-.149v5.25h.13a24.783,24.783,0,0,1,24.754,24.754v25.17H377.8v-24.848A30.324,30.324,0,0,0,347.475,6033.48Z" transform="translate(-303.24 -6027.733)" fill="#e6e7e8"/>
          <path id="Path_66407" data-name="Path 66407" d="M372.259,6041.9a35.1,35.1,0,0,0-24.9-10.312h-.033v5.746h.149a30.324,30.324,0,0,1,30.322,30.326V6092.5h4.776V6066.8a35.12,35.12,0,0,0-10.314-24.9Z" transform="translate(-303.24 -6031.584)" fill="#e6e7e8"/>
          <path id="Path_66408" data-name="Path 66408" d="M346.036,6041.917a35.149,35.149,0,0,0-10.332,24.944V6092.5h4.776v-24.848a30.322,30.322,0,0,1,30.322-30.326h.145v-5.746a35.159,35.159,0,0,0-24.912,10.333Z" transform="translate(-326.861 -6031.584)" fill="#e6e7e8"/>
          <path id="Path_66409" data-name="Path 66409" d="M350.98,6055.477a5.2,5.2,0,0,0-2.459,9.786v9.121h4.922v-9.121a5.2,5.2,0,0,0-2.462-9.786Z" transform="translate(-306.384 -5983.024)" fill="#e6e7e8"/>
          <path id="Path_66410" data-name="Path 66410" d="M351.347,6055.494c-.121-.009-.243-.018-.367-.018a5.2,5.2,0,0,0-2.459,9.786v9.121h.734v-9.121a5.2,5.2,0,0,1,2.092-9.769Z" transform="translate(-306.384 -5983.024)" fill="#e6e7e8"/>
        </g>
        <g id="Group_23047" data-name="Group 23047">
          <g id="Group_23046" data-name="Group 23046">
            <path id="Path_66411" data-name="Path 66411" d="M413.233,6046.438H340.4a7.612,7.612,0,0,0-7.612,7.612V6109.9a7.146,7.146,0,0,0,7.145,7.144H413.7a7.146,7.146,0,0,0,7.144-7.144V6054.05A7.612,7.612,0,0,0,413.233,6046.438Z" transform="translate(-332.784 -5992.296)" fill="#0fc2bf"/>
            <path id="Path_66412" data-name="Path 66412" d="M413.253,6046.438H340.382a7.6,7.6,0,0,0-7.593,7.612,7.133,7.133,0,0,0,7.126,7.141h73.8a7.133,7.133,0,0,0,7.126-7.141A7.6,7.6,0,0,0,413.253,6046.438Z" transform="translate(-332.786 -5992.296)" fill="#0d2038"/>
            <path id="Path_66413" data-name="Path 66413" d="M413.255,6046.438H340.378a7.6,7.6,0,0,0-7.59,7.612,7.13,7.13,0,0,0,7.123,7.141h73.811a7.133,7.133,0,0,0,7.126-7.141A7.6,7.6,0,0,0,413.255,6046.438Z" transform="translate(-332.788 -5992.296)" fill="#008f8d"/>
            <g id="Group_23044" data-name="Group 23044" transform="translate(0 95.005)">
              <path id="Path_66414" data-name="Path 66414" d="M417.364,6065.076a8.85,8.85,0,0,1-4.106.982H340.381a8.078,8.078,0,0,1-6.5-2.963,5.261,5.261,0,0,1-1.1-3.181V6076.6a4.792,4.792,0,0,0,.091.934c.494,2.462,2.926,4.407,5.986,4.771a8.311,8.311,0,0,0,1.046.062h73.811c.2,0,.391-.006.588-.018,3.66-.246,6.538-2.726,6.538-5.749v-16.691c0,.122-.006.249-.018.373A6.032,6.032,0,0,1,417.364,6065.076Z" transform="translate(-332.788 -6059.914)" fill="#008f8d"/>
              <path id="Path_66415" data-name="Path 66415" d="M366.209,6067.626v-3.294l-6.538,9.043C363.331,6073.129,366.209,6070.648,366.209,6067.626Z" transform="translate(-278.148 -6050.935)" fill="#f1c40f"/>
              <path id="Path_66416" data-name="Path 66416" d="M365.236,6062.6l-11.578,16.021-.215.293h9.44l12.5-17.3a8.85,8.85,0,0,1-4.106.982Z" transform="translate(-290.807 -6056.453)" fill="#f1c40f"/>
              <path id="Path_66417" data-name="Path 66417" d="M351.981,6071.666l-4.76,6.587h9.434l2.486-3.439,9.306-12.874h-9.434Z" transform="translate(-303.452 -6055.794)" fill="#f1c40f"/>
              <path id="Path_66418" data-name="Path 66418" d="M350.311,6065.367,341,6078.253h9.433l7.039-9.732,4.754-6.581h-9.44Z" transform="translate(-316.098 -6055.794)" fill="#f1c40f"/>
              <path id="Path_66419" data-name="Path 66419" d="M342.138,6062.221l.2-.281H341.5Z" transform="translate(-315.086 -6055.794)" fill="#f1c40f"/>
              <path id="Path_66420" data-name="Path 66420" d="M346.537,6061.939l-11.745,16.254a8.4,8.4,0,0,0,1.046.062h8.339l11.59-16.032-.643-.283Z" transform="translate(-328.715 -6055.796)" fill="#f1c40f"/>
              <path id="Path_66421" data-name="Path 66421" d="M333.886,6060.963l-1.1,1.523v11.988a4.787,4.787,0,0,0,.091.934l8.3-11.481h-.794A8.076,8.076,0,0,1,333.886,6060.963Z" transform="translate(-332.788 -6057.783)" fill="#f1c40f"/>
            </g>
            <g id="Group_23045" data-name="Group 23045" transform="translate(8.843)">
              <path id="Path_66422" data-name="Path 66422" d="M337.279,6060.806v24.848h5.586v-25.17a24.783,24.783,0,0,1,24.754-24.754h.127v-5.25H367.6A30.323,30.323,0,0,0,337.279,6060.806Z" transform="translate(-332.503 -6024.732)" fill="#808285"/>
              <path id="Path_66423" data-name="Path 66423" d="M347.475,6030.479h-.149v5.25h.13a24.783,24.783,0,0,1,24.754,24.754v25.17H377.8v-24.848A30.324,30.324,0,0,0,347.475,6030.479Z" transform="translate(-312.082 -6024.732)" fill="#bfc1c4"/>
              <path id="Path_66424" data-name="Path 66424" d="M372.259,6038.9a35.1,35.1,0,0,0-24.9-10.313h-.033v5.747h.149a30.324,30.324,0,0,1,30.322,30.325V6089.5h4.776V6063.8a35.117,35.117,0,0,0-10.314-24.9Z" transform="translate(-312.082 -6028.584)" fill="#808285"/>
              <path id="Path_66425" data-name="Path 66425" d="M346.036,6038.917a35.149,35.149,0,0,0-10.332,24.944V6089.5h4.776v-24.848a30.322,30.322,0,0,1,30.322-30.325h.145v-5.747a35.156,35.156,0,0,0-24.912,10.333Z" transform="translate(-335.704 -6028.584)" fill="#bfc1c4"/>
            </g>
            <path id="Path_66426" data-name="Path 66426" d="M350.98,6052.477a5.2,5.2,0,0,0-2.459,9.786v9.121h4.922v-9.121a5.2,5.2,0,0,0-2.462-9.786Z" transform="translate(-306.384 -5980.024)"/>
            <path id="Path_66427" data-name="Path 66427" d="M351.347,6052.494c-.121-.009-.243-.017-.367-.017a5.2,5.2,0,0,0-2.459,9.786v9.121h.734v-9.121a5.2,5.2,0,0,1,2.092-9.769Z" transform="translate(-306.384 -5980.024)" fill="#14475f"/>
          </g>
        </g>
      </g>
    </g>
  </g>
</svg>
