<svg width="354" height="275" viewBox="0 0 354 275" fill="none" xmlns="http://www.w3.org/2000/svg">
<g clip-path="url(#clip0_12_7422)">
<g style="mix-blend-mode:multiply">
<path d="M243.137 228.718C245.437 226.418 251.406 220.448 248.174 212.208C256.496 215.285 261.861 209.921 265.274 206.508C271.301 200.48 276.76 193.075 265.114 181.432L177.484 93.799C160.543 89.638 135.661 66.6618 131.33 62.3278C130.891 61.8898 130.481 61.4748 130.105 61.0958C129.799 60.7878 129.518 60.4958 129.244 60.2228C127.883 58.8598 123.173 56.3918 120.657 58.9088L56.3249 123.237C56.0163 123.548 55.7758 123.92 55.6188 124.329C55.4618 124.738 55.3919 125.175 55.4133 125.613C55.4348 126.051 55.5472 126.479 55.7434 126.87C55.9396 127.262 56.2153 127.609 56.5529 127.888C57.0841 128.383 57.6572 128.83 58.266 129.226C58.6007 129.444 58.9217 129.684 59.227 129.942C61.318 132.376 64.4409 135.598 67.1949 138.434L67.7849 139.047C76.3039 147.84 76.385 148.088 80.737 161.147L80.904 161.647C86.667 178.966 92.531 186.781 107.223 201.475C110.535 204.786 143.834 237.982 148.18 242.213C154.146 248.02 160.913 254.607 169.085 262.779C169.272 262.979 169.459 263.174 169.646 263.363C177.056 270.773 185.939 270.393 194.009 262.322C197.197 259.135 199.427 254.691 198.464 250.043C205.299 254.76 211.547 253.951 217.853 247.643C220.617 244.878 226.2 239.306 224.028 231.89C232.184 236.638 238.764 233.091 243.137 228.718Z" fill="#E6E7E8"/>
<path d="M251.026 216.036C258.504 216.769 263.626 211.647 266.496 208.777C271.104 204.17 280.696 194.576 266.367 180.243L263.977 177.853L186.87 100.746C180.054 93.9314 176.956 92.5385 171.138 90.0355C154.19 82.7495 136.929 65.4916 132.549 61.1116C132.112 60.6756 131.714 60.2705 131.336 59.8885C131.028 59.5765 130.742 59.2806 130.47 59.0106C129.176 57.8029 127.625 56.9045 125.933 56.3826C121.823 55.0636 119.445 56.6328 118.389 57.6888L54.057 122.019C53.5224 122.56 53.1028 123.204 52.8237 123.912C52.5446 124.619 52.4117 125.376 52.433 126.136C52.4543 126.896 52.6294 127.644 52.9477 128.335C53.266 129.026 53.7209 129.645 54.285 130.156C54.9179 130.759 55.6051 131.302 56.338 131.779C56.538 131.916 56.811 132.106 56.962 132.222C59.102 134.698 62.179 137.868 64.899 140.674L65.491 141.286C73.617 149.677 73.617 149.678 77.87 162.445L78.04 162.954C83.96 180.744 89.953 188.739 104.956 203.743C108.28 207.065 141.584 240.271 145.934 244.504C151.893 250.304 158.641 256.876 166.793 265.024C166.987 265.233 167.186 265.439 167.38 265.633C173.436 271.69 179.446 272.08 183.425 271.342C187.946 270.327 192.058 267.975 195.225 264.593C197.825 262.103 199.63 258.899 200.413 255.385C200.449 255.202 200.483 255.011 200.508 254.814C202.473 255.669 204.598 256.095 206.741 256.064C210.99 255.976 215.022 253.971 219.072 249.92C221.21 247.78 226.072 242.92 226.436 236.442C234.453 238.928 240.764 234.579 244.355 230.987C246.915 228.427 250.382 224.41 250.996 219.087C251.117 218.074 251.127 217.051 251.026 216.036ZM219.534 226.17L198.177 204.813L196.711 206.279L217.034 226.601C225.315 235.234 220.506 241.507 215.583 246.43C209.901 252.113 204.077 253.612 195.638 245.459L171.573 221.397L169.862 223.108L192.041 245.287L192.255 245.498C198.568 251.811 194.955 257.893 191.738 261.105C186.876 265.967 178.983 270.263 170.864 262.144C170.685 261.965 170.507 261.784 170.333 261.592C156.081 247.339 116.211 208.027 108.442 200.257C93.869 185.685 88.301 178.168 82.718 161.395C78.125 147.604 78.052 147.168 69.029 137.856C66.18 134.913 62.767 131.415 60.573 128.856C60.537 128.816 60.493 128.772 60.449 128.731C59.801 128.081 58.457 127.358 57.773 126.67C57.36 126.26 57.191 125.864 57.545 125.51L120.555 62.4974C121.408 61.65 122.562 61.1746 123.765 61.1746C124.968 61.1746 126.122 61.65 126.975 62.4974C127.575 63.0974 128.268 63.8085 129.062 64.5975C134.924 70.4625 148.538 85.0644 169.941 94.5794C175.005 96.8294 178.36 99.2124 183.519 104.37L262.848 183.697L262.879 183.731C273.011 193.861 268.736 199.555 263.005 205.29C258.305 209.99 253.215 214.185 244.422 208.262L219.581 183.422C219.613 183.461 218.348 184.651 218.348 184.651L240.869 207.172C249.369 215.772 246.314 222.049 240.869 227.492C234.924 233.443 227.961 234.571 219.534 226.17Z" fill="#E6E7E8"/>
<path d="M175.464 256.463C134.481 215.48 98.775 189.984 87.851 156.263C83.372 142.435 83.183 142.034 74.162 132.722C71.311 129.782 67.9 126.284 65.704 123.728C64.792 122.663 61.686 121.367 62.678 120.377L57.4439 125.61C56.4539 126.597 59.5599 127.895 60.4699 128.958C62.6699 131.514 66.077 135.012 68.928 137.958C77.949 147.271 78.022 147.709 82.617 161.499C85.043 168.789 89.6629 179.306 96.1679 186.98C110.952 204.413 140.868 232.328 170.23 261.694C178.535 270.556 186.668 266.175 191.638 261.207C192.544 260.306 193.341 259.302 194.011 258.215C188.658 261.497 182.389 263.848 175.464 256.463Z" fill="#E6E7E8"/>
<path d="M249.548 203.133L224.707 178.292C224.739 178.331 219.473 183.523 219.473 183.523L241.754 205.804C245.1 209.187 247.378 210.641 251.214 211.204C256.076 211.758 259.582 208.704 262.897 205.389C263.802 204.489 264.671 203.578 265.45 202.66C261.42 206.069 256.715 207.956 249.548 203.133Z" fill="#E6E7E8"/>
<path d="M224.666 221.04L203.309 199.682L198.075 204.915L218.541 225.381C220.806 227.898 223.55 229.938 226.613 231.381C231.932 233.565 236.602 231.769 240.771 227.601C241.721 226.663 242.602 225.657 243.406 224.591C238.047 228.432 231.896 228.249 224.666 221.04Z" fill="#E6E7E8"/>
<path d="M200.769 240.33L176.705 216.268L171.474 221.498L191.664 241.688C193.923 244.017 196.299 246.23 198.783 248.319C205.531 253.232 210.556 251.456 215.483 246.53C216.478 245.55 217.417 244.515 218.295 243.43C213.337 247.213 208.016 247.33 200.769 240.33Z" fill="#E6E7E8"/>
<path d="M131.305 49.5294L43.96 136.874L64.4661 157.38L151.811 70.0355L131.305 49.5294Z" fill="#E6E7E8"/>
<path d="M97.9046 7.28047L0 105.185L47.6929 152.878L145.598 54.9734L97.9046 7.28047Z" fill="#E6E7E8"/>
<path d="M59.298 113.618H37.833V135.083H59.298V113.618Z" fill="#E6E7E8"/>
<path d="M37.832 135.082H59.3L37.835 113.617L37.832 135.082Z" fill="#E6E7E8"/>
<path d="M186.954 254.365C185.94 249.843 183.588 245.731 180.204 242.565C177.714 239.965 174.51 238.16 170.996 237.378C170.814 237.34 170.622 237.308 170.426 237.278C171.279 235.312 171.705 233.187 171.676 231.044C171.589 226.798 169.582 222.765 165.533 218.715C163.393 216.575 158.533 211.715 152.055 211.35V211.344C154.542 203.328 150.192 197.019 146.601 193.428C144.041 190.868 140.023 187.399 134.701 186.787C133.69 186.668 132.67 186.661 131.658 186.765C132.391 179.285 127.269 174.165 124.398 171.295C119.873 166.771 110.534 157.495 96.6379 170.713L96.6229 170.695L96.2759 171.042C96.1379 171.179 96.0039 171.28 95.8639 171.422L93.4739 173.812H93.5029L86.9029 180.412L84.5129 182.802C70.1809 197.132 79.777 206.726 84.384 211.335C87.254 214.204 92.376 219.325 99.854 218.596C99.7509 219.607 99.7583 220.626 99.876 221.636C100.488 226.961 103.957 230.98 106.517 233.536C110.108 237.127 116.417 241.479 124.433 238.993H124.44C124.802 245.469 129.666 250.331 131.804 252.471C135.854 256.521 139.886 258.53 144.135 258.617C146.278 258.647 148.403 258.221 150.368 257.365C150.392 257.565 150.426 257.756 150.463 257.934C151.245 261.448 153.05 264.653 155.651 267.143C158.817 270.526 162.929 272.878 167.451 273.893C169.713 274.291 172.032 274.218 174.264 273.678C176.496 273.138 178.592 272.143 180.422 270.755L180.643 270.986C180.852 270.786 181.058 270.592 181.252 270.398C181.594 270.053 181.852 269.713 182.164 269.37C182.61 268.984 183.052 268.63 183.498 268.183C183.692 267.989 183.891 267.783 184.085 267.577L183.823 267.322C185.207 265.493 186.2 263.399 186.739 261.169C187.277 258.94 187.351 256.624 186.954 254.365Z" fill="#E6E7E8"/>
<path d="M229.962 57.8291C230.482 57.8096 231.001 57.8954 231.487 58.082C231.973 58.2687 232.416 58.5523 232.789 58.915L297.119 123.243C297.428 123.553 297.669 123.925 297.826 124.334C297.983 124.744 298.053 125.181 298.032 125.619C298.01 126.056 297.898 126.485 297.701 126.876C297.505 127.268 297.229 127.615 296.891 127.894C296.361 128.39 295.788 128.838 295.178 129.232C294.844 129.452 294.523 129.691 294.217 129.948C292.125 132.382 289.003 135.604 286.249 138.44L285.659 139.053C277.14 147.846 277.059 148.094 272.71 161.153L272.543 161.653C271.386 165.125 268.785 171.485 267.552 174.323L204.443 111.403L168.743 146.862C166.791 148.813 164.144 149.91 161.384 149.91C158.624 149.91 155.977 148.813 154.025 146.862L145.792 138.63C143.84 136.678 142.744 134.03 142.744 131.27C142.744 128.509 143.84 125.861 145.792 123.909L177.339 91.728C194.28 87.567 217.784 66.668 222.117 62.334C222.556 61.896 222.964 61.4811 223.34 61.1021C223.646 60.7941 223.927 60.502 224.201 60.229C225.797 58.8022 227.827 57.9565 229.964 57.8291M229.964 52.6099C226.446 52.7496 223.093 54.1434 220.513 56.5391L220.013 57.0391L219.635 57.4238L219.455 57.604L218.421 58.644C214.582 62.486 191.77 82.8057 176.091 86.6577L174.65 87.0117L173.609 88.0718L142.062 120.255C139.149 123.19 137.518 127.159 137.525 131.294C137.531 135.429 139.176 139.392 142.098 142.318L150.331 150.548C151.782 151.999 153.505 153.151 155.401 153.937C157.297 154.722 159.329 155.126 161.381 155.126C163.433 155.126 165.465 154.722 167.361 153.937C169.257 153.151 170.98 151.999 172.431 150.548L204.431 118.763L263.862 178.016L269.283 183.422L272.333 176.401C273.52 173.673 276.249 167.028 277.489 163.301L277.656 162.801C281.713 150.625 281.713 150.625 289.402 142.689L290.002 142.061C292.647 139.336 295.641 136.249 297.827 133.743L298.055 133.583L298.162 133.51C299.025 132.946 299.832 132.303 300.574 131.588C301.429 130.765 302.107 129.775 302.566 128.681C303.025 127.586 303.256 126.409 303.243 125.222C303.191 123.09 302.316 121.061 300.802 119.559L236.47 55.228C235.615 54.3781 234.597 53.7083 233.478 53.2593C232.359 52.8102 231.161 52.5908 229.955 52.6138L229.964 52.6099Z" fill="#E6E7E8"/>
<path d="M177.337 91.7266C194.278 87.5656 217.782 66.667 222.115 62.333C222.554 61.895 222.962 61.4796 223.338 61.1006C223.644 60.7926 223.925 60.5011 224.199 60.2281C225.563 58.8651 230.27 56.3966 232.788 58.9136L297.118 123.242C297.427 123.553 297.668 123.924 297.825 124.334C297.982 124.743 298.052 125.18 298.031 125.618C298.009 126.055 297.897 126.484 297.7 126.876C297.504 127.267 297.228 127.614 296.89 127.893C296.36 128.389 295.787 128.837 295.177 129.231C294.843 129.451 294.522 129.69 294.216 129.947C292.124 132.381 289.002 135.603 286.248 138.439L285.658 139.052C277.139 147.845 277.058 148.093 272.709 161.152L272.542 161.652C269.817 169.836 268.631 173.444 264.942 179.112L177.337 91.7266Z" fill="#E6E7E8"/>
<path d="M186.954 254.365C185.94 249.843 183.588 245.731 180.204 242.565C177.714 239.965 174.51 238.16 170.996 237.378C170.814 237.34 170.622 237.308 170.426 237.278C171.279 235.312 171.705 233.187 171.676 231.044C171.589 226.798 169.582 222.765 165.533 218.715C163.393 216.575 158.533 211.715 152.055 211.35V211.344C154.542 203.328 150.192 197.019 146.601 193.428C144.041 190.868 140.023 187.399 134.701 186.787C133.69 186.668 132.67 186.661 131.658 186.765C132.391 179.285 127.269 174.165 124.398 171.295C119.873 166.771 110.534 157.495 96.6379 170.713L96.6229 170.695L96.2759 171.042C96.1379 171.179 96.0039 171.28 95.8639 171.422L93.4739 173.812H93.5029L86.9029 180.412L84.5129 182.802C70.1809 197.132 79.777 206.726 84.384 211.335C87.254 214.204 92.376 219.325 99.854 218.596C99.7509 219.607 99.7583 220.626 99.876 221.636C100.488 226.961 103.957 230.98 106.517 233.536C110.108 237.127 116.417 241.479 124.433 238.993H124.44C124.802 245.469 129.666 250.331 131.804 252.471C135.854 256.521 139.886 258.53 144.135 258.617C146.278 258.647 148.403 258.221 150.368 257.365C150.392 257.565 150.426 257.756 150.463 257.934C151.245 261.448 153.05 264.653 155.651 267.143C158.817 270.526 162.929 272.878 167.451 273.893C169.713 274.291 172.032 274.218 174.264 273.678C176.496 273.138 178.592 272.143 180.422 270.755L180.643 270.986C180.852 270.786 181.058 270.592 181.252 270.398C181.594 270.053 181.852 269.713 182.164 269.37C182.61 268.984 183.052 268.63 183.498 268.183C183.692 267.989 183.891 267.783 184.085 267.577L183.823 267.322C185.207 265.493 186.2 263.399 186.739 261.169C187.277 258.94 187.351 256.624 186.954 254.365ZM87.8649 207.855C82.1339 202.125 77.8589 196.429 87.9909 186.297L88.023 186.265L99.8899 174.398C109.675 164.972 115.275 169.16 120.902 174.787C125.602 179.487 129.797 184.577 123.874 193.368L110.784 206.456L110.803 206.473L106.448 210.827C97.6539 216.757 92.565 212.565 87.863 207.859L87.8649 207.855ZM109.998 230.055C104.556 224.615 101.498 218.333 109.998 209.737L120.766 198.966L120.749 198.948L122.782 196.918C131.382 188.411 137.66 191.473 143.103 196.918C149.05 202.867 150.178 209.83 141.778 218.257L132.172 227.863L132.189 227.88L131.335 228.736C122.909 237.14 115.943 236.011 109.996 230.065L109.998 230.055ZM135.288 248.99C130.365 244.067 125.556 237.796 133.837 229.162L142.409 220.59H142.402C150.935 212.567 157.154 217.322 162.041 222.208C167.724 227.892 169.223 233.717 161.07 242.155L154.844 248.381C146.615 256.112 140.879 254.594 135.286 248.998L135.288 248.99ZM159.132 263.668C155.917 260.452 152.302 254.368 158.615 248.059C158.683 247.991 158.756 247.92 158.829 247.848L161.512 245.167C167.68 239.396 173.571 242.903 176.712 246.047C181.378 250.713 185.491 258.172 178.646 265.938C171.014 272.34 163.72 268.265 159.13 263.676L159.132 263.668Z" fill="#E6E7E8"/>
<path d="M106.447 210.833L110.802 206.479L110.783 206.462L123.873 193.374C126.867 188.934 127.273 185.437 126.338 182.458C125.793 184.274 124.961 185.992 123.873 187.545L110.783 200.636L110.802 200.651L106.447 205.006C97.656 210.929 92.566 206.735 87.864 202.033C85.45 199.619 83.31 197.208 82.38 194.472C80.619 199.914 83.88 203.882 87.864 207.861C92.564 212.561 97.657 216.761 106.447 210.834V210.833Z" fill="#E6E7E8"/>
<path d="M132.19 227.884L132.173 227.867L141.779 218.261C147.179 212.848 148.626 208.039 147.406 203.713C146.659 206.438 144.868 209.335 141.779 212.434L132.173 222.039L132.19 222.056L131.336 222.91C122.909 231.31 115.946 230.181 109.996 224.234C107.838 222.266 106.183 219.808 105.172 217.068C103.612 222.129 106.23 226.297 109.996 230.068C115.945 236.014 122.909 237.143 131.336 228.743L132.19 227.884Z" fill="#E6E7E8"/>
<path d="M166.256 228.451C165.16 231.443 163.385 234.139 161.071 236.329L154.843 242.555C146.615 250.284 140.882 248.765 135.287 243.171C133.014 240.896 130.781 238.33 129.835 235.38C128.049 240.94 131.635 245.343 135.287 248.999C140.887 254.599 146.616 256.113 154.843 248.385L161.071 242.159C166.319 236.723 167.552 232.375 166.256 228.451Z" fill="#E6E7E8"/>
<path d="M181.882 254.414C181.258 256.538 180.152 258.488 178.65 260.114C171.017 266.509 163.721 262.434 159.13 257.843C157.589 256.349 156.403 254.529 155.66 252.515C154.017 257.12 156.684 261.228 159.13 263.674C163.721 268.264 171.017 272.338 178.65 265.944C182.214 261.899 182.791 257.942 181.882 254.414Z" fill="#E6E7E8"/>
<path d="M200.744 115.076L168.744 146.861C166.792 148.812 164.145 149.909 161.385 149.909C158.625 149.909 155.978 148.812 154.026 146.861L145.793 138.629C143.841 136.677 142.745 134.029 142.745 131.269C142.745 128.508 143.841 125.861 145.793 123.908L177.34 91.7271L200.744 115.076Z" fill="#E6E7E8"/>
<path d="M295.746 121.87C295.557 122.007 295.368 122.145 295.178 122.27C294.845 122.491 294.525 122.73 294.217 122.986C292.125 125.423 289.003 128.64 286.249 131.479L285.659 132.095C277.14 140.884 277.059 141.133 272.71 154.188L272.543 154.688C269.818 162.871 268.632 166.479 264.943 172.147L202.584 109.948C202.095 109.461 201.434 109.187 200.744 109.187C200.054 109.187 199.392 109.461 198.903 109.948L168.741 139.903C166.789 141.854 164.142 142.95 161.382 142.95C158.622 142.95 155.975 141.854 154.023 139.903L145.79 131.673C144.705 130.575 143.879 129.249 143.373 127.791C142.708 129.641 142.582 131.642 143.01 133.561C143.438 135.479 144.402 137.237 145.79 138.629L154.023 146.862C155.975 148.813 158.622 149.909 161.382 149.909C164.142 149.909 166.789 148.813 168.741 146.862L199.825 115.992C199.946 115.871 200.089 115.775 200.247 115.709C200.405 115.644 200.574 115.611 200.745 115.611C200.915 115.611 201.084 115.644 201.242 115.709C201.4 115.775 201.543 115.871 201.664 115.992L264.943 179.111C268.631 173.443 269.818 169.835 272.543 161.651L272.71 161.151C277.058 148.095 277.141 147.851 285.659 139.051L286.249 138.439C289.003 135.601 292.126 132.379 294.217 129.946C294.523 129.689 294.844 129.449 295.178 129.229C295.788 128.835 296.361 128.388 296.891 127.892C297.229 127.613 297.505 127.266 297.701 126.875C297.898 126.483 298.01 126.054 298.032 125.617C298.053 125.179 297.983 124.742 297.826 124.333C297.669 123.923 297.428 123.552 297.119 123.241L295.746 121.87Z" fill="#E6E7E8"/>
<path d="M222.135 49.5276L201.629 70.0337L288.974 157.378L309.48 136.872L222.135 49.5276Z" fill="#E6E7E8"/>
<path d="M255.535 7.2807L207.842 54.9736L305.747 152.878L353.44 105.185L255.535 7.2807Z" fill="#E6E7E8"/>
<path d="M315.607 113.618H294.142V135.083H315.607V113.618Z" fill="#E6E7E8"/>
<path d="M315.609 135.082H294.139L315.604 113.617L315.609 135.082Z" fill="#E6E7E8"/>
<path d="M149.796 124.872L163.827 110.84L172.892 119.903L162.347 130.448C158.327 134.469 154.52 132.682 149.863 128.379C149.622 128.157 149.428 127.888 149.294 127.589C149.159 127.29 149.087 126.967 149.08 126.64C149.074 126.312 149.134 125.986 149.257 125.683C149.38 125.379 149.564 125.103 149.796 124.872Z" fill="#E6E7E8"/>
<path d="M113.374 193.637L100.291 180.553L102.615 178.229C104.324 176.52 106.642 175.56 109.06 175.56C111.477 175.56 113.795 176.52 115.504 178.229L115.704 178.429C117.412 180.138 118.372 182.455 118.372 184.872C118.372 187.288 117.412 189.606 115.704 191.315L113.374 193.637Z" fill="#E6E7E8"/>
<path d="M134.973 215.238L122.373 202.638L124.841 200.17C126.512 198.5 128.778 197.562 131.141 197.562C133.504 197.562 135.77 198.5 137.441 200.17C139.112 201.841 140.05 204.107 140.05 206.47C140.05 208.833 139.112 211.099 137.441 212.77L134.973 215.238Z" fill="#E6E7E8"/>
<path d="M156.562 236.826L144.535 224.798L146.25 223.083C146.95 222.383 147.78 221.828 148.694 221.449C149.609 221.07 150.588 220.875 151.578 220.875C152.568 220.875 153.547 221.07 154.462 221.449C155.376 221.828 156.206 222.383 156.906 223.083L158.277 224.452C159.689 225.866 160.482 227.782 160.482 229.781C160.482 231.779 159.689 233.696 158.277 235.11L156.562 236.826Z" fill="#E6E7E8"/>
<path d="M174.598 258.404L164.264 248.074L165.979 246.358C166.951 245.386 168.269 244.84 169.644 244.84C171.019 244.84 172.337 245.386 173.309 246.358L176.309 249.358C177.281 250.33 177.827 251.648 177.827 253.022C177.827 254.396 177.281 255.714 176.309 256.686L174.598 258.404Z" fill="#E6E7E8"/>
</g>
<path d="M243.138 221.44C245.438 219.14 251.407 213.17 248.175 204.931C256.497 208.007 261.862 202.643 265.275 199.231C271.302 193.203 276.761 185.797 265.115 174.154L177.485 86.5216C160.544 82.3606 135.662 59.3844 131.331 55.0504C130.892 54.6124 130.482 54.1975 130.106 53.8195C129.8 53.5105 129.519 53.2194 129.245 52.9464C127.884 51.5824 123.174 49.1145 120.658 51.6315L56.326 115.961C56.0174 116.271 55.7769 116.643 55.6199 117.052C55.4629 117.461 55.393 117.899 55.4144 118.337C55.4359 118.774 55.5483 119.202 55.7445 119.594C55.9407 119.986 56.2164 120.332 56.554 120.611C57.0849 121.106 57.6581 121.554 58.2671 121.948C58.6016 122.167 58.9225 122.407 59.2281 122.665C61.3191 125.099 64.442 128.32 67.196 131.156L67.786 131.771C76.305 140.564 76.3861 140.811 80.7381 153.871L80.9051 154.371C86.6681 171.69 92.5321 179.504 107.224 194.198C110.536 197.509 143.835 230.706 148.181 234.937C154.147 240.744 160.914 247.331 169.086 255.503C169.273 255.703 169.46 255.903 169.647 256.087C177.057 263.497 185.94 263.117 194.01 255.047C197.198 251.859 199.428 247.416 198.465 242.767C205.3 247.484 211.548 246.675 217.854 240.367C220.618 237.603 226.201 232.029 224.029 224.614C232.185 229.359 238.765 225.812 243.138 221.44Z" fill="#914F4E"/>
<path d="M251.026 208.756C258.504 209.489 263.626 204.367 266.496 201.497C271.104 196.89 280.696 187.296 266.367 172.963L263.977 170.573L186.87 93.4663C180.054 86.6523 176.956 85.2583 171.138 82.7563C154.19 75.4703 136.929 58.2115 132.549 53.8315C132.112 53.3955 131.714 52.9903 131.336 52.6083C131.028 52.2963 130.742 52.0004 130.47 51.7304C129.176 50.5231 127.624 49.625 125.933 49.1035C121.823 47.7835 119.445 49.3533 118.389 50.4033L54.057 114.735C53.5224 115.276 53.1028 115.92 52.8237 116.627C52.5446 117.335 52.4117 118.092 52.433 118.852C52.4543 119.612 52.6294 120.36 52.9477 121.051C53.266 121.742 53.7209 122.361 54.285 122.872C54.9184 123.474 55.6056 124.017 56.338 124.495C56.538 124.631 56.811 124.822 56.962 124.938C59.102 127.413 62.179 130.583 64.899 133.389L65.491 134.002C73.617 142.392 73.617 142.393 77.87 155.161L78.04 155.669C83.96 173.459 89.953 181.454 104.956 196.459C108.28 199.78 141.584 232.985 145.934 237.219C151.893 243.019 158.641 249.591 166.793 257.739C166.987 257.947 167.186 258.154 167.38 258.348C173.436 264.405 179.446 264.795 183.425 264.058C187.946 263.042 192.058 260.69 195.225 257.308C197.825 254.818 199.631 251.614 200.413 248.1C200.449 247.918 200.483 247.725 200.508 247.529C202.473 248.383 204.598 248.81 206.741 248.779C210.99 248.691 215.022 246.685 219.072 242.634C221.21 240.494 226.072 235.634 226.436 229.156C234.453 231.643 240.764 227.294 244.355 223.703C246.915 221.142 250.382 217.124 250.996 211.802C251.117 210.791 251.127 209.77 251.026 208.756ZM219.534 218.891L198.177 197.534L196.711 198.998L217.034 219.321C225.315 227.955 220.506 234.226 215.583 239.149C209.901 244.832 204.077 246.332 195.638 238.179L171.573 214.117L169.862 215.827L192.041 238.006L192.255 238.217C198.568 244.53 194.955 250.611 191.738 253.823C186.876 258.685 178.983 262.982 170.864 254.864C170.685 254.684 170.507 254.502 170.333 254.31C156.081 240.057 116.211 200.746 108.442 192.976C93.869 178.404 88.301 170.888 82.718 154.115C78.125 140.323 78.052 139.888 69.029 130.575C66.18 127.632 62.767 124.134 60.573 121.575C60.537 121.534 60.493 121.489 60.449 121.448C59.801 120.798 58.457 120.076 57.773 119.388C57.36 118.978 57.191 118.581 57.545 118.228L120.555 55.2162C121.408 54.3687 122.562 53.893 123.765 53.893C124.968 53.893 126.122 54.3687 126.975 55.2162C127.575 55.8162 128.268 56.5273 129.062 57.3163C134.924 63.1803 148.538 77.7823 169.941 87.2973C175.005 89.5473 178.36 91.9303 183.519 97.0883L262.848 176.415L262.879 176.45C273.011 186.579 268.736 192.273 263.005 198.008C258.305 202.708 253.215 206.902 244.422 200.979L219.581 176.14C219.613 176.179 218.348 177.369 218.348 177.369L240.869 199.891C249.369 208.491 246.314 214.768 240.869 220.21C234.924 226.163 227.961 227.291 219.534 218.891Z" fill="#542C2B"/>
<path d="M175.464 249.184C134.481 208.201 98.775 182.704 87.851 148.983C83.372 135.155 83.183 134.754 74.162 125.443C71.311 122.502 67.9 119.004 65.704 116.443C64.792 115.379 61.686 114.082 62.678 113.092L57.4439 118.326C56.4539 119.314 59.5599 120.61 60.4699 121.673C62.6699 124.229 66.077 127.728 68.928 130.673C77.949 139.986 78.022 140.425 82.617 154.214C85.043 161.505 89.6629 172.021 96.1679 179.695C110.952 197.129 140.868 225.044 170.23 254.41C178.535 263.272 186.668 258.891 191.638 253.923C192.544 253.023 193.341 252.019 194.011 250.931C188.658 254.218 182.389 256.57 175.464 249.184Z" fill="#914F4E"/>
<path d="M249.548 195.855L224.707 171.013C224.739 171.052 219.473 176.245 219.473 176.245L241.754 198.525C245.1 201.908 247.378 203.363 251.214 203.925C256.076 204.478 259.582 201.425 262.897 198.109C263.802 197.209 264.671 196.298 265.45 195.38C261.42 198.791 256.715 200.677 249.548 195.855Z" fill="#914F4E"/>
<path d="M224.666 213.762L203.309 192.404L198.075 197.637L218.541 218.104C220.806 220.62 223.55 222.66 226.613 224.104C231.932 226.288 236.602 224.492 240.771 220.324C241.721 219.386 242.602 218.38 243.406 217.314C238.047 221.154 231.896 220.972 224.666 213.762Z" fill="#914F4E"/>
<path d="M200.769 233.05L176.705 208.988L171.474 214.218L191.664 234.408C193.923 236.737 196.299 238.95 198.783 241.039C205.531 245.952 210.556 244.176 215.483 239.25C216.478 238.27 217.417 237.235 218.295 236.149C213.337 239.933 208.016 240.05 200.769 233.05Z" fill="#914F4E"/>
<path d="M131.305 42.2501L43.96 129.595L64.4661 150.101L151.811 62.7562L131.305 42.2501Z" fill="white"/>
<path d="M97.9046 0.00117795L0 97.9058L47.6929 145.599L145.598 47.6941L97.9046 0.00117795Z" fill="#14475F"/>
<path d="M59.298 106.338H37.833V127.803H59.298V106.338Z" fill="#FFCC59"/>
<path d="M37.832 127.802H59.3L37.835 106.337L37.832 127.802Z" fill="#F19C23"/>
<path d="M186.954 247.086C185.94 242.565 183.588 238.453 180.204 235.287C177.714 232.687 174.51 230.882 170.996 230.1C170.814 230.062 170.622 230.029 170.426 230.004C171.279 228.038 171.705 225.913 171.676 223.77C171.589 219.524 169.582 215.49 165.533 211.441C163.393 209.301 158.533 204.441 152.055 204.075V204.069C154.542 196.053 150.192 189.745 146.601 186.154C144.041 183.593 140.023 180.125 134.701 179.513C133.691 179.394 132.67 179.386 131.658 179.491C132.391 172.011 127.269 166.892 124.398 164.021C119.873 159.497 110.534 150.22 96.6379 163.438L96.6229 163.42L96.2759 163.769C96.1379 163.905 96.0039 164.006 95.8639 164.147L93.4739 166.538H93.5029L86.9029 173.137L84.5129 175.527C70.1809 189.856 79.777 199.451 84.384 204.061C87.254 206.929 92.376 212.049 99.854 211.32C99.7509 212.331 99.7583 213.351 99.876 214.36C100.488 219.685 103.957 223.704 106.517 226.26C110.108 229.851 116.417 234.203 124.433 231.717H124.44C124.802 238.194 129.666 243.055 131.804 245.195C135.854 249.245 139.886 251.255 144.135 251.341C146.278 251.372 148.403 250.945 150.368 250.089C150.392 250.289 150.426 250.481 150.463 250.66C151.246 254.174 153.051 257.378 155.651 259.869C158.817 263.252 162.929 265.604 167.451 266.617C169.713 267.015 172.032 266.942 174.264 266.402C176.496 265.862 178.592 264.867 180.422 263.48L180.643 263.71C180.852 263.51 181.058 263.317 181.252 263.123C181.594 262.778 181.852 262.437 182.164 262.094C182.61 261.708 183.052 261.354 183.498 260.907C183.692 260.713 183.891 260.507 184.085 260.301L183.823 260.046C185.208 258.217 186.2 256.122 186.739 253.893C187.278 251.663 187.351 249.346 186.954 247.086Z" fill="#914F4E"/>
<path d="M229.962 50.5498C230.482 50.5301 231.001 50.6158 231.487 50.8022C231.973 50.9887 232.416 51.2722 232.789 51.6348L297.119 115.963C297.428 116.274 297.669 116.646 297.826 117.055C297.983 117.464 298.053 117.902 298.032 118.339C298.01 118.777 297.898 119.205 297.701 119.597C297.505 119.989 297.229 120.336 296.891 120.615C296.361 121.111 295.788 121.558 295.178 121.952C294.844 122.172 294.523 122.411 294.217 122.667C292.125 125.101 289.003 128.324 286.249 131.16L285.659 131.773C277.14 140.566 277.059 140.814 272.71 153.874L272.543 154.374C271.386 157.847 268.785 164.205 267.552 167.044L204.441 104.123L168.741 139.583C166.789 141.533 164.142 142.629 161.382 142.629C158.622 142.629 155.975 141.533 154.023 139.583L145.79 131.35C143.838 129.397 142.742 126.75 142.742 123.99C142.742 121.229 143.838 118.582 145.79 116.629L177.337 84.4478C194.278 80.2868 217.782 59.3877 222.115 55.0537C222.554 54.6157 222.962 54.2008 223.338 53.8228C223.644 53.5138 223.925 53.2227 224.199 52.9497C225.794 51.5225 227.825 50.6768 229.962 50.5498ZM229.962 45.3306C226.444 45.4698 223.091 46.8637 220.511 49.2598L220.011 49.7598L219.633 50.1445L219.453 50.3257L218.419 51.3657C214.58 55.2067 191.768 75.5264 176.089 79.3784L174.648 79.7324L173.607 80.7935L142.06 112.976C139.147 115.91 137.516 119.88 137.523 124.015C137.529 128.15 139.174 132.113 142.096 135.039L150.329 143.269C151.78 144.72 153.502 145.872 155.398 146.657C157.294 147.443 159.327 147.847 161.379 147.847C163.431 147.847 165.463 147.443 167.359 146.657C169.255 145.872 170.978 144.72 172.429 143.269L204.429 111.483L263.86 170.738L269.281 176.143L272.331 169.122C273.518 166.394 276.247 159.748 277.487 156.021L277.654 155.521C281.711 143.345 281.711 143.346 289.4 135.41L290 134.782C292.645 132.057 295.639 128.97 297.825 126.463L298.053 126.305L298.16 126.23C299.022 125.667 299.83 125.024 300.572 124.31C301.427 123.486 302.105 122.497 302.564 121.402C303.023 120.307 303.253 119.13 303.241 117.942C303.188 115.81 302.314 113.782 300.8 112.28L236.468 47.9487C235.612 47.099 234.595 46.4298 233.476 45.981C232.356 45.5321 231.159 45.3123 229.953 45.3354L229.962 45.3306Z" fill="#542C2B"/>
<path d="M177.337 84.4482C194.278 80.2872 217.782 59.3887 222.115 55.0547C222.554 54.6167 222.962 54.2012 223.338 53.8232C223.644 53.5142 223.925 53.2237 224.199 52.9507C225.563 51.5867 230.27 49.1183 232.788 51.6353L297.118 115.964C297.427 116.275 297.668 116.647 297.825 117.056C297.982 117.465 298.052 117.903 298.03 118.34C298.009 118.778 297.897 119.206 297.7 119.598C297.504 119.99 297.228 120.336 296.89 120.615C296.36 121.111 295.787 121.559 295.177 121.953C294.843 122.173 294.522 122.412 294.216 122.668C292.124 125.102 289.002 128.325 286.248 131.161L285.658 131.774C277.139 140.567 277.058 140.815 272.709 153.875L272.542 154.375C269.817 162.559 268.631 166.167 264.942 171.835L177.337 84.4482Z" fill="#914F4E"/>
<path d="M186.954 247.086C185.94 242.565 183.588 238.453 180.204 235.287C177.714 232.687 174.51 230.882 170.996 230.1C170.814 230.062 170.622 230.029 170.426 230.004C171.279 228.038 171.705 225.913 171.676 223.77C171.589 219.524 169.582 215.49 165.533 211.441C163.393 209.301 158.533 204.441 152.055 204.075V204.069C154.542 196.053 150.192 189.745 146.601 186.154C144.041 183.593 140.023 180.125 134.701 179.513C133.691 179.394 132.67 179.386 131.658 179.491C132.391 172.011 127.269 166.892 124.398 164.021C119.873 159.497 110.534 150.22 96.6379 163.438L96.6229 163.42L96.2759 163.769C96.1379 163.905 96.0039 164.006 95.8639 164.147L93.4739 166.538H93.5029L86.9029 173.137L84.5129 175.527C70.1809 189.856 79.777 199.451 84.384 204.061C87.254 206.929 92.376 212.049 99.854 211.32C99.7509 212.331 99.7583 213.351 99.876 214.36C100.488 219.685 103.957 223.704 106.517 226.26C110.108 229.851 116.417 234.203 124.433 231.717H124.44C124.802 238.194 129.666 243.055 131.804 245.195C135.854 249.245 139.886 251.255 144.135 251.341C146.278 251.372 148.403 250.945 150.368 250.089C150.392 250.289 150.426 250.481 150.463 250.66C151.246 254.174 153.051 257.378 155.651 259.869C158.817 263.252 162.929 265.604 167.451 266.617C169.713 267.015 172.032 266.942 174.264 266.402C176.496 265.862 178.592 264.867 180.422 263.48L180.643 263.71C180.852 263.51 181.058 263.317 181.252 263.123C181.594 262.778 181.852 262.437 182.164 262.094C182.61 261.708 183.052 261.354 183.498 260.907C183.692 260.713 183.891 260.507 184.085 260.301L183.823 260.046C185.208 258.217 186.2 256.122 186.739 253.893C187.278 251.663 187.351 249.346 186.954 247.086ZM87.8649 200.575C82.1339 194.845 77.8589 189.15 87.9909 179.018L88.023 178.985L99.8899 167.119C109.675 157.693 115.275 161.881 120.902 167.507C125.602 172.207 129.797 177.298 123.874 186.088L110.784 199.176L110.803 199.193L106.448 203.546C97.6539 209.477 92.565 205.287 87.863 200.581L87.8649 200.575ZM109.998 222.775C104.556 217.335 101.498 211.054 109.998 202.458L120.766 191.687L120.749 191.668L122.782 189.638C131.382 181.131 137.66 184.193 143.103 189.638C149.05 195.587 150.178 202.551 141.778 210.979L132.172 220.584L132.189 220.601L131.335 221.457C122.909 229.863 115.943 228.734 109.996 222.787L109.998 222.775ZM135.288 241.71C130.365 236.787 125.556 230.516 133.837 221.882L142.409 213.311H142.402C150.935 205.289 157.154 210.042 162.041 214.928C167.724 220.612 169.223 226.437 161.07 234.876L154.844 241.103C146.615 248.834 140.879 247.314 135.286 241.718L135.288 241.71ZM159.132 256.388C155.917 253.173 152.302 247.093 158.615 240.78C158.683 240.711 158.756 240.641 158.829 240.569L161.512 237.887C167.68 232.116 173.571 235.624 176.712 238.769C181.378 243.434 185.491 250.893 178.646 258.66C171.014 265.061 163.72 260.986 159.13 256.396L159.132 256.388Z" fill="#542C2B"/>
<path d="M106.448 203.553L110.803 199.2L110.784 199.183L123.874 186.095C126.868 181.655 127.274 178.158 126.339 175.179C125.794 176.995 124.962 178.713 123.874 180.266L110.784 193.356L110.803 193.373L106.448 197.727C97.657 203.65 92.567 199.455 87.865 194.753C85.451 192.339 83.311 189.929 82.381 187.193C80.62 192.635 83.881 196.603 87.865 200.582C92.565 205.282 97.658 209.482 106.448 203.555V203.553Z" fill="#542C2B"/>
<path d="M132.191 220.604L132.174 220.587L141.78 210.982C147.18 205.569 148.627 200.759 147.407 196.433C146.66 199.158 144.869 202.056 141.78 205.154L132.174 214.759L132.191 214.776L131.337 215.63C122.91 224.03 115.947 222.902 109.997 216.954C107.838 214.986 106.184 212.528 105.173 209.788C103.613 214.85 106.231 219.017 109.997 222.788C115.946 228.734 122.91 229.863 131.337 221.462L132.191 220.604Z" fill="#542C2B"/>
<path d="M166.256 221.171C165.16 224.162 163.385 226.859 161.071 229.049L154.843 235.276C146.615 243.004 140.882 241.485 135.287 235.892C133.014 233.616 130.781 231.051 129.835 228.101C128.049 233.66 131.635 238.063 135.287 241.719C140.887 247.319 146.616 248.833 154.843 241.106L161.071 234.88C166.319 229.443 167.552 225.095 166.256 221.171Z" fill="#542C2B"/>
<path d="M181.883 247.135C181.259 249.258 180.153 251.209 178.651 252.834C171.018 259.228 163.722 255.153 159.131 250.563C157.59 249.07 156.404 247.249 155.661 245.236C154.018 249.841 156.685 253.949 159.131 256.395C163.722 260.985 171.018 265.059 178.651 258.666C182.215 254.619 182.792 250.662 181.883 247.135Z" fill="#542C2B"/>
<path d="M200.744 107.798L168.744 139.583C166.792 141.535 164.145 142.631 161.385 142.631C158.625 142.631 155.978 141.535 154.026 139.583L145.793 131.351C143.841 129.398 142.745 126.751 142.745 123.991C142.745 121.23 143.841 118.583 145.793 116.631L177.338 84.4487L200.744 107.798Z" fill="#914F4E"/>
<path d="M295.746 114.59C295.557 114.726 295.368 114.864 295.178 114.99C294.845 115.212 294.524 115.451 294.217 115.707C292.125 118.144 289.003 121.362 286.249 124.2L285.659 124.815C277.14 133.605 277.059 133.855 272.71 146.909L272.543 147.409C269.818 155.592 268.632 159.201 264.943 164.868L202.584 102.668C202.095 102.181 201.433 101.908 200.743 101.908C200.053 101.908 199.392 102.181 198.903 102.668L168.741 132.624C167.775 133.59 166.627 134.356 165.365 134.879C164.102 135.402 162.749 135.671 161.382 135.671C160.015 135.671 158.662 135.402 157.399 134.879C156.137 134.356 154.989 133.59 154.023 132.624L145.79 124.394C144.705 123.296 143.879 121.969 143.373 120.511C142.708 122.361 142.582 124.362 143.01 126.281C143.438 128.2 144.402 129.958 145.79 131.35L154.023 139.583C155.975 141.535 158.622 142.631 161.382 142.631C164.142 142.631 166.789 141.535 168.741 139.583L199.825 108.712C199.946 108.592 200.089 108.496 200.247 108.43C200.405 108.365 200.574 108.332 200.744 108.332C200.915 108.332 201.084 108.365 201.242 108.43C201.4 108.496 201.543 108.592 201.664 108.712L264.943 171.833C268.631 166.165 269.818 162.556 272.543 154.372L272.71 153.872C277.058 140.816 277.141 140.571 285.659 131.771L286.249 131.16C289.003 128.321 292.126 125.098 294.217 122.66C294.523 122.403 294.844 122.165 295.178 121.944C295.788 121.551 296.361 121.103 296.891 120.607C297.229 120.328 297.505 119.982 297.701 119.59C297.898 119.198 298.01 118.77 298.032 118.332C298.053 117.894 297.983 117.457 297.826 117.048C297.669 116.639 297.428 116.267 297.119 115.957L295.746 114.59Z" fill="#542C2B"/>
<path d="M222.135 42.2483L201.629 62.7544L288.974 150.099L309.48 129.593L222.135 42.2483Z" fill="white"/>
<path d="M255.535 0.00139996L207.842 47.6943L305.747 145.599L353.439 97.906L255.535 0.00139996Z" fill="#14475F"/>
<path d="M315.607 106.338H294.142V127.803H315.607V106.338Z" fill="#FFCC59"/>
<path d="M315.609 127.802H294.139L315.604 106.337L315.609 127.802Z" fill="#F19C23"/>
<path d="M149.796 117.592L163.827 103.561L172.892 112.623L162.347 123.168C158.327 127.188 154.52 125.403 149.863 121.099C149.622 120.877 149.428 120.608 149.294 120.309C149.159 120.01 149.086 119.687 149.08 119.359C149.074 119.032 149.134 118.706 149.257 118.402C149.38 118.099 149.563 117.823 149.796 117.592Z" fill="#542C2B"/>
<path d="M113.374 186.357L100.291 173.274L102.615 170.951C103.461 170.104 104.466 169.433 105.572 168.975C106.677 168.517 107.862 168.281 109.059 168.281C110.256 168.281 111.441 168.517 112.547 168.975C113.653 169.433 114.658 170.104 115.504 170.951L115.704 171.15C117.412 172.86 118.372 175.177 118.372 177.594C118.372 180.01 117.412 182.328 115.704 184.038L113.374 186.357Z" fill="#542C2B"/>
<path d="M134.973 207.958L122.373 195.358L124.841 192.891C126.512 191.22 128.778 190.282 131.141 190.282C133.504 190.282 135.77 191.22 137.441 192.891C139.111 194.562 140.05 196.828 140.05 199.19C140.05 201.553 139.111 203.82 137.441 205.491L134.973 207.958Z" fill="#542C2B"/>
<path d="M156.562 229.546L144.535 217.52L146.25 215.804C146.95 215.104 147.78 214.549 148.694 214.17C149.609 213.791 150.588 213.596 151.578 213.596C152.567 213.596 153.547 213.791 154.461 214.17C155.376 214.549 156.206 215.104 156.906 215.804L158.277 217.173C159.689 218.587 160.482 220.503 160.482 222.501C160.482 224.5 159.689 226.417 158.277 227.831L156.562 229.546Z" fill="#542C2B"/>
<path d="M174.598 251.126L164.264 240.795L165.979 239.08C166.951 238.108 168.269 237.562 169.644 237.562C171.018 237.562 172.337 238.108 173.309 239.08L176.309 242.08C177.281 243.051 177.826 244.369 177.826 245.743C177.826 247.117 177.281 248.435 176.309 249.406L174.598 251.126Z" fill="#542C2B"/>
</g>
<defs>
<clipPath id="clip0_12_7422">
<rect width="353.44" height="274.177" fill="white"/>
</clipPath>
</defs>
</svg>
