<svg xmlns="http://www.w3.org/2000/svg" width="349.752" height="437.257" viewBox="0 0 349.752 437.257">
  <g id="Group_24013" data-name="Group 24013" transform="translate(-299.543 -2766.508)">
    <g id="Group_24008" data-name="Group 24008" transform="translate(299.543 2766.508)">
      <g id="Group_24002" data-name="Group 24002" transform="translate(0 11.609)" opacity="0.1" style="mix-blend-mode: multiply;isolation: isolate">
        <path id="Path_68409" data-name="Path 68409" d="M344.772,2769.509h-.035v425.625l.035.02,41.032-17.592,2.14-.917,59.385-25.454c27.218-37.952,45.742-79.828,57.18-122.5l.027-.109c19.065-70.959,18.643-144.178,6.555-205.463C432.169,2836.9,396.128,2815.854,344.772,2769.509Z" transform="translate(-169.859 -2769.505)"/>
        <path id="Path_68410" data-name="Path 68410" d="M308.059,2823.125c-19.359,98.158-8.768,226.932,63.758,328.065l102.57,43.954.031-.008V2769.515l-.031-.008C423.022,2815.857,386.978,2836.907,308.059,2823.125Z" transform="translate(-299.543 -2769.508)"/>
        <path id="Path_68411" data-name="Path 68411" d="M308.288,2825.348c9.283,53.8,28.248,101.993,56.5,143.382l84.514,36.207.023-.008.027.008.008,0V2825.348Z" transform="translate(-274.45 -2609.278)"/>
        <path id="Path_68412" data-name="Path 68412" d="M454.041,2778.937l-.035.028c-32.713,27.175-69.09,48.821-123.02,48.821-6.609,0-13.416-.3-20.516-.913a439.257,439.257,0,0,0,1.788,127.687c.116.635.228,1.274.34,1.9.116.693.252,1.374.371,2.063H454.041Z" transform="translate(-279.132 -2742.451)"/>
        <path id="Path_68413" data-name="Path 68413" d="M344.745,3004.933l84.5-36.2c28.263-41.392,47.22-89.581,56.5-143.382h-141Z" transform="translate(-169.836 -2609.278)"/>
        <path id="Path_68414" data-name="Path 68414" d="M488.246,2826.94c-7.1.608-13.9.914-20.508.914-50.548,0-84.576-17.038-122.993-48.853v179.587h141c.12-.689.255-1.365.371-2.054.112-.638.228-1.272.341-1.908A439.256,439.256,0,0,0,488.246,2826.94Z" transform="translate(-169.836 -2742.272)"/>
      </g>
      <g id="Group_24007" data-name="Group 24007">
        <g id="Group_24006" data-name="Group 24006">
          <g id="Group_24005" data-name="Group 24005">
            <g id="Group_24003" data-name="Group 24003">
              <path id="Path_68415" data-name="Path 68415" d="M344.772,2766.508h-.035v425.625l.035.021,41.032-17.592,2.14-.916,59.385-25.456c27.218-37.952,45.742-79.828,57.18-122.5l.027-.107c19.065-70.959,18.643-144.18,6.555-205.464C432.169,2833.9,396.128,2812.854,344.772,2766.508Z" transform="translate(-169.859 -2766.504)" fill="#190a32"/>
              <path id="Path_68416" data-name="Path 68416" d="M308.059,2820.123c-19.359,98.158-8.768,226.932,63.758,328.066l102.57,43.954.031-.008V2766.514l-.031-.008C423.022,2812.856,386.978,2833.906,308.059,2820.123Z" transform="translate(-299.543 -2766.507)" fill="#190a32"/>
            </g>
            <g id="Group_24004" data-name="Group 24004" transform="translate(27.524 36.486)">
              <path id="Path_68417" data-name="Path 68417" d="M308.288,2822.347c9.283,53.8,28.248,101.993,56.5,143.382l84.514,36.207.023-.006.027.006.008,0V2822.347Z" transform="translate(-301.975 -2642.762)" fill="#f1f1f2"/>
              <path id="Path_68418" data-name="Path 68418" d="M454.041,2775.938l-.035.027c-32.713,27.176-69.09,48.821-123.02,48.821-6.609,0-13.416-.3-20.516-.913a439.256,439.256,0,0,0,1.788,127.687c.116.634.228,1.274.34,1.9.116.692.252,1.374.371,2.063H454.041Z" transform="translate(-306.656 -2775.938)" fill="#fff"/>
              <path id="Path_68419" data-name="Path 68419" d="M344.745,3001.932l84.5-36.2c28.263-41.392,47.22-89.579,56.5-143.382h-141Z" transform="translate(-197.36 -2642.762)" fill="#fff"/>
              <path id="Path_68420" data-name="Path 68420" d="M488.246,2823.939c-7.1.608-13.9.914-20.508.914-50.548,0-84.576-17.039-122.993-48.853v179.589h141c.12-.689.255-1.365.371-2.055.112-.638.228-1.273.341-1.907A439.264,439.264,0,0,0,488.246,2823.939Z" transform="translate(-197.36 -2775.756)" fill="#f1f1f2"/>
            </g>
          </g>
        </g>
      </g>
    </g>
    <g id="Group_24012" data-name="Group 24012" transform="translate(374.305 2892.79)">
      <g id="Group_24009" data-name="Group 24009" transform="translate(0 11.609)" opacity="0.1" style="mix-blend-mode: multiply;isolation: isolate">
        <path id="Path_68421" data-name="Path 68421" d="M398.7,2917.61c-25.287-23.685-41.017-34.946-62.176-47.7l-17.661,16.113c29.466,21.364,53.933,52.215,85.671,96.193,26.553-50.157,69.69-122.3,114.553-157.413l-17.39-22.659C458.206,2836.179,417.049,2886.046,398.7,2917.61Z" transform="translate(-318.864 -2802.144)" fill="#f88047"/>
        <path id="Path_68422" data-name="Path 68422" d="M403.173,2956.88c-29.745-41.219-51.743-67.337-78.818-88.493l-5.491,5.016c29.466,21.364,53.933,52.215,85.671,96.193,26.553-50.157,69.69-122.3,114.553-157.413l-4.334-5.641C471.463,2842.779,428.878,2908.336,403.173,2956.88Z" transform="translate(-318.864 -2789.524)" fill="#f88047" opacity="0.18"/>
      </g>
      <g id="Group_24011" data-name="Group 24011">
        <g id="Group_24010" data-name="Group 24010">
          <path id="Path_68423" data-name="Path 68423" d="M398.7,2914.609c-25.287-23.685-41.017-34.946-62.176-47.7l-17.661,16.113c29.466,21.364,53.933,52.215,85.671,96.193,26.553-50.157,69.69-122.3,114.553-157.413l-17.39-22.659C458.206,2833.179,417.049,2883.045,398.7,2914.609Z" transform="translate(-318.864 -2799.143)" fill="#f88047"/>
          <path id="Path_68424" data-name="Path 68424" d="M403.173,2953.879c-29.745-41.217-51.743-67.337-78.818-88.492l-5.491,5.015c29.466,21.364,53.933,52.215,85.671,96.193,26.553-50.157,69.69-122.3,114.553-157.413l-4.334-5.641C471.463,2839.78,428.878,2905.335,403.173,2953.879Z" transform="translate(-318.864 -2786.523)" fill="#f88047" opacity="0.18"/>
        </g>
      </g>
    </g>
  </g>
</svg>
