<svg xmlns="http://www.w3.org/2000/svg" xmlns:xlink="http://www.w3.org/1999/xlink" width="287.667" height="376.683" viewBox="0 0 287.667 376.683">
  <defs>
    <clipPath id="clip-path">
      <rect id="Rectangle_2393" data-name="Rectangle 2393" width="64.308" height="72.622" fill="none"/>
    </clipPath>
    <linearGradient id="linear-gradient" x1="-0.598" y1="1.926" x2="1.462" y2="-0.87" gradientUnits="objectBoundingBox">
      <stop offset="0" stop-color="#006537"/>
      <stop offset="0.33" stop-color="#008a40"/>
      <stop offset="0.66" stop-color="#36ac47"/>
      <stop offset="1" stop-color="#9ac341"/>
    </linearGradient>
    <linearGradient id="linear-gradient-2" x1="-0.064" y1="0.954" x2="0.999" y2="0" xlink:href="#linear-gradient"/>
    <linearGradient id="linear-gradient-3" y1="0.5" x2="2.335" y2="0.5" gradientUnits="objectBoundingBox">
      <stop offset="0" stop-color="#33994b"/>
      <stop offset="0.34" stop-color="#6fb64d"/>
      <stop offset="1" stop-color="#a3c851"/>
    </linearGradient>
    <linearGradient id="linear-gradient-4" x1="-1" y1="0.5" x2="1" y2="0.5" xlink:href="#linear-gradient-3"/>
    <linearGradient id="linear-gradient-5" x1="-3.44" y1="0.5" x2="5.44" y2="0.5" xlink:href="#linear-gradient-3"/>
    <linearGradient id="linear-gradient-6" x1="-2.646" y1="0.5" x2="2.645" y2="0.5" xlink:href="#linear-gradient-3"/>
    <linearGradient id="linear-gradient-7" x1="-4996.762" y1="1.291" x2="-4996.762" gradientUnits="objectBoundingBox">
      <stop offset="0" stop-color="#026839"/>
      <stop offset="0.379" stop-color="#33994b"/>
      <stop offset="1" stop-color="#6fb64d"/>
    </linearGradient>
    <linearGradient id="linear-gradient-8" x1="-26955.67" y1="11.677" x2="-26955.67" y2="-5.968" xlink:href="#linear-gradient-7"/>
    <linearGradient id="linear-gradient-9" x1="-6103.06" y1="1.576" x2="-6103.06" y2="0" xlink:href="#linear-gradient-7"/>
    <linearGradient id="linear-gradient-10" x1="0" y1="0.5" x2="2" y2="0.5" xlink:href="#linear-gradient-3"/>
    <linearGradient id="linear-gradient-11" x1="-3871.584" y1="1" x2="-3871.584" y2="0" xlink:href="#linear-gradient-7"/>
  </defs>
  <g id="Group_11427" data-name="Group 11427" transform="translate(-1011.57 -3396.324)">
    <g id="Group_11383" data-name="Group 11383" transform="translate(1011.57 3396.324)">
      <g id="Group_11377" data-name="Group 11377" transform="translate(0 9.548)" style="mix-blend-mode: multiply;isolation: isolate">
        <path id="Path_18237" data-name="Path 18237" d="M1056.795,3399.324h-.032V3749.4l.032.016,33.749-14.471,1.76-.752,48.844-20.936c22.387-31.215,37.622-65.657,47.03-100.752l.023-.092c15.681-58.36,15.334-118.582,5.391-168.989C1128.678,3454.756,1099.035,3437.445,1056.795,3399.324Z" transform="translate(-912.93 -3399.324)" fill="#e6e7e8"/>
        <path id="Path_18238" data-name="Path 18238" d="M1018.572,3443.422c-15.919,80.73-7.208,186.646,52.444,269.83l84.362,36.152.025-.007v-350.07l-.025,0C1113.131,3437.445,1083.485,3454.759,1018.572,3443.422Z" transform="translate(-1011.57 -3399.324)" fill="#e6e7e8"/>
        <path id="Path_18239" data-name="Path 18239" d="M1020.315,3455.163c7.635,44.244,23.233,83.885,46.47,117.929l69.511,29.78.019-.007.026.007.006,0V3455.163Z" transform="translate(-992.483 -3277.448)" fill="#e6e7e8"/>
        <path id="Path_18240" data-name="Path 18240" d="M1139.908,3408.752l-.032.025c-26.906,22.352-56.826,40.151-101.182,40.151-5.436,0-11.034-.247-16.874-.751a361.3,361.3,0,0,0,1.47,105.023c.1.522.188,1.045.28,1.563.1.57.207,1.131.305,1.7h116.032Z" transform="translate(-996.044 -3378.747)" fill="#e6e7e8"/>
        <path id="Path_18241" data-name="Path 18241" d="M1056.773,3602.869l69.5-29.777c23.246-34.044,38.838-73.681,46.47-117.929H1056.773Z" transform="translate(-912.909 -3277.448)" fill="#e6e7e8"/>
        <path id="Path_18242" data-name="Path 18242" d="M1174.8,3448.243c-5.837.5-11.432.751-16.868.751-41.575,0-69.56-14.01-101.157-40.178v147.71h115.969c.1-.567.21-1.124.305-1.693.093-.522.188-1.045.28-1.569A361.3,361.3,0,0,0,1174.8,3448.243Z" transform="translate(-912.909 -3378.607)" fill="#e6e7e8"/>
      </g>
      <g id="Group_11382" data-name="Group 11382">
        <g id="Group_11381" data-name="Group 11381">
          <g id="Group_11380" data-name="Group 11380">
            <g id="Group_11378" data-name="Group 11378">
              <path id="Path_18243" data-name="Path 18243" d="M1056.795,3396.324h-.032V3746.4l.032.016,33.749-14.471,1.76-.752,48.844-20.936c22.387-31.215,37.622-65.657,47.03-100.752l.023-.092c15.681-58.36,15.334-118.582,5.391-168.989C1128.678,3451.756,1099.035,3434.445,1056.795,3396.324Z" transform="translate(-912.93 -3396.324)" fill="#14475f"/>
              <path id="Path_18244" data-name="Path 18244" d="M1018.572,3440.422c-15.919,80.73-7.208,186.646,52.444,269.83l84.362,36.152.025-.007v-350.07l-.025,0C1113.131,3434.445,1083.485,3451.759,1018.572,3440.422Z" transform="translate(-1011.57 -3396.324)" fill="#14475f"/>
            </g>
            <g id="Group_11379" data-name="Group 11379" transform="translate(22.639 30.006)">
              <path id="Path_18245" data-name="Path 18245" d="M1020.315,3452.163c7.635,44.244,23.233,83.885,46.47,117.929l69.511,29.78.019-.007.026.007.006,0V3452.163Z" transform="translate(-1015.122 -3304.454)" fill="#f1f1f2"/>
              <path id="Path_18246" data-name="Path 18246" d="M1139.908,3405.752l-.032.025c-26.906,22.352-56.826,40.151-101.182,40.151-5.436,0-11.034-.247-16.874-.751a361.3,361.3,0,0,0,1.47,105.023c.1.522.188,1.045.28,1.563.1.57.207,1.131.305,1.7h116.032Z" transform="translate(-1018.683 -3405.752)" fill="#fff"/>
              <path id="Path_18247" data-name="Path 18247" d="M1056.773,3599.869l69.5-29.777c23.246-34.044,38.838-73.681,46.47-117.929H1056.773Z" transform="translate(-935.548 -3304.454)" fill="#fff"/>
              <path id="Path_18248" data-name="Path 18248" d="M1174.8,3445.243c-5.837.5-11.432.751-16.868.751-41.575,0-69.56-14.01-101.157-40.178v147.709h115.969c.1-.566.21-1.123.305-1.692.093-.522.188-1.045.28-1.569A361.3,361.3,0,0,0,1174.8,3445.243Z" transform="translate(-935.548 -3405.612)" fill="#f1f1f2"/>
            </g>
          </g>
        </g>
      </g>
    </g>
    <g id="Group_11412" data-name="Group 11412" transform="translate(1106.084 3489.419)">
      <g id="Group_11386" data-name="Group 11386" transform="translate(0 9.548)" style="mix-blend-mode: multiply;isolation: isolate">
        <path id="Path_18250" data-name="Path 18250" d="M1138.872,3433.835a8.628,8.628,0,0,0-3.094-3.26v-.006a9.577,9.577,0,0,0-1.028-.531h0c-1.054-.468-6.935-.723-8.161-.723h-76.72a8.556,8.556,0,0,0-3.441.716,9,9,0,0,0-1.028.544c-.038.014-.067.039-.1.055a8.661,8.661,0,0,0-3,3.215,1.5,1.5,0,0,0-.095.178,8.537,8.537,0,0,0-.936,3.9v160.313a8.366,8.366,0,0,0,.108,1.358c.022.146.051.292.08.437l.057.241a6.949,6.949,0,0,0,.207.726c.029.076.051.156.083.232s.057.159.092.235a3.3,3.3,0,0,0,.146.341c.051.111.1.22.163.334.086.168.181.344.28.51a9.122,9.122,0,0,0,1.037,1.4c.13.141.264.277.4.411.108.1.213.2.328.293.216.188.442.362.672.528l.009.012.363.236a8.893,8.893,0,0,0,1.13.6,8.493,8.493,0,0,0,3.441.719H1131.3a8.511,8.511,0,0,0,4.475-1.261,8.6,8.6,0,0,0,4.128-7.348V3437.921a8.532,8.532,0,0,0-1.028-4.076Z" transform="translate(-1041.266 -3426.958)" fill="#e6e7e8"/>
        <path id="Path_18251" data-name="Path 18251" d="M1138.872,3433.242a8.618,8.618,0,0,0-3.094-3.259v-.007a9.577,9.577,0,0,0-1.028-.531h0c-1.054-.468-6.935-.723-8.161-.723h-76.72a8.54,8.54,0,0,0-3.441.717,8.7,8.7,0,0,0-1.028.544.609.609,0,0,0-.1.058,8.643,8.643,0,0,0-3,3.211,2.013,2.013,0,0,0-.095.178,8.55,8.55,0,0,0-.936,3.9v160.31a8.343,8.343,0,0,0,.108,1.359c.022.146.051.292.08.438l.057.238a6.949,6.949,0,0,0,.207.726c.029.076.051.156.083.232s.057.159.092.235a3.046,3.046,0,0,0,.146.341c.051.112.1.223.163.334.086.169.181.345.28.51a9.083,9.083,0,0,0,1.037,1.4c.13.143.264.279.4.41.108.1.213.2.328.293.216.188.442.362.672.528l.009.013c.125.083.245.162.363.236a8.782,8.782,0,0,0,1.13.6,8.54,8.54,0,0,0,3.441.716H1131.3a8.533,8.533,0,0,0,4.475-1.26,8.6,8.6,0,0,0,4.128-7.346V3437.332a8.558,8.558,0,0,0-1.028-4.08Z" transform="translate(-1041.266 -3428.252)" fill="#e6e7e8"/>
        <path id="Path_18252" data-name="Path 18252" d="M1138.872,3433.094a8.618,8.618,0,0,0-3.094-3.259v-.007a9.577,9.577,0,0,0-1.028-.531h0c-1.054-.468-6.935-.723-8.161-.723h-76.72a8.54,8.54,0,0,0-3.441.717,8.7,8.7,0,0,0-1.028.544.68.68,0,0,0-.1.057,8.631,8.631,0,0,0-3,3.212,1.58,1.58,0,0,0-.095.178,8.532,8.532,0,0,0-.936,3.9v160.312a8.361,8.361,0,0,0,.108,1.359c.022.146.051.293.08.439l.057.238a6.949,6.949,0,0,0,.207.726c.029.076.051.155.083.232s.057.159.092.235a3.126,3.126,0,0,0,.146.341c.051.111.1.22.163.334.086.169.181.344.28.51a9.178,9.178,0,0,0,1.037,1.4c.13.14.264.276.4.41.108.1.213.2.328.293.216.188.442.362.672.528l.009.012c.125.08.245.163.363.236a8.764,8.764,0,0,0,1.13.6,8.493,8.493,0,0,0,3.441.72H1131.3a8.487,8.487,0,0,0,3.447-.723,8.386,8.386,0,0,0,1.028-.538,8.6,8.6,0,0,0,4.128-7.349V3437.181a8.541,8.541,0,0,0-1.028-4.077Z" transform="translate(-1041.266 -3428.575)" fill="#e6e7e8"/>
        <rect id="Rectangle_2382" data-name="Rectangle 2382" width="92.11" height="141.595" transform="translate(3.265 15.139)" fill="#e6e7e8"/>
        <rect id="Rectangle_2383" data-name="Rectangle 2383" width="5.159" height="141.607" transform="translate(93.481 15.139)" fill="#e6e7e8" opacity="0.28"/>
        <rect id="Rectangle_2384" data-name="Rectangle 2384" width="3.096" height="141.607" transform="translate(94.512 15.139)" fill="#e6e7e8" opacity="0.28"/>
        <path id="Path_18253" data-name="Path 18253" d="M1070.639,3497.9a8.13,8.13,0,0,0,1.031-.538,8.683,8.683,0,0,0,1.547-1.215l.054-.058c.207-.207.4-.424.589-.649l.083-.1c.073-.092.15-.178.219-.273a8.113,8.113,0,0,0,.608-.964,8.578,8.578,0,0,0,1.028-4.08v-12.2h-5.159Z" transform="translate(-977.158 -3321.087)" fill="#e6e7e8" opacity="0.14"/>
        <path id="Path_18254" data-name="Path 18254" d="M1074.77,3432.608l-.006-.01a8.594,8.594,0,0,0-3.094-3.259l0-.007a9.312,9.312,0,0,0-1.028-.531v14.417h5.159v-6.533a8.458,8.458,0,0,0-.449-2.734A8.287,8.287,0,0,0,1074.77,3432.608Z" transform="translate(-977.158 -3428.079)" fill="#e6e7e8" opacity="0.14"/>
        <path id="Path_18255" data-name="Path 18255" d="M1070.966,3428.972l0,0v13.886h3.094v-10.62A8.652,8.652,0,0,0,1070.966,3428.972Z" transform="translate(-976.451 -3427.715)" fill="#e6e7e8" opacity="0.14"/>
        <path id="Path_18256" data-name="Path 18256" d="M1070.963,3497.37a8.649,8.649,0,0,0,3.1-3.266v-16.282h-3.1Z" transform="translate(-976.451 -3321.087)" fill="#e6e7e8" opacity="0.14"/>
        <rect id="Rectangle_2385" data-name="Rectangle 2385" width="5.16" height="141.595" transform="translate(0 15.139)" fill="#e6e7e8" opacity="0.28"/>
        <rect id="Rectangle_2386" data-name="Rectangle 2386" width="3.096" height="141.594" transform="translate(1.033 15.139)" fill="#e6e7e8" opacity="0.28"/>
        <path id="Path_18257" data-name="Path 18257" d="M1041.267,3490a8.792,8.792,0,0,0,.108,1.359c.022.146.048.293.08.439.019.079.032.158.057.238.058.245.127.49.207.726.029.076.051.155.086.232s.057.159.089.235a2.577,2.577,0,0,0,.146.341c.051.111.1.22.159.334.028.061.063.121.1.185l0,.01.007.009a3.186,3.186,0,0,0,.175.3l0,.01c.076.12.153.248.232.369s.165.238.248.355.175.232.271.345.188.223.286.331l.2.206a1.813,1.813,0,0,0,.21.2c.1.1.21.2.318.293s.223.188.334.276.232.173.347.252l.01.012c.121.08.239.163.363.236a.571.571,0,0,0,.092.066,7.368,7.368,0,0,0,1.034.538v-20.082h-5.159Z" transform="translate(-1041.266 -3321.087)" fill="#e6e7e8" opacity="0.14"/>
        <path id="Path_18258" data-name="Path 18258" d="M1045.3,3429.4a8.638,8.638,0,0,0-3,3.212c-.035.054-.063.111-.1.178a8.131,8.131,0,0,0-.484,1.165,8.471,8.471,0,0,0-.449,2.734v6.533h5.159V3428.8a9.049,9.049,0,0,0-1.034.544A.575.575,0,0,0,1045.3,3429.4Z" transform="translate(-1041.266 -3428.084)" fill="#e6e7e8" opacity="0.14"/>
        <path id="Path_18259" data-name="Path 18259" d="M1041.591,3432.239v10.613h3.1V3428.97c-.035.02-.067.038-.1.058A8.611,8.611,0,0,0,1041.591,3432.239Z" transform="translate(-1040.559 -3427.713)" fill="#e6e7e8" opacity="0.14"/>
        <path id="Path_18260" data-name="Path 18260" d="M1041.591,3494.1a8.649,8.649,0,0,0,3.1,3.266v-19.548h-3.1Z" transform="translate(-1040.559 -3321.087)" fill="#e6e7e8" opacity="0.14"/>
        <path id="Path_18261" data-name="Path 18261" d="M1064.569,3479.3h-6.149a4,4,0,0,0-4,4v3.319a4,4,0,0,0,4,4h6.149a4.007,4.007,0,0,0,4-4V3483.3A4.006,4.006,0,0,0,1064.569,3479.3Zm2.584,7.32a2.587,2.587,0,0,1-2.584,2.585h-6.149a2.587,2.587,0,0,1-2.584-2.585V3483.3a2.586,2.586,0,0,1,2.584-2.584h6.149a2.586,2.586,0,0,1,2.584,2.584Z" transform="translate(-1012.551 -3317.854)" fill="#e6e7e8" opacity="0.25"/>
        <rect id="Rectangle_2387" data-name="Rectangle 2387" width="23.051" height="3.096" rx="0.324" transform="translate(37.623 6.022)" fill="#e6e7e8" opacity="0.25"/>
        <path id="Path_18262" data-name="Path 18262" d="M1067.709,3431.232a1.3,1.3,0,1,1-1.3,1.3,1.3,1.3,0,0,1,1.3-1.3m0-.983a2.287,2.287,0,1,0,2.288,2.285,2.283,2.283,0,0,0-2.288-2.285Z" transform="translate(-988.541 -3424.921)" fill="#e6e7e8"/>
        <path id="Path_18263" data-name="Path 18263" d="M1065.6,3440.625a.534.534,0,0,0,.926.362h.92a.364.364,0,1,0,0-.729h-.92a.5.5,0,0,0-.541-.146l-.8-1.058a.186.186,0,0,0-.258-.034.181.181,0,0,0-.035.254l.792,1.054A.543.543,0,0,0,1065.6,3440.625Z" transform="translate(-989.764 -3405.855)" fill="#e6e7e8"/>
        <path id="Path_18264" data-name="Path 18264" d="M1067.026,3438.414a3.241,3.241,0,0,0-2.578,1.27l.372.286a2.785,2.785,0,1,1,2.206,4.484,2.723,2.723,0,0,1-.85-.134l-.143.448a3.255,3.255,0,1,0,.993-6.354Z" transform="translate(-990.671 -3407.103)" fill="#e6e7e8"/>
        <path id="Path_18265" data-name="Path 18265" d="M1058.834,3441.273l-5.223-3.018-.417-.238-.417.238-5.223,3.018-.417.238v7l.417.238,5.223,3.017.417.239.417-.239,5.223-3.017.417-.238v-7Zm.1.875v6.171l-.395.229-4.952,2.858-.395.226-.395-.226-4.949-2.858-.395-.229v-6.626l.395-.229,4.949-2.858.395-.226.395.226,4.952,2.858.395.229Z" transform="translate(-1028.452 -3407.964)" fill="#e6e7e8"/>
        <path id="Path_18266" data-name="Path 18266" d="M1047.485,3439.477v5.02l2.688-1.552Z" transform="translate(-1027.693 -3404.777)" fill="#e6e7e8"/>
        <path id="Path_18267" data-name="Path 18267" d="M1052.44,3444.5v-5.02l-2.687,3.468Z" transform="translate(-1022.746 -3404.777)" fill="#e6e7e8"/>
        <path id="Path_18268" data-name="Path 18268" d="M1049.183,3442.994l-.092.118v1.784l4.635-2.677-2.725-1.573Z" transform="translate(-1024.19 -3402.227)" fill="#e6e7e8"/>
        <path id="Path_18269" data-name="Path 18269" d="M1047.486,3439.316Z" transform="translate(-1027.693 -3405.131)" fill="#e6e7e8"/>
        <path id="Path_18270" data-name="Path 18270" d="M1048.472,3440.589l.017.022,1.793,2.313-1.115-1.438Z" transform="translate(-1025.539 -3402.352)" fill="#e6e7e8"/>
        <path id="Path_18271" data-name="Path 18271" d="M1050.26,3440.646l-2.724,1.573,4.635,2.677v-1.784l-.092-.118Z" transform="translate(-1027.585 -3402.227)" fill="#e6e7e8"/>
        <path id="Path_18272" data-name="Path 18272" d="M1053.371,3438.358l-.395-.226-.395.226-4.949,2.858-.395.229v6.626l.395.229,4.949,2.858.395.226.395-.226,4.952-2.858.395-.229v-6.626l-.395-.229Zm4.873,3.542v5.9l-.159.093-4.949,2.857-.159.093-.156-.093-4.952-2.857-.159-.093v-6.078l.159-.093,4.952-2.858.156-.092.159.092,4.949,2.858.159.093Z" transform="translate(-1028.234 -3407.716)" fill="#e6e7e8"/>
        <path id="Path_18273" data-name="Path 18273" d="M1049.745,3443.139l2.963-3.823-3.079,3.974Z" transform="translate(-1023.014 -3405.131)" fill="#e6e7e8"/>
        <path id="Path_18274" data-name="Path 18274" d="M1056.839,3441.088l-4.625-2.67-4.625,2.67,4.625,2.358Z" transform="translate(-1027.47 -3407.092)" fill="#e6e7e8"/>
        <path id="Path_18275" data-name="Path 18275" d="M1052.812,3438.4l-.159-.092-.156.092-4.952,2.858-.159.093v6.078l.159.093,4.952,2.857.156.093.159-.093,4.949-2.857.159-.093v-6.078l-.159-.093Zm-.159.273,4.624,2.671-4.624,2.358-4.624-2.358Zm-.156,11.343-4.637-2.676,2.724-1.575,1.821,2.349.092.117Zm-4.793-2.95v-5.019l2.686,3.466Zm5.108,2.95v-1.785l.093-.117,1.817-2.349,2.724,1.575Zm4.793-2.95-2.689-1.553,2.689-3.466Zm-2.963-1.711-.118.152-1.871,2.412h0l-1.792-2.313-.019-.022-3.138-4.052h0l4.24,2.161.71.362,4.952-2.523Z" transform="translate(-1027.911 -3407.343)" fill="#e6e7e8"/>
        <path id="Path_18276" data-name="Path 18276" d="M1051.725,3441.477l-4.24-2.161h0Z" transform="translate(-1027.693 -3405.131)" fill="#e6e7e8"/>
        <path id="Path_18277" data-name="Path 18277" d="M1051.725,3441.477l-4.24-2.161h0Z" transform="translate(-1027.693 -3405.131)" fill="#e6e7e8"/>
        <path id="Path_18278" data-name="Path 18278" d="M1049.041,3441.838v3.866l1.793-2.313.079-.1,3.079-3.974-4.951,2.522Z" transform="translate(-1024.298 -3405.131)" fill="#e6e7e8"/>
        <path id="Path_18279" data-name="Path 18279" d="M1049.041,3441.838v3.866l1.793-2.313.079-.1,3.079-3.974-4.951,2.522Z" transform="translate(-1024.298 -3405.131)" fill="#e6e7e8"/>
        <path id="Path_18280" data-name="Path 18280" d="M1048.691,3440.871l1.115,1.438h0Z" transform="translate(-1025.063 -3401.736)" fill="#e6e7e8"/>
        <path id="Path_18281" data-name="Path 18281" d="M1048.691,3440.871l1.115,1.438h0Z" transform="translate(-1025.063 -3401.736)" fill="#e6e7e8"/>
        <path id="Path_18282" data-name="Path 18282" d="M1049.041,3441.323Z" transform="translate(-1024.298 -3400.75)" fill="#e6e7e8"/>
        <path id="Path_18283" data-name="Path 18283" d="M1049.041,3441.323Z" transform="translate(-1024.298 -3400.75)" fill="#e6e7e8"/>
        <path id="Path_18284" data-name="Path 18284" d="M1049.041,3442.979h0l1.872-2.415-.079.1Z" transform="translate(-1024.298 -3402.406)" fill="#e6e7e8"/>
        <path id="Path_18285" data-name="Path 18285" d="M1049.041,3442.979h0l1.872-2.415-.079.1Z" transform="translate(-1024.298 -3402.406)" fill="#e6e7e8"/>
        <path id="Path_18286" data-name="Path 18286" d="M1047.485,3439.316h0l2.963,3.823.178.229.7.9Z" transform="translate(-1027.693 -3405.131)" fill="#e6e7e8"/>
        <path id="Path_18287" data-name="Path 18287" d="M1047.485,3439.316h0l2.963,3.823.178.229.7.9Z" transform="translate(-1027.693 -3405.131)" fill="#e6e7e8"/>
        <path id="Path_18288" data-name="Path 18288" d="M1049.529,3440.356l-.711-.361.711.361Z" transform="translate(-1024.786 -3403.65)" fill="#e6e7e8"/>
        <path id="Path_18289" data-name="Path 18289" d="M1049.529,3440.356l-.711-.361.711.361Z" transform="translate(-1024.786 -3403.65)" fill="#e6e7e8"/>
        <path id="Path_18290" data-name="Path 18290" d="M1047.485,3439.316h0l3.141,4.053-.178-.229Z" transform="translate(-1027.693 -3405.131)" fill="#e6e7e8"/>
        <path id="Path_18291" data-name="Path 18291" d="M1047.485,3439.316h0l3.141,4.053-.178-.229Z" transform="translate(-1027.693 -3405.131)" fill="#e6e7e8"/>
        <path id="Path_18292" data-name="Path 18292" d="M1049.041,3441.323Z" transform="translate(-1024.298 -3400.75)" fill="#e6e7e8"/>
        <path id="Path_18293" data-name="Path 18293" d="M1049.041,3441.323Z" transform="translate(-1024.298 -3400.75)" fill="#e6e7e8"/>
        <path id="Path_18294" data-name="Path 18294" d="M1051.322,3444.266l1.115,1.438h0v-3.866h0l-.711-.361-4.24-2.161Z" transform="translate(-1027.693 -3405.131)" fill="#e6e7e8"/>
        <path id="Path_18295" data-name="Path 18295" d="M1051.322,3444.266l1.115,1.438h0v-3.866h0l-.711-.361-4.24-2.161Z" transform="translate(-1027.693 -3405.131)" fill="#e6e7e8"/>
        <path id="Path_18296" data-name="Path 18296" d="M1051.322,3444.266l1.115,1.438h0v-3.866h0l-.711-.361-4.24-2.161Z" transform="translate(-1027.693 -3405.131)" fill="#e6e7e8"/>
        <rect id="Rectangle_2388" data-name="Rectangle 2388" transform="translate(24.743 40.573)" fill="#e6e7e8"/>
        <rect id="Rectangle_2389" data-name="Rectangle 2389" transform="translate(24.743 40.573)" fill="#e6e7e8"/>
        <rect id="Rectangle_2390" data-name="Rectangle 2390" transform="translate(24.743 40.573)" fill="#e6e7e8"/>
        <path id="Path_18297" data-name="Path 18297" d="M1054.258,3442.438h1.886v-1.075h-1.886v-.793h2v-1.119h-3.375v4.961h3.493v-1.128h-2.114Z" transform="translate(-1015.921 -3404.837)" fill="#e6e7e8"/>
        <path id="Path_18298" data-name="Path 18298" d="M1057.862,3441.86a1.8,1.8,0,0,0,.086-1.594,1.291,1.291,0,0,0-.407-.479,1.724,1.724,0,0,0-.608-.257,3.244,3.244,0,0,0-.745-.08h-1.993v4.959h1.394v-1.76h.324l.917,1.76h1.559l-1.162-2.024A1.363,1.363,0,0,0,1057.862,3441.86Zm-1.235-.551a.456.456,0,0,1-.143.166.551.551,0,0,1-.2.089.876.876,0,0,1-.226.025h-.468v-1.021h.474a.967.967,0,0,1,.436.093.382.382,0,0,1,.181.375A.614.614,0,0,1,1056.626,3441.309Z" transform="translate(-1013.049 -3404.836)" fill="#e6e7e8"/>
        <rect id="Rectangle_2391" data-name="Rectangle 2391" width="1.413" height="4.96" transform="translate(45.612 34.613)" fill="#e6e7e8"/>
        <path id="Path_18299" data-name="Path 18299" d="M1060.012,3439.982a2.458,2.458,0,0,0-.885-.41,4.5,4.5,0,0,0-1.041-.121h-1.846v4.959h1.887a3.655,3.655,0,0,0,1.018-.144,2.614,2.614,0,0,0,.878-.448,2.245,2.245,0,0,0,.608-.776,2.553,2.553,0,0,0,.229-1.124,2.684,2.684,0,0,0-.232-1.178A2.12,2.12,0,0,0,1060.012,3439.982Zm-.748,2.553a1.109,1.109,0,0,1-.3.414,1.137,1.137,0,0,1-.433.227,2.176,2.176,0,0,1-.525.063h-.353V3440.6h.378a1.972,1.972,0,0,1,.519.066,1.09,1.09,0,0,1,.426.217,1.025,1.025,0,0,1,.287.395,1.592,1.592,0,0,1,.1.617A1.616,1.616,0,0,1,1059.263,3442.535Z" transform="translate(-1008.586 -3404.836)" fill="#e6e7e8"/>
        <path id="Path_18300" data-name="Path 18300" d="M1053.722,3442.481l-1.1-3.032h-1.415l1.8,4.97h1.415l1.829-4.97h-1.415Z" transform="translate(-1019.567 -3404.842)" fill="#e6e7e8"/>
        <path id="Path_18301" data-name="Path 18301" d="M1060.432,3439.41a2.607,2.607,0,1,0,2.606,2.607A2.607,2.607,0,0,0,1060.432,3439.41Zm-.007,3.887a1.278,1.278,0,1,1,1.276-1.279A1.28,1.28,0,0,1,1060.426,3443.3Z" transform="translate(-1005.124 -3404.926)" fill="#e6e7e8"/>
        <path id="Path_18302" data-name="Path 18302" d="M1062.19,3443.3a1.278,1.278,0,1,1,.006-2.557,1.291,1.291,0,0,1,1.175.755l1.282-.337a2.6,2.6,0,1,0-.009,1.75l-1.286-.337A1.308,1.308,0,0,1,1062.19,3443.3Z" transform="translate(-1001.28 -3404.926)" fill="#e6e7e8"/>
        <text id="HR" transform="translate(64.307 38.162)" fill="#e6e7e8" font-size="6" font-family="Roboto-BlackItalic, Roboto" font-weight="800" font-style="italic"><tspan x="0" y="0">HR</tspan></text>
        <g id="Group_11385" data-name="Group 11385" transform="translate(16.994 56.984)">
          <g id="Group_11384" data-name="Group 11384" clip-path="url(#clip-path)">
            <rect id="Rectangle_2392" data-name="Rectangle 2392" width="64.308" height="91.366" fill="#e6e7e8"/>
            <path id="Path_18303" data-name="Path 18303" d="M1071.425,3460.628h-15.436a10.038,10.038,0,0,1,.185,2.261,13.254,13.254,0,0,1-2.664,7H1073.9c-1.566-2.625-2.511-4.713-2.619-7.04A10.507,10.507,0,0,1,1071.425,3460.628Z" transform="translate(-1031.539 -3415.596)" fill="#e6e7e8"/>
            <path id="Path_18304" data-name="Path 18304" d="M1071.941,3463.408l-15.235,37.488h32.164l-1.98-24.188C1086.89,3470.928,1081.158,3466.043,1071.941,3463.408Z" transform="translate(-1024.563 -3409.531)" fill="#e6e7e8"/>
            <path id="Path_18305" data-name="Path 18305" d="M1062.141,3464.242h-.006c-1.671,1.311-3.838,2.733-5.43,2.749v36.842l.121-.286L1069.9,3472l2.285-5.506c-1.928-.557-7.511-4.469-7.511-4.469A33.527,33.527,0,0,1,1062.141,3464.242Z" transform="translate(-1024.565 -3412.54)" fill="#e6e7e8"/>
            <path id="Path_18306" data-name="Path 18306" d="M1056.706,3466.987v36.85l15.477-37.339c-1.932-.551-7.511-4.469-7.511-4.469S1059.678,3466.958,1056.706,3466.987Z" transform="translate(-1024.563 -3412.54)" fill="#e6e7e8"/>
            <path id="Path_18307" data-name="Path 18307" d="M1048.589,3476.708l-1.983,24.188h32.17l-15.238-37.488C1054.321,3466.043,1048.589,3470.928,1048.589,3476.708Z" transform="translate(-1046.607 -3409.531)" fill="#e6e7e8"/>
            <path id="Path_18308" data-name="Path 18308" d="M1051.851,3466.5l15.477,37.339v-36.85c-2.976-.028-7.969-4.958-7.969-4.958S1053.78,3465.947,1051.851,3466.5Z" transform="translate(-1035.16 -3412.54)" fill="#e6e7e8"/>
            <path id="Path_18309" data-name="Path 18309" d="M1062.136,3462.724l-5.432,1.962v37.3l.046.043h.075l13.075-31.545-7.761-7.761Z" transform="translate(-1024.566 -3411.023)" fill="#e6e7e8" opacity="0.1"/>
            <path id="Path_18310" data-name="Path 18310" d="M1056.706,3466.208v37.3l5.455-15.459-4.344-18.069,6.857-7.948Z" transform="translate(-1024.563 -3412.542)" fill="#e6e7e8"/>
            <path id="Path_18311" data-name="Path 18311" d="M1061.039,3469.977l-4.344,18.069,5.459,15.459v-37.3l-7.945-4.18Z" transform="translate(-1030.011 -3412.542)" fill="#e6e7e8"/>
            <path id="Path_18312" data-name="Path 18312" d="M1054.474,3462.889c2.177,1.985,4.764,4.066,7.533,4.066,2.791,0,5.385-2.109,7.578-4.105a10.507,10.507,0,0,1,.14-2.222h-15.436A10.038,10.038,0,0,1,1054.474,3462.889Z" transform="translate(-1029.838 -3415.596)" fill="#e6e7e8" opacity="0.07"/>
            <path id="Path_18313" data-name="Path 18313" d="M1067.409,3452.215a59.966,59.966,0,0,1-10.617-.945,24.073,24.073,0,0,0-4.523,14.552c0,10.974,6.333,19.865,14.144,19.865s14.14-8.892,14.14-19.865a24.275,24.275,0,0,0-4.306-14.265A60.051,60.051,0,0,1,1067.409,3452.215Z" transform="translate(-1034.245 -3436.023)" fill="#e6e7e8"/>
            <path id="Path_18314" data-name="Path 18314" d="M1085.435,3452.83c-1.2.133-2.371-.118-2.728,1.2-.121-2.664-8.2-4.443-14.1-2.085-4.338,1.732-7.655-4.315-12.778-2.854-4.732,1.347-7.864,9.1-2.578,15.12,1.572,1.795.41,1.376,3.062,9.908l2.161-8.765c4.577.314,9.755-.729,13.01-1.144,2.445-.308,9.7-.741,10.506-4.541l2.292,14.449C1085.581,3462.485,1090.871,3453.345,1085.435,3452.83Z" transform="translate(-1038.117 -3441.291)" fill="#e6e7e8"/>
          </g>
        </g>
      </g>
      <g id="Group_11411" data-name="Group 11411">
        <g id="Group_11409" data-name="Group 11409">
          <path id="Path_18315" data-name="Path 18315" d="M1138.872,3430.835a8.628,8.628,0,0,0-3.094-3.26v-.006a9.577,9.577,0,0,0-1.028-.531h0c-1.054-.468-6.935-.723-8.161-.723h-76.72a8.556,8.556,0,0,0-3.441.716,9,9,0,0,0-1.028.544c-.038.014-.067.039-.1.055a8.661,8.661,0,0,0-3,3.215,1.5,1.5,0,0,0-.095.178,8.534,8.534,0,0,0-.936,3.9v160.313a8.366,8.366,0,0,0,.108,1.358c.022.146.051.292.08.436l.057.242a6.949,6.949,0,0,0,.207.726c.029.076.051.156.083.232s.057.159.092.235a3.3,3.3,0,0,0,.146.341c.051.111.1.22.163.334.086.168.181.344.28.51a9.122,9.122,0,0,0,1.037,1.4c.13.141.264.277.4.411.108.1.213.2.328.292.216.188.442.363.672.529l.009.012.363.236a8.893,8.893,0,0,0,1.13.6,8.493,8.493,0,0,0,3.441.719H1131.3a8.511,8.511,0,0,0,4.475-1.261,8.6,8.6,0,0,0,4.128-7.348V3434.921a8.532,8.532,0,0,0-1.028-4.076Z" transform="translate(-1041.266 -3423.958)" fill="#0d2038"/>
          <path id="Path_18316" data-name="Path 18316" d="M1138.872,3430.242a8.618,8.618,0,0,0-3.094-3.259v-.007a9.577,9.577,0,0,0-1.028-.531h0c-1.054-.468-6.935-.723-8.161-.723h-76.72a8.54,8.54,0,0,0-3.441.717,8.7,8.7,0,0,0-1.028.544.609.609,0,0,0-.1.058,8.643,8.643,0,0,0-3,3.211,2.013,2.013,0,0,0-.095.178,8.55,8.55,0,0,0-.936,3.9v160.31a8.332,8.332,0,0,0,.108,1.358c.022.146.051.293.08.439l.057.238a6.949,6.949,0,0,0,.207.726c.029.076.051.156.083.232s.057.159.092.235a3.046,3.046,0,0,0,.146.341c.051.111.1.223.163.334.086.169.181.345.28.51a9.083,9.083,0,0,0,1.037,1.4c.13.143.264.279.4.41.108.1.213.2.328.293.216.188.442.362.672.528l.009.013c.125.083.245.162.363.235a8.668,8.668,0,0,0,1.13.6,8.54,8.54,0,0,0,3.441.716H1131.3a8.533,8.533,0,0,0,4.475-1.26,8.6,8.6,0,0,0,4.128-7.346V3434.332a8.558,8.558,0,0,0-1.028-4.08Z" transform="translate(-1041.266 -3425.252)" fill="#11313f"/>
          <path id="Path_18317" data-name="Path 18317" d="M1138.872,3430.094a8.628,8.628,0,0,0-3.094-3.26v-.006a9.577,9.577,0,0,0-1.028-.531h0c-1.054-.468-6.935-.723-8.161-.723h-76.72a8.54,8.54,0,0,0-3.441.717,8.845,8.845,0,0,0-1.028.543.686.686,0,0,0-.1.058,8.631,8.631,0,0,0-3,3.212,1.58,1.58,0,0,0-.095.178,8.532,8.532,0,0,0-.936,3.9v160.312a8.34,8.34,0,0,0,.108,1.358c.022.147.051.293.08.44l.057.238a6.949,6.949,0,0,0,.207.726c.029.076.051.155.083.232s.057.159.092.235a3.126,3.126,0,0,0,.146.341c.051.111.1.22.163.334.086.169.181.344.28.51a9.178,9.178,0,0,0,1.037,1.4c.13.14.264.276.4.41.108.1.213.2.328.293.216.188.442.362.672.528l.009.012c.125.08.245.163.363.236a8.764,8.764,0,0,0,1.13.6,8.493,8.493,0,0,0,3.441.72H1131.3a8.487,8.487,0,0,0,3.447-.723,8.386,8.386,0,0,0,1.028-.538,8.6,8.6,0,0,0,4.128-7.349V3434.181a8.541,8.541,0,0,0-1.028-4.077Z" transform="translate(-1041.266 -3425.575)" fill="#183a4c"/>
          <rect id="Rectangle_2394" data-name="Rectangle 2394" width="92.11" height="141.595" transform="translate(3.265 15.139)" fill="#fff"/>
          <g id="Group_11390" data-name="Group 11390" transform="translate(93.481 0.723)">
            <g id="Group_11388" data-name="Group 11388" transform="translate(0 14.417)">
              <rect id="Rectangle_2395" data-name="Rectangle 2395" width="5.159" height="141.607" fill="#f8fdff" opacity="0.28"/>
              <rect id="Rectangle_2396" data-name="Rectangle 2396" width="3.096" height="141.607" transform="translate(1.031)" fill="#f8fdff" opacity="0.28"/>
            </g>
            <g id="Group_11389" data-name="Group 11389" transform="translate(0)">
              <path id="Path_18318" data-name="Path 18318" d="M1070.639,3494.9a8.13,8.13,0,0,0,1.031-.538,8.683,8.683,0,0,0,1.547-1.215l.054-.058a8.628,8.628,0,0,0,.589-.65l.083-.1c.073-.092.15-.178.219-.273a8.193,8.193,0,0,0,.608-.964,8.578,8.578,0,0,0,1.028-4.08v-12.2h-5.159Z" transform="translate(-1070.639 -3318.81)" fill="#f8fdff" opacity="0.14"/>
              <path id="Path_18319" data-name="Path 18319" d="M1074.77,3429.608l-.006-.01a8.6,8.6,0,0,0-3.094-3.26l0-.006a9.312,9.312,0,0,0-1.028-.531v14.417h5.159v-6.533a8.458,8.458,0,0,0-.449-2.734A8.287,8.287,0,0,0,1074.77,3429.608Z" transform="translate(-1070.639 -3425.802)" fill="#f8fdff" opacity="0.14"/>
              <path id="Path_18320" data-name="Path 18320" d="M1070.966,3425.972l0,0v13.886h3.094v-10.62A8.652,8.652,0,0,0,1070.966,3425.972Z" transform="translate(-1069.932 -3425.437)" fill="#f8fdff" opacity="0.14"/>
              <path id="Path_18321" data-name="Path 18321" d="M1070.963,3494.37a8.656,8.656,0,0,0,3.1-3.266v-16.282h-3.1Z" transform="translate(-1069.932 -3318.81)" fill="#f8fdff" opacity="0.14"/>
            </g>
          </g>
          <g id="Group_11393" data-name="Group 11393" transform="translate(0 0.716)">
            <g id="Group_11391" data-name="Group 11391" transform="translate(0 14.423)">
              <rect id="Rectangle_2397" data-name="Rectangle 2397" width="5.16" height="141.595" fill="#f8fdff" opacity="0.28"/>
              <rect id="Rectangle_2398" data-name="Rectangle 2398" width="3.096" height="141.594" transform="translate(1.033)" fill="#f8fdff" opacity="0.28"/>
            </g>
            <g id="Group_11392" data-name="Group 11392" transform="translate(0.001)">
              <path id="Path_18322" data-name="Path 18322" d="M1041.267,3487a8.77,8.77,0,0,0,.108,1.358c.022.147.048.293.08.44.019.079.032.158.057.238.058.245.127.49.207.726.029.076.051.155.086.232s.057.159.089.235a2.577,2.577,0,0,0,.146.341c.051.111.1.22.159.334.028.061.063.121.1.185l0,.01.007.009a3.05,3.05,0,0,0,.175.3l0,.011c.076.12.153.248.232.369s.165.238.248.355.175.232.271.345.188.223.286.331l.2.206a1.813,1.813,0,0,0,.21.2c.1.1.21.2.318.293s.223.188.334.276.232.173.347.252l.01.012c.121.08.239.163.363.236a.571.571,0,0,0,.092.066,7.368,7.368,0,0,0,1.034.538v-20.082h-5.159Z" transform="translate(-1041.267 -3318.803)" fill="#f8fdff" opacity="0.14"/>
              <path id="Path_18323" data-name="Path 18323" d="M1045.3,3426.4a8.638,8.638,0,0,0-3,3.212c-.035.054-.063.111-.1.178a8.131,8.131,0,0,0-.484,1.165,8.471,8.471,0,0,0-.449,2.734v6.533h5.159V3425.8a9.2,9.2,0,0,0-1.034.543A.581.581,0,0,0,1045.3,3426.4Z" transform="translate(-1041.267 -3425.8)" fill="#f8fdff" opacity="0.14"/>
              <path id="Path_18324" data-name="Path 18324" d="M1041.591,3429.239v10.613h3.1V3425.97c-.035.02-.067.038-.1.058A8.611,8.611,0,0,0,1041.591,3429.239Z" transform="translate(-1040.56 -3425.429)" fill="#f8fdff" opacity="0.14"/>
              <path id="Path_18325" data-name="Path 18325" d="M1041.591,3491.1a8.656,8.656,0,0,0,3.1,3.266v-19.548h-3.1Z" transform="translate(-1040.56 -3318.803)" fill="#f8fdff" opacity="0.14"/>
            </g>
          </g>
          <path id="Path_18326" data-name="Path 18326" d="M1064.569,3476.3h-6.149a4,4,0,0,0-4,4v3.319a4,4,0,0,0,4,4h6.149a4.007,4.007,0,0,0,4-4V3480.3A4.006,4.006,0,0,0,1064.569,3476.3Zm2.584,7.32a2.586,2.586,0,0,1-2.584,2.584h-6.149a2.586,2.586,0,0,1-2.584-2.584V3480.3a2.586,2.586,0,0,1,2.584-2.584h6.149a2.586,2.586,0,0,1,2.584,2.584Z" transform="translate(-1012.551 -3314.854)" fill="#f8fdff" opacity="0.25"/>
          <rect id="Rectangle_2399" data-name="Rectangle 2399" width="23.051" height="3.096" rx="0.324" transform="translate(37.623 6.022)" fill="#f8fdff" opacity="0.25"/>
          <g id="Group_11394" data-name="Group 11394" transform="translate(76.884 5.328)" opacity="0.25">
            <path id="Path_18327" data-name="Path 18327" d="M1067.709,3428.232a1.3,1.3,0,1,1-1.3,1.3,1.3,1.3,0,0,1,1.3-1.3m0-.983a2.287,2.287,0,1,0,2.288,2.285,2.283,2.283,0,0,0-2.288-2.285Z" transform="translate(-1065.424 -3427.249)" fill="#f8fdff"/>
          </g>
          <g id="Group_11405" data-name="Group 11405" transform="translate(18.686 30.054)">
            <g id="Group_11395" data-name="Group 11395" transform="translate(55.092 1.257)">
              <path id="Path_18328" data-name="Path 18328" d="M1065.6,3437.625a.534.534,0,0,0,.926.362h.92a.364.364,0,1,0,0-.729h-.92a.547.547,0,0,0-.391-.172.589.589,0,0,0-.149.025l-.8-1.057a.186.186,0,0,0-.258-.034.181.181,0,0,0-.035.254l.792,1.054A.543.543,0,0,0,1065.6,3437.625Z" transform="translate(-1063.542 -3434.167)" fill="url(#linear-gradient)"/>
              <path id="Path_18329" data-name="Path 18329" d="M1067.026,3435.414a3.241,3.241,0,0,0-2.578,1.27l.372.286a2.785,2.785,0,1,1,2.206,4.484,2.723,2.723,0,0,1-.85-.134l-.143.448a3.255,3.255,0,1,0,.993-6.354Z" transform="translate(-1064.448 -3435.414)" fill="url(#linear-gradient-2)"/>
            </g>
            <g id="Group_11396" data-name="Group 11396">
              <path id="Path_18330" data-name="Path 18330" d="M1058.834,3438.273l-5.223-3.018-.417-.238-.417.238-5.223,3.018-.417.238v7l.417.238,5.223,3.017.417.239.417-.239,5.223-3.017.417-.238v-7Zm.1.875v6.171l-.395.229-4.952,2.858-.395.226-.395-.226-4.949-2.858-.395-.229v-6.626l.395-.229,4.949-2.859.395-.225.395.225,4.952,2.859.395.229Z" transform="translate(-1047.138 -3435.018)" fill="#fff"/>
              <path id="Path_18331" data-name="Path 18331" d="M1047.485,3436.477v5.02l2.688-1.552Z" transform="translate(-1046.379 -3431.831)"/>
              <path id="Path_18332" data-name="Path 18332" d="M1052.44,3441.5v-5.02l-2.687,3.468Z" transform="translate(-1041.431 -3431.831)"/>
              <path id="Path_18333" data-name="Path 18333" d="M1049.183,3439.994l-.092.118v1.784l4.635-2.677-2.725-1.573Z" transform="translate(-1042.875 -3429.281)"/>
              <path id="Path_18334" data-name="Path 18334" d="M1047.486,3436.316Z" transform="translate(-1046.379 -3432.185)"/>
              <path id="Path_18335" data-name="Path 18335" d="M1048.472,3437.589l.017.022,1.793,2.313-1.115-1.438Z" transform="translate(-1044.225 -3429.406)"/>
              <path id="Path_18336" data-name="Path 18336" d="M1050.26,3437.646l-2.724,1.573,4.635,2.677v-1.784l-.092-.118Z" transform="translate(-1046.271 -3429.281)"/>
              <path id="Path_18337" data-name="Path 18337" d="M1053.371,3435.357l-.395-.225-.395.225-4.949,2.859-.395.229v6.626l.395.229,4.949,2.858.395.226.395-.226,4.952-2.858.395-.229v-6.626l-.395-.229Zm4.873,3.543v5.9l-.159.093-4.949,2.857-.159.093-.156-.093-4.952-2.857-.159-.093v-6.079l.159-.092,4.952-2.858.156-.092.159.092,4.949,2.858.159.092Z" transform="translate(-1046.919 -3434.77)"/>
              <path id="Path_18338" data-name="Path 18338" d="M1049.745,3440.139l2.963-3.823-3.079,3.974Z" transform="translate(-1041.7 -3432.185)"/>
              <path id="Path_18339" data-name="Path 18339" d="M1056.839,3438.088l-4.625-2.67-4.625,2.67,4.625,2.358Z" transform="translate(-1046.156 -3434.146)"/>
              <path id="Path_18340" data-name="Path 18340" d="M1052.812,3435.4l-.159-.092-.156.092-4.952,2.858-.159.092v6.079l.159.093,4.952,2.857.156.093.159-.093,4.949-2.857.159-.093v-6.079l-.159-.092Zm-.159.273,4.624,2.671-4.624,2.358-4.624-2.358Zm-.156,11.343-4.637-2.676,2.724-1.575,1.821,2.349.092.117Zm-4.793-2.95v-5.019l2.686,3.466Zm5.108,2.95v-1.785l.093-.117,1.817-2.349,2.724,1.575Zm4.793-2.95-2.689-1.553,2.689-3.466Zm-2.963-1.711-.118.151-1.871,2.413h0l-1.792-2.313-.019-.022-3.138-4.052h0l4.24,2.161.71.362,4.952-2.523Z" transform="translate(-1046.597 -3434.396)" fill="#fff"/>
              <path id="Path_18341" data-name="Path 18341" d="M1051.725,3438.477l-4.24-2.161h0Z" transform="translate(-1046.379 -3432.185)"/>
              <path id="Path_18342" data-name="Path 18342" d="M1051.725,3438.477l-4.24-2.161h0Z" transform="translate(-1046.379 -3432.185)" fill="url(#linear-gradient-3)"/>
              <path id="Path_18343" data-name="Path 18343" d="M1049.041,3438.838v3.866l1.793-2.313.079-.1,3.079-3.974-4.951,2.522Z" transform="translate(-1042.984 -3432.185)"/>
              <path id="Path_18344" data-name="Path 18344" d="M1049.041,3438.838v3.866l1.793-2.313.079-.1,3.079-3.974-4.951,2.522Z" transform="translate(-1042.984 -3432.185)" fill="url(#linear-gradient-4)"/>
              <path id="Path_18345" data-name="Path 18345" d="M1048.691,3437.871l1.115,1.438h0Z" transform="translate(-1043.748 -3428.79)"/>
              <path id="Path_18346" data-name="Path 18346" d="M1048.691,3437.871l1.115,1.438h0Z" transform="translate(-1043.748 -3428.79)" fill="url(#linear-gradient-5)"/>
              <path id="Path_18347" data-name="Path 18347" d="M1049.041,3438.323Z" transform="translate(-1042.984 -3427.804)" fill="#fff"/>
              <path id="Path_18348" data-name="Path 18348" d="M1049.041,3438.323Z" transform="translate(-1042.984 -3427.804)" fill="#fff"/>
              <path id="Path_18349" data-name="Path 18349" d="M1049.041,3439.979h0l1.872-2.415-.079.1Z" transform="translate(-1042.984 -3429.46)" fill="#fff"/>
              <path id="Path_18350" data-name="Path 18350" d="M1049.041,3439.979h0l1.872-2.415-.079.1Z" transform="translate(-1042.984 -3429.46)" fill="url(#linear-gradient-6)"/>
              <path id="Path_18351" data-name="Path 18351" d="M1047.485,3436.316h0l2.963,3.823.178.229.7.9Z" transform="translate(-1046.379 -3432.185)"/>
              <path id="Path_18352" data-name="Path 18352" d="M1047.485,3436.316h0l2.963,3.823.178.229.7.9Z" transform="translate(-1046.379 -3432.185)" fill="url(#linear-gradient-7)"/>
              <path id="Path_18353" data-name="Path 18353" d="M1049.529,3437.356l-.711-.361.711.361Z" transform="translate(-1043.471 -3430.704)" fill="#fff"/>
              <path id="Path_18354" data-name="Path 18354" d="M1049.529,3437.356l-.711-.361.711.361Z" transform="translate(-1043.471 -3430.704)" fill="url(#linear-gradient-8)"/>
              <path id="Path_18355" data-name="Path 18355" d="M1047.485,3436.316h0l3.141,4.053-.178-.229Z" transform="translate(-1046.379 -3432.185)" fill="#fff"/>
              <path id="Path_18356" data-name="Path 18356" d="M1047.485,3436.316h0l3.141,4.053-.178-.229Z" transform="translate(-1046.379 -3432.185)" fill="url(#linear-gradient-9)"/>
              <path id="Path_18357" data-name="Path 18357" d="M1049.041,3438.323Z" transform="translate(-1042.984 -3427.804)" fill="#fff"/>
              <path id="Path_18358" data-name="Path 18358" d="M1049.041,3438.323Z" transform="translate(-1042.984 -3427.804)" fill="#fff"/>
              <path id="Path_18359" data-name="Path 18359" d="M1051.322,3441.266l1.115,1.438h0v-3.866h0l-.711-.361-4.24-2.161Z" transform="translate(-1046.379 -3432.185)"/>
              <path id="Path_18360" data-name="Path 18360" d="M1051.322,3441.266l1.115,1.438h0v-3.866h0l-.711-.361-4.24-2.161Z" transform="translate(-1046.379 -3432.185)" fill="url(#linear-gradient-10)"/>
              <path id="Path_18361" data-name="Path 18361" d="M1051.322,3441.266l1.115,1.438h0v-3.866h0l-.711-.361-4.24-2.161Z" transform="translate(-1046.379 -3432.185)" fill="url(#linear-gradient-11)"/>
              <rect id="Rectangle_2400" data-name="Rectangle 2400" transform="translate(6.058 10.519)" fill="#fff"/>
              <rect id="Rectangle_2401" data-name="Rectangle 2401" transform="translate(6.058 10.519)" fill="#fff"/>
              <rect id="Rectangle_2402" data-name="Rectangle 2402" transform="translate(6.058 10.519)" fill="#fff"/>
            </g>
            <g id="Group_11404" data-name="Group 11404" transform="translate(12.955 4.43)">
              <g id="Group_11397" data-name="Group 11397" transform="translate(5.318 0.13)">
                <path id="Path_18362" data-name="Path 18362" d="M1054.258,3439.438h1.886v-1.075h-1.886v-.793h2v-1.119h-3.375v4.961h3.493v-1.128h-2.114Z" transform="translate(-1052.879 -3436.451)"/>
              </g>
              <g id="Group_11398" data-name="Group 11398" transform="translate(9.505 0.131)">
                <path id="Path_18363" data-name="Path 18363" d="M1057.862,3438.86a1.8,1.8,0,0,0,.086-1.594,1.291,1.291,0,0,0-.407-.479,1.724,1.724,0,0,0-.608-.257,3.244,3.244,0,0,0-.745-.08h-1.993v4.959h1.394v-1.76h.324l.917,1.76h1.559l-1.162-2.024A1.369,1.369,0,0,0,1057.862,3438.86Zm-1.235-.551a.456.456,0,0,1-.143.166.551.551,0,0,1-.2.089.876.876,0,0,1-.226.025h-.468v-1.021h.474a.967.967,0,0,1,.436.093.381.381,0,0,1,.181.375A.617.617,0,0,1,1056.626,3438.309Z" transform="translate(-1054.195 -3436.451)"/>
              </g>
              <g id="Group_11399" data-name="Group 11399" transform="translate(13.971 0.13)">
                <rect id="Rectangle_2403" data-name="Rectangle 2403" width="1.413" height="4.96"/>
              </g>
              <g id="Group_11400" data-name="Group 11400" transform="translate(16.013 0.131)">
                <path id="Path_18364" data-name="Path 18364" d="M1060.012,3436.982a2.458,2.458,0,0,0-.885-.41,4.5,4.5,0,0,0-1.041-.121h-1.846v4.959h1.887a3.655,3.655,0,0,0,1.018-.144,2.6,2.6,0,0,0,.878-.449,2.233,2.233,0,0,0,.608-.775,2.553,2.553,0,0,0,.229-1.124,2.684,2.684,0,0,0-.232-1.178A2.12,2.12,0,0,0,1060.012,3436.982Zm-.748,2.553a1.109,1.109,0,0,1-.3.414,1.121,1.121,0,0,1-.433.226,2.128,2.128,0,0,1-.525.064h-.353V3437.6h.378a1.972,1.972,0,0,1,.519.066,1.09,1.09,0,0,1,.426.217,1.025,1.025,0,0,1,.287.395,1.592,1.592,0,0,1,.1.617A1.616,1.616,0,0,1,1059.263,3439.535Z" transform="translate(-1056.24 -3436.451)"/>
              </g>
              <g id="Group_11401" data-name="Group 11401" transform="translate(0 0.124)">
                <path id="Path_18365" data-name="Path 18365" d="M1053.722,3439.481l-1.1-3.032h-1.415l1.8,4.97h1.415l1.829-4.97h-1.415Z" transform="translate(-1051.208 -3436.449)"/>
              </g>
              <g id="Group_11402" data-name="Group 11402" transform="translate(21.061)">
                <path id="Path_18366" data-name="Path 18366" d="M1060.432,3436.41a2.607,2.607,0,1,0,2.606,2.607A2.607,2.607,0,0,0,1060.432,3436.41Zm-.007,3.887a1.278,1.278,0,1,1,1.276-1.279A1.28,1.28,0,0,1,1060.426,3440.3Z" transform="translate(-1057.826 -3436.41)"/>
              </g>
              <g id="Group_11403" data-name="Group 11403" transform="translate(26.666)">
                <path id="Path_18367" data-name="Path 18367" d="M1062.19,3440.3a1.278,1.278,0,1,1,.006-2.557,1.291,1.291,0,0,1,1.175.755l1.282-.337a2.6,2.6,0,1,0-.009,1.75l-1.286-.337A1.308,1.308,0,0,1,1062.19,3440.3Z" transform="translate(-1059.587 -3436.41)"/>
              </g>
            </g>
            <text id="HR-2" data-name="HR" transform="translate(45.621 8.108)" fill="#25984d" font-size="6" font-family="Roboto-BlackItalic, Roboto" font-weight="800" font-style="italic"><tspan x="0" y="0">HR</tspan></text>
          </g>
          <g id="Group_11408" data-name="Group 11408" transform="translate(16.994 56.984)">
            <g id="Group_11407" data-name="Group 11407" clip-path="url(#clip-path)">
              <rect id="Rectangle_2404" data-name="Rectangle 2404" width="64.308" height="91.366" fill="#f1f1f2"/>
              <g id="Group_11406" data-name="Group 11406" transform="translate(-0.002 7.566)">
                <path id="Path_18368" data-name="Path 18368" d="M1071.425,3457.628h-15.436a10.038,10.038,0,0,1,.185,2.261,13.254,13.254,0,0,1-2.664,7H1073.9c-1.566-2.625-2.511-4.713-2.619-7.04A10.507,10.507,0,0,1,1071.425,3457.628Z" transform="translate(-1031.537 -3420.162)" fill="#efc64c"/>
                <path id="Path_18369" data-name="Path 18369" d="M1071.941,3460.408l-15.235,37.488h32.164l-1.98-24.188C1086.89,3467.928,1081.158,3463.043,1071.941,3460.408Z" transform="translate(-1024.561 -3414.096)" fill="#102947"/>
                <path id="Path_18370" data-name="Path 18370" d="M1062.141,3461.242h-.006c-1.671,1.311-3.838,2.733-5.43,2.749v36.842l.121-.286L1069.9,3469l2.285-5.506c-1.928-.557-7.511-4.469-7.511-4.469A33.527,33.527,0,0,1,1062.141,3461.242Z" transform="translate(-1024.564 -3417.106)" fill="#fff"/>
                <path id="Path_18371" data-name="Path 18371" d="M1056.706,3463.987v36.85l15.477-37.339c-1.932-.551-7.511-4.469-7.511-4.469S1059.678,3463.958,1056.706,3463.987Z" transform="translate(-1024.561 -3417.106)" fill="#fff"/>
                <path id="Path_18372" data-name="Path 18372" d="M1048.589,3473.708l-1.983,24.188h32.17l-15.238-37.488C1054.321,3463.043,1048.589,3467.928,1048.589,3473.708Z" transform="translate(-1046.606 -3414.096)" fill="#102947"/>
                <path id="Path_18373" data-name="Path 18373" d="M1051.851,3463.5l15.477,37.339v-36.85c-2.976-.028-7.969-4.958-7.969-4.958S1053.78,3462.947,1051.851,3463.5Z" transform="translate(-1035.158 -3417.106)" fill="#fff"/>
                <path id="Path_18374" data-name="Path 18374" d="M1062.136,3459.724l-5.432,1.962v37.3l.046.043h.075l13.075-31.545-7.761-7.761Z" transform="translate(-1024.564 -3415.588)" fill="#231f20" opacity="0.1"/>
                <path id="Path_18375" data-name="Path 18375" d="M1056.706,3463.208v37.3l5.455-15.46-4.344-18.068,6.857-7.948Z" transform="translate(-1024.562 -3417.108)" fill="#c44500"/>
                <path id="Path_18376" data-name="Path 18376" d="M1061.039,3466.977l-4.344,18.068,5.459,15.46v-37.3l-7.945-4.18Z" transform="translate(-1030.01 -3417.108)" fill="#e85100"/>
                <path id="Path_18377" data-name="Path 18377" d="M1054.474,3459.889c2.177,1.985,4.764,4.066,7.533,4.066,2.791,0,5.385-2.109,7.578-4.105a10.507,10.507,0,0,1,.14-2.222h-15.436A10.038,10.038,0,0,1,1054.474,3459.889Z" transform="translate(-1029.837 -3420.162)" opacity="0.07"/>
                <path id="Path_18378" data-name="Path 18378" d="M1067.409,3449.215a59.966,59.966,0,0,1-10.617-.945,24.073,24.073,0,0,0-4.523,14.552c0,10.974,6.333,19.865,14.144,19.865s14.14-8.892,14.14-19.865a24.275,24.275,0,0,0-4.306-14.265A60.051,60.051,0,0,1,1067.409,3449.215Z" transform="translate(-1034.243 -3440.589)" fill="#efc64c"/>
                <path id="Path_18379" data-name="Path 18379" d="M1085.435,3449.83c-1.2.133-2.371-.118-2.728,1.2-.121-2.664-8.2-4.443-14.1-2.085-4.338,1.732-7.655-4.315-12.778-2.854-4.732,1.347-7.864,9.1-2.578,15.12,1.572,1.795.41,1.376,3.062,9.908l2.161-8.765c4.577.314,9.755-.729,13.01-1.144,2.445-.308,9.7-.741,10.506-4.541l2.292,14.449C1085.581,3459.485,1090.871,3450.345,1085.435,3449.83Z" transform="translate(-1038.115 -3445.856)" fill="#752900"/>
              </g>
            </g>
          </g>
        </g>
      </g>
    </g>
    <g id="Group_11426" data-name="Group 11426" transform="translate(1135.502 3580.541)">
      <g id="Group_11413" data-name="Group 11413">
        <path id="Path_18380" data-name="Path 18380" d="M1081.646,3454.206a31.139,31.139,0,1,0,31.139,31.139A31.171,31.171,0,0,0,1081.646,3454.206Zm0,57.169a26.029,26.029,0,1,1,26.034-26.03A26.057,26.057,0,0,1,1081.646,3511.375Z" transform="translate(-1050.51 -3454.206)" fill="#24984e" opacity="0.05"/>
        <path id="Path_18381" data-name="Path 18381" d="M1074.641,3457.416a20.924,20.924,0,1,0,20.926,20.923A20.946,20.946,0,0,0,1074.641,3457.416Zm0,36.74a15.816,15.816,0,1,1,15.821-15.817A15.831,15.831,0,0,1,1074.641,3494.156Z" transform="translate(-1043.506 -3447.199)" fill="#24984e" opacity="0.2"/>
        <path id="Path_18382" data-name="Path 18382" d="M1067.753,3460.572a10.878,10.878,0,1,0,10.882,10.878A10.879,10.879,0,0,0,1067.753,3460.572Z" transform="translate(-1036.618 -3440.312)" fill="#24984e" opacity="0.5"/>
      </g>
      <g id="Group_11425" data-name="Group 11425" transform="translate(17.143 22.802)">
        <g id="Group_11414" data-name="Group 11414" transform="translate(0 11.248)" style="mix-blend-mode: multiply;isolation: isolate">
          <path id="Path_18383" data-name="Path 18383" d="M1168.953,3556.08c-3.177-6.385-7.129-14.332-7.234-22.329-.194-14.669-8.622-30.521-14.029-40.646-.739-1.392-1.442-2.705-2.078-3.94a8.21,8.21,0,0,0-11.053-3.514l-5.98,3.091a1.478,1.478,0,0,0-.633,1.982l6.537,12.639-1.776-1.6-8.6-16.626c-1.05-2.031-6.009-3.605-10.028-1.527l-5.977,3.09a1.471,1.471,0,0,0-.63,1.986l8.6,16.626-.748.385c-1.926-3.717-7.425-14.347-9.567-18.494-1.346-2.606-5.586-3.979-10.086-1.651l-5.977,3.093a1.471,1.471,0,0,0-.633,1.983l11.69,22.605-.748.386-22.613-43.723c-2.04-3.95-8.081-5.741-12.189-3.619-3.972,2.053-5.748,7.8-3.67,11.823l28.8,55.681-5.232,2.705a1.52,1.52,0,0,1-1.248.07c-3.332-1.076-7.47-9.23-9.026-12.3-.273-.531-.506-.983-.684-1.324-3.615-6.785-11.2-6.894-15.184-4.831-2.731,1.413-2.937,3.38-2.288,4.64l16.789,32.46a.955.955,0,0,0,.067.114c4.093,6.426,10.709,8.622,17.714,10.945,9.6,3.183,20.474,6.788,29.328,21.826a1.47,1.47,0,0,0,1.948.563l48.433-25.048a1.476,1.476,0,0,0,.678-1.883C1170.9,3560,1169.955,3558.1,1168.953,3556.08Z" transform="translate(-1054.882 -3463.888)" fill="#e6e7e8"/>
          <path id="Path_18384" data-name="Path 18384" d="M1171.288,3556.441c-3.113-6.251-6.979-14.032-7.081-21.689-.2-15.029-8.727-31.066-14.2-41.324-.738-1.388-1.442-2.7-2.068-3.921a9.692,9.692,0,0,0-13.042-4.149l-5.98,3.09a2.966,2.966,0,0,0-.687.493l-.767-1.479a9.686,9.686,0,0,0-13.039-4.147l-5.98,3.094a2.88,2.88,0,0,0-.726.521c-1.964-2.838-6.738-4.242-11.706-1.674l-5.977,3.094a3.02,3.02,0,0,0-.69.49l-1.792-3.47-7.833-15.136c-2.428-4.7-9.319-6.763-14.178-4.249a10.632,10.632,0,0,0-4.3,13.807l28.118,54.372-3.918,2.026-.007,0c-.149-.022-1.4-.315-3.835-3.8a66.932,66.932,0,0,1-4.449-7.795c-.27-.527-.506-.989-.7-1.349-4.083-7.661-12.654-7.779-17.161-5.449-3.456,1.788-3.956,4.618-2.915,6.629l16.785,32.46c.045.08.083.156.131.226,4.373,6.868,11.231,9.145,18.494,11.554,9.351,3.1,19.949,6.613,28.526,21.178a2.943,2.943,0,0,0,3.889,1.126l5.57-2.883,42.867-22.168a2.947,2.947,0,0,0,1.359-3.769C1173.255,3560.407,1172.3,3558.484,1171.288,3556.441Zm-42.864,29.028-5.57,2.884c-15.741-26.74-37.991-18.555-47.078-32.819L1059,3523.078c-.484-.93.258-1.939,1.652-2.661,3.237-1.671,10-1.8,13.211,4.217,1.747,3.285,7.877,16.788,12.934,14.169h.006l6.531-3.38-29.471-56.988a7.7,7.7,0,0,1,3.037-9.834c3.3-1.706,8.5-.312,10.207,2.984l7.829,15.141,15.461,29.892,3.358-1.741-12.368-23.911,5.983-3.09c3.79-1.965,7.158-.8,8.1,1.015,2.619,5.066,10.245,19.806,10.245,19.806l3.364-1.738-9.277-17.937,5.98-3.093a6.738,6.738,0,0,1,9.071,2.887l9.274,17.934,3.364-1.734-7.212-13.946,5.977-3.093a6.734,6.734,0,0,1,9.067,2.887c5.213,10.076,15.732,27.609,15.945,43.93.15,10.919,7.043,21.491,10.029,28.513Z" transform="translate(-1055.896 -3464.905)" fill="#e6e7e8"/>
          <path id="Path_18385" data-name="Path 18385" d="M1078.464,3485.15l-6.181-11.958c-3.88-8.614-7.915-8.125-11.13-6.864a5.473,5.473,0,0,0-2.294,1.982c2.489-.05,6.97,5.232,8.189,7.588l6.184,11.957,15.458,29.895,5.245-2.684-12.377-23.939Z" transform="translate(-1049.43 -3463.329)" fill="#e6e7e8"/>
          <path id="Path_18386" data-name="Path 18386" d="M1087.369,3474.912a6.738,6.738,0,0,0-9.071-2.887l-5.232,2.709a6.733,6.733,0,0,1,9.071,2.886l9.274,17.935,5.2-2.743-6.155-11.923Z" transform="translate(-1018.421 -3451.003)" fill="#e6e7e8"/>
          <path id="Path_18387" data-name="Path 18387" d="M1080.613,3473.837c-.939-1.813-4.306-2.979-8.1-1.015l-5.236,2.7c3.8-1.963,7.164-.8,8.1,1.019,2.619,5.067,10.242,19.8,10.242,19.8l5.258-2.718-9.284-18C1081.215,3475,1080.89,3474.366,1080.613,3473.837Z" transform="translate(-1031.048 -3449.853)" fill="#e6e7e8"/>
          <path id="Path_18388" data-name="Path 18388" d="M1093.8,3475.555a6.734,6.734,0,0,0-9.067-2.887l-5.232,2.708a6.733,6.733,0,0,1,9.071,2.883c5.213,10.079,15.725,27.616,15.939,43.93.153,10.92,7.049,21.5,10.029,28.515l5.235-2.706c-2.985-7.021-9.879-17.594-10.029-28.513C1109.531,3503.164,1099.012,3485.631,1093.8,3475.555Z" transform="translate(-1004.38 -3449.599)" fill="#e6e7e8"/>
          <path id="Path_18389" data-name="Path 18389" d="M1071.8,3487.316c-4.755-8.663-15.538-4.8-14.939-1.875,3.51-.2,7.807.914,9.7,4.583,1.709,3.3,8.816,16.3,8.816,16.3l9.36-4.841C1079.189,3504.165,1073.591,3490.579,1071.8,3487.316Z" transform="translate(-1053.841 -3427.587)" fill="#e6e7e8"/>
          <path id="Path_18390" data-name="Path 18390" d="M1061.916,3467.019a5.528,5.528,0,0,0-2.6,7.361l1.308,2.531,10.114-5.229-1.311-2.536A5.524,5.524,0,0,0,1061.916,3467.019Z" transform="translate(-1049.667 -3461.764)" fill="#e6e7e8" opacity="0.5"/>
          <path id="Path_18391" data-name="Path 18391" d="M1056.828,3483.173l5.063,9.787,3.762-1.948-2.667-5.149A5.329,5.329,0,0,0,1056.828,3483.173Z" transform="translate(-1053.863 -3425.456)" fill="#e6e7e8" opacity="0.5"/>
          <rect id="Rectangle_2406" data-name="Rectangle 2406" width="73.962" height="15.952" transform="matrix(0.888, -0.459, 0.459, 0.888, 52.726, 116.388)" fill="#e6e7e8"/>
          <rect id="Rectangle_2407" data-name="Rectangle 2407" width="82.904" height="37.108" transform="translate(53.198 125.453) rotate(-27.343)" fill="#e6e7e8"/>
          <rect id="Rectangle_2408" data-name="Rectangle 2408" width="13.053" height="11.601" transform="translate(112.513 100.977) rotate(-27.34)" fill="#e6e7e8"/>
          <path id="Path_18392" data-name="Path 18392" d="M1092.923,3511.05l11.594-6-5.328-10.3Z" transform="translate(-975.081 -3399.767)" fill="#e6e7e8"/>
        </g>
        <g id="Group_11424" data-name="Group 11424">
          <g id="Group_11423" data-name="Group 11423">
            <g id="Group_11416" data-name="Group 11416">
              <g id="Group_11415" data-name="Group 11415">
                <path id="Path_18393" data-name="Path 18393" d="M1168.953,3552.546c-3.177-6.384-7.129-14.331-7.234-22.329-.194-14.669-8.622-30.521-14.029-40.645-.739-1.392-1.442-2.709-2.078-3.94a8.206,8.206,0,0,0-11.053-3.514l-5.98,3.09a1.479,1.479,0,0,0-.633,1.983l6.537,12.638-1.776-1.6-8.6-16.627c-1.05-2.033-6.009-3.608-10.028-1.53l-5.977,3.09a1.476,1.476,0,0,0-.63,1.989l8.6,16.623-.748.389c-1.926-3.718-7.425-14.348-9.567-18.494-1.346-2.606-5.586-3.979-10.086-1.652l-5.977,3.094a1.469,1.469,0,0,0-.633,1.982l11.69,22.606-.748.386-22.613-43.724c-2.04-3.953-8.081-5.741-12.189-3.618-3.972,2.052-5.748,7.8-3.67,11.823l28.8,55.677-5.232,2.705a1.52,1.52,0,0,1-1.248.07c-3.332-1.072-7.47-9.227-9.026-12.3-.273-.531-.506-.983-.684-1.327-3.615-6.782-11.2-6.891-15.184-4.828-2.731,1.41-2.937,3.381-2.288,4.641l16.789,32.46a1.26,1.26,0,0,0,.067.114c4.093,6.426,10.709,8.621,17.714,10.941,9.6,3.183,20.474,6.789,29.328,21.83a1.471,1.471,0,0,0,1.948.563l48.433-25.048a1.481,1.481,0,0,0,.678-1.887C1170.9,3556.471,1169.955,3554.564,1168.953,3552.546Z" transform="translate(-1054.882 -3460.354)" fill="#fecd8d"/>
                <path id="Path_18394" data-name="Path 18394" d="M1171.288,3552.907c-3.113-6.254-6.979-14.032-7.081-21.693-.2-15.027-8.727-31.062-14.2-41.319-.738-1.391-1.442-2.7-2.068-3.921a9.691,9.691,0,0,0-13.042-4.149l-5.98,3.09a2.856,2.856,0,0,0-.687.493l-.767-1.48a9.687,9.687,0,0,0-13.039-4.149l-5.98,3.093a2.869,2.869,0,0,0-.726.525c-1.964-2.842-6.738-4.245-11.706-1.674l-5.977,3.094a2.825,2.825,0,0,0-.69.49l-1.792-3.47-7.833-15.137c-2.428-4.7-9.319-6.763-14.178-4.249a10.632,10.632,0,0,0-4.3,13.807l28.118,54.372-3.918,2.024-.007.006c-.149-.022-1.4-.315-3.835-3.8a67.008,67.008,0,0,1-4.449-7.794c-.27-.532-.506-.99-.7-1.35-4.083-7.661-12.654-7.781-17.161-5.449-3.456,1.789-3.956,4.615-2.915,6.627l16.785,32.459c.045.084.083.156.131.229,4.373,6.868,11.231,9.144,18.494,11.55,9.351,3.1,19.949,6.617,28.526,21.181a2.94,2.94,0,0,0,3.889,1.123l5.57-2.884,42.867-22.166a2.946,2.946,0,0,0,1.359-3.769C1173.255,3556.873,1172.3,3554.947,1171.288,3552.907Zm-42.864,29.028-5.57,2.884c-15.741-26.74-37.991-18.558-47.078-32.819L1059,3519.544c-.484-.93.258-1.941,1.652-2.661,3.237-1.673,10-1.8,13.211,4.217,1.747,3.285,7.877,16.786,12.934,14.17h.006l6.531-3.38-29.471-56.988a7.709,7.709,0,0,1,3.037-9.838c3.3-1.7,8.5-.312,10.207,2.988l7.829,15.137,15.461,29.895,3.358-1.74-12.368-23.914,5.983-3.092c3.79-1.96,7.158-.8,8.1,1.02l10.245,19.8,3.364-1.737-9.277-17.935,5.98-3.093a6.736,6.736,0,0,1,9.071,2.887l9.274,17.934,3.364-1.738-7.212-13.942,5.977-3.094a6.729,6.729,0,0,1,9.067,2.887c5.213,10.076,15.732,27.609,15.945,43.93.15,10.92,7.043,21.492,10.029,28.514Z" transform="translate(-1055.896 -3461.371)" fill="#c7985a"/>
              </g>
            </g>
            <g id="Group_11422" data-name="Group 11422" transform="translate(2.998 2.298)">
              <g id="Group_11417" data-name="Group 11417" transform="translate(6.431)">
                <path id="Path_18395" data-name="Path 18395" d="M1078.464,3481.613l-6.181-11.954c-3.88-8.615-7.915-8.125-11.13-6.864a5.467,5.467,0,0,0-2.294,1.979c2.489-.052,6.97,5.232,8.189,7.591l6.184,11.953,15.458,29.9,5.245-2.686-12.377-23.937Z" transform="translate(-1058.859 -3462.092)" fill="#ffbf77"/>
              </g>
              <g id="Group_11418" data-name="Group 11418" transform="translate(51.647 17.973)">
                <path id="Path_18396" data-name="Path 18396" d="M1087.369,3471.379a6.736,6.736,0,0,0-9.071-2.887l-5.232,2.7a6.738,6.738,0,0,1,9.071,2.887l9.274,17.938,5.2-2.743-6.155-11.922Z" transform="translate(-1073.066 -3467.74)" fill="#ffbf77"/>
              </g>
              <g id="Group_11419" data-name="Group 11419" transform="translate(33.235 19.651)">
                <path id="Path_18397" data-name="Path 18397" d="M1080.613,3470.3c-.939-1.817-4.306-2.979-8.1-1.02l-5.236,2.709c3.8-1.963,7.164-.8,8.1,1.016,2.619,5.067,10.242,19.8,10.242,19.8l5.258-2.718L1081.6,3472.1C1081.215,3471.465,1080.89,3470.833,1080.613,3470.3Z" transform="translate(-1067.281 -3468.266)" fill="#ffbf77"/>
              </g>
              <g id="Group_11420" data-name="Group 11420" transform="translate(72.12 20.019)">
                <path id="Path_18398" data-name="Path 18398" d="M1093.8,3472.021a6.729,6.729,0,0,0-9.067-2.887l-5.232,2.705a6.738,6.738,0,0,1,9.071,2.887c5.213,10.079,15.725,27.612,15.939,43.93.153,10.92,7.049,21.5,10.029,28.514l5.235-2.705c-2.985-7.021-9.879-17.594-10.029-28.514C1109.531,3499.631,1099.012,3482.1,1093.8,3472.021Z" transform="translate(-1079.499 -3468.382)" fill="#ffbf77"/>
              </g>
              <g id="Group_11421" data-name="Group 11421" transform="translate(0 52.117)">
                <path id="Path_18399" data-name="Path 18399" d="M1071.8,3483.782c-4.755-8.662-15.538-4.8-14.939-1.877,3.51-.2,7.807.916,9.7,4.586,1.709,3.3,8.816,16.3,8.816,16.3l9.36-4.838C1079.189,3500.631,1073.591,3487.045,1071.8,3483.782Z" transform="translate(-1056.839 -3478.468)" fill="#ffbf77"/>
              </g>
            </g>
            <path id="Path_18400" data-name="Path 18400" d="M1061.916,3463.486a5.524,5.524,0,0,0-2.6,7.358l1.308,2.533,10.114-5.231-1.311-2.534A5.524,5.524,0,0,0,1061.916,3463.486Z" transform="translate(-1049.667 -3458.231)" fill="#fff" opacity="0.5"/>
            <path id="Path_18401" data-name="Path 18401" d="M1056.828,3479.637l5.063,9.791,3.762-1.948-2.667-5.149A5.331,5.331,0,0,0,1056.828,3479.637Z" transform="translate(-1053.863 -3421.923)" fill="#fff" opacity="0.5"/>
            <rect id="Rectangle_2409" data-name="Rectangle 2409" width="73.962" height="15.952" transform="matrix(0.888, -0.459, 0.459, 0.888, 52.726, 116.387)" fill="#fff"/>
            <rect id="Rectangle_2410" data-name="Rectangle 2410" width="82.904" height="37.108" transform="translate(53.198 125.453) rotate(-27.343)" fill="#14475f"/>
            <rect id="Rectangle_2411" data-name="Rectangle 2411" width="13.053" height="11.601" transform="translate(112.513 100.976) rotate(-27.34)" fill="#ffcc59"/>
            <path id="Path_18402" data-name="Path 18402" d="M1092.923,3507.517l11.594-6-5.328-10.3Z" transform="translate(-975.081 -3396.233)" fill="#f29c1f"/>
          </g>
        </g>
      </g>
    </g>
  </g>
</svg>
