<svg id="Group_11376" data-name="Group 11376" xmlns="http://www.w3.org/2000/svg" xmlns:xlink="http://www.w3.org/1999/xlink" width="382.804" height="331.232" viewBox="0 0 382.804 331.232">
  <defs>
    <clipPath id="clip-path">
      <path id="Path_18176" data-name="Path 18176" d="M714.234,3821.135,645.16,3968.162l101.266,22.981,112.626-37.322,112.115,30.861-68.533-156.039-60.174-12.171-69,14.784Z" transform="translate(-645.16 -3816.473)" fill="none"/>
    </clipPath>
  </defs>
  <g id="Group_11360" data-name="Group 11360" transform="translate(0 110.43)">
    <path id="Path_18138" data-name="Path 18138" d="M978,4004.888l-80.97-164.8L839.4,3828.658l-58.108,12.86-57.631-10-79.541,147.65,109.547,25.721,102.88-34.293Z" transform="translate(-619.654 -3784.086)" fill="#e6e7e8" opacity="0.5" style="mix-blend-mode: multiply;isolation: isolate"/>
    <path id="Path_18139" data-name="Path 18139" d="M1018.73,4015.787,925.9,3826.843l-66.076-13.105L793.2,3828.48l-66.076-11.467-91.2,169.284,125.6,29.489,117.954-39.318Z" transform="translate(-635.926 -3813.737)" fill="#fff"/>
    <path id="Path_18140" data-name="Path 18140" d="M714.234,3821.135,645.16,3968.162l101.266,22.981,112.626-37.322,112.115,30.861-68.533-156.039-60.174-12.171-69,14.784Z" transform="translate(-617.578 -3808.302)" fill="#c3e3f4"/>
    <g id="Group_11359" data-name="Group 11359" transform="translate(27.582 8.17)">
      <g id="Group_11358" data-name="Group 11358" clip-path="url(#clip-path)">
        <g id="Group_11357" data-name="Group 11357" transform="translate(4.448 -14.424)">
          <g id="Group_11354" data-name="Group 11354" transform="translate(83.548)">
            <path id="Path_18141" data-name="Path 18141" d="M677.553,3888.275q.78,1.088,1.592,2.159t1.673,2.125v-8.989l-6.2.293q.694,1.121,1.428,2.223C676.535,3886.82,677.037,3887.552,677.553,3888.275Z" transform="translate(-674.617 -3668.711)" fill="#a9d0ff"/>
            <path id="Path_18142" data-name="Path 18142" d="M678.333,3896.749l33.714-4.547-7.391-3.1c-1.042-.449-2.058-.926-3.053-1.44s-1.963-1.057-2.907-1.634-1.864-1.186-2.751-1.822-2.055-1.542-2.889-2.237l-.137-.161-16.579,5.267v7.6a15.089,15.089,0,0,0,.932,1.321A4.678,4.678,0,0,0,678.333,3896.749Z" transform="translate(-671.193 -3672.221)" fill="#a9d0ff"/>
            <path id="Path_18143" data-name="Path 18143" d="M684.861,3900.908a38.859,38.859,0,0,1-3.833-8.067,38.524,38.524,0,0,1-1.2-4.338,39.307,39.307,0,0,1-.7-4.489q-.148-1.573-.385-3.118t-.559-3.069c-.215-1.012-.29-2.261-.562-3.259s-.693-5.992-1.392-7.2l.326,35.793Z" transform="translate(-671.41 -3700.908)" fill="#a9d0ff"/>
            <path id="Path_18144" data-name="Path 18144" d="M676.044,3855.136l26.754,69.289,2.945,1.337,13.5-3.661-8.215-3.833-24.764-64.76-1.656,2.3-7.832-3.833Z" transform="translate(-671.78 -3731.493)" fill="#fff"/>
            <path id="Path_18145" data-name="Path 18145" d="M702.316,3877.6l-1.251,1.964-9.581,2.744,28.806,13.081,15.638-2.109-14.2-6.627h0l-.232.376-7.5-3.186.385-.617Z" transform="translate(-641.099 -3680.578)" fill="#fff"/>
            <path id="Path_18146" data-name="Path 18146" d="M698.6,3842.052l21.067-27.434-11.176-1.5L688.544,3838.7l-12.254-1.48v8.65l14.941,1.593-2.493-1.515,5.313-6.721Z" transform="translate(-671.291 -3808.712)" fill="#fff"/>
            <path id="Path_18147" data-name="Path 18147" d="M699.019,3923.567l7.5,3.186.232-.376,33.466-54.252v-14.518L699.4,3922.95Z" transform="translate(-626.125 -3720.303)" fill="#fff"/>
            <path id="Path_18148" data-name="Path 18148" d="M676.291,3889.014v5.21l7.832,3.832,1.656-2.3,43.347-60.229h0l-7.91-4.808Z" transform="translate(-671.291 -3773.74)" fill="#fff"/>
            <path id="Path_18149" data-name="Path 18149" d="M741.6,3844.354v-8.838l-26.7-18.664-16.579-2.224Z" transform="translate(-627.512 -3805.714)" fill="#fff"/>
            <path id="Path_18150" data-name="Path 18150" d="M685.77,3821.86l-5.313,6.72,2.493,1.516,29.982,18.225h0l7.91,4.809,55.015,33.442,1.24-1.911,5.649-2.671-92.425-57.308Z" transform="translate(-663.01 -3791.344)" fill="#fff"/>
            <path id="Path_18151" data-name="Path 18151" d="M678.443,3816.172q1.035-.538,2.043-1.093c.672-.368,1.335-.744,1.989-1.121s1.3-.761,1.933-1.146l-7.982-1.169-.164,6.13C676.967,3817.427,677.753,3816.535,678.443,3816.172Z" transform="translate(-671.348 -3811.643)" fill="#a9d0ff"/>
            <path id="Path_18152" data-name="Path 18152" d="M701.273,3837.322l-13.7-7.82a2.985,2.985,0,0,0-.317-.159c-.108-.044-.218-.087-.332-.121a3.513,3.513,0,0,0-.346-.085c-.12-.021-.236-.038-.356-.048l-9.789-1.051-.14,48.178,25.854-35.835a1.833,1.833,0,0,0,.3-1.637,2.208,2.208,0,0,0-.415-.789A2.673,2.673,0,0,0,701.273,3837.322Z" transform="translate(-671.29 -3779.065)" fill="#c6e591"/>
            <path id="Path_18153" data-name="Path 18153" d="M724.083,3839.538a10.648,10.648,0,0,0-2.548-.756,10.886,10.886,0,0,0-1.305-.131,10.493,10.493,0,0,0-2.4.174,9.96,9.96,0,0,0-2.261.7,9.254,9.254,0,0,0-2,1.223,8.428,8.428,0,0,0-1.61,1.72l-24.352,34.786a13.806,13.806,0,0,0-1.532,2.83,12.821,12.821,0,0,0-.8,3.01,12.43,12.43,0,0,0,.687,6.1l11.25,29.944a4.905,4.905,0,0,0,.98,1.605,5.355,5.355,0,0,0,1.449,1.118,6.389,6.389,0,0,0,1.753.622,7.443,7.443,0,0,0,3.441-.143,7.223,7.223,0,0,0,1.455-.587,6.567,6.567,0,0,0,1.3-.911,6.386,6.386,0,0,0,1.067-1.236l37.717-57.155a7.7,7.7,0,0,0,1.183-3,7.626,7.626,0,0,0-.14-3.1,8.113,8.113,0,0,0-1.374-2.858,8.951,8.951,0,0,0-2.536-2.282l-18.219-11.05A10.934,10.934,0,0,0,724.083,3839.538Z" transform="translate(-653.656 -3757.993)" fill="#f1f1f2"/>
            <path id="Path_18154" data-name="Path 18154" d="M705.744,3815.713c-.087-.045-.179-.084-.269-.12a2.5,2.5,0,0,0-.278-.083,2.327,2.327,0,0,0-.8-.062,2.212,2.212,0,0,0-.493.107,1.846,1.846,0,0,0-.433.224,1.509,1.509,0,0,0-.35.337L689.1,3834.61a1.53,1.53,0,0,0-.293.675,1.677,1.677,0,0,0,.039.729,2.016,2.016,0,0,0,.349.689,2.432,2.432,0,0,0,.639.574l37.815,23.6a2.253,2.253,0,0,0,.245.132c.084.038.17.071.257.1a1.981,1.981,0,0,0,.26.066,1.956,1.956,0,0,0,.263.035,2.1,2.1,0,0,0,.49-.021,1.947,1.947,0,0,0,.463-.133,1.784,1.784,0,0,0,.406-.241,1.64,1.64,0,0,0,.326-.344l12.618-17.986a1.491,1.491,0,0,0,.257-.632,1.616,1.616,0,0,0-.036-.676,1.854,1.854,0,0,0-.3-.646,2.13,2.13,0,0,0-.556-.531l-36.328-24.143A2.462,2.462,0,0,0,705.744,3815.713Z" transform="translate(-646.472 -3804.107)" fill="#f1f1f2"/>
            <path id="Path_18155" data-name="Path 18155" d="M728.18,3831.738l-7.925-5.261-.009.012c-.072-.047-.146-.089-.221-.129a2.458,2.458,0,0,0-.23-.095c-.078-.026-.155-.05-.233-.069s-.158-.026-.239-.035a1.832,1.832,0,0,0-.445.012,1.634,1.634,0,0,0-.415.117,1.593,1.593,0,0,0-.37.214,1.616,1.616,0,0,0-.3.316l-12.454,18.022a1.5,1.5,0,0,0-.251.619,1.662,1.662,0,0,0,.033.654,1.811,1.811,0,0,0,.3.612,2.005,2.005,0,0,0,.538.493l7.955,4.952a2.065,2.065,0,0,0,.224.122c.078.033.155.063.233.09a2.175,2.175,0,0,0,.239.057,1.926,1.926,0,0,0,.239.029,1.851,1.851,0,0,0,.448-.026,1.92,1.92,0,0,0,.424-.131,1.636,1.636,0,0,0,.37-.233,1.665,1.665,0,0,0,.3-.325l2.978-4.4a1.564,1.564,0,0,1,.663-.554,1.946,1.946,0,0,1,.415-.128,1.835,1.835,0,0,1,.445-.021,1.725,1.725,0,0,1,.233.029,1.636,1.636,0,0,1,.236.061,1.946,1.946,0,0,1,.448.212l6,3.82.1.069.1.078.09.08.084.084Z" transform="translate(-614.092 -3782.813)" fill="#e5e4e3"/>
            <path id="Path_18156" data-name="Path 18156" d="M720.043,3817.543l-10.874-1.46,10.874,7.634Z" transform="translate(-605.954 -3802.82)" fill="#e5e4e3"/>
            <path id="Path_18157" data-name="Path 18157" d="M718.758,3940.172l-13.5,3.661-20.658,5.605-8.3,2.348v12.693l17.018-5.065,28.367-8.121,9.581-2.743,1.251-1.964,52.873-82.961v-20.742l-1.24,1.911-61.17,94.235Z" transform="translate(-671.291 -3749.565)" fill="#f7cb6b"/>
          </g>
          <g id="Group_11355" data-name="Group 11355">
            <path id="Path_18158" data-name="Path 18158" d="M736.4,3911.231a70.185,70.185,0,0,0-6.536-15.638,71.964,71.964,0,0,0-9.909-13.5,70.61,70.61,0,0,0-12.555-10.67,67.307,67.307,0,0,0-14.491-7.31l-46.257-16.634v17.279l40.587,15.678A49.165,49.165,0,0,1,699.3,3887.2a51.857,51.857,0,0,1,16.791,22.272,49.171,49.171,0,0,1,3.232,13.951q.2,2.509.6,5.028t1,5.026q.6,2.514,1.383,5t1.766,4.956l12.325-.794Z" transform="translate(-646.648 -3740.422)" fill="#a9d0ff"/>
            <path id="Path_18159" data-name="Path 18159" d="M736.4,3871.3l-89.75-31.761v8.138l89.259,32.705.491,1.459v-5.316l-.938-.542.938-1.446Z" transform="translate(-646.648 -3756.209)" fill="#fff"/>
            <path id="Path_18160" data-name="Path 18160" d="M646.648,3838.829l88.655-8.971v-8.678l-88.655,10.024Z" transform="translate(-646.648 -3792.692)" fill="#fff"/>
            <path id="Path_18161" data-name="Path 18161" d="M646.649,3840.465c1.577-.007,3.537-.028,5.8-.087,2.282-.058,4.881-.152,7.725-.3,2.871-.152,6-.358,9.3-.64,3.342-.284,6.87-.646,10.515-1.1,2.357-.3,4.762-.634,7.193-1.013,2.449-.385,4.926-.818,7.405-1.3,2.5-.487,5-1.028,7.486-1.625,2.5-.6,4.986-1.261,7.426-1.984a54.33,54.33,0,0,0,6.966-2.622,69.075,69.075,0,0,0,6.844-3.606c2.261-1.35,4.487-2.834,6.665-4.424s4.334-3.295,6.419-5.066l-1.1-5.052-88.652,13.234Z" transform="translate(-646.648 -3811.643)" fill="#a9d0ff"/>
            <path id="Path_18162" data-name="Path 18162" d="M651.82,3834.689a2.189,2.189,0,0,0-1.021,1.157,2.158,2.158,0,0,0-.152.794V3853.9a2.027,2.027,0,0,0,.093.606,1.944,1.944,0,0,0,.257.531,1.923,1.923,0,0,0,.4.416,1.735,1.735,0,0,0,.523.269l71.532,22.9a1.924,1.924,0,0,0,.2.053c.066.016.131.027.2.039s.134.015.2.021.131,0,.2,0a2.5,2.5,0,0,0,.591-.08,2.534,2.534,0,0,0,.553-.219,2.315,2.315,0,0,0,.487-.344,2.2,2.2,0,0,0,.391-.46l2.184-3.382-1.06-46.224-74.824,6.429A1.985,1.985,0,0,0,651.82,3834.689Z" transform="translate(-638.705 -3779.065)" fill="#c6e591"/>
            <path id="Path_18163" data-name="Path 18163" d="M674.072,3868.729a47.666,47.666,0,0,0-12.573-6.853,54.94,54.94,0,0,0-14.849-3.215v55.479a51.222,51.222,0,0,0,14.849-.663,39.271,39.271,0,0,0,12.573-4.7,26.3,26.3,0,0,0,8.714-8.158,19.732,19.732,0,0,0,3.244-10.841,22.579,22.579,0,0,0-3.244-11.4A33.93,33.93,0,0,0,674.072,3868.729Z" transform="translate(-646.648 -3718.211)" fill="#c6e591"/>
            <path id="Path_18164" data-name="Path 18164" d="M646.648,3888.44l39.054,5.946,44.494-2.115,6.2-.3V3879.34l-12.327.8-77.423,5Z" transform="translate(-646.648 -3677.118)" fill="#f7cb6b"/>
          </g>
          <g id="Group_11356" data-name="Group 11356" transform="translate(197.636 4.129)">
            <path id="Path_18165" data-name="Path 18165" d="M743.755,3851.541l-8.26-4.046h0l-22.684,30.212v14.521l30.946-40.687Z" transform="translate(-712.808 -3744.53)" fill="#fff"/>
            <path id="Path_18166" data-name="Path 18166" d="M779.824,3820.708l-22.319-7.683-20.868,2.4,43.188,15.316Z" transform="translate(-665.458 -3813.026)" fill="#fff"/>
            <path id="Path_18167" data-name="Path 18167" d="M784.92,3851.317l-72.111-29.7v8.839l61.02,25.769Z" transform="translate(-712.808 -3795.954)" fill="#fff"/>
            <path id="Path_18168" data-name="Path 18168" d="M776.481,3844.7l-26.7-11-11.467,4.911,38.162,16.115Z" transform="translate(-662.114 -3771.933)" fill="#fff"/>
            <path id="Path_18169" data-name="Path 18169" d="M737.251,3859.089l83.42,40.871v-10.031L724.258,3843.7l-6.545,2.8-1.63,2.22,12.908,6.323h0Z" transform="translate(-706.304 -3752.077)" fill="#fff"/>
            <path id="Path_18170" data-name="Path 18170" d="M716.038,3916.821c.084.65.176,1.3.287,1.953l1.467,8.815,0,.018,0,.019,0,.017,0,.021,103.677,11.979v-53.874L773.3,3861.292a14.71,14.71,0,0,0-1.559-.685,15.629,15.629,0,0,0-1.631-.5,16.75,16.75,0,0,0-1.682-.329,16.537,16.537,0,0,0-1.7-.146q-.564-.022-1.129,0t-1.12.081c-.37.039-.738.093-1.105.158s-.726.149-1.084.242q-3.831,1.008-7.414,2.306-3.562,1.291-6.853,2.851-3.271,1.55-6.264,3.354a65.93,65.93,0,0,0-5.658,3.815,60.023,60.023,0,0,0-5.024,4.244,54.937,54.937,0,0,0-4.367,4.637,50.95,50.95,0,0,0-3.686,5,47.652,47.652,0,0,0-2.978,5.342,45.738,45.738,0,0,0-1.912,4.666,45.234,45.234,0,0,0-1.362,4.795,44.478,44.478,0,0,0-.818,4.9,45.349,45.349,0,0,0-.275,4.983c0,.642.015,1.284.042,1.93s.066,1.293.12,1.941S715.958,3916.17,716.038,3916.821Z" transform="translate(-707.115 -3720.442)" fill="#c6e591"/>
            <path id="Path_18171" data-name="Path 18171" d="M713.051,3849.333l-.242.338v7.624l6.366,2.93a1.838,1.838,0,0,0,.251.1,2.391,2.391,0,0,0,.263.065,2.111,2.111,0,0,0,.269.036,2.468,2.468,0,0,0,.269,0,2.888,2.888,0,0,0,.511-.07,2.41,2.41,0,0,0,.475-.174,2.119,2.119,0,0,0,.421-.266,1.8,1.8,0,0,0,.338-.355l14.228-19.629a1.606,1.606,0,0,0,.287-.651,1.38,1.38,0,0,0-.039-.646,1.439,1.439,0,0,0-.34-.57,1.781,1.781,0,0,0-.615-.419l-10.847-4.623-.018.03-11.817-5.037v19.348a1.571,1.571,0,0,1,.355.422,1.415,1.415,0,0,1,.167.5,1.374,1.374,0,0,1-.036.527A1.558,1.558,0,0,1,713.051,3849.333Z" transform="translate(-712.809 -3783.233)" fill="#f1f1f2"/>
            <path id="Path_18172" data-name="Path 18172" d="M722.825,3827.879a2,2,0,0,0,.275.05,2.089,2.089,0,0,0,.281.019,2.477,2.477,0,0,0,.284-.012,2.683,2.683,0,0,0,.535-.111,2.8,2.8,0,0,0,.5-.212,2.515,2.515,0,0,0,.442-.308,2.248,2.248,0,0,0,.355-.395l5.58-8.032a1.8,1.8,0,0,0,.293-.69,1.4,1.4,0,0,0-.039-.669,1.427,1.427,0,0,0-.349-.57,1.747,1.747,0,0,0-.633-.4l-1.58-.595-15.961,1.835v6.174l9.75,3.833A1.988,1.988,0,0,0,722.825,3827.879Z" transform="translate(-712.809 -3807.208)" fill="#e5e4e3"/>
            <path id="Path_18173" data-name="Path 18173" d="M721.425,3835.769l47.6,18.714a2.444,2.444,0,0,0,.3.1,2.57,2.57,0,0,0,.317.063,2.874,2.874,0,0,0,.323.029c.108,0,.215,0,.326,0a3.51,3.51,0,0,0,.612-.1,3.458,3.458,0,0,0,.577-.213,2.724,2.724,0,0,0,.508-.316,2.268,2.268,0,0,0,.409-.416l16.4-21.591a1.819,1.819,0,0,0,.344-.744,1.387,1.387,0,0,0-.045-.726,1.554,1.554,0,0,0-.412-.625,2.09,2.09,0,0,0-.744-.441l-41.286-14.808-13.894,1.595-12.074,17.129a1.724,1.724,0,0,0-.3.688,1.408,1.408,0,0,0,.042.671,1.426,1.426,0,0,0,.353.583A1.887,1.887,0,0,0,721.425,3835.769Z" transform="translate(-697.79 -3809.724)" fill="#f1f1f2"/>
            <path id="Path_18174" data-name="Path 18174" d="M732.841,3862.213l54.687,25.153a3.087,3.087,0,0,0,.334.131c.114.038.227.068.344.1a3.388,3.388,0,0,0,.352.057,2.941,2.941,0,0,0,.356.023c.06,0,.122,0,.182,0l.179-.009c.06-.006.12-.013.179-.021a1.691,1.691,0,0,0,.176-.026v-32.55L751.2,3838.719a2.953,2.953,0,0,0-.308-.108,3.232,3.232,0,0,0-.319-.074,3.267,3.267,0,0,0-.326-.039c-.108-.006-.218-.008-.326-.006a3.605,3.605,0,0,0-.618.081,3.1,3.1,0,0,0-.576.194,2.64,2.64,0,0,0-.508.3,2.191,2.191,0,0,0-.406.4L732.046,3859.7a1.6,1.6,0,0,0-.32.69,1.429,1.429,0,0,0,.042.7,1.662,1.662,0,0,0,.379.634A2.214,2.214,0,0,0,732.841,3862.213Z" transform="translate(-675.265 -3762.424)" fill="#f1f1f2"/>
            <path id="Path_18175" data-name="Path 18175" d="M724.217,3883.052l6.545-2.8,58.251-24.937,11.467-4.911,26.695-11.428V3825.3l-42.255,18.691-11.091,4.906-56.41,24.952h0l-2.564,1.134-2.045,2.83v20.745l9.777-13.289Z" transform="translate(-712.808 -3788.629)" fill="#f7cb6b"/>
          </g>
        </g>
      </g>
    </g>
    <path id="Path_18177" data-name="Path 18177" d="M709.644,3828.48l-31.672,187.307,117.953-39.318-19.659-162.731Z" transform="translate(-552.373 -3813.737)" fill="#575756" opacity="0.1"/>
  </g>
  <g id="pin" transform="translate(120.497)">
    <ellipse id="Ellipse_329" data-name="Ellipse 329" cx="17.353" cy="7.128" rx="17.353" ry="7.128" transform="translate(53.56 196.718)" fill="#808184" opacity="0.4"/>
    <ellipse id="Ellipse_330" data-name="Ellipse 330" cx="39.476" cy="39.476" rx="39.476" ry="39.476" transform="translate(31.429 31.429)" fill="#fff"/>
    <path id="_7" data-name="7" d="M747.169,3776.77a70.985,70.985,0,0,0-70.9,70.906c0,18.579,11.564,46.447,34.374,82.832,16.845,26.867,33.92,48.7,34.09,48.922a3.1,3.1,0,0,0,2.441,1.188h.009a3.1,3.1,0,0,0,2.441-1.2c.17-.222,17.242-22.276,34.084-49.247,22.807-36.527,34.371-64.285,34.371-82.494A70.985,70.985,0,0,0,747.169,3776.77Z" transform="translate(-676.264 -3776.77)" fill="#008f8d"/>
    <path id="Path_18178" data-name="Path 18178" d="M700,3881.866v98.751h.009a3.1,3.1,0,0,0,2.441-1.2c.17-.222,17.242-22.276,34.084-49.247,22.807-36.527,34.371-64.285,34.371-82.494A70.985,70.985,0,0,0,700,3776.77v105.1Z" transform="translate(-629.095 -3776.77)" fill="#008f8d" opacity="0.75" style="mix-blend-mode: soft-light;isolation: isolate"/>
    <g id="Group_11375" data-name="Group 11375" transform="translate(30.189 35.165)">
      <g id="Group_11361" data-name="Group 11361" transform="translate(0 3.294)" style="mix-blend-mode: multiply;isolation: isolate">
        <path id="Path_18179" data-name="Path 18179" d="M686.37,3851.475l19.618,19.619h61.83v-81.449H686.37Z" transform="translate(-686.37 -3789.645)" fill="#e6e7e8"/>
        <path id="Path_18180" data-name="Path 18180" d="M703.377,3826.809h20.155v-20.158H703.377Z" transform="translate(-652.573 -3755.849)" fill="#e6e7e8"/>
        <path id="Path_18181" data-name="Path 18181" d="M706.56,3807.615h-2.22v14.4h14.4v-14.4H706.56Z" transform="translate(-650.659 -3753.932)" fill="#e6e7e8"/>
        <rect id="Rectangle_2356" data-name="Rectangle 2356" width="8.638" height="8.638" transform="translate(56.562 56.563)" fill="#e6e7e8"/>
        <path id="Path_18182" data-name="Path 18182" d="M689.881,3826.809h20.158v-20.158H689.881Z" transform="translate(-679.393 -3755.849)" fill="#e6e7e8"/>
        <path id="Path_18183" data-name="Path 18183" d="M693.062,3807.615h-2.217v14.4h14.4v-14.4H693.062Z" transform="translate(-677.477 -3753.932)" fill="#e6e7e8"/>
        <rect id="Rectangle_2357" data-name="Rectangle 2357" width="8.638" height="8.638" transform="translate(16.248 56.563)" fill="#e6e7e8"/>
        <path id="Path_18184" data-name="Path 18184" d="M689.881,3813.31h20.158v-20.153H689.881Z" transform="translate(-679.393 -3782.667)" fill="#e6e7e8"/>
        <path id="Path_18185" data-name="Path 18185" d="M693.062,3794.12h-2.217v14.4h14.4v-14.4H693.062Z" transform="translate(-677.477 -3780.749)" fill="#e6e7e8"/>
        <path id="Path_18186" data-name="Path 18186" d="M691.809,3803.722h8.638v-8.639h-8.638Z" transform="translate(-675.561 -3778.835)" fill="#e6e7e8"/>
        <path id="Path_18187" data-name="Path 18187" d="M703.377,3813.31h20.155v-20.153H703.377Z" transform="translate(-652.573 -3782.667)" fill="#e6e7e8"/>
        <path id="Path_18188" data-name="Path 18188" d="M706.56,3794.12h-2.22v14.4h14.4v-14.4H706.56Z" transform="translate(-650.659 -3780.749)" fill="#e6e7e8"/>
        <path id="Path_18189" data-name="Path 18189" d="M705.3,3803.722h8.638v-8.639H705.3Z" transform="translate(-648.743 -3778.835)" fill="#e6e7e8"/>
        <rect id="Rectangle_2358" data-name="Rectangle 2358" width="2.881" height="2.879" transform="translate(39.283 10.491)" fill="#e6e7e8"/>
        <path id="Path_18190" data-name="Path 18190" d="M701.448,3796.036v2.878h2.881v-5.757h-2.881Z" transform="translate(-656.406 -3782.666)" fill="#e6e7e8"/>
        <rect id="Rectangle_2359" data-name="Rectangle 2359" width="2.881" height="2.881" transform="translate(33.524 16.248)" fill="#e6e7e8"/>
        <rect id="Rectangle_2360" data-name="Rectangle 2360" width="2.881" height="2.881" transform="translate(39.283 16.248)" fill="#e6e7e8"/>
        <path id="Path_18191" data-name="Path 18191" d="M701.448,3798.926v2.879h2.881v-5.758h-2.881Z" transform="translate(-656.406 -3776.918)" fill="#e6e7e8"/>
        <rect id="Rectangle_2361" data-name="Rectangle 2361" width="2.881" height="2.879" transform="translate(45.043 27.767)" fill="#e6e7e8"/>
        <path id="Path_18192" data-name="Path 18192" d="M696.616,3800.868h-2.879v2.879h2.879v2.878h2.88v-2.878h2.879v-2.879h-5.76Z" transform="translate(-671.73 -3767.341)" fill="#e6e7e8"/>
        <path id="Path_18193" data-name="Path 18193" d="M701.436,3797.012h-2.879v5.76h2.879v11.516h2.88v-14.4h-2.88Z" transform="translate(-662.152 -3775.004)" fill="#e6e7e8"/>
        <rect id="Rectangle_2362" data-name="Rectangle 2362" width="2.878" height="2.879" transform="translate(62.322 33.527)" fill="#e6e7e8"/>
        <path id="Path_18194" data-name="Path 18194" d="M697.592,3802.784v5.757h2.881V3799.9h-2.881Z" transform="translate(-664.069 -3769.257)" fill="#e6e7e8"/>
        <path id="Path_18195" data-name="Path 18195" d="M692.761,3800.868h-2.88v5.757h2.88v-2.878h2.88v5.76h2.879v-8.639h-5.759Z" transform="translate(-679.393 -3767.341)" fill="#e6e7e8"/>
        <rect id="Rectangle_2363" data-name="Rectangle 2363" width="2.879" height="2.881" transform="translate(27.766 39.284)" fill="#e6e7e8"/>
        <rect id="Rectangle_2364" data-name="Rectangle 2364" width="2.879" height="2.881" transform="translate(42.164 39.284)" fill="#e6e7e8"/>
        <path id="Path_18196" data-name="Path 18196" d="M692.761,3806.638h-2.88v2.88h5.76v-5.759h-2.88Z" transform="translate(-679.393 -3761.594)" fill="#e6e7e8"/>
        <path id="Path_18197" data-name="Path 18197" d="M698.532,3803.759h-2.879v2.879h-2.88v2.88h8.639v-2.88h-2.88Z" transform="translate(-673.646 -3761.594)" fill="#e6e7e8"/>
        <path id="Path_18198" data-name="Path 18198" d="M704.33,3800.868h-2.881v2.879h2.881v5.76h-2.881v2.878h2.881v2.881h5.757v-2.881h-2.879v-8.638h2.879v-2.879H704.33Z" transform="translate(-656.406 -3767.341)" fill="#e6e7e8"/>
        <path id="Path_18199" data-name="Path 18199" d="M712.981,3807.591v-5.76H710.1v5.76h-2.879v-5.76h-2.88v8.638H710.1v2.88h5.759v-2.88h-2.878Z" transform="translate(-650.659 -3765.426)" fill="#e6e7e8"/>
        <path id="Path_18200" data-name="Path 18200" d="M711.076,3804.708v-2.877H708.2v8.638h5.76v-2.878h-2.88Z" transform="translate(-642.996 -3765.426)" fill="#e6e7e8"/>
        <path id="Path_18201" data-name="Path 18201" d="M696.629,3806.638v2.88h2.878v-5.759h-2.878Z" transform="translate(-665.983 -3761.594)" fill="#e6e7e8"/>
        <path id="Path_18202" data-name="Path 18202" d="M703.352,3806.638v-2.879h-2.879v5.759h-2.881v2.88h8.64v-2.88h-2.88Z" transform="translate(-664.069 -3761.594)" fill="#e6e7e8"/>
        <rect id="Rectangle_2365" data-name="Rectangle 2365" width="2.881" height="2.878" transform="translate(45.043 50.804)" fill="#e6e7e8"/>
        <path id="Path_18203" data-name="Path 18203" d="M700.473,3807.615h-2.881v5.76h2.881V3810.5h5.759v-2.881h-5.759Z" transform="translate(-664.069 -3753.933)" fill="#e6e7e8"/>
        <rect id="Rectangle_2366" data-name="Rectangle 2366" width="2.881" height="2.879" transform="translate(45.043 56.563)" fill="#e6e7e8"/>
        <rect id="Rectangle_2367" data-name="Rectangle 2367" width="2.879" height="2.881" transform="translate(36.405 59.442)" fill="#e6e7e8"/>
        <path id="Path_18204" data-name="Path 18204" d="M697.592,3813.386v2.881h2.881v-5.76h-2.881Z" transform="translate(-664.069 -3748.185)" fill="#e6e7e8"/>
        <path id="Path_18205" data-name="Path 18205" d="M705.28,3810.507H699.52v2.879h2.88v5.759h2.879v-2.878h2.881v-2.881H705.28Z" transform="translate(-660.237 -3748.185)" fill="#e6e7e8"/>
        <rect id="Rectangle_2368" data-name="Rectangle 2368" width="2.879" height="2.879" transform="translate(36.405 68.082)" fill="#e6e7e8"/>
        <path id="Path_18206" data-name="Path 18206" d="M705.987,3829.959v-19.617H686.37Z" transform="translate(-686.369 -3748.511)" fill="#e6e7e8"/>
        <path id="Path_18207" data-name="Path 18207" d="M692.937,3829.959h19.619l-19.619-19.617Z" transform="translate(-673.319 -3748.511)" fill="#e6e7e8" opacity="0.15"/>
      </g>
      <g id="Group_11374" data-name="Group 11374">
        <g id="Group_11373" data-name="Group 11373">
          <g id="Group_11362" data-name="Group 11362">
            <path id="Path_18208" data-name="Path 18208" d="M686.37,3850.372l19.618,19.619h61.83v-81.449H686.37Z" transform="translate(-686.37 -3788.542)" fill="#f7f7f7"/>
          </g>
          <g id="Group_11372" data-name="Group 11372" transform="translate(10.488 10.491)">
            <g id="Group_11364" data-name="Group 11364" transform="translate(40.316 40.314)">
              <path id="Path_18209" data-name="Path 18209" d="M703.377,3825.7h20.155v-20.154H703.377Z" transform="translate(-703.377 -3805.549)" fill="#14475f"/>
              <g id="Group_11363" data-name="Group 11363" transform="translate(2.877 2.876)">
                <path id="Path_18210" data-name="Path 18210" d="M706.56,3806.512h-2.22v14.4h14.4v-14.4H706.56Z" transform="translate(-704.34 -3806.512)" fill="#f7f7f7"/>
              </g>
              <rect id="Rectangle_2369" data-name="Rectangle 2369" width="8.638" height="8.638" transform="translate(5.758 5.759)" fill="#14475f"/>
            </g>
            <g id="Group_11366" data-name="Group 11366" transform="translate(0 40.314)">
              <path id="Path_18211" data-name="Path 18211" d="M689.881,3825.7h20.158v-20.154H689.881Z" transform="translate(-689.881 -3805.549)" fill="#14475f"/>
              <g id="Group_11365" data-name="Group 11365" transform="translate(2.88 2.876)">
                <path id="Path_18212" data-name="Path 18212" d="M693.062,3806.512h-2.217v14.4h14.4v-14.4H693.062Z" transform="translate(-690.845 -3806.512)" fill="#f7f7f7"/>
              </g>
              <rect id="Rectangle_2370" data-name="Rectangle 2370" width="8.638" height="8.638" transform="translate(5.759 5.759)" fill="#14475f"/>
            </g>
            <g id="Group_11368" data-name="Group 11368" transform="translate(0 0.001)">
              <path id="Path_18213" data-name="Path 18213" d="M689.881,3812.209h20.158v-20.155H689.881Z" transform="translate(-689.881 -3792.054)" fill="#14475f"/>
              <g id="Group_11367" data-name="Group 11367" transform="translate(2.88 2.877)">
                <path id="Path_18214" data-name="Path 18214" d="M693.062,3793.017h-2.217v14.4h14.4v-14.4H693.062Z" transform="translate(-690.845 -3793.017)" fill="#f7f7f7"/>
              </g>
              <path id="Path_18215" data-name="Path 18215" d="M691.809,3802.62h8.638v-8.639h-8.638Z" transform="translate(-686.049 -3788.225)" fill="#14475f"/>
            </g>
            <g id="Group_11370" data-name="Group 11370" transform="translate(40.316 0.001)">
              <path id="Path_18216" data-name="Path 18216" d="M703.377,3812.209h20.155v-20.155H703.377Z" transform="translate(-703.377 -3792.054)" fill="#14475f"/>
              <g id="Group_11369" data-name="Group 11369" transform="translate(2.877 2.877)">
                <path id="Path_18217" data-name="Path 18217" d="M706.56,3793.017h-2.22v14.4h14.4v-14.4H706.56Z" transform="translate(-704.34 -3793.017)" fill="#f7f7f7"/>
              </g>
              <path id="Path_18218" data-name="Path 18218" d="M705.3,3802.62h8.638v-8.639H705.3Z" transform="translate(-699.547 -3788.225)" fill="#14475f"/>
            </g>
            <g id="Group_11371" data-name="Group 11371">
              <rect id="Rectangle_2371" data-name="Rectangle 2371" width="2.881" height="2.879" transform="translate(28.796)" fill="#14475f"/>
              <path id="Path_18219" data-name="Path 18219" d="M701.448,3794.932v2.879h2.881v-5.757h-2.881Z" transform="translate(-666.893 -3792.054)" fill="#14475f"/>
              <rect id="Rectangle_2372" data-name="Rectangle 2372" width="2.881" height="2.881" transform="translate(23.036 5.757)" fill="#14475f"/>
              <rect id="Rectangle_2373" data-name="Rectangle 2373" width="2.881" height="2.881" transform="translate(28.796 5.757)" fill="#14475f"/>
              <path id="Path_18220" data-name="Path 18220" d="M701.448,3797.824v2.879h2.881v-5.757h-2.881Z" transform="translate(-666.893 -3786.307)" fill="#14475f"/>
              <rect id="Rectangle_2374" data-name="Rectangle 2374" width="2.881" height="2.879" transform="translate(34.555 17.276)" fill="#14475f"/>
              <path id="Path_18221" data-name="Path 18221" d="M696.616,3799.765h-2.879v2.879h2.879v2.879h2.88v-2.879h2.879v-2.879h-5.76Z" transform="translate(-682.218 -3776.73)" fill="#14475f"/>
              <path id="Path_18222" data-name="Path 18222" d="M701.436,3795.909h-2.879v5.76h2.879v11.517h2.88v-14.4h-2.88Z" transform="translate(-672.64 -3784.392)" fill="#14475f"/>
              <rect id="Rectangle_2375" data-name="Rectangle 2375" width="2.878" height="2.879" transform="translate(51.834 23.036)" fill="#14475f"/>
              <path id="Path_18223" data-name="Path 18223" d="M697.592,3801.682v5.757h2.881V3798.8h-2.881Z" transform="translate(-674.557 -3778.646)" fill="#14475f"/>
              <path id="Path_18224" data-name="Path 18224" d="M692.761,3799.765h-2.88v5.758h2.88v-2.879h2.88v5.76h2.879v-8.639h-5.759Z" transform="translate(-689.881 -3776.73)" fill="#14475f"/>
              <rect id="Rectangle_2376" data-name="Rectangle 2376" width="2.879" height="2.881" transform="translate(17.278 28.793)" fill="#14475f"/>
              <rect id="Rectangle_2377" data-name="Rectangle 2377" width="2.879" height="2.881" transform="translate(31.676 28.793)" fill="#14475f"/>
              <path id="Path_18225" data-name="Path 18225" d="M692.761,3805.535h-2.88v2.882h5.76v-5.76h-2.88Z" transform="translate(-689.881 -3770.982)" fill="#14475f"/>
              <path id="Path_18226" data-name="Path 18226" d="M698.532,3802.657h-2.879v2.878h-2.88v2.882h8.639v-2.882h-2.88Z" transform="translate(-684.134 -3770.982)" fill="#14475f"/>
              <path id="Path_18227" data-name="Path 18227" d="M704.33,3799.765h-2.881v2.879h2.881v5.76h-2.881v2.878h2.881v2.882h5.757v-2.882h-2.879v-8.638h2.879v-2.879H704.33Z" transform="translate(-666.893 -3776.73)" fill="#14475f"/>
              <path id="Path_18228" data-name="Path 18228" d="M712.981,3806.489v-5.76H710.1v5.76h-2.879v-5.76h-2.88v8.638H710.1v2.881h5.759v-2.881h-2.878Z" transform="translate(-661.147 -3774.814)" fill="#14475f"/>
              <path id="Path_18229" data-name="Path 18229" d="M711.076,3803.607v-2.878H708.2v8.638h5.76v-2.878h-2.88Z" transform="translate(-653.484 -3774.814)" fill="#14475f"/>
              <path id="Path_18230" data-name="Path 18230" d="M696.629,3805.535v2.882h2.878v-5.76h-2.878Z" transform="translate(-676.471 -3770.982)" fill="#14475f"/>
              <path id="Path_18231" data-name="Path 18231" d="M703.352,3805.535v-2.878h-2.879v5.76h-2.881v2.879h8.64v-2.879h-2.88Z" transform="translate(-674.557 -3770.982)" fill="#14475f"/>
              <rect id="Rectangle_2378" data-name="Rectangle 2378" width="2.881" height="2.878" transform="translate(34.555 40.313)" fill="#14475f"/>
              <path id="Path_18232" data-name="Path 18232" d="M700.473,3806.512h-2.881v5.76h2.881v-2.878h5.759v-2.882h-5.759Z" transform="translate(-674.557 -3763.321)" fill="#14475f"/>
              <rect id="Rectangle_2379" data-name="Rectangle 2379" width="2.881" height="2.879" transform="translate(34.555 46.072)" fill="#14475f"/>
              <rect id="Rectangle_2380" data-name="Rectangle 2380" width="2.879" height="2.881" transform="translate(25.917 48.951)" fill="#14475f"/>
              <path id="Path_18233" data-name="Path 18233" d="M697.592,3812.284v2.881h2.881V3809.4h-2.881Z" transform="translate(-674.557 -3757.573)" fill="#14475f"/>
              <path id="Path_18234" data-name="Path 18234" d="M705.28,3809.4H699.52v2.88h2.88v5.759h2.879v-2.878h2.881v-2.881H705.28Z" transform="translate(-670.725 -3757.573)" fill="#14475f"/>
              <rect id="Rectangle_2381" data-name="Rectangle 2381" width="2.879" height="2.879" transform="translate(25.917 57.591)" fill="#14475f"/>
            </g>
          </g>
          <path id="Path_18235" data-name="Path 18235" d="M705.987,3828.856V3809.24H686.37Z" transform="translate(-686.369 -3747.409)" fill="#fff"/>
          <path id="Path_18236" data-name="Path 18236" d="M692.937,3828.856h19.619l-19.619-19.616Z" transform="translate(-673.319 -3747.409)" fill="#6d6e70" opacity="0.15"/>
        </g>
      </g>
    </g>
  </g>
</svg>
