<svg xmlns="http://www.w3.org/2000/svg" width="470.189" height="386.029" viewBox="0 0 470.189 386.029">
  <g id="_20210623_063939-A" data-name="20210623_063939-A" transform="translate(0 6.087)">
    <g id="Group_7466" data-name="Group 7466" transform="translate(0 11.098)" opacity="0.15">
      <path id="Path_9296" data-name="Path 9296" d="M8.225,220.168A8.322,8.322,0,0,1,0,211.943V77H186.118V211.943a8.322,8.322,0,0,1-8.225,8.225H8.225Z" transform="translate(0 148.677)"/>
      <path id="Path_9297" data-name="Path 9297" d="M61.534,107.592a2.73,2.73,0,0,1-2.742,2.742H35.642a2.73,2.73,0,0,1-2.742-2.742V84.442A2.73,2.73,0,0,1,35.642,81.7h23.15a2.73,2.73,0,0,1,2.742,2.742Z" transform="translate(67.317 158.294)"/>
      <path id="Path_9298" data-name="Path 9298" d="M33.334,121.692a2.73,2.73,0,0,1-2.742,2.742H7.442A2.73,2.73,0,0,1,4.7,121.692V98.542A2.73,2.73,0,0,1,7.442,95.8h23.15a2.73,2.73,0,0,1,2.742,2.742Z" transform="translate(9.617 187.144)"/>
      <path id="Path_9299" data-name="Path 9299" d="M47.434,121.692a2.73,2.73,0,0,1-2.742,2.742H21.542a2.73,2.73,0,0,1-2.742-2.742V98.542A2.73,2.73,0,0,1,21.542,95.8H44.692a2.73,2.73,0,0,1,2.742,2.742Z" transform="translate(38.467 187.144)"/>
      <path id="Path_9300" data-name="Path 9300" d="M33.334,135.792a2.73,2.73,0,0,1-2.742,2.742H7.442A2.73,2.73,0,0,1,4.7,135.792v-23.15A2.73,2.73,0,0,1,7.442,109.9h23.15a2.73,2.73,0,0,1,2.742,2.742Z" transform="translate(9.617 215.994)"/>
      <path id="Path_9301" data-name="Path 9301" d="M47.434,135.792a2.73,2.73,0,0,1-2.742,2.742H21.542a2.73,2.73,0,0,1-2.742-2.742v-23.15a2.73,2.73,0,0,1,2.742-2.742H44.692a2.73,2.73,0,0,1,2.742,2.742Z" transform="translate(38.467 215.994)"/>
      <path id="Path_9302" data-name="Path 9302" d="M75.634,107.592a2.73,2.73,0,0,1-2.742,2.742H49.742A2.73,2.73,0,0,1,47,107.592V84.442A2.73,2.73,0,0,1,49.742,81.7h23.15a2.73,2.73,0,0,1,2.742,2.742Z" transform="translate(96.168 158.294)"/>
      <path id="Path_9303" data-name="Path 9303" d="M61.534,121.692a2.73,2.73,0,0,1-2.742,2.742H35.642a2.73,2.73,0,0,1-2.742-2.742V98.542A2.73,2.73,0,0,1,35.642,95.8h23.15a2.73,2.73,0,0,1,2.742,2.742Z" transform="translate(67.317 187.144)"/>
      <path id="Path_9304" data-name="Path 9304" d="M75.634,121.692a2.73,2.73,0,0,1-2.742,2.742H49.742A2.73,2.73,0,0,1,47,121.692V98.542A2.73,2.73,0,0,1,49.742,95.8h23.15a2.73,2.73,0,0,1,2.742,2.742Z" transform="translate(96.168 187.144)"/>
      <path id="Path_9305" data-name="Path 9305" d="M61.534,135.792a2.73,2.73,0,0,1-2.742,2.742H35.642a2.73,2.73,0,0,1-2.742-2.742v-23.15a2.73,2.73,0,0,1,2.742-2.742h23.15a2.73,2.73,0,0,1,2.742,2.742Z" transform="translate(67.317 215.994)"/>
      <path id="Path_9306" data-name="Path 9306" d="M75.634,135.792a2.73,2.73,0,0,1-2.742,2.742H49.742A2.73,2.73,0,0,1,47,135.792v-23.15a2.73,2.73,0,0,1,2.742-2.742h23.15a2.73,2.73,0,0,1,2.742,2.742Z" transform="translate(96.168 215.994)"/>
      <rect id="Rectangle_1125" data-name="Rectangle 1125" width="186.118" height="7.311" transform="translate(0 218.366)"/>
      <path id="Path_9307" data-name="Path 9307" d="M0,122.684V59.325A8.322,8.322,0,0,1,8.225,51.1H177.893a8.322,8.322,0,0,1,8.225,8.225v63.359Z" transform="translate(0 95.683)"/>
      <path id="Path_9308" data-name="Path 9308" d="M162.184,96.009a2.73,2.73,0,0,1-2.742,2.742h-152A2.73,2.73,0,0,1,4.7,96.009V58.542A2.73,2.73,0,0,1,7.442,55.8h152a2.73,2.73,0,0,1,2.742,2.742Z" transform="translate(9.617 105.299)"/>
      <rect id="Rectangle_1126" data-name="Rectangle 1126" width="71.584" height="21.627" transform="translate(14.317 243.649)"/>
      <rect id="Rectangle_1127" data-name="Rectangle 1127" width="64.578" height="14.317" transform="translate(17.972 247)"/>
      <rect id="Rectangle_1128" data-name="Rectangle 1128" width="3.655" height="14.317" transform="translate(59.704 247)"/>
      <rect id="Rectangle_1129" data-name="Rectangle 1129" width="3.655" height="14.317" transform="translate(36.858 247)"/>
      <text id="Cost" transform="translate(93.077 192.934)" font-size="26" font-family="Roboto-Bold, Roboto" font-weight="700"><tspan x="0" y="0">Cost</tspan></text>
      <path id="Path_9309" data-name="Path 9309" d="M5.4,10.5,84.6,73.555l60.618-41.123,101.74,100.522L307.88,89.7,435.207,223.424" transform="translate(11.049 12.61)" fill="none" stroke="#000" stroke-miterlimit="10" stroke-width="3.371"/>
      <path id="Path_9310" data-name="Path 9310" d="M137.7,95.664l24.674.609.609-24.674L173.34,82.261l-.609,24.674-24.674-.609Z" transform="translate(281.75 137.628)"/>
      <path id="Path_9311" data-name="Path 9311" d="M115.954,38.106a9.443,9.443,0,1,1-9.443,9.443,9.49,9.49,0,0,1,9.443-9.443m0-7.006a16.754,16.754,0,0,0,0,33.507,16.516,16.516,0,0,0,16.754-16.754A16.516,16.516,0,0,0,115.954,31.1Z" transform="translate(202.975 54.76)"/>
      <path id="Path_9312" data-name="Path 9312" d="M111.043,33.4a9.443,9.443,0,1,0,9.443,9.443C120.791,37.665,116.526,33.4,111.043,33.4Z" transform="translate(207.886 59.466)"/>
      <path id="Path_9313" data-name="Path 9313" d="M95.954,52.306a9.443,9.443,0,1,1-9.443,9.443c-.3-5.178,4.265-9.443,9.443-9.443m0-7.006a16.754,16.754,0,0,0,0,33.507,16.516,16.516,0,0,0,16.754-16.754c-.3-9.443-7.615-16.754-16.754-16.754Z" transform="translate(162.053 83.815)"/>
      <path id="Path_9314" data-name="Path 9314" d="M91.043,47.6a9.443,9.443,0,1,0,9.443,9.443A9.49,9.49,0,0,0,91.043,47.6Z" transform="translate(166.963 88.521)"/>
      <path id="Path_9315" data-name="Path 9315" d="M62.554,19.206a9.443,9.443,0,1,1-9.443,9.443c-.3-4.874,3.96-9.443,9.443-9.443m0-7.006a16.754,16.754,0,1,0,0,33.507A16.516,16.516,0,0,0,79.307,28.954C79,19.815,71.692,12.2,62.554,12.2Z" transform="translate(93.712 16.089)"/>
      <path id="Path_9316" data-name="Path 9316" d="M57.643,14.5a9.443,9.443,0,1,0,9.443,9.443A9.7,9.7,0,0,0,57.643,14.5Z" transform="translate(98.623 20.795)"/>
      <path id="Path_9317" data-name="Path 9317" d="M42.654,32.506a9.443,9.443,0,1,1-9.443,9.443c-.3-5.178,3.96-9.443,9.443-9.443m0-7.006a16.754,16.754,0,0,0,0,33.507A16.516,16.516,0,0,0,59.407,42.254C59.1,33.115,51.792,25.5,42.654,25.5Z" transform="translate(52.994 43.302)"/>
      <path id="Path_9318" data-name="Path 9318" d="M37.743,27.8a9.443,9.443,0,1,0,9.443,9.443A9.49,9.49,0,0,0,37.743,27.8Z" transform="translate(57.905 48.008)"/>
      <text id="_" data-name="$" transform="translate(300.343 256.547)" font-size="74" font-family="Roboto-Medium, Roboto" font-weight="500"><tspan x="0" y="0">$</tspan></text>
      <text id="_2" data-name="$" transform="translate(229.235 289.855)" font-size="48" font-family="Roboto-Regular, Roboto"><tspan x="0" y="0">$</tspan></text>
      <text id="_3" data-name="$" transform="translate(376.304 338.648)" font-size="38" font-family="Roboto-Regular, Roboto"><tspan x="0" y="0">$</tspan></text>
      <text id="_4" data-name="$" transform="translate(244.192 82.256)" font-size="59" font-family="Roboto-Regular, Roboto"><tspan x="0" y="0">$</tspan></text>
      <text id="_5" data-name="$" transform="translate(443.189 168.933)" font-size="48" font-family="Roboto-Regular, Roboto"><tspan x="0" y="0">$</tspan></text>
      <text id="_6" data-name="$" transform="translate(395.898 98.065)" font-size="41" font-family="Roboto-Regular, Roboto"><tspan x="0" y="0">$</tspan></text>
      <text id="_7" data-name="$" transform="translate(81.369 38)" font-size="41" font-family="Roboto-Regular, Roboto"><tspan x="0" y="0">$</tspan></text>
    </g>
    <g id="Group_7490" data-name="Group 7490" transform="translate(0 -1.087)">
      <g id="Group_7489" data-name="Group 7489">
        <g id="Group_7481" data-name="Group 7481" transform="translate(0 146.783)">
          <g id="Group_7480" data-name="Group 7480">
            <g id="Group_7479" data-name="Group 7479">
              <path id="Path_9319" data-name="Path 9319" d="M8.225,216.168A8.322,8.322,0,0,1,0,207.943V73H186.118V207.943a8.322,8.322,0,0,1-8.225,8.225H8.225Z" transform="translate(0 5.894)" fill="#14475f"/>
              <g id="Group_7477" data-name="Group 7477" transform="translate(14.317 93.211)">
                <g id="Group_7467" data-name="Group 7467" transform="translate(85.901)">
                  <path id="Path_9320" data-name="Path 9320" d="M61.534,103.592a2.73,2.73,0,0,1-2.742,2.742H35.642a2.73,2.73,0,0,1-2.742-2.742V80.442A2.73,2.73,0,0,1,35.642,77.7h23.15a2.73,2.73,0,0,1,2.742,2.742Z" transform="translate(-32.9 -77.7)" fill="#008f8d"/>
                </g>
                <g id="Group_7468" data-name="Group 7468" transform="translate(0 42.95)">
                  <path id="Path_9321" data-name="Path 9321" d="M33.334,117.692a2.73,2.73,0,0,1-2.742,2.742H7.442A2.73,2.73,0,0,1,4.7,117.692V94.542A2.73,2.73,0,0,1,7.442,91.8h23.15a2.73,2.73,0,0,1,2.742,2.742Z" transform="translate(-4.7 -91.8)" fill="#236384"/>
                </g>
                <g id="Group_7469" data-name="Group 7469" transform="translate(42.95 42.95)">
                  <path id="Path_9322" data-name="Path 9322" d="M47.434,117.692a2.73,2.73,0,0,1-2.742,2.742H21.542a2.73,2.73,0,0,1-2.742-2.742V94.542A2.73,2.73,0,0,1,21.542,91.8H44.692a2.73,2.73,0,0,1,2.742,2.742Z" transform="translate(-18.8 -91.8)" fill="#236384"/>
                </g>
                <g id="Group_7470" data-name="Group 7470" transform="translate(0 85.901)">
                  <path id="Path_9323" data-name="Path 9323" d="M33.334,131.792a2.73,2.73,0,0,1-2.742,2.742H7.442A2.73,2.73,0,0,1,4.7,131.792v-23.15A2.73,2.73,0,0,1,7.442,105.9h23.15a2.73,2.73,0,0,1,2.742,2.742Z" transform="translate(-4.7 -105.9)" fill="#236384"/>
                </g>
                <g id="Group_7471" data-name="Group 7471" transform="translate(42.95 85.901)">
                  <path id="Path_9324" data-name="Path 9324" d="M47.434,131.792a2.73,2.73,0,0,1-2.742,2.742H21.542a2.73,2.73,0,0,1-2.742-2.742v-23.15a2.73,2.73,0,0,1,2.742-2.742H44.692a2.73,2.73,0,0,1,2.742,2.742Z" transform="translate(-18.8 -105.9)" fill="#236384"/>
                </g>
                <g id="Group_7472" data-name="Group 7472" transform="translate(128.851)">
                  <path id="Path_9325" data-name="Path 9325" d="M75.634,103.592a2.73,2.73,0,0,1-2.742,2.742H49.742A2.73,2.73,0,0,1,47,103.592V80.442A2.73,2.73,0,0,1,49.742,77.7h23.15a2.73,2.73,0,0,1,2.742,2.742Z" transform="translate(-47 -77.7)" fill="#236384"/>
                </g>
                <g id="Group_7473" data-name="Group 7473" transform="translate(85.901 42.95)">
                  <path id="Path_9326" data-name="Path 9326" d="M61.534,117.692a2.73,2.73,0,0,1-2.742,2.742H35.642a2.73,2.73,0,0,1-2.742-2.742V94.542A2.73,2.73,0,0,1,35.642,91.8h23.15a2.73,2.73,0,0,1,2.742,2.742Z" transform="translate(-32.9 -91.8)" fill="#236384"/>
                </g>
                <g id="Group_7474" data-name="Group 7474" transform="translate(128.851 42.95)">
                  <path id="Path_9327" data-name="Path 9327" d="M75.634,117.692a2.73,2.73,0,0,1-2.742,2.742H49.742A2.73,2.73,0,0,1,47,117.692V94.542A2.73,2.73,0,0,1,49.742,91.8h23.15a2.73,2.73,0,0,1,2.742,2.742Z" transform="translate(-47 -91.8)" fill="#236384"/>
                </g>
                <g id="Group_7475" data-name="Group 7475" transform="translate(85.901 85.901)">
                  <path id="Path_9328" data-name="Path 9328" d="M61.534,131.792a2.73,2.73,0,0,1-2.742,2.742H35.642a2.73,2.73,0,0,1-2.742-2.742v-23.15a2.73,2.73,0,0,1,2.742-2.742h23.15a2.73,2.73,0,0,1,2.742,2.742Z" transform="translate(-32.9 -105.9)" fill="#236384"/>
                </g>
                <g id="Group_7476" data-name="Group 7476" transform="translate(128.851 85.901)">
                  <path id="Path_9329" data-name="Path 9329" d="M75.634,131.792a2.73,2.73,0,0,1-2.742,2.742H49.742A2.73,2.73,0,0,1,47,131.792v-23.15a2.73,2.73,0,0,1,2.742-2.742h23.15a2.73,2.73,0,0,1,2.742,2.742Z" transform="translate(-47 -105.9)" fill="#236384"/>
                </g>
              </g>
              <rect id="Rectangle_1130" data-name="Rectangle 1130" width="186.118" height="7.311" transform="translate(0 71.584)"/>
              <path id="Path_9330" data-name="Path 9330" d="M0,118.684V55.325A8.322,8.322,0,0,1,8.225,47.1H177.893a8.322,8.322,0,0,1,8.225,8.225v63.359Z" transform="translate(0 -47.1)" fill="#14475f"/>
              <path id="Path_9331" data-name="Path 9331" d="M162.184,92.009a2.73,2.73,0,0,1-2.742,2.742h-152A2.73,2.73,0,0,1,4.7,92.009V54.542A2.73,2.73,0,0,1,7.442,51.8h152a2.73,2.73,0,0,1,2.742,2.742Z" transform="translate(9.617 -37.483)" fill="#fff"/>
              <g id="Group_7478" data-name="Group 7478" transform="translate(14.317 96.867)">
                <rect id="Rectangle_1131" data-name="Rectangle 1131" width="71.584" height="21.627"/>
                <rect id="Rectangle_1132" data-name="Rectangle 1132" width="64.578" height="14.317" transform="translate(3.655 3.351)" fill="#262626"/>
                <rect id="Rectangle_1133" data-name="Rectangle 1133" width="3.655" height="14.317" transform="translate(45.387 3.351)"/>
                <rect id="Rectangle_1134" data-name="Rectangle 1134" width="3.655" height="14.317" transform="translate(22.541 3.351)"/>
              </g>
            </g>
          </g>
          <text id="Cost-2" data-name="Cost" transform="translate(93.077 46.152)" font-size="26" font-family="Roboto-Bold, Roboto" font-weight="700"><tspan x="0" y="0">Cost</tspan></text>
        </g>
        <g id="Group_7484" data-name="Group 7484" transform="translate(16.449 23.11)">
          <g id="Group_7483" data-name="Group 7483">
            <path id="Path_9332" data-name="Path 9332" d="M5.4,6.5,84.6,69.555l60.618-41.123,101.74,100.522L307.88,85.7,435.207,219.424" transform="translate(-5.4 -6.5)" fill="none" stroke="#0caba7" stroke-miterlimit="10" stroke-width="3.371"/>
            <g id="Group_7482" data-name="Group 7482" transform="translate(403.001 186.118)">
              <path id="Path_9333" data-name="Path 9333" d="M137.7,91.664l24.674.609.609-24.674L173.34,78.261l-.609,24.674-24.674-.609Z" transform="translate(-137.7 -67.6)" fill="#0caba7"/>
            </g>
          </g>
        </g>
        <g id="Group_7485" data-name="Group 7485" transform="translate(302.175 85.86)">
          <path id="Path_9334" data-name="Path 9334" d="M115.954,34.106a9.443,9.443,0,1,1-9.443,9.443,9.49,9.49,0,0,1,9.443-9.443m0-7.006a16.754,16.754,0,0,0,0,33.507,16.516,16.516,0,0,0,16.754-16.754A16.516,16.516,0,0,0,115.954,27.1Z" transform="translate(-99.2 -27.1)" fill="#0caba7"/>
          <path id="Path_9335" data-name="Path 9335" d="M111.043,29.4a9.443,9.443,0,1,0,9.443,9.443C120.791,33.665,116.526,29.4,111.043,29.4Z" transform="translate(-94.289 -22.394)" fill="#fff"/>
        </g>
        <g id="Group_7486" data-name="Group 7486" transform="translate(241.253 129.115)">
          <path id="Path_9336" data-name="Path 9336" d="M95.954,48.306a9.443,9.443,0,1,1-9.443,9.443c-.3-5.178,4.265-9.443,9.443-9.443m0-7.006a16.754,16.754,0,0,0,0,33.507,16.516,16.516,0,0,0,16.754-16.754c-.3-9.443-7.615-16.754-16.754-16.754Z" transform="translate(-79.2 -41.3)" fill="#0caba7"/>
          <path id="Path_9337" data-name="Path 9337" d="M91.043,43.6a9.443,9.443,0,1,0,9.443,9.443A9.49,9.49,0,0,0,91.043,43.6Z" transform="translate(-74.289 -36.594)" fill="#fff"/>
        </g>
        <g id="Group_7487" data-name="Group 7487" transform="translate(139.512 28.289)">
          <path id="Path_9338" data-name="Path 9338" d="M62.554,15.206a9.443,9.443,0,1,1-9.443,9.443c-.3-4.874,3.96-9.443,9.443-9.443m0-7.006a16.754,16.754,0,1,0,0,33.507A16.516,16.516,0,0,0,79.307,24.954C79,15.815,71.692,8.2,62.554,8.2Z" transform="translate(-45.8 -8.2)" fill="#0caba7"/>
          <path id="Path_9339" data-name="Path 9339" d="M57.643,10.5a9.443,9.443,0,1,0,9.443,9.443A9.7,9.7,0,0,0,57.643,10.5Z" transform="translate(-40.889 -3.494)" fill="#fff"/>
        </g>
        <g id="Group_7488" data-name="Group 7488" transform="translate(78.894 68.802)">
          <path id="Path_9340" data-name="Path 9340" d="M42.654,28.506a9.443,9.443,0,1,1-9.443,9.443c-.3-5.178,3.96-9.443,9.443-9.443m0-7.006a16.754,16.754,0,0,0,0,33.507A16.516,16.516,0,0,0,59.407,38.254C59.1,29.115,51.792,21.5,42.654,21.5Z" transform="translate(-25.9 -21.5)" fill="#0caba7"/>
          <path id="Path_9341" data-name="Path 9341" d="M37.743,23.8a9.443,9.443,0,1,0,9.443,9.443A9.49,9.49,0,0,0,37.743,23.8Z" transform="translate(-20.989 -16.794)" fill="#fff"/>
        </g>
        <text id="_8" data-name="$" transform="translate(300.343 256.547)" fill="#fff" font-size="74" font-family="Roboto-Medium, Roboto" font-weight="500"><tspan x="0" y="0">$</tspan></text>
        <text id="_9" data-name="$" transform="translate(229.235 289.855)" fill="#fff" font-size="48" font-family="Roboto-Regular, Roboto"><tspan x="0" y="0">$</tspan></text>
        <text id="_10" data-name="$" transform="translate(376.304 338.648)" fill="#fff" font-size="38" font-family="Roboto-Regular, Roboto"><tspan x="0" y="0">$</tspan></text>
        <text id="_11" data-name="$" transform="translate(244.192 82.256)" fill="#fff" font-size="59" font-family="Roboto-Regular, Roboto"><tspan x="0" y="0">$</tspan></text>
        <text id="_12" data-name="$" transform="translate(443.189 168.933)" fill="#fff" font-size="48" font-family="Roboto-Regular, Roboto"><tspan x="0" y="0">$</tspan></text>
        <text id="_13" data-name="$" transform="translate(395.898 98.065)" fill="#fff" font-size="41" font-family="Roboto-Regular, Roboto"><tspan x="0" y="0">$</tspan></text>
        <text id="_14" data-name="$" transform="translate(81.369 38)" fill="#fff" font-size="41" font-family="Roboto-Regular, Roboto"><tspan x="0" y="0">$</tspan></text>
      </g>
    </g>
  </g>
</svg>
