<svg id="Component_4_2" data-name="Component 4 – 2" xmlns="http://www.w3.org/2000/svg" width="1002.288" height="583.371" viewBox="0 0 1002.288 583.371">
  <g id="Group_56" data-name="Group 56" transform="translate(-461.461 -202.1)" style="isolation: isolate">
    <g id="Group_45" data-name="Group 45" transform="translate(820.19 228.994)">
      <path id="Path_108" data-name="Path 108" d="M694.22,231.47c3.255-.445,6.516-.858,9.757-1.387.334-.054.783-.786.8-1.214.076-2.5.037-4.993.038-7.49V219.55h17.668v7.734l29.543-4.5,1.739,11.336-9.127,1.455v5.309h4.61v9.924H736.879V240.99h4.374v-4.913l-18.593,2.834v33.919h8.719V285.47H695.988v-12.6H704.7V241.685l-8.643,1.276-1.836-10.215Zm15.369,5v4.93h6.043Zm8.225,8.359H711.76l6.054,4.929Zm-.012,21.273h-6.131l6.131,4.986Zm-8.221-18.975v4.983h6.085Zm6.131-16.334L709.6,225.8V230.8Zm2.068,8.279V234.1h-6.065Zm-.017,21.326v-4.912h-6.012Zm-8.151-2.577v4.9h5.965Zm-.014,10.67v4.243h5.168Zm8.205-44.3h-5.169L717.8,228.4Z" transform="translate(-694.22 -219.55)" fill="#f88847"/>
      <path id="Path_109" data-name="Path 109" d="M730.834,266.438H750.9V242.312h10.59v30.847h-40.94V253.928h10.281Z" transform="translate(-679.969 -207.231)" fill="#f88847"/>
      <path id="Path_110" data-name="Path 110" d="M744.921,262.81H728.372V245.925h16.549Z" transform="translate(-675.737 -205.276)" fill="#f88847"/>
    </g>
    <path id="Path_111" data-name="Path 111" d="M960.6,488.4H904.371l-28.435-49.254,28.111-48.691,1.941,1.12-27.467,47.571,27.145,47.013H960.6Z" transform="translate(224.315 101.939)" fill="#f88847"/>
    <path id="Path_112" data-name="Path 112" d="M1015.2,519.829H958.331L929.9,470.577l28.435-49.254H1015.2l28.437,49.254Zm-55.577-2.239h54.284l27.144-47.013-27.144-47.013H959.626l-27.145,47.013Z" transform="translate(253.518 118.644)" fill="#f88847"/>
    <rect id="Rectangle_28" data-name="Rectangle 28" width="2.24" height="55.58" transform="translate(1267.104 637.912) rotate(-30)" fill="#f88847"/>
    <path id="Path_113" data-name="Path 113" d="M1040.278,550.5l-1.941-1.12,27.467-47.573-27.817-48.132,1.939-1.122,28.464,49.254Z" transform="translate(312.017 135.546)" fill="#f88847"/>
    <rect id="Rectangle_29" data-name="Rectangle 29" width="56.24" height="2.239" transform="translate(1350.012 589.224) rotate(-59.991)" fill="#f88847"/>
    <rect id="Rectangle_30" data-name="Rectangle 30" width="59.802" height="2.239" transform="translate(1379.116 636.233)" fill="#f88847"/>
    <path id="Path_114" data-name="Path 114" d="M899.525,352.641l27.185,47.084L899.525,446.81H845.159l-27.185-47.085,27.185-47.084Zm1.4-2.426H843.757l-28.585,49.51,28.585,49.513h57.172l28.583-49.513-28.583-49.51Z" transform="translate(191.429 80.16)" fill="#f88847"/>
    <path id="Path_115" data-name="Path 115" d="M954.177,423.243a3.64,3.64,0,1,1-3.637-3.64A3.641,3.641,0,0,1,954.177,423.243Z" transform="translate(262.719 117.713)" fill="#f88847"/>
    <path id="Path_116" data-name="Path 116" d="M1061.793,423.243a3.64,3.64,0,1,1-3.639-3.64A3.641,3.641,0,0,1,1061.793,423.243Z" transform="translate(320.961 117.713)" fill="#f88847"/>
    <path id="Path_117" data-name="Path 117" d="M1007.776,517.875a3.639,3.639,0,1,1-3.64-3.64A3.641,3.641,0,0,1,1007.776,517.875Z" transform="translate(291.727 168.928)" fill="#f88847"/>
    <path id="Path_118" data-name="Path 118" d="M953.683,485.789a3.639,3.639,0,1,1-3.64-3.64A3.639,3.639,0,0,1,953.683,485.789Z" transform="translate(262.452 151.563)" fill="#f88847"/>
    <path id="Path_119" data-name="Path 119" d="M1098.235,485.789a3.639,3.639,0,1,1-3.64-3.64A3.641,3.641,0,0,1,1098.235,485.789Z" transform="translate(340.684 151.563)" fill="#f88847"/>
    <path id="Path_120" data-name="Path 120" d="M1061.793,485.789a3.64,3.64,0,1,1-3.639-3.64A3.64,3.64,0,0,1,1061.793,485.789Z" transform="translate(320.961 151.563)" fill="#f88847"/>
    <path id="Path_121" data-name="Path 121" d="M881.744,423.243a3.64,3.64,0,1,1-3.64-3.64A3.641,3.641,0,0,1,881.744,423.243Z" transform="translate(223.518 117.713)" fill="#f88847"/>
    <path id="Path_122" data-name="Path 122" d="M900.164,392.192a3.64,3.64,0,1,1-3.64-3.64A3.639,3.639,0,0,1,900.164,392.192Z" transform="translate(233.486 100.908)" fill="#f88847"/>
    <path id="Path_123" data-name="Path 123" d="M653.712,340.075l-4.331-2.5.761-1.319,4.329,2.5Zm-6.778-3.913-4.331-2.5.76-1.318,4.331,2.5Zm-6.78-3.913-4.329-2.5.761-1.316,4.329,2.5Zm-6.777-3.915-4.331-2.5.76-1.319,4.331,2.5Zm-6.78-3.913-4.329-2.5.761-1.318,4.329,2.5Zm-6.777-3.912-4.331-2.5.761-1.318,4.329,2.5Zm-6.78-3.915-4.329-2.5.761-1.318,4.329,2.5Zm-6.777-3.913-4.331-2.5.76-1.318,4.332,2.5Zm-6.778-3.913-4.331-2.5.761-1.319,4.331,2.5Zm-6.778-3.913-4.331-2.5.761-1.318,4.329,2.5Zm-6.778-3.913-4.331-2.5.761-1.318,4.331,2.5Zm-6.778-3.915-4.331-2.5.761-1.318,4.331,2.5Zm-6.778-3.913-4.331-2.5.761-1.319,4.331,2.5ZM565.6,289.2l-4.331-2.5.761-1.318,4.331,2.5Z" transform="translate(54.014 45.073)" fill="#f88847"/>
    <path id="Path_124" data-name="Path 124" d="M630.738,419.81l-.763-1.318,4.325-2.509.764,1.316Zm6.771-3.928-.764-1.316,4.325-2.511.764,1.316Zm6.769-3.929-.763-1.316,4.325-2.511.763,1.316Zm6.771-3.928-.763-1.316,4.325-2.508.763,1.316Zm6.769-3.925-.763-1.319,4.325-2.507.763,1.316Zm6.771-3.929-.763-1.316,4.325-2.511.763,1.316Zm6.77-3.929-.764-1.316,4.326-2.511.763,1.318Zm6.769-3.928L677.362,391l4.326-2.508.763,1.316Zm6.771-3.927-.764-1.316,4.325-2.509.764,1.316Zm6.769-3.929-.763-1.315,4.325-2.511.764,1.316Zm6.769-3.928-.763-1.315L702,376.7l.765,1.318Zm6.77-3.925-.763-1.318,4.325-2.509.764,1.316Zm6.771-3.929-.764-1.316,4.326-2.509.763,1.315Zm6.769-3.929-.763-1.316,4.325-2.509.763,1.316Z" transform="translate(91.2 88.12)" fill="#f88847"/>
    <path id="Path_125" data-name="Path 125" d="M467.041,361.963l-.581-1.395,4.579-1.911.583,1.393Zm7.168-2.993-.581-1.395,4.581-1.911.583,1.393Zm7.171-2.993-.583-1.395,4.58-1.911.581,1.393Zm7.168-2.993-.583-1.395,4.58-1.913.583,1.395Zm7.17-2.993-.583-1.395,4.58-1.913.581,1.395ZM502.886,347l-.581-1.395,4.579-1.913.583,1.393Zm7.17-2.993-.583-1.4,4.58-1.911.581,1.393Zm7.168-2.995-.581-1.393,4.579-1.913.583,1.395Zm7.168-2.993-.581-1.395,4.58-1.911.583,1.393Zm7.17-2.993-.581-1.393,4.579-1.913.583,1.395Zm7.17-2.993-.583-1.393,4.58-1.914.583,1.395Zm7.168-2.993-.581-1.393,4.579-1.914.583,1.395Zm7.17-2.993-.583-1.393,4.58-1.914.583,1.395Zm7.17-2.993-.583-1.395,4.579-1.913.583,1.395Zm7.168-2.993-.582-1.395,4.58-1.911.583,1.393Zm7.17-2.993-.583-1.395,4.581-1.911.581,1.393Zm7.168-2.995-.583-1.393,4.581-1.911.583,1.393Zm7.17-2.993-.583-1.393,4.58-1.913.581,1.395Zm7.168-2.993-.581-1.393,4.579-1.913.583,1.395Zm216.289-5.047L808,300.423l.8-1.33,4.368,2.615ZM612.028,300.4l-.766-1.35,4.437-2.518.766,1.352Zm193.507-1.458-4.366-2.615.8-1.33,4.368,2.615Zm-186.562-2.483-.766-1.352,4.439-2.517.764,1.35ZM798.7,294.851l-4.368-2.614.8-1.33,4.368,2.614Zm-172.781-2.33-.766-1.352,4.437-2.518.766,1.35Zm165.946-1.762-4.366-2.617.8-1.329,4.368,2.615Zm-159-2.181-.766-1.35,4.437-2.518.766,1.35Zm152.166-1.913-4.368-2.615.8-1.329,4.366,2.614Zm-145.22-2.03-.768-1.349,4.439-2.52.766,1.352Zm138.383-2.064-4.366-2.614.8-1.33,4.368,2.615ZM646.756,280.7l-.768-1.35,4.437-2.518.768,1.352Zm124.6-2.215-4.368-2.615.8-1.33,4.368,2.615ZM653.7,276.754l-.767-1.35,4.437-2.518.768,1.352Zm110.82-2.367-4.366-2.615.8-1.329,4.368,2.614Zm-103.875-1.574-.766-1.352,4.437-2.517.766,1.35Zm97.04-2.52-4.366-2.615.8-1.329,4.368,2.615Zm-90.1-1.421-.764-1.352L671.262,265l.766,1.35Zm83.26-2.671-4.368-2.615.8-1.33,4.366,2.615Zm-76.314-1.271-.766-1.35,4.437-2.518.766,1.35Zm69.479-2.822-4.368-2.615.8-1.329,4.368,2.614Zm-62.533-1.119-.767-1.35,4.439-2.52.766,1.352Zm55.7-2.975L732.81,255.4l.8-1.33,4.366,2.615Zm-48.751-.968-.766-1.35,4.437-2.518.766,1.35Zm41.914-3.126-4.366-2.614.8-1.33,4.368,2.615Zm-34.968-.815-.767-1.35,4.437-2.518.767,1.35Zm28.133-3.277-4.366-2.614.8-1.33L724.3,248.5Zm-21.188-.664-.766-1.352,4.437-2.517.766,1.35Z" transform="translate(2.705 23.378)" fill="#f88847"/>
    <path id="Path_126" data-name="Path 126" d="M762.976,242.3v3.371h1.262l1.232,1.25,1.046-1.033-3.54-3.588Zm5.456,5.531-1.045,1.031,3.391,3.437,1.046-1.033-3.392-3.435Zm-3.987.567h-1.469v4.829h1.469V248.4Zm9.295,4.812-1.047,1.031,3.391,3.438,1.046-1.033-3.391-3.437Zm-9.295,2.746h-1.469v4.829h1.469v-4.829Zm14.6,2.634L778,259.626l3.391,3.437,1.047-1.031-3.391-3.437Zm-14.6,4.923h-1.469v4.829h1.469v-4.829Zm19.911.456L783.309,265l3.391,3.438,1.046-1.033-3.391-3.437Zm5.306,5.379-1.046,1.033,3.392,3.437,1.045-1.033-3.391-3.437Zm-25.217,1.721h-1.469V275.9h1.469v-4.829Zm30.525,3.659-1.046,1.031,3.391,3.437,1.046-1.031-3.391-3.437Zm-30.525,3.9h-1.469v4.829h1.469v-4.829Zm35.833,1.48-1.046,1.033,3.391,3.437,1.045-1.033-3.389-3.437Zm5.306,5.38-1.045,1.031,3.391,3.437,1.047-1.031-3.392-3.437Zm-41.139.7h-1.469v4.827h1.469v-4.827Zm46.449,4.682-1.048,1.033,3.391,3.437,1.048-1.033-3.391-3.437Zm-46.449,2.874h-1.469v4.829h1.469v-4.829Zm51.753,2.506-1.045,1.031,3.392,3.437,1.045-1.031-3.392-3.437ZM764.445,301.3h-1.469v4.829h1.469V301.3Zm57.063.328-1.048,1.033,3.391,3.435,1.048-1.031-3.391-3.437Zm5.3,5.379-1.045,1.033,3.392,3.437,1.045-1.033-3.392-3.437Zm-62.368,1.851h-1.469v4.829h1.469v-4.829Zm67.677,3.529-1.045,1.033,3.388,3.437,1.048-1.033-3.391-3.437Zm-67.677,4.027h-1.469v4.829h1.469v-4.829Zm72.985,1.352-1.048,1.033,3.392,3.437,1.046-1.033-3.391-3.437Zm5.307,5.38-1.045,1.031,3.391,3.437,1.045-1.031-3.391-3.437Zm-78.292.826h-1.469V328.8h1.469v-4.827Zm83.6,4.553L847,329.559,850.388,333l1.046-1.033-3.391-3.437Zm-83.6,3h-1.469v4.827h1.469V331.53Zm88.907,2.375-1.046,1.033,3.391,3.437,1.046-1.033-3.391-3.437Zm-88.907,5.182h-1.469v4.827h1.469v-4.827Zm94.214.2-1.045,1.033L861,343.755l1.045-1.033-3.391-3.437Zm5.308,5.38L862.92,345.7l3.391,3.437,1.046-1.031-3.391-3.437Zm-99.521,1.977h-1.469v4.829h1.469v-4.829Zm104.828,3.4-1.045,1.033,3.391,3.437,1.045-1.033-3.391-3.437ZM764.445,354.2h-1.469v4.829h1.469V354.2Zm110.136,1.224-1.045,1.033,3.391,3.437,1.045-1.031-3.391-3.438Zm5.308,5.38-1.047,1.033,1.105,1.119,1.046-1.031-1.105-1.121Z" transform="translate(163.18 21.758)" fill="#f88847"/>
    <path id="Path_127" data-name="Path 127" d="M555.051,244.974h-5v-1.521h5Zm-7.826,0h-5v-1.521h5Zm-7.826,0h-5v-1.521h5Zm-7.828,0h-5v-1.521h5Zm-7.826,0h-5v-1.521h5Zm-7.826,0h-5v-1.521h5Zm-7.828,0h-5v-1.521h5Zm-7.826,0h-5v-1.521h5Zm-7.826,0h-5v-1.521h5Z" transform="translate(14.058 22.38)" fill="#f88847"/>
    <path id="Path_128" data-name="Path 128" d="M560.173,379.413l-.766-1.373,4.51-2.52.766,1.372Zm7.06-3.945-.768-1.373,4.51-2.52.767,1.373Zm7.059-3.944-.767-1.373,4.509-2.52L578.8,369Zm7.059-3.944-.766-1.373,4.51-2.52.766,1.372Zm7.06-3.944-.768-1.375,4.51-2.518.768,1.372Zm7.059-3.945-.768-1.372,4.51-2.521.768,1.373Zm7.059-3.944-.766-1.373,4.51-2.52.766,1.373Zm7.059-3.944-.766-1.373,4.51-2.52.766,1.373Zm7.06-3.945-.767-1.372,4.509-2.52.768,1.373Zm7.059-3.944-.767-1.372,4.509-2.521.768,1.373Zm7.059-3.944L630,338.6l4.51-2.518.766,1.372Zm7.059-3.944-.766-1.373,4.51-2.52.766,1.373Zm7.06-3.946-.767-1.372,4.51-2.52.768,1.372Zm7.059-3.944-.766-1.372,4.508-2.52.768,1.372Z" transform="translate(53.009 66.105)" fill="#f88847"/>
    <path id="Path_129" data-name="Path 129" d="M640.745,327.591H569.352l-36.01-62.372,35.7-61.828,1.883,1.088-35.069,60.741,34.755,60.2h70.138Z" transform="translate(38.902 0.699)" fill="#f88847"/>
    <rect id="Rectangle_31" data-name="Rectangle 31" width="70.765" height="2.173" transform="matrix(0.499, -0.866, 0.866, 0.499, 678.726, 571.81)" fill="#f88847"/>
    <path id="Path_130" data-name="Path 130" d="M710.079,367.545H638.057l-36.01-62.371,36.01-62.371h72.022l36.01,62.371Zm-70.767-2.173h69.511l34.754-60.2-34.754-60.2H639.312l-34.754,60.2Z" transform="translate(76.085 22.029)" fill="#f88847"/>
    <path id="Path_131" data-name="Path 131" d="M709.968,446.884H637.947l-35.7-61.828,1.882-1.087L639.2,444.71h69.51l34.755-60.2L708.4,323.771l1.883-1.088,35.7,61.828Z" transform="translate(76.196 65.26)" fill="#f88847"/>
    <path id="Path_132" data-name="Path 132" d="M641.372,407.311h-72.02l-36.01-62.372,36.01-62.372h71.393v2.174H570.607l-34.755,60.2,34.755,60.2h69.51l35.07-60.741,1.882,1.088Z" transform="translate(38.902 43.549)" fill="#f88847"/>
    <path id="Path_133" data-name="Path 133" d="M766.3,406.767l-1.882-1.087,35.068-60.741-34.755-60.2H694.6v-2.174h71.393L802,344.939Z" transform="translate(126.173 43.549)" fill="#f88847"/>
    <rect id="Rectangle_32" data-name="Rectangle 32" width="70.765" height="2.174" transform="translate(890.596 326.66) rotate(-60.003)" fill="#f88847"/>
    <rect id="Rectangle_33" data-name="Rectangle 33" width="120.926" height="2.174" transform="translate(926.918 387.4)" fill="#f88847"/>
    <rect id="Rectangle_34" data-name="Rectangle 34" width="108.505" height="2.174" transform="translate(464.995 387.4)" fill="#f88847"/>
    <path id="Path_134" data-name="Path 134" d="M607.8,364.04a3.533,3.533,0,1,1-3.532-3.532A3.533,3.533,0,0,1,607.8,364.04Z" transform="translate(75.376 85.731)" fill="#f88847"/>
    <path id="Path_135" data-name="Path 135" d="M561.888,364.04a3.533,3.533,0,1,1-3.534-3.532A3.535,3.535,0,0,1,561.888,364.04Z" transform="translate(50.527 85.731)" fill="#f88847"/>
    <path id="Path_136" data-name="Path 136" d="M607.8,443.571a3.533,3.533,0,1,1-3.532-3.534A3.531,3.531,0,0,1,607.8,443.571Z" transform="translate(75.376 128.772)" fill="#f88847"/>
    <path id="Path_137" data-name="Path 137" d="M630.763,324.277a3.534,3.534,0,1,1-3.534-3.534A3.535,3.535,0,0,1,630.763,324.277Z" transform="translate(87.801 64.21)" fill="#f88847"/>
    <path id="Path_138" data-name="Path 138" d="M630.763,403.8a3.534,3.534,0,1,1-3.534-3.531A3.535,3.535,0,0,1,630.763,403.8Z" transform="translate(87.801 107.252)" fill="#f88847"/>
    <path id="Path_139" data-name="Path 139" d="M676.882,324.277a3.534,3.534,0,1,1-3.534-3.534A3.535,3.535,0,0,1,676.882,324.277Z" transform="translate(112.761 64.21)" fill="#f88847"/>
    <path id="Path_140" data-name="Path 140" d="M676.882,244.749a3.534,3.534,0,1,1-3.534-3.534A3.535,3.535,0,0,1,676.882,244.749Z" transform="translate(112.761 21.169)" fill="#f88847"/>
    <path id="Path_141" data-name="Path 141" d="M630.593,244.749a3.533,3.533,0,1,1-3.534-3.534A3.535,3.535,0,0,1,630.593,244.749Z" transform="translate(87.71 21.169)" fill="#f88847"/>
    <path id="Path_142" data-name="Path 142" d="M768.245,324.277a3.533,3.533,0,1,1-3.534-3.534A3.535,3.535,0,0,1,768.245,324.277Z" transform="translate(162.207 64.21)" fill="#f88847"/>
    <path id="Path_143" data-name="Path 143" d="M846.706,324.277a3.532,3.532,0,1,1-3.532-3.534A3.533,3.533,0,0,1,846.706,324.277Z" transform="translate(204.672 64.21)" fill="#f88847"/>
    <path id="Path_144" data-name="Path 144" d="M538.93,324.277a3.533,3.533,0,1,1-3.532-3.534A3.534,3.534,0,0,1,538.93,324.277Z" transform="translate(38.102 64.21)" fill="#f88847"/>
    <path id="Path_145" data-name="Path 145" d="M468.527,324.277a3.533,3.533,0,1,1-3.532-3.534A3.533,3.533,0,0,1,468.527,324.277Z" transform="translate(0 64.21)" fill="#f88847"/>
    <path id="Path_146" data-name="Path 146" d="M607.8,284.513a3.533,3.533,0,1,1-3.532-3.534A3.533,3.533,0,0,1,607.8,284.513Z" transform="translate(75.376 42.689)" fill="#f88847"/>
    <path id="Path_147" data-name="Path 147" d="M561.888,284.513a3.533,3.533,0,1,1-3.534-3.534A3.535,3.535,0,0,1,561.888,284.513Z" transform="translate(50.527 42.689)" fill="#f88847"/>
    <path id="Path_148" data-name="Path 148" d="M745.214,284.513a3.533,3.533,0,1,1-3.534-3.534A3.535,3.535,0,0,1,745.214,284.513Z" transform="translate(149.744 42.689)" fill="#f88847"/>
    <path id="Path_149" data-name="Path 149" d="M768.245,244.749a3.533,3.533,0,1,1-3.534-3.534A3.535,3.535,0,0,1,768.245,244.749Z" transform="translate(162.207 21.169)" fill="#f88847"/>
    <path id="Path_150" data-name="Path 150" d="M699.3,284.513a3.533,3.533,0,1,1-3.534-3.534A3.534,3.534,0,0,1,699.3,284.513Z" transform="translate(124.894 42.689)" fill="#f88847"/>
    <path id="Path_151" data-name="Path 151" d="M676.882,403.8a3.534,3.534,0,1,1-3.534-3.531A3.535,3.535,0,0,1,676.882,403.8Z" transform="translate(112.761 107.252)" fill="#f88847"/>
    <path id="Path_152" data-name="Path 152" d="M699.3,364.04a3.533,3.533,0,1,1-3.534-3.532A3.534,3.534,0,0,1,699.3,364.04Z" transform="translate(124.894 85.731)" fill="#f88847"/>
    <path id="Path_153" data-name="Path 153" d="M745.214,364.04a3.533,3.533,0,1,1-3.534-3.532A3.535,3.535,0,0,1,745.214,364.04Z" transform="translate(149.744 85.731)" fill="#f88847"/>
    <path id="Path_154" data-name="Path 154" d="M538.93,244.749a3.533,3.533,0,1,1-3.532-3.534A3.534,3.534,0,0,1,538.93,244.749Z" transform="translate(38.102 21.169)" fill="#f88847"/>
    <path id="Path_155" data-name="Path 155" d="M561.888,205.634a3.533,3.533,0,1,1-3.534-3.534A3.535,3.535,0,0,1,561.888,205.634Z" transform="translate(50.527 0)" fill="#f88847"/>
    <path id="Path_156" data-name="Path 156" d="M880.909,423.111l-.724,1.221,4.02,2.377.723-1.222-4.018-2.375Zm6.286,3.719-.723,1.222,4.018,2.378.723-1.222L887.2,426.83Zm6.287,3.722-.723,1.221,4.018,2.378.723-1.224-4.018-2.375Zm6.29,3.719-.724,1.224,4.018,2.377.723-1.222-4.016-2.378Zm6.287,3.72-.724,1.222,4.018,2.378.723-1.222-4.016-2.378Zm6.288,3.722-.726,1.222,4.018,2.376.723-1.222-4.015-2.377Zm6.287,3.721-.723,1.221,4.016,2.378.724-1.222-4.018-2.376Zm6.286,3.72-.723,1.222,4.016,2.377.726-1.222-4.019-2.377Zm6.288,3.719-.723,1.222,4.018,2.378.723-1.222-4.018-2.378Zm6.287,3.722-.723,1.222,4.018,2.378.723-1.224-4.018-2.377Zm6.286,3.719-.723,1.222,4.018,2.378.724-1.222-4.019-2.378Zm6.29,3.722-.724,1.222,4.018,2.378.723-1.224-4.016-2.377Z" transform="translate(226.614 119.612)" fill="#f88847"/>
    <path id="Path_157" data-name="Path 157" d="M952.589,515.225l-.744-1.288,4.232-2.444.744,1.288Zm6.623-3.825-.743-1.288,4.232-2.446.744,1.287Zm6.624-3.828-.744-1.287,4.231-2.446.744,1.288Zm6.624-3.827-.744-1.288,4.231-2.443.744,1.287Zm6.624-3.825-.744-1.288,4.231-2.446.744,1.288Zm6.622-3.828-.744-1.288,4.232-2.444.744,1.288Zm6.624-3.827-.744-1.287,4.231-2.444.744,1.288Zm6.624-3.825-.744-1.288,4.23-2.446.744,1.288Zm6.624-3.828-.744-1.288,4.231-2.444.744,1.288Zm6.621-3.825-.741-1.288,4.231-2.444.744,1.285Zm6.624-3.828-.744-1.287,4.232-2.446.744,1.288Zm6.624-3.827-.745-1.288,4.232-2.443.743,1.287Zm6.624-3.825-.744-1.288,4.232-2.444.743,1.287Zm6.623-3.828-.745-1.287,4.231-2.446.746,1.288Zm6.624-3.827-.744-1.287,4.23-2.444.744,1.288Zm6.624-3.825-.744-1.288,4.23-2.446.745,1.288Zm6.621-3.828-.741-1.288,4.231-2.444.744,1.288Zm6.624-3.825-.744-1.288,4.234-2.444.743,1.288Zm6.624-3.827-.744-1.288,4.232-2.446.744,1.288Zm6.624-3.828-.744-1.288,4.232-2.443.744,1.287Zm6.624-3.825-.744-1.288,4.232-2.444.745,1.287Zm6.623-3.827-.744-1.288,4.23-2.446.748,1.289Zm6.624-3.828-.744-1.287,4.23-2.444.745,1.288Zm6.624-3.825-.744-1.288,4.231-2.444.744,1.287Z" transform="translate(265.397 119.81)" fill="#f88847" style="mix-blend-mode: screen;isolation: isolate"/>
    <path id="Path_158" data-name="Path 158" d="M621.865,230.716l-5.6-5.6a9.116,9.116,0,0,0-7.254-2.535,11.4,11.4,0,0,0-7.06,3.364l-10.75,10.75a4.119,4.119,0,0,0-.6.772,9.656,9.656,0,0,0-3.568-.371,11.418,11.418,0,0,0-7.06,3.363l-17.149,17.152a11.456,11.456,0,0,0-3.36,6.928,9,9,0,0,0,2.532,7.385l5.6,5.6a8.949,8.949,0,0,0,6.39,2.578c.333,0,.669-.015.994-.048a11.445,11.445,0,0,0,6.929-3.358l9.805-9.805a4.074,4.074,0,0,0,1.065-1.869,9.4,9.4,0,0,0,3.2.558,11.337,11.337,0,0,0,7.914-3.4l17.15-17.149A11.453,11.453,0,0,0,624.4,238.1,9,9,0,0,0,621.865,230.716Zm-32.076,20.866a1.067,1.067,0,0,1-.159-.766,3.26,3.26,0,0,1,.986-1.906,4.027,4.027,0,0,0,.578-.729l2.871,2.873a1.068,1.068,0,0,1,.159.766,3.261,3.261,0,0,1-.986,1.906,4.093,4.093,0,0,0-.577.729Zm10.1-6.35-2.794-2.794,10.677-10.677a3.285,3.285,0,0,1,1.873-.986,1.01,1.01,0,0,1,.8.159l5.605,5.6a1.071,1.071,0,0,1,.159.768,3.251,3.251,0,0,1-.988,1.9l-12.772,12.772A8.9,8.9,0,0,0,599.885,245.232Zm-13.994,15.839-9.8,9.8a3.265,3.265,0,0,1-1.9.988,1,1,0,0,1-.769-.16L567.81,266.1a1.068,1.068,0,0,1-.159-.766,3.257,3.257,0,0,1,.986-1.9l12.772-12.772a8.9,8.9,0,0,0,2.561,6.749l2.928,2.93A4.065,4.065,0,0,0,585.891,261.071Z" transform="translate(53.01 11.063)" fill="#f88847"/>
    <path id="Path_159" data-name="Path 159" d="M833.479,398.162a1.683,1.683,0,0,1-1.554-1.028,35.472,35.472,0,0,1-2.8-13.883,1.684,1.684,0,1,1,3.368,0,32.108,32.108,0,0,0,2.537,12.572,1.682,1.682,0,0,1-1.547,2.34Z" transform="translate(198.979 97.127)" fill="#f88847"/>
    <path id="Path_160" data-name="Path 160" d="M872.506,399.66a1.66,1.66,0,0,1-.715-.16,1.686,1.686,0,0,1-.808-2.241,31.978,31.978,0,0,0,2.808-9.67,1.685,1.685,0,0,1,3.343.419,35.528,35.528,0,0,1-3.1,10.684A1.686,1.686,0,0,1,872.506,399.66Z" transform="translate(221.548 99.589)" fill="#f88847"/>
    <path id="Path_161" data-name="Path 161" d="M882.2,395.931a1.682,1.682,0,0,1-1.681-1.683,32.263,32.263,0,0,0-19.73-29.767,1.683,1.683,0,1,1,1.312-3.1,35.621,35.621,0,0,1,21.786,32.868A1.685,1.685,0,0,1,882.2,395.931Z" transform="translate(215.559 86.13)" fill="#f88847"/>
    <path id="Path_162" data-name="Path 162" d="M832.025,385.7a1.7,1.7,0,0,1-.555-.092,1.686,1.686,0,0,1-1.036-2.144,35.7,35.7,0,0,1,33.7-23.946,1.684,1.684,0,1,1,0,3.367,32.332,32.332,0,0,0-30.517,21.683A1.687,1.687,0,0,1,832.025,385.7Z" transform="translate(199.639 85.193)" fill="#f88847"/>
    <path id="Path_163" data-name="Path 163" d="M835.415,396.5a1.682,1.682,0,0,1-1.668-1.48A28.888,28.888,0,0,1,847.9,366.539a1.683,1.683,0,1,1,1.692,2.91A25.615,25.615,0,0,0,836.9,391.508a26.1,26.1,0,0,0,.188,3.109,1.683,1.683,0,0,1-1.467,1.876A1.913,1.913,0,0,1,835.415,396.5Z" transform="translate(201.366 88.87)" fill="#f88847"/>
    <path id="Path_164" data-name="Path 164" d="M870.945,373.032a1.672,1.672,0,0,1-1.034-.358,25.262,25.262,0,0,0-15.672-5.382,25.782,25.782,0,0,0-3.688.265,1.684,1.684,0,0,1-.484-3.334,29.163,29.163,0,0,1,4.172-.3,28.59,28.59,0,0,1,17.744,6.1,1.684,1.684,0,0,1-1.037,3.012Z" transform="translate(209.534 87.58)" fill="#f88847"/>
    <path id="Path_165" data-name="Path 165" d="M864.458,419.03a1.684,1.684,0,0,1-1.3-2.751c8.749-10.673,12.951-29.189,4.836-41.7a1.684,1.684,0,1,1,2.825-1.834c4.147,6.391,5.735,14.771,4.477,23.6a45.932,45.932,0,0,1-9.535,22.072A1.679,1.679,0,0,1,864.458,419.03Z" transform="translate(217.192 91.939)" fill="#f88847"/>
    <path id="Path_166" data-name="Path 166" d="M854.489,394.986a1.684,1.684,0,0,1-1.681-1.621,42.324,42.324,0,0,0-1.373-9.338,1.683,1.683,0,1,1,3.252-.872,45.752,45.752,0,0,1,1.487,10.084,1.684,1.684,0,0,1-1.618,1.745A.471.471,0,0,1,854.489,394.986Z" transform="translate(211.023 97.311)" fill="#f88847"/>
    <path id="Path_167" data-name="Path 167" d="M851.449,413.246a1.709,1.709,0,0,1-.626-.122,1.685,1.685,0,0,1-.936-2.189,58.324,58.324,0,0,0,4.035-17.317,1.685,1.685,0,0,1,3.361.237,61.852,61.852,0,0,1-4.269,18.329A1.688,1.688,0,0,1,851.449,413.246Z" transform="translate(210.152 102.803)" fill="#f88847"/>
    <path id="Path_168" data-name="Path 168" d="M835.6,402.513a1.687,1.687,0,0,1-1.618-2.15,26.078,26.078,0,0,0,.755-10.283,1.683,1.683,0,1,1,3.341-.415,29.48,29.48,0,0,1-.858,11.625A1.69,1.69,0,0,1,835.6,402.513Z" transform="translate(201.575 100.711)" fill="#f88847"/>
    <path id="Path_169" data-name="Path 169" d="M869.368,390.9a1.685,1.685,0,0,1-1.686-1.683,18.925,18.925,0,0,0-8.227-15.609,1.684,1.684,0,0,1,1.905-2.777,22.289,22.289,0,0,1,9.69,18.387A1.682,1.682,0,0,1,869.368,390.9Z" transform="translate(214.999 91.159)" fill="#f88847"/>
    <path id="Path_170" data-name="Path 170" d="M839.493,392.166a1.682,1.682,0,0,1-1.681-1.683,22.282,22.282,0,0,1,24.564-22.162,1.682,1.682,0,1,1-.341,3.348c-.643-.063-1.3-.1-1.945-.1a18.932,18.932,0,0,0-18.911,18.912A1.685,1.685,0,0,1,839.493,392.166Z" transform="translate(203.682 89.895)" fill="#f88847"/>
    <path id="Path_171" data-name="Path 171" d="M839.153,409.237a1.627,1.627,0,0,1-.592-.109,1.683,1.683,0,0,1-.985-2.167,32.733,32.733,0,0,0,1.167-19.028,1.684,1.684,0,1,1,3.275-.784,36.119,36.119,0,0,1-1.287,20.994A1.688,1.688,0,0,1,839.153,409.237Z" transform="translate(203.496 99.45)" fill="#f88847"/>
    <path id="Path_172" data-name="Path 172" d="M855.762,416.31a1.684,1.684,0,0,1-.955-3.072,35.964,35.964,0,0,0,15.343-25.18,1.683,1.683,0,1,1,3.337.45,39.281,39.281,0,0,1-16.771,27.506A1.677,1.677,0,0,1,855.762,416.31Z" transform="translate(212.484 99.851)" fill="#f88847"/>
    <path id="Path_173" data-name="Path 173" d="M845,383.418a1.684,1.684,0,0,1-1.49-2.466,15.345,15.345,0,0,1,23.933-4.252,1.684,1.684,0,0,1-2.267,2.491,11.976,11.976,0,0,0-18.681,3.321A1.683,1.683,0,0,1,845,383.418Z" transform="translate(206.659 92.331)" fill="#f88847"/>
    <path id="Path_174" data-name="Path 174" d="M846.093,400.641a1.686,1.686,0,0,1-1.685-1.68,53.848,53.848,0,0,0-1.94-14.225,1.684,1.684,0,1,1,3.246-.9,57.193,57.193,0,0,1,2.062,15.115,1.683,1.683,0,0,1-1.678,1.689Z" transform="translate(206.168 97.688)" fill="#f88847"/>
    <path id="Path_175" data-name="Path 175" d="M843.311,407.616a1.686,1.686,0,0,1-1.53-2.381,30.377,30.377,0,0,0,2.312-7.62,1.684,1.684,0,0,1,3.324.544,33.73,33.73,0,0,1-2.569,8.469A1.685,1.685,0,0,1,843.311,407.616Z" transform="translate(205.748 105.049)" fill="#f88847"/>
    <path id="Path_176" data-name="Path 176" d="M863.239,394.891a.84.84,0,0,1-.106,0,1.681,1.681,0,0,1-1.573-1.785,29.21,29.21,0,0,0-1.588-11.573,1.684,1.684,0,0,1,3.18-1.113,32.652,32.652,0,0,1,1.769,12.9A1.688,1.688,0,0,1,863.239,394.891Z" transform="translate(215.623 95.895)" fill="#f88847"/>
    <path id="Path_177" data-name="Path 177" d="M847.162,408.248a1.658,1.658,0,0,1-.683-.148,1.681,1.681,0,0,1-.852-2.224,42.678,42.678,0,0,0,2-5.485,1.684,1.684,0,1,1,3.236.934,46.034,46.034,0,0,1-2.165,5.923A1.684,1.684,0,0,1,847.162,408.248Z" transform="translate(207.831 106.656)" fill="#f88847"/>
    <path id="Path_178" data-name="Path 178" d="M849.268,403.468a1.774,1.774,0,0,1-.254-.019,1.683,1.683,0,0,1-1.413-1.916,37.928,37.928,0,0,0-.094-11.844,1.684,1.684,0,1,1,3.323-.55,41.238,41.238,0,0,1,.1,12.9A1.682,1.682,0,0,1,849.268,403.468Z" transform="translate(208.916 100.463)" fill="#f88847"/>
    <path id="Path_179" data-name="Path 179" d="M864.559,398.31a1.686,1.686,0,0,1-1.685-1.685c0-5.645-1.57-16.324-7.509-16.324a5.462,5.462,0,0,0-5.456,5.456c0,.1,0,.2.008.3a1.683,1.683,0,1,1-3.36.19c-.011-.163-.015-.328-.015-.492a8.832,8.832,0,0,1,8.823-8.823c8.026,0,10.876,10.608,10.876,19.692A1.684,1.684,0,0,1,864.559,398.31Z" transform="translate(208.406 94.62)" fill="#f88847"/>
    <path id="Path_180" data-name="Path 180" d="M856.738,405.127a1.706,1.706,0,0,1-.686-.146,1.685,1.685,0,0,1-.851-2.224,35.407,35.407,0,0,0,2.645-8.981,1.684,1.684,0,1,1,3.327.515,38.717,38.717,0,0,1-2.9,9.838A1.686,1.686,0,0,1,856.738,405.127Z" transform="translate(213.014 102.963)" fill="#f88847"/>
    <path id="Path_181" data-name="Path 181" d="M748.451,560.389a78.488,78.488,0,1,1,78.871-78.1A78.576,78.576,0,0,1,748.451,560.389Zm.727-148.516a70.03,70.03,0,1,0,69.685,70.371A70.109,70.109,0,0,0,749.179,411.872Z" transform="translate(113.05 108.951)" fill="#f88847"/>
    <path id="Path_182" data-name="Path 182" d="M754.169,582.7a95.111,95.111,0,0,1-94.536-95.467l7.288.036a87.714,87.714,0,1,0,88.143-87.283l.035-7.287a95,95,0,1,1-.931,190Z" transform="translate(107.251 103.153)" fill="#f88847"/>
    <path id="Path_183" data-name="Path 183" d="M774.138,561.858l-5.129-5.178a104.789,104.789,0,0,0,.726-148.022l5.178-5.129A112.084,112.084,0,0,1,774.138,561.858Z" transform="translate(166.445 109.014)" fill="#f88847"/>
    <rect id="Rectangle_35" data-name="Rectangle 35" width="0.728" height="39.447" transform="translate(970.588 582.052) rotate(-89.721)" fill="#f88847"/>
    <path id="Path_184" data-name="Path 184" d="M858.758,469.524l-79.414-.388,0-.729,79.414.388Z" transform="translate(172.038 144.126)" fill="#f88847"/>
    <rect id="Rectangle_36" data-name="Rectangle 36" width="0.729" height="134.759" transform="translate(917.738 641.07) rotate(-89.72)" fill="#f88847"/>
    <path id="Path_185" data-name="Path 185" d="M814.606,450.246a4.307,4.307,0,1,1,4.285,4.329A4.3,4.3,0,0,1,814.606,450.246Z" transform="translate(191.123 131.978)" fill="#f88847"/>
    <path id="Path_186" data-name="Path 186" d="M828.08,470.021a4.305,4.305,0,1,1,4.284,4.329A4.3,4.3,0,0,1,828.08,470.021Z" transform="translate(198.415 142.68)" fill="#f88847"/>
    <path id="Path_187" data-name="Path 187" d="M842.157,488.6a4.307,4.307,0,1,1,4.286,4.329A4.305,4.305,0,0,1,842.157,488.6Z" transform="translate(206.033 152.738)" fill="#f88847"/>
    <path id="Path_188" data-name="Path 188" d="M765.657,454.427h-5.4v-6.92c0-14.016-11.692-25.419-26.063-25.419s-26.063,11.4-26.063,25.419v6.92h-4.9a5.146,5.146,0,0,0-5.14,5.14v50.162a5.146,5.146,0,0,0,5.14,5.14h62.423a5.146,5.146,0,0,0,5.14-5.14V459.567A5.146,5.146,0,0,0,765.657,454.427ZM739.585,492.28a5.14,5.14,0,1,1-10.28,0V477.015a5.14,5.14,0,0,1,10.28,0Zm10.4-37.853H718.41v-6.92c0-8.349,7.082-15.139,15.785-15.139s15.785,6.791,15.785,15.139Z" transform="translate(128.066 119.058)" fill="#f88847"/>
    <path id="Path_189" data-name="Path 189" d="M1123.3,457.462h-56.872l-28.435-49.252,28.435-49.254H1123.3l28.437,49.254Zm-55.58-2.239H1122l27.142-47.013L1122,361.2h-54.287l-27.142,47.013Z" transform="translate(312.017 84.891)" fill="#f88847"/>
    <path id="Path_190" data-name="Path 190" d="M623.825,373.228l26.345,45.63-26.345,45.63H571.134l-26.345-45.63,26.345-45.63Zm1.4-2.427H569.732l-27.745,48.058,27.745,48.058h55.494l27.746-48.058L625.226,370.8Z" transform="translate(43.581 91.301)" fill="#f88847"/>
    <path id="Path_191" data-name="Path 191" d="M594.208,413.393h-1.964c-.21,0-.3-.219-.325-.285a16.3,16.3,0,0,0-.78-1.862.323.323,0,0,1,.014-.358l1.427-1.426a2.834,2.834,0,0,0,0-4l-3.083-3.082a2.842,2.842,0,0,0-2-.814h0a2.836,2.836,0,0,0-2,.814l-1.444,1.443c-.117.119-.3.043-.356.017a16.689,16.689,0,0,0-1.862-.775c-.065-.02-.27-.106-.27-.3v-2.01a2.834,2.834,0,0,0-2.831-2.831h-4.357a2.834,2.834,0,0,0-2.831,2.831v2.01c0,.194-.2.281-.27.3a16.2,16.2,0,0,0-1.862.775.322.322,0,0,1-.358-.017l-1.441-1.443a2.842,2.842,0,0,0-2-.814h0a2.845,2.845,0,0,0-2,.814l-3.084,3.084a2.839,2.839,0,0,0,0,4l1.426,1.426a.317.317,0,0,1,.017.356,16.511,16.511,0,0,0-.783,1.863c-.023.068-.116.285-.325.285H558.9a2.834,2.834,0,0,0-2.831,2.831v4.359a2.834,2.834,0,0,0,2.831,2.83h1.93a.294.294,0,0,1,.29.183,16.084,16.084,0,0,0,.86,2.081.246.246,0,0,1-.065.279l-1.389,1.39a2.837,2.837,0,0,0,0,4l3.082,3.081a2.835,2.835,0,0,0,2,.817h0a2.842,2.842,0,0,0,2-.814l1.37-1.372a.245.245,0,0,1,.282-.065,16.391,16.391,0,0,0,2.079.869.32.32,0,0,1,.2.313v1.88a2.834,2.834,0,0,0,2.831,2.831h4.357a2.834,2.834,0,0,0,2.831-2.831v-1.88a.318.318,0,0,1,.2-.313,16.007,16.007,0,0,0,2.079-.869.246.246,0,0,1,.282.065l1.37,1.369a2.838,2.838,0,0,0,2,.817h0a2.838,2.838,0,0,0,2-.817l3.081-3.079a2.832,2.832,0,0,0,0-4l-1.389-1.389a.251.251,0,0,1-.065-.279,16.418,16.418,0,0,0,.862-2.081.293.293,0,0,1,.29-.183h1.93a2.835,2.835,0,0,0,2.831-2.83v-4.359A2.835,2.835,0,0,0,594.208,413.393Zm-9.733,5.01a7.92,7.92,0,1,1-7.92-7.92A7.928,7.928,0,0,1,584.476,418.4Zm35.112-21.222h-1.349c-.143,0-.208-.15-.223-.194a11.274,11.274,0,0,0-.536-1.279.228.228,0,0,1,.009-.248l.98-.979a1.941,1.941,0,0,0,0-2.748l-2.117-2.119a1.955,1.955,0,0,0-1.373-.558h0a1.944,1.944,0,0,0-1.373.558l-.991.991c-.082.083-.21.029-.246.012a10.819,10.819,0,0,0-1.279-.532c-.043-.014-.185-.074-.185-.207V388.5a1.947,1.947,0,0,0-1.943-1.945h-2.995a1.947,1.947,0,0,0-1.943,1.945v1.382c0,.133-.142.193-.186.207a11.146,11.146,0,0,0-1.279.532c-.037.017-.165.071-.245-.011l-.991-.993a1.948,1.948,0,0,0-1.375-.558h0a1.951,1.951,0,0,0-1.375.558l-2.118,2.119a1.947,1.947,0,0,0,0,2.748l.98.979a.223.223,0,0,1,.012.247,10.655,10.655,0,0,0-.539,1.281c-.015.045-.079.194-.222.194h-1.35a1.947,1.947,0,0,0-1.943,1.945v2.995a1.947,1.947,0,0,0,1.943,1.945h1.327a.2.2,0,0,1,.2.125,11,11,0,0,0,.592,1.43.169.169,0,0,1-.045.191l-.954.954a1.947,1.947,0,0,0,0,2.748l2.118,2.119a1.952,1.952,0,0,0,1.375.558h0a1.958,1.958,0,0,0,1.373-.558l.943-.943a.168.168,0,0,1,.191-.043,11.387,11.387,0,0,0,1.429.6.217.217,0,0,1,.139.213v1.293a1.947,1.947,0,0,0,1.943,1.945h2.995a1.947,1.947,0,0,0,1.943-1.945v-1.293a.218.218,0,0,1,.137-.213,11.251,11.251,0,0,0,1.429-.6.171.171,0,0,1,.193.043l.942.94a1.947,1.947,0,0,0,1.373.561h0a1.946,1.946,0,0,0,1.375-.558l2.117-2.119a1.941,1.941,0,0,0,0-2.748l-.952-.954a.169.169,0,0,1-.045-.191,11.134,11.134,0,0,0,.592-1.43.2.2,0,0,1,.2-.125h1.325a1.947,1.947,0,0,0,1.943-1.945v-2.995A1.947,1.947,0,0,0,619.587,397.181Zm-6.687,3.443a5.44,5.44,0,1,1-5.44-5.442A5.446,5.446,0,0,1,612.9,400.624Z" transform="translate(51.204 99.825)" fill="#f88847" style="mix-blend-mode: screen;isolation: isolate"/>
    <g id="Group_51" data-name="Group 51" transform="translate(572.32 204.227)">
      <path id="Path_192" data-name="Path 192" d="M1116.073,359.282l-1.293,2.239-27.144,47.013H1033.4L1012.1,371.657l-5.368-9.3-.505-.874-.919-1.594H954.038a3.64,3.64,0,1,0-.086,2.241h50.021l27.165,47.051-27.12,46.974H949.732l-.157-.277v2.517h55.738l27.492-47.62h56.126l28.435-49.252Z" transform="translate(-309.6 -120.268)" fill="#f88847" opacity="0.5" style="mix-blend-mode: screen;isolation: isolate"/>
      <g id="Group_46" data-name="Group 46" transform="translate(212.117)" opacity="0.2" style="mix-blend-mode: screen;isolation: isolate">
        <path id="Path_193" data-name="Path 193" d="M778.706,327.823H706.917l-35.895-62.172,35.895-62.171h71.789L814.6,265.651Zm-70.538-2.167h69.286L812.1,265.651l-34.643-60H708.168l-34.643,60Z" transform="translate(-671.022 -203.48)" fill="#f88847"/>
      </g>
      <g id="Group_47" data-name="Group 47" transform="translate(0 367.594)" opacity="0.2" style="mix-blend-mode: screen;isolation: isolate">
        <path id="Path_194" data-name="Path 194" d="M641.075,566.334H569.284l-35.893-62.172,35.893-62.171h71.791l35.893,62.171Zm-70.539-2.167h69.286l34.645-60.005-34.645-60H570.535l-34.643,60Z" transform="translate(-533.391 -441.991)" fill="#f88847"/>
      </g>
      <g id="Group_48" data-name="Group 48" transform="translate(424.156 0.478)" opacity="0.2" style="mix-blend-mode: screen;isolation: isolate">
        <path id="Path_195" data-name="Path 195" d="M916.284,328.133H844.5L808.6,265.962,844.5,203.79h71.788l35.895,62.172Zm-70.538-2.167h69.288l34.643-60-34.643-60.005H845.747L811.1,265.962Z" transform="translate(-808.602 -203.79)" fill="#f88847"/>
      </g>
      <g id="Group_49" data-name="Group 49" transform="translate(424.156 384.154)" opacity="0.2" style="mix-blend-mode: screen;isolation: isolate">
        <path id="Path_196" data-name="Path 196" d="M916.284,577.077H844.5L808.6,514.907,844.5,452.736h71.788l35.895,62.171Zm-70.538-2.167h69.288l34.643-60-34.643-60H845.747l-34.643,60Z" transform="translate(-808.602 -452.736)" fill="#f88847"/>
      </g>
      <g id="Group_50" data-name="Group 50" transform="translate(575.622 456.9)" opacity="0.2" style="mix-blend-mode: screen;isolation: isolate">
        <path id="Path_197" data-name="Path 197" d="M1014.562,624.281H942.774L906.88,562.109l35.894-62.172h71.788l35.895,62.172Zm-70.538-2.167h69.288l34.643-60.005L1013.312,502.1H944.024l-34.643,60.005Z" transform="translate(-906.88 -499.937)" fill="#f88847"/>
      </g>
    </g>
    <g id="Group_53" data-name="Group 53" transform="translate(613.129 602.595)" style="mix-blend-mode: screen;isolation: isolate">
      <path id="Path_200" data-name="Path 200" d="M628.2,495.09c-.956,1.349-1.9,2.676-2.837,4-1.47,2.074-2.945,4.146-4.4,6.23a1.288,1.288,0,0,0-.219.687c-.014,3.549-.009,7.1-.009,10.651v.526c-.185.011-.35.028-.515.028-2.437,0-4.875.006-7.313-.006a.666.666,0,0,0-.617.322q-2.779,3.949-5.581,7.877a2.617,2.617,0,0,1-.538.575q-3.306,2.478-6.627,4.938a1.132,1.132,0,0,1-1.871-.539,1.261,1.261,0,0,1,.019-.66q1.248-4.057,2.526-8.105a2.086,2.086,0,0,1,.3-.553c.814-1.161,1.637-2.315,2.455-3.471.072-.1.139-.213.237-.361h-9.087v9.337H559.87v-45.24h15.375v-19.37h45.462v30.42l.091.04c.08-.108.163-.213.24-.321.723-1.014,1.426-2.042,2.168-3.041a3.919,3.919,0,0,1,4.416-1.427,3.75,3.75,0,0,1,2.084,5.135c-.059.133-.123.26-.2.411.114.086.216.165.32.242a2.762,2.762,0,0,1,.673,4.016q-2.411,3.426-4.846,6.838c-.727,1.026-1.45,2.058-2.187,3.076a1.106,1.106,0,0,1-1.264.435,1.048,1.048,0,0,1-.781-.991,1.9,1.9,0,0,1,.335-.942c1.991-2.84,4-5.667,6.009-8.5l.735-1.037C628.951,495.687,628.911,495.509,628.2,495.09Zm-66.022-11.457v40.66h29.614v-40.66Zm38.763,43.4c.134-.094.219-.151.3-.213,1.105-.821,2.212-1.641,3.311-2.471a2.092,2.092,0,0,0,.436-.452q5.047-7.107,10.084-14.222c.68-.959,1.356-1.917,2.054-2.905l-2.446-1.732c-.085.109-.143.18-.2.256q-6.006,8.473-12.008,16.947a1.507,1.507,0,0,0-.208.424q-.647,2.041-1.279,4.087C600.966,526.819,600.961,526.9,600.937,527.028Zm15.051-23.862,2.44,1.729c.069-.08.116-.126.153-.179q4.406-6.216,8.81-12.439a2.277,2.277,0,0,0,.316-.633,1.4,1.4,0,0,0-1.233-1.92,1.851,1.851,0,0,0-1.612.919q-3.056,4.33-6.126,8.648Zm-13.8-18.724,11.8-15.21-1.927-1.5-11.806,15.21Zm8.2,4.292H594.136v2.39h16.257Zm-16.263,8.637h16.258V495H594.129ZM611.77,484.1a3.72,3.72,0,1,0-3.733-3.7A3.735,3.735,0,0,0,611.77,484.1Zm-5.539-12.29a3.714,3.714,0,1,0-3.7,3.713A3.7,3.7,0,0,0,606.231,471.812ZM594.2,469.97h-8.615v2.4H594.2Zm0,8.643v-2.375h-8.62v2.375Zm5.551,22.636h-5.61v2.387h5.61Z" transform="translate(-559.87 -461.959)" fill="#f88847"/>
      <path id="Path_201" data-name="Path 201" d="M563.84,489.045v-9.734h21.982v9.734Z" transform="translate(-557.721 -452.568)" fill="#f88847"/>
      <path id="Path_202" data-name="Path 202" d="M566.841,496.318c-.569,0-1.139,0-1.706,0a1.148,1.148,0,1,1,.011-2.286q1.706-.009,3.412,0a1.149,1.149,0,1,1-.011,2.284C567.978,496.321,567.409,496.318,566.841,496.318Z" transform="translate(-557.698 -444.604)" fill="#f88847"/>
      <path id="Path_203" data-name="Path 203" d="M577.183,496.316c-.583,0-1.164.008-1.746,0a1.145,1.145,0,1,1,0-2.283q1.725-.014,3.451,0a1.147,1.147,0,1,1,0,2.284C578.32,496.323,577.751,496.316,577.183,496.316Z" transform="translate(-552.113 -444.605)" fill="#f88847"/>
      <path id="Path_204" data-name="Path 204" d="M572,496.317c-.569,0-1.137.006-1.706,0a1.146,1.146,0,1,1-.029-2.284q1.743-.016,3.491,0a1.146,1.146,0,1,1-.011,2.284C573.165,496.323,572.582,496.317,572,496.317Z" transform="translate(-554.906 -444.605)" fill="#f88847"/>
      <path id="Path_205" data-name="Path 205" d="M566.874,490.461c.583,0,1.164-.008,1.746,0a1.148,1.148,0,0,1,1.21,1.107,1.134,1.134,0,0,1-1.15,1.167q-1.824.037-3.648,0a1.124,1.124,0,0,1-1.148-1.164,1.147,1.147,0,0,1,1.205-1.11C565.684,490.453,566.279,490.461,566.874,490.461Z" transform="translate(-557.698 -446.535)" fill="#f88847"/>
      <path id="Path_206" data-name="Path 206" d="M572.022,490.461c.581,0,1.164-.006,1.745,0a1.14,1.14,0,1,1,.046,2.276q-1.806.03-3.609,0a1.131,1.131,0,0,1-1.16-1.154,1.148,1.148,0,0,1,1.194-1.12c.3-.008.607,0,.912,0Z" transform="translate(-554.906 -446.535)" fill="#f88847"/>
      <path id="Path_207" data-name="Path 207" d="M577.218,490.461c.569,0,1.137-.006,1.706,0a1.149,1.149,0,0,1,1.224,1.131,1.136,1.136,0,0,1-1.173,1.144q-1.806.032-3.61,0a1.131,1.131,0,0,1-1.164-1.151,1.149,1.149,0,0,1,1.191-1.124c.3-.008.609,0,.913,0Z" transform="translate(-552.114 -446.535)" fill="#f88847"/>
      <path id="Path_208" data-name="Path 208" d="M566.866,499.878c-.595,0-1.19.008-1.785,0a1.141,1.141,0,0,1-1.2-1.111,1.116,1.116,0,0,1,1.157-1.148q1.822-.028,3.648,0a1.123,1.123,0,0,1,1.142,1.125,1.137,1.137,0,0,1-1.181,1.131C568.056,499.887,567.461,499.878,566.866,499.878Z" transform="translate(-557.698 -442.668)" fill="#f88847"/>
      <path id="Path_209" data-name="Path 209" d="M572,499.878c-.595,0-1.19.009-1.785,0a1.138,1.138,0,0,1-1.17-1.1,1.119,1.119,0,0,1,1.147-1.161q1.824-.028,3.646,0a1.129,1.129,0,1,1-.015,2.258C573.214,499.887,572.6,499.878,572,499.878Z" transform="translate(-554.906 -442.668)" fill="#f88847"/>
      <path id="Path_210" data-name="Path 210" d="M577.184,499.879c-.6,0-1.19.006-1.783,0a1.143,1.143,0,0,1-1.2-1.111,1.124,1.124,0,0,1,1.159-1.148q1.822-.028,3.647,0a1.122,1.122,0,0,1,1.142,1.127,1.142,1.142,0,0,1-1.18,1.131c-.3.009-.607,0-.912,0Z" transform="translate(-552.113 -442.668)" fill="#f88847"/>
      <path id="Path_211" data-name="Path 211" d="M595.262,474.349A1.274,1.274,0,1,1,594,473.082,1.271,1.271,0,0,1,595.262,474.349Z" transform="translate(-542.095 -455.939)" fill="#f88847"/>
      <path id="Path_212" data-name="Path 212" d="M586.716,468.795a1.284,1.284,0,0,1,1.261-1.275,1.311,1.311,0,0,1,1.293,1.292,1.292,1.292,0,0,1-1.312,1.264A1.259,1.259,0,0,1,586.716,468.795Z" transform="translate(-545.341 -458.949)" fill="#f88847"/>
    </g>
    <path id="Path_213" data-name="Path 213" d="M624.348,306.79c.319-1.507.53-3.047.976-4.517,1.547-5.118,4.634-9.263,8.421-12.934a57.382,57.382,0,0,1,12.328-8.887l1.073-.592c-.439-.587-.845-1.154-1.275-1.7-.575-.734-1.239-1.405-1.739-2.185-.878-1.372-.464-2.569,1.131-2.905a20.154,20.154,0,0,1,4.523-.411,32.455,32.455,0,0,1,12.912,2.859,2.418,2.418,0,0,0,1.131.185,54.465,54.465,0,0,1,14.809.729c8.218,1.651,15.312,5.255,20.708,11.849a1.014,1.014,0,0,1,.123,1.295,29.612,29.612,0,0,1-9.67,10.719,44.018,44.018,0,0,1-18.148,7.074,5.591,5.591,0,0,0-2.222.869,43.39,43.39,0,0,1-9.161,4.815,8.023,8.023,0,0,1-2.646.49c-1.677,0-2.438-1.188-1.836-2.742.344-.888.772-1.745,1.21-2.719-.778-.117-1.5-.194-2.2-.339-2.569-.526-5.114-1.216-7.7-1.581a30.257,30.257,0,0,0-12.766.772,9.842,9.842,0,0,0-4.141,2.269,8.8,8.8,0,0,1,.159-1.517,6.285,6.285,0,0,1,2.426-3.34,42.462,42.462,0,0,1,3.6-2.272c.436-.262.761-.543.7-1.09a.935.935,0,0,0-1.375-.746,14.333,14.333,0,0,0-6.492,5.245,5.168,5.168,0,0,0,1.654,7.6,13.775,13.775,0,0,0,7.193,2.079,21.844,21.844,0,0,0,9.753-1.829,5.435,5.435,0,0,1,1.176-.4,1.033,1.033,0,0,1,1.319,1.145,3,3,0,0,1-.239.989,13.514,13.514,0,0,1-4.016,5.368c-.892.73-1.817,1.423-2.733,2.124a7.18,7.18,0,0,0-2.9,5.7,4.129,4.129,0,0,1-.088.874,1.019,1.019,0,0,1-1.5.786,1.486,1.486,0,0,1-.267-.122c-5.35-3.206-9.844-7.228-12.455-13.045a19.523,19.523,0,0,1-1.62-6.012,4.547,4.547,0,0,0-.131-.566Zm39.724-20.64c0-1.3-.006-2.6,0-3.9,0-.8-.487-1.288-1.167-1.11-.584.154-.683.609-.715,1.139a54.945,54.945,0,0,0,.338,10.292,23.179,23.179,0,0,0,1.877,7.233,7.675,7.675,0,0,0,4.267,3.953.924.924,0,0,0,1.319-.407.853.853,0,0,0-.5-1.265c-2.426-.926-3.548-2.87-4.2-5.223A39.221,39.221,0,0,1,664.072,286.15Zm16.99,3.417a2.377,2.377,0,1,0-2.4-2.358A2.367,2.367,0,0,0,681.063,289.567Z" transform="translate(88.155 38.184)" fill="#f88847"/>
    <g id="aOkAFr.tif" transform="translate(1377.919 462.922)">
      <g id="Group_54" data-name="Group 54">
        <path id="Path_214" data-name="Path 214" d="M1069.723,399.1l14.213-7.715v8.17l15.051-8.178v8.17l15.027-8.158v34.454c0,1.116,0,1.117-1.131,1.117h-41.008c0-1.643-.017-3.2.026-4.75,0-.154.361-.35.587-.438a6.416,6.416,0,0,0,4.482-5.434,6.542,6.542,0,1,0-13.022-.518,6.391,6.391,0,0,0,4.487,5.9c.578.182.678.458.669.974-.025,1.378-.008,2.756-.008,4.2h-13c.1-1.866.2-3.7.307-5.527q.352-5.978.711-11.958.509-8.584,1.019-17.171.414-7.014.82-14.028c.116-1.994.236-3.987.327-5.981.023-.5.168-.729.718-.723q3.724.032,7.45,0c.484,0,.664.156.692.657q.532,9.582,1.1,19.165C1069.39,393.86,1069.555,396.386,1069.723,399.1Zm19.156,22.779V409.73h-4.892v12.152Zm15.042,0V409.708h-4.887v12.177Z" transform="translate(-1056.1 -371.238)" fill="#f88847"/>
        <path id="Path_215" data-name="Path 215" d="M1075.192,374.731a21.007,21.007,0,0,1,7.127-3.4c.487,1.023,1.014,2.01,1.433,3.041a2.85,2.85,0,0,0,2.951,1.874c.817-.006,1.638-.012,2.449-.091a2.382,2.382,0,0,0,2-1.478c.456-.973.9-1.953,1.392-2.905.094-.182.442-.4.6-.356a20.533,20.533,0,0,1,6.677,3.289c-.549,1.108-1.062,2.192-1.615,3.253a2.674,2.674,0,0,0,.373,3.2c.441.532.849,1.09,1.29,1.623a2.7,2.7,0,0,0,3.007.986c1.131-.305,2.276-.556,3.586-.872l1.5,5.009-9.079,4.955c0-.547-.008-.989,0-1.432a11.266,11.266,0,0,0-9.429-11.522,11.477,11.477,0,0,0-12.9,8.193,1.646,1.646,0,0,1-.692.9c-1.346.788-2.722,1.523-4.109,2.238a1.527,1.527,0,0,1-.922.106c-1.276-.24-2.543-.53-3.853-.811a19.318,19.318,0,0,1,1.762-7.58c1.144.268,2.267.492,3.366.8a2.738,2.738,0,0,0,3.181-1.063c.513-.669,1.056-1.319,1.514-2.025a2.41,2.41,0,0,0,.076-2.554C1076.308,377,1075.763,375.876,1075.192,374.731Z" transform="translate(-1050.211 -371.333)" fill="#f88847"/>
      </g>
    </g>
    <g id="z8Pjfz.tif" transform="translate(1182.023 689.708)">
      <g id="Group_55" data-name="Group 55">
        <path id="Path_216" data-name="Path 216" d="M1004.408,539.541a3.559,3.559,0,0,1-3.873,2.606c.091.419.159.768.243,1.111a45.4,45.4,0,0,1,1.566,11.041,9.373,9.373,0,0,1-.993,4.77,1.666,1.666,0,0,0-.116.784c-.008,2.7,0,5.4-.008,8.1-.009,2.891-1.631,4.5-4.526,4.514-1.031,0-2.062.006-3.093,0a4.113,4.113,0,0,1-4.335-4.351c-.006-.558,0-1.114,0-1.709H944.127c0,.581,0,1.136,0,1.691a4.125,4.125,0,0,1-4.4,4.372q-1.618.012-3.24,0a4.067,4.067,0,0,1-4.318-4.278c-.025-2.725.009-5.45-.02-8.173a6.72,6.72,0,0,0-.307-1.322,22.257,22.257,0,0,1-.752-3.571,41,41,0,0,1,1.52-11.85c.08-.331.159-.664.256-1.063-.37-.043-.7-.076-1.03-.122a3.24,3.24,0,0,1-2.847-3.152,3.125,3.125,0,0,1,2.788-3.253,46.874,46.874,0,0,1,4.927-.068.981.981,0,0,0,1.068-.711c1.711-3.714,3.471-7.407,5.219-11.106,1.39-2.939,3.864-4.246,6.965-4.582a166.476,166.476,0,0,1,22.281-.636c3.725.1,7.449.353,11.164.649a7.917,7.917,0,0,1,7.052,4.671c1.722,3.683,3.48,7.35,5.178,11.043a.925.925,0,0,0,1.02.669c1.225-.04,2.457.04,3.681-.025a3.633,3.633,0,0,1,4.07,2.626Zm-13.5-3.97a59.5,59.5,0,0,0-4.627-10.587,2.762,2.762,0,0,0-1.868-1.327,16.8,16.8,0,0,0-2.9-.458c-5.513-.206-11.029-.5-16.543-.489-4.776.012-9.552.39-14.327.627a4.3,4.3,0,0,0-4.152,2.729c-.82,1.965-1.789,3.867-2.634,5.821-.512,1.179-.911,2.406-1.387,3.682Zm-24.152,10.236H958.8c-1.544,0-3.092-.017-4.636.014a1.39,1.39,0,0,0-1.475,1.672,1.418,1.418,0,0,0,1.55,1.17q12.438.012,24.877,0a1.973,1.973,0,0,0,.715-.123,1.4,1.4,0,0,0-.279-2.689,4.131,4.131,0,0,0-.732-.039Q972.788,545.807,966.754,545.807Zm-.029,5.67H954.581a4.972,4.972,0,0,0-.661.015,1.4,1.4,0,0,0-1.247,1.406,1.354,1.354,0,0,0,1.233,1.4,6.141,6.141,0,0,0,.808.034q11.041,0,22.081,0c.858,0,1.719.022,2.575-.025a1.361,1.361,0,0,0,1.358-1.436,1.409,1.409,0,0,0-1.418-1.395c-.194-.011-.391,0-.587,0Zm-23.959,2.817a3.687,3.687,0,0,0,3.714-3.682,3.71,3.71,0,0,0-7.419-.008A3.689,3.689,0,0,0,942.765,554.295Zm49.076,0a3.693,3.693,0,1,0-3.727-3.648A3.691,3.691,0,0,0,991.841,554.295Z" transform="translate(-928.994 -518.482)" fill="#f88847"/>
      </g>
    </g>
    <g id="Group_76" data-name="Group 76" transform="translate(2161.763 -88.502)">
      <path id="Path_7896" data-name="Path 7896" d="M-1287.629,539.56c-3.935,1.912-7.857,3.85-11.813,5.716a3.369,3.369,0,0,0-1.95,1.949,2.47,2.47,0,0,1-2.225,1.724,1.331,1.331,0,0,1-.819-.069c-1.215-.932-2.19-.1-3.206.388-1.9.908-3.787,1.836-5.83,2.829,1.445,1.026,1.364,2.5,1.443,3.906a1.357,1.357,0,0,0,.883,1.374,2.736,2.736,0,0,1,1.964,2.716c0,.244.123.485.136.73a2.567,2.567,0,0,0,2.021,2.611,1.647,1.647,0,0,1,.931.7,11.167,11.167,0,0,0,4.875,4.581c1.719.9,2.116,2.625,3.023,4.173h-57.263c.829-1.214,1.213-2.539,2.444-3.325,1.726-1.1,3.422-2.25,5.109-3.41a1.908,1.908,0,0,0,.646-.826c.743-1.87,1.407-3.773,2.193-5.623a2.98,2.98,0,0,1,1.138-1.062,3.2,3.2,0,0,1,1.129-.417,1.39,1.39,0,0,0,1.2-1.23c.374-2.059,2.2-2.989,3.444-4.371.135-.151.459-.159.7-.182,1.639-.154,3.285-.255,4.916-.466.419-.054.8-.44,1.188-.681a.35.35,0,0,0,.1-.154c1.45-3.156,4.093-4.957,7.159-6.258a1.254,1.254,0,0,1,.927.018c2.063,1.011,4.109,2.055,6.148,3.113a2.945,2.945,0,0,1,.76.665c.456.5.885,1.028,1.357,1.582,2.752-1.335,5.46-2.642,8.158-3.968a1.015,1.015,0,0,0,.389-.476c3.7-7.831,7.374-15.671,11.1-23.487a3.419,3.419,0,0,1,1.342-1.354q5.078-2.941,10.219-5.771a7.236,7.236,0,0,1,5.02-.348c3.614.728,7.187,1.672,10.756,2.6a2.464,2.464,0,0,1,1.971,2.947c-.142,1.734-.333,3.464-.5,5.2-.036.365-.068.73-.115,1.246l4.27-2.042.99,2.02c-1.6.775-3.154,1.54-4.721,2.28a1.434,1.434,0,0,0-.953,1.1,2.4,2.4,0,0,1-3.243,1.771,2.122,2.122,0,0,0-2.136.193c-.243.126-.5.22-.839.365-.149-.819-.285-1.569-.422-2.319,1.141-.277,1.892-.856,1.71-2.178a2.084,2.084,0,0,1,.058-.461c.188-1.9.374-3.808.566-5.766l-4.65-1.213c.441,1.456.892,2.71,1.194,4,.438,1.865.768,3.756,1.144,5.636l-14.167,6.9a14.708,14.708,0,0,0-4.571-8.959l-6.872,14.477,11.111-5.359.436,2.293Z" transform="translate(0 -66.648)" fill="#f88847"/>
      <path id="Path_7897" data-name="Path 7897" d="M-1037.471,619.153q6.955-3.36,13.911-6.716c.049-.024.119,0,.287,0,.118,1.708.311,3.425.343,5.145a39.475,39.475,0,0,0,2.768,12.958,47.036,47.036,0,0,0,8.952,14.935c1.7,1.933,1.794,4.117.265,5.791a4.061,4.061,0,0,1-6.092-.167,55.954,55.954,0,0,1-11.6-20.311c-.539-1.677-.966-3.39-1.444-5.086-2.672,1.049-5.2,2.317-7.015,4.67a12.461,12.461,0,0,0-2.447,9.58,49.476,49.476,0,0,0,1.606,7.057c.777,2.723-.495,5.121-3.14,5.58a3.76,3.76,0,0,1-4.122-2.068c-3-7.819-4.023-15.644.479-23.316a18.876,18.876,0,0,1,6.536-6.519c.669-.412.937-.833.747-1.565Z" transform="translate(-250.188 -146.209)" fill="#f88847"/>
      <path id="Path_7898" data-name="Path 7898" d="M-1063.305,432.62a7.267,7.267,0,0,1,5.82,3.568c.251.4.4.777,1.036.691.24-.032.751.441.777.718a1.293,1.293,0,0,1-.517,1.039,26.1,26.1,0,0,1-2.622,1.2q-5.381,2.334-10.765,4.661a1.733,1.733,0,0,1-.784.254c-.335-.042-.8-.174-.931-.416a1.153,1.153,0,0,1,.056-1.074c.416-.387.32-.716.2-1.142C-1072.37,437.271-1068.762,432.559-1063.305,432.62Z" transform="translate(-230.984)" fill="#f88847"/>
      <path id="Path_7899" data-name="Path 7899" d="M-1048.1,469.068a7.118,7.118,0,0,1-.057,7.677,6.853,6.853,0,0,1-7.067,3.343,7.131,7.131,0,0,1-6.11-5.274Z" transform="translate(-239.169 -29.638)" fill="#f88847"/>
      <path id="Path_7900" data-name="Path 7900" d="M-927.529,556.472c-.376-1.88-.706-3.771-1.144-5.636-.3-1.289-.753-2.542-1.194-4l4.65,1.213c-.192,1.958-.378,3.862-.566,5.766a2.08,2.08,0,0,0-.058.461c.182,1.322-.57,1.9-1.71,2.178Z" transform="translate(-346.067 -92.877)" fill="#f88847"/>
    </g>
  </g>
</svg>
