<svg id="Group_21" data-name="Group 21" xmlns="http://www.w3.org/2000/svg" xmlns:xlink="http://www.w3.org/1999/xlink" width="354.776" height="289.992" viewBox="0 0 354.776 289.992">
  <defs>
    <linearGradient id="linear-gradient" x1="0.066" y1="0.144" x2="1.002" y2="0.912" gradientUnits="objectBoundingBox">
      <stop offset="0" stop-color="#fff" stop-opacity="0"/>
      <stop offset="1" stop-color="#fff" stop-opacity="0.4"/>
    </linearGradient>
  </defs>
  <g id="Group_1" data-name="Group 1" transform="translate(0 7.635)" opacity="0.2" style="mix-blend-mode: multiply;isolation: isolate">
    <path id="Path_1" data-name="Path 1" d="M1190.46,775.052h101.325l-8.9-41.816h-83.529Z" transform="translate(-1063.735 -497.598)"/>
    <path id="Path_2" data-name="Path 2" d="M1325.874,746.185H1191.058a9.946,9.946,0,0,0-9.944,9.947v.209h154.7v-.209A9.943,9.943,0,0,0,1325.874,746.185Z" transform="translate(-1080.78 -473.985)"/>
    <path id="Path_3" data-name="Path 3" d="M1489.2,651.689H1156.729a11.122,11.122,0,0,0-11.15,11.094V871.055c0,6.121,4.992,11.771,11.15,11.771H1489.2c6.156,0,11.151-5.65,11.151-11.771V662.783A11.124,11.124,0,0,0,1489.2,651.689Z" transform="translate(-1145.579 -646.305)"/>
    <path id="Path_4" data-name="Path 4" d="M1489.2,649.782H1156.729A11.183,11.183,0,0,0,1145.579,661V868.806c0,.059.006.116.011.175h354.75c.005-.059.014-.116.014-.175V661A11.185,11.185,0,0,0,1489.2,649.782Z" transform="translate(-1145.579 -649.782)"/>
    <rect id="Rectangle_1" data-name="Rectangle 1" width="342.914" height="196.958" transform="translate(4.917 15.312)"/>
    <rect id="Rectangle_2" data-name="Rectangle 2" width="342.914" height="129.295" transform="translate(4.917 15.312)"/>
    <path id="Path_5" data-name="Path 5" d="M1281.713,753.574l-4.263-20.025h-83.9Z" transform="translate(-1058.11 -497.028)"/>
    <rect id="Rectangle_3" data-name="Rectangle 3" width="342.914" height="13.17" transform="translate(4.917 15.312)"/>
    <path id="Path_6" data-name="Path 6" d="M1152.764,656.277a3.558,3.558,0,1,0,3.555,3.555A3.563,3.563,0,0,0,1152.764,656.277Z" transform="translate(-1138.976 -637.938)"/>
    <path id="Path_7" data-name="Path 7" d="M1156.251,656.277a3.558,3.558,0,1,0,3.555,3.555A3.559,3.559,0,0,0,1156.251,656.277Z" transform="translate(-1132.612 -637.938)"/>
    <path id="Path_8" data-name="Path 8" d="M1159.74,656.277a3.558,3.558,0,1,0,3.561,3.555A3.561,3.561,0,0,0,1159.74,656.277Z" transform="translate(-1126.249 -637.938)"/>
    <path id="Path_9" data-name="Path 9" d="M1360.1,649.782H1156.664a11.084,11.084,0,0,0-11.085,11.085V868.981h51.327Z" transform="translate(-1145.579 -649.782)"/>
    <path id="Path_10" data-name="Path 10" d="M1393.725,709.844v41.2H1173.543v-41.2h220.182m6.4-6.4H1167.148v53.992h232.973V703.449Z" transform="translate(-1106.246 -551.917)"/>
    <path id="Path_11" data-name="Path 11" d="M1393.175,709.294v41.2H1172.993v-41.2h220.182m5.543-5.543H1167.45v52.287h231.268V703.751Z" transform="translate(-1105.696 -551.366)"/>
    <rect id="Rectangle_4" data-name="Rectangle 4" width="220.185" height="41.2" transform="translate(67.296 157.929)"/>
    <path id="Path_12" data-name="Path 12" d="M1289.271,724.12c-7.384-.658-14.525,2.208-21.569,4.046-6.588,1.773-16.885,6.41-20.748-2.008l1.5-.658c.432,2.623-1.711,6.757-4.856,5.667-2.595-1.926-1.243-7.35,1.7-8.25a1.209,1.209,0,0,1,1.22.494,1.443,1.443,0,0,1,.2.982c-.8,3.225-5.622,5.292-8.443,3.544-1.417-.836-2.092-2.157-3.055-3.089a.328.328,0,0,0,.3.008c-.782,1.468-2.4,6.2-5.48,4.532-1.358-.8-1.551-2.536-1.932-3.563-.017-.023.178.169.325.152a.622.622,0,0,0,.384-.059c-.7.878-1.373,2.3-2.282,3.4-3.275,4.328-8.083-2.917-7-6.424a.809.809,0,0,1,1.307-.361c4.329,3.535-6.915,11.93-8.476,6.463-.548-3.544,3.857-7.406,7.33-7.067a.844.844,0,0,1-.133,1.674,25.617,25.617,0,0,0-12.116,3.38c-6.029,3.535-13.107,8.479-14.321,15.776l-.059.723.133.686a2.771,2.771,0,0,0,.321,1.09c-.115.246.935-.178,1.615-.895,5.1-5.447,8.313-12.551,11.108-19.409,1.446-3.976,2.863-8.312,2.47-12.257-1.073-5.031-7.031-1.24-9.117,1.22a19.538,19.538,0,0,0-5.475,11.483c-.124-6.113,6.613-18.331,13.9-16.063,6.994,4.3-2.92,22.659-5.856,28.146-1.646,2.457-6.387,11.732-9.888,8.931-5.133-11.28,17.433-25.3,27.264-24.5l-.217,1.675c-1.8-.367-6.6,3.481-5.023,5.472,1.73.474,7.048-3.2,5.5-5.181l1.3-.361a4.061,4.061,0,0,0,.508,2.671c3.247,5.836,3.563,1.068,6.262-1.674,2.547-1.426,1.672,4.357,3.812,3.4,1.152-.774,1.57-2.832,2.589-4.151.76-1.042,2.084-.438,2.655.446,1.417,1.948,2.88,3.284,4.854,2.49,1.3-.415,2.86-1.234,3.238-2.485.014-.02-.033-.065.068.141.121.246.5.24.454.24-1.4.633-2.163,4.108-1.157,5.088,1.188.251,2.812-2.578,2.378-3.9a.844.844,0,0,1,.708-1c1.234.008,1.621,2.084,2.313,2.626a5.9,5.9,0,0,0,4.292,1.993c11.675-.861,23.269-6.774,35.173-5.28Z" transform="translate(-1061.761 -541.692)"/>
    <text id="ELECTRONIC_SIGNATURE" data-name="ELECTRONIC
SIGNATURE" transform="translate(170.15 49.522)" font-size="8" font-family="Roboto-Bold, Roboto" font-weight="700" letter-spacing="0.075em"><tspan x="-23.623" y="0">ELECTRONIC</tspan><tspan font-size="23"><tspan x="-68.83" y="23">SIGNATURE</tspan></tspan></text>
    <rect id="Rectangle_5" data-name="Rectangle 5" width="86.76" height="39.929" transform="translate(132.993 93.826)"/>
    <rect id="Rectangle_6" data-name="Rectangle 6" width="12.769" height="12.769" transform="translate(141.104 101.978)"/>
    <rect id="Rectangle_7" data-name="Rectangle 7" width="52.245" height="4.221" transform="translate(160.053 101.978)"/>
    <rect id="Rectangle_8" data-name="Rectangle 8" width="52.245" height="4.221" transform="translate(160.053 112.377)"/>
    <rect id="Rectangle_9" data-name="Rectangle 9" width="52.245" height="4.221" transform="translate(160.053 122.776)"/>
    <rect id="Rectangle_10" data-name="Rectangle 10" width="86.76" height="39.929" transform="translate(28.624 93.826)"/>
    <rect id="Rectangle_11" data-name="Rectangle 11" width="12.769" height="12.769" transform="translate(36.735 101.978)"/>
    <rect id="Rectangle_12" data-name="Rectangle 12" width="52.245" height="4.221" transform="translate(55.684 101.978)"/>
    <rect id="Rectangle_13" data-name="Rectangle 13" width="52.245" height="4.221" transform="translate(55.684 112.377)"/>
    <rect id="Rectangle_14" data-name="Rectangle 14" width="52.245" height="4.221" transform="translate(55.684 122.776)"/>
    <rect id="Rectangle_15" data-name="Rectangle 15" width="86.76" height="39.929" transform="translate(237.362 93.826)"/>
    <rect id="Rectangle_16" data-name="Rectangle 16" width="12.769" height="12.769" transform="translate(245.473 101.978)"/>
    <rect id="Rectangle_17" data-name="Rectangle 17" width="52.245" height="4.221" transform="translate(264.422 101.978)"/>
    <rect id="Rectangle_18" data-name="Rectangle 18" width="52.245" height="4.221" transform="translate(264.422 112.377)"/>
    <rect id="Rectangle_19" data-name="Rectangle 19" width="52.245" height="4.221" transform="translate(264.422 122.776)"/>
    <path id="Path_13" data-name="Path 13" d="M1239.139,712.609l-2.3,2.134,8,8.654.72.779a2.292,2.292,0,0,0,2.663-1.042c3.631-7.2,7.672-10.481,15.115-12.8L1253.3,699.5Z" transform="translate(-979.168 -559.12)"/>
    <path id="Path_14" data-name="Path 14" d="M1290.381,683.627l-47.334,43.822,10.37,11.2c.246-.107.492-.217.734-.327,19.9-9.405,34.482-25.568,45.623-44.57-.053-.051-.113-.1-.164-.155Z" transform="translate(-967.84 -588.063)"/>
    <path id="Path_15" data-name="Path 15" d="M1242.666,700.433l10.015,10.814c.508-.158,1.033-.3,1.576-.452l.5-.44-10.527-11.368Z" transform="translate(-968.534 -560.053)"/>
    <path id="Path_16" data-name="Path 16" d="M1235.009,709.758a2.284,2.284,0,0,0-1.24,2.572l.72.774,8.013,8.652,2.313-2.135,14.155-13.11-10.032-10.837C1246.054,702.917,1242.468,706.692,1235.009,709.758Z" transform="translate(-984.804 -566.095)"/>
    <path id="Path_17" data-name="Path 17" d="M1287.722,680.046c-19.807,9.651-37.042,22.944-47.95,42.057-.13.237-.259.469-.386.706l10.373,11.207,47.335-43.819-9.23-9.973A2.226,2.226,0,0,1,1287.722,680.046Z" transform="translate(-974.517 -594.593)"/>
    <path id="Path_18" data-name="Path 18" d="M1281.369,678.276c-16.024,7.807-30.37,18-41.041,31.743l1.92,2.07c10.665-13.731,25-23.924,41.026-31.734l-1.759-1.9C1281.465,678.4,1281.419,678.335,1281.369,678.276Z" transform="translate(-972.798 -597.821)"/>
    <path id="Path_19" data-name="Path 19" d="M1240.928,694.435l1.917,2.07c1.784-2.3,3.679-4.5,5.664-6.613l-1.915-2.067Q1243.613,690.984,1240.928,694.435Z" transform="translate(-971.703 -580.408)"/>
    <path id="Path_20" data-name="Path 20" d="M1239.708,695.439c-.192.528-.376,1.042-.576,1.531l10.012,10.82,1.564-1.443-10.524-11.373Z" transform="translate(-974.979 -567.373)"/>
    <path id="Path_21" data-name="Path 21" d="M1259.3,704.9l-26.1,24.161a5.025,5.025,0,1,0,1.336,4.086l26.005-6.731c-.768-5.207,2.14-9.976,5.387-14.344Z" transform="translate(-1001.633 -549.274)"/>
    <path id="Path_22" data-name="Path 22" d="M1237.977,706.641l-8.728,25.452a5.029,5.029,0,0,0-3.425,8.4l5.743-5.32.029.04,27.736-25.68-6.641-7.161C1248.085,705.275,1243.108,707.807,1237.977,706.641Z" transform="translate(-1001.633 -553.875)"/>
    <path id="Path_23" data-name="Path 23" d="M1250.136,708.5a3.477,3.477,0,0,0-5.667,3.905l-19.717,18.254,1.338,1.443,19.717-18.254a3.476,3.476,0,0,0,4.328-5.348Z" transform="translate(-1001.202 -544.729)"/>
    <path id="Path_24" data-name="Path 24" d="M1262.347,679.477a5.3,5.3,0,0,0-7.488-.288l23.365,25.243,2.44-2.256a1.971,1.971,0,0,0,.124-2.778Z" transform="translate(-946.299 -598.731)"/>
    <path id="Path_25" data-name="Path 25" d="M1239.139,711.761l-2.3,2.135,8,8.654.72.779a2.288,2.288,0,0,0,2.663-1.042c3.631-7.2,7.672-10.481,15.115-12.8L1253.3,698.651Z" transform="translate(-979.168 -560.666)"/>
    <path id="Path_26" data-name="Path 26" d="M1290.381,682.779,1243.047,726.6l10.37,11.2c.246-.107.492-.218.734-.328,19.9-9.405,34.482-25.567,45.623-44.567-.053-.054-.113-.1-.164-.158Z" transform="translate(-967.84 -589.61)"/>
    <path id="Path_27" data-name="Path 27" d="M1242.666,699.585l10.015,10.817c.508-.161,1.033-.3,1.576-.455l.5-.441-10.527-11.368Z" transform="translate(-968.534 -561.6)"/>
    <path id="Path_28" data-name="Path 28" d="M1235.009,708.91a2.285,2.285,0,0,0-1.24,2.572l.72.774,8.013,8.654,2.313-2.138,14.155-13.11-10.032-10.837C1246.054,702.071,1242.468,705.844,1235.009,708.91Z" transform="translate(-984.804 -567.641)"/>
    <path id="Path_29" data-name="Path 29" d="M1287.722,679.2c-19.807,9.651-37.042,22.944-47.95,42.057-.13.237-.259.469-.386.706l10.373,11.207,47.335-43.819-9.23-9.973A2.138,2.138,0,0,1,1287.722,679.2Z" transform="translate(-974.517 -596.14)"/>
    <path id="Path_30" data-name="Path 30" d="M1281.369,677.428c-16.024,7.807-30.37,18-41.041,31.746l1.92,2.067c10.665-13.731,25-23.924,41.026-31.734l-1.759-1.9C1281.465,677.55,1281.419,677.487,1281.369,677.428Z" transform="translate(-972.798 -599.368)"/>
    <path id="Path_31" data-name="Path 31" d="M1240.928,693.587l1.917,2.073c1.784-2.307,3.679-4.5,5.664-6.616l-1.915-2.067Q1243.613,690.137,1240.928,693.587Z" transform="translate(-971.703 -581.954)"/>
    <path id="Path_32" data-name="Path 32" d="M1239.708,694.594c-.192.525-.376,1.039-.576,1.528l10.012,10.82,1.564-1.443-10.524-11.373Z" transform="translate(-974.979 -568.919)"/>
    <path id="Path_33" data-name="Path 33" d="M1259.3,704.05l-26.1,24.161a5.025,5.025,0,1,0,1.336,4.086l26.005-6.731c-.768-5.207,2.14-9.976,5.387-14.344Z" transform="translate(-1001.633 -550.821)"/>
    <path id="Path_34" data-name="Path 34" d="M1237.977,705.793l-8.728,25.454a5.026,5.026,0,0,0-3.425,8.4l5.743-5.317.029.037,27.736-25.677-6.641-7.164C1248.085,704.427,1243.108,706.962,1237.977,705.793Z" transform="translate(-1001.633 -555.421)"/>
    <path id="Path_35" data-name="Path 35" d="M1250.136,707.655a3.477,3.477,0,0,0-5.667,3.905l-19.717,18.257,1.338,1.44L1245.808,713a3.476,3.476,0,0,0,4.328-5.348Z" transform="translate(-1001.202 -546.274)"/>
    <path id="Path_36" data-name="Path 36" d="M1262.347,678.628a5.3,5.3,0,0,0-7.488-.288l23.365,25.243,2.44-2.256a1.971,1.971,0,0,0,.124-2.778Z" transform="translate(-946.299 -600.277)"/>
  </g>
  <g id="Group_20" data-name="Group 20">
    <g id="Group_19" data-name="Group 19">
      <g id="Group_5" data-name="Group 5">
        <path id="Path_37" data-name="Path 37" d="M1190.46,772.348h101.325l-8.9-41.816h-83.529Z" transform="translate(-1063.735 -494.893)" fill="#364d5c"/>
        <path id="Path_38" data-name="Path 38" d="M1325.874,743.482H1191.058a9.944,9.944,0,0,0-9.944,9.948v.206h154.7v-.206A9.942,9.942,0,0,0,1325.874,743.482Z" transform="translate(-1080.78 -471.279)" fill="#0d2038"/>
        <path id="Path_39" data-name="Path 39" d="M1489.2,648.986H1156.729a11.121,11.121,0,0,0-11.15,11.091V868.352c0,6.121,4.992,11.769,11.15,11.769H1489.2c6.156,0,11.151-5.647,11.151-11.769V660.077A11.123,11.123,0,0,0,1489.2,648.986Z" transform="translate(-1145.579 -643.599)" fill="#364d5c"/>
        <path id="Path_40" data-name="Path 40" d="M1489.2,647.078H1156.729a11.185,11.185,0,0,0-11.15,11.221V866.105c0,.059.006.113.011.175h354.75c.005-.062.014-.116.014-.175V658.3A11.187,11.187,0,0,0,1489.2,647.078Z" transform="translate(-1145.579 -647.078)" fill="#0e2037"/>
        <rect id="Rectangle_20" data-name="Rectangle 20" width="342.914" height="196.958" transform="translate(4.917 15.313)" fill="#fff"/>
        <rect id="Rectangle_21" data-name="Rectangle 21" width="342.914" height="129.295" transform="translate(4.917 15.313)" fill="#d7e9ff"/>
        <path id="Path_41" data-name="Path 41" d="M1281.713,750.87l-4.263-20.025h-83.9Z" transform="translate(-1058.11 -494.323)" fill="#183a4c"/>
        <g id="Group_4" data-name="Group 4" transform="translate(4.917 15.313)">
          <g id="Group_2" data-name="Group 2">
            <rect id="Rectangle_22" data-name="Rectangle 22" width="342.914" height="13.17" fill="#14475f"/>
          </g>
          <g id="Group_3" data-name="Group 3" transform="translate(5.307 3.028)">
            <path id="Path_42" data-name="Path 42" d="M1152.764,653.574a3.558,3.558,0,1,0,3.555,3.555A3.563,3.563,0,0,0,1152.764,653.574Z" transform="translate(-1149.2 -653.574)" fill="#fff"/>
          </g>
          <path id="Path_43" data-name="Path 43" d="M1156.251,653.574a3.558,3.558,0,1,0,3.555,3.555A3.559,3.559,0,0,0,1156.251,653.574Z" transform="translate(-1137.528 -650.546)" fill="#fff"/>
          <path id="Path_44" data-name="Path 44" d="M1159.74,653.574a3.558,3.558,0,1,0,3.561,3.555A3.561,3.561,0,0,0,1159.74,653.574Z" transform="translate(-1131.166 -650.546)" fill="#fff"/>
        </g>
        <path id="Path_45" data-name="Path 45" d="M1360.1,647.078H1156.664a11.086,11.086,0,0,0-11.085,11.085V866.28h51.327Z" transform="translate(-1145.579 -647.078)" fill="url(#linear-gradient)"/>
      </g>
      <g id="Group_6" data-name="Group 6" transform="translate(60.901 151.532)">
        <path id="Path_46" data-name="Path 46" d="M1393.725,707.143v41.2H1173.543v-41.2h220.182m6.4-6.4H1167.148v54h232.973v-54Z" transform="translate(-1167.148 -700.745)" fill="#d7e9ff"/>
        <path id="Path_47" data-name="Path 47" d="M1393.175,706.591v41.2H1172.993v-41.2h220.182m5.543-5.543H1167.45v52.284h231.268V701.048Z" transform="translate(-1166.597 -700.193)" fill="#fff"/>
        <rect id="Rectangle_23" data-name="Rectangle 23" width="220.185" height="41.2" transform="translate(6.394 6.398)" fill="#d7e9ff"/>
      </g>
      <g id="Group_7" data-name="Group 7" transform="translate(129.781 167.367)">
        <path id="Path_48" data-name="Path 48" d="M1289.271,721.414c-7.384-.658-14.525,2.208-21.569,4.046-6.588,1.776-16.885,6.412-20.748-2l1.5-.658c.432,2.62-1.711,6.754-4.856,5.667-2.595-1.926-1.243-7.35,1.7-8.251a1.209,1.209,0,0,1,1.22.494,1.443,1.443,0,0,1,.2.983c-.8,3.224-5.622,5.291-8.443,3.544-1.417-.836-2.092-2.157-3.055-3.089a.32.32,0,0,0,.3.006c-.782,1.468-2.4,6.2-5.48,4.535-1.358-.8-1.551-2.536-1.932-3.563-.017-.023.178.167.325.152a.623.623,0,0,0,.384-.059c-.7.875-1.373,2.3-2.282,3.394-3.275,4.331-8.083-2.914-7-6.421a.81.81,0,0,1,1.307-.364c4.329,3.535-6.915,11.929-8.476,6.466-.548-3.546,3.857-7.406,7.33-7.07a.844.844,0,0,1-.133,1.675,25.615,25.615,0,0,0-12.116,3.383c-6.029,3.535-13.107,8.479-14.321,15.772l-.059.723.133.689a2.76,2.76,0,0,0,.321,1.087c-.115.249.935-.178,1.615-.892,5.1-5.447,8.313-12.554,11.108-19.409,1.446-3.978,2.863-8.315,2.47-12.257-1.073-5.035-7.031-1.24-9.117,1.217a19.545,19.545,0,0,0-5.475,11.486c-.124-6.113,6.613-18.331,13.9-16.063,6.994,4.3-2.92,22.659-5.856,28.142-1.646,2.457-6.387,11.735-9.888,8.934-5.133-11.283,17.433-25.3,27.264-24.5l-.217,1.672c-1.8-.364-6.6,3.484-5.023,5.475,1.73.474,7.048-3.2,5.5-5.181l1.3-.361a4.064,4.064,0,0,0,.508,2.671c3.247,5.836,3.563,1.067,6.262-1.674,2.547-1.429,1.672,4.357,3.812,3.4,1.152-.774,1.57-2.832,2.589-4.151.76-1.042,2.084-.438,2.655.446,1.417,1.945,2.88,3.284,4.854,2.49,1.3-.418,2.86-1.234,3.238-2.488.014-.02-.033-.065.068.144.121.243.5.24.454.237-1.4.633-2.163,4.111-1.157,5.088,1.188.254,2.812-2.578,2.378-3.9a.846.846,0,0,1,.708-1c1.234.008,1.621,2.084,2.313,2.626a5.907,5.907,0,0,0,4.292,2c11.675-.864,23.269-6.774,35.173-5.283Z" transform="translate(-1191.543 -706.353)" fill="#0e2037"/>
      </g>
      <g id="Group_8" data-name="Group 8" transform="translate(101.15 42.524)">
        <text id="ELECTRONIC_SIGNATURE-2" data-name="ELECTRONIC
SIGNATURE" transform="translate(69 7)" fill="#14475f" font-size="8" font-family="Roboto-Bold, Roboto" font-weight="700" letter-spacing="0.075em"><tspan x="-23.623" y="0">ELECTRONIC</tspan><tspan font-size="23"><tspan x="-68.83" y="23">SIGNATURE</tspan></tspan></text>
      </g>
      <g id="Group_10" data-name="Group 10" transform="translate(132.993 93.828)">
        <rect id="Rectangle_24" data-name="Rectangle 24" width="86.76" height="39.929" fill="#fff"/>
        <g id="Group_9" data-name="Group 9" transform="translate(8.111 8.151)">
          <rect id="Rectangle_25" data-name="Rectangle 25" width="12.769" height="12.769" fill="#14475f"/>
        </g>
        <rect id="Rectangle_26" data-name="Rectangle 26" width="52.245" height="4.221" transform="translate(27.059 8.151)" fill="#c7e3ff"/>
        <rect id="Rectangle_27" data-name="Rectangle 27" width="52.245" height="4.221" transform="translate(27.059 18.551)" fill="#c7e3ff"/>
        <rect id="Rectangle_28" data-name="Rectangle 28" width="52.245" height="4.221" transform="translate(27.059 28.95)" fill="#c7e3ff"/>
      </g>
      <g id="Group_12" data-name="Group 12" transform="translate(28.624 93.828)">
        <rect id="Rectangle_29" data-name="Rectangle 29" width="86.76" height="39.929" fill="#fff"/>
        <g id="Group_11" data-name="Group 11" transform="translate(8.111 8.151)">
          <rect id="Rectangle_30" data-name="Rectangle 30" width="12.769" height="12.769" fill="#14475f"/>
        </g>
        <rect id="Rectangle_31" data-name="Rectangle 31" width="52.245" height="4.221" transform="translate(27.06 8.151)" fill="#c7e3ff"/>
        <rect id="Rectangle_32" data-name="Rectangle 32" width="52.245" height="4.221" transform="translate(27.06 18.551)" fill="#c7e3ff"/>
        <rect id="Rectangle_33" data-name="Rectangle 33" width="52.245" height="4.221" transform="translate(27.06 28.95)" fill="#c7e3ff"/>
      </g>
      <g id="Group_14" data-name="Group 14" transform="translate(237.362 93.828)">
        <rect id="Rectangle_34" data-name="Rectangle 34" width="86.76" height="39.929" fill="#fff"/>
        <g id="Group_13" data-name="Group 13" transform="translate(8.111 8.151)">
          <rect id="Rectangle_35" data-name="Rectangle 35" width="12.769" height="12.769" fill="#14475f"/>
        </g>
        <rect id="Rectangle_36" data-name="Rectangle 36" width="52.245" height="4.221" transform="translate(27.06 8.151)" fill="#c7e3ff"/>
        <rect id="Rectangle_37" data-name="Rectangle 37" width="52.245" height="4.221" transform="translate(27.06 18.551)" fill="#c7e3ff"/>
        <rect id="Rectangle_38" data-name="Rectangle 38" width="52.245" height="4.221" transform="translate(27.06 28.95)" fill="#c7e3ff"/>
      </g>
      <g id="Group_18" data-name="Group 18" transform="translate(222.882 76.653)">
        <g id="Group_15" data-name="Group 15" transform="translate(0 2.393)" style="mix-blend-mode: multiply;isolation: isolate">
          <path id="Path_49" data-name="Path 49" d="M1239.139,709.9l-2.3,2.138,8,8.654.72.779a2.292,2.292,0,0,0,2.663-1.042c3.631-7.2,7.672-10.481,15.115-12.8L1253.3,696.8Z" transform="translate(-1202.05 -635.463)" fill="#e6e7e8"/>
          <path id="Path_50" data-name="Path 50" d="M1290.381,680.924l-47.334,43.819,10.37,11.207c.246-.107.492-.22.734-.331,19.9-9.405,34.482-25.567,45.623-44.567-.053-.051-.113-.1-.164-.158Z" transform="translate(-1190.722 -664.404)" fill="#e6e7e8"/>
          <path id="Path_51" data-name="Path 51" d="M1242.666,697.727l10.015,10.817c.508-.161,1.033-.3,1.576-.452l.5-.441-10.527-11.368Z" transform="translate(-1191.417 -636.394)" fill="#e6e7e8"/>
          <path id="Path_52" data-name="Path 52" d="M1235.009,707.057a2.282,2.282,0,0,0-1.24,2.57l.72.776,8.013,8.651,2.313-2.135,14.155-13.11-10.032-10.84C1246.054,700.215,1242.468,703.988,1235.009,707.057Z" transform="translate(-1207.686 -642.438)" fill="#e6e7e8"/>
          <path id="Path_53" data-name="Path 53" d="M1287.722,677.342c-19.807,9.654-37.042,22.944-47.95,42.06-.13.234-.259.469-.386.706l10.373,11.207,47.335-43.822-9.23-9.97A2.224,2.224,0,0,1,1287.722,677.342Z" transform="translate(-1197.4 -670.936)" fill="#e6e7e8"/>
          <path id="Path_54" data-name="Path 54" d="M1281.369,675.573c-16.024,7.807-30.37,18-41.041,31.743l1.92,2.067c10.665-13.731,25-23.924,41.026-31.731l-1.759-1.9C1281.465,675.695,1281.419,675.629,1281.369,675.573Z" transform="translate(-1195.68 -674.162)" fill="#e6e7e8"/>
          <path id="Path_55" data-name="Path 55" d="M1240.928,691.732l1.917,2.07c1.784-2.307,3.679-4.5,5.664-6.613l-1.915-2.067Q1243.613,688.282,1240.928,691.732Z" transform="translate(-1194.586 -656.749)" fill="#e6e7e8"/>
          <path id="Path_56" data-name="Path 56" d="M1239.708,692.736c-.192.525-.376,1.039-.576,1.53l10.012,10.82,1.564-1.446-10.524-11.37Z" transform="translate(-1197.861 -643.714)" fill="#e6e7e8"/>
          <path id="Path_57" data-name="Path 57" d="M1259.3,702.2l-26.1,24.161a5.022,5.022,0,1,0,1.336,4.086l26.005-6.731c-.768-5.209,2.14-9.976,5.387-14.346Z" transform="translate(-1224.516 -625.615)" fill="#e6e7e8"/>
          <path id="Path_58" data-name="Path 58" d="M1237.977,703.94l-8.728,25.452a5.028,5.028,0,0,0-3.425,8.4l5.743-5.317.029.037,27.736-25.678-6.641-7.163C1248.085,702.571,1243.108,705.106,1237.977,703.94Z" transform="translate(-1224.515 -630.218)" fill="#e6e7e8"/>
          <path id="Path_59" data-name="Path 59" d="M1250.136,705.8a3.477,3.477,0,0,0-5.667,3.905l-19.717,18.254,1.338,1.44,19.717-18.254a3.474,3.474,0,0,0,4.328-5.345Z" transform="translate(-1224.084 -621.071)" fill="#e6e7e8"/>
          <path id="Path_60" data-name="Path 60" d="M1262.347,676.775a5.3,5.3,0,0,0-7.488-.291l23.365,25.243,2.44-2.253a1.971,1.971,0,0,0,.124-2.778Z" transform="translate(-1169.182 -675.073)" fill="#e6e7e8"/>
        </g>
        <g id="Group_17" data-name="Group 17">
          <g id="Group_16" data-name="Group 16">
            <path id="Path_61" data-name="Path 61" d="M1239.139,709.06l-2.3,2.135,8,8.654.72.779a2.292,2.292,0,0,0,2.663-1.042c3.631-7.2,7.672-10.481,15.115-12.8l-10.035-10.84Z" transform="translate(-1202.05 -634.615)" fill="#14475f"/>
            <path id="Path_62" data-name="Path 62" d="M1290.381,680.076l-47.334,43.819,10.37,11.207c.246-.107.492-.217.734-.33,19.9-9.4,34.482-25.565,45.623-44.567-.053-.051-.113-.1-.164-.156Z" transform="translate(-1190.722 -663.557)" fill="#14475f"/>
            <path id="Path_63" data-name="Path 63" d="M1242.666,696.879l10.015,10.817c.508-.158,1.033-.3,1.576-.452l.5-.441-10.527-11.368Z" transform="translate(-1191.417 -635.547)" fill="#fff"/>
            <path id="Path_64" data-name="Path 64" d="M1235.009,706.209a2.282,2.282,0,0,0-1.24,2.569l.72.776,8.013,8.651,2.313-2.135,14.155-13.11-10.032-10.84C1246.054,699.367,1242.468,703.14,1235.009,706.209Z" transform="translate(-1207.686 -641.591)" fill="#008f8d"/>
            <path id="Path_65" data-name="Path 65" d="M1287.722,676.5c-19.807,9.651-37.042,22.941-47.95,42.057-.13.234-.259.469-.386.706l10.373,11.207,47.335-43.819-9.23-9.973C1287.812,676.614,1287.767,676.557,1287.722,676.5Z" transform="translate(-1197.4 -670.088)" fill="#008f8d"/>
            <path id="Path_66" data-name="Path 66" d="M1281.369,674.725c-16.024,7.807-30.37,18-41.041,31.743l1.92,2.067c10.665-13.731,25-23.921,41.026-31.731l-1.759-1.9C1281.465,674.847,1281.419,674.781,1281.369,674.725Z" transform="translate(-1195.68 -673.315)" fill="#14475f"/>
            <path id="Path_67" data-name="Path 67" d="M1240.928,690.884l1.917,2.07c1.784-2.3,3.679-4.5,5.664-6.613l-1.915-2.067Q1243.613,687.434,1240.928,690.884Z" transform="translate(-1194.586 -655.902)" fill="#14475f"/>
            <path id="Path_68" data-name="Path 68" d="M1239.708,691.888c-.192.528-.376,1.039-.576,1.531l10.012,10.82,1.564-1.443-10.524-11.373Z" transform="translate(-1197.861 -642.867)" fill="#fff"/>
            <path id="Path_69" data-name="Path 69" d="M1259.3,701.347l-26.1,24.161a5.022,5.022,0,1,0,1.336,4.086l26.005-6.731c-.768-5.207,2.14-9.976,5.387-14.344Z" transform="translate(-1224.516 -624.768)" fill="#14475f"/>
            <path id="Path_70" data-name="Path 70" d="M1237.977,703.092l-8.728,25.451a5.028,5.028,0,0,0-3.425,8.4l5.743-5.317.029.037,27.736-25.678-6.641-7.163C1248.085,701.723,1243.108,704.258,1237.977,703.092Z" transform="translate(-1224.515 -629.371)" fill="#364d5c"/>
            <path id="Path_71" data-name="Path 71" d="M1250.136,704.954a3.477,3.477,0,0,0-5.667,3.905l-19.717,18.254,1.338,1.44,19.717-18.254a3.474,3.474,0,0,0,4.328-5.345Z" transform="translate(-1224.084 -620.224)" fill="#fff"/>
            <path id="Path_72" data-name="Path 72" d="M1262.347,675.926a5.3,5.3,0,0,0-7.488-.291l23.365,25.246,2.44-2.256a1.971,1.971,0,0,0,.124-2.778Z" transform="translate(-1169.182 -674.226)" fill="#14475f"/>
          </g>
        </g>
      </g>
    </g>
  </g>
</svg>
