<svg xmlns="http://www.w3.org/2000/svg" width="20.814" height="25.466" viewBox="0 0 20.814 25.466">
  <g id="Group_1145" data-name="Group 1145" transform="translate(-51.6 -6)">
    <path id="Path_13195" data-name="Path 13195" d="M150.54,360.7H150v2.423h.54a.8.8,0,0,0,.631-.27,1.01,1.01,0,0,0,.234-.692v-.509a1,1,0,0,0-.234-.687A.8.8,0,0,0,150.54,360.7Z" transform="translate(-93.39 -336.642)" fill="#016b37"/>
    <path id="Path_13196" data-name="Path 13196" d="M89.813,360.7H89.1v1.166h.718a.626.626,0,0,0,.463-.163.586.586,0,0,0,.153-.417.607.607,0,0,0-.153-.423A.638.638,0,0,0,89.813,360.7Z" transform="translate(-35.591 -336.642)" fill="#016b37"/>
    <path id="Path_13197" data-name="Path 13197" d="M62.093,330.022l3.34-2.922H51.6v5.85H65.438Zm-7.011.117a1.234,1.234,0,0,1-.86.28h-.713v1.257h-.555v-3.309h1.268a1.235,1.235,0,0,1,.86.285,1.045,1.045,0,0,1,0,1.487Zm3.487.132a1.386,1.386,0,0,1-.392,1.013,1.4,1.4,0,0,1-1.023.392H56.06v-3.309h1.095a1.4,1.4,0,0,1,1.023.392,1.358,1.358,0,0,1,.392,1.013Zm2.866-1.461H59.868v1.013H61.2v.443H59.868v1.41h-.55v-3.309h2.118v.443Z" transform="translate(0 -304.752)" fill="#016b37"/>
    <path id="Path_13198" data-name="Path 13198" d="M338.67,65.949h-1.42V63.2h-3.213v2.749h-1.415a.205.205,0,0,0-.173.346l3.024,3.508a.252.252,0,0,0,.346,0l3.024-3.508A.2.2,0,0,0,338.67,65.949Z" transform="translate(-266.491 -54.288)" fill="#016b37"/>
    <rect id="Rectangle_162" data-name="Rectangle 162" width="3.213" height="1.247" transform="translate(67.546 7.166)" fill="#016b37"/>
    <path id="Path_13199" data-name="Path 13199" d="M75.732,206v13.207a1.388,1.388,0,0,1-1.39,1.39H60.972a1.388,1.388,0,0,1-1.39-1.39v-.743H58.9v1.018a1.8,1.8,0,0,0,1.8,1.8H74.611a1.8,1.8,0,0,0,1.8-1.8V206.005a.889.889,0,0,1-.331.061A1,1,0,0,1,75.732,206Z" transform="translate(-6.928 -189.818)" fill="#016b37"/>
    <path id="Path_13200" data-name="Path 13200" d="M59.582,42.567a1.388,1.388,0,0,1,1.39-1.39H73.807V40.5H60.7a1.8,1.8,0,0,0-1.8,1.8V54.648h.682Z" transform="translate(-6.928 -32.744)" fill="#016b37"/>
    <path id="Path_13201" data-name="Path 13201" d="M123.037,132H112.3v.988h11.593l-.82-.947A.137.137,0,0,1,123.037,132Z" transform="translate(-57.61 -119.585)" fill="#016b37"/>
    <rect id="Rectangle_163" data-name="Rectangle 163" width="12.076" height="0.988" transform="translate(54.69 14.019)" fill="#016b37"/>
    <rect id="Rectangle_164" data-name="Rectangle 164" width="12.076" height="0.988" transform="translate(54.69 15.622)" fill="#016b37"/>
    <rect id="Rectangle_165" data-name="Rectangle 165" width="12.076" height="0.988" transform="translate(54.69 17.231)" fill="#016b37"/>
    <rect id="Rectangle_166" data-name="Rectangle 166" width="9.459" height="0.988" transform="translate(54.69 18.835)" fill="#016b37"/>
    <path id="Path_13202" data-name="Path 13202" d="M367.918,6.209A.223.223,0,0,0,367.683,6h-2.749a.223.223,0,0,0-.234.209v.458h3.213V6.209Z" transform="translate(-297.159)" fill="#016b37"/>
  </g>
</svg>
