<svg width="144" height="144" viewBox="0 0 144 144" fill="none" xmlns="http://www.w3.org/2000/svg">
<path d="M72.672 143.999C89.0594 143.999 102.344 143.368 102.344 142.59C102.344 141.812 89.0594 141.181 72.672 141.181C56.2846 141.181 43 141.812 43 142.59C43 143.368 56.2846 143.999 72.672 143.999Z" fill="#58595B"/>
<path d="M71.812 130.21C104.455 130.21 130.917 103.748 130.917 71.105C130.917 38.4622 104.455 12 71.812 12C39.1692 12 12.707 38.4622 12.707 71.105C12.707 103.748 39.1692 130.21 71.812 130.21Z" fill="#14475f" stroke="#14475f" stroke-width="24" stroke-miterlimit="10"/>
<path d="M71.812 130.21C104.455 130.21 130.917 103.748 130.917 71.105C130.917 38.4622 104.455 12 71.812 12C39.1692 12 12.707 38.4622 12.707 71.105C12.707 103.748 39.1692 130.21 71.812 130.21Z" fill="#14475f" stroke="white" stroke-width="6" stroke-miterlimit="10"/>
<path d="M71.812 130.21C104.455 130.21 130.917 103.748 130.917 71.105C130.917 38.4622 104.455 12 71.812 12C39.1692 12 12.707 38.4622 12.707 71.105C12.707 103.748 39.1692 130.21 71.812 130.21Z" fill="#14475f"/>
<path d="M66.462 71.8901C80.711 71.8901 91.113 68.3904 94.407 64.4604V51.8652C89.991 57.1652 79.433 60.7144 66.462 60.7144C53.491 60.7144 42.934 57.1622 38.518 51.8652V64.4653C41.809 68.3953 52.211 71.8901 66.462 71.8901Z" fill="white"/>
<path d="M66.46 58.4773C81.8936 58.4773 94.405 52.9721 94.405 46.1813C94.405 39.3904 81.8936 33.8853 66.46 33.8853C51.0264 33.8853 38.515 39.3904 38.515 46.1813C38.515 52.9721 51.0264 58.4773 66.46 58.4773Z" fill="white"/>
<path d="M75.149 87.0732C72.263 87.3861 69.362 87.5412 66.459 87.5381C54.081 87.5381 43.621 84.8453 38.515 80.8433V88.5581C38.515 95.5071 50.79 100.952 66.459 100.952C69.7907 100.96 73.1176 100.699 76.407 100.17L75.785 99.0864C75.771 99.0634 75.758 99.0391 75.745 99.0151C75.2048 98.0298 75.0301 96.8853 75.2517 95.7837C75.4733 94.682 76.0769 93.694 76.956 92.9941L78.299 91.936L76.945 90.8652C76.3736 90.4144 75.9142 89.8375 75.6026 89.1797C75.291 88.5219 75.1358 87.801 75.149 87.0732V87.0732Z" fill="white"/>
<path d="M66.462 85.3032C69.5854 85.3076 72.7062 85.126 75.808 84.7593L78.925 79.3271C79.4906 78.3296 80.3979 77.5705 81.4795 77.1895C82.5611 76.8085 83.7441 76.8315 84.81 77.2544L86.344 77.875L86.579 76.2222C86.7342 75.0886 87.2952 74.0497 88.158 73.2983C89.0208 72.547 90.1269 72.1341 91.271 72.1362H94.407V67.4302C89.301 71.4302 78.841 74.125 66.462 74.125C54.083 74.125 43.624 71.4322 38.518 67.4302V77.8721C41.809 81.8081 52.211 85.3032 66.462 85.3032Z" fill="white"/>
<path d="M109.748 95.6734L106.67 93.2481C106.774 92.3765 106.774 91.4956 106.67 90.6241L109.75 88.1973C109.998 87.9957 110.166 87.7127 110.225 87.399C110.284 87.0852 110.229 86.7611 110.072 86.4834L106.934 81.0152C106.823 80.8074 106.657 80.6341 106.455 80.5132C106.252 80.3924 106.021 80.3286 105.785 80.3291C105.614 80.329 105.445 80.3598 105.285 80.4195L101.657 81.8882C100.959 81.3715 100.208 80.9319 99.415 80.5772L98.862 76.6924C98.8201 76.3747 98.6637 76.0832 98.4222 75.8726C98.1806 75.662 97.8705 75.5466 97.55 75.5484H91.262C90.9431 75.5461 90.6342 75.6595 90.393 75.8682C90.1518 76.0768 89.9947 76.3662 89.951 76.6822L89.397 80.5821C88.6069 80.9401 87.8565 81.3798 87.158 81.8941L83.522 80.4224C83.3733 80.3651 83.2153 80.336 83.056 80.3365C82.8193 80.3348 82.5865 80.3958 82.3813 80.5137C82.176 80.6316 82.0058 80.8021 81.888 81.0074L78.745 86.4844C78.581 86.7615 78.5234 87.0884 78.5828 87.4048C78.6422 87.7213 78.8147 88.0054 79.068 88.2041L82.146 90.6294C82.0407 91.5009 82.0407 92.382 82.146 93.2535L79.066 95.6792C78.8185 95.8808 78.6503 96.1634 78.5912 96.4771C78.532 96.7908 78.5858 97.1153 78.743 97.3931L81.881 102.862C81.9924 103.07 82.1583 103.244 82.3609 103.365C82.5635 103.486 82.7951 103.549 83.031 103.548C83.2001 103.548 83.3677 103.517 83.526 103.457L87.155 101.99C87.8533 102.506 88.6049 102.945 89.397 103.3L89.95 107.185C89.9919 107.503 90.1483 107.795 90.3898 108.005C90.6314 108.216 90.9415 108.331 91.262 108.329H97.553C97.872 108.331 98.1809 108.217 98.4221 108.008C98.6633 107.8 98.8204 107.51 98.864 107.194L99.418 103.3C100.208 102.942 100.958 102.502 101.657 101.989L105.293 103.46C105.448 103.522 105.613 103.553 105.779 103.553V103.553C106.014 103.554 106.244 103.491 106.446 103.372C106.647 103.252 106.813 103.08 106.925 102.874L110.077 97.3814C110.233 97.1037 110.285 96.7799 110.225 96.4673C110.165 96.1547 109.996 95.8734 109.748 95.6734V95.6734ZM94.526 95.6582C93.7829 95.6582 93.0565 95.4378 92.4386 95.0249C91.8208 94.6121 91.3392 94.0255 91.0549 93.3389C90.7706 92.6523 90.6962 91.8968 90.8413 91.168C90.9863 90.4392 91.3442 89.7696 91.8698 89.2442C92.3953 88.7188 93.0648 88.3612 93.7937 88.2163C94.5225 88.0715 95.278 88.1462 95.9645 88.4307C96.6509 88.7152 97.2376 89.1965 97.6503 89.8145C98.063 90.4325 98.2832 91.1593 98.283 91.9024C98.2817 92.8983 97.8854 93.853 97.1811 94.5572C96.4768 95.2613 95.5219 95.6572 94.526 95.6582V95.6582Z" fill="white"/>
</svg>
