<svg width="153" height="152" viewBox="0 0 153 152" fill="none" xmlns="http://www.w3.org/2000/svg">
<path d="M76.38 152C93.1584 152 106.76 151.354 106.76 150.557C106.76 149.76 93.1584 149.114 76.38 149.114C59.6016 149.114 46 149.76 46 150.557C46 151.354 59.6016 152 76.38 152Z" fill="#58595B"/>
<path d="M76.499 15C88.4677 15 100.168 18.5491 110.119 25.1986C120.071 31.8481 127.827 41.2992 132.408 52.3569C136.988 63.4146 138.186 75.5821 135.851 87.3209C133.516 99.0597 127.753 109.842 119.29 118.306C110.826 126.769 100.044 132.532 88.3049 134.867C76.5661 137.202 64.3986 136.004 53.3409 131.424C42.2832 126.843 32.8321 119.087 26.1826 109.135C19.5332 99.1837 15.984 87.4837 15.984 75.515C15.984 59.4654 22.3597 44.0732 33.7084 32.7244C45.0572 21.3757 60.4494 15 76.499 15V15Z" fill="#14475f" stroke="#14475f" stroke-width="30"/>
<path d="M76.499 136.03C109.921 136.03 137.014 108.937 137.014 75.515C137.014 42.0935 109.921 15 76.499 15C43.0775 15 15.984 42.0935 15.984 75.515C15.984 108.937 43.0775 136.03 76.499 136.03Z" fill="#14475f" stroke="white" stroke-width="10" stroke-miterlimit="10"/>
<path d="M76.499 136.03C109.921 136.03 137.014 108.937 137.014 75.515C137.014 42.0935 109.921 15 76.499 15C43.0775 15 15.984 42.0935 15.984 75.515C15.984 108.937 43.0775 136.03 76.499 136.03Z" fill="#14475f"/>
<path d="M55.459 37.728L46.527 46.6611V113.301H104.739V37.7251L55.459 37.728ZM102.239 110.801H49.03V47.7012L56.496 40.2358H102.239V110.801Z" fill="white"/>
<path d="M76.255 96.1382H55.112V99.9022H76.255V96.1382Z" fill="white"/>
<path d="M96.154 54.769H75.011V58.533H96.154V54.769Z" fill="white"/>
<path d="M96.154 47.2412H68.814V51.0052H96.154V47.2412Z" fill="white"/>
<path d="M96.153 88.6099H55.112V92.3739H96.153V88.6099Z" fill="white"/>
<path d="M96.153 81.082H55.112V84.846H96.153V81.082Z" fill="white"/>
<path d="M96.153 73.5879H55.112V77.3519H96.153V73.5879Z" fill="white"/>
<path d="M49.031 47.6919L56.49 40.2329V47.6328L49.031 47.6919Z" fill="white"/>
</svg>
