<svg width="155" height="150" viewBox="0 0 155 150" fill="none" xmlns="http://www.w3.org/2000/svg">
<g clip-path="url(#clip0_10_230)">
<path d="M78.38 150C95.1584 150 108.76 149.354 108.76 148.557C108.76 147.76 95.1584 147.114 78.38 147.114C61.6016 147.114 48 147.76 48 148.557C48 149.354 61.6016 150 78.38 150Z" fill="#58595B"/>
<path d="M77.499 136.03C110.921 136.03 138.014 108.937 138.014 75.515C138.014 42.0935 110.921 15 77.499 15C44.0775 15 16.984 42.0935 16.984 75.515C16.984 108.937 44.0775 136.03 77.499 136.03Z" stroke="#14475f" stroke-width="30" stroke-miterlimit="10"/>
<path d="M77.499 136.03C110.921 136.03 138.014 108.937 138.014 75.515C138.014 42.0935 110.921 15 77.499 15C44.0775 15 16.984 42.0935 16.984 75.515C16.984 108.937 44.0775 136.03 77.499 136.03Z" stroke="white" stroke-width="10" stroke-miterlimit="10"/>
<path d="M77.499 136.03C110.921 136.03 138.014 108.937 138.014 75.515C138.014 42.0935 110.921 15 77.499 15C44.0775 15 16.984 42.0935 16.984 75.515C16.984 108.937 44.0775 136.03 77.499 136.03Z" fill="#14475f"/>
<path d="M53.9231 80.4703C53.4537 82.7781 53.9174 85.178 55.2128 87.1446C56.5082 89.1113 58.5298 90.4845 60.8354 90.9645C63.141 91.4444 65.5428 90.9916 67.5153 89.7052C69.4879 88.4188 70.8707 86.4036 71.3612 84.1002L72.8231 70.6881C68.0231 68.0801 69.7791 78.8883 61.4801 77.0963C55.7791 75.8623 54.2251 79.5133 53.9231 80.4703Z" fill="white"/>
<path d="M115.628 96.5752C115.539 96.3066 115.398 96.0583 115.214 95.8442C115.029 95.6302 114.803 95.4544 114.55 95.3276C114.298 95.2008 114.022 95.1252 113.74 95.105C113.458 95.0848 113.174 95.1204 112.906 95.21L106.92 97.1992L103.156 85.8784C106.635 84.1995 109.373 81.2978 110.849 77.728C112.325 74.1583 112.434 70.1706 111.156 66.5254L101.322 43.7939L75.1731 52.4941L76.9191 59.603L54.5701 54.771L47.2001 78.6123C46.3772 82.3529 46.9482 86.2649 48.8059 89.6143C50.6636 92.9636 53.6802 95.5198 57.2891 96.8022L54.7661 108.465L48.6101 107.137C48.0518 107.017 47.4686 107.123 46.9887 107.433C46.5088 107.742 46.1715 108.23 46.0511 108.788C45.9307 109.346 46.037 109.93 46.3466 110.41C46.6562 110.89 47.1438 111.227 47.7021 111.347L55.9431 113.127C55.9491 113.127 55.9521 113.132 55.9561 113.132C55.9601 113.132 55.9771 113.132 55.9861 113.132L64.2301 114.912C64.786 115.026 65.3645 114.916 65.8398 114.606C66.3151 114.296 66.6489 113.811 66.7685 113.256C66.8881 112.702 66.784 112.122 66.4787 111.644C66.1734 111.165 65.6916 110.826 65.1381 110.701L58.9771 109.37L61.4911 97.7563C61.9031 97.7893 62.3151 97.8223 62.7281 97.8223C66.3704 97.7948 69.8937 96.5223 72.7131 94.2163C75.5326 91.9104 77.4786 88.7094 78.2281 85.145L79.9751 72.0454L81.1221 76.7114C82.1689 79.8723 84.1857 82.6226 86.8857 84.5713C89.5857 86.5199 92.8314 87.5672 96.1611 87.5649C97.1403 87.5568 98.1167 87.4565 99.0771 87.2651L102.831 98.5542L96.8571 100.54C96.369 100.699 95.9537 101.028 95.6863 101.466C95.4189 101.904 95.3169 102.423 95.3988 102.93C95.4806 103.437 95.7408 103.898 96.1325 104.23C96.5243 104.562 97.0217 104.743 97.5351 104.74C97.7662 104.741 97.996 104.704 98.2151 104.63L114.26 99.2964C114.802 99.1166 115.251 98.7289 115.507 98.2188C115.764 97.7086 115.807 97.1174 115.628 96.5752ZM73.9921 84.4131C73.3077 87.3858 71.4893 89.9735 68.9246 91.625C66.3599 93.2765 63.2515 93.8614 60.2621 93.2544V93.2544C57.2988 92.6139 54.7057 90.8351 53.041 88.3013C51.3764 85.7675 50.7735 82.681 51.3621 79.707L57.5181 59.8164L76.7131 63.9673L73.9921 84.4131ZM99.8171 82.6704C96.9386 83.6332 93.7967 83.4231 91.0719 82.0859C88.3471 80.7488 86.2587 78.3923 85.2591 75.5264L80.3001 55.3262L98.9381 49.126L107.138 68.0581C107.618 69.4978 107.809 71.0181 107.701 72.5317C107.592 74.0454 107.187 75.5226 106.507 76.8794C105.828 78.2362 104.887 79.4459 103.74 80.439C102.592 81.4321 101.26 82.189 99.8201 82.667L99.8171 82.6704Z" fill="white"/>
<path d="M104.743 69.2753C104.328 68.3553 102.399 64.8943 96.865 66.7333C88.802 69.4153 89.385 58.4793 84.895 61.5893L87.795 74.7612C88.533 76.9959 90.1253 78.8479 92.2241 79.9125C94.3229 80.9771 96.7578 81.1675 98.9968 80.4428C101.236 79.7181 103.097 78.1368 104.174 76.0444C105.251 73.9519 105.456 71.5186 104.745 69.2753H104.743Z" fill="white"/>
<path d="M67.6421 43.4463C68.1231 43.4197 68.5854 43.2508 68.9705 42.9615C69.3557 42.6722 69.6464 42.2753 69.806 41.8208C69.9656 41.3663 69.9868 40.8748 69.867 40.4082C69.7473 39.9417 69.4919 39.5212 69.1331 39.1998C68.7744 38.8783 68.3283 38.6706 67.8515 38.6026C67.3746 38.5346 66.8883 38.6091 66.454 38.8174C66.0197 39.0258 65.6569 39.3585 65.4114 39.773C65.166 40.1875 65.049 40.6651 65.0751 41.146C65.111 41.7913 65.4015 42.396 65.8828 42.8272C66.3641 43.2584 66.9968 43.4812 67.6421 43.4463V43.4463Z" fill="white"/>
<path d="M77.057 47.7C77.5382 47.6732 78.0006 47.5042 78.3858 47.2146C78.7709 46.9251 79.0616 46.5278 79.2211 46.073C79.3805 45.6183 79.4016 45.1267 79.2816 44.66C79.1616 44.1932 78.9059 43.7724 78.5469 43.451C78.1879 43.1295 77.7416 42.9217 77.2645 42.8538C76.7875 42.7859 76.301 42.8615 75.8666 43.0701C75.4322 43.2787 75.0693 43.6109 74.824 44.0257C74.5786 44.4404 74.4617 44.919 74.488 45.4002C74.5057 45.7199 74.5861 46.033 74.7247 46.3216C74.8634 46.6102 75.0576 46.8687 75.2961 47.0823C75.5347 47.2959 75.813 47.4602 76.1151 47.5662C76.4173 47.6722 76.7373 47.7177 77.057 47.7V47.7Z" fill="white"/>
<path d="M66.286 49.7449C66.3119 50.2263 66.4799 50.6891 66.7689 51.075C67.058 51.4608 67.4549 51.7526 67.9097 51.9128C68.3644 52.0731 68.8564 52.0948 69.3234 51.9753C69.7905 51.8559 70.2117 51.6003 70.5336 51.2415C70.8555 50.8826 71.0638 50.4365 71.132 49.9592C71.2002 49.482 71.1254 48.995 70.9169 48.5603C70.7084 48.1256 70.3756 47.7624 69.9607 47.5168C69.5458 47.2713 69.0674 47.1545 68.586 47.1809C67.9411 47.216 67.3365 47.5058 66.9051 47.9866C66.4738 48.4674 66.2511 49.0999 66.286 49.7449Z" fill="white"/>
</g>
<defs>
<clipPath id="clip0_10_230">
<rect width="155" height="150" fill="white"/>
</clipPath>
</defs>
</svg>
