<svg xmlns="http://www.w3.org/2000/svg" width="80.08" height="105.253" viewBox="0 0 80.08 105.253">
  <g id="Group_1193" data-name="Group 1193" transform="translate(-571.953 -29.93)">
    <path id="Path_13304" data-name="Path 13304" d="M914.082,534.6a7.4,7.4,0,0,1-4.883,1.833,12.04,12.04,0,0,1-6.243-1.841,1.112,1.112,0,0,1-.234-.2,50.27,50.27,0,0,1-9.5-13.572,28.2,28.2,0,0,1-2.735-11.8,18.271,18.271,0,0,1,1.306-7.306,12.538,12.538,0,0,1,10.2-7.925,19.781,19.781,0,0,1,10.08,1.466l.575.219a18.472,18.472,0,0,0-6.355-12.643l4.958-3.945a22.926,22.926,0,0,1,3.734,6.257c.062-.188.1-.283.124-.381a8.842,8.842,0,0,1,5.531-6.028,19.84,19.84,0,0,1,7.549-1.408c1.818-.025,3.638.119,5.457.19a3.117,3.117,0,0,1,.365.072c-.119,1.179-.2,2.355-.364,3.519a17.066,17.066,0,0,1-1.466,4.915c-2.191,4.65-6.263,6.61-11.244,5.336-1.354-.346-2.648-.93-3.966-1.411-.205-.075-.4-.183-.576-.267q.208,2.665.41,5.265c1.091-.292,2.22-.652,3.374-.891a14.937,14.937,0,0,1,9.59.739,12.854,12.854,0,0,1,7.386,9.275,25.035,25.035,0,0,1-1.288,14.611,44.881,44.881,0,0,1-8.308,13.419c-.291.339-.62.649-.882,1.009a8.5,8.5,0,0,1-5.325,3.056A7.969,7.969,0,0,1,914.082,534.6Zm17.806-24.95c-.1-.868-.142-1.749-.321-2.6a9.659,9.659,0,0,0-5.143-6.781,1.852,1.852,0,0,0-2,.075,1.831,1.831,0,0,0-.868,1.758,1.951,1.951,0,0,0,1.114,1.621,5.976,5.976,0,0,1,3.233,4.95,13.277,13.277,0,0,1-.7,5.221,35.568,35.568,0,0,1-3.381,7.32,1.938,1.938,0,1,0,3.353,1.921c.858-1.583,1.728-3.165,2.477-4.8A22.569,22.569,0,0,0,931.888,509.654ZM930.8,481.68a70.777,70.777,0,0,1-11.406,6.358,17.548,17.548,0,0,0,2.441.764c2.506.532,4.787.194,6.568-1.861a9.788,9.788,0,0,0,1.859-3.411C930.461,482.92,930.621,482.3,930.8,481.68Zm-1.4-1.592a20.317,20.317,0,0,0-6.761.806,8.365,8.365,0,0,0-3.412,1.936,5.4,5.4,0,0,0-1.63,3.782A53.774,53.774,0,0,0,929.4,480.088Z" transform="translate(-285.688 -401.266)" fill="#fff"/>
    <path id="Path_13305" data-name="Path 13305" d="M611.256,88.644c0-.171,0-.375,0-.58q0-10.106-.012-20.212a11.2,11.2,0,0,0-.8-4.329,5.823,5.823,0,0,0-1.589-2.185c-1.735-1.511-3.529-2.967-5.143-4.6a16.287,16.287,0,0,1-4.531-7.667c-.082-.342-.3-.31-.546-.309h-4.95c-1.667,0-3.334.012-5-.009-.4-.005-.591.083-.7.514a16.272,16.272,0,0,1-4.41,7.332c-1.224,1.245-2.585,2.361-3.922,3.49a10.728,10.728,0,0,0-3.238,5.163,10.462,10.462,0,0,0-.487,2.88c-.063,2.938-.024,5.878-.025,8.817,0,.084.011.168.02.312.208.009.405.027.6.027q5.775,0,11.55,0a2.206,2.206,0,0,1,2.307,1.454,2.819,2.819,0,0,1-.6,3.006,2.229,2.229,0,0,1-1.609.56q-5.826-.01-11.653,0h-.585v6.012c.227.011.443.031.658.031,3.9,0,7.8,0,11.7,0a2.232,2.232,0,0,1,2.256,2.158,2.446,2.446,0,0,1-1.681,2.779,3.3,3.3,0,0,1-.766.062q-5.749.005-11.5,0h-.66v6.062h12.236a2.191,2.191,0,0,1,2.3,1.735,2.622,2.622,0,0,1-1.086,2.973,2.519,2.519,0,0,1-1.129.264c-3.9.019-7.8.011-11.7.012h-.634c-.011.224-.026.391-.026.559q0,9.384,0,18.768a5.266,5.266,0,0,0,2.8,4.98,4.745,4.745,0,0,0,2.34.513q12.349,0,24.7-.01a.9.9,0,0,1,.87.462c.643.995,1.335,1.958,2.008,2.933l.313.455a7.657,7.657,0,0,1-2.667.416q-8.533,0-17.067,0c-2.681,0-5.364-.061-8.043.014a9,9,0,0,1-8.977-7.48,11.309,11.309,0,0,1-.205-2.149q-.017-27.663-.013-55.325a16.161,16.161,0,0,1,3.739-10.3,16.853,16.853,0,0,1,2.562-2.3,20.975,20.975,0,0,0,5.044-5.666,7.425,7.425,0,0,0,1.09-4.073.789.789,0,0,0-.28-.538,3.7,3.7,0,0,1-1.688-3.324q.1-3.916,0-7.836a3.7,3.7,0,0,1,1.981-3.467,7.446,7.446,0,0,1,3.873-1.088q5.31-.046,10.621,0a7.426,7.426,0,0,1,3.962,1.14,3.694,3.694,0,0,1,1.9,3.414c-.056,2.663-.043,5.328,0,7.992a3.456,3.456,0,0,1-1.535,3.03.91.91,0,0,0-.411.852,8.992,8.992,0,0,0,1.955,5.271,25.034,25.034,0,0,0,5.042,5.054,14.5,14.5,0,0,1,3.215,3.174,12.784,12.784,0,0,1,2.035,5.93A31.2,31.2,0,0,1,615.2,69c.013,6.187,0,12.375.017,18.562,0,.494-.145.613-.627.652C613.5,88.3,612.416,88.487,611.256,88.644Z" transform="translate(0 0)" fill="#fff"/>
  </g>
</svg>
