<svg width="169" height="149" viewBox="0 0 169 149" fill="none" xmlns="http://www.w3.org/2000/svg">
<path d="M84.305 148.999C101.042 148.999 114.61 148.355 114.61 147.56C114.61 146.765 101.042 146.121 84.305 146.121C67.568 146.121 54 146.765 54 147.56C54 148.355 67.568 148.999 84.305 148.999Z" fill="#58595B"/>
<path d="M83.427 14C95.3663 14 107.037 17.5404 116.965 24.1735C126.892 30.8066 134.629 40.2345 139.198 51.2649C143.767 62.2954 144.962 74.433 142.633 86.1428C140.304 97.8527 134.555 108.609 126.112 117.051C117.67 125.494 106.914 131.243 95.2038 133.572C83.494 135.901 71.3564 134.706 60.3259 130.137C49.2955 125.568 39.8676 117.831 33.2345 107.904C26.6014 97.9764 23.061 86.3053 23.061 74.366C23.061 58.3559 29.421 43.0016 40.7418 31.6808C52.0626 20.36 67.4169 14 83.427 14V14Z" stroke="#14475f" stroke-width="28"/>
<path d="M83.427 134.732C116.766 134.732 143.793 107.705 143.793 74.366C143.793 41.0268 116.766 14 83.427 14C50.0878 14 23.061 41.0268 23.061 74.366C23.061 107.705 50.0878 134.732 83.427 134.732Z" stroke="white" stroke-width="9" stroke-miterlimit="10"/>
<path d="M83.427 14C95.3663 14 107.037 17.5404 116.965 24.1735C126.892 30.8066 134.629 40.2345 139.198 51.2649C143.767 62.2954 144.962 74.433 142.633 86.1428C140.304 97.8527 134.555 108.609 126.112 117.051C117.67 125.494 106.914 131.243 95.2038 133.572C83.494 135.901 71.3564 134.706 60.3259 130.137C49.2955 125.568 39.8676 117.831 33.2345 107.904C26.6014 97.9764 23.061 86.3053 23.061 74.366C23.061 58.3559 29.421 43.0016 40.7418 31.6808C52.0626 20.36 67.4169 14 83.427 14V14Z" fill="#14475f"/>
<path d="M52.069 103.697H76.529V79.2319H52.069V103.697ZM55.331 82.4971H73.269V100.438H55.329L55.331 82.4971Z" fill="white"/>
<path d="M69.597 86.1631H58.996V96.7651H69.597V86.1631Z" fill="white"/>
<path d="M52.069 68.3589H76.529V43.895H52.069V68.3589ZM55.331 47.1592H73.269V65.0991H55.329L55.331 47.1592Z" fill="white"/>
<path d="M69.597 50.8271H58.996V61.4281H69.597V50.8271Z" fill="white"/>
<path d="M112.546 43.895H88.082V68.3589H112.546V43.895ZM109.284 65.0952H91.344V47.1553H109.284V65.0952Z" fill="white"/>
<path d="M105.615 50.8271H95.014V61.4281H105.615V50.8271Z" fill="white"/>
<path d="M85.17 43.7012H80.607V48.2642H85.17V43.7012Z" fill="white"/>
<path d="M85.17 49.8169H80.607V54.3789H85.17V49.8169Z" fill="white"/>
<path d="M85.17 56.127H80.607V68.651H85.17V56.127Z" fill="white"/>
<path d="M76.432 71.7573H71.869V76.3193H76.432V71.7573Z" fill="white"/>
<path d="M67.355 71.7573H52.065V76.3193H67.355V71.7573Z" fill="white"/>
<path d="M89.732 71.7573H80.607V80.8833H81.183C81.8109 78.8734 82.9167 77.0452 84.4056 75.5562C85.8945 74.0671 87.7222 72.9612 89.732 72.333V71.7573Z" fill="white"/>
<path d="M117.898 97.2071L114.758 94.732C114.865 93.8428 114.865 92.9444 114.758 92.0552L117.9 89.5791C118.152 89.3733 118.324 89.0848 118.384 88.7647C118.444 88.4446 118.389 88.1136 118.229 87.8301L115.029 82.252C114.873 81.9624 114.615 81.7406 114.306 81.6285C113.996 81.5163 113.657 81.5219 113.351 81.6441L109.651 83.1441C108.939 82.6173 108.172 82.1688 107.364 81.8062L106.799 77.8433C106.756 77.5191 106.597 77.2214 106.351 77.0064C106.104 76.7913 105.788 76.6738 105.461 76.6753H99.0391C98.7135 76.673 98.3981 76.7889 98.1519 77.002C97.9057 77.2151 97.7455 77.5105 97.701 77.833L97.136 81.8062C96.3302 82.1724 95.5644 82.621 94.851 83.1451L91.141 81.6451C90.8373 81.5311 90.5029 81.5288 90.1977 81.6387C89.8925 81.7486 89.6364 81.9637 89.475 82.2452L86.269 87.833C86.1013 88.1155 86.0421 88.4496 86.1025 88.7725C86.1628 89.0954 86.3386 89.3851 86.597 89.5879L89.738 92.062C89.6313 92.9512 89.6313 93.8501 89.738 94.7393L86.5961 97.2154C86.3434 97.4208 86.1716 97.7089 86.1112 98.0288C86.0508 98.3488 86.1057 98.6795 86.266 98.9629L89.4661 104.543C89.6227 104.832 89.8802 105.054 90.1895 105.166C90.4989 105.278 90.8386 105.272 91.144 105.15L94.844 103.65C95.5565 104.176 96.3236 104.625 97.132 104.987L97.696 108.95C97.7387 109.275 97.8982 109.572 98.1448 109.787C98.3913 110.002 98.7079 110.12 99.035 110.118H105.453C105.778 110.12 106.094 110.004 106.34 109.791C106.586 109.578 106.746 109.282 106.79 108.96L107.356 104.987C108.161 104.621 108.927 104.173 109.64 103.649L113.35 105.149C113.509 105.211 113.679 105.244 113.85 105.243V105.243C114.089 105.244 114.324 105.179 114.53 105.058C114.736 104.936 114.905 104.761 115.02 104.551L118.236 98.9512C118.395 98.6675 118.448 98.3364 118.386 98.0171C118.325 97.6978 118.152 97.4108 117.898 97.2071V97.2071ZM102.368 98.9322C101.266 98.9322 100.188 98.6051 99.2718 97.9927C98.3554 97.3803 97.641 96.5101 97.2192 95.4917C96.7974 94.4734 96.6871 93.3531 96.9021 92.272C97.1171 91.191 97.6479 90.1979 98.4273 89.4185C99.2067 88.6391 100.2 88.1081 101.281 87.8931C102.362 87.6781 103.482 87.7887 104.501 88.2105C105.519 88.6323 106.389 89.3463 107.002 90.2627C107.614 91.1792 107.941 92.2567 107.941 93.3589C107.939 94.8362 107.352 96.2527 106.307 97.2974C105.263 98.3421 103.846 98.93 102.369 98.9322H102.368Z" fill="white"/>
</svg>
