<svg width="167" height="146" viewBox="0 0 167 146" fill="none" xmlns="http://www.w3.org/2000/svg">
<path d="M83.672 143.999C100.059 143.999 113.344 143.368 113.344 142.59C113.344 141.812 100.059 141.181 83.672 141.181C67.2846 141.181 54 141.812 54 142.59C54 143.368 67.2846 143.999 83.672 143.999Z" fill="#58595B"/>
<path d="M82.812 130.21C115.455 130.21 141.917 103.748 141.917 71.105C141.917 38.4622 115.455 12 82.812 12C50.1692 12 23.707 38.4622 23.707 71.105C23.707 103.748 50.1692 130.21 82.812 130.21Z" stroke="#14475f" stroke-width="24" stroke-miterlimit="10"/>
<path d="M82.812 130.21C115.455 130.21 141.917 103.748 141.917 71.105C141.917 38.4622 115.455 12 82.812 12C50.1692 12 23.707 38.4622 23.707 71.105C23.707 103.748 50.1692 130.21 82.812 130.21Z" stroke="white" stroke-width="6" stroke-miterlimit="10"/>
<path d="M82.812 130.21C115.455 130.21 141.917 103.748 141.917 71.105C141.917 38.4622 115.455 12 82.812 12C50.1692 12 23.707 38.4622 23.707 71.105C23.707 103.748 50.1692 130.21 82.812 130.21Z" fill="#14475f"/>
<path d="M116.753 49.3079C116.745 48.9332 116.638 48.5673 116.444 48.2468C116.249 47.9264 115.974 47.6625 115.646 47.4822C115.317 47.3019 114.947 47.2113 114.572 47.2195C114.197 47.2276 113.831 47.3342 113.511 47.5286L108.838 50.3635C105.019 45.8585 100.081 42.4386 94.5208 40.447C88.9607 38.4555 82.9742 37.9626 77.1632 39.0183C71.3523 40.074 65.9217 42.6407 61.4173 46.4607C56.913 50.2807 53.4936 55.2191 51.503 60.7795C51.37 61.1504 51.3114 61.5442 51.3305 61.9377C51.3496 62.3313 51.446 62.7168 51.6142 63.073C51.7824 63.4293 52.0192 63.7492 52.3109 64.0139C52.6026 64.2787 52.9436 64.4835 53.3145 64.6165C53.6853 64.7494 54.0788 64.8079 54.4723 64.7888C54.8658 64.7697 55.2516 64.6733 55.6079 64.5051C55.9641 64.3369 56.2838 64.1001 56.5486 63.8084C56.8133 63.5166 57.018 63.1758 57.151 62.8049C58.7604 58.3141 61.5046 54.3158 65.1166 51.1995C68.7286 48.0831 73.0855 45.9547 77.7637 45.0208C82.4419 44.0868 87.2822 44.3794 91.8139 45.8699C96.3457 47.3604 100.415 49.998 103.625 53.5266L98.171 56.8357C97.8499 57.0299 97.5856 57.3052 97.4048 57.634C97.224 57.9629 97.1331 58.3336 97.1412 58.7087C97.1493 59.0839 97.2562 59.4505 97.451 59.7712C97.6459 60.092 97.9218 60.3558 98.251 60.5359L113.981 69.1677C114.31 69.3478 114.68 69.4382 115.054 69.4299C115.429 69.4217 115.795 69.3152 116.115 69.1209C116.436 68.9265 116.699 68.6514 116.88 68.323C117.06 67.9946 117.151 67.6244 117.143 67.2498L116.753 49.3079Z" fill="white"/>
<path d="M114.031 79.0181C113.66 78.8851 113.267 78.8262 112.873 78.8452C112.479 78.8643 112.093 78.9607 111.737 79.1289C111.381 79.2972 111.061 79.5344 110.796 79.8262C110.532 80.118 110.327 80.4591 110.194 80.8301C108.584 85.3203 105.839 89.3175 102.227 92.4331C98.615 95.5488 94.2583 97.6771 89.5804 98.6109C84.9025 99.5446 80.0626 99.2523 75.5311 97.7622C70.9997 96.2722 66.9308 93.6348 63.72 90.107L69.175 86.7979C69.4961 86.6036 69.7603 86.3284 69.941 85.9995C70.1217 85.6706 70.2126 85.3 70.2044 84.9248C70.1961 84.5496 70.0892 84.183 69.8942 83.8623C69.6993 83.5417 69.4233 83.2782 69.094 83.0982L53.364 74.4658C53.0355 74.2857 52.6653 74.1954 52.2907 74.2036C51.9161 74.2118 51.5503 74.3184 51.23 74.5127C50.9097 74.7071 50.6462 74.9826 50.4659 75.3111C50.2856 75.6395 50.1949 76.0092 50.203 76.3838L50.592 94.3228C50.6005 94.6974 50.7073 95.0636 50.9017 95.3838C51.0962 95.7041 51.3714 95.9672 51.6999 96.1475C52.0284 96.3277 52.3985 96.4187 52.7731 96.4107C53.1477 96.4027 53.5135 96.2962 53.834 96.1021L58.508 93.2671C62.327 97.7722 67.2648 101.192 72.8248 103.184C78.3848 105.176 84.3711 105.668 90.182 104.613C95.9929 103.557 101.423 100.991 105.928 97.1709C110.432 93.351 113.851 88.4125 115.842 82.8521C116.11 82.1035 116.069 81.279 115.73 80.5601C115.39 79.8412 114.779 79.2867 114.031 79.0181V79.0181Z" fill="white"/>
</svg>
