<svg width="145" height="147" viewBox="0 0 145 147" fill="none" xmlns="http://www.w3.org/2000/svg">
<path d="M72.965 145.999C89.3524 145.999 102.637 145.368 102.637 144.59C102.637 143.812 89.3524 143.181 72.965 143.181C56.5776 143.181 43.293 143.812 43.293 144.59C43.293 145.368 56.5776 145.999 72.965 145.999Z" fill="#58595B"/>
<path d="M72.105 132.21C104.748 132.21 131.21 105.748 131.21 73.105C131.21 40.4622 104.748 14 72.105 14C39.4622 14 13 40.4622 13 73.105C13 105.748 39.4622 132.21 72.105 132.21Z" fill="#14475f" stroke="#14475f" stroke-width="24" stroke-miterlimit="10"/>
<path d="M72.105 132.21C104.748 132.21 131.21 105.748 131.21 73.105C131.21 40.4622 104.748 14 72.105 14C39.4622 14 13 40.4622 13 73.105C13 105.748 39.4622 132.21 72.105 132.21Z" fill="#14475f" stroke="white" stroke-width="6" stroke-miterlimit="10"/>
<path d="M72.105 132.21C104.748 132.21 131.21 105.748 131.21 73.105C131.21 40.4622 104.748 14 72.105 14C39.4622 14 13 40.4622 13 73.105C13 105.748 39.4622 132.21 72.105 132.21Z" fill="#14475f"/>
<path d="M111.081 48.071C110.855 47.9684 110.604 47.933 110.358 47.9684C110.112 48.0039 109.882 48.1088 109.694 48.2712L98.544 57.8464C92.87 58.6324 88.781 57.283 85.168 56.09C82.8359 55.1719 80.3708 54.6367 77.868 54.5051C73.558 54.5051 70.389 56.5913 67.591 58.4323C66.968 58.8403 66.363 59.2403 65.764 59.5993C65.6722 59.6551 65.5878 59.722 65.513 59.799L56.86 68.468C55.9201 69.4143 55.281 70.6179 55.0229 71.9264C54.7648 73.235 54.8993 74.5906 55.4094 75.8229C55.9196 77.0553 56.7827 78.1095 57.8902 78.8527C58.9977 79.596 60.3002 79.995 61.634 80.0002H62.943C64.4932 79.9991 65.996 79.4654 67.2 78.4889C67.831 77.9749 68.555 77.368 69.334 76.715C71.987 74.492 75.518 71.5334 77.646 70.4094L101.52 91.1384C101.727 91.3173 101.985 91.4262 102.258 91.4499C102.53 91.4736 102.803 91.4107 103.038 91.2702L111.207 86.36C111.398 86.2445 111.557 86.0815 111.667 85.8869C111.777 85.6923 111.835 85.4728 111.835 85.2492V49.2492C111.835 49.0014 111.763 48.7587 111.63 48.55C111.496 48.3413 111.306 48.1751 111.081 48.071V48.071Z" fill="white"/>
<path d="M72.627 100.554V99.909C72.6234 99.3109 72.5012 98.7193 72.2674 98.1688C72.0336 97.6182 71.693 97.1194 71.2651 96.7015C70.8373 96.2835 70.3308 95.9546 69.775 95.7337C69.2192 95.5128 68.625 95.4045 68.027 95.4149C67.3291 95.4159 66.6411 95.5803 66.018 95.8948C65.8336 94.8331 65.2766 93.8721 64.4469 93.1844C63.6173 92.4966 62.5695 92.1272 61.492 92.1429C60.7946 92.1436 60.107 92.3073 59.484 92.6209C59.3572 91.9233 59.0699 91.2645 58.6447 90.6971C58.2195 90.1297 57.6681 89.6694 57.0342 89.3519C56.4002 89.0344 55.7011 88.8687 54.992 88.868C54.283 88.8673 53.5836 89.0317 52.949 89.348C52.8035 88.4604 52.3939 87.6371 51.7737 86.9857C51.1535 86.3342 50.3514 85.885 49.472 85.6961C48.5926 85.5072 47.6767 85.5873 46.8437 85.9266C46.0107 86.2658 45.2992 86.8484 44.802 87.598L43.018 90.2776C42.5263 91.0157 42.2642 91.883 42.265 92.7698V93.514C42.2655 94.7045 42.7384 95.8461 43.5799 96.6883C44.4213 97.5305 45.5625 98.0041 46.753 98.0057C46.894 98.0057 47.027 97.9679 47.166 97.9549V98.4236C47.179 99.1958 47.3873 99.9521 47.7716 100.622C48.156 101.292 48.7037 101.853 49.3638 102.254C50.0238 102.655 50.7747 102.882 51.5462 102.914C52.3178 102.946 53.0849 102.782 53.776 102.438C53.9033 103.135 54.1908 103.793 54.616 104.36C55.0412 104.927 55.5924 105.388 56.2261 105.705C56.8597 106.023 57.5585 106.189 58.2673 106.19C58.976 106.191 59.6753 106.027 60.31 105.712C60.4666 106.583 60.8734 107.39 61.4808 108.034C62.0882 108.677 62.8699 109.131 63.7305 109.338C64.591 109.545 65.4933 109.497 66.3271 109.2C67.1609 108.903 67.8902 108.369 68.426 107.665L71.726 103.252C72.3079 102.472 72.6237 101.527 72.627 100.554V100.554Z" fill="white"/>
<path d="M74.249 104.1C74.1152 104.344 73.9673 104.579 73.806 104.805L71.457 107.942L73.173 109.542C73.5425 109.92 74.047 110.136 74.5757 110.142C75.1043 110.148 75.6137 109.945 75.992 109.575C76.918 108.649 77.312 106.86 76.746 106.232L74.249 104.1Z" fill="white"/>
<path d="M99.824 93.0999L77.394 73.6209C75.449 74.9739 72.859 77.1436 71.006 78.6956C70.206 79.3626 69.477 79.9779 68.838 80.4959C67.17 81.8505 65.0867 82.5896 62.938 82.5896H61.629C59.7801 82.5872 57.9735 82.037 56.4371 81.0086C54.9007 79.9802 53.7034 78.5196 52.9964 76.8113C52.2894 75.103 52.1044 73.2238 52.4648 71.4104C52.8251 69.597 53.7146 67.9311 55.021 66.6228L63.673 57.9539C63.8764 57.7557 64.1011 57.5806 64.343 57.4319C59.0287 56.8538 53.658 57.0686 48.407 58.0696C44.7861 58.5322 41.1259 57.5872 38.182 55.429L36.216 53.7879C36.026 53.6315 35.7955 53.5323 35.5513 53.5017C35.3071 53.4712 35.0593 53.5108 34.8366 53.6155C34.614 53.7202 34.4256 53.886 34.2934 54.0935C34.1613 54.3011 34.0907 54.5418 34.09 54.7879V82.8396C34.0901 83.3397 34.235 83.8292 34.507 84.2488C34.779 84.6684 35.1666 85.0005 35.623 85.2049L41.523 87.8425L42.643 86.1619C43.2952 85.1798 44.1826 84.3765 45.2245 83.825C46.2664 83.2734 47.4297 82.9913 48.6085 83.0042C49.7873 83.017 50.9442 83.3242 51.9739 83.8982C53.0035 84.4723 53.8733 85.2948 54.504 86.2908C55.7853 86.2025 57.0668 86.4598 58.2148 87.0359C59.3627 87.612 60.335 88.4856 61.03 89.5657C62.3116 89.4782 63.5932 89.7354 64.7417 90.3108C65.8902 90.8862 66.8637 91.7588 67.561 92.8377C68.5337 92.7738 69.5093 92.9085 70.4284 93.2337C71.3474 93.5588 72.1907 94.0679 72.9069 94.7293C73.6231 95.3906 74.1972 96.1905 74.5944 97.0808C74.9915 97.9711 75.2033 98.9332 75.217 99.908V100.553C75.2121 100.854 75.1877 101.155 75.144 101.453L80.055 105.639C81.06 106.435 82.3047 106.869 83.587 106.869C84.1598 106.867 84.7181 106.688 85.1862 106.358C85.6544 106.028 86.0098 105.562 86.2043 105.023C86.3988 104.484 86.4229 103.899 86.2735 103.346C86.1241 102.793 85.8083 102.299 85.369 101.932L70.5 89.5198C70.267 89.291 70.1286 88.9827 70.1124 88.6565C70.0962 88.3304 70.2033 88.0103 70.4125 87.7595C70.6217 87.5088 70.9176 87.346 71.2414 87.3035C71.5651 87.2609 71.8931 87.3414 72.16 87.5296L90.529 102.863C91.0936 103.335 91.8065 103.595 92.543 103.595H93.026C93.6739 103.591 94.3051 103.388 94.8343 103.014C95.3634 102.64 95.7649 102.113 95.9846 101.503C96.2044 100.894 96.2317 100.231 96.063 99.6057C95.8942 98.9801 95.5375 98.421 95.041 98.0047L77.041 82.9719C76.8936 82.8687 76.7692 82.7356 76.6757 82.5818C76.5822 82.428 76.5217 82.2568 76.498 82.0784C76.4743 81.9 76.4878 81.7186 76.5378 81.5457C76.5879 81.3728 76.6732 81.2122 76.7885 81.074C76.9039 80.9358 77.0466 80.8231 77.2078 80.7429C77.3689 80.6628 77.545 80.6167 77.7248 80.6082C77.9045 80.5996 78.0841 80.6287 78.2522 80.6931C78.4202 80.7576 78.5731 80.8561 78.701 80.9827L97.06 96.3089C97.6303 96.7868 98.3509 97.0482 99.095 97.0476H99.533C100.349 97.0429 101.131 96.7242 101.718 96.1575C102.305 95.5908 102.651 94.8197 102.684 94.0047C102.584 94.0127 102.484 94.0466 102.374 94.0466C101.438 94.0466 100.533 93.7108 99.824 93.0999V93.0999Z" fill="white"/>
</svg>
