<svg width="153" height="152" viewBox="0 0 153 152" fill="none" xmlns="http://www.w3.org/2000/svg">
<g clip-path="url(#clip0_27_79)">
<path d="M77.38 152C94.1584 152 107.76 151.354 107.76 150.557C107.76 149.76 94.1584 149.114 77.38 149.114C60.6016 149.114 47 149.76 47 150.557C47 151.354 60.6016 152 77.38 152Z" fill="#58595B"/>
<path d="M76.4989 136.03C109.92 136.03 137.014 108.937 137.014 75.515C137.014 42.0935 109.92 15 76.4989 15C43.0774 15 15.9839 42.0935 15.9839 75.515C15.9839 108.937 43.0774 136.03 76.4989 136.03Z" stroke="#F8C647" stroke-width="30" stroke-miterlimit="10"/>
<path d="M76.4989 136.03C109.92 136.03 137.014 108.937 137.014 75.515C137.014 42.0935 109.92 15 76.4989 15C43.0774 15 15.9839 42.0935 15.9839 75.515C15.9839 108.937 43.0774 136.03 76.4989 136.03Z" stroke="white" stroke-width="10" stroke-miterlimit="10"/>
<path d="M76.4989 15C88.4676 15 100.168 18.5491 110.119 25.1986C120.071 31.8481 127.827 41.2992 132.407 52.3569C136.988 63.4146 138.186 75.5821 135.851 87.3209C133.516 99.0597 127.753 109.842 119.289 118.306C110.826 126.769 100.044 132.532 88.3048 134.867C76.566 137.202 64.3985 136.004 53.3408 131.424C42.2831 126.843 32.832 119.087 26.1825 109.135C19.533 99.1837 15.9839 87.4837 15.9839 75.515C15.9839 59.4654 22.3596 44.0732 33.7083 32.7244C45.0571 21.3757 60.4493 15 76.4989 15V15Z" fill="#F8C647"/>
<path d="M120.449 87.1668L111.38 56.2347L107.72 43.7547L107.434 42.7767C107.023 41.3817 106.076 40.207 104.799 39.5096C103.523 38.8122 102.023 38.6495 100.627 39.0569L36.2679 57.928C34.8728 58.3388 33.6977 59.2857 33.0002 60.5618C32.3028 61.838 32.1401 63.3387 32.5479 64.7347L32.8339 65.7117L36.4939 78.1927L45.5629 109.125C45.9738 110.52 46.9213 111.695 48.1973 112.392C49.4734 113.089 50.974 113.252 52.3699 112.845L116.729 93.9739C118.124 93.563 119.299 92.6152 119.996 91.3392C120.694 90.0631 120.856 88.5628 120.449 87.1668ZM35.3299 64.9798L35.0439 64.0027C34.8292 63.2689 34.9145 62.4799 35.281 61.8089C35.6475 61.1379 36.2654 60.6395 36.9989 60.4236L101.359 41.554C102.093 41.3393 102.882 41.4243 103.553 41.7908C104.224 42.1574 104.722 42.7751 104.938 43.5086L105.224 44.4866L35.3299 64.9798ZM115.998 91.4798L51.6379 110.351C50.9039 110.565 50.115 110.479 49.4441 110.113C48.7732 109.746 48.275 109.128 48.0589 108.395L38.9899 77.4627L108.884 56.9686L117.953 87.9007C118.167 88.6343 118.081 89.423 117.715 90.0936C117.348 90.7641 116.731 91.2619 115.998 91.4778V91.4798Z" fill="white"/>
<path d="M105.871 60.562L78.4128 68.6118L86.4638 96.0708L91.8948 94.479L108.495 89.6118L113.925 88.02L105.871 60.562ZM108.194 86.9878C107.973 86.2633 107.557 85.6137 106.991 85.1104C106.425 84.607 105.731 84.2694 104.986 84.1348L101.941 83.561C102.952 82.3689 103.514 80.8607 103.53 79.2979C103.88 78.9151 104.125 78.4486 104.241 77.9434C104.358 77.4381 104.342 76.9113 104.195 76.4141L103.951 75.5811C103.83 75.1687 103.622 74.7869 103.341 74.4614C103.06 74.136 102.713 73.8743 102.323 73.6938C101.182 71.4558 98.8228 69.3639 93.9618 70.7939C93.7708 70.8499 93.5848 70.913 93.4068 70.981C92.59 71.3227 91.682 71.3799 90.8288 71.1431C90.5317 71.0612 90.2493 70.9334 89.9918 70.7642C89.8139 70.6468 89.6132 70.568 89.4029 70.5332C89.1925 70.4984 88.9772 70.5083 88.7709 70.562C88.5646 70.6158 88.3719 70.7122 88.2053 70.8452C88.0387 70.9782 87.9019 71.1447 87.8038 71.334C87.7159 71.5211 87.6682 71.7244 87.6639 71.9312C87.6596 72.1379 87.6988 72.3436 87.7788 72.5342C87.9088 72.8452 88.0738 73.2029 88.2788 73.5889C88.4071 73.8057 88.5133 74.0349 88.5958 74.2729C88.5958 74.3199 88.5708 74.4962 88.5508 74.6372C88.5178 74.8502 88.4778 75.113 88.4428 75.458C88.365 76.2299 88.3787 77.0082 88.4838 77.7769C88.2585 78.1372 88.1119 78.5414 88.0536 78.9624C87.9954 79.3834 88.0268 79.8122 88.1458 80.2202L88.3898 81.0518C88.5351 81.5496 88.8063 82.002 89.1774 82.3643C89.5484 82.7265 90.0067 82.9868 90.5078 83.1201C91.3621 84.4213 92.6427 85.384 94.1298 85.8438L91.7758 88.0078C91.248 88.5334 90.8717 89.192 90.6868 89.9136C90.5018 90.6352 90.5149 91.3932 90.7248 92.1079V92.1138L88.2248 92.8462L81.6378 70.3799L104.104 63.793L110.691 86.2588L108.194 86.9878Z" fill="white"/>
<path d="M46.1778 83.486L57.4108 80.1921C57.7423 80.095 58.0216 79.8702 58.1874 79.5671C58.3532 79.264 58.3918 78.9079 58.2948 78.5764C58.1977 78.2449 57.9729 77.9653 57.6698 77.7995C57.3668 77.6337 57.0103 77.595 56.6788 77.6921L45.4458 80.986C45.1142 81.0831 44.8349 81.308 44.6691 81.611C44.5033 81.9141 44.4647 82.2707 44.5618 82.6023C44.6588 82.9338 44.8836 83.2133 45.1867 83.3791C45.4897 83.5449 45.8462 83.5831 46.1778 83.486V83.486Z" fill="white"/>
<path d="M62.4029 78.7282L73.6359 75.4353C73.9675 75.3382 74.2468 75.1133 74.4126 74.8103C74.5784 74.5072 74.617 74.1506 74.52 73.8191C74.4229 73.4875 74.1981 73.2085 73.895 73.0427C73.592 72.8769 73.2355 72.8382 72.904 72.9353L61.672 76.2282C61.5078 76.2762 61.3547 76.3559 61.2214 76.4631C61.0881 76.5703 60.9772 76.7027 60.8951 76.8527C60.813 77.0028 60.7612 77.1676 60.7427 77.3376C60.7243 77.5076 60.7394 77.6793 60.7874 77.8435C60.8354 78.0076 60.9153 78.1609 61.0225 78.2942C61.1296 78.4274 61.262 78.5382 61.412 78.6203C61.562 78.7025 61.7268 78.7547 61.8968 78.7732C62.0668 78.7916 62.2388 78.7762 62.4029 78.7282V78.7282Z" fill="white"/>
<path d="M48.0078 89.7263L49.2558 89.361C49.5873 89.264 49.8667 89.0391 50.0325 88.736C50.1983 88.433 50.2369 88.0768 50.1398 87.7453C50.0428 87.4138 49.818 87.1342 49.5149 86.9685C49.2119 86.8027 48.8554 86.764 48.5238 86.861L47.2758 87.2273C46.9443 87.3243 46.6649 87.5492 46.4991 87.8523C46.3334 88.1553 46.2948 88.5115 46.3918 88.843C46.4889 89.1745 46.7137 89.4541 47.0168 89.6198C47.3198 89.7856 47.6763 89.8243 48.0078 89.7273V89.7263Z" fill="white"/>
<path d="M56.7449 87.1653C56.9091 87.1172 57.0621 87.0372 57.1954 86.9299C57.3286 86.8227 57.4395 86.6903 57.5216 86.5403C57.6037 86.3902 57.6554 86.2255 57.6738 86.0554C57.6922 85.8854 57.677 85.7132 57.6289 85.5491C57.5808 85.3849 57.5009 85.2321 57.3937 85.0989C57.2865 84.9656 57.154 84.8548 57.004 84.7727C56.8539 84.6906 56.6892 84.6388 56.5191 84.6204C56.3491 84.6019 56.177 84.6172 56.0129 84.6653L53.5129 85.3962C53.1814 85.4933 52.902 85.7182 52.7362 86.0212C52.5704 86.3243 52.5318 86.6809 52.6289 87.0125C52.726 87.344 52.9508 87.623 53.2538 87.7888C53.5569 87.9546 53.9134 87.9933 54.2449 87.8962L56.7449 87.1653Z" fill="white"/>
<path d="M61.7388 85.7014L62.9868 85.3352C63.1509 85.2871 63.304 85.2071 63.4373 85.0999C63.5705 84.9926 63.6814 84.8603 63.7635 84.7102C63.8456 84.5601 63.8973 84.3954 63.9157 84.2253C63.9341 84.0553 63.9188 83.8831 63.8708 83.719C63.8227 83.5548 63.7428 83.4021 63.6356 83.2688C63.5284 83.1355 63.3959 83.0247 63.2459 82.9426C63.0958 82.8605 62.9311 82.8087 62.761 82.7903C62.591 82.7719 62.4189 82.7871 62.2548 82.8352L61.0068 83.2014C60.8427 83.2495 60.6896 83.3291 60.5563 83.4363C60.423 83.5435 60.3122 83.6759 60.2301 83.8259C60.0643 84.129 60.0257 84.4856 60.1228 84.8171C60.2199 85.1487 60.4446 85.4282 60.7477 85.594C61.0508 85.7598 61.4073 85.7985 61.7388 85.7014Z" fill="white"/>
<path d="M70.4739 83.1394C70.638 83.0913 70.7911 83.0113 70.9244 82.9041C71.0576 82.7968 71.1685 82.6645 71.2506 82.5144C71.3327 82.3643 71.3844 82.1996 71.4028 82.0295C71.4212 81.8595 71.4059 81.6873 71.3579 81.5232C71.3098 81.359 71.2299 81.2058 71.1227 81.0725C71.0155 80.9392 70.883 80.8284 70.733 80.7463C70.5829 80.6642 70.4182 80.6129 70.2481 80.5945C70.0781 80.5761 69.906 80.5913 69.7419 80.6394L67.2419 81.3713C67.0777 81.4194 66.9247 81.499 66.7914 81.6062C66.6582 81.7134 66.5473 81.8463 66.4652 81.9963C66.3831 82.1464 66.3314 82.3111 66.313 82.4812C66.2946 82.6513 66.3098 82.8229 66.3579 82.9871C66.4059 83.1512 66.4859 83.3045 66.5931 83.4377C66.7003 83.571 66.8328 83.6818 66.9828 83.7639C67.1329 83.846 67.2976 83.8978 67.4677 83.9163C67.6377 83.9347 67.8097 83.9194 67.9739 83.8713L70.4739 83.1394Z" fill="white"/>
<path d="M73.9538 79.801C73.7913 80.1056 73.7547 80.4618 73.852 80.7932C73.9492 81.1245 74.1724 81.4044 74.4738 81.5729C74.7784 81.7353 75.1344 81.772 75.4656 81.675C75.7969 81.578 76.0769 81.3554 76.2458 81.0544C76.3281 80.9039 76.3799 80.7386 76.3983 80.5681C76.4167 80.3975 76.4014 80.2248 76.3531 80.0602C76.3049 79.8957 76.2247 79.7422 76.1172 79.6086C76.0096 79.475 75.8768 79.3637 75.7263 79.2814C75.5758 79.1992 75.4106 79.1475 75.2401 79.1291C75.0695 79.1107 74.897 79.1263 74.7325 79.1745C74.5679 79.2227 74.4144 79.3028 74.2808 79.4103C74.1472 79.5179 74.0361 79.6505 73.9538 79.801V79.801Z" fill="white"/>
<path d="M56.3048 91.9018C53.9878 94.1268 53.8658 97.117 54.3588 100.039L52.4298 99.1948C50.9038 98.5278 49.6428 100.805 51.1818 101.477L55.5448 103.384C55.771 103.5 56.0261 103.549 56.2791 103.523C56.5322 103.497 56.7724 103.399 56.9705 103.239C57.1686 103.08 57.3161 102.866 57.3952 102.624C57.4742 102.382 57.4814 102.123 57.4158 101.877C56.7158 99.1459 55.9018 95.893 58.1978 93.688C59.4078 92.527 57.5138 90.7418 56.3048 91.9018Z" fill="white"/>
<path d="M74.2868 90.6851C72.4278 91.0851 70.0698 94.5978 68.1048 92.6758C67.8528 92.4412 67.5186 92.3153 67.1745 92.3252C66.8303 92.3351 66.5039 92.4803 66.2658 92.729C64.8168 94.329 62.9658 96.5688 60.5128 95.0938C59.0728 94.2268 57.8308 96.513 59.2658 97.376C62.3448 99.229 65.1279 97.568 67.3569 95.354C68.1212 95.7947 68.9829 96.0389 69.8648 96.065C71.1198 96.142 74.5198 93.047 74.9498 93.377C76.2658 94.388 78.0689 92.5089 76.7359 91.4849C76.4183 91.1698 76.0314 90.9334 75.6062 90.7944C75.181 90.6555 74.7292 90.6183 74.2868 90.6851Z" fill="white"/>
</g>
<defs>
<clipPath id="clip0_27_79">
<rect width="153" height="152" fill="white"/>
</clipPath>
</defs>
</svg>
