<svg width="154" height="152" viewBox="0 0 154 152" fill="none" xmlns="http://www.w3.org/2000/svg">
<path d="M77.396 149.999C94.1744 149.999 107.776 149.353 107.776 148.556C107.776 147.759 94.1744 147.113 77.396 147.113C60.6176 147.113 47.016 147.759 47.016 148.556C47.016 149.353 60.6176 149.999 77.396 149.999Z" fill="#58595B"/>
<path d="M76.515 15C88.4837 15 100.184 18.5491 110.135 25.1986C120.087 31.8481 127.843 41.2992 132.424 52.3569C137.004 63.4146 138.202 75.5821 135.867 87.3209C133.532 99.0597 127.769 109.842 119.306 118.306C110.842 126.769 100.06 132.532 88.3209 134.867C76.5821 137.202 64.4146 136.004 53.3569 131.424C42.2992 126.843 32.8481 119.087 26.1986 109.135C19.5491 99.1837 16 87.4837 16 75.515C16 59.4654 22.3757 44.0732 33.7244 32.7244C45.0732 21.3757 60.4654 15 76.515 15V15Z" fill="#14475f" stroke="#14475f" stroke-width="30"/>
<path d="M76.515 136.03C109.937 136.03 137.03 108.937 137.03 75.515C137.03 42.0935 109.937 15 76.515 15C43.0935 15 16 42.0935 16 75.515C16 108.937 43.0935 136.03 76.515 136.03Z" fill="#14475f" stroke="white" stroke-width="10" stroke-miterlimit="10"/>
<path d="M76.515 136.03C109.937 136.03 137.03 108.937 137.03 75.515C137.03 42.0935 109.937 15 76.515 15C43.0935 15 16 42.0935 16 75.515C16 108.937 43.0935 136.03 76.515 136.03Z" fill="#14475f"/>
<path d="M90.774 61.5479C90.6479 61.4014 90.5123 61.2638 90.368 61.1353C86.1047 57.0686 81.8407 53.0018 77.576 48.9351C77.4598 48.7655 77.3043 48.6263 77.1227 48.5298C76.9412 48.4333 76.739 48.3824 76.5334 48.3809C76.3278 48.3794 76.125 48.4276 75.9421 48.5215C75.7592 48.6154 75.6017 48.752 75.483 48.92C71.1663 53.022 66.8554 57.1314 62.55 61.2481C61.87 61.8991 61.796 62.5953 62.344 63.0943C62.976 63.6703 63.568 63.475 64.128 62.941C64.62 62.471 65.128 62.0188 65.778 61.4258C65.778 64.8808 65.778 68.0951 65.778 71.3091C65.778 73.1021 66.014 73.3428 67.847 73.3428C73.6737 73.3428 79.5007 73.3428 85.328 73.3428C86.982 73.3428 87.242 73.0869 87.243 71.4649C87.243 68.1879 87.243 64.9109 87.243 61.3819C88.021 62.1029 88.582 62.6822 89.201 63.1822C89.4236 63.3544 89.7019 63.4381 89.9826 63.4175C90.2632 63.397 90.5264 63.2736 90.7215 63.0708C90.9166 62.868 91.0299 62.6001 91.0396 62.3189C91.0493 62.0376 90.9547 61.7626 90.774 61.5469V61.5479ZM77.813 70.9483H75.266V65.2652H77.813V70.9483ZM84.924 70.959H80.219V69.167C80.219 67.558 80.233 65.9488 80.208 64.3418C80.192 63.3328 79.78 62.929 78.798 62.92C77.286 62.906 75.7743 62.906 74.263 62.92C73.248 62.931 72.875 63.2972 72.863 64.3272C72.845 66.5092 72.857 68.6912 72.857 70.9742H68.098V69.3252C68.098 66.2692 68.071 63.2123 68.12 60.1573C68.1401 59.6373 68.3438 59.1408 68.695 58.7569C71.049 56.4259 73.456 54.149 75.848 51.857C76.054 51.657 76.276 51.482 76.543 51.25C78.511 53.15 80.343 55.1621 82.428 56.8501C84.447 58.4811 84.97 60.0349 84.97 62.8999C84.973 65.6469 84.924 68.2329 84.924 70.9619V70.959Z" fill="white"/>
<path d="M57.923 41.645L49.692 49.877V111.292H103.337V41.645H57.923ZM101.03 108.985H51.999V50.832L58.879 43.9531H101.03V108.985Z" fill="white"/>
<path d="M86.83 99.5151H67.346V102.984H86.83V99.5151Z" fill="white"/>
<path d="M86.83 79.4209H67.346V82.8899H86.83V79.4209Z" fill="white"/>
<path d="M95.426 92.5781H57.604V96.0471H95.426V92.5781Z" fill="white"/>
<path d="M95.426 86.0449H57.604V89.5139H95.426V86.0449Z" fill="white"/>
<path d="M51.999 50.8271L58.873 43.9531V50.7681L51.999 50.8271Z" fill="white"/>
</svg>
