<svg width="149" height="151" viewBox="0 0 149 151" fill="none" xmlns="http://www.w3.org/2000/svg">
<path d="M75.2449 150.346C91.9819 150.346 105.55 149.701 105.55 148.907C105.55 148.112 91.9819 147.468 75.2449 147.468C58.508 147.468 44.9399 148.112 44.9399 148.907C44.9399 149.701 58.508 150.346 75.2449 150.346Z" fill="#58595B"/>
<path d="M74.366 136.079C107.705 136.079 134.732 109.052 134.732 75.7129C134.732 42.3737 107.705 15.3469 74.366 15.3469C41.0268 15.3469 14 42.3737 14 75.7129C14 109.052 41.0268 136.079 74.366 136.079Z" stroke="#14475f" stroke-width="28" stroke-miterlimit="10"/>
<path d="M74.366 136.079C107.705 136.079 134.732 109.052 134.732 75.7129C134.732 42.3737 107.705 15.3469 74.366 15.3469C41.0268 15.3469 14 42.3737 14 75.7129C14 109.052 41.0268 136.079 74.366 136.079Z" stroke="white" stroke-width="9" stroke-miterlimit="10"/>
<path d="M74.366 15.3469C86.3053 15.3469 97.9764 18.8873 107.904 25.5204C117.831 32.1535 125.568 41.5814 130.137 52.6119C134.706 63.6423 135.901 75.7799 133.572 87.4897C131.243 99.1996 125.494 109.956 117.051 118.398C108.609 126.84 97.8527 132.59 86.1428 134.919C74.433 137.248 62.2954 136.053 51.2649 131.484C40.2345 126.915 30.8066 119.178 24.1735 109.25C17.5404 99.3233 14 87.6522 14 75.7129C14 59.7029 20.36 44.3485 31.6808 33.0277C43.0016 21.7069 58.3559 15.3469 74.366 15.3469V15.3469Z" fill="#14475f"/>
<path d="M64.1541 54.6355C63.8487 54.6355 63.5502 54.7261 63.2963 54.8958C63.0424 55.0654 62.8445 55.3065 62.7277 55.5886C62.6108 55.8708 62.5802 56.1812 62.6398 56.4807C62.6993 56.7802 62.8464 57.0558 63.0624 57.2717C63.2783 57.4877 63.5534 57.6345 63.8529 57.6941C64.1524 57.7537 64.4629 57.7231 64.745 57.6062C65.0271 57.4893 65.2683 57.2913 65.4379 57.0374C65.6076 56.7834 65.6981 56.4853 65.6981 56.1799C65.6981 55.7704 65.5355 55.3777 65.2459 55.0881C64.9564 54.7986 64.5636 54.6355 64.1541 54.6355Z" fill="white"/>
<path d="M56.8231 90.2776V86.4475C56.8379 84.0498 55.9585 81.7327 54.3567 79.9485C52.7548 78.1643 50.5455 77.0413 48.1601 76.7986C47.8601 76.7706 47.563 76.7569 47.269 76.7576C44.7361 76.7605 42.3077 77.7683 40.5166 79.5593C38.7255 81.3504 37.718 83.7788 37.7151 86.3118V90.2776C37.0791 90.4055 36.5068 90.7492 36.0948 91.2503C35.6829 91.7513 35.4566 92.3789 35.4541 93.0276V107.62C35.4541 107.988 35.5267 108.353 35.6678 108.694C35.8089 109.034 36.0156 109.344 36.2763 109.604C36.537 109.865 36.8464 110.072 37.187 110.213C37.5275 110.354 37.8925 110.426 38.261 110.426H56.2771C56.6456 110.426 57.0105 110.353 57.351 110.212C57.6915 110.071 58.0009 109.865 58.2615 109.604C58.5221 109.344 58.7288 109.034 58.8698 108.694C59.0107 108.353 59.0832 107.988 59.0831 107.62V93.0276C59.0806 92.3791 58.8544 91.7513 58.4427 91.2503C58.0309 90.7492 57.4588 90.4057 56.8231 90.2776ZM50.05 105.191C50.0743 105.274 50.0787 105.362 50.0629 105.448C50.0471 105.533 50.0115 105.614 49.959 105.683C49.9066 105.752 49.8389 105.808 49.7612 105.847C49.6835 105.886 49.5979 105.905 49.511 105.906H45.0231C44.9362 105.906 44.8505 105.886 44.7728 105.847C44.695 105.808 44.6273 105.752 44.575 105.683C44.5227 105.614 44.4873 105.533 44.4715 105.448C44.4557 105.362 44.46 105.274 44.4841 105.191L45.3841 102.049C44.7131 101.686 44.1633 101.134 43.8028 100.461C43.4423 99.7888 43.287 99.0257 43.3561 98.2659C43.4378 97.3653 43.8266 96.52 44.4572 95.8718C45.0878 95.2237 45.9221 94.8122 46.8201 94.7058C46.9695 94.6891 47.1197 94.6808 47.2701 94.6809C48.1424 94.6795 48.9904 94.9684 49.6799 95.5027C50.3695 96.037 50.8614 96.786 51.0778 97.6311C51.2943 98.4762 51.2229 99.3692 50.8751 100.169C50.5272 100.969 49.9227 101.631 49.157 102.049L50.05 105.191ZM52.3031 90.2908H42.235V86.4837C42.2253 85.8134 42.3477 85.1481 42.5954 84.5252C42.8431 83.9023 43.2111 83.3343 43.6785 82.8538C44.1458 82.3732 44.7033 81.9893 45.3191 81.7244C45.9349 81.4595 46.5968 81.3187 47.2671 81.3098C47.3871 81.3098 47.508 81.3095 47.631 81.3235C48.9018 81.4189 50.0895 81.9912 50.9559 82.9256C51.8224 83.8599 52.3036 85.0873 52.3031 86.3616V90.2908Z" fill="white"/>
<path d="M119.731 84.9016C118.92 83.4961 117.841 82.2641 116.554 81.2761C115.267 80.2881 113.798 79.5637 112.231 79.1438C110.663 78.7239 109.029 78.6171 107.42 78.8293C105.812 79.0416 104.261 79.5686 102.856 80.3806L96.5831 84.0017V70.5916C96.5789 68.9216 96.0375 67.2974 95.0391 65.9587L87.3181 55.6648V51.2805C88.2203 50.9603 89.0015 50.3688 89.5543 49.5872C90.1072 48.8055 90.4047 47.8722 90.4061 46.9148V39.8137C90.405 38.5853 89.9165 37.4074 89.0479 36.5388C88.1793 35.6702 87.0015 35.182 85.7731 35.1809H57.9731C56.7447 35.182 55.5669 35.6702 54.6982 36.5388C53.8296 37.4074 53.3411 38.5853 53.3401 39.8137V46.9138C53.3414 47.8714 53.639 48.805 54.1921 49.5867C54.7451 50.3684 55.5265 50.9596 56.4291 51.2795V55.6638L48.7071 65.9636C47.7084 67.3014 47.167 68.9251 47.1631 70.5945V73.9539C47.1971 73.9539 47.2311 73.9539 47.2631 73.9539C47.6421 73.9539 48.0281 73.9716 48.4081 74.0056C51.5029 74.2896 54.373 75.7426 56.4341 78.0686C58.4926 80.3763 59.6293 83.3615 59.6271 86.4539V88.5408C60.3267 89.0629 60.8951 89.7404 61.2874 90.5203C61.6797 91.3001 61.885 92.161 61.8871 93.0339V98.9456H78.3061C77.806 100.983 77.8317 103.114 78.381 105.139H61.8931V107.626C61.8927 107.826 61.8817 108.027 61.86 108.226H79.7061C81.3669 111.014 84.0593 113.036 87.2001 113.854C90.341 114.671 93.6775 114.218 96.4871 112.594L115.21 101.784C118.047 100.144 120.117 97.4441 120.965 94.2786C121.812 91.113 121.369 87.7402 119.731 84.9016V84.9016ZM57.9771 38.2659H85.7771C86.1868 38.2661 86.5796 38.4288 86.8693 38.7185C87.1589 39.0082 87.3218 39.4011 87.3221 39.8108V46.9109C87.3216 47.3204 87.1586 47.7127 86.8689 48.0022C86.5792 48.2917 86.1866 48.4546 85.7771 48.4548H57.9771C57.5676 48.4546 57.1751 48.2917 56.8856 48.0022C56.5961 47.7127 56.4333 47.3203 56.433 46.9109V39.8137C56.4327 39.6107 56.4723 39.4097 56.5497 39.2219C56.6271 39.0342 56.7408 38.8633 56.8842 38.7195C57.0276 38.5757 57.1979 38.4619 57.3854 38.384C57.573 38.3061 57.774 38.266 57.9771 38.2659V38.2659ZM78.0521 86.6008H73.4231V91.2336C73.4231 91.6431 73.2604 92.0359 72.9708 92.3254C72.6813 92.615 72.2886 92.7776 71.8791 92.7776C71.4696 92.7776 71.0768 92.615 70.7873 92.3254C70.4977 92.0359 70.3351 91.6431 70.3351 91.2336V86.6008H65.7021C65.2926 86.6008 64.8998 86.4382 64.6103 86.1487C64.3207 85.8591 64.1581 85.4664 64.1581 85.0569C64.1581 84.6474 64.3207 84.2546 64.6103 83.9651C64.8998 83.6755 65.2926 83.5129 65.7021 83.5129H70.3351V78.8796C70.3351 78.4701 70.4977 78.0774 70.7873 77.7878C71.0768 77.4983 71.4696 77.3357 71.8791 77.3357C72.2886 77.3357 72.6813 77.4983 72.9708 77.7878C73.2604 78.0774 73.4231 78.4701 73.4231 78.8796V83.5129H78.0561C78.4656 83.5129 78.8583 83.6755 79.1478 83.9651C79.4374 84.2546 79.6001 84.6474 79.6001 85.0569C79.6001 85.4664 79.4374 85.8591 79.1478 86.1487C78.8583 86.4382 78.4656 86.6008 78.0561 86.6008H78.0521ZM50.2891 70.0779C50.381 69.2568 50.6891 68.4748 51.1821 67.8118L59.2121 57.1057C59.4131 56.8385 59.5215 56.5133 59.5211 56.179V51.5476H84.2291V54.6345H70.3291C69.9193 54.6345 69.5263 54.7974 69.2366 55.0872C68.9468 55.3769 68.7841 55.7702 68.7841 56.1799C68.7841 56.5897 68.9468 56.9825 69.2366 57.2722C69.5263 57.562 69.9193 57.7249 70.3291 57.7249H84.9991L92.5671 67.8137C93.0624 68.4761 93.3729 69.2581 93.467 70.0798L50.2891 70.0779ZM94.9431 109.914C93.8887 110.537 92.7211 110.946 91.5079 111.115C90.2946 111.285 89.0598 111.212 87.8749 110.901C86.6899 110.59 85.5784 110.048 84.6045 109.304C83.6306 108.561 82.8138 107.632 82.2012 106.572C81.5887 105.511 81.1926 104.339 81.0359 103.124C80.8791 101.909 80.9648 100.675 81.2881 99.4934C81.6113 98.3118 82.1656 97.206 82.919 96.24C83.6724 95.274 84.6098 94.4668 85.6771 93.8655L94.0601 89.0256L103.325 105.075L94.9431 109.914ZM113.665 99.1038L106 103.531L96.7341 87.4827L104.4 83.0569C105.454 82.4391 106.62 82.0357 107.831 81.8704C109.041 81.705 110.272 81.7806 111.453 82.093C112.635 82.4054 113.742 82.9485 114.713 83.6907C115.683 84.4328 116.497 85.3597 117.108 86.4177C117.719 87.4758 118.115 88.6442 118.272 89.8557C118.43 91.0673 118.346 92.2977 118.026 93.4768C117.706 94.6559 117.156 95.7602 116.408 96.7258C115.659 97.6915 114.727 98.4997 113.665 99.1038V99.1038Z" fill="white"/>
</svg>
