<svg xmlns="http://www.w3.org/2000/svg" width="148.731" height="148.731" viewBox="0 0 148.731 148.731">
  <g id="Group_893" data-name="Group 893" transform="translate(-1596.637 -2486.347)">
    <circle id="Ellipse_304" data-name="Ellipse 304" cx="60.366" cy="60.366" r="60.366" transform="translate(1610.637 2500.347)" fill="none" stroke="#14475f" stroke-miterlimit="10" stroke-width="28"/>
    <circle id="Ellipse_305" data-name="Ellipse 305" cx="60.366" cy="60.366" r="60.366" transform="translate(1610.637 2500.347)" fill="none" stroke="#fff" stroke-miterlimit="10" stroke-width="9"/>
    <circle id="Ellipse_306" data-name="Ellipse 306" cx="60.366" cy="60.366" r="60.366" transform="translate(1610.637 2500.347)" fill="#14475f"/>
    <g id="Group_892" data-name="Group 892" transform="translate(848.525 1608.431)">
      <path id="Path_2582" data-name="Path 2582" d="M818.138,1063.806a13.554,13.554,0,0,0,8.2,6.843,26.931,26.931,0,0,1-2.322-6.843Z" transform="translate(-22.66 -105.892)" fill="#fff"/>
      <path id="Path_2583" data-name="Path 2583" d="M850.091,1071.235c.135,0,.26.039.4.039s.26-.036.395-.039a22.688,22.688,0,0,0,3.01-7.429h-6.809A22.734,22.734,0,0,0,850.091,1071.235Z" transform="translate(-42.947 -105.892)" fill="#fff"/>
      <path id="Path_2584" data-name="Path 2584" d="M880.712,1035.414a31.717,31.717,0,0,1-.2,3.4h6.5a12.2,12.2,0,0,0,0-6.79h-6.5A32.133,32.133,0,0,1,880.712,1035.414Z" transform="translate(-66.382 -83.612)" fill="#fff"/>
      <path id="Path_2585" data-name="Path 2585" d="M871.348,1000.049a26.385,26.385,0,0,1,2.335,6.845h5.873A13.558,13.558,0,0,0,871.348,1000.049Z" transform="translate(-59.956 -61.203)" fill="#fff"/>
      <path id="Path_2586" data-name="Path 2586" d="M850.879,998c-.136,0-.263-.04-.4-.04s-.261.036-.4.039a22.536,22.536,0,0,0-3.012,7.429h6.816A22.568,22.568,0,0,0,850.879,998Z" transform="translate(-42.94 -59.74)" fill="#fff"/>
      <path id="Path_2587" data-name="Path 2587" d="M844.843,1035.414a28.755,28.755,0,0,0,.216,3.4h7.717a28.89,28.89,0,0,0,.216-3.4,29.267,29.267,0,0,0-.213-3.395h-7.722A29.008,29.008,0,0,0,844.843,1035.414Z" transform="translate(-41.378 -83.612)" fill="#fff"/>
      <path id="Path_2588" data-name="Path 2588" d="M826.346,1000.049a13.559,13.559,0,0,0-8.208,6.845h5.875A26.476,26.476,0,0,1,826.346,1000.049Z" transform="translate(-22.66 -61.203)" fill="#fff"/>
      <path id="Path_2589" data-name="Path 2589" d="M819.846,1035.414a32.061,32.061,0,0,1,.192-3.395h-6.5a12.2,12.2,0,0,0,0,6.79h6.5A31.554,31.554,0,0,1,819.846,1035.414Z" transform="translate(-19.098 -83.612)" fill="#fff"/>
      <path id="Path_2590" data-name="Path 2590" d="M871.366,1070.648a13.559,13.559,0,0,0,8.2-6.844h-5.881A26.849,26.849,0,0,1,871.366,1070.648Z" transform="translate(-59.969 -105.891)" fill="#fff"/>
      <path id="Path_2591" data-name="Path 2591" d="M900.479,1161.368c-.133.01-.265.02-.4.02h-9.37l9.86,2.642a6.177,6.177,0,0,1-.09-1.009Z" transform="translate(-73.527 -174.277)" fill="#fff"/>
      <path id="Path_2592" data-name="Path 2592" d="M921.52,921.354l-31.483-8.435a5.432,5.432,0,0,0-6.653,3.841l-2.839,10.6h12.41a5.4,5.4,0,0,1,4.154,1.97l4.739,1.27,8.942-8.337,2.5.671-5.6,9.231,4.423,1.185,3.4-2,1.669.447-2.635,3.99.286,4.773-1.669-.447-1.944-3.427-4.423-1.185.237,10.8-2.5-.671-3.575-11.691-2.566-.687V957.4a13.644,13.644,0,0,1,7.268-5.151l-.793-.212.7-2.624,2.626.7-.455,1.7a13.661,13.661,0,0,1,1.706-.111c.372,0,.749.018,1.122.048l.252-.938,2.623.7-.2.728a13.352,13.352,0,0,1,2.534,1.036l.285-1.06,2.628.684,6.673-24.906A5.433,5.433,0,0,0,921.52,921.354Zm-19.284,29.982-2.623-.7.706-2.623,2.623.7Z" transform="translate(-66.403)" fill="#fff"/>
      <path id="Path_2593" data-name="Path 2593" d="M826.552,970.716H785.81v54.322h40.742a2.732,2.732,0,0,0,.4-.033v-11.666a6.18,6.18,0,0,1,2.315-4.806v-35.1A2.719,2.719,0,0,0,826.552,970.716Zm-5.432,48.89H793.958v-2.716H821.12Zm-13.581-10.864a16.3,16.3,0,1,1,16.3-16.3A16.3,16.3,0,0,1,807.539,1008.741Z" transform="translate(0 -40.642)" fill="#fff"/>
      <path id="Path_2594" data-name="Path 2594" d="M957.211,1068.277v-4.212a10.6,10.6,0,0,0-9.528-10.613q-.494-.045-.979-.045a10.519,10.519,0,0,0-10.507,10.508v4.361a3.1,3.1,0,0,0-2.486,3.024v16.048a3.086,3.086,0,0,0,3.086,3.086h19.814a3.086,3.086,0,0,0,3.086-3.086V1071.3A3.1,3.1,0,0,0,957.211,1068.277Zm-7.448,16.4a.616.616,0,0,1-.593.786h-4.938a.616.616,0,0,1-.593-.786l.988-3.456a4.289,4.289,0,0,1-2.23-4.16,4.337,4.337,0,0,1,3.81-3.915,4.5,4.5,0,0,1,.495-.027,4.316,4.316,0,0,1,2.075,8.1Zm2.477-16.387H941.168V1064.1a5.608,5.608,0,0,1,5.534-5.689q.2,0,.4.014a5.555,5.555,0,0,1,5.138,5.541Z" transform="translate(-103.668 -98.604)" fill="#fff"/>
    </g>
  </g>
</svg>
