<svg width="152" height="150" viewBox="0 0 152 150" fill="none" xmlns="http://www.w3.org/2000/svg">
<path d="M76.094 149.666C92.831 149.666 106.399 149.022 106.399 148.227C106.399 147.432 92.831 146.788 76.094 146.788C59.357 146.788 45.789 147.432 45.789 148.227C45.789 149.022 59.357 149.666 76.094 149.666Z" fill="#58595B"/>
<path d="M75.215 14.667C87.1543 14.667 98.8254 18.2074 108.753 24.8405C118.68 31.4736 126.417 40.9015 130.986 51.9319C135.555 62.9624 136.75 75.1 134.421 86.8098C132.092 98.5197 126.343 109.276 117.9 117.718C109.458 126.161 98.7017 131.91 86.9918 134.239C75.282 136.568 63.1444 135.373 52.1139 130.804C41.0835 126.235 31.6556 118.498 25.0225 108.571C18.3894 98.6434 14.849 86.9723 14.849 75.033C14.849 59.0229 21.209 43.6686 32.5298 32.3478C43.8506 21.027 59.2049 14.667 75.215 14.667V14.667Z" fill="#FF6C26" stroke="#14475f" stroke-width="28"/>
<path d="M75.215 135.399C108.554 135.399 135.581 108.372 135.581 75.033C135.581 41.6938 108.554 14.667 75.215 14.667C41.8758 14.667 14.849 41.6938 14.849 75.033C14.849 108.372 41.8758 135.399 75.215 135.399Z" fill="#FF6C26" stroke="white" stroke-width="9" stroke-miterlimit="10"/>
<path d="M75.215 14.667C87.1543 14.667 98.8254 18.2074 108.753 24.8405C118.68 31.4736 126.417 40.9015 130.986 51.9319C135.555 62.9624 136.75 75.1 134.421 86.8098C132.092 98.5197 126.343 109.276 117.9 117.718C109.458 126.161 98.7017 131.91 86.9918 134.239C75.282 136.568 63.1444 135.373 52.1139 130.804C41.0835 126.235 31.6556 118.498 25.0225 108.571C18.3894 98.6434 14.849 86.9723 14.849 75.033C14.849 59.0229 21.209 43.6686 32.5298 32.3478C43.8506 21.027 59.2049 14.667 75.215 14.667V14.667Z" fill="#14475f"/>
<path d="M72.144 93.5938H51.551V97.2597H72.144V93.5938Z" fill="white"/>
<path d="M91.526 53.2988H70.933V56.9648H91.526V53.2988Z" fill="white"/>
<path d="M91.526 45.9668H64.897V49.6328H91.526V45.9668Z" fill="white"/>
<path d="M45.627 107.876V46.4121L45.633 46.4058L52.893 46.3438V39.144L52.899 39.1382H97.45V72.7661C97.85 72.7281 98.263 72.7061 98.677 72.7061C99.077 72.7061 99.477 72.7237 99.877 72.7607H99.893V36.6968H51.893L43.193 45.397V110.308H83.993C83.6327 109.545 83.4423 108.714 83.435 107.87L45.627 107.876Z" fill="white"/>
<path d="M51.551 89.9282H84.083C84.4923 89.1409 85.0733 88.4553 85.783 87.9229V86.2588H51.551V89.9282Z" fill="white"/>
<path d="M51.551 78.9292V82.5952H86.14C86.45 81.3025 86.9587 80.0658 87.648 78.9292H51.551Z" fill="white"/>
<path d="M51.551 75.2969H90.94C91.131 75.1529 91.327 75.0139 91.526 74.8809V71.6299H51.551V75.2969Z" fill="white"/>
<path d="M108.642 89.7422V85.748C108.658 83.247 107.74 80.8299 106.07 78.9688C104.399 77.1076 102.094 75.9363 99.606 75.6831C99.294 75.6551 98.9843 75.6411 98.677 75.6411C96.0351 75.644 93.5023 76.6948 91.6343 78.563C89.7663 80.4312 88.7157 82.9641 88.713 85.606V89.7422C88.0497 89.8754 87.4527 90.2333 87.0231 90.7559C86.5934 91.2784 86.3574 91.9333 86.355 92.6099V107.829C86.355 108.605 86.6634 109.35 87.2123 109.899C87.7612 110.448 88.5057 110.756 89.282 110.756H108.072C108.456 110.756 108.837 110.68 109.192 110.533C109.547 110.386 109.87 110.17 110.141 109.898C110.413 109.627 110.629 109.304 110.776 108.949C110.923 108.594 110.998 108.213 110.998 107.829V92.6099C110.996 91.9336 110.76 91.2789 110.331 90.7563C109.902 90.2338 109.305 89.8756 108.642 89.7422V89.7422ZM101.579 105.295C101.604 105.382 101.609 105.474 101.592 105.563C101.576 105.652 101.539 105.736 101.484 105.809C101.429 105.881 101.359 105.94 101.277 105.98C101.196 106.02 101.107 106.041 101.016 106.041H96.333C96.2424 106.041 96.153 106.02 96.0719 105.98C95.9908 105.94 95.9202 105.881 95.8657 105.809C95.8111 105.736 95.7742 105.652 95.7578 105.563C95.7413 105.474 95.7459 105.382 95.771 105.295L96.707 102.018C96.0075 101.639 95.4344 101.063 95.0585 100.362C94.6826 99.6612 94.5204 98.8651 94.592 98.0728C94.6775 97.1335 95.0831 96.2526 95.7408 95.5767C96.3986 94.9007 97.2685 94.471 98.205 94.3599C98.3611 94.3428 98.518 94.3342 98.675 94.334C99.5844 94.3333 100.468 94.6355 101.187 95.1929C101.905 95.7502 102.418 96.5311 102.643 97.4121C102.869 98.2931 102.794 99.2241 102.432 100.058C102.07 100.892 101.44 101.582 100.642 102.018L101.579 105.295ZM103.928 89.7549H93.428V85.7842C93.4172 85.0848 93.5444 84.3899 93.8024 83.7397C94.0605 83.0896 94.4442 82.4967 94.9317 81.9951C95.4192 81.4935 96.0009 81.0929 96.6434 80.8164C97.2859 80.5399 97.9766 80.3929 98.676 80.3838C98.802 80.3838 98.928 80.384 99.056 80.397C100.381 80.4971 101.62 81.0944 102.523 82.0688C103.427 83.0433 103.929 84.3229 103.929 85.6519L103.928 89.7549Z" fill="white"/>
</svg>
