<svg width="169" height="152" viewBox="0 0 169 152" fill="none" xmlns="http://www.w3.org/2000/svg">
<path d="M84.305 148.999C101.042 148.999 114.61 148.355 114.61 147.56C114.61 146.765 101.042 146.121 84.305 146.121C67.568 146.121 54 146.765 54 147.56C54 148.355 67.568 148.999 84.305 148.999Z" fill="#58595B"/>
<path d="M83.426 14C95.3653 14 107.036 17.5404 116.964 24.1735C126.891 30.8066 134.628 40.2345 139.197 51.2649C143.766 62.2954 144.961 74.433 142.632 86.1428C140.303 97.8527 134.554 108.609 126.111 117.051C117.669 125.494 106.913 131.243 95.2028 133.572C83.493 135.901 71.3554 134.706 60.3249 130.137C49.2945 125.568 39.8666 117.831 33.2335 107.904C26.6004 97.9764 23.06 86.3053 23.06 74.366C23.06 58.3559 29.42 43.0016 40.7408 31.6808C52.0616 20.36 67.4159 14 83.426 14V14Z" fill="#14475f" stroke="#14475f" stroke-width="28"/>
<path d="M83.426 134.732C116.765 134.732 143.792 107.705 143.792 74.366C143.792 41.0268 116.765 14 83.426 14C50.0868 14 23.06 41.0268 23.06 74.366C23.06 107.705 50.0868 134.732 83.426 134.732Z" fill="#14475f" stroke="white" stroke-width="9" stroke-miterlimit="10"/>
<path d="M83.426 134.732C116.765 134.732 143.792 107.705 143.792 74.366C143.792 41.0268 116.765 14 83.426 14C50.0868 14 23.06 41.0268 23.06 74.366C23.06 107.705 50.0868 134.732 83.426 134.732Z" fill="#14475f"/>
<path d="M59.912 73.7002C59.868 73.55 59.7949 73.41 59.6967 73.2881C59.5986 73.1661 59.4773 73.0648 59.34 72.9897C59.2026 72.9147 59.0518 72.8673 58.8962 72.8506C58.7406 72.8339 58.5832 72.8479 58.433 72.8921L48.144 75.9092C47.9939 75.9532 47.8539 76.0264 47.7321 76.1245C47.6103 76.2226 47.509 76.3437 47.434 76.4809C47.359 76.6182 47.3118 76.7693 47.2951 76.9248C47.2784 77.0803 47.2924 77.2376 47.3365 77.3877C47.3805 77.5378 47.4537 77.6775 47.5519 77.7993C47.65 77.9211 47.7712 78.0227 47.9085 78.0976C48.0458 78.1726 48.1965 78.2196 48.3521 78.2363C48.5076 78.2531 48.6649 78.2394 48.815 78.1953L59.104 75.1782C59.2542 75.1343 59.3943 75.0609 59.5162 74.9629C59.6381 74.8648 59.7395 74.7437 59.8145 74.6064C59.8896 74.4692 59.9368 74.3186 59.9536 74.1631C59.9703 74.0075 59.9561 73.8503 59.912 73.7002V73.7002Z" fill="white"/>
<path d="M73.295 68.5332L63.006 71.5503C62.8527 71.5916 62.7092 71.6627 62.5839 71.7602C62.4586 71.8578 62.354 71.9797 62.2763 72.1182C62.1987 72.2566 62.1494 72.4091 62.1316 72.5669C62.1137 72.7247 62.1274 72.8843 62.1721 73.0366C62.2168 73.189 62.2915 73.331 62.3918 73.4541C62.4921 73.5772 62.616 73.6789 62.7562 73.7534C62.8964 73.828 63.05 73.8738 63.2082 73.8882C63.3663 73.9025 63.5257 73.885 63.677 73.8369L73.966 70.8203C74.2629 70.7259 74.511 70.5187 74.6573 70.2436C74.8036 69.9686 74.8364 69.6475 74.7487 69.3486C74.661 69.0497 74.4598 68.7969 74.1881 68.6445C73.9164 68.4921 73.5958 68.4522 73.295 68.5332Z" fill="white"/>
<path d="M57.823 79.2783L55.537 79.9482C55.2338 80.0371 54.9784 80.2423 54.8269 80.5195C54.6754 80.7967 54.6401 81.1231 54.729 81.4263C54.8178 81.7294 55.0235 81.9847 55.3006 82.1362C55.5778 82.2878 55.9039 82.3227 56.207 82.2339L58.493 81.564C58.6431 81.52 58.7831 81.4472 58.9049 81.3491C59.0267 81.251 59.1281 81.1299 59.2031 80.9927C59.2781 80.8554 59.3254 80.7043 59.3422 80.5488C59.359 80.3933 59.345 80.236 59.301 80.0859C59.257 79.9358 59.1839 79.7962 59.0858 79.6743C58.9877 79.5525 58.8666 79.451 58.7294 79.376C58.5921 79.3009 58.4414 79.2536 58.2859 79.2368C58.1304 79.22 57.9731 79.2343 57.823 79.2783V79.2783Z" fill="white"/>
<path d="M61.588 79.4151C61.6319 79.5653 61.7049 79.7053 61.803 79.8272C61.901 79.9491 62.0221 80.0505 62.1594 80.1256C62.2967 80.2006 62.4475 80.248 62.603 80.2647C62.7586 80.2815 62.9159 80.2674 63.066 80.2232L64.209 79.8883C64.3591 79.8443 64.4991 79.771 64.6209 79.6729C64.7427 79.5749 64.8441 79.4537 64.9191 79.3165C64.9941 79.1792 65.0414 79.0286 65.0582 78.8731C65.075 78.7176 65.061 78.5603 65.017 78.4102C64.973 78.2601 64.8999 78.12 64.8018 77.9981C64.7037 77.8763 64.5826 77.7753 64.4454 77.7003C64.3081 77.6253 64.1574 77.5779 64.0019 77.5611C63.8464 77.5443 63.6891 77.5581 63.539 77.6021L62.396 77.9371C62.2458 77.981 62.1058 78.0539 61.9839 78.1519C61.862 78.25 61.7605 78.3711 61.6855 78.5084C61.6104 78.6457 61.5632 78.7967 61.5465 78.9522C61.5298 79.1078 61.5439 79.265 61.588 79.4151V79.4151Z" fill="white"/>
<path d="M70.398 75.5903L68.112 76.2612C67.9619 76.3052 67.8219 76.378 67.7001 76.4761C67.5782 76.5741 67.4769 76.6953 67.4019 76.8325C67.3269 76.9697 67.2796 77.1208 67.2628 77.2763C67.246 77.4319 67.26 77.5891 67.304 77.7392C67.348 77.8893 67.4211 78.029 67.5192 78.1509C67.6173 78.2727 67.7384 78.3742 67.8757 78.4492C68.0129 78.5242 68.1636 78.5716 68.3191 78.5884C68.4746 78.6052 68.6319 78.5908 68.782 78.5469L71.069 77.8769C71.2223 77.8357 71.3658 77.7645 71.4911 77.667C71.6164 77.5695 71.721 77.4475 71.7987 77.3091C71.8764 77.1706 71.9256 77.0181 71.9435 76.8603C71.9614 76.7026 71.9476 76.543 71.9029 76.3906C71.8582 76.2382 71.7835 76.0962 71.6832 75.9731C71.5829 75.85 71.459 75.7484 71.3188 75.6738C71.1787 75.5992 71.025 75.5534 70.8669 75.539C70.7087 75.5247 70.5493 75.5422 70.398 75.5903V75.5903Z" fill="white"/>
<path d="M74.257 74.8192C74.1076 75.0981 74.0738 75.4243 74.1628 75.7279C74.2519 76.0315 74.4567 76.2877 74.7331 76.4418C74.9413 76.5564 75.1788 76.6068 75.4156 76.5863C75.6524 76.5658 75.8777 76.4753 76.0631 76.3265C76.2484 76.1777 76.3855 75.9776 76.4568 75.7508C76.528 75.5241 76.5304 75.2812 76.4635 75.0531C76.3966 74.825 76.2635 74.6219 76.081 74.4696C75.8986 74.3173 75.675 74.2227 75.4386 74.1976C75.2023 74.1725 74.9638 74.2183 74.7534 74.329C74.5431 74.4396 74.3703 74.6102 74.257 74.8192V74.8192Z" fill="white"/>
<path d="M58.091 85.8997C55.968 87.9377 55.856 90.6768 56.308 93.3528L54.541 92.5799C53.141 91.9689 51.989 94.0547 53.398 94.6707C54.7313 95.2514 56.0647 95.8338 57.398 96.4178C57.6051 96.5266 57.8396 96.5728 58.0724 96.5501C58.3053 96.5274 58.5265 96.4371 58.7087 96.2903C58.891 96.1436 59.0263 95.9466 59.0981 95.7239C59.17 95.5012 59.1752 95.2625 59.113 95.0369C58.47 92.5369 57.725 89.5559 59.828 87.5369C60.933 86.4749 59.198 84.8407 58.091 85.8997Z" fill="white"/>
<path d="M60.803 90.9171C63.623 92.6171 66.173 91.093 68.214 89.066C68.9152 89.4696 69.7054 89.6936 70.514 89.7174C71.663 89.7874 74.777 86.952 75.171 87.255C76.376 88.18 78.028 86.4551 76.807 85.5211C76.5161 85.2325 76.1618 85.0161 75.7724 84.8888C75.3829 84.7615 74.9692 84.7271 74.564 84.7882C72.864 85.1512 70.701 88.3734 68.901 86.6134C68.6703 86.3986 68.3643 86.2831 68.0492 86.2921C67.7341 86.3011 67.4351 86.4337 67.217 86.6612C65.889 88.1292 64.192 90.1783 61.947 88.8273C60.626 88.0333 59.488 90.1271 60.803 90.9171Z" fill="white"/>
<path d="M50.538 101.009L42.231 72.6761L106.251 53.9041L110.289 67.6741C111.042 67.4144 111.817 67.2239 112.605 67.1058L108.538 53.2337L105.183 41.8001L104.92 40.8997C104.544 39.6222 103.676 38.5462 102.507 37.9075C101.339 37.2688 99.9645 37.1199 98.6861 37.493L39.734 54.7781C38.4563 55.1545 37.3801 56.0219 36.7414 57.1907C36.1026 58.3596 35.9537 59.7344 36.327 61.013L36.589 61.9129L39.941 73.345L48.249 101.678C48.625 102.956 49.4926 104.032 50.6613 104.671C51.8301 105.309 53.2046 105.458 54.4831 105.085L98.896 92.0628V89.5799L53.816 102.8C53.1438 102.997 52.4212 102.918 51.8067 102.582C51.1921 102.247 50.7359 101.681 50.538 101.009V101.009ZM38.878 61.2439L38.6161 60.344C38.4194 59.672 38.4975 58.9492 38.8333 58.3348C39.1692 57.7203 39.7351 57.2641 40.407 57.0667L99.359 39.7811C100.031 39.5847 100.754 39.6629 101.369 39.9988C101.983 40.3348 102.439 40.9011 102.637 41.5731L102.899 42.473L38.878 61.2439Z" fill="white"/>
<path d="M101.347 74.3579C101.668 74.0078 101.893 73.5805 102 73.1177C102.107 72.6549 102.092 72.1727 101.957 71.7173L101.733 70.9541C101.622 70.5764 101.431 70.2269 101.174 69.9287C100.917 69.6305 100.599 69.3906 100.242 69.2251C99.197 67.1751 97.037 65.2589 92.584 66.5649C92.409 66.6159 92.238 66.6743 92.075 66.7373C91.327 67.0506 90.4953 67.1027 89.714 66.8853C89.4418 66.8103 89.183 66.693 88.947 66.5381C88.7842 66.4312 88.6008 66.3597 88.4086 66.3281C88.2165 66.2965 88.0198 66.3054 87.8314 66.3545C87.6429 66.4036 87.4668 66.4919 87.3145 66.6133C87.1621 66.7346 87.037 66.8864 86.947 67.0591C86.8665 67.2306 86.8229 67.417 86.8189 67.6064C86.8149 67.7959 86.8508 67.9844 86.924 68.1592C87.043 68.4432 87.194 68.771 87.38 69.125C87.4982 69.3234 87.5953 69.5335 87.67 69.752C87.67 69.795 87.648 69.952 87.629 70.085C87.599 70.285 87.563 70.5209 87.529 70.8369C87.4581 71.5439 87.4709 72.2569 87.567 72.9609C87.3607 73.2911 87.2264 73.6612 87.173 74.0469C87.1196 74.4325 87.1482 74.8254 87.257 75.1992L87.481 75.9609C87.6131 76.418 87.8611 76.8336 88.201 77.1665C88.541 77.4994 88.9613 77.7388 89.421 77.8613C90.2037 79.0525 91.3764 79.9339 92.738 80.355L90.582 82.3369C90.0993 82.8188 89.7551 83.4218 89.5857 84.0825C89.4163 84.7432 89.4278 85.4376 89.619 86.0923V86.0981L87.333 86.7681L81.299 66.1899L101.877 60.1562L105.058 71.0059C105.664 70.3794 106.33 69.8137 107.046 69.3169L103.493 57.1992L78.342 64.5742L85.717 89.7251L90.691 88.2661L99.127 85.793C99.4892 84.5164 100.26 83.3942 101.322 82.5981V80.2163C101.324 79.6613 101.36 79.1067 101.43 78.5562L99.893 78.2661C100.819 77.1731 101.333 75.7903 101.347 74.3579V74.3579Z" fill="white"/>
<path d="M124.818 84.4639V80.3643C124.834 77.7937 123.892 75.3094 122.174 73.3965C120.457 71.4836 118.088 70.2792 115.531 70.019C115.21 69.99 114.891 69.9761 114.576 69.9761C111.861 69.979 109.257 71.0589 107.337 72.979C105.417 74.8991 104.337 77.5028 104.334 80.2183V84.4692C103.652 84.6065 103.039 84.9746 102.598 85.5117C102.156 86.0488 101.914 86.7218 101.911 87.417V103.06C101.911 103.455 101.989 103.846 102.14 104.211C102.291 104.576 102.513 104.908 102.792 105.187C103.071 105.466 103.403 105.688 103.768 105.839C104.133 105.991 104.524 106.068 104.919 106.068H124.233C125.031 106.068 125.796 105.751 126.36 105.187C126.924 104.623 127.241 103.858 127.241 103.06V87.417C127.24 86.7209 126.997 86.0469 126.556 85.5088C126.114 84.9707 125.5 84.6013 124.818 84.4639V84.4639ZM117.558 100.451C117.584 100.541 117.588 100.635 117.571 100.726C117.554 100.818 117.516 100.904 117.46 100.979C117.404 101.053 117.332 101.113 117.248 101.154C117.165 101.196 117.073 101.218 116.98 101.217H112.166C112.073 101.218 111.981 101.196 111.898 101.154C111.814 101.113 111.742 101.053 111.686 100.979C111.63 100.904 111.592 100.818 111.575 100.726C111.558 100.635 111.562 100.541 111.588 100.451L112.55 97.082C111.831 96.6926 111.242 96.1011 110.856 95.3804C110.47 94.6597 110.303 93.8412 110.377 93.0269C110.465 92.0615 110.881 91.1561 111.557 90.4614C112.233 89.7667 113.127 89.325 114.09 89.2109C114.25 89.193 114.412 89.1842 114.573 89.1841C115.69 89.1857 116.76 89.6299 117.55 90.4194C118.339 91.209 118.783 92.2794 118.785 93.396C118.788 94.151 118.585 94.8929 118.199 95.542C117.814 96.1911 117.259 96.7232 116.595 97.082L117.558 100.451ZM119.972 84.4771H109.183V80.3999C109.173 79.681 109.304 78.9673 109.57 78.2993C109.836 77.6313 110.231 77.0224 110.733 76.5073C111.234 75.9922 111.832 75.5809 112.493 75.2974C113.154 75.0139 113.864 74.8636 114.583 74.855C114.712 74.855 114.842 74.8551 114.973 74.8691C116.335 74.9716 117.608 75.585 118.537 76.5864C119.465 77.5879 119.981 78.9032 119.981 80.269L119.972 84.4771Z" fill="white"/>
</svg>
