<svg width="151" height="150" viewBox="0 0 151 150" fill="none" xmlns="http://www.w3.org/2000/svg">
<g clip-path="url(#clip0_26_43)">
<path d="M76.38 150.111C93.1584 150.111 106.76 149.465 106.76 148.668C106.76 147.871 93.1584 147.225 76.38 147.225C59.6016 147.225 46 147.871 46 148.668C46 149.465 59.6016 150.111 76.38 150.111Z" fill="#58595B"/>
<path d="M75.472 135.03C108.894 135.03 135.987 107.937 135.987 74.515C135.987 41.0935 108.894 14 75.472 14C42.0505 14 14.957 41.0935 14.957 74.515C14.957 107.937 42.0505 135.03 75.472 135.03Z" fill="#14475f" stroke="#14475f" stroke-width="28" stroke-miterlimit="10"/>
<path d="M75.472 135.03C108.894 135.03 135.987 107.937 135.987 74.515C135.987 41.0935 108.894 14 75.472 14C42.0505 14 14.957 41.0935 14.957 74.515C14.957 107.937 42.0505 135.03 75.472 135.03Z" fill="#14475f" stroke="white" stroke-width="10" stroke-miterlimit="10"/>
<path d="M75.472 14C87.4408 14 99.1407 17.5491 109.092 24.1986C119.044 30.8481 126.8 40.2992 131.381 51.3569C135.961 62.4146 137.159 74.5821 134.824 86.3209C132.489 98.0597 126.726 108.842 118.263 117.306C109.799 125.769 99.0167 131.532 87.2779 133.867C75.5392 136.202 63.3716 135.004 52.3139 130.424C41.2563 125.843 31.8051 118.087 25.1556 108.135C18.5062 98.1837 14.957 86.4837 14.957 74.515C14.957 58.4654 21.3327 43.0732 32.6815 31.7244C44.0302 20.3757 59.4225 14 75.472 14V14Z" fill="#14475f"/>
<path d="M104.499 101.626H46.499C44.3773 101.626 42.3425 100.783 40.8422 99.2832C39.3419 97.7829 38.499 95.7482 38.499 93.6265V55.6265C38.499 53.5047 39.3419 51.4695 40.8422 49.9692C42.3425 48.4689 44.3773 47.6265 46.499 47.6265H96.499C96.904 47.6265 112.499 63.2215 112.499 63.6265V93.6265C112.499 95.7482 111.656 97.7829 110.156 99.2832C108.656 100.783 106.621 101.626 104.499 101.626Z" stroke="white" stroke-width="2" stroke-miterlimit="10"/>
<path d="M107.425 67.8594H100.658C98.4137 67.857 96.262 66.9644 94.675 65.3774C93.088 63.7905 92.1954 61.6384 92.1931 59.394V52.6265H46.425C45.6294 52.6265 44.8663 52.9423 44.3037 53.5049C43.7411 54.0675 43.425 54.8308 43.425 55.6265V93.6265C43.425 94.4221 43.7411 95.1849 44.3037 95.7476C44.8663 96.3102 45.6294 96.6265 46.425 96.6265H104.425C105.221 96.6265 105.984 96.3102 106.546 95.7476C107.109 95.1849 107.425 94.4221 107.425 93.6265V67.8594ZM73.455 90.1011H49.5601V58.8091H73.455V90.1011Z" fill="white"/>
<path d="M96.906 47.6265V55.2212C96.906 62.4672 97.689 63.2212 104.906 63.2212H112.501" fill="white"/>
<path d="M96.906 47.6265V55.2212C96.906 62.4672 97.689 63.2212 104.906 63.2212H112.501" stroke="white" stroke-width="2" stroke-miterlimit="10"/>
<path d="M83.342 90.104H90.423V83.0234H83.342V90.104ZM84.286 83.9673H89.479V89.1602H84.286V83.9673Z" fill="#14475f"/>
<path d="M88.416 85.0293H85.348V88.0973H88.416V85.0293Z" fill="#14475f"/>
<path d="M83.342 79.8765H90.423V72.7944H83.342V79.8765ZM84.286 73.7393H89.479V78.9312H84.286V73.7393Z" fill="#14475f"/>
<path d="M88.416 74.8013H85.348V77.8693H88.416V74.8013Z" fill="#14475f"/>
<path d="M93.7671 72.7944V79.8765H100.848V72.7944H93.7671ZM99.9041 78.9312H94.7111V73.7393H99.9061L99.9041 78.9312Z" fill="#14475f"/>
<path d="M98.8409 74.8013H95.7729V77.8693H98.8409V74.8013Z" fill="#14475f"/>
<path d="M92.924 87.4653H94.245V86.145H92.924V84.8242H91.606V90.1074H94.2469V88.7861H92.926L92.924 87.4653Z" fill="#14475f"/>
<path d="M98.207 82.1802H96.886V83.5012H98.207V82.1802Z" fill="#14475f"/>
<path d="M95.565 88.7832V87.4653H94.244V88.7861H95.124V90.1074H100.847V87.4653H99.526V88.7861H98.2061V87.4653H96.886V88.7861L95.565 88.7832Z" fill="#14475f"/>
<path d="M100.848 84.8213H99.5271V86.1423H100.848V84.8213Z" fill="#14475f"/>
<path d="M95.565 84.8213H94.244V86.1421H95.565V87.4624H96.886V86.1421H98.2061V84.8213H96.886V83.5H95.565V84.8213Z" fill="#14475f"/>
<path d="M94.2451 83.5H92.9241V84.821H94.2451V83.5Z" fill="#14475f"/>
<path d="M95.5661 82.1802H94.2451V83.5012H95.5661V82.1802Z" fill="#14475f"/>
<path d="M92.924 72.7944H91.603V74.1154H92.924V72.7944Z" fill="#14475f"/>
<path d="M92.924 74.5483H91.603V75.8693H92.924V74.5483Z" fill="#14475f"/>
<path d="M92.924 76.3354H91.603V79.9604H92.924V76.3354Z" fill="#14475f"/>
<path d="M96.8859 80.8594H95.5649V82.1804H96.8859V80.8594Z" fill="#14475f"/>
<path d="M90.395 80.8594H89.074V82.1804H90.395V80.8594Z" fill="#14475f"/>
<path d="M98.2061 80.8594V82.1802H99.527V83.5H100.848V80.8594H98.2061Z" fill="#14475f"/>
<path d="M94.245 82.1802V80.8594H91.606V83.5H92.9269V82.1802H94.245Z" fill="#14475f"/>
<path d="M87.768 80.8594H83.342V82.1804H87.768V80.8594Z" fill="#14475f"/>
<path fill-rule="evenodd" clip-rule="evenodd" d="M51.301 85.2355V87.0905C51.2994 87.4917 51.4559 87.8771 51.7367 88.1637C52.0175 88.4503 52.3999 88.6147 52.801 88.6212H70.207C70.6087 88.6162 70.992 88.4526 71.2731 88.1657C71.5543 87.8787 71.7102 87.4921 71.707 87.0905V85.2355C71.714 78.3785 51.301 78.3825 51.301 85.2355Z" fill="white"/>
<path fill-rule="evenodd" clip-rule="evenodd" d="M61.506 78.5562C64.017 78.5562 66.906 75.0984 66.906 70.8364C66.906 66.5744 67.624 63.1162 61.506 63.1162C55.388 63.1162 56.106 66.5744 56.106 70.8364C56.106 75.0984 59.006 78.5562 61.506 78.5562Z" fill="white"/>
</g>
<defs>
<clipPath id="clip0_26_43">
<rect width="151" height="150" fill="white"/>
</clipPath>
</defs>
</svg>
