<svg width="154" height="153" viewBox="0 0 154 153" fill="none" xmlns="http://www.w3.org/2000/svg">
<path d="M77.396 152.346C94.1744 152.346 107.776 151.7 107.776 150.903C107.776 150.106 94.1744 149.46 77.396 149.46C60.6176 149.46 47.016 150.106 47.016 150.903C47.016 151.7 60.6176 152.346 77.396 152.346Z" fill="#58595B"/>
<path d="M76.515 136.377C109.937 136.377 137.03 109.283 137.03 75.8619C137.03 42.4404 109.937 15.3469 76.515 15.3469C43.0935 15.3469 16 42.4404 16 75.8619C16 109.283 43.0935 136.377 76.515 136.377Z" fill="#14475f" stroke="#14475f" stroke-width="30" stroke-miterlimit="10"/>
<path d="M76.515 136.377C109.937 136.377 137.03 109.283 137.03 75.8619C137.03 42.4404 109.937 15.3469 76.515 15.3469C43.0935 15.3469 16 42.4404 16 75.8619C16 109.283 43.0935 136.377 76.515 136.377Z" fill="#14475f" stroke="white" stroke-width="10" stroke-miterlimit="10"/>
<path d="M76.515 136.377C109.937 136.377 137.03 109.283 137.03 75.8619C137.03 42.4404 109.937 15.3469 76.515 15.3469C43.0935 15.3469 16 42.4404 16 75.8619C16 109.283 43.0935 136.377 76.515 136.377Z" fill="#14475f"/>
<path d="M62.803 58.9832C62.8032 59.2892 62.7126 59.588 62.5428 59.8425C62.3729 60.0971 62.1314 60.2956 61.8487 60.4128C61.566 60.5301 61.2549 60.5608 60.9548 60.5012C60.6546 60.4416 60.3789 60.2947 60.1625 60.0784C59.946 59.8621 59.7986 59.586 59.7388 59.2859C59.679 58.9858 59.7096 58.6751 59.8266 58.3923C59.9437 58.1096 60.142 57.8675 60.3964 57.6975C60.6508 57.5275 60.95 57.4368 61.256 57.4368C61.6661 57.4368 62.0594 57.6 62.3495 57.8899C62.6396 58.1798 62.8027 58.573 62.803 58.9832V58.9832Z" fill="white"/>
<path d="M116.918 87.7488C116.106 86.3413 115.025 85.1078 113.736 84.1184C112.447 83.1291 110.976 82.4037 109.406 81.9832C107.837 81.5626 106.2 81.4553 104.589 81.6677C102.978 81.8801 101.425 82.408 100.018 83.2209L93.736 86.8479V73.4177C93.732 71.7451 93.1896 70.1185 92.189 68.7781L84.456 58.468V54.0769C85.3598 53.7561 86.1423 53.1635 86.6962 52.3806C87.2501 51.5977 87.5483 50.6629 87.55 49.7039V42.5901C87.5487 41.3599 87.0594 40.1802 86.1895 39.3103C85.3196 38.4404 84.1402 37.9513 82.91 37.95H55.07C53.8398 37.9513 52.6604 38.4404 51.7905 39.3103C50.9206 40.1802 50.4313 41.3599 50.43 42.5901V49.7039C50.4315 50.6628 50.7295 51.5977 51.2833 52.3806C51.837 53.1635 52.6193 53.7561 53.523 54.0769V58.468L45.79 68.7791C44.79 70.1193 44.248 71.7455 44.244 73.4177V103.371C44.2464 105.421 45.0619 107.387 46.5116 108.836C47.9614 110.286 49.9269 111.101 51.977 111.103H76.832C78.4955 113.895 81.1921 115.92 84.3379 116.739C87.4836 117.558 90.8252 117.104 93.639 115.477L112.39 104.651C115.23 103.008 117.302 100.305 118.151 97.1365C118.999 93.9675 118.556 90.5912 116.918 87.7488V87.7488ZM55.07 41.0417H82.909C83.3191 41.0425 83.7122 41.2061 84.002 41.4963C84.2918 41.7865 84.4548 42.18 84.455 42.5901V49.7039C84.4545 50.1137 84.2914 50.5068 84.0016 50.7966C83.7118 51.0864 83.3189 51.2492 82.909 51.2498H55.07C54.66 51.2495 54.2668 51.087 53.9767 50.7971C53.6867 50.5073 53.5235 50.1139 53.523 49.7039V42.5901C53.5233 42.1798 53.6863 41.7861 53.9763 41.4958C54.2664 41.2056 54.6597 41.0423 55.07 41.0417V41.0417ZM51.977 108.011C50.7468 108.01 49.5674 107.521 48.6975 106.651C47.8276 105.781 47.3383 104.601 47.337 103.371V101.809H75.437C74.9366 103.849 74.9624 105.982 75.512 108.009L51.977 108.011ZM75.177 89.45H70.537V94.0901C70.5423 94.2965 70.5061 94.5019 70.4308 94.6941C70.3554 94.8863 70.2423 95.0614 70.0982 95.2092C69.9541 95.3571 69.7818 95.4747 69.5916 95.5549C69.4013 95.6352 69.197 95.676 68.9905 95.676C68.784 95.676 68.5797 95.6352 68.3894 95.5549C68.1992 95.4747 68.0269 95.3571 67.8828 95.2092C67.7387 95.0614 67.6256 94.8863 67.5502 94.6941C67.4749 94.5019 67.4388 94.2965 67.444 94.0901V89.45H62.804C62.394 89.45 62.0007 89.2872 61.7108 88.9973C61.4209 88.7074 61.258 88.3141 61.258 87.9041C61.258 87.494 61.4209 87.1007 61.7108 86.8108C62.0007 86.5209 62.394 86.3582 62.804 86.3582H67.444V81.718C67.4543 81.3147 67.6217 80.9313 67.9106 80.6497C68.1995 80.368 68.587 80.2102 68.9905 80.2102C69.394 80.2102 69.7815 80.368 70.0704 80.6497C70.3593 80.9313 70.5268 81.3147 70.537 81.718V86.3582H75.177C75.587 86.3582 75.9803 86.5209 76.2702 86.8108C76.5601 87.1007 76.723 87.494 76.723 87.9041C76.723 88.3141 76.5601 88.7074 76.2702 88.9973C75.9803 89.2872 75.587 89.45 75.177 89.45ZM47.371 72.9031C47.4648 72.0804 47.7754 71.2973 48.271 70.634L56.307 59.9089C56.5081 59.6414 56.6169 59.3155 56.617 58.9807V54.342H81.362V57.4338H67.443C67.0327 57.4338 66.6392 57.5968 66.3491 57.887C66.059 58.1771 65.896 58.5704 65.896 58.9807C65.896 59.391 66.059 59.7848 66.3491 60.075C66.6392 60.3651 67.0327 60.5281 67.443 60.5281H82.135L89.713 70.6282C90.2086 71.2915 90.5191 72.0741 90.613 72.8967L47.371 72.9031ZM92.093 112.803C91.037 113.426 89.868 113.834 88.6534 114.003C87.4388 114.172 86.2029 114.099 85.0169 113.787C83.8309 113.475 82.7185 112.931 81.7438 112.187C80.7692 111.443 79.9517 110.513 79.3387 109.451C78.7256 108.389 78.329 107.216 78.172 106C78.0149 104.784 78.1004 103.549 78.4236 102.366C78.7467 101.183 79.3011 100.076 80.0547 99.1086C80.8083 98.1413 81.7461 97.3325 82.814 96.7297L91.209 91.884L100.488 107.957L92.093 112.803ZM110.844 101.977L103.167 106.41L93.887 90.3381L101.565 85.906C102.621 85.285 103.789 84.8789 105.002 84.7117C106.216 84.5444 107.45 84.6192 108.635 84.9314C109.819 85.2436 110.93 85.7874 111.903 86.531C112.876 87.2747 113.693 88.2037 114.305 89.2644C114.918 90.3251 115.314 91.4965 115.471 92.7112C115.629 93.9259 115.544 95.1597 115.223 96.3416C114.901 97.5234 114.348 98.6297 113.597 99.5969C112.845 100.564 111.91 101.373 110.844 101.977V101.977Z" fill="white"/>
</svg>
