<svg width="168" height="148" viewBox="0 0 168 148" fill="none" xmlns="http://www.w3.org/2000/svg">
<path d="M84.214 147.999C100.901 147.999 114.428 147.356 114.428 146.564C114.428 145.771 100.901 145.129 84.214 145.129C67.5273 145.129 54 145.771 54 146.564C54 147.356 67.5273 147.999 84.214 147.999Z" fill="#58595B"/>
<path d="M83.338 13C95.2557 12.9899 106.909 16.5154 116.822 23.1302C126.735 29.745 134.464 39.1519 139.029 50.1605C143.594 61.1691 144.792 73.2846 142.469 84.9738C140.147 96.663 134.409 107.4 125.982 115.828C117.554 124.255 106.817 129.993 95.1278 132.315C83.4386 134.638 71.3231 133.44 60.3145 128.875C49.3059 124.31 39.899 116.581 33.2842 106.668C26.6694 96.7546 23.1439 85.1017 23.154 73.184C23.154 57.2222 29.4948 41.9142 40.7815 30.6275C52.0682 19.3408 67.3762 13 83.338 13V13Z" stroke="#14475f" stroke-width="26"/>
<path d="M83.338 133.368C116.577 133.368 143.522 106.423 143.522 73.184C143.522 39.9453 116.577 13 83.338 13C50.0993 13 23.154 39.9453 23.154 73.184C23.154 106.423 50.0993 133.368 83.338 133.368Z" stroke="white" stroke-width="8" stroke-miterlimit="10"/>
<path d="M83.338 133.368C116.577 133.368 143.522 106.423 143.522 73.184C143.522 39.9453 116.577 13 83.338 13C50.0993 13 23.154 39.9453 23.154 73.184C23.154 106.423 50.0993 133.368 83.338 133.368Z" fill="#14475f"/>
<path d="M41.791 86.4189L72.847 99.0078V64.5967L41.793 52.9097L41.791 86.4189Z" fill="white"/>
<path d="M105.157 50.3301L74.103 37.7407L62.759 42.3408L94.253 54.563L105.157 50.3301Z" fill="white"/>
<path d="M54.061 45.8657L43.05 50.3301L74.104 62.3799L85.361 58.0117L54.061 45.8657Z" fill="white"/>
<path d="M95.595 65.4429L94.242 65.0547L92.955 66.4448L91.33 66.1597L90.009 67.5601L88.503 67.229L86.878 68.7471V60.2598L75.363 64.5938V99.0049L89.27 93.3667V72.9849C89.2723 72.1676 89.598 71.3846 90.1758 70.8066C90.7537 70.2286 91.5367 69.9025 92.354 69.8999H106.416V52.9097L95.595 56.9819V65.4429Z" fill="white"/>
<path d="M93.898 101.621H104.919V90.6001H93.898V101.621ZM95.368 92.0698H103.447V100.151H95.366L95.368 92.0698Z" fill="white"/>
<path d="M101.797 93.7227H97.021V98.4987H101.797V93.7227Z" fill="white"/>
<path d="M93.898 85.7017H104.919V74.6816H93.898V85.7017ZM95.368 76.1509H103.447V84.2349H95.366L95.368 76.1509Z" fill="white"/>
<path d="M101.797 77.8037H97.021V82.5797H101.797V77.8037Z" fill="white"/>
<path d="M110.123 74.6816V85.7017H121.147V74.6816H110.123ZM119.674 84.2329H111.592V76.1509H119.674V84.2329Z" fill="white"/>
<path d="M118.021 77.8037H113.245V82.5797H118.021V77.8037Z" fill="white"/>
<path d="M108.811 97.5098H110.866V95.4551H108.811V93.3989H106.755V101.621H110.866V99.5659H108.811V97.5098Z" fill="white"/>
<path d="M117.032 89.2881H114.977V91.3431H117.032V89.2881Z" fill="white"/>
<path d="M112.921 99.5659V97.5098H110.866V99.5659H112.236V101.621H121.147V97.5098H119.092V99.5659H117.037V97.5098H114.977V99.5659H112.921Z" fill="white"/>
<path d="M121.143 93.3989H119.088V95.4539H121.143V93.3989Z" fill="white"/>
<path d="M112.921 93.3989H110.866V95.4551H112.921V97.5098H114.976V95.4551H117.031V93.3989H114.977V91.3438H112.922L112.921 93.3989Z" fill="white"/>
<path d="M110.866 91.3438H108.811V93.3988H110.866V91.3438Z" fill="white"/>
<path d="M112.921 89.2881H110.866V91.3431H112.921V89.2881Z" fill="white"/>
<path d="M108.811 74.6816H106.755V76.7366H108.811V74.6816Z" fill="white"/>
<path d="M108.811 77.4106H106.755V79.4656H108.811V77.4106Z" fill="white"/>
<path d="M108.811 80.1919H106.755V85.8339H108.811V80.1919Z" fill="white"/>
<path d="M114.976 87.2329H112.921V89.2879H114.976V87.2329Z" fill="white"/>
<path d="M104.874 87.2329H102.819V89.2879H104.874V87.2329Z" fill="white"/>
<path d="M117.032 87.2349V89.29H119.087V91.3457H121.147V87.2349H117.036H117.032Z" fill="white"/>
<path d="M110.866 89.2881V87.2349H106.755V91.3457H108.811V89.29L110.866 89.2881Z" fill="white"/>
<path d="M100.786 87.2329H93.898V89.2879H100.786V87.2329Z" fill="white"/>
</svg>
