<svg width="168" height="148" viewBox="0 0 168 148" fill="none" xmlns="http://www.w3.org/2000/svg">
<g clip-path="url(#clip0_2_72)">
<path d="M84.214 148C100.901 148 114.428 147.358 114.428 146.565C114.428 145.773 100.901 145.13 84.214 145.13C67.5273 145.13 54 145.773 54 146.565C54 147.358 67.5273 148 84.214 148Z" fill="#58595B"/>
<path d="M83.337 133.368C116.576 133.368 143.521 106.423 143.521 73.184C143.521 39.9453 116.576 13 83.337 13C50.0983 13 23.153 39.9453 23.153 73.184C23.153 106.423 50.0983 133.368 83.337 133.368Z" fill="#14475f" stroke="#14475f" stroke-width="26" stroke-miterlimit="10"/>
<path d="M83.337 133.368C116.576 133.368 143.521 106.423 143.521 73.184C143.521 39.9453 116.576 13 83.337 13C50.0983 13 23.153 39.9453 23.153 73.184C23.153 106.423 50.0983 133.368 83.337 133.368Z" fill="#14475f" stroke="white" stroke-width="8" stroke-miterlimit="10"/>
<path d="M83.337 133.368C116.576 133.368 143.521 106.423 143.521 73.184C143.521 39.9453 116.576 13 83.337 13C50.0983 13 23.153 39.9453 23.153 73.184C23.153 106.423 50.0983 133.368 83.337 133.368Z" fill="#14475f"/>
<path d="M78.533 89.0942H59.734V92.4412H78.533V89.0942Z" fill="white"/>
<path d="M96.226 52.3091H77.427V55.6561H96.226V52.3091Z" fill="white"/>
<path d="M96.226 45.6162H71.917V48.9632H96.226V45.6162Z" fill="white"/>
<path d="M96.227 69.0435H59.734V72.3905H96.227V69.0435Z" fill="white"/>
<path d="M54.328 102.131V46.0225L54.333 46.0171L60.961 45.9604V39.3911V39.3853H101.631V77.2852C102.024 77.2562 102.419 77.2363 102.819 77.2363C103.168 77.2363 103.519 77.2514 103.857 77.2744V37.1533H60.042L52.1 45.0962V104.352H91.987C91.2728 103.672 90.6236 102.927 90.048 102.126L54.328 102.131Z" fill="white"/>
<path d="M96.228 78.6914V75.7061H59.734V79.0532H95.494C95.734 78.9262 95.979 78.8064 96.228 78.6914Z" fill="white"/>
<path d="M91.176 82.4004H59.734V85.7471H88.854C89.4798 84.5356 90.2603 83.4108 91.176 82.4004V82.4004Z" fill="white"/>
<path d="M102.819 80.2871C100.311 80.2871 97.8592 81.0309 95.7738 82.4243C93.6884 83.8178 92.063 85.7985 91.1032 88.1157C90.1435 90.4329 89.8923 92.9825 90.3817 95.4424C90.8711 97.9023 92.079 100.162 93.8526 101.936C95.6261 103.709 97.8858 104.917 100.346 105.406C102.806 105.895 105.355 105.644 107.673 104.684C109.99 103.724 111.97 102.098 113.363 100.013C114.757 97.9272 115.5 95.4754 115.5 92.9673C115.496 89.6054 114.159 86.3825 111.781 84.0054C109.404 81.6282 106.181 80.2908 102.819 80.2871V80.2871ZM110.685 96.2871C109.862 98.2385 108.344 99.8145 106.424 100.709C104.505 101.604 102.322 101.754 100.298 101.13C98.2743 100.506 96.5546 99.1526 95.4727 97.332C94.3908 95.5115 94.0238 93.3542 94.443 91.2783C94.8622 89.2025 96.0376 87.3562 97.7412 86.0981C99.4447 84.8401 101.555 84.2597 103.662 84.4697C105.769 84.6798 107.724 85.6653 109.145 87.2349C110.567 88.8045 111.355 90.8466 111.356 92.9644C111.357 94.1067 111.128 95.2373 110.685 96.29V96.2871Z" fill="white"/>
<path d="M119.72 106.939L115.336 102.554C114.491 103.654 113.506 104.64 112.405 105.484L116.79 109.869C116.981 110.066 117.21 110.222 117.463 110.33C117.715 110.437 117.986 110.493 118.261 110.495C118.535 110.497 118.807 110.445 119.061 110.34C119.315 110.236 119.545 110.083 119.739 109.889C119.933 109.695 120.087 109.464 120.191 109.21C120.295 108.956 120.348 108.684 120.346 108.41C120.344 108.135 120.288 107.864 120.181 107.612C120.073 107.359 119.917 107.131 119.72 106.939V106.939Z" fill="white"/>
</g>
<defs>
<clipPath id="clip0_2_72">
<rect width="168" height="148" fill="white"/>
</clipPath>
</defs>
</svg>
