<svg width="149" height="148" viewBox="0 0 149 148" fill="none" xmlns="http://www.w3.org/2000/svg">
<g clip-path="url(#clip0_11_246)">
<path d="M75.214 148C91.9007 148 105.428 147.358 105.428 146.565C105.428 145.773 91.9007 145.13 75.214 145.13C58.5273 145.13 45 145.773 45 146.565C45 147.358 58.5273 148 75.214 148Z" fill="#58595B"/>
<path d="M74.3381 13C86.2413 13 97.8773 16.5297 107.774 23.1428C117.672 29.7559 125.386 39.1554 129.941 50.1526C134.496 61.1498 135.688 73.2508 133.366 84.9253C131.043 96.5999 125.311 107.324 116.895 115.741C108.478 124.157 97.7539 129.889 86.0794 132.212C74.4048 134.534 62.3038 133.342 51.3066 128.787C40.3094 124.232 30.91 116.518 24.2969 106.62C17.6838 96.7232 14.1541 85.0873 14.1541 73.184C14.1541 57.2222 20.4948 41.9142 31.7815 30.6275C43.0682 19.3408 58.3763 13 74.3381 13V13Z" fill="#14475f" stroke="#14475f" stroke-width="26"/>
<path d="M74.3381 133.368C107.577 133.368 134.522 106.423 134.522 73.184C134.522 39.9453 107.577 13 74.3381 13C41.0993 13 14.1541 39.9453 14.1541 73.184C14.1541 106.423 41.0993 133.368 74.3381 133.368Z" fill="#14475f" stroke="white" stroke-width="8" stroke-miterlimit="10"/>
<path d="M74.3381 133.368C107.577 133.368 134.522 106.423 134.522 73.184C134.522 39.9453 107.577 13 74.3381 13C41.0993 13 14.1541 39.9453 14.1541 73.184C14.1541 106.423 41.0993 133.368 74.3381 133.368Z" fill="#14475f"/>
<path d="M45.5872 67.1733C45.1288 69.4617 45.5936 71.8384 46.8802 73.7856C48.1668 75.7328 50.171 77.0925 52.4559 77.5683C54.7408 78.0442 57.1211 77.5974 59.078 76.3257C61.035 75.0539 62.4099 73.0604 62.9032 70.7793L64.3552 57.459C59.5842 54.87 61.3322 65.6022 53.0912 63.8232C47.4302 62.5982 45.8872 66.2203 45.5872 67.1733Z" fill="white"/>
<path d="M96.0521 56.0562C95.6401 55.1432 93.7251 51.7063 88.2291 53.5323C80.2231 56.1953 80.8021 45.3323 76.3431 48.4243L79.2211 61.5044C79.9642 63.7107 81.547 65.5351 83.6263 66.5821C85.7056 67.629 88.1138 67.8136 90.3287 67.0967C92.5436 66.3798 94.3865 64.8188 95.4579 62.752C96.5294 60.6852 96.7429 58.2794 96.0521 56.0562V56.0562Z" fill="white"/>
<path d="M59.2102 30.4071C59.6878 30.3807 60.1468 30.2134 60.5293 29.9261C60.9118 29.6389 61.2005 29.2447 61.359 28.7933C61.5175 28.342 61.5386 27.8538 61.4196 27.3905C61.3007 26.9272 61.0471 26.5095 60.6909 26.1903C60.3346 25.8711 59.8917 25.6646 59.4182 25.597C58.9446 25.5295 58.4617 25.6035 58.0304 25.8104C57.5991 26.0173 57.2389 26.3476 56.9951 26.7592C56.7514 27.1707 56.6352 27.6453 56.6612 28.1229C56.6785 28.4403 56.7583 28.7514 56.8958 29.038C57.0333 29.3245 57.2259 29.5807 57.4626 29.7928C57.6993 30.0049 57.9754 30.1684 58.2753 30.2738C58.5751 30.3792 58.8928 30.4245 59.2102 30.4071V30.4071Z" fill="white"/>
<path d="M68.5591 34.6323C69.0369 34.6059 69.4961 34.4381 69.8787 34.1508C70.2613 33.8635 70.5502 33.4694 70.7088 33.018C70.8674 32.5665 70.8886 32.0782 70.7697 31.6147C70.6509 31.1512 70.3973 30.7334 70.041 30.414C69.6847 30.0946 69.2417 29.8879 68.768 29.8202C68.2944 29.7525 67.8112 29.8268 67.3797 30.0336C66.9482 30.2404 66.5877 30.5702 66.3438 30.9819C66.0998 31.3935 65.9834 31.8683 66.0091 32.3461C66.0263 32.6637 66.1058 32.9748 66.2433 33.2616C66.3807 33.5485 66.5734 33.8052 66.8102 34.0175C67.047 34.2298 67.3234 34.3935 67.6235 34.499C67.9236 34.6044 68.2415 34.6498 68.5591 34.6323Z" fill="white"/>
<path d="M57.8631 36.662C57.8884 37.1404 58.055 37.6005 58.342 37.9842C58.629 38.3679 59.0233 38.6578 59.4752 38.8172C59.927 38.9766 60.4159 38.9984 60.8801 38.8797C61.3443 38.7611 61.763 38.5074 62.0829 38.1507C62.4028 37.7941 62.6097 37.3506 62.6774 36.8763C62.7451 36.402 62.6706 35.9181 62.4632 35.4862C62.2558 35.0543 61.9249 34.6938 61.5125 34.45C61.1 34.2063 60.6244 34.0904 60.1461 34.117C59.506 34.1521 58.906 34.4396 58.4779 34.9168C58.0498 35.394 57.8287 36.0218 57.8631 36.662V36.662Z" fill="white"/>
<path d="M91.1771 76.1812H95.6851L94.4761 72.5439C97.9311 70.8774 100.651 67.9963 102.116 64.4512C103.581 60.906 103.689 56.9456 102.418 53.3262L92.6521 30.7529L66.6851 39.3931L68.4202 46.4521L46.2271 41.6523L38.9081 65.3271C38.0909 69.0414 38.6579 72.9262 40.5025 76.252C42.3472 79.5777 45.3426 82.1158 48.9261 83.3892L46.4211 94.9712L40.3082 93.6523C39.7537 93.533 39.1745 93.6386 38.6981 93.9463C38.2217 94.2539 37.887 94.738 37.7676 95.2925C37.6483 95.8469 37.754 96.4264 38.0617 96.9028C38.3693 97.3793 38.8537 97.7137 39.4081 97.833L47.5921 99.6011C47.5981 99.6011 47.6011 99.6011 47.6051 99.6011C47.6091 99.6011 47.6251 99.6011 47.6351 99.6011L55.8211 101.369C55.9703 101.401 56.1225 101.417 56.2751 101.417C56.8035 101.417 57.3132 101.222 57.706 100.869C58.0988 100.515 58.3469 100.029 58.4025 99.5039C58.458 98.9785 58.317 98.4511 58.0068 98.0234C57.6965 97.5958 57.2388 97.2982 56.7221 97.188L50.6051 95.8662L53.1051 84.332C53.5151 84.365 53.9241 84.3979 54.3331 84.3979C57.9514 84.3728 61.4521 83.1108 64.2536 80.8208C67.0551 78.5308 68.9887 75.351 69.7331 71.8101L71.4681 58.8042L72.6081 63.437C73.6475 66.5759 75.6502 69.3072 78.3313 71.2422C81.0125 73.1772 84.2356 74.2178 87.5421 74.2153C88.5161 74.207 89.4871 74.1062 90.4421 73.915L91.1771 76.1812ZM65.5151 71.0869C64.8353 74.0389 63.0295 76.609 60.4825 78.249C57.9356 79.8891 54.8489 80.4698 51.8801 79.8672C48.9379 79.2306 46.3633 77.4639 44.7107 74.9478C43.0581 72.4316 42.4596 69.3671 43.0441 66.4141L49.1561 46.6621L68.2181 50.7842L65.5151 71.0869ZM76.7041 62.2622L71.7791 42.2051L90.2861 36.0493L98.4261 54.8491C99.4092 57.7296 99.2076 60.8828 97.8659 63.6147C96.5242 66.3467 94.1521 68.4335 91.2716 69.4165C88.3911 70.3995 85.2381 70.1982 82.5061 68.8564C79.7742 67.5147 77.6872 65.1427 76.7041 62.2622V62.2622Z" fill="white"/>
<path d="M72.2991 115.181H85.8491V101.631H72.2991V115.181ZM74.1061 103.438H84.0431V113.375H74.1061V103.438Z" fill="white"/>
<path d="M82.0102 105.472H76.1382V111.344H82.0102V105.472Z" fill="white"/>
<path d="M72.2991 95.6113H85.8491V82.0601H72.2991V95.6113ZM74.1061 83.8672H84.0431V93.8042H74.1061V83.8672Z" fill="white"/>
<path d="M82.0102 85.9004H76.1382V91.7724H82.0102V85.9004Z" fill="white"/>
<path d="M92.248 82.0601V95.6113H105.799V82.0601H92.248ZM103.992 93.8042H94.0551V83.8672H103.992V93.8042Z" fill="white"/>
<path d="M101.959 85.9004H96.0872V91.7724H101.959V85.9004Z" fill="white"/>
<path d="M90.6351 110.129H93.1621V107.602H90.6351V105.075H88.1082V115.181H93.1631V112.654H90.6361L90.6351 110.129Z" fill="white"/>
<path d="M100.744 100.02H98.2172V102.547H100.744V100.02Z" fill="white"/>
<path d="M95.6901 112.656V110.129H93.1631V112.656H94.8481V115.181H105.799V110.127H103.272V112.654H100.745V110.127H98.2171V112.654L95.6901 112.656Z" fill="white"/>
<path d="M105.798 105.074H103.271V107.601H105.798V105.074Z" fill="white"/>
<path d="M95.6901 105.074H93.1631V107.601H95.6901V110.128H98.2171V107.601H100.744V105.074H98.2171V102.547H95.6901V105.074Z" fill="white"/>
<path d="M93.1621 102.547H90.6351V105.074H93.1621V102.547Z" fill="white"/>
<path d="M95.6891 100.02H93.1621V102.547H95.6891V100.02Z" fill="white"/>
<path d="M90.6352 82.0601H88.1082V84.5871H90.6352V82.0601Z" fill="white"/>
<path d="M90.6352 85.416H88.1082V87.943H90.6352V85.416Z" fill="white"/>
<path d="M90.6352 88.835H88.1082V95.772H90.6352V88.835Z" fill="white"/>
<path d="M98.2172 97.4932H95.6902V100.02H98.2172V97.4932Z" fill="white"/>
<path d="M85.7951 97.4932H83.2681V100.02H85.7951V97.4932Z" fill="white"/>
<path d="M100.744 97.4932V100.02H103.271V102.547H105.798V97.4922H100.743L100.744 97.4932Z" fill="white"/>
<path d="M93.1622 100.02V97.4932H88.1072V102.548H90.6342V100.021L93.1622 100.02Z" fill="white"/>
<path d="M80.7681 97.4932H72.2991V100.02H80.7681V97.4932Z" fill="white"/>
</g>
<defs>
<clipPath id="clip0_11_246">
<rect width="149" height="148" fill="white"/>
</clipPath>
</defs>
</svg>
