<svg width="150" height="150" viewBox="0 0 150 150" fill="none" xmlns="http://www.w3.org/2000/svg">
<g clip-path="url(#clip0_14_282)">
<path d="M74.305 150C91.042 150 104.61 149.356 104.61 148.561C104.61 147.766 91.042 147.122 74.305 147.122C57.568 147.122 44 147.766 44 148.561C44 149.356 57.568 150 74.305 150Z" fill="#58595B"/>
<path d="M74.684 14C78.9581 14.0031 83.22 14.4543 87.4 15.346L87.814 15.434L88.919 15.685C104.015 19.3123 117.154 28.5696 125.65 41.5637C134.146 54.5578 137.357 70.3069 134.626 85.59C131.896 100.873 123.429 114.536 110.959 123.783C98.4881 133.031 82.9558 137.165 67.5382 135.34C52.1206 133.515 37.9827 125.869 28.0159 113.965C18.049 102.062 13.0063 86.8002 13.919 71.3019C14.8317 55.8035 21.6309 41.2394 32.926 30.588C44.2212 19.9366 59.1588 14.0027 74.684 14V14Z" fill="#14475f" stroke="#14475f" stroke-width="26"/>
<path d="M74.684 134.368C107.923 134.368 134.868 107.423 134.868 74.184C134.868 40.9453 107.923 14 74.684 14C41.4453 14 14.5 40.9453 14.5 74.184C14.5 107.423 41.4453 134.368 74.684 134.368Z" fill="#14475f" stroke="white" stroke-width="8" stroke-miterlimit="10"/>
<path d="M74.184 134.868C107.423 134.868 134.368 107.923 134.368 74.684C134.368 41.4453 107.423 14.5 74.184 14.5C40.9453 14.5 14 41.4453 14 74.684C14 107.923 40.9453 134.868 74.184 134.868Z" fill="#14475f"/>
<path d="M54.987 81.0336C52.453 83.5076 51.414 85.9408 52.135 87.7098C52.3536 88.2346 52.7284 88.6791 53.2087 88.9833C53.6889 89.2874 54.2511 89.4362 54.8189 89.4095C55.8231 89.3738 56.7956 89.0484 57.619 88.4725C60.106 86.8475 63.44 81.1958 64.99 78.3968C67.923 77.5051 70.9381 76.9098 73.99 76.6205C74.848 76.5365 75.69 76.4735 76.485 76.4305C79.612 79.7465 82.166 81.4975 84.492 81.9305C84.9448 82.0153 85.4043 82.0583 85.865 82.0594V82.0594C86.6543 82.1187 87.4453 81.9705 88.1595 81.6293C88.8737 81.288 89.4861 80.7659 89.936 80.1146C90.1929 79.6734 90.3257 79.1706 90.32 78.66C90.3144 78.1494 90.1706 77.6502 89.904 77.2147C88.635 75.0147 84.748 73.8055 78.96 73.8055C78.51 73.8055 78.0433 73.8128 77.56 73.8275C75.922 72.0075 74.311 69.9768 72.878 68.1698C72.206 67.3228 71.564 66.5137 70.964 65.7797L70.844 65.6327C71.6091 63.653 72.1215 61.5844 72.369 59.4764C72.649 55.6124 72.23 53.1366 71.086 51.9066C70.7267 51.5111 70.2581 51.231 69.7395 51.1019C69.221 50.9729 68.6757 51.0005 68.173 51.1815C67.5766 51.4158 67.0463 51.7922 66.6281 52.2777C66.2099 52.7632 65.9164 53.3431 65.773 53.9676C64.846 56.8086 65.335 61.8955 67.984 66.0155C66.6156 69.5358 65.0271 72.9666 63.2279 76.2875C60.168 77.2503 57.3555 78.8701 54.987 81.0336V81.0336ZM56.216 86.3339C55.805 86.6307 55.3211 86.8105 54.816 86.8539C54.691 86.8539 54.534 86.8355 54.497 86.7455C54.371 86.4355 54.518 85.0587 56.768 82.8607C58.0652 81.6392 59.5509 80.6348 61.1679 79.8866C59.1639 83.1976 57.329 85.6078 56.216 86.3348V86.3339ZM87.693 78.4925C87.807 78.6925 87.759 78.7729 87.725 78.8339C87.4875 79.0812 87.1961 79.2702 86.8734 79.3861C86.5507 79.502 86.2055 79.5416 85.865 79.5018V79.5018C85.56 79.5 85.2558 79.4709 84.956 79.4149C83.592 79.1629 81.974 78.1648 80.047 76.3768C85.17 76.5298 87.261 77.7505 87.693 78.4925ZM68.2 54.7616C68.4 54.1326 68.7 53.7009 68.986 53.6049C69.0259 53.5904 69.0676 53.5816 69.11 53.5795C69.129 53.5795 69.152 53.5798 69.21 53.6498C69.431 53.8858 70.127 54.9948 69.816 59.2938C69.6949 60.4567 69.456 61.6041 69.1029 62.7186C67.8279 59.8046 67.585 56.6456 68.198 54.7616H68.2ZM69.791 68.3949C70.142 68.8339 70.505 69.2947 70.876 69.7577C71.95 71.1117 73.121 72.5888 74.339 74.0238L73.745 74.0785C71.349 74.3108 68.9726 74.7139 66.634 75.2845C67.812 72.9545 68.8979 70.5859 69.7929 68.3949H69.791Z" fill="white"/>
<path d="M45.309 106.701V47.9937L45.314 47.9888L52.248 47.9287V41.0547L52.254 41.0498H94.806V81.6367H97.135V38.7188H51.293L42.983 47.0298V109.03H82.91L81.574 106.701H45.309Z" fill="white"/>
<path d="M109.206 101.608L106.566 99.5279C106.655 98.7802 106.655 98.0246 106.566 97.2769L109.208 95.1948C109.42 95.0218 109.564 94.7792 109.615 94.5103C109.665 94.2413 109.619 93.963 109.485 93.7246L106.792 89.0337C106.697 88.8555 106.555 88.7066 106.381 88.6031C106.208 88.4995 106.009 88.4452 105.807 88.4458C105.662 88.4459 105.518 88.4722 105.382 88.523L102.27 89.7827C101.671 89.34 101.026 88.9629 100.346 88.6577L99.872 85.3257C99.8358 85.0532 99.7014 84.8032 99.4941 84.6226C99.2869 84.442 99.0209 84.3433 98.746 84.3448H93.346C93.0725 84.3429 92.8076 84.4406 92.6008 84.6197C92.394 84.7987 92.2593 85.0469 92.222 85.3179L91.746 88.6577C91.0688 88.9658 90.4254 89.3431 89.826 89.7837L86.707 88.522C86.5796 88.4719 86.4439 88.4463 86.307 88.4468C86.1043 88.4458 85.9049 88.4984 85.7292 88.5996C85.5535 88.7008 85.4078 88.8471 85.307 89.023L82.607 93.7227C82.4659 93.9599 82.4161 94.2404 82.4669 94.5117C82.5177 94.7831 82.6656 95.0267 82.883 95.1968L85.524 97.2779C85.4333 98.0255 85.4333 98.7812 85.524 99.5288L82.882 101.61C82.6695 101.783 82.525 102.025 82.4743 102.294C82.4236 102.563 82.4699 102.841 82.605 103.08L85.297 107.771C85.3925 107.949 85.5347 108.098 85.7084 108.202C85.8821 108.305 86.0807 108.36 86.283 108.36C86.4282 108.359 86.5721 108.333 86.708 108.282L89.82 107.022C90.419 107.465 91.0637 107.842 91.743 108.147L92.218 111.479C92.2538 111.752 92.3879 112.002 92.595 112.182C92.8022 112.363 93.0682 112.462 93.343 112.46H98.743C99.0167 112.462 99.2818 112.364 99.4888 112.185C99.6958 112.006 99.8306 111.758 99.868 111.487L100.343 108.147C101.02 107.839 101.664 107.462 102.264 107.022L105.383 108.284C105.516 108.336 105.657 108.363 105.8 108.363V108.363C106.001 108.363 106.199 108.309 106.372 108.207C106.545 108.104 106.687 107.957 106.784 107.781L109.484 103.069C109.617 102.832 109.662 102.555 109.611 102.288C109.56 102.02 109.417 101.78 109.206 101.608V101.608ZM96.149 103.059C95.2222 103.059 94.3162 102.784 93.5456 102.269C92.775 101.754 92.1744 101.022 91.8197 100.166C91.465 99.3098 91.3722 98.3675 91.553 97.4585C91.7338 96.5495 92.1801 95.7145 92.8355 95.0591C93.4908 94.4038 94.3258 93.9577 95.2348 93.7769C96.1438 93.5961 97.086 93.6888 97.9422 94.0435C98.7985 94.3982 99.5304 94.9989 100.045 95.7696C100.56 96.5402 100.835 97.4458 100.835 98.3726C100.833 99.6149 100.339 100.806 99.4607 101.685C98.5823 102.563 97.3913 103.057 96.149 103.059Z" fill="white"/>
</g>
<defs>
<clipPath id="clip0_14_282">
<rect width="150" height="150" fill="white"/>
</clipPath>
</defs>
</svg>
