<svg width="147" height="149" viewBox="0 0 147 149" fill="none" xmlns="http://www.w3.org/2000/svg">
<path d="M74.0599 148.346C90.7467 148.346 104.274 147.703 104.274 146.911C104.274 146.118 90.7467 145.476 74.0599 145.476C57.3732 145.476 43.8459 146.118 43.8459 146.911C43.8459 147.703 57.3732 148.346 74.0599 148.346Z" fill="#58595B"/>
<path d="M73.184 133.715C106.423 133.715 133.368 106.77 133.368 73.5309C133.368 40.2922 106.423 13.3469 73.184 13.3469C39.9453 13.3469 13 40.2922 13 73.5309C13 106.77 39.9453 133.715 73.184 133.715Z" fill="#14475f" stroke="#14475f" stroke-width="26" stroke-miterlimit="10"/>
<path d="M73.184 133.715C106.423 133.715 133.368 106.77 133.368 73.5309C133.368 40.2922 106.423 13.3469 73.184 13.3469C39.9453 13.3469 13 40.2922 13 73.5309C13 106.77 39.9453 133.715 73.184 133.715Z" fill="#14475f" stroke="white" stroke-width="8" stroke-miterlimit="10"/>
<path d="M73.184 133.715C106.423 133.715 133.368 106.77 133.368 73.5309C133.368 40.2922 106.423 13.3469 73.184 13.3469C39.9453 13.3469 13 40.2922 13 73.5309C13 106.77 39.9453 133.715 73.184 133.715Z" fill="#14475f"/>
<path d="M48.5439 63.5671C49.2856 63.5671 49.8869 62.9658 49.8869 62.2241C49.8869 61.4824 49.2856 60.8811 48.5439 60.8811C47.8022 60.8811 47.2009 61.4824 47.2009 62.2241C47.2009 62.9658 47.8022 63.5671 48.5439 63.5671Z" fill="white"/>
<path d="M82.1929 83.2678L76.7379 86.4167V74.7561C76.7341 73.3043 76.2637 71.8918 75.3959 70.7278L68.6819 61.7771V57.9641C69.467 57.6854 70.1466 57.1704 70.6273 56.49C71.1081 55.8096 71.3664 54.9969 71.3669 54.1638V47.9871C71.3659 46.919 70.9412 45.8947 70.186 45.1394C69.4309 44.3841 68.407 43.9591 67.3389 43.9578H43.1729C42.1047 43.9588 41.0805 44.384 40.3252 45.1394C39.5698 45.8948 39.145 46.9188 39.1439 47.9871V54.1638C39.1445 54.997 39.403 55.8096 39.884 56.49C40.3649 57.1704 41.0447 57.6855 41.83 57.9641V61.7771L35.1159 70.7288C34.2473 71.892 33.7765 73.3044 33.7729 74.7561V100.762C33.7751 102.542 34.4831 104.248 35.7418 105.507C37.0005 106.765 38.707 107.473 40.4869 107.475H62.067C63.5108 109.9 65.8518 111.659 68.583 112.37C71.3142 113.081 74.2157 112.688 76.6589 111.275L92.9389 101.875C95.4062 100.45 97.2066 98.1042 97.944 95.3523C98.6814 92.6004 98.2954 89.6682 96.8709 87.2009C95.4464 84.7336 93.1002 82.9334 90.3483 82.196C87.5964 81.4587 84.6643 81.8443 82.197 83.2688L82.1929 83.2678ZM43.1689 46.6467H67.3389C67.695 46.6473 68.0363 46.7893 68.288 47.0413C68.5396 47.2933 68.6809 47.6349 68.6809 47.991V54.1677C68.6804 54.5235 68.5389 54.8649 68.2873 55.1165C68.0357 55.368 67.6947 55.5095 67.3389 55.51H43.1729C42.817 55.5097 42.4757 55.368 42.2239 55.1165C41.9722 54.8649 41.8305 54.5237 41.83 54.1677V47.991C41.83 47.6347 41.9714 47.2928 42.2232 47.0408C42.475 46.7888 42.8166 46.647 43.1729 46.6467H43.1689ZM40.4829 104.79C39.4149 104.789 38.391 104.364 37.6359 103.609C36.8807 102.854 36.456 101.83 36.455 100.762V99.405H60.8549C60.4195 101.176 60.4419 103.029 60.9199 104.79H40.4829ZM60.6249 88.676H56.5959V92.7048C56.5959 93.0609 56.4545 93.4023 56.2027 93.6541C55.9509 93.9058 55.6095 94.0476 55.2534 94.0476C54.8974 94.0476 54.5559 93.9058 54.3041 93.6541C54.0524 93.4023 53.9109 93.0609 53.9109 92.7048V88.676H49.8829C49.7036 88.6809 49.525 88.6495 49.3578 88.5842C49.1907 88.519 49.0383 88.4213 48.9097 88.2961C48.7811 88.171 48.6789 88.021 48.6091 87.8557C48.5393 87.6904 48.5033 87.5127 48.5033 87.3333C48.5033 87.1538 48.5393 86.9761 48.6091 86.8108C48.6789 86.6455 48.7811 86.496 48.9097 86.3708C49.0383 86.2457 49.1907 86.1475 49.3578 86.0823C49.525 86.017 49.7036 85.9861 49.8829 85.991H53.9109V81.9631C53.9109 81.6071 54.0524 81.2652 54.3041 81.0134C54.5559 80.7617 54.8974 80.6204 55.2534 80.6204C55.6095 80.6204 55.9509 80.7617 56.2027 81.0134C56.4545 81.2652 56.5959 81.6071 56.5959 81.9631V85.991H60.6249C60.8043 85.9861 60.9829 86.017 61.15 86.0823C61.3172 86.1475 61.4695 86.2457 61.5981 86.3708C61.7268 86.496 61.829 86.6455 61.8988 86.8108C61.9686 86.9761 62.0046 87.1538 62.0046 87.3333C62.0046 87.5127 61.9686 87.6904 61.8988 87.8557C61.829 88.021 61.7268 88.171 61.5981 88.2961C61.4695 88.4213 61.3172 88.519 61.15 88.5842C60.9829 88.6495 60.8043 88.6809 60.6249 88.676V88.676ZM36.4829 74.3088C36.5636 73.595 36.8321 72.9155 37.2609 72.3391L44.2429 63.0291C44.4172 62.7968 44.5115 62.5142 44.5119 62.2239V58.196H65.9959V60.8811H53.9149C53.5587 60.8811 53.2171 61.0223 52.9653 61.2742C52.7134 61.526 52.572 61.8677 52.572 62.2239C52.572 62.5801 52.7134 62.9217 52.9653 63.1736C53.2171 63.4254 53.5587 63.5671 53.9149 63.5671H66.671L73.2499 72.3391C73.6788 72.9155 73.9473 73.595 74.028 74.3088H36.4829ZM75.312 108.947C73.4619 110.006 71.2677 110.288 69.2098 109.733C67.152 109.177 65.3981 107.829 64.3323 105.983C63.2665 104.137 62.9757 101.944 63.5234 99.8835C64.0712 97.8236 65.413 96.0647 67.2549 94.9919L74.5439 90.7849L82.601 104.739L75.312 108.947ZM91.5919 99.5471L84.9259 103.397L76.8699 89.4421L83.5349 85.594C84.4511 85.065 85.4625 84.7214 86.5114 84.5833C87.5602 84.4451 88.6261 84.5151 89.648 84.7888C90.6699 85.0626 91.6279 85.535 92.4672 86.179C93.3066 86.8229 94.0109 87.6256 94.5399 88.5417C95.0689 89.4579 95.4124 90.4694 95.5505 91.5183C95.6887 92.5672 95.6189 93.6331 95.3452 94.655C95.0714 95.6769 94.5991 96.635 93.9551 97.4744C93.3111 98.3137 92.5081 99.0181 91.5919 99.5471V99.5471Z" fill="white"/>
<path d="M94.5129 64.1399H82.231V76.4221H94.5129V64.1399ZM92.8749 74.7849H83.869V65.7761H92.8749V74.7849Z" fill="white"/>
<path d="M91.0329 67.6199H85.7109V72.9419H91.0329V67.6199Z" fill="white"/>
<path d="M94.5129 46.4001H82.231V58.6819H94.5129V46.4001ZM92.8749 57.0437H83.869V48.0378H92.8749V57.0437Z" fill="white"/>
<path d="M91.0329 49.8801H85.7109V55.2021H91.0329V49.8801Z" fill="white"/>
<path d="M100.312 46.4001V58.6819H112.593V46.4001H100.312ZM110.957 57.0437H101.95V48.0378H110.957V57.0437Z" fill="white"/>
<path d="M109.114 49.8801H103.792V55.2021H109.114V49.8801Z" fill="white"/>
<path d="M98.8499 71.8411H101.141V69.55H98.8499V67.259H96.559V76.4221H101.14V74.1311H98.8489L98.8499 71.8411Z" fill="white"/>
<path d="M108.013 62.678H105.722V64.969H108.013V62.678Z" fill="white"/>
<path d="M103.432 74.1321V71.8411H101.141V74.1321H102.668V76.4231H112.593V71.8411H110.302V74.1321H108.013V71.8411H105.722V74.1321H103.432Z" fill="white"/>
<path d="M112.595 67.26H110.304V69.551H112.595V67.26Z" fill="white"/>
<path d="M103.432 67.26H101.141V69.551H103.432V71.842H105.723V69.551H108.014V67.26H105.723V64.969H103.432V67.26Z" fill="white"/>
<path d="M101.141 64.969H98.8499V67.26H101.141V64.969Z" fill="white"/>
<path d="M103.432 62.678H101.141V64.969H103.432V62.678Z" fill="white"/>
<path d="M98.8509 46.4001H96.5599V48.6911H98.8509V46.4001Z" fill="white"/>
<path d="M98.8509 49.4421H96.5599V51.7331H98.8509V49.4421Z" fill="white"/>
<path d="M98.8509 52.5408H96.5599V58.8278H98.8509V52.5408Z" fill="white"/>
<path d="M105.723 60.3879H103.432V62.6789H105.723V60.3879Z" fill="white"/>
<path d="M94.4639 60.3879H92.1729V62.6789H94.4639V60.3879Z" fill="white"/>
<path d="M108.013 60.3879V62.679H110.304V64.97H112.593V60.3879H108.013Z" fill="white"/>
<path d="M101.141 62.676V60.385H96.5599V64.967H98.851V62.676H101.141Z" fill="white"/>
<path d="M89.907 60.3879H82.231V62.6789H89.907V60.3879Z" fill="white"/>
</svg>
