<svg width="169" height="153" viewBox="0 0 169 153" fill="none" xmlns="http://www.w3.org/2000/svg">
<g clip-path="url(#clip0_2_90)">
<path d="M84.38 153C101.158 153 114.76 152.354 114.76 151.557C114.76 150.76 101.158 150.114 84.38 150.114C67.6016 150.114 54 150.76 54 151.557C54 152.354 67.6016 153 84.38 153Z" fill="#58595B"/>
<path d="M83.499 15C95.4677 15 107.168 18.5491 117.119 25.1986C127.071 31.8481 134.827 41.2992 139.408 52.3569C143.988 63.4146 145.186 75.5821 142.851 87.3209C140.516 99.0597 134.753 109.842 126.29 118.306C117.826 126.769 107.044 132.532 95.3049 134.867C83.5661 137.202 71.3986 136.004 60.3409 131.424C49.2832 126.843 39.8321 119.087 33.1826 109.135C26.5332 99.1837 22.984 87.4837 22.984 75.515C22.984 59.4654 29.3597 44.0732 40.7084 32.7244C52.0572 21.3757 67.4494 15 83.499 15V15Z" stroke="#14475f" stroke-width="30"/>
<path d="M83.499 136.03C116.921 136.03 144.014 108.937 144.014 75.515C144.014 42.0935 116.921 15 83.499 15C50.0775 15 22.984 42.0935 22.984 75.515C22.984 108.937 50.0775 136.03 83.499 136.03Z" stroke="white" stroke-width="10" stroke-miterlimit="10"/>
<path d="M83.499 136.03C116.921 136.03 144.014 108.937 144.014 75.515C144.014 42.0935 116.921 15 83.499 15C50.0775 15 22.984 42.0935 22.984 75.515C22.984 108.937 50.0775 136.03 83.499 136.03Z" fill="#14475f"/>
<path d="M57.621 100.962H78.442V80.144H57.621V100.962ZM60.397 82.9175H75.666V98.186H60.397V82.9175Z" fill="white"/>
<path d="M72.542 86.04H63.52V95.062H72.542V86.04Z" fill="white"/>
<path d="M57.621 70.8882H78.442V50.0684H57.621V70.8882ZM60.397 52.8442H75.666V68.1123H60.397V52.8442Z" fill="white"/>
<path d="M72.542 55.9673H63.52V64.9893H72.542V55.9673Z" fill="white"/>
<path d="M88.273 50.0684V70.8882H109.093V50.0684H88.273ZM106.317 68.1123H91.049V52.8442H106.317V68.1123Z" fill="white"/>
<path d="M103.194 55.9673H94.172V64.9893H103.194V55.9673Z" fill="white"/>
<path d="M85.795 93.1963H89.678V89.3135H85.795V85.4302H81.912V100.963H89.678V97.0801H85.795V93.1963Z" fill="white"/>
<path d="M101.327 77.6631H97.444V81.5461H101.327V77.6631Z" fill="white"/>
<path d="M93.558 97.0781V93.1953H89.678V97.0781H92.267V100.961H109.094V93.1953H105.211V97.0781H101.328V93.1953H97.445V97.0781H93.558Z" fill="white"/>
<path d="M109.093 85.4292H105.21V89.3122H109.093V85.4292Z" fill="white"/>
<path d="M93.558 85.4292H89.678V89.312H93.558V93.1953H97.441V89.312H101.324V85.4292H97.441V81.5444H93.558V85.4292Z" fill="white"/>
<path d="M89.678 81.5464H85.795V85.4294H89.678V81.5464Z" fill="white"/>
<path d="M93.561 77.6631H89.678V81.5461H93.561V77.6631Z" fill="white"/>
<path d="M85.795 50.0684H81.912V53.9514H85.795V50.0684Z" fill="white"/>
<path d="M85.795 55.2241H81.912V59.1071H85.795V55.2241Z" fill="white"/>
<path d="M85.795 60.478H81.912V71.136H85.795V60.478Z" fill="white"/>
<path d="M97.444 73.7803H93.561V77.6633H97.444V73.7803Z" fill="white"/>
<path d="M78.359 73.7803H74.476V77.6633H78.359V73.7803Z" fill="white"/>
<path d="M101.327 73.7803V77.6631H105.21V81.5464H109.093V73.7793H101.327V73.7803Z" fill="white"/>
<path d="M89.678 77.6631V73.7803H81.912V81.5474H85.795V77.6641L89.678 77.6631Z" fill="white"/>
<path d="M70.634 73.7803H57.621V77.6633H70.634V73.7803Z" fill="white"/>
<path d="M50.433 56.6084H47.333V39.4951H64.446V42.5952H50.433V56.6084Z" fill="white"/>
<path d="M119.667 56.6084H116.567V42.5981H102.558V39.498H119.671L119.667 56.6084Z" fill="white"/>
<path d="M64.444 111.535H47.33V94.4224H50.43V108.433H64.441L64.444 111.535Z" fill="white"/>
<path d="M119.667 111.535H102.558V108.435H116.569V94.4243H119.669L119.667 111.535Z" fill="white"/>
</g>
<defs>
<clipPath id="clip0_2_90">
<rect width="169" height="153" fill="white"/>
</clipPath>
</defs>
</svg>
