<svg width="169" height="150" viewBox="0 0 169 150" fill="none" xmlns="http://www.w3.org/2000/svg">
<g clip-path="url(#clip0_6_141)">
<path d="M84.38 149.999C101.158 149.999 114.76 149.353 114.76 148.556C114.76 147.759 101.158 147.113 84.38 147.113C67.6016 147.113 54 147.759 54 148.556C54 149.353 67.6016 149.999 84.38 149.999Z" fill="#58595B"/>
<path d="M83.499 15C95.4677 15 107.168 18.5491 117.119 25.1986C127.071 31.8481 134.827 41.2992 139.408 52.3569C143.988 63.4146 145.186 75.5821 142.851 87.3209C140.516 99.0597 134.753 109.842 126.29 118.306C117.826 126.769 107.044 132.532 95.3049 134.867C83.5661 137.202 71.3986 136.004 60.3409 131.424C49.2832 126.843 39.8321 119.087 33.1826 109.135C26.5332 99.1837 22.984 87.4837 22.984 75.515C23.1211 59.5078 29.5408 44.1951 40.86 32.876C52.1792 21.5568 67.4919 15.1371 83.499 15V15Z" fill="#14475f" stroke="#14475f" stroke-width="30"/>
<path d="M83.499 136.03C116.921 136.03 144.014 108.937 144.014 75.515C144.014 42.0935 116.921 15 83.499 15C50.0775 15 22.984 42.0935 22.984 75.515C22.984 108.937 50.0775 136.03 83.499 136.03Z" stroke="white" stroke-width="10" stroke-miterlimit="10"/>
<path d="M83.499 136.03C116.921 136.03 144.014 108.937 144.014 75.515C144.014 42.0935 116.921 15 83.499 15C50.0775 15 22.984 42.0935 22.984 75.515C22.984 108.937 50.0775 136.03 83.499 136.03Z" fill="#14475f"/>
<path d="M113.6 74.0537C111.966 71.9885 109.886 70.3202 107.515 69.1738C105.145 68.0275 102.545 67.4332 99.912 67.4351H56.812C54.9584 67.4351 53.1807 66.6984 51.8701 65.3877C50.5594 64.077 49.823 62.2994 49.823 60.4458C49.823 58.5922 50.5594 56.8146 51.8701 55.5039C53.1807 54.1932 54.9584 53.457 56.812 53.457H71.954V51.1279H56.816C54.3447 51.1279 51.9747 52.1095 50.2272 53.8569C48.4797 55.6044 47.498 57.9745 47.498 60.4458C47.498 62.9171 48.4797 65.2872 50.2272 67.0347C51.9747 68.7821 54.3447 69.7637 56.816 69.7637H99.916C103.908 69.7596 107.739 71.3368 110.572 74.1499C111.573 73.9718 112.594 73.9381 113.604 74.0498L113.6 74.0537Z" fill="white"/>
<path d="M109.939 96.251C107.175 98.7023 103.608 100.054 99.914 100.051H80.114V102.38H99.914C102.384 102.382 104.827 101.859 107.08 100.846C109.333 99.8321 111.344 98.3512 112.981 96.501C112.788 96.511 112.597 96.5308 112.401 96.5308C111.573 96.528 110.747 96.4343 109.939 96.251V96.251Z" fill="white"/>
<path d="M112.4 76.396C110.647 76.3958 108.933 76.9154 107.476 77.8892C106.018 78.8629 104.882 80.2467 104.211 81.8662C103.54 83.4857 103.364 85.268 103.706 86.9873C104.048 88.7066 104.892 90.2858 106.132 91.5254C107.371 92.765 108.95 93.6096 110.67 93.9517C112.389 94.2937 114.171 94.1181 115.791 93.4473C117.41 92.7765 118.794 91.6406 119.768 90.1831C120.742 88.7256 121.262 87.0118 121.262 85.2588C121.259 82.9092 120.325 80.6567 118.664 78.9951C117.002 77.3336 114.75 76.3989 112.4 76.396V76.396ZM112.4 92.2026C111.027 92.2028 109.684 91.7961 108.542 91.0332C107.4 90.2703 106.51 89.1858 105.984 87.917C105.458 86.6482 105.321 85.2519 105.588 83.9048C105.856 82.5577 106.517 81.3204 107.489 80.3491C108.46 79.3779 109.697 78.7163 111.044 78.4482C112.391 78.1802 113.787 78.3177 115.056 78.8433C116.325 79.3688 117.41 80.2589 118.173 81.4009C118.936 82.5428 119.343 83.8854 119.343 85.2588C119.341 87.0996 118.609 88.8647 117.307 90.1665C116.006 91.4683 114.241 92.2003 112.4 92.2026Z" fill="white"/>
<path d="M117.157 82.8037C117.282 82.6743 117.351 82.5012 117.349 82.3213C117.348 82.1415 117.276 81.9695 117.149 81.8423C117.021 81.7151 116.849 81.6432 116.67 81.6416C116.49 81.64 116.316 81.7091 116.187 81.834L110.792 87.2281L108.611 85.0479C108.548 84.9823 108.472 84.93 108.388 84.8941C108.305 84.8581 108.215 84.8392 108.124 84.8384C108.032 84.8376 107.942 84.8547 107.858 84.8892C107.773 84.9237 107.697 84.9747 107.632 85.0391C107.568 85.1035 107.517 85.1804 107.483 85.2647C107.448 85.349 107.431 85.4392 107.431 85.5303C107.432 85.6214 107.451 85.7117 107.487 85.7954C107.523 85.8791 107.575 85.9548 107.641 86.0181L110.307 88.6841C110.436 88.8125 110.611 88.8843 110.793 88.8843C110.974 88.8843 111.149 88.8125 111.278 88.6841L117.157 82.8037Z" fill="white"/>
<path d="M88.717 39.5068V40.7559H85.385C84.7949 40.756 84.2286 40.9888 83.809 41.4038L77.209 47.937C76.9983 48.1455 76.831 48.3939 76.7169 48.6675C76.6027 48.9411 76.544 49.2343 76.544 49.5308V50.166H90.401V37.8247L88.717 39.5068ZM86.739 47.894C86.7391 47.9286 86.7324 47.9627 86.7193 47.9946C86.7061 48.0266 86.6867 48.0556 86.6623 48.0801C86.6378 48.1045 86.6088 48.124 86.5768 48.1372C86.5448 48.1504 86.5106 48.1569 86.476 48.1567H80.082C80.0295 48.1564 79.9784 48.1405 79.9351 48.1108C79.8918 48.0812 79.8584 48.0391 79.8391 47.9902C79.8199 47.9414 79.8157 47.8881 79.8271 47.8369C79.8384 47.7857 79.8649 47.7387 79.903 47.7026L85.075 42.7681C85.1256 42.7218 85.1915 42.6956 85.26 42.6948H86.476C86.5458 42.6948 86.6127 42.7227 86.662 42.772C86.7113 42.8213 86.739 42.8883 86.739 42.958V47.894Z" fill="white"/>
<path d="M76.539 51.687V55.4077C76.539 55.8535 76.7161 56.2814 77.0314 56.5967C77.3466 56.9119 77.7742 57.0889 78.22 57.0889H80.02C80.1802 55.9929 80.7295 54.9914 81.5674 54.2671C82.4053 53.5428 83.4759 53.144 84.5835 53.144C85.6911 53.144 86.7617 53.5428 87.5996 54.2671C88.4376 54.9914 88.9868 55.9929 89.147 57.0889H98.263C98.4224 55.993 98.9711 54.9911 99.8086 54.2666C100.646 53.5421 101.717 53.1436 102.824 53.1436C103.931 53.1436 105.002 53.5421 105.839 54.2666C106.677 54.9911 107.226 55.993 107.385 57.0889H111.944V51.7891L76.539 51.687Z" fill="white"/>
<path d="M84.585 54.2681C83.8956 54.2681 83.2217 54.4725 82.6484 54.8555C82.0752 55.2385 81.6284 55.7825 81.3645 56.4194C81.1006 57.0564 81.0315 57.7574 81.1659 58.4336C81.3004 59.1098 81.6323 59.7307 82.1197 60.2183C82.6071 60.7058 83.2282 61.0382 83.9043 61.1729C84.5805 61.3075 85.2814 61.2383 85.9184 60.9746C86.5554 60.7109 87.0999 60.2645 87.483 59.6914C87.8662 59.1183 88.0708 58.4443 88.071 57.7549C88.0712 57.297 87.9811 56.8435 87.806 56.4204C87.6308 55.9974 87.3741 55.6129 87.0504 55.2891C86.7267 54.9653 86.3423 54.7085 85.9193 54.5332C85.4963 54.358 85.0429 54.2681 84.585 54.2681ZM84.585 59.4971C84.2403 59.4971 83.9032 59.3947 83.6166 59.2031C83.3299 59.0116 83.1065 58.7394 82.9746 58.4209C82.8427 58.1023 82.8083 57.7517 82.8756 57.4136C82.9429 57.0754 83.109 56.7647 83.3529 56.521C83.5968 56.2773 83.9074 56.1116 84.2456 56.0444C84.5838 55.9773 84.9343 56.012 85.2527 56.144C85.5712 56.2761 85.8434 56.4994 86.0348 56.7861C86.2262 57.0729 86.3282 57.4101 86.328 57.7549C86.3275 58.2168 86.1436 58.6594 85.8168 58.9858C85.49 59.3123 85.047 59.4961 84.585 59.4961V59.4971Z" fill="white"/>
<path d="M102.826 54.2681C102.137 54.2683 101.463 54.4728 100.89 54.856C100.317 55.2391 99.8699 55.7835 99.6062 56.4204C99.3424 57.0574 99.2735 57.758 99.408 58.4341C99.5426 59.1102 99.8746 59.7313 100.362 60.2188C100.849 60.7062 101.471 61.0383 102.147 61.1729C102.823 61.3074 103.524 61.2383 104.161 60.9746C104.798 60.7109 105.342 60.2645 105.725 59.6914C106.108 59.1183 106.313 58.4443 106.313 57.7549C106.313 57.2969 106.223 56.8435 106.048 56.4204C105.873 55.9973 105.616 55.6129 105.292 55.2891C104.968 54.9652 104.584 54.7084 104.161 54.5332C103.737 54.358 103.284 54.2679 102.826 54.2681V54.2681ZM102.826 59.4971C102.481 59.4971 102.144 59.3947 101.858 59.2031C101.571 59.0116 101.347 58.7394 101.216 58.4209C101.084 58.1023 101.049 57.7517 101.117 57.4136C101.184 57.0754 101.35 56.7647 101.594 56.521C101.838 56.2773 102.148 56.1116 102.487 56.0444C102.825 55.9773 103.175 56.012 103.494 56.144C103.812 56.2761 104.084 56.4994 104.276 56.7861C104.467 57.0729 104.569 57.4101 104.569 57.7549C104.568 58.2168 104.385 58.6594 104.058 58.9858C103.731 59.3123 103.288 59.4961 102.826 59.4961V59.4971Z" fill="white"/>
<path d="M91.803 50.165H111.945V37.826H91.803V50.165Z" fill="white"/>
<path d="M47.498 81.2539V109.43H61.586V81.2539H47.498ZM52.781 102.386H49.259V98.8677H52.781V102.386ZM52.781 95.3428H49.259V91.8188H52.781V95.3428ZM52.781 88.2969H49.259V84.7749H52.781V88.2969ZM59.825 102.386H56.303V98.8677H59.825V102.386ZM59.825 95.3428H56.303V91.8188H59.825V95.3428ZM59.825 88.2969H56.303V84.7749H59.825V88.2969Z" fill="white"/>
<path d="M75.674 90.0591H63.347V91.8201H75.674V90.0591Z" fill="white"/>
<path d="M63.347 93.5811H75.674V109.43H72.152V102.386H66.869V109.43H63.347V93.5811Z" fill="white"/>
</g>
<defs>
<clipPath id="clip0_6_141">
<rect width="169" height="150" fill="white"/>
</clipPath>
</defs>
</svg>
