<svg width="154" height="152" viewBox="0 0 154 152" fill="none" xmlns="http://www.w3.org/2000/svg">
<path d="M77.38 152C94.1584 152 107.76 151.354 107.76 150.557C107.76 149.76 94.1584 149.114 77.38 149.114C60.6016 149.114 47 149.76 47 150.557C47 151.354 60.6016 152 77.38 152Z" fill="#58595B"/>
<path d="M76.499 136.03C109.921 136.03 137.014 108.937 137.014 75.515C137.014 42.0935 109.921 15 76.499 15C43.0775 15 15.984 42.0935 15.984 75.515C15.984 108.937 43.0775 136.03 76.499 136.03Z" stroke="#14475f" stroke-width="30" stroke-miterlimit="10"/>
<path d="M76.499 136.03C109.921 136.03 137.014 108.937 137.014 75.515C137.014 42.0935 109.921 15 76.499 15C43.0775 15 15.984 42.0935 15.984 75.515C15.984 108.937 43.0775 136.03 76.499 136.03Z" stroke="white" stroke-width="10" stroke-miterlimit="10"/>
<path d="M76.499 136.03C109.921 136.03 137.014 108.937 137.014 75.515C137.014 42.0935 109.921 15 76.499 15C43.0775 15 15.984 42.0935 15.984 75.515C15.984 108.937 43.0775 136.03 76.499 136.03Z" fill="#14475f"/>
<path fill-rule="evenodd" clip-rule="evenodd" d="M48.317 106.146V44.689H48.3231L55.5811 44.626V37.4258H55.588H100.134V78.6709C100.967 78.9638 101.782 79.3087 102.572 79.7031V34.9858H54.578L45.8781 43.686V108.586H74.424C74.009 107.797 73.645 106.983 73.334 106.148L48.317 106.146Z" fill="white"/>
<path d="M58.1051 84.5352H54.4401V88.2012H58.1051V84.5352Z" fill="white"/>
<path d="M58.1051 77.2031H54.4401V80.8691H58.1051V77.2031Z" fill="white"/>
<path d="M58.1051 69.9048H54.4401V73.5708H58.1051V69.9048Z" fill="white"/>
<path d="M58.1051 62.5728H54.4401V66.2388H58.1051V62.5728Z" fill="white"/>
<path d="M58.1051 55.2129H54.4401V58.8789H58.1051V55.2129Z" fill="white"/>
<path d="M58.1051 47.915H54.4401V51.581H58.1051V47.915Z" fill="white"/>
<path d="M71.425 84.5352H61.916V88.2012H71.425V84.5352Z" fill="white"/>
<path d="M94.211 62.5728H61.916V66.2388H94.211V62.5728Z" fill="white"/>
<path d="M78.063 77.2031H61.916V80.8691H78.063V77.2031Z" fill="white"/>
<path d="M94.211 69.9048H61.916V73.5708H94.211V69.9048Z" fill="white"/>
<path d="M94.211 55.2129H61.916V58.8789H94.211V55.2129Z" fill="white"/>
<path d="M94.211 47.915H61.916V51.581H94.211V47.915Z" fill="white"/>
<path fill-rule="evenodd" clip-rule="evenodd" d="M101.945 90.5591C101.944 90.359 101.865 90.1672 101.723 90.0259C101.581 89.8863 101.39 89.8081 101.191 89.8081C100.991 89.8081 100.8 89.8863 100.658 90.0259L94.271 96.4258L94.249 96.3809C94.1977 96.2752 94.1079 96.1933 93.998 96.1519C93.9425 96.1329 93.8837 96.1254 93.8252 96.1294C93.7667 96.1333 93.7095 96.1485 93.657 96.1748C93.6041 96.1992 93.5567 96.2342 93.5175 96.2773C93.4783 96.3205 93.4482 96.3708 93.429 96.4258L93.118 97.313L87.211 92.896C86.9864 92.7291 86.7051 92.6571 86.428 92.6958C86.2895 92.7142 86.1561 92.7604 86.0358 92.8315C85.9156 92.9027 85.8109 92.9973 85.728 93.1099C85.6428 93.2199 85.5811 93.3466 85.5467 93.4814C85.5123 93.6163 85.5059 93.7566 85.528 93.894C85.5467 94.0307 85.5922 94.1623 85.6621 94.2812C85.7319 94.4002 85.8247 94.5041 85.935 94.5869L91.753 98.9321L91.035 99.6479C90.93 99.7532 90.8586 99.8873 90.8298 100.033C90.8009 100.179 90.816 100.33 90.8731 100.467C90.9301 100.605 91.0265 100.722 91.1502 100.805C91.2739 100.887 91.4193 100.931 91.568 100.931C91.6648 100.932 91.7606 100.911 91.849 100.872L88.892 109.247C88.8615 109.33 88.8564 109.419 88.8773 109.504C88.8983 109.59 88.9443 109.667 89.0095 109.726C89.0747 109.785 89.1561 109.823 89.2432 109.835C89.3303 109.848 89.419 109.834 89.498 109.795C89.5509 109.77 89.5983 109.735 89.6376 109.692C89.6769 109.649 89.7073 109.599 89.727 109.544L93.12 99.9561L94.22 100.776C94.4443 100.943 94.7258 101.016 95.003 100.976C95.1411 100.957 95.2741 100.911 95.3942 100.84C95.5143 100.77 95.619 100.676 95.7023 100.564C95.7856 100.452 95.8457 100.325 95.8791 100.189C95.9126 100.054 95.9186 99.9136 95.897 99.7759C95.8783 99.6381 95.832 99.5057 95.7609 99.3862C95.6897 99.2668 95.5952 99.1631 95.483 99.0811L94.483 98.3311L101.72 91.0859C101.791 91.0175 101.847 90.9357 101.886 90.8452C101.924 90.7547 101.944 90.6575 101.945 90.5591V90.5591Z" fill="white"/>
<path fill-rule="evenodd" clip-rule="evenodd" d="M105.439 86.3161C102.59 83.4662 98.8408 81.6925 94.8305 81.297C90.8202 80.9015 86.7969 81.9087 83.446 84.1471C80.0951 86.3855 77.6239 89.7163 76.4537 93.5724C75.2834 97.4285 75.4864 101.571 77.028 105.295C78.5697 109.018 81.3546 112.091 84.9082 113.991C88.4619 115.891 92.5645 116.5 96.5169 115.714C100.469 114.929 104.027 112.797 106.584 109.682C109.141 106.568 110.538 102.663 110.539 98.633C110.542 96.3451 110.094 94.0793 109.218 91.9655C108.343 89.8517 107.059 87.9318 105.439 86.3161V86.3161ZM103.279 108.792C101.269 110.799 98.7101 112.166 95.9246 112.721C93.139 113.276 90.2515 112.994 87.626 111.91C85.4445 111.005 83.5198 109.576 82.0223 107.749C80.5248 105.923 79.5007 103.755 79.0408 101.439C78.5808 99.1219 78.6992 96.7275 79.3853 94.4674C80.0715 92.2074 81.3042 90.1515 82.9745 88.4816C84.6448 86.8117 86.7011 85.5794 88.9612 84.8937C91.2214 84.208 93.6158 84.09 95.9324 84.5504C98.2489 85.0109 100.416 86.0355 102.242 87.5333C104.069 89.0312 105.497 90.9566 106.402 93.1383C107.49 95.7637 107.773 98.6523 107.217 101.439C106.661 104.226 105.291 106.785 103.279 108.792V108.792Z" fill="white"/>
<path fill-rule="evenodd" clip-rule="evenodd" d="M85.511 97.8809H81.703C81.5041 97.8809 81.3133 97.9599 81.1727 98.1006C81.032 98.2412 80.953 98.4319 80.953 98.6309C80.953 98.8298 81.032 99.0205 81.1727 99.1611C81.3133 99.3018 81.5041 99.3809 81.703 99.3809H85.511C85.7099 99.3809 85.9007 99.3018 86.0414 99.1611C86.182 99.0205 86.261 98.8298 86.261 98.6309C86.261 98.4319 86.182 98.2412 86.0414 98.1006C85.9007 97.9599 85.7099 97.8809 85.511 97.8809Z" fill="white"/>
<path fill-rule="evenodd" clip-rule="evenodd" d="M104.539 97.8809H100.732C100.533 97.8809 100.342 97.9599 100.202 98.1006C100.061 98.2412 99.9821 98.4319 99.9821 98.6309C99.9821 98.8298 100.061 99.0205 100.202 99.1611C100.342 99.3018 100.533 99.3809 100.732 99.3809H104.539C104.738 99.3809 104.929 99.3018 105.069 99.1611C105.21 99.0205 105.289 98.8298 105.289 98.6309C105.289 98.4319 105.21 98.2412 105.069 98.1006C104.929 97.9599 104.738 97.8809 104.539 97.8809Z" fill="white"/>
<path fill-rule="evenodd" clip-rule="evenodd" d="M93.118 105.496C93.0197 105.496 92.9224 105.515 92.8316 105.553C92.7408 105.591 92.6584 105.647 92.589 105.716C92.5197 105.786 92.4647 105.869 92.4273 105.959C92.3899 106.05 92.3707 106.148 92.371 106.246V110.046C92.3657 110.148 92.3812 110.25 92.4166 110.345C92.4519 110.441 92.5063 110.528 92.5764 110.602C92.6466 110.676 92.7311 110.735 92.8247 110.775C92.9183 110.815 93.0191 110.836 93.121 110.836C93.2229 110.836 93.3237 110.815 93.4173 110.775C93.5109 110.735 93.5954 110.676 93.6656 110.602C93.7357 110.528 93.7901 110.441 93.8254 110.345C93.8608 110.25 93.8763 110.148 93.871 110.046V106.246C93.8699 106.047 93.7902 105.856 93.6491 105.716C93.508 105.575 93.3171 105.496 93.118 105.496V105.496Z" fill="white"/>
<path fill-rule="evenodd" clip-rule="evenodd" d="M93.1181 91.772C93.3174 91.772 93.5085 91.6933 93.6498 91.5527C93.7911 91.4122 93.871 91.2213 93.8721 91.022V87.2222C93.8773 87.1204 93.8618 87.0184 93.8265 86.9229C93.7912 86.8273 93.7368 86.7399 93.6666 86.666C93.5965 86.5921 93.512 86.5334 93.4184 86.4932C93.3248 86.453 93.224 86.4321 93.1221 86.4321C93.0202 86.4321 92.9194 86.453 92.8258 86.4932C92.7321 86.5334 92.6477 86.5921 92.5775 86.666C92.5074 86.7399 92.453 86.8273 92.4177 86.9229C92.3823 87.0184 92.3668 87.1204 92.3721 87.2222V91.022C92.3718 91.1202 92.3909 91.2177 92.4283 91.3086C92.4656 91.3994 92.5205 91.4816 92.5898 91.5513C92.659 91.6209 92.7413 91.6765 92.832 91.7144C92.9226 91.7522 93.0199 91.7717 93.1181 91.772Z" fill="white"/>
</svg>
