<svg width="153" height="152" viewBox="0 0 153 152" fill="none" xmlns="http://www.w3.org/2000/svg">
<g clip-path="url(#clip0_26_30)">
<path d="M77.38 152C94.1584 152 107.76 151.354 107.76 150.557C107.76 149.76 94.1584 149.114 77.38 149.114C60.6016 149.114 47 149.76 47 150.557C47 151.354 60.6016 152 77.38 152Z" fill="#58595B"/>
<path d="M76.499 136.03C109.921 136.03 137.014 108.937 137.014 75.515C137.014 42.0935 109.921 15 76.499 15C43.0775 15 15.984 42.0935 15.984 75.515C15.984 108.937 43.0775 136.03 76.499 136.03Z" stroke="#14475f" stroke-width="30" stroke-miterlimit="10"/>
<path d="M76.499 136.03C109.921 136.03 137.014 108.937 137.014 75.515C137.014 42.0935 109.921 15 76.499 15C43.0775 15 15.984 42.0935 15.984 75.515C15.984 108.937 43.0775 136.03 76.499 136.03Z" stroke="white" stroke-width="10" stroke-miterlimit="10"/>
<path d="M76.499 136.03C109.921 136.03 137.014 108.937 137.014 75.515C137.014 42.0935 109.921 15 76.499 15C43.0775 15 15.984 42.0935 15.984 75.515C15.984 108.937 43.0775 136.03 76.499 136.03Z" fill="#14475f"/>
<path d="M94.402 38.3291H60.358C58.5899 38.3294 56.8943 39.032 55.644 40.2822C54.3938 41.5325 53.6913 43.228 53.691 44.9961V111.663C53.6913 113.431 54.3938 115.127 55.6441 116.377C56.8944 117.627 58.59 118.329 60.358 118.329H94.402C96.1701 118.329 97.8657 117.627 99.116 116.377C100.366 115.127 101.069 113.431 101.069 111.663V44.9961C101.069 43.228 100.366 41.5325 99.116 40.2822C97.8658 39.032 96.1702 38.3294 94.402 38.3291V38.3291ZM72.765 42.4292H81.9951C82.0969 42.4292 82.1946 42.4695 82.2666 42.5415C82.3386 42.6135 82.3791 42.7111 82.3791 42.813C82.3791 42.9148 82.3386 43.0125 82.2666 43.0845C82.1946 43.1565 82.0969 43.1973 81.9951 43.1973H72.765C72.6632 43.1973 72.5655 43.1565 72.4935 43.0845C72.4215 43.0125 72.381 42.9148 72.381 42.813C72.381 42.7111 72.4215 42.6135 72.4935 42.5415C72.5655 42.4695 72.6632 42.4292 72.765 42.4292ZM98.277 107.812H56.483V46.5303H98.277V107.812Z" fill="white"/>
<path d="M92.2391 83.9189C91.6164 83.3726 90.8961 82.9488 90.1161 82.6699C89.8661 82.5449 89.7411 82.2949 89.8661 82.1699C89.9309 82.0986 90.0201 82.054 90.1161 82.0449C90.2508 82.1808 90.4265 82.2686 90.6161 82.2949C90.8661 82.2949 92.8641 82.4199 93.1161 81.7949C93.3681 81.1699 93.1161 80.7949 92.6161 80.4209C91.9118 80.1041 91.1258 80.0167 90.3691 80.1709C90.1191 80.2959 89.8691 81.0449 89.8691 81.0449H89.1201C89.1201 81.0449 87.2461 77.5453 86.7471 76.9243C86.4774 76.6338 86.148 76.4048 85.7815 76.2539C85.415 76.103 85.0201 76.0338 84.6241 76.0503C83.8751 76.0503 80.1241 75.8003 77.3811 75.8003C74.6381 75.8003 70.8871 76.0503 70.1381 76.0503C69.742 76.0337 69.3471 76.103 68.9806 76.2539C68.6141 76.4048 68.2847 76.6337 68.0151 76.9243C67.5151 77.5493 65.6421 81.0449 65.6421 81.0449H64.8931C64.8931 81.0449 64.6431 80.2959 64.3931 80.1709C63.636 80.0167 62.8497 80.1041 62.1451 80.4209C61.6451 80.7959 61.3961 81.1699 61.6451 81.7949C61.8941 82.4199 63.8931 82.2949 64.1451 82.2949C64.3346 82.2686 64.5103 82.1808 64.6451 82.0449C64.7411 82.054 64.8302 82.0986 64.8951 82.1699C65.0201 82.2949 64.8951 82.5449 64.6451 82.6699C63.865 82.9488 63.1447 83.3726 62.5221 83.9189C61.8334 84.6221 61.4325 85.5574 61.3981 86.541V97.0312C61.3981 97.1296 61.4174 97.227 61.4551 97.3179C61.4927 97.4087 61.5479 97.491 61.6175 97.5605C61.687 97.6301 61.7696 97.6855 61.8604 97.7231C61.9513 97.7608 62.0487 97.7803 62.1471 97.7803H65.2691C65.3675 97.7804 65.465 97.7612 65.556 97.7236C65.647 97.6861 65.7297 97.6306 65.7993 97.561C65.869 97.4915 65.9243 97.4088 65.962 97.3179C65.9997 97.2269 66.0191 97.1297 66.0191 97.0312V95.2832H88.7471V97.0312C88.7471 97.1296 88.7664 97.227 88.8041 97.3179C88.8417 97.4087 88.8969 97.491 88.9665 97.5605C89.036 97.6301 89.1186 97.6855 89.2094 97.7231C89.3003 97.7608 89.3977 97.7803 89.4961 97.7803H92.6181C92.7165 97.7804 92.814 97.7612 92.905 97.7236C92.996 97.6861 93.0787 97.6306 93.1483 97.561C93.218 97.4915 93.2733 97.4088 93.311 97.3179C93.3487 97.2269 93.3681 97.1297 93.3681 97.0312V86.541C93.3323 85.5567 92.9295 84.6214 92.2391 83.9189V83.9189ZM66.5131 81.4189C66.6381 81.1689 68.3871 77.4189 69.2611 76.9189C70.1351 76.4189 75.1301 76.4189 77.5031 76.4189C79.8761 76.4189 84.6211 76.4189 85.4951 76.9189C86.3691 77.4189 88.1181 81.1649 88.2431 81.4189C88.3221 81.5769 88.3631 81.9829 87.8681 81.9189C84.4246 81.5653 80.9646 81.3984 77.5031 81.4189C73.9584 81.3984 70.4151 81.5653 66.8881 81.9189C66.3951 81.9849 66.4391 81.5779 66.5151 81.4209L66.5131 81.4189ZM68.6371 87.7881C67.7631 88.0381 64.3591 88.9991 62.8921 88.4121C62.2681 88.1631 62.0181 86.04 62.6431 85.665C63.2681 85.29 67.8871 86.0401 69.1361 86.7891C69.4391 86.9781 69.2851 87.605 68.6391 87.79L68.6371 87.7881ZM81.4371 92.478C81.4365 92.5589 81.4041 92.6362 81.3468 92.6934C81.2895 92.7505 81.212 92.7829 81.1311 92.7832H73.6241C73.5441 92.7816 73.468 92.7489 73.4119 92.6919C73.3559 92.6349 73.3243 92.558 73.3241 92.478V92.3394C73.3243 92.2594 73.3559 92.1825 73.4119 92.1255C73.468 92.0685 73.5441 92.0357 73.6241 92.0342H81.1311C81.212 92.0344 81.2895 92.0664 81.3468 92.1235C81.4041 92.1806 81.4365 92.2585 81.4371 92.3394V92.478ZM82.0611 90.5781C82.0608 90.665 82.0262 90.7481 81.9647 90.8096C81.9033 90.871 81.82 90.906 81.7331 90.9062H73.0231C72.9362 90.906 72.8529 90.871 72.7914 90.8096C72.73 90.7481 72.6953 90.665 72.6951 90.5781V90.4839C72.6953 90.3971 72.73 90.3142 72.7915 90.2529C72.853 90.1916 72.9363 90.1572 73.0231 90.1572H81.7331C81.8198 90.1575 81.9029 90.1917 81.9644 90.2529C82.0258 90.3142 82.0605 90.3972 82.0611 90.4839V90.5781ZM83.1221 89.0332H71.6391C71.5396 89.0332 71.4442 88.9937 71.3739 88.9233C71.3036 88.853 71.2641 88.7577 71.2641 88.6582C71.2641 88.5587 71.3036 88.4634 71.3739 88.3931C71.4442 88.3227 71.5396 88.2832 71.6391 88.2832H83.1281C83.2275 88.2832 83.3229 88.3227 83.3932 88.3931C83.4636 88.4634 83.5031 88.5587 83.5031 88.6582C83.5031 88.7577 83.4636 88.853 83.3932 88.9233C83.3229 88.9937 83.2275 89.0332 83.1281 89.0332H83.1221ZM91.7771 88.4082C90.3101 88.9952 86.9061 88.0342 86.0321 87.7842C85.3861 87.5992 85.2321 86.9672 85.5321 86.7842C86.7801 86.0352 91.4011 85.2842 92.0251 85.6602C92.6491 86.0362 92.4031 88.1651 91.7791 88.4141L91.7771 88.4082Z" fill="white"/>
<path d="M72.421 62.2183C72.421 60.9031 72.9435 59.6414 73.8735 58.7114C74.8035 57.7814 76.0648 57.2593 77.38 57.2593C78.6952 57.2593 79.9566 57.7814 80.8866 58.7114C81.8166 59.6414 82.339 60.9031 82.339 62.2183C82.339 64.2183 81.639 64.7763 77.89 70.2183C77.8327 70.3004 77.7564 70.3673 77.6676 70.4136C77.5788 70.4599 77.4801 70.4839 77.38 70.4839C77.2799 70.4839 77.1812 70.4599 77.0924 70.4136C77.0036 70.3673 76.9273 70.3004 76.87 70.2183C73.117 64.7783 72.421 64.2183 72.421 62.2183ZM79.446 62.2183C79.446 61.8096 79.3249 61.4101 79.0978 61.0703C78.8708 60.7306 78.5481 60.4659 78.1706 60.3096C77.7931 60.1532 77.3777 60.1122 76.977 60.1919C76.5762 60.2716 76.2081 60.4684 75.9191 60.7573C75.6302 61.0463 75.4334 61.4142 75.3537 61.8149C75.274 62.2157 75.3149 62.6313 75.4713 63.0088C75.6277 63.3863 75.8925 63.709 76.2322 63.936C76.572 64.1631 76.9714 64.2842 77.38 64.2842C77.9279 64.2842 78.4534 64.0666 78.8409 63.6792C79.2283 63.2917 79.446 62.7662 79.446 62.2183V62.2183Z" fill="white"/>
</g>
<defs>
<clipPath id="clip0_26_30">
<rect width="153" height="152" fill="white"/>
</clipPath>
</defs>
</svg>
