<svg width="168" height="148" viewBox="0 0 168 148" fill="none" xmlns="http://www.w3.org/2000/svg">
<path d="M84.101 147.501C100.725 147.501 114.202 146.86 114.202 146.071C114.202 145.281 100.725 144.641 84.101 144.641C67.4767 144.641 54 145.281 54 146.071C54 146.86 67.4767 147.501 84.101 147.501Z" fill="#58595B"/>
<path d="M83.228 132.418C116.342 132.418 143.187 105.573 143.187 72.459C143.187 39.3446 116.342 12.5 83.228 12.5C50.1135 12.5 23.269 39.3446 23.269 72.459C23.269 105.573 50.1135 132.418 83.228 132.418Z" fill="#14475f" stroke="#14475f" stroke-width="25" stroke-miterlimit="10"/>
<path d="M83.228 132.418C116.342 132.418 143.187 105.573 143.187 72.459C143.187 39.3446 116.342 12.5 83.228 12.5C50.1135 12.5 23.269 39.3446 23.269 72.459C23.269 105.573 50.1135 132.418 83.228 132.418Z" fill="#14475f" stroke="white" stroke-width="7" stroke-miterlimit="10"/>
<path d="M83.228 132.418C116.342 132.418 143.187 105.573 143.187 72.459C143.187 39.3446 116.342 12.5 83.228 12.5C50.1135 12.5 23.269 39.3446 23.269 72.459C23.269 105.573 50.1135 132.418 83.228 132.418Z" fill="#14475f"/>
<path d="M38.34 75.5838C38.1271 75.5842 37.9196 75.5163 37.7477 75.3905C37.5759 75.2647 37.4487 75.0877 37.3847 74.8846C37.3207 74.6815 37.3231 74.4632 37.3917 74.2616C37.4602 74.06 37.5914 73.8854 37.766 73.7635L61.628 57.1156C61.8456 56.9637 62.1146 56.9045 62.3759 56.951C62.6371 56.9975 62.8692 57.146 63.021 57.3636C63.1728 57.5812 63.232 57.8504 63.1855 58.1117C63.139 58.3729 62.9906 58.6049 62.773 58.7567L38.911 75.3998C38.7442 75.5186 38.5448 75.5829 38.34 75.5838V75.5838Z" fill="white"/>
<path d="M67.638 90.2912C67.4331 90.2913 67.2332 90.2283 67.0652 90.111C66.8972 89.9938 66.7692 89.8278 66.6986 89.6354C66.628 89.4431 66.6182 89.2339 66.6705 89.0358C66.7228 88.8377 66.8347 88.6604 66.991 88.528L97.112 62.986C97.2743 62.8488 97.476 62.767 97.688 62.7521L125.848 60.7458C125.981 60.7323 126.116 60.7459 126.244 60.7853C126.371 60.8247 126.49 60.8892 126.593 60.9753C126.695 61.0614 126.779 61.1671 126.84 61.2863C126.901 61.4055 126.937 61.5357 126.947 61.6691C126.956 61.8026 126.939 61.937 126.896 62.0637C126.852 62.1903 126.784 62.3071 126.695 62.4069C126.606 62.5068 126.498 62.5875 126.377 62.6447C126.256 62.702 126.125 62.7343 125.991 62.7399L98.157 64.7238L68.285 90.0539C68.1042 90.207 67.8749 90.2913 67.638 90.2912Z" fill="white"/>
<path d="M56.399 105.187C56.2133 105.187 56.0313 105.135 55.8733 105.038C55.7153 104.94 55.5876 104.8 55.5046 104.634C55.4215 104.468 55.3864 104.282 55.4031 104.097C55.4198 103.912 55.4876 103.736 55.599 103.587L66.576 89.0376L61.288 58.545L46.061 48.815C45.8375 48.6722 45.6797 48.4461 45.6226 48.187C45.5655 47.928 45.6137 47.6567 45.7565 47.4331C45.8994 47.2096 46.1251 47.0523 46.3842 46.9951C46.6433 46.938 46.9144 46.9861 47.138 47.1289L62.738 57.0967C62.8552 57.1715 62.9553 57.2701 63.0323 57.3858C63.1093 57.5015 63.1613 57.6321 63.185 57.7691L68.622 89.1231C68.6452 89.258 68.6405 89.3962 68.6083 89.5293C68.5762 89.6624 68.5172 89.7875 68.435 89.897L57.197 104.792C57.1036 104.915 56.9829 105.015 56.8444 105.083C56.706 105.152 56.5535 105.187 56.399 105.187Z" fill="white"/>
<path d="M97.76 64.7488C97.5854 64.7491 97.4138 64.7031 97.2622 64.6165C97.1106 64.5298 96.9844 64.4053 96.896 64.2547L88.453 49.8455L62.53 58.8806C62.2796 58.968 62.0046 58.9525 61.7656 58.8372C61.5267 58.7218 61.3434 58.5159 61.256 58.2654C61.1686 58.0149 61.1844 57.7402 61.2997 57.5012C61.415 57.2623 61.6206 57.0789 61.8711 56.9915L88.571 47.6917C88.7897 47.6153 89.0281 47.6172 89.2455 47.697C89.4629 47.7769 89.6458 47.9299 89.763 48.1297L98.6211 63.2478C98.7101 63.3997 98.7576 63.5722 98.7585 63.7483C98.7594 63.9244 98.7138 64.0974 98.6264 64.2503C98.5389 64.4031 98.4126 64.5301 98.2603 64.6184C98.108 64.7068 97.9351 64.7536 97.7591 64.7537L97.76 64.7488Z" fill="white"/>
<path d="M88.9 49.6308C88.7232 49.6307 88.5497 49.5835 88.3969 49.4945C88.2442 49.4055 88.1177 49.2777 88.0305 49.1239C87.9433 48.9701 87.8984 48.7963 87.9005 48.6195C87.9025 48.4427 87.9513 48.2693 88.042 48.1176L98.848 30.0175C98.9864 29.7949 99.2066 29.6355 99.4613 29.5736C99.716 29.5118 99.9848 29.5525 100.21 29.6869C100.435 29.8213 100.598 30.0388 100.665 30.2924C100.731 30.5459 100.695 30.8154 100.565 31.0429L89.759 49.1425C89.6704 49.2912 89.5446 49.4148 89.394 49.5004C89.2434 49.5859 89.0732 49.6308 88.9 49.6308V49.6308Z" fill="white"/>
<path d="M38.304 77.5496C39.9531 77.5496 41.29 76.2128 41.29 74.5636C41.29 72.9145 39.9531 71.5776 38.304 71.5776C36.6549 71.5776 35.318 72.9145 35.318 74.5636C35.318 76.2128 36.6549 77.5496 38.304 77.5496Z" fill="white"/>
<path d="M56.4 107.172C58.0491 107.172 59.386 105.835 59.386 104.186C59.386 102.537 58.0491 101.2 56.4 101.2C54.7509 101.2 53.414 102.537 53.414 104.186C53.414 105.835 54.7509 107.172 56.4 107.172Z" fill="white"/>
<path d="M125.919 64.7288C127.568 64.7288 128.905 63.392 128.905 61.7428C128.905 60.0937 127.568 58.7568 125.919 58.7568C124.27 58.7568 122.933 60.0937 122.933 61.7428C122.933 63.392 124.27 64.7288 125.919 64.7288Z" fill="white"/>
<path d="M99.514 33.6248C101.163 33.6248 102.5 32.288 102.5 30.6388C102.5 28.9897 101.163 27.6528 99.514 27.6528C97.8649 27.6528 96.528 28.9897 96.528 30.6388C96.528 32.288 97.8649 33.6248 99.514 33.6248Z" fill="white"/>
<path d="M46.686 51.1868C48.3351 51.1868 49.672 49.85 49.672 48.2008C49.672 46.5517 48.3351 45.2148 46.686 45.2148C45.0369 45.2148 43.7 46.5517 43.7 48.2008C43.7 49.85 45.0369 51.1868 46.686 51.1868Z" fill="white"/>
<path d="M62.2 60.9227C63.8491 60.9227 65.186 59.5858 65.186 57.9367C65.186 56.2876 63.8491 54.9507 62.2 54.9507C60.5509 54.9507 59.214 56.2876 59.214 57.9367C59.214 59.5858 60.5509 60.9227 62.2 60.9227Z" fill="white"/>
<path d="M88.729 51.9217C90.3781 51.9217 91.715 50.5848 91.715 48.9357C91.715 47.2866 90.3781 45.9497 88.729 45.9497C87.0799 45.9497 85.743 47.2866 85.743 48.9357C85.743 50.5848 87.0799 51.9217 88.729 51.9217Z" fill="white"/>
<path d="M97.302 66.599C98.9512 66.599 100.288 65.2621 100.288 63.613C100.288 61.9638 98.9512 60.627 97.302 60.627C95.6529 60.627 94.316 61.9638 94.316 63.613C94.316 65.2621 95.6529 66.599 97.302 66.599Z" fill="white"/>
<path d="M67.447 91.5697C69.0961 91.5697 70.433 90.2328 70.433 88.5837C70.433 86.9345 69.0961 85.5977 67.447 85.5977C65.7979 85.5977 64.461 86.9345 64.461 88.5837C64.461 90.2328 65.7979 91.5697 67.447 91.5697Z" fill="white"/>
<path d="M119.996 99.74L111.531 91.2849C114.387 86.8061 115.502 81.4362 114.665 76.1907C113.829 70.9452 111.099 66.1881 106.992 62.8196C102.885 59.451 97.6858 57.7044 92.378 57.9104C87.0703 58.1164 82.0221 60.261 78.1885 63.9377C74.355 67.6145 72.002 72.5685 71.5747 77.863C71.1474 83.1576 72.6754 88.4252 75.8697 92.6692C79.0639 96.9132 83.7029 99.8392 88.9089 100.894C94.1149 101.948 99.5269 101.058 104.121 98.3918L112.732 107.006C113.209 107.483 113.775 107.861 114.399 108.119C115.022 108.377 115.69 108.51 116.365 108.51C117.039 108.51 117.707 108.377 118.331 108.119C118.954 107.861 119.52 107.482 119.997 107.005C120.474 106.528 120.852 105.961 121.11 105.338C121.368 104.715 121.501 104.047 121.501 103.372C121.501 102.698 121.368 102.03 121.11 101.406C120.852 100.783 120.473 100.217 119.996 99.74V99.74Z" fill="white"/>
<path d="M93.247 60.8877C89.5398 60.8877 85.9158 61.9873 82.8334 64.0469C79.7509 66.1065 77.3485 69.034 75.9298 72.459C74.5111 75.884 74.1399 79.6526 74.8632 83.2886C75.5864 86.9246 77.3716 90.2643 79.993 92.8857C82.6144 95.5071 85.9542 97.2924 89.5902 98.0156C93.2262 98.7389 96.995 98.3679 100.42 96.9492C103.845 95.5305 106.772 93.1278 108.832 90.0454C110.892 86.963 111.991 83.339 111.991 79.6318C111.985 74.6623 110.009 69.8978 106.495 66.3838C102.981 62.8698 98.2165 60.8933 93.247 60.8877ZM93.247 92.5259C90.6968 92.5249 88.2041 91.7677 86.0842 90.3501C83.9642 88.9325 82.3122 86.9184 81.337 84.562C80.3618 82.2056 80.1073 79.6129 80.6055 77.1118C81.1037 74.6107 82.3323 72.3136 84.136 70.5107C85.9397 68.7079 88.2375 67.4799 90.7388 66.9829C93.2401 66.4859 95.8326 66.742 98.1885 67.7183C100.544 68.6946 102.558 70.3472 103.975 72.4678C105.391 74.5884 106.147 77.0816 106.147 79.6318C106.143 83.0514 104.782 86.3297 102.364 88.7471C99.9454 91.1645 96.6665 92.5235 93.247 92.5259V92.5259Z" fill="#14475f"/>
<path d="M117.91 101.828L109.834 93.751C108.885 94.8628 107.827 95.8765 106.675 96.7769L114.818 104.92C115.228 105.33 115.784 105.56 116.364 105.56C116.944 105.56 117.5 105.33 117.91 104.92C118.32 104.51 118.55 103.954 118.55 103.374C118.55 102.794 118.32 102.238 117.91 101.828V101.828Z" fill="#14475f"/>
<path d="M93.844 83.2798H91.821L91.066 87.5796H89.147L89.902 83.2798H87.522V81.48H90.217L90.741 78.501H88.308V76.6768H91.066L91.831 72.3159H93.739L92.974 76.6768H95.008L95.773 72.3159H97.692L96.927 76.6768H99.227V78.501H96.605L96.082 81.48H98.43V83.2798H95.767L95.012 87.5796H93.085L93.844 83.2798ZM92.135 81.48H94.159L94.683 78.501H92.649L92.135 81.48Z" fill="#14475f"/>
</svg>
